<?xml version="1.0" encoding="UTF-8" standalone="no"?>
<!-- Created with Inkscape (http://www.inkscape.org/) -->

<svg
   xmlns:ns0="http://www.iki.fi/pav/software/textext/"
   xmlns:dc="http://purl.org/dc/elements/1.1/"
   xmlns:cc="http://creativecommons.org/ns#"
   xmlns:rdf="http://www.w3.org/1999/02/22-rdf-syntax-ns#"
   xmlns:svg="http://www.w3.org/2000/svg"
   xmlns="http://www.w3.org/2000/svg"
   xmlns:xlink="http://www.w3.org/1999/xlink"
   xmlns:sodipodi="http://sodipodi.sourceforge.net/DTD/sodipodi-0.dtd"
   xmlns:inkscape="http://www.inkscape.org/namespaces/inkscape"
   width="354.33069"
   height="106.29921"
   id="svg2"
   version="1.1"
   inkscape:version="0.47 r22583"
   sodipodi:docname="fig12.svg">
  <sodipodi:namedview
     id="base"
     pagecolor="#ffffff"
     bordercolor="#666666"
     borderopacity="1.0"
     inkscape:pageopacity="0.0"
     inkscape:pageshadow="2"
     inkscape:zoom="1.979899"
     inkscape:cx="206.72647"
     inkscape:cy="-15.937125"
     inkscape:document-units="px"
     inkscape:current-layer="layer1"
     showgrid="false"
     units="cm"
     inkscape:window-width="1024"
     inkscape:window-height="689"
     inkscape:window-x="0"
     inkscape:window-y="27"
     inkscape:window-maximized="1" />
  <defs
     id="defs4">
    <inkscape:perspective
       sodipodi:type="inkscape:persp3d"
       inkscape:vp_x="0 : 526.18109 : 1"
       inkscape:vp_y="0 : 1000 : 0"
       inkscape:vp_z="744.09448 : 526.18109 : 1"
       inkscape:persp3d-origin="372.04724 : 350.78739 : 1"
       id="perspective10" />
  </defs>
  <metadata
     id="metadata7">
    <rdf:RDF>
      <cc:Work
         rdf:about="">
        <dc:format>image/svg+xml</dc:format>
        <dc:type
           rdf:resource="http://purl.org/dc/dcmitype/StillImage" />
        <dc:title />
      </cc:Work>
    </rdf:RDF>
  </metadata>
  <g
     inkscape:label="Layer 1"
     inkscape:groupmode="layer"
     id="layer1"
     transform="translate(0,-946.06166)">
    <path
       style="fill:none;stroke:#000000;stroke-width:1.25;stroke-linecap:butt;stroke-linejoin:miter;stroke-opacity:1;stroke-miterlimit:4;stroke-dasharray:none"
       d="m 28.789348,52.256048 296.984852,0"
       id="path2816"
       transform="translate(0,946.06166)" />
    <g
       transform="matrix(1.2,0,0,1.2,-232.2654,852.77048)"
       ns0:text="$a=t_{0}$"
       ns0:preamble="/home/sriranga/Desktop/manual-pdf/test.tex"
       id="g3597">
      <defs
         id="defs3599">
        <g
           id="g3601">
          <symbol
             style="overflow:visible"
             overflow="visible"
             id="textext-3f6b7fb7-0">
            <path
               style="stroke:none"
               d=""
               id="path3604" />
          </symbol>
          <symbol
             style="overflow:visible"
             overflow="visible"
             id="textext-3f6b7fb7-1">
            <path
               style="stroke:none"
               d="m 4.625,-1.09375 c -0.15625,0.140625 -0.203125,0.203125 -0.28125,0.28125 -0.296875,0.296875 -0.421875,0.40625 -0.515625,0.40625 -0.078125,0 -0.140625,-0.0625 -0.140625,-0.125 0,-0.203125 0.421875,-1.90625 0.890625,-3.625 0.03125,-0.09375 0.03125,-0.125 0.0625,-0.203125 L 4.5625,-4.390625 3.953125,-4.328125 3.921875,-4.296875 3.8125,-3.8125 c -0.078125,-0.375 -0.359375,-0.578125 -0.796875,-0.578125 -1.3125,0 -2.84375,1.8125 -2.84375,3.390625 0,0.703125 0.375,1.109375 1.015625,1.109375 0.703125,0 1.125,-0.328125 2,-1.5625 -0.203125,0.78125 -0.234375,0.90625 -0.234375,1.140625 0,0.296875 0.125,0.40625 0.40625,0.40625 C 3.765625,0.09375 4,-0.09375 4.75,-1 L 4.625,-1.09375 z M 3.078125,-4.171875 c 0.34375,0.015625 0.5625,0.25 0.5625,0.609375 0,0.828125 -0.5,2 -1.1875,2.75 C 2.21875,-0.546875 1.875,-0.375 1.578125,-0.375 1.234375,-0.375 1,-0.671875 1,-1.125 1,-1.671875 1.390625,-2.6875 1.8125,-3.3125 2.21875,-3.890625 2.6875,-4.203125 3.078125,-4.171875 z m 0,0"
               id="path3607" />
          </symbol>
          <symbol
             style="overflow:visible"
             overflow="visible"
             id="textext-3f6b7fb7-2">
            <path
               style="stroke:none"
               d="m 2.953125,-4.265625 -0.796875,0 0.28125,-1.03125 c 0,-0.015625 0,-0.03125 0,-0.046875 0,-0.0625 -0.03125,-0.09375 -0.078125,-0.09375 -0.0625,0 -0.09375,0 -0.140625,0.078125 C 1.828125,-4.84375 1.203125,-4.34375 0.890625,-4.25 0.640625,-4.171875 0.5625,-4.109375 0.5625,-4 c 0,0 0,0.015625 0.015625,0.046875 l 0.734375,0 -0.71875,2.75 C 0.578125,-1.109375 0.5625,-1.09375 0.53125,-1 0.453125,-0.703125 0.375,-0.34375 0.375,-0.265625 c 0,0.21875 0.203125,0.375 0.46875,0.375 0.46875,0 0.796875,-0.28125 1.421875,-1.203125 l -0.125,-0.078125 c -0.5,0.640625 -0.65625,0.796875 -0.8125,0.796875 -0.09375,0 -0.15625,-0.078125 -0.15625,-0.203125 0,-0.015625 0,-0.015625 0.015625,-0.046875 l 0.875,-3.328125 0.84375,0 0.046875,-0.3125 z m 0,0"
               id="path3610" />
          </symbol>
          <symbol
             style="overflow:visible"
             overflow="visible"
             id="textext-3f6b7fb7-3">
            <path
               style="stroke:none"
               d=""
               id="path3613" />
          </symbol>
          <symbol
             style="overflow:visible"
             overflow="visible"
             id="textext-3f6b7fb7-4">
            <path
               style="stroke:none"
               d="m 5.71875,-3.296875 0,-0.546875 -5.09375,0 0,0.546875 5.09375,0 z m 0,2.03125 0,-0.5625 -5.09375,0 0,0.5625 5.09375,0 z m 0,0"
               id="path3616" />
          </symbol>
          <symbol
             style="overflow:visible"
             overflow="visible"
             id="textext-3f6b7fb7-5">
            <path
               style="stroke:none"
               d=""
               id="path3619" />
          </symbol>
          <symbol
             style="overflow:visible"
             overflow="visible"
             id="textext-3f6b7fb7-6">
            <path
               style="stroke:none"
               d="m 1.765625,-4.703125 c -0.375,0 -0.671875,0.109375 -0.921875,0.359375 -0.40625,0.390625 -0.671875,1.1875 -0.671875,2 0,0.765625 0.21875,1.578125 0.546875,1.96875 0.265625,0.3125 0.625,0.46875 1.015625,0.46875 0.359375,0 0.65625,-0.109375 0.90625,-0.359375 0.40625,-0.375 0.671875,-1.1875 0.671875,-2.03125 0,-1.4375 -0.625,-2.40625 -1.546875,-2.40625 z M 1.75,-4.53125 c 0.578125,0 0.890625,0.78125 0.890625,2.25 0,1.453125 -0.296875,2.203125 -0.90625,2.203125 -0.59375,0 -0.890625,-0.75 -0.890625,-2.203125 0,-1.46875 0.3125,-2.25 0.90625,-2.25 z m 0,0"
               id="path3622" />
          </symbol>
        </g>
      </defs>
      <g
         id="textext-3f6b7fb7-7">
        <g
           style="fill:#000000;fill-opacity:1"
           id="g3625">
          <use
             height="106.29921"
             width="354.33069"
             xlink:href="#textext-3f6b7fb7-1"
             x="223.43201"
             y="134.765"
             id="use3627" />
        </g>
        <g
           style="fill:#000000;fill-opacity:1"
           id="g3629">
          <use
             height="106.29921"
             width="354.33069"
             xlink:href="#textext-3f6b7fb7-4"
             x="231.181"
             y="134.765"
             id="use3631" />
        </g>
        <g
           style="fill:#000000;fill-opacity:1"
           id="g3633">
          <use
             height="106.29921"
             width="354.33069"
             xlink:href="#textext-3f6b7fb7-2"
             x="240.284"
             y="134.765"
             id="use3635" />
        </g>
        <g
           style="fill:#000000;fill-opacity:1"
           id="g3637">
          <use
             height="106.29921"
             width="354.33069"
             xlink:href="#textext-3f6b7fb7-6"
             x="243.054"
             y="136.259"
             id="use3639" />
        </g>
      </g>
    </g>
    <g
       id="g3757"
       transform="matrix(1.2,0,0,1.2,-167.13342,852.77048)"
       ns0:preamble="/home/sriranga/Desktop/manual-pdf/test.tex"
       ns0:text="$t_{1}$">
      <defs
         id="defs3759">
        <g
           id="g3761">
          <symbol
             id="textext-3ddbdcdb-0"
             overflow="visible"
             style="overflow:visible">
            <path
               id="path3764"
               d=""
               style="stroke:none" />
          </symbol>
          <symbol
             id="textext-3ddbdcdb-1"
             overflow="visible"
             style="overflow:visible">
            <path
               id="path3767"
               d="m 2.953125,-4.265625 -0.796875,0 0.28125,-1.03125 c 0,-0.015625 0,-0.03125 0,-0.046875 0,-0.0625 -0.03125,-0.09375 -0.078125,-0.09375 -0.0625,0 -0.09375,0 -0.140625,0.078125 C 1.828125,-4.84375 1.203125,-4.34375 0.890625,-4.25 0.640625,-4.171875 0.5625,-4.109375 0.5625,-4 c 0,0 0,0.015625 0.015625,0.046875 l 0.734375,0 -0.71875,2.75 C 0.578125,-1.109375 0.5625,-1.09375 0.53125,-1 0.453125,-0.703125 0.375,-0.34375 0.375,-0.265625 c 0,0.21875 0.203125,0.375 0.46875,0.375 0.46875,0 0.796875,-0.28125 1.421875,-1.203125 l -0.125,-0.078125 c -0.5,0.640625 -0.65625,0.796875 -0.8125,0.796875 -0.09375,0 -0.15625,-0.078125 -0.15625,-0.203125 0,-0.015625 0,-0.015625 0.015625,-0.046875 l 0.875,-3.328125 0.84375,0 0.046875,-0.3125 z m 0,0"
               style="stroke:none" />
          </symbol>
          <symbol
             id="textext-3ddbdcdb-2"
             overflow="visible"
             style="overflow:visible">
            <path
               id="path3770"
               d=""
               style="stroke:none" />
          </symbol>
          <symbol
             id="textext-3ddbdcdb-3"
             overflow="visible"
             style="overflow:visible">
            <path
               id="path3773"
               d="m 2.03125,-4.703125 -1.25,0.625 0,0.09375 c 0.078125,-0.03125 0.15625,-0.0625 0.1875,-0.078125 0.125,-0.046875 0.234375,-0.0625 0.3125,-0.0625 0.140625,0 0.203125,0.09375 0.203125,0.3125 l 0,3.171875 c 0,0.21875 -0.0625,0.375 -0.171875,0.453125 -0.09375,0.0625 -0.203125,0.078125 -0.484375,0.078125 L 0.828125,0 2.75,0 l 0,-0.109375 c -0.5625,0 -0.671875,-0.078125 -0.671875,-0.40625 l 0,-4.1875 -0.046875,0 z m 0,0"
               style="stroke:none" />
          </symbol>
        </g>
      </defs>
      <g
         id="textext-3ddbdcdb-4">
        <g
           id="g3776"
           style="fill:#000000;fill-opacity:1">
          <use
             id="use3778"
             y="134.765"
             x="223.43201"
             xlink:href="#textext-3ddbdcdb-1"
             width="354.33069"
             height="106.29921" />
        </g>
        <g
           id="g3780"
           style="fill:#000000;fill-opacity:1">
          <use
             id="use3782"
             y="136.259"
             x="226.202"
             xlink:href="#textext-3ddbdcdb-3"
             width="354.33069"
             height="106.29921" />
        </g>
      </g>
    </g>
    <g
       ns0:text="$t_{2}$"
       ns0:preamble="/home/sriranga/Desktop/manual-pdf/test.tex"
       transform="matrix(1.2,0,0,1.2,-133.13342,852.77048)"
       id="g3912">
      <defs
         id="defs3914">
        <g
           id="g3916">
          <symbol
             style="overflow:visible"
             overflow="visible"
             id="textext-6900ee8d-0">
            <path
               style="stroke:none"
               d=""
               id="path3919" />
          </symbol>
          <symbol
             style="overflow:visible"
             overflow="visible"
             id="textext-6900ee8d-1">
            <path
               style="stroke:none"
               d="m 2.953125,-4.265625 -0.796875,0 0.28125,-1.03125 c 0,-0.015625 0,-0.03125 0,-0.046875 0,-0.0625 -0.03125,-0.09375 -0.078125,-0.09375 -0.0625,0 -0.09375,0 -0.140625,0.078125 C 1.828125,-4.84375 1.203125,-4.34375 0.890625,-4.25 0.640625,-4.171875 0.5625,-4.109375 0.5625,-4 c 0,0 0,0.015625 0.015625,0.046875 l 0.734375,0 -0.71875,2.75 C 0.578125,-1.109375 0.5625,-1.09375 0.53125,-1 0.453125,-0.703125 0.375,-0.34375 0.375,-0.265625 c 0,0.21875 0.203125,0.375 0.46875,0.375 0.46875,0 0.796875,-0.28125 1.421875,-1.203125 l -0.125,-0.078125 c -0.5,0.640625 -0.65625,0.796875 -0.8125,0.796875 -0.09375,0 -0.15625,-0.078125 -0.15625,-0.203125 0,-0.015625 0,-0.015625 0.015625,-0.046875 l 0.875,-3.328125 0.84375,0 0.046875,-0.3125 z m 0,0"
               id="path3922" />
          </symbol>
          <symbol
             style="overflow:visible"
             overflow="visible"
             id="textext-6900ee8d-2">
            <path
               style="stroke:none"
               d=""
               id="path3925" />
          </symbol>
          <symbol
             style="overflow:visible"
             overflow="visible"
             id="textext-6900ee8d-3">
            <path
               style="stroke:none"
               d="M 3.3125,-0.953125 3.21875,-0.984375 C 2.96875,-0.59375 2.875,-0.53125 2.5625,-0.53125 l -1.671875,0 L 2.0625,-1.75 c 0.625,-0.65625 0.890625,-1.1875 0.890625,-1.734375 0,-0.6875 -0.5625,-1.21875 -1.28125,-1.21875 -0.390625,0 -0.75,0.140625 -1.015625,0.421875 -0.21875,0.234375 -0.328125,0.46875 -0.4375,0.953125 l 0.140625,0.03125 C 0.640625,-3.96875 0.890625,-4.1875 1.375,-4.1875 c 0.578125,0 0.984375,0.390625 0.984375,0.96875 0,0.546875 -0.328125,1.203125 -0.90625,1.8125 l -1.25,1.328125 0,0.078125 2.71875,0 0.390625,-0.953125 z m 0,0"
               id="path3928" />
          </symbol>
        </g>
      </defs>
      <g
         id="textext-6900ee8d-4">
        <g
           style="fill:#000000;fill-opacity:1"
           id="g3931">
          <use
             height="106.29921"
             width="354.33069"
             xlink:href="#textext-6900ee8d-1"
             x="223.43201"
             y="134.765"
             id="use3933" />
        </g>
        <g
           style="fill:#000000;fill-opacity:1"
           id="g3935">
          <use
             height="106.29921"
             width="354.33069"
             xlink:href="#textext-6900ee8d-3"
             x="226.202"
             y="136.259"
             id="use3937" />
        </g>
      </g>
    </g>
    <g
       id="g4099"
       transform="matrix(1.2,0,0,1.2,-99.13342,852.77048)"
       ns0:preamble="/home/sriranga/Desktop/manual-pdf/test.tex"
       ns0:text="$t_{3}$">
      <defs
         id="defs4101">
        <g
           id="g4103">
          <symbol
             id="textext-55db5eb4-0"
             overflow="visible">
            <path
               id="path4106"
               d=""
               style="stroke:none;" />
          </symbol>
          <symbol
             id="textext-55db5eb4-1"
             overflow="visible">
            <path
               id="path4109"
               d="M 2.953125 -4.265625 L 2.15625 -4.265625 L 2.4375 -5.296875 C 2.4375 -5.3125 2.4375 -5.328125 2.4375 -5.34375 C 2.4375 -5.40625 2.40625 -5.4375 2.359375 -5.4375 C 2.296875 -5.4375 2.265625 -5.4375 2.21875 -5.359375 C 1.828125 -4.84375 1.203125 -4.34375 0.890625 -4.25 C 0.640625 -4.171875 0.5625 -4.109375 0.5625 -4 C 0.5625 -4 0.5625 -3.984375 0.578125 -3.953125 L 1.3125 -3.953125 L 0.59375 -1.203125 C 0.578125 -1.109375 0.5625 -1.09375 0.53125 -1 C 0.453125 -0.703125 0.375 -0.34375 0.375 -0.265625 C 0.375 -0.046875 0.578125 0.109375 0.84375 0.109375 C 1.3125 0.109375 1.640625 -0.171875 2.265625 -1.09375 L 2.140625 -1.171875 C 1.640625 -0.53125 1.484375 -0.375 1.328125 -0.375 C 1.234375 -0.375 1.171875 -0.453125 1.171875 -0.578125 C 1.171875 -0.59375 1.171875 -0.59375 1.1875 -0.625 L 2.0625 -3.953125 L 2.90625 -3.953125 L 2.953125 -4.265625 Z M 2.953125 -4.265625 "
               style="stroke:none;" />
          </symbol>
          <symbol
             id="textext-55db5eb4-2"
             overflow="visible">
            <path
               id="path4112"
               d=""
               style="stroke:none;" />
          </symbol>
          <symbol
             id="textext-55db5eb4-3"
             overflow="visible">
            <path
               id="path4115"
               d="M 1.0625 -2.296875 C 1.484375 -2.296875 1.640625 -2.28125 1.8125 -2.21875 C 2.234375 -2.0625 2.515625 -1.671875 2.515625 -1.1875 C 2.515625 -0.609375 2.109375 -0.15625 1.59375 -0.15625 C 1.40625 -0.15625 1.265625 -0.203125 1.015625 -0.375 C 0.796875 -0.5 0.6875 -0.546875 0.5625 -0.546875 C 0.40625 -0.546875 0.296875 -0.453125 0.296875 -0.296875 C 0.296875 -0.0625 0.59375 0.09375 1.09375 0.09375 C 1.625 0.09375 2.171875 -0.078125 2.5 -0.375 C 2.828125 -0.65625 3.015625 -1.0625 3.015625 -1.53125 C 3.015625 -1.875 2.90625 -2.203125 2.703125 -2.421875 C 2.5625 -2.578125 2.421875 -2.65625 2.125 -2.796875 C 2.59375 -3.125 2.78125 -3.375 2.78125 -3.75 C 2.78125 -4.328125 2.328125 -4.703125 1.6875 -4.703125 C 1.34375 -4.703125 1.03125 -4.59375 0.78125 -4.375 C 0.578125 -4.1875 0.46875 -4 0.3125 -3.578125 L 0.421875 -3.546875 C 0.703125 -4.0625 1.015625 -4.296875 1.453125 -4.296875 C 1.90625 -4.296875 2.21875 -3.984375 2.21875 -3.546875 C 2.21875 -3.296875 2.125 -3.046875 1.9375 -2.875 C 1.734375 -2.65625 1.546875 -2.5625 1.0625 -2.390625 L 1.0625 -2.296875 Z M 1.0625 -2.296875 "
               style="stroke:none;" />
          </symbol>
        </g>
      </defs>
      <g
         id="textext-55db5eb4-4">
        <g
           id="g4118"
           style="fill:rgb(0%,0%,0%);fill-opacity:1;">
          <use
             id="use4120"
             y="134.765"
             x="223.432"
             xlink:href="#textext-55db5eb4-1" />
        </g>
        <g
           id="g4122"
           style="fill:rgb(0%,0%,0%);fill-opacity:1;">
          <use
             id="use4124"
             y="136.259"
             x="226.202"
             xlink:href="#textext-55db5eb4-3" />
        </g>
      </g>
    </g>
    <g
       id="g3006"
       transform="matrix(1.2,0,0,1.2,26.86658,852.77048)"
       ns0:preamble="/home/sriranga/Desktop/manual-pdf/test.tex"
       ns0:text="$b=t_{n+1}$">
      <defs
         id="defs3008">
        <g
           id="g3010">
          <symbol
             id="textext-c6bda0ce-0"
             overflow="visible">
            <path
               id="path3013"
               d=""
               style="stroke:none;" />
          </symbol>
          <symbol
             id="textext-c6bda0ce-1"
             overflow="visible">
            <path
               id="path3016"
               d="M 1.09375 -6.40625 C 1.6875 -6.390625 1.75 -6.359375 1.75 -6.140625 C 1.75 -6.046875 1.71875 -5.9375 1.65625 -5.71875 C 1.640625 -5.640625 1.609375 -5.578125 1.609375 -5.515625 L 1.578125 -5.453125 L 0.234375 -0.453125 L 0.234375 -0.421875 C 0.234375 -0.1875 1 0.109375 1.5625 0.109375 C 3.0625 0.109375 4.71875 -1.640625 4.71875 -3.203125 C 4.71875 -3.890625 4.234375 -4.390625 3.5625 -4.390625 C 2.859375 -4.390625 2.34375 -3.984375 1.640625 -2.890625 C 2.15625 -4.78125 2.21875 -5.046875 2.671875 -6.765625 L 2.625 -6.8125 C 2.125 -6.71875 1.765625 -6.65625 1.09375 -6.578125 L 1.09375 -6.40625 Z M 3.171875 -3.90625 C 3.59375 -3.90625 3.875 -3.578125 3.875 -3.046875 C 3.875 -2.390625 3.359375 -1.328125 2.765625 -0.703125 C 2.40625 -0.328125 1.96875 -0.125 1.546875 -0.125 C 1.234375 -0.125 1.09375 -0.234375 1.09375 -0.453125 C 1.09375 -1.0625 1.390625 -2.03125 1.796875 -2.765625 C 2.25 -3.53125 2.6875 -3.90625 3.171875 -3.90625 Z M 3.171875 -3.90625 "
               style="stroke:none;" />
          </symbol>
          <symbol
             id="textext-c6bda0ce-2"
             overflow="visible">
            <path
               id="path3019"
               d="M 2.953125 -4.265625 L 2.15625 -4.265625 L 2.4375 -5.296875 C 2.4375 -5.3125 2.4375 -5.328125 2.4375 -5.34375 C 2.4375 -5.40625 2.40625 -5.4375 2.359375 -5.4375 C 2.296875 -5.4375 2.265625 -5.4375 2.21875 -5.359375 C 1.828125 -4.84375 1.203125 -4.34375 0.890625 -4.25 C 0.640625 -4.171875 0.5625 -4.109375 0.5625 -4 C 0.5625 -4 0.5625 -3.984375 0.578125 -3.953125 L 1.3125 -3.953125 L 0.59375 -1.203125 C 0.578125 -1.109375 0.5625 -1.09375 0.53125 -1 C 0.453125 -0.703125 0.375 -0.34375 0.375 -0.265625 C 0.375 -0.046875 0.578125 0.109375 0.84375 0.109375 C 1.3125 0.109375 1.640625 -0.171875 2.265625 -1.09375 L 2.140625 -1.171875 C 1.640625 -0.53125 1.484375 -0.375 1.328125 -0.375 C 1.234375 -0.375 1.171875 -0.453125 1.171875 -0.578125 C 1.171875 -0.59375 1.171875 -0.59375 1.1875 -0.625 L 2.0625 -3.953125 L 2.90625 -3.953125 L 2.953125 -4.265625 Z M 2.953125 -4.265625 "
               style="stroke:none;" />
          </symbol>
          <symbol
             id="textext-c6bda0ce-3"
             overflow="visible">
            <path
               id="path3022"
               d=""
               style="stroke:none;" />
          </symbol>
          <symbol
             id="textext-c6bda0ce-4"
             overflow="visible">
            <path
               id="path3025"
               d="M 5.71875 -3.296875 L 5.71875 -3.84375 L 0.625 -3.84375 L 0.625 -3.296875 L 5.71875 -3.296875 Z M 5.71875 -1.265625 L 5.71875 -1.828125 L 0.625 -1.828125 L 0.625 -1.265625 L 5.71875 -1.265625 Z M 5.71875 -1.265625 "
               style="stroke:none;" />
          </symbol>
          <symbol
             id="textext-c6bda0ce-5"
             overflow="visible">
            <path
               id="path3028"
               d=""
               style="stroke:none;" />
          </symbol>
          <symbol
             id="textext-c6bda0ce-6"
             overflow="visible">
            <path
               id="path3031"
               d="M 3.203125 -0.8125 L 3.0625 -0.640625 C 2.859375 -0.375 2.734375 -0.265625 2.640625 -0.265625 C 2.578125 -0.265625 2.515625 -0.328125 2.515625 -0.375 C 2.515625 -0.421875 2.515625 -0.421875 2.625 -0.8125 L 3.015625 -2.25 C 3.046875 -2.390625 3.078125 -2.546875 3.078125 -2.640625 C 3.078125 -2.90625 2.890625 -3.078125 2.625 -3.078125 C 2.171875 -3.078125 1.734375 -2.65625 1.015625 -1.546875 L 1.484375 -3.0625 L 1.46875 -3.078125 C 1.09375 -3 0.9375 -2.96875 0.328125 -2.859375 L 0.328125 -2.75 C 0.6875 -2.734375 0.78125 -2.703125 0.78125 -2.5625 C 0.78125 -2.515625 0.78125 -2.46875 0.765625 -2.4375 L 0.09375 0 L 0.625 0 C 0.953125 -1.09375 1.015625 -1.25 1.3125 -1.734375 C 1.734375 -2.375 2.09375 -2.71875 2.34375 -2.71875 C 2.453125 -2.71875 2.515625 -2.640625 2.515625 -2.515625 C 2.515625 -2.4375 2.46875 -2.203125 2.421875 -1.984375 L 2.109375 -0.84375 C 2.015625 -0.484375 2 -0.390625 2 -0.3125 C 2 -0.046875 2.09375 0.0625 2.328125 0.0625 C 2.640625 0.0625 2.828125 -0.078125 3.296875 -0.71875 L 3.203125 -0.8125 Z M 3.203125 -0.8125 "
               style="stroke:none;" />
          </symbol>
          <symbol
             id="textext-c6bda0ce-7"
             overflow="visible">
            <path
               id="path3034"
               d=""
               style="stroke:none;" />
          </symbol>
          <symbol
             id="textext-c6bda0ce-8"
             overflow="visible">
            <path
               id="path3037"
               d="M 4 -1.59375 L 4 -1.984375 L 2.40625 -1.984375 L 2.40625 -3.5625 L 2.015625 -3.5625 L 2.015625 -1.984375 L 0.4375 -1.984375 L 0.4375 -1.59375 L 2.015625 -1.59375 L 2.015625 0 L 2.40625 0 L 2.40625 -1.59375 L 4 -1.59375 Z M 4 -1.59375 "
               style="stroke:none;" />
          </symbol>
          <symbol
             id="textext-c6bda0ce-9"
             overflow="visible">
            <path
               id="path3040"
               d=""
               style="stroke:none;" />
          </symbol>
          <symbol
             id="textext-c6bda0ce-10"
             overflow="visible">
            <path
               id="path3043"
               d="M 2.03125 -4.703125 L 0.78125 -4.078125 L 0.78125 -3.984375 C 0.859375 -4.015625 0.9375 -4.046875 0.96875 -4.0625 C 1.09375 -4.109375 1.203125 -4.125 1.28125 -4.125 C 1.421875 -4.125 1.484375 -4.03125 1.484375 -3.8125 L 1.484375 -0.640625 C 1.484375 -0.421875 1.421875 -0.265625 1.3125 -0.1875 C 1.21875 -0.125 1.109375 -0.109375 0.828125 -0.109375 L 0.828125 0 L 2.75 0 L 2.75 -0.109375 C 2.1875 -0.109375 2.078125 -0.1875 2.078125 -0.515625 L 2.078125 -4.703125 L 2.03125 -4.703125 Z M 2.03125 -4.703125 "
               style="stroke:none;" />
          </symbol>
        </g>
      </defs>
      <g
         id="textext-c6bda0ce-11">
        <g
           id="g3046"
           style="fill:rgb(0%,0%,0%);fill-opacity:1;">
          <use
             id="use3048"
             y="134.765"
             x="223.432"
             xlink:href="#textext-c6bda0ce-1" />
        </g>
        <g
           id="g3050"
           style="fill:rgb(0%,0%,0%);fill-opacity:1;">
          <use
             id="use3052"
             y="134.765"
             x="231.181"
             xlink:href="#textext-c6bda0ce-4" />
        </g>
        <g
           id="g3054"
           style="fill:rgb(0%,0%,0%);fill-opacity:1;">
          <use
             id="use3056"
             y="134.765"
             x="240.284"
             xlink:href="#textext-c6bda0ce-2" />
        </g>
        <g
           id="g3058"
           style="fill:rgb(0%,0%,0%);fill-opacity:1;">
          <use
             id="use3060"
             y="136.259"
             x="243.054"
             xlink:href="#textext-c6bda0ce-6" />
        </g>
        <g
           id="g3062"
           style="fill:rgb(0%,0%,0%);fill-opacity:1;">
          <use
             id="use3064"
             y="136.259"
             x="246.541"
             xlink:href="#textext-c6bda0ce-8" />
        </g>
        <g
           id="g3066"
           style="fill:rgb(0%,0%,0%);fill-opacity:1;">
          <use
             id="use3068"
             y="136.259"
             x="250.976"
             xlink:href="#textext-c6bda0ce-10" />
        </g>
      </g>
    </g>
  </g>
</svg>
