<?xml version="1.0" encoding="UTF-8" standalone="no"?>
<!-- Created with Inkscape (http://www.inkscape.org/) -->

<svg
   xmlns:ns0="http://www.iki.fi/pav/software/textext/"
   xmlns:dc="http://purl.org/dc/elements/1.1/"
   xmlns:cc="http://creativecommons.org/ns#"
   xmlns:rdf="http://www.w3.org/1999/02/22-rdf-syntax-ns#"
   xmlns:svg="http://www.w3.org/2000/svg"
   xmlns="http://www.w3.org/2000/svg"
   xmlns:xlink="http://www.w3.org/1999/xlink"
   xmlns:sodipodi="http://sodipodi.sourceforge.net/DTD/sodipodi-0.dtd"
   xmlns:inkscape="http://www.inkscape.org/namespaces/inkscape"
   id="svg2"
   version="1.1"
   inkscape:version="0.47 r22583"
   width="283.46457"
   height="212.59842"
   sodipodi:docname="fig4.jpeg">
  <sodipodi:namedview
     pagecolor="#ffffff"
     bordercolor="#666666"
     borderopacity="1"
     objecttolerance="10"
     gridtolerance="10"
     guidetolerance="10"
     inkscape:pageopacity="0"
     inkscape:pageshadow="2"
     inkscape:window-width="1024"
     inkscape:window-height="693"
     id="namedview4"
     showgrid="false"
     units="cm"
     inkscape:zoom="1.3333333"
     inkscape:cx="22.910431"
     inkscape:cy="119.83001"
     inkscape:window-x="0"
     inkscape:window-y="25"
     inkscape:window-maximized="1"
     inkscape:current-layer="svg2" />
  <metadata
     id="metadata8">
    <rdf:RDF>
      <cc:Work
         rdf:about="">
        <dc:format>image/svg+xml</dc:format>
        <dc:type
           rdf:resource="http://purl.org/dc/dcmitype/StillImage" />
        <dc:title></dc:title>
      </cc:Work>
    </rdf:RDF>
  </metadata>
  <defs
     id="defs6">
    <marker
       style="overflow:visible;"
       id="Arrow1Mend"
       refX="0.0"
       refY="0.0"
       orient="auto"
       inkscape:stockid="Arrow1Mend">
      <path
         transform="scale(0.4) rotate(180) translate(10,0)"
         style="fill-rule:evenodd;stroke:#000000;stroke-width:1.0pt;marker-start:none;"
         d="M 0.0,0.0 L 5.0,-5.0 L -12.5,0.0 L 5.0,5.0 L 0.0,0.0 z "
         id="path3608" />
    </marker>
    <inkscape:perspective
       id="perspective10"
       inkscape:persp3d-origin="0.5 : 0.33333333 : 1"
       inkscape:vp_z="1 : 0.5 : 1"
       inkscape:vp_y="0 : 1000 : 0"
       inkscape:vp_x="0 : 0.5 : 1"
       sodipodi:type="inkscape:persp3d" />
  </defs>
  <path
     style="fill:none;stroke:#000000;stroke-width:0.99999994px;stroke-linecap:butt;stroke-linejoin:miter;stroke-opacity:1"
     d="m 31.710305,117.64116 c 0,0 1.831234,-2.11859 3.108322,-2.4432 2.782949,-0.70739 5.934811,2.74945 8.492374,1.4437 1.488774,-0.76006 0.752439,-3.69787 2.22023,-4.49772 1.84812,-1.00709 4.294067,1.44057 6.272156,0.72187 2.374095,-0.86261 2.936293,-4.41248 5.217541,-5.49723 1.977544,-0.94034 4.56233,0.41965 6.549678,-0.49975 2.481815,-1.14815 3.302732,-4.65674 5.772599,-5.83038 2.249975,-1.06915 5.432743,0.75669 7.43777,-0.72186 3.003812,-2.215074 0.971751,-8.699144 4.329449,-10.328109 4.605396,-2.234275 8.877178,5.020366 12.377786,3.498232 4.81868,-2.095269 2.01918,-13.029793 6.8272,-13.382121 3.39519,-0.248796 6.61246,8.12594 10.26857,7.829373 2.72913,-0.221376 3.39709,-4.522645 5.8281,-5.774857 1.55228,-0.799574 3.90718,0.326003 5.16204,-0.888439 1.7108,-1.655713 -0.44387,-5.544941 1.44314,-6.996461 3.51593,-2.704502 8.1051,1.925352 12.10025,1.166076 4.20163,-0.798511 -0.0716,-16.656906 12.54094,-21.151325 4.74945,-1.692434 10.23686,5.504095 14.26835,4.82625 4.666,-0.78453 5.43404,-9.773222 10.26857,-11.549714 2.3677,-0.870033 5.18853,2.080358 7.49327,1.055022 2.63699,-1.173142 3.96931,-7.198627 7.93732,-8.384648 3.35538,-1.002908 6.51775,1.97891 9.82452,1.665824 3.00742,-0.284743 5.9266,-4.760172 8.49237,-3.165065 3.85446,2.396257 -0.74178,9.539654 1.38765,13.548702 1.70232,3.20492 5.85948,1.486673 6.16114,2.942956 0.55255,2.667501 -1.88501,6.963661 1.77619,10.050472 2.70732,2.282587 4.619,1.140804 5.93911,1.998988 2.43574,1.583442 -3.67685,4.815107 -0.22202,11.105494 1.31169,2.388261 6.3724,1.849413 7.21575,1.332659 1.50286,-0.920867 -1.66514,4.348451 4.55147,7.274099 2.41082,1.134581 7.16023,0.277637 7.16023,0.277637 2.63942,2.933542 3.02739,6.96282 10.71262,7.440682"
     id="path4238"
     sodipodi:nodetypes="caaaaaaaassssaassssassaassssssscc" />
  <path
     style="fill:none;stroke:#000000;stroke-width:0.99999994px;stroke-linecap:butt;stroke-linejoin:miter;stroke-opacity:1;marker-end:url(#Arrow1Mend)"
     d="m 31.572213,181.33117 0,-149.702058"
     id="path4240" />
  <path
     style="fill:none;stroke:#000000;stroke-width:1;stroke-linecap:butt;stroke-linejoin:miter;stroke-miterlimit:4;stroke-opacity:1;stroke-dasharray:4, 4;stroke-dashoffset:0"
     d="m 31.128167,65.834032 220.246823,0"
     id="path4242" />
  <path
     sodipodi:nodetypes="cc"
     style="fill:none;stroke:#000000;stroke-width:1px;stroke-linecap:butt;stroke-linejoin:miter;stroke-opacity:1;marker-end:url(#Arrow1Mend)"
     d="m 22.125,120.84842 231,0"
     id="path4244" />
  <path
     style="fill:none;stroke:#000000;stroke-width:0.99999994;stroke-linecap:butt;stroke-linejoin:miter;stroke-miterlimit:4;stroke-opacity:1;stroke-dasharray:3.99999993, 3.99999993;stroke-dashoffset:0"
     d="m 31.128167,179.55429 219.802773,0"
     id="path4246" />
  <path
     style="fill:none;stroke:#000000;stroke-width:0.99999994;stroke-linecap:butt;stroke-linejoin:miter;stroke-miterlimit:4;stroke-opacity:1;stroke-dasharray:3.99999993, 3.99999993;stroke-dashoffset:0"
     d="m 138.5873,65.084032 0,56.415908"
     id="path4248" />
  <text
     sodipodi:linespacing="125%"
     id="text4250"
     y="68.598419"
     x="258.75"
     style="font-size:11px;font-style:normal;font-variant:normal;font-weight:normal;font-stretch:normal;line-height:125%;letter-spacing:0px;word-spacing:0px;fill:#000000;fill-opacity:1;stroke:none;font-family:LMRoman10;-inkscape-font-specification:LMRoman10"
     xml:space="preserve"><tspan
       y="68.598419"
       x="258.75"
       id="tspan4252"
       sodipodi:role="line">6.4</tspan></text>
  <g
     id="g4270"
     ns0:preamble="/home/sriranga/Desktop/VTU-Eng-Maths-Part-III-5th-edn-2011/figures/package.tex"
     ns0:text="$t$"
     transform="matrix(1.2,0,0,1.2,-8.25,-37.5)">
    <defs
       id="defs4272">
      <g
         id="g4274">
        <symbol
           id="textext-093b7dbd-0"
           overflow="visible"
           style="overflow:visible">
          <path
             id="path4277"
             d=""
             style="stroke:none" />
        </symbol>
        <symbol
           id="textext-093b7dbd-1"
           overflow="visible"
           style="overflow:visible">
          <path
             id="path4280"
             d="m 2.046875,-3.984375 0.9375,0 c 0.203125,0 0.3125,0 0.3125,-0.203125 0,-0.109375 -0.109375,-0.109375 -0.28125,-0.109375 l -0.875,0 C 2.5,-5.71875 2.546875,-5.90625 2.546875,-5.96875 c 0,-0.171875 -0.125,-0.265625 -0.296875,-0.265625 -0.03125,0 -0.3125,0 -0.390625,0.359375 l -0.390625,1.578125 -0.9375,0 c -0.203125,0 -0.296875,0 -0.296875,0.1875 0,0.125 0.078125,0.125 0.28125,0.125 l 0.875,0 C 0.671875,-1.15625 0.625,-0.984375 0.625,-0.8125 0.625,-0.265625 1,0.109375 1.546875,0.109375 2.5625,0.109375 3.125,-1.34375 3.125,-1.421875 3.125,-1.53125 3.046875,-1.53125 3.015625,-1.53125 2.921875,-1.53125 2.90625,-1.5 2.859375,-1.390625 2.4375,-0.34375 1.90625,-0.109375 1.5625,-0.109375 c -0.203125,0 -0.3125,-0.125 -0.3125,-0.453125 0,-0.25 0.03125,-0.3125 0.0625,-0.484375 l 0.734375,-2.9375 z m 0,0"
             style="stroke:none" />
        </symbol>
      </g>
    </defs>
    <g
       id="textext-093b7dbd-2">
      <g
         id="g4283"
         style="fill:#000000;fill-opacity:1">
        <use
           id="use4285"
           y="134.765"
           x="223.43201"
           xlink:href="#textext-093b7dbd-1"
           width="283.46457"
           height="212.59842" />
      </g>
    </g>
  </g>
  <g
     ns0:text="$\\tau$"
     ns0:preamble="/home/sriranga/Desktop/VTU-Eng-Maths-Part-III-5th-edn-2011/figures/package.tex"
     transform="matrix(1.2,0,0,1.2,-132.25,-30.75)"
     id="g4357">
    <defs
       id="defs4359">
      <g
         id="g4361">
        <symbol
           style="overflow:visible"
           overflow="visible"
           id="textext-cb7a7cb6-0">
          <path
             style="stroke:none"
             d=""
             id="path4364" />
        </symbol>
        <symbol
           style="overflow:visible"
           overflow="visible"
           id="textext-cb7a7cb6-1">
          <path
             style="stroke:none"
             d="m 2.9375,-3.71875 1.671875,0 c 0.125,0 0.484375,0 0.484375,-0.34375 0,-0.234375 -0.203125,-0.234375 -0.40625,-0.234375 l -2.78125,0 c -0.203125,0 -0.59375,0 -1.03125,0.46875 -0.328125,0.359375 -0.609375,0.84375 -0.609375,0.890625 0,0.015625 0,0.109375 0.125,0.109375 0.078125,0 0.09375,-0.046875 0.15625,-0.125 C 1.03125,-3.71875 1.609375,-3.71875 1.8125,-3.71875 l 0.828125,0 -0.96875,3.203125 C 1.625,-0.40625 1.5625,-0.1875 1.5625,-0.15625 c 0,0.109375 0.078125,0.28125 0.296875,0.28125 0.328125,0 0.375,-0.28125 0.40625,-0.4375 L 2.9375,-3.71875 z m 0,0"
             id="path4367" />
        </symbol>
      </g>
    </defs>
    <g
       id="textext-cb7a7cb6-2">
      <g
         style="fill:#000000;fill-opacity:1"
         id="g4370">
        <use
           height="212.59842"
           width="283.46457"
           xlink:href="#textext-cb7a7cb6-1"
           x="223.43201"
           y="134.765"
           id="use4372" />
      </g>
    </g>
  </g>
  <g
     id="g4464"
     transform="matrix(1.2,0,0,1.2,-250,-126.25)"
     ns0:preamble="/home/sriranga/Desktop/VTU-Eng-Maths-Part-III-5th-edn-2011/figures/package.tex"
     ns0:text="$x$">
    <defs
       id="defs4466">
      <g
         id="g4468">
        <symbol
           id="textext-44333ac0-0"
           overflow="visible"
           style="overflow:visible">
          <path
             id="path4471"
             d=""
             style="stroke:none" />
        </symbol>
        <symbol
           id="textext-44333ac0-1"
           overflow="visible"
           style="overflow:visible">
          <path
             id="path4474"
             d="M 3.328125,-3.015625 C 3.390625,-3.265625 3.625,-4.1875 4.3125,-4.1875 c 0.046875,0 0.296875,0 0.5,0.125 C 4.53125,-4 4.34375,-3.765625 4.34375,-3.515625 c 0,0.15625 0.109375,0.34375 0.375,0.34375 0.21875,0 0.53125,-0.171875 0.53125,-0.578125 0,-0.515625 -0.578125,-0.65625 -0.921875,-0.65625 -0.578125,0 -0.921875,0.53125 -1.046875,0.75 -0.25,-0.65625 -0.78125,-0.75 -1.078125,-0.75 -1.03125,0 -1.609375,1.28125 -1.609375,1.53125 0,0.109375 0.109375,0.109375 0.125,0.109375 0.078125,0 0.109375,-0.03125 0.125,-0.109375 0.34375,-1.0625 1,-1.3125 1.34375,-1.3125 0.1875,0 0.53125,0.09375 0.53125,0.671875 0,0.3125 -0.171875,0.96875 -0.53125,2.375 -0.15625,0.609375 -0.515625,1.03125 -0.953125,1.03125 -0.0625,0 -0.28125,0 -0.5,-0.125 0.25,-0.0625 0.46875,-0.265625 0.46875,-0.546875 0,-0.265625 -0.21875,-0.34375 -0.359375,-0.34375 -0.3125,0 -0.546875,0.25 -0.546875,0.578125 0,0.453125 0.484375,0.65625 0.921875,0.65625 0.671875,0 1.03125,-0.703125 1.046875,-0.75 0.125,0.359375 0.484375,0.75 1.078125,0.75 1.03125,0 1.59375,-1.28125 1.59375,-1.53125 0,-0.109375 -0.078125,-0.109375 -0.109375,-0.109375 -0.09375,0 -0.109375,0.046875 -0.140625,0.109375 -0.328125,1.078125 -1,1.3125 -1.3125,1.3125 -0.390625,0 -0.546875,-0.3125 -0.546875,-0.65625 0,-0.21875 0.046875,-0.4375 0.15625,-0.875 l 0.34375,-1.375 z m 0,0"
             style="stroke:none" />
        </symbol>
      </g>
    </defs>
    <g
       id="textext-44333ac0-2">
      <g
         id="g4477"
         style="fill:#000000;fill-opacity:1">
        <use
           id="use4479"
           y="134.765"
           x="223.43201"
           xlink:href="#textext-44333ac0-1"
           width="283.46457"
           height="212.59842" />
      </g>
    </g>
  </g>
  <g
     ns0:text="$+1$"
     ns0:preamble="/home/sriranga/Desktop/VTU-Eng-Maths-Part-III-5th-edn-2011/figures/package.tex"
     transform="matrix(1.2,0,0,1.2,-256.75,-93.5)"
     id="g4591">
    <defs
       id="defs4593">
      <g
         id="g4595">
        <symbol
           style="overflow:visible"
           overflow="visible"
           id="textext-b9f5cada-0">
          <path
             style="stroke:none"
             d=""
             id="path4598" />
        </symbol>
        <symbol
           style="overflow:visible"
           overflow="visible"
           id="textext-b9f5cada-1">
          <path
             style="stroke:none"
             d="m 4.078125,-2.296875 2.78125,0 C 7,-2.296875 7.1875,-2.296875 7.1875,-2.5 7.1875,-2.6875 7,-2.6875 6.859375,-2.6875 l -2.78125,0 0,-2.796875 c 0,-0.140625 0,-0.328125 -0.203125,-0.328125 -0.203125,0 -0.203125,0.1875 -0.203125,0.328125 l 0,2.796875 -2.78125,0 c -0.140625,0 -0.328125,0 -0.328125,0.1875 0,0.203125 0.1875,0.203125 0.328125,0.203125 l 2.78125,0 0,2.796875 c 0,0.140625 0,0.328125 0.203125,0.328125 0.203125,0 0.203125,-0.1875 0.203125,-0.328125 l 0,-2.796875 z m 0,0"
             id="path4601" />
        </symbol>
        <symbol
           style="overflow:visible"
           overflow="visible"
           id="textext-b9f5cada-2">
          <path
             style="stroke:none"
             d="m 2.9375,-6.375 c 0,-0.25 0,-0.265625 -0.234375,-0.265625 C 2.078125,-6 1.203125,-6 0.890625,-6 l 0,0.3125 c 0.203125,0 0.78125,0 1.296875,-0.265625 l 0,5.171875 c 0,0.359375 -0.03125,0.46875 -0.921875,0.46875 l -0.3125,0 0,0.3125 c 0.34375,-0.03125 1.203125,-0.03125 1.609375,-0.03125 0.390625,0 1.265625,0 1.609375,0.03125 l 0,-0.3125 -0.3125,0 c -0.90625,0 -0.921875,-0.109375 -0.921875,-0.46875 l 0,-5.59375 z m 0,0"
             id="path4604" />
        </symbol>
      </g>
    </defs>
    <g
       id="textext-b9f5cada-3">
      <g
         style="fill:#000000;fill-opacity:1"
         id="g4607">
        <use
           height="212.59842"
           width="283.46457"
           xlink:href="#textext-b9f5cada-1"
           x="223.43201"
           y="134.765"
           id="use4609" />
        <use
           height="212.59842"
           width="283.46457"
           xlink:href="#textext-b9f5cada-2"
           x="231.18091"
           y="134.765"
           id="use4611" />
      </g>
    </g>
  </g>
  <g
     id="g4755"
     transform="matrix(1.2,0,0,1.2,-256.75,20.5)"
     ns0:preamble="/home/sriranga/Desktop/VTU-Eng-Maths-Part-III-5th-edn-2011/figures/package.tex"
     ns0:text="$-1$">
    <defs
       id="defs4757">
      <g
         id="g4759">
        <symbol
           id="textext-31c3b86f-0"
           overflow="visible">
          <path
             id="path4762"
             d=""
             style="stroke:none;" />
        </symbol>
        <symbol
           id="textext-31c3b86f-1"
           overflow="visible">
          <path
             id="path4765"
             d="M 6.5625 -2.296875 C 6.734375 -2.296875 6.921875 -2.296875 6.921875 -2.5 C 6.921875 -2.6875 6.734375 -2.6875 6.5625 -2.6875 L 1.171875 -2.6875 C 1 -2.6875 0.828125 -2.6875 0.828125 -2.5 C 0.828125 -2.296875 1 -2.296875 1.171875 -2.296875 L 6.5625 -2.296875 Z M 6.5625 -2.296875 "
             style="stroke:none;" />
        </symbol>
        <symbol
           id="textext-31c3b86f-2"
           overflow="visible">
          <path
             id="path4768"
             d=""
             style="stroke:none;" />
        </symbol>
        <symbol
           id="textext-31c3b86f-3"
           overflow="visible">
          <path
             id="path4771"
             d="M 2.9375 -6.375 C 2.9375 -6.625 2.9375 -6.640625 2.703125 -6.640625 C 2.078125 -6 1.203125 -6 0.890625 -6 L 0.890625 -5.6875 C 1.09375 -5.6875 1.671875 -5.6875 2.1875 -5.953125 L 2.1875 -0.78125 C 2.1875 -0.421875 2.15625 -0.3125 1.265625 -0.3125 L 0.953125 -0.3125 L 0.953125 0 C 1.296875 -0.03125 2.15625 -0.03125 2.5625 -0.03125 C 2.953125 -0.03125 3.828125 -0.03125 4.171875 0 L 4.171875 -0.3125 L 3.859375 -0.3125 C 2.953125 -0.3125 2.9375 -0.421875 2.9375 -0.78125 L 2.9375 -6.375 Z M 2.9375 -6.375 "
             style="stroke:none;" />
        </symbol>
      </g>
    </defs>
    <g
       id="textext-31c3b86f-4">
      <g
         id="g4774"
         style="fill:rgb(0%,0%,0%);fill-opacity:1;">
        <use
           id="use4776"
           y="134.765"
           x="223.432"
           xlink:href="#textext-31c3b86f-1" />
      </g>
      <g
         id="g4778"
         style="fill:rgb(0%,0%,0%);fill-opacity:1;">
        <use
           id="use4780"
           y="134.765"
           x="231.181"
           xlink:href="#textext-31c3b86f-3" />
      </g>
    </g>
  </g>
</svg>
