<?xml version="1.0" encoding="UTF-8" standalone="no"?>
<!-- Created with Inkscape (http://www.inkscape.org/) -->

<svg
   xmlns:ns0="http://www.iki.fi/pav/software/textext/"
   xmlns:dc="http://purl.org/dc/elements/1.1/"
   xmlns:cc="http://creativecommons.org/ns#"
   xmlns:rdf="http://www.w3.org/1999/02/22-rdf-syntax-ns#"
   xmlns:svg="http://www.w3.org/2000/svg"
   xmlns="http://www.w3.org/2000/svg"
   xmlns:xlink="http://www.w3.org/1999/xlink"
   xmlns:sodipodi="http://sodipodi.sourceforge.net/DTD/sodipodi-0.dtd"
   xmlns:inkscape="http://www.inkscape.org/namespaces/inkscape"
   id="svg2"
   version="1.1"
   inkscape:version="0.47 r22583"
   width="318.89764"
   height="177.16534"
   sodipodi:docname="tfig7.svg">
  <sodipodi:namedview
     pagecolor="#ffffff"
     bordercolor="#666666"
     borderopacity="1"
     objecttolerance="10"
     gridtolerance="10"
     guidetolerance="10"
     inkscape:pageopacity="0"
     inkscape:pageshadow="2"
     inkscape:window-width="1024"
     inkscape:window-height="693"
     id="namedview4"
     showgrid="false"
     units="cm"
     inkscape:zoom="1.8294574"
     inkscape:cx="189.15867"
     inkscape:cy="61.167641"
     inkscape:window-x="0"
     inkscape:window-y="25"
     inkscape:window-maximized="1"
     inkscape:current-layer="svg2" />
  <metadata
     id="metadata8">
    <rdf:RDF>
      <cc:Work
         rdf:about="">
        <dc:format>image/svg+xml</dc:format>
        <dc:type
           rdf:resource="http://purl.org/dc/dcmitype/StillImage" />
        <dc:title></dc:title>
      </cc:Work>
    </rdf:RDF>
  </metadata>
  <defs
     id="defs6">
    <inkscape:perspective
       sodipodi:type="inkscape:persp3d"
       inkscape:vp_x="0 : 0.5 : 1"
       inkscape:vp_y="0 : 1000 : 0"
       inkscape:vp_z="1 : 0.5 : 1"
       inkscape:persp3d-origin="0.5 : 0.33333333 : 1"
       id="perspective10" />
  </defs>
  <path
     style="fill:none;stroke:#000000;stroke-width:1.25000000000000000;stroke-linecap:butt;stroke-linejoin:miter;stroke-miterlimit:4;stroke-opacity:1;stroke-dasharray:none"
     d="m 40.448291,34.929018 248.140539,0"
     id="path2818" />
  <path
     id="path3592"
     d="m 40.448291,138.92902 248.140539,0"
     style="fill:none;stroke:#000000;stroke-width:1.25000000000000000;stroke-linecap:butt;stroke-linejoin:miter;stroke-miterlimit:4;stroke-opacity:1;stroke-dasharray:none" />
  <path
     style="fill:none;stroke:#000000;stroke-width:1.25000000000000000;stroke-linecap:butt;stroke-linejoin:miter;stroke-miterlimit:4;stroke-opacity:1;stroke-dasharray:none"
     d="m 212.05951,74.739729 77.68886,0"
     id="path3594" />
  <path
     id="path3596"
     d="m 212.05951,106.73973 77.68886,0"
     style="fill:none;stroke:#000000;stroke-width:1.25000000000000000;stroke-linecap:butt;stroke-linejoin:miter;stroke-miterlimit:4;stroke-opacity:1;stroke-dasharray:none" />
  <path
     style="fill:none;stroke:#000000;stroke-width:2.50000000000000000;stroke-linecap:round;stroke-linejoin:miter;stroke-miterlimit:4;stroke-opacity:1;stroke-dasharray:none"
     d="m 46.439221,99.476481 c 8.12307,-11.806132 16.34906,-14.066348 26.47605,-15.557098 17.60701,-2.59185 22.32768,15.075839 30.244549,17.296397 9.94825,2.79034 18.00282,-11.957965 28.11873,-11.49872 9.20738,0.417998 12.80696,14.11014 21.06489,14.68745 5.57163,0.38951 7.64112,-6.970288 12.465,-8.11675 8.50929,-2.02235 13.38162,6.36266 17.9728,5.8943 6.01513,-0.61362 5.21369,-11.047386 17.19977,-12.368372 6.82809,-0.752523 11.67428,3.794553 18.84245,5.507792 3.42769,0.819241 6.18562,-1.802476 9.37292,-2.125814 4.61545,-0.468221 9.28121,0.524528 13.91441,0.289883 3.43537,-0.173981 6.80382,-1.339918 10.24256,-1.256163 1.89515,0.04616 3.71198,0.855241 5.60443,0.96628 1.80321,0.105802 5.41116,-0.289884 5.41116,-0.289884"
     id="path3598"
     sodipodi:nodetypes="cssssssssaaaac" />
  <g
     transform="matrix(1.2,0,0,1.2,-252.5339,-19.677966)"
     ns0:text="${}-1$"
     ns0:preamble="/home/sriranga/Desktop/VTU-Eng-Maths-Part-III-5th-edn-2011/figures/package.tex"
     id="g3613">
    <defs
       id="defs3615">
      <g
         id="g3617">
        <symbol
           style="overflow:visible"
           overflow="visible"
           id="textext-e59f0692-0">
          <path
             style="stroke:none"
             d=""
             id="path3620" />
        </symbol>
        <symbol
           style="overflow:visible"
           overflow="visible"
           id="textext-e59f0692-1">
          <path
             style="stroke:none"
             d="m 6.5625,-2.296875 c 0.171875,0 0.359375,0 0.359375,-0.203125 0,-0.1875 -0.1875,-0.1875 -0.359375,-0.1875 l -5.390625,0 c -0.171875,0 -0.34375,0 -0.34375,0.1875 0,0.203125 0.171875,0.203125 0.34375,0.203125 l 5.390625,0 z m 0,0"
             id="path3623" />
        </symbol>
        <symbol
           style="overflow:visible"
           overflow="visible"
           id="textext-e59f0692-2">
          <path
             style="stroke:none"
             d=""
             id="path3626" />
        </symbol>
        <symbol
           style="overflow:visible"
           overflow="visible"
           id="textext-e59f0692-3">
          <path
             style="stroke:none"
             d="m 2.9375,-6.375 c 0,-0.25 0,-0.265625 -0.234375,-0.265625 C 2.078125,-6 1.203125,-6 0.890625,-6 l 0,0.3125 c 0.203125,0 0.78125,0 1.296875,-0.265625 l 0,5.171875 c 0,0.359375 -0.03125,0.46875 -0.921875,0.46875 l -0.3125,0 0,0.3125 c 0.34375,-0.03125 1.203125,-0.03125 1.609375,-0.03125 0.390625,0 1.265625,0 1.609375,0.03125 l 0,-0.3125 -0.3125,0 c -0.90625,0 -0.921875,-0.109375 -0.921875,-0.46875 l 0,-5.59375 z m 0,0"
             id="path3629" />
        </symbol>
      </g>
    </defs>
    <g
       id="textext-e59f0692-4">
      <g
         style="fill:#000000;fill-opacity:1"
         id="g3632">
        <use
           height="177.16534"
           width="318.89764"
           xlink:href="#textext-e59f0692-1"
           x="225.646"
           y="134.765"
           id="use3634" />
      </g>
      <g
         style="fill:#000000;fill-opacity:1"
         id="g3636">
        <use
           height="177.16534"
           width="318.89764"
           xlink:href="#textext-e59f0692-3"
           x="235.60899"
           y="134.765"
           id="use3638" />
      </g>
    </g>
  </g>
  <g
     id="g3724"
     transform="matrix(1.2,0,0,1.2,-252.5339,-123.67797)"
     ns0:preamble="/home/sriranga/Desktop/VTU-Eng-Maths-Part-III-5th-edn-2011/figures/package.tex"
     ns0:text="${}+1$">
    <defs
       id="defs3726">
      <g
         id="g3728">
        <symbol
           id="textext-4458a91c-0"
           overflow="visible">
          <path
             id="path3731"
             d=""
             style="stroke:none;" />
        </symbol>
        <symbol
           id="textext-4458a91c-1"
           overflow="visible">
          <path
             id="path3734"
             d="M 4.078125 -2.296875 L 6.859375 -2.296875 C 7 -2.296875 7.1875 -2.296875 7.1875 -2.5 C 7.1875 -2.6875 7 -2.6875 6.859375 -2.6875 L 4.078125 -2.6875 L 4.078125 -5.484375 C 4.078125 -5.625 4.078125 -5.8125 3.875 -5.8125 C 3.671875 -5.8125 3.671875 -5.625 3.671875 -5.484375 L 3.671875 -2.6875 L 0.890625 -2.6875 C 0.75 -2.6875 0.5625 -2.6875 0.5625 -2.5 C 0.5625 -2.296875 0.75 -2.296875 0.890625 -2.296875 L 3.671875 -2.296875 L 3.671875 0.5 C 3.671875 0.640625 3.671875 0.828125 3.875 0.828125 C 4.078125 0.828125 4.078125 0.640625 4.078125 0.5 L 4.078125 -2.296875 Z M 4.078125 -2.296875 "
             style="stroke:none;" />
        </symbol>
        <symbol
           id="textext-4458a91c-2"
           overflow="visible">
          <path
             id="path3737"
             d="M 2.9375 -6.375 C 2.9375 -6.625 2.9375 -6.640625 2.703125 -6.640625 C 2.078125 -6 1.203125 -6 0.890625 -6 L 0.890625 -5.6875 C 1.09375 -5.6875 1.671875 -5.6875 2.1875 -5.953125 L 2.1875 -0.78125 C 2.1875 -0.421875 2.15625 -0.3125 1.265625 -0.3125 L 0.953125 -0.3125 L 0.953125 0 C 1.296875 -0.03125 2.15625 -0.03125 2.5625 -0.03125 C 2.953125 -0.03125 3.828125 -0.03125 4.171875 0 L 4.171875 -0.3125 L 3.859375 -0.3125 C 2.953125 -0.3125 2.9375 -0.421875 2.9375 -0.78125 L 2.9375 -6.375 Z M 2.9375 -6.375 "
             style="stroke:none;" />
        </symbol>
      </g>
    </defs>
    <g
       id="textext-4458a91c-3">
      <g
         id="g3740"
         style="fill:rgb(0%,0%,0%);fill-opacity:1;">
        <use
           id="use3742"
           y="134.765"
           x="225.646"
           xlink:href="#textext-4458a91c-1" />
      </g>
      <g
         id="g3744"
         style="fill:rgb(0%,0%,0%);fill-opacity:1;">
        <use
           id="use3746"
           y="134.765"
           x="235.606607"
           xlink:href="#textext-4458a91c-2" />
      </g>
    </g>
  </g>
</svg>
