<?xml version="1.0" encoding="UTF-8" standalone="no"?>
<!-- Created with Inkscape (http://www.inkscape.org/) -->

<svg
   xmlns:dc="http://purl.org/dc/elements/1.1/"
   xmlns:cc="http://creativecommons.org/ns#"
   xmlns:rdf="http://www.w3.org/1999/02/22-rdf-syntax-ns#"
   xmlns:svg="http://www.w3.org/2000/svg"
   xmlns="http://www.w3.org/2000/svg"
   xmlns:sodipodi="http://sodipodi.sourceforge.net/DTD/sodipodi-0.dtd"
   xmlns:inkscape="http://www.inkscape.org/namespaces/inkscape"
   width="354.33069"
   height="212.59842"
   id="svg2"
   version="1.1"
   inkscape:version="0.47 r22583"
   sodipodi:docname="fig76-2.2.eps">
  <sodipodi:namedview
     id="base"
     pagecolor="#ffffff"
     bordercolor="#666666"
     borderopacity="1.0"
     inkscape:pageopacity="0.0"
     inkscape:pageshadow="2"
     inkscape:zoom="1.4449779"
     inkscape:cx="159.78687"
     inkscape:cy="138.56014"
     inkscape:document-units="cm"
     inkscape:current-layer="layer1"
     showgrid="false"
     units="cm"
     inkscape:window-width="1024"
     inkscape:window-height="684"
     inkscape:window-x="0"
     inkscape:window-y="34"
     inkscape:window-maximized="1">
    <inkscape:grid
       type="xygrid"
       id="grid2816"
       empspacing="5"
       visible="true"
       enabled="true"
       snapvisiblegridlinesonly="true" />
  </sodipodi:namedview>
  <defs
     id="defs4">
    <inkscape:perspective
       sodipodi:type="inkscape:persp3d"
       inkscape:vp_x="0 : 526.18109 : 1"
       inkscape:vp_y="0 : 1000 : 0"
       inkscape:vp_z="744.09448 : 526.18109 : 1"
       inkscape:persp3d-origin="372.04724 : 350.78739 : 1"
       id="perspective10" />
    <inkscape:perspective
       sodipodi:type="inkscape:persp3d"
       inkscape:vp_x="0 : 0.5 : 1"
       inkscape:vp_y="0 : 1000 : 0"
       inkscape:vp_z="1 : 0.5 : 1"
       inkscape:persp3d-origin="0.5 : 0.33333333 : 1"
       id="perspective2883" />
    <inkscape:perspective
       sodipodi:type="inkscape:persp3d"
       inkscape:vp_x="0 : 0.5 : 1"
       inkscape:vp_y="0 : 1000 : 0"
       inkscape:vp_z="1 : 0.5 : 1"
       inkscape:persp3d-origin="0.5 : 0.33333333 : 1"
       id="perspective2883-7" />
    <inkscape:perspective
       sodipodi:type="inkscape:persp3d"
       inkscape:vp_x="0 : 0.5 : 1"
       inkscape:vp_y="0 : 1000 : 0"
       inkscape:vp_z="1 : 0.5 : 1"
       inkscape:persp3d-origin="0.5 : 0.33333333 : 1"
       id="perspective3535" />
    <inkscape:perspective
       sodipodi:type="inkscape:persp3d"
       inkscape:vp_x="0 : 0.5 : 1"
       inkscape:vp_y="0 : 1000 : 0"
       inkscape:vp_z="1 : 0.5 : 1"
       inkscape:persp3d-origin="0.5 : 0.33333333 : 1"
       id="perspective3584" />
    <inkscape:perspective
       id="perspective4151"
       inkscape:persp3d-origin="0.5 : 0.33333333 : 1"
       inkscape:vp_z="1 : 0.5 : 1"
       inkscape:vp_y="0 : 1000 : 0"
       inkscape:vp_x="0 : 0.5 : 1"
       sodipodi:type="inkscape:persp3d" />
    <inkscape:perspective
       sodipodi:type="inkscape:persp3d"
       inkscape:vp_x="0 : 0.5 : 1"
       inkscape:vp_y="0 : 1000 : 0"
       inkscape:vp_z="1 : 0.5 : 1"
       inkscape:persp3d-origin="0.5 : 0.33333333 : 1"
       id="perspective6471" />
    <inkscape:perspective
       id="perspective7000"
       inkscape:persp3d-origin="0.5 : 0.33333333 : 1"
       inkscape:vp_z="1 : 0.5 : 1"
       inkscape:vp_y="0 : 1000 : 0"
       inkscape:vp_x="0 : 0.5 : 1"
       sodipodi:type="inkscape:persp3d" />
    <inkscape:perspective
       id="perspective7177"
       inkscape:persp3d-origin="0.5 : 0.33333333 : 1"
       inkscape:vp_z="1 : 0.5 : 1"
       inkscape:vp_y="0 : 1000 : 0"
       inkscape:vp_x="0 : 0.5 : 1"
       sodipodi:type="inkscape:persp3d" />
    <inkscape:perspective
       id="perspective7984"
       inkscape:persp3d-origin="0.5 : 0.33333333 : 1"
       inkscape:vp_z="1 : 0.5 : 1"
       inkscape:vp_y="0 : 1000 : 0"
       inkscape:vp_x="0 : 0.5 : 1"
       sodipodi:type="inkscape:persp3d" />
    <inkscape:perspective
       id="perspective7984-9"
       inkscape:persp3d-origin="0.5 : 0.33333333 : 1"
       inkscape:vp_z="1 : 0.5 : 1"
       inkscape:vp_y="0 : 1000 : 0"
       inkscape:vp_x="0 : 0.5 : 1"
       sodipodi:type="inkscape:persp3d" />
    <inkscape:perspective
       id="perspective8058"
       inkscape:persp3d-origin="0.5 : 0.33333333 : 1"
       inkscape:vp_z="1 : 0.5 : 1"
       inkscape:vp_y="0 : 1000 : 0"
       inkscape:vp_x="0 : 0.5 : 1"
       sodipodi:type="inkscape:persp3d" />
    <inkscape:perspective
       id="perspective8058-1"
       inkscape:persp3d-origin="0.5 : 0.33333333 : 1"
       inkscape:vp_z="1 : 0.5 : 1"
       inkscape:vp_y="0 : 1000 : 0"
       inkscape:vp_x="0 : 0.5 : 1"
       sodipodi:type="inkscape:persp3d" />
    <inkscape:perspective
       id="perspective8124"
       inkscape:persp3d-origin="0.5 : 0.33333333 : 1"
       inkscape:vp_z="1 : 0.5 : 1"
       inkscape:vp_y="0 : 1000 : 0"
       inkscape:vp_x="0 : 0.5 : 1"
       sodipodi:type="inkscape:persp3d" />
    <inkscape:perspective
       id="perspective8493"
       inkscape:persp3d-origin="0.5 : 0.33333333 : 1"
       inkscape:vp_z="1 : 0.5 : 1"
       inkscape:vp_y="0 : 1000 : 0"
       inkscape:vp_x="0 : 0.5 : 1"
       sodipodi:type="inkscape:persp3d" />
    <inkscape:perspective
       sodipodi:type="inkscape:persp3d"
       inkscape:vp_x="0 : 0.5 : 1"
       inkscape:vp_y="0 : 1000 : 0"
       inkscape:vp_z="1 : 0.5 : 1"
       inkscape:persp3d-origin="0.5 : 0.33333333 : 1"
       id="perspective8805" />
    <inkscape:perspective
       sodipodi:type="inkscape:persp3d"
       inkscape:vp_x="0 : 0.5 : 1"
       inkscape:vp_y="0 : 1000 : 0"
       inkscape:vp_z="1 : 0.5 : 1"
       inkscape:persp3d-origin="0.5 : 0.33333333 : 1"
       id="perspective8960" />
    <inkscape:perspective
       sodipodi:type="inkscape:persp3d"
       inkscape:vp_x="0 : 0.5 : 1"
       inkscape:vp_y="0 : 1000 : 0"
       inkscape:vp_z="1 : 0.5 : 1"
       inkscape:persp3d-origin="0.5 : 0.33333333 : 1"
       id="perspective8960-1" />
    <inkscape:perspective
       id="perspective4884"
       inkscape:persp3d-origin="0.5 : 0.33333333 : 1"
       inkscape:vp_z="1 : 0.5 : 1"
       inkscape:vp_y="0 : 1000 : 0"
       inkscape:vp_x="0 : 0.5 : 1"
       sodipodi:type="inkscape:persp3d" />
  </defs>
  <metadata
     id="metadata7">
    <rdf:RDF>
      <cc:Work
         rdf:about="">
        <dc:format>image/svg+xml</dc:format>
        <dc:type
           rdf:resource="http://purl.org/dc/dcmitype/StillImage" />
        <dc:title></dc:title>
      </cc:Work>
    </rdf:RDF>
  </metadata>
  <g
     inkscape:label="Layer 1"
     inkscape:groupmode="layer"
     id="layer1"
     transform="translate(0,-839.76243)">
    <path
       id="path4782"
       style="fill:none;stroke:#000000;stroke-width:1;stroke-linecap:butt;stroke-linejoin:miter;stroke-miterlimit:4;stroke-opacity:1;stroke-dasharray:none"
       d="m 76.460969,951.31602 192.485001,0" />
    <path
       id="path4784"
       style="fill:none;stroke:#000000;stroke-width:1;stroke-linecap:butt;stroke-linejoin:miter;stroke-miterlimit:4;stroke-opacity:1;stroke-dasharray:none"
       d="m 136.46097,979.31352 0,-40 70,-55.00012 0,27.03625" />
    <path
       id="path4786"
       style="fill:none;stroke:#000000;stroke-width:1;stroke-linecap:butt;stroke-linejoin:miter;stroke-miterlimit:4;stroke-opacity:1;stroke-dasharray:none"
       d="m 167.06597,950.4659 c 10.98625,-9.541 60.29375,-41.60125 75.29375,-43.78375" />
    <path
       id="path4788"
       style="fill:none;stroke:#000000;stroke-width:0.99212623;stroke-linecap:butt;stroke-linejoin:miter;stroke-miterlimit:4;stroke-opacity:1;stroke-dasharray:2.976375, 2.976375;stroke-dashoffset:0"
       d="m 137.45709,975.68077 c 9.24763,-8.67237 19.20388,-17.03612 29.60888,-25.21487" />
    <path
       id="path4790"
       style="fill:none;stroke:#000000;stroke-width:1;stroke-linecap:butt;stroke-linejoin:miter;stroke-miterlimit:4;stroke-opacity:1;stroke-dasharray:none"
       d="m 122.63722,990.6759 c 4.65875,-5.05863 9.585,-10 14.73637,-14.84375" />
    <path
       id="path4792"
       style="fill:none;stroke:#000000;stroke-width:1;stroke-linecap:butt;stroke-linejoin:miter;stroke-miterlimit:4;stroke-opacity:1;stroke-dasharray:none"
       d="m 139.00497,934.4894 c -11.87463,-4.90288 -24.76075,-7.4615 -38.2915,-6.95275" />
    <path
       id="path4794"
       style="fill:none;stroke:#000000;stroke-width:1;stroke-linecap:butt;stroke-linejoin:miter;stroke-miterlimit:4;stroke-opacity:1;stroke-dasharray:3, 3;stroke-dashoffset:0"
       d="m 165.13347,950.05527 c -7.96,-6.46437 -16.73875,-11.81587 -26.14863,-15.70212" />
    <path
       id="path4796"
       style="fill:none;stroke:#000000;stroke-width:1;stroke-linecap:butt;stroke-linejoin:miter;stroke-miterlimit:4;stroke-opacity:1;stroke-dasharray:none"
       d="m 202.77972,1001.8086 c -7.8675,-19.86808 -20.9475,-38.2182 -37.59375,-51.72795" />
    <g
       transform="matrix(1.25,0,0,-1.25,16.460969,1039.7159)"
       id="g4798">
      <text
         id="text4800"
         transform="matrix(1,0,0,-1,184.198,123.632)">
        <tspan
           id="tspan4802"
           y="0"
           x="0"
           style="font-size:9.60000038px;font-variant:normal;writing-mode:lr-tb;fill:#000000;fill-opacity:1;fill-rule:nonzero;stroke:none;font-family:f-0;-inkscape-font-specification:f-0-0">2</tspan>
      </text>
    </g>
    <path
       id="path4804"
       style="fill:none;stroke:#000000;stroke-width:1;stroke-linecap:square;stroke-linejoin:miter;stroke-miterlimit:4;stroke-opacity:1;stroke-dasharray:none"
       d="m 255.79222,881.34465 c 0,3.36 -2.8225,6.08375 -6.30875,6.08375 -3.48625,0 -6.30875,-2.72375 -6.30875,-6.08375 0,-3.35875 2.8225,-6.08375 6.30875,-6.08375 3.48625,0 6.30875,2.725 6.30875,6.08375 z" />
    <g
       transform="matrix(1.25,0,0,-1.25,16.460969,1039.7159)"
       id="g4806">
      <text
         id="text4808"
         transform="matrix(1,0,0,-1,103.327,20.084)">
        <tspan
           id="tspan4810"
           y="0"
           x="0"
           style="font-size:9.60000038px;font-variant:normal;writing-mode:lr-tb;fill:#000000;fill-opacity:1;fill-rule:nonzero;stroke:none;font-family:f-0;-inkscape-font-specification:f-0-0">2</tspan>
      </text>
    </g>
    <path
       id="path4812"
       style="fill:none;stroke:#000000;stroke-width:1;stroke-linecap:square;stroke-linejoin:miter;stroke-miterlimit:4;stroke-opacity:1;stroke-dasharray:none"
       d="m 154.70347,1010.7784 c 0,3.3637 -2.8225,6.084 -6.30875,6.084 -3.48625,0 -6.30875,-2.7203 -6.30875,-6.084 0,-3.3599 2.8225,-6.084 6.30875,-6.084 3.48625,0 6.30875,2.7241 6.30875,6.084 z" />
    <g
       transform="matrix(1.25,0,0,-1.25,16.460969,1039.7159)"
       id="g4814">
      <text
         id="text4816"
         transform="matrix(1,0,0,-1,185.423,102.953)">
        <tspan
           id="tspan4818"
           y="0"
           x="0"
           style="font-size:9.60000038px;font-variant:normal;writing-mode:lr-tb;fill:#000000;fill-opacity:1;fill-rule:nonzero;stroke:none;font-family:f-0;-inkscape-font-specification:f-0-0">3</tspan>
      </text>
    </g>
    <path
       id="path4820"
       style="fill:none;stroke:#000000;stroke-width:1;stroke-linecap:square;stroke-linejoin:miter;stroke-miterlimit:4;stroke-opacity:1;stroke-dasharray:none"
       d="m 257.77472,906.74465 c 0,3.36 -2.8275,6.085 -6.30875,6.085 -3.48625,0 -6.31375,-2.725 -6.31375,-6.085 0,-3.36375 2.8275,-6.08875 6.31375,-6.08875 3.48125,0 6.30875,2.725 6.30875,6.08875 z" />
    <g
       transform="matrix(1.25,0,0,-1.25,16.460969,1039.7159)"
       id="g4822">
      <text
         id="text4824"
         transform="matrix(1,0,0,-1,76.9723,29.6449)">
        <tspan
           id="tspan4826"
           y="0"
           x="0"
           style="font-size:9.60000038px;font-variant:normal;writing-mode:lr-tb;fill:#000000;fill-opacity:1;fill-rule:nonzero;stroke:none;font-family:f-0;-inkscape-font-specification:f-0-0">3</tspan>
      </text>
    </g>
    <path
       id="path4828"
       style="fill:none;stroke:#000000;stroke-width:1;stroke-linecap:square;stroke-linejoin:miter;stroke-miterlimit:4;stroke-opacity:1;stroke-dasharray:none"
       d="m 122.21347,998.37602 c 0,3.36478 -2.82775,6.08838 -6.3135,6.08838 -3.4815,0 -6.30913,-2.7236 -6.30913,-6.08838 0,-3.35887 2.82763,-6.084 6.30913,-6.084 3.48575,0 6.3135,2.72513 6.3135,6.084 z" />
    <path
       id="path4830"
       style="fill:none;stroke:#000000;stroke-width:1;stroke-linecap:square;stroke-linejoin:miter;stroke-miterlimit:4;stroke-opacity:1;stroke-dasharray:none"
       d="m 96.480969,927.33115 c 0,3.35987 -2.82275,6.0835 -6.308625,6.0835 -3.48625,0 -6.309,-2.72363 -6.309,-6.0835 0,-3.36375 2.82275,-6.08888 6.309,-6.08888 3.485875,0 6.308625,2.72513 6.308625,6.08888 z" />
    <g
       transform="matrix(1.25,0,0,-1.25,16.460969,1039.7159)"
       id="g4832">
      <text
         id="text4834"
         transform="matrix(1,0,0,-1,56.7336,86.7625)">
        <tspan
           id="tspan4836"
           y="0"
           x="0"
           style="font-size:9.60000038px;font-variant:normal;writing-mode:lr-tb;fill:#000000;fill-opacity:1;fill-rule:nonzero;stroke:none;font-family:f-0;-inkscape-font-specification:f-0-0">1</tspan>
      </text>
    </g>
    <path
       id="path4838"
       style="fill:none;stroke:#000000;stroke-width:1;stroke-linecap:square;stroke-linejoin:miter;stroke-miterlimit:4;stroke-opacity:1;stroke-dasharray:none"
       d="m 215.40097,1008.3809 c 0,3.3599 -2.82625,6.0835 -6.30875,6.0835 -3.48625,0 -6.3125,-2.7236 -6.3125,-6.0835 0,-3.3589 2.82625,-6.084 6.3125,-6.084 3.4825,0 6.30875,2.7251 6.30875,6.084 z" />
    <g
       transform="matrix(1.25,0,0,-1.25,16.460969,1039.7159)"
       id="g4840">
      <text
         id="text4842"
         transform="matrix(1,0,0,-1,151.869,21.9215)">
        <tspan
           id="tspan4844"
           y="0"
           x="0"
           style="font-size:9.60000038px;font-variant:normal;writing-mode:lr-tb;fill:#000000;fill-opacity:1;fill-rule:nonzero;stroke:none;font-family:f-0;-inkscape-font-specification:f-0-0">1</tspan>
      </text>
    </g>
    <path
       id="path4846"
       style="fill:#000000;fill-opacity:1;fill-rule:nonzero;stroke:none"
       d="m 193.92222,901.4959 -0.99625,-2.3825 c -0.0337,-0.0925 -0.0538,-0.15125 -0.0538,-0.15125 0,-0.0737 0.185,-0.2975 0.69375,-0.35625 0.13125,-0.02 0.24375,-0.02 0.24375,-0.225 0,-0.15125 -0.15125,-0.15125 -0.19,-0.15125 -0.48375,0 -0.99125,0.0388 -1.5,0.0388 -0.2975,0 -1.03,-0.0388 -1.3275,-0.0388 -0.0787,0 -0.225,0 -0.225,0.24375 0,0.1325 0.1275,0.1325 0.27875,0.1325 0.7125,0 0.78625,0.1125 0.89875,0.37625 l 1.40625,3.33875 -2.53,2.715 -0.15125,0.1325 c -0.58125,0.63875 -1.1425,0.825 -1.7625,0.86375 -0.14625,0.02 -0.25875,0.02 -0.25875,0.24375 0,0.02 0,0.1325 0.16625,0.1325 0.35625,0 0.75125,-0.0388 1.1075,-0.0388 0.45,0 0.91875,0.0388 1.34875,0.0388 0.0775,0 0.205,0 0.205,-0.24375 0,-0.1125 -0.1125,-0.1325 -0.1275,-0.1325 -0.1125,0 -0.48875,-0.0388 -0.48875,-0.37625 0,-0.185 0.18625,-0.375 0.3175,-0.5225 l 1.23625,-1.29375 1.06875,-1.18125 1.20125,2.86625 c 0.0587,0.13125 0.0737,0.13125 0.0737,0.17125 0,0.0925 -0.24,0.2975 -0.69375,0.33625 -0.1275,0.02 -0.24375,0.02 -0.24375,0.225 0,0.15125 0.13125,0.15125 0.17,0.15125 0.3375,0 1.1825,-0.0388 1.51875,-0.0388 0.3025,0 1.03,0.0388 1.33375,0.0388 0.0725,0 0.22375,0 0.22375,-0.225 0,-0.15125 -0.13125,-0.15125 -0.22375,-0.15125 -0.79125,0 -0.82625,-0.0388 -1.03125,-0.5275 -0.45375,-1.10375 -1.26,-2.97875 -1.5375,-3.69125 0.805,-0.845 2.06,-2.27 2.45625,-2.5875 0.33625,-0.3025 0.805,-0.58125 1.51875,-0.62 0.14625,-0.02 0.25875,-0.02 0.25875,-0.245 0,0 0,-0.13125 -0.1475,-0.13125 -0.35625,0 -0.77125,0.0388 -1.1275,0.0388 -0.44875,0 -0.89875,-0.0388 -1.3275,-0.0388 -0.0788,0 -0.225,0 -0.225,0.24375 0,0.0788 0.0538,0.1125 0.13125,0.1325 0.1125,0.0187 0.48375,0.0387 0.48375,0.37625 0,0.17 -0.13125,0.31625 -0.225,0.42875 l -1.9475,2.085 z" />
    <path
       id="path4848"
       style="fill:#000000;fill-opacity:1;fill-rule:nonzero;stroke:none"
       d="m 200.82597,902.8734 c 0,-0.225 0,-0.225 -0.24375,-0.225 -0.5425,0.5275 -1.29375,0.5275 -1.63125,0.5275 l 0,0.2975 c 0.18625,0 0.7525,0 1.20125,-0.22375 l 0,4.2575 c 0,0.2775 0,0.39 -0.825,0.39 l -0.3175,0 0,0.30375 c 0.14625,0 1.17625,-0.04 1.48,-0.04 0.26375,0 1.3125,0.04 1.49875,0.04 l 0,-0.30375 -0.3175,0 c -0.845,0 -0.845,-0.1125 -0.845,-0.39 l 0,-4.63375 z" />
    <path
       id="path4850"
       style="fill:none;stroke:#000000;stroke-width:1;stroke-linecap:butt;stroke-linejoin:miter;stroke-miterlimit:4;stroke-opacity:1;stroke-dasharray:none"
       d="m 166.20722,950.5099 c 14.42875,-24.31163 37.73375,-47.07025 74.76,-67.4315" />
    <path
       id="path4852"
       style="fill:none;stroke:#000000;stroke-width:1;stroke-linecap:butt;stroke-linejoin:miter;stroke-miterlimit:4;stroke-opacity:1;stroke-dasharray:3, 3;stroke-dashoffset:0"
       d="m 152.68597,981.9844 c 3.2775,-10.50338 7.72,-20.80613 13.6825,-30.83975" />
    <path
       id="path4854"
       style="fill:none;stroke:#000000;stroke-width:1;stroke-linecap:butt;stroke-linejoin:miter;stroke-miterlimit:4;stroke-opacity:1;stroke-dasharray:none"
       d="m 147.60847,1002.3209 c 1.18125,-6.25875 2.695,-12.46 4.605,-18.58888" />
    <path
       id="path4856"
       style="fill:#000000;fill-opacity:1;fill-rule:nonzero;stroke:none"
       d="m 278.27722,951.22715 c 0.0738,-0.20513 0.0925,-0.375 0.0925,-0.69238 0,-0.76762 -0.46875,-1.27487 -1.36625,-1.27487 -0.9375,0 -1.5575,0.61962 -1.85625,1.04975 -0.0588,-0.69388 -0.56125,-1.04975 -1.10875,-1.04975 -0.54125,0 -0.76625,0.46875 -0.87875,0.67325 -0.205,0.41512 -0.35625,1.129 -0.35625,1.16262 0,0.13138 0.1125,0.13138 0.1325,0.13138 0.13125,0 0.13125,-0.0186 0.205,-0.28275 0.205,-0.83988 0.44875,-1.42088 0.87875,-1.42088 0.19,0 0.35625,0.0923 0.35625,0.5425 0,0.26363 -0.0337,0.395 -0.185,1.00975 l -0.69375,2.75875 c -0.0388,0.1865 -0.1125,0.46875 -0.1125,0.5225 0,0.21 0.16625,0.32275 0.35625,0.32275 0.15125,0 0.35625,-0.0976 0.45,-0.33637 0,-0.0201 0.15125,-0.5865 0.22375,-0.88388 l 0.26375,-1.06975 c 0.0537,-0.27887 0.1325,-0.5425 0.205,-0.80525 0.02,-0.0738 0.1125,-0.46875 0.1325,-0.5425 0.0188,-0.11225 0.395,-0.771 0.805,-1.10887 0.26375,-0.1845 0.64,-0.40963 1.1425,-0.40963 0.5275,0 0.66,0.40963 0.66,0.83988 0,0.0585 0,0.26362 -0.1325,0.75237 l -1.3525,5.49275 c -0.0337,0.15138 -0.0337,0.17138 -0.0337,0.205 0,0.17088 0.13125,0.32225 0.3175,0.32225 0.37625,0 0.46875,-0.35587 0.5075,-0.48875 l 1.3475,-5.41987 z" />
    <path
       id="path4858"
       style="fill:none;stroke:#000000;stroke-width:1;stroke-linecap:butt;stroke-linejoin:miter;stroke-miterlimit:4;stroke-opacity:1;stroke-dasharray:none"
       d="m 166.20722,950.5099 c 14.42875,-24.31163 37.73375,-47.07025 74.76,-67.4315" />
    <path
       id="path4860"
       style="fill:none;stroke:#000000;stroke-width:1;stroke-linecap:butt;stroke-linejoin:miter;stroke-miterlimit:4;stroke-opacity:1;stroke-dasharray:3, 3;stroke-dashoffset:0"
       d="m 152.68597,981.9844 c 3.2775,-10.50338 7.72,-20.80613 13.6825,-30.83975" />
    <path
       id="path4862"
       style="fill:none;stroke:#000000;stroke-width:1;stroke-linecap:butt;stroke-linejoin:miter;stroke-miterlimit:4;stroke-opacity:1;stroke-dasharray:none"
       d="m 147.60847,1002.3209 c 1.18125,-6.25875 2.695,-12.46 4.605,-18.58888" />
  </g>
</svg>
