<?xml version="1.0" encoding="UTF-8" standalone="no"?>
<!-- Created with Inkscape (http://www.inkscape.org/) -->

<svg
   xmlns:ns0="http://www.iki.fi/pav/software/textext/"
   xmlns:dc="http://purl.org/dc/elements/1.1/"
   xmlns:cc="http://creativecommons.org/ns#"
   xmlns:rdf="http://www.w3.org/1999/02/22-rdf-syntax-ns#"
   xmlns:svg="http://www.w3.org/2000/svg"
   xmlns="http://www.w3.org/2000/svg"
   xmlns:xlink="http://www.w3.org/1999/xlink"
   xmlns:sodipodi="http://sodipodi.sourceforge.net/DTD/sodipodi-0.dtd"
   xmlns:inkscape="http://www.inkscape.org/namespaces/inkscape"
   width="354.33069"
   height="212.59842"
   id="svg2"
   version="1.1"
   inkscape:version="0.47 r22583"
   sodipodi:docname="fig76-2.1_1.eps">
  <sodipodi:namedview
     id="base"
     pagecolor="#ffffff"
     bordercolor="#666666"
     borderopacity="1.0"
     inkscape:pageopacity="0.0"
     inkscape:pageshadow="2"
     inkscape:zoom="1.4449779"
     inkscape:cx="177.16534"
     inkscape:cy="106.29921"
     inkscape:document-units="cm"
     inkscape:current-layer="layer1"
     showgrid="false"
     units="cm"
     inkscape:window-width="615"
     inkscape:window-height="650"
     inkscape:window-x="401"
     inkscape:window-y="34"
     inkscape:window-maximized="0">
    <inkscape:grid
       snapvisiblegridlinesonly="true"
       enabled="true"
       visible="true"
       empspacing="5"
       id="grid2816"
       type="xygrid" />
  </sodipodi:namedview>
  <defs
     id="defs4">
    <marker
       inkscape:stockid="Arrow1Mend"
       orient="auto"
       refY="0.0"
       refX="0.0"
       id="Arrow1Mend"
       style="overflow:visible;">
      <path
         id="path10270"
         d="M 0.0,0.0 L 5.0,-5.0 L -12.5,0.0 L 5.0,5.0 L 0.0,0.0 z "
         style="fill-rule:evenodd;stroke:#000000;stroke-width:1.0pt;marker-start:none;"
         transform="scale(0.4) rotate(180) translate(10,0)" />
    </marker>
    <inkscape:perspective
       id="perspective10"
       inkscape:persp3d-origin="372.04724 : 350.78739 : 1"
       inkscape:vp_z="744.09448 : 526.18109 : 1"
       inkscape:vp_y="0 : 1000 : 0"
       inkscape:vp_x="0 : 526.18109 : 1"
       sodipodi:type="inkscape:persp3d" />
    <inkscape:perspective
       id="perspective2883"
       inkscape:persp3d-origin="0.5 : 0.33333333 : 1"
       inkscape:vp_z="1 : 0.5 : 1"
       inkscape:vp_y="0 : 1000 : 0"
       inkscape:vp_x="0 : 0.5 : 1"
       sodipodi:type="inkscape:persp3d" />
    <inkscape:perspective
       id="perspective2883-7"
       inkscape:persp3d-origin="0.5 : 0.33333333 : 1"
       inkscape:vp_z="1 : 0.5 : 1"
       inkscape:vp_y="0 : 1000 : 0"
       inkscape:vp_x="0 : 0.5 : 1"
       sodipodi:type="inkscape:persp3d" />
    <inkscape:perspective
       id="perspective3535"
       inkscape:persp3d-origin="0.5 : 0.33333333 : 1"
       inkscape:vp_z="1 : 0.5 : 1"
       inkscape:vp_y="0 : 1000 : 0"
       inkscape:vp_x="0 : 0.5 : 1"
       sodipodi:type="inkscape:persp3d" />
    <inkscape:perspective
       id="perspective3584"
       inkscape:persp3d-origin="0.5 : 0.33333333 : 1"
       inkscape:vp_z="1 : 0.5 : 1"
       inkscape:vp_y="0 : 1000 : 0"
       inkscape:vp_x="0 : 0.5 : 1"
       sodipodi:type="inkscape:persp3d" />
    <inkscape:perspective
       sodipodi:type="inkscape:persp3d"
       inkscape:vp_x="0 : 0.5 : 1"
       inkscape:vp_y="0 : 1000 : 0"
       inkscape:vp_z="1 : 0.5 : 1"
       inkscape:persp3d-origin="0.5 : 0.33333333 : 1"
       id="perspective4151" />
    <inkscape:perspective
       id="perspective6471"
       inkscape:persp3d-origin="0.5 : 0.33333333 : 1"
       inkscape:vp_z="1 : 0.5 : 1"
       inkscape:vp_y="0 : 1000 : 0"
       inkscape:vp_x="0 : 0.5 : 1"
       sodipodi:type="inkscape:persp3d" />
    <inkscape:perspective
       sodipodi:type="inkscape:persp3d"
       inkscape:vp_x="0 : 0.5 : 1"
       inkscape:vp_y="0 : 1000 : 0"
       inkscape:vp_z="1 : 0.5 : 1"
       inkscape:persp3d-origin="0.5 : 0.33333333 : 1"
       id="perspective7000" />
    <inkscape:perspective
       sodipodi:type="inkscape:persp3d"
       inkscape:vp_x="0 : 0.5 : 1"
       inkscape:vp_y="0 : 1000 : 0"
       inkscape:vp_z="1 : 0.5 : 1"
       inkscape:persp3d-origin="0.5 : 0.33333333 : 1"
       id="perspective7177" />
    <inkscape:perspective
       sodipodi:type="inkscape:persp3d"
       inkscape:vp_x="0 : 0.5 : 1"
       inkscape:vp_y="0 : 1000 : 0"
       inkscape:vp_z="1 : 0.5 : 1"
       inkscape:persp3d-origin="0.5 : 0.33333333 : 1"
       id="perspective7984" />
    <inkscape:perspective
       sodipodi:type="inkscape:persp3d"
       inkscape:vp_x="0 : 0.5 : 1"
       inkscape:vp_y="0 : 1000 : 0"
       inkscape:vp_z="1 : 0.5 : 1"
       inkscape:persp3d-origin="0.5 : 0.33333333 : 1"
       id="perspective7984-9" />
    <inkscape:perspective
       sodipodi:type="inkscape:persp3d"
       inkscape:vp_x="0 : 0.5 : 1"
       inkscape:vp_y="0 : 1000 : 0"
       inkscape:vp_z="1 : 0.5 : 1"
       inkscape:persp3d-origin="0.5 : 0.33333333 : 1"
       id="perspective8058" />
    <inkscape:perspective
       sodipodi:type="inkscape:persp3d"
       inkscape:vp_x="0 : 0.5 : 1"
       inkscape:vp_y="0 : 1000 : 0"
       inkscape:vp_z="1 : 0.5 : 1"
       inkscape:persp3d-origin="0.5 : 0.33333333 : 1"
       id="perspective8058-1" />
    <inkscape:perspective
       sodipodi:type="inkscape:persp3d"
       inkscape:vp_x="0 : 0.5 : 1"
       inkscape:vp_y="0 : 1000 : 0"
       inkscape:vp_z="1 : 0.5 : 1"
       inkscape:persp3d-origin="0.5 : 0.33333333 : 1"
       id="perspective8124" />
    <inkscape:perspective
       sodipodi:type="inkscape:persp3d"
       inkscape:vp_x="0 : 0.5 : 1"
       inkscape:vp_y="0 : 1000 : 0"
       inkscape:vp_z="1 : 0.5 : 1"
       inkscape:persp3d-origin="0.5 : 0.33333333 : 1"
       id="perspective8493" />
    <inkscape:perspective
       id="perspective8805"
       inkscape:persp3d-origin="0.5 : 0.33333333 : 1"
       inkscape:vp_z="1 : 0.5 : 1"
       inkscape:vp_y="0 : 1000 : 0"
       inkscape:vp_x="0 : 0.5 : 1"
       sodipodi:type="inkscape:persp3d" />
    <inkscape:perspective
       id="perspective8960"
       inkscape:persp3d-origin="0.5 : 0.33333333 : 1"
       inkscape:vp_z="1 : 0.5 : 1"
       inkscape:vp_y="0 : 1000 : 0"
       inkscape:vp_x="0 : 0.5 : 1"
       sodipodi:type="inkscape:persp3d" />
    <inkscape:perspective
       id="perspective8960-1"
       inkscape:persp3d-origin="0.5 : 0.33333333 : 1"
       inkscape:vp_z="1 : 0.5 : 1"
       inkscape:vp_y="0 : 1000 : 0"
       inkscape:vp_x="0 : 0.5 : 1"
       sodipodi:type="inkscape:persp3d" />
    <inkscape:perspective
       id="perspective9482"
       inkscape:persp3d-origin="0.5 : 0.33333333 : 1"
       inkscape:vp_z="1 : 0.5 : 1"
       inkscape:vp_y="0 : 1000 : 0"
       inkscape:vp_x="0 : 0.5 : 1"
       sodipodi:type="inkscape:persp3d" />
    <inkscape:perspective
       id="perspective9879"
       inkscape:persp3d-origin="0.5 : 0.33333333 : 1"
       inkscape:vp_z="1 : 0.5 : 1"
       inkscape:vp_y="0 : 1000 : 0"
       inkscape:vp_x="0 : 0.5 : 1"
       sodipodi:type="inkscape:persp3d" />
    <inkscape:perspective
       sodipodi:type="inkscape:persp3d"
       inkscape:vp_x="0 : 0.5 : 1"
       inkscape:vp_y="0 : 1000 : 0"
       inkscape:vp_z="1 : 0.5 : 1"
       inkscape:persp3d-origin="0.5 : 0.33333333 : 1"
       id="perspective9879-6" />
    <inkscape:perspective
       id="perspective9879-4"
       inkscape:persp3d-origin="0.5 : 0.33333333 : 1"
       inkscape:vp_z="1 : 0.5 : 1"
       inkscape:vp_y="0 : 1000 : 0"
       inkscape:vp_x="0 : 0.5 : 1"
       sodipodi:type="inkscape:persp3d" />
    <inkscape:perspective
       sodipodi:type="inkscape:persp3d"
       inkscape:vp_x="0 : 0.5 : 1"
       inkscape:vp_y="0 : 1000 : 0"
       inkscape:vp_z="1 : 0.5 : 1"
       inkscape:persp3d-origin="0.5 : 0.33333333 : 1"
       id="perspective10940" />
  </defs>
  <metadata
     id="metadata7">
    <rdf:RDF>
      <cc:Work
         rdf:about="">
        <dc:format>image/svg+xml</dc:format>
        <dc:type
           rdf:resource="http://purl.org/dc/dcmitype/StillImage" />
        <dc:title></dc:title>
      </cc:Work>
    </rdf:RDF>
  </metadata>
  <g
     transform="translate(0,-839.76243)"
     id="layer1"
     inkscape:groupmode="layer"
     inkscape:label="Layer 1">
    <path
       transform="translate(0,839.76243)"
       d="m 180,87.598419 c 0,19.329971 -15.67003,35.000001 -35,35.000001 -19.32997,0 -35,-15.67003 -35,-35.000001 0,-19.329966 15.67003,-35 35,-35 19.32997,0 35,15.670034 35,35 z"
       sodipodi:ry="35"
       sodipodi:rx="35"
       sodipodi:cy="87.598419"
       sodipodi:cx="145"
       id="path9782"
       style="fill:none;stroke:#000000;stroke-width:1;stroke-linecap:square;stroke-linejoin:miter;stroke-miterlimit:4;stroke-opacity:1;stroke-dasharray:none;stroke-dashoffset:0"
       sodipodi:type="arc" />
    <path
       sodipodi:nodetypes="cc"
       transform="translate(0,839.76243)"
       id="path9786"
       d="M 180,172.59842 C 167.06472,91.187101 118.18212,46.921345 50,22.598419"
       style="fill:none;stroke:#000000;stroke-width:1px;stroke-linecap:butt;stroke-linejoin:miter;stroke-opacity:1" />
    <path
       transform="translate(0,839.76243)"
       id="path9788"
       d="M 145,87.598419 118.28726,110.15165"
       style="fill:none;stroke:#000000;stroke-width:1px;stroke-linecap:butt;stroke-linejoin:miter;stroke-opacity:1"
       sodipodi:nodetypes="cc" />
    <g
       id="g9818"
       transform="matrix(1.2,0,0,1.2,-131.7625,787.6046)"
       ns0:preamble="/home/sriranga/Documents/TIFR/vol61-figures/package.tex"
       ns0:text="$\\triangle$">
      <defs
         id="defs9820">
        <g
           id="g9822">
          <symbol
             id="textext-0b250b43-0"
             overflow="visible">
            <path
               id="path9825"
               d=""
               style="stroke:none;" />
          </symbol>
          <symbol
             id="textext-0b250b43-1"
             overflow="visible">
            <path
               id="path9828"
               d="M 4.640625 -6.953125 C 4.578125 -7.0625 4.546875 -7.140625 4.421875 -7.140625 C 4.3125 -7.140625 4.28125 -7.09375 4.203125 -6.9375 L 0.671875 -0.390625 C 0.59375 -0.265625 0.59375 -0.234375 0.59375 -0.203125 C 0.59375 0 0.796875 0 0.953125 0 L 7.921875 0 C 8.078125 0 8.265625 0 8.265625 -0.203125 C 8.265625 -0.25 8.25 -0.28125 8.203125 -0.359375 L 4.640625 -6.953125 Z M 4.421875 -6.515625 L 7.734375 -0.40625 L 1.109375 -0.40625 L 4.421875 -6.515625 Z M 4.421875 -6.515625 "
               style="stroke:none;" />
          </symbol>
        </g>
      </defs>
      <g
         id="textext-0b250b43-2">
        <g
           id="g9831"
           style="fill:rgb(0%,0%,0%);fill-opacity:1;">
          <use
             id="use9833"
             y="134.765"
             x="223.432"
             xlink:href="#textext-0b250b43-1" />
        </g>
      </g>
    </g>
    <g
       ns0:text="$\\delta/2$"
       ns0:preamble="/home/sriranga/Documents/TIFR/vol61-figures/package.tex"
       transform="matrix(1.2,0,0,1.2,-152.56341,768.6737)"
       id="g9959">
      <defs
         id="defs9961">
        <g
           id="g9963">
          <symbol
             style="overflow:visible"
             overflow="visible"
             id="textext-460cb367-0">
            <path
               style="stroke:none"
               d=""
               id="path9966" />
          </symbol>
          <symbol
             style="overflow:visible"
             overflow="visible"
             id="textext-460cb367-1">
            <path
               style="stroke:none"
               d="M 2.625,-4.359375 C 1.390625,-4.0625 0.421875,-2.765625 0.421875,-1.5625 0.421875,-0.59375 1.0625,0.125 2,0.125 c 1.15625,0 1.984375,-1.578125 1.984375,-2.953125 0,-0.90625 -0.390625,-1.40625 -0.734375,-1.84375 C 2.890625,-5.125 2.296875,-5.875 2.296875,-6.3125 c 0,-0.21875 0.203125,-0.453125 0.546875,-0.453125 0.3125,0 0.5,0.125 0.71875,0.265625 0.203125,0.125 0.390625,0.25 0.546875,0.25 C 4.359375,-6.25 4.5,-6.484375 4.5,-6.65625 4.5,-6.875 4.34375,-6.890625 3.984375,-6.984375 3.46875,-7.09375 3.328125,-7.09375 3.171875,-7.09375 c -0.78125,0 -1.140625,0.4375 -1.140625,1.03125 0,0.546875 0.296875,1.09375 0.59375,1.703125 z m 0.125,0.21875 c 0.25,0.46875 0.546875,1 0.546875,1.71875 0,0.65625 -0.375,2.328125 -1.296875,2.328125 -0.546875,0 -0.96875,-0.421875 -0.96875,-1.1875 0,-0.625 0.375,-2.5 1.71875,-2.859375 z m 0,0"
               id="path9969" />
          </symbol>
          <symbol
             style="overflow:visible"
             overflow="visible"
             id="textext-460cb367-2">
            <path
               style="stroke:none"
               d="m 4.375,-7.09375 c 0.046875,-0.140625 0.046875,-0.171875 0.046875,-0.1875 0,-0.109375 -0.078125,-0.203125 -0.1875,-0.203125 -0.078125,0 -0.140625,0.03125 -0.171875,0.09375 l -3.46875,9.5 C 0.546875,2.25 0.546875,2.28125 0.546875,2.296875 0.546875,2.40625 0.640625,2.5 0.75,2.5 0.875,2.5 0.90625,2.421875 0.96875,2.25 L 4.375,-7.09375 z m 0,0"
               id="path9972" />
          </symbol>
          <symbol
             style="overflow:visible"
             overflow="visible"
             id="textext-460cb367-3">
            <path
               style="stroke:none"
               d=""
               id="path9975" />
          </symbol>
          <symbol
             style="overflow:visible"
             overflow="visible"
             id="textext-460cb367-4">
            <path
               style="stroke:none"
               d="m 1.265625,-0.765625 1.0625,-1.03125 c 1.546875,-1.375 2.140625,-1.90625 2.140625,-2.90625 0,-1.140625 -0.890625,-1.9375 -2.109375,-1.9375 -1.125,0 -1.859375,0.921875 -1.859375,1.8125 0,0.546875 0.5,0.546875 0.53125,0.546875 0.171875,0 0.515625,-0.109375 0.515625,-0.53125 0,-0.25 -0.1875,-0.515625 -0.53125,-0.515625 -0.078125,0 -0.09375,0 -0.125,0.015625 0.21875,-0.65625 0.765625,-1.015625 1.34375,-1.015625 0.90625,0 1.328125,0.8125 1.328125,1.625 C 3.5625,-3.90625 3.078125,-3.125 2.515625,-2.5 l -1.90625,2.125 C 0.5,-0.265625 0.5,-0.234375 0.5,0 l 3.703125,0 0.265625,-1.734375 -0.234375,0 C 4.171875,-1.4375 4.109375,-1 4,-0.84375 3.9375,-0.765625 3.28125,-0.765625 3.0625,-0.765625 l -1.796875,0 z m 0,0"
               id="path9978" />
          </symbol>
        </g>
      </defs>
      <g
         id="textext-460cb367-5">
        <g
           style="fill:#000000;fill-opacity:1"
           id="g9981">
          <use
             height="212.59842"
             width="354.33069"
             xlink:href="#textext-460cb367-1"
             x="223.43201"
             y="134.765"
             id="use9983" />
        </g>
        <g
           style="fill:#000000;fill-opacity:1"
           id="g9985">
          <use
             height="212.59842"
             width="354.33069"
             xlink:href="#textext-460cb367-2"
             x="228.23796"
             y="134.765"
             id="use9987" />
        </g>
        <g
           style="fill:#000000;fill-opacity:1"
           id="g9989">
          <use
             height="212.59842"
             width="354.33069"
             xlink:href="#textext-460cb367-4"
             x="233.218"
             y="134.765"
             id="use9991" />
        </g>
      </g>
    </g>
    <g
       id="g10137"
       transform="matrix(1.2,0,0,1.2,-119.77664,750.07822)"
       ns0:preamble="/home/sriranga/Documents/TIFR/vol61-figures/package.tex"
       ns0:text="$\\tilde{\\xi}_0$">
      <defs
         id="defs10139">
        <g
           id="g10141">
          <symbol
             id="textext-2f3eb433-0"
             overflow="visible">
            <path
               id="path10144"
               d=""
               style="stroke:none;" />
          </symbol>
          <symbol
             id="textext-2f3eb433-1"
             overflow="visible">
            <path
               id="path10147"
               d="M 4.140625 -6.515625 L 3.984375 -6.65625 C 3.984375 -6.65625 3.609375 -6.1875 3.171875 -6.1875 C 2.9375 -6.1875 2.6875 -6.328125 2.515625 -6.4375 C 2.25 -6.59375 2.078125 -6.65625 1.90625 -6.65625 C 1.53125 -6.65625 1.328125 -6.4375 0.828125 -5.875 L 0.984375 -5.734375 C 0.984375 -5.734375 1.359375 -6.203125 1.796875 -6.203125 C 2.03125 -6.203125 2.28125 -6.0625 2.453125 -5.96875 C 2.71875 -5.796875 2.90625 -5.734375 3.078125 -5.734375 C 3.453125 -5.734375 3.640625 -5.953125 4.140625 -6.515625 Z M 4.140625 -6.515625 "
               style="stroke:none;" />
          </symbol>
          <symbol
             id="textext-2f3eb433-2"
             overflow="visible">
            <path
               id="path10150"
               d=""
               style="stroke:none;" />
          </symbol>
          <symbol
             id="textext-2f3eb433-3"
             overflow="visible">
            <path
               id="path10153"
               d="M 1.53125 -3.046875 C 0.453125 -2.328125 0.234375 -1.390625 0.234375 -1.03125 C 0.234375 -0.5625 0.5 -0.28125 0.515625 -0.25 C 0.84375 0.078125 0.921875 0.125 1.671875 0.40625 L 2.875 0.875 C 3.03125 0.9375 3.234375 1 3.234375 1.296875 C 3.234375 1.53125 3.046875 1.828125 2.734375 1.828125 C 2.296875 1.828125 1.96875 1.578125 1.859375 1.5 C 1.796875 1.46875 1.796875 1.453125 1.75 1.453125 C 1.671875 1.453125 1.65625 1.53125 1.65625 1.5625 C 1.65625 1.6875 2.1875 2.046875 2.734375 2.046875 C 3.359375 2.046875 3.78125 1.46875 3.78125 0.984375 C 3.78125 0.5 3.40625 0.3125 3.296875 0.265625 C 3.15625 0.21875 2.828125 0.09375 2.6875 0.046875 C 2.5 -0.046875 2.296875 -0.125 2.078125 -0.1875 L 1.484375 -0.421875 C 1.03125 -0.609375 0.734375 -0.890625 0.734375 -1.3125 C 0.734375 -1.71875 1.125 -2.59375 1.96875 -3.015625 C 2.328125 -2.875 2.625 -2.875 2.84375 -2.875 C 3.140625 -2.875 3.765625 -2.875 3.765625 -3.1875 C 3.765625 -3.4375 3.34375 -3.453125 2.953125 -3.453125 C 2.765625 -3.453125 2.484375 -3.453125 2.109375 -3.34375 C 1.859375 -3.59375 1.8125 -3.921875 1.8125 -4.109375 C 1.8125 -4.671875 2.171875 -5.4375 2.921875 -5.8125 C 3.09375 -5.59375 3.328125 -5.59375 3.5625 -5.59375 C 3.8125 -5.59375 4.453125 -5.59375 4.453125 -5.90625 C 4.453125 -6.15625 4 -6.171875 3.625 -6.171875 C 3.484375 -6.171875 3.25 -6.171875 2.984375 -6.125 C 2.953125 -6.203125 2.9375 -6.28125 2.9375 -6.453125 C 2.9375 -6.59375 2.984375 -6.796875 2.984375 -6.8125 C 2.984375 -6.890625 2.9375 -6.953125 2.875 -6.953125 C 2.6875 -6.953125 2.6875 -6.484375 2.6875 -6.453125 C 2.6875 -6.265625 2.75 -6.109375 2.765625 -6.078125 C 1.6875 -5.765625 1.015625 -4.96875 1.015625 -4.203125 C 1.015625 -3.84375 1.203125 -3.421875 1.671875 -3.15625 L 1.53125 -3.046875 Z M 3.15625 -5.90625 C 3.3125 -5.953125 3.515625 -5.953125 3.625 -5.953125 C 3.96875 -5.953125 4 -5.9375 4.1875 -5.890625 C 4.109375 -5.859375 4 -5.8125 3.5625 -5.8125 C 3.375 -5.8125 3.265625 -5.8125 3.15625 -5.90625 Z M 2.375 -3.1875 C 2.609375 -3.234375 2.828125 -3.234375 2.9375 -3.234375 C 3.296875 -3.234375 3.328125 -3.234375 3.515625 -3.1875 C 3.421875 -3.140625 3.328125 -3.09375 2.875 -3.09375 C 2.640625 -3.09375 2.546875 -3.09375 2.375 -3.1875 Z M 2.375 -3.1875 "
               style="stroke:none;" />
          </symbol>
          <symbol
             id="textext-2f3eb433-4"
             overflow="visible">
            <path
               id="path10156"
               d=""
               style="stroke:none;" />
          </symbol>
          <symbol
             id="textext-2f3eb433-5"
             overflow="visible">
            <path
               id="path10159"
               d="M 3.59375 -2.21875 C 3.59375 -2.984375 3.5 -3.546875 3.1875 -4.03125 C 2.96875 -4.34375 2.53125 -4.625 1.984375 -4.625 C 0.359375 -4.625 0.359375 -2.71875 0.359375 -2.21875 C 0.359375 -1.71875 0.359375 0.140625 1.984375 0.140625 C 3.59375 0.140625 3.59375 -1.71875 3.59375 -2.21875 Z M 1.984375 -0.0625 C 1.65625 -0.0625 1.234375 -0.25 1.09375 -0.8125 C 1 -1.21875 1 -1.796875 1 -2.3125 C 1 -2.828125 1 -3.359375 1.09375 -3.734375 C 1.25 -4.28125 1.6875 -4.4375 1.984375 -4.4375 C 2.359375 -4.4375 2.71875 -4.203125 2.84375 -3.796875 C 2.953125 -3.421875 2.96875 -2.921875 2.96875 -2.3125 C 2.96875 -1.796875 2.96875 -1.28125 2.875 -0.84375 C 2.734375 -0.203125 2.265625 -0.0625 1.984375 -0.0625 Z M 1.984375 -0.0625 "
               style="stroke:none;" />
          </symbol>
        </g>
      </defs>
      <g
         id="textext-2f3eb433-6">
        <g
           id="g10162"
           style="fill:rgb(0%,0%,0%);fill-opacity:1;">
          <use
             id="use10164"
             y="132.136"
             x="224.457"
             xlink:href="#textext-2f3eb433-1" />
        </g>
        <g
           id="g10166"
           style="fill:rgb(0%,0%,0%);fill-opacity:1;">
          <use
             id="use10168"
             y="134.765"
             x="223.432"
             xlink:href="#textext-2f3eb433-3" />
        </g>
        <g
           id="g10170"
           style="fill:rgb(0%,0%,0%);fill-opacity:1;">
          <use
             id="use10172"
             y="136.259"
             x="227.791"
             xlink:href="#textext-2f3eb433-5" />
        </g>
      </g>
    </g>
    <path
       sodipodi:type="arc"
       id="path10254"
       style="fill:#000000;stroke:none"
       sodipodi:cx="145.09367"
       sodipodi:cy="927.33069"
       sodipodi:rx="2"
       sodipodi:ry="2"
       d="m 147.09367,927.33069 c 0,1.10457 -0.89543,2 -2,2 -1.10457,0 -2,-0.89543 -2,-2 0,-1.10457 0.89543,-2 2,-2 1.10457,0 2,0.89543 2,2 z" />
    <path
       sodipodi:nodetypes="cc"
       style="fill:none;stroke:#000000;stroke-width:0.99212599;stroke-linecap:butt;stroke-linejoin:miter;stroke-miterlimit:4;stroke-opacity:1;stroke-dasharray:none;marker-end:url(#Arrow1Mend)"
       d="m 190.99934,926.2598 c -14.27943,-0.99795 -25.9289,3.4519 -35.64346,11.90976"
       id="path10256" />
    <g
       ns0:text="$C$"
       ns0:preamble="/home/sriranga/Documents/TIFR/vol61-figures/package.tex"
       transform="matrix(1.2,0,0,1.2,-75.979391,769.6524)"
       id="g10820">
      <defs
         id="defs10822">
        <g
           id="g10824">
          <symbol
             style="overflow:visible"
             overflow="visible"
             id="textext-27296649-0">
            <path
               style="stroke:none"
               d=""
               id="path10827" />
          </symbol>
          <symbol
             style="overflow:visible"
             overflow="visible"
             id="textext-27296649-1">
            <path
               style="stroke:none"
               d="m 7.578125,-6.921875 c 0,-0.03125 -0.015625,-0.109375 -0.109375,-0.109375 -0.03125,0 -0.046875,0.015625 -0.15625,0.125 L 6.625,-6.140625 C 6.53125,-6.28125 6.078125,-7.03125 4.96875,-7.03125 2.734375,-7.03125 0.5,-4.828125 0.5,-2.515625 0.5,-0.875 1.671875,0.21875 3.203125,0.21875 c 0.859375,0 1.625,-0.390625 2.15625,-0.859375 0.921875,-0.8125 1.09375,-1.71875 1.09375,-1.75 C 6.453125,-2.5 6.34375,-2.5 6.328125,-2.5 c -0.0625,0 -0.109375,0.03125 -0.125,0.109375 -0.09375,0.28125 -0.328125,1 -1.015625,1.578125 -0.6875,0.546875 -1.3125,0.71875 -1.828125,0.71875 -0.890625,0 -1.953125,-0.515625 -1.953125,-2.0625 0,-0.578125 0.203125,-2.1875 1.203125,-3.359375 0.609375,-0.703125 1.546875,-1.203125 2.4375,-1.203125 1.015625,0 1.609375,0.765625 1.609375,1.921875 0,0.40625 -0.03125,0.40625 -0.03125,0.515625 0,0.09375 0.109375,0.09375 0.140625,0.09375 0.125,0 0.125,-0.015625 0.1875,-0.203125 l 0.625,-2.53125 z m 0,0"
               id="path10830" />
          </symbol>
        </g>
      </defs>
      <g
         id="textext-27296649-2">
        <g
           style="fill:#000000;fill-opacity:1"
           id="g10833">
          <use
             height="212.59842"
             width="354.33069"
             xlink:href="#textext-27296649-1"
             x="223.43201"
             y="134.765"
             id="use10835" />
        </g>
      </g>
    </g>
    <g
       id="g11079"
       transform="matrix(1.2,0,0,1.2,-95.818863,860.96487)"
       ns0:preamble="/home/sriranga/Documents/TIFR/vol61-figures/package.tex"
       ns0:text="$S_n$">
      <defs
         id="defs11081">
        <g
           id="g11083">
          <symbol
             id="textext-26d5e69c-0"
             overflow="visible"
             style="overflow:visible">
            <path
               id="path11086"
               d=""
               style="stroke:none" />
          </symbol>
          <symbol
             id="textext-26d5e69c-1"
             overflow="visible"
             style="overflow:visible">
            <path
               id="path11089"
               d="m 6.4375,-6.921875 c 0,-0.03125 -0.03125,-0.109375 -0.125,-0.109375 -0.046875,0 -0.046875,0.015625 -0.171875,0.15625 L 5.65625,-6.3125 c -0.25,-0.46875 -0.765625,-0.71875 -1.421875,-0.71875 -1.265625,0 -2.453125,1.15625 -2.453125,2.359375 0,0.796875 0.515625,1.265625 1.03125,1.40625 l 1.0625,0.28125 c 0.375,0.09375 0.921875,0.25 0.921875,1.0625 0,0.890625 -0.8125,1.828125 -1.796875,1.828125 -0.640625,0 -1.75,-0.21875 -1.75,-1.453125 0,-0.234375 0.0625,-0.484375 0.0625,-0.53125 0.015625,-0.046875 0.015625,-0.0625 0.015625,-0.078125 0,-0.09375 -0.0625,-0.109375 -0.109375,-0.109375 -0.046875,0 -0.078125,0.015625 -0.109375,0.046875 -0.03125,0.03125 -0.59375,2.3125 -0.59375,2.34375 0,0.046875 0.046875,0.09375 0.109375,0.09375 0.046875,0 0.0625,-0.015625 0.1875,-0.15625 L 1.296875,-0.5 c 0.421875,0.578125 1.109375,0.71875 1.6875,0.71875 1.359375,0 2.53125,-1.328125 2.53125,-2.5625 0,-0.6875 -0.34375,-1.03125 -0.484375,-1.171875 C 4.796875,-3.734375 4.640625,-3.78125 3.765625,-4 3.53125,-4.0625 3.1875,-4.171875 3.09375,-4.1875 2.828125,-4.28125 2.484375,-4.5625 2.484375,-5.09375 c 0,-0.8125 0.796875,-1.65625 1.75,-1.65625 0.8125,0 1.421875,0.4375 1.421875,1.546875 0,0.3125 -0.03125,0.5 -0.03125,0.5625 0,0 0,0.09375 0.109375,0.09375 0.109375,0 0.125,-0.03125 0.15625,-0.203125 L 6.4375,-6.921875 z m 0,0"
               style="stroke:none" />
          </symbol>
          <symbol
             id="textext-26d5e69c-2"
             overflow="visible"
             style="overflow:visible">
            <path
               id="path11092"
               d=""
               style="stroke:none" />
          </symbol>
          <symbol
             id="textext-26d5e69c-3"
             overflow="visible"
             style="overflow:visible">
            <path
               id="path11095"
               d="m 0.84375,-0.4375 c -0.015625,0.09375 -0.0625,0.265625 -0.0625,0.28125 0,0.15625 0.125,0.21875 0.234375,0.21875 0.125,0 0.234375,-0.078125 0.28125,-0.140625 0.03125,-0.0625 0.078125,-0.296875 0.125,-0.4375 0.03125,-0.125 0.109375,-0.453125 0.140625,-0.625 0.046875,-0.15625 0.09375,-0.3125 0.125,-0.46875 0.078125,-0.28125 0.09375,-0.34375 0.296875,-0.625 C 2.171875,-2.515625 2.5,-2.875 3.03125,-2.875 c 0.390625,0 0.40625,0.359375 0.40625,0.484375 0,0.421875 -0.296875,1.1875 -0.40625,1.484375 -0.078125,0.203125 -0.109375,0.265625 -0.109375,0.375 0,0.375 0.296875,0.59375 0.65625,0.59375 0.703125,0 1,-0.953125 1,-1.0625 0,-0.09375 -0.078125,-0.09375 -0.109375,-0.09375 -0.09375,0 -0.09375,0.046875 -0.125,0.125 C 4.1875,-0.40625 3.875,-0.125 3.609375,-0.125 c -0.15625,0 -0.1875,-0.09375 -0.1875,-0.25 0,-0.15625 0.046875,-0.25 0.171875,-0.5625 0.078125,-0.21875 0.359375,-0.953125 0.359375,-1.34375 0,-0.671875 -0.53125,-0.796875 -0.90625,-0.796875 -0.578125,0 -0.96875,0.359375 -1.171875,0.640625 -0.046875,-0.484375 -0.453125,-0.640625 -0.75,-0.640625 -0.296875,0 -0.453125,0.21875 -0.546875,0.375 -0.15625,0.265625 -0.25,0.65625 -0.25,0.703125 0,0.078125 0.09375,0.078125 0.125,0.078125 0.09375,0 0.09375,-0.015625 0.140625,-0.203125 0.109375,-0.40625 0.25,-0.75 0.515625,-0.75 0.1875,0 0.234375,0.15625 0.234375,0.34375 0,0.125 -0.0625,0.390625 -0.125,0.578125 -0.046875,0.1875 -0.109375,0.46875 -0.140625,0.625 L 0.84375,-0.4375 z m 0,0"
               style="stroke:none" />
          </symbol>
        </g>
      </defs>
      <g
         id="textext-26d5e69c-4">
        <g
           id="g11098"
           style="fill:#000000;fill-opacity:1">
          <use
             id="use11100"
             y="134.765"
             x="223.43201"
             xlink:href="#textext-26d5e69c-1"
             width="354.33069"
             height="212.59842" />
        </g>
        <g
           id="g11102"
           style="fill:#000000;fill-opacity:1">
          <use
             id="use11104"
             y="136.259"
             x="229.541"
             xlink:href="#textext-26d5e69c-3"
             width="354.33069"
             height="212.59842" />
        </g>
      </g>
    </g>
  </g>
</svg>
