<?xml version="1.0" encoding="UTF-8" standalone="no"?>
<!-- Created with Inkscape (http://www.inkscape.org/) -->

<svg
   xmlns:ns0="http://www.iki.fi/pav/software/textext/"
   xmlns:dc="http://purl.org/dc/elements/1.1/"
   xmlns:cc="http://creativecommons.org/ns#"
   xmlns:rdf="http://www.w3.org/1999/02/22-rdf-syntax-ns#"
   xmlns:svg="http://www.w3.org/2000/svg"
   xmlns="http://www.w3.org/2000/svg"
   xmlns:xlink="http://www.w3.org/1999/xlink"
   xmlns:sodipodi="http://sodipodi.sourceforge.net/DTD/sodipodi-0.dtd"
   xmlns:inkscape="http://www.inkscape.org/namespaces/inkscape"
   width="354.33069"
   height="212.59842"
   id="svg2"
   version="1.1"
   inkscape:version="0.47 r22583"
   sodipodi:docname="fig76-5.1a.svg">
  <sodipodi:namedview
     id="base"
     pagecolor="#ffffff"
     bordercolor="#666666"
     borderopacity="1.0"
     inkscape:pageopacity="0.0"
     inkscape:pageshadow="2"
     inkscape:zoom="1.4224001"
     inkscape:cx="177.16534"
     inkscape:cy="106.29921"
     inkscape:document-units="cm"
     inkscape:current-layer="layer1"
     showgrid="false"
     units="cm"
     inkscape:window-width="607"
     inkscape:window-height="650"
     inkscape:window-x="409"
     inkscape:window-y="34"
     inkscape:window-maximized="0">
    <inkscape:grid
       type="xygrid"
       id="grid2816"
       empspacing="5"
       visible="true"
       enabled="true"
       snapvisiblegridlinesonly="true" />
  </sodipodi:namedview>
  <defs
     id="defs4">
    <marker
       style="overflow:visible;"
       id="Arrow1Mend"
       refX="0.0"
       refY="0.0"
       orient="auto"
       inkscape:stockid="Arrow1Mend">
      <path
         transform="scale(0.4) rotate(180) translate(10,0)"
         style="fill-rule:evenodd;stroke:#000000;stroke-width:1.0pt;marker-start:none;"
         d="M 0.0,0.0 L 5.0,-5.0 L -12.5,0.0 L 5.0,5.0 L 0.0,0.0 z "
         id="path10270" />
    </marker>
    <marker
       style="overflow:visible"
       id="Arrow1Mstart"
       refX="0.0"
       refY="0.0"
       orient="auto"
       inkscape:stockid="Arrow1Mstart">
      <path
         transform="scale(0.4) translate(10,0)"
         style="fill-rule:evenodd;stroke:#000000;stroke-width:1.0pt;marker-start:none"
         d="M 0.0,0.0 L 5.0,-5.0 L -12.5,0.0 L 5.0,5.0 L 0.0,0.0 z "
         id="path10267" />
    </marker>
    <inkscape:path-effect
       effect="curvestitching"
       id="path-effect17355"
       is_visible="true"
       count="5"
       startpoint_edge_variation="0;1"
       startpoint_spacing_variation="0;1"
       endpoint_edge_variation="0;1"
       endpoint_spacing_variation="0;1"
       strokepath="m 164.00187,59.964677 33.92504,0"
       prop_scale="1"
       scale_y_rel="false" />
    <inkscape:path-effect
       effect="skeletal"
       id="path-effect17297"
       is_visible="true"
       pattern="M 0,0 1,0"
       copytype="repeated_stretched"
       prop_scale="1"
       scale_y_rel="false"
       spacing="0"
       normal_offset="0"
       tang_offset="0"
       prop_units="false"
       vertical_pattern="false"
       fuse_tolerance="0" />
    <inkscape:perspective
       sodipodi:type="inkscape:persp3d"
       inkscape:vp_x="0 : 526.18109 : 1"
       inkscape:vp_y="0 : 1000 : 0"
       inkscape:vp_z="744.09448 : 526.18109 : 1"
       inkscape:persp3d-origin="372.04724 : 350.78739 : 1"
       id="perspective10" />
    <inkscape:perspective
       sodipodi:type="inkscape:persp3d"
       inkscape:vp_x="0 : 0.5 : 1"
       inkscape:vp_y="0 : 1000 : 0"
       inkscape:vp_z="1 : 0.5 : 1"
       inkscape:persp3d-origin="0.5 : 0.33333333 : 1"
       id="perspective2883" />
    <inkscape:perspective
       sodipodi:type="inkscape:persp3d"
       inkscape:vp_x="0 : 0.5 : 1"
       inkscape:vp_y="0 : 1000 : 0"
       inkscape:vp_z="1 : 0.5 : 1"
       inkscape:persp3d-origin="0.5 : 0.33333333 : 1"
       id="perspective2883-7" />
    <inkscape:perspective
       sodipodi:type="inkscape:persp3d"
       inkscape:vp_x="0 : 0.5 : 1"
       inkscape:vp_y="0 : 1000 : 0"
       inkscape:vp_z="1 : 0.5 : 1"
       inkscape:persp3d-origin="0.5 : 0.33333333 : 1"
       id="perspective3535" />
    <inkscape:perspective
       sodipodi:type="inkscape:persp3d"
       inkscape:vp_x="0 : 0.5 : 1"
       inkscape:vp_y="0 : 1000 : 0"
       inkscape:vp_z="1 : 0.5 : 1"
       inkscape:persp3d-origin="0.5 : 0.33333333 : 1"
       id="perspective3584" />
    <inkscape:perspective
       id="perspective4151"
       inkscape:persp3d-origin="0.5 : 0.33333333 : 1"
       inkscape:vp_z="1 : 0.5 : 1"
       inkscape:vp_y="0 : 1000 : 0"
       inkscape:vp_x="0 : 0.5 : 1"
       sodipodi:type="inkscape:persp3d" />
    <inkscape:perspective
       sodipodi:type="inkscape:persp3d"
       inkscape:vp_x="0 : 0.5 : 1"
       inkscape:vp_y="0 : 1000 : 0"
       inkscape:vp_z="1 : 0.5 : 1"
       inkscape:persp3d-origin="0.5 : 0.33333333 : 1"
       id="perspective6471" />
    <inkscape:perspective
       id="perspective7000"
       inkscape:persp3d-origin="0.5 : 0.33333333 : 1"
       inkscape:vp_z="1 : 0.5 : 1"
       inkscape:vp_y="0 : 1000 : 0"
       inkscape:vp_x="0 : 0.5 : 1"
       sodipodi:type="inkscape:persp3d" />
    <inkscape:perspective
       id="perspective7177"
       inkscape:persp3d-origin="0.5 : 0.33333333 : 1"
       inkscape:vp_z="1 : 0.5 : 1"
       inkscape:vp_y="0 : 1000 : 0"
       inkscape:vp_x="0 : 0.5 : 1"
       sodipodi:type="inkscape:persp3d" />
    <inkscape:perspective
       id="perspective7984"
       inkscape:persp3d-origin="0.5 : 0.33333333 : 1"
       inkscape:vp_z="1 : 0.5 : 1"
       inkscape:vp_y="0 : 1000 : 0"
       inkscape:vp_x="0 : 0.5 : 1"
       sodipodi:type="inkscape:persp3d" />
    <inkscape:perspective
       id="perspective7984-9"
       inkscape:persp3d-origin="0.5 : 0.33333333 : 1"
       inkscape:vp_z="1 : 0.5 : 1"
       inkscape:vp_y="0 : 1000 : 0"
       inkscape:vp_x="0 : 0.5 : 1"
       sodipodi:type="inkscape:persp3d" />
    <inkscape:perspective
       id="perspective8058"
       inkscape:persp3d-origin="0.5 : 0.33333333 : 1"
       inkscape:vp_z="1 : 0.5 : 1"
       inkscape:vp_y="0 : 1000 : 0"
       inkscape:vp_x="0 : 0.5 : 1"
       sodipodi:type="inkscape:persp3d" />
    <inkscape:perspective
       id="perspective8058-1"
       inkscape:persp3d-origin="0.5 : 0.33333333 : 1"
       inkscape:vp_z="1 : 0.5 : 1"
       inkscape:vp_y="0 : 1000 : 0"
       inkscape:vp_x="0 : 0.5 : 1"
       sodipodi:type="inkscape:persp3d" />
    <inkscape:perspective
       id="perspective8124"
       inkscape:persp3d-origin="0.5 : 0.33333333 : 1"
       inkscape:vp_z="1 : 0.5 : 1"
       inkscape:vp_y="0 : 1000 : 0"
       inkscape:vp_x="0 : 0.5 : 1"
       sodipodi:type="inkscape:persp3d" />
    <inkscape:perspective
       id="perspective8493"
       inkscape:persp3d-origin="0.5 : 0.33333333 : 1"
       inkscape:vp_z="1 : 0.5 : 1"
       inkscape:vp_y="0 : 1000 : 0"
       inkscape:vp_x="0 : 0.5 : 1"
       sodipodi:type="inkscape:persp3d" />
    <inkscape:perspective
       sodipodi:type="inkscape:persp3d"
       inkscape:vp_x="0 : 0.5 : 1"
       inkscape:vp_y="0 : 1000 : 0"
       inkscape:vp_z="1 : 0.5 : 1"
       inkscape:persp3d-origin="0.5 : 0.33333333 : 1"
       id="perspective8805" />
    <inkscape:perspective
       sodipodi:type="inkscape:persp3d"
       inkscape:vp_x="0 : 0.5 : 1"
       inkscape:vp_y="0 : 1000 : 0"
       inkscape:vp_z="1 : 0.5 : 1"
       inkscape:persp3d-origin="0.5 : 0.33333333 : 1"
       id="perspective8960" />
    <inkscape:perspective
       sodipodi:type="inkscape:persp3d"
       inkscape:vp_x="0 : 0.5 : 1"
       inkscape:vp_y="0 : 1000 : 0"
       inkscape:vp_z="1 : 0.5 : 1"
       inkscape:persp3d-origin="0.5 : 0.33333333 : 1"
       id="perspective8960-1" />
    <inkscape:perspective
       sodipodi:type="inkscape:persp3d"
       inkscape:vp_x="0 : 0.5 : 1"
       inkscape:vp_y="0 : 1000 : 0"
       inkscape:vp_z="1 : 0.5 : 1"
       inkscape:persp3d-origin="0.5 : 0.33333333 : 1"
       id="perspective5207" />
    <inkscape:perspective
       id="perspective5475"
       inkscape:persp3d-origin="0.5 : 0.33333333 : 1"
       inkscape:vp_z="1 : 0.5 : 1"
       inkscape:vp_y="0 : 1000 : 0"
       inkscape:vp_x="0 : 0.5 : 1"
       sodipodi:type="inkscape:persp3d" />
    <inkscape:perspective
       id="perspective17373"
       inkscape:persp3d-origin="0.5 : 0.33333333 : 1"
       inkscape:vp_z="1 : 0.5 : 1"
       inkscape:vp_y="0 : 1000 : 0"
       inkscape:vp_x="0 : 0.5 : 1"
       sodipodi:type="inkscape:persp3d" />
    <inkscape:perspective
       id="perspective17660"
       inkscape:persp3d-origin="0.5 : 0.33333333 : 1"
       inkscape:vp_z="1 : 0.5 : 1"
       inkscape:vp_y="0 : 1000 : 0"
       inkscape:vp_x="0 : 0.5 : 1"
       sodipodi:type="inkscape:persp3d" />
    <inkscape:perspective
       sodipodi:type="inkscape:persp3d"
       inkscape:vp_x="0 : 0.5 : 1"
       inkscape:vp_y="0 : 1000 : 0"
       inkscape:vp_z="1 : 0.5 : 1"
       inkscape:persp3d-origin="0.5 : 0.33333333 : 1"
       id="perspective20870" />
    <inkscape:perspective
       id="perspective22258"
       inkscape:persp3d-origin="0.5 : 0.33333333 : 1"
       inkscape:vp_z="1 : 0.5 : 1"
       inkscape:vp_y="0 : 1000 : 0"
       inkscape:vp_x="0 : 0.5 : 1"
       sodipodi:type="inkscape:persp3d" />
    <inkscape:perspective
       sodipodi:type="inkscape:persp3d"
       inkscape:vp_x="0 : 0.5 : 1"
       inkscape:vp_y="0 : 1000 : 0"
       inkscape:vp_z="1 : 0.5 : 1"
       inkscape:persp3d-origin="0.5 : 0.33333333 : 1"
       id="perspective22258-4" />
    <inkscape:perspective
       id="perspective22742"
       inkscape:persp3d-origin="0.5 : 0.33333333 : 1"
       inkscape:vp_z="1 : 0.5 : 1"
       inkscape:vp_y="0 : 1000 : 0"
       inkscape:vp_x="0 : 0.5 : 1"
       sodipodi:type="inkscape:persp3d" />
    <inkscape:perspective
       id="perspective23367"
       inkscape:persp3d-origin="0.5 : 0.33333333 : 1"
       inkscape:vp_z="1 : 0.5 : 1"
       inkscape:vp_y="0 : 1000 : 0"
       inkscape:vp_x="0 : 0.5 : 1"
       sodipodi:type="inkscape:persp3d" />
    <inkscape:perspective
       id="perspective24490"
       inkscape:persp3d-origin="0.5 : 0.33333333 : 1"
       inkscape:vp_z="1 : 0.5 : 1"
       inkscape:vp_y="0 : 1000 : 0"
       inkscape:vp_x="0 : 0.5 : 1"
       sodipodi:type="inkscape:persp3d" />
    <inkscape:perspective
       id="perspective44227"
       inkscape:persp3d-origin="0.5 : 0.33333333 : 1"
       inkscape:vp_z="1 : 0.5 : 1"
       inkscape:vp_y="0 : 1000 : 0"
       inkscape:vp_x="0 : 0.5 : 1"
       sodipodi:type="inkscape:persp3d" />
    <inkscape:perspective
       sodipodi:type="inkscape:persp3d"
       inkscape:vp_x="0 : 0.5 : 1"
       inkscape:vp_y="0 : 1000 : 0"
       inkscape:vp_z="1 : 0.5 : 1"
       inkscape:persp3d-origin="0.5 : 0.33333333 : 1"
       id="perspective44227-0" />
  </defs>
  <metadata
     id="metadata7">
    <rdf:RDF>
      <cc:Work
         rdf:about="">
        <dc:format>image/svg+xml</dc:format>
        <dc:type
           rdf:resource="http://purl.org/dc/dcmitype/StillImage" />
        <dc:title></dc:title>
      </cc:Work>
    </rdf:RDF>
  </metadata>
  <g
     inkscape:label="Layer 1"
     inkscape:groupmode="layer"
     id="layer1"
     transform="translate(0,-839.76243)">
    <g
       id="g5407"
       transform="matrix(1.2,0,0,1.2,56.39899,783.19331)"
       ns0:preamble="/home/sriranga/Documents/TIFR/vol61-figures/package.tex"
       ns0:text="$\\mu$">
      <defs
         id="defs5409">
        <g
           id="g5411">
          <symbol
             id="symbol5413"
             overflow="visible"
             style="overflow:visible">
            <path
               id="path5415"
               d=""
               style="stroke:none" />
          </symbol>
          <symbol
             id="symbol5417"
             overflow="visible"
             style="overflow:visible">
            <path
               id="path5419"
               d="m 2.296875,-3.5 c 0.0625,-0.203125 0.15625,-0.59375 0.15625,-0.640625 0,-0.171875 -0.125,-0.265625 -0.296875,-0.265625 -0.015625,0 -0.296875,0.015625 -0.390625,0.359375 l -1.4375,5.765625 c -0.03125,0.125 -0.03125,0.140625 -0.03125,0.171875 0,0.140625 0.109375,0.265625 0.28125,0.265625 0.203125,0 0.328125,-0.1875 0.34375,-0.21875 C 0.96875,1.859375 1.09375,1.328125 1.46875,-0.203125 1.796875,0.0625 2.25,0.109375 2.4375,0.109375 c 0.703125,0 1.09375,-0.453125 1.328125,-0.734375 0.09375,0.453125 0.46875,0.734375 0.90625,0.734375 0.34375,0 0.578125,-0.234375 0.734375,-0.546875 0.171875,-0.359375 0.296875,-0.96875 0.296875,-0.984375 0,-0.109375 -0.09375,-0.109375 -0.125,-0.109375 -0.09375,0 -0.109375,0.046875 -0.140625,0.1875 -0.15625,0.640625 -0.34375,1.234375 -0.75,1.234375 -0.265625,0 -0.296875,-0.265625 -0.296875,-0.453125 0,-0.21875 0.109375,-0.6875 0.1875,-1.046875 L 4.859375,-2.6875 C 4.890625,-2.828125 5,-3.203125 5.03125,-3.359375 5.078125,-3.59375 5.1875,-3.96875 5.1875,-4.03125 c 0,-0.171875 -0.140625,-0.265625 -0.296875,-0.265625 -0.046875,0 -0.3125,0.015625 -0.390625,0.34375 l -0.46875,1.875 c -0.109375,0.5 -0.21875,0.90625 -0.25,1.015625 -0.015625,0.046875 -0.484375,0.953125 -1.296875,0.953125 -0.5,0 -0.734375,-0.328125 -0.734375,-0.875 0,-0.28125 0.0625,-0.5625 0.140625,-0.84375 L 2.296875,-3.5 z m 0,0"
               style="stroke:none" />
          </symbol>
        </g>
      </defs>
      <g
         id="g5421">
        <g
           id="g5423"
           style="fill:#000000;fill-opacity:1">
          <use
             id="use5425"
             y="134.765"
             x="223.43201"
             xlink:href="#textext-c85ea168-1"
             width="354.33069"
             height="212.59842" />
        </g>
      </g>
    </g>
    <g
       ns0:text="$X_1$"
       ns0:preamble="/home/sriranga/Documents/TIFR/vol61-figures/package.tex"
       transform="matrix(1.2,0,0,1.2,-27.450719,718.60353)"
       id="g5431">
      <defs
         id="defs5433">
        <g
           id="g5435">
          <symbol
             style="overflow:visible"
             overflow="visible"
             id="symbol5437">
            <path
               style="stroke:none"
               d=""
               id="path5439" />
          </symbol>
          <symbol
             style="overflow:visible"
             overflow="visible"
             id="symbol5441">
            <path
               style="stroke:none"
               d="M 4.828125,-4.09375 4,-6.078125 c -0.03125,-0.078125 -0.046875,-0.125 -0.046875,-0.125 0,-0.0625 0.15625,-0.25 0.578125,-0.296875 0.109375,-0.015625 0.203125,-0.015625 0.203125,-0.1875 0,-0.125 -0.125,-0.125 -0.15625,-0.125 -0.40625,0 -0.828125,0.03125 -1.25,0.03125 -0.25,0 -0.859375,-0.03125 -1.109375,-0.03125 -0.0625,0 -0.1875,0 -0.1875,0.203125 C 2.03125,-6.5 2.140625,-6.5 2.265625,-6.5 c 0.59375,0 0.65625,0.09375 0.75,0.3125 l 1.171875,2.78125 -2.109375,2.265625 -0.125,0.109375 C 1.46875,-0.5 1,-0.34375 0.484375,-0.3125 c -0.125,0.015625 -0.21875,0.015625 -0.21875,0.203125 0,0.015625 0,0.109375 0.140625,0.109375 0.296875,0 0.625,-0.03125 0.921875,-0.03125 C 1.703125,-0.03125 2.09375,0 2.453125,0 2.515625,0 2.625,0 2.625,-0.203125 2.625,-0.296875 2.53125,-0.3125 2.515625,-0.3125 c -0.09375,0 -0.40625,-0.03125 -0.40625,-0.3125 0,-0.15625 0.15625,-0.3125 0.265625,-0.4375 L 3.40625,-2.140625 4.296875,-3.125 l 1,2.390625 c 0.046875,0.109375 0.0625,0.109375 0.0625,0.140625 0,0.078125 -0.203125,0.25 -0.578125,0.28125 C 4.671875,-0.296875 4.578125,-0.296875 4.578125,-0.125 4.578125,0 4.6875,0 4.71875,0 5,0 5.703125,-0.03125 5.984375,-0.03125 6.234375,-0.03125 6.84375,0 7.09375,0 c 0.0625,0 0.1875,0 0.1875,-0.1875 0,-0.125 -0.109375,-0.125 -0.1875,-0.125 -0.65625,0 -0.6875,-0.03125 -0.859375,-0.4375 C 5.859375,-1.671875 5.1875,-3.234375 4.953125,-3.828125 5.625,-4.53125 6.671875,-5.71875 7,-5.984375 7.28125,-6.234375 7.671875,-6.46875 8.265625,-6.5 c 0.125,-0.015625 0.21875,-0.015625 0.21875,-0.203125 0,0 0,-0.109375 -0.125,-0.109375 -0.296875,0 -0.640625,0.03125 -0.9375,0.03125 -0.375,0 -0.75,-0.03125 -1.109375,-0.03125 -0.0625,0 -0.1875,0 -0.1875,0.203125 0,0.0625 0.046875,0.09375 0.109375,0.109375 0.09375,0.015625 0.40625,0.03125 0.40625,0.3125 0,0.140625 -0.109375,0.265625 -0.1875,0.359375 l -1.625,1.734375 z m 0,0"
               id="path5443" />
          </symbol>
          <symbol
             style="overflow:visible"
             overflow="visible"
             id="symbol5445">
            <path
               style="stroke:none"
               d=""
               id="path5447" />
          </symbol>
          <symbol
             style="overflow:visible"
             overflow="visible"
             id="symbol5449">
            <path
               style="stroke:none"
               d="m 2.328125,-4.4375 c 0,-0.1875 0,-0.1875 -0.203125,-0.1875 -0.453125,0.4375 -1.078125,0.4375 -1.359375,0.4375 l 0,0.25 c 0.15625,0 0.625,0 1,-0.1875 l 0,3.546875 c 0,0.234375 0,0.328125 -0.6875,0.328125 l -0.265625,0 0,0.25 c 0.125,0 0.984375,-0.03125 1.234375,-0.03125 0.21875,0 1.09375,0.03125 1.25,0.03125 l 0,-0.25 -0.265625,0 c -0.703125,0 -0.703125,-0.09375 -0.703125,-0.328125 l 0,-3.859375 z m 0,0"
               id="path5451" />
          </symbol>
        </g>
      </defs>
      <g
         id="g5453">
        <g
           style="fill:#000000;fill-opacity:1"
           id="g5455">
          <use
             height="212.59842"
             width="354.33069"
             xlink:href="#textext-2699efc8-1"
             x="223.43201"
             y="134.765"
             id="use5457" />
        </g>
        <g
           style="fill:#000000;fill-opacity:1"
           id="g5459">
          <use
             height="212.59842"
             width="354.33069"
             xlink:href="#textext-2699efc8-3"
             x="231.686"
             y="136.259"
             id="use5461" />
        </g>
      </g>
    </g>
    <path
       id="path43982"
       d="m 70,872.36085 0,80 65,0"
       style="fill:none;stroke:#000000;stroke-width:1px;stroke-linecap:butt;stroke-linejoin:miter;stroke-opacity:1"
       sodipodi:nodetypes="ccc" />
    <path
       sodipodi:nodetypes="ccc"
       style="fill:none;stroke:#000000;stroke-width:1px;stroke-linecap:butt;stroke-linejoin:miter;stroke-opacity:1"
       d="M 110.79092,882.27297 69.926151,952.16 130,987.36085"
       id="path43984" />
    <path
       sodipodi:nodetypes="ccc"
       id="path43986"
       d="M 105,1012.3608 70.062979,952.3459 10,987.36085"
       style="fill:none;stroke:#000000;stroke-width:1px;stroke-linecap:butt;stroke-linejoin:miter;stroke-opacity:1" />
    <path
       sodipodi:nodetypes="cc"
       id="path43988"
       d="m 105,1012.3609 0,-120.00005"
       style="fill:none;stroke:#000000;stroke-width:1px;stroke-linecap:butt;stroke-linejoin:miter;stroke-opacity:1" />
    <g
       id="g44076"
       transform="matrix(1.2,0,0,1.2,-203.16581,705.39055)"
       ns0:preamble="/home/sriranga/Documents/TIFR/preamble.tex"
       ns0:text="$\\tilde{e}_3$">
      <defs
         id="defs44078">
        <g
           id="g44080">
          <symbol
             id="textext-d7a626f8-0"
             overflow="visible"
             style="overflow:visible">
            <path
               id="path44083"
               d=""
               style="stroke:none" />
          </symbol>
          <symbol
             id="textext-d7a626f8-1"
             overflow="visible"
             style="overflow:visible">
            <path
               id="path44086"
               d="m 3.015625,-6.359375 c -0.171875,0.375 -0.296875,0.5 -0.53125,0.5 -0.15625,0 -0.34375,-0.0625 -0.53125,-0.15625 L 1.71875,-6.125 C 1.484375,-6.25 1.234375,-6.3125 1.015625,-6.3125 c -0.5,0 -0.859375,0.359375 -1,1.015625 l 0.28125,0 c 0.109375,-0.3125 0.28125,-0.46875 0.515625,-0.46875 0.109375,0 0.25,0.046875 0.40625,0.109375 l 0.234375,0.109375 c 0.40625,0.203125 0.546875,0.25 0.796875,0.25 0.546875,0 0.84375,-0.3125 1.046875,-1.0625 l -0.28125,0 z m 0,0"
               style="stroke:none" />
          </symbol>
          <symbol
             id="textext-d7a626f8-2"
             overflow="visible"
             style="overflow:visible">
            <path
               id="path44089"
               d=""
               style="stroke:none" />
          </symbol>
          <symbol
             id="textext-d7a626f8-3"
             overflow="visible"
             style="overflow:visible">
            <path
               id="path44092"
               d="m 3.5625,-1.09375 c -0.71875,0.59375 -1.015625,0.75 -1.453125,0.75 -0.5625,0 -0.9375,-0.359375 -0.9375,-0.890625 0,-0.15625 0.03125,-0.296875 0.109375,-0.625 l 0.28125,-0.03125 c 1.484375,-0.21875 2.546875,-0.96875 2.546875,-1.828125 0,-0.421875 -0.296875,-0.671875 -0.796875,-0.671875 -1.4375,0 -3,1.640625 -3,3.140625 0,0.796875 0.53125,1.359375 1.3125,1.359375 0.703125,0 1.46875,-0.40625 2.0625,-1.078125 l -0.125,-0.125 z M 1.515625,-2.515625 c 0.34375,-0.890625 1.078125,-1.65625 1.578125,-1.65625 0.21875,0 0.359375,0.171875 0.359375,0.390625 0,0.3125 -0.1875,0.671875 -0.5,0.96875 -0.375,0.34375 -0.75,0.53125 -1.609375,0.734375 l 0.171875,-0.4375 z m 0,0"
               style="stroke:none" />
          </symbol>
          <symbol
             id="textext-d7a626f8-4"
             overflow="visible"
             style="overflow:visible">
            <path
               id="path44095"
               d=""
               style="stroke:none" />
          </symbol>
          <symbol
             id="textext-d7a626f8-5"
             overflow="visible"
             style="overflow:visible">
            <path
               id="path44098"
               d="m 1.0625,-2.296875 c 0.421875,0 0.578125,0.015625 0.75,0.078125 0.421875,0.15625 0.703125,0.546875 0.703125,1.03125 0,0.578125 -0.40625,1.03125 -0.921875,1.03125 -0.1875,0 -0.328125,-0.046875 -0.578125,-0.21875 C 0.796875,-0.5 0.6875,-0.546875 0.5625,-0.546875 c -0.15625,0 -0.265625,0.09375 -0.265625,0.25 0,0.234375 0.296875,0.390625 0.796875,0.390625 0.53125,0 1.078125,-0.171875 1.40625,-0.46875 0.328125,-0.28125 0.515625,-0.6875 0.515625,-1.15625 0,-0.34375 -0.109375,-0.671875 -0.3125,-0.890625 C 2.5625,-2.578125 2.421875,-2.65625 2.125,-2.796875 2.59375,-3.125 2.78125,-3.375 2.78125,-3.75 c 0,-0.578125 -0.453125,-0.953125 -1.09375,-0.953125 -0.34375,0 -0.65625,0.109375 -0.90625,0.328125 C 0.578125,-4.1875 0.46875,-4 0.3125,-3.578125 l 0.109375,0.03125 c 0.28125,-0.515625 0.59375,-0.75 1.03125,-0.75 0.453125,0 0.765625,0.3125 0.765625,0.75 0,0.25 -0.09375,0.5 -0.28125,0.671875 -0.203125,0.21875 -0.390625,0.3125 -0.875,0.484375 l 0,0.09375 z m 0,0"
               style="stroke:none" />
          </symbol>
        </g>
      </defs>
      <g
         id="textext-d7a626f8-6">
        <g
           id="g44101"
           style="fill:#000000;fill-opacity:1">
          <use
             id="use44103"
             y="134.765"
             x="224.174"
             xlink:href="#textext-d7a626f8-1"
             width="354.33069"
             height="212.59842" />
        </g>
        <g
           id="g44105"
           style="fill:#000000;fill-opacity:1">
          <use
             id="use44107"
             y="134.765"
             x="223.43201"
             xlink:href="#textext-d7a626f8-3"
             width="354.33069"
             height="212.59842" />
        </g>
        <g
           id="g44109"
           style="fill:#000000;fill-opacity:1">
          <use
             id="use44111"
             y="136.259"
             x="227.856"
             xlink:href="#textext-d7a626f8-5"
             width="354.33069"
             height="212.59842" />
        </g>
      </g>
    </g>
    <g
       ns0:text="$\\tilde{e}_1$"
       ns0:preamble="/home/sriranga/Documents/TIFR/preamble.tex"
       transform="matrix(1.2,0,0,1.2,-260.29071,835.60326)"
       id="g44413">
      <defs
         id="defs44415">
        <g
           id="g44417">
          <symbol
             overflow="visible"
             id="textext-d8f01bcf-0"
             style="overflow:visible">
            <path
               style="stroke:none"
               d=""
               id="path44420" />
          </symbol>
          <symbol
             overflow="visible"
             id="textext-d8f01bcf-1"
             style="overflow:visible">
            <path
               style="stroke:none"
               d="m 3.015625,-6.359375 c -0.171875,0.375 -0.296875,0.5 -0.53125,0.5 -0.15625,0 -0.34375,-0.0625 -0.53125,-0.15625 L 1.71875,-6.125 C 1.484375,-6.25 1.234375,-6.3125 1.015625,-6.3125 c -0.5,0 -0.859375,0.359375 -1,1.015625 l 0.28125,0 c 0.109375,-0.3125 0.28125,-0.46875 0.515625,-0.46875 0.109375,0 0.25,0.046875 0.40625,0.109375 l 0.234375,0.109375 c 0.40625,0.203125 0.546875,0.25 0.796875,0.25 0.546875,0 0.84375,-0.3125 1.046875,-1.0625 l -0.28125,0 z m 0,0"
               id="path44423" />
          </symbol>
          <symbol
             overflow="visible"
             id="textext-d8f01bcf-2"
             style="overflow:visible">
            <path
               style="stroke:none"
               d=""
               id="path44426" />
          </symbol>
          <symbol
             overflow="visible"
             id="textext-d8f01bcf-3"
             style="overflow:visible">
            <path
               style="stroke:none"
               d="m 3.5625,-1.09375 c -0.71875,0.59375 -1.015625,0.75 -1.453125,0.75 -0.5625,0 -0.9375,-0.359375 -0.9375,-0.890625 0,-0.15625 0.03125,-0.296875 0.109375,-0.625 l 0.28125,-0.03125 c 1.484375,-0.21875 2.546875,-0.96875 2.546875,-1.828125 0,-0.421875 -0.296875,-0.671875 -0.796875,-0.671875 -1.4375,0 -3,1.640625 -3,3.140625 0,0.796875 0.53125,1.359375 1.3125,1.359375 0.703125,0 1.46875,-0.40625 2.0625,-1.078125 l -0.125,-0.125 z M 1.515625,-2.515625 c 0.34375,-0.890625 1.078125,-1.65625 1.578125,-1.65625 0.21875,0 0.359375,0.171875 0.359375,0.390625 0,0.3125 -0.1875,0.671875 -0.5,0.96875 -0.375,0.34375 -0.75,0.53125 -1.609375,0.734375 l 0.171875,-0.4375 z m 0,0"
               id="path44429" />
          </symbol>
          <symbol
             overflow="visible"
             id="textext-d8f01bcf-4"
             style="overflow:visible">
            <path
               style="stroke:none"
               d=""
               id="path44432" />
          </symbol>
          <symbol
             overflow="visible"
             id="textext-d8f01bcf-5"
             style="overflow:visible">
            <path
               style="stroke:none"
               d="m 2.03125,-4.703125 -1.25,0.625 0,0.09375 c 0.078125,-0.03125 0.15625,-0.0625 0.1875,-0.078125 0.125,-0.046875 0.234375,-0.0625 0.3125,-0.0625 0.140625,0 0.203125,0.09375 0.203125,0.3125 l 0,3.171875 c 0,0.21875 -0.0625,0.375 -0.171875,0.453125 -0.09375,0.0625 -0.203125,0.078125 -0.484375,0.078125 L 0.828125,0 2.75,0 l 0,-0.109375 c -0.5625,0 -0.671875,-0.078125 -0.671875,-0.40625 l 0,-4.1875 -0.046875,0 z m 0,0"
               id="path44435" />
          </symbol>
        </g>
      </defs>
      <g
         id="textext-d8f01bcf-6">
        <g
           style="fill:#000000;fill-opacity:1"
           id="g44438">
          <use
             xlink:href="#textext-d8f01bcf-1"
             x="224.174"
             y="134.765"
             id="use44440"
             width="354.33069"
             height="212.59842" />
        </g>
        <g
           style="fill:#000000;fill-opacity:1"
           id="g44442">
          <use
             xlink:href="#textext-d8f01bcf-3"
             x="223.43201"
             y="134.765"
             id="use44444"
             width="354.33069"
             height="212.59842" />
        </g>
        <g
           style="fill:#000000;fill-opacity:1"
           id="g44446">
          <use
             xlink:href="#textext-d8f01bcf-5"
             x="227.856"
             y="136.259"
             id="use44448"
             width="354.33069"
             height="212.59842" />
        </g>
      </g>
    </g>
    <g
       id="g44762"
       transform="matrix(1.2,0,0,1.2,-131.67103,799.85082)"
       ns0:preamble="/home/sriranga/Documents/TIFR/preamble.tex"
       ns0:text="$\\tilde{e}_2$">
      <defs
         id="defs44764">
        <g
           id="g44766">
          <symbol
             id="textext-6c2393cd-0"
             overflow="visible"
             style="overflow:visible">
            <path
               id="path44769"
               d=""
               style="stroke:none" />
          </symbol>
          <symbol
             id="textext-6c2393cd-1"
             overflow="visible"
             style="overflow:visible">
            <path
               id="path44772"
               d="m 3.015625,-6.359375 c -0.171875,0.375 -0.296875,0.5 -0.53125,0.5 -0.15625,0 -0.34375,-0.0625 -0.53125,-0.15625 L 1.71875,-6.125 C 1.484375,-6.25 1.234375,-6.3125 1.015625,-6.3125 c -0.5,0 -0.859375,0.359375 -1,1.015625 l 0.28125,0 c 0.109375,-0.3125 0.28125,-0.46875 0.515625,-0.46875 0.109375,0 0.25,0.046875 0.40625,0.109375 l 0.234375,0.109375 c 0.40625,0.203125 0.546875,0.25 0.796875,0.25 0.546875,0 0.84375,-0.3125 1.046875,-1.0625 l -0.28125,0 z m 0,0"
               style="stroke:none" />
          </symbol>
          <symbol
             id="textext-6c2393cd-2"
             overflow="visible"
             style="overflow:visible">
            <path
               id="path44775"
               d=""
               style="stroke:none" />
          </symbol>
          <symbol
             id="textext-6c2393cd-3"
             overflow="visible"
             style="overflow:visible">
            <path
               id="path44778"
               d="m 3.5625,-1.09375 c -0.71875,0.59375 -1.015625,0.75 -1.453125,0.75 -0.5625,0 -0.9375,-0.359375 -0.9375,-0.890625 0,-0.15625 0.03125,-0.296875 0.109375,-0.625 l 0.28125,-0.03125 c 1.484375,-0.21875 2.546875,-0.96875 2.546875,-1.828125 0,-0.421875 -0.296875,-0.671875 -0.796875,-0.671875 -1.4375,0 -3,1.640625 -3,3.140625 0,0.796875 0.53125,1.359375 1.3125,1.359375 0.703125,0 1.46875,-0.40625 2.0625,-1.078125 l -0.125,-0.125 z M 1.515625,-2.515625 c 0.34375,-0.890625 1.078125,-1.65625 1.578125,-1.65625 0.21875,0 0.359375,0.171875 0.359375,0.390625 0,0.3125 -0.1875,0.671875 -0.5,0.96875 -0.375,0.34375 -0.75,0.53125 -1.609375,0.734375 l 0.171875,-0.4375 z m 0,0"
               style="stroke:none" />
          </symbol>
          <symbol
             id="textext-6c2393cd-4"
             overflow="visible"
             style="overflow:visible">
            <path
               id="path44781"
               d=""
               style="stroke:none" />
          </symbol>
          <symbol
             id="textext-6c2393cd-5"
             overflow="visible"
             style="overflow:visible">
            <path
               id="path44784"
               d="M 3.3125,-0.953125 3.21875,-0.984375 C 2.96875,-0.59375 2.875,-0.53125 2.5625,-0.53125 l -1.671875,0 L 2.0625,-1.75 c 0.625,-0.65625 0.890625,-1.1875 0.890625,-1.734375 0,-0.6875 -0.5625,-1.21875 -1.28125,-1.21875 -0.390625,0 -0.75,0.140625 -1.015625,0.421875 -0.21875,0.234375 -0.328125,0.46875 -0.4375,0.953125 l 0.140625,0.03125 C 0.640625,-3.96875 0.890625,-4.1875 1.375,-4.1875 c 0.578125,0 0.984375,0.390625 0.984375,0.96875 0,0.546875 -0.328125,1.203125 -0.90625,1.8125 l -1.25,1.328125 0,0.078125 2.71875,0 0.390625,-0.953125 z m 0,0"
               style="stroke:none" />
          </symbol>
        </g>
      </defs>
      <g
         id="textext-6c2393cd-6">
        <g
           id="g44787"
           style="fill:#000000;fill-opacity:1">
          <use
             id="use44789"
             y="134.765"
             x="224.174"
             xlink:href="#textext-6c2393cd-1"
             width="354.33069"
             height="212.59842" />
        </g>
        <g
           id="g44791"
           style="fill:#000000;fill-opacity:1">
          <use
             id="use44793"
             y="134.765"
             x="223.43201"
             xlink:href="#textext-6c2393cd-3"
             width="354.33069"
             height="212.59842" />
        </g>
        <g
           id="g44795"
           style="fill:#000000;fill-opacity:1">
          <use
             id="use44797"
             y="136.259"
             x="227.856"
             xlink:href="#textext-6c2393cd-5"
             width="354.33069"
             height="212.59842" />
        </g>
      </g>
    </g>
    <path
       sodipodi:nodetypes="ccc"
       style="fill:none;stroke:#000000;stroke-width:1px;stroke-linecap:butt;stroke-linejoin:miter;stroke-opacity:1"
       d="M 220,872.36085 240.07385,952.5617 320,952.36085"
       id="path44959" />
    <path
       id="path44961"
       d="m 280,882.36085 -40,70 60,49.99995"
       style="fill:none;stroke:#000000;stroke-width:1px;stroke-linecap:butt;stroke-linejoin:miter;stroke-opacity:1"
       sodipodi:nodetypes="ccc" />
    <path
       style="fill:none;stroke:#000000;stroke-width:1px;stroke-linecap:butt;stroke-linejoin:miter;stroke-opacity:1"
       d="M 275,1017.3608 240.13683,952.54675 180.07385,987.5617"
       id="path44963"
       sodipodi:nodetypes="ccc" />
    <path
       style="fill:none;stroke:#000000;stroke-width:1px;stroke-linecap:butt;stroke-linejoin:miter;stroke-opacity:1"
       d="m 270,1007.9822 0,-30.62135"
       id="path44965"
       sodipodi:nodetypes="cc" />
    <g
       ns0:text="$\\tilde{e}_3$"
       ns0:preamble="/home/sriranga/Documents/TIFR/preamble.tex"
       transform="matrix(1.2,0,0,1.2,-57.257823,704.97176)"
       id="g44967">
      <defs
         id="defs44969">
        <g
           id="g44971">
          <symbol
             style="overflow:visible"
             overflow="visible"
             id="symbol44973">
            <path
               style="stroke:none"
               d=""
               id="path44975" />
          </symbol>
          <symbol
             style="overflow:visible"
             overflow="visible"
             id="symbol44977">
            <path
               style="stroke:none"
               d="m 3.015625,-6.359375 c -0.171875,0.375 -0.296875,0.5 -0.53125,0.5 -0.15625,0 -0.34375,-0.0625 -0.53125,-0.15625 L 1.71875,-6.125 C 1.484375,-6.25 1.234375,-6.3125 1.015625,-6.3125 c -0.5,0 -0.859375,0.359375 -1,1.015625 l 0.28125,0 c 0.109375,-0.3125 0.28125,-0.46875 0.515625,-0.46875 0.109375,0 0.25,0.046875 0.40625,0.109375 l 0.234375,0.109375 c 0.40625,0.203125 0.546875,0.25 0.796875,0.25 0.546875,0 0.84375,-0.3125 1.046875,-1.0625 l -0.28125,0 z m 0,0"
               id="path44979" />
          </symbol>
          <symbol
             style="overflow:visible"
             overflow="visible"
             id="symbol44981">
            <path
               style="stroke:none"
               d=""
               id="path44983" />
          </symbol>
          <symbol
             style="overflow:visible"
             overflow="visible"
             id="symbol44985">
            <path
               style="stroke:none"
               d="m 3.5625,-1.09375 c -0.71875,0.59375 -1.015625,0.75 -1.453125,0.75 -0.5625,0 -0.9375,-0.359375 -0.9375,-0.890625 0,-0.15625 0.03125,-0.296875 0.109375,-0.625 l 0.28125,-0.03125 c 1.484375,-0.21875 2.546875,-0.96875 2.546875,-1.828125 0,-0.421875 -0.296875,-0.671875 -0.796875,-0.671875 -1.4375,0 -3,1.640625 -3,3.140625 0,0.796875 0.53125,1.359375 1.3125,1.359375 0.703125,0 1.46875,-0.40625 2.0625,-1.078125 l -0.125,-0.125 z M 1.515625,-2.515625 c 0.34375,-0.890625 1.078125,-1.65625 1.578125,-1.65625 0.21875,0 0.359375,0.171875 0.359375,0.390625 0,0.3125 -0.1875,0.671875 -0.5,0.96875 -0.375,0.34375 -0.75,0.53125 -1.609375,0.734375 l 0.171875,-0.4375 z m 0,0"
               id="path44987" />
          </symbol>
          <symbol
             style="overflow:visible"
             overflow="visible"
             id="symbol44989">
            <path
               style="stroke:none"
               d=""
               id="path44991" />
          </symbol>
          <symbol
             style="overflow:visible"
             overflow="visible"
             id="symbol44993">
            <path
               style="stroke:none"
               d="m 1.0625,-2.296875 c 0.421875,0 0.578125,0.015625 0.75,0.078125 0.421875,0.15625 0.703125,0.546875 0.703125,1.03125 0,0.578125 -0.40625,1.03125 -0.921875,1.03125 -0.1875,0 -0.328125,-0.046875 -0.578125,-0.21875 C 0.796875,-0.5 0.6875,-0.546875 0.5625,-0.546875 c -0.15625,0 -0.265625,0.09375 -0.265625,0.25 0,0.234375 0.296875,0.390625 0.796875,0.390625 0.53125,0 1.078125,-0.171875 1.40625,-0.46875 0.328125,-0.28125 0.515625,-0.6875 0.515625,-1.15625 0,-0.34375 -0.109375,-0.671875 -0.3125,-0.890625 C 2.5625,-2.578125 2.421875,-2.65625 2.125,-2.796875 2.59375,-3.125 2.78125,-3.375 2.78125,-3.75 c 0,-0.578125 -0.453125,-0.953125 -1.09375,-0.953125 -0.34375,0 -0.65625,0.109375 -0.90625,0.328125 C 0.578125,-4.1875 0.46875,-4 0.3125,-3.578125 l 0.109375,0.03125 c 0.28125,-0.515625 0.59375,-0.75 1.03125,-0.75 0.453125,0 0.765625,0.3125 0.765625,0.75 0,0.25 -0.09375,0.5 -0.28125,0.671875 -0.203125,0.21875 -0.390625,0.3125 -0.875,0.484375 l 0,0.09375 z m 0,0"
               id="path44995" />
          </symbol>
        </g>
      </defs>
      <g
         id="g44997">
        <g
           style="fill:#000000;fill-opacity:1"
           id="g44999">
          <use
             height="212.59842"
             width="354.33069"
             xlink:href="#textext-d7a626f8-1"
             x="224.174"
             y="134.765"
             id="use45001" />
        </g>
        <g
           style="fill:#000000;fill-opacity:1"
           id="g45003">
          <use
             height="212.59842"
             width="354.33069"
             xlink:href="#textext-d7a626f8-3"
             x="223.43201"
             y="134.765"
             id="use45005" />
        </g>
        <g
           style="fill:#000000;fill-opacity:1"
           id="g45007">
          <use
             height="212.59842"
             width="354.33069"
             xlink:href="#textext-d7a626f8-5"
             x="227.856"
             y="136.259"
             id="use45009" />
        </g>
      </g>
    </g>
    <g
       id="g45011"
       transform="matrix(1.2,0,0,1.2,-92.075773,835.80411)"
       ns0:preamble="/home/sriranga/Documents/TIFR/preamble.tex"
       ns0:text="$\\tilde{e}_1$">
      <defs
         id="defs45013">
        <g
           id="g45015">
          <symbol
             style="overflow:visible"
             id="symbol45017"
             overflow="visible">
            <path
               id="path45019"
               d=""
               style="stroke:none" />
          </symbol>
          <symbol
             style="overflow:visible"
             id="symbol45021"
             overflow="visible">
            <path
               id="path45023"
               d="m 3.015625,-6.359375 c -0.171875,0.375 -0.296875,0.5 -0.53125,0.5 -0.15625,0 -0.34375,-0.0625 -0.53125,-0.15625 L 1.71875,-6.125 C 1.484375,-6.25 1.234375,-6.3125 1.015625,-6.3125 c -0.5,0 -0.859375,0.359375 -1,1.015625 l 0.28125,0 c 0.109375,-0.3125 0.28125,-0.46875 0.515625,-0.46875 0.109375,0 0.25,0.046875 0.40625,0.109375 l 0.234375,0.109375 c 0.40625,0.203125 0.546875,0.25 0.796875,0.25 0.546875,0 0.84375,-0.3125 1.046875,-1.0625 l -0.28125,0 z m 0,0"
               style="stroke:none" />
          </symbol>
          <symbol
             style="overflow:visible"
             id="symbol45025"
             overflow="visible">
            <path
               id="path45027"
               d=""
               style="stroke:none" />
          </symbol>
          <symbol
             style="overflow:visible"
             id="symbol45029"
             overflow="visible">
            <path
               id="path45031"
               d="m 3.5625,-1.09375 c -0.71875,0.59375 -1.015625,0.75 -1.453125,0.75 -0.5625,0 -0.9375,-0.359375 -0.9375,-0.890625 0,-0.15625 0.03125,-0.296875 0.109375,-0.625 l 0.28125,-0.03125 c 1.484375,-0.21875 2.546875,-0.96875 2.546875,-1.828125 0,-0.421875 -0.296875,-0.671875 -0.796875,-0.671875 -1.4375,0 -3,1.640625 -3,3.140625 0,0.796875 0.53125,1.359375 1.3125,1.359375 0.703125,0 1.46875,-0.40625 2.0625,-1.078125 l -0.125,-0.125 z M 1.515625,-2.515625 c 0.34375,-0.890625 1.078125,-1.65625 1.578125,-1.65625 0.21875,0 0.359375,0.171875 0.359375,0.390625 0,0.3125 -0.1875,0.671875 -0.5,0.96875 -0.375,0.34375 -0.75,0.53125 -1.609375,0.734375 l 0.171875,-0.4375 z m 0,0"
               style="stroke:none" />
          </symbol>
          <symbol
             style="overflow:visible"
             id="symbol45033"
             overflow="visible">
            <path
               id="path45035"
               d=""
               style="stroke:none" />
          </symbol>
          <symbol
             style="overflow:visible"
             id="symbol45037"
             overflow="visible">
            <path
               id="path45039"
               d="m 2.03125,-4.703125 -1.25,0.625 0,0.09375 c 0.078125,-0.03125 0.15625,-0.0625 0.1875,-0.078125 0.125,-0.046875 0.234375,-0.0625 0.3125,-0.0625 0.140625,0 0.203125,0.09375 0.203125,0.3125 l 0,3.171875 c 0,0.21875 -0.0625,0.375 -0.171875,0.453125 -0.09375,0.0625 -0.203125,0.078125 -0.484375,0.078125 L 0.828125,0 2.75,0 l 0,-0.109375 c -0.5625,0 -0.671875,-0.078125 -0.671875,-0.40625 l 0,-4.1875 -0.046875,0 z m 0,0"
               style="stroke:none" />
          </symbol>
        </g>
      </defs>
      <g
         id="g45041">
        <g
           id="g45043"
           style="fill:#000000;fill-opacity:1">
          <use
             height="212.59842"
             width="354.33069"
             id="use45045"
             y="134.765"
             x="224.174"
             xlink:href="#textext-d8f01bcf-1" />
        </g>
        <g
           id="g45047"
           style="fill:#000000;fill-opacity:1">
          <use
             height="212.59842"
             width="354.33069"
             id="use45049"
             y="134.765"
             x="223.43201"
             xlink:href="#textext-d8f01bcf-3" />
        </g>
        <g
           id="g45051"
           style="fill:#000000;fill-opacity:1">
          <use
             height="212.59842"
             width="354.33069"
             id="use45053"
             y="136.259"
             x="227.856"
             xlink:href="#textext-d8f01bcf-5" />
        </g>
      </g>
    </g>
    <g
       ns0:text="$\\tilde{e}_2$"
       ns0:preamble="/home/sriranga/Documents/TIFR/preamble.tex"
       transform="matrix(1.2,0,0,1.2,55.133033,793.85529)"
       id="g45055">
      <defs
         id="defs45057">
        <g
           id="g45059">
          <symbol
             style="overflow:visible"
             overflow="visible"
             id="symbol45061">
            <path
               style="stroke:none"
               d=""
               id="path45063" />
          </symbol>
          <symbol
             style="overflow:visible"
             overflow="visible"
             id="symbol45065">
            <path
               style="stroke:none"
               d="m 3.015625,-6.359375 c -0.171875,0.375 -0.296875,0.5 -0.53125,0.5 -0.15625,0 -0.34375,-0.0625 -0.53125,-0.15625 L 1.71875,-6.125 C 1.484375,-6.25 1.234375,-6.3125 1.015625,-6.3125 c -0.5,0 -0.859375,0.359375 -1,1.015625 l 0.28125,0 c 0.109375,-0.3125 0.28125,-0.46875 0.515625,-0.46875 0.109375,0 0.25,0.046875 0.40625,0.109375 l 0.234375,0.109375 c 0.40625,0.203125 0.546875,0.25 0.796875,0.25 0.546875,0 0.84375,-0.3125 1.046875,-1.0625 l -0.28125,0 z m 0,0"
               id="path45067" />
          </symbol>
          <symbol
             style="overflow:visible"
             overflow="visible"
             id="symbol45069">
            <path
               style="stroke:none"
               d=""
               id="path45071" />
          </symbol>
          <symbol
             style="overflow:visible"
             overflow="visible"
             id="symbol45073">
            <path
               style="stroke:none"
               d="m 3.5625,-1.09375 c -0.71875,0.59375 -1.015625,0.75 -1.453125,0.75 -0.5625,0 -0.9375,-0.359375 -0.9375,-0.890625 0,-0.15625 0.03125,-0.296875 0.109375,-0.625 l 0.28125,-0.03125 c 1.484375,-0.21875 2.546875,-0.96875 2.546875,-1.828125 0,-0.421875 -0.296875,-0.671875 -0.796875,-0.671875 -1.4375,0 -3,1.640625 -3,3.140625 0,0.796875 0.53125,1.359375 1.3125,1.359375 0.703125,0 1.46875,-0.40625 2.0625,-1.078125 l -0.125,-0.125 z M 1.515625,-2.515625 c 0.34375,-0.890625 1.078125,-1.65625 1.578125,-1.65625 0.21875,0 0.359375,0.171875 0.359375,0.390625 0,0.3125 -0.1875,0.671875 -0.5,0.96875 -0.375,0.34375 -0.75,0.53125 -1.609375,0.734375 l 0.171875,-0.4375 z m 0,0"
               id="path45075" />
          </symbol>
          <symbol
             style="overflow:visible"
             overflow="visible"
             id="symbol45077">
            <path
               style="stroke:none"
               d=""
               id="path45079" />
          </symbol>
          <symbol
             style="overflow:visible"
             overflow="visible"
             id="symbol45081">
            <path
               style="stroke:none"
               d="M 3.3125,-0.953125 3.21875,-0.984375 C 2.96875,-0.59375 2.875,-0.53125 2.5625,-0.53125 l -1.671875,0 L 2.0625,-1.75 c 0.625,-0.65625 0.890625,-1.1875 0.890625,-1.734375 0,-0.6875 -0.5625,-1.21875 -1.28125,-1.21875 -0.390625,0 -0.75,0.140625 -1.015625,0.421875 -0.21875,0.234375 -0.328125,0.46875 -0.4375,0.953125 l 0.140625,0.03125 C 0.640625,-3.96875 0.890625,-4.1875 1.375,-4.1875 c 0.578125,0 0.984375,0.390625 0.984375,0.96875 0,0.546875 -0.328125,1.203125 -0.90625,1.8125 l -1.25,1.328125 0,0.078125 2.71875,0 0.390625,-0.953125 z m 0,0"
               id="path45083" />
          </symbol>
        </g>
      </defs>
      <g
         id="g45085">
        <g
           style="fill:#000000;fill-opacity:1"
           id="g45087">
          <use
             height="212.59842"
             width="354.33069"
             xlink:href="#textext-6c2393cd-1"
             x="224.174"
             y="134.765"
             id="use45089" />
        </g>
        <g
           style="fill:#000000;fill-opacity:1"
           id="g45091">
          <use
             height="212.59842"
             width="354.33069"
             xlink:href="#textext-6c2393cd-3"
             x="223.43201"
             y="134.765"
             id="use45093" />
        </g>
        <g
           style="fill:#000000;fill-opacity:1"
           id="g45095">
          <use
             height="212.59842"
             width="354.33069"
             xlink:href="#textext-6c2393cd-5"
             x="227.856"
             y="136.259"
             id="use45097" />
        </g>
      </g>
    </g>
    <path
       style="fill:none;stroke:#000000;stroke-width:1px;stroke-linecap:butt;stroke-linejoin:miter;stroke-opacity:1"
       d="m 280,42.598419 0,78.632911"
       id="path45099"
       transform="translate(0,839.76243)"
       sodipodi:nodetypes="cc" />
    <path
       style="fill:none;stroke:#000000;stroke-width:1px;stroke-linecap:butt;stroke-linejoin:miter;stroke-opacity:1"
       d="m 240,112.59842 70,15"
       id="path45101"
       transform="translate(0,839.76243)" />
  </g>
</svg>
