<?xml version="1.0" encoding="UTF-8" standalone="no"?>
<!-- Created with Inkscape (http://www.inkscape.org/) -->

<svg
   xmlns:ns0="http://www.iki.fi/pav/software/textext/"
   xmlns:dc="http://purl.org/dc/elements/1.1/"
   xmlns:cc="http://creativecommons.org/ns#"
   xmlns:rdf="http://www.w3.org/1999/02/22-rdf-syntax-ns#"
   xmlns:svg="http://www.w3.org/2000/svg"
   xmlns="http://www.w3.org/2000/svg"
   xmlns:xlink="http://www.w3.org/1999/xlink"
   xmlns:sodipodi="http://sodipodi.sourceforge.net/DTD/sodipodi-0.dtd"
   xmlns:inkscape="http://www.inkscape.org/namespaces/inkscape"
   width="212.59842"
   height="212.59842"
   id="svg2"
   version="1.1"
   inkscape:version="0.47pre4 r22446"
   sodipodi:docname="New document 1">
  <sodipodi:namedview
     id="base"
     pagecolor="#ffffff"
     bordercolor="#666666"
     borderopacity="1.0"
     inkscape:pageopacity="0.0"
     inkscape:pageshadow="2"
     inkscape:zoom="1.4"
     inkscape:cx="50.981474"
     inkscape:cy="173.80642"
     inkscape:document-units="px"
     inkscape:current-layer="layer1"
     showgrid="false"
     units="cm"
     inkscape:window-width="1024"
     inkscape:window-height="685"
     inkscape:window-x="0"
     inkscape:window-y="30"
     inkscape:window-maximized="1" />
  <defs
     id="defs4">
    <marker
       style="overflow:visible"
       id="DotM"
       refX="0.0"
       refY="0.0"
       orient="auto"
       inkscape:stockid="DotM">
      <path
         transform="scale(0.4) translate(7.4, 1)"
         style="fill-rule:evenodd;stroke:#000000;stroke-width:1.0pt;marker-start:none;marker-end:none"
         d="M -2.5,-1.0 C -2.5,1.7600000 -4.7400000,4.0 -7.5,4.0 C -10.260000,4.0 -12.5,1.7600000 -12.5,-1.0 C -12.5,-3.7600000 -10.260000,-6.0 -7.5,-6.0 C -4.7400000,-6.0 -2.5,-3.7600000 -2.5,-1.0 z "
         id="path3658" />
    </marker>
    <inkscape:perspective
       id="perspective10"
       inkscape:persp3d-origin="372.04724 : 350.78739 : 1"
       inkscape:vp_z="744.09448 : 526.18109 : 1"
       inkscape:vp_y="0 : 1000 : 0"
       inkscape:vp_x="0 : 526.18109 : 1"
       sodipodi:type="inkscape:persp3d" />
  </defs>
  <metadata
     id="metadata7">
    <rdf:RDF>
      <cc:Work
         rdf:about="">
        <dc:format>image/svg+xml</dc:format>
        <dc:type
           rdf:resource="http://purl.org/dc/dcmitype/StillImage" />
        <dc:title></dc:title>
      </cc:Work>
    </rdf:RDF>
  </metadata>
  <g
     transform="translate(0,-839.76245)"
     id="layer1"
     inkscape:groupmode="layer"
     inkscape:label="Layer 1">
    <rect
       y="895.76306"
       x="30.826075"
       height="109.64992"
       width="154.09663"
       id="rect2816"
       style="fill:none;stroke:#000000;stroke-width:1.25;stroke-linecap:round;stroke-linejoin:miter;stroke-miterlimit:4;stroke-opacity:1;stroke-dasharray:none;stroke-dashoffset:0" />
    <path
       transform="matrix(1.2110846,0,0,1.2110846,-19.04309,855.1821)"
       d="m 42.931482,33.043804 c 0,0.976311 -0.791456,1.767767 -1.767767,1.767767 -0.97631,0 -1.767767,-0.791456 -1.767767,-1.767767 0,-0.976311 0.791457,-1.767767 1.767767,-1.767767 0.976311,0 1.767767,0.791456 1.767767,1.767767 z"
       sodipodi:ry="1.767767"
       sodipodi:rx="1.767767"
       sodipodi:cy="33.043804"
       sodipodi:cx="41.163715"
       id="path4222"
       style="fill:#000000;stroke:#000000;stroke-width:1.25;stroke-linecap:round;stroke-linejoin:miter;stroke-miterlimit:4;stroke-opacity:1;stroke-dasharray:none;stroke-dashoffset:0"
       sodipodi:type="arc" />
    <path
       sodipodi:type="arc"
       style="fill:#000000;stroke:#000000;stroke-width:1.25;stroke-linecap:round;stroke-linejoin:miter;stroke-miterlimit:4;stroke-opacity:1;stroke-dasharray:none;stroke-dashoffset:0"
       id="path4224"
       sodipodi:cx="41.163715"
       sodipodi:cy="33.043804"
       sodipodi:rx="1.767767"
       sodipodi:ry="1.767767"
       d="m 42.931482,33.043804 c 0,0.976311 -0.791456,1.767767 -1.767767,1.767767 -0.97631,0 -1.767767,-0.791456 -1.767767,-1.767767 0,-0.976311 0.791457,-1.767767 1.767767,-1.767767 0.976311,0 1.767767,0.791456 1.767767,1.767767 z"
       transform="matrix(1.2110846,0,0,1.2110846,-19.04309,965.16178)" />
    <path
       transform="matrix(1.2110846,0,0,1.2110846,134.95691,965.16178)"
       d="m 42.931482,33.043804 c 0,0.976311 -0.791456,1.767767 -1.767767,1.767767 -0.97631,0 -1.767767,-0.791456 -1.767767,-1.767767 0,-0.976311 0.791457,-1.767767 1.767767,-1.767767 0.976311,0 1.767767,0.791456 1.767767,1.767767 z"
       sodipodi:ry="1.767767"
       sodipodi:rx="1.767767"
       sodipodi:cy="33.043804"
       sodipodi:cx="41.163715"
       id="path4226"
       style="fill:#000000;stroke:#000000;stroke-width:1.25;stroke-linecap:round;stroke-linejoin:miter;stroke-miterlimit:4;stroke-opacity:1;stroke-dasharray:none;stroke-dashoffset:0"
       sodipodi:type="arc" />
    <path
       sodipodi:type="arc"
       style="fill:#000000;stroke:#000000;stroke-width:1.25;stroke-linecap:round;stroke-linejoin:miter;stroke-miterlimit:4;stroke-opacity:1;stroke-dasharray:none;stroke-dashoffset:0"
       id="path4228"
       sodipodi:cx="41.163715"
       sodipodi:cy="33.043804"
       sodipodi:rx="1.767767"
       sodipodi:ry="1.767767"
       d="m 42.931482,33.043804 c 0,0.976311 -0.791456,1.767767 -1.767767,1.767767 -0.97631,0 -1.767767,-0.791456 -1.767767,-1.767767 0,-0.976311 0.791457,-1.767767 1.767767,-1.767767 0.976311,0 1.767767,0.791456 1.767767,1.767767 z"
       transform="matrix(1.2110846,0,0,1.2110846,134.95691,855.41432)" />
    <path
       transform="matrix(0.51048952,0,0,0.51048952,15.3996,865.62854)"
       d="m 42.142858,58.312706 c 0,6.706315 -5.436543,12.142858 -12.142858,12.142858 -6.706315,0 -12.142858,-5.436543 -12.142858,-12.142858 0,-6.706315 5.436543,-12.142858 12.142858,-12.142858 6.706315,0 12.142858,5.436543 12.142858,12.142858 z"
       sodipodi:ry="12.142858"
       sodipodi:rx="12.142858"
       sodipodi:cy="58.312706"
       sodipodi:cx="30"
       id="path4230"
       style="fill:none;stroke:#000000;stroke-width:2.44863009;stroke-linecap:round;stroke-linejoin:miter;stroke-miterlimit:4;stroke-opacity:1;stroke-dasharray:none;stroke-dashoffset:0"
       sodipodi:type="arc" />
    <path
       sodipodi:type="arc"
       style="fill:none;stroke:#000000;stroke-width:2.44863009;stroke-linecap:round;stroke-linejoin:miter;stroke-miterlimit:4;stroke-opacity:1;stroke-dasharray:none;stroke-dashoffset:0"
       id="path4232"
       sodipodi:cx="30"
       sodipodi:cy="58.312706"
       sodipodi:rx="12.142858"
       sodipodi:ry="12.142858"
       d="m 42.142858,58.312706 c 0,6.706315 -5.436543,12.142858 -12.142858,12.142858 -6.706315,0 -12.142858,-5.436543 -12.142858,-12.142858 0,-6.706315 5.436543,-12.142858 12.142858,-12.142858 6.706315,0 12.142858,5.436543 12.142858,12.142858 z"
       transform="matrix(0.51048952,0,0,0.51048952,15.3996,975.62854)" />
    <path
       transform="matrix(0.51048952,0,0,0.51048952,169.6139,975.62854)"
       d="m 42.142858,58.312706 c 0,6.706315 -5.436543,12.142858 -12.142858,12.142858 -6.706315,0 -12.142858,-5.436543 -12.142858,-12.142858 0,-6.706315 5.436543,-12.142858 12.142858,-12.142858 6.706315,0 12.142858,5.436543 12.142858,12.142858 z"
       sodipodi:ry="12.142858"
       sodipodi:rx="12.142858"
       sodipodi:cy="58.312706"
       sodipodi:cx="30"
       id="path4234"
       style="fill:none;stroke:#000000;stroke-width:2.44863009;stroke-linecap:round;stroke-linejoin:miter;stroke-miterlimit:4;stroke-opacity:1;stroke-dasharray:none;stroke-dashoffset:0"
       sodipodi:type="arc" />
    <path
       sodipodi:type="arc"
       style="fill:none;stroke:#000000;stroke-width:2.44863009;stroke-linecap:round;stroke-linejoin:miter;stroke-miterlimit:4;stroke-opacity:1;stroke-dasharray:none;stroke-dashoffset:0"
       id="path4236"
       sodipodi:cx="30"
       sodipodi:cy="58.312706"
       sodipodi:rx="12.142858"
       sodipodi:ry="12.142858"
       d="m 42.142858,58.312706 c 0,6.706315 -5.436543,12.142858 -12.142858,12.142858 -6.706315,0 -12.142858,-5.436543 -12.142858,-12.142858 0,-6.706315 5.436543,-12.142858 12.142858,-12.142858 6.706315,0 12.142858,5.436543 12.142858,12.142858 z"
       transform="matrix(0.51048952,0,0,0.51048952,169.6139,865.98568)" />
    <g
       transform="matrix(0.83756372,0.68437131,-0.78901499,0.70853978,674.83913,235.67303)"
       id="g4445">
      <path
         style="fill:none;stroke:#000000;stroke-width:1px;stroke-linecap:butt;stroke-linejoin:miter;stroke-opacity:1"
         d="m 54.285714,24.384133 0,10.714286"
         id="path4439"
         transform="translate(0,839.76245)" />
      <path
         id="path4441"
         d="m 58.285714,864.14658 0,10.71429"
         style="fill:none;stroke:#000000;stroke-width:1px;stroke-linecap:butt;stroke-linejoin:miter;stroke-opacity:1" />
      <path
         style="fill:none;stroke:#000000;stroke-width:1px;stroke-linecap:butt;stroke-linejoin:miter;stroke-opacity:1"
         d="m 52.654201,26.225274 3.282996,-5.682108 3.788073,5.429571"
         id="path4443"
         transform="translate(0,839.76245)"
         sodipodi:nodetypes="ccc" />
    </g>
    <g
       id="g4474"
       transform="matrix(0.83756372,0.68437131,-0.78901499,0.70853978,828.83913,235.92557)">
      <path
         transform="translate(0,839.76245)"
         id="path4476"
         d="m 54.285714,24.384133 0,10.714286"
         style="fill:none;stroke:#000000;stroke-width:1px;stroke-linecap:butt;stroke-linejoin:miter;stroke-opacity:1" />
      <path
         style="fill:none;stroke:#000000;stroke-width:1px;stroke-linecap:butt;stroke-linejoin:miter;stroke-opacity:1"
         d="m 58.285714,864.14658 0,10.71429"
         id="path4478" />
      <path
         sodipodi:nodetypes="ccc"
         transform="translate(0,839.76245)"
         id="path4480"
         d="m 52.654201,26.225274 3.282996,-5.682108 3.788073,5.429571"
         style="fill:none;stroke:#000000;stroke-width:1px;stroke-linecap:butt;stroke-linejoin:miter;stroke-opacity:1" />
    </g>
    <g
       transform="matrix(0.83756372,0.68437131,-0.78901499,0.70853978,828.58659,345.92557)"
       id="g4482">
      <path
         style="fill:none;stroke:#000000;stroke-width:1px;stroke-linecap:butt;stroke-linejoin:miter;stroke-opacity:1"
         d="m 54.285714,24.384133 0,10.714286"
         id="path4484"
         transform="translate(0,839.76245)" />
      <path
         id="path4486"
         d="m 58.285714,864.14658 0,10.71429"
         style="fill:none;stroke:#000000;stroke-width:1px;stroke-linecap:butt;stroke-linejoin:miter;stroke-opacity:1" />
      <path
         style="fill:none;stroke:#000000;stroke-width:1px;stroke-linecap:butt;stroke-linejoin:miter;stroke-opacity:1"
         d="m 52.654201,26.225274 3.282996,-5.682108 3.788073,5.429571"
         id="path4488"
         transform="translate(0,839.76245)"
         sodipodi:nodetypes="ccc" />
    </g>
    <g
       id="g4490"
       transform="matrix(0.83756372,0.68437131,-0.78901499,0.70853978,674.08151,346.17811)">
      <path
         transform="translate(0,839.76245)"
         id="path4492"
         d="m 54.285714,24.384133 0,10.714286"
         style="fill:none;stroke:#000000;stroke-width:1px;stroke-linecap:butt;stroke-linejoin:miter;stroke-opacity:1" />
      <path
         style="fill:none;stroke:#000000;stroke-width:1px;stroke-linecap:butt;stroke-linejoin:miter;stroke-opacity:1"
         d="m 58.285714,864.14658 0,10.71429"
         id="path4494" />
      <path
         sodipodi:nodetypes="ccc"
         transform="translate(0,839.76245)"
         id="path4496"
         d="m 52.654201,26.225274 3.282996,-5.682108 3.788073,5.429571"
         style="fill:none;stroke:#000000;stroke-width:1px;stroke-linecap:butt;stroke-linejoin:miter;stroke-opacity:1" />
    </g>
    <g
       id="g4531"
       ns0:preamble="/home/raghu/Desktop/Prism-JKB/sdst/package.tex"
       ns0:text="$a_{1}$"
       transform="matrix(1.2,0,0,1.2,-252.71429,859.28572)">
      <defs
         id="defs4533">
        <g
           id="g4535">
          <symbol
             id="textext-3493ecae-0"
             overflow="visible"
             style="overflow:visible">
            <path
               id="path4538"
               d=""
               style="stroke:none" />
          </symbol>
          <symbol
             id="textext-3493ecae-1"
             overflow="visible"
             style="overflow:visible">
            <path
               id="path4541"
               d="m 4.625,-1.09375 c -0.15625,0.140625 -0.203125,0.203125 -0.28125,0.28125 -0.296875,0.296875 -0.421875,0.40625 -0.515625,0.40625 -0.078125,0 -0.140625,-0.0625 -0.140625,-0.125 0,-0.203125 0.421875,-1.90625 0.890625,-3.625 0.03125,-0.09375 0.03125,-0.125 0.0625,-0.203125 L 4.5625,-4.390625 3.953125,-4.328125 3.921875,-4.296875 3.8125,-3.8125 c -0.078125,-0.375 -0.359375,-0.578125 -0.796875,-0.578125 -1.3125,0 -2.84375,1.8125 -2.84375,3.390625 0,0.703125 0.375,1.109375 1.015625,1.109375 0.703125,0 1.125,-0.328125 2,-1.5625 -0.203125,0.78125 -0.234375,0.90625 -0.234375,1.140625 0,0.296875 0.125,0.40625 0.40625,0.40625 C 3.765625,0.09375 4,-0.09375 4.75,-1 L 4.625,-1.09375 z M 3.078125,-4.171875 c 0.34375,0.015625 0.5625,0.25 0.5625,0.609375 0,0.828125 -0.5,2 -1.1875,2.75 C 2.21875,-0.546875 1.875,-0.375 1.578125,-0.375 1.234375,-0.375 1,-0.671875 1,-1.125 1,-1.671875 1.390625,-2.6875 1.8125,-3.3125 2.21875,-3.890625 2.6875,-4.203125 3.078125,-4.171875 z m 0,0"
               style="stroke:none" />
          </symbol>
          <symbol
             id="textext-3493ecae-2"
             overflow="visible"
             style="overflow:visible">
            <path
               id="path4544"
               d=""
               style="stroke:none" />
          </symbol>
          <symbol
             id="textext-3493ecae-3"
             overflow="visible"
             style="overflow:visible">
            <path
               id="path4547"
               d="m 2.03125,-4.703125 -1.25,0.625 0,0.09375 c 0.078125,-0.03125 0.15625,-0.0625 0.1875,-0.078125 0.125,-0.046875 0.234375,-0.0625 0.3125,-0.0625 0.140625,0 0.203125,0.09375 0.203125,0.3125 l 0,3.171875 c 0,0.21875 -0.0625,0.375 -0.171875,0.453125 -0.09375,0.0625 -0.203125,0.078125 -0.484375,0.078125 L 0.828125,0 2.75,0 l 0,-0.109375 c -0.5625,0 -0.671875,-0.078125 -0.671875,-0.40625 l 0,-4.1875 -0.046875,0 z m 0,0"
               style="stroke:none" />
          </symbol>
        </g>
      </defs>
      <g
         id="textext-3493ecae-4">
        <g
           id="g4550"
           style="fill:#000000;fill-opacity:1">
          <use
             id="use4552"
             y="134.765"
             x="223.43201"
             xlink:href="#textext-3493ecae-1"
             width="212.59842"
             height="212.59842" />
        </g>
        <g
           id="g4554"
           style="fill:#000000;fill-opacity:1">
          <use
             id="use4556"
             y="136.259"
             x="228.41299"
             xlink:href="#textext-3493ecae-3"
             width="212.59842"
             height="212.59842" />
        </g>
      </g>
    </g>
    <g
       ns0:text="$a_{2}$"
       ns0:preamble="/home/raghu/Desktop/Prism-JKB/sdst/package.tex"
       transform="matrix(1.2,0,0,1.2,-78.71429,859.28572)"
       id="g4686">
      <defs
         id="defs4688">
        <g
           id="g4690">
          <symbol
             overflow="visible"
             id="textext-01020cc5-0"
             style="overflow:visible">
            <path
               style="stroke:none"
               d=""
               id="path4693" />
          </symbol>
          <symbol
             overflow="visible"
             id="textext-01020cc5-1"
             style="overflow:visible">
            <path
               style="stroke:none"
               d="m 4.625,-1.09375 c -0.15625,0.140625 -0.203125,0.203125 -0.28125,0.28125 -0.296875,0.296875 -0.421875,0.40625 -0.515625,0.40625 -0.078125,0 -0.140625,-0.0625 -0.140625,-0.125 0,-0.203125 0.421875,-1.90625 0.890625,-3.625 0.03125,-0.09375 0.03125,-0.125 0.0625,-0.203125 L 4.5625,-4.390625 3.953125,-4.328125 3.921875,-4.296875 3.8125,-3.8125 c -0.078125,-0.375 -0.359375,-0.578125 -0.796875,-0.578125 -1.3125,0 -2.84375,1.8125 -2.84375,3.390625 0,0.703125 0.375,1.109375 1.015625,1.109375 0.703125,0 1.125,-0.328125 2,-1.5625 -0.203125,0.78125 -0.234375,0.90625 -0.234375,1.140625 0,0.296875 0.125,0.40625 0.40625,0.40625 C 3.765625,0.09375 4,-0.09375 4.75,-1 L 4.625,-1.09375 z M 3.078125,-4.171875 c 0.34375,0.015625 0.5625,0.25 0.5625,0.609375 0,0.828125 -0.5,2 -1.1875,2.75 C 2.21875,-0.546875 1.875,-0.375 1.578125,-0.375 1.234375,-0.375 1,-0.671875 1,-1.125 1,-1.671875 1.390625,-2.6875 1.8125,-3.3125 2.21875,-3.890625 2.6875,-4.203125 3.078125,-4.171875 z m 0,0"
               id="path4696" />
          </symbol>
          <symbol
             overflow="visible"
             id="textext-01020cc5-2"
             style="overflow:visible">
            <path
               style="stroke:none"
               d=""
               id="path4699" />
          </symbol>
          <symbol
             overflow="visible"
             id="textext-01020cc5-3"
             style="overflow:visible">
            <path
               style="stroke:none"
               d="M 3.3125,-0.953125 3.21875,-0.984375 C 2.96875,-0.59375 2.875,-0.53125 2.5625,-0.53125 l -1.671875,0 L 2.0625,-1.75 c 0.625,-0.65625 0.890625,-1.1875 0.890625,-1.734375 0,-0.6875 -0.5625,-1.21875 -1.28125,-1.21875 -0.390625,0 -0.75,0.140625 -1.015625,0.421875 -0.21875,0.234375 -0.328125,0.46875 -0.4375,0.953125 l 0.140625,0.03125 C 0.640625,-3.96875 0.890625,-4.1875 1.375,-4.1875 c 0.578125,0 0.984375,0.390625 0.984375,0.96875 0,0.546875 -0.328125,1.203125 -0.90625,1.8125 l -1.25,1.328125 0,0.078125 2.71875,0 0.390625,-0.953125 z m 0,0"
               id="path4702" />
          </symbol>
        </g>
      </defs>
      <g
         id="textext-01020cc5-4">
        <g
           style="fill:#000000;fill-opacity:1"
           id="g4705">
          <use
             xlink:href="#textext-01020cc5-1"
             x="223.43201"
             y="134.765"
             id="use4707"
             width="212.59842"
             height="212.59842" />
        </g>
        <g
           style="fill:#000000;fill-opacity:1"
           id="g4709">
          <use
             xlink:href="#textext-01020cc5-3"
             x="228.41299"
             y="136.259"
             id="use4711"
             width="212.59842"
             height="212.59842" />
        </g>
      </g>
    </g>
    <g
       id="g4873"
       transform="matrix(1.2,0,0,1.2,-78.71429,745.28572)"
       ns0:preamble="/home/raghu/Desktop/Prism-JKB/sdst/package.tex"
       ns0:text="$a_{3}$">
      <defs
         id="defs4875">
        <g
           id="g4877">
          <symbol
             id="textext-a8d5f192-0"
             overflow="visible">
            <path
               id="path4880"
               d=""
               style="stroke:none;" />
          </symbol>
          <symbol
             id="textext-a8d5f192-1"
             overflow="visible">
            <path
               id="path4883"
               d="M 4.625 -1.09375 C 4.46875 -0.953125 4.421875 -0.890625 4.34375 -0.8125 C 4.046875 -0.515625 3.921875 -0.40625 3.828125 -0.40625 C 3.75 -0.40625 3.6875 -0.46875 3.6875 -0.53125 C 3.6875 -0.734375 4.109375 -2.4375 4.578125 -4.15625 C 4.609375 -4.25 4.609375 -4.28125 4.640625 -4.359375 L 4.5625 -4.390625 L 3.953125 -4.328125 L 3.921875 -4.296875 L 3.8125 -3.8125 C 3.734375 -4.1875 3.453125 -4.390625 3.015625 -4.390625 C 1.703125 -4.390625 0.171875 -2.578125 0.171875 -1 C 0.171875 -0.296875 0.546875 0.109375 1.1875 0.109375 C 1.890625 0.109375 2.3125 -0.21875 3.1875 -1.453125 C 2.984375 -0.671875 2.953125 -0.546875 2.953125 -0.3125 C 2.953125 -0.015625 3.078125 0.09375 3.359375 0.09375 C 3.765625 0.09375 4 -0.09375 4.75 -1 L 4.625 -1.09375 Z M 3.078125 -4.171875 C 3.421875 -4.15625 3.640625 -3.921875 3.640625 -3.5625 C 3.640625 -2.734375 3.140625 -1.5625 2.453125 -0.8125 C 2.21875 -0.546875 1.875 -0.375 1.578125 -0.375 C 1.234375 -0.375 1 -0.671875 1 -1.125 C 1 -1.671875 1.390625 -2.6875 1.8125 -3.3125 C 2.21875 -3.890625 2.6875 -4.203125 3.078125 -4.171875 Z M 3.078125 -4.171875 "
               style="stroke:none;" />
          </symbol>
          <symbol
             id="textext-a8d5f192-2"
             overflow="visible">
            <path
               id="path4886"
               d=""
               style="stroke:none;" />
          </symbol>
          <symbol
             id="textext-a8d5f192-3"
             overflow="visible">
            <path
               id="path4889"
               d="M 1.0625 -2.296875 C 1.484375 -2.296875 1.640625 -2.28125 1.8125 -2.21875 C 2.234375 -2.0625 2.515625 -1.671875 2.515625 -1.1875 C 2.515625 -0.609375 2.109375 -0.15625 1.59375 -0.15625 C 1.40625 -0.15625 1.265625 -0.203125 1.015625 -0.375 C 0.796875 -0.5 0.6875 -0.546875 0.5625 -0.546875 C 0.40625 -0.546875 0.296875 -0.453125 0.296875 -0.296875 C 0.296875 -0.0625 0.59375 0.09375 1.09375 0.09375 C 1.625 0.09375 2.171875 -0.078125 2.5 -0.375 C 2.828125 -0.65625 3.015625 -1.0625 3.015625 -1.53125 C 3.015625 -1.875 2.90625 -2.203125 2.703125 -2.421875 C 2.5625 -2.578125 2.421875 -2.65625 2.125 -2.796875 C 2.59375 -3.125 2.78125 -3.375 2.78125 -3.75 C 2.78125 -4.328125 2.328125 -4.703125 1.6875 -4.703125 C 1.34375 -4.703125 1.03125 -4.59375 0.78125 -4.375 C 0.578125 -4.1875 0.46875 -4 0.3125 -3.578125 L 0.421875 -3.546875 C 0.703125 -4.0625 1.015625 -4.296875 1.453125 -4.296875 C 1.90625 -4.296875 2.21875 -3.984375 2.21875 -3.546875 C 2.21875 -3.296875 2.125 -3.046875 1.9375 -2.875 C 1.734375 -2.65625 1.546875 -2.5625 1.0625 -2.390625 L 1.0625 -2.296875 Z M 1.0625 -2.296875 "
               style="stroke:none;" />
          </symbol>
        </g>
      </defs>
      <g
         id="textext-a8d5f192-4">
        <g
           id="g4892"
           style="fill:rgb(0%,0%,0%);fill-opacity:1;">
          <use
             id="use4894"
             y="134.765"
             x="223.432"
             xlink:href="#textext-a8d5f192-1" />
        </g>
        <g
           id="g4896"
           style="fill:rgb(0%,0%,0%);fill-opacity:1;">
          <use
             id="use4898"
             y="136.259"
             x="228.413"
             xlink:href="#textext-a8d5f192-3" />
        </g>
      </g>
    </g>
    <g
       ns0:text="$a_{4}$"
       ns0:preamble="/home/raghu/Desktop/Prism-JKB/sdst/package.tex"
       transform="matrix(1.2,0,0,1.2,-256.71429,745.28572)"
       id="g5092">
      <defs
         id="defs5094">
        <g
           id="g5096">
          <symbol
             overflow="visible"
             id="textext-4513b6e8-0">
            <path
               style="stroke:none;"
               d=""
               id="path5099" />
          </symbol>
          <symbol
             overflow="visible"
             id="textext-4513b6e8-1">
            <path
               style="stroke:none;"
               d="M 4.625 -1.09375 C 4.46875 -0.953125 4.421875 -0.890625 4.34375 -0.8125 C 4.046875 -0.515625 3.921875 -0.40625 3.828125 -0.40625 C 3.75 -0.40625 3.6875 -0.46875 3.6875 -0.53125 C 3.6875 -0.734375 4.109375 -2.4375 4.578125 -4.15625 C 4.609375 -4.25 4.609375 -4.28125 4.640625 -4.359375 L 4.5625 -4.390625 L 3.953125 -4.328125 L 3.921875 -4.296875 L 3.8125 -3.8125 C 3.734375 -4.1875 3.453125 -4.390625 3.015625 -4.390625 C 1.703125 -4.390625 0.171875 -2.578125 0.171875 -1 C 0.171875 -0.296875 0.546875 0.109375 1.1875 0.109375 C 1.890625 0.109375 2.3125 -0.21875 3.1875 -1.453125 C 2.984375 -0.671875 2.953125 -0.546875 2.953125 -0.3125 C 2.953125 -0.015625 3.078125 0.09375 3.359375 0.09375 C 3.765625 0.09375 4 -0.09375 4.75 -1 L 4.625 -1.09375 Z M 3.078125 -4.171875 C 3.421875 -4.15625 3.640625 -3.921875 3.640625 -3.5625 C 3.640625 -2.734375 3.140625 -1.5625 2.453125 -0.8125 C 2.21875 -0.546875 1.875 -0.375 1.578125 -0.375 C 1.234375 -0.375 1 -0.671875 1 -1.125 C 1 -1.671875 1.390625 -2.6875 1.8125 -3.3125 C 2.21875 -3.890625 2.6875 -4.203125 3.078125 -4.171875 Z M 3.078125 -4.171875 "
               id="path5102" />
          </symbol>
          <symbol
             overflow="visible"
             id="textext-4513b6e8-2">
            <path
               style="stroke:none;"
               d=""
               id="path5105" />
          </symbol>
          <symbol
             overflow="visible"
             id="textext-4513b6e8-3">
            <path
               style="stroke:none;"
               d="M 3.296875 -1.609375 L 2.578125 -1.609375 L 2.578125 -4.703125 L 2.265625 -4.703125 L 0.078125 -1.609375 L 0.078125 -1.15625 L 2.046875 -1.15625 L 2.046875 0 L 2.578125 0 L 2.578125 -1.15625 L 3.296875 -1.15625 L 3.296875 -1.609375 Z M 2.03125 -1.609375 L 0.359375 -1.609375 L 2.03125 -4 L 2.03125 -1.609375 Z M 2.03125 -1.609375 "
               id="path5108" />
          </symbol>
        </g>
      </defs>
      <g
         id="textext-4513b6e8-4">
        <g
           style="fill:rgb(0%,0%,0%);fill-opacity:1;"
           id="g5111">
          <use
             xlink:href="#textext-4513b6e8-1"
             x="223.432"
             y="134.765"
             id="use5113" />
        </g>
        <g
           style="fill:rgb(0%,0%,0%);fill-opacity:1;"
           id="g5115">
          <use
             xlink:href="#textext-4513b6e8-3"
             x="228.413"
             y="136.259"
             id="use5117" />
        </g>
      </g>
    </g>
    <g
       id="g5343"
       transform="matrix(1.2,0,0,1.2,-165.71429,792.71429)"
       ns0:preamble="/home/raghu/Desktop/Prism-JKB/sdst/package.tex"
       ns0:text="$K$">
      <defs
         id="defs5345">
        <g
           id="g5347">
          <symbol
             id="textext-79e691cc-0"
             overflow="visible"
             style="overflow:visible">
            <path
               id="path5350"
               d=""
               style="stroke:none" />
          </symbol>
          <symbol
             id="textext-79e691cc-1"
             overflow="visible"
             style="overflow:visible">
            <path
               id="path5353"
               d="m 7.203125,-6.515625 -2.21875,0 0,0.171875 c 0.125,0 0.234375,0.03125 0.265625,0.03125 0.25,0.015625 0.34375,0.078125 0.34375,0.1875 0,0.234375 -0.546875,0.765625 -1.4375,1.390625 l -1.515625,1.0625 0.53125,-1.9375 c 0.140625,-0.5 0.421875,-0.703125 1,-0.734375 l 0,-0.171875 -2.71875,0 0,0.171875 c 0.625,0.046875 0.765625,0.140625 0.765625,0.421875 0,0.140625 -0.03125,0.375 -0.109375,0.625 l -1.21875,4.40625 C 0.703125,-0.296875 0.65625,-0.25 0.0625,-0.15625 l 0,0.15625 2.484375,0 0,-0.15625 c -0.640625,-0.078125 -0.71875,-0.140625 -0.71875,-0.4375 0,-0.109375 0.015625,-0.1875 0.078125,-0.390625 l 0.0625,-0.21875 0.609375,-2.265625 1.203125,2.078125 c 0.25,0.40625 0.390625,0.75 0.390625,0.9375 0,0.15625 -0.140625,0.234375 -0.46875,0.265625 -0.046875,0 -0.15625,0.015625 -0.28125,0.03125 l 0,0.15625 2.734375,0 0,-0.15625 C 5.53125,-0.21875 5.46875,-0.25 5.1875,-0.71875 l -1.734375,-3.015625 3,-2.25 c 0.28125,-0.21875 0.5,-0.328125 0.75,-0.359375 l 0,-0.171875 z m 0,0"
               style="stroke:none" />
          </symbol>
        </g>
      </defs>
      <g
         id="textext-79e691cc-2">
        <g
           id="g5356"
           style="fill:#000000;fill-opacity:1">
          <use
             id="use5358"
             y="134.765"
             x="223.681"
             xlink:href="#textext-79e691cc-1"
             width="212.59842"
             height="212.59842" />
        </g>
      </g>
    </g>
  </g>
</svg>
