<?xml version="1.0" encoding="UTF-8" standalone="no"?>
<!-- Created with Inkscape (http://www.inkscape.org/) -->

<svg
   xmlns:ns0="http://www.iki.fi/pav/software/textext/"
   xmlns:dc="http://purl.org/dc/elements/1.1/"
   xmlns:cc="http://creativecommons.org/ns#"
   xmlns:rdf="http://www.w3.org/1999/02/22-rdf-syntax-ns#"
   xmlns:svg="http://www.w3.org/2000/svg"
   xmlns="http://www.w3.org/2000/svg"
   xmlns:xlink="http://www.w3.org/1999/xlink"
   xmlns:sodipodi="http://sodipodi.sourceforge.net/DTD/sodipodi-0.dtd"
   xmlns:inkscape="http://www.inkscape.org/namespaces/inkscape"
   width="212.59842"
   height="177.16534"
   id="svg2"
   version="1.1"
   inkscape:version="0.47pre4 r22446"
   sodipodi:docname="New document 1">
  <sodipodi:namedview
     id="base"
     pagecolor="#ffffff"
     bordercolor="#666666"
     borderopacity="1.0"
     inkscape:pageopacity="0.0"
     inkscape:pageshadow="2"
     inkscape:zoom="1.979899"
     inkscape:cx="39.212811"
     inkscape:cy="88.740419"
     inkscape:document-units="px"
     inkscape:current-layer="layer1"
     showgrid="false"
     units="cm"
     inkscape:snap-nodes="false"
     inkscape:window-width="1024"
     inkscape:window-height="685"
     inkscape:window-x="0"
     inkscape:window-y="30"
     inkscape:window-maximized="1" />
  <defs
     id="defs4">
    <linearGradient
       inkscape:collect="always"
       id="linearGradient4537">
      <stop
         style="stop-color:#ffffff;stop-opacity:1;"
         offset="0"
         id="stop4539" />
      <stop
         style="stop-color:#ffffff;stop-opacity:0;"
         offset="1"
         id="stop4541" />
    </linearGradient>
    <marker
       style="overflow:visible"
       id="DotM"
       refX="0.0"
       refY="0.0"
       orient="auto"
       inkscape:stockid="DotM">
      <path
         transform="scale(0.4) translate(7.4, 1)"
         style="fill-rule:evenodd;stroke:#000000;stroke-width:1.0pt;marker-start:none;marker-end:none"
         d="M -2.5,-1.0 C -2.5,1.7600000 -4.7400000,4.0 -7.5,4.0 C -10.260000,4.0 -12.5,1.7600000 -12.5,-1.0 C -12.5,-3.7600000 -10.260000,-6.0 -7.5,-6.0 C -4.7400000,-6.0 -2.5,-3.7600000 -2.5,-1.0 z "
         id="path3704" />
    </marker>
    <inkscape:perspective
       id="perspective10"
       inkscape:persp3d-origin="372.04724 : 350.78739 : 1"
       inkscape:vp_z="744.09448 : 526.18109 : 1"
       inkscape:vp_y="0 : 1000 : 0"
       inkscape:vp_x="0 : 526.18109 : 1"
       sodipodi:type="inkscape:persp3d" />
    <linearGradient
       inkscape:collect="always"
       xlink:href="#linearGradient4537"
       id="linearGradient4543"
       x1="86.375656"
       y1="159.36141"
       x2="98.482258"
       y2="159.36141"
       gradientUnits="userSpaceOnUse"
       gradientTransform="translate(0,874.94298)" />
    <defs
       id="defs4599">
      <g
         id="g4601">
        <symbol
           id="symbol4603"
           overflow="visible"
           style="overflow:visible">
          <path
             id="path4605"
             d=""
             style="stroke:none" />
        </symbol>
        <symbol
           id="symbol4607"
           overflow="visible"
           style="overflow:visible">
          <path
             id="path4609"
             d="m 7.203125,-6.515625 -2.21875,0 0,0.171875 c 0.125,0 0.234375,0.03125 0.265625,0.03125 0.25,0.015625 0.34375,0.078125 0.34375,0.1875 0,0.234375 -0.546875,0.765625 -1.4375,1.390625 l -1.515625,1.0625 0.53125,-1.9375 c 0.140625,-0.5 0.421875,-0.703125 1,-0.734375 l 0,-0.171875 -2.71875,0 0,0.171875 c 0.625,0.046875 0.765625,0.140625 0.765625,0.421875 0,0.140625 -0.03125,0.375 -0.109375,0.625 l -1.21875,4.40625 C 0.703125,-0.296875 0.65625,-0.25 0.0625,-0.15625 l 0,0.15625 2.484375,0 0,-0.15625 c -0.640625,-0.078125 -0.71875,-0.140625 -0.71875,-0.4375 0,-0.109375 0.015625,-0.1875 0.078125,-0.390625 l 0.0625,-0.21875 0.609375,-2.265625 1.203125,2.078125 c 0.25,0.40625 0.390625,0.75 0.390625,0.9375 0,0.15625 -0.140625,0.234375 -0.46875,0.265625 -0.046875,0 -0.15625,0.015625 -0.28125,0.03125 l 0,0.15625 2.734375,0 0,-0.15625 C 5.53125,-0.21875 5.46875,-0.25 5.1875,-0.71875 l -1.734375,-3.015625 3,-2.25 c 0.28125,-0.21875 0.5,-0.328125 0.75,-0.359375 l 0,-0.171875 z m 0,0"
             style="stroke:none" />
        </symbol>
      </g>
    </defs>
  </defs>
  <metadata
     id="metadata7">
    <rdf:RDF>
      <cc:Work
         rdf:about="">
        <dc:format>image/svg+xml</dc:format>
        <dc:type
           rdf:resource="http://purl.org/dc/dcmitype/StillImage" />
        <dc:title></dc:title>
      </cc:Work>
    </rdf:RDF>
  </metadata>
  <g
     transform="translate(0,-875.19552)"
     id="layer1"
     inkscape:groupmode="layer"
     inkscape:label="Layer 1">
    <path
       sodipodi:nodetypes="csc"
       id="path2816"
       d="m 160.55253,1000.4171 c -34.52502,17.3 -97.195644,28.4077 -110.176611,-6.58897 -18.276347,-49.27339 54.812681,-75.99896 93.733111,-76.5421"
       style="fill:none;stroke:#000000;stroke-width:1.5;stroke-linecap:butt;stroke-linejoin:miter;stroke-miterlimit:4;stroke-opacity:1;stroke-dasharray:none" />
    <path
       sodipodi:nodetypes="cc"
       id="path3592"
       d="m 141.96426,917.00358 17.85714,83.92682"
       style="fill:none;stroke:#000000;stroke-width:1px;stroke-linecap:butt;stroke-linejoin:miter;stroke-opacity:1" />
    <path
       sodipodi:nodetypes="cc"
       style="fill:none;stroke:#000000;stroke-width:1px;stroke-linecap:butt;stroke-linejoin:miter;stroke-opacity:1"
       d="m 135.96426,917.71786 18.39285,85.71254"
       id="path3598" />
    <path
       sodipodi:nodetypes="cc"
       id="path3600"
       d="m 130.3214,918.07501 18.57143,87.49829"
       style="fill:none;stroke:#000000;stroke-width:1px;stroke-linecap:butt;stroke-linejoin:miter;stroke-opacity:1" />
    <path
       sodipodi:nodetypes="cc"
       style="fill:none;stroke:#000000;stroke-width:1px;stroke-linecap:butt;stroke-linejoin:miter;stroke-opacity:1"
       d="m 123.96426,919.32501 19.46428,88.21249"
       id="path3602" />
    <path
       sodipodi:nodetypes="cc"
       id="path3604"
       d="m 118.3214,920.39643 19.64286,88.92687"
       style="fill:none;stroke:#000000;stroke-width:1px;stroke-linecap:butt;stroke-linejoin:miter;stroke-opacity:1" />
    <path
       sodipodi:nodetypes="cc"
       style="fill:none;stroke:#000000;stroke-width:1px;stroke-linecap:butt;stroke-linejoin:miter;stroke-opacity:1"
       d="m 113.03569,921.82501 19.64285,89.28399"
       id="path3606" />
    <path
       sodipodi:nodetypes="cc"
       id="path3608"
       d="m 107.03569,923.61072 20.17857,88.74828"
       style="fill:none;stroke:#000000;stroke-width:1px;stroke-linecap:butt;stroke-linejoin:miter;stroke-opacity:1" />
    <path
       sodipodi:nodetypes="cc"
       style="fill:none;stroke:#000000;stroke-width:1px;stroke-linecap:butt;stroke-linejoin:miter;stroke-opacity:1"
       d="m 101.39284,925.39643 19.64285,88.56967"
       id="path3610" />
    <path
       sodipodi:nodetypes="cc"
       id="path3612"
       d="m 95.75,926.82501 19.64283,88.39109"
       style="fill:none;stroke:#000000;stroke-width:1px;stroke-linecap:butt;stroke-linejoin:miter;stroke-opacity:1" />
    <path
       sodipodi:nodetypes="cc"
       style="fill:none;stroke:#000000;stroke-width:1px;stroke-linecap:butt;stroke-linejoin:miter;stroke-opacity:1"
       d="M 90.285714,929.86072 109.5714,1015.9304"
       id="path3614" />
    <path
       id="path3616"
       d="M 84.642857,932.36072 103.5714,1015.9304"
       style="fill:none;stroke:#000000;stroke-width:1px;stroke-linecap:butt;stroke-linejoin:miter;stroke-opacity:1" />
    <path
       sodipodi:nodetypes="cc"
       style="fill:none;stroke:#000000;stroke-width:1px;stroke-linecap:butt;stroke-linejoin:miter;stroke-opacity:1"
       d="m 79.147933,934.8861 18.423494,81.0443"
       id="path3618" />
    <path
       sodipodi:nodetypes="cc"
       id="path3620"
       d="m 74.158086,938.1691 17.413341,77.7613"
       style="fill:none;stroke:#000000;stroke-width:1px;stroke-linecap:butt;stroke-linejoin:miter;stroke-opacity:1" />
    <path
       sodipodi:nodetypes="cc"
       style="fill:none;stroke:#000000;stroke-width:1px;stroke-linecap:butt;stroke-linejoin:miter;stroke-opacity:1"
       d="m 69.168238,941.19955 16.403189,74.73085"
       id="path3622" />
    <path
       sodipodi:nodetypes="cc"
       id="path3624"
       d="m 64.430929,945.4927 15.140498,70.4377"
       style="fill:none;stroke:#000000;stroke-width:1px;stroke-linecap:butt;stroke-linejoin:miter;stroke-opacity:1" />
    <path
       sodipodi:nodetypes="cc"
       style="fill:none;stroke:#000000;stroke-width:1px;stroke-linecap:butt;stroke-linejoin:miter;stroke-opacity:1"
       d="m 59.188543,950.29093 13.877808,63.61917"
       id="path3626" />
    <path
       sodipodi:nodetypes="cc"
       id="path3628"
       d="m 53.69362,957.362 12.11004,53.7702"
       style="fill:none;stroke:#000000;stroke-width:1px;stroke-linecap:butt;stroke-linejoin:miter;stroke-opacity:1" />
    <path
       sodipodi:nodetypes="cc"
       style="fill:none;stroke:#000000;stroke-width:1px;stroke-linecap:butt;stroke-linejoin:miter;stroke-opacity:1"
       d="m 50.219001,964.43306 9.584659,43.16354"
       id="path3630" />
    <path
       sodipodi:nodetypes="cc"
       id="path3632"
       d="M 47.843097,972.33263 53.35714,1000.502"
       style="fill:none;stroke:#000000;stroke-width:1px;stroke-linecap:butt;stroke-linejoin:miter;stroke-opacity:1" />
    <path
       sodipodi:nodetypes="ccc"
       transform="translate(0,875.19552)"
       id="path3634"
       d="m 39.642857,46.093915 22.5,26.071429 39.285713,-2.142857"
       style="fill:none;stroke:#000000;stroke-width:1px;stroke-linecap:butt;stroke-linejoin:miter;stroke-opacity:1;marker-start:url(#DotM);marker-mid:url(#DotM);marker-end:url(#DotM)" />
    <rect
       style="fill:#ffffff;fill-opacity:1;stroke:#000000;stroke-width:0;stroke-linecap:round;stroke-linejoin:round;stroke-miterlimit:4;stroke-opacity:1;stroke-dasharray:none;stroke-dashoffset:0"
       id="rect4535"
       width="10.606602"
       height="9.3439112"
       x="104.29825"
       y="968.26569" />
    <g
       id="g4481"
       ns0:preamble="/home/raghu/Desktop/Prism-JKB/sdst/package.tex"
       ns0:text="$K$"
       transform="matrix(1.2,0,0,1.2,-162.63456,815.69817)">
      <defs
         id="defs4483">
        <g
           id="g4485">
          <symbol
             id="textext-bd710639-0"
             overflow="visible"
             style="overflow:visible">
            <path
               id="path4488"
               d=""
               style="stroke:none" />
          </symbol>
          <symbol
             id="textext-bd710639-1"
             overflow="visible"
             style="overflow:visible">
            <path
               id="path4491"
               d="m 7.203125,-6.515625 -2.21875,0 0,0.171875 c 0.125,0 0.234375,0.03125 0.265625,0.03125 0.25,0.015625 0.34375,0.078125 0.34375,0.1875 0,0.234375 -0.546875,0.765625 -1.4375,1.390625 l -1.515625,1.0625 0.53125,-1.9375 c 0.140625,-0.5 0.421875,-0.703125 1,-0.734375 l 0,-0.171875 -2.71875,0 0,0.171875 c 0.625,0.046875 0.765625,0.140625 0.765625,0.421875 0,0.140625 -0.03125,0.375 -0.109375,0.625 l -1.21875,4.40625 C 0.703125,-0.296875 0.65625,-0.25 0.0625,-0.15625 l 0,0.15625 2.484375,0 0,-0.15625 c -0.640625,-0.078125 -0.71875,-0.140625 -0.71875,-0.4375 0,-0.109375 0.015625,-0.1875 0.078125,-0.390625 l 0.0625,-0.21875 0.609375,-2.265625 1.203125,2.078125 c 0.25,0.40625 0.390625,0.75 0.390625,0.9375 0,0.15625 -0.140625,0.234375 -0.46875,0.265625 -0.046875,0 -0.15625,0.015625 -0.28125,0.03125 l 0,0.15625 2.734375,0 0,-0.15625 C 5.53125,-0.21875 5.46875,-0.25 5.1875,-0.71875 l -1.734375,-3.015625 3,-2.25 c 0.28125,-0.21875 0.5,-0.328125 0.75,-0.359375 l 0,-0.171875 z m 0,0"
               style="stroke:none" />
          </symbol>
        </g>
      </defs>
      <g
         id="textext-bd710639-2">
        <g
           id="g4494"
           style="fill:#000000;fill-opacity:1">
          <use
             id="use4496"
             y="134.765"
             x="223.681"
             xlink:href="#textext-bd710639-1"
             width="212.59842"
             height="177.16534" />
        </g>
      </g>
    </g>
    <g
       id="g4823"
       transform="matrix(1.2,0,0,1.2,-221.22341,757.61441)"
       ns0:preamble="/home/raghu/Desktop/Prism-JKB/sdst/package.tex"
       ns0:text="$\\sigma f$">
      <defs
         id="defs4825">
        <g
           id="g4827">
          <symbol
             id="textext-41485eec-0"
             overflow="visible"
             style="overflow:visible">
            <path
               id="path4830"
               d=""
               style="stroke:none" />
          </symbol>
          <symbol
             id="textext-41485eec-1"
             overflow="visible"
             style="overflow:visible">
            <path
               id="path4833"
               d="m 6.734375,-4.390625 -3.640625,0 c -1.5,0 -2.84375,1.25 -2.84375,2.921875 0,1.015625 0.53125,1.578125 1.546875,1.578125 1.234375,0 2.765625,-1.1875 2.765625,-2.953125 0,-0.578125 -0.203125,-0.796875 -0.203125,-0.8125 l 2.1875,0 0.1875,-0.734375 z m -2.9375,1.546875 c 0,1.484375 -0.828125,2.703125 -1.859375,2.703125 -0.765625,0 -0.859375,-1 -0.859375,-1.296875 0,-1.921875 1.03125,-2.6875 1.765625,-2.6875 0.359375,0 0.953125,0.09375 0.953125,1.28125 z m 0,0"
               style="stroke:none" />
          </symbol>
          <symbol
             id="textext-41485eec-2"
             overflow="visible"
             style="overflow:visible">
            <path
               id="path4836"
               d=""
               style="stroke:none" />
          </symbol>
          <symbol
             id="textext-41485eec-3"
             overflow="visible"
             style="overflow:visible">
            <path
               id="path4839"
               d="m 0.34375,-3.953125 0.90625,0 -0.875,4.1875 c -0.21875,1.078125 -0.546875,1.625 -0.96875,1.625 -0.125,0 -0.203125,-0.078125 -0.203125,-0.171875 0,-0.015625 0.015625,-0.046875 0.046875,-0.109375 0.03125,-0.046875 0.046875,-0.09375 0.046875,-0.15625 0,-0.203125 -0.1875,-0.375 -0.390625,-0.375 -0.21875,0 -0.375,0.171875 -0.375,0.40625 0,0.34375 0.359375,0.609375 0.796875,0.609375 0.875,0 1.578125,-0.984375 1.984375,-2.8125 l 0.71875,-3.203125 1.09375,0 0.0625,-0.3125 -1.078125,0 c 0.28125,-1.5625 0.65625,-2.28125 1.203125,-2.28125 0.140625,0 0.21875,0.0625 0.21875,0.125 0,0.03125 0,0.046875 -0.03125,0.109375 -0.046875,0.078125 -0.0625,0.125 -0.0625,0.203125 0,0.234375 0.15625,0.390625 0.375,0.390625 0.21875,0 0.421875,-0.171875 0.421875,-0.390625 0,-0.375 -0.375,-0.65625 -0.859375,-0.65625 -0.5,0 -0.875,0.21875 -1.234375,0.6875 -0.3125,0.390625 -0.5,0.859375 -0.8125,1.8125 l -0.90625,0 -0.078125,0.3125 z m 0,0"
               style="stroke:none" />
          </symbol>
        </g>
      </defs>
      <g
         id="textext-41485eec-4">
        <g
           id="g4842"
           style="fill:#000000;fill-opacity:1">
          <use
             id="use4844"
             y="134.765"
             x="223.43201"
             xlink:href="#textext-41485eec-1"
             width="212.59842"
             height="177.16534" />
        </g>
        <g
           id="g4846"
           style="fill:#000000;fill-opacity:1">
          <use
             id="use4848"
             y="134.765"
             x="231.69099"
             xlink:href="#textext-41485eec-3"
             width="212.59842"
             height="177.16534" />
        </g>
      </g>
    </g>
    <g
       ns0:text="$u$"
       ns0:preamble="/home/raghu/Desktop/Prism-JKB/sdst/package.tex"
       transform="matrix(1.2,0,0,1.2,-208.5965,778.46467)"
       id="g5012">
      <defs
         id="defs5014">
        <g
           id="g5016">
          <symbol
             style="overflow:visible"
             overflow="visible"
             id="textext-debb8e21-0">
            <path
               style="stroke:none"
               d=""
               id="path5019" />
          </symbol>
          <symbol
             style="overflow:visible"
             overflow="visible"
             id="textext-debb8e21-1">
            <path
               style="stroke:none"
               d="M 4.59375,-1.171875 C 4.078125,-0.515625 3.921875,-0.375 3.765625,-0.375 c -0.0625,0 -0.109375,-0.0625 -0.109375,-0.171875 0,-0.0625 0,-0.0625 0.1875,-0.78125 l 0.796875,-2.984375 -0.75,0 c -0.5625,1.546875 -0.625,1.703125 -1.09375,2.4375 -0.59375,0.953125 -1.078125,1.453125 -1.40625,1.453125 -0.109375,0 -0.203125,-0.09375 -0.203125,-0.25 0,-0.03125 0,-0.0625 0.015625,-0.078125 l 0.90625,-3.625 -0.03125,-0.015625 c -0.578125,0.125 -0.9375,0.1875 -1.5,0.265625 l 0,0.140625 c 0.375,0 0.40625,0 0.484375,0.0625 C 1.125,-3.90625 1.171875,-3.8125 1.171875,-3.75 c 0,0.078125 -0.046875,0.328125 -0.140625,0.671875 l -0.359375,1.40625 c -0.1875,0.71875 -0.25,1.046875 -0.25,1.234375 0,0.359375 0.171875,0.546875 0.53125,0.546875 0.703125,0 1.234375,-0.53125 2.375,-2.46875 C 3.046875,-1.28125 2.875,-0.59375 2.875,-0.390625 c 0,0.296875 0.1875,0.484375 0.484375,0.484375 0.46875,0 0.703125,-0.203125 1.375,-1.171875 L 4.59375,-1.171875 z m 0,0"
               id="path5022" />
          </symbol>
        </g>
      </defs>
      <g
         id="textext-debb8e21-2">
        <g
           style="fill:#000000;fill-opacity:1"
           id="g5025">
          <use
             height="177.16534"
             width="212.59842"
             xlink:href="#textext-debb8e21-1"
             x="223.43201"
             y="134.765"
             id="use5027" />
        </g>
      </g>
    </g>
    <g
       id="g5199"
       transform="matrix(1.2,0,0,1.2,-167.05678,791.61474)"
       ns0:preamble="/home/raghu/Desktop/Prism-JKB/sdst/package.tex"
       ns0:text="$v$">
      <defs
         id="defs5201">
        <g
           id="g5203">
          <symbol
             id="textext-caf80336-0"
             overflow="visible"
             style="overflow:visible">
            <path
               id="path5206"
               d=""
               style="stroke:none" />
          </symbol>
          <symbol
             id="textext-caf80336-1"
             overflow="visible"
             style="overflow:visible">
            <path
               id="path5209"
               d="M 0.203125,-4.015625 C 0.3125,-4.03125 0.40625,-4.03125 0.515625,-4.03125 c 0.375,0 0.484375,0.171875 0.625,1.09375 0.09375,0.6875 0.21875,2.1875 0.21875,2.765625 0,0.28125 0.015625,0.34375 0.09375,0.34375 0.234375,0 1.171875,-1.046875 2.1875,-2.46875 C 3.984375,-2.796875 4.25,-3.4375 4.25,-3.8125 c 0,-0.3125 -0.265625,-0.578125 -0.5625,-0.578125 -0.21875,0 -0.375,0.125 -0.375,0.328125 0,0.171875 0.0625,0.28125 0.25,0.4375 0.125,0.125 0.171875,0.203125 0.171875,0.3125 0,0.453125 -0.65625,1.5625 -1.359375,2.296875 l -0.3125,0.3125 C 2,-2.109375 1.9375,-2.625 1.796875,-3.359375 c -0.1875,-1.015625 -0.1875,-1.03125 -0.28125,-1.03125 -0.046875,0 -0.125,0 -0.203125,0.03125 -0.171875,0.046875 -0.71875,0.15625 -1.109375,0.21875 l 0,0.125 z m 0,0"
               style="stroke:none" />
          </symbol>
        </g>
      </defs>
      <g
         id="textext-caf80336-2">
        <g
           id="g5212"
           style="fill:#000000;fill-opacity:1">
          <use
             id="use5214"
             y="134.765"
             x="223.43201"
             xlink:href="#textext-caf80336-1"
             width="212.59842"
             height="177.16534" />
        </g>
      </g>
    </g>
  </g>
</svg>
