<?xml version="1.0" encoding="UTF-8" standalone="no"?>
<!-- Created with Inkscape (http://www.inkscape.org/) -->

<svg
   xmlns:ns0="http://www.iki.fi/pav/software/textext/"
   xmlns:dc="http://purl.org/dc/elements/1.1/"
   xmlns:cc="http://creativecommons.org/ns#"
   xmlns:rdf="http://www.w3.org/1999/02/22-rdf-syntax-ns#"
   xmlns:svg="http://www.w3.org/2000/svg"
   xmlns="http://www.w3.org/2000/svg"
   xmlns:xlink="http://www.w3.org/1999/xlink"
   xmlns:sodipodi="http://sodipodi.sourceforge.net/DTD/sodipodi-0.dtd"
   xmlns:inkscape="http://www.inkscape.org/namespaces/inkscape"
   width="265.74802"
   height="194.88188"
   id="svg2"
   version="1.1"
   inkscape:version="0.48.0 r9654"
   sodipodi:docname="fig1.2.svg">
  <sodipodi:namedview
     id="base"
     pagecolor="#ffffff"
     bordercolor="#666666"
     borderopacity="1.0"
     inkscape:pageopacity="0.0"
     inkscape:pageshadow="2"
     inkscape:zoom="5.6"
     inkscape:cx="68.11513"
     inkscape:cy="89.342488"
     inkscape:document-units="px"
     inkscape:current-layer="layer1"
     showgrid="false"
     units="cm"
     inkscape:window-width="1024"
     inkscape:window-height="693"
     inkscape:window-x="0"
     inkscape:window-y="25"
     inkscape:window-maximized="1"
     showguides="true"
     inkscape:guide-bbox="true" />
  <defs
     id="defs4">
    <inkscape:perspective
       id="perspective10"
       inkscape:persp3d-origin="372.04724 : 350.78739 : 1"
       inkscape:vp_z="744.09448 : 526.18109 : 1"
       inkscape:vp_y="0 : 1000 : 0"
       inkscape:vp_x="0 : 526.18109 : 1"
       sodipodi:type="inkscape:persp3d" />
  </defs>
  <metadata
     id="metadata7">
    <rdf:RDF>
      <cc:Work
         rdf:about="">
        <dc:format>image/svg+xml</dc:format>
        <dc:type
           rdf:resource="http://purl.org/dc/dcmitype/StillImage" />
        <dc:title />
      </cc:Work>
    </rdf:RDF>
  </metadata>
  <g
     transform="translate(0,-857.47897)"
     id="layer1"
     inkscape:groupmode="layer"
     inkscape:label="Layer 1">
    <path
       sodipodi:nodetypes="ccc"
       id="path2816"
       d="M 168.04564,858.56213 15.010153,970.03343 254.16377,1051.6032"
       style="fill:none;stroke:#000000;stroke-width:1.5;stroke-linecap:butt;stroke-linejoin:miter;stroke-miterlimit:4;stroke-opacity:1;stroke-dasharray:none" />
    <path
       sodipodi:nodetypes="ccccc"
       id="path2818"
       d="M 15.767767,969.78088 56.909141,950.99109 134.4607,964.22504 88.498749,985.69078 15.767767,969.78088 z"
       style="fill:none;stroke:#000000;stroke-width:1.5;stroke-linecap:butt;stroke-linejoin:miter;stroke-miterlimit:4;stroke-opacity:1;stroke-dasharray:none" />
    <path
       sodipodi:nodetypes="cc"
       id="path3592"
       d="m 167.57143,858.07514 86.94416,193.65806"
       style="fill:none;stroke:#000000;stroke-width:1px;stroke-linecap:butt;stroke-linejoin:miter;stroke-opacity:1" />
    <path
       style="fill:none;stroke:#000000;stroke-width:1px;stroke-linecap:butt;stroke-linejoin:miter;stroke-opacity:1"
       d="m 161.71429,862.718 82.52846,185.2271"
       id="path3594"
       sodipodi:nodetypes="cc" />
    <path
       sodipodi:nodetypes="cc"
       id="path3596"
       d="m 155.94643,867.36085 78.27601,177.04875"
       style="fill:none;stroke:#000000;stroke-width:1px;stroke-linecap:butt;stroke-linejoin:miter;stroke-opacity:1" />
    <path
       style="fill:none;stroke:#000000;stroke-width:1px;stroke-linecap:butt;stroke-linejoin:miter;stroke-opacity:1"
       d="m 149.46429,871.64657 76.00054,169.98513"
       id="path3598"
       sodipodi:nodetypes="cc" />
    <path
       sodipodi:nodetypes="cc"
       id="path3600"
       d="M 143.78572,876.02157 215.9496,1038.0961"
       style="fill:none;stroke:#000000;stroke-width:1px;stroke-linecap:butt;stroke-linejoin:miter;stroke-opacity:1" />
    <path
       style="fill:none;stroke:#000000;stroke-width:1px;stroke-linecap:butt;stroke-linejoin:miter;stroke-opacity:1"
       d="m 137.83929,880.30728 68.59508,154.75842"
       id="path3602"
       sodipodi:nodetypes="cc" />
    <path
       sodipodi:nodetypes="cc"
       id="path3604"
       d="m 131.89286,884.86085 65.02628,146.92185"
       style="fill:none;stroke:#000000;stroke-width:1px;stroke-linecap:butt;stroke-linejoin:miter;stroke-opacity:1" />
    <path
       style="fill:none;stroke:#000000;stroke-width:1px;stroke-linecap:butt;stroke-linejoin:miter;stroke-opacity:1"
       d="m 125.76786,888.968 61.38351,139.2792"
       id="path3606"
       sodipodi:nodetypes="cc" />
    <path
       sodipodi:nodetypes="cc"
       id="path3608"
       d="m 119.46429,893.87871 58.42439,131.33799"
       style="fill:none;stroke:#000000;stroke-width:1px;stroke-linecap:butt;stroke-linejoin:miter;stroke-opacity:1" />
    <path
       style="fill:none;stroke:#000000;stroke-width:1px;stroke-linecap:butt;stroke-linejoin:miter;stroke-opacity:1"
       d="m 113.42857,897.718 54.43981,124.2157"
       id="path3610"
       sodipodi:nodetypes="cc" />
    <path
       sodipodi:nodetypes="cc"
       id="path3612"
       d="m 107.92857,902.18228 50.42458,116.46842"
       style="fill:none;stroke:#000000;stroke-width:1px;stroke-linecap:butt;stroke-linejoin:miter;stroke-opacity:1" />
    <path
       style="fill:none;stroke:#000000;stroke-width:1px;stroke-linecap:butt;stroke-linejoin:miter;stroke-opacity:1"
       d="m 101.71429,907.00371 47.37617,108.61649"
       id="path3614"
       sodipodi:nodetypes="cc" />
    <path
       sodipodi:nodetypes="cc"
       id="path3616"
       d="M 95.500001,911.28943 139.82777,1012.3373"
       style="fill:none;stroke:#000000;stroke-width:1px;stroke-linecap:butt;stroke-linejoin:miter;stroke-opacity:1" />
    <path
       style="fill:none;stroke:#000000;stroke-width:1px;stroke-linecap:butt;stroke-linejoin:miter;stroke-opacity:1"
       d="m 89.464287,915.75371 41.353333,93.04799"
       id="path3618"
       sodipodi:nodetypes="cc" />
    <path
       sodipodi:nodetypes="cc"
       id="path3620"
       d="m 83.07143,920.03943 38.23096,86.23687"
       style="fill:none;stroke:#000000;stroke-width:1px;stroke-linecap:butt;stroke-linejoin:miter;stroke-opacity:1" />
    <path
       style="fill:none;stroke:#000000;stroke-width:1px;stroke-linecap:butt;stroke-linejoin:miter;stroke-opacity:1"
       d="m 77.214287,924.68228 35.583023,78.56362"
       id="path3622"
       sodipodi:nodetypes="cc" />
    <path
       sodipodi:nodetypes="cc"
       id="path3624"
       d="m 70.642859,928.968 31.123991,70.48981"
       style="fill:none;stroke:#000000;stroke-width:1px;stroke-linecap:butt;stroke-linejoin:miter;stroke-opacity:1" />
    <path
       style="fill:none;stroke:#000000;stroke-width:1px;stroke-linecap:butt;stroke-linejoin:miter;stroke-opacity:1"
       d="m 64.964287,933.25371 27.034799,62.66856"
       id="path3626"
       sodipodi:nodetypes="cc" />
    <path
       sodipodi:nodetypes="cc"
       id="path3628"
       d="m 59.431845,937.62465 22.799474,55.26716"
       style="fill:none;stroke:#000000;stroke-width:1px;stroke-linecap:butt;stroke-linejoin:miter;stroke-opacity:1" />
    <path
       style="fill:none;stroke:#000000;stroke-width:1px;stroke-linecap:butt;stroke-linejoin:miter;stroke-opacity:1"
       d="m 52.947074,942.17034 20.274092,47.69102"
       id="path3630"
       sodipodi:nodetypes="cc" />
    <path
       sodipodi:nodetypes="cc"
       id="path3632"
       d="m 46.967379,945.95841 16.991096,40.61995"
       style="fill:none;stroke:#000000;stroke-width:1px;stroke-linecap:butt;stroke-linejoin:miter;stroke-opacity:1" />
    <path
       style="fill:none;stroke:#000000;stroke-width:1px;stroke-linecap:butt;stroke-linejoin:miter;stroke-opacity:1"
       d="m 41.240223,950.5041 12.950486,32.53873"
       id="path3634"
       sodipodi:nodetypes="cc" />
    <path
       sodipodi:nodetypes="cc"
       id="path3636"
       d="m 35.260528,954.54471 10.425104,25.97274"
       style="fill:none;stroke:#000000;stroke-width:1px;stroke-linecap:butt;stroke-linejoin:miter;stroke-opacity:1" />
    <path
       style="fill:none;stroke:#000000;stroke-width:1px;stroke-linecap:butt;stroke-linejoin:miter;stroke-opacity:1"
       d="m 29.028295,959.09039 8.152261,18.3966"
       id="path3638"
       sodipodi:nodetypes="cc" />
    <path
       sodipodi:nodetypes="cc"
       id="path3640"
       d="m 24.058752,963.38354 5.62688,11.57807"
       style="fill:none;stroke:#000000;stroke-width:1px;stroke-linecap:butt;stroke-linejoin:miter;stroke-opacity:1" />
    <path
       style="fill:none;stroke:#000000;stroke-width:1px;stroke-linecap:butt;stroke-linejoin:miter;stroke-opacity:1"
       d="m 19.826519,966.414 2.848961,6.02223"
       id="path3642"
       sodipodi:nodetypes="cc" />
    <g
       id="g3680"
       ns0:preamble="/home/raghu/Desktop/Prism-JKB/sdst/package.tex"
       ns0:text="$K$"
       transform="matrix(1.2,0,0,1.2,-65.714286,759.28572)">
      <defs
         id="defs3682">
        <g
           id="g3684">
          <symbol
             id="textext-bd710639-0"
             overflow="visible"
             style="overflow:visible">
            <path
               id="path3687"
               d=""
               style="stroke:none" />
          </symbol>
          <symbol
             id="textext-bd710639-1"
             overflow="visible"
             style="overflow:visible">
            <path
               id="path3690"
               d="m 7.203125,-6.515625 -2.21875,0 0,0.171875 c 0.125,0 0.234375,0.03125 0.265625,0.03125 0.25,0.015625 0.34375,0.078125 0.34375,0.1875 0,0.234375 -0.546875,0.765625 -1.4375,1.390625 l -1.515625,1.0625 0.53125,-1.9375 c 0.140625,-0.5 0.421875,-0.703125 1,-0.734375 l 0,-0.171875 -2.71875,0 0,0.171875 c 0.625,0.046875 0.765625,0.140625 0.765625,0.421875 0,0.140625 -0.03125,0.375 -0.109375,0.625 l -1.21875,4.40625 C 0.703125,-0.296875 0.65625,-0.25 0.0625,-0.15625 l 0,0.15625 2.484375,0 0,-0.15625 c -0.640625,-0.078125 -0.71875,-0.140625 -0.71875,-0.4375 0,-0.109375 0.015625,-0.1875 0.078125,-0.390625 l 0.0625,-0.21875 0.609375,-2.265625 1.203125,2.078125 c 0.25,0.40625 0.390625,0.75 0.390625,0.9375 0,0.15625 -0.140625,0.234375 -0.46875,0.265625 -0.046875,0 -0.15625,0.015625 -0.28125,0.03125 l 0,0.15625 2.734375,0 0,-0.15625 C 5.53125,-0.21875 5.46875,-0.25 5.1875,-0.71875 l -1.734375,-3.015625 3,-2.25 c 0.28125,-0.21875 0.5,-0.328125 0.75,-0.359375 l 0,-0.171875 z m 0,0"
               style="stroke:none" />
          </symbol>
        </g>
      </defs>
      <g
         id="textext-bd710639-2">
        <g
           id="g3693"
           style="fill:#000000;fill-opacity:1">
          <use
             id="use3695"
             y="134.765"
             x="223.681"
             xlink:href="#textext-bd710639-1"
             width="248.03149"
             height="194.88188" />
        </g>
      </g>
    </g>
    <g
       id="g4389"
       transform="matrix(1.2,0,0,1.2,-267.14286,813.85715)"
       ns0:preamble="/home/raghu/Desktop/Prism-JKB/sdst/package.tex"
       ns0:text="$O$">
      <defs
         id="defs4391">
        <g
           id="g4393">
          <symbol
             id="textext-3351f54f-0"
             overflow="visible"
             style="overflow:visible">
            <path
               id="path4396"
               d=""
               style="stroke:none" />
          </symbol>
          <symbol
             id="textext-3351f54f-1"
             overflow="visible"
             style="overflow:visible">
            <path
               id="path4399"
               d="m 4.71875,-6.640625 c -0.828125,0 -1.734375,0.40625 -2.53125,1.125 -1,0.9375 -1.59375,2.140625 -1.59375,3.3125 0,1.390625 0.90625,2.375 2.171875,2.375 2.078125,0 4.09375,-2.078125 4.203125,-4.34375 0.0625,-1.40625 -0.90625,-2.46875 -2.25,-2.46875 z M 4.640625,-6.3125 c 0.78125,0 1.28125,0.578125 1.28125,1.515625 0,1.078125 -0.46875,2.53125 -1.109375,3.46875 -0.5625,0.796875 -1.171875,1.171875 -1.875,1.171875 -0.828125,0 -1.296875,-0.59375 -1.296875,-1.671875 0,-0.9375 0.5,-2.421875 1.09375,-3.296875 0.5625,-0.8125 1.171875,-1.1875 1.90625,-1.1875 z m 0,0"
               style="stroke:none" />
          </symbol>
        </g>
      </defs>
      <g
         id="textext-3351f54f-2">
        <g
           id="g4402"
           style="fill:#000000;fill-opacity:1">
          <use
             id="use4404"
             y="134.765"
             x="223.43201"
             xlink:href="#textext-3351f54f-1"
             width="248.03149"
             height="194.88188" />
        </g>
      </g>
    </g>
    <g
       id="g4500"
       transform="translate(-144.19927,90.91373)">
      <rect
         ry="0.78612578"
         y="865.53833"
         x="284.66614"
         height="17.81885"
         width="31.45591"
         id="rect4498"
         style="fill:#ffffff;fill-opacity:1;fill-rule:nonzero;stroke:#000000;stroke-width:0;stroke-linecap:round;stroke-linejoin:round;stroke-miterlimit:4;stroke-opacity:1;stroke-dasharray:none;stroke-dashoffset:0" />
      <g
         id="g3803"
         transform="matrix(1.2,0,0,1.2,19.448876,715.41572)"
         ns0:preamble="/home/raghu/Desktop/Prism-JKB/sdst/package.tex"
         ns0:text="$u+v$">
        <defs
           id="defs3805">
          <g
             id="g3807">
            <symbol
               style="overflow:visible"
               id="textext-98bc527b-0"
               overflow="visible">
              <path
                 id="path3810"
                 d=""
                 style="stroke:none" />
            </symbol>
            <symbol
               style="overflow:visible"
               id="textext-98bc527b-1"
               overflow="visible">
              <path
                 id="path3813"
                 d="M 4.59375,-1.171875 C 4.078125,-0.515625 3.921875,-0.375 3.765625,-0.375 c -0.0625,0 -0.109375,-0.0625 -0.109375,-0.171875 0,-0.0625 0,-0.0625 0.1875,-0.78125 l 0.796875,-2.984375 -0.75,0 c -0.5625,1.546875 -0.625,1.703125 -1.09375,2.4375 -0.59375,0.953125 -1.078125,1.453125 -1.40625,1.453125 -0.109375,0 -0.203125,-0.09375 -0.203125,-0.25 0,-0.03125 0,-0.0625 0.015625,-0.078125 l 0.90625,-3.625 -0.03125,-0.015625 c -0.578125,0.125 -0.9375,0.1875 -1.5,0.265625 l 0,0.140625 c 0.375,0 0.40625,0 0.484375,0.0625 C 1.125,-3.90625 1.171875,-3.8125 1.171875,-3.75 c 0,0.078125 -0.046875,0.328125 -0.140625,0.671875 l -0.359375,1.40625 c -0.1875,0.71875 -0.25,1.046875 -0.25,1.234375 0,0.359375 0.171875,0.546875 0.53125,0.546875 0.703125,0 1.234375,-0.53125 2.375,-2.46875 C 3.046875,-1.28125 2.875,-0.59375 2.875,-0.390625 c 0,0.296875 0.1875,0.484375 0.484375,0.484375 0.46875,0 0.703125,-0.203125 1.375,-1.171875 L 4.59375,-1.171875 z m 0,0"
                 style="stroke:none" />
            </symbol>
            <symbol
               style="overflow:visible"
               id="textext-98bc527b-2"
               overflow="visible">
              <path
                 id="path3816"
                 d="M 0.203125,-4.015625 C 0.3125,-4.03125 0.40625,-4.03125 0.515625,-4.03125 c 0.375,0 0.484375,0.171875 0.625,1.09375 0.09375,0.6875 0.21875,2.1875 0.21875,2.765625 0,0.28125 0.015625,0.34375 0.09375,0.34375 0.234375,0 1.171875,-1.046875 2.1875,-2.46875 C 3.984375,-2.796875 4.25,-3.4375 4.25,-3.8125 c 0,-0.3125 -0.265625,-0.578125 -0.5625,-0.578125 -0.21875,0 -0.375,0.125 -0.375,0.328125 0,0.171875 0.0625,0.28125 0.25,0.4375 0.125,0.125 0.171875,0.203125 0.171875,0.3125 0,0.453125 -0.65625,1.5625 -1.359375,2.296875 l -0.3125,0.3125 C 2,-2.109375 1.9375,-2.625 1.796875,-3.359375 c -0.1875,-1.015625 -0.1875,-1.03125 -0.28125,-1.03125 -0.046875,0 -0.125,0 -0.203125,0.03125 -0.171875,0.046875 -0.71875,0.15625 -1.109375,0.21875 l 0,0.125 z m 0,0"
                 style="stroke:none" />
            </symbol>
            <symbol
               style="overflow:visible"
               id="textext-98bc527b-3"
               overflow="visible">
              <path
                 id="path3819"
                 d=""
                 style="stroke:none" />
            </symbol>
            <symbol
               style="overflow:visible"
               id="textext-98bc527b-4"
               overflow="visible">
              <path
                 id="path3822"
                 d="m 5.71875,-2.28125 0,-0.5625 -2.265625,0 0,-2.25 -0.5625,0 0,2.25 -2.265625,0 0,0.5625 2.265625,0 0,2.28125 0.5625,0 0,-2.28125 2.265625,0 z m 0,0"
                 style="stroke:none" />
            </symbol>
          </g>
        </defs>
        <g
           id="textext-98bc527b-5">
          <g
             id="g3825"
             style="fill:#000000;fill-opacity:1">
            <use
               height="194.88188"
               width="248.03149"
               id="use3827"
               y="134.765"
               x="223.43201"
               xlink:href="#textext-98bc527b-1" />
          </g>
          <g
             id="g3829"
             style="fill:#000000;fill-opacity:1">
            <use
               height="194.88188"
               width="248.03149"
               id="use3831"
               y="134.765"
               x="230.627"
               xlink:href="#textext-98bc527b-4" />
          </g>
          <g
             id="g3833"
             style="fill:#000000;fill-opacity:1">
            <use
               height="194.88188"
               width="248.03149"
               id="use3835"
               y="134.765"
               x="239.177"
               xlink:href="#textext-98bc527b-2" />
          </g>
        </g>
      </g>
    </g>
    <g
       id="g4525"
       transform="translate(-223.21428,27.5)">
      <rect
         ry="0.80174345"
         y="913.88965"
         x="281.12991"
         height="8.2417669"
         width="9.4226055"
         id="rect4523"
         style="fill:#ffffff;fill-opacity:1;fill-rule:nonzero;stroke:#000000;stroke-width:0;stroke-linecap:round;stroke-linejoin:round;stroke-miterlimit:4;stroke-opacity:1;stroke-dasharray:none;stroke-dashoffset:0" />
      <g
         ns0:text="$u$"
         ns0:preamble="/home/raghu/Desktop/Prism-JKB/sdst/package.tex"
         transform="matrix(1.2,0,0,1.2,14.519674,758.80373)"
         id="g4003">
        <defs
           id="defs4005">
          <g
             id="g4007">
            <symbol
               style="overflow:visible"
               overflow="visible"
               id="textext-debb8e21-0">
              <path
                 style="stroke:none"
                 d=""
                 id="path4010" />
            </symbol>
            <symbol
               style="overflow:visible"
               overflow="visible"
               id="textext-debb8e21-1">
              <path
                 style="stroke:none"
                 d="M 4.59375,-1.171875 C 4.078125,-0.515625 3.921875,-0.375 3.765625,-0.375 c -0.0625,0 -0.109375,-0.0625 -0.109375,-0.171875 0,-0.0625 0,-0.0625 0.1875,-0.78125 l 0.796875,-2.984375 -0.75,0 c -0.5625,1.546875 -0.625,1.703125 -1.09375,2.4375 -0.59375,0.953125 -1.078125,1.453125 -1.40625,1.453125 -0.109375,0 -0.203125,-0.09375 -0.203125,-0.25 0,-0.03125 0,-0.0625 0.015625,-0.078125 l 0.90625,-3.625 -0.03125,-0.015625 c -0.578125,0.125 -0.9375,0.1875 -1.5,0.265625 l 0,0.140625 c 0.375,0 0.40625,0 0.484375,0.0625 C 1.125,-3.90625 1.171875,-3.8125 1.171875,-3.75 c 0,0.078125 -0.046875,0.328125 -0.140625,0.671875 l -0.359375,1.40625 c -0.1875,0.71875 -0.25,1.046875 -0.25,1.234375 0,0.359375 0.171875,0.546875 0.53125,0.546875 0.703125,0 1.234375,-0.53125 2.375,-2.46875 C 3.046875,-1.28125 2.875,-0.59375 2.875,-0.390625 c 0,0.296875 0.1875,0.484375 0.484375,0.484375 0.46875,0 0.703125,-0.203125 1.375,-1.171875 L 4.59375,-1.171875 z m 0,0"
                 id="path4013" />
            </symbol>
          </g>
        </defs>
        <g
           id="textext-debb8e21-2">
          <g
             style="fill:#000000;fill-opacity:1"
             id="g4016">
            <use
               height="194.88188"
               width="248.03149"
               xlink:href="#textext-debb8e21-1"
               x="223.43201"
               y="134.765"
               id="use4018" />
          </g>
        </g>
      </g>
    </g>
    <g
       id="g4540"
       transform="translate(-187.14286,56.785714)">
      <rect
         ry="0.69671941"
         y="929.33887"
         x="276.43024"
         height="7.9004517"
         width="8.7843361"
         id="rect4538"
         style="fill:#ffffff;fill-opacity:1;fill-rule:nonzero;stroke:#000000;stroke-width:0;stroke-linecap:round;stroke-linejoin:round;stroke-miterlimit:4;stroke-opacity:1;stroke-dasharray:none;stroke-dashoffset:0" />
      <g
         id="g4186"
         transform="matrix(1.2,0,0,1.2,9.6628019,774.15301)"
         ns0:preamble="/home/raghu/Desktop/Prism-JKB/sdst/package.tex"
         ns0:text="$v$">
        <defs
           id="defs4188">
          <g
             id="g4190">
            <symbol
               style="overflow:visible"
               id="textext-caf80336-0"
               overflow="visible">
              <path
                 id="path4193"
                 d=""
                 style="stroke:none" />
            </symbol>
            <symbol
               style="overflow:visible"
               id="textext-caf80336-1"
               overflow="visible">
              <path
                 id="path4196"
                 d="M 0.203125,-4.015625 C 0.3125,-4.03125 0.40625,-4.03125 0.515625,-4.03125 c 0.375,0 0.484375,0.171875 0.625,1.09375 0.09375,0.6875 0.21875,2.1875 0.21875,2.765625 0,0.28125 0.015625,0.34375 0.09375,0.34375 0.234375,0 1.171875,-1.046875 2.1875,-2.46875 C 3.984375,-2.796875 4.25,-3.4375 4.25,-3.8125 c 0,-0.3125 -0.265625,-0.578125 -0.5625,-0.578125 -0.21875,0 -0.375,0.125 -0.375,0.328125 0,0.171875 0.0625,0.28125 0.25,0.4375 0.125,0.125 0.171875,0.203125 0.171875,0.3125 0,0.453125 -0.65625,1.5625 -1.359375,2.296875 l -0.3125,0.3125 C 2,-2.109375 1.9375,-2.625 1.796875,-3.359375 c -0.1875,-1.015625 -0.1875,-1.03125 -0.28125,-1.03125 -0.046875,0 -0.125,0 -0.203125,0.03125 -0.171875,0.046875 -0.71875,0.15625 -1.109375,0.21875 l 0,0.125 z m 0,0"
                 style="stroke:none" />
            </symbol>
          </g>
        </defs>
        <g
           id="textext-caf80336-2">
          <g
             id="g4199"
             style="fill:#000000;fill-opacity:1">
            <use
               height="194.88188"
               width="248.03149"
               id="use4201"
               y="134.765"
               x="223.43201"
               xlink:href="#textext-caf80336-1" />
          </g>
        </g>
      </g>
    </g>
    <path
       style="fill:none;stroke:#000000;stroke-width:1.5;stroke-linecap:butt;stroke-linejoin:miter;stroke-opacity:1;stroke-miterlimit:4;stroke-dasharray:none"
       d="M 17.142857,112.20331 133.57143,106.84617"
       id="path3077"
       inkscape:connector-curvature="0"
       transform="translate(0,857.47897)" />
  </g>
</svg>
