<?xml version="1.0" encoding="UTF-8" standalone="no"?>
<!-- Created with Inkscape (http://www.inkscape.org/) -->

<svg
   xmlns:dc="http://purl.org/dc/elements/1.1/"
   xmlns:cc="http://creativecommons.org/ns#"
   xmlns:rdf="http://www.w3.org/1999/02/22-rdf-syntax-ns#"
   xmlns:svg="http://www.w3.org/2000/svg"
   xmlns="http://www.w3.org/2000/svg"
   xmlns:sodipodi="http://sodipodi.sourceforge.net/DTD/sodipodi-0.dtd"
   xmlns:inkscape="http://www.inkscape.org/namespaces/inkscape"
   id="svg2"
   version="1.1"
   inkscape:version="0.47pre4 r22446"
   width="743.75"
   height="1052.5"
   xml:space="preserve"
   sodipodi:docname="fig11.2.eps"><metadata
     id="metadata8"><rdf:RDF><cc:Work
         rdf:about=""><dc:format>image/svg+xml</dc:format><dc:type
           rdf:resource="http://purl.org/dc/dcmitype/StillImage" /><dc:title></dc:title></cc:Work></rdf:RDF></metadata><defs
     id="defs6"><inkscape:perspective
       sodipodi:type="inkscape:persp3d"
       inkscape:vp_x="0 : 0.5 : 1"
       inkscape:vp_y="0 : 1000 : 0"
       inkscape:vp_z="1 : 0.5 : 1"
       inkscape:persp3d-origin="0.5 : 0.33333333 : 1"
       id="perspective10" /></defs><sodipodi:namedview
     pagecolor="#ffffff"
     bordercolor="#666666"
     borderopacity="1"
     objecttolerance="10"
     gridtolerance="10"
     guidetolerance="10"
     inkscape:pageopacity="0"
     inkscape:pageshadow="2"
     inkscape:window-width="1024"
     inkscape:window-height="685"
     id="namedview4"
     showgrid="false"
     inkscape:zoom="1.2684253"
     inkscape:cx="174.80898"
     inkscape:cy="167.759"
     inkscape:window-x="0"
     inkscape:window-y="30"
     inkscape:window-maximized="1"
     inkscape:current-layer="g12" /><g
     id="g12"
     inkscape:groupmode="layer"
     inkscape:label="ink_ext_XXXXXX"
     transform="matrix(1.25,0,0,-1.25,0,1052.5)"><g
       id="g14"
       transform="scale(0.1,0.1)"><path
         d="m 189.531,183.09 1232.77,0 0,877.18 -1232.77,0 0,-877.18 z"
         style="fill:none;stroke:#000000;stroke-opacity:1;stroke-width:10;stroke-linecap:round;stroke-linejoin:miter;stroke-miterlimit:4;stroke-dasharray:none"
         id="path16" /><path
         d="m 206.52,1064.77 c 0,-9.46 -7.649,-17.11 -17.11,-17.11 -9.488,0 -17.14,7.65 -17.14,17.11 0,9.45 7.652,17.15 17.14,17.15 9.461,0 17.11,-7.7 17.11,-17.15 z"
         style="fill:#000000;fill-opacity:1;fill-rule:nonzero;stroke:none"
         id="path18" /><path
         d="m 206.52,1064.77 c 0,-9.46 -7.649,-17.11 -17.11,-17.11 -9.488,0 -17.14,7.65 -17.14,17.11 0,9.45 7.652,17.15 17.14,17.15 9.461,0 17.11,-7.7 17.11,-17.15 z"
         style="fill:none;stroke:#000000;stroke-opacity:1;stroke-width:12.1108;stroke-linecap:round;stroke-linejoin:miter;stroke-miterlimit:4;stroke-dasharray:none"
         id="path20" /><path
         d="m 206.52,184.922 c 0,-9.453 -7.649,-17.113 -17.11,-17.113 -9.488,0 -17.14,7.66 -17.14,17.113 0,9.5 7.652,17.148 17.14,17.148 9.461,0 17.11,-7.648 17.11,-17.148 z"
         style="fill:#000000;fill-opacity:1;fill-rule:nonzero;stroke:none"
         id="path22" /><path
         d="m 206.52,184.922 c 0,-9.449 -7.649,-17.11 -17.11,-17.11 -9.488,0 -17.14,7.661 -17.14,17.11 0,9.5 7.652,17.148 17.14,17.148 9.461,0 17.11,-7.648 17.11,-17.148 z"
         style="fill:none;stroke:#000000;stroke-opacity:1;stroke-width:12.1108;stroke-linecap:round;stroke-linejoin:miter;stroke-miterlimit:4;stroke-dasharray:none"
         id="path24" /><path
         d="m 1438.52,184.922 c 0,-9.453 -7.66,-17.113 -17.11,-17.113 -9.46,0 -17.15,7.66 -17.15,17.113 0,9.5 7.69,17.148 17.15,17.148 9.45,0 17.11,-7.648 17.11,-17.148 z"
         style="fill:#000000;fill-opacity:1;fill-rule:nonzero;stroke:none"
         id="path26" /><path
         d="m 1438.52,184.922 c 0,-9.449 -7.66,-17.11 -17.11,-17.11 -9.46,0 -17.15,7.661 -17.15,17.11 0,9.5 7.69,17.148 17.15,17.148 9.45,0 17.11,-7.648 17.11,-17.148 z"
         style="fill:none;stroke:#000000;stroke-opacity:1;stroke-width:12.1108;stroke-linecap:round;stroke-linejoin:miter;stroke-miterlimit:4;stroke-dasharray:none"
         id="path28" /><path
         d="m 1438.52,1062.93 c 0,-9.45 -7.66,-17.15 -17.11,-17.15 -9.46,0 -17.15,7.7 -17.15,17.15 0,9.45 7.69,17.11 17.15,17.11 9.45,0 17.11,-7.66 17.11,-17.11 z"
         style="fill:#000000;fill-opacity:1;fill-rule:nonzero;stroke:none"
         id="path30" /><path
         d="m 1438.52,1062.93 c 0,-9.45 -7.66,-17.15 -17.11,-17.15 -9.46,0 -17.15,7.7 -17.15,17.15 0,9.45 7.69,17.11 17.15,17.11 9.45,0 17.11,-7.66 17.11,-17.11 z"
         style="fill:none;stroke:#000000;stroke-opacity:1;stroke-width:12.1108;stroke-linecap:round;stroke-linejoin:miter;stroke-miterlimit:4;stroke-dasharray:none"
         id="path32" /><path
         d="m 238.238,1063.2 c 0,-27.38 -22.218,-49.57 -49.609,-49.57 -27.379,0 -49.57,22.19 -49.57,49.57 0,27.39 22.191,49.61 49.57,49.61 27.391,0 49.609,-22.22 49.609,-49.61 z"
         style="fill:none;stroke:#000000;stroke-opacity:1;stroke-width:10;stroke-linecap:round;stroke-linejoin:miter;stroke-miterlimit:4;stroke-dasharray:none"
         id="path34" /><path
         d="m 238.238,183.199 c 0,-27.379 -22.218,-49.566 -49.609,-49.566 -27.379,0 -49.57,22.187 -49.57,49.566 0,27.391 22.191,49.613 49.57,49.613 27.391,0 49.609,-22.222 49.609,-49.613 z"
         style="fill:none;stroke:#000000;stroke-opacity:1;stroke-width:10;stroke-linecap:round;stroke-linejoin:miter;stroke-miterlimit:4;stroke-dasharray:none"
         id="path36" /><path
         d="m 1471.95,183.199 c 0,-27.379 -22.22,-49.566 -49.61,-49.566 -27.38,0 -49.57,22.187 -49.57,49.566 0,27.391 22.19,49.613 49.57,49.613 27.39,0 49.61,-22.222 49.61,-49.613 z"
         style="fill:none;stroke:#000000;stroke-opacity:1;stroke-width:10;stroke-linecap:round;stroke-linejoin:miter;stroke-miterlimit:4;stroke-dasharray:none"
         id="path38" /><path
         d="m 1471.95,1060.35 c 0,-27.38 -22.22,-49.57 -49.61,-49.57 -27.38,0 -49.57,22.19 -49.57,49.57 0,27.39 22.19,49.61 49.57,49.61 27.39,0 49.61,-22.22 49.61,-49.61 z"
         style="fill:none;stroke:#000000;stroke-opacity:1;stroke-width:10;stroke-linecap:round;stroke-linejoin:miter;stroke-miterlimit:4;stroke-dasharray:none"
         id="path40" /><path
         d="m 110.551,68.8711 c -1.492,-1.3711 -1.961,-1.9492 -2.699,-2.6992 -2.852,-2.8516 -4.063,-3.9024 -4.961,-3.9024 -0.743,0 -1.332,0.5821 -1.332,1.1719 0,1.9492 4.031,18.3203 8.562,34.7969 0.27,0.9023 0.27,1.2226 0.578,1.9607 l -0.738,0.313 -5.859,-0.5901 -0.313,-0.3125 -1.059,-4.6485 c -0.742,3.5977 -3.4292,5.5511 -7.6089,5.5511 -12.6211,0 -27.3125,-17.4222 -27.3125,-32.5432 0,-6.7579 3.6016,-10.6602 9.7305,-10.6602 6.7617,0 10.8203,3.1602 19.2226,15 -1.9609,-7.5 -2.2734,-8.707 -2.2734,-10.9375 0,-2.8516 1.2109,-3.9102 3.9101,-3.9102 3.9026,0 6.1716,1.8008 13.3636,10.5079 l -1.211,0.9023 z M 95.6992,98.3984 c 3.2813,-0.1601 5.3908,-2.3789 5.3908,-5.8593 0,-7.9297 -4.8009,-19.1797 -11.3986,-26.3672 -2.2305,-2.5703 -5.5508,-4.211 -8.4023,-4.211 -3.2774,0 -5.5508,2.8477 -5.5508,7.1797 0,5.2813 3.75,15 7.8125,21.0196 3.9101,5.5507 8.3984,8.5507 12.1484,8.2382 z"
         style="fill:#000000;fill-opacity:1;fill-rule:nonzero;stroke:none"
         id="path42" /><path
         d="m 133.48,89.1797 -12,-6.0078 0,-0.9024 c 0.75,0.3086 1.489,0.5821 1.801,0.7422 1.168,0.4688 2.231,0.5899 3.008,0.5899 1.332,0 1.91,-0.9024 1.91,-2.9727 l 0,-30.4687 c 0,-2.1094 -0.578,-3.6016 -1.64,-4.3399 -0.899,-0.6211 -1.95,-0.7422 -4.649,-0.7422 l 0,-1.0469 18.442,0 0,1.0469 c -5.391,0 -6.442,0.7422 -6.442,3.8711 l 0,40.2305 -0.43,0 z"
         style="fill:#000000;fill-opacity:1;fill-rule:nonzero;stroke:none"
         id="path44" /><path
         d="m 1502.54,68.8711 c -1.49,-1.3711 -1.95,-1.9492 -2.7,-2.6992 -2.85,-2.8516 -4.02,-3.9024 -4.92,-3.9024 -0.78,0 -1.37,0.5821 -1.37,1.1719 0,1.9492 4.07,18.3203 8.56,34.7969 0.31,0.9023 0.31,1.2226 0.59,1.9607 l -0.75,0.313 -5.86,-0.5901 -0.27,-0.3125 -1.05,-4.6485 c -0.79,3.5977 -3.48,5.5511 -7.66,5.5511 -12.62,0 -27.31,-17.4222 -27.31,-32.5432 0,-6.7579 3.6,-10.6602 9.77,-10.6602 6.72,0 10.78,3.1602 19.18,15 -1.95,-7.5 -2.27,-8.707 -2.27,-10.9375 0,-2.8516 1.22,-3.9102 3.91,-3.9102 3.91,0 6.17,1.8008 13.36,10.5079 l -1.21,0.9023 z m -14.84,29.5273 c 3.32,-0.1601 5.39,-2.3789 5.39,-5.8593 0,-7.9297 -4.77,-19.1797 -11.37,-26.3672 -2.27,-2.5703 -5.55,-4.211 -8.4,-4.211 -3.32,0 -5.59,2.8477 -5.59,7.1797 0,5.2813 3.75,15 7.82,21.0196 3.9,5.5507 8.4,8.5507 12.15,8.2382 z"
         style="fill:#000000;fill-opacity:1;fill-rule:nonzero;stroke:none"
         id="path46" /><path
         d="m 1537.77,53.1719 -0.89,0.3086 c -2.43,-3.75 -3.33,-4.3789 -6.29,-4.3789 l -16.06,0 11.25,11.7187 c 5.98,6.2891 8.56,11.4102 8.56,16.6406 0,6.5977 -5.43,11.7188 -12.31,11.7188 -3.75,0 -7.23,-1.3711 -9.76,-4.0586 -2.11,-2.2695 -3.17,-4.4922 -4.18,-9.1406 l 1.32,-0.3086 c 2.7,6.4375 5.12,8.5469 9.77,8.5469 5.55,0 9.45,-3.75 9.45,-9.2969 0,-5.2735 -3.16,-11.5625 -8.71,-17.4219 l -11.99,-12.7305 0,-0.7383 26.09,0 3.75,9.1407 z"
         style="fill:#000000;fill-opacity:1;fill-rule:nonzero;stroke:none"
         id="path48" /><path
         d="m 1502.54,980.859 c -1.49,-1.371 -1.95,-1.949 -2.7,-2.687 -2.85,-2.863 -4.02,-3.91 -4.92,-3.91 -0.78,0 -1.37,0.59 -1.37,1.207 0,1.953 4.07,18.281 8.56,34.771 0.31,0.93 0.31,1.21 0.59,1.95 l -0.75,0.31 -5.86,-0.58 -0.27,-0.32 -1.05,-4.64 c -0.79,3.59 -3.48,5.54 -7.66,5.54 -12.62,0 -27.31,-17.379 -27.31,-32.539 0,-6.75 3.6,-10.66 9.77,-10.66 6.72,0 10.78,3.16 19.18,15 -1.95,-7.5 -2.27,-8.711 -2.27,-10.942 0,-2.847 1.22,-3.898 3.91,-3.898 3.91,0 6.17,1.789 13.36,10.5 l -1.21,0.898 z m -14.84,29.531 c 3.32,-0.15 5.39,-2.38 5.39,-5.82 0,-7.968 -4.77,-19.218 -11.37,-26.398 -2.27,-2.582 -5.55,-4.223 -8.4,-4.223 -3.32,0 -5.59,2.852 -5.59,7.223 0,5.238 3.75,15 7.82,20.978 3.9,5.55 8.4,8.56 12.15,8.24 z"
         style="fill:#000000;fill-opacity:1;fill-rule:nonzero;stroke:none"
         id="path50" /><path
         d="m 1516.17,978.051 c 4.06,0 5.55,-0.121 7.19,-0.742 4.06,-1.489 6.76,-5.239 6.76,-9.887 0,-5.543 -3.91,-9.922 -8.83,-9.922 -1.84,0 -3.17,0.469 -5.59,2.109 -2.07,1.211 -3.12,1.641 -4.33,1.641 -1.49,0 -2.54,-0.898 -2.54,-2.379 0,-2.269 2.85,-3.75 7.65,-3.75 5.08,0 10.36,1.641 13.48,4.488 3.16,2.7 4.96,6.602 4.96,11.102 0,3.32 -1.05,6.437 -3.01,8.551 -1.32,1.476 -2.69,2.269 -5.54,3.59 4.49,3.168 6.29,5.546 6.29,9.136 0,5.59 -4.34,9.182 -10.47,9.182 -3.32,0 -6.33,-1.05 -8.71,-3.158 -1.96,-1.801 -3.01,-3.59 -4.5,-7.66 l 1.06,-0.274 c 2.69,4.922 5.66,7.192 9.88,7.192 4.34,0 7.35,-3.008 7.35,-7.192 0,-2.418 -0.9,-4.797 -2.7,-6.476 -1.95,-2.071 -3.75,-2.973 -8.4,-4.653 l 0,-0.898 z"
         style="fill:#000000;fill-opacity:1;fill-rule:nonzero;stroke:none"
         id="path52" /><path
         d="m 78.5508,980.859 c -1.4805,-1.371 -1.9492,-1.949 -2.6914,-2.687 -2.8477,-2.863 -4.0586,-3.91 -4.961,-3.91 -0.7382,0 -1.3281,0.59 -1.3281,1.207 0,1.953 4.0195,18.281 8.5195,34.771 0.3086,0.93 0.3086,1.21 0.6211,1.95 l -0.7421,0.31 -5.8594,-0.58 -0.3086,-0.32 -1.0625,-4.64 c -0.7383,3.59 -3.4375,5.54 -7.6485,5.54 -12.5781,0 -27.2695,-17.379 -27.2695,-32.539 0,-6.75 3.5899,-10.66 9.7305,-10.66 6.75,0 10.8203,3.16 19.2187,15 -1.9609,-7.5 -2.2695,-8.711 -2.2695,-10.942 0,-2.847 1.2109,-3.898 3.9102,-3.898 3.8984,0 6.1289,1.789 13.3593,10.5 l -1.2187,0.898 z m -14.8399,29.531 c 3.2774,-0.15 5.3907,-2.38 5.3907,-5.82 0,-7.968 -4.8008,-19.218 -11.4024,-26.398 -2.2304,-2.582 -5.5508,-4.223 -8.3984,-4.223 -3.2813,0 -5.5508,2.852 -5.5508,7.223 0,5.238 3.75,15 7.8086,20.978 3.9102,5.55 8.4023,8.56 12.1523,8.24 z"
         style="fill:#000000;fill-opacity:1;fill-rule:nonzero;stroke:none"
         id="path54" /><path
         d="m 113.629,971.449 -6.91,0 0,29.721 -3.008,0 -20.9805,-29.721 0,-4.34 18.8715,0 0,-11.089 5.117,0 0,11.089 6.91,0 0,4.34 z m -12.149,0 -16.0503,0 16.0503,22.973 0,-22.973 z"
         style="fill:#000000;fill-opacity:1;fill-rule:nonzero;stroke:none"
         id="path56" /><path
         d="m 833.711,653.48 -21.332,0 0,-1.64 c 1.211,0 2.269,-0.309 2.582,-0.309 2.379,-0.16 3.277,-0.75 3.277,-1.801 0,-2.269 -5.226,-7.351 -13.789,-13.359 L 789.879,626.172 795,644.77 c 1.328,4.8 4.02,6.761 9.609,7.07 l 0,1.64 -26.129,0 0,-1.64 c 6.008,-0.469 7.379,-1.371 7.379,-4.059 0,-1.371 -0.308,-3.601 -1.058,-6.019 L 773.09,599.488 c -1.801,-5.699 -2.231,-6.168 -7.93,-7.066 l 0,-1.481 23.82,0 0,1.481 c -6.128,0.75 -6.871,1.367 -6.871,4.219 0,1.019 0.121,1.8 0.743,3.75 l 0.589,2.07 5.86,21.758 11.558,-19.957 c 2.379,-3.871 3.75,-7.192 3.75,-8.981 0,-1.492 -1.371,-2.269 -4.531,-2.543 -0.43,0 -1.488,-0.16 -2.699,-0.316 l 0,-1.481 26.25,0 0,1.481 c -5.969,0.59 -6.598,0.898 -9.289,5.387 l -16.641,28.953 28.781,21.597 c 2.7,2.11 4.809,3.172 7.231,3.481 l 0,1.64 z"
         style="fill:#000000;fill-opacity:1;fill-rule:nonzero;stroke:none"
         id="path58" /><path
         d="m 702.969,647.621 c -39.219,-64.422 15.66,-142.191 100.98,-143.172 75.5,3.953 122.813,76.184 91.36,131.063"
         style="fill:none;stroke:#000000;stroke-opacity:1;stroke-width:8;stroke-linecap:butt;stroke-linejoin:miter;stroke-miterlimit:4;stroke-dasharray:none"
         id="path60" /><path
         d="m 900.469,624.062 -18.36,30.161 -0.55,0.859"
         style="fill:none;stroke:#000000;stroke-opacity:1;stroke-width:6.4;stroke-linecap:butt;stroke-linejoin:miter;stroke-miterlimit:4;stroke-dasharray:none"
         id="path62" /><path
         d="m 895.121,633.359 17.649,-4.058 -34.61,31.211 12.891,-44.801 4.07,17.648 z"
         style="fill:#000000;fill-opacity:1;fill-rule:evenodd;stroke:none"
         id="path64" /><path
         d="m 895.109,633.363 17.661,-4.066 -34.606,31.219 12.891,-44.809 4.054,17.656 z"
         style="fill:none;stroke:#000000;stroke-opacity:1;stroke-width:3.2;stroke-linecap:butt;stroke-linejoin:miter;stroke-miterlimit:4;stroke-dasharray:none"
         id="path66" /><path
         d="m 825.121,1198.05 -21.293,0 0,-1.64 c 1.211,0 2.223,-0.31 2.543,-0.31 2.418,-0.16 3.32,-0.75 3.32,-1.8 0,-2.27 -5.281,-7.34 -13.832,-13.36 l -14.531,-10.2 5.082,18.6 c 1.36,4.8 4.059,6.76 9.61,7.07 l 0,1.64 -26.098,0 0,-1.64 c 6.019,-0.47 7.348,-1.37 7.348,-4.06 0,-1.37 -0.321,-3.6 -1.059,-6.02 l -11.68,-42.27 c -1.801,-5.7 -2.261,-6.17 -7.972,-7.07 l 0,-1.48 23.871,0 0,1.48 c -6.168,0.75 -6.91,1.37 -6.91,4.22 0,1.02 0.152,1.8 0.742,3.75 l 0.617,2.07 5.82,21.76 11.571,-19.96 c 2.421,-3.87 3.75,-7.19 3.75,-8.98 0,-1.49 -1.329,-2.27 -4.5,-2.54 -0.469,0 -1.481,-0.16 -2.692,-0.32 l 0,-1.48 26.25,0 0,1.48 c -6.019,0.59 -6.598,0.9 -9.297,5.39 l -16.64,28.95 28.789,21.6 c 2.691,2.11 4.8,3.17 7.191,3.48 l 0,1.64 z"
         style="fill:#000000;fill-opacity:1;fill-rule:nonzero;stroke:none"
         id="path68" /><path
         d="m 844.801,1197.66 c 0,2.42 -2.379,4.06 -4.492,4.06 -2.379,0 -3.59,-2.38 -4.329,-4.49 l -6.921,-20.27 c -0.27,-0.59 -0.739,-1.8 -0.739,-2.39 0,-0.58 0.469,-1.36 1.059,-1.36 1.051,0 2.262,1.36 2.691,2.1 l 10.942,17.43 c 0.898,1.32 1.789,3.28 1.789,4.92 z"
         style="fill:#000000;fill-opacity:1;fill-rule:nonzero;stroke:none"
         id="path70" /><path
         d="m 851.559,1113.17 -0.899,0.27 c -2.379,-3.75 -3.281,-4.34 -6.281,-4.34 l -16.059,0 11.25,11.68 c 5.981,6.33 8.551,11.41 8.551,16.68 0,6.6 -5.422,11.68 -12.301,11.68 -3.75,0 -7.191,-1.33 -9.769,-4.02 -2.102,-2.27 -3.121,-4.53 -4.172,-9.18 l 1.32,-0.27 c 2.699,6.44 5.121,8.51 9.77,8.51 5.551,0 9.453,-3.75 9.453,-9.3 0,-5.23 -3.16,-11.52 -8.711,-17.38 l -11.992,-12.73 0,-0.78 26.09,0 3.75,9.18 z"
         style="fill:#000000;fill-opacity:1;fill-rule:nonzero;stroke:none"
         id="path72" /><path
         d="m 1556.56,644.922 -21.33,0 0,-1.684 c 1.22,0 2.27,-0.269 2.58,-0.269 2.39,-0.16 3.28,-0.778 3.28,-1.797 0,-2.262 -5.23,-7.383 -13.79,-13.363 l -14.57,-10.188 5.12,18.59 c 1.37,4.809 4.06,6.758 9.61,7.027 l 0,1.684 -26.09,0 0,-1.684 c 5.97,-0.429 7.34,-1.316 7.34,-4.019 0,-1.367 -0.31,-3.629 -1.05,-6.008 l -11.72,-42.313 c -1.8,-5.699 -2.23,-6.128 -7.93,-7.027 l 0,-1.519 23.83,0 0,1.519 c -6.14,0.738 -6.88,1.328 -6.88,4.18 0,1.051 0.16,1.801 0.74,3.75 l 0.59,2.109 5.86,21.762 11.56,-19.961 c 2.38,-3.91 3.75,-7.191 3.75,-8.992 0,-1.52 -1.37,-2.258 -4.49,-2.578 -0.47,0 -1.52,-0.153 -2.74,-0.27 l 0,-1.519 26.25,0 0,1.519 c -5.97,0.59 -6.6,0.899 -9.29,5.391 l -16.64,28.949 28.79,21.598 c 2.69,2.113 4.8,3.16 7.22,3.429 l 0,1.684 z"
         style="fill:#000000;fill-opacity:1;fill-rule:nonzero;stroke:none"
         id="path74" /><path
         d="m 1576.25,644.531 c 0,2.391 -2.38,4.071 -4.49,4.071 -2.42,0 -3.6,-2.43 -4.34,-4.543 l -6.91,-20.231 c -0.31,-0.59 -0.74,-1.797 -0.74,-2.379 0,-0.629 0.43,-1.371 1.05,-1.371 1.02,0 2.23,1.371 2.7,2.113 l 10.93,17.379 c 0.9,1.371 1.8,3.321 1.8,4.961 z"
         style="fill:#000000;fill-opacity:1;fill-rule:nonzero;stroke:none"
         id="path76" /><path
         d="m 1570.7,596.02 -11.99,-6.02 0,-0.898 c 0.74,0.32 1.49,0.589 1.8,0.75 1.17,0.457 2.22,0.617 2.97,0.617 1.36,0 1.95,-0.899 1.95,-3.008 l 0,-30.473 c 0,-2.066 -0.59,-3.59 -1.64,-4.328 -0.9,-0.59 -1.95,-0.738 -4.65,-0.738 l 0,-1.063 18.44,0 0,1.063 c -5.39,0 -6.45,0.738 -6.45,3.898 l 0,40.2 -0.43,0 z"
         style="fill:#000000;fill-opacity:1;fill-rule:nonzero;stroke:none"
         id="path78" /><path
         d="m 68.5508,644.922 -21.2813,0 0,-1.684 c 1.1719,0 2.2188,-0.269 2.5313,-0.269 2.3906,-0.16 3.289,-0.778 3.289,-1.797 0,-2.262 -5.2382,-7.383 -13.789,-13.363 l -14.5313,-10.188 5.0703,18.59 c 1.3711,4.809 4.0704,6.758 9.6094,7.027 l 0,1.684 -26.0898,0 0,-1.684 c 5.9804,-0.429 7.3398,-1.316 7.3398,-4.019 0,-1.367 -0.3086,-3.629 -1.0508,-6.008 L 7.96875,590.898 C 6.12891,585.199 5.69922,584.77 0,583.871 l 0,-1.519 23.8711,0 0,1.519 c -6.1719,0.738 -6.9219,1.328 -6.9219,4.18 0,1.051 0.1602,1.801 0.75,3.75 l 0.582,2.109 5.8594,21.762 11.5586,-19.961 c 2.3906,-3.91 3.75,-7.191 3.75,-8.992 0,-1.52 -1.3594,-2.258 -4.4883,-2.578 -0.4726,0 -1.5195,-0.153 -2.6914,-0.27 l 0,-1.519 26.25,0 0,1.519 c -6.0195,0.59 -6.6093,0.899 -9.3007,5.391 l -16.6797,28.949 28.832,21.598 c 2.6875,2.113 4.7578,3.16 7.1797,3.429 l 0,1.684 z"
         style="fill:#000000;fill-opacity:1;fill-rule:nonzero;stroke:none"
         id="path80" /><path
         d="m 88.2383,644.531 c 0,2.391 -2.3789,4.071 -4.4883,4.071 -2.3789,0 -3.5898,-2.43 -4.3398,-4.543 L 72.5,623.828 c -0.3086,-0.59 -0.7383,-1.797 -0.7383,-2.379 0,-0.629 0.4297,-1.371 1.0469,-1.371 1.0625,0 2.2305,1.371 2.7031,2.113 l 10.9375,17.379 c 0.8906,1.371 1.7891,3.321 1.7891,4.961 z"
         style="fill:#000000;fill-opacity:1;fill-rule:nonzero;stroke:none"
         id="path82" /><path
         d="m 111.48,644.531 c 0,2.391 -2.378,4.071 -4.492,4.071 -2.418,0 -3.59,-2.43 -4.367,-4.543 L 95.7383,623.828 C 95.4297,623.238 95,622.031 95,621.449 c 0,-0.629 0.4297,-1.371 1.0195,-1.371 1.0508,0 2.2617,1.371 2.7305,2.113 l 10.941,17.379 c 0.899,1.371 1.789,3.321 1.789,4.961 z"
         style="fill:#000000;fill-opacity:1;fill-rule:nonzero;stroke:none"
         id="path84" /><path
         d="m 82.6992,596.02 -12,-6.02 0,-0.898 c 0.75,0.32 1.4922,0.589 1.8008,0.75 1.2109,0.457 2.2305,0.617 3.0117,0.617 1.3281,0 1.9492,-0.899 1.9492,-3.008 l 0,-30.473 c 0,-2.066 -0.6211,-3.59 -1.6797,-4.328 -0.9023,-0.59 -1.9531,-0.738 -4.6523,-0.738 l 0,-1.063 18.4805,0 0,1.063 c -5.4297,0 -6.4883,0.738 -6.4883,3.898 l 0,40.2 -0.4219,0 z"
         style="fill:#000000;fill-opacity:1;fill-rule:nonzero;stroke:none"
         id="path86" /><path
         d="m 825.121,94.0586 -21.293,0 0,-1.6797 c 1.211,0 2.223,-0.2695 2.543,-0.2695 2.418,-0.1485 3.32,-0.7813 3.32,-1.8008 0,-2.2578 -5.281,-7.3789 -13.832,-13.3477 l -14.531,-10.1992 5.082,18.5899 c 1.36,4.8086 4.059,6.7578 9.61,7.0273 l 0,1.6797 -26.098,0 0,-1.6797 c 6.019,-0.418 7.348,-1.3203 7.348,-4.0195 0,-1.3711 -0.321,-3.6289 -1.059,-6.0078 l -11.68,-42.3125 c -1.801,-5.6993 -2.261,-6.1289 -7.972,-7.0274 l 0,-1.5234 23.871,0 0,1.5234 c -6.168,0.7383 -6.91,1.3281 -6.91,4.1797 0,1.0469 0.152,1.7969 0.742,3.75 l 0.617,2.1094 5.82,21.7578 11.571,-19.957 c 2.421,-3.9102 3.75,-7.1914 3.75,-8.9922 0,-1.5196 -1.329,-2.2578 -4.5,-2.5782 -0.469,0 -1.481,-0.1093 -2.692,-0.2695 l 0,-1.5234 26.25,0 0,1.5234 c -6.019,0.5899 -6.598,0.8985 -9.297,5.3867 l -16.64,28.9532 28.789,21.5976 c 2.691,2.1094 4.8,3.1602 7.191,3.4297 l 0,1.6797 z"
         style="fill:#000000;fill-opacity:1;fill-rule:nonzero;stroke:none"
         id="path88" /><path
         d="m 844.801,93.6719 c 0,2.3867 -2.379,4.0664 -4.492,4.0664 -2.379,0 -3.59,-2.4297 -4.329,-4.5274 l -6.921,-20.2421 c -0.27,-0.5899 -0.739,-1.7969 -0.739,-2.379 0,-0.6289 0.469,-1.371 1.059,-1.371 1.051,0 2.262,1.371 2.691,2.1093 l 10.942,17.3828 c 0.898,1.3672 1.789,3.3203 1.789,4.961 z"
         style="fill:#000000;fill-opacity:1;fill-rule:nonzero;stroke:none"
         id="path90" /><path
         d="m 868.051,93.6719 c 0,2.3867 -2.391,4.0664 -4.5,4.0664 -2.379,0 -3.59,-2.4297 -4.332,-4.5274 l -6.918,-20.2421 c -0.313,-0.5899 -0.742,-1.7969 -0.742,-2.379 0,-0.6289 0.429,-1.371 1.062,-1.371 1.051,0 2.219,1.371 2.688,2.1093 l 10.941,17.3828 c 0.898,1.3672 1.801,3.3203 1.801,4.961 z"
         style="fill:#000000;fill-opacity:1;fill-rule:nonzero;stroke:none"
         id="path92" /><path
         d="m 851.559,9.14062 -0.899,0.32032 c -2.379,-3.75 -3.281,-4.33985 -6.281,-4.33985 l -16.059,0 11.25,11.67971 c 5.981,6.289 8.551,11.4101 8.551,16.6406 0,6.5977 -5.422,11.7188 -12.301,11.7188 -3.75,0 -7.191,-1.3711 -9.769,-4.0586 -2.102,-2.2305 -3.121,-4.5 -4.172,-9.1407 l 1.32,-0.3203 c 2.699,6.4492 5.121,8.5586 9.77,8.5586 5.551,0 9.453,-3.75 9.453,-9.3008 0,-5.2265 -3.16,-11.5586 -8.711,-17.3789 L 821.719,0.738281 821.719,0 l 26.09,0 3.75,9.14062 z"
         style="fill:#000000;fill-opacity:1;fill-rule:nonzero;stroke:none"
         id="path94" /></g></g></svg>