<?xml version="1.0" encoding="UTF-8" standalone="no"?>
<!-- Created with Inkscape (http://www.inkscape.org/) -->

<svg
   xmlns:ns0="http://www.iki.fi/pav/software/textext/"
   xmlns:dc="http://purl.org/dc/elements/1.1/"
   xmlns:cc="http://creativecommons.org/ns#"
   xmlns:rdf="http://www.w3.org/1999/02/22-rdf-syntax-ns#"
   xmlns:svg="http://www.w3.org/2000/svg"
   xmlns="http://www.w3.org/2000/svg"
   xmlns:xlink="http://www.w3.org/1999/xlink"
   xmlns:sodipodi="http://sodipodi.sourceforge.net/DTD/sodipodi-0.dtd"
   xmlns:inkscape="http://www.inkscape.org/namespaces/inkscape"
   width="248.03149"
   height="141.73228"
   id="svg2"
   version="1.1"
   inkscape:version="0.47pre4 r22446"
   sodipodi:docname="New document 1">
  <sodipodi:namedview
     id="base"
     pagecolor="#ffffff"
     bordercolor="#666666"
     borderopacity="1.0"
     inkscape:pageopacity="0.0"
     inkscape:pageshadow="2"
     inkscape:zoom="1.4"
     inkscape:cx="41.077559"
     inkscape:cy="112.3298"
     inkscape:document-units="px"
     inkscape:current-layer="layer1"
     showgrid="false"
     units="cm"
     inkscape:window-width="1024"
     inkscape:window-height="685"
     inkscape:window-x="0"
     inkscape:window-y="30"
     inkscape:window-maximized="1" />
  <defs
     id="defs4">
    <marker
       inkscape:stockid="DotM"
       orient="auto"
       refY="0.0"
       refX="0.0"
       id="DotM"
       style="overflow:visible">
      <path
         id="path3658"
         d="M -2.5,-1.0 C -2.5,1.7600000 -4.7400000,4.0 -7.5,4.0 C -10.260000,4.0 -12.5,1.7600000 -12.5,-1.0 C -12.5,-3.7600000 -10.260000,-6.0 -7.5,-6.0 C -4.7400000,-6.0 -2.5,-3.7600000 -2.5,-1.0 z "
         style="fill-rule:evenodd;stroke:#000000;stroke-width:1.0pt;marker-start:none;marker-end:none"
         transform="scale(0.4) translate(7.4, 1)" />
    </marker>
    <inkscape:perspective
       sodipodi:type="inkscape:persp3d"
       inkscape:vp_x="0 : 526.18109 : 1"
       inkscape:vp_y="0 : 1000 : 0"
       inkscape:vp_z="744.09448 : 526.18109 : 1"
       inkscape:persp3d-origin="372.04724 : 350.78739 : 1"
       id="perspective10" />
  </defs>
  <metadata
     id="metadata7">
    <rdf:RDF>
      <cc:Work
         rdf:about="">
        <dc:format>image/svg+xml</dc:format>
        <dc:type
           rdf:resource="http://purl.org/dc/dcmitype/StillImage" />
        <dc:title></dc:title>
      </cc:Work>
    </rdf:RDF>
  </metadata>
  <g
     inkscape:label="Layer 1"
     inkscape:groupmode="layer"
     id="layer1"
     transform="translate(0,-910.62859)">
    <path
       style="fill:none;stroke:#000000;stroke-width:1.25000000000000000;stroke-linecap:butt;stroke-linejoin:miter;stroke-opacity:1;stroke-miterlimit:4;stroke-dasharray:none;marker-start:url(#DotM);marker-mid:url(#DotM)"
       d="M 37.857143,1031.2894 113.92857,928.07516 197.85714,989.14659 37.857143,1031.2894 z"
       id="path2816"
       sodipodi:nodetypes="cccc" />
    <path
       sodipodi:type="arc"
       style="fill:none;stroke:#000000;stroke-width:1.64495382;stroke-linecap:round;stroke-linejoin:miter;stroke-miterlimit:4;stroke-opacity:1;stroke-dasharray:none;stroke-dashoffset:0"
       id="path4222"
       sodipodi:cx="114.28571"
       sodipodi:cy="17.178713"
       sodipodi:rx="8.75"
       sodipodi:ry="8.125"
       d="m 123.03571,17.178713 c 0,4.487313 -3.91751,8.125 -8.75,8.125 -4.83249,0 -8.75,-3.637687 -8.75,-8.125 0,-4.487314 3.91751,-8.1250002 8.75,-8.1250002 4.83249,0 8.75,3.6376862 8.75,8.1250002 z"
       transform="matrix(0.75989975,0,0,0.75989975,27.172168,914.64606)" />
    <path
       transform="matrix(1.1308271,0,0,1.1308271,-15.06633,908.36329)"
       d="m 123.03571,17.178713 c 0,4.487313 -3.91751,8.125 -8.75,8.125 -4.83249,0 -8.75,-3.637687 -8.75,-8.125 0,-4.487314 3.91751,-8.1250002 8.75,-8.1250002 4.83249,0 8.75,3.6376862 8.75,8.1250002 z"
       sodipodi:ry="8.125"
       sodipodi:rx="8.75"
       sodipodi:cy="17.178713"
       sodipodi:cx="114.28571"
       id="path4224"
       style="fill:none;stroke:#000000;stroke-width:1.10538566;stroke-linecap:round;stroke-linejoin:miter;stroke-miterlimit:4;stroke-opacity:1;stroke-dasharray:none;stroke-dashoffset:0"
       sodipodi:type="arc" />
    <g
       id="g4230"
       transform="translate(-50,103.57143)">
      <path
         transform="matrix(1.1308271,0,0,1.1308271,-41.06633,908.36329)"
         d="m 123.03571,17.178713 c 0,4.487313 -3.91751,8.125 -8.75,8.125 -4.83249,0 -8.75,-3.637687 -8.75,-8.125 0,-4.487314 3.91751,-8.1250002 8.75,-8.1250002 4.83249,0 8.75,3.6376862 8.75,8.1250002 z"
         sodipodi:ry="8.125"
         sodipodi:rx="8.75"
         sodipodi:cy="17.178713"
         sodipodi:cx="114.28571"
         id="path4226"
         style="fill:none;stroke:#000000;stroke-width:1.10538566;stroke-linecap:round;stroke-linejoin:miter;stroke-miterlimit:4;stroke-opacity:1;stroke-dasharray:none;stroke-dashoffset:0"
         sodipodi:type="arc" />
      <path
         sodipodi:type="arc"
         style="fill:none;stroke:#000000;stroke-width:1.64495385;stroke-linecap:round;stroke-linejoin:miter;stroke-miterlimit:4;stroke-opacity:1;stroke-dasharray:none;stroke-dashoffset:0"
         id="path4228"
         sodipodi:cx="114.28571"
         sodipodi:cy="17.178713"
         sodipodi:rx="8.75"
         sodipodi:ry="8.125"
         d="m 123.03571,17.178713 c 0,4.487313 -3.91751,8.125 -8.75,8.125 -4.83249,0 -8.75,-3.637687 -8.75,-8.125 0,-4.487314 3.91751,-8.1250002 8.75,-8.1250002 4.83249,0 8.75,3.6376862 8.75,8.1250002 z"
         transform="matrix(0.75989975,0,0,0.75989975,1.172168,914.64606)" />
    </g>
    <g
       transform="translate(109.57143,61.07143)"
       id="g4234">
      <path
         sodipodi:type="arc"
         style="fill:none;stroke:#000000;stroke-width:1.10538566;stroke-linecap:round;stroke-linejoin:miter;stroke-miterlimit:4;stroke-opacity:1;stroke-dasharray:none;stroke-dashoffset:0"
         id="path4236"
         sodipodi:cx="114.28571"
         sodipodi:cy="17.178713"
         sodipodi:rx="8.75"
         sodipodi:ry="8.125"
         d="m 123.03571,17.178713 c 0,4.487313 -3.91751,8.125 -8.75,8.125 -4.83249,0 -8.75,-3.637687 -8.75,-8.125 0,-4.487314 3.91751,-8.1250002 8.75,-8.1250002 4.83249,0 8.75,3.6376862 8.75,8.1250002 z"
         transform="matrix(1.1308271,0,0,1.1308271,-41.06633,908.36329)" />
      <path
         transform="matrix(0.75989975,0,0,0.75989975,1.172168,914.64606)"
         d="m 123.03571,17.178713 c 0,4.487313 -3.91751,8.125 -8.75,8.125 -4.83249,0 -8.75,-3.637687 -8.75,-8.125 0,-4.487314 3.91751,-8.1250002 8.75,-8.1250002 4.83249,0 8.75,3.6376862 8.75,8.1250002 z"
         sodipodi:ry="8.125"
         sodipodi:rx="8.75"
         sodipodi:cy="17.178713"
         sodipodi:cx="114.28571"
         id="path4238"
         style="fill:none;stroke:#000000;stroke-width:1.64495385;stroke-linecap:round;stroke-linejoin:miter;stroke-miterlimit:4;stroke-opacity:1;stroke-dasharray:none;stroke-dashoffset:0"
         sodipodi:type="arc" />
    </g>
    <g
       transform="matrix(1.2,0,0,1.2,-155,817.85714)"
       ns0:text="$K$"
       ns0:preamble="/home/raghu/Desktop/Prism-JKB/sdst/package.tex"
       id="g4257">
      <defs
         id="defs4259">
        <g
           id="g4261">
          <symbol
             style="overflow:visible"
             overflow="visible"
             id="textext-bd710639-0">
            <path
               style="stroke:none"
               d=""
               id="path4264" />
          </symbol>
          <symbol
             style="overflow:visible"
             overflow="visible"
             id="textext-bd710639-1">
            <path
               style="stroke:none"
               d="m 7.203125,-6.515625 -2.21875,0 0,0.171875 c 0.125,0 0.234375,0.03125 0.265625,0.03125 0.25,0.015625 0.34375,0.078125 0.34375,0.1875 0,0.234375 -0.546875,0.765625 -1.4375,1.390625 l -1.515625,1.0625 0.53125,-1.9375 c 0.140625,-0.5 0.421875,-0.703125 1,-0.734375 l 0,-0.171875 -2.71875,0 0,0.171875 c 0.625,0.046875 0.765625,0.140625 0.765625,0.421875 0,0.140625 -0.03125,0.375 -0.109375,0.625 l -1.21875,4.40625 C 0.703125,-0.296875 0.65625,-0.25 0.0625,-0.15625 l 0,0.15625 2.484375,0 0,-0.15625 c -0.640625,-0.078125 -0.71875,-0.140625 -0.71875,-0.4375 0,-0.109375 0.015625,-0.1875 0.078125,-0.390625 l 0.0625,-0.21875 0.609375,-2.265625 1.203125,2.078125 c 0.25,0.40625 0.390625,0.75 0.390625,0.9375 0,0.15625 -0.140625,0.234375 -0.46875,0.265625 -0.046875,0 -0.15625,0.015625 -0.28125,0.03125 l 0,0.15625 2.734375,0 0,-0.15625 C 5.53125,-0.21875 5.46875,-0.25 5.1875,-0.71875 l -1.734375,-3.015625 3,-2.25 c 0.28125,-0.21875 0.5,-0.328125 0.75,-0.359375 l 0,-0.171875 z m 0,0"
               id="path4267" />
          </symbol>
        </g>
      </defs>
      <g
         id="textext-bd710639-2">
        <g
           style="fill:#000000;fill-opacity:1"
           id="g4270">
          <use
             height="141.73228"
             width="248.03149"
             xlink:href="#textext-bd710639-1"
             x="223.681"
             y="134.765"
             id="use4272" />
        </g>
      </g>
    </g>
    <g
       id="g4346"
       transform="matrix(1.2,0,0,1.2,-142.14286,758.14285)"
       ns0:preamble="/home/raghu/Desktop/Prism-JKB/sdst/package.tex"
       ns0:text="$a_{1}$">
      <defs
         id="defs4348">
        <g
           id="g4350">
          <symbol
             id="textext-6c45f429-0"
             overflow="visible"
             style="overflow:visible">
            <path
               id="path4353"
               d=""
               style="stroke:none" />
          </symbol>
          <symbol
             id="textext-6c45f429-1"
             overflow="visible"
             style="overflow:visible">
            <path
               id="path4356"
               d="m 4.625,-1.09375 c -0.15625,0.140625 -0.203125,0.203125 -0.28125,0.28125 -0.296875,0.296875 -0.421875,0.40625 -0.515625,0.40625 -0.078125,0 -0.140625,-0.0625 -0.140625,-0.125 0,-0.203125 0.421875,-1.90625 0.890625,-3.625 0.03125,-0.09375 0.03125,-0.125 0.0625,-0.203125 L 4.5625,-4.390625 3.953125,-4.328125 3.921875,-4.296875 3.8125,-3.8125 c -0.078125,-0.375 -0.359375,-0.578125 -0.796875,-0.578125 -1.3125,0 -2.84375,1.8125 -2.84375,3.390625 0,0.703125 0.375,1.109375 1.015625,1.109375 0.703125,0 1.125,-0.328125 2,-1.5625 -0.203125,0.78125 -0.234375,0.90625 -0.234375,1.140625 0,0.296875 0.125,0.40625 0.40625,0.40625 C 3.765625,0.09375 4,-0.09375 4.75,-1 L 4.625,-1.09375 z M 3.078125,-4.171875 c 0.34375,0.015625 0.5625,0.25 0.5625,0.609375 0,0.828125 -0.5,2 -1.1875,2.75 C 2.21875,-0.546875 1.875,-0.375 1.578125,-0.375 1.234375,-0.375 1,-0.671875 1,-1.125 1,-1.671875 1.390625,-2.6875 1.8125,-3.3125 2.21875,-3.890625 2.6875,-4.203125 3.078125,-4.171875 z m 0,0"
               style="stroke:none" />
          </symbol>
          <symbol
             id="textext-6c45f429-2"
             overflow="visible"
             style="overflow:visible">
            <path
               id="path4359"
               d=""
               style="stroke:none" />
          </symbol>
          <symbol
             id="textext-6c45f429-3"
             overflow="visible"
             style="overflow:visible">
            <path
               id="path4362"
               d="m 2.03125,-4.703125 -1.25,0.625 0,0.09375 c 0.078125,-0.03125 0.15625,-0.0625 0.1875,-0.078125 0.125,-0.046875 0.234375,-0.0625 0.3125,-0.0625 0.140625,0 0.203125,0.09375 0.203125,0.3125 l 0,3.171875 c 0,0.21875 -0.0625,0.375 -0.171875,0.453125 -0.09375,0.0625 -0.203125,0.078125 -0.484375,0.078125 L 0.828125,0 2.75,0 l 0,-0.109375 c -0.5625,0 -0.671875,-0.078125 -0.671875,-0.40625 l 0,-4.1875 -0.046875,0 z m 0,0"
               style="stroke:none" />
          </symbol>
        </g>
      </defs>
      <g
         id="textext-6c45f429-4">
        <g
           id="g4365"
           style="fill:#000000;fill-opacity:1">
          <use
             id="use4367"
             y="134.765"
             x="223.43201"
             xlink:href="#textext-6c45f429-1"
             width="248.03149"
             height="141.73228" />
        </g>
        <g
           id="g4369"
           style="fill:#000000;fill-opacity:1">
          <use
             id="use4371"
             y="136.259"
             x="228.41299"
             xlink:href="#textext-6c45f429-3"
             width="248.03149"
             height="141.73228" />
        </g>
      </g>
    </g>
    <g
       ns0:text="$a_{2}$"
       ns0:preamble="/home/raghu/Desktop/Prism-JKB/sdst/package.tex"
       transform="matrix(1.2,0,0,1.2,-56.857146,831.42856)"
       id="g4489">
      <defs
         id="defs4491">
        <g
           id="g4493">
          <symbol
             style="overflow:visible"
             overflow="visible"
             id="textext-01020cc5-0">
            <path
               style="stroke:none"
               d=""
               id="path4496" />
          </symbol>
          <symbol
             style="overflow:visible"
             overflow="visible"
             id="textext-01020cc5-1">
            <path
               style="stroke:none"
               d="m 4.625,-1.09375 c -0.15625,0.140625 -0.203125,0.203125 -0.28125,0.28125 -0.296875,0.296875 -0.421875,0.40625 -0.515625,0.40625 -0.078125,0 -0.140625,-0.0625 -0.140625,-0.125 0,-0.203125 0.421875,-1.90625 0.890625,-3.625 0.03125,-0.09375 0.03125,-0.125 0.0625,-0.203125 L 4.5625,-4.390625 3.953125,-4.328125 3.921875,-4.296875 3.8125,-3.8125 c -0.078125,-0.375 -0.359375,-0.578125 -0.796875,-0.578125 -1.3125,0 -2.84375,1.8125 -2.84375,3.390625 0,0.703125 0.375,1.109375 1.015625,1.109375 0.703125,0 1.125,-0.328125 2,-1.5625 -0.203125,0.78125 -0.234375,0.90625 -0.234375,1.140625 0,0.296875 0.125,0.40625 0.40625,0.40625 C 3.765625,0.09375 4,-0.09375 4.75,-1 L 4.625,-1.09375 z M 3.078125,-4.171875 c 0.34375,0.015625 0.5625,0.25 0.5625,0.609375 0,0.828125 -0.5,2 -1.1875,2.75 C 2.21875,-0.546875 1.875,-0.375 1.578125,-0.375 1.234375,-0.375 1,-0.671875 1,-1.125 1,-1.671875 1.390625,-2.6875 1.8125,-3.3125 2.21875,-3.890625 2.6875,-4.203125 3.078125,-4.171875 z m 0,0"
               id="path4499" />
          </symbol>
          <symbol
             style="overflow:visible"
             overflow="visible"
             id="textext-01020cc5-2">
            <path
               style="stroke:none"
               d=""
               id="path4502" />
          </symbol>
          <symbol
             style="overflow:visible"
             overflow="visible"
             id="textext-01020cc5-3">
            <path
               style="stroke:none"
               d="M 3.3125,-0.953125 3.21875,-0.984375 C 2.96875,-0.59375 2.875,-0.53125 2.5625,-0.53125 l -1.671875,0 L 2.0625,-1.75 c 0.625,-0.65625 0.890625,-1.1875 0.890625,-1.734375 0,-0.6875 -0.5625,-1.21875 -1.28125,-1.21875 -0.390625,0 -0.75,0.140625 -1.015625,0.421875 -0.21875,0.234375 -0.328125,0.46875 -0.4375,0.953125 l 0.140625,0.03125 C 0.640625,-3.96875 0.890625,-4.1875 1.375,-4.1875 c 0.578125,0 0.984375,0.390625 0.984375,0.96875 0,0.546875 -0.328125,1.203125 -0.90625,1.8125 l -1.25,1.328125 0,0.078125 2.71875,0 0.390625,-0.953125 z m 0,0"
               id="path4505" />
          </symbol>
        </g>
      </defs>
      <g
         id="textext-01020cc5-4">
        <g
           style="fill:#000000;fill-opacity:1"
           id="g4508">
          <use
             height="141.73228"
             width="248.03149"
             xlink:href="#textext-01020cc5-1"
             x="223.43201"
             y="134.765"
             id="use4510" />
        </g>
        <g
           style="fill:#000000;fill-opacity:1"
           id="g4512">
          <use
             height="141.73228"
             width="248.03149"
             xlink:href="#textext-01020cc5-3"
             x="228.41299"
             y="136.259"
             id="use4514" />
        </g>
      </g>
    </g>
    <g
       id="g4664"
       transform="matrix(1.2,0,0,1.2,-251.85715,881.14285)"
       ns0:preamble="/home/raghu/Desktop/Prism-JKB/sdst/package.tex"
       ns0:text="$a_{3}$">
      <defs
         id="defs4666">
        <g
           id="g4668">
          <symbol
             id="textext-a8d5f192-0"
             overflow="visible"
             style="overflow:visible">
            <path
               id="path4671"
               d=""
               style="stroke:none" />
          </symbol>
          <symbol
             id="textext-a8d5f192-1"
             overflow="visible"
             style="overflow:visible">
            <path
               id="path4674"
               d="m 4.625,-1.09375 c -0.15625,0.140625 -0.203125,0.203125 -0.28125,0.28125 -0.296875,0.296875 -0.421875,0.40625 -0.515625,0.40625 -0.078125,0 -0.140625,-0.0625 -0.140625,-0.125 0,-0.203125 0.421875,-1.90625 0.890625,-3.625 0.03125,-0.09375 0.03125,-0.125 0.0625,-0.203125 L 4.5625,-4.390625 3.953125,-4.328125 3.921875,-4.296875 3.8125,-3.8125 c -0.078125,-0.375 -0.359375,-0.578125 -0.796875,-0.578125 -1.3125,0 -2.84375,1.8125 -2.84375,3.390625 0,0.703125 0.375,1.109375 1.015625,1.109375 0.703125,0 1.125,-0.328125 2,-1.5625 -0.203125,0.78125 -0.234375,0.90625 -0.234375,1.140625 0,0.296875 0.125,0.40625 0.40625,0.40625 C 3.765625,0.09375 4,-0.09375 4.75,-1 L 4.625,-1.09375 z M 3.078125,-4.171875 c 0.34375,0.015625 0.5625,0.25 0.5625,0.609375 0,0.828125 -0.5,2 -1.1875,2.75 C 2.21875,-0.546875 1.875,-0.375 1.578125,-0.375 1.234375,-0.375 1,-0.671875 1,-1.125 1,-1.671875 1.390625,-2.6875 1.8125,-3.3125 2.21875,-3.890625 2.6875,-4.203125 3.078125,-4.171875 z m 0,0"
               style="stroke:none" />
          </symbol>
          <symbol
             id="textext-a8d5f192-2"
             overflow="visible"
             style="overflow:visible">
            <path
               id="path4677"
               d=""
               style="stroke:none" />
          </symbol>
          <symbol
             id="textext-a8d5f192-3"
             overflow="visible"
             style="overflow:visible">
            <path
               id="path4680"
               d="m 1.0625,-2.296875 c 0.421875,0 0.578125,0.015625 0.75,0.078125 0.421875,0.15625 0.703125,0.546875 0.703125,1.03125 0,0.578125 -0.40625,1.03125 -0.921875,1.03125 -0.1875,0 -0.328125,-0.046875 -0.578125,-0.21875 C 0.796875,-0.5 0.6875,-0.546875 0.5625,-0.546875 c -0.15625,0 -0.265625,0.09375 -0.265625,0.25 0,0.234375 0.296875,0.390625 0.796875,0.390625 0.53125,0 1.078125,-0.171875 1.40625,-0.46875 0.328125,-0.28125 0.515625,-0.6875 0.515625,-1.15625 0,-0.34375 -0.109375,-0.671875 -0.3125,-0.890625 C 2.5625,-2.578125 2.421875,-2.65625 2.125,-2.796875 2.59375,-3.125 2.78125,-3.375 2.78125,-3.75 c 0,-0.578125 -0.453125,-0.953125 -1.09375,-0.953125 -0.34375,0 -0.65625,0.109375 -0.90625,0.328125 C 0.578125,-4.1875 0.46875,-4 0.3125,-3.578125 l 0.109375,0.03125 c 0.28125,-0.515625 0.59375,-0.75 1.03125,-0.75 0.453125,0 0.765625,0.3125 0.765625,0.75 0,0.25 -0.09375,0.5 -0.28125,0.671875 -0.203125,0.21875 -0.390625,0.3125 -0.875,0.484375 l 0,0.09375 z m 0,0"
               style="stroke:none" />
          </symbol>
        </g>
      </defs>
      <g
         id="textext-a8d5f192-4">
        <g
           id="g4683"
           style="fill:#000000;fill-opacity:1">
          <use
             id="use4685"
             y="134.765"
             x="223.43201"
             xlink:href="#textext-a8d5f192-1"
             width="248.03149"
             height="141.73228" />
        </g>
        <g
           id="g4687"
           style="fill:#000000;fill-opacity:1">
          <use
             id="use4689"
             y="136.259"
             x="228.41299"
             xlink:href="#textext-a8d5f192-3"
             width="248.03149"
             height="141.73228" />
        </g>
      </g>
    </g>
  </g>
</svg>
