<?xml version="1.0" encoding="UTF-8" standalone="no"?>
<!-- Created with Inkscape (http://www.inkscape.org/) -->

<svg
   xmlns:ns0="http://www.iki.fi/pav/software/textext/"
   xmlns:dc="http://purl.org/dc/elements/1.1/"
   xmlns:cc="http://creativecommons.org/ns#"
   xmlns:rdf="http://www.w3.org/1999/02/22-rdf-syntax-ns#"
   xmlns:svg="http://www.w3.org/2000/svg"
   xmlns="http://www.w3.org/2000/svg"
   xmlns:xlink="http://www.w3.org/1999/xlink"
   xmlns:sodipodi="http://sodipodi.sourceforge.net/DTD/sodipodi-0.dtd"
   xmlns:inkscape="http://www.inkscape.org/namespaces/inkscape"
   width="301.18109"
   height="177.16534"
   id="svg2"
   version="1.1"
   inkscape:version="0.48.0 r9654"
   sodipodi:docname="fig2.2.eps">
  <sodipodi:namedview
     id="base"
     pagecolor="#ffffff"
     bordercolor="#666666"
     borderopacity="1.0"
     inkscape:pageopacity="0.0"
     inkscape:pageshadow="2"
     inkscape:zoom="1.979899"
     inkscape:cx="212.95327"
     inkscape:cy="103.51187"
     inkscape:document-units="px"
     inkscape:current-layer="layer1"
     showgrid="false"
     units="cm"
     inkscape:window-width="1024"
     inkscape:window-height="693"
     inkscape:window-x="0"
     inkscape:window-y="25"
     inkscape:window-maximized="1"
     showguides="true"
     inkscape:guide-bbox="true" />
  <defs
     id="defs4">
    <marker
       inkscape:stockid="Arrow2Send"
       orient="auto"
       refY="0"
       refX="0"
       id="Arrow2Send"
       style="overflow:visible">
      <path
         id="path4821"
         style="font-size:12px;fill-rule:evenodd;stroke-width:0.625;stroke-linejoin:round"
         d="M 8.7185878,4.0337352 -2.2072895,0.01601326 8.7185884,-4.0017078 c -1.7454984,2.3720609 -1.7354408,5.6174519 -6e-7,8.035443 z"
         transform="matrix(-0.3,0,0,-0.3,0.69,0)" />
    </marker>
    <marker
       inkscape:stockid="Arrow2Mend"
       orient="auto"
       refY="0"
       refX="0"
       id="Arrow2Mend"
       style="overflow:visible">
      <path
         id="path4815"
         style="font-size:12px;fill-rule:evenodd;stroke-width:0.625;stroke-linejoin:round"
         d="M 8.7185878,4.0337352 -2.2072895,0.01601326 8.7185884,-4.0017078 c -1.7454984,2.3720609 -1.7354408,5.6174519 -6e-7,8.035443 z"
         transform="scale(-0.6,-0.6)" />
    </marker>
    <marker
       style="overflow:visible"
       id="Arrow1Send"
       refX="0"
       refY="0"
       orient="auto"
       inkscape:stockid="Arrow1Send">
      <path
         transform="matrix(-0.2,0,0,-0.2,-1.2,0)"
         style="fill-rule:evenodd;stroke:#000000;stroke-width:1pt;marker-start:none"
         d="M 0,0 5,-5 -12.5,0 5,5 0,0 z"
         id="path3608" />
    </marker>
    <marker
       style="overflow:visible"
       id="Arrow1Mend"
       refX="0"
       refY="0"
       orient="auto"
       inkscape:stockid="Arrow1Mend">
      <path
         transform="matrix(-0.4,0,0,-0.4,-4,0)"
         style="fill-rule:evenodd;stroke:#000000;stroke-width:1pt;marker-start:none"
         d="M 0,0 5,-5 -12.5,0 5,5 0,0 z"
         id="path3602" />
    </marker>
    <marker
       style="overflow:visible"
       id="Arrow1Mstart"
       refX="0"
       refY="0"
       orient="auto"
       inkscape:stockid="Arrow1Mstart">
      <path
         transform="matrix(0.4,0,0,0.4,4,0)"
         style="fill-rule:evenodd;stroke:#000000;stroke-width:1pt;marker-start:none"
         d="M 0,0 5,-5 -12.5,0 5,5 0,0 z"
         id="path3599" />
    </marker>
    <inkscape:perspective
       id="perspective10"
       inkscape:persp3d-origin="372.04724 : 350.78739 : 1"
       inkscape:vp_z="744.09448 : 526.18109 : 1"
       inkscape:vp_y="0 : 1000 : 0"
       inkscape:vp_x="0 : 526.18109 : 1"
       sodipodi:type="inkscape:persp3d" />
  </defs>
  <metadata
     id="metadata7">
    <rdf:RDF>
      <cc:Work
         rdf:about="">
        <dc:format>image/svg+xml</dc:format>
        <dc:type
           rdf:resource="http://purl.org/dc/dcmitype/StillImage" />
        <dc:title></dc:title>
      </cc:Work>
    </rdf:RDF>
  </metadata>
  <g
     transform="translate(0,-875.19566)"
     id="layer1"
     inkscape:groupmode="layer"
     inkscape:label="Layer 1">
    <g
       id="g6085"
       transform="matrix(1.2,0,0,1.2,-115.31855,761.37324)"
       ns0:preamble="/home/raghu/Desktop/Prism-JKB/sdst/package.tex"
       ns0:text="$F\\,dx$">
      <defs
         id="defs6087">
        <g
           id="g6089">
          <symbol
             id="textext-358e6c26-0"
             overflow="visible"
             style="overflow:visible">
            <path
               id="path6092"
               d=""
               style="stroke:none"
               inkscape:connector-curvature="0" />
          </symbol>
          <symbol
             id="textext-358e6c26-1"
             overflow="visible"
             style="overflow:visible">
            <path
               id="path6095"
               d="m 6.4375,-6.515625 -4.96875,0 0,0.171875 c 0.640625,0.046875 0.765625,0.109375 0.765625,0.40625 0,0.140625 -0.046875,0.390625 -0.109375,0.640625 l -1.234375,4.40625 c -0.171875,0.59375 -0.25,0.65625 -0.8125,0.734375 l 0,0.15625 2.515625,0 0,-0.15625 C 2.015625,-0.1875 1.828125,-0.296875 1.828125,-0.59375 c 0,-0.078125 0.03125,-0.234375 0.09375,-0.453125 l 0.625,-2.21875 C 2.90625,-3.25 3.125,-3.234375 3.34375,-3.234375 c 0.390625,0 0.46875,0 0.546875,0.046875 0.15625,0.078125 0.21875,0.203125 0.21875,0.40625 0,0.15625 -0.015625,0.28125 -0.078125,0.59375 L 4.203125,-2.140625 4.96875,-4.46875 4.78125,-4.53125 C 4.34375,-3.625 4.3125,-3.625 2.625,-3.59375 L 3.296875,-5.921875 C 3.34375,-6.125 3.484375,-6.1875 3.890625,-6.1875 c 1.6875,0 2.046875,0.140625 2.046875,0.75 0,0.0625 0,0.109375 -0.015625,0.25 C 5.90625,-5.140625 5.90625,-5.125 5.90625,-5 l 0.203125,0.015625 0.328125,-1.53125 z m 0,0"
               style="stroke:none"
               inkscape:connector-curvature="0" />
          </symbol>
          <symbol
             id="textext-358e6c26-2"
             overflow="visible"
             style="overflow:visible">
            <path
               id="path6098"
               d="m 4.609375,-1.109375 c -0.53125,0.625 -0.640625,0.703125 -0.8125,0.703125 -0.09375,0 -0.171875,-0.078125 -0.171875,-0.1875 0,-0.140625 0.3125,-1.359375 0.640625,-2.453125 C 4.53125,-3.96875 4.75,-4.765625 5.25,-6.765625 L 5.203125,-6.8125 c -0.53125,0.109375 -0.890625,0.171875 -1.53125,0.234375 l 0,0.171875 c 0.5625,0.015625 0.625,0.046875 0.625,0.25 0,0.140625 -0.015625,0.1875 -0.15625,0.703125 L 3.703125,-3.8125 C 3.625,-4.234375 3.453125,-4.390625 3.0625,-4.390625 c -1.296875,0 -2.90625,1.875 -2.90625,3.359375 0,0.71875 0.390625,1.140625 1.046875,1.140625 0.671875,0 1.109375,-0.3125 1.78125,-1.3125 -0.109375,0.5 -0.125,0.65625 -0.125,0.890625 0,0.265625 0.171875,0.4375 0.421875,0.4375 0.421875,0 0.9375,-0.40625 1.453125,-1.125 l -0.125,-0.109375 z m -1.515625,-3.0625 c 0.3125,0.03125 0.453125,0.21875 0.453125,0.578125 0,1.515625 -1.03125,3.21875 -1.953125,3.21875 -0.34375,0 -0.578125,-0.265625 -0.578125,-0.65625 0,-0.828125 0.5,-1.984375 1.15625,-2.671875 C 2.453125,-4 2.828125,-4.1875 3.09375,-4.171875 z m 0,0"
               style="stroke:none"
               inkscape:connector-curvature="0" />
          </symbol>
          <symbol
             id="textext-358e6c26-3"
             overflow="visible"
             style="overflow:visible">
            <path
               id="path6101"
               d="M 4,-1.109375 C 3.921875,-1.015625 3.875,-0.953125 3.78125,-0.84375 3.5625,-0.53125 3.4375,-0.4375 3.328125,-0.4375 3.1875,-0.4375 3.09375,-0.5625 3.015625,-0.84375 3,-0.921875 2.984375,-0.984375 2.984375,-1.015625 2.734375,-2.03125 2.625,-2.484375 2.625,-2.625 c 0.4375,-0.78125 0.796875,-1.21875 0.96875,-1.21875 0.0625,0 0.140625,0.03125 0.25,0.078125 0.109375,0.078125 0.1875,0.09375 0.265625,0.09375 0.203125,0 0.34375,-0.140625 0.34375,-0.359375 0,-0.203125 -0.171875,-0.359375 -0.40625,-0.359375 -0.4375,0 -0.8125,0.359375 -1.5,1.421875 L 2.4375,-3.515625 c -0.140625,-0.6875 -0.25,-0.875 -0.53125,-0.875 -0.21875,0 -0.546875,0.078125 -1.15625,0.28125 L 0.640625,-4.0625 0.671875,-3.921875 C 1.0625,-4 1.140625,-4.03125 1.234375,-4.03125 c 0.25,0 0.3125,0.09375 0.453125,0.6875 l 0.28125,1.234375 -0.8125,1.15625 C 0.953125,-0.640625 0.75,-0.46875 0.640625,-0.46875 0.59375,-0.46875 0.484375,-0.5 0.390625,-0.5625 0.265625,-0.625 0.15625,-0.65625 0.0625,-0.65625 c -0.1875,0 -0.328125,0.140625 -0.328125,0.34375 0,0.265625 0.203125,0.421875 0.5,0.421875 0.296875,0 0.421875,-0.09375 0.921875,-0.703125 0.265625,-0.3125 0.484375,-0.578125 0.890625,-1.15625 l 0.3125,1.1875 c 0.125,0.515625 0.25,0.671875 0.578125,0.671875 0.375,0 0.625,-0.234375 1.203125,-1.140625 L 4,-1.109375 z m 0,0"
               style="stroke:none"
               inkscape:connector-curvature="0" />
          </symbol>
        </g>
      </defs>
      <g
         id="textext-358e6c26-4">
        <g
           id="g6104"
           style="fill:#000000;fill-opacity:1">
          <use
             id="use6106"
             y="134.765"
             x="223.681"
             xlink:href="#textext-358e6c26-1"
             width="248.03149"
             height="177.16534" />
        </g>
        <g
           id="g6108"
           style="fill:#000000;fill-opacity:1">
          <use
             id="use6110"
             y="134.765"
             x="232.0197"
             xlink:href="#textext-358e6c26-2"
             width="248.03149"
             height="177.16534" />
        </g>
        <g
           id="g6112"
           style="fill:#000000;fill-opacity:1">
          <use
             id="use6114"
             y="134.765"
             x="237.76811"
             xlink:href="#textext-358e6c26-3"
             width="248.03149"
             height="177.16534" />
        </g>
      </g>
    </g>
    <path
       sodipodi:nodetypes="ccc"
       id="path2816"
       d="m 112.92857,889.72852 0,62.13234 -83.072455,71.16744"
       style="fill:none;stroke:#000000;stroke-width:1.5;stroke-linecap:butt;stroke-linejoin:miter;stroke-miterlimit:4;stroke-opacity:1;stroke-dasharray:none;marker-start:url(#Arrow1Mstart);marker-end:url(#Arrow1Mend)"
       inkscape:connector-curvature="0" />
    <path
       sodipodi:nodetypes="cc"
       id="path4226"
       d="M 112.92857,951.50372 268.06164,953.784"
       style="fill:none;stroke:#000000;stroke-width:1.5;stroke-linecap:butt;stroke-linejoin:miter;stroke-miterlimit:4;stroke-opacity:1;stroke-dasharray:none;marker-end:url(#Arrow1Mend)"
       inkscape:connector-curvature="0" />
    <rect
       transform="matrix(0.99885154,-0.0479124,-0.02197821,0.99975845,0,0)"
       y="959.09784"
       x="168.67046"
       height="2.5746522"
       width="5.1490884"
       id="rect4806"
       style="fill:#ffffff;fill-opacity:1;fill-rule:nonzero;stroke:#000000;stroke-width:0;stroke-linecap:round;stroke-linejoin:round;stroke-miterlimit:4;stroke-opacity:1;stroke-dasharray:none;stroke-dashoffset:0" />
    <g
       transform="translate(-22.20921,-27.913343)"
       id="g5812">
      <g
         ns0:text="$\\Gamma$"
         ns0:preamble="/home/raghu/Desktop/Prism-JKB/sdst/package.tex"
         transform="matrix(1.2,0,0,1.2,-34.981695,840.99782)"
         id="g5151">
        <defs
           id="defs5153">
          <g
             id="g5155">
            <symbol
               style="overflow:visible"
               overflow="visible"
               id="textext-d1d2a3b9-0">
              <path
                 style="stroke:none"
                 d=""
                 id="path5158"
                 inkscape:connector-curvature="0" />
            </symbol>
            <symbol
               style="overflow:visible"
               overflow="visible"
               id="textext-d1d2a3b9-1">
              <path
                 style="stroke:none"
                 d="m 5.4375,-5.171875 -0.03125,-1.421875 -5.28125,0 0,0.1875 c 0.6875,0.046875 0.859375,0.171875 0.859375,0.890625 l 0,4.3125 c 0,0.75 -0.078125,0.96875 -0.859375,1.015625 l 0,0.1875 2.78125,0 0,-0.1875 C 2.203125,-0.21875 2,-0.359375 2,-1.09375 L 2,-5.875 c 0,-0.265625 0.046875,-0.34375 0.328125,-0.34375 l 1.34375,0 c 0.90625,0 1.359375,0.03125 1.515625,1.046875 l 0.25,0 z m 0,0"
                 id="path5161"
                 inkscape:connector-curvature="0" />
            </symbol>
          </g>
        </defs>
        <g
           id="textext-d1d2a3b9-2">
          <g
             style="fill:#000000;fill-opacity:1"
             id="g5164">
            <use
               height="177.16534"
               width="248.03149"
               xlink:href="#textext-d1d2a3b9-1"
               x="223.43201"
               y="134.765"
               id="use5166" />
          </g>
        </g>
      </g>
      <path
         transform="matrix(1.0432393,0,0,1.1712904,8.0746282,876.27667)"
         d="m 212.63711,107.21228 c 0,8.7868 -14.24621,15.9099 -31.8198,15.9099 -17.5736,0 -31.81981,-7.1231 -31.81981,-15.9099 0,-8.786796 14.24621,-15.909902 31.81981,-15.909902 17.57359,0 31.8198,7.123106 31.8198,15.909902 z"
         sodipodi:ry="15.909903"
         sodipodi:rx="31.819805"
         sodipodi:cy="107.21228"
         sodipodi:cx="180.81731"
         id="path3931"
         style="fill:#ffffff;fill-opacity:1;fill-rule:nonzero;stroke:#000000;stroke-width:1.13079989;stroke-linecap:round;stroke-linejoin:round;stroke-miterlimit:4;stroke-opacity:1;stroke-dasharray:none;stroke-dashoffset:0"
         sodipodi:type="arc" />
      <path
         sodipodi:nodetypes="czc"
         id="path3933"
         d="m 164.97719,1006.3991 c 11.19669,3.7322 18.99247,-41.46496 31.58521,-40.46741 12.59274,0.99754 17.78192,40.61531 32.23824,40.61531"
         style="fill:none;stroke:#000000;stroke-width:1.25;stroke-linecap:butt;stroke-linejoin:miter;stroke-miterlimit:4;stroke-opacity:1;stroke-dasharray:none"
         inkscape:connector-curvature="0" />
      <path
         style="fill:none;stroke:#000000;stroke-width:1.25;stroke-linecap:butt;stroke-linejoin:miter;stroke-miterlimit:4;stroke-opacity:1;stroke-dasharray:none"
         d="m 164.00293,999.76121 c 11.19669,3.73219 22.19887,-33.3962 31.93447,-33.82722 9.7356,-0.43102 19.02403,34.33231 33.48035,34.33231"
         id="path3935"
         sodipodi:nodetypes="czc"
         inkscape:connector-curvature="0" />
      <g
         transform="translate(-62,0)"
         id="g3963">
        <path
           sodipodi:nodetypes="czcc"
           id="path3937"
           d="m 237.57846,996.77822 c 6.47529,-12.24281 11.29068,-30.92155 20.98394,-30.84653 9.69326,0.075 12.73163,17.81085 19.78401,29.65402 -16.78324,7.54559 -30.98019,4.16802 -40.76795,1.19251 z"
           style="fill:#ffffff;stroke:#000000;stroke-width:1;stroke-linecap:butt;stroke-linejoin:miter;stroke-miterlimit:4;stroke-opacity:1;stroke-dasharray:none"
           inkscape:connector-curvature="0" />
      </g>
      <path
         sodipodi:nodetypes="cc"
         id="path3939"
         d="m 175.67857,996.64672 c 13.38218,5.04568 27.03469,4.41438 40.89286,-0.53572"
         style="fill:none;stroke:#000000;stroke-width:1px;stroke-linecap:butt;stroke-linejoin:miter;stroke-opacity:1"
         inkscape:connector-curvature="0" />
      <path
         style="fill:none;stroke:#000000;stroke-width:1px;stroke-linecap:butt;stroke-linejoin:miter;stroke-opacity:1"
         d="m 175.67857,996.64672 c 13.38218,5.04568 27.03469,4.41438 40.89286,-0.53572"
         id="path3941"
         sodipodi:nodetypes="cc"
         inkscape:connector-curvature="0" />
      <path
         sodipodi:nodetypes="cs"
         id="path3947"
         d="m 177.5609,993.31855 c 12.0304,4.05293 24.78109,3.33371 37.19519,-0.67122"
         style="fill:none;stroke:#000000;stroke-width:1px;stroke-linecap:butt;stroke-linejoin:miter;stroke-opacity:1"
         inkscape:connector-curvature="0" />
      <path
         style="fill:none;stroke:#000000;stroke-width:1px;stroke-linecap:butt;stroke-linejoin:miter;stroke-opacity:1"
         d="m 179.3658,989.89234 c 10.93546,3.26993 22.35869,2.72519 33.60978,-0.63322"
         id="path3949"
         sodipodi:nodetypes="cs"
         inkscape:connector-curvature="0" />
      <path
         sodipodi:nodetypes="cs"
         id="path3951"
         d="m 180.68428,986.26857 c 9.93604,2.70006 20.59561,2.2595 30.79192,-0.50596"
         style="fill:none;stroke:#000000;stroke-width:1px;stroke-linecap:butt;stroke-linejoin:miter;stroke-opacity:1"
         inkscape:connector-curvature="0" />
      <path
         style="fill:none;stroke:#000000;stroke-width:1px;stroke-linecap:butt;stroke-linejoin:miter;stroke-opacity:1"
         d="m 182.08535,982.6292 c 8.95696,2.17753 18.65395,1.71595 27.82195,-0.53861"
         id="path3953"
         sodipodi:nodetypes="cs"
         inkscape:connector-curvature="0" />
      <path
         sodipodi:nodetypes="cs"
         id="path3955"
         d="m 183.98724,978.70168 c 7.76264,1.52895 16.18801,1.66362 24.10981,-0.12049"
         style="fill:none;stroke:#000000;stroke-width:1px;stroke-linecap:butt;stroke-linejoin:miter;stroke-opacity:1"
         inkscape:connector-curvature="0" />
      <path
         style="fill:none;stroke:#000000;stroke-width:1px;stroke-linecap:butt;stroke-linejoin:miter;stroke-opacity:1"
         d="m 185.68251,975.37373 c 6.74534,1.15503 14.00048,0.88998 20.86452,-0.44759"
         id="path3957"
         sodipodi:nodetypes="cs"
         inkscape:connector-curvature="0" />
      <path
         sodipodi:nodetypes="cs"
         id="path3959"
         d="m 188.18882,971.74162 c 5.1475,0.63068 10.15258,0.85918 16.17241,-0.53453"
         style="fill:none;stroke:#000000;stroke-width:1px;stroke-linecap:butt;stroke-linejoin:miter;stroke-opacity:1"
         inkscape:connector-curvature="0" />
      <path
         style="fill:none;stroke:#000000;stroke-width:1px;stroke-linecap:butt;stroke-linejoin:miter;stroke-opacity:1"
         d="m 190.85937,968.04078 c 3.7385,0.96916 7.42959,0.77627 10.36843,-0.44521"
         id="path3961"
         sodipodi:nodetypes="cs"
         inkscape:connector-curvature="0" />
      <g
         id="g5006"
         transform="matrix(1.2,0,0,1.2,-79.414983,851.88343)"
         ns0:preamble="/home/raghu/Desktop/Prism-JKB/sdst/package.tex"
         ns0:text="$\\Omega$">
        <defs
           id="defs5008">
          <g
             id="g5010">
            <symbol
               id="textext-cd9de1a8-0"
               overflow="visible"
               style="overflow:visible">
              <path
                 id="path5013"
                 d=""
                 style="stroke:none"
                 inkscape:connector-curvature="0" />
            </symbol>
            <symbol
               id="textext-cd9de1a8-1"
               overflow="visible"
               style="overflow:visible">
              <path
                 id="path5016"
                 d="m 7.125,0 0,-1.53125 -0.1875,0 c -0.015625,0.515625 -0.3125,0.625 -0.765625,0.625 l -1.359375,0 0.046875,-0.328125 c 1.265625,-0.375 2.03125,-1.359375 2.03125,-2.6875 C 6.890625,-5.71875 5.4375,-6.75 3.734375,-6.75 c -1.6875,0 -3.203125,1.078125 -3.203125,2.875 0,1.21875 0.796875,2.40625 2.046875,2.640625 l 0.015625,0.328125 -1.328125,0 c -0.484375,0 -0.75,-0.09375 -0.796875,-0.625 l -0.171875,0 0,1.53125 2.71875,0 -0.09375,-1.46875 c -1.03125,-0.375 -1.25,-1.40625 -1.25,-2.390625 0,-1.21875 0.65625,-2.546875 2.046875,-2.546875 1.4375,0 2.046875,1.375 2.046875,2.625 0,0.953125 -0.21875,1.984375 -1.25,2.3125 L 4.390625,0 7.125,0 z m 0,0"
                 style="stroke:none"
                 inkscape:connector-curvature="0" />
            </symbol>
          </g>
        </defs>
        <g
           id="textext-cd9de1a8-2">
          <g
             id="g5019"
             style="fill:#000000;fill-opacity:1">
            <use
               id="use5021"
               y="134.765"
               x="223.43201"
               xlink:href="#textext-cd9de1a8-1"
               width="248.03149"
               height="177.16534" />
          </g>
        </g>
      </g>
      <g
         id="g4129"
         transform="matrix(1.2,0,0,1.2,-90.7792,849.42784)"
         ns0:preamble="/home/raghu/Desktop/Prism-JKB/sdst/package.tex"
         ns0:text="$x$">
        <defs
           id="defs4131">
          <g
             id="g4133">
            <symbol
               id="textext-a97a0b56-0"
               overflow="visible"
               style="overflow:visible">
              <path
                 id="path4136"
                 d=""
                 style="stroke:none"
                 inkscape:connector-curvature="0" />
            </symbol>
            <symbol
               id="textext-a97a0b56-1"
               overflow="visible"
               style="overflow:visible">
              <path
                 id="path4139"
                 d="M 4,-1.109375 C 3.921875,-1.015625 3.875,-0.953125 3.78125,-0.84375 3.5625,-0.53125 3.4375,-0.4375 3.328125,-0.4375 3.1875,-0.4375 3.09375,-0.5625 3.015625,-0.84375 3,-0.921875 2.984375,-0.984375 2.984375,-1.015625 2.734375,-2.03125 2.625,-2.484375 2.625,-2.625 c 0.4375,-0.78125 0.796875,-1.21875 0.96875,-1.21875 0.0625,0 0.140625,0.03125 0.25,0.078125 0.109375,0.078125 0.1875,0.09375 0.265625,0.09375 0.203125,0 0.34375,-0.140625 0.34375,-0.359375 0,-0.203125 -0.171875,-0.359375 -0.40625,-0.359375 -0.4375,0 -0.8125,0.359375 -1.5,1.421875 L 2.4375,-3.515625 c -0.140625,-0.6875 -0.25,-0.875 -0.53125,-0.875 -0.21875,0 -0.546875,0.078125 -1.15625,0.28125 L 0.640625,-4.0625 0.671875,-3.921875 C 1.0625,-4 1.140625,-4.03125 1.234375,-4.03125 c 0.25,0 0.3125,0.09375 0.453125,0.6875 l 0.28125,1.234375 -0.8125,1.15625 C 0.953125,-0.640625 0.75,-0.46875 0.640625,-0.46875 0.59375,-0.46875 0.484375,-0.5 0.390625,-0.5625 0.265625,-0.625 0.15625,-0.65625 0.0625,-0.65625 c -0.1875,0 -0.328125,0.140625 -0.328125,0.34375 0,0.265625 0.203125,0.421875 0.5,0.421875 0.296875,0 0.421875,-0.09375 0.921875,-0.703125 0.265625,-0.3125 0.484375,-0.578125 0.890625,-1.15625 l 0.3125,1.1875 c 0.125,0.515625 0.25,0.671875 0.578125,0.671875 0.375,0 0.625,-0.234375 1.203125,-1.140625 L 4,-1.109375 z m 0,0"
                 style="stroke:none"
                 inkscape:connector-curvature="0" />
            </symbol>
          </g>
        </defs>
        <g
           id="textext-a97a0b56-2">
          <g
             id="g4142"
             style="fill:#000000;fill-opacity:1">
            <use
               id="use4144"
               y="134.765"
               x="223.92999"
               xlink:href="#textext-a97a0b56-1"
               width="283.46457"
               height="177.16534" />
          </g>
        </g>
      </g>
      <g
         transform="translate(-44.589285,16.696428)"
         id="g4574">
        <rect
           y="968.04913"
           x="234.56985"
           height="10.700692"
           width="10.963293"
           id="rect4271"
           style="fill:#ffffff;fill-opacity:1;fill-rule:nonzero;stroke:#000000;stroke-width:0;stroke-linecap:round;stroke-linejoin:round;stroke-miterlimit:4;stroke-opacity:1;stroke-dasharray:none;stroke-dashoffset:0" />
        <g
           id="g4421"
           transform="matrix(1.2,0,0,1.2,-32.889603,815.4862)"
           ns0:preamble="/home/raghu/Desktop/Prism-JKB/sdst/package.tex"
           ns0:text="$\\mathcal{X}$">
          <defs
             id="defs4423">
            <g
               id="g4425">
              <symbol
                 id="textext-793dccc2-0"
                 overflow="visible"
                 style="overflow:visible">
                <path
                   id="path4428"
                   d=""
                   style="stroke:none"
                   inkscape:connector-curvature="0" />
              </symbol>
              <symbol
                 id="textext-793dccc2-1"
                 overflow="visible"
                 style="overflow:visible">
                <path
                   id="path4431"
                   d="m 7.28125,-6.65625 c 0,-0.15625 -0.203125,-0.25 -0.34375,-0.25 -0.484375,0 -1.140625,0.109375 -1.484375,0.453125 L 5.53125,-6.34375 C 5.671875,-6.390625 6,-6.4375 6,-6.203125 c 0,0.71875 -1.140625,1.625 -1.6875,2.015625 -0.109375,-0.421875 -0.578125,-2.703125 -1.046875,-2.703125 -0.421875,0 -1.15625,0.125 -1.390625,0.515625 l 0.09375,0.0625 C 2.03125,-6.34375 2.125,-6.375 2.203125,-6.375 3,-6.375 3.296875,-4.25 3.421875,-3.65625 2.625,-3.15625 0.0625,-1.296875 0.0625,-0.34375 c 0,0.4375 0.859375,0.640625 1.203125,0.640625 0.125,0 0.234375,-0.0625 0.3125,-0.140625 C 1.3125,0.125 1.171875,-0.1875 1.171875,-0.4375 c 0,-1.125 1.453125,-2.40625 2.34375,-2.9375 0.1875,0.65625 0.90625,3.65625 1.671875,3.65625 0.421875,0 0.96875,-0.109375 1.046875,-0.625 C 6.15625,-0.296875 6.078125,-0.265625 6,-0.265625 c -0.40625,0 -1.609375,-3.078125 -1.609375,-3.578125 0,-0.125 2.890625,-1.953125 2.890625,-2.8125 z m 0,0"
                   style="stroke:none"
                   inkscape:connector-curvature="0" />
              </symbol>
            </g>
          </defs>
          <g
             id="textext-793dccc2-2">
            <g
               id="g4434"
               style="fill:#000000;fill-opacity:1">
              <use
                 id="use4436"
                 y="134.765"
                 x="223.43201"
                 xlink:href="#textext-793dccc2-1"
                 width="283.46457"
                 height="177.16534" />
            </g>
          </g>
        </g>
      </g>
      <path
         id="path4589"
         d="m 137.64286,992.1264 34.82142,0"
         style="fill:none;stroke:#000000;stroke-width:1;stroke-linecap:butt;stroke-linejoin:miter;stroke-miterlimit:4;stroke-opacity:1;stroke-dasharray:2, 2;stroke-dashoffset:0"
         inkscape:connector-curvature="0" />
      <path
         style="fill:none;stroke:#000000;stroke-width:1;stroke-linecap:butt;stroke-linejoin:miter;stroke-miterlimit:4;stroke-opacity:1;stroke-dasharray:2, 2;stroke-dashoffset:0"
         d="m 137.64286,1007.7233 34.82142,0"
         id="path4591"
         inkscape:connector-curvature="0" />
      <path
         sodipodi:nodetypes="cc"
         id="path4593"
         d="m 142.6424,997.12397 0.0348,-2.07094"
         style="fill:none;stroke:#000000;stroke-width:1.02499998;stroke-linecap:butt;stroke-linejoin:miter;stroke-miterlimit:4;stroke-opacity:1;stroke-dasharray:none;marker-end:url(#Arrow2Send)"
         inkscape:connector-curvature="0" />
      <path
         style="fill:none;stroke:#000000;stroke-width:1.02499998;stroke-linecap:butt;stroke-linejoin:miter;stroke-miterlimit:4;stroke-opacity:1;stroke-dasharray:none;marker-end:url(#Arrow2Send)"
         d="m 142.6424,1003.758 0.0348,2.0709"
         id="path5433"
         sodipodi:nodetypes="cc"
         inkscape:connector-curvature="0" />
      <g
         id="g5602"
         transform="matrix(1.2,0,0,1.2,-147.02286,841.49764)"
         ns0:preamble="/home/raghu/Desktop/Prism-JKB/sdst/package.tex"
         ns0:text="$u(x)$">
        <defs
           id="defs5604">
          <g
             id="g5606">
            <symbol
               id="textext-b480491d-0"
               overflow="visible"
               style="overflow:visible">
              <path
                 id="path5609"
                 d=""
                 style="stroke:none"
                 inkscape:connector-curvature="0" />
            </symbol>
            <symbol
               id="textext-b480491d-1"
               overflow="visible"
               style="overflow:visible">
              <path
                 id="path5612"
                 d="M 4.59375,-1.171875 C 4.078125,-0.515625 3.921875,-0.375 3.765625,-0.375 c -0.0625,0 -0.109375,-0.0625 -0.109375,-0.171875 0,-0.0625 0,-0.0625 0.1875,-0.78125 l 0.796875,-2.984375 -0.75,0 c -0.5625,1.546875 -0.625,1.703125 -1.09375,2.4375 -0.59375,0.953125 -1.078125,1.453125 -1.40625,1.453125 -0.109375,0 -0.203125,-0.09375 -0.203125,-0.25 0,-0.03125 0,-0.0625 0.015625,-0.078125 l 0.90625,-3.625 -0.03125,-0.015625 c -0.578125,0.125 -0.9375,0.1875 -1.5,0.265625 l 0,0.140625 c 0.375,0 0.40625,0 0.484375,0.0625 C 1.125,-3.90625 1.171875,-3.8125 1.171875,-3.75 c 0,0.078125 -0.046875,0.328125 -0.140625,0.671875 l -0.359375,1.40625 c -0.1875,0.71875 -0.25,1.046875 -0.25,1.234375 0,0.359375 0.171875,0.546875 0.53125,0.546875 0.703125,0 1.234375,-0.53125 2.375,-2.46875 C 3.046875,-1.28125 2.875,-0.59375 2.875,-0.390625 c 0,0.296875 0.1875,0.484375 0.484375,0.484375 0.46875,0 0.703125,-0.203125 1.375,-1.171875 L 4.59375,-1.171875 z m 0,0"
                 style="stroke:none"
                 inkscape:connector-curvature="0" />
            </symbol>
            <symbol
               id="textext-b480491d-2"
               overflow="visible"
               style="overflow:visible">
              <path
                 id="path5615"
                 d="M 4,-1.109375 C 3.921875,-1.015625 3.875,-0.953125 3.78125,-0.84375 3.5625,-0.53125 3.4375,-0.4375 3.328125,-0.4375 3.1875,-0.4375 3.09375,-0.5625 3.015625,-0.84375 3,-0.921875 2.984375,-0.984375 2.984375,-1.015625 2.734375,-2.03125 2.625,-2.484375 2.625,-2.625 c 0.4375,-0.78125 0.796875,-1.21875 0.96875,-1.21875 0.0625,0 0.140625,0.03125 0.25,0.078125 0.109375,0.078125 0.1875,0.09375 0.265625,0.09375 0.203125,0 0.34375,-0.140625 0.34375,-0.359375 0,-0.203125 -0.171875,-0.359375 -0.40625,-0.359375 -0.4375,0 -0.8125,0.359375 -1.5,1.421875 L 2.4375,-3.515625 c -0.140625,-0.6875 -0.25,-0.875 -0.53125,-0.875 -0.21875,0 -0.546875,0.078125 -1.15625,0.28125 L 0.640625,-4.0625 0.671875,-3.921875 C 1.0625,-4 1.140625,-4.03125 1.234375,-4.03125 c 0.25,0 0.3125,0.09375 0.453125,0.6875 l 0.28125,1.234375 -0.8125,1.15625 C 0.953125,-0.640625 0.75,-0.46875 0.640625,-0.46875 0.59375,-0.46875 0.484375,-0.5 0.390625,-0.5625 0.265625,-0.625 0.15625,-0.65625 0.0625,-0.65625 c -0.1875,0 -0.328125,0.140625 -0.328125,0.34375 0,0.265625 0.203125,0.421875 0.5,0.421875 0.296875,0 0.421875,-0.09375 0.921875,-0.703125 0.265625,-0.3125 0.484375,-0.578125 0.890625,-1.15625 l 0.3125,1.1875 c 0.125,0.515625 0.25,0.671875 0.578125,0.671875 0.375,0 0.625,-0.234375 1.203125,-1.140625 L 4,-1.109375 z m 0,0"
                 style="stroke:none"
                 inkscape:connector-curvature="0" />
            </symbol>
            <symbol
               id="textext-b480491d-3"
               overflow="visible"
               style="overflow:visible">
              <path
                 id="path5618"
                 d=""
                 style="stroke:none"
                 inkscape:connector-curvature="0" />
            </symbol>
            <symbol
               id="textext-b480491d-4"
               overflow="visible"
               style="overflow:visible">
              <path
                 id="path5621"
                 d="M 2.9375,-6.734375 C 2.203125,-6.265625 1.90625,-6 1.53125,-5.546875 c -0.703125,0.875 -1.046875,1.875 -1.046875,3.03125 0,1.265625 0.359375,2.25 1.234375,3.265625 0.421875,0.46875 0.671875,0.703125 1.1875,1.015625 l 0.125,-0.15625 C 2.234375,0.984375 1.953125,0.625 1.6875,-0.125 1.453125,-0.78125 1.328125,-1.546875 1.328125,-2.546875 1.328125,-3.59375 1.46875,-4.40625 1.734375,-5.03125 2.015625,-5.640625 2.3125,-6 3.03125,-6.578125 L 2.9375,-6.734375 z m 0,0"
                 style="stroke:none"
                 inkscape:connector-curvature="0" />
            </symbol>
            <symbol
               id="textext-b480491d-5"
               overflow="visible"
               style="overflow:visible">
              <path
                 id="path5624"
                 d="M 0.375,1.765625 C 1.109375,1.28125 1.421875,1.03125 1.78125,0.5625 2.5,-0.296875 2.84375,-1.296875 2.84375,-2.46875 c 0,-1.265625 -0.375,-2.234375 -1.25,-3.25 C 1.1875,-6.203125 0.921875,-6.421875 0.40625,-6.734375 l -0.109375,0.15625 c 0.796875,0.625 1.0625,0.96875 1.34375,1.71875 0.234375,0.671875 0.34375,1.4375 0.34375,2.421875 0,1.046875 -0.125,1.875 -0.40625,2.484375 C 1.3125,0.671875 1,1.03125 0.296875,1.609375 L 0.375,1.765625 z m 0,0"
                 style="stroke:none"
                 inkscape:connector-curvature="0" />
            </symbol>
          </g>
        </defs>
        <g
           id="textext-b480491d-6">
          <g
             id="g5627"
             style="fill:#000000;fill-opacity:1">
            <use
               id="use5629"
               y="134.765"
               x="223.43201"
               xlink:href="#textext-b480491d-1"
               width="283.46457"
               height="177.16534" />
          </g>
          <g
             id="g5631"
             style="fill:#000000;fill-opacity:1">
            <use
               id="use5633"
               y="134.765"
               x="228.41299"
               xlink:href="#textext-b480491d-4"
               width="283.46457"
               height="177.16534" />
          </g>
          <g
             id="g5635"
             style="fill:#000000;fill-opacity:1">
            <use
               id="use5637"
               y="134.765"
               x="232.229"
               xlink:href="#textext-b480491d-2"
               width="283.46457"
               height="177.16534" />
          </g>
          <g
             id="g5639"
             style="fill:#000000;fill-opacity:1">
            <use
               id="use5641"
               y="134.765"
               x="236.68201"
               xlink:href="#textext-b480491d-5"
               width="283.46457"
               height="177.16534" />
          </g>
        </g>
      </g>
    </g>
    <path
       sodipodi:nodetypes="cc"
       id="path4422"
       d="m 149.96449,922.37551 0,40.65555"
       style="fill:none;stroke:#000000;stroke-width:1;stroke-linecap:butt;stroke-linejoin:miter;stroke-miterlimit:4;stroke-opacity:1;stroke-dasharray:none;marker-end:url(#Arrow1Mend)"
       inkscape:connector-curvature="0" />
    <g
       id="g3305"
       transform="matrix(1.2,0,0,1.2,-176.67838,733.50508)"
       ns0:preamble=""
       ns0:text="$X_{3}$">
      <defs
         id="defs3307">
        <g
           id="g3309">
          <symbol
             id="textext-95a287da-0"
             overflow="visible"
             style="overflow:visible">
            <path
               id="path3312"
               d="M 4.828125,-4.09375 4,-6.078125 c -0.03125,-0.078125 -0.046875,-0.125 -0.046875,-0.125 0,-0.0625 0.15625,-0.25 0.578125,-0.296875 0.109375,-0.015625 0.203125,-0.015625 0.203125,-0.1875 0,-0.125 -0.125,-0.125 -0.15625,-0.125 -0.40625,0 -0.828125,0.03125 -1.25,0.03125 -0.25,0 -0.859375,-0.03125 -1.109375,-0.03125 -0.0625,0 -0.1875,0 -0.1875,0.203125 C 2.03125,-6.5 2.140625,-6.5 2.265625,-6.5 c 0.59375,0 0.65625,0.09375 0.75,0.3125 l 1.171875,2.78125 -2.109375,2.265625 -0.125,0.109375 C 1.46875,-0.5 1,-0.34375 0.484375,-0.3125 c -0.125,0.015625 -0.21875,0.015625 -0.21875,0.203125 0,0.015625 0,0.109375 0.140625,0.109375 0.296875,0 0.625,-0.03125 0.921875,-0.03125 C 1.703125,-0.03125 2.09375,0 2.453125,0 2.515625,0 2.625,0 2.625,-0.203125 2.625,-0.296875 2.53125,-0.3125 2.515625,-0.3125 c -0.09375,0 -0.40625,-0.03125 -0.40625,-0.3125 0,-0.15625 0.15625,-0.3125 0.265625,-0.4375 L 3.40625,-2.140625 4.296875,-3.125 l 1,2.390625 c 0.046875,0.109375 0.0625,0.109375 0.0625,0.140625 0,0.078125 -0.203125,0.25 -0.578125,0.28125 C 4.671875,-0.296875 4.578125,-0.296875 4.578125,-0.125 4.578125,0 4.6875,0 4.71875,0 5,0 5.703125,-0.03125 5.984375,-0.03125 6.234375,-0.03125 6.84375,0 7.09375,0 c 0.0625,0 0.1875,0 0.1875,-0.1875 0,-0.125 -0.109375,-0.125 -0.1875,-0.125 -0.65625,0 -0.6875,-0.03125 -0.859375,-0.4375 C 5.859375,-1.671875 5.1875,-3.234375 4.953125,-3.828125 5.625,-4.53125 6.671875,-5.71875 7,-5.984375 7.28125,-6.234375 7.671875,-6.46875 8.265625,-6.5 c 0.125,-0.015625 0.21875,-0.015625 0.21875,-0.203125 0,0 0,-0.109375 -0.125,-0.109375 -0.296875,0 -0.640625,0.03125 -0.9375,0.03125 -0.375,0 -0.75,-0.03125 -1.109375,-0.03125 -0.0625,0 -0.1875,0 -0.1875,0.203125 0,0.0625 0.046875,0.09375 0.109375,0.109375 0.09375,0.015625 0.40625,0.03125 0.40625,0.3125 0,0.140625 -0.109375,0.265625 -0.1875,0.359375 z m 0,0"
               style="stroke:none"
               inkscape:connector-curvature="0" />
          </symbol>
          <symbol
             id="textext-95a287da-1"
             overflow="visible"
             style="overflow:visible">
            <path
               id="path3315"
               d="m 1.90625,-2.328125 c 0.546875,0 0.9375,0.375 0.9375,1.125 0,0.859375 -0.515625,1.125 -0.90625,1.125 -0.28125,0 -0.90625,-0.078125 -1.1875,-0.5 0.328125,0 0.40625,-0.234375 0.40625,-0.390625 0,-0.21875 -0.171875,-0.375 -0.390625,-0.375 -0.1875,0 -0.390625,0.125 -0.390625,0.40625 0,0.65625 0.71875,1.078125 1.5625,1.078125 0.96875,0 1.640625,-0.65625 1.640625,-1.34375 0,-0.546875 -0.4375,-1.09375 -1.203125,-1.25 0.71875,-0.265625 0.984375,-0.78125 0.984375,-1.21875 0,-0.546875 -0.625,-0.953125 -1.40625,-0.953125 -0.765625,0 -1.359375,0.375 -1.359375,0.9375 0,0.234375 0.15625,0.359375 0.359375,0.359375 0.21875,0 0.359375,-0.15625 0.359375,-0.34375 0,-0.203125 -0.140625,-0.359375 -0.359375,-0.375 0.25,-0.296875 0.71875,-0.375 0.984375,-0.375 0.3125,0 0.75,0.15625 0.75,0.75 0,0.296875 -0.09375,0.625 -0.28125,0.828125 -0.21875,0.265625 -0.421875,0.28125 -0.765625,0.3125 -0.171875,0.015625 -0.1875,0.015625 -0.21875,0.015625 -0.015625,0 -0.078125,0.015625 -0.078125,0.09375 0,0.09375 0.0625,0.09375 0.1875,0.09375 z m 0,0"
               style="stroke:none"
               inkscape:connector-curvature="0" />
          </symbol>
        </g>
      </defs>
      <g
         id="textext-95a287da-2">
        <g
           id="g3318"
           style="fill:#000000;fill-opacity:1">
          <use
             id="use3320"
             y="134.765"
             x="223.43201"
             xlink:href="#textext-95a287da-0"
             width="301.18109"
             height="177.16534" />
        </g>
        <g
           id="g3322"
           style="fill:#000000;fill-opacity:1">
          <use
             id="use3324"
             y="136.259"
             x="231.686"
             xlink:href="#textext-95a287da-1"
             width="301.18109"
             height="177.16534" />
        </g>
      </g>
    </g>
    <g
       ns0:text="$X_{1}$"
       ns0:preamble=""
       transform="matrix(1.2,0,0,1.2,-253.48005,868.42457)"
       id="g3644">
      <defs
         id="defs3646">
        <g
           id="g3648">
          <symbol
             overflow="visible"
             id="textext-659ef9f7-0"
             style="overflow:visible">
            <path
               style="stroke:none"
               d="M 4.828125,-4.09375 4,-6.078125 c -0.03125,-0.078125 -0.046875,-0.125 -0.046875,-0.125 0,-0.0625 0.15625,-0.25 0.578125,-0.296875 0.109375,-0.015625 0.203125,-0.015625 0.203125,-0.1875 0,-0.125 -0.125,-0.125 -0.15625,-0.125 -0.40625,0 -0.828125,0.03125 -1.25,0.03125 -0.25,0 -0.859375,-0.03125 -1.109375,-0.03125 -0.0625,0 -0.1875,0 -0.1875,0.203125 C 2.03125,-6.5 2.140625,-6.5 2.265625,-6.5 c 0.59375,0 0.65625,0.09375 0.75,0.3125 l 1.171875,2.78125 -2.109375,2.265625 -0.125,0.109375 C 1.46875,-0.5 1,-0.34375 0.484375,-0.3125 c -0.125,0.015625 -0.21875,0.015625 -0.21875,0.203125 0,0.015625 0,0.109375 0.140625,0.109375 0.296875,0 0.625,-0.03125 0.921875,-0.03125 C 1.703125,-0.03125 2.09375,0 2.453125,0 2.515625,0 2.625,0 2.625,-0.203125 2.625,-0.296875 2.53125,-0.3125 2.515625,-0.3125 c -0.09375,0 -0.40625,-0.03125 -0.40625,-0.3125 0,-0.15625 0.15625,-0.3125 0.265625,-0.4375 L 3.40625,-2.140625 4.296875,-3.125 l 1,2.390625 c 0.046875,0.109375 0.0625,0.109375 0.0625,0.140625 0,0.078125 -0.203125,0.25 -0.578125,0.28125 C 4.671875,-0.296875 4.578125,-0.296875 4.578125,-0.125 4.578125,0 4.6875,0 4.71875,0 5,0 5.703125,-0.03125 5.984375,-0.03125 6.234375,-0.03125 6.84375,0 7.09375,0 c 0.0625,0 0.1875,0 0.1875,-0.1875 0,-0.125 -0.109375,-0.125 -0.1875,-0.125 -0.65625,0 -0.6875,-0.03125 -0.859375,-0.4375 C 5.859375,-1.671875 5.1875,-3.234375 4.953125,-3.828125 5.625,-4.53125 6.671875,-5.71875 7,-5.984375 7.28125,-6.234375 7.671875,-6.46875 8.265625,-6.5 c 0.125,-0.015625 0.21875,-0.015625 0.21875,-0.203125 0,0 0,-0.109375 -0.125,-0.109375 -0.296875,0 -0.640625,0.03125 -0.9375,0.03125 -0.375,0 -0.75,-0.03125 -1.109375,-0.03125 -0.0625,0 -0.1875,0 -0.1875,0.203125 0,0.0625 0.046875,0.09375 0.109375,0.109375 0.09375,0.015625 0.40625,0.03125 0.40625,0.3125 0,0.140625 -0.109375,0.265625 -0.1875,0.359375 z m 0,0"
               id="path3651"
               inkscape:connector-curvature="0" />
          </symbol>
          <symbol
             overflow="visible"
             id="textext-659ef9f7-1"
             style="overflow:visible">
            <path
               style="stroke:none"
               d="m 2.328125,-4.4375 c 0,-0.1875 0,-0.1875 -0.203125,-0.1875 -0.453125,0.4375 -1.078125,0.4375 -1.359375,0.4375 l 0,0.25 c 0.15625,0 0.625,0 1,-0.1875 l 0,3.546875 c 0,0.234375 0,0.328125 -0.6875,0.328125 l -0.265625,0 0,0.25 c 0.125,0 0.984375,-0.03125 1.234375,-0.03125 0.21875,0 1.09375,0.03125 1.25,0.03125 l 0,-0.25 -0.265625,0 c -0.703125,0 -0.703125,-0.09375 -0.703125,-0.328125 z m 0,0"
               id="path3654"
               inkscape:connector-curvature="0" />
          </symbol>
        </g>
      </defs>
      <g
         id="textext-659ef9f7-2">
        <g
           style="fill:#000000;fill-opacity:1"
           id="g3657">
          <use
             xlink:href="#textext-659ef9f7-0"
             x="223.43201"
             y="134.765"
             id="use3659"
             width="301.18109"
             height="177.16534" />
        </g>
        <g
           style="fill:#000000;fill-opacity:1"
           id="g3661">
          <use
             xlink:href="#textext-659ef9f7-1"
             x="231.686"
             y="136.259"
             id="use3663"
             width="301.18109"
             height="177.16534" />
        </g>
      </g>
    </g>
    <g
       id="g3975"
       transform="matrix(1.2,0,0,1.2,5.6229137,795.872)"
       ns0:preamble=""
       ns0:text="$X_{2}$">
      <defs
         id="defs3977">
        <g
           id="g3979">
          <symbol
             id="textext-1bc33017-0"
             overflow="visible"
             style="overflow:visible">
            <path
               id="path3982"
               d="M 4.828125,-4.09375 4,-6.078125 c -0.03125,-0.078125 -0.046875,-0.125 -0.046875,-0.125 0,-0.0625 0.15625,-0.25 0.578125,-0.296875 0.109375,-0.015625 0.203125,-0.015625 0.203125,-0.1875 0,-0.125 -0.125,-0.125 -0.15625,-0.125 -0.40625,0 -0.828125,0.03125 -1.25,0.03125 -0.25,0 -0.859375,-0.03125 -1.109375,-0.03125 -0.0625,0 -0.1875,0 -0.1875,0.203125 C 2.03125,-6.5 2.140625,-6.5 2.265625,-6.5 c 0.59375,0 0.65625,0.09375 0.75,0.3125 l 1.171875,2.78125 -2.109375,2.265625 -0.125,0.109375 C 1.46875,-0.5 1,-0.34375 0.484375,-0.3125 c -0.125,0.015625 -0.21875,0.015625 -0.21875,0.203125 0,0.015625 0,0.109375 0.140625,0.109375 0.296875,0 0.625,-0.03125 0.921875,-0.03125 C 1.703125,-0.03125 2.09375,0 2.453125,0 2.515625,0 2.625,0 2.625,-0.203125 2.625,-0.296875 2.53125,-0.3125 2.515625,-0.3125 c -0.09375,0 -0.40625,-0.03125 -0.40625,-0.3125 0,-0.15625 0.15625,-0.3125 0.265625,-0.4375 L 3.40625,-2.140625 4.296875,-3.125 l 1,2.390625 c 0.046875,0.109375 0.0625,0.109375 0.0625,0.140625 0,0.078125 -0.203125,0.25 -0.578125,0.28125 C 4.671875,-0.296875 4.578125,-0.296875 4.578125,-0.125 4.578125,0 4.6875,0 4.71875,0 5,0 5.703125,-0.03125 5.984375,-0.03125 6.234375,-0.03125 6.84375,0 7.09375,0 c 0.0625,0 0.1875,0 0.1875,-0.1875 0,-0.125 -0.109375,-0.125 -0.1875,-0.125 -0.65625,0 -0.6875,-0.03125 -0.859375,-0.4375 C 5.859375,-1.671875 5.1875,-3.234375 4.953125,-3.828125 5.625,-4.53125 6.671875,-5.71875 7,-5.984375 7.28125,-6.234375 7.671875,-6.46875 8.265625,-6.5 c 0.125,-0.015625 0.21875,-0.015625 0.21875,-0.203125 0,0 0,-0.109375 -0.125,-0.109375 -0.296875,0 -0.640625,0.03125 -0.9375,0.03125 -0.375,0 -0.75,-0.03125 -1.109375,-0.03125 -0.0625,0 -0.1875,0 -0.1875,0.203125 0,0.0625 0.046875,0.09375 0.109375,0.109375 0.09375,0.015625 0.40625,0.03125 0.40625,0.3125 0,0.140625 -0.109375,0.265625 -0.1875,0.359375 z m 0,0"
               style="stroke:none"
               inkscape:connector-curvature="0" />
          </symbol>
          <symbol
             id="textext-1bc33017-1"
             overflow="visible"
             style="overflow:visible">
            <path
               id="path3985"
               d="m 3.515625,-1.265625 -0.234375,0 c -0.015625,0.15625 -0.09375,0.5625 -0.1875,0.625 -0.046875,0.046875 -0.578125,0.046875 -0.6875,0.046875 l -1.28125,0 c 0.734375,-0.640625 0.984375,-0.84375 1.390625,-1.171875 0.515625,-0.40625 1,-0.84375 1,-1.5 0,-0.84375 -0.734375,-1.359375 -1.625,-1.359375 -0.859375,0 -1.453125,0.609375 -1.453125,1.25 0,0.34375 0.296875,0.390625 0.375,0.390625 0.15625,0 0.359375,-0.125 0.359375,-0.375 0,-0.125 -0.046875,-0.375 -0.40625,-0.375 C 0.984375,-4.21875 1.453125,-4.375 1.78125,-4.375 c 0.703125,0 1.0625,0.546875 1.0625,1.109375 0,0.609375 -0.4375,1.078125 -0.65625,1.328125 L 0.515625,-0.265625 C 0.4375,-0.203125 0.4375,-0.1875 0.4375,0 l 2.875,0 z m 0,0"
               style="stroke:none"
               inkscape:connector-curvature="0" />
          </symbol>
        </g>
      </defs>
      <g
         id="textext-1bc33017-2">
        <g
           id="g3988"
           style="fill:#000000;fill-opacity:1">
          <use
             id="use3990"
             y="134.765"
             x="223.43201"
             xlink:href="#textext-1bc33017-0"
             width="301.18109"
             height="177.16534" />
        </g>
        <g
           id="g3992"
           style="fill:#000000;fill-opacity:1">
          <use
             id="use3994"
             y="136.259"
             x="231.686"
             xlink:href="#textext-1bc33017-1"
             width="301.18109"
             height="177.16534" />
        </g>
      </g>
    </g>
  </g>
</svg>
