<?xml version="1.0" encoding="UTF-8" standalone="no"?>
<!-- Created with Inkscape (http://www.inkscape.org/) -->

<svg
   xmlns:ns0="http://www.iki.fi/pav/software/textext/"
   xmlns:dc="http://purl.org/dc/elements/1.1/"
   xmlns:cc="http://creativecommons.org/ns#"
   xmlns:rdf="http://www.w3.org/1999/02/22-rdf-syntax-ns#"
   xmlns:svg="http://www.w3.org/2000/svg"
   xmlns="http://www.w3.org/2000/svg"
   xmlns:xlink="http://www.w3.org/1999/xlink"
   xmlns:sodipodi="http://sodipodi.sourceforge.net/DTD/sodipodi-0.dtd"
   xmlns:inkscape="http://www.inkscape.org/namespaces/inkscape"
   width="318.89764"
   height="283.46457"
   id="svg2"
   version="1.1"
   inkscape:version="0.47pre4 r22446"
   sodipodi:docname="fig2.3.svg">
  <sodipodi:namedview
     id="base"
     pagecolor="#ffffff"
     bordercolor="#666666"
     borderopacity="1.0"
     inkscape:pageopacity="0.0"
     inkscape:pageshadow="2"
     inkscape:zoom="3.959798"
     inkscape:cx="89.989475"
     inkscape:cy="191.9851"
     inkscape:document-units="px"
     inkscape:current-layer="layer1"
     showgrid="false"
     units="cm"
     inkscape:window-width="1024"
     inkscape:window-height="685"
     inkscape:window-x="0"
     inkscape:window-y="30"
     inkscape:window-maximized="1" />
  <defs
     id="defs4">
    <marker
       style="overflow:visible;"
       id="Arrow1Mend"
       refX="0.0"
       refY="0.0"
       orient="auto"
       inkscape:stockid="Arrow1Mend">
      <path
         transform="scale(0.4) rotate(180) translate(10,0)"
         style="fill-rule:evenodd;stroke:#000000;stroke-width:1.0pt;marker-start:none;"
         d="M 0.0,0.0 L 5.0,-5.0 L -12.5,0.0 L 5.0,5.0 L 0.0,0.0 z "
         id="path3642" />
    </marker>
    <inkscape:perspective
       id="perspective10"
       inkscape:persp3d-origin="372.04724 : 350.78739 : 1"
       inkscape:vp_z="744.09448 : 526.18109 : 1"
       inkscape:vp_y="0 : 1000 : 0"
       inkscape:vp_x="0 : 526.18109 : 1"
       sodipodi:type="inkscape:persp3d" />
  </defs>
  <metadata
     id="metadata7">
    <rdf:RDF>
      <cc:Work
         rdf:about="">
        <dc:format>image/svg+xml</dc:format>
        <dc:type
           rdf:resource="http://purl.org/dc/dcmitype/StillImage" />
        <dc:title />
      </cc:Work>
    </rdf:RDF>
  </metadata>
  <g
     transform="translate(0,-768.89633)"
     id="layer1"
     inkscape:groupmode="layer"
     inkscape:label="Layer 1">
    <path
       transform="matrix(0.64146383,-0.03656736,0.03656736,0.64146383,-8.1463302,761.69992)"
       d="m 486.42857,217.036 c 0,56.41194 -91.46183,102.14286 -204.28572,102.14286 -112.82389,0 -204.285718,-45.73092 -204.285718,-102.14286 0,-56.41195 91.461828,-102.14286 204.285718,-102.14286 112.82389,0 204.28572,45.73091 204.28572,102.14286 z"
       sodipodi:ry="102.14286"
       sodipodi:rx="204.28572"
       sodipodi:cy="217.036"
       sodipodi:cx="282.14285"
       id="path2816"
       style="fill:none;stroke:#000000;stroke-width:2.33461118;stroke-linecap:round;stroke-linejoin:round;stroke-miterlimit:4;stroke-opacity:1;stroke-dasharray:none;stroke-dashoffset:0"
       sodipodi:type="arc" />
    <path
       sodipodi:nodetypes="cz"
       id="path3590"
       d="m 178.20491,825.50797 c 40.49158,18.05741 38.17257,114.05305 4.5919,130.43231"
       style="fill:none;stroke:#000000;stroke-width:1.25;stroke-linecap:butt;stroke-linejoin:miter;stroke-miterlimit:4;stroke-opacity:1;stroke-dasharray:none" />
    <path
       style="fill:none;stroke:#000000;stroke-width:1.25;stroke-linecap:butt;stroke-linejoin:miter;stroke-miterlimit:4;stroke-opacity:1;stroke-dasharray:3.75, 3.75;stroke-dashoffset:0"
       d="m 172.79467,826.08943 c -24.94322,17.47969 -21.67091,116.29009 4.06069,129.08202"
       id="path3592"
       sodipodi:nodetypes="cz" />
    <path
       style="fill:none;stroke:#000000;stroke-width:1.25;stroke-linecap:butt;stroke-linejoin:miter;stroke-miterlimit:4;stroke-opacity:1;stroke-dasharray:none"
       d="m 208.4467,825.24078 c 22.4229,11.3192 24.92105,46.55237 24.88482,75.07532 -0.0304,23.96216 -8.45188,45.87455 -23.09584,53.01727"
       id="path3594"
       sodipodi:nodetypes="csz" />
    <path
       sodipodi:nodetypes="cz"
       id="path3596"
       d="m 234.09274,828.58269 c 35.08488,19.51715 29.74448,104.58234 5.88499,118.44485"
       style="fill:none;stroke:#000000;stroke-width:1.25;stroke-linecap:butt;stroke-linejoin:miter;stroke-miterlimit:4;stroke-opacity:1;stroke-dasharray:none" />
    <path
       style="fill:none;stroke:#000000;stroke-width:1.25;stroke-linecap:butt;stroke-linejoin:miter;stroke-miterlimit:4;stroke-opacity:1;stroke-dasharray:none"
       d="m 263.30571,836.66986 c 29.43924,21.14797 26.73351,86.51443 2.53453,100.41866"
       id="path3598"
       sodipodi:nodetypes="cz" />
    <path
       sodipodi:nodetypes="cz"
       id="path3600"
       d="m 287.37719,848.32144 c 11.86769,10.09965 18.11265,60.39234 2.48674,73.22533"
       style="fill:none;stroke:#000000;stroke-width:1.25;stroke-linecap:butt;stroke-linejoin:miter;stroke-miterlimit:4;stroke-opacity:1;stroke-dasharray:none" />
    <path
       id="path3602"
       d="m 191.70288,836.64124 55.39649,-5.49619"
       style="fill:none;stroke:#000000;stroke-width:1.25;stroke-linecap:butt;stroke-linejoin:miter;stroke-miterlimit:4;stroke-opacity:1;stroke-dasharray:none" />
    <path
       id="path3604"
       d="m 201.96054,855.46195 76.47215,-12.9843"
       style="fill:none;stroke:#000000;stroke-width:1.25;stroke-linecap:butt;stroke-linejoin:miter;stroke-miterlimit:4;stroke-opacity:1;stroke-dasharray:none" />
    <path
       id="path3606"
       d="m 205.89221,871.6039 97.62642,-11.32545"
       style="fill:none;stroke:#000000;stroke-width:1.25;stroke-linecap:butt;stroke-linejoin:miter;stroke-miterlimit:4;stroke-opacity:1;stroke-dasharray:none" />
    <path
       id="path3608"
       d="M 208.30439,892.6674 311.66357,879.89823"
       style="fill:none;stroke:#000000;stroke-width:1.25;stroke-linecap:butt;stroke-linejoin:miter;stroke-miterlimit:4;stroke-opacity:1;stroke-dasharray:none" />
    <path
       id="path3610"
       d="M 205.78285,917.28735 307.28663,902.80498"
       style="fill:none;stroke:#000000;stroke-width:1.25;stroke-linecap:butt;stroke-linejoin:miter;stroke-miterlimit:4;stroke-opacity:1;stroke-dasharray:none" />
    <path
       id="path3612"
       d="M 198.5456,938.37801 282.954,927.22196"
       style="fill:none;stroke:#000000;stroke-width:1.25;stroke-linecap:butt;stroke-linejoin:miter;stroke-miterlimit:4;stroke-opacity:1;stroke-dasharray:none" />
    <rect
       transform="matrix(0.99797998,0.06352915,-0.0525586,0.99861784,0,0)"
       y="875.05072"
       x="140.998"
       height="11.370257"
       width="17.871193"
       id="rect3614"
       style="fill:none;stroke:#000000;stroke-width:1.65056968;stroke-linecap:round;stroke-linejoin:miter;stroke-miterlimit:4;stroke-opacity:1;stroke-dasharray:none;stroke-dashoffset:0" />
    <path
       sodipodi:nodetypes="cccc"
       id="path3622"
       d="m 94.367089,882.56053 16.468241,-7.69 15.1229,0.78246 -13.37207,8.3616"
       style="fill:none;stroke:#000000;stroke-width:1.62521362;stroke-linecap:butt;stroke-linejoin:miter;stroke-miterlimit:4;stroke-opacity:1;stroke-dasharray:none" />
    <path
       sodipodi:nodetypes="ccc"
       id="path3624"
       d="m 112.36403,895.44233 15.04725,-10.9252 0.14762,-9.38167"
       style="fill:none;stroke:#000000;stroke-width:1.65051985px;stroke-linecap:butt;stroke-linejoin:miter;stroke-opacity:1" />
    <path
       id="path3626"
       d="M 111.09692,877.96941 87.276199,823.11411"
       style="fill:none;stroke:#000000;stroke-width:1.125;stroke-linecap:butt;stroke-linejoin:miter;stroke-miterlimit:4;stroke-opacity:1;stroke-dasharray:none;marker-end:url(#Arrow1Mend)" />
    <path
       id="path3628"
       d="M 98.636199,887.46353 82.528628,876.47954"
       style="fill:none;stroke:#000000;stroke-width:1.125;stroke-linecap:butt;stroke-linejoin:miter;stroke-miterlimit:4;stroke-opacity:1;stroke-dasharray:none;marker-end:url(#Arrow1Mend)" />
    <path
       sodipodi:nodetypes="ccccc"
       id="path4262"
       d="m 87.868348,924.17512 5.332772,-8.94315 c 7.71898,0.25706 4.948354,6.17709 20.23338,2.35239 l -7.52748,11.49957 -18.038672,-4.90881 z"
       style="fill:none;stroke:#000000;stroke-width:1px;stroke-linecap:butt;stroke-linejoin:miter;stroke-opacity:1" />
    <path
       sodipodi:nodetypes="cc"
       style="fill:none;stroke:#000000;stroke-width:1.125;stroke-linecap:butt;stroke-linejoin:miter;stroke-miterlimit:4;stroke-opacity:1;stroke-dasharray:none;marker-end:url(#Arrow1Mend)"
       d="M 97.947378,922.23179 48.203026,948.73005"
       id="path4264" />
    <path
       sodipodi:nodetypes="cc"
       style="fill:none;stroke:#000000;stroke-width:1.125;stroke-linecap:butt;stroke-linejoin:miter;stroke-miterlimit:4;stroke-opacity:1;stroke-dasharray:none;marker-end:url(#Arrow1Mend)"
       d="m 63.187857,873.97315 11.640995,-8.50104"
       id="path4266" />
    <path
       id="path4268"
       d="m 31.057304,961.96597 14.055209,-7.53576"
       style="fill:none;stroke:#000000;stroke-width:1.125;stroke-linecap:butt;stroke-linejoin:miter;stroke-miterlimit:4;stroke-opacity:1;stroke-dasharray:none;marker-end:url(#Arrow1Mend)"
       sodipodi:nodetypes="cc" />
    <g
       id="g4300"
       ns0:preamble="/home/raghu/Desktop/Prism-JKB/sdst/package.tex"
       ns0:text="$\\Omega$"
       transform="matrix(1.1937554,0.12226232,-0.12226232,1.1937554,-79.000621,709.62267)">
      <defs
         id="defs4302">
        <g
           id="g4304">
          <symbol
             id="textext-41e113ac-0"
             overflow="visible"
             style="overflow:visible">
            <path
               id="path4307"
               d=""
               style="stroke:none" />
          </symbol>
          <symbol
             id="textext-41e113ac-1"
             overflow="visible"
             style="overflow:visible">
            <path
               id="path4310"
               d="m 7.125,0 0,-1.53125 -0.1875,0 c -0.015625,0.515625 -0.3125,0.625 -0.765625,0.625 l -1.359375,0 0.046875,-0.328125 c 1.265625,-0.375 2.03125,-1.359375 2.03125,-2.6875 C 6.890625,-5.71875 5.4375,-6.75 3.734375,-6.75 c -1.6875,0 -3.203125,1.078125 -3.203125,2.875 0,1.21875 0.796875,2.40625 2.046875,2.640625 l 0.015625,0.328125 -1.328125,0 c -0.484375,0 -0.75,-0.09375 -0.796875,-0.625 l -0.171875,0 0,1.53125 2.71875,0 -0.09375,-1.46875 c -1.03125,-0.375 -1.25,-1.40625 -1.25,-2.390625 0,-1.21875 0.65625,-2.546875 2.046875,-2.546875 1.4375,0 2.046875,1.375 2.046875,2.625 0,0.953125 -0.21875,1.984375 -1.25,2.3125 L 4.390625,0 7.125,0 z m 0,0"
               style="stroke:none" />
          </symbol>
        </g>
      </defs>
      <g
         id="textext-41e113ac-2">
        <g
           id="g4313"
           style="fill:#000000;fill-opacity:1">
          <use
             id="use4315"
             y="134.765"
             x="223.43201"
             xlink:href="#textext-41e113ac-1"
             width="318.89764"
             height="283.46457" />
        </g>
      </g>
    </g>
    <g
       ns0:text="$\\Gamma_{0}$"
       ns0:preamble="/home/raghu/Desktop/Prism-JKB/sdst/package.tex"
       transform="matrix(1.1937554,0.12226232,-0.12226232,1.1937554,-11.341082,713.28141)"
       id="g4415">
      <defs
         id="defs4417">
        <g
           id="g4419">
          <symbol
             style="overflow:visible"
             overflow="visible"
             id="textext-1234d77e-0">
            <path
               style="stroke:none"
               d=""
               id="path4422" />
          </symbol>
          <symbol
             style="overflow:visible"
             overflow="visible"
             id="textext-1234d77e-1">
            <path
               style="stroke:none"
               d="m 5.4375,-5.171875 -0.03125,-1.421875 -5.28125,0 0,0.1875 c 0.6875,0.046875 0.859375,0.171875 0.859375,0.890625 l 0,4.3125 c 0,0.75 -0.078125,0.96875 -0.859375,1.015625 l 0,0.1875 2.78125,0 0,-0.1875 C 2.203125,-0.21875 2,-0.359375 2,-1.09375 L 2,-5.875 c 0,-0.265625 0.046875,-0.34375 0.328125,-0.34375 l 1.34375,0 c 0.90625,0 1.359375,0.03125 1.515625,1.046875 l 0.25,0 z m 0,0"
               id="path4425" />
          </symbol>
          <symbol
             style="overflow:visible"
             overflow="visible"
             id="textext-1234d77e-2">
            <path
               style="stroke:none"
               d=""
               id="path4428" />
          </symbol>
          <symbol
             style="overflow:visible"
             overflow="visible"
             id="textext-1234d77e-3">
            <path
               style="stroke:none"
               d="m 1.765625,-4.703125 c -0.375,0 -0.671875,0.109375 -0.921875,0.359375 -0.40625,0.390625 -0.671875,1.1875 -0.671875,2 0,0.765625 0.21875,1.578125 0.546875,1.96875 0.265625,0.3125 0.625,0.46875 1.015625,0.46875 0.359375,0 0.65625,-0.109375 0.90625,-0.359375 0.40625,-0.375 0.671875,-1.1875 0.671875,-2.03125 0,-1.4375 -0.625,-2.40625 -1.546875,-2.40625 z M 1.75,-4.53125 c 0.578125,0 0.890625,0.78125 0.890625,2.25 0,1.453125 -0.296875,2.203125 -0.90625,2.203125 -0.59375,0 -0.890625,-0.75 -0.890625,-2.203125 0,-1.46875 0.3125,-2.25 0.90625,-2.25 z m 0,0"
               id="path4431" />
          </symbol>
        </g>
      </defs>
      <g
         id="textext-1234d77e-4">
        <g
           style="fill:#000000;fill-opacity:1"
           id="g4434">
          <use
             height="283.46457"
             width="318.89764"
             xlink:href="#textext-1234d77e-1"
             x="223.43201"
             y="134.765"
             id="use4436" />
        </g>
        <g
           style="fill:#000000;fill-opacity:1"
           id="g4438">
          <use
             height="283.46457"
             width="318.89764"
             xlink:href="#textext-1234d77e-3"
             x="228.97099"
             y="136.259"
             id="use4440" />
        </g>
      </g>
    </g>
    <g
       id="g4605"
       transform="matrix(1.1937554,0.12226232,-0.12226232,1.1937554,-184.83478,761.03775)"
       ns0:preamble="/home/raghu/Desktop/Prism-JKB/sdst/package.tex"
       ns0:text="$\\Gamma_{1}$">
      <defs
         id="defs4607">
        <g
           id="g4609">
          <symbol
             id="textext-cab48650-0"
             overflow="visible"
             style="overflow:visible">
            <path
               id="path4612"
               d=""
               style="stroke:none" />
          </symbol>
          <symbol
             id="textext-cab48650-1"
             overflow="visible"
             style="overflow:visible">
            <path
               id="path4615"
               d="m 5.4375,-5.171875 -0.03125,-1.421875 -5.28125,0 0,0.1875 c 0.6875,0.046875 0.859375,0.171875 0.859375,0.890625 l 0,4.3125 c 0,0.75 -0.078125,0.96875 -0.859375,1.015625 l 0,0.1875 2.78125,0 0,-0.1875 C 2.203125,-0.21875 2,-0.359375 2,-1.09375 L 2,-5.875 c 0,-0.265625 0.046875,-0.34375 0.328125,-0.34375 l 1.34375,0 c 0.90625,0 1.359375,0.03125 1.515625,1.046875 l 0.25,0 z m 0,0"
               style="stroke:none" />
          </symbol>
          <symbol
             id="textext-cab48650-2"
             overflow="visible"
             style="overflow:visible">
            <path
               id="path4618"
               d=""
               style="stroke:none" />
          </symbol>
          <symbol
             id="textext-cab48650-3"
             overflow="visible"
             style="overflow:visible">
            <path
               id="path4621"
               d="m 2.03125,-4.703125 -1.25,0.625 0,0.09375 c 0.078125,-0.03125 0.15625,-0.0625 0.1875,-0.078125 0.125,-0.046875 0.234375,-0.0625 0.3125,-0.0625 0.140625,0 0.203125,0.09375 0.203125,0.3125 l 0,3.171875 c 0,0.21875 -0.0625,0.375 -0.171875,0.453125 -0.09375,0.0625 -0.203125,0.078125 -0.484375,0.078125 L 0.828125,0 2.75,0 l 0,-0.109375 c -0.5625,0 -0.671875,-0.078125 -0.671875,-0.40625 l 0,-4.1875 -0.046875,0 z m 0,0"
               style="stroke:none" />
          </symbol>
        </g>
      </defs>
      <g
         id="textext-cab48650-4">
        <g
           id="g4624"
           style="fill:#000000;fill-opacity:1">
          <use
             id="use4626"
             y="134.765"
             x="223.43201"
             xlink:href="#textext-cab48650-1"
             width="318.89764"
             height="283.46457" />
        </g>
        <g
           id="g4628"
           style="fill:#000000;fill-opacity:1">
          <use
             id="use4630"
             y="136.259"
             x="228.97099"
             xlink:href="#textext-cab48650-3"
             width="318.89764"
             height="283.46457" />
        </g>
      </g>
    </g>
    <g
       ns0:text="$u(x)$"
       ns0:preamble="/home/raghu/Desktop/Prism-JKB/sdst/package.tex"
       transform="matrix(0.91486788,-0.77654156,0.77654156,0.91486788,-233.67345,927.40806)"
       id="g4806">
      <defs
         id="defs4808">
        <g
           id="g4810">
          <symbol
             style="overflow:visible"
             overflow="visible"
             id="textext-b480491d-0">
            <path
               style="stroke:none"
               d=""
               id="path4813" />
          </symbol>
          <symbol
             style="overflow:visible"
             overflow="visible"
             id="textext-b480491d-1">
            <path
               style="stroke:none"
               d="M 4.59375,-1.171875 C 4.078125,-0.515625 3.921875,-0.375 3.765625,-0.375 c -0.0625,0 -0.109375,-0.0625 -0.109375,-0.171875 0,-0.0625 0,-0.0625 0.1875,-0.78125 l 0.796875,-2.984375 -0.75,0 c -0.5625,1.546875 -0.625,1.703125 -1.09375,2.4375 -0.59375,0.953125 -1.078125,1.453125 -1.40625,1.453125 -0.109375,0 -0.203125,-0.09375 -0.203125,-0.25 0,-0.03125 0,-0.0625 0.015625,-0.078125 l 0.90625,-3.625 -0.03125,-0.015625 c -0.578125,0.125 -0.9375,0.1875 -1.5,0.265625 l 0,0.140625 c 0.375,0 0.40625,0 0.484375,0.0625 C 1.125,-3.90625 1.171875,-3.8125 1.171875,-3.75 c 0,0.078125 -0.046875,0.328125 -0.140625,0.671875 l -0.359375,1.40625 c -0.1875,0.71875 -0.25,1.046875 -0.25,1.234375 0,0.359375 0.171875,0.546875 0.53125,0.546875 0.703125,0 1.234375,-0.53125 2.375,-2.46875 C 3.046875,-1.28125 2.875,-0.59375 2.875,-0.390625 c 0,0.296875 0.1875,0.484375 0.484375,0.484375 0.46875,0 0.703125,-0.203125 1.375,-1.171875 L 4.59375,-1.171875 z m 0,0"
               id="path4816" />
          </symbol>
          <symbol
             style="overflow:visible"
             overflow="visible"
             id="textext-b480491d-2">
            <path
               style="stroke:none"
               d="M 4,-1.109375 C 3.921875,-1.015625 3.875,-0.953125 3.78125,-0.84375 3.5625,-0.53125 3.4375,-0.4375 3.328125,-0.4375 3.1875,-0.4375 3.09375,-0.5625 3.015625,-0.84375 3,-0.921875 2.984375,-0.984375 2.984375,-1.015625 2.734375,-2.03125 2.625,-2.484375 2.625,-2.625 c 0.4375,-0.78125 0.796875,-1.21875 0.96875,-1.21875 0.0625,0 0.140625,0.03125 0.25,0.078125 0.109375,0.078125 0.1875,0.09375 0.265625,0.09375 0.203125,0 0.34375,-0.140625 0.34375,-0.359375 0,-0.203125 -0.171875,-0.359375 -0.40625,-0.359375 -0.4375,0 -0.8125,0.359375 -1.5,1.421875 L 2.4375,-3.515625 c -0.140625,-0.6875 -0.25,-0.875 -0.53125,-0.875 -0.21875,0 -0.546875,0.078125 -1.15625,0.28125 L 0.640625,-4.0625 0.671875,-3.921875 C 1.0625,-4 1.140625,-4.03125 1.234375,-4.03125 c 0.25,0 0.3125,0.09375 0.453125,0.6875 l 0.28125,1.234375 -0.8125,1.15625 C 0.953125,-0.640625 0.75,-0.46875 0.640625,-0.46875 0.59375,-0.46875 0.484375,-0.5 0.390625,-0.5625 0.265625,-0.625 0.15625,-0.65625 0.0625,-0.65625 c -0.1875,0 -0.328125,0.140625 -0.328125,0.34375 0,0.265625 0.203125,0.421875 0.5,0.421875 0.296875,0 0.421875,-0.09375 0.921875,-0.703125 0.265625,-0.3125 0.484375,-0.578125 0.890625,-1.15625 l 0.3125,1.1875 c 0.125,0.515625 0.25,0.671875 0.578125,0.671875 0.375,0 0.625,-0.234375 1.203125,-1.140625 L 4,-1.109375 z m 0,0"
               id="path4819" />
          </symbol>
          <symbol
             style="overflow:visible"
             overflow="visible"
             id="textext-b480491d-3">
            <path
               style="stroke:none"
               d=""
               id="path4822" />
          </symbol>
          <symbol
             style="overflow:visible"
             overflow="visible"
             id="textext-b480491d-4">
            <path
               style="stroke:none"
               d="M 2.9375,-6.734375 C 2.203125,-6.265625 1.90625,-6 1.53125,-5.546875 c -0.703125,0.875 -1.046875,1.875 -1.046875,3.03125 0,1.265625 0.359375,2.25 1.234375,3.265625 0.421875,0.46875 0.671875,0.703125 1.1875,1.015625 l 0.125,-0.15625 C 2.234375,0.984375 1.953125,0.625 1.6875,-0.125 1.453125,-0.78125 1.328125,-1.546875 1.328125,-2.546875 1.328125,-3.59375 1.46875,-4.40625 1.734375,-5.03125 2.015625,-5.640625 2.3125,-6 3.03125,-6.578125 L 2.9375,-6.734375 z m 0,0"
               id="path4825" />
          </symbol>
          <symbol
             style="overflow:visible"
             overflow="visible"
             id="textext-b480491d-5">
            <path
               style="stroke:none"
               d="M 0.375,1.765625 C 1.109375,1.28125 1.421875,1.03125 1.78125,0.5625 2.5,-0.296875 2.84375,-1.296875 2.84375,-2.46875 c 0,-1.265625 -0.375,-2.234375 -1.25,-3.25 C 1.1875,-6.203125 0.921875,-6.421875 0.40625,-6.734375 l -0.109375,0.15625 c 0.796875,0.625 1.0625,0.96875 1.34375,1.71875 0.234375,0.671875 0.34375,1.4375 0.34375,2.421875 0,1.046875 -0.125,1.875 -0.40625,2.484375 C 1.3125,0.671875 1,1.03125 0.296875,1.609375 L 0.375,1.765625 z m 0,0"
               id="path4828" />
          </symbol>
        </g>
      </defs>
      <g
         id="textext-b480491d-6">
        <g
           style="fill:#000000;fill-opacity:1"
           id="g4831">
          <use
             height="283.46457"
             width="318.89764"
             xlink:href="#textext-b480491d-1"
             x="223.43201"
             y="134.765"
             id="use4833" />
        </g>
        <g
           style="fill:#000000;fill-opacity:1"
           id="g4835">
          <use
             height="283.46457"
             width="318.89764"
             xlink:href="#textext-b480491d-4"
             x="228.41299"
             y="134.765"
             id="use4837" />
        </g>
        <g
           style="fill:#000000;fill-opacity:1"
           id="g4839">
          <use
             height="283.46457"
             width="318.89764"
             xlink:href="#textext-b480491d-2"
             x="232.229"
             y="134.765"
             id="use4841" />
        </g>
        <g
           style="fill:#000000;fill-opacity:1"
           id="g4843">
          <use
             height="283.46457"
             width="318.89764"
             xlink:href="#textext-b480491d-5"
             x="236.68201"
             y="134.765"
             id="use4845" />
        </g>
      </g>
    </g>
    <g
       id="g5085"
       transform="matrix(0.91486788,-0.77654156,0.77654156,0.91486788,-263.20011,1015.2799)"
       ns0:preamble="/home/raghu/Desktop/Prism-JKB/sdst/package.tex"
       ns0:text="$gd_{\\gamma}$">
      <defs
         id="defs5087">
        <g
           id="g5089">
          <symbol
             id="textext-3b649fe4-0"
             overflow="visible"
             style="overflow:visible">
            <path
               id="path5092"
               d=""
               style="stroke:none" />
          </symbol>
          <symbol
             id="textext-3b649fe4-1"
             overflow="visible"
             style="overflow:visible">
            <path
               id="path5095"
               d="m 4.703125,-4.03125 -0.609375,0 c -0.03125,0 -0.078125,-0.03125 -0.15625,-0.078125 -0.265625,-0.1875 -0.59375,-0.28125 -0.984375,-0.28125 -1.09375,0 -2,0.765625 -2,1.703125 0,0.515625 0.21875,0.8125 0.796875,1.078125 -0.59375,0.390625 -0.765625,0.59375 -0.765625,0.828125 0,0.140625 0.078125,0.25 0.265625,0.390625 -0.984375,0.65625 -1.171875,0.84375 -1.171875,1.3125 0,0.6875 0.65625,1.125 1.671875,1.125 1.25,0 2.09375,-0.578125 2.09375,-1.453125 0,-0.625 -0.484375,-1.0625 -1.4375,-1.3125 -0.4375,-0.109375 -0.6875,-0.265625 -0.6875,-0.421875 0,-0.140625 0.21875,-0.40625 0.359375,-0.40625 0.015625,0 0.03125,0 0.0625,0.015625 0.078125,0.015625 0.21875,0.03125 0.3125,0.03125 0.90625,0 1.84375,-0.8125 1.84375,-1.59375 0,-0.15625 -0.03125,-0.359375 -0.09375,-0.5625 l 0.5,0 0,-0.375 z m -3.234375,3.75 c 0.015625,0 0.03125,0.015625 0.0625,0.015625 0.03125,0.015625 0.125,0.046875 0.28125,0.09375 1.0625,0.328125 1.421875,0.609375 1.421875,1.0625 0,0.546875 -0.578125,0.9375 -1.34375,0.9375 -0.796875,0 -1.265625,-0.375 -1.265625,-1.015625 0,-0.234375 0.0625,-0.40625 0.21875,-0.59375 0.140625,-0.171875 0.546875,-0.5 0.625,-0.5 z m 1.484375,-3.890625 c 0.359375,0 0.5625,0.234375 0.5625,0.703125 0,0.34375 -0.125,0.78125 -0.3125,1.125 -0.21875,0.40625 -0.53125,0.625 -0.875,0.625 -0.375,0 -0.59375,-0.28125 -0.59375,-0.75 0,-0.90625 0.5625,-1.703125 1.21875,-1.703125 z m 0,0"
               style="stroke:none" />
          </symbol>
          <symbol
             id="textext-3b649fe4-2"
             overflow="visible"
             style="overflow:visible">
            <path
               id="path5098"
               d="m 4.609375,-1.109375 c -0.53125,0.625 -0.640625,0.703125 -0.8125,0.703125 -0.09375,0 -0.171875,-0.078125 -0.171875,-0.1875 0,-0.140625 0.3125,-1.359375 0.640625,-2.453125 C 4.53125,-3.96875 4.75,-4.765625 5.25,-6.765625 L 5.203125,-6.8125 c -0.53125,0.109375 -0.890625,0.171875 -1.53125,0.234375 l 0,0.171875 c 0.5625,0.015625 0.625,0.046875 0.625,0.25 0,0.140625 -0.015625,0.1875 -0.15625,0.703125 L 3.703125,-3.8125 C 3.625,-4.234375 3.453125,-4.390625 3.0625,-4.390625 c -1.296875,0 -2.90625,1.875 -2.90625,3.359375 0,0.71875 0.390625,1.140625 1.046875,1.140625 0.671875,0 1.109375,-0.3125 1.78125,-1.3125 -0.109375,0.5 -0.125,0.65625 -0.125,0.890625 0,0.265625 0.171875,0.4375 0.421875,0.4375 0.421875,0 0.9375,-0.40625 1.453125,-1.125 l -0.125,-0.109375 z m -1.515625,-3.0625 c 0.3125,0.03125 0.453125,0.21875 0.453125,0.578125 0,1.515625 -1.03125,3.21875 -1.953125,3.21875 -0.34375,0 -0.578125,-0.265625 -0.578125,-0.65625 0,-0.828125 0.5,-1.984375 1.15625,-2.671875 C 2.453125,-4 2.828125,-4.1875 3.09375,-4.171875 z m 0,0"
               style="stroke:none" />
          </symbol>
          <symbol
             id="textext-3b649fe4-3"
             overflow="visible"
             style="overflow:visible">
            <path
               id="path5101"
               d=""
               style="stroke:none" />
          </symbol>
          <symbol
             id="textext-3b649fe4-4"
             overflow="visible"
             style="overflow:visible">
            <path
               id="path5104"
               d="M 3.703125,-3.0625 3.1875,-2.96875 C 2.875,-2.203125 2.5,-1.46875 2,-0.8125 2.03125,-1.484375 2.078125,-3.078125 1.09375,-3.078125 c -0.46875,0 -1.078125,0.625 -1.078125,1.046875 0,0.015625 0.015625,0.046875 0.046875,0.046875 0.140625,0 0.125,-0.59375 0.8125,-0.59375 0.734375,0 0.765625,1.421875 0.765625,1.9375 0,0.171875 -0.015625,0.328125 -0.015625,0.515625 -0.234375,0.296875 -0.796875,1 -0.796875,1.390625 0,0.125 0.0625,0.171875 0.1875,0.171875 0.578125,0 0.6875,-1.171875 0.875,-1.578125 0.109375,-0.25 0.40625,-0.59375 0.5625,-0.828125 0.46875,-0.640625 0.96875,-1.34375 1.25,-2.09375 z m 0,0"
               style="stroke:none" />
          </symbol>
        </g>
      </defs>
      <g
         id="textext-3b649fe4-5">
        <g
           id="g5107"
           style="fill:#000000;fill-opacity:1">
          <use
             id="use5109"
             y="134.765"
             x="223.43201"
             xlink:href="#textext-3b649fe4-1"
             width="318.89764"
             height="283.46457" />
          <use
             id="use5111"
             y="134.765"
             x="228.4133"
             xlink:href="#textext-3b649fe4-2"
             width="318.89764"
             height="283.46457" />
        </g>
        <g
           id="g5113"
           style="fill:#000000;fill-opacity:1">
          <use
             id="use5115"
             y="136.259"
             x="233.395"
             xlink:href="#textext-3b649fe4-4"
             width="318.89764"
             height="283.46457" />
        </g>
      </g>
    </g>
    <g
       ns0:text="$dx$"
       ns0:preamble="/home/raghu/Desktop/Prism-JKB/sdst/package.tex"
       transform="matrix(1.0978056,-0.03615066,0.03615066,1.0978056,-151.8407,752.96585)"
       id="g5393">
      <defs
         id="defs5395">
        <g
           id="g5397">
          <symbol
             style="overflow:visible"
             overflow="visible"
             id="textext-db9124fe-0">
            <path
               style="stroke:none"
               d=""
               id="path5400" />
          </symbol>
          <symbol
             style="overflow:visible"
             overflow="visible"
             id="textext-db9124fe-1">
            <path
               style="stroke:none"
               d="m 4.609375,-1.109375 c -0.53125,0.625 -0.640625,0.703125 -0.8125,0.703125 -0.09375,0 -0.171875,-0.078125 -0.171875,-0.1875 0,-0.140625 0.3125,-1.359375 0.640625,-2.453125 C 4.53125,-3.96875 4.75,-4.765625 5.25,-6.765625 L 5.203125,-6.8125 c -0.53125,0.109375 -0.890625,0.171875 -1.53125,0.234375 l 0,0.171875 c 0.5625,0.015625 0.625,0.046875 0.625,0.25 0,0.140625 -0.015625,0.1875 -0.15625,0.703125 L 3.703125,-3.8125 C 3.625,-4.234375 3.453125,-4.390625 3.0625,-4.390625 c -1.296875,0 -2.90625,1.875 -2.90625,3.359375 0,0.71875 0.390625,1.140625 1.046875,1.140625 0.671875,0 1.109375,-0.3125 1.78125,-1.3125 -0.109375,0.5 -0.125,0.65625 -0.125,0.890625 0,0.265625 0.171875,0.4375 0.421875,0.4375 0.421875,0 0.9375,-0.40625 1.453125,-1.125 l -0.125,-0.109375 z m -1.515625,-3.0625 c 0.3125,0.03125 0.453125,0.21875 0.453125,0.578125 0,1.515625 -1.03125,3.21875 -1.953125,3.21875 -0.34375,0 -0.578125,-0.265625 -0.578125,-0.65625 0,-0.828125 0.5,-1.984375 1.15625,-2.671875 C 2.453125,-4 2.828125,-4.1875 3.09375,-4.171875 z m 0,0"
               id="path5403" />
          </symbol>
          <symbol
             style="overflow:visible"
             overflow="visible"
             id="textext-db9124fe-2">
            <path
               style="stroke:none"
               d="M 4,-1.109375 C 3.921875,-1.015625 3.875,-0.953125 3.78125,-0.84375 3.5625,-0.53125 3.4375,-0.4375 3.328125,-0.4375 3.1875,-0.4375 3.09375,-0.5625 3.015625,-0.84375 3,-0.921875 2.984375,-0.984375 2.984375,-1.015625 2.734375,-2.03125 2.625,-2.484375 2.625,-2.625 c 0.4375,-0.78125 0.796875,-1.21875 0.96875,-1.21875 0.0625,0 0.140625,0.03125 0.25,0.078125 0.109375,0.078125 0.1875,0.09375 0.265625,0.09375 0.203125,0 0.34375,-0.140625 0.34375,-0.359375 0,-0.203125 -0.171875,-0.359375 -0.40625,-0.359375 -0.4375,0 -0.8125,0.359375 -1.5,1.421875 L 2.4375,-3.515625 c -0.140625,-0.6875 -0.25,-0.875 -0.53125,-0.875 -0.21875,0 -0.546875,0.078125 -1.15625,0.28125 L 0.640625,-4.0625 0.671875,-3.921875 C 1.0625,-4 1.140625,-4.03125 1.234375,-4.03125 c 0.25,0 0.3125,0.09375 0.453125,0.6875 l 0.28125,1.234375 -0.8125,1.15625 C 0.953125,-0.640625 0.75,-0.46875 0.640625,-0.46875 0.59375,-0.46875 0.484375,-0.5 0.390625,-0.5625 0.265625,-0.625 0.15625,-0.65625 0.0625,-0.65625 c -0.1875,0 -0.328125,0.140625 -0.328125,0.34375 0,0.265625 0.203125,0.421875 0.5,0.421875 0.296875,0 0.421875,-0.09375 0.921875,-0.703125 0.265625,-0.3125 0.484375,-0.578125 0.890625,-1.15625 l 0.3125,1.1875 c 0.125,0.515625 0.25,0.671875 0.578125,0.671875 0.375,0 0.625,-0.234375 1.203125,-1.140625 L 4,-1.109375 z m 0,0"
               id="path5406" />
          </symbol>
        </g>
      </defs>
      <g
         id="textext-db9124fe-3">
        <g
           style="fill:#000000;fill-opacity:1"
           id="g5409">
          <use
             height="283.46457"
             width="318.89764"
             xlink:href="#textext-db9124fe-1"
             x="223.43201"
             y="134.765"
             id="use5411" />
        </g>
        <g
           style="fill:#000000;fill-opacity:1"
           id="g5413">
          <use
             height="283.46457"
             width="318.89764"
             xlink:href="#textext-db9124fe-2"
             x="229.18042"
             y="134.765"
             id="use5415" />
        </g>
      </g>
    </g>
    <g
       id="g5721"
       transform="matrix(1.0292964,-0.61688651,0.61688651,1.0292964,-215.93198,828.267)"
       ns0:preamble="/home/raghu/Desktop/Prism-JKB/sdst/package.tex"
       ns0:text="$fdx$">
      <defs
         id="defs5723">
        <g
           id="g5725">
          <symbol
             id="textext-5d5e019d-0"
             overflow="visible"
             style="overflow:visible">
            <path
               id="path5728"
               d=""
               style="stroke:none" />
          </symbol>
          <symbol
             id="textext-5d5e019d-1"
             overflow="visible"
             style="overflow:visible">
            <path
               id="path5731"
               d="m 0.34375,-3.953125 0.90625,0 -0.875,4.1875 c -0.21875,1.078125 -0.546875,1.625 -0.96875,1.625 -0.125,0 -0.203125,-0.078125 -0.203125,-0.171875 0,-0.015625 0.015625,-0.046875 0.046875,-0.109375 0.03125,-0.046875 0.046875,-0.09375 0.046875,-0.15625 0,-0.203125 -0.1875,-0.375 -0.390625,-0.375 -0.21875,0 -0.375,0.171875 -0.375,0.40625 0,0.34375 0.359375,0.609375 0.796875,0.609375 0.875,0 1.578125,-0.984375 1.984375,-2.8125 l 0.71875,-3.203125 1.09375,0 0.0625,-0.3125 -1.078125,0 c 0.28125,-1.5625 0.65625,-2.28125 1.203125,-2.28125 0.140625,0 0.21875,0.0625 0.21875,0.125 0,0.03125 0,0.046875 -0.03125,0.109375 -0.046875,0.078125 -0.0625,0.125 -0.0625,0.203125 0,0.234375 0.15625,0.390625 0.375,0.390625 0.21875,0 0.421875,-0.171875 0.421875,-0.390625 0,-0.375 -0.375,-0.65625 -0.859375,-0.65625 -0.5,0 -0.875,0.21875 -1.234375,0.6875 -0.3125,0.390625 -0.5,0.859375 -0.8125,1.8125 l -0.90625,0 -0.078125,0.3125 z m 0,0"
               style="stroke:none" />
          </symbol>
          <symbol
             id="textext-5d5e019d-2"
             overflow="visible"
             style="overflow:visible">
            <path
               id="path5734"
               d="m 4.609375,-1.109375 c -0.53125,0.625 -0.640625,0.703125 -0.8125,0.703125 -0.09375,0 -0.171875,-0.078125 -0.171875,-0.1875 0,-0.140625 0.3125,-1.359375 0.640625,-2.453125 C 4.53125,-3.96875 4.75,-4.765625 5.25,-6.765625 L 5.203125,-6.8125 c -0.53125,0.109375 -0.890625,0.171875 -1.53125,0.234375 l 0,0.171875 c 0.5625,0.015625 0.625,0.046875 0.625,0.25 0,0.140625 -0.015625,0.1875 -0.15625,0.703125 L 3.703125,-3.8125 C 3.625,-4.234375 3.453125,-4.390625 3.0625,-4.390625 c -1.296875,0 -2.90625,1.875 -2.90625,3.359375 0,0.71875 0.390625,1.140625 1.046875,1.140625 0.671875,0 1.109375,-0.3125 1.78125,-1.3125 -0.109375,0.5 -0.125,0.65625 -0.125,0.890625 0,0.265625 0.171875,0.4375 0.421875,0.4375 0.421875,0 0.9375,-0.40625 1.453125,-1.125 l -0.125,-0.109375 z m -1.515625,-3.0625 c 0.3125,0.03125 0.453125,0.21875 0.453125,0.578125 0,1.515625 -1.03125,3.21875 -1.953125,3.21875 -0.34375,0 -0.578125,-0.265625 -0.578125,-0.65625 0,-0.828125 0.5,-1.984375 1.15625,-2.671875 C 2.453125,-4 2.828125,-4.1875 3.09375,-4.171875 z m 0,0"
               style="stroke:none" />
          </symbol>
          <symbol
             id="textext-5d5e019d-3"
             overflow="visible"
             style="overflow:visible">
            <path
               id="path5737"
               d="M 4,-1.109375 C 3.921875,-1.015625 3.875,-0.953125 3.78125,-0.84375 3.5625,-0.53125 3.4375,-0.4375 3.328125,-0.4375 3.1875,-0.4375 3.09375,-0.5625 3.015625,-0.84375 3,-0.921875 2.984375,-0.984375 2.984375,-1.015625 2.734375,-2.03125 2.625,-2.484375 2.625,-2.625 c 0.4375,-0.78125 0.796875,-1.21875 0.96875,-1.21875 0.0625,0 0.140625,0.03125 0.25,0.078125 0.109375,0.078125 0.1875,0.09375 0.265625,0.09375 0.203125,0 0.34375,-0.140625 0.34375,-0.359375 0,-0.203125 -0.171875,-0.359375 -0.40625,-0.359375 -0.4375,0 -0.8125,0.359375 -1.5,1.421875 L 2.4375,-3.515625 c -0.140625,-0.6875 -0.25,-0.875 -0.53125,-0.875 -0.21875,0 -0.546875,0.078125 -1.15625,0.28125 L 0.640625,-4.0625 0.671875,-3.921875 C 1.0625,-4 1.140625,-4.03125 1.234375,-4.03125 c 0.25,0 0.3125,0.09375 0.453125,0.6875 l 0.28125,1.234375 -0.8125,1.15625 C 0.953125,-0.640625 0.75,-0.46875 0.640625,-0.46875 0.59375,-0.46875 0.484375,-0.5 0.390625,-0.5625 0.265625,-0.625 0.15625,-0.65625 0.0625,-0.65625 c -0.1875,0 -0.328125,0.140625 -0.328125,0.34375 0,0.265625 0.203125,0.421875 0.5,0.421875 0.296875,0 0.421875,-0.09375 0.921875,-0.703125 0.265625,-0.3125 0.484375,-0.578125 0.890625,-1.15625 l 0.3125,1.1875 c 0.125,0.515625 0.25,0.671875 0.578125,0.671875 0.375,0 0.625,-0.234375 1.203125,-1.140625 L 4,-1.109375 z m 0,0"
               style="stroke:none" />
          </symbol>
        </g>
      </defs>
      <g
         id="textext-5d5e019d-4">
        <g
           id="g5740"
           style="fill:#000000;fill-opacity:1">
          <use
             id="use5742"
             y="134.765"
             x="224.92599"
             xlink:href="#textext-5d5e019d-1"
             width="318.89764"
             height="283.46457" />
        </g>
        <g
           id="g5744"
           style="fill:#000000;fill-opacity:1">
          <use
             id="use5746"
             y="134.765"
             x="229.15015"
             xlink:href="#textext-5d5e019d-2"
             width="318.89764"
             height="283.46457" />
        </g>
        <g
           id="g5748"
           style="fill:#000000;fill-opacity:1">
          <use
             id="use5750"
             y="134.765"
             x="234.89856"
             xlink:href="#textext-5d5e019d-3"
             width="318.89764"
             height="283.46457" />
        </g>
      </g>
    </g>
    <path
       id="path5897"
       d="m 90.796885,819.89966 8.119371,-5.92932"
       style="fill:none;stroke:#000000;stroke-width:0.784666;stroke-linecap:butt;stroke-linejoin:miter;stroke-miterlimit:4;stroke-opacity:1;stroke-dasharray:none;marker-end:url(#Arrow1Mend)"
       sodipodi:nodetypes="cc" />
  </g>
</svg>
