<?xml version="1.0" encoding="UTF-8" standalone="no"?>
<!-- Created with Inkscape (http://www.inkscape.org/) -->

<svg
   xmlns:ns0="http://www.iki.fi/pav/software/textext/"
   xmlns:dc="http://purl.org/dc/elements/1.1/"
   xmlns:cc="http://creativecommons.org/ns#"
   xmlns:rdf="http://www.w3.org/1999/02/22-rdf-syntax-ns#"
   xmlns:svg="http://www.w3.org/2000/svg"
   xmlns="http://www.w3.org/2000/svg"
   xmlns:xlink="http://www.w3.org/1999/xlink"
   xmlns:sodipodi="http://sodipodi.sourceforge.net/DTD/sodipodi-0.dtd"
   xmlns:inkscape="http://www.inkscape.org/namespaces/inkscape"
   width="248.03149"
   height="212.59842"
   id="svg2"
   version="1.1"
   inkscape:version="0.48.0 r9654"
   sodipodi:docname="fig2.1.svg">
  <sodipodi:namedview
     id="base"
     pagecolor="#ffffff"
     bordercolor="#666666"
     borderopacity="1.0"
     inkscape:pageopacity="0.0"
     inkscape:pageshadow="2"
     inkscape:zoom="1.979899"
     inkscape:cx="122.52828"
     inkscape:cy="108.21679"
     inkscape:document-units="px"
     inkscape:current-layer="layer1"
     showgrid="false"
     units="cm"
     inkscape:window-width="1024"
     inkscape:window-height="693"
     inkscape:window-x="0"
     inkscape:window-y="25"
     inkscape:window-maximized="1" />
  <defs
     id="defs4">
    <marker
       inkscape:stockid="Arrow1Send"
       orient="auto"
       refY="0"
       refX="0"
       id="Arrow1Send"
       style="overflow:visible">
      <path
         id="path3608"
         d="M 0,0 5,-5 -12.5,0 5,5 0,0 z"
         style="fill-rule:evenodd;stroke:#000000;stroke-width:1pt;marker-start:none"
         transform="matrix(-0.2,0,0,-0.2,-1.2,0)"
         inkscape:connector-curvature="0" />
    </marker>
    <marker
       inkscape:stockid="Arrow1Mend"
       orient="auto"
       refY="0"
       refX="0"
       id="Arrow1Mend"
       style="overflow:visible">
      <path
         id="path3602"
         d="M 0,0 5,-5 -12.5,0 5,5 0,0 z"
         style="fill-rule:evenodd;stroke:#000000;stroke-width:1pt;marker-start:none"
         transform="matrix(-0.4,0,0,-0.4,-4,0)"
         inkscape:connector-curvature="0" />
    </marker>
    <marker
       inkscape:stockid="Arrow1Mstart"
       orient="auto"
       refY="0"
       refX="0"
       id="Arrow1Mstart"
       style="overflow:visible">
      <path
         id="path3599"
         d="M 0,0 5,-5 -12.5,0 5,5 0,0 z"
         style="fill-rule:evenodd;stroke:#000000;stroke-width:1pt;marker-start:none"
         transform="matrix(0.4,0,0,0.4,4,0)"
         inkscape:connector-curvature="0" />
    </marker>
    <inkscape:perspective
       sodipodi:type="inkscape:persp3d"
       inkscape:vp_x="0 : 526.18109 : 1"
       inkscape:vp_y="0 : 1000 : 0"
       inkscape:vp_z="744.09448 : 526.18109 : 1"
       inkscape:persp3d-origin="372.04724 : 350.78739 : 1"
       id="perspective10" />
  </defs>
  <metadata
     id="metadata7">
    <rdf:RDF>
      <cc:Work
         rdf:about="">
        <dc:format>image/svg+xml</dc:format>
        <dc:type
           rdf:resource="http://purl.org/dc/dcmitype/StillImage" />
        <dc:title />
      </cc:Work>
    </rdf:RDF>
  </metadata>
  <g
     inkscape:label="Layer 1"
     inkscape:groupmode="layer"
     id="layer1"
     transform="translate(0,-839.76256)">
    <path
       style="fill:none;stroke:#000000;stroke-width:1.5;stroke-linecap:butt;stroke-linejoin:miter;stroke-miterlimit:4;stroke-opacity:1;stroke-dasharray:none;marker-start:url(#Arrow1Mstart);marker-end:url(#Arrow1Mend)"
       d="m 61.433648,864.71837 0,62.13234 -43.676508,96.42139"
       id="path2816"
       sodipodi:nodetypes="ccc"
       inkscape:connector-curvature="0" />
    <path
       style="fill:none;stroke:#000000;stroke-width:1.5;stroke-linecap:butt;stroke-linejoin:miter;stroke-miterlimit:4;stroke-opacity:1;stroke-dasharray:none;marker-end:url(#Arrow1Mend)"
       d="M 61.433648,926.49357 224.64794,922.20786"
       id="path4226"
       sodipodi:nodetypes="cc"
       inkscape:connector-curvature="0" />
    <path
       style="fill:none;stroke:#000000;stroke-width:0.99425566px;stroke-linecap:butt;stroke-linejoin:miter;stroke-opacity:1"
       d="m 80.035795,969.01843 c -0.08019,-2.51169 1.077216,-8.20242 5.072548,-11.90592 9.523667,-8.82801 28.607377,-16.1082 50.679447,-16.88784 22.07208,-0.77965 45.4105,2.34971 56.04163,9.16035 4.33267,2.77565 6.73538,11.04496 6.80923,13.59168"
       id="path4414"
       sodipodi:nodetypes="cszss"
       inkscape:connector-curvature="0" />
    <path
       sodipodi:nodetypes="cssss"
       id="path4418"
       d="m 80.013032,968.17223 c 0.162151,2.53162 1.865209,8.13833 6.207363,11.47438 10.350395,7.95249 32.975505,14.28009 53.231645,13.04619 23.92552,-1.4575 44.0143,-7.70633 53.96169,-15.5757 4.05402,-3.2071 5.65895,-11.62222 5.48709,-14.18844"
       style="fill:none;stroke:#000000;stroke-width:1px;stroke-linecap:butt;stroke-linejoin:miter;stroke-opacity:1"
       inkscape:connector-curvature="0" />
    <path
       style="fill:none;stroke:#000000;stroke-width:1.25;stroke-linecap:butt;stroke-linejoin:miter;stroke-miterlimit:4;stroke-opacity:1;stroke-dasharray:3.75, 3.75;stroke-dashoffset:0"
       d="m 80.084688,967.98313 c 0.113975,2.38578 5.65729,5.25455 9.648638,8.46186 9.514184,7.64556 29.113104,10.65451 47.977474,9.80421 22.28162,-1.00453 41.3667,-2.71755 50.73643,-9.97298 3.81861,-2.95687 10.34491,-10.38581 10.22239,-12.80432"
       id="path4420"
       sodipodi:nodetypes="cssss"
       inkscape:connector-curvature="0" />
    <path
       style="fill:none;stroke:#000000;stroke-width:1;stroke-linecap:butt;stroke-linejoin:miter;stroke-miterlimit:4;stroke-opacity:1;stroke-dasharray:none"
       d="m 97.047736,957.0399 5.791884,0 -2.35965,5.60019 -5.899154,0 2.46692,-5.60019 z"
       id="path4612"
       sodipodi:nodetypes="ccccc"
       inkscape:connector-curvature="0" />
    <path
       sodipodi:nodetypes="cc"
       id="path4804"
       d="m 98.46957,964.54176 0,10.23099"
       style="fill:none;stroke:#000000;stroke-width:1.25;stroke-linecap:butt;stroke-linejoin:miter;stroke-miterlimit:4;stroke-opacity:1;stroke-dasharray:none;marker-end:url(#Arrow1Send)"
       inkscape:connector-curvature="0" />
    <rect
       style="fill:#ffffff;fill-opacity:1;fill-rule:nonzero;stroke:#000000;stroke-width:0;stroke-linecap:round;stroke-linejoin:round;stroke-miterlimit:4;stroke-opacity:1;stroke-dasharray:none;stroke-dashoffset:0"
       id="rect4806"
       width="5.1490884"
       height="2.5746522"
       x="116.47903"
       y="930.12701"
       transform="matrix(0.99885154,-0.0479124,-0.02197821,0.99975845,0,0)" />
    <path
       style="fill:none;stroke:#000000;stroke-width:1.25;stroke-linecap:butt;stroke-linejoin:miter;stroke-miterlimit:4;stroke-opacity:1;stroke-dasharray:none;marker-end:url(#Arrow1Send)"
       d="m 98.46957,894.04176 0,62.37383"
       id="path4422"
       sodipodi:nodetypes="cc"
       inkscape:connector-curvature="0" />
    <g
       transform="matrix(1.2,0,0,1.2,-163.92349,810.1327)"
       ns0:text="$u(x)$"
       ns0:preamble="/home/raghu/Desktop/Prism-JKB/sdst/package.tex"
       id="g4829">
      <defs
         id="defs4831">
        <g
           id="g4833">
          <symbol
             style="overflow:visible"
             overflow="visible"
             id="textext-e7b5a855-0">
            <path
               style="stroke:none"
               d=""
               id="path4836"
               inkscape:connector-curvature="0" />
          </symbol>
          <symbol
             style="overflow:visible"
             overflow="visible"
             id="textext-e7b5a855-1">
            <path
               style="stroke:none"
               d="M 4.59375,-1.171875 C 4.078125,-0.515625 3.921875,-0.375 3.765625,-0.375 c -0.0625,0 -0.109375,-0.0625 -0.109375,-0.171875 0,-0.0625 0,-0.0625 0.1875,-0.78125 l 0.796875,-2.984375 -0.75,0 c -0.5625,1.546875 -0.625,1.703125 -1.09375,2.4375 -0.59375,0.953125 -1.078125,1.453125 -1.40625,1.453125 -0.109375,0 -0.203125,-0.09375 -0.203125,-0.25 0,-0.03125 0,-0.0625 0.015625,-0.078125 l 0.90625,-3.625 -0.03125,-0.015625 c -0.578125,0.125 -0.9375,0.1875 -1.5,0.265625 l 0,0.140625 c 0.375,0 0.40625,0 0.484375,0.0625 C 1.125,-3.90625 1.171875,-3.8125 1.171875,-3.75 c 0,0.078125 -0.046875,0.328125 -0.140625,0.671875 l -0.359375,1.40625 c -0.1875,0.71875 -0.25,1.046875 -0.25,1.234375 0,0.359375 0.171875,0.546875 0.53125,0.546875 0.703125,0 1.234375,-0.53125 2.375,-2.46875 C 3.046875,-1.28125 2.875,-0.59375 2.875,-0.390625 c 0,0.296875 0.1875,0.484375 0.484375,0.484375 0.46875,0 0.703125,-0.203125 1.375,-1.171875 L 4.59375,-1.171875 z m 0,0"
               id="path4839"
               inkscape:connector-curvature="0" />
          </symbol>
          <symbol
             style="overflow:visible"
             overflow="visible"
             id="textext-e7b5a855-2">
            <path
               style="stroke:none"
               d="M 4,-1.109375 C 3.921875,-1.015625 3.875,-0.953125 3.78125,-0.84375 3.5625,-0.53125 3.4375,-0.4375 3.328125,-0.4375 3.1875,-0.4375 3.09375,-0.5625 3.015625,-0.84375 3,-0.921875 2.984375,-0.984375 2.984375,-1.015625 2.734375,-2.03125 2.625,-2.484375 2.625,-2.625 c 0.4375,-0.78125 0.796875,-1.21875 0.96875,-1.21875 0.0625,0 0.140625,0.03125 0.25,0.078125 0.109375,0.078125 0.1875,0.09375 0.265625,0.09375 0.203125,0 0.34375,-0.140625 0.34375,-0.359375 0,-0.203125 -0.171875,-0.359375 -0.40625,-0.359375 -0.4375,0 -0.8125,0.359375 -1.5,1.421875 L 2.4375,-3.515625 c -0.140625,-0.6875 -0.25,-0.875 -0.53125,-0.875 -0.21875,0 -0.546875,0.078125 -1.15625,0.28125 L 0.640625,-4.0625 0.671875,-3.921875 C 1.0625,-4 1.140625,-4.03125 1.234375,-4.03125 c 0.25,0 0.3125,0.09375 0.453125,0.6875 l 0.28125,1.234375 -0.8125,1.15625 C 0.953125,-0.640625 0.75,-0.46875 0.640625,-0.46875 0.59375,-0.46875 0.484375,-0.5 0.390625,-0.5625 0.265625,-0.625 0.15625,-0.65625 0.0625,-0.65625 c -0.1875,0 -0.328125,0.140625 -0.328125,0.34375 0,0.265625 0.203125,0.421875 0.5,0.421875 0.296875,0 0.421875,-0.09375 0.921875,-0.703125 0.265625,-0.3125 0.484375,-0.578125 0.890625,-1.15625 l 0.3125,1.1875 c 0.125,0.515625 0.25,0.671875 0.578125,0.671875 0.375,0 0.625,-0.234375 1.203125,-1.140625 L 4,-1.109375 z m 0,0"
               id="path4842"
               inkscape:connector-curvature="0" />
          </symbol>
          <symbol
             style="overflow:visible"
             overflow="visible"
             id="textext-e7b5a855-3">
            <path
               style="stroke:none"
               d=""
               id="path4845"
               inkscape:connector-curvature="0" />
          </symbol>
          <symbol
             style="overflow:visible"
             overflow="visible"
             id="textext-e7b5a855-4">
            <path
               style="stroke:none"
               d="M 2.9375,-6.734375 C 2.203125,-6.265625 1.90625,-6 1.53125,-5.546875 c -0.703125,0.875 -1.046875,1.875 -1.046875,3.03125 0,1.265625 0.359375,2.25 1.234375,3.265625 0.421875,0.46875 0.671875,0.703125 1.1875,1.015625 l 0.125,-0.15625 C 2.234375,0.984375 1.953125,0.625 1.6875,-0.125 1.453125,-0.78125 1.328125,-1.546875 1.328125,-2.546875 1.328125,-3.59375 1.46875,-4.40625 1.734375,-5.03125 2.015625,-5.640625 2.3125,-6 3.03125,-6.578125 L 2.9375,-6.734375 z m 0,0"
               id="path4848"
               inkscape:connector-curvature="0" />
          </symbol>
          <symbol
             style="overflow:visible"
             overflow="visible"
             id="textext-e7b5a855-5">
            <path
               style="stroke:none"
               d="M 0.375,1.765625 C 1.109375,1.28125 1.421875,1.03125 1.78125,0.5625 2.5,-0.296875 2.84375,-1.296875 2.84375,-2.46875 c 0,-1.265625 -0.375,-2.234375 -1.25,-3.25 C 1.1875,-6.203125 0.921875,-6.421875 0.40625,-6.734375 l -0.109375,0.15625 c 0.796875,0.625 1.0625,0.96875 1.34375,1.71875 0.234375,0.671875 0.34375,1.4375 0.34375,2.421875 0,1.046875 -0.125,1.875 -0.40625,2.484375 C 1.3125,0.671875 1,1.03125 0.296875,1.609375 L 0.375,1.765625 z m 0,0"
               id="path4851"
               inkscape:connector-curvature="0" />
          </symbol>
        </g>
      </defs>
      <g
         id="textext-e7b5a855-6">
        <g
           style="fill:#000000;fill-opacity:1"
           id="g4854">
          <use
             height="177.16534"
             width="248.03149"
             xlink:href="#textext-e7b5a855-1"
             x="223.43201"
             y="134.765"
             id="use4856" />
        </g>
        <g
           style="fill:#000000;fill-opacity:1"
           id="g4858">
          <use
             height="177.16534"
             width="248.03149"
             xlink:href="#textext-e7b5a855-4"
             x="228.41299"
             y="134.765"
             id="use4860" />
        </g>
        <g
           style="fill:#000000;fill-opacity:1"
           id="g4862">
          <use
             height="177.16534"
             width="248.03149"
             xlink:href="#textext-e7b5a855-2"
             x="232.229"
             y="134.765"
             id="use4864" />
        </g>
        <g
           style="fill:#000000;fill-opacity:1"
           id="g4866">
          <use
             height="177.16534"
             width="248.03149"
             xlink:href="#textext-e7b5a855-5"
             x="236.68201"
             y="134.765"
             id="use4868" />
        </g>
      </g>
    </g>
    <g
       id="g5006"
       transform="matrix(1.2,0,0,1.2,-116.49492,802.27556)"
       ns0:preamble="/home/raghu/Desktop/Prism-JKB/sdst/package.tex"
       ns0:text="$\\Omega$">
      <defs
         id="defs5008">
        <g
           id="g5010">
          <symbol
             id="textext-cd9de1a8-0"
             overflow="visible"
             style="overflow:visible">
            <path
               id="path5013"
               d=""
               style="stroke:none"
               inkscape:connector-curvature="0" />
          </symbol>
          <symbol
             id="textext-cd9de1a8-1"
             overflow="visible"
             style="overflow:visible">
            <path
               id="path5016"
               d="m 7.125,0 0,-1.53125 -0.1875,0 c -0.015625,0.515625 -0.3125,0.625 -0.765625,0.625 l -1.359375,0 0.046875,-0.328125 c 1.265625,-0.375 2.03125,-1.359375 2.03125,-2.6875 C 6.890625,-5.71875 5.4375,-6.75 3.734375,-6.75 c -1.6875,0 -3.203125,1.078125 -3.203125,2.875 0,1.21875 0.796875,2.40625 2.046875,2.640625 l 0.015625,0.328125 -1.328125,0 c -0.484375,0 -0.75,-0.09375 -0.796875,-0.625 l -0.171875,0 0,1.53125 2.71875,0 -0.09375,-1.46875 c -1.03125,-0.375 -1.25,-1.40625 -1.25,-2.390625 0,-1.21875 0.65625,-2.546875 2.046875,-2.546875 1.4375,0 2.046875,1.375 2.046875,2.625 0,0.953125 -0.21875,1.984375 -1.25,2.3125 L 4.390625,0 7.125,0 z m 0,0"
               style="stroke:none"
               inkscape:connector-curvature="0" />
          </symbol>
        </g>
      </defs>
      <g
         id="textext-cd9de1a8-2">
        <g
           id="g5019"
           style="fill:#000000;fill-opacity:1">
          <use
             id="use5021"
             y="134.765"
             x="223.43201"
             xlink:href="#textext-cd9de1a8-1"
             width="248.03149"
             height="177.16534" />
        </g>
      </g>
    </g>
    <g
       ns0:text="$\\Gamma$"
       ns0:preamble="/home/raghu/Desktop/Prism-JKB/sdst/package.tex"
       transform="matrix(1.2,0,0,1.2,-79.637784,783.56127)"
       id="g5151">
      <defs
         id="defs5153">
        <g
           id="g5155">
          <symbol
             style="overflow:visible"
             overflow="visible"
             id="textext-d1d2a3b9-0">
            <path
               style="stroke:none"
               d=""
               id="path5158"
               inkscape:connector-curvature="0" />
          </symbol>
          <symbol
             style="overflow:visible"
             overflow="visible"
             id="textext-d1d2a3b9-1">
            <path
               style="stroke:none"
               d="m 5.4375,-5.171875 -0.03125,-1.421875 -5.28125,0 0,0.1875 c 0.6875,0.046875 0.859375,0.171875 0.859375,0.890625 l 0,4.3125 c 0,0.75 -0.078125,0.96875 -0.859375,1.015625 l 0,0.1875 2.78125,0 0,-0.1875 C 2.203125,-0.21875 2,-0.359375 2,-1.09375 L 2,-5.875 c 0,-0.265625 0.046875,-0.34375 0.328125,-0.34375 l 1.34375,0 c 0.90625,0 1.359375,0.03125 1.515625,1.046875 l 0.25,0 z m 0,0"
               id="path5161"
               inkscape:connector-curvature="0" />
          </symbol>
        </g>
      </defs>
      <g
         id="textext-d1d2a3b9-2">
        <g
           style="fill:#000000;fill-opacity:1"
           id="g5164">
          <use
             height="177.16534"
             width="248.03149"
             xlink:href="#textext-d1d2a3b9-1"
             x="223.43201"
             y="134.765"
             id="use5166" />
        </g>
      </g>
    </g>
    <g
       ns0:text="$F\\,dx$"
       ns0:preamble="/home/raghu/Desktop/Prism-JKB/sdst/package.tex"
       transform="matrix(1.2,0,0,1.2,-164.54063,744.69685)"
       id="g6085">
      <defs
         id="defs6087">
        <g
           id="g6089">
          <symbol
             style="overflow:visible"
             overflow="visible"
             id="textext-358e6c26-0">
            <path
               style="stroke:none"
               d=""
               id="path6092"
               inkscape:connector-curvature="0" />
          </symbol>
          <symbol
             style="overflow:visible"
             overflow="visible"
             id="textext-358e6c26-1">
            <path
               style="stroke:none"
               d="m 6.4375,-6.515625 -4.96875,0 0,0.171875 c 0.640625,0.046875 0.765625,0.109375 0.765625,0.40625 0,0.140625 -0.046875,0.390625 -0.109375,0.640625 l -1.234375,4.40625 c -0.171875,0.59375 -0.25,0.65625 -0.8125,0.734375 l 0,0.15625 2.515625,0 0,-0.15625 C 2.015625,-0.1875 1.828125,-0.296875 1.828125,-0.59375 c 0,-0.078125 0.03125,-0.234375 0.09375,-0.453125 l 0.625,-2.21875 C 2.90625,-3.25 3.125,-3.234375 3.34375,-3.234375 c 0.390625,0 0.46875,0 0.546875,0.046875 0.15625,0.078125 0.21875,0.203125 0.21875,0.40625 0,0.15625 -0.015625,0.28125 -0.078125,0.59375 L 4.203125,-2.140625 4.96875,-4.46875 4.78125,-4.53125 C 4.34375,-3.625 4.3125,-3.625 2.625,-3.59375 L 3.296875,-5.921875 C 3.34375,-6.125 3.484375,-6.1875 3.890625,-6.1875 c 1.6875,0 2.046875,0.140625 2.046875,0.75 0,0.0625 0,0.109375 -0.015625,0.25 C 5.90625,-5.140625 5.90625,-5.125 5.90625,-5 l 0.203125,0.015625 0.328125,-1.53125 z m 0,0"
               id="path6095"
               inkscape:connector-curvature="0" />
          </symbol>
          <symbol
             style="overflow:visible"
             overflow="visible"
             id="textext-358e6c26-2">
            <path
               style="stroke:none"
               d="m 4.609375,-1.109375 c -0.53125,0.625 -0.640625,0.703125 -0.8125,0.703125 -0.09375,0 -0.171875,-0.078125 -0.171875,-0.1875 0,-0.140625 0.3125,-1.359375 0.640625,-2.453125 C 4.53125,-3.96875 4.75,-4.765625 5.25,-6.765625 L 5.203125,-6.8125 c -0.53125,0.109375 -0.890625,0.171875 -1.53125,0.234375 l 0,0.171875 c 0.5625,0.015625 0.625,0.046875 0.625,0.25 0,0.140625 -0.015625,0.1875 -0.15625,0.703125 L 3.703125,-3.8125 C 3.625,-4.234375 3.453125,-4.390625 3.0625,-4.390625 c -1.296875,0 -2.90625,1.875 -2.90625,3.359375 0,0.71875 0.390625,1.140625 1.046875,1.140625 0.671875,0 1.109375,-0.3125 1.78125,-1.3125 -0.109375,0.5 -0.125,0.65625 -0.125,0.890625 0,0.265625 0.171875,0.4375 0.421875,0.4375 0.421875,0 0.9375,-0.40625 1.453125,-1.125 l -0.125,-0.109375 z m -1.515625,-3.0625 c 0.3125,0.03125 0.453125,0.21875 0.453125,0.578125 0,1.515625 -1.03125,3.21875 -1.953125,3.21875 -0.34375,0 -0.578125,-0.265625 -0.578125,-0.65625 0,-0.828125 0.5,-1.984375 1.15625,-2.671875 C 2.453125,-4 2.828125,-4.1875 3.09375,-4.171875 z m 0,0"
               id="path6098"
               inkscape:connector-curvature="0" />
          </symbol>
          <symbol
             style="overflow:visible"
             overflow="visible"
             id="textext-358e6c26-3">
            <path
               style="stroke:none"
               d="M 4,-1.109375 C 3.921875,-1.015625 3.875,-0.953125 3.78125,-0.84375 3.5625,-0.53125 3.4375,-0.4375 3.328125,-0.4375 3.1875,-0.4375 3.09375,-0.5625 3.015625,-0.84375 3,-0.921875 2.984375,-0.984375 2.984375,-1.015625 2.734375,-2.03125 2.625,-2.484375 2.625,-2.625 c 0.4375,-0.78125 0.796875,-1.21875 0.96875,-1.21875 0.0625,0 0.140625,0.03125 0.25,0.078125 0.109375,0.078125 0.1875,0.09375 0.265625,0.09375 0.203125,0 0.34375,-0.140625 0.34375,-0.359375 0,-0.203125 -0.171875,-0.359375 -0.40625,-0.359375 -0.4375,0 -0.8125,0.359375 -1.5,1.421875 L 2.4375,-3.515625 c -0.140625,-0.6875 -0.25,-0.875 -0.53125,-0.875 -0.21875,0 -0.546875,0.078125 -1.15625,0.28125 L 0.640625,-4.0625 0.671875,-3.921875 C 1.0625,-4 1.140625,-4.03125 1.234375,-4.03125 c 0.25,0 0.3125,0.09375 0.453125,0.6875 l 0.28125,1.234375 -0.8125,1.15625 C 0.953125,-0.640625 0.75,-0.46875 0.640625,-0.46875 0.59375,-0.46875 0.484375,-0.5 0.390625,-0.5625 0.265625,-0.625 0.15625,-0.65625 0.0625,-0.65625 c -0.1875,0 -0.328125,0.140625 -0.328125,0.34375 0,0.265625 0.203125,0.421875 0.5,0.421875 0.296875,0 0.421875,-0.09375 0.921875,-0.703125 0.265625,-0.3125 0.484375,-0.578125 0.890625,-1.15625 l 0.3125,1.1875 c 0.125,0.515625 0.25,0.671875 0.578125,0.671875 0.375,0 0.625,-0.234375 1.203125,-1.140625 L 4,-1.109375 z m 0,0"
               id="path6101"
               inkscape:connector-curvature="0" />
          </symbol>
        </g>
      </defs>
      <g
         id="textext-358e6c26-4">
        <g
           style="fill:#000000;fill-opacity:1"
           id="g6104">
          <use
             height="177.16534"
             width="248.03149"
             xlink:href="#textext-358e6c26-1"
             x="223.681"
             y="134.765"
             id="use6106" />
        </g>
        <g
           style="fill:#000000;fill-opacity:1"
           id="g6108">
          <use
             height="177.16534"
             width="248.03149"
             xlink:href="#textext-358e6c26-2"
             x="232.0197"
             y="134.765"
             id="use6110" />
        </g>
        <g
           style="fill:#000000;fill-opacity:1"
           id="g6112">
          <use
             height="177.16534"
             width="248.03149"
             xlink:href="#textext-358e6c26-3"
             x="237.76811"
             y="134.765"
             id="use6114" />
        </g>
      </g>
    </g>
    <g
       id="g3223"
       transform="matrix(1.2,0,0,1.2,-227.66823,711.02031)"
       ns0:preamble=""
       ns0:text="$X_{3}$">
      <defs
         id="defs3225">
        <g
           id="g3227">
          <symbol
             id="textext-95a287da-0"
             overflow="visible"
             style="overflow:visible">
            <path
               id="path3230"
               d="M 4.828125,-4.09375 4,-6.078125 c -0.03125,-0.078125 -0.046875,-0.125 -0.046875,-0.125 0,-0.0625 0.15625,-0.25 0.578125,-0.296875 0.109375,-0.015625 0.203125,-0.015625 0.203125,-0.1875 0,-0.125 -0.125,-0.125 -0.15625,-0.125 -0.40625,0 -0.828125,0.03125 -1.25,0.03125 -0.25,0 -0.859375,-0.03125 -1.109375,-0.03125 -0.0625,0 -0.1875,0 -0.1875,0.203125 C 2.03125,-6.5 2.140625,-6.5 2.265625,-6.5 c 0.59375,0 0.65625,0.09375 0.75,0.3125 l 1.171875,2.78125 -2.109375,2.265625 -0.125,0.109375 C 1.46875,-0.5 1,-0.34375 0.484375,-0.3125 c -0.125,0.015625 -0.21875,0.015625 -0.21875,0.203125 0,0.015625 0,0.109375 0.140625,0.109375 0.296875,0 0.625,-0.03125 0.921875,-0.03125 C 1.703125,-0.03125 2.09375,0 2.453125,0 2.515625,0 2.625,0 2.625,-0.203125 2.625,-0.296875 2.53125,-0.3125 2.515625,-0.3125 c -0.09375,0 -0.40625,-0.03125 -0.40625,-0.3125 0,-0.15625 0.15625,-0.3125 0.265625,-0.4375 L 3.40625,-2.140625 4.296875,-3.125 l 1,2.390625 c 0.046875,0.109375 0.0625,0.109375 0.0625,0.140625 0,0.078125 -0.203125,0.25 -0.578125,0.28125 C 4.671875,-0.296875 4.578125,-0.296875 4.578125,-0.125 4.578125,0 4.6875,0 4.71875,0 5,0 5.703125,-0.03125 5.984375,-0.03125 6.234375,-0.03125 6.84375,0 7.09375,0 c 0.0625,0 0.1875,0 0.1875,-0.1875 0,-0.125 -0.109375,-0.125 -0.1875,-0.125 -0.65625,0 -0.6875,-0.03125 -0.859375,-0.4375 C 5.859375,-1.671875 5.1875,-3.234375 4.953125,-3.828125 5.625,-4.53125 6.671875,-5.71875 7,-5.984375 7.28125,-6.234375 7.671875,-6.46875 8.265625,-6.5 c 0.125,-0.015625 0.21875,-0.015625 0.21875,-0.203125 0,0 0,-0.109375 -0.125,-0.109375 -0.296875,0 -0.640625,0.03125 -0.9375,0.03125 -0.375,0 -0.75,-0.03125 -1.109375,-0.03125 -0.0625,0 -0.1875,0 -0.1875,0.203125 0,0.0625 0.046875,0.09375 0.109375,0.109375 0.09375,0.015625 0.40625,0.03125 0.40625,0.3125 0,0.140625 -0.109375,0.265625 -0.1875,0.359375 z m 0,0"
               style="stroke:none"
               inkscape:connector-curvature="0" />
          </symbol>
          <symbol
             id="textext-95a287da-1"
             overflow="visible"
             style="overflow:visible">
            <path
               id="path3233"
               d="m 1.90625,-2.328125 c 0.546875,0 0.9375,0.375 0.9375,1.125 0,0.859375 -0.515625,1.125 -0.90625,1.125 -0.28125,0 -0.90625,-0.078125 -1.1875,-0.5 0.328125,0 0.40625,-0.234375 0.40625,-0.390625 0,-0.21875 -0.171875,-0.375 -0.390625,-0.375 -0.1875,0 -0.390625,0.125 -0.390625,0.40625 0,0.65625 0.71875,1.078125 1.5625,1.078125 0.96875,0 1.640625,-0.65625 1.640625,-1.34375 0,-0.546875 -0.4375,-1.09375 -1.203125,-1.25 0.71875,-0.265625 0.984375,-0.78125 0.984375,-1.21875 0,-0.546875 -0.625,-0.953125 -1.40625,-0.953125 -0.765625,0 -1.359375,0.375 -1.359375,0.9375 0,0.234375 0.15625,0.359375 0.359375,0.359375 0.21875,0 0.359375,-0.15625 0.359375,-0.34375 0,-0.203125 -0.140625,-0.359375 -0.359375,-0.375 0.25,-0.296875 0.71875,-0.375 0.984375,-0.375 0.3125,0 0.75,0.15625 0.75,0.75 0,0.296875 -0.09375,0.625 -0.28125,0.828125 -0.21875,0.265625 -0.421875,0.28125 -0.765625,0.3125 -0.171875,0.015625 -0.1875,0.015625 -0.21875,0.015625 -0.015625,0 -0.078125,0.015625 -0.078125,0.09375 0,0.09375 0.0625,0.09375 0.1875,0.09375 z m 0,0"
               style="stroke:none"
               inkscape:connector-curvature="0" />
          </symbol>
        </g>
      </defs>
      <g
         id="textext-95a287da-2">
        <g
           id="g3236"
           style="fill:#000000;fill-opacity:1">
          <use
             id="use3238"
             y="134.765"
             x="223.43201"
             xlink:href="#textext-95a287da-0"
             width="248.03149"
             height="177.16534" />
        </g>
        <g
           id="g3240"
           style="fill:#000000;fill-opacity:1">
          <use
             id="use3242"
             y="136.259"
             x="231.686"
             xlink:href="#textext-95a287da-1"
             width="248.03149"
             height="177.16534" />
        </g>
      </g>
    </g>
    <g
       ns0:text="$X_{1}$"
       ns0:preamble=""
       transform="matrix(1.2,0,0,1.2,-264.32632,872.36222)"
       id="g3480">
      <defs
         id="defs3482">
        <g
           id="g3484">
          <symbol
             overflow="visible"
             id="textext-659ef9f7-0"
             style="overflow:visible">
            <path
               style="stroke:none"
               d="M 4.828125,-4.09375 4,-6.078125 c -0.03125,-0.078125 -0.046875,-0.125 -0.046875,-0.125 0,-0.0625 0.15625,-0.25 0.578125,-0.296875 0.109375,-0.015625 0.203125,-0.015625 0.203125,-0.1875 0,-0.125 -0.125,-0.125 -0.15625,-0.125 -0.40625,0 -0.828125,0.03125 -1.25,0.03125 -0.25,0 -0.859375,-0.03125 -1.109375,-0.03125 -0.0625,0 -0.1875,0 -0.1875,0.203125 C 2.03125,-6.5 2.140625,-6.5 2.265625,-6.5 c 0.59375,0 0.65625,0.09375 0.75,0.3125 l 1.171875,2.78125 -2.109375,2.265625 -0.125,0.109375 C 1.46875,-0.5 1,-0.34375 0.484375,-0.3125 c -0.125,0.015625 -0.21875,0.015625 -0.21875,0.203125 0,0.015625 0,0.109375 0.140625,0.109375 0.296875,0 0.625,-0.03125 0.921875,-0.03125 C 1.703125,-0.03125 2.09375,0 2.453125,0 2.515625,0 2.625,0 2.625,-0.203125 2.625,-0.296875 2.53125,-0.3125 2.515625,-0.3125 c -0.09375,0 -0.40625,-0.03125 -0.40625,-0.3125 0,-0.15625 0.15625,-0.3125 0.265625,-0.4375 L 3.40625,-2.140625 4.296875,-3.125 l 1,2.390625 c 0.046875,0.109375 0.0625,0.109375 0.0625,0.140625 0,0.078125 -0.203125,0.25 -0.578125,0.28125 C 4.671875,-0.296875 4.578125,-0.296875 4.578125,-0.125 4.578125,0 4.6875,0 4.71875,0 5,0 5.703125,-0.03125 5.984375,-0.03125 6.234375,-0.03125 6.84375,0 7.09375,0 c 0.0625,0 0.1875,0 0.1875,-0.1875 0,-0.125 -0.109375,-0.125 -0.1875,-0.125 -0.65625,0 -0.6875,-0.03125 -0.859375,-0.4375 C 5.859375,-1.671875 5.1875,-3.234375 4.953125,-3.828125 5.625,-4.53125 6.671875,-5.71875 7,-5.984375 7.28125,-6.234375 7.671875,-6.46875 8.265625,-6.5 c 0.125,-0.015625 0.21875,-0.015625 0.21875,-0.203125 0,0 0,-0.109375 -0.125,-0.109375 -0.296875,0 -0.640625,0.03125 -0.9375,0.03125 -0.375,0 -0.75,-0.03125 -1.109375,-0.03125 -0.0625,0 -0.1875,0 -0.1875,0.203125 0,0.0625 0.046875,0.09375 0.109375,0.109375 0.09375,0.015625 0.40625,0.03125 0.40625,0.3125 0,0.140625 -0.109375,0.265625 -0.1875,0.359375 z m 0,0"
               id="path3487"
               inkscape:connector-curvature="0" />
          </symbol>
          <symbol
             overflow="visible"
             id="textext-659ef9f7-1"
             style="overflow:visible">
            <path
               style="stroke:none"
               d="m 2.328125,-4.4375 c 0,-0.1875 0,-0.1875 -0.203125,-0.1875 -0.453125,0.4375 -1.078125,0.4375 -1.359375,0.4375 l 0,0.25 c 0.15625,0 0.625,0 1,-0.1875 l 0,3.546875 c 0,0.234375 0,0.328125 -0.6875,0.328125 l -0.265625,0 0,0.25 c 0.125,0 0.984375,-0.03125 1.234375,-0.03125 0.21875,0 1.09375,0.03125 1.25,0.03125 l 0,-0.25 -0.265625,0 c -0.703125,0 -0.703125,-0.09375 -0.703125,-0.328125 z m 0,0"
               id="path3490"
               inkscape:connector-curvature="0" />
          </symbol>
        </g>
      </defs>
      <g
         id="textext-659ef9f7-2">
        <g
           style="fill:#000000;fill-opacity:1"
           id="g3493">
          <use
             xlink:href="#textext-659ef9f7-0"
             x="223.43201"
             y="134.765"
             id="use3495"
             width="248.03149"
             height="177.16534" />
        </g>
        <g
           style="fill:#000000;fill-opacity:1"
           id="g3497">
          <use
             xlink:href="#textext-659ef9f7-1"
             x="231.686"
             y="136.259"
             id="use3499"
             width="248.03149"
             height="177.16534" />
        </g>
      </g>
    </g>
    <g
       id="g3729"
       transform="matrix(1.2,0,0,1.2,-40.316171,764.80094)"
       ns0:preamble=""
       ns0:text="$X_{2}$">
      <defs
         id="defs3731">
        <g
           id="g3733">
          <symbol
             id="textext-1bc33017-0"
             overflow="visible"
             style="overflow:visible">
            <path
               id="path3736"
               d="M 4.828125,-4.09375 4,-6.078125 c -0.03125,-0.078125 -0.046875,-0.125 -0.046875,-0.125 0,-0.0625 0.15625,-0.25 0.578125,-0.296875 0.109375,-0.015625 0.203125,-0.015625 0.203125,-0.1875 0,-0.125 -0.125,-0.125 -0.15625,-0.125 -0.40625,0 -0.828125,0.03125 -1.25,0.03125 -0.25,0 -0.859375,-0.03125 -1.109375,-0.03125 -0.0625,0 -0.1875,0 -0.1875,0.203125 C 2.03125,-6.5 2.140625,-6.5 2.265625,-6.5 c 0.59375,0 0.65625,0.09375 0.75,0.3125 l 1.171875,2.78125 -2.109375,2.265625 -0.125,0.109375 C 1.46875,-0.5 1,-0.34375 0.484375,-0.3125 c -0.125,0.015625 -0.21875,0.015625 -0.21875,0.203125 0,0.015625 0,0.109375 0.140625,0.109375 0.296875,0 0.625,-0.03125 0.921875,-0.03125 C 1.703125,-0.03125 2.09375,0 2.453125,0 2.515625,0 2.625,0 2.625,-0.203125 2.625,-0.296875 2.53125,-0.3125 2.515625,-0.3125 c -0.09375,0 -0.40625,-0.03125 -0.40625,-0.3125 0,-0.15625 0.15625,-0.3125 0.265625,-0.4375 L 3.40625,-2.140625 4.296875,-3.125 l 1,2.390625 c 0.046875,0.109375 0.0625,0.109375 0.0625,0.140625 0,0.078125 -0.203125,0.25 -0.578125,0.28125 C 4.671875,-0.296875 4.578125,-0.296875 4.578125,-0.125 4.578125,0 4.6875,0 4.71875,0 5,0 5.703125,-0.03125 5.984375,-0.03125 6.234375,-0.03125 6.84375,0 7.09375,0 c 0.0625,0 0.1875,0 0.1875,-0.1875 0,-0.125 -0.109375,-0.125 -0.1875,-0.125 -0.65625,0 -0.6875,-0.03125 -0.859375,-0.4375 C 5.859375,-1.671875 5.1875,-3.234375 4.953125,-3.828125 5.625,-4.53125 6.671875,-5.71875 7,-5.984375 7.28125,-6.234375 7.671875,-6.46875 8.265625,-6.5 c 0.125,-0.015625 0.21875,-0.015625 0.21875,-0.203125 0,0 0,-0.109375 -0.125,-0.109375 -0.296875,0 -0.640625,0.03125 -0.9375,0.03125 -0.375,0 -0.75,-0.03125 -1.109375,-0.03125 -0.0625,0 -0.1875,0 -0.1875,0.203125 0,0.0625 0.046875,0.09375 0.109375,0.109375 0.09375,0.015625 0.40625,0.03125 0.40625,0.3125 0,0.140625 -0.109375,0.265625 -0.1875,0.359375 z m 0,0"
               style="stroke:none"
               inkscape:connector-curvature="0" />
          </symbol>
          <symbol
             id="textext-1bc33017-1"
             overflow="visible"
             style="overflow:visible">
            <path
               id="path3739"
               d="m 3.515625,-1.265625 -0.234375,0 c -0.015625,0.15625 -0.09375,0.5625 -0.1875,0.625 -0.046875,0.046875 -0.578125,0.046875 -0.6875,0.046875 l -1.28125,0 c 0.734375,-0.640625 0.984375,-0.84375 1.390625,-1.171875 0.515625,-0.40625 1,-0.84375 1,-1.5 0,-0.84375 -0.734375,-1.359375 -1.625,-1.359375 -0.859375,0 -1.453125,0.609375 -1.453125,1.25 0,0.34375 0.296875,0.390625 0.375,0.390625 0.15625,0 0.359375,-0.125 0.359375,-0.375 0,-0.125 -0.046875,-0.375 -0.40625,-0.375 C 0.984375,-4.21875 1.453125,-4.375 1.78125,-4.375 c 0.703125,0 1.0625,0.546875 1.0625,1.109375 0,0.609375 -0.4375,1.078125 -0.65625,1.328125 L 0.515625,-0.265625 C 0.4375,-0.203125 0.4375,-0.1875 0.4375,0 l 2.875,0 z m 0,0"
               style="stroke:none"
               inkscape:connector-curvature="0" />
          </symbol>
        </g>
      </defs>
      <g
         id="textext-1bc33017-2">
        <g
           id="g3742"
           style="fill:#000000;fill-opacity:1">
          <use
             id="use3744"
             y="134.765"
             x="223.43201"
             xlink:href="#textext-1bc33017-0"
             width="248.03149"
             height="177.16534" />
        </g>
        <g
           id="g3746"
           style="fill:#000000;fill-opacity:1">
          <use
             id="use3748"
             y="136.259"
             x="231.686"
             xlink:href="#textext-1bc33017-1"
             width="248.03149"
             height="177.16534" />
        </g>
      </g>
    </g>
  </g>
</svg>
