<?xml version="1.0" encoding="UTF-8" standalone="no"?>
<!-- Created with Inkscape (http://www.inkscape.org/) -->

<svg
   xmlns:ns0="http://www.iki.fi/pav/software/textext/"
   xmlns:dc="http://purl.org/dc/elements/1.1/"
   xmlns:cc="http://creativecommons.org/ns#"
   xmlns:rdf="http://www.w3.org/1999/02/22-rdf-syntax-ns#"
   xmlns:svg="http://www.w3.org/2000/svg"
   xmlns="http://www.w3.org/2000/svg"
   xmlns:xlink="http://www.w3.org/1999/xlink"
   xmlns:sodipodi="http://sodipodi.sourceforge.net/DTD/sodipodi-0.dtd"
   xmlns:inkscape="http://www.inkscape.org/namespaces/inkscape"
   width="248.03149"
   height="141.73228"
   id="svg2"
   version="1.1"
   inkscape:version="0.47pre4 r22446"
   sodipodi:docname="New document 1">
  <sodipodi:namedview
     id="base"
     pagecolor="#ffffff"
     bordercolor="#666666"
     borderopacity="1.0"
     inkscape:pageopacity="0.0"
     inkscape:pageshadow="2"
     inkscape:zoom="2.8"
     inkscape:cx="117.52341"
     inkscape:cy="74.529052"
     inkscape:document-units="px"
     inkscape:current-layer="layer1"
     showgrid="false"
     units="cm"
     inkscape:window-width="1024"
     inkscape:window-height="685"
     inkscape:window-x="0"
     inkscape:window-y="30"
     inkscape:window-maximized="1" />
  <defs
     id="defs4">
    <marker
       inkscape:stockid="DotM"
       orient="auto"
       refY="0.0"
       refX="0.0"
       id="DotM"
       style="overflow:visible">
      <path
         id="path3658"
         d="M -2.5,-1.0 C -2.5,1.7600000 -4.7400000,4.0 -7.5,4.0 C -10.260000,4.0 -12.5,1.7600000 -12.5,-1.0 C -12.5,-3.7600000 -10.260000,-6.0 -7.5,-6.0 C -4.7400000,-6.0 -2.5,-3.7600000 -2.5,-1.0 z "
         style="fill-rule:evenodd;stroke:#000000;stroke-width:1.0pt;marker-start:none;marker-end:none"
         transform="scale(0.4) translate(7.4, 1)" />
    </marker>
    <inkscape:perspective
       sodipodi:type="inkscape:persp3d"
       inkscape:vp_x="0 : 526.18109 : 1"
       inkscape:vp_y="0 : 1000 : 0"
       inkscape:vp_z="744.09448 : 526.18109 : 1"
       inkscape:persp3d-origin="372.04724 : 350.78739 : 1"
       id="perspective10" />
  </defs>
  <metadata
     id="metadata7">
    <rdf:RDF>
      <cc:Work
         rdf:about="">
        <dc:format>image/svg+xml</dc:format>
        <dc:type
           rdf:resource="http://purl.org/dc/dcmitype/StillImage" />
        <dc:title></dc:title>
      </cc:Work>
    </rdf:RDF>
  </metadata>
  <g
     inkscape:label="Layer 1"
     inkscape:groupmode="layer"
     id="layer1"
     transform="translate(0,-910.62859)">
    <path
       style="fill:none;stroke:#000000;stroke-width:1.25;stroke-linecap:butt;stroke-linejoin:miter;stroke-opacity:1;marker-start:url(#DotM);marker-mid:url(#DotM);stroke-miterlimit:4;stroke-dasharray:none"
       d="m 28.214286,108.518 c 0,0 124.285714,-97.500001 124.285714,-96.07143 0,1.428571 51.42857,80 48.57143,80 -2.85714,0 -172.500001,15.71429 -172.857144,16.07143 z"
       id="path2816"
       transform="translate(0,910.62859)"
       sodipodi:nodetypes="cssc" />
    <path
       style="fill:none;stroke:#000000;stroke-width:1.25;stroke-linecap:butt;stroke-linejoin:miter;stroke-opacity:1;stroke-miterlimit:4;stroke-dasharray:3.75,3.75;stroke-dashoffset:0"
       d="m 28.214286,108.518 98.571424,-36.785716 25.71429,-60"
       id="path4222"
       transform="translate(0,910.62859)" />
    <path
       style="fill:none;stroke:#000000;stroke-width:1;stroke-linecap:butt;stroke-linejoin:miter;stroke-opacity:1;stroke-miterlimit:4;stroke-dasharray:3,3;stroke-dashoffset:0"
       d="M 126.52161,71.779221 201.27289,92.23481"
       id="path4226"
       transform="translate(0,910.62859)" />
    <path
       sodipodi:type="arc"
       style="fill:none;stroke:#000000;stroke-width:1.25;stroke-linecap:round;stroke-linejoin:miter;stroke-miterlimit:4;stroke-opacity:1;stroke-dasharray:none;stroke-dashoffset:0"
       id="path4228"
       sodipodi:cx="151.16072"
       sodipodi:cy="12.178713"
       sodipodi:rx="6.3392859"
       sodipodi:ry="6.3392859"
       d="m 157.50001,12.178713 c 0,3.501091 -2.8382,6.339286 -6.33929,6.339286 -3.50109,0 -6.33929,-2.838195 -6.33929,-6.339286 0,-3.5010911 2.8382,-6.339286 6.33929,-6.339286 3.50109,0 6.33929,2.8381949 6.33929,6.339286 z"
       transform="translate(1.25,911.34288)" />
    <path
       transform="translate(49.964286,990.98574)"
       d="m 157.50001,12.178713 c 0,3.501091 -2.8382,6.339286 -6.33929,6.339286 -3.50109,0 -6.33929,-2.838195 -6.33929,-6.339286 0,-3.5010911 2.8382,-6.339286 6.33929,-6.339286 3.50109,0 6.33929,2.8381949 6.33929,6.339286 z"
       sodipodi:ry="6.3392859"
       sodipodi:rx="6.3392859"
       sodipodi:cy="12.178713"
       sodipodi:cx="151.16072"
       id="path4230"
       style="fill:none;stroke:#000000;stroke-width:1.25;stroke-linecap:round;stroke-linejoin:miter;stroke-miterlimit:4;stroke-opacity:1;stroke-dasharray:none;stroke-dashoffset:0"
       sodipodi:type="arc" />
    <path
       sodipodi:type="arc"
       style="fill:none;stroke:#000000;stroke-width:1.25;stroke-linecap:round;stroke-linejoin:miter;stroke-miterlimit:4;stroke-opacity:1;stroke-dasharray:none;stroke-dashoffset:0"
       id="path4232"
       sodipodi:cx="151.16072"
       sodipodi:cy="12.178713"
       sodipodi:rx="6.3392859"
       sodipodi:ry="6.3392859"
       d="m 157.50001,12.178713 c 0,3.501091 -2.8382,6.339286 -6.33929,6.339286 -3.50109,0 -6.33929,-2.838195 -6.33929,-6.339286 0,-3.5010911 2.8382,-6.339286 6.33929,-6.339286 3.50109,0 6.33929,2.8381949 6.33929,6.339286 z"
       transform="translate(-123.32143,1006.4141)" />
    <g
       transform="matrix(1.2,0,0,1.2,-107.85714,756.78572)"
       ns0:text="$a_{1}$"
       ns0:preamble="/home/raghu/Desktop/Prism-JKB/sdst/package.tex"
       id="g4248">
      <defs
         id="defs4250">
        <g
           id="g4252">
          <symbol
             style="overflow:visible"
             overflow="visible"
             id="textext-3493ecae-0">
            <path
               style="stroke:none"
               d=""
               id="path4255" />
          </symbol>
          <symbol
             style="overflow:visible"
             overflow="visible"
             id="textext-3493ecae-1">
            <path
               style="stroke:none"
               d="m 4.625,-1.09375 c -0.15625,0.140625 -0.203125,0.203125 -0.28125,0.28125 -0.296875,0.296875 -0.421875,0.40625 -0.515625,0.40625 -0.078125,0 -0.140625,-0.0625 -0.140625,-0.125 0,-0.203125 0.421875,-1.90625 0.890625,-3.625 0.03125,-0.09375 0.03125,-0.125 0.0625,-0.203125 L 4.5625,-4.390625 3.953125,-4.328125 3.921875,-4.296875 3.8125,-3.8125 c -0.078125,-0.375 -0.359375,-0.578125 -0.796875,-0.578125 -1.3125,0 -2.84375,1.8125 -2.84375,3.390625 0,0.703125 0.375,1.109375 1.015625,1.109375 0.703125,0 1.125,-0.328125 2,-1.5625 -0.203125,0.78125 -0.234375,0.90625 -0.234375,1.140625 0,0.296875 0.125,0.40625 0.40625,0.40625 C 3.765625,0.09375 4,-0.09375 4.75,-1 L 4.625,-1.09375 z M 3.078125,-4.171875 c 0.34375,0.015625 0.5625,0.25 0.5625,0.609375 0,0.828125 -0.5,2 -1.1875,2.75 C 2.21875,-0.546875 1.875,-0.375 1.578125,-0.375 1.234375,-0.375 1,-0.671875 1,-1.125 1,-1.671875 1.390625,-2.6875 1.8125,-3.3125 2.21875,-3.890625 2.6875,-4.203125 3.078125,-4.171875 z m 0,0"
               id="path4258" />
          </symbol>
          <symbol
             style="overflow:visible"
             overflow="visible"
             id="textext-3493ecae-2">
            <path
               style="stroke:none"
               d=""
               id="path4261" />
          </symbol>
          <symbol
             style="overflow:visible"
             overflow="visible"
             id="textext-3493ecae-3">
            <path
               style="stroke:none"
               d="m 2.03125,-4.703125 -1.25,0.625 0,0.09375 c 0.078125,-0.03125 0.15625,-0.0625 0.1875,-0.078125 0.125,-0.046875 0.234375,-0.0625 0.3125,-0.0625 0.140625,0 0.203125,0.09375 0.203125,0.3125 l 0,3.171875 c 0,0.21875 -0.0625,0.375 -0.171875,0.453125 -0.09375,0.0625 -0.203125,0.078125 -0.484375,0.078125 L 0.828125,0 2.75,0 l 0,-0.109375 c -0.5625,0 -0.671875,-0.078125 -0.671875,-0.40625 l 0,-4.1875 -0.046875,0 z m 0,0"
               id="path4264" />
          </symbol>
        </g>
      </defs>
      <g
         id="textext-3493ecae-4">
        <g
           style="fill:#000000;fill-opacity:1"
           id="g4267">
          <use
             height="141.73228"
             width="248.03149"
             xlink:href="#textext-3493ecae-1"
             x="223.43201"
             y="134.765"
             id="use4269" />
        </g>
        <g
           style="fill:#000000;fill-opacity:1"
           id="g4271">
          <use
             height="141.73228"
             width="248.03149"
             xlink:href="#textext-3493ecae-3"
             x="228.41299"
             y="136.259"
             id="use4273" />
        </g>
      </g>
    </g>
    <g
       id="g4365"
       transform="matrix(1.2,0,0,1.2,-253.28571,871.42858)"
       ns0:preamble="/home/raghu/Desktop/Prism-JKB/sdst/package.tex"
       ns0:text="$a_{2}$">
      <defs
         id="defs4367">
        <g
           id="g4369">
          <symbol
             id="textext-01020cc5-0"
             overflow="visible"
             style="overflow:visible">
            <path
               id="path4372"
               d=""
               style="stroke:none" />
          </symbol>
          <symbol
             id="textext-01020cc5-1"
             overflow="visible"
             style="overflow:visible">
            <path
               id="path4375"
               d="m 4.625,-1.09375 c -0.15625,0.140625 -0.203125,0.203125 -0.28125,0.28125 -0.296875,0.296875 -0.421875,0.40625 -0.515625,0.40625 -0.078125,0 -0.140625,-0.0625 -0.140625,-0.125 0,-0.203125 0.421875,-1.90625 0.890625,-3.625 0.03125,-0.09375 0.03125,-0.125 0.0625,-0.203125 L 4.5625,-4.390625 3.953125,-4.328125 3.921875,-4.296875 3.8125,-3.8125 c -0.078125,-0.375 -0.359375,-0.578125 -0.796875,-0.578125 -1.3125,0 -2.84375,1.8125 -2.84375,3.390625 0,0.703125 0.375,1.109375 1.015625,1.109375 0.703125,0 1.125,-0.328125 2,-1.5625 -0.203125,0.78125 -0.234375,0.90625 -0.234375,1.140625 0,0.296875 0.125,0.40625 0.40625,0.40625 C 3.765625,0.09375 4,-0.09375 4.75,-1 L 4.625,-1.09375 z M 3.078125,-4.171875 c 0.34375,0.015625 0.5625,0.25 0.5625,0.609375 0,0.828125 -0.5,2 -1.1875,2.75 C 2.21875,-0.546875 1.875,-0.375 1.578125,-0.375 1.234375,-0.375 1,-0.671875 1,-1.125 1,-1.671875 1.390625,-2.6875 1.8125,-3.3125 2.21875,-3.890625 2.6875,-4.203125 3.078125,-4.171875 z m 0,0"
               style="stroke:none" />
          </symbol>
          <symbol
             id="textext-01020cc5-2"
             overflow="visible"
             style="overflow:visible">
            <path
               id="path4378"
               d=""
               style="stroke:none" />
          </symbol>
          <symbol
             id="textext-01020cc5-3"
             overflow="visible"
             style="overflow:visible">
            <path
               id="path4381"
               d="M 3.3125,-0.953125 3.21875,-0.984375 C 2.96875,-0.59375 2.875,-0.53125 2.5625,-0.53125 l -1.671875,0 L 2.0625,-1.75 c 0.625,-0.65625 0.890625,-1.1875 0.890625,-1.734375 0,-0.6875 -0.5625,-1.21875 -1.28125,-1.21875 -0.390625,0 -0.75,0.140625 -1.015625,0.421875 -0.21875,0.234375 -0.328125,0.46875 -0.4375,0.953125 l 0.140625,0.03125 C 0.640625,-3.96875 0.890625,-4.1875 1.375,-4.1875 c 0.578125,0 0.984375,0.390625 0.984375,0.96875 0,0.546875 -0.328125,1.203125 -0.90625,1.8125 l -1.25,1.328125 0,0.078125 2.71875,0 0.390625,-0.953125 z m 0,0"
               style="stroke:none" />
          </symbol>
        </g>
      </defs>
      <g
         id="textext-01020cc5-4">
        <g
           id="g4384"
           style="fill:#000000;fill-opacity:1">
          <use
             id="use4386"
             y="134.765"
             x="223.43201"
             xlink:href="#textext-01020cc5-1"
             width="248.03149"
             height="141.73228" />
        </g>
        <g
           id="g4388"
           style="fill:#000000;fill-opacity:1">
          <use
             id="use4390"
             y="136.259"
             x="228.41299"
             xlink:href="#textext-01020cc5-3"
             width="248.03149"
             height="141.73228" />
        </g>
      </g>
    </g>
    <g
       ns0:text="$a_{3}$"
       ns0:preamble="/home/raghu/Desktop/Prism-JKB/sdst/package.tex"
       transform="matrix(1.2,0,0,1.2,-56.999995,848.92858)"
       id="g4514">
      <defs
         id="defs4516">
        <g
           id="g4518">
          <symbol
             style="overflow:visible"
             overflow="visible"
             id="textext-a8d5f192-0">
            <path
               style="stroke:none"
               d=""
               id="path4521" />
          </symbol>
          <symbol
             style="overflow:visible"
             overflow="visible"
             id="textext-a8d5f192-1">
            <path
               style="stroke:none"
               d="m 4.625,-1.09375 c -0.15625,0.140625 -0.203125,0.203125 -0.28125,0.28125 -0.296875,0.296875 -0.421875,0.40625 -0.515625,0.40625 -0.078125,0 -0.140625,-0.0625 -0.140625,-0.125 0,-0.203125 0.421875,-1.90625 0.890625,-3.625 0.03125,-0.09375 0.03125,-0.125 0.0625,-0.203125 L 4.5625,-4.390625 3.953125,-4.328125 3.921875,-4.296875 3.8125,-3.8125 c -0.078125,-0.375 -0.359375,-0.578125 -0.796875,-0.578125 -1.3125,0 -2.84375,1.8125 -2.84375,3.390625 0,0.703125 0.375,1.109375 1.015625,1.109375 0.703125,0 1.125,-0.328125 2,-1.5625 -0.203125,0.78125 -0.234375,0.90625 -0.234375,1.140625 0,0.296875 0.125,0.40625 0.40625,0.40625 C 3.765625,0.09375 4,-0.09375 4.75,-1 L 4.625,-1.09375 z M 3.078125,-4.171875 c 0.34375,0.015625 0.5625,0.25 0.5625,0.609375 0,0.828125 -0.5,2 -1.1875,2.75 C 2.21875,-0.546875 1.875,-0.375 1.578125,-0.375 1.234375,-0.375 1,-0.671875 1,-1.125 1,-1.671875 1.390625,-2.6875 1.8125,-3.3125 2.21875,-3.890625 2.6875,-4.203125 3.078125,-4.171875 z m 0,0"
               id="path4524" />
          </symbol>
          <symbol
             style="overflow:visible"
             overflow="visible"
             id="textext-a8d5f192-2">
            <path
               style="stroke:none"
               d=""
               id="path4527" />
          </symbol>
          <symbol
             style="overflow:visible"
             overflow="visible"
             id="textext-a8d5f192-3">
            <path
               style="stroke:none"
               d="m 1.0625,-2.296875 c 0.421875,0 0.578125,0.015625 0.75,0.078125 0.421875,0.15625 0.703125,0.546875 0.703125,1.03125 0,0.578125 -0.40625,1.03125 -0.921875,1.03125 -0.1875,0 -0.328125,-0.046875 -0.578125,-0.21875 C 0.796875,-0.5 0.6875,-0.546875 0.5625,-0.546875 c -0.15625,0 -0.265625,0.09375 -0.265625,0.25 0,0.234375 0.296875,0.390625 0.796875,0.390625 0.53125,0 1.078125,-0.171875 1.40625,-0.46875 0.328125,-0.28125 0.515625,-0.6875 0.515625,-1.15625 0,-0.34375 -0.109375,-0.671875 -0.3125,-0.890625 C 2.5625,-2.578125 2.421875,-2.65625 2.125,-2.796875 2.59375,-3.125 2.78125,-3.375 2.78125,-3.75 c 0,-0.578125 -0.453125,-0.953125 -1.09375,-0.953125 -0.34375,0 -0.65625,0.109375 -0.90625,0.328125 C 0.578125,-4.1875 0.46875,-4 0.3125,-3.578125 l 0.109375,0.03125 c 0.28125,-0.515625 0.59375,-0.75 1.03125,-0.75 0.453125,0 0.765625,0.3125 0.765625,0.75 0,0.25 -0.09375,0.5 -0.28125,0.671875 -0.203125,0.21875 -0.390625,0.3125 -0.875,0.484375 l 0,0.09375 z m 0,0"
               id="path4530" />
          </symbol>
        </g>
      </defs>
      <g
         id="textext-a8d5f192-4">
        <g
           style="fill:#000000;fill-opacity:1"
           id="g4533">
          <use
             height="141.73228"
             width="248.03149"
             xlink:href="#textext-a8d5f192-1"
             x="223.43201"
             y="134.765"
             id="use4535" />
        </g>
        <g
           style="fill:#000000;fill-opacity:1"
           id="g4537">
          <use
             height="141.73228"
             width="248.03149"
             xlink:href="#textext-a8d5f192-3"
             x="228.41299"
             y="136.259"
             id="use4539" />
        </g>
      </g>
    </g>
    <g
       id="g4695"
       transform="matrix(1.2,0,0,1.2,-201.64285,798.57144)"
       ns0:preamble="/home/raghu/Desktop/Prism-JKB/sdst/package.tex"
       ns0:text="$a_{12}$">
      <defs
         id="defs4697">
        <g
           id="g4699">
          <symbol
             id="textext-ea171d0a-0"
             overflow="visible"
             style="overflow:visible">
            <path
               id="path4702"
               d=""
               style="stroke:none" />
          </symbol>
          <symbol
             id="textext-ea171d0a-1"
             overflow="visible"
             style="overflow:visible">
            <path
               id="path4705"
               d="m 4.625,-1.09375 c -0.15625,0.140625 -0.203125,0.203125 -0.28125,0.28125 -0.296875,0.296875 -0.421875,0.40625 -0.515625,0.40625 -0.078125,0 -0.140625,-0.0625 -0.140625,-0.125 0,-0.203125 0.421875,-1.90625 0.890625,-3.625 0.03125,-0.09375 0.03125,-0.125 0.0625,-0.203125 L 4.5625,-4.390625 3.953125,-4.328125 3.921875,-4.296875 3.8125,-3.8125 c -0.078125,-0.375 -0.359375,-0.578125 -0.796875,-0.578125 -1.3125,0 -2.84375,1.8125 -2.84375,3.390625 0,0.703125 0.375,1.109375 1.015625,1.109375 0.703125,0 1.125,-0.328125 2,-1.5625 -0.203125,0.78125 -0.234375,0.90625 -0.234375,1.140625 0,0.296875 0.125,0.40625 0.40625,0.40625 C 3.765625,0.09375 4,-0.09375 4.75,-1 L 4.625,-1.09375 z M 3.078125,-4.171875 c 0.34375,0.015625 0.5625,0.25 0.5625,0.609375 0,0.828125 -0.5,2 -1.1875,2.75 C 2.21875,-0.546875 1.875,-0.375 1.578125,-0.375 1.234375,-0.375 1,-0.671875 1,-1.125 1,-1.671875 1.390625,-2.6875 1.8125,-3.3125 2.21875,-3.890625 2.6875,-4.203125 3.078125,-4.171875 z m 0,0"
               style="stroke:none" />
          </symbol>
          <symbol
             id="textext-ea171d0a-2"
             overflow="visible"
             style="overflow:visible">
            <path
               id="path4708"
               d=""
               style="stroke:none" />
          </symbol>
          <symbol
             id="textext-ea171d0a-3"
             overflow="visible"
             style="overflow:visible">
            <path
               id="path4711"
               d="m 2.03125,-4.703125 -1.25,0.625 0,0.09375 c 0.078125,-0.03125 0.15625,-0.0625 0.1875,-0.078125 0.125,-0.046875 0.234375,-0.0625 0.3125,-0.0625 0.140625,0 0.203125,0.09375 0.203125,0.3125 l 0,3.171875 c 0,0.21875 -0.0625,0.375 -0.171875,0.453125 -0.09375,0.0625 -0.203125,0.078125 -0.484375,0.078125 L 0.828125,0 2.75,0 l 0,-0.109375 c -0.5625,0 -0.671875,-0.078125 -0.671875,-0.40625 l 0,-4.1875 -0.046875,0 z m 0,0"
               style="stroke:none" />
          </symbol>
          <symbol
             id="textext-ea171d0a-4"
             overflow="visible"
             style="overflow:visible">
            <path
               id="path4714"
               d="M 3.3125,-0.953125 3.21875,-0.984375 C 2.96875,-0.59375 2.875,-0.53125 2.5625,-0.53125 l -1.671875,0 L 2.0625,-1.75 c 0.625,-0.65625 0.890625,-1.1875 0.890625,-1.734375 0,-0.6875 -0.5625,-1.21875 -1.28125,-1.21875 -0.390625,0 -0.75,0.140625 -1.015625,0.421875 -0.21875,0.234375 -0.328125,0.46875 -0.4375,0.953125 l 0.140625,0.03125 C 0.640625,-3.96875 0.890625,-4.1875 1.375,-4.1875 c 0.578125,0 0.984375,0.390625 0.984375,0.96875 0,0.546875 -0.328125,1.203125 -0.90625,1.8125 l -1.25,1.328125 0,0.078125 2.71875,0 0.390625,-0.953125 z m 0,0"
               style="stroke:none" />
          </symbol>
        </g>
      </defs>
      <g
         id="textext-ea171d0a-5">
        <g
           id="g4717"
           style="fill:#000000;fill-opacity:1">
          <use
             id="use4719"
             y="134.765"
             x="223.43201"
             xlink:href="#textext-ea171d0a-1"
             width="248.03149"
             height="141.73228" />
        </g>
        <g
           id="g4721"
           style="fill:#000000;fill-opacity:1">
          <use
             id="use4723"
             y="136.259"
             x="228.41299"
             xlink:href="#textext-ea171d0a-3"
             width="248.03149"
             height="141.73228" />
          <use
             id="use4725"
             y="136.259"
             x="231.8999"
             xlink:href="#textext-ea171d0a-4"
             width="248.03149"
             height="141.73228" />
        </g>
      </g>
    </g>
    <g
       ns0:text="$a_{13}$"
       ns0:preamble="/home/raghu/Desktop/Prism-JKB/sdst/package.tex"
       transform="matrix(1.2,0,0,1.2,-82.357136,796.28572)"
       id="g4925">
      <defs
         id="defs4927">
        <g
           id="g4929">
          <symbol
             style="overflow:visible"
             overflow="visible"
             id="textext-8f93f5f6-0">
            <path
               style="stroke:none"
               d=""
               id="path4932" />
          </symbol>
          <symbol
             style="overflow:visible"
             overflow="visible"
             id="textext-8f93f5f6-1">
            <path
               style="stroke:none"
               d="m 4.625,-1.09375 c -0.15625,0.140625 -0.203125,0.203125 -0.28125,0.28125 -0.296875,0.296875 -0.421875,0.40625 -0.515625,0.40625 -0.078125,0 -0.140625,-0.0625 -0.140625,-0.125 0,-0.203125 0.421875,-1.90625 0.890625,-3.625 0.03125,-0.09375 0.03125,-0.125 0.0625,-0.203125 L 4.5625,-4.390625 3.953125,-4.328125 3.921875,-4.296875 3.8125,-3.8125 c -0.078125,-0.375 -0.359375,-0.578125 -0.796875,-0.578125 -1.3125,0 -2.84375,1.8125 -2.84375,3.390625 0,0.703125 0.375,1.109375 1.015625,1.109375 0.703125,0 1.125,-0.328125 2,-1.5625 -0.203125,0.78125 -0.234375,0.90625 -0.234375,1.140625 0,0.296875 0.125,0.40625 0.40625,0.40625 C 3.765625,0.09375 4,-0.09375 4.75,-1 L 4.625,-1.09375 z M 3.078125,-4.171875 c 0.34375,0.015625 0.5625,0.25 0.5625,0.609375 0,0.828125 -0.5,2 -1.1875,2.75 C 2.21875,-0.546875 1.875,-0.375 1.578125,-0.375 1.234375,-0.375 1,-0.671875 1,-1.125 1,-1.671875 1.390625,-2.6875 1.8125,-3.3125 2.21875,-3.890625 2.6875,-4.203125 3.078125,-4.171875 z m 0,0"
               id="path4935" />
          </symbol>
          <symbol
             style="overflow:visible"
             overflow="visible"
             id="textext-8f93f5f6-2">
            <path
               style="stroke:none"
               d=""
               id="path4938" />
          </symbol>
          <symbol
             style="overflow:visible"
             overflow="visible"
             id="textext-8f93f5f6-3">
            <path
               style="stroke:none"
               d="m 2.03125,-4.703125 -1.25,0.625 0,0.09375 c 0.078125,-0.03125 0.15625,-0.0625 0.1875,-0.078125 0.125,-0.046875 0.234375,-0.0625 0.3125,-0.0625 0.140625,0 0.203125,0.09375 0.203125,0.3125 l 0,3.171875 c 0,0.21875 -0.0625,0.375 -0.171875,0.453125 -0.09375,0.0625 -0.203125,0.078125 -0.484375,0.078125 L 0.828125,0 2.75,0 l 0,-0.109375 c -0.5625,0 -0.671875,-0.078125 -0.671875,-0.40625 l 0,-4.1875 -0.046875,0 z m 0,0"
               id="path4941" />
          </symbol>
          <symbol
             style="overflow:visible"
             overflow="visible"
             id="textext-8f93f5f6-4">
            <path
               style="stroke:none"
               d="m 1.0625,-2.296875 c 0.421875,0 0.578125,0.015625 0.75,0.078125 0.421875,0.15625 0.703125,0.546875 0.703125,1.03125 0,0.578125 -0.40625,1.03125 -0.921875,1.03125 -0.1875,0 -0.328125,-0.046875 -0.578125,-0.21875 C 0.796875,-0.5 0.6875,-0.546875 0.5625,-0.546875 c -0.15625,0 -0.265625,0.09375 -0.265625,0.25 0,0.234375 0.296875,0.390625 0.796875,0.390625 0.53125,0 1.078125,-0.171875 1.40625,-0.46875 0.328125,-0.28125 0.515625,-0.6875 0.515625,-1.15625 0,-0.34375 -0.109375,-0.671875 -0.3125,-0.890625 C 2.5625,-2.578125 2.421875,-2.65625 2.125,-2.796875 2.59375,-3.125 2.78125,-3.375 2.78125,-3.75 c 0,-0.578125 -0.453125,-0.953125 -1.09375,-0.953125 -0.34375,0 -0.65625,0.109375 -0.90625,0.328125 C 0.578125,-4.1875 0.46875,-4 0.3125,-3.578125 l 0.109375,0.03125 c 0.28125,-0.515625 0.59375,-0.75 1.03125,-0.75 0.453125,0 0.765625,0.3125 0.765625,0.75 0,0.25 -0.09375,0.5 -0.28125,0.671875 -0.203125,0.21875 -0.390625,0.3125 -0.875,0.484375 l 0,0.09375 z m 0,0"
               id="path4944" />
          </symbol>
        </g>
      </defs>
      <g
         id="textext-8f93f5f6-5">
        <g
           style="fill:#000000;fill-opacity:1"
           id="g4947">
          <use
             height="141.73228"
             width="248.03149"
             xlink:href="#textext-8f93f5f6-1"
             x="223.43201"
             y="134.765"
             id="use4949" />
        </g>
        <g
           style="fill:#000000;fill-opacity:1"
           id="g4951">
          <use
             height="141.73228"
             width="248.03149"
             xlink:href="#textext-8f93f5f6-3"
             x="228.41299"
             y="136.259"
             id="use4953" />
          <use
             height="141.73228"
             width="248.03149"
             xlink:href="#textext-8f93f5f6-4"
             x="231.8999"
             y="136.259"
             id="use4955" />
        </g>
      </g>
    </g>
    <g
       id="g5193"
       transform="matrix(1.2,0,0,1.2,-148.78571,864.64287)"
       ns0:preamble="/home/raghu/Desktop/Prism-JKB/sdst/package.tex"
       ns0:text="$a_{23}$">
      <defs
         id="defs5195">
        <g
           id="g5197">
          <symbol
             id="textext-88cd9ad9-0"
             overflow="visible"
             style="overflow:visible">
            <path
               id="path5200"
               d=""
               style="stroke:none" />
          </symbol>
          <symbol
             id="textext-88cd9ad9-1"
             overflow="visible"
             style="overflow:visible">
            <path
               id="path5203"
               d="m 4.625,-1.09375 c -0.15625,0.140625 -0.203125,0.203125 -0.28125,0.28125 -0.296875,0.296875 -0.421875,0.40625 -0.515625,0.40625 -0.078125,0 -0.140625,-0.0625 -0.140625,-0.125 0,-0.203125 0.421875,-1.90625 0.890625,-3.625 0.03125,-0.09375 0.03125,-0.125 0.0625,-0.203125 L 4.5625,-4.390625 3.953125,-4.328125 3.921875,-4.296875 3.8125,-3.8125 c -0.078125,-0.375 -0.359375,-0.578125 -0.796875,-0.578125 -1.3125,0 -2.84375,1.8125 -2.84375,3.390625 0,0.703125 0.375,1.109375 1.015625,1.109375 0.703125,0 1.125,-0.328125 2,-1.5625 -0.203125,0.78125 -0.234375,0.90625 -0.234375,1.140625 0,0.296875 0.125,0.40625 0.40625,0.40625 C 3.765625,0.09375 4,-0.09375 4.75,-1 L 4.625,-1.09375 z M 3.078125,-4.171875 c 0.34375,0.015625 0.5625,0.25 0.5625,0.609375 0,0.828125 -0.5,2 -1.1875,2.75 C 2.21875,-0.546875 1.875,-0.375 1.578125,-0.375 1.234375,-0.375 1,-0.671875 1,-1.125 1,-1.671875 1.390625,-2.6875 1.8125,-3.3125 2.21875,-3.890625 2.6875,-4.203125 3.078125,-4.171875 z m 0,0"
               style="stroke:none" />
          </symbol>
          <symbol
             id="textext-88cd9ad9-2"
             overflow="visible"
             style="overflow:visible">
            <path
               id="path5206"
               d=""
               style="stroke:none" />
          </symbol>
          <symbol
             id="textext-88cd9ad9-3"
             overflow="visible"
             style="overflow:visible">
            <path
               id="path5209"
               d="M 3.3125,-0.953125 3.21875,-0.984375 C 2.96875,-0.59375 2.875,-0.53125 2.5625,-0.53125 l -1.671875,0 L 2.0625,-1.75 c 0.625,-0.65625 0.890625,-1.1875 0.890625,-1.734375 0,-0.6875 -0.5625,-1.21875 -1.28125,-1.21875 -0.390625,0 -0.75,0.140625 -1.015625,0.421875 -0.21875,0.234375 -0.328125,0.46875 -0.4375,0.953125 l 0.140625,0.03125 C 0.640625,-3.96875 0.890625,-4.1875 1.375,-4.1875 c 0.578125,0 0.984375,0.390625 0.984375,0.96875 0,0.546875 -0.328125,1.203125 -0.90625,1.8125 l -1.25,1.328125 0,0.078125 2.71875,0 0.390625,-0.953125 z m 0,0"
               style="stroke:none" />
          </symbol>
          <symbol
             id="textext-88cd9ad9-4"
             overflow="visible"
             style="overflow:visible">
            <path
               id="path5212"
               d="m 1.0625,-2.296875 c 0.421875,0 0.578125,0.015625 0.75,0.078125 0.421875,0.15625 0.703125,0.546875 0.703125,1.03125 0,0.578125 -0.40625,1.03125 -0.921875,1.03125 -0.1875,0 -0.328125,-0.046875 -0.578125,-0.21875 C 0.796875,-0.5 0.6875,-0.546875 0.5625,-0.546875 c -0.15625,0 -0.265625,0.09375 -0.265625,0.25 0,0.234375 0.296875,0.390625 0.796875,0.390625 0.53125,0 1.078125,-0.171875 1.40625,-0.46875 0.328125,-0.28125 0.515625,-0.6875 0.515625,-1.15625 0,-0.34375 -0.109375,-0.671875 -0.3125,-0.890625 C 2.5625,-2.578125 2.421875,-2.65625 2.125,-2.796875 2.59375,-3.125 2.78125,-3.375 2.78125,-3.75 c 0,-0.578125 -0.453125,-0.953125 -1.09375,-0.953125 -0.34375,0 -0.65625,0.109375 -0.90625,0.328125 C 0.578125,-4.1875 0.46875,-4 0.3125,-3.578125 l 0.109375,0.03125 c 0.28125,-0.515625 0.59375,-0.75 1.03125,-0.75 0.453125,0 0.765625,0.3125 0.765625,0.75 0,0.25 -0.09375,0.5 -0.28125,0.671875 -0.203125,0.21875 -0.390625,0.3125 -0.875,0.484375 l 0,0.09375 z m 0,0"
               style="stroke:none" />
          </symbol>
        </g>
      </defs>
      <g
         id="textext-88cd9ad9-5">
        <g
           id="g5215"
           style="fill:#000000;fill-opacity:1">
          <use
             id="use5217"
             y="134.765"
             x="223.43201"
             xlink:href="#textext-88cd9ad9-1"
             width="248.03149"
             height="141.73228" />
        </g>
        <g
           id="g5219"
           style="fill:#000000;fill-opacity:1">
          <use
             id="use5221"
             y="136.259"
             x="228.41299"
             xlink:href="#textext-88cd9ad9-3"
             width="248.03149"
             height="141.73228" />
          <use
             id="use5223"
             y="136.259"
             x="231.8999"
             xlink:href="#textext-88cd9ad9-4"
             width="248.03149"
             height="141.73228" />
        </g>
      </g>
    </g>
    <path
       style="fill:none;stroke:#000000;stroke-width:1px;stroke-linecap:butt;stroke-linejoin:miter;stroke-opacity:1"
       d="m 118.57143,94.232284 0,12.142856"
       id="path5342"
       transform="translate(0,910.62859)" />
    <path
       id="path5344"
       d="m 83.357144,968.78948 5.71429,9.6428"
       style="fill:none;stroke:#000000;stroke-width:1px;stroke-linecap:butt;stroke-linejoin:miter;stroke-opacity:1"
       sodipodi:nodetypes="cc" />
    <path
       sodipodi:nodetypes="cc"
       style="fill:none;stroke:#000000;stroke-width:1px;stroke-linecap:butt;stroke-linejoin:miter;stroke-opacity:1"
       d="m 183.64288,962.14664 -7.85715,7.85709"
       id="path5346" />
    <g
       ns0:text="$K_{1}$"
       ns0:preamble="/home/raghu/Desktop/Prism-JKB/sdst/package.tex"
       transform="matrix(1.2,0,0,1.2,-146.64285,841.85715)"
       id="g5502">
      <defs
         id="defs5504">
        <g
           id="g5506">
          <symbol
             style="overflow:visible"
             overflow="visible"
             id="textext-8a70e4e2-0">
            <path
               style="stroke:none"
               d=""
               id="path5509" />
          </symbol>
          <symbol
             style="overflow:visible"
             overflow="visible"
             id="textext-8a70e4e2-1">
            <path
               style="stroke:none"
               d="m 7.203125,-6.515625 -2.21875,0 0,0.171875 c 0.125,0 0.234375,0.03125 0.265625,0.03125 0.25,0.015625 0.34375,0.078125 0.34375,0.1875 0,0.234375 -0.546875,0.765625 -1.4375,1.390625 l -1.515625,1.0625 0.53125,-1.9375 c 0.140625,-0.5 0.421875,-0.703125 1,-0.734375 l 0,-0.171875 -2.71875,0 0,0.171875 c 0.625,0.046875 0.765625,0.140625 0.765625,0.421875 0,0.140625 -0.03125,0.375 -0.109375,0.625 l -1.21875,4.40625 C 0.703125,-0.296875 0.65625,-0.25 0.0625,-0.15625 l 0,0.15625 2.484375,0 0,-0.15625 c -0.640625,-0.078125 -0.71875,-0.140625 -0.71875,-0.4375 0,-0.109375 0.015625,-0.1875 0.078125,-0.390625 l 0.0625,-0.21875 0.609375,-2.265625 1.203125,2.078125 c 0.25,0.40625 0.390625,0.75 0.390625,0.9375 0,0.15625 -0.140625,0.234375 -0.46875,0.265625 -0.046875,0 -0.15625,0.015625 -0.28125,0.03125 l 0,0.15625 2.734375,0 0,-0.15625 C 5.53125,-0.21875 5.46875,-0.25 5.1875,-0.71875 l -1.734375,-3.015625 3,-2.25 c 0.28125,-0.21875 0.5,-0.328125 0.75,-0.359375 l 0,-0.171875 z m 0,0"
               id="path5512" />
          </symbol>
          <symbol
             style="overflow:visible"
             overflow="visible"
             id="textext-8a70e4e2-2">
            <path
               style="stroke:none"
               d=""
               id="path5515" />
          </symbol>
          <symbol
             style="overflow:visible"
             overflow="visible"
             id="textext-8a70e4e2-3">
            <path
               style="stroke:none"
               d="m 2.03125,-4.703125 -1.25,0.625 0,0.09375 c 0.078125,-0.03125 0.15625,-0.0625 0.1875,-0.078125 0.125,-0.046875 0.234375,-0.0625 0.3125,-0.0625 0.140625,0 0.203125,0.09375 0.203125,0.3125 l 0,3.171875 c 0,0.21875 -0.0625,0.375 -0.171875,0.453125 -0.09375,0.0625 -0.203125,0.078125 -0.484375,0.078125 L 0.828125,0 2.75,0 l 0,-0.109375 c -0.5625,0 -0.671875,-0.078125 -0.671875,-0.40625 l 0,-4.1875 -0.046875,0 z m 0,0"
               id="path5518" />
          </symbol>
        </g>
      </defs>
      <g
         id="textext-8a70e4e2-4">
        <g
           style="fill:#000000;fill-opacity:1"
           id="g5521">
          <use
             height="141.73228"
             width="248.03149"
             xlink:href="#textext-8a70e4e2-1"
             x="223.681"
             y="134.765"
             id="use5523" />
        </g>
        <g
           style="fill:#000000;fill-opacity:1"
           id="g5525">
          <use
             height="141.73228"
             width="248.03149"
             xlink:href="#textext-8a70e4e2-3"
             x="230.326"
             y="136.259"
             id="use5527" />
        </g>
      </g>
    </g>
    <g
       id="g5835"
       transform="matrix(1.2,0,0,1.2,-172.64285,817.85715)"
       ns0:preamble="/home/raghu/Desktop/Prism-JKB/sdst/package.tex"
       ns0:text="$K_{3}$">
      <defs
         id="defs5837">
        <g
           id="g5839">
          <symbol
             id="textext-2de8c639-0"
             overflow="visible">
            <path
               id="path5842"
               d=""
               style="stroke:none;" />
          </symbol>
          <symbol
             id="textext-2de8c639-1"
             overflow="visible">
            <path
               id="path5845"
               d="M 7.203125 -6.515625 L 4.984375 -6.515625 L 4.984375 -6.34375 C 5.109375 -6.34375 5.21875 -6.3125 5.25 -6.3125 C 5.5 -6.296875 5.59375 -6.234375 5.59375 -6.125 C 5.59375 -5.890625 5.046875 -5.359375 4.15625 -4.734375 L 2.640625 -3.671875 L 3.171875 -5.609375 C 3.3125 -6.109375 3.59375 -6.3125 4.171875 -6.34375 L 4.171875 -6.515625 L 1.453125 -6.515625 L 1.453125 -6.34375 C 2.078125 -6.296875 2.21875 -6.203125 2.21875 -5.921875 C 2.21875 -5.78125 2.1875 -5.546875 2.109375 -5.296875 L 0.890625 -0.890625 C 0.703125 -0.296875 0.65625 -0.25 0.0625 -0.15625 L 0.0625 0 L 2.546875 0 L 2.546875 -0.15625 C 1.90625 -0.234375 1.828125 -0.296875 1.828125 -0.59375 C 1.828125 -0.703125 1.84375 -0.78125 1.90625 -0.984375 L 1.96875 -1.203125 L 2.578125 -3.46875 L 3.78125 -1.390625 C 4.03125 -0.984375 4.171875 -0.640625 4.171875 -0.453125 C 4.171875 -0.296875 4.03125 -0.21875 3.703125 -0.1875 C 3.65625 -0.1875 3.546875 -0.171875 3.421875 -0.15625 L 3.421875 0 L 6.15625 0 L 6.15625 -0.15625 C 5.53125 -0.21875 5.46875 -0.25 5.1875 -0.71875 L 3.453125 -3.734375 L 6.453125 -5.984375 C 6.734375 -6.203125 6.953125 -6.3125 7.203125 -6.34375 L 7.203125 -6.515625 Z M 7.203125 -6.515625 "
               style="stroke:none;" />
          </symbol>
          <symbol
             id="textext-2de8c639-2"
             overflow="visible">
            <path
               id="path5848"
               d=""
               style="stroke:none;" />
          </symbol>
          <symbol
             id="textext-2de8c639-3"
             overflow="visible">
            <path
               id="path5851"
               d="M 1.0625 -2.296875 C 1.484375 -2.296875 1.640625 -2.28125 1.8125 -2.21875 C 2.234375 -2.0625 2.515625 -1.671875 2.515625 -1.1875 C 2.515625 -0.609375 2.109375 -0.15625 1.59375 -0.15625 C 1.40625 -0.15625 1.265625 -0.203125 1.015625 -0.375 C 0.796875 -0.5 0.6875 -0.546875 0.5625 -0.546875 C 0.40625 -0.546875 0.296875 -0.453125 0.296875 -0.296875 C 0.296875 -0.0625 0.59375 0.09375 1.09375 0.09375 C 1.625 0.09375 2.171875 -0.078125 2.5 -0.375 C 2.828125 -0.65625 3.015625 -1.0625 3.015625 -1.53125 C 3.015625 -1.875 2.90625 -2.203125 2.703125 -2.421875 C 2.5625 -2.578125 2.421875 -2.65625 2.125 -2.796875 C 2.59375 -3.125 2.78125 -3.375 2.78125 -3.75 C 2.78125 -4.328125 2.328125 -4.703125 1.6875 -4.703125 C 1.34375 -4.703125 1.03125 -4.59375 0.78125 -4.375 C 0.578125 -4.1875 0.46875 -4 0.3125 -3.578125 L 0.421875 -3.546875 C 0.703125 -4.0625 1.015625 -4.296875 1.453125 -4.296875 C 1.90625 -4.296875 2.21875 -3.984375 2.21875 -3.546875 C 2.21875 -3.296875 2.125 -3.046875 1.9375 -2.875 C 1.734375 -2.65625 1.546875 -2.5625 1.0625 -2.390625 L 1.0625 -2.296875 Z M 1.0625 -2.296875 "
               style="stroke:none;" />
          </symbol>
        </g>
      </defs>
      <g
         id="textext-2de8c639-4">
        <g
           id="g5854"
           style="fill:rgb(0%,0%,0%);fill-opacity:1;">
          <use
             id="use5856"
             y="134.765"
             x="223.681"
             xlink:href="#textext-2de8c639-1" />
        </g>
        <g
           id="g5858"
           style="fill:rgb(0%,0%,0%);fill-opacity:1;">
          <use
             id="use5860"
             y="136.259"
             x="230.326"
             xlink:href="#textext-2de8c639-3" />
        </g>
      </g>
    </g>
    <g
       ns0:text="$K_{2}$"
       ns0:preamble="/home/raghu/Desktop/Prism-JKB/sdst/package.tex"
       transform="matrix(1.2,0,0,1.2,-108.64285,813.85715)"
       id="g6200">
      <defs
         id="defs6202">
        <g
           id="g6204">
          <symbol
             overflow="visible"
             id="textext-1cc5bb1b-0">
            <path
               style="stroke:none;"
               d=""
               id="path6207" />
          </symbol>
          <symbol
             overflow="visible"
             id="textext-1cc5bb1b-1">
            <path
               style="stroke:none;"
               d="M 7.203125 -6.515625 L 4.984375 -6.515625 L 4.984375 -6.34375 C 5.109375 -6.34375 5.21875 -6.3125 5.25 -6.3125 C 5.5 -6.296875 5.59375 -6.234375 5.59375 -6.125 C 5.59375 -5.890625 5.046875 -5.359375 4.15625 -4.734375 L 2.640625 -3.671875 L 3.171875 -5.609375 C 3.3125 -6.109375 3.59375 -6.3125 4.171875 -6.34375 L 4.171875 -6.515625 L 1.453125 -6.515625 L 1.453125 -6.34375 C 2.078125 -6.296875 2.21875 -6.203125 2.21875 -5.921875 C 2.21875 -5.78125 2.1875 -5.546875 2.109375 -5.296875 L 0.890625 -0.890625 C 0.703125 -0.296875 0.65625 -0.25 0.0625 -0.15625 L 0.0625 0 L 2.546875 0 L 2.546875 -0.15625 C 1.90625 -0.234375 1.828125 -0.296875 1.828125 -0.59375 C 1.828125 -0.703125 1.84375 -0.78125 1.90625 -0.984375 L 1.96875 -1.203125 L 2.578125 -3.46875 L 3.78125 -1.390625 C 4.03125 -0.984375 4.171875 -0.640625 4.171875 -0.453125 C 4.171875 -0.296875 4.03125 -0.21875 3.703125 -0.1875 C 3.65625 -0.1875 3.546875 -0.171875 3.421875 -0.15625 L 3.421875 0 L 6.15625 0 L 6.15625 -0.15625 C 5.53125 -0.21875 5.46875 -0.25 5.1875 -0.71875 L 3.453125 -3.734375 L 6.453125 -5.984375 C 6.734375 -6.203125 6.953125 -6.3125 7.203125 -6.34375 L 7.203125 -6.515625 Z M 7.203125 -6.515625 "
               id="path6210" />
          </symbol>
          <symbol
             overflow="visible"
             id="textext-1cc5bb1b-2">
            <path
               style="stroke:none;"
               d=""
               id="path6213" />
          </symbol>
          <symbol
             overflow="visible"
             id="textext-1cc5bb1b-3">
            <path
               style="stroke:none;"
               d="M 3.3125 -0.953125 L 3.21875 -0.984375 C 2.96875 -0.59375 2.875 -0.53125 2.5625 -0.53125 L 0.890625 -0.53125 L 2.0625 -1.75 C 2.6875 -2.40625 2.953125 -2.9375 2.953125 -3.484375 C 2.953125 -4.171875 2.390625 -4.703125 1.671875 -4.703125 C 1.28125 -4.703125 0.921875 -4.5625 0.65625 -4.28125 C 0.4375 -4.046875 0.328125 -3.8125 0.21875 -3.328125 L 0.359375 -3.296875 C 0.640625 -3.96875 0.890625 -4.1875 1.375 -4.1875 C 1.953125 -4.1875 2.359375 -3.796875 2.359375 -3.21875 C 2.359375 -2.671875 2.03125 -2.015625 1.453125 -1.40625 L 0.203125 -0.078125 L 0.203125 0 L 2.921875 0 L 3.3125 -0.953125 Z M 3.3125 -0.953125 "
               id="path6216" />
          </symbol>
        </g>
      </defs>
      <g
         id="textext-1cc5bb1b-4">
        <g
           style="fill:rgb(0%,0%,0%);fill-opacity:1;"
           id="g6219">
          <use
             xlink:href="#textext-1cc5bb1b-1"
             x="223.681"
             y="134.765"
             id="use6221" />
        </g>
        <g
           style="fill:rgb(0%,0%,0%);fill-opacity:1;"
           id="g6223">
          <use
             xlink:href="#textext-1cc5bb1b-3"
             x="230.326"
             y="136.259"
             id="use6225" />
        </g>
      </g>
    </g>
    <g
       id="g6603"
       transform="matrix(1.2,0,0,1.2,-136.92857,819.64287)"
       ns0:preamble="/home/raghu/Desktop/Prism-JKB/sdst/package.tex"
       ns0:text="$a$">
      <defs
         id="defs6605">
        <g
           id="g6607">
          <symbol
             id="textext-0e40c315-0"
             overflow="visible"
             style="overflow:visible">
            <path
               id="path6610"
               d=""
               style="stroke:none" />
          </symbol>
          <symbol
             id="textext-0e40c315-1"
             overflow="visible"
             style="overflow:visible">
            <path
               id="path6613"
               d="m 4.625,-1.09375 c -0.15625,0.140625 -0.203125,0.203125 -0.28125,0.28125 -0.296875,0.296875 -0.421875,0.40625 -0.515625,0.40625 -0.078125,0 -0.140625,-0.0625 -0.140625,-0.125 0,-0.203125 0.421875,-1.90625 0.890625,-3.625 0.03125,-0.09375 0.03125,-0.125 0.0625,-0.203125 L 4.5625,-4.390625 3.953125,-4.328125 3.921875,-4.296875 3.8125,-3.8125 c -0.078125,-0.375 -0.359375,-0.578125 -0.796875,-0.578125 -1.3125,0 -2.84375,1.8125 -2.84375,3.390625 0,0.703125 0.375,1.109375 1.015625,1.109375 0.703125,0 1.125,-0.328125 2,-1.5625 -0.203125,0.78125 -0.234375,0.90625 -0.234375,1.140625 0,0.296875 0.125,0.40625 0.40625,0.40625 C 3.765625,0.09375 4,-0.09375 4.75,-1 L 4.625,-1.09375 z M 3.078125,-4.171875 c 0.34375,0.015625 0.5625,0.25 0.5625,0.609375 0,0.828125 -0.5,2 -1.1875,2.75 C 2.21875,-0.546875 1.875,-0.375 1.578125,-0.375 1.234375,-0.375 1,-0.671875 1,-1.125 1,-1.671875 1.390625,-2.6875 1.8125,-3.3125 2.21875,-3.890625 2.6875,-4.203125 3.078125,-4.171875 z m 0,0"
               style="stroke:none" />
          </symbol>
        </g>
      </defs>
      <g
         id="textext-0e40c315-2">
        <g
           id="g6616"
           style="fill:#000000;fill-opacity:1">
          <use
             id="use6618"
             y="134.765"
             x="223.43201"
             xlink:href="#textext-0e40c315-1"
             width="248.03149"
             height="141.73228" />
        </g>
      </g>
    </g>
  </g>
</svg>
