<?xml version="1.0" encoding="UTF-8" standalone="no"?>
<!-- Created with Inkscape (http://www.inkscape.org/) -->

<svg
   xmlns:ns0="http://www.iki.fi/pav/software/textext/"
   xmlns:dc="http://purl.org/dc/elements/1.1/"
   xmlns:cc="http://creativecommons.org/ns#"
   xmlns:rdf="http://www.w3.org/1999/02/22-rdf-syntax-ns#"
   xmlns:svg="http://www.w3.org/2000/svg"
   xmlns="http://www.w3.org/2000/svg"
   xmlns:xlink="http://www.w3.org/1999/xlink"
   xmlns:sodipodi="http://sodipodi.sourceforge.net/DTD/sodipodi-0.dtd"
   xmlns:inkscape="http://www.inkscape.org/namespaces/inkscape"
   width="248.03149"
   height="177.16534"
   id="svg2"
   version="1.1"
   inkscape:version="0.47pre4 r22446"
   sodipodi:docname="New document 1">
  <sodipodi:namedview
     id="base"
     pagecolor="#ffffff"
     bordercolor="#666666"
     borderopacity="1.0"
     inkscape:pageopacity="0.0"
     inkscape:pageshadow="2"
     inkscape:zoom="2.8"
     inkscape:cx="122.06054"
     inkscape:cy="82.327255"
     inkscape:document-units="px"
     inkscape:current-layer="layer1"
     showgrid="false"
     units="cm"
     inkscape:window-width="1024"
     inkscape:window-height="685"
     inkscape:window-x="0"
     inkscape:window-y="30"
     inkscape:window-maximized="1" />
  <defs
     id="defs4">
    <marker
       style="overflow:visible"
       id="DotS"
       refX="0.0"
       refY="0.0"
       orient="auto"
       inkscape:stockid="DotS">
      <path
         transform="scale(0.2) translate(7.4, 1)"
         style="fill-rule:evenodd;stroke:#000000;stroke-width:1.0pt;marker-start:none;marker-end:none"
         d="M -2.5,-1.0 C -2.5,1.7600000 -4.7400000,4.0 -7.5,4.0 C -10.260000,4.0 -12.5,1.7600000 -12.5,-1.0 C -12.5,-3.7600000 -10.260000,-6.0 -7.5,-6.0 C -4.7400000,-6.0 -2.5,-3.7600000 -2.5,-1.0 z "
         id="path3663" />
    </marker>
    <marker
       style="overflow:visible"
       id="DotM"
       refX="0.0"
       refY="0.0"
       orient="auto"
       inkscape:stockid="DotM">
      <path
         transform="scale(0.4) translate(7.4, 1)"
         style="fill-rule:evenodd;stroke:#000000;stroke-width:1.0pt;marker-start:none;marker-end:none"
         d="M -2.5,-1.0 C -2.5,1.7600000 -4.7400000,4.0 -7.5,4.0 C -10.260000,4.0 -12.5,1.7600000 -12.5,-1.0 C -12.5,-3.7600000 -10.260000,-6.0 -7.5,-6.0 C -4.7400000,-6.0 -2.5,-3.7600000 -2.5,-1.0 z "
         id="path3660" />
    </marker>
    <marker
       style="overflow:visible;"
       id="Arrow1Mend"
       refX="0.0"
       refY="0.0"
       orient="auto"
       inkscape:stockid="Arrow1Mend">
      <path
         transform="scale(0.4) rotate(180) translate(10,0)"
         style="fill-rule:evenodd;stroke:#000000;stroke-width:1.0pt;marker-start:none;"
         d="M 0.0,0.0 L 5.0,-5.0 L -12.5,0.0 L 5.0,5.0 L 0.0,0.0 z "
         id="path3604" />
    </marker>
    <inkscape:perspective
       id="perspective10"
       inkscape:persp3d-origin="372.04724 : 350.78739 : 1"
       inkscape:vp_z="744.09448 : 526.18109 : 1"
       inkscape:vp_y="0 : 1000 : 0"
       inkscape:vp_x="0 : 526.18109 : 1"
       sodipodi:type="inkscape:persp3d" />
  </defs>
  <metadata
     id="metadata7">
    <rdf:RDF>
      <cc:Work
         rdf:about="">
        <dc:format>image/svg+xml</dc:format>
        <dc:type
           rdf:resource="http://purl.org/dc/dcmitype/StillImage" />
        <dc:title></dc:title>
      </cc:Work>
    </rdf:RDF>
  </metadata>
  <g
     transform="translate(0,-875.19552)"
     id="layer1"
     inkscape:groupmode="layer"
     inkscape:label="Layer 1">
    <path
       sodipodi:nodetypes="ccccc"
       transform="translate(0,875.19552)"
       id="path2816"
       d="M 43.571428,135.73677 73.214286,33.236773 181.78571,82.522487 137.14286,130.02248 43.571428,135.73677 z"
       style="fill:none;stroke:#000000;stroke-width:1.25000000000000000;stroke-linecap:butt;stroke-linejoin:miter;stroke-opacity:1;marker-start:url(#DotM);stroke-miterlimit:4;stroke-dasharray:none;marker-mid:url(#DotM)" />
    <path
       sodipodi:nodetypes="cc"
       transform="translate(0,875.19552)"
       id="path2818"
       d="M 73.23606,33.218606 153.84214,155.38579"
       style="fill:none;stroke:#000000;stroke-width:1.25000000000000000;stroke-linecap:butt;stroke-linejoin:miter;stroke-opacity:1;stroke-miterlimit:4;stroke-dasharray:none;marker-end:url(#Arrow1Mend)" />
    <path
       sodipodi:nodetypes="cc"
       id="path4418"
       d="m 50.892864,956.20015 14.821429,6.69642"
       style="fill:none;stroke:#000000;stroke-width:1.25;stroke-linecap:butt;stroke-linejoin:miter;stroke-miterlimit:4;stroke-opacity:1;stroke-dasharray:none" />
    <path
       sodipodi:nodetypes="cc"
       style="fill:none;stroke:#000000;stroke-width:1.25;stroke-linecap:butt;stroke-linejoin:miter;stroke-miterlimit:4;stroke-opacity:1;stroke-dasharray:none"
       d="m 127.78572,924.27153 -8.92858,13.66071"
       id="path4420" />
    <path
       sodipodi:nodetypes="cc"
       style="fill:none;stroke:#000000;stroke-width:1.25;stroke-linecap:butt;stroke-linejoin:miter;stroke-miterlimit:4;stroke-opacity:1;stroke-dasharray:none"
       d="m 89.51786,999.1465 2.946423,17.4108"
       id="path4422" />
    <path
       id="path4424"
       d="m 155.42849,976.62879 8.30356,12.94662"
       style="fill:none;stroke:#000000;stroke-width:1.25;stroke-linecap:butt;stroke-linejoin:miter;stroke-miterlimit:4;stroke-opacity:1;stroke-dasharray:none"
       sodipodi:nodetypes="cc" />
    <path
       id="path4426"
       d="M 109.75145,948.76902 96.749906,959.03951"
       style="fill:none;stroke:#000000;stroke-width:1.25;stroke-linecap:butt;stroke-linejoin:miter;stroke-miterlimit:4;stroke-opacity:1;stroke-dasharray:none"
       sodipodi:nodetypes="cc" />
    <path
       sodipodi:nodetypes="cc"
       style="fill:none;stroke:#000000;stroke-width:1.25;stroke-linecap:butt;stroke-linejoin:miter;stroke-miterlimit:4;stroke-opacity:1;stroke-dasharray:none;marker-end:url(#Arrow1Mend)"
       d="M 112.75664,968.87809 129.8997,956.73523"
       id="path4428" />
    <path
       id="path4616"
       d="m 113.91662,949.67964 9.69685,-6.42984"
       style="fill:none;stroke:#000000;stroke-width:0.9158293;stroke-linecap:butt;stroke-linejoin:miter;stroke-miterlimit:4;stroke-opacity:1;stroke-dasharray:none;marker-end:url(#Arrow1Mend)"
       sodipodi:nodetypes="cc" />
    <path
       transform="matrix(0.93405236,0,0,0.93405236,5.1856525,876.70391)"
       d="m 77.529205,33.881519 c 0,2.562816 -2.077572,4.640389 -4.640388,4.640389 -2.562816,0 -4.640389,-2.077573 -4.640389,-4.640389 0,-2.562815 2.077573,-4.640388 4.640389,-4.640388 2.562816,0 4.640388,2.077573 4.640388,4.640388 z"
       sodipodi:ry="4.6403885"
       sodipodi:rx="4.6403885"
       sodipodi:cy="33.881519"
       sodipodi:cx="72.888817"
       id="path4618"
       style="fill:none;stroke:#000000;stroke-width:1.25;stroke-linecap:round;stroke-linejoin:miter;stroke-miterlimit:4;stroke-opacity:1;stroke-dasharray:none;stroke-dashoffset:0"
       sodipodi:type="arc" />
    <path
       sodipodi:type="arc"
       style="fill:none;stroke:#000000;stroke-width:0.90730923;stroke-linecap:round;stroke-linejoin:miter;stroke-miterlimit:4;stroke-opacity:1;stroke-dasharray:none;stroke-dashoffset:0"
       id="path4620"
       sodipodi:cx="72.888817"
       sodipodi:cy="33.881519"
       sodipodi:rx="4.6403885"
       sodipodi:ry="4.6403885"
       d="m 77.529205,33.881519 c 0,2.562816 -2.077572,4.640389 -4.640388,4.640389 -2.562816,0 -4.640389,-2.077573 -4.640389,-4.640389 0,-2.562815 2.077573,-4.640388 4.640389,-4.640388 2.562816,0 4.640388,2.077573 4.640388,4.640388 z"
       transform="matrix(1.3777001,0,0,1.3777001,-27.140045,861.54621)" />
    <path
       sodipodi:type="arc"
       style="fill:none;stroke:#000000;stroke-width:1.25;stroke-linecap:round;stroke-linejoin:miter;stroke-miterlimit:4;stroke-opacity:1;stroke-dasharray:none;stroke-dashoffset:0"
       id="path4622"
       sodipodi:cx="72.888817"
       sodipodi:cy="33.881519"
       sodipodi:rx="4.6403885"
       sodipodi:ry="4.6403885"
       d="m 77.529205,33.881519 c 0,2.562816 -2.077572,4.640389 -4.640388,4.640389 -2.562816,0 -4.640389,-2.077573 -4.640389,-4.640389 0,-2.562815 2.077573,-4.640388 4.640389,-4.640388 2.562816,0 4.640388,2.077573 4.640388,4.640388 z"
       transform="matrix(0.93405236,0,0,0.93405236,-24.352432,979.2344)" />
    <path
       transform="matrix(1.3777001,0,0,1.3777001,-56.67813,964.0767)"
       d="m 77.529205,33.881519 c 0,2.562816 -2.077572,4.640389 -4.640388,4.640389 -2.562816,0 -4.640389,-2.077573 -4.640389,-4.640389 0,-2.562815 2.077573,-4.640388 4.640389,-4.640388 2.562816,0 4.640388,2.077573 4.640388,4.640388 z"
       sodipodi:ry="4.6403885"
       sodipodi:rx="4.6403885"
       sodipodi:cy="33.881519"
       sodipodi:cx="72.888817"
       id="path4624"
       style="fill:none;stroke:#000000;stroke-width:0.90730923;stroke-linecap:round;stroke-linejoin:miter;stroke-miterlimit:4;stroke-opacity:1;stroke-dasharray:none;stroke-dashoffset:0"
       sodipodi:type="arc" />
    <path
       transform="matrix(0.93405236,0,0,0.93405236,69.063822,973.67855)"
       d="m 77.529205,33.881519 c 0,2.562816 -2.077572,4.640389 -4.640388,4.640389 -2.562816,0 -4.640389,-2.077573 -4.640389,-4.640389 0,-2.562815 2.077573,-4.640388 4.640389,-4.640388 2.562816,0 4.640388,2.077573 4.640388,4.640388 z"
       sodipodi:ry="4.6403885"
       sodipodi:rx="4.6403885"
       sodipodi:cy="33.881519"
       sodipodi:cx="72.888817"
       id="path4626"
       style="fill:none;stroke:#000000;stroke-width:1.25;stroke-linecap:round;stroke-linejoin:miter;stroke-miterlimit:4;stroke-opacity:1;stroke-dasharray:none;stroke-dashoffset:0"
       sodipodi:type="arc" />
    <path
       sodipodi:type="arc"
       style="fill:none;stroke:#000000;stroke-width:0.90730923;stroke-linecap:round;stroke-linejoin:miter;stroke-miterlimit:4;stroke-opacity:1;stroke-dasharray:none;stroke-dashoffset:0"
       id="path4628"
       sodipodi:cx="72.888817"
       sodipodi:cy="33.881519"
       sodipodi:rx="4.6403885"
       sodipodi:ry="4.6403885"
       d="m 77.529205,33.881519 c 0,2.562816 -2.077572,4.640389 -4.640388,4.640389 -2.562816,0 -4.640389,-2.077573 -4.640389,-4.640389 0,-2.562815 2.077573,-4.640388 4.640389,-4.640388 2.562816,0 4.640388,2.077573 4.640388,4.640388 z"
       transform="matrix(1.3777001,0,0,1.3777001,36.738124,958.52085)" />
    <path
       sodipodi:type="arc"
       style="fill:none;stroke:#000000;stroke-width:1.25;stroke-linecap:round;stroke-linejoin:miter;stroke-miterlimit:4;stroke-opacity:1;stroke-dasharray:none;stroke-dashoffset:0"
       id="path4630"
       sodipodi:cx="72.888817"
       sodipodi:cy="33.881519"
       sodipodi:rx="4.6403885"
       sodipodi:ry="4.6403885"
       d="m 77.529205,33.881519 c 0,2.562816 -2.077572,4.640389 -4.640388,4.640389 -2.562816,0 -4.640389,-2.077573 -4.640389,-4.640389 0,-2.562815 2.077573,-4.640388 4.640389,-4.640388 2.562816,0 4.640388,2.077573 4.640388,4.640388 z"
       transform="matrix(0.93405236,0,0,0.93405236,113.5892,926.20138)" />
    <path
       transform="matrix(1.3777001,0,0,1.3777001,81.263506,911.04368)"
       d="m 77.529205,33.881519 c 0,2.562816 -2.077572,4.640389 -4.640388,4.640389 -2.562816,0 -4.640389,-2.077573 -4.640389,-4.640389 0,-2.562815 2.077573,-4.640388 4.640389,-4.640388 2.562816,0 4.640388,2.077573 4.640388,4.640388 z"
       sodipodi:ry="4.6403885"
       sodipodi:rx="4.6403885"
       sodipodi:cy="33.881519"
       sodipodi:cx="72.888817"
       id="path4632"
       style="fill:none;stroke:#000000;stroke-width:0.90730923;stroke-linecap:round;stroke-linejoin:miter;stroke-miterlimit:4;stroke-opacity:1;stroke-dasharray:none;stroke-dashoffset:0"
       sodipodi:type="arc" />
    <g
       id="g5417"
       ns0:preamble="/home/raghu/Desktop/Prism-JKB/sdst/package.tex"
       ns0:text="$a_{1}$"
       transform="matrix(1.2,0,0,1.2,-187.32144,738.92857)"
       inkscape:transform-center-x="-1.4285714"
       inkscape:transform-center-y="4.6428572">
      <defs
         id="defs5419">
        <g
           id="g5421">
          <symbol
             id="textext-3493ecae-0"
             overflow="visible"
             style="overflow:visible">
            <path
               id="path5424"
               d=""
               style="stroke:none" />
          </symbol>
          <symbol
             id="textext-3493ecae-1"
             overflow="visible"
             style="overflow:visible">
            <path
               id="path5427"
               d="m 4.625,-1.09375 c -0.15625,0.140625 -0.203125,0.203125 -0.28125,0.28125 -0.296875,0.296875 -0.421875,0.40625 -0.515625,0.40625 -0.078125,0 -0.140625,-0.0625 -0.140625,-0.125 0,-0.203125 0.421875,-1.90625 0.890625,-3.625 0.03125,-0.09375 0.03125,-0.125 0.0625,-0.203125 L 4.5625,-4.390625 3.953125,-4.328125 3.921875,-4.296875 3.8125,-3.8125 c -0.078125,-0.375 -0.359375,-0.578125 -0.796875,-0.578125 -1.3125,0 -2.84375,1.8125 -2.84375,3.390625 0,0.703125 0.375,1.109375 1.015625,1.109375 0.703125,0 1.125,-0.328125 2,-1.5625 -0.203125,0.78125 -0.234375,0.90625 -0.234375,1.140625 0,0.296875 0.125,0.40625 0.40625,0.40625 C 3.765625,0.09375 4,-0.09375 4.75,-1 L 4.625,-1.09375 z M 3.078125,-4.171875 c 0.34375,0.015625 0.5625,0.25 0.5625,0.609375 0,0.828125 -0.5,2 -1.1875,2.75 C 2.21875,-0.546875 1.875,-0.375 1.578125,-0.375 1.234375,-0.375 1,-0.671875 1,-1.125 1,-1.671875 1.390625,-2.6875 1.8125,-3.3125 2.21875,-3.890625 2.6875,-4.203125 3.078125,-4.171875 z m 0,0"
               style="stroke:none" />
          </symbol>
          <symbol
             id="textext-3493ecae-2"
             overflow="visible"
             style="overflow:visible">
            <path
               id="path5430"
               d=""
               style="stroke:none" />
          </symbol>
          <symbol
             id="textext-3493ecae-3"
             overflow="visible"
             style="overflow:visible">
            <path
               id="path5433"
               d="m 2.03125,-4.703125 -1.25,0.625 0,0.09375 c 0.078125,-0.03125 0.15625,-0.0625 0.1875,-0.078125 0.125,-0.046875 0.234375,-0.0625 0.3125,-0.0625 0.140625,0 0.203125,0.09375 0.203125,0.3125 l 0,3.171875 c 0,0.21875 -0.0625,0.375 -0.171875,0.453125 -0.09375,0.0625 -0.203125,0.078125 -0.484375,0.078125 L 0.828125,0 2.75,0 l 0,-0.109375 c -0.5625,0 -0.671875,-0.078125 -0.671875,-0.40625 l 0,-4.1875 -0.046875,0 z m 0,0"
               style="stroke:none" />
          </symbol>
        </g>
      </defs>
      <g
         id="textext-3493ecae-4">
        <g
           id="g5436"
           style="fill:#000000;fill-opacity:1">
          <use
             id="use5438"
             y="134.765"
             x="223.43201"
             xlink:href="#textext-3493ecae-1"
             width="248.03149"
             height="177.16534" />
        </g>
        <g
           id="g5440"
           style="fill:#000000;fill-opacity:1">
          <use
             id="use5442"
             y="136.259"
             x="228.41299"
             xlink:href="#textext-3493ecae-3"
             width="248.03149"
             height="177.16534" />
        </g>
      </g>
    </g>
    <g
       ns0:text="$a_{2}$"
       ns0:preamble="/home/raghu/Desktop/Prism-JKB/sdst/package.tex"
       transform="matrix(1.2,0,0,1.2,-240.60715,861.42857)"
       id="g5564">
      <defs
         id="defs5566">
        <g
           id="g5568">
          <symbol
             style="overflow:visible"
             overflow="visible"
             id="textext-01020cc5-0">
            <path
               style="stroke:none"
               d=""
               id="path5571" />
          </symbol>
          <symbol
             style="overflow:visible"
             overflow="visible"
             id="textext-01020cc5-1">
            <path
               style="stroke:none"
               d="m 4.625,-1.09375 c -0.15625,0.140625 -0.203125,0.203125 -0.28125,0.28125 -0.296875,0.296875 -0.421875,0.40625 -0.515625,0.40625 -0.078125,0 -0.140625,-0.0625 -0.140625,-0.125 0,-0.203125 0.421875,-1.90625 0.890625,-3.625 0.03125,-0.09375 0.03125,-0.125 0.0625,-0.203125 L 4.5625,-4.390625 3.953125,-4.328125 3.921875,-4.296875 3.8125,-3.8125 c -0.078125,-0.375 -0.359375,-0.578125 -0.796875,-0.578125 -1.3125,0 -2.84375,1.8125 -2.84375,3.390625 0,0.703125 0.375,1.109375 1.015625,1.109375 0.703125,0 1.125,-0.328125 2,-1.5625 -0.203125,0.78125 -0.234375,0.90625 -0.234375,1.140625 0,0.296875 0.125,0.40625 0.40625,0.40625 C 3.765625,0.09375 4,-0.09375 4.75,-1 L 4.625,-1.09375 z M 3.078125,-4.171875 c 0.34375,0.015625 0.5625,0.25 0.5625,0.609375 0,0.828125 -0.5,2 -1.1875,2.75 C 2.21875,-0.546875 1.875,-0.375 1.578125,-0.375 1.234375,-0.375 1,-0.671875 1,-1.125 1,-1.671875 1.390625,-2.6875 1.8125,-3.3125 2.21875,-3.890625 2.6875,-4.203125 3.078125,-4.171875 z m 0,0"
               id="path5574" />
          </symbol>
          <symbol
             style="overflow:visible"
             overflow="visible"
             id="textext-01020cc5-2">
            <path
               style="stroke:none"
               d=""
               id="path5577" />
          </symbol>
          <symbol
             style="overflow:visible"
             overflow="visible"
             id="textext-01020cc5-3">
            <path
               style="stroke:none"
               d="M 3.3125,-0.953125 3.21875,-0.984375 C 2.96875,-0.59375 2.875,-0.53125 2.5625,-0.53125 l -1.671875,0 L 2.0625,-1.75 c 0.625,-0.65625 0.890625,-1.1875 0.890625,-1.734375 0,-0.6875 -0.5625,-1.21875 -1.28125,-1.21875 -0.390625,0 -0.75,0.140625 -1.015625,0.421875 -0.21875,0.234375 -0.328125,0.46875 -0.4375,0.953125 l 0.140625,0.03125 C 0.640625,-3.96875 0.890625,-4.1875 1.375,-4.1875 c 0.578125,0 0.984375,0.390625 0.984375,0.96875 0,0.546875 -0.328125,1.203125 -0.90625,1.8125 l -1.25,1.328125 0,0.078125 2.71875,0 0.390625,-0.953125 z m 0,0"
               id="path5580" />
          </symbol>
        </g>
      </defs>
      <g
         id="textext-01020cc5-4">
        <g
           style="fill:#000000;fill-opacity:1"
           id="g5583">
          <use
             height="177.16534"
             width="248.03149"
             xlink:href="#textext-01020cc5-1"
             x="223.43201"
             y="134.765"
             id="use5585" />
        </g>
        <g
           style="fill:#000000;fill-opacity:1"
           id="g5587">
          <use
             height="177.16534"
             width="248.03149"
             xlink:href="#textext-01020cc5-3"
             x="228.41299"
             y="136.259"
             id="use5589" />
        </g>
      </g>
    </g>
    <g
       id="g5743"
       transform="matrix(1.2,0,0,1.2,-122.10716,849.64285)"
       ns0:preamble="/home/raghu/Desktop/Prism-JKB/sdst/package.tex"
       ns0:text="$a_{3}$">
      <defs
         id="defs5745">
        <g
           id="g5747">
          <symbol
             style="overflow:visible"
             id="textext-a8d5f192-0"
             overflow="visible">
            <path
               id="path5750"
               d=""
               style="stroke:none" />
          </symbol>
          <symbol
             style="overflow:visible"
             id="textext-a8d5f192-1"
             overflow="visible">
            <path
               id="path5753"
               d="m 4.625,-1.09375 c -0.15625,0.140625 -0.203125,0.203125 -0.28125,0.28125 -0.296875,0.296875 -0.421875,0.40625 -0.515625,0.40625 -0.078125,0 -0.140625,-0.0625 -0.140625,-0.125 0,-0.203125 0.421875,-1.90625 0.890625,-3.625 0.03125,-0.09375 0.03125,-0.125 0.0625,-0.203125 L 4.5625,-4.390625 3.953125,-4.328125 3.921875,-4.296875 3.8125,-3.8125 c -0.078125,-0.375 -0.359375,-0.578125 -0.796875,-0.578125 -1.3125,0 -2.84375,1.8125 -2.84375,3.390625 0,0.703125 0.375,1.109375 1.015625,1.109375 0.703125,0 1.125,-0.328125 2,-1.5625 -0.203125,0.78125 -0.234375,0.90625 -0.234375,1.140625 0,0.296875 0.125,0.40625 0.40625,0.40625 C 3.765625,0.09375 4,-0.09375 4.75,-1 L 4.625,-1.09375 z M 3.078125,-4.171875 c 0.34375,0.015625 0.5625,0.25 0.5625,0.609375 0,0.828125 -0.5,2 -1.1875,2.75 C 2.21875,-0.546875 1.875,-0.375 1.578125,-0.375 1.234375,-0.375 1,-0.671875 1,-1.125 1,-1.671875 1.390625,-2.6875 1.8125,-3.3125 2.21875,-3.890625 2.6875,-4.203125 3.078125,-4.171875 z m 0,0"
               style="stroke:none" />
          </symbol>
          <symbol
             style="overflow:visible"
             id="textext-a8d5f192-2"
             overflow="visible">
            <path
               id="path5756"
               d=""
               style="stroke:none" />
          </symbol>
          <symbol
             style="overflow:visible"
             id="textext-a8d5f192-3"
             overflow="visible">
            <path
               id="path5759"
               d="m 1.0625,-2.296875 c 0.421875,0 0.578125,0.015625 0.75,0.078125 0.421875,0.15625 0.703125,0.546875 0.703125,1.03125 0,0.578125 -0.40625,1.03125 -0.921875,1.03125 -0.1875,0 -0.328125,-0.046875 -0.578125,-0.21875 C 0.796875,-0.5 0.6875,-0.546875 0.5625,-0.546875 c -0.15625,0 -0.265625,0.09375 -0.265625,0.25 0,0.234375 0.296875,0.390625 0.796875,0.390625 0.53125,0 1.078125,-0.171875 1.40625,-0.46875 0.328125,-0.28125 0.515625,-0.6875 0.515625,-1.15625 0,-0.34375 -0.109375,-0.671875 -0.3125,-0.890625 C 2.5625,-2.578125 2.421875,-2.65625 2.125,-2.796875 2.59375,-3.125 2.78125,-3.375 2.78125,-3.75 c 0,-0.578125 -0.453125,-0.953125 -1.09375,-0.953125 -0.34375,0 -0.65625,0.109375 -0.90625,0.328125 C 0.578125,-4.1875 0.46875,-4 0.3125,-3.578125 l 0.109375,0.03125 c 0.28125,-0.515625 0.59375,-0.75 1.03125,-0.75 0.453125,0 0.765625,0.3125 0.765625,0.75 0,0.25 -0.09375,0.5 -0.28125,0.671875 -0.203125,0.21875 -0.390625,0.3125 -0.875,0.484375 l 0,0.09375 z m 0,0"
               style="stroke:none" />
          </symbol>
        </g>
      </defs>
      <g
         id="textext-a8d5f192-4">
        <g
           id="g5762"
           style="fill:#000000;fill-opacity:1">
          <use
             height="177.16534"
             width="248.03149"
             id="use5764"
             y="134.765"
             x="223.43201"
             xlink:href="#textext-a8d5f192-1" />
        </g>
        <g
           id="g5766"
           style="fill:#000000;fill-opacity:1">
          <use
             height="177.16534"
             width="248.03149"
             id="use5768"
             y="136.259"
             x="228.41299"
             xlink:href="#textext-a8d5f192-3" />
        </g>
      </g>
    </g>
    <g
       ns0:text="$a_{4}$"
       ns0:preamble="/home/raghu/Desktop/Prism-JKB/sdst/package.tex"
       transform="matrix(1.2,0,0,1.2,-78.678583,792.85714)"
       id="g5954">
      <defs
         id="defs5956">
        <g
           id="g5958">
          <symbol
             style="overflow:visible"
             overflow="visible"
             id="textext-4513b6e8-0">
            <path
               style="stroke:none"
               d=""
               id="path5961" />
          </symbol>
          <symbol
             style="overflow:visible"
             overflow="visible"
             id="textext-4513b6e8-1">
            <path
               style="stroke:none"
               d="m 4.625,-1.09375 c -0.15625,0.140625 -0.203125,0.203125 -0.28125,0.28125 -0.296875,0.296875 -0.421875,0.40625 -0.515625,0.40625 -0.078125,0 -0.140625,-0.0625 -0.140625,-0.125 0,-0.203125 0.421875,-1.90625 0.890625,-3.625 0.03125,-0.09375 0.03125,-0.125 0.0625,-0.203125 L 4.5625,-4.390625 3.953125,-4.328125 3.921875,-4.296875 3.8125,-3.8125 c -0.078125,-0.375 -0.359375,-0.578125 -0.796875,-0.578125 -1.3125,0 -2.84375,1.8125 -2.84375,3.390625 0,0.703125 0.375,1.109375 1.015625,1.109375 0.703125,0 1.125,-0.328125 2,-1.5625 -0.203125,0.78125 -0.234375,0.90625 -0.234375,1.140625 0,0.296875 0.125,0.40625 0.40625,0.40625 C 3.765625,0.09375 4,-0.09375 4.75,-1 L 4.625,-1.09375 z M 3.078125,-4.171875 c 0.34375,0.015625 0.5625,0.25 0.5625,0.609375 0,0.828125 -0.5,2 -1.1875,2.75 C 2.21875,-0.546875 1.875,-0.375 1.578125,-0.375 1.234375,-0.375 1,-0.671875 1,-1.125 1,-1.671875 1.390625,-2.6875 1.8125,-3.3125 2.21875,-3.890625 2.6875,-4.203125 3.078125,-4.171875 z m 0,0"
               id="path5964" />
          </symbol>
          <symbol
             style="overflow:visible"
             overflow="visible"
             id="textext-4513b6e8-2">
            <path
               style="stroke:none"
               d=""
               id="path5967" />
          </symbol>
          <symbol
             style="overflow:visible"
             overflow="visible"
             id="textext-4513b6e8-3">
            <path
               style="stroke:none"
               d="m 3.296875,-1.609375 -0.71875,0 0,-3.09375 -0.3125,0 -2.1875,3.09375 0,0.453125 1.96875,0 0,1.15625 0.53125,0 0,-1.15625 0.71875,0 0,-0.453125 z m -1.265625,0 -1.671875,0 L 2.03125,-4 l 0,2.390625 z m 0,0"
               id="path5970" />
          </symbol>
        </g>
      </defs>
      <g
         id="textext-4513b6e8-4">
        <g
           style="fill:#000000;fill-opacity:1"
           id="g5973">
          <use
             height="177.16534"
             width="248.03149"
             xlink:href="#textext-4513b6e8-1"
             x="223.43201"
             y="134.765"
             id="use5975" />
        </g>
        <g
           style="fill:#000000;fill-opacity:1"
           id="g5977">
          <use
             height="177.16534"
             width="248.03149"
             xlink:href="#textext-4513b6e8-3"
             x="228.41299"
             y="136.259"
             id="use5979" />
        </g>
      </g>
    </g>
    <g
       id="g6197"
       transform="matrix(0.99739384,-0.66723724,0.66723724,0.99739384,-188.76826,969.7115)"
       ns0:preamble="/home/raghu/Desktop/Prism-JKB/sdst/package.tex"
       ns0:text="$\\nu$">
      <defs
         id="defs6199">
        <g
           id="g6201">
          <symbol
             id="textext-934c8d63-0"
             overflow="visible"
             style="overflow:visible">
            <path
               id="path6204"
               d=""
               style="stroke:none" />
          </symbol>
          <symbol
             id="textext-934c8d63-1"
             overflow="visible"
             style="overflow:visible">
            <path
               id="path6207"
               d="m 4.609375,-4.046875 c 0,-0.0625 -0.03125,-0.34375 -0.359375,-0.34375 -0.65625,0 -0.65625,0.390625 -0.65625,1.078125 0,0.3125 -0.234375,0.765625 -0.78125,1.421875 L 2.015625,-0.9375 c 0,-0.015625 0.125,-0.703125 0.125,-1.1875 0,-1.609375 -0.53125,-2.15625 -0.609375,-2.265625 -0.5,0.21875 -1.15625,0.28125 -1.265625,0.28125 l -0.03125,0.140625 c 0.296875,0 1.21875,0.015625 1.21875,2.28125 0,0.65625 -0.171875,1.6875 -0.171875,1.796875 l 0.296875,0 C 1.75,-0.09375 4.609375,-3.421875 4.609375,-4.046875 z m 0,0"
               style="stroke:none" />
          </symbol>
        </g>
      </defs>
      <g
         id="textext-934c8d63-2">
        <g
           id="g6210"
           style="fill:#000000;fill-opacity:1">
          <use
             id="use6212"
             y="134.765"
             x="223.43201"
             xlink:href="#textext-934c8d63-1"
             width="248.03149"
             height="177.16534" />
        </g>
      </g>
    </g>
    <g
       ns0:text="$K\'$"
       ns0:preamble="/home/raghu/Desktop/Prism-JKB/sdst/package.tex"
       transform="matrix(0.84519304,-0.85185018,0.85185018,0.84519304,-201.45198,1023.9604)"
       id="g6450">
      <defs
         id="defs6452">
        <g
           id="g6454">
          <symbol
             style="overflow:visible"
             overflow="visible"
             id="textext-4963cb78-0">
            <path
               style="stroke:none"
               d=""
               id="path6457" />
          </symbol>
          <symbol
             style="overflow:visible"
             overflow="visible"
             id="textext-4963cb78-1">
            <path
               style="stroke:none"
               d="m 7.203125,-6.515625 -2.21875,0 0,0.171875 c 0.125,0 0.234375,0.03125 0.265625,0.03125 0.25,0.015625 0.34375,0.078125 0.34375,0.1875 0,0.234375 -0.546875,0.765625 -1.4375,1.390625 l -1.515625,1.0625 0.53125,-1.9375 c 0.140625,-0.5 0.421875,-0.703125 1,-0.734375 l 0,-0.171875 -2.71875,0 0,0.171875 c 0.625,0.046875 0.765625,0.140625 0.765625,0.421875 0,0.140625 -0.03125,0.375 -0.109375,0.625 l -1.21875,4.40625 C 0.703125,-0.296875 0.65625,-0.25 0.0625,-0.15625 l 0,0.15625 2.484375,0 0,-0.15625 c -0.640625,-0.078125 -0.71875,-0.140625 -0.71875,-0.4375 0,-0.109375 0.015625,-0.1875 0.078125,-0.390625 l 0.0625,-0.21875 0.609375,-2.265625 1.203125,2.078125 c 0.25,0.40625 0.390625,0.75 0.390625,0.9375 0,0.15625 -0.140625,0.234375 -0.46875,0.265625 -0.046875,0 -0.15625,0.015625 -0.28125,0.03125 l 0,0.15625 2.734375,0 0,-0.15625 C 5.53125,-0.21875 5.46875,-0.25 5.1875,-0.71875 l -1.734375,-3.015625 3,-2.25 c 0.28125,-0.21875 0.5,-0.328125 0.75,-0.359375 l 0,-0.171875 z m 0,0"
               id="path6460" />
          </symbol>
          <symbol
             style="overflow:visible"
             overflow="visible"
             id="textext-4963cb78-2">
            <path
               style="stroke:none"
               d=""
               id="path6463" />
          </symbol>
          <symbol
             style="overflow:visible"
             overflow="visible"
             id="textext-4963cb78-3">
            <path
               style="stroke:none"
               d="m 2.0625,-2.859375 c 0,-0.25 -0.25,-0.421875 -0.46875,-0.421875 -0.25,0 -0.375,0.25 -0.453125,0.46875 l -0.71875,2.109375 c -0.03125,0.0625 -0.078125,0.1875 -0.078125,0.25 0,0.0625 0.046875,0.140625 0.109375,0.140625 0.109375,0 0.234375,-0.140625 0.28125,-0.21875 L 1.875,-2.34375 C 1.96875,-2.484375 2.0625,-2.6875 2.0625,-2.859375 z m 0,0"
               id="path6466" />
          </symbol>
        </g>
      </defs>
      <g
         id="textext-4963cb78-4">
        <g
           style="fill:#000000;fill-opacity:1"
           id="g6469">
          <use
             height="177.16534"
             width="248.03149"
             xlink:href="#textext-4963cb78-1"
             x="223.681"
             y="134.765"
             id="use6471" />
        </g>
        <g
           style="fill:#000000;fill-opacity:1"
           id="g6473">
          <use
             height="177.16534"
             width="248.03149"
             xlink:href="#textext-4963cb78-3"
             x="230.87399"
             y="131.14799"
             id="use6475" />
        </g>
      </g>
    </g>
    <g
       id="g6745"
       transform="matrix(0.84519304,-0.85185018,0.85185018,0.84519304,-165.66627,1046.5318)"
       ns0:preamble="/home/raghu/Desktop/Prism-JKB/sdst/package.tex"
       ns0:text="$K_{2}$">
      <defs
         id="defs6747">
        <g
           id="g6749">
          <symbol
             id="textext-1cc5bb1b-0"
             overflow="visible"
             style="overflow:visible">
            <path
               id="path6752"
               d=""
               style="stroke:none" />
          </symbol>
          <symbol
             id="textext-1cc5bb1b-1"
             overflow="visible"
             style="overflow:visible">
            <path
               id="path6755"
               d="m 7.203125,-6.515625 -2.21875,0 0,0.171875 c 0.125,0 0.234375,0.03125 0.265625,0.03125 0.25,0.015625 0.34375,0.078125 0.34375,0.1875 0,0.234375 -0.546875,0.765625 -1.4375,1.390625 l -1.515625,1.0625 0.53125,-1.9375 c 0.140625,-0.5 0.421875,-0.703125 1,-0.734375 l 0,-0.171875 -2.71875,0 0,0.171875 c 0.625,0.046875 0.765625,0.140625 0.765625,0.421875 0,0.140625 -0.03125,0.375 -0.109375,0.625 l -1.21875,4.40625 C 0.703125,-0.296875 0.65625,-0.25 0.0625,-0.15625 l 0,0.15625 2.484375,0 0,-0.15625 c -0.640625,-0.078125 -0.71875,-0.140625 -0.71875,-0.4375 0,-0.109375 0.015625,-0.1875 0.078125,-0.390625 l 0.0625,-0.21875 0.609375,-2.265625 1.203125,2.078125 c 0.25,0.40625 0.390625,0.75 0.390625,0.9375 0,0.15625 -0.140625,0.234375 -0.46875,0.265625 -0.046875,0 -0.15625,0.015625 -0.28125,0.03125 l 0,0.15625 2.734375,0 0,-0.15625 C 5.53125,-0.21875 5.46875,-0.25 5.1875,-0.71875 l -1.734375,-3.015625 3,-2.25 c 0.28125,-0.21875 0.5,-0.328125 0.75,-0.359375 l 0,-0.171875 z m 0,0"
               style="stroke:none" />
          </symbol>
          <symbol
             id="textext-1cc5bb1b-2"
             overflow="visible"
             style="overflow:visible">
            <path
               id="path6758"
               d=""
               style="stroke:none" />
          </symbol>
          <symbol
             id="textext-1cc5bb1b-3"
             overflow="visible"
             style="overflow:visible">
            <path
               id="path6761"
               d="M 3.3125,-0.953125 3.21875,-0.984375 C 2.96875,-0.59375 2.875,-0.53125 2.5625,-0.53125 l -1.671875,0 L 2.0625,-1.75 c 0.625,-0.65625 0.890625,-1.1875 0.890625,-1.734375 0,-0.6875 -0.5625,-1.21875 -1.28125,-1.21875 -0.390625,0 -0.75,0.140625 -1.015625,0.421875 -0.21875,0.234375 -0.328125,0.46875 -0.4375,0.953125 l 0.140625,0.03125 C 0.640625,-3.96875 0.890625,-4.1875 1.375,-4.1875 c 0.578125,0 0.984375,0.390625 0.984375,0.96875 0,0.546875 -0.328125,1.203125 -0.90625,1.8125 l -1.25,1.328125 0,0.078125 2.71875,0 0.390625,-0.953125 z m 0,0"
               style="stroke:none" />
          </symbol>
        </g>
      </defs>
      <g
         id="textext-1cc5bb1b-4">
        <g
           id="g6764"
           style="fill:#000000;fill-opacity:1">
          <use
             id="use6766"
             y="134.765"
             x="223.681"
             xlink:href="#textext-1cc5bb1b-1"
             width="248.03149"
             height="177.16534" />
        </g>
        <g
           id="g6768"
           style="fill:#000000;fill-opacity:1">
          <use
             id="use6770"
             y="136.259"
             x="230.326"
             xlink:href="#textext-1cc5bb1b-3"
             width="248.03149"
             height="177.16534" />
        </g>
      </g>
    </g>
    <g
       ns0:text="$K_{1}$"
       ns0:preamble="/home/raghu/Desktop/Prism-JKB/sdst/package.tex"
       transform="matrix(0.84519304,-0.85185018,0.85185018,0.84519304,-225.09485,1071.3175)"
       id="g7072">
      <defs
         id="defs7074">
        <g
           id="g7076">
          <symbol
             style="overflow:visible"
             overflow="visible"
             id="textext-8a70e4e2-0">
            <path
               style="stroke:none"
               d=""
               id="path7079" />
          </symbol>
          <symbol
             style="overflow:visible"
             overflow="visible"
             id="textext-8a70e4e2-1">
            <path
               style="stroke:none"
               d="m 7.203125,-6.515625 -2.21875,0 0,0.171875 c 0.125,0 0.234375,0.03125 0.265625,0.03125 0.25,0.015625 0.34375,0.078125 0.34375,0.1875 0,0.234375 -0.546875,0.765625 -1.4375,1.390625 l -1.515625,1.0625 0.53125,-1.9375 c 0.140625,-0.5 0.421875,-0.703125 1,-0.734375 l 0,-0.171875 -2.71875,0 0,0.171875 c 0.625,0.046875 0.765625,0.140625 0.765625,0.421875 0,0.140625 -0.03125,0.375 -0.109375,0.625 l -1.21875,4.40625 C 0.703125,-0.296875 0.65625,-0.25 0.0625,-0.15625 l 0,0.15625 2.484375,0 0,-0.15625 c -0.640625,-0.078125 -0.71875,-0.140625 -0.71875,-0.4375 0,-0.109375 0.015625,-0.1875 0.078125,-0.390625 l 0.0625,-0.21875 0.609375,-2.265625 1.203125,2.078125 c 0.25,0.40625 0.390625,0.75 0.390625,0.9375 0,0.15625 -0.140625,0.234375 -0.46875,0.265625 -0.046875,0 -0.15625,0.015625 -0.28125,0.03125 l 0,0.15625 2.734375,0 0,-0.15625 C 5.53125,-0.21875 5.46875,-0.25 5.1875,-0.71875 l -1.734375,-3.015625 3,-2.25 c 0.28125,-0.21875 0.5,-0.328125 0.75,-0.359375 l 0,-0.171875 z m 0,0"
               id="path7082" />
          </symbol>
          <symbol
             style="overflow:visible"
             overflow="visible"
             id="textext-8a70e4e2-2">
            <path
               style="stroke:none"
               d=""
               id="path7085" />
          </symbol>
          <symbol
             style="overflow:visible"
             overflow="visible"
             id="textext-8a70e4e2-3">
            <path
               style="stroke:none"
               d="m 2.03125,-4.703125 -1.25,0.625 0,0.09375 c 0.078125,-0.03125 0.15625,-0.0625 0.1875,-0.078125 0.125,-0.046875 0.234375,-0.0625 0.3125,-0.0625 0.140625,0 0.203125,0.09375 0.203125,0.3125 l 0,3.171875 c 0,0.21875 -0.0625,0.375 -0.171875,0.453125 -0.09375,0.0625 -0.203125,0.078125 -0.484375,0.078125 L 0.828125,0 2.75,0 l 0,-0.109375 c -0.5625,0 -0.671875,-0.078125 -0.671875,-0.40625 l 0,-4.1875 -0.046875,0 z m 0,0"
               id="path7088" />
          </symbol>
        </g>
      </defs>
      <g
         id="textext-8a70e4e2-4">
        <g
           style="fill:#000000;fill-opacity:1"
           id="g7091">
          <use
             height="177.16534"
             width="248.03149"
             xlink:href="#textext-8a70e4e2-1"
             x="223.681"
             y="134.765"
             id="use7093" />
        </g>
        <g
           style="fill:#000000;fill-opacity:1"
           id="g7095">
          <use
             height="177.16534"
             width="248.03149"
             xlink:href="#textext-8a70e4e2-3"
             x="230.326"
             y="136.259"
             id="use7097" />
        </g>
      </g>
    </g>
    <g
       id="g7431"
       transform="matrix(0.84519304,-0.85185018,0.85185018,0.84519304,-141.16628,1110.9604)"
       ns0:preamble="/home/raghu/Desktop/Prism-JKB/sdst/package.tex"
       ns0:text="$t$">
      <defs
         id="defs7433">
        <g
           id="g7435">
          <symbol
             id="textext-49ac2b17-0"
             overflow="visible"
             style="overflow:visible">
            <path
               id="path7438"
               d=""
               style="stroke:none" />
          </symbol>
          <symbol
             id="textext-49ac2b17-1"
             overflow="visible"
             style="overflow:visible">
            <path
               id="path7441"
               d="m 2.953125,-4.265625 -0.796875,0 0.28125,-1.03125 c 0,-0.015625 0,-0.03125 0,-0.046875 0,-0.0625 -0.03125,-0.09375 -0.078125,-0.09375 -0.0625,0 -0.09375,0 -0.140625,0.078125 C 1.828125,-4.84375 1.203125,-4.34375 0.890625,-4.25 0.640625,-4.171875 0.5625,-4.109375 0.5625,-4 c 0,0 0,0.015625 0.015625,0.046875 l 0.734375,0 -0.71875,2.75 C 0.578125,-1.109375 0.5625,-1.09375 0.53125,-1 0.453125,-0.703125 0.375,-0.34375 0.375,-0.265625 c 0,0.21875 0.203125,0.375 0.46875,0.375 0.46875,0 0.796875,-0.28125 1.421875,-1.203125 l -0.125,-0.078125 c -0.5,0.640625 -0.65625,0.796875 -0.8125,0.796875 -0.09375,0 -0.15625,-0.078125 -0.15625,-0.203125 0,-0.015625 0,-0.015625 0.015625,-0.046875 l 0.875,-3.328125 0.84375,0 0.046875,-0.3125 z m 0,0"
               style="stroke:none" />
          </symbol>
        </g>
      </defs>
      <g
         id="textext-49ac2b17-2">
        <g
           id="g7444"
           style="fill:#000000;fill-opacity:1">
          <use
             id="use7446"
             y="134.765"
             x="223.43201"
             xlink:href="#textext-49ac2b17-1"
             width="248.03149"
             height="177.16534" />
        </g>
      </g>
    </g>
  </g>
</svg>
