<?xml version="1.0" encoding="UTF-8" standalone="no"?>
<!-- Created with Inkscape (http://www.inkscape.org/) -->

<svg
   xmlns:ns0="http://www.iki.fi/pav/software/textext/"
   xmlns:dc="http://purl.org/dc/elements/1.1/"
   xmlns:cc="http://creativecommons.org/ns#"
   xmlns:rdf="http://www.w3.org/1999/02/22-rdf-syntax-ns#"
   xmlns:svg="http://www.w3.org/2000/svg"
   xmlns="http://www.w3.org/2000/svg"
   xmlns:xlink="http://www.w3.org/1999/xlink"
   xmlns:sodipodi="http://sodipodi.sourceforge.net/DTD/sodipodi-0.dtd"
   xmlns:inkscape="http://www.inkscape.org/namespaces/inkscape"
   width="283.46457"
   height="177.16534"
   id="svg2"
   version="1.1"
   inkscape:version="0.47 r22583"
   sodipodi:docname="New document 1">
  <sodipodi:namedview
     id="base"
     pagecolor="#ffffff"
     bordercolor="#666666"
     borderopacity="1.0"
     inkscape:pageopacity="0.0"
     inkscape:pageshadow="2"
     inkscape:zoom="1.8062222"
     inkscape:cx="141.73228"
     inkscape:cy="88.582672"
     inkscape:document-units="cm"
     inkscape:current-layer="layer1"
     showgrid="false"
     units="cm"
     inkscape:window-width="615"
     inkscape:window-height="681"
     inkscape:window-x="401"
     inkscape:window-y="34"
     inkscape:window-maximized="0">
    <inkscape:grid
       type="xygrid"
       id="grid2816"
       empspacing="5"
       visible="true"
       enabled="true"
       snapvisiblegridlinesonly="true" />
  </sodipodi:namedview>
  <defs
     id="defs4">
    <marker
       inkscape:stockid="Arrow1Mend"
       orient="auto"
       refY="0.0"
       refX="0.0"
       id="Arrow1Mend"
       style="overflow:visible;">
      <path
         id="path3671"
         d="M 0.0,0.0 L 5.0,-5.0 L -12.5,0.0 L 5.0,5.0 L 0.0,0.0 z "
         style="fill-rule:evenodd;stroke:#000000;stroke-width:1.0pt;marker-start:none;"
         transform="scale(0.4) rotate(180) translate(10,0)" />
    </marker>
    <inkscape:perspective
       sodipodi:type="inkscape:persp3d"
       inkscape:vp_x="0 : 526.18109 : 1"
       inkscape:vp_y="0 : 1000 : 0"
       inkscape:vp_z="744.09448 : 526.18109 : 1"
       inkscape:persp3d-origin="372.04724 : 350.78739 : 1"
       id="perspective10" />
    <inkscape:perspective
       id="perspective3618"
       inkscape:persp3d-origin="0.5 : 0.33333333 : 1"
       inkscape:vp_z="1 : 0.5 : 1"
       inkscape:vp_y="0 : 1000 : 0"
       inkscape:vp_x="0 : 0.5 : 1"
       sodipodi:type="inkscape:persp3d" />
    <inkscape:perspective
       id="perspective3618-7"
       inkscape:persp3d-origin="0.5 : 0.33333333 : 1"
       inkscape:vp_z="1 : 0.5 : 1"
       inkscape:vp_y="0 : 1000 : 0"
       inkscape:vp_x="0 : 0.5 : 1"
       sodipodi:type="inkscape:persp3d" />
    <inkscape:perspective
       id="perspective3618-0"
       inkscape:persp3d-origin="0.5 : 0.33333333 : 1"
       inkscape:vp_z="1 : 0.5 : 1"
       inkscape:vp_y="0 : 1000 : 0"
       inkscape:vp_x="0 : 0.5 : 1"
       sodipodi:type="inkscape:persp3d" />
    <inkscape:perspective
       id="perspective3618-2"
       inkscape:persp3d-origin="0.5 : 0.33333333 : 1"
       inkscape:vp_z="1 : 0.5 : 1"
       inkscape:vp_y="0 : 1000 : 0"
       inkscape:vp_x="0 : 0.5 : 1"
       sodipodi:type="inkscape:persp3d" />
    <inkscape:perspective
       id="perspective4303"
       inkscape:persp3d-origin="0.5 : 0.33333333 : 1"
       inkscape:vp_z="1 : 0.5 : 1"
       inkscape:vp_y="0 : 1000 : 0"
       inkscape:vp_x="0 : 0.5 : 1"
       sodipodi:type="inkscape:persp3d" />
    <marker
       inkscape:stockid="Arrow1Mend"
       orient="auto"
       refY="0"
       refX="0"
       id="Arrow1Mend-6"
       style="overflow:visible">
      <path
         id="path3671-3"
         d="M 0,0 5,-5 -12.5,0 5,5 0,0 z"
         style="fill-rule:evenodd;stroke:#000000;stroke-width:1pt;marker-start:none"
         transform="matrix(-0.4,0,0,-0.4,-4,0)" />
    </marker>
    <inkscape:perspective
       sodipodi:type="inkscape:persp3d"
       inkscape:vp_x="0 : 0.5 : 1"
       inkscape:vp_y="0 : 1000 : 0"
       inkscape:vp_z="1 : 0.5 : 1"
       inkscape:persp3d-origin="0.5 : 0.33333333 : 1"
       id="perspective4428" />
    <inkscape:perspective
       id="perspective4624"
       inkscape:persp3d-origin="0.5 : 0.33333333 : 1"
       inkscape:vp_z="1 : 0.5 : 1"
       inkscape:vp_y="0 : 1000 : 0"
       inkscape:vp_x="0 : 0.5 : 1"
       sodipodi:type="inkscape:persp3d" />
    <inkscape:perspective
       sodipodi:type="inkscape:persp3d"
       inkscape:vp_x="0 : 0.5 : 1"
       inkscape:vp_y="0 : 1000 : 0"
       inkscape:vp_z="1 : 0.5 : 1"
       inkscape:persp3d-origin="0.5 : 0.33333333 : 1"
       id="perspective4624-3" />
    <inkscape:perspective
       id="perspective4624-7"
       inkscape:persp3d-origin="0.5 : 0.33333333 : 1"
       inkscape:vp_z="1 : 0.5 : 1"
       inkscape:vp_y="0 : 1000 : 0"
       inkscape:vp_x="0 : 0.5 : 1"
       sodipodi:type="inkscape:persp3d" />
    <inkscape:perspective
       sodipodi:type="inkscape:persp3d"
       inkscape:vp_x="0 : 0.5 : 1"
       inkscape:vp_y="0 : 1000 : 0"
       inkscape:vp_z="1 : 0.5 : 1"
       inkscape:persp3d-origin="0.5 : 0.33333333 : 1"
       id="perspective5506" />
    <inkscape:perspective
       id="perspective5906"
       inkscape:persp3d-origin="0.5 : 0.33333333 : 1"
       inkscape:vp_z="1 : 0.5 : 1"
       inkscape:vp_y="0 : 1000 : 0"
       inkscape:vp_x="0 : 0.5 : 1"
       sodipodi:type="inkscape:persp3d" />
  </defs>
  <metadata
     id="metadata7">
    <rdf:RDF>
      <cc:Work
         rdf:about="">
        <dc:format>image/svg+xml</dc:format>
        <dc:type
           rdf:resource="http://purl.org/dc/dcmitype/StillImage" />
        <dc:title></dc:title>
      </cc:Work>
    </rdf:RDF>
  </metadata>
  <g
     inkscape:label="Layer 1"
     inkscape:groupmode="layer"
     id="layer1"
     transform="translate(0,-875.1955)">
    <path
       style="fill:none;stroke:#000000;stroke-width:1px;stroke-linecap:butt;stroke-linejoin:miter;stroke-opacity:1"
       d="m 5,107.16534 255,0"
       id="path2818"
       transform="translate(0,875.1955)"
       sodipodi:nodetypes="cc" />
    <path
       style="fill:none;stroke:#000000;stroke-width:0.99212598;stroke-linecap:butt;stroke-linejoin:miter;stroke-opacity:1;stroke-miterlimit:4;stroke-dasharray:none"
       d="M 135,982.36084 152.18687,957.80817 170,932.36084 200.00656,955.44281 235,982.36084"
       id="path2820"
       sodipodi:nodetypes="ccccc" />
    <path
       style="fill:none;stroke:#000000;stroke-width:0.99212598;stroke-linecap:butt;stroke-linejoin:miter;stroke-opacity:1;stroke-miterlimit:4;stroke-dasharray:2.97637795,2.97637795;stroke-dashoffset:0"
       d="M 170,57.165344 5,107.16534"
       id="path2822"
       transform="translate(0,875.1955)"
       sodipodi:nodetypes="cc" />
    <path
       sodipodi:type="arc"
       style="fill:#ffffff;fill-opacity:1;stroke:#000000;stroke-width:0.99212599;stroke-linecap:square;stroke-linejoin:miter;stroke-miterlimit:4;stroke-opacity:1;stroke-dasharray:none;stroke-dashoffset:0"
       id="path3608"
       sodipodi:cx="22.5"
       sodipodi:cy="84.665344"
       sodipodi:rx="2.5"
       sodipodi:ry="2.5"
       d="m 25,84.665344 c 0,1.380712 -1.119288,2.5 -2.5,2.5 -1.380712,0 -2.5,-1.119288 -2.5,-2.5 0,-1.380712 1.119288,-2.5 2.5,-2.5 1.380712,0 2.5,1.119288 2.5,2.5 z"
       transform="matrix(0.71022165,0,0,0.71022165,-10.642882,922.01376)" />
    <path
       sodipodi:type="arc"
       style="fill:#ffffff;fill-opacity:1;stroke:#000000;stroke-width:0.99212599;stroke-linecap:square;stroke-linejoin:miter;stroke-miterlimit:4;stroke-opacity:1;stroke-dasharray:none;stroke-dashoffset:0"
       id="path3608-8"
       sodipodi:cx="22.5"
       sodipodi:cy="84.665344"
       sodipodi:rx="2.5"
       sodipodi:ry="2.5"
       d="m 25,84.665344 c 0,1.380712 -1.119288,2.5 -2.5,2.5 -1.380712,0 -2.5,-1.119288 -2.5,-2.5 0,-1.380712 1.119288,-2.5 2.5,-2.5 1.380712,0 2.5,1.119288 2.5,2.5 z"
       transform="matrix(0.71022165,0,0,0.71022165,119.8649,922.15408)" />
    <path
       sodipodi:type="arc"
       style="fill:#ffffff;fill-opacity:1;stroke:#000000;stroke-width:0.99212599;stroke-linecap:square;stroke-linejoin:miter;stroke-miterlimit:4;stroke-opacity:1;stroke-dasharray:none;stroke-dashoffset:0"
       id="path3608-7"
       sodipodi:cx="22.5"
       sodipodi:cy="84.665344"
       sodipodi:rx="2.5"
       sodipodi:ry="2.5"
       d="m 25,84.665344 c 0,1.380712 -1.119288,2.5 -2.5,2.5 -1.380712,0 -2.5,-1.119288 -2.5,-2.5 0,-1.380712 1.119288,-2.5 2.5,-2.5 1.380712,0 2.5,1.119288 2.5,2.5 z"
       transform="matrix(0.71022165,0,0,0.71022165,153.92399,872.82712)" />
    <path
       sodipodi:type="arc"
       style="fill:#ffffff;fill-opacity:1;stroke:#000000;stroke-width:0.99212599;stroke-linecap:square;stroke-linejoin:miter;stroke-miterlimit:4;stroke-opacity:1;stroke-dasharray:none;stroke-dashoffset:0"
       id="path3608-72"
       sodipodi:cx="22.5"
       sodipodi:cy="84.665344"
       sodipodi:rx="2.5"
       sodipodi:ry="2.5"
       d="m 25,84.665344 c 0,1.380712 -1.119288,2.5 -2.5,2.5 -1.380712,0 -2.5,-1.119288 -2.5,-2.5 0,-1.380712 1.119288,-2.5 2.5,-2.5 1.380712,0 2.5,1.119288 2.5,2.5 z"
       transform="matrix(0.71022165,0,0,0.71022165,154.11974,922.25195)" />
    <path
       sodipodi:type="arc"
       style="fill:#ffffff;fill-opacity:1;stroke:#000000;stroke-width:0.99212599;stroke-linecap:square;stroke-linejoin:miter;stroke-miterlimit:4;stroke-opacity:1;stroke-dasharray:none;stroke-dashoffset:0"
       id="path3608-79"
       sodipodi:cx="22.5"
       sodipodi:cy="84.665344"
       sodipodi:rx="2.5"
       sodipodi:ry="2.5"
       d="m 25,84.665344 c 0,1.380712 -1.119288,2.5 -2.5,2.5 -1.380712,0 -2.5,-1.119288 -2.5,-2.5 0,-1.380712 1.119288,-2.5 2.5,-2.5 1.380712,0 2.5,1.119288 2.5,2.5 z"
       transform="matrix(0.71022165,0,0,0.71022165,219.00817,922.15408)" />
    <path
       style="fill:none;stroke:#000000;stroke-width:1px;stroke-linecap:butt;stroke-linejoin:miter;stroke-opacity:1;marker-end:url(#Arrow1Mend)"
       d="m 153.58541,955.86378 2.17291,-3.16061"
       id="path4107"
       sodipodi:nodetypes="cc" />
    <path
       style="fill:none;stroke:#000000;stroke-width:1px;stroke-linecap:butt;stroke-linejoin:miter;stroke-opacity:1;marker-end:url(#Arrow1Mend)"
       d="m 196.61509,952.97182 3.1606,2.17291"
       id="path4107-6"
       sodipodi:nodetypes="cc" />
    <path
       style="fill:none;stroke:#000000;stroke-width:1px;stroke-linecap:butt;stroke-linejoin:miter;stroke-opacity:1"
       d="m 144.52947,968.88371 c 4.39276,1.73008 7.64687,8.20031 6.8322,13.464"
       id="path4323"
       sodipodi:nodetypes="cc" />
    <g
       transform="matrix(1.2,0,0,1.2,-127.74106,818.15771)"
       ns0:text="$\\theta_2$"
       ns0:preamble="/home/sriranga/Documents/TIFR/preamble.tex"
       id="g4352">
      <defs
         id="defs4354">
        <g
           id="g4356">
          <symbol
             style="overflow:visible"
             overflow="visible"
             id="textext-932ac01c-0">
            <path
               style="stroke:none"
               d=""
               id="path4359" />
          </symbol>
          <symbol
             style="overflow:visible"
             overflow="visible"
             id="textext-932ac01c-1">
            <path
               style="stroke:none"
               d="m 4.515625,-4.8125 c 0,-0.203125 -0.015625,-1.703125 -1.203125,-1.703125 -1.765625,0 -3.015625,2.765625 -3.015625,4.6875 0,0.359375 0.046875,1.9375 1.3125,1.9375 1.984375,0 2.90625,-3.390625 2.90625,-4.921875 z m -0.65625,-0.578125 c 0,0.53125 -0.140625,1.28125 -0.34375,2.078125 l -2.15625,0 c 0.359375,-1.4375 0.984375,-3 1.9375,-3 0.40625,0 0.5625,0.34375 0.5625,0.921875 z m -0.4375,2.4375 C 3.109375,-1.78125 2.765625,-0.109375 1.75,-0.109375 1.203125,-0.109375 1,-0.59375 1,-1.25 1,-1.75 1.109375,-2.34375 1.25,-2.953125 l 2.171875,0 z m 0,0"
               id="path4362" />
          </symbol>
          <symbol
             style="overflow:visible"
             overflow="visible"
             id="textext-932ac01c-2">
            <path
               style="stroke:none"
               d=""
               id="path4365" />
          </symbol>
          <symbol
             style="overflow:visible"
             overflow="visible"
             id="textext-932ac01c-3">
            <path
               style="stroke:none"
               d="M 3.3125,-0.953125 3.21875,-0.984375 C 2.96875,-0.59375 2.875,-0.53125 2.5625,-0.53125 l -1.671875,0 L 2.0625,-1.75 c 0.625,-0.65625 0.890625,-1.1875 0.890625,-1.734375 0,-0.6875 -0.5625,-1.21875 -1.28125,-1.21875 -0.390625,0 -0.75,0.140625 -1.015625,0.421875 -0.21875,0.234375 -0.328125,0.46875 -0.4375,0.953125 l 0.140625,0.03125 C 0.640625,-3.96875 0.890625,-4.1875 1.375,-4.1875 c 0.578125,0 0.984375,0.390625 0.984375,0.96875 0,0.546875 -0.328125,1.203125 -0.90625,1.8125 l -1.25,1.328125 0,0.078125 2.71875,0 0.390625,-0.953125 z m 0,0"
               id="path4368" />
          </symbol>
        </g>
      </defs>
      <g
         id="textext-932ac01c-4">
        <g
           style="fill:#000000;fill-opacity:1"
           id="g4371">
          <use
             height="177.16534"
             width="283.46457"
             xlink:href="#textext-932ac01c-1"
             x="223.43201"
             y="134.765"
             id="use4373" />
        </g>
        <g
           style="fill:#000000;fill-opacity:1"
           id="g4375">
          <use
             height="177.16534"
             width="283.46457"
             xlink:href="#textext-932ac01c-3"
             x="227.806"
             y="136.259"
             id="use4377" />
        </g>
      </g>
    </g>
    <g
       id="g4531"
       transform="matrix(1.2,0,0,1.2,-133.94307,802.49207)"
       ns0:preamble="/home/sriranga/Documents/TIFR/preamble.tex"
       ns0:text="$\\ell_1$">
      <defs
         id="defs4533">
        <g
           id="g4535">
          <symbol
             id="textext-d4d64e47-0"
             overflow="visible"
             style="overflow:visible">
            <path
               id="path4538"
               d=""
               style="stroke:none" />
          </symbol>
          <symbol
             id="textext-d4d64e47-1"
             overflow="visible"
             style="overflow:visible">
            <path
               id="path4541"
               d="M 4.3125,-5.984375 C 4.3125,-6.453125 3.9375,-6.75 3.484375,-6.75 1.9375,-6.75 1.546875,-4.09375 1.25,-3.078125 l -1.09375,0.75 L 0.25,-2.15625 1.171875,-2.765625 C 1,-2.21875 0.703125,-1.546875 0.703125,-0.953125 c 0,0.609375 0.359375,1.0625 1,1.0625 0.828125,0 1.4375,-0.8125 1.78125,-1.46875 L 3.296875,-1.4375 c -0.25,0.46875 -0.71875,1.171875 -1.328125,1.171875 -0.390625,0 -0.578125,-0.296875 -0.578125,-0.65625 0,-0.5625 0.515625,-1.984375 0.671875,-2.515625 0.765625,-0.515625 2.25,-1.515625 2.25,-2.546875 z m -0.28125,0.0625 c 0,0.828125 -1.265625,1.75 -1.875,2.1875 l 0.4375,-1.46875 c 0.125,-0.4375 0.390625,-1.171875 0.953125,-1.171875 0.28125,0 0.484375,0.171875 0.484375,0.453125 z m 0,0"
               style="stroke:none" />
          </symbol>
          <symbol
             id="textext-d4d64e47-2"
             overflow="visible"
             style="overflow:visible">
            <path
               id="path4544"
               d=""
               style="stroke:none" />
          </symbol>
          <symbol
             id="textext-d4d64e47-3"
             overflow="visible"
             style="overflow:visible">
            <path
               id="path4547"
               d="m 2.03125,-4.703125 -1.25,0.625 0,0.09375 c 0.078125,-0.03125 0.15625,-0.0625 0.1875,-0.078125 0.125,-0.046875 0.234375,-0.0625 0.3125,-0.0625 0.140625,0 0.203125,0.09375 0.203125,0.3125 l 0,3.171875 c 0,0.21875 -0.0625,0.375 -0.171875,0.453125 -0.09375,0.0625 -0.203125,0.078125 -0.484375,0.078125 L 0.828125,0 2.75,0 l 0,-0.109375 c -0.5625,0 -0.671875,-0.078125 -0.671875,-0.40625 l 0,-4.1875 -0.046875,0 z m 0,0"
               style="stroke:none" />
          </symbol>
        </g>
      </defs>
      <g
         id="textext-d4d64e47-4">
        <g
           id="g4550"
           style="fill:#000000;fill-opacity:1">
          <use
             id="use4552"
             y="134.765"
             x="223.43201"
             xlink:href="#textext-d4d64e47-1"
             width="283.46457"
             height="177.16534" />
        </g>
        <g
           id="g4554"
           style="fill:#000000;fill-opacity:1">
          <use
             id="use4556"
             y="136.259"
             x="227.58701"
             xlink:href="#textext-d4d64e47-3"
             width="283.46457"
             height="177.16534" />
        </g>
      </g>
    </g>
    <g
       ns0:text="$\\ell_2$"
       ns0:preamble="/home/sriranga/Documents/TIFR/preamble.tex"
       transform="matrix(1.2,0,0,1.2,-66.384958,789.72729)"
       id="g4744">
      <defs
         id="defs4746">
        <g
           id="g4748">
          <symbol
             overflow="visible"
             id="textext-b5f9764b-0">
            <path
               style="stroke:none;"
               d=""
               id="path4751" />
          </symbol>
          <symbol
             overflow="visible"
             id="textext-b5f9764b-1">
            <path
               style="stroke:none;"
               d="M 4.3125 -5.984375 C 4.3125 -6.453125 3.9375 -6.75 3.484375 -6.75 C 1.9375 -6.75 1.546875 -4.09375 1.25 -3.078125 L 0.15625 -2.328125 L 0.25 -2.15625 L 1.171875 -2.765625 C 1 -2.21875 0.703125 -1.546875 0.703125 -0.953125 C 0.703125 -0.34375 1.0625 0.109375 1.703125 0.109375 C 2.53125 0.109375 3.140625 -0.703125 3.484375 -1.359375 L 3.296875 -1.4375 C 3.046875 -0.96875 2.578125 -0.265625 1.96875 -0.265625 C 1.578125 -0.265625 1.390625 -0.5625 1.390625 -0.921875 C 1.390625 -1.484375 1.90625 -2.90625 2.0625 -3.4375 C 2.828125 -3.953125 4.3125 -4.953125 4.3125 -5.984375 Z M 4.03125 -5.921875 C 4.03125 -5.09375 2.765625 -4.171875 2.15625 -3.734375 L 2.59375 -5.203125 C 2.71875 -5.640625 2.984375 -6.375 3.546875 -6.375 C 3.828125 -6.375 4.03125 -6.203125 4.03125 -5.921875 Z M 4.03125 -5.921875 "
               id="path4754" />
          </symbol>
          <symbol
             overflow="visible"
             id="textext-b5f9764b-2">
            <path
               style="stroke:none;"
               d=""
               id="path4757" />
          </symbol>
          <symbol
             overflow="visible"
             id="textext-b5f9764b-3">
            <path
               style="stroke:none;"
               d="M 3.3125 -0.953125 L 3.21875 -0.984375 C 2.96875 -0.59375 2.875 -0.53125 2.5625 -0.53125 L 0.890625 -0.53125 L 2.0625 -1.75 C 2.6875 -2.40625 2.953125 -2.9375 2.953125 -3.484375 C 2.953125 -4.171875 2.390625 -4.703125 1.671875 -4.703125 C 1.28125 -4.703125 0.921875 -4.5625 0.65625 -4.28125 C 0.4375 -4.046875 0.328125 -3.8125 0.21875 -3.328125 L 0.359375 -3.296875 C 0.640625 -3.96875 0.890625 -4.1875 1.375 -4.1875 C 1.953125 -4.1875 2.359375 -3.796875 2.359375 -3.21875 C 2.359375 -2.671875 2.03125 -2.015625 1.453125 -1.40625 L 0.203125 -0.078125 L 0.203125 0 L 2.921875 0 L 3.3125 -0.953125 Z M 3.3125 -0.953125 "
               id="path4760" />
          </symbol>
        </g>
      </defs>
      <g
         id="textext-b5f9764b-4">
        <g
           style="fill:rgb(0%,0%,0%);fill-opacity:1;"
           id="g4763">
          <use
             xlink:href="#textext-b5f9764b-1"
             x="223.432"
             y="134.765"
             id="use4765" />
        </g>
        <g
           style="fill:rgb(0%,0%,0%);fill-opacity:1;"
           id="g4767">
          <use
             xlink:href="#textext-b5f9764b-3"
             x="227.587"
             y="136.259"
             id="use4769" />
        </g>
      </g>
    </g>
    <g
       id="g4963"
       transform="matrix(1.2,0,0,1.2,-117.03087,833.734)"
       ns0:preamble="/home/sriranga/Documents/TIFR/preamble.tex"
       ns0:text="$C \\Delta^{-1} \\log T$">
      <defs
         id="defs4965">
        <g
           id="g4967">
          <symbol
             id="textext-7a6a2e4b-0"
             overflow="visible"
             style="overflow:visible">
            <path
               id="path4970"
               d=""
               style="stroke:none" />
          </symbol>
          <symbol
             id="textext-7a6a2e4b-1"
             overflow="visible"
             style="overflow:visible">
            <path
               id="path4973"
               d="M 6.5,-4.640625 6.875,-6.625 l -0.21875,0 c -0.078125,0.171875 -0.171875,0.21875 -0.375,0.21875 -0.078125,0 -0.203125,-0.015625 -0.40625,-0.0625 -0.453125,-0.109375 -0.84375,-0.171875 -1.171875,-0.171875 -2.125,0 -4.046875,2 -4.046875,4.21875 0,1.53125 1.078125,2.59375 2.609375,2.59375 1.015625,0 1.8125,-0.4375 2.71875,-1.484375 L 5.8125,-1.453125 c -0.890625,0.890625 -1.46875,1.1875 -2.296875,1.1875 -1.109375,0 -1.734375,-0.765625 -1.734375,-2.046875 0,-1.1875 0.46875,-2.390625 1.25,-3.203125 C 3.515625,-6 4.140625,-6.28125 4.796875,-6.28125 c 0.921875,0 1.421875,0.546875 1.515625,1.609375 L 6.5,-4.640625 z m 0,0"
               style="stroke:none" />
          </symbol>
          <symbol
             id="textext-7a6a2e4b-2"
             overflow="visible"
             style="overflow:visible">
            <path
               id="path4976"
               d="m 6.3125,-6.515625 -5.3125,0 -0.40625,1.546875 0.171875,0.03125 c 0.53125,-1.078125 0.84375,-1.25 2.375,-1.21875 l -1.4375,5.265625 C 1.546875,-0.375 1.3125,-0.203125 0.640625,-0.15625 l 0,0.15625 2.890625,0 0,-0.15625 C 3.375,-0.171875 3.21875,-0.1875 3.15625,-0.1875 2.765625,-0.21875 2.640625,-0.3125 2.640625,-0.609375 c 0,-0.125 0.03125,-0.25 0.125,-0.59375 l 1.375,-4.953125 0.546875,0 c 0.71875,0 1.046875,0.25 1.046875,0.796875 0,0.140625 -0.015625,0.28125 -0.03125,0.453125 l 0.171875,0.015625 0.4375,-1.625 z m 0,0"
               style="stroke:none" />
          </symbol>
          <symbol
             id="textext-7a6a2e4b-3"
             overflow="visible"
             style="overflow:visible">
            <path
               id="path4979"
               d=""
               style="stroke:none" />
          </symbol>
          <symbol
             id="textext-7a6a2e4b-4"
             overflow="visible"
             style="overflow:visible">
            <path
               id="path4982"
               d="M 6.15625,0 3.375,-6.75 3.203125,-6.75 0.234375,0 6.15625,0 z M 5,-0.421875 l -4.109375,0 L 3.03125,-5.265625 5,-0.421875 z m 0,0"
               style="stroke:none" />
          </symbol>
          <symbol
             id="textext-7a6a2e4b-5"
             overflow="visible"
             style="overflow:visible">
            <path
               id="path4985"
               d=""
               style="stroke:none" />
          </symbol>
          <symbol
             id="textext-7a6a2e4b-6"
             overflow="visible"
             style="overflow:visible">
            <path
               id="path4988"
               d="m 4,-1.59375 0,-0.390625 -3.5625,0 0,0.390625 3.5625,0 z m 0,0"
               style="stroke:none" />
          </symbol>
          <symbol
             id="textext-7a6a2e4b-7"
             overflow="visible"
             style="overflow:visible">
            <path
               id="path4991"
               d=""
               style="stroke:none" />
          </symbol>
          <symbol
             id="textext-7a6a2e4b-8"
             overflow="visible"
             style="overflow:visible">
            <path
               id="path4994"
               d="m 2.03125,-4.703125 -1.25,0.625 0,0.09375 c 0.078125,-0.03125 0.15625,-0.0625 0.1875,-0.078125 0.125,-0.046875 0.234375,-0.0625 0.3125,-0.0625 0.140625,0 0.203125,0.09375 0.203125,0.3125 l 0,3.171875 c 0,0.21875 -0.0625,0.375 -0.171875,0.453125 -0.09375,0.0625 -0.203125,0.078125 -0.484375,0.078125 L 0.828125,0 2.75,0 l 0,-0.109375 c -0.5625,0 -0.671875,-0.078125 -0.671875,-0.40625 l 0,-4.1875 -0.046875,0 z m 0,0"
               style="stroke:none" />
          </symbol>
          <symbol
             id="textext-7a6a2e4b-9"
             overflow="visible"
             style="overflow:visible">
            <path
               id="path4997"
               d=""
               style="stroke:none" />
          </symbol>
          <symbol
             id="textext-7a6a2e4b-10"
             overflow="visible"
             style="overflow:visible">
            <path
               id="path5000"
               d="m 0.1875,-6.203125 0.0625,0 c 0.109375,-0.015625 0.234375,-0.03125 0.3125,-0.03125 0.3125,0 0.421875,0.140625 0.421875,0.609375 l 0,4.75 c 0,0.546875 -0.140625,0.671875 -0.78125,0.71875 l 0,0.15625 2.359375,0 0,-0.15625 c -0.625,-0.03125 -0.75,-0.140625 -0.75,-0.6875 l 0,-5.9375 L 1.78125,-6.8125 C 1.25,-6.640625 0.875,-6.546875 0.1875,-6.375 l 0,0.171875 z m 0,0"
               style="stroke:none" />
          </symbol>
          <symbol
             id="textext-7a6a2e4b-11"
             overflow="visible"
             style="overflow:visible">
            <path
               id="path5003"
               d="m 2.5,-4.578125 c -1.296875,0 -2.203125,0.953125 -2.203125,2.328125 0,1.34375 0.921875,2.34375 2.171875,2.34375 1.265625,0 2.21875,-1.046875 2.21875,-2.421875 0,-1.3125 -0.921875,-2.25 -2.1875,-2.25 z M 2.359375,-4.3125 c 0.84375,0 1.421875,0.96875 1.421875,2.328125 0,1.125 -0.4375,1.8125 -1.1875,1.8125 -0.390625,0 -0.765625,-0.25 -0.96875,-0.640625 C 1.34375,-1.328125 1.1875,-2.03125 1.1875,-2.734375 1.1875,-3.6875 1.65625,-4.3125 2.359375,-4.3125 z m 0,0"
               style="stroke:none" />
          </symbol>
          <symbol
             id="textext-7a6a2e4b-12"
             overflow="visible"
             style="overflow:visible">
            <path
               id="path5006"
               d="m 4.6875,-3.875 0,-0.375 -0.765625,0 C 3.71875,-4.25 3.5625,-4.28125 3.375,-4.359375 L 3.15625,-4.4375 C 2.875,-4.53125 2.609375,-4.578125 2.359375,-4.578125 c -0.9375,0 -1.671875,0.703125 -1.671875,1.625 0,0.625 0.265625,1 0.921875,1.328125 -0.1875,0.171875 -0.359375,0.34375 -0.421875,0.40625 -0.328125,0.28125 -0.453125,0.484375 -0.453125,0.6875 0,0.203125 0.109375,0.328125 0.515625,0.515625 -0.703125,0.53125 -0.96875,0.859375 -0.96875,1.21875 0,0.53125 0.78125,0.96875 1.71875,0.96875 0.75,0 1.53125,-0.265625 2.046875,-0.671875 0.375,-0.3125 0.546875,-0.625 0.546875,-1.015625 0,-0.609375 -0.46875,-1.03125 -1.203125,-1.0625 l -1.28125,-0.0625 C 1.578125,-0.65625 1.328125,-0.75 1.328125,-0.90625 c 0,-0.203125 0.328125,-0.546875 0.59375,-0.625 0.09375,0 0.15625,0.015625 0.1875,0.015625 C 2.296875,-1.5 2.4375,-1.484375 2.5,-1.484375 c 0.359375,0 0.765625,-0.15625 1.0625,-0.421875 0.328125,-0.28125 0.484375,-0.625 0.484375,-1.125 C 4.046875,-3.3125 4,-3.546875 3.859375,-3.875 l 0.828125,0 z M 1.46875,0.015625 c 0.328125,0.078125 1.125,0.140625 1.609375,0.140625 0.90625,0 1.234375,0.125 1.234375,0.484375 0,0.578125 -0.75,0.96875 -1.875,0.96875 -0.875,0 -1.453125,-0.296875 -1.453125,-0.734375 0,-0.234375 0.0625,-0.359375 0.484375,-0.859375 z M 1.515625,-3.375 c 0,-0.578125 0.28125,-0.9375 0.734375,-0.9375 0.3125,0 0.578125,0.171875 0.734375,0.46875 0.171875,0.359375 0.296875,0.8125 0.296875,1.203125 0,0.5625 -0.296875,0.90625 -0.75,0.90625 -0.59375,0 -1.015625,-0.640625 -1.015625,-1.609375 l 0,-0.03125 z m 0,0"
               style="stroke:none" />
          </symbol>
        </g>
      </defs>
      <g
         id="textext-7a6a2e4b-13">
        <g
           id="g5009"
           style="fill:#000000;fill-opacity:1">
          <use
             id="use5011"
             y="134.765"
             x="223.183"
             xlink:href="#textext-7a6a2e4b-1"
             width="283.46457"
             height="177.16534" />
        </g>
        <g
           id="g5013"
           style="fill:#000000;fill-opacity:1">
          <use
             id="use5015"
             y="134.765"
             x="230.29601"
             xlink:href="#textext-7a6a2e4b-4"
             width="283.46457"
             height="177.16534" />
        </g>
        <g
           id="g5017"
           style="fill:#000000;fill-opacity:1">
          <use
             id="use5019"
             y="131.14799"
             x="236.702"
             xlink:href="#textext-7a6a2e4b-6"
             width="283.46457"
             height="177.16534" />
        </g>
        <g
           id="g5021"
           style="fill:#000000;fill-opacity:1">
          <use
             id="use5023"
             y="131.14799"
             x="241.138"
             xlink:href="#textext-7a6a2e4b-8"
             width="283.46457"
             height="177.16534" />
        </g>
        <g
           id="g5025"
           style="fill:#000000;fill-opacity:1">
          <use
             id="use5027"
             y="134.765"
             x="246.783"
             xlink:href="#textext-7a6a2e4b-10"
             width="283.46457"
             height="177.16534" />
          <use
             id="use5029"
             y="134.765"
             x="249.5526"
             xlink:href="#textext-7a6a2e4b-11"
             width="283.46457"
             height="177.16534" />
          <use
             id="use5031"
             y="134.765"
             x="254.53391"
             xlink:href="#textext-7a6a2e4b-12"
             width="283.46457"
             height="177.16534" />
        </g>
        <g
           id="g5033"
           style="fill:#000000;fill-opacity:1">
          <use
             id="use5035"
             y="134.765"
             x="261.17599"
             xlink:href="#textext-7a6a2e4b-2"
             width="283.46457"
             height="177.16534" />
        </g>
      </g>
    </g>
    <g
       ns0:text="$1/2$"
       ns0:preamble="/home/sriranga/Documents/TIFR/preamble.tex"
       transform="matrix(1.2,0,0,1.2,-39.648093,834.01335)"
       id="g5319">
      <defs
         id="defs5321">
        <g
           id="g5323">
          <symbol
             style="overflow:visible"
             overflow="visible"
             id="textext-d6103477-0">
            <path
               style="stroke:none"
               d=""
               id="path5326" />
          </symbol>
          <symbol
             style="overflow:visible"
             overflow="visible"
             id="textext-d6103477-1">
            <path
               style="stroke:none"
               d="m 2.90625,-6.734375 -1.796875,0.90625 0,0.140625 C 1.21875,-5.734375 1.328125,-5.78125 1.375,-5.796875 1.5625,-5.875 1.71875,-5.90625 1.828125,-5.90625 2.03125,-5.90625 2.125,-5.765625 2.125,-5.4375 l 0,4.515625 c 0,0.328125 -0.078125,0.546875 -0.234375,0.640625 -0.15625,0.09375 -0.296875,0.125 -0.71875,0.125 l 0,0.15625 2.75,0 0,-0.15625 c -0.78125,0 -0.9375,-0.109375 -0.9375,-0.578125 l 0,-5.984375 -0.078125,-0.015625 z m 0,0"
               id="path5329" />
          </symbol>
          <symbol
             style="overflow:visible"
             overflow="visible"
             id="textext-d6103477-2">
            <path
               style="stroke:none"
               d="m 4.734375,-1.359375 -0.125,-0.0625 C 4.234375,-0.84375 4.109375,-0.75 3.65625,-0.75 l -2.375,0 1.671875,-1.765625 c 0.890625,-0.921875 1.28125,-1.6875 1.28125,-2.453125 0,-1 -0.8125,-1.765625 -1.859375,-1.765625 -0.546875,0 -1.0625,0.21875 -1.421875,0.609375 C 0.625,-5.78125 0.484375,-5.46875 0.3125,-4.75 l 0.203125,0.046875 C 0.921875,-5.6875 1.28125,-6 1.96875,-6 2.796875,-6 3.375,-5.4375 3.375,-4.59375 3.375,-3.8125 2.90625,-2.890625 2.078125,-2 l -1.78125,1.875 0,0.125 3.890625,0 0.546875,-1.359375 z m 0,0"
               id="path5332" />
          </symbol>
          <symbol
             style="overflow:visible"
             overflow="visible"
             id="textext-d6103477-3">
            <path
               style="stroke:none"
               d=""
               id="path5335" />
          </symbol>
          <symbol
             style="overflow:visible"
             overflow="visible"
             id="textext-d6103477-4">
            <path
               style="stroke:none"
               d="m 3.78125,-6.765625 -0.515625,0 -2.640625,8.375 0.515625,0 2.640625,-8.375 z m 0,0"
               id="path5338" />
          </symbol>
        </g>
      </defs>
      <g
         id="textext-d6103477-5">
        <g
           style="fill:#000000;fill-opacity:1"
           id="g5341">
          <use
             height="177.16534"
             width="283.46457"
             xlink:href="#textext-d6103477-1"
             x="223.43201"
             y="134.765"
             id="use5343" />
        </g>
        <g
           style="fill:#000000;fill-opacity:1"
           id="g5345">
          <use
             height="177.16534"
             width="283.46457"
             xlink:href="#textext-d6103477-4"
             x="228.41299"
             y="134.765"
             id="use5347" />
        </g>
        <g
           style="fill:#000000;fill-opacity:1"
           id="g5349">
          <use
             height="177.16534"
             width="283.46457"
             xlink:href="#textext-d6103477-2"
             x="232.80701"
             y="134.765"
             id="use5351" />
        </g>
      </g>
    </g>
    <text
       transform="translate(0,875.1955)"
       sodipodi:linespacing="125%"
       id="text5494"
       y="118.4997"
       x="133.81355"
       style="font-size:12px;font-style:normal;font-variant:normal;font-weight:normal;font-stretch:normal;text-align:center;line-height:125%;letter-spacing:0px;word-spacing:0px;text-anchor:middle;fill:#000000;fill-opacity:1;stroke:none;font-family:LMRoman10;-inkscape-font-specification:LMRoman10"
       xml:space="preserve"><tspan
         y="118.4997"
         x="133.81355"
         id="tspan5496"
         sodipodi:role="line">0</tspan></text>
    <g
       id="g5711"
       transform="matrix(1.2,0,0,1.2,-222.48391,816.97144)"
       ns0:preamble="/home/sriranga/Documents/TIFR/preamble.tex"
       ns0:text="$\\theta_1$">
      <defs
         id="defs5713">
        <g
           id="g5715">
          <symbol
             id="textext-bc851af9-0"
             overflow="visible"
             style="overflow:visible">
            <path
               id="path5718"
               d=""
               style="stroke:none" />
          </symbol>
          <symbol
             id="textext-bc851af9-1"
             overflow="visible"
             style="overflow:visible">
            <path
               id="path5721"
               d="m 4.515625,-4.8125 c 0,-0.203125 -0.015625,-1.703125 -1.203125,-1.703125 -1.765625,0 -3.015625,2.765625 -3.015625,4.6875 0,0.359375 0.046875,1.9375 1.3125,1.9375 1.984375,0 2.90625,-3.390625 2.90625,-4.921875 z m -0.65625,-0.578125 c 0,0.53125 -0.140625,1.28125 -0.34375,2.078125 l -2.15625,0 c 0.359375,-1.4375 0.984375,-3 1.9375,-3 0.40625,0 0.5625,0.34375 0.5625,0.921875 z m -0.4375,2.4375 C 3.109375,-1.78125 2.765625,-0.109375 1.75,-0.109375 1.203125,-0.109375 1,-0.59375 1,-1.25 1,-1.75 1.109375,-2.34375 1.25,-2.953125 l 2.171875,0 z m 0,0"
               style="stroke:none" />
          </symbol>
          <symbol
             id="textext-bc851af9-2"
             overflow="visible"
             style="overflow:visible">
            <path
               id="path5724"
               d=""
               style="stroke:none" />
          </symbol>
          <symbol
             id="textext-bc851af9-3"
             overflow="visible"
             style="overflow:visible">
            <path
               id="path5727"
               d="m 2.03125,-4.703125 -1.25,0.625 0,0.09375 c 0.078125,-0.03125 0.15625,-0.0625 0.1875,-0.078125 0.125,-0.046875 0.234375,-0.0625 0.3125,-0.0625 0.140625,0 0.203125,0.09375 0.203125,0.3125 l 0,3.171875 c 0,0.21875 -0.0625,0.375 -0.171875,0.453125 -0.09375,0.0625 -0.203125,0.078125 -0.484375,0.078125 L 0.828125,0 2.75,0 l 0,-0.109375 c -0.5625,0 -0.671875,-0.078125 -0.671875,-0.40625 l 0,-4.1875 -0.046875,0 z m 0,0"
               style="stroke:none" />
          </symbol>
        </g>
      </defs>
      <g
         id="textext-bc851af9-4">
        <g
           id="g5730"
           style="fill:#000000;fill-opacity:1">
          <use
             id="use5732"
             y="134.765"
             x="223.43201"
             xlink:href="#textext-bc851af9-1"
             width="283.46457"
             height="177.16534" />
        </g>
        <g
           id="g5734"
           style="fill:#000000;fill-opacity:1">
          <use
             id="use5736"
             y="136.259"
             x="227.806"
             xlink:href="#textext-bc851af9-3"
             width="283.46457"
             height="177.16534" />
        </g>
      </g>
    </g>
    <path
       style="fill:none;stroke:#000000;stroke-width:1px;stroke-linecap:butt;stroke-linejoin:miter;stroke-opacity:1"
       d="m 54.019246,967.71474 c 3.795303,2.80806 5.263913,9.90005 3.114659,14.77353"
       id="path4323-1"
       sodipodi:nodetypes="cc" />
  </g>
</svg>
