<?xml version="1.0" encoding="UTF-8" standalone="no"?>
<!-- Created with Inkscape (http://www.inkscape.org/) -->

<svg
   xmlns:ns0="http://www.iki.fi/pav/software/textext/"
   xmlns:dc="http://purl.org/dc/elements/1.1/"
   xmlns:cc="http://creativecommons.org/ns#"
   xmlns:rdf="http://www.w3.org/1999/02/22-rdf-syntax-ns#"
   xmlns:svg="http://www.w3.org/2000/svg"
   xmlns="http://www.w3.org/2000/svg"
   xmlns:xlink="http://www.w3.org/1999/xlink"
   xmlns:sodipodi="http://sodipodi.sourceforge.net/DTD/sodipodi-0.dtd"
   xmlns:inkscape="http://www.inkscape.org/namespaces/inkscape"
   width="354.33069"
   height="177.16534"
   id="svg2"
   version="1.1"
   inkscape:version="0.48.0 r9654"
   sodipodi:docname="fig1.svg">
  <sodipodi:namedview
     id="base"
     pagecolor="#ffffff"
     bordercolor="#666666"
     borderopacity="1.0"
     inkscape:pageopacity="0.0"
     inkscape:pageshadow="2"
     inkscape:zoom="1.2460112"
     inkscape:cx="277.75764"
     inkscape:cy="96.608281"
     inkscape:document-units="px"
     inkscape:current-layer="layer1"
     showgrid="false"
     units="cm"
     inkscape:window-width="1024"
     inkscape:window-height="693"
     inkscape:window-x="0"
     inkscape:window-y="25"
     inkscape:window-maximized="1">
    <inkscape:grid
       snapvisiblegridlinesonly="true"
       enabled="true"
       visible="true"
       empspacing="5"
       id="grid2987"
       type="xygrid" />
  </sodipodi:namedview>
  <defs
     id="defs4">
    <marker
       style="overflow:visible"
       id="Arrow1Mstart"
       refX="0.0"
       refY="0.0"
       orient="auto"
       inkscape:stockid="Arrow1Mstart">
      <path
         transform="scale(0.4) translate(10,0)"
         style="fill-rule:evenodd;stroke:#000000;stroke-width:1.0pt;marker-start:none"
         d="M 0.0,0.0 L 5.0,-5.0 L -12.5,0.0 L 5.0,5.0 L 0.0,0.0 z "
         id="path3860" />
    </marker>
    <marker
       style="overflow:visible"
       id="Arrow1Mstart-1"
       refX="0"
       refY="0"
       orient="auto"
       inkscape:stockid="Arrow1Mstart">
      <path
         transform="matrix(0.4,0,0,0.4,4,0)"
         style="fill-rule:evenodd;stroke:#000000;stroke-width:1pt;marker-start:none"
         d="M 0,0 5,-5 -12.5,0 5,5 0,0 z"
         id="path3860-5"
         inkscape:connector-curvature="0" />
    </marker>
    <marker
       style="overflow:visible"
       id="Arrow1Mstart-7"
       refX="0"
       refY="0"
       orient="auto"
       inkscape:stockid="Arrow1Mstart">
      <path
         transform="matrix(0.4,0,0,0.4,4,0)"
         style="fill-rule:evenodd;stroke:#000000;stroke-width:1pt;marker-start:none"
         d="M 0,0 5,-5 -12.5,0 5,5 0,0 z"
         id="path3860-1"
         inkscape:connector-curvature="0" />
    </marker>
    <marker
       style="overflow:visible"
       id="Arrow1Mstart-2"
       refX="0"
       refY="0"
       orient="auto"
       inkscape:stockid="Arrow1Mstart">
      <path
         transform="matrix(0.4,0,0,0.4,4,0)"
         style="fill-rule:evenodd;stroke:#000000;stroke-width:1pt;marker-start:none"
         d="M 0,0 5,-5 -12.5,0 5,5 0,0 z"
         id="path3860-52"
         inkscape:connector-curvature="0" />
    </marker>
    <marker
       style="overflow:visible"
       id="Arrow1Mstart-8"
       refX="0"
       refY="0"
       orient="auto"
       inkscape:stockid="Arrow1Mstart">
      <path
         transform="matrix(0.4,0,0,0.4,4,0)"
         style="fill-rule:evenodd;stroke:#000000;stroke-width:1pt;marker-start:none"
         d="M 0,0 5,-5 -12.5,0 5,5 0,0 z"
         id="path3860-9"
         inkscape:connector-curvature="0" />
    </marker>
  </defs>
  <metadata
     id="metadata7">
    <rdf:RDF>
      <cc:Work
         rdf:about="">
        <dc:format>image/svg+xml</dc:format>
        <dc:type
           rdf:resource="http://purl.org/dc/dcmitype/StillImage" />
        <dc:title></dc:title>
      </cc:Work>
    </rdf:RDF>
  </metadata>
  <g
     transform="translate(0,-875.19552)"
     id="layer1"
     inkscape:groupmode="layer"
     inkscape:label="Layer 1">
    <path
       inkscape:connector-curvature="0"
       id="path2989"
       d="m 15.592317,958.76214 320.000003,0"
       style="fill:none;stroke:#000000;stroke-width:1;stroke-linecap:butt;stroke-linejoin:miter;stroke-miterlimit:4;stroke-opacity:1;stroke-dasharray:none" />
    <path
       sodipodi:nodetypes="ccccsc"
       inkscape:connector-curvature="0"
       id="path3827"
       d="m 41.957569,958.55676 46.543188,0 c 23.271583,0 23.271583,46.54314 46.543183,46.54314 34.90738,0 58.17898,-93.08633 93.08637,-93.08633 36.1586,0 31.04059,36.69032 41.65418,44.91873 0.65609,0.50865 1.3723,0.90854 2.16208,1.18429"
       style="fill:none;stroke:#000000;stroke-width:1.625;stroke-linecap:butt;stroke-linejoin:miter;stroke-miterlimit:4;stroke-opacity:1;stroke-dasharray:none" />
    <path
       transform="matrix(0.89506426,0,0,0.89506426,44.125202,875.69962)"
       d="m 114.42424,52.383736 a 22.194357,22.194357 0 1 1 -44.388716,0 22.194357,22.194357 0 1 1 44.388716,0 z"
       sodipodi:ry="22.194357"
       sodipodi:rx="22.194357"
       sodipodi:cy="52.383736"
       sodipodi:cx="92.229881"
       id="path3829"
       style="fill:none;stroke:#000000;stroke-width:1.5;stroke-miterlimit:4;stroke-opacity:1;stroke-dasharray:1.5, 4.5;stroke-dashoffset:0"
       sodipodi:type="arc" />
    <path
       transform="matrix(0.86883032,0,0,0.86883032,162.47658,944.04782)"
       d="m 114.42424,52.383736 a 22.194357,22.194357 0 1 1 -44.388716,0 22.194357,22.194357 0 1 1 44.388716,0 z"
       sodipodi:ry="22.194357"
       sodipodi:rx="22.194357"
       sodipodi:cy="52.383736"
       sodipodi:cx="92.229881"
       id="path3829-9"
       style="fill:none;stroke:#000000;stroke-width:1.5;stroke-miterlimit:4;stroke-opacity:1;stroke-dasharray:1.5, 4.5;stroke-dashoffset:0"
       sodipodi:type="arc" />
    <path
       inkscape:connector-curvature="0"
       id="path3849"
       d="m 208.325,921.45945 -4.23849,5.13499"
       style="fill:none;stroke:#000000;stroke-width:1px;stroke-linecap:butt;stroke-linejoin:miter;stroke-opacity:1;marker-start:url(#Arrow1Mstart)" />
    <path
       inkscape:connector-curvature="0"
       id="path3849-2"
       d="m 172.42888,973.11471 -3.95452,5.35675"
       style="fill:none;stroke:#000000;stroke-width:1px;stroke-linecap:butt;stroke-linejoin:miter;stroke-opacity:1;marker-start:url(#Arrow1Mstart)" />
    <path
       inkscape:connector-curvature="0"
       id="path3849-6"
       d="m 114.31412,986.15957 -3.05254,-5.91732"
       style="fill:none;stroke:#000000;stroke-width:1px;stroke-linecap:butt;stroke-linejoin:miter;stroke-opacity:1;marker-start:url(#Arrow1Mstart)" />
    <path
       inkscape:connector-curvature="0"
       id="path3849-3"
       d="m 47.064383,958.24845 -6.657259,0.11733"
       style="fill:none;stroke:#000000;stroke-width:1px;stroke-linecap:butt;stroke-linejoin:miter;stroke-opacity:1;marker-start:url(#Arrow1Mstart)" />
    <path
       inkscape:connector-curvature="0"
       id="path3849-3-3"
       d="m 293.85445,958.21165 -6.65824,0.0276"
       style="fill:none;stroke:#000000;stroke-width:1px;stroke-linecap:butt;stroke-linejoin:miter;stroke-opacity:1;marker-start:url(#Arrow1Mstart)" />
    <path
       style="fill:none;stroke:#000000;stroke-width:1px;stroke-linecap:butt;stroke-linejoin:miter;stroke-opacity:1;marker-start:url(#Arrow1Mstart)"
       d="m 330.34952,958.21165 -6.65824,0.0276"
       id="path4378"
       inkscape:connector-curvature="0" />
    <g
       id="g4406"
       ns0:preamble="/home/sriranga/Desktop/TIFR-tex clean/tifr-82/priamble.tex"
       ns0:text="$\\mathscr{D}_2$"
       transform="matrix(1.2,0,0,1.2,-32.529332,831.46601)">
      <defs
         id="defs4408">
        <g
           id="g4410">
          <symbol
             id="textext-87bef07c-0"
             overflow="visible"
             style="overflow:visible">
            <path
               id="path4413"
               d="m 8.46875,-5.609375 c 0,-0.046875 -0.03125,-0.078125 -0.078125,-0.078125 -0.171875,0 -0.328125,0.03125 -0.5,0.078125 C 7.609375,-6.5 6.8125,-7.0625 5.484375,-7.0625 c -1.171875,0 -2.75,0.6875 -3.515625,1.78125 -0.40625,0.5625 -0.609375,1.125 -0.609375,1.578125 0,0.59375 0.375,0.984375 1.15625,0.984375 0.71875,0 1.65625,-0.6875 2.15625,-1.421875 C 5,-4.609375 5.1875,-5.0625 5.1875,-5.453125 c 0,-0.046875 0,-0.09375 0,-0.140625 C 5.171875,-5.625 5.140625,-5.65625 5.109375,-5.65625 l -0.03125,0 c -0.015625,0 -0.046875,0 -0.0625,0.015625 -0.046875,0.015625 -0.0625,0.03125 -0.0625,0.078125 0,0.375 -0.171875,0.84375 -0.515625,1.328125 C 3.953125,-3.5625 3.140625,-2.9375 2.5625,-2.9375 c -0.5,0 -0.734375,-0.25 -0.734375,-0.65625 C 1.828125,-4 2.0625,-4.578125 2.5,-5.1875 3.15625,-6.125 4.484375,-6.84375 5.4375,-6.84375 c 1.21875,0 1.921875,0.515625 2.15625,1.34375 -1,0.453125 -2,1.625 -2.765625,2.6875 C 4.140625,-1.828125 3.375,-0.75 2.734375,-0.296875 2.5,-0.390625 2.25,-0.484375 1.921875,-0.484375 l -0.078125,0 c -0.390625,0 -0.96875,0.015625 -1.171875,0.28125 C 0.640625,-0.15625 0.625,-0.125 0.625,-0.09375 c 0,0.234375 0.734375,0.265625 1.203125,0.265625 l 0.3125,0 c 0.234375,0 0.484375,-0.0625 0.71875,-0.15625 C 3.1875,0.15625 3.484375,0.3125 3.90625,0.3125 4.125,0.3125 4.359375,0.265625 4.65625,0.15625 5.796875,-0.25 6.703125,-1.3125 7.21875,-2.265625 7.71875,-3.203125 8,-4.078125 8,-4.828125 8,-5 7.96875,-5.1875 7.9375,-5.34375 c 0.140625,-0.078125 0.28125,-0.125 0.40625,-0.125 0.03125,0 0.046875,-0.015625 0.0625,-0.03125 0.03125,-0.046875 0.0625,-0.078125 0.0625,-0.109375 z M 6.953125,-2.34375 C 6.484375,-1.4375 5.6875,-0.453125 4.640625,-0.046875 4.375,0.046875 4.140625,0.09375 3.9375,0.09375 3.625,0.09375 3.375,0 3.125,-0.109375 4.0625,-0.625 4.984375,-1.71875 5.6875,-2.71875 c 0.65625,-0.9375 1.375,-1.921875 1.984375,-2.421875 0,0.109375 0.015625,0.21875 0.015625,0.328125 0,0.703125 -0.25,1.546875 -0.734375,2.46875 z M 2.1875,-0.0625 C 1.28125,-0.0625 1.203125,-0.125 1.203125,-0.109375 1.28125,-0.234375 1.5625,-0.25 1.890625,-0.25 2.125,-0.25 2.328125,-0.203125 2.5,-0.140625 2.390625,-0.09375 2.28125,-0.0625 2.1875,-0.0625 z m 0,0"
               style="stroke:none"
               inkscape:connector-curvature="0" />
          </symbol>
          <symbol
             id="textext-87bef07c-1"
             overflow="visible"
             style="overflow:visible">
            <path
               id="path4416"
               d="m 3.515625,-1.265625 -0.234375,0 c -0.015625,0.15625 -0.09375,0.5625 -0.1875,0.625 -0.046875,0.046875 -0.578125,0.046875 -0.6875,0.046875 l -1.28125,0 c 0.734375,-0.640625 0.984375,-0.84375 1.390625,-1.171875 0.515625,-0.40625 1,-0.84375 1,-1.5 0,-0.84375 -0.734375,-1.359375 -1.625,-1.359375 -0.859375,0 -1.453125,0.609375 -1.453125,1.25 0,0.34375 0.296875,0.390625 0.375,0.390625 0.15625,0 0.359375,-0.125 0.359375,-0.375 0,-0.125 -0.046875,-0.375 -0.40625,-0.375 C 0.984375,-4.21875 1.453125,-4.375 1.78125,-4.375 c 0.703125,0 1.0625,0.546875 1.0625,1.109375 0,0.609375 -0.4375,1.078125 -0.65625,1.328125 L 0.515625,-0.265625 C 0.4375,-0.203125 0.4375,-0.1875 0.4375,0 l 2.875,0 z m 0,0"
               style="stroke:none"
               inkscape:connector-curvature="0" />
          </symbol>
        </g>
      </defs>
      <g
         id="textext-87bef07c-2">
        <g
           id="g4419"
           style="fill:#000000;fill-opacity:1">
          <use
             id="use4421"
             y="134.765"
             x="223.43201"
             xlink:href="#textext-87bef07c-0"
             width="354.33069"
             height="177.16534" />
        </g>
        <g
           id="g4423"
           style="fill:#000000;fill-opacity:1">
          <use
             id="use4425"
             y="136.259"
             x="231.147"
             xlink:href="#textext-87bef07c-1"
             width="354.33069"
             height="177.16534" />
        </g>
      </g>
    </g>
    <g
       ns0:text="$\\mathscr{D}_1$"
       ns0:preamble="/home/sriranga/Desktop/TIFR-tex clean/tifr-82/priamble.tex"
       transform="matrix(1.2,0,0,1.2,-147.61818,763.98188)"
       id="g4552">
      <defs
         id="defs4554">
        <g
           id="g4556">
          <symbol
             overflow="visible"
             id="textext-328222ca-0"
             style="overflow:visible">
            <path
               style="stroke:none"
               d="m 8.46875,-5.609375 c 0,-0.046875 -0.03125,-0.078125 -0.078125,-0.078125 -0.171875,0 -0.328125,0.03125 -0.5,0.078125 C 7.609375,-6.5 6.8125,-7.0625 5.484375,-7.0625 c -1.171875,0 -2.75,0.6875 -3.515625,1.78125 -0.40625,0.5625 -0.609375,1.125 -0.609375,1.578125 0,0.59375 0.375,0.984375 1.15625,0.984375 0.71875,0 1.65625,-0.6875 2.15625,-1.421875 C 5,-4.609375 5.1875,-5.0625 5.1875,-5.453125 c 0,-0.046875 0,-0.09375 0,-0.140625 C 5.171875,-5.625 5.140625,-5.65625 5.109375,-5.65625 l -0.03125,0 c -0.015625,0 -0.046875,0 -0.0625,0.015625 -0.046875,0.015625 -0.0625,0.03125 -0.0625,0.078125 0,0.375 -0.171875,0.84375 -0.515625,1.328125 C 3.953125,-3.5625 3.140625,-2.9375 2.5625,-2.9375 c -0.5,0 -0.734375,-0.25 -0.734375,-0.65625 C 1.828125,-4 2.0625,-4.578125 2.5,-5.1875 3.15625,-6.125 4.484375,-6.84375 5.4375,-6.84375 c 1.21875,0 1.921875,0.515625 2.15625,1.34375 -1,0.453125 -2,1.625 -2.765625,2.6875 C 4.140625,-1.828125 3.375,-0.75 2.734375,-0.296875 2.5,-0.390625 2.25,-0.484375 1.921875,-0.484375 l -0.078125,0 c -0.390625,0 -0.96875,0.015625 -1.171875,0.28125 C 0.640625,-0.15625 0.625,-0.125 0.625,-0.09375 c 0,0.234375 0.734375,0.265625 1.203125,0.265625 l 0.3125,0 c 0.234375,0 0.484375,-0.0625 0.71875,-0.15625 C 3.1875,0.15625 3.484375,0.3125 3.90625,0.3125 4.125,0.3125 4.359375,0.265625 4.65625,0.15625 5.796875,-0.25 6.703125,-1.3125 7.21875,-2.265625 7.71875,-3.203125 8,-4.078125 8,-4.828125 8,-5 7.96875,-5.1875 7.9375,-5.34375 c 0.140625,-0.078125 0.28125,-0.125 0.40625,-0.125 0.03125,0 0.046875,-0.015625 0.0625,-0.03125 0.03125,-0.046875 0.0625,-0.078125 0.0625,-0.109375 z M 6.953125,-2.34375 C 6.484375,-1.4375 5.6875,-0.453125 4.640625,-0.046875 4.375,0.046875 4.140625,0.09375 3.9375,0.09375 3.625,0.09375 3.375,0 3.125,-0.109375 4.0625,-0.625 4.984375,-1.71875 5.6875,-2.71875 c 0.65625,-0.9375 1.375,-1.921875 1.984375,-2.421875 0,0.109375 0.015625,0.21875 0.015625,0.328125 0,0.703125 -0.25,1.546875 -0.734375,2.46875 z M 2.1875,-0.0625 C 1.28125,-0.0625 1.203125,-0.125 1.203125,-0.109375 1.28125,-0.234375 1.5625,-0.25 1.890625,-0.25 2.125,-0.25 2.328125,-0.203125 2.5,-0.140625 2.390625,-0.09375 2.28125,-0.0625 2.1875,-0.0625 z m 0,0"
               id="path4559"
               inkscape:connector-curvature="0" />
          </symbol>
          <symbol
             overflow="visible"
             id="textext-328222ca-1"
             style="overflow:visible">
            <path
               style="stroke:none"
               d="m 2.328125,-4.4375 c 0,-0.1875 0,-0.1875 -0.203125,-0.1875 -0.453125,0.4375 -1.078125,0.4375 -1.359375,0.4375 l 0,0.25 c 0.15625,0 0.625,0 1,-0.1875 l 0,3.546875 c 0,0.234375 0,0.328125 -0.6875,0.328125 l -0.265625,0 0,0.25 c 0.125,0 0.984375,-0.03125 1.234375,-0.03125 0.21875,0 1.09375,0.03125 1.25,0.03125 l 0,-0.25 -0.265625,0 c -0.703125,0 -0.703125,-0.09375 -0.703125,-0.328125 z m 0,0"
               id="path4562"
               inkscape:connector-curvature="0" />
          </symbol>
        </g>
      </defs>
      <g
         id="textext-328222ca-2">
        <g
           style="fill:#000000;fill-opacity:1"
           id="g4565">
          <use
             xlink:href="#textext-328222ca-0"
             x="223.43201"
             y="134.765"
             id="use4567"
             width="354.33069"
             height="177.16534" />
        </g>
        <g
           style="fill:#000000;fill-opacity:1"
           id="g4569">
          <use
             xlink:href="#textext-328222ca-1"
             x="231.147"
             y="136.259"
             id="use4571"
             width="354.33069"
             height="177.16534" />
        </g>
      </g>
    </g>
    <g
       id="g4722"
       transform="matrix(1.2,0,0,1.2,-6.2361877,764.38317)"
       ns0:preamble="/home/sriranga/Desktop/TIFR-tex clean/tifr-82/priamble.tex"
       ns0:text="$\\mathscr{L}$">
      <defs
         id="defs4724">
        <g
           id="g4726">
          <symbol
             id="textext-0d209899-0"
             overflow="visible"
             style="overflow:visible">
            <path
               id="path4729"
               d="m 7.96875,-1.390625 c 0,-0.0625 -0.03125,-0.078125 -0.078125,-0.078125 l -0.109375,0 c -0.03125,0 -0.0625,0 -0.0625,0.015625 C 7.25,-0.8125 6.34375,-0.3125 5.6875,-0.3125 5.03125,-0.3125 4.453125,-0.453125 3.890625,-0.59375 4.53125,-0.984375 5.09375,-1.484375 5.5,-2.046875 L 6.484375,-3.4375 C 7.78125,-3.625 9.09375,-4.125 9.84375,-5.1875 c 0.296875,-0.421875 0.453125,-0.859375 0.453125,-1.1875 0,-0.46875 -0.28125,-0.765625 -0.890625,-0.765625 -0.96875,0 -2.421875,1.765625 -3.734375,3.546875 C 5.515625,-3.578125 5.375,-3.5625 5.21875,-3.5625 c -1.015625,0 -1.734375,-0.375 -1.734375,-1.03125 0,-0.265625 0.109375,-0.578125 0.359375,-0.9375 0.484375,-0.6875 1.4375,-1.234375 2.09375,-1.234375 0.03125,0 0.046875,0 0.0625,-0.015625 l 0.046875,-0.0625 c 0,-0.015625 0.015625,-0.03125 0.015625,-0.046875 0,-0.03125 -0.015625,-0.0625 -0.046875,-0.0625 0,-0.015625 0,-0.015625 -0.015625,-0.03125 -0.09375,-0.03125 -0.203125,-0.03125 -0.3125,-0.03125 -0.765625,0 -1.8125,0.609375 -2.375,1.390625 -0.265625,0.390625 -0.390625,0.734375 -0.390625,1.03125 0,0.84375 1.03125,1.25 2.265625,1.25 0.109375,0 0.21875,0 0.3125,-0.015625 C 5.203125,-2.9375 4.921875,-2.53125 4.640625,-2.140625 4.28125,-1.625 3.78125,-1.125 3.265625,-0.75 2.796875,-0.859375 2.296875,-0.953125 1.71875,-0.953125 l -0.0625,0 c -0.484375,0 -1.09375,0.015625 -1.421875,0.484375 C 0.15625,-0.375 0.125,-0.28125 0.125,-0.203125 c 0,0.359375 0.796875,0.375 1.3125,0.375 l 0.15625,0 c 0.5625,0 1.203125,-0.1875 1.828125,-0.5 l 0.125,0.046875 c 0.5625,0.234375 1.140625,0.453125 1.921875,0.453125 0.8125,0 1.921875,-0.703125 2.484375,-1.515625 C 7.96875,-1.359375 7.96875,-1.375 7.96875,-1.390625 z M 1.640625,-0.0625 c -0.578125,0 -0.9375,-0.015625 -0.9375,-0.171875 0,-0.046875 0,-0.078125 0.046875,-0.140625 0.1875,-0.265625 0.578125,-0.359375 0.921875,-0.359375 0.484375,0 0.875,0.09375 1.265625,0.21875 C 2.484375,-0.234375 2.03125,-0.0625 1.640625,-0.0625 z M 9.375,-6.921875 c 0.375,0 0.546875,0.203125 0.546875,0.515625 0,0.28125 -0.15625,0.6875 -0.46875,1.125 C 8.84375,-4.421875 7.78125,-3.921875 6.6875,-3.71875 7.921875,-5.421875 9.078125,-6.921875 9.375,-6.921875 z m 0,0"
               style="stroke:none"
               inkscape:connector-curvature="0" />
          </symbol>
        </g>
      </defs>
      <g
         id="textext-0d209899-1">
        <g
           id="g4732"
           style="fill:#000000;fill-opacity:1">
          <use
             id="use4734"
             y="134.765"
             x="223.43201"
             xlink:href="#textext-0d209899-0"
             width="354.33069"
             height="177.16534" />
        </g>
      </g>
    </g>
    <g
       ns0:text="$\\circ i (1-v)$"
       ns0:preamble="/home/sriranga/Desktop/TIFR-tex clean/tifr-82/priamble.tex"
       transform="matrix(1.2,0,0,1.2,-152.37585,808.56161)"
       id="g4889">
      <defs
         id="defs4891">
        <g
           id="g4893">
          <symbol
             style="overflow:visible"
             overflow="visible"
             id="textext-69c3514d-0">
            <path
               inkscape:connector-curvature="0"
               style="stroke:none"
               d="m 4.421875,-2.5 c 0,-1.0625 -0.890625,-1.921875 -1.921875,-1.921875 -1.078125,0 -1.953125,0.890625 -1.953125,1.921875 0,1.0625 0.875,1.9375 1.953125,1.9375 1.03125,0 1.921875,-0.859375 1.921875,-1.9375 z M 2.5,-0.953125 c -0.875,0 -1.546875,-0.703125 -1.546875,-1.546875 0,-0.828125 0.6875,-1.53125 1.546875,-1.53125 0.8125,0 1.53125,0.6875 1.53125,1.53125 0,0.859375 -0.71875,1.546875 -1.53125,1.546875 z m 0,0"
               id="path4896" />
          </symbol>
          <symbol
             style="overflow:visible"
             overflow="visible"
             id="textext-69c3514d-1">
            <path
               inkscape:connector-curvature="0"
               style="stroke:none"
               d="m 6.5625,-2.296875 c 0.171875,0 0.359375,0 0.359375,-0.203125 0,-0.1875 -0.1875,-0.1875 -0.359375,-0.1875 l -5.390625,0 c -0.171875,0 -0.34375,0 -0.34375,0.1875 0,0.203125 0.171875,0.203125 0.34375,0.203125 z m 0,0"
               id="path4899" />
          </symbol>
          <symbol
             style="overflow:visible"
             overflow="visible"
             id="textext-69c3514d-2">
            <path
               inkscape:connector-curvature="0"
               style="stroke:none"
               d="m 2.828125,-6.234375 c 0,-0.203125 -0.140625,-0.359375 -0.359375,-0.359375 -0.28125,0 -0.546875,0.265625 -0.546875,0.53125 0,0.1875 0.140625,0.359375 0.375,0.359375 0.234375,0 0.53125,-0.234375 0.53125,-0.53125 z m -0.75,3.75 c 0.109375,-0.28125 0.109375,-0.3125 0.21875,-0.578125 0.078125,-0.203125 0.125,-0.34375 0.125,-0.53125 0,-0.4375 -0.3125,-0.8125 -0.8125,-0.8125 -0.9375,0 -1.3125,1.453125 -1.3125,1.53125 0,0.109375 0.09375,0.109375 0.109375,0.109375 0.109375,0 0.109375,-0.03125 0.15625,-0.1875 0.28125,-0.9375 0.671875,-1.234375 1.015625,-1.234375 0.078125,0 0.25,0 0.25,0.3125 0,0.21875 -0.078125,0.421875 -0.109375,0.53125 -0.078125,0.25 -0.53125,1.40625 -0.6875,1.84375 -0.109375,0.25 -0.234375,0.578125 -0.234375,0.796875 0,0.46875 0.34375,0.8125 0.8125,0.8125 0.9375,0 1.3125,-1.4375 1.3125,-1.53125 0,-0.109375 -0.09375,-0.109375 -0.125,-0.109375 -0.09375,0 -0.09375,0.03125 -0.140625,0.1875 -0.1875,0.625 -0.515625,1.234375 -1.015625,1.234375 -0.171875,0 -0.25,-0.09375 -0.25,-0.328125 0,-0.25 0.0625,-0.390625 0.296875,-1 z m 0,0"
               id="path4902" />
          </symbol>
          <symbol
             style="overflow:visible"
             overflow="visible"
             id="textext-69c3514d-3">
            <path
               inkscape:connector-curvature="0"
               style="stroke:none"
               d="m 4.671875,-3.703125 c 0,-0.546875 -0.265625,-0.703125 -0.4375,-0.703125 -0.25,0 -0.5,0.265625 -0.5,0.484375 0,0.125 0.046875,0.1875 0.15625,0.296875 0.21875,0.203125 0.34375,0.453125 0.34375,0.8125 0,0.421875 -0.609375,2.703125 -1.765625,2.703125 -0.515625,0 -0.75,-0.34375 -0.75,-0.875 0,-0.546875 0.28125,-1.28125 0.578125,-2.109375 0.078125,-0.171875 0.125,-0.3125 0.125,-0.5 0,-0.4375 -0.3125,-0.8125 -0.8125,-0.8125 -0.9375,0 -1.3125,1.453125 -1.3125,1.53125 0,0.109375 0.09375,0.109375 0.109375,0.109375 0.109375,0 0.109375,-0.03125 0.15625,-0.1875 0.296875,-1 0.71875,-1.234375 1.015625,-1.234375 0.078125,0 0.25,0 0.25,0.3125 0,0.25 -0.109375,0.53125 -0.171875,0.703125 -0.4375,1.15625 -0.5625,1.609375 -0.5625,2.046875 0,1.078125 0.875,1.234375 1.328125,1.234375 1.671875,0 2.25,-3.296875 2.25,-3.8125 z m 0,0"
               id="path4905" />
          </symbol>
          <symbol
             style="overflow:visible"
             overflow="visible"
             id="textext-69c3514d-4">
            <path
               inkscape:connector-curvature="0"
               style="stroke:none"
               d="m 3.296875,2.390625 c 0,-0.03125 0,-0.046875 -0.171875,-0.21875 C 1.890625,0.921875 1.5625,-0.96875 1.5625,-2.5 c 0,-1.734375 0.375,-3.46875 1.609375,-4.703125 0.125,-0.125 0.125,-0.140625 0.125,-0.171875 0,-0.078125 -0.03125,-0.109375 -0.09375,-0.109375 -0.109375,0 -1,0.6875 -1.59375,1.953125 -0.5,1.09375 -0.625,2.203125 -0.625,3.03125 0,0.78125 0.109375,1.984375 0.65625,3.125 C 2.25,1.84375 3.09375,2.5 3.203125,2.5 c 0.0625,0 0.09375,-0.03125 0.09375,-0.109375 z m 0,0"
               id="path4908" />
          </symbol>
          <symbol
             style="overflow:visible"
             overflow="visible"
             id="textext-69c3514d-5">
            <path
               inkscape:connector-curvature="0"
               style="stroke:none"
               d="m 2.9375,-6.375 c 0,-0.25 0,-0.265625 -0.234375,-0.265625 C 2.078125,-6 1.203125,-6 0.890625,-6 l 0,0.3125 c 0.203125,0 0.78125,0 1.296875,-0.265625 l 0,5.171875 c 0,0.359375 -0.03125,0.46875 -0.921875,0.46875 l -0.3125,0 0,0.3125 c 0.34375,-0.03125 1.203125,-0.03125 1.609375,-0.03125 0.390625,0 1.265625,0 1.609375,0.03125 l 0,-0.3125 -0.3125,0 c -0.90625,0 -0.921875,-0.109375 -0.921875,-0.46875 z m 0,0"
               id="path4911" />
          </symbol>
          <symbol
             style="overflow:visible"
             overflow="visible"
             id="textext-69c3514d-6">
            <path
               inkscape:connector-curvature="0"
               style="stroke:none"
               d="m 2.875,-2.5 c 0,-0.765625 -0.109375,-1.96875 -0.65625,-3.109375 -0.59375,-1.21875 -1.453125,-1.875 -1.546875,-1.875 -0.0625,0 -0.109375,0.046875 -0.109375,0.109375 0,0.03125 0,0.046875 0.1875,0.234375 0.984375,0.984375 1.546875,2.5625 1.546875,4.640625 0,1.71875 -0.359375,3.46875 -1.59375,4.71875 C 0.5625,2.34375 0.5625,2.359375 0.5625,2.390625 0.5625,2.453125 0.609375,2.5 0.671875,2.5 0.765625,2.5 1.671875,1.8125 2.25,0.546875 2.765625,-0.546875 2.875,-1.65625 2.875,-2.5 z m 0,0"
               id="path4914" />
          </symbol>
        </g>
      </defs>
      <g
         id="textext-69c3514d-7">
        <g
           style="fill:#000000;fill-opacity:1"
           id="g4917">
          <use
             height="177.16534"
             width="354.33069"
             xlink:href="#textext-69c3514d-0"
             x="223.43201"
             y="134.765"
             id="use4919" />
        </g>
        <g
           style="fill:#000000;fill-opacity:1"
           id="g4921">
          <use
             height="177.16534"
             width="354.33069"
             xlink:href="#textext-69c3514d-2"
             x="228.41299"
             y="134.765"
             id="use4923" />
        </g>
        <g
           style="fill:#000000;fill-opacity:1"
           id="g4925">
          <use
             height="177.16534"
             width="354.33069"
             xlink:href="#textext-69c3514d-4"
             x="231.84599"
             y="134.765"
             id="use4927" />
          <use
             height="177.16534"
             width="354.33069"
             xlink:href="#textext-69c3514d-5"
             x="235.72046"
             y="134.765"
             id="use4929" />
        </g>
        <g
           style="fill:#000000;fill-opacity:1"
           id="g4931">
          <use
             height="177.16534"
             width="354.33069"
             xlink:href="#textext-69c3514d-1"
             x="242.91499"
             y="134.765"
             id="use4933" />
        </g>
        <g
           style="fill:#000000;fill-opacity:1"
           id="g4935">
          <use
             height="177.16534"
             width="354.33069"
             xlink:href="#textext-69c3514d-3"
             x="252.87801"
             y="134.765"
             id="use4937" />
        </g>
        <g
           style="fill:#000000;fill-opacity:1"
           id="g4939">
          <use
             height="177.16534"
             width="354.33069"
             xlink:href="#textext-69c3514d-6"
             x="258.064"
             y="134.765"
             id="use4941" />
        </g>
      </g>
    </g>
    <g
       id="g5227"
       transform="matrix(1.2,0,0,1.2,-152.10127,823.82349)"
       ns0:preamble="/home/sriranga/Desktop/TIFR-tex clean/tifr-82/priamble.tex"
       ns0:text="$\\circ i (1-z)$">
      <defs
         id="defs5229">
        <g
           id="g5231">
          <symbol
             id="textext-cbd6ab29-0"
             overflow="visible"
             style="overflow:visible">
            <path
               id="path5234"
               d="m 4.421875,-2.5 c 0,-1.0625 -0.890625,-1.921875 -1.921875,-1.921875 -1.078125,0 -1.953125,0.890625 -1.953125,1.921875 0,1.0625 0.875,1.9375 1.953125,1.9375 1.03125,0 1.921875,-0.859375 1.921875,-1.9375 z M 2.5,-0.953125 c -0.875,0 -1.546875,-0.703125 -1.546875,-1.546875 0,-0.828125 0.6875,-1.53125 1.546875,-1.53125 0.8125,0 1.53125,0.6875 1.53125,1.53125 0,0.859375 -0.71875,1.546875 -1.53125,1.546875 z m 0,0"
               style="stroke:none"
               inkscape:connector-curvature="0" />
          </symbol>
          <symbol
             id="textext-cbd6ab29-1"
             overflow="visible"
             style="overflow:visible">
            <path
               id="path5237"
               d="m 6.5625,-2.296875 c 0.171875,0 0.359375,0 0.359375,-0.203125 0,-0.1875 -0.1875,-0.1875 -0.359375,-0.1875 l -5.390625,0 c -0.171875,0 -0.34375,0 -0.34375,0.1875 0,0.203125 0.171875,0.203125 0.34375,0.203125 z m 0,0"
               style="stroke:none"
               inkscape:connector-curvature="0" />
          </symbol>
          <symbol
             id="textext-cbd6ab29-2"
             overflow="visible"
             style="overflow:visible">
            <path
               id="path5240"
               d="m 2.828125,-6.234375 c 0,-0.203125 -0.140625,-0.359375 -0.359375,-0.359375 -0.28125,0 -0.546875,0.265625 -0.546875,0.53125 0,0.1875 0.140625,0.359375 0.375,0.359375 0.234375,0 0.53125,-0.234375 0.53125,-0.53125 z m -0.75,3.75 c 0.109375,-0.28125 0.109375,-0.3125 0.21875,-0.578125 0.078125,-0.203125 0.125,-0.34375 0.125,-0.53125 0,-0.4375 -0.3125,-0.8125 -0.8125,-0.8125 -0.9375,0 -1.3125,1.453125 -1.3125,1.53125 0,0.109375 0.09375,0.109375 0.109375,0.109375 0.109375,0 0.109375,-0.03125 0.15625,-0.1875 0.28125,-0.9375 0.671875,-1.234375 1.015625,-1.234375 0.078125,0 0.25,0 0.25,0.3125 0,0.21875 -0.078125,0.421875 -0.109375,0.53125 -0.078125,0.25 -0.53125,1.40625 -0.6875,1.84375 -0.109375,0.25 -0.234375,0.578125 -0.234375,0.796875 0,0.46875 0.34375,0.8125 0.8125,0.8125 0.9375,0 1.3125,-1.4375 1.3125,-1.53125 0,-0.109375 -0.09375,-0.109375 -0.125,-0.109375 -0.09375,0 -0.09375,0.03125 -0.140625,0.1875 -0.1875,0.625 -0.515625,1.234375 -1.015625,1.234375 -0.171875,0 -0.25,-0.09375 -0.25,-0.328125 0,-0.25 0.0625,-0.390625 0.296875,-1 z m 0,0"
               style="stroke:none"
               inkscape:connector-curvature="0" />
          </symbol>
          <symbol
             id="textext-cbd6ab29-3"
             overflow="visible"
             style="overflow:visible">
            <path
               id="path5243"
               d="m 1.328125,-0.828125 c 0.53125,-0.578125 0.828125,-0.828125 1.1875,-1.140625 0,0 0.609375,-0.53125 0.96875,-0.890625 C 4.4375,-3.78125 4.65625,-4.265625 4.65625,-4.3125 c 0,-0.09375 -0.09375,-0.09375 -0.109375,-0.09375 -0.078125,0 -0.09375,0.015625 -0.15625,0.109375 -0.296875,0.484375 -0.5,0.640625 -0.734375,0.640625 -0.25,0 -0.359375,-0.15625 -0.515625,-0.328125 -0.1875,-0.21875 -0.359375,-0.421875 -0.6875,-0.421875 -0.75,0 -1.203125,0.921875 -1.203125,1.140625 0,0.046875 0.03125,0.109375 0.109375,0.109375 0.09375,0 0.109375,-0.046875 0.140625,-0.109375 0.1875,-0.46875 0.765625,-0.46875 0.84375,-0.46875 0.203125,0 0.390625,0.0625 0.625,0.140625 0.40625,0.15625 0.515625,0.15625 0.765625,0.15625 -0.359375,0.421875 -1.1875,1.140625 -1.375,1.296875 l -0.90625,0.84375 C 0.78125,-0.625 0.421875,-0.0625 0.421875,0.015625 c 0,0.09375 0.109375,0.09375 0.125,0.09375 0.078125,0 0.09375,-0.015625 0.15625,-0.125 0.234375,-0.359375 0.53125,-0.625 0.859375,-0.625 0.21875,0 0.328125,0.09375 0.578125,0.375 0.15625,0.21875 0.34375,0.375 0.625,0.375 1,0 1.578125,-1.265625 1.578125,-1.53125 0,-0.046875 -0.046875,-0.109375 -0.125,-0.109375 -0.09375,0 -0.109375,0.0625 -0.140625,0.140625 C 3.84375,-0.75 3.203125,-0.5625 2.875,-0.5625 c -0.1875,0 -0.375,-0.0625 -0.578125,-0.125 -0.34375,-0.125 -0.5,-0.171875 -0.703125,-0.171875 -0.015625,0 -0.171875,0 -0.265625,0.03125 z m 0,0"
               style="stroke:none"
               inkscape:connector-curvature="0" />
          </symbol>
          <symbol
             id="textext-cbd6ab29-4"
             overflow="visible"
             style="overflow:visible">
            <path
               id="path5246"
               d="m 3.296875,2.390625 c 0,-0.03125 0,-0.046875 -0.171875,-0.21875 C 1.890625,0.921875 1.5625,-0.96875 1.5625,-2.5 c 0,-1.734375 0.375,-3.46875 1.609375,-4.703125 0.125,-0.125 0.125,-0.140625 0.125,-0.171875 0,-0.078125 -0.03125,-0.109375 -0.09375,-0.109375 -0.109375,0 -1,0.6875 -1.59375,1.953125 -0.5,1.09375 -0.625,2.203125 -0.625,3.03125 0,0.78125 0.109375,1.984375 0.65625,3.125 C 2.25,1.84375 3.09375,2.5 3.203125,2.5 c 0.0625,0 0.09375,-0.03125 0.09375,-0.109375 z m 0,0"
               style="stroke:none"
               inkscape:connector-curvature="0" />
          </symbol>
          <symbol
             id="textext-cbd6ab29-5"
             overflow="visible"
             style="overflow:visible">
            <path
               id="path5249"
               d="m 2.9375,-6.375 c 0,-0.25 0,-0.265625 -0.234375,-0.265625 C 2.078125,-6 1.203125,-6 0.890625,-6 l 0,0.3125 c 0.203125,0 0.78125,0 1.296875,-0.265625 l 0,5.171875 c 0,0.359375 -0.03125,0.46875 -0.921875,0.46875 l -0.3125,0 0,0.3125 c 0.34375,-0.03125 1.203125,-0.03125 1.609375,-0.03125 0.390625,0 1.265625,0 1.609375,0.03125 l 0,-0.3125 -0.3125,0 c -0.90625,0 -0.921875,-0.109375 -0.921875,-0.46875 z m 0,0"
               style="stroke:none"
               inkscape:connector-curvature="0" />
          </symbol>
          <symbol
             id="textext-cbd6ab29-6"
             overflow="visible"
             style="overflow:visible">
            <path
               id="path5252"
               d="m 2.875,-2.5 c 0,-0.765625 -0.109375,-1.96875 -0.65625,-3.109375 -0.59375,-1.21875 -1.453125,-1.875 -1.546875,-1.875 -0.0625,0 -0.109375,0.046875 -0.109375,0.109375 0,0.03125 0,0.046875 0.1875,0.234375 0.984375,0.984375 1.546875,2.5625 1.546875,4.640625 0,1.71875 -0.359375,3.46875 -1.59375,4.71875 C 0.5625,2.34375 0.5625,2.359375 0.5625,2.390625 0.5625,2.453125 0.609375,2.5 0.671875,2.5 0.765625,2.5 1.671875,1.8125 2.25,0.546875 2.765625,-0.546875 2.875,-1.65625 2.875,-2.5 z m 0,0"
               style="stroke:none"
               inkscape:connector-curvature="0" />
          </symbol>
        </g>
      </defs>
      <g
         id="textext-cbd6ab29-7">
        <g
           id="g5255"
           style="fill:#000000;fill-opacity:1">
          <use
             id="use5257"
             y="134.765"
             x="223.43201"
             xlink:href="#textext-cbd6ab29-0"
             width="354.33069"
             height="177.16534" />
        </g>
        <g
           id="g5259"
           style="fill:#000000;fill-opacity:1">
          <use
             id="use5261"
             y="134.765"
             x="228.41299"
             xlink:href="#textext-cbd6ab29-2"
             width="354.33069"
             height="177.16534" />
        </g>
        <g
           id="g5263"
           style="fill:#000000;fill-opacity:1">
          <use
             id="use5265"
             y="134.765"
             x="231.84599"
             xlink:href="#textext-cbd6ab29-4"
             width="354.33069"
             height="177.16534" />
          <use
             id="use5267"
             y="134.765"
             x="235.72046"
             xlink:href="#textext-cbd6ab29-5"
             width="354.33069"
             height="177.16534" />
        </g>
        <g
           id="g5269"
           style="fill:#000000;fill-opacity:1">
          <use
             id="use5271"
             y="134.765"
             x="242.91499"
             xlink:href="#textext-cbd6ab29-1"
             width="354.33069"
             height="177.16534" />
        </g>
        <g
           id="g5273"
           style="fill:#000000;fill-opacity:1">
          <use
             id="use5275"
             y="134.765"
             x="252.87801"
             xlink:href="#textext-cbd6ab29-3"
             width="354.33069"
             height="177.16534" />
        </g>
        <g
           id="g5277"
           style="fill:#000000;fill-opacity:1">
          <use
             id="use5279"
             y="134.765"
             x="257.94901"
             xlink:href="#textext-cbd6ab29-6"
             width="354.33069"
             height="177.16534" />
        </g>
      </g>
    </g>
    <g
       ns0:text="$\\circ  i (u-1)$"
       ns0:preamble="/home/sriranga/Desktop/TIFR-tex clean/tifr-82/priamble.tex"
       transform="matrix(1.2,0,0,1.2,-64.151843,776.47239)"
       id="g5627">
      <defs
         id="defs5629">
        <g
           id="g5631">
          <symbol
             overflow="visible"
             id="textext-186843f4-0"
             style="overflow:visible">
            <path
               style="stroke:none"
               d="m 4.421875,-2.5 c 0,-1.0625 -0.890625,-1.921875 -1.921875,-1.921875 -1.078125,0 -1.953125,0.890625 -1.953125,1.921875 0,1.0625 0.875,1.9375 1.953125,1.9375 1.03125,0 1.921875,-0.859375 1.921875,-1.9375 z M 2.5,-0.953125 c -0.875,0 -1.546875,-0.703125 -1.546875,-1.546875 0,-0.828125 0.6875,-1.53125 1.546875,-1.53125 0.8125,0 1.53125,0.6875 1.53125,1.53125 0,0.859375 -0.71875,1.546875 -1.53125,1.546875 z m 0,0"
               id="path5634"
               inkscape:connector-curvature="0" />
          </symbol>
          <symbol
             overflow="visible"
             id="textext-186843f4-1"
             style="overflow:visible">
            <path
               style="stroke:none"
               d="m 6.5625,-2.296875 c 0.171875,0 0.359375,0 0.359375,-0.203125 0,-0.1875 -0.1875,-0.1875 -0.359375,-0.1875 l -5.390625,0 c -0.171875,0 -0.34375,0 -0.34375,0.1875 0,0.203125 0.171875,0.203125 0.34375,0.203125 z m 0,0"
               id="path5637"
               inkscape:connector-curvature="0" />
          </symbol>
          <symbol
             overflow="visible"
             id="textext-186843f4-2"
             style="overflow:visible">
            <path
               style="stroke:none"
               d="m 2.828125,-6.234375 c 0,-0.203125 -0.140625,-0.359375 -0.359375,-0.359375 -0.28125,0 -0.546875,0.265625 -0.546875,0.53125 0,0.1875 0.140625,0.359375 0.375,0.359375 0.234375,0 0.53125,-0.234375 0.53125,-0.53125 z m -0.75,3.75 c 0.109375,-0.28125 0.109375,-0.3125 0.21875,-0.578125 0.078125,-0.203125 0.125,-0.34375 0.125,-0.53125 0,-0.4375 -0.3125,-0.8125 -0.8125,-0.8125 -0.9375,0 -1.3125,1.453125 -1.3125,1.53125 0,0.109375 0.09375,0.109375 0.109375,0.109375 0.109375,0 0.109375,-0.03125 0.15625,-0.1875 0.28125,-0.9375 0.671875,-1.234375 1.015625,-1.234375 0.078125,0 0.25,0 0.25,0.3125 0,0.21875 -0.078125,0.421875 -0.109375,0.53125 -0.078125,0.25 -0.53125,1.40625 -0.6875,1.84375 -0.109375,0.25 -0.234375,0.578125 -0.234375,0.796875 0,0.46875 0.34375,0.8125 0.8125,0.8125 0.9375,0 1.3125,-1.4375 1.3125,-1.53125 0,-0.109375 -0.09375,-0.109375 -0.125,-0.109375 -0.09375,0 -0.09375,0.03125 -0.140625,0.1875 -0.1875,0.625 -0.515625,1.234375 -1.015625,1.234375 -0.171875,0 -0.25,-0.09375 -0.25,-0.328125 0,-0.25 0.0625,-0.390625 0.296875,-1 z m 0,0"
               id="path5640"
               inkscape:connector-curvature="0" />
          </symbol>
          <symbol
             overflow="visible"
             id="textext-186843f4-3"
             style="overflow:visible">
            <path
               style="stroke:none"
               d="M 3.484375,-0.5625 C 3.59375,-0.15625 3.953125,0.109375 4.375,0.109375 4.71875,0.109375 4.953125,-0.125 5.109375,-0.4375 5.28125,-0.796875 5.40625,-1.40625 5.40625,-1.421875 c 0,-0.109375 -0.078125,-0.109375 -0.109375,-0.109375 -0.109375,0 -0.109375,0.046875 -0.140625,0.1875 -0.140625,0.5625 -0.328125,1.234375 -0.75,1.234375 -0.203125,0 -0.3125,-0.125 -0.3125,-0.453125 0,-0.21875 0.125,-0.6875 0.203125,-1.046875 L 4.578125,-2.6875 C 4.609375,-2.828125 4.703125,-3.203125 4.75,-3.359375 4.796875,-3.59375 4.890625,-3.96875 4.890625,-4.03125 c 0,-0.171875 -0.140625,-0.265625 -0.28125,-0.265625 -0.046875,0 -0.3125,0.015625 -0.390625,0.34375 -0.1875,0.734375 -0.625,2.484375 -0.75,3 -0.015625,0.046875 -0.40625,0.84375 -1.140625,0.84375 -0.515625,0 -0.609375,-0.453125 -0.609375,-0.8125 0,-0.5625 0.28125,-1.34375 0.53125,-2.03125 0.125,-0.3125 0.171875,-0.453125 0.171875,-0.640625 0,-0.4375 -0.3125,-0.8125 -0.8125,-0.8125 -0.953125,0 -1.3125,1.453125 -1.3125,1.53125 0,0.109375 0.09375,0.109375 0.109375,0.109375 0.109375,0 0.109375,-0.03125 0.15625,-0.1875 0.25,-0.859375 0.640625,-1.234375 1.015625,-1.234375 0.09375,0 0.25,0.015625 0.25,0.328125 0,0.234375 -0.109375,0.53125 -0.171875,0.671875 -0.375,1 -0.578125,1.609375 -0.578125,2.09375 0,0.953125 0.6875,1.203125 1.21875,1.203125 0.65625,0 1.015625,-0.453125 1.1875,-0.671875 z m 0,0"
               id="path5643"
               inkscape:connector-curvature="0" />
          </symbol>
          <symbol
             overflow="visible"
             id="textext-186843f4-4"
             style="overflow:visible">
            <path
               style="stroke:none"
               d="m 3.296875,2.390625 c 0,-0.03125 0,-0.046875 -0.171875,-0.21875 C 1.890625,0.921875 1.5625,-0.96875 1.5625,-2.5 c 0,-1.734375 0.375,-3.46875 1.609375,-4.703125 0.125,-0.125 0.125,-0.140625 0.125,-0.171875 0,-0.078125 -0.03125,-0.109375 -0.09375,-0.109375 -0.109375,0 -1,0.6875 -1.59375,1.953125 -0.5,1.09375 -0.625,2.203125 -0.625,3.03125 0,0.78125 0.109375,1.984375 0.65625,3.125 C 2.25,1.84375 3.09375,2.5 3.203125,2.5 c 0.0625,0 0.09375,-0.03125 0.09375,-0.109375 z m 0,0"
               id="path5646"
               inkscape:connector-curvature="0" />
          </symbol>
          <symbol
             overflow="visible"
             id="textext-186843f4-5"
             style="overflow:visible">
            <path
               style="stroke:none"
               d="m 2.9375,-6.375 c 0,-0.25 0,-0.265625 -0.234375,-0.265625 C 2.078125,-6 1.203125,-6 0.890625,-6 l 0,0.3125 c 0.203125,0 0.78125,0 1.296875,-0.265625 l 0,5.171875 c 0,0.359375 -0.03125,0.46875 -0.921875,0.46875 l -0.3125,0 0,0.3125 c 0.34375,-0.03125 1.203125,-0.03125 1.609375,-0.03125 0.390625,0 1.265625,0 1.609375,0.03125 l 0,-0.3125 -0.3125,0 c -0.90625,0 -0.921875,-0.109375 -0.921875,-0.46875 z m 0,0"
               id="path5649"
               inkscape:connector-curvature="0" />
          </symbol>
          <symbol
             overflow="visible"
             id="textext-186843f4-6"
             style="overflow:visible">
            <path
               style="stroke:none"
               d="m 2.875,-2.5 c 0,-0.765625 -0.109375,-1.96875 -0.65625,-3.109375 -0.59375,-1.21875 -1.453125,-1.875 -1.546875,-1.875 -0.0625,0 -0.109375,0.046875 -0.109375,0.109375 0,0.03125 0,0.046875 0.1875,0.234375 0.984375,0.984375 1.546875,2.5625 1.546875,4.640625 0,1.71875 -0.359375,3.46875 -1.59375,4.71875 C 0.5625,2.34375 0.5625,2.359375 0.5625,2.390625 0.5625,2.453125 0.609375,2.5 0.671875,2.5 0.765625,2.5 1.671875,1.8125 2.25,0.546875 2.765625,-0.546875 2.875,-1.65625 2.875,-2.5 z m 0,0"
               id="path5652"
               inkscape:connector-curvature="0" />
          </symbol>
        </g>
      </defs>
      <g
         id="textext-186843f4-7">
        <g
           style="fill:#000000;fill-opacity:1"
           id="g5655">
          <use
             xlink:href="#textext-186843f4-0"
             x="223.43201"
             y="134.765"
             id="use5657"
             width="354.33069"
             height="177.16534" />
        </g>
        <g
           style="fill:#000000;fill-opacity:1"
           id="g5659">
          <use
             xlink:href="#textext-186843f4-2"
             x="228.41299"
             y="134.765"
             id="use5661"
             width="354.33069"
             height="177.16534" />
        </g>
        <g
           style="fill:#000000;fill-opacity:1"
           id="g5663">
          <use
             xlink:href="#textext-186843f4-4"
             x="231.84599"
             y="134.765"
             id="use5665"
             width="354.33069"
             height="177.16534" />
        </g>
        <g
           style="fill:#000000;fill-opacity:1"
           id="g5667">
          <use
             xlink:href="#textext-186843f4-3"
             x="235.72"
             y="134.765"
             id="use5669"
             width="354.33069"
             height="177.16534" />
        </g>
        <g
           style="fill:#000000;fill-opacity:1"
           id="g5671">
          <use
             xlink:href="#textext-186843f4-1"
             x="243.63699"
             y="134.765"
             id="use5673"
             width="354.33069"
             height="177.16534" />
        </g>
        <g
           style="fill:#000000;fill-opacity:1"
           id="g5675">
          <use
             xlink:href="#textext-186843f4-5"
             x="253.60001"
             y="134.765"
             id="use5677"
             width="354.33069"
             height="177.16534" />
          <use
             xlink:href="#textext-186843f4-6"
             x="258.5813"
             y="134.765"
             id="use5679"
             width="354.33069"
             height="177.16534" />
        </g>
      </g>
    </g>
    <g
       id="g6089"
       transform="matrix(1.2,0,0,1.2,-67.825355,792.64954)"
       ns0:preamble="/home/sriranga/Desktop/TIFR-tex clean/tifr-82/priamble.tex"
       ns0:text="$\\circ  i (w-1)$">
      <defs
         id="defs6091">
        <g
           id="g6093">
          <symbol
             id="textext-b57d4b5a-0"
             overflow="visible"
             style="overflow:visible">
            <path
               id="path6096"
               d="m 4.421875,-2.5 c 0,-1.0625 -0.890625,-1.921875 -1.921875,-1.921875 -1.078125,0 -1.953125,0.890625 -1.953125,1.921875 0,1.0625 0.875,1.9375 1.953125,1.9375 1.03125,0 1.921875,-0.859375 1.921875,-1.9375 z M 2.5,-0.953125 c -0.875,0 -1.546875,-0.703125 -1.546875,-1.546875 0,-0.828125 0.6875,-1.53125 1.546875,-1.53125 0.8125,0 1.53125,0.6875 1.53125,1.53125 0,0.859375 -0.71875,1.546875 -1.53125,1.546875 z m 0,0"
               style="stroke:none"
               inkscape:connector-curvature="0" />
          </symbol>
          <symbol
             id="textext-b57d4b5a-1"
             overflow="visible"
             style="overflow:visible">
            <path
               id="path6099"
               d="m 6.5625,-2.296875 c 0.171875,0 0.359375,0 0.359375,-0.203125 0,-0.1875 -0.1875,-0.1875 -0.359375,-0.1875 l -5.390625,0 c -0.171875,0 -0.34375,0 -0.34375,0.1875 0,0.203125 0.171875,0.203125 0.34375,0.203125 z m 0,0"
               style="stroke:none"
               inkscape:connector-curvature="0" />
          </symbol>
          <symbol
             id="textext-b57d4b5a-2"
             overflow="visible"
             style="overflow:visible">
            <path
               id="path6102"
               d="m 2.828125,-6.234375 c 0,-0.203125 -0.140625,-0.359375 -0.359375,-0.359375 -0.28125,0 -0.546875,0.265625 -0.546875,0.53125 0,0.1875 0.140625,0.359375 0.375,0.359375 0.234375,0 0.53125,-0.234375 0.53125,-0.53125 z m -0.75,3.75 c 0.109375,-0.28125 0.109375,-0.3125 0.21875,-0.578125 0.078125,-0.203125 0.125,-0.34375 0.125,-0.53125 0,-0.4375 -0.3125,-0.8125 -0.8125,-0.8125 -0.9375,0 -1.3125,1.453125 -1.3125,1.53125 0,0.109375 0.09375,0.109375 0.109375,0.109375 0.109375,0 0.109375,-0.03125 0.15625,-0.1875 0.28125,-0.9375 0.671875,-1.234375 1.015625,-1.234375 0.078125,0 0.25,0 0.25,0.3125 0,0.21875 -0.078125,0.421875 -0.109375,0.53125 -0.078125,0.25 -0.53125,1.40625 -0.6875,1.84375 -0.109375,0.25 -0.234375,0.578125 -0.234375,0.796875 0,0.46875 0.34375,0.8125 0.8125,0.8125 0.9375,0 1.3125,-1.4375 1.3125,-1.53125 0,-0.109375 -0.09375,-0.109375 -0.125,-0.109375 -0.09375,0 -0.09375,0.03125 -0.140625,0.1875 -0.1875,0.625 -0.515625,1.234375 -1.015625,1.234375 -0.171875,0 -0.25,-0.09375 -0.25,-0.328125 0,-0.25 0.0625,-0.390625 0.296875,-1 z m 0,0"
               style="stroke:none"
               inkscape:connector-curvature="0" />
          </symbol>
          <symbol
             id="textext-b57d4b5a-3"
             overflow="visible"
             style="overflow:visible">
            <path
               id="path6105"
               d="M 4.609375,-3.375 C 4.65625,-3.59375 4.75,-3.96875 4.75,-4.03125 c 0,-0.171875 -0.140625,-0.265625 -0.28125,-0.265625 -0.125,0 -0.296875,0.078125 -0.375,0.28125 -0.03125,0.0625 -0.5,1.96875 -0.5625,2.234375 C 3.453125,-1.484375 3.4375,-1.3125 3.4375,-1.125 c 0,0.109375 0,0.125 0.015625,0.171875 -0.234375,0.53125 -0.53125,0.84375 -0.921875,0.84375 -0.796875,0 -0.796875,-0.734375 -0.796875,-0.90625 0,-0.3125 0.046875,-0.703125 0.515625,-1.9375 0.109375,-0.296875 0.171875,-0.4375 0.171875,-0.640625 0,-0.4375 -0.328125,-0.8125 -0.8125,-0.8125 -0.953125,0 -1.3125,1.453125 -1.3125,1.53125 0,0.109375 0.09375,0.109375 0.109375,0.109375 0.109375,0 0.109375,-0.03125 0.15625,-0.1875 C 0.84375,-3.875 1.21875,-4.1875 1.578125,-4.1875 c 0.09375,0 0.25,0.015625 0.25,0.328125 0,0.25 -0.109375,0.53125 -0.1875,0.703125 -0.4375,1.171875 -0.546875,1.625 -0.546875,2.015625 0,0.90625 0.65625,1.25 1.40625,1.25 0.171875,0 0.640625,0 1.03125,-0.703125 0.265625,0.640625 0.953125,0.703125 1.25,0.703125 0.75,0 1.1875,-0.625 1.453125,-1.21875 0.328125,-0.78125 0.65625,-2.125 0.65625,-2.59375 0,-0.546875 -0.265625,-0.703125 -0.4375,-0.703125 -0.25,0 -0.5,0.265625 -0.5,0.484375 0,0.125 0.0625,0.1875 0.140625,0.265625 0.109375,0.109375 0.359375,0.359375 0.359375,0.84375 0,0.34375 -0.28125,1.3125 -0.546875,1.828125 -0.25,0.53125 -0.609375,0.875 -1.09375,0.875 -0.46875,0 -0.734375,-0.296875 -0.734375,-0.875 0,-0.265625 0.0625,-0.578125 0.109375,-0.71875 z m 0,0"
               style="stroke:none"
               inkscape:connector-curvature="0" />
          </symbol>
          <symbol
             id="textext-b57d4b5a-4"
             overflow="visible"
             style="overflow:visible">
            <path
               id="path6108"
               d="m 3.296875,2.390625 c 0,-0.03125 0,-0.046875 -0.171875,-0.21875 C 1.890625,0.921875 1.5625,-0.96875 1.5625,-2.5 c 0,-1.734375 0.375,-3.46875 1.609375,-4.703125 0.125,-0.125 0.125,-0.140625 0.125,-0.171875 0,-0.078125 -0.03125,-0.109375 -0.09375,-0.109375 -0.109375,0 -1,0.6875 -1.59375,1.953125 -0.5,1.09375 -0.625,2.203125 -0.625,3.03125 0,0.78125 0.109375,1.984375 0.65625,3.125 C 2.25,1.84375 3.09375,2.5 3.203125,2.5 c 0.0625,0 0.09375,-0.03125 0.09375,-0.109375 z m 0,0"
               style="stroke:none"
               inkscape:connector-curvature="0" />
          </symbol>
          <symbol
             id="textext-b57d4b5a-5"
             overflow="visible"
             style="overflow:visible">
            <path
               id="path6111"
               d="m 2.9375,-6.375 c 0,-0.25 0,-0.265625 -0.234375,-0.265625 C 2.078125,-6 1.203125,-6 0.890625,-6 l 0,0.3125 c 0.203125,0 0.78125,0 1.296875,-0.265625 l 0,5.171875 c 0,0.359375 -0.03125,0.46875 -0.921875,0.46875 l -0.3125,0 0,0.3125 c 0.34375,-0.03125 1.203125,-0.03125 1.609375,-0.03125 0.390625,0 1.265625,0 1.609375,0.03125 l 0,-0.3125 -0.3125,0 c -0.90625,0 -0.921875,-0.109375 -0.921875,-0.46875 z m 0,0"
               style="stroke:none"
               inkscape:connector-curvature="0" />
          </symbol>
          <symbol
             id="textext-b57d4b5a-6"
             overflow="visible"
             style="overflow:visible">
            <path
               id="path6114"
               d="m 2.875,-2.5 c 0,-0.765625 -0.109375,-1.96875 -0.65625,-3.109375 -0.59375,-1.21875 -1.453125,-1.875 -1.546875,-1.875 -0.0625,0 -0.109375,0.046875 -0.109375,0.109375 0,0.03125 0,0.046875 0.1875,0.234375 0.984375,0.984375 1.546875,2.5625 1.546875,4.640625 0,1.71875 -0.359375,3.46875 -1.59375,4.71875 C 0.5625,2.34375 0.5625,2.359375 0.5625,2.390625 0.5625,2.453125 0.609375,2.5 0.671875,2.5 0.765625,2.5 1.671875,1.8125 2.25,0.546875 2.765625,-0.546875 2.875,-1.65625 2.875,-2.5 z m 0,0"
               style="stroke:none"
               inkscape:connector-curvature="0" />
          </symbol>
        </g>
      </defs>
      <g
         id="textext-b57d4b5a-7">
        <g
           id="g6117"
           style="fill:#000000;fill-opacity:1">
          <use
             id="use6119"
             y="134.765"
             x="223.43201"
             xlink:href="#textext-b57d4b5a-0"
             width="354.33069"
             height="177.16534" />
        </g>
        <g
           id="g6121"
           style="fill:#000000;fill-opacity:1">
          <use
             id="use6123"
             y="134.765"
             x="228.41299"
             xlink:href="#textext-b57d4b5a-2"
             width="354.33069"
             height="177.16534" />
        </g>
        <g
           id="g6125"
           style="fill:#000000;fill-opacity:1">
          <use
             id="use6127"
             y="134.765"
             x="231.84599"
             xlink:href="#textext-b57d4b5a-4"
             width="354.33069"
             height="177.16534" />
        </g>
        <g
           id="g6129"
           style="fill:#000000;fill-opacity:1">
          <use
             id="use6131"
             y="134.765"
             x="235.72"
             xlink:href="#textext-b57d4b5a-3"
             width="354.33069"
             height="177.16534" />
        </g>
        <g
           id="g6133"
           style="fill:#000000;fill-opacity:1">
          <use
             id="use6135"
             y="134.765"
             x="245.334"
             xlink:href="#textext-b57d4b5a-1"
             width="354.33069"
             height="177.16534" />
        </g>
        <g
           id="g6137"
           style="fill:#000000;fill-opacity:1">
          <use
             id="use6139"
             y="134.765"
             x="255.297"
             xlink:href="#textext-b57d4b5a-5"
             width="354.33069"
             height="177.16534" />
          <use
             id="use6141"
             y="134.765"
             x="260.27829"
             xlink:href="#textext-b57d4b5a-6"
             width="354.33069"
             height="177.16534" />
        </g>
      </g>
    </g>
    <path
       style="fill:none;stroke:#000000;stroke-width:1.625;stroke-linecap:butt;stroke-linejoin:miter;stroke-miterlimit:4;stroke-opacity:1;stroke-dasharray:none"
       d="m 12.397035,958.5382 30,0"
       id="path6323"
       inkscape:connector-curvature="0" />
    <path
       style="fill:none;stroke:#000000;stroke-width:1.625;stroke-linecap:butt;stroke-linejoin:miter;stroke-miterlimit:4;stroke-opacity:1;stroke-dasharray:none"
       d="m 271,958.36086 c 23.33333,0 46.66667,0 70,0"
       id="path6325"
       inkscape:connector-curvature="0"
       sodipodi:nodetypes="cc" />
  </g>
</svg>
