<?xml version="1.0" encoding="UTF-8" standalone="no"?>
<!-- Created with Inkscape (http://www.inkscape.org/) -->

<svg
   xmlns:ns0="http://www.iki.fi/pav/software/textext/"
   xmlns:dc="http://purl.org/dc/elements/1.1/"
   xmlns:cc="http://creativecommons.org/ns#"
   xmlns:rdf="http://www.w3.org/1999/02/22-rdf-syntax-ns#"
   xmlns:svg="http://www.w3.org/2000/svg"
   xmlns="http://www.w3.org/2000/svg"
   xmlns:xlink="http://www.w3.org/1999/xlink"
   xmlns:sodipodi="http://sodipodi.sourceforge.net/DTD/sodipodi-0.dtd"
   xmlns:inkscape="http://www.inkscape.org/namespaces/inkscape"
   width="389.76376"
   height="212.59842"
   id="svg2"
   version="1.1"
   inkscape:version="0.48.4 r9939"
   sodipodi:docname="New document 1">
  <sodipodi:namedview
     id="base"
     pagecolor="#ffffff"
     bordercolor="#666666"
     borderopacity="1.0"
     inkscape:pageopacity="0.0"
     inkscape:pageshadow="2"
     inkscape:zoom="0.96475888"
     inkscape:cx="298.54171"
     inkscape:cy="71.015743"
     inkscape:document-units="px"
     inkscape:current-layer="layer1"
     showgrid="false"
     units="cm"
     inkscape:window-width="1024"
     inkscape:window-height="744"
     inkscape:window-x="0"
     inkscape:window-y="24"
     inkscape:window-maximized="1" />
  <defs
     id="defs4" />
  <metadata
     id="metadata7">
    <rdf:RDF>
      <cc:Work
         rdf:about="">
        <dc:format>image/svg+xml</dc:format>
        <dc:type
           rdf:resource="http://purl.org/dc/dcmitype/StillImage" />
        <dc:title></dc:title>
      </cc:Work>
    </rdf:RDF>
  </metadata>
  <g
     transform="translate(0,-839.76245)"
     id="layer1"
     inkscape:groupmode="layer"
     inkscape:label="Layer 1">
    <path
       sodipodi:nodetypes="cc"
       inkscape:connector-curvature="0"
       id="path2985"
       d="m 120.35029,852.85574 0,79.80205"
       style="fill:none;stroke:#000000;stroke-width:1.375;stroke-linecap:butt;stroke-linejoin:miter;stroke-miterlimit:4;stroke-opacity:1;stroke-dasharray:none" />
    <rect
       y="932.15271"
       x="100.14724"
       height="72.73098"
       width="145.46196"
       id="rect2987"
       style="fill:none;stroke:#000000;stroke-width:1.375;stroke-miterlimit:4;stroke-opacity:1;stroke-dasharray:none;stroke-dashoffset:0" />
    <path
       style="fill:none;stroke:#000000;stroke-width:1.375;stroke-linecap:butt;stroke-linejoin:miter;stroke-miterlimit:4;stroke-opacity:1;stroke-dasharray:none"
       d="m 381.6452,1004.8837 -135.77458,0"
       id="path3757"
       inkscape:connector-curvature="0"
       sodipodi:nodetypes="cc" />
    <g
       id="g3954"
       transform="matrix(1.2,0,0,1.2,-265.33674,750.06547)"
       ns0:preamble="/home/sriranga/Desktop/TIFR/Studies-in-Mathematics/SM_05/chap2/package.tex"
       ns0:text="$(0,1)t_{\\mathsf{p}}\\not\\in \\mathscr{O}_{\\mathsf{p}}\\oplus \\mathscr{O}_{\\mathsf{p}}$">
      <defs
         id="defs3956">
        <g
           id="g3958">
          <symbol
             id="textext-ecb618e7-0"
             overflow="visible"
             style="overflow:visible">
            <path
               id="path3961"
               d=""
               style="stroke:none"
               inkscape:connector-curvature="0" />
          </symbol>
          <symbol
             id="textext-ecb618e7-1"
             overflow="visible"
             style="overflow:visible">
            <path
               id="path3964"
               d="M 2.9375,-6.734375 C 2.203125,-6.265625 1.90625,-6 1.53125,-5.546875 c -0.703125,0.875 -1.046875,1.875 -1.046875,3.03125 0,1.265625 0.359375,2.25 1.234375,3.265625 0.421875,0.46875 0.671875,0.703125 1.1875,1.015625 l 0.125,-0.15625 C 2.234375,0.984375 1.953125,0.625 1.6875,-0.125 1.453125,-0.78125 1.328125,-1.546875 1.328125,-2.546875 1.328125,-3.59375 1.46875,-4.40625 1.734375,-5.03125 2.015625,-5.640625 2.3125,-6 3.03125,-6.578125 z m 0,0"
               style="stroke:none"
               inkscape:connector-curvature="0" />
          </symbol>
          <symbol
             id="textext-ecb618e7-2"
             overflow="visible"
             style="overflow:visible">
            <path
               id="path3967"
               d="m 2.53125,-6.734375 c -0.546875,0 -0.96875,0.171875 -1.328125,0.515625 -0.578125,0.5625 -0.96875,1.703125 -0.96875,2.875 0,1.078125 0.328125,2.25 0.796875,2.8125 0.375,0.4375 0.875,0.671875 1.46875,0.671875 0.5,0 0.921875,-0.171875 1.28125,-0.515625 C 4.359375,-0.921875 4.75,-2.078125 4.75,-3.296875 c 0,-2.03125 -0.90625,-3.4375 -2.21875,-3.4375 z m -0.03125,0.25 c 0.84375,0 1.28125,1.125 1.28125,3.21875 0,2.078125 -0.4375,3.140625 -1.28125,3.140625 -0.859375,0 -1.296875,-1.0625 -1.296875,-3.140625 0,-2.109375 0.4375,-3.21875 1.296875,-3.21875 z m 0,0"
               style="stroke:none"
               inkscape:connector-curvature="0" />
          </symbol>
          <symbol
             id="textext-ecb618e7-3"
             overflow="visible"
             style="overflow:visible">
            <path
               id="path3970"
               d="m 2.90625,-6.734375 -1.796875,0.90625 0,0.140625 C 1.21875,-5.734375 1.328125,-5.78125 1.375,-5.796875 1.5625,-5.875 1.71875,-5.90625 1.828125,-5.90625 2.03125,-5.90625 2.125,-5.765625 2.125,-5.4375 l 0,4.515625 c 0,0.328125 -0.078125,0.546875 -0.234375,0.640625 -0.15625,0.09375 -0.296875,0.125 -0.71875,0.125 l 0,0.15625 2.75,0 0,-0.15625 c -0.78125,0 -0.9375,-0.109375 -0.9375,-0.578125 l 0,-5.984375 z m 0,0"
               style="stroke:none"
               inkscape:connector-curvature="0" />
          </symbol>
          <symbol
             id="textext-ecb618e7-4"
             overflow="visible"
             style="overflow:visible">
            <path
               id="path3973"
               d="M 0.375,1.765625 C 1.109375,1.28125 1.421875,1.03125 1.78125,0.5625 2.5,-0.296875 2.84375,-1.296875 2.84375,-2.46875 c 0,-1.265625 -0.375,-2.234375 -1.25,-3.25 C 1.1875,-6.203125 0.921875,-6.421875 0.40625,-6.734375 l -0.109375,0.15625 c 0.796875,0.625 1.0625,0.96875 1.34375,1.71875 0.234375,0.671875 0.34375,1.4375 0.34375,2.421875 0,1.046875 -0.125,1.875 -0.40625,2.484375 C 1.3125,0.671875 1,1.03125 0.296875,1.609375 z m 0,0"
               style="stroke:none"
               inkscape:connector-curvature="0" />
          </symbol>
          <symbol
             id="textext-ecb618e7-5"
             overflow="visible"
             style="overflow:visible">
            <path
               id="path3976"
               d=""
               style="stroke:none"
               inkscape:connector-curvature="0" />
          </symbol>
          <symbol
             id="textext-ecb618e7-6"
             overflow="visible"
             style="overflow:visible">
            <path
               id="path3979"
               d="m 1.9375,-0.0625 c 0,-0.828125 -0.578125,-0.953125 -0.796875,-0.953125 -0.25,0 -0.578125,0.140625 -0.578125,0.578125 0,0.390625 0.359375,0.5 0.609375,0.5 0.078125,0 0.125,-0.015625 0.15625,-0.015625 0.03125,-0.015625 0.0625,-0.03125 0.09375,-0.03125 0.0625,0 0.140625,0.046875 0.140625,0.140625 0,0.1875 -0.171875,0.640625 -0.828125,1.0625 l 0.09375,0.1875 C 1.125,1.3125 1.9375,0.640625 1.9375,-0.0625 z m 0,0"
               style="stroke:none"
               inkscape:connector-curvature="0" />
          </symbol>
          <symbol
             id="textext-ecb618e7-7"
             overflow="visible"
             style="overflow:visible">
            <path
               id="path3982"
               d=""
               style="stroke:none"
               inkscape:connector-curvature="0" />
          </symbol>
          <symbol
             id="textext-ecb618e7-8"
             overflow="visible"
             style="overflow:visible">
            <path
               id="path3985"
               d="m 2.953125,-4.265625 -0.796875,0 0.28125,-1.03125 c 0,-0.015625 0,-0.03125 0,-0.046875 0,-0.0625 -0.03125,-0.09375 -0.078125,-0.09375 -0.0625,0 -0.09375,0 -0.140625,0.078125 C 1.828125,-4.84375 1.203125,-4.34375 0.890625,-4.25 0.640625,-4.171875 0.5625,-4.109375 0.5625,-4 c 0,0 0,0.015625 0.015625,0.046875 l 0.734375,0 -0.71875,2.75 C 0.578125,-1.109375 0.5625,-1.09375 0.53125,-1 0.453125,-0.703125 0.375,-0.34375 0.375,-0.265625 c 0,0.21875 0.203125,0.375 0.46875,0.375 0.46875,0 0.796875,-0.28125 1.421875,-1.203125 l -0.125,-0.078125 c -0.5,0.640625 -0.65625,0.796875 -0.8125,0.796875 -0.09375,0 -0.15625,-0.078125 -0.15625,-0.203125 0,-0.015625 0,-0.015625 0.015625,-0.046875 l 0.875,-3.328125 0.84375,0 z m 0,0"
               style="stroke:none"
               inkscape:connector-curvature="0" />
          </symbol>
          <symbol
             id="textext-ecb618e7-9"
             overflow="visible"
             style="overflow:visible">
            <path
               id="path3988"
               d=""
               style="stroke:none"
               inkscape:connector-curvature="0" />
          </symbol>
          <symbol
             id="textext-ecb618e7-10"
             overflow="visible"
             style="overflow:visible">
            <path
               id="path3991"
               d="m 0.359375,1.4375 0.5625,0 0,-1.796875 C 1.203125,0 1.53125,0.15625 1.984375,0.15625 c 0.890625,0 1.484375,-0.71875 1.484375,-1.828125 0,-1.171875 -0.578125,-1.90625 -1.5,-1.90625 -0.46875,0 -0.84375,0.21875 -1.09375,0.625 l 0,-0.515625 -0.515625,0 z M 1.875,-3.046875 c 0.609375,0 1.015625,0.53125 1.015625,1.359375 0,0.78125 -0.40625,1.328125 -1.015625,1.328125 -0.578125,0 -0.953125,-0.53125 -0.953125,-1.34375 0,-0.828125 0.375,-1.34375 0.953125,-1.34375 z m 0,0"
               style="stroke:none"
               inkscape:connector-curvature="0" />
          </symbol>
          <symbol
             id="textext-ecb618e7-11"
             overflow="visible"
             style="overflow:visible">
            <path
               id="path3994"
               d=""
               style="stroke:none"
               inkscape:connector-curvature="0" />
          </symbol>
          <symbol
             id="textext-ecb618e7-12"
             overflow="visible"
             style="overflow:visible">
            <path
               id="path3997"
               d="m 4.828125,-0.078125 0,-0.5 -1.890625,0 c -0.15625,0 -0.3125,-0.015625 -0.46875,-0.0625 l 0.671875,-1.671875 1.515625,0 0,-0.5 -1.3125,0 0.6875,-1.734375 0.796875,0 0,-0.5 -0.59375,0 0.4375,-1.09375 -0.546875,0 -0.4375,1.09375 -0.71875,0 c -1.390625,0 -2.453125,1.15625 -2.453125,2.484375 0,0.921875 0.515625,1.78125 1.3125,2.1875 l -0.546875,1.390625 0.53125,0 0.484375,-1.1875 c 0.203125,0.0625 0.4375,0.09375 0.671875,0.09375 z m -1.34375,-4.46875 -0.6875,1.734375 -1.765625,0 C 1.140625,-3.765625 1.9375,-4.546875 2.9375,-4.546875 z m -0.875,2.234375 -0.59375,1.46875 C 1.5,-1.140625 1.109375,-1.671875 1.03125,-2.3125 z m 0,0"
               style="stroke:none"
               inkscape:connector-curvature="0" />
          </symbol>
          <symbol
             id="textext-ecb618e7-13"
             overflow="visible"
             style="overflow:visible">
            <path
               id="path4000"
               d=""
               style="stroke:none"
               inkscape:connector-curvature="0" />
          </symbol>
          <symbol
             id="textext-ecb618e7-14"
             overflow="visible"
             style="overflow:visible">
            <path
               id="path4003"
               d="m 5.203125,-4.921875 c -0.015625,0.03125 -0.03125,0.046875 -0.03125,0.0625 0,0.03125 0.015625,0.0625 0.046875,0.078125 0.296875,0.171875 0.65625,0.34375 1.125,0.359375 -0.078125,0.65625 -0.515625,1.46875 -1.09375,2.28125 -0.34375,0.5 -0.75,1 -1.296875,1.4375 -0.421875,0.328125 -0.90625,0.5625 -1.25,0.5625 -0.78125,0 -1.125,-0.4375 -1.125,-1.0625 l 0,-0.046875 C 1.609375,-2.078125 2.171875,-3.109375 2.90625,-4.140625 3.375,-4.8125 3.875,-5.484375 4.578125,-6.0625 c 0.53125,-0.4375 1.15625,-0.78125 1.59375,-0.78125 0.640625,0 1.15625,0.140625 1.421875,0.46875 0.09375,0.109375 0.140625,0.25 0.140625,0.40625 0,0.203125 -0.078125,0.421875 -0.25,0.6875 -0.125,0.171875 -0.28125,0.34375 -0.5,0.453125 -0.078125,0.046875 -0.140625,0.09375 -0.21875,0.109375 -0.09375,-0.578125 -0.5,-0.96875 -1.25,-0.96875 -0.375,0 -0.84375,0.328125 -1.234375,0.640625 -0.546875,0.46875 -1,0.984375 -1.375,1.515625 -0.59375,0.84375 -0.84375,1.640625 -0.9375,2.359375 l 0,0.046875 c 0.015625,0.03125 0.046875,0.046875 0.078125,0.046875 0,0 0.03125,0 0.03125,-0.015625 L 2.21875,-1.140625 c 0.03125,0 0.046875,-0.03125 0.046875,-0.0625 0.09375,-0.6875 0.328125,-1.4375 0.890625,-2.234375 0.359375,-0.5 0.765625,-1.015625 1.28125,-1.453125 0.359375,-0.3125 0.75,-0.578125 1.046875,-0.578125 0.59375,0 0.859375,0.328125 0.859375,0.828125 -0.390625,-0.03125 -0.671875,-0.1875 -0.984375,-0.34375 C 5.34375,-5 5.328125,-5 5.3125,-5 5.296875,-5 5.28125,-4.984375 5.25,-4.96875 z M 7.125,-4.640625 C 7.359375,-4.78125 7.578125,-4.984375 7.71875,-5.1875 7.921875,-5.46875 8,-5.734375 8,-5.96875 8,-6.1875 7.9375,-6.375 7.8125,-6.515625 7.484375,-6.921875 6.890625,-7.0625 6.203125,-7.0625 c -0.609375,0 -1.40625,0.359375 -2.109375,0.828125 -0.84375,0.578125 -1.546875,1.28125 -2.046875,2 -0.6875,0.96875 -1.09375,1.9375 -1.09375,2.734375 0,0.09375 0,0.1875 0.015625,0.28125 0.09375,0.796875 0.6875,1.296875 1.6875,1.296875 0.46875,0 1.078125,-0.25 1.59375,-0.625 0.640625,-0.4375 1.15625,-0.953125 1.53125,-1.5 C 6.375,-2.890625 6.765625,-3.75 6.765625,-4.46875 l 0,-0.03125 c 0.125,-0.03125 0.25,-0.078125 0.359375,-0.140625 z m 0,0"
               style="stroke:none"
               inkscape:connector-curvature="0" />
          </symbol>
          <symbol
             id="textext-ecb618e7-15"
             overflow="visible"
             style="overflow:visible">
            <path
               id="path4006"
               d=""
               style="stroke:none"
               inkscape:connector-curvature="0" />
          </symbol>
          <symbol
             id="textext-ecb618e7-16"
             overflow="visible"
             style="overflow:visible">
            <path
               id="path4009"
               d="m 6.171875,-2.5625 c 0,-1.65625 -1.34375,-3 -3,-3 -1.65625,0 -3,1.34375 -3,3 0,1.65625 1.34375,3 3,3 1.65625,0 3,-1.34375 3,-3 z m -0.453125,-0.234375 -2.328125,0 0,-2.3125 C 4.609375,-5 5.609375,-4.03125 5.71875,-2.796875 z m -2.765625,-2.3125 -0.015625,2.3125 -2.3125,0 C 0.734375,-4.015625 1.71875,-5 2.953125,-5.109375 z m 2.765625,2.78125 c -0.109375,1.21875 -1.109375,2.203125 -2.328125,2.3125 l 0,-2.328125 z m -2.765625,2.3125 C 1.71875,-0.125 0.734375,-1.109375 0.625,-2.34375 l 2.328125,0 z m 0,0"
               style="stroke:none"
               inkscape:connector-curvature="0" />
          </symbol>
        </g>
      </defs>
      <g
         id="textext-ecb618e7-17">
        <g
           id="g4012"
           style="fill:#000000;fill-opacity:1">
          <use
             id="use4014"
             y="134.765"
             x="223.43201"
             xlink:href="#textext-ecb618e7-1"
             width="389.76376"
             height="212.59842" />
          <use
             id="use4016"
             y="134.765"
             x="226.74954"
             xlink:href="#textext-ecb618e7-2"
             width="389.76376"
             height="212.59842" />
        </g>
        <g
           id="g4018"
           style="fill:#000000;fill-opacity:1">
          <use
             id="use4020"
             y="134.765"
             x="231.731"
             xlink:href="#textext-ecb618e7-6"
             width="389.76376"
             height="212.59842" />
        </g>
        <g
           id="g4022"
           style="fill:#000000;fill-opacity:1">
          <use
             id="use4024"
             y="134.765"
             x="235.882"
             xlink:href="#textext-ecb618e7-3"
             width="389.76376"
             height="212.59842" />
          <use
             id="use4026"
             y="134.765"
             x="240.8633"
             xlink:href="#textext-ecb618e7-4"
             width="389.76376"
             height="212.59842" />
        </g>
        <g
           id="g4028"
           style="fill:#000000;fill-opacity:1">
          <use
             id="use4030"
             y="134.765"
             x="244.181"
             xlink:href="#textext-ecb618e7-8"
             width="389.76376"
             height="212.59842" />
        </g>
        <g
           id="g4032"
           style="fill:#000000;fill-opacity:1">
          <use
             id="use4034"
             y="136.259"
             x="246.951"
             xlink:href="#textext-ecb618e7-10"
             width="389.76376"
             height="212.59842" />
        </g>
        <g
           id="g4036"
           style="fill:#000000;fill-opacity:1">
          <use
             id="use4038"
             y="134.765"
             x="253.89999"
             xlink:href="#textext-ecb618e7-12"
             width="389.76376"
             height="212.59842" />
        </g>
        <g
           id="g4040"
           style="fill:#000000;fill-opacity:1">
          <use
             id="use4042"
             y="134.765"
             x="262.00699"
             xlink:href="#textext-ecb618e7-14"
             width="389.76376"
             height="212.59842" />
        </g>
        <g
           id="g4044"
           style="fill:#000000;fill-opacity:1">
          <use
             id="use4046"
             y="136.259"
             x="269.358"
             xlink:href="#textext-ecb618e7-10"
             width="389.76376"
             height="212.59842" />
        </g>
        <g
           id="g4048"
           style="fill:#000000;fill-opacity:1">
          <use
             id="use4050"
             y="134.765"
             x="275.754"
             xlink:href="#textext-ecb618e7-16"
             width="389.76376"
             height="212.59842" />
        </g>
        <g
           id="g4052"
           style="fill:#000000;fill-opacity:1">
          <use
             id="use4054"
             y="134.765"
             x="284.30399"
             xlink:href="#textext-ecb618e7-14"
             width="389.76376"
             height="212.59842" />
        </g>
        <g
           id="g4056"
           style="fill:#000000;fill-opacity:1">
          <use
             id="use4058"
             y="136.259"
             x="291.655"
             xlink:href="#textext-ecb618e7-10"
             width="389.76376"
             height="212.59842" />
        </g>
      </g>
    </g>
    <g
       ns0:text="$(0,1)t_{\\mathsf{p}}\\in \\mathscr{O}_{\\mathsf{p}}\\oplus \\mathscr{O}_{\\mathsf{p}}$"
       ns0:preamble="/home/sriranga/Desktop/TIFR/Studies-in-Mathematics/SM_05/chap2/package.tex"
       transform="matrix(1.2,0,0,1.2,-109.33674,750.06547)"
       id="g4378">
      <defs
         id="defs4380">
        <g
           id="g4382">
          <symbol
             overflow="visible"
             id="textext-b6ebb58c-0"
             style="overflow:visible">
            <path
               style="stroke:none"
               d=""
               id="path4385"
               inkscape:connector-curvature="0" />
          </symbol>
          <symbol
             overflow="visible"
             id="textext-b6ebb58c-1"
             style="overflow:visible">
            <path
               style="stroke:none"
               d="M 2.9375,-6.734375 C 2.203125,-6.265625 1.90625,-6 1.53125,-5.546875 c -0.703125,0.875 -1.046875,1.875 -1.046875,3.03125 0,1.265625 0.359375,2.25 1.234375,3.265625 0.421875,0.46875 0.671875,0.703125 1.1875,1.015625 l 0.125,-0.15625 C 2.234375,0.984375 1.953125,0.625 1.6875,-0.125 1.453125,-0.78125 1.328125,-1.546875 1.328125,-2.546875 1.328125,-3.59375 1.46875,-4.40625 1.734375,-5.03125 2.015625,-5.640625 2.3125,-6 3.03125,-6.578125 z m 0,0"
               id="path4388"
               inkscape:connector-curvature="0" />
          </symbol>
          <symbol
             overflow="visible"
             id="textext-b6ebb58c-2"
             style="overflow:visible">
            <path
               style="stroke:none"
               d="m 2.53125,-6.734375 c -0.546875,0 -0.96875,0.171875 -1.328125,0.515625 -0.578125,0.5625 -0.96875,1.703125 -0.96875,2.875 0,1.078125 0.328125,2.25 0.796875,2.8125 0.375,0.4375 0.875,0.671875 1.46875,0.671875 0.5,0 0.921875,-0.171875 1.28125,-0.515625 C 4.359375,-0.921875 4.75,-2.078125 4.75,-3.296875 c 0,-2.03125 -0.90625,-3.4375 -2.21875,-3.4375 z m -0.03125,0.25 c 0.84375,0 1.28125,1.125 1.28125,3.21875 0,2.078125 -0.4375,3.140625 -1.28125,3.140625 -0.859375,0 -1.296875,-1.0625 -1.296875,-3.140625 0,-2.109375 0.4375,-3.21875 1.296875,-3.21875 z m 0,0"
               id="path4391"
               inkscape:connector-curvature="0" />
          </symbol>
          <symbol
             overflow="visible"
             id="textext-b6ebb58c-3"
             style="overflow:visible">
            <path
               style="stroke:none"
               d="m 2.90625,-6.734375 -1.796875,0.90625 0,0.140625 C 1.21875,-5.734375 1.328125,-5.78125 1.375,-5.796875 1.5625,-5.875 1.71875,-5.90625 1.828125,-5.90625 2.03125,-5.90625 2.125,-5.765625 2.125,-5.4375 l 0,4.515625 c 0,0.328125 -0.078125,0.546875 -0.234375,0.640625 -0.15625,0.09375 -0.296875,0.125 -0.71875,0.125 l 0,0.15625 2.75,0 0,-0.15625 c -0.78125,0 -0.9375,-0.109375 -0.9375,-0.578125 l 0,-5.984375 z m 0,0"
               id="path4394"
               inkscape:connector-curvature="0" />
          </symbol>
          <symbol
             overflow="visible"
             id="textext-b6ebb58c-4"
             style="overflow:visible">
            <path
               style="stroke:none"
               d="M 0.375,1.765625 C 1.109375,1.28125 1.421875,1.03125 1.78125,0.5625 2.5,-0.296875 2.84375,-1.296875 2.84375,-2.46875 c 0,-1.265625 -0.375,-2.234375 -1.25,-3.25 C 1.1875,-6.203125 0.921875,-6.421875 0.40625,-6.734375 l -0.109375,0.15625 c 0.796875,0.625 1.0625,0.96875 1.34375,1.71875 0.234375,0.671875 0.34375,1.4375 0.34375,2.421875 0,1.046875 -0.125,1.875 -0.40625,2.484375 C 1.3125,0.671875 1,1.03125 0.296875,1.609375 z m 0,0"
               id="path4397"
               inkscape:connector-curvature="0" />
          </symbol>
          <symbol
             overflow="visible"
             id="textext-b6ebb58c-5"
             style="overflow:visible">
            <path
               style="stroke:none"
               d=""
               id="path4400"
               inkscape:connector-curvature="0" />
          </symbol>
          <symbol
             overflow="visible"
             id="textext-b6ebb58c-6"
             style="overflow:visible">
            <path
               style="stroke:none"
               d="m 1.9375,-0.0625 c 0,-0.828125 -0.578125,-0.953125 -0.796875,-0.953125 -0.25,0 -0.578125,0.140625 -0.578125,0.578125 0,0.390625 0.359375,0.5 0.609375,0.5 0.078125,0 0.125,-0.015625 0.15625,-0.015625 0.03125,-0.015625 0.0625,-0.03125 0.09375,-0.03125 0.0625,0 0.140625,0.046875 0.140625,0.140625 0,0.1875 -0.171875,0.640625 -0.828125,1.0625 l 0.09375,0.1875 C 1.125,1.3125 1.9375,0.640625 1.9375,-0.0625 z m 0,0"
               id="path4403"
               inkscape:connector-curvature="0" />
          </symbol>
          <symbol
             overflow="visible"
             id="textext-b6ebb58c-7"
             style="overflow:visible">
            <path
               style="stroke:none"
               d=""
               id="path4406"
               inkscape:connector-curvature="0" />
          </symbol>
          <symbol
             overflow="visible"
             id="textext-b6ebb58c-8"
             style="overflow:visible">
            <path
               style="stroke:none"
               d="m 2.953125,-4.265625 -0.796875,0 0.28125,-1.03125 c 0,-0.015625 0,-0.03125 0,-0.046875 0,-0.0625 -0.03125,-0.09375 -0.078125,-0.09375 -0.0625,0 -0.09375,0 -0.140625,0.078125 C 1.828125,-4.84375 1.203125,-4.34375 0.890625,-4.25 0.640625,-4.171875 0.5625,-4.109375 0.5625,-4 c 0,0 0,0.015625 0.015625,0.046875 l 0.734375,0 -0.71875,2.75 C 0.578125,-1.109375 0.5625,-1.09375 0.53125,-1 0.453125,-0.703125 0.375,-0.34375 0.375,-0.265625 c 0,0.21875 0.203125,0.375 0.46875,0.375 0.46875,0 0.796875,-0.28125 1.421875,-1.203125 l -0.125,-0.078125 c -0.5,0.640625 -0.65625,0.796875 -0.8125,0.796875 -0.09375,0 -0.15625,-0.078125 -0.15625,-0.203125 0,-0.015625 0,-0.015625 0.015625,-0.046875 l 0.875,-3.328125 0.84375,0 z m 0,0"
               id="path4409"
               inkscape:connector-curvature="0" />
          </symbol>
          <symbol
             overflow="visible"
             id="textext-b6ebb58c-9"
             style="overflow:visible">
            <path
               style="stroke:none"
               d=""
               id="path4412"
               inkscape:connector-curvature="0" />
          </symbol>
          <symbol
             overflow="visible"
             id="textext-b6ebb58c-10"
             style="overflow:visible">
            <path
               style="stroke:none"
               d="m 0.359375,1.4375 0.5625,0 0,-1.796875 C 1.203125,0 1.53125,0.15625 1.984375,0.15625 c 0.890625,0 1.484375,-0.71875 1.484375,-1.828125 0,-1.171875 -0.578125,-1.90625 -1.5,-1.90625 -0.46875,0 -0.84375,0.21875 -1.09375,0.625 l 0,-0.515625 -0.515625,0 z M 1.875,-3.046875 c 0.609375,0 1.015625,0.53125 1.015625,1.359375 0,0.78125 -0.40625,1.328125 -1.015625,1.328125 -0.578125,0 -0.953125,-0.53125 -0.953125,-1.34375 0,-0.828125 0.375,-1.34375 0.953125,-1.34375 z m 0,0"
               id="path4415"
               inkscape:connector-curvature="0" />
          </symbol>
          <symbol
             overflow="visible"
             id="textext-b6ebb58c-11"
             style="overflow:visible">
            <path
               style="stroke:none"
               d=""
               id="path4418"
               inkscape:connector-curvature="0" />
          </symbol>
          <symbol
             overflow="visible"
             id="textext-b6ebb58c-12"
             style="overflow:visible">
            <path
               style="stroke:none"
               d="m 4.828125,-0.078125 0,-0.5 -1.890625,0 c -0.90625,0 -1.78125,-0.734375 -1.90625,-1.734375 l 3.625,0 0,-0.5 -3.625,0 C 1.140625,-3.765625 1.9375,-4.546875 2.9375,-4.546875 l 1.890625,0 0,-0.5 -1.859375,0 c -1.390625,0 -2.453125,1.15625 -2.453125,2.484375 0,1.328125 1.0625,2.484375 2.453125,2.484375 z m 0,0"
               id="path4421"
               inkscape:connector-curvature="0" />
          </symbol>
          <symbol
             overflow="visible"
             id="textext-b6ebb58c-13"
             style="overflow:visible">
            <path
               style="stroke:none"
               d="m 6.171875,-2.5625 c 0,-1.65625 -1.34375,-3 -3,-3 -1.65625,0 -3,1.34375 -3,3 0,1.65625 1.34375,3 3,3 1.65625,0 3,-1.34375 3,-3 z m -0.453125,-0.234375 -2.328125,0 0,-2.3125 C 4.609375,-5 5.609375,-4.03125 5.71875,-2.796875 z m -2.765625,-2.3125 -0.015625,2.3125 -2.3125,0 C 0.734375,-4.015625 1.71875,-5 2.953125,-5.109375 z m 2.765625,2.78125 c -0.109375,1.21875 -1.109375,2.203125 -2.328125,2.3125 l 0,-2.328125 z m -2.765625,2.3125 C 1.71875,-0.125 0.734375,-1.109375 0.625,-2.34375 l 2.328125,0 z m 0,0"
               id="path4424"
               inkscape:connector-curvature="0" />
          </symbol>
          <symbol
             overflow="visible"
             id="textext-b6ebb58c-14"
             style="overflow:visible">
            <path
               style="stroke:none"
               d=""
               id="path4427"
               inkscape:connector-curvature="0" />
          </symbol>
          <symbol
             overflow="visible"
             id="textext-b6ebb58c-15"
             style="overflow:visible">
            <path
               style="stroke:none"
               d="m 5.203125,-4.921875 c -0.015625,0.03125 -0.03125,0.046875 -0.03125,0.0625 0,0.03125 0.015625,0.0625 0.046875,0.078125 0.296875,0.171875 0.65625,0.34375 1.125,0.359375 -0.078125,0.65625 -0.515625,1.46875 -1.09375,2.28125 -0.34375,0.5 -0.75,1 -1.296875,1.4375 -0.421875,0.328125 -0.90625,0.5625 -1.25,0.5625 -0.78125,0 -1.125,-0.4375 -1.125,-1.0625 l 0,-0.046875 C 1.609375,-2.078125 2.171875,-3.109375 2.90625,-4.140625 3.375,-4.8125 3.875,-5.484375 4.578125,-6.0625 c 0.53125,-0.4375 1.15625,-0.78125 1.59375,-0.78125 0.640625,0 1.15625,0.140625 1.421875,0.46875 0.09375,0.109375 0.140625,0.25 0.140625,0.40625 0,0.203125 -0.078125,0.421875 -0.25,0.6875 -0.125,0.171875 -0.28125,0.34375 -0.5,0.453125 -0.078125,0.046875 -0.140625,0.09375 -0.21875,0.109375 -0.09375,-0.578125 -0.5,-0.96875 -1.25,-0.96875 -0.375,0 -0.84375,0.328125 -1.234375,0.640625 -0.546875,0.46875 -1,0.984375 -1.375,1.515625 -0.59375,0.84375 -0.84375,1.640625 -0.9375,2.359375 l 0,0.046875 c 0.015625,0.03125 0.046875,0.046875 0.078125,0.046875 0,0 0.03125,0 0.03125,-0.015625 L 2.21875,-1.140625 c 0.03125,0 0.046875,-0.03125 0.046875,-0.0625 0.09375,-0.6875 0.328125,-1.4375 0.890625,-2.234375 0.359375,-0.5 0.765625,-1.015625 1.28125,-1.453125 0.359375,-0.3125 0.75,-0.578125 1.046875,-0.578125 0.59375,0 0.859375,0.328125 0.859375,0.828125 -0.390625,-0.03125 -0.671875,-0.1875 -0.984375,-0.34375 C 5.34375,-5 5.328125,-5 5.3125,-5 5.296875,-5 5.28125,-4.984375 5.25,-4.96875 z M 7.125,-4.640625 C 7.359375,-4.78125 7.578125,-4.984375 7.71875,-5.1875 7.921875,-5.46875 8,-5.734375 8,-5.96875 8,-6.1875 7.9375,-6.375 7.8125,-6.515625 7.484375,-6.921875 6.890625,-7.0625 6.203125,-7.0625 c -0.609375,0 -1.40625,0.359375 -2.109375,0.828125 -0.84375,0.578125 -1.546875,1.28125 -2.046875,2 -0.6875,0.96875 -1.09375,1.9375 -1.09375,2.734375 0,0.09375 0,0.1875 0.015625,0.28125 0.09375,0.796875 0.6875,1.296875 1.6875,1.296875 0.46875,0 1.078125,-0.25 1.59375,-0.625 0.640625,-0.4375 1.15625,-0.953125 1.53125,-1.5 C 6.375,-2.890625 6.765625,-3.75 6.765625,-4.46875 l 0,-0.03125 c 0.125,-0.03125 0.25,-0.078125 0.359375,-0.140625 z m 0,0"
               id="path4430"
               inkscape:connector-curvature="0" />
          </symbol>
        </g>
      </defs>
      <g
         id="textext-b6ebb58c-16">
        <g
           style="fill:#000000;fill-opacity:1"
           id="g4433">
          <use
             xlink:href="#textext-b6ebb58c-1"
             x="223.43201"
             y="134.765"
             id="use4435"
             width="389.76376"
             height="212.59842" />
          <use
             xlink:href="#textext-b6ebb58c-2"
             x="226.74954"
             y="134.765"
             id="use4437"
             width="389.76376"
             height="212.59842" />
        </g>
        <g
           style="fill:#000000;fill-opacity:1"
           id="g4439">
          <use
             xlink:href="#textext-b6ebb58c-6"
             x="231.731"
             y="134.765"
             id="use4441"
             width="389.76376"
             height="212.59842" />
        </g>
        <g
           style="fill:#000000;fill-opacity:1"
           id="g4443">
          <use
             xlink:href="#textext-b6ebb58c-3"
             x="235.882"
             y="134.765"
             id="use4445"
             width="389.76376"
             height="212.59842" />
          <use
             xlink:href="#textext-b6ebb58c-4"
             x="240.8633"
             y="134.765"
             id="use4447"
             width="389.76376"
             height="212.59842" />
        </g>
        <g
           style="fill:#000000;fill-opacity:1"
           id="g4449">
          <use
             xlink:href="#textext-b6ebb58c-8"
             x="244.181"
             y="134.765"
             id="use4451"
             width="389.76376"
             height="212.59842" />
        </g>
        <g
           style="fill:#000000;fill-opacity:1"
           id="g4453">
          <use
             xlink:href="#textext-b6ebb58c-10"
             x="246.951"
             y="136.259"
             id="use4455"
             width="389.76376"
             height="212.59842" />
        </g>
        <g
           style="fill:#000000;fill-opacity:1"
           id="g4457">
          <use
             xlink:href="#textext-b6ebb58c-12"
             x="253.89999"
             y="134.765"
             id="use4459"
             width="389.76376"
             height="212.59842" />
        </g>
        <g
           style="fill:#000000;fill-opacity:1"
           id="g4461">
          <use
             xlink:href="#textext-b6ebb58c-15"
             x="262.00699"
             y="134.765"
             id="use4463"
             width="389.76376"
             height="212.59842" />
        </g>
        <g
           style="fill:#000000;fill-opacity:1"
           id="g4465">
          <use
             xlink:href="#textext-b6ebb58c-10"
             x="269.358"
             y="136.259"
             id="use4467"
             width="389.76376"
             height="212.59842" />
        </g>
        <g
           style="fill:#000000;fill-opacity:1"
           id="g4469">
          <use
             xlink:href="#textext-b6ebb58c-13"
             x="275.754"
             y="134.765"
             id="use4471"
             width="389.76376"
             height="212.59842" />
        </g>
        <g
           style="fill:#000000;fill-opacity:1"
           id="g4473">
          <use
             xlink:href="#textext-b6ebb58c-15"
             x="284.30399"
             y="134.765"
             id="use4475"
             width="389.76376"
             height="212.59842" />
        </g>
        <g
           style="fill:#000000;fill-opacity:1"
           id="g4477">
          <use
             xlink:href="#textext-b6ebb58c-10"
             x="291.655"
             y="136.259"
             id="use4479"
             width="389.76376"
             height="212.59842" />
        </g>
      </g>
    </g>
    <g
       id="g4637"
       transform="matrix(1.2,0,0,1.2,-135.33674,810.06547)"
       ns0:preamble="/home/sriranga/Desktop/TIFR/Studies-in-Mathematics/SM_05/chap2/package.tex"
       ns0:text="$(0,1)t_{\\mathsf{p}}\\in \\mathscr{O}_{\\mathsf{p}}\\oplus \\mathscr{O}_{\\mathsf{p}}$">
      <defs
         id="defs4639">
        <g
           id="g4641">
          <symbol
             style="overflow:visible"
             id="symbol4643"
             overflow="visible">
            <path
               inkscape:connector-curvature="0"
               id="path4645"
               d=""
               style="stroke:none" />
          </symbol>
          <symbol
             style="overflow:visible"
             id="symbol4647"
             overflow="visible">
            <path
               inkscape:connector-curvature="0"
               id="path4649"
               d="M 2.9375,-6.734375 C 2.203125,-6.265625 1.90625,-6 1.53125,-5.546875 c -0.703125,0.875 -1.046875,1.875 -1.046875,3.03125 0,1.265625 0.359375,2.25 1.234375,3.265625 0.421875,0.46875 0.671875,0.703125 1.1875,1.015625 l 0.125,-0.15625 C 2.234375,0.984375 1.953125,0.625 1.6875,-0.125 1.453125,-0.78125 1.328125,-1.546875 1.328125,-2.546875 1.328125,-3.59375 1.46875,-4.40625 1.734375,-5.03125 2.015625,-5.640625 2.3125,-6 3.03125,-6.578125 z m 0,0"
               style="stroke:none" />
          </symbol>
          <symbol
             style="overflow:visible"
             id="symbol4651"
             overflow="visible">
            <path
               inkscape:connector-curvature="0"
               id="path4653"
               d="m 2.53125,-6.734375 c -0.546875,0 -0.96875,0.171875 -1.328125,0.515625 -0.578125,0.5625 -0.96875,1.703125 -0.96875,2.875 0,1.078125 0.328125,2.25 0.796875,2.8125 0.375,0.4375 0.875,0.671875 1.46875,0.671875 0.5,0 0.921875,-0.171875 1.28125,-0.515625 C 4.359375,-0.921875 4.75,-2.078125 4.75,-3.296875 c 0,-2.03125 -0.90625,-3.4375 -2.21875,-3.4375 z m -0.03125,0.25 c 0.84375,0 1.28125,1.125 1.28125,3.21875 0,2.078125 -0.4375,3.140625 -1.28125,3.140625 -0.859375,0 -1.296875,-1.0625 -1.296875,-3.140625 0,-2.109375 0.4375,-3.21875 1.296875,-3.21875 z m 0,0"
               style="stroke:none" />
          </symbol>
          <symbol
             style="overflow:visible"
             id="symbol4655"
             overflow="visible">
            <path
               inkscape:connector-curvature="0"
               id="path4657"
               d="m 2.90625,-6.734375 -1.796875,0.90625 0,0.140625 C 1.21875,-5.734375 1.328125,-5.78125 1.375,-5.796875 1.5625,-5.875 1.71875,-5.90625 1.828125,-5.90625 2.03125,-5.90625 2.125,-5.765625 2.125,-5.4375 l 0,4.515625 c 0,0.328125 -0.078125,0.546875 -0.234375,0.640625 -0.15625,0.09375 -0.296875,0.125 -0.71875,0.125 l 0,0.15625 2.75,0 0,-0.15625 c -0.78125,0 -0.9375,-0.109375 -0.9375,-0.578125 l 0,-5.984375 z m 0,0"
               style="stroke:none" />
          </symbol>
          <symbol
             style="overflow:visible"
             id="symbol4659"
             overflow="visible">
            <path
               inkscape:connector-curvature="0"
               id="path4661"
               d="M 0.375,1.765625 C 1.109375,1.28125 1.421875,1.03125 1.78125,0.5625 2.5,-0.296875 2.84375,-1.296875 2.84375,-2.46875 c 0,-1.265625 -0.375,-2.234375 -1.25,-3.25 C 1.1875,-6.203125 0.921875,-6.421875 0.40625,-6.734375 l -0.109375,0.15625 c 0.796875,0.625 1.0625,0.96875 1.34375,1.71875 0.234375,0.671875 0.34375,1.4375 0.34375,2.421875 0,1.046875 -0.125,1.875 -0.40625,2.484375 C 1.3125,0.671875 1,1.03125 0.296875,1.609375 z m 0,0"
               style="stroke:none" />
          </symbol>
          <symbol
             style="overflow:visible"
             id="symbol4663"
             overflow="visible">
            <path
               inkscape:connector-curvature="0"
               id="path4665"
               d=""
               style="stroke:none" />
          </symbol>
          <symbol
             style="overflow:visible"
             id="symbol4667"
             overflow="visible">
            <path
               inkscape:connector-curvature="0"
               id="path4669"
               d="m 1.9375,-0.0625 c 0,-0.828125 -0.578125,-0.953125 -0.796875,-0.953125 -0.25,0 -0.578125,0.140625 -0.578125,0.578125 0,0.390625 0.359375,0.5 0.609375,0.5 0.078125,0 0.125,-0.015625 0.15625,-0.015625 0.03125,-0.015625 0.0625,-0.03125 0.09375,-0.03125 0.0625,0 0.140625,0.046875 0.140625,0.140625 0,0.1875 -0.171875,0.640625 -0.828125,1.0625 l 0.09375,0.1875 C 1.125,1.3125 1.9375,0.640625 1.9375,-0.0625 z m 0,0"
               style="stroke:none" />
          </symbol>
          <symbol
             style="overflow:visible"
             id="symbol4671"
             overflow="visible">
            <path
               inkscape:connector-curvature="0"
               id="path4673"
               d=""
               style="stroke:none" />
          </symbol>
          <symbol
             style="overflow:visible"
             id="symbol4675"
             overflow="visible">
            <path
               inkscape:connector-curvature="0"
               id="path4677"
               d="m 2.953125,-4.265625 -0.796875,0 0.28125,-1.03125 c 0,-0.015625 0,-0.03125 0,-0.046875 0,-0.0625 -0.03125,-0.09375 -0.078125,-0.09375 -0.0625,0 -0.09375,0 -0.140625,0.078125 C 1.828125,-4.84375 1.203125,-4.34375 0.890625,-4.25 0.640625,-4.171875 0.5625,-4.109375 0.5625,-4 c 0,0 0,0.015625 0.015625,0.046875 l 0.734375,0 -0.71875,2.75 C 0.578125,-1.109375 0.5625,-1.09375 0.53125,-1 0.453125,-0.703125 0.375,-0.34375 0.375,-0.265625 c 0,0.21875 0.203125,0.375 0.46875,0.375 0.46875,0 0.796875,-0.28125 1.421875,-1.203125 l -0.125,-0.078125 c -0.5,0.640625 -0.65625,0.796875 -0.8125,0.796875 -0.09375,0 -0.15625,-0.078125 -0.15625,-0.203125 0,-0.015625 0,-0.015625 0.015625,-0.046875 l 0.875,-3.328125 0.84375,0 z m 0,0"
               style="stroke:none" />
          </symbol>
          <symbol
             style="overflow:visible"
             id="symbol4679"
             overflow="visible">
            <path
               inkscape:connector-curvature="0"
               id="path4681"
               d=""
               style="stroke:none" />
          </symbol>
          <symbol
             style="overflow:visible"
             id="symbol4683"
             overflow="visible">
            <path
               inkscape:connector-curvature="0"
               id="path4685"
               d="m 0.359375,1.4375 0.5625,0 0,-1.796875 C 1.203125,0 1.53125,0.15625 1.984375,0.15625 c 0.890625,0 1.484375,-0.71875 1.484375,-1.828125 0,-1.171875 -0.578125,-1.90625 -1.5,-1.90625 -0.46875,0 -0.84375,0.21875 -1.09375,0.625 l 0,-0.515625 -0.515625,0 z M 1.875,-3.046875 c 0.609375,0 1.015625,0.53125 1.015625,1.359375 0,0.78125 -0.40625,1.328125 -1.015625,1.328125 -0.578125,0 -0.953125,-0.53125 -0.953125,-1.34375 0,-0.828125 0.375,-1.34375 0.953125,-1.34375 z m 0,0"
               style="stroke:none" />
          </symbol>
          <symbol
             style="overflow:visible"
             id="symbol4687"
             overflow="visible">
            <path
               inkscape:connector-curvature="0"
               id="path4689"
               d=""
               style="stroke:none" />
          </symbol>
          <symbol
             style="overflow:visible"
             id="symbol4691"
             overflow="visible">
            <path
               inkscape:connector-curvature="0"
               id="path4693"
               d="m 4.828125,-0.078125 0,-0.5 -1.890625,0 c -0.90625,0 -1.78125,-0.734375 -1.90625,-1.734375 l 3.625,0 0,-0.5 -3.625,0 C 1.140625,-3.765625 1.9375,-4.546875 2.9375,-4.546875 l 1.890625,0 0,-0.5 -1.859375,0 c -1.390625,0 -2.453125,1.15625 -2.453125,2.484375 0,1.328125 1.0625,2.484375 2.453125,2.484375 z m 0,0"
               style="stroke:none" />
          </symbol>
          <symbol
             style="overflow:visible"
             id="symbol4695"
             overflow="visible">
            <path
               inkscape:connector-curvature="0"
               id="path4697"
               d="m 6.171875,-2.5625 c 0,-1.65625 -1.34375,-3 -3,-3 -1.65625,0 -3,1.34375 -3,3 0,1.65625 1.34375,3 3,3 1.65625,0 3,-1.34375 3,-3 z m -0.453125,-0.234375 -2.328125,0 0,-2.3125 C 4.609375,-5 5.609375,-4.03125 5.71875,-2.796875 z m -2.765625,-2.3125 -0.015625,2.3125 -2.3125,0 C 0.734375,-4.015625 1.71875,-5 2.953125,-5.109375 z m 2.765625,2.78125 c -0.109375,1.21875 -1.109375,2.203125 -2.328125,2.3125 l 0,-2.328125 z m -2.765625,2.3125 C 1.71875,-0.125 0.734375,-1.109375 0.625,-2.34375 l 2.328125,0 z m 0,0"
               style="stroke:none" />
          </symbol>
          <symbol
             style="overflow:visible"
             id="symbol4699"
             overflow="visible">
            <path
               inkscape:connector-curvature="0"
               id="path4701"
               d=""
               style="stroke:none" />
          </symbol>
          <symbol
             style="overflow:visible"
             id="symbol4703"
             overflow="visible">
            <path
               inkscape:connector-curvature="0"
               id="path4705"
               d="m 5.203125,-4.921875 c -0.015625,0.03125 -0.03125,0.046875 -0.03125,0.0625 0,0.03125 0.015625,0.0625 0.046875,0.078125 0.296875,0.171875 0.65625,0.34375 1.125,0.359375 -0.078125,0.65625 -0.515625,1.46875 -1.09375,2.28125 -0.34375,0.5 -0.75,1 -1.296875,1.4375 -0.421875,0.328125 -0.90625,0.5625 -1.25,0.5625 -0.78125,0 -1.125,-0.4375 -1.125,-1.0625 l 0,-0.046875 C 1.609375,-2.078125 2.171875,-3.109375 2.90625,-4.140625 3.375,-4.8125 3.875,-5.484375 4.578125,-6.0625 c 0.53125,-0.4375 1.15625,-0.78125 1.59375,-0.78125 0.640625,0 1.15625,0.140625 1.421875,0.46875 0.09375,0.109375 0.140625,0.25 0.140625,0.40625 0,0.203125 -0.078125,0.421875 -0.25,0.6875 -0.125,0.171875 -0.28125,0.34375 -0.5,0.453125 -0.078125,0.046875 -0.140625,0.09375 -0.21875,0.109375 -0.09375,-0.578125 -0.5,-0.96875 -1.25,-0.96875 -0.375,0 -0.84375,0.328125 -1.234375,0.640625 -0.546875,0.46875 -1,0.984375 -1.375,1.515625 -0.59375,0.84375 -0.84375,1.640625 -0.9375,2.359375 l 0,0.046875 c 0.015625,0.03125 0.046875,0.046875 0.078125,0.046875 0,0 0.03125,0 0.03125,-0.015625 L 2.21875,-1.140625 c 0.03125,0 0.046875,-0.03125 0.046875,-0.0625 0.09375,-0.6875 0.328125,-1.4375 0.890625,-2.234375 0.359375,-0.5 0.765625,-1.015625 1.28125,-1.453125 0.359375,-0.3125 0.75,-0.578125 1.046875,-0.578125 0.59375,0 0.859375,0.328125 0.859375,0.828125 -0.390625,-0.03125 -0.671875,-0.1875 -0.984375,-0.34375 C 5.34375,-5 5.328125,-5 5.3125,-5 5.296875,-5 5.28125,-4.984375 5.25,-4.96875 z M 7.125,-4.640625 C 7.359375,-4.78125 7.578125,-4.984375 7.71875,-5.1875 7.921875,-5.46875 8,-5.734375 8,-5.96875 8,-6.1875 7.9375,-6.375 7.8125,-6.515625 7.484375,-6.921875 6.890625,-7.0625 6.203125,-7.0625 c -0.609375,0 -1.40625,0.359375 -2.109375,0.828125 -0.84375,0.578125 -1.546875,1.28125 -2.046875,2 -0.6875,0.96875 -1.09375,1.9375 -1.09375,2.734375 0,0.09375 0,0.1875 0.015625,0.28125 0.09375,0.796875 0.6875,1.296875 1.6875,1.296875 0.46875,0 1.078125,-0.25 1.59375,-0.625 0.640625,-0.4375 1.15625,-0.953125 1.53125,-1.5 C 6.375,-2.890625 6.765625,-3.75 6.765625,-4.46875 l 0,-0.03125 c 0.125,-0.03125 0.25,-0.078125 0.359375,-0.140625 z m 0,0"
               style="stroke:none" />
          </symbol>
        </g>
      </defs>
      <g
         id="g4707">
        <g
           id="g4709"
           style="fill:#000000;fill-opacity:1">
          <use
             height="212.59842"
             width="389.76376"
             id="use4711"
             y="134.765"
             x="223.43201"
             xlink:href="#textext-b6ebb58c-1" />
          <use
             height="212.59842"
             width="389.76376"
             id="use4713"
             y="134.765"
             x="226.74954"
             xlink:href="#textext-b6ebb58c-2" />
        </g>
        <g
           id="g4715"
           style="fill:#000000;fill-opacity:1">
          <use
             height="212.59842"
             width="389.76376"
             id="use4717"
             y="134.765"
             x="231.731"
             xlink:href="#textext-b6ebb58c-6" />
        </g>
        <g
           id="g4719"
           style="fill:#000000;fill-opacity:1">
          <use
             height="212.59842"
             width="389.76376"
             id="use4721"
             y="134.765"
             x="235.882"
             xlink:href="#textext-b6ebb58c-3" />
          <use
             height="212.59842"
             width="389.76376"
             id="use4723"
             y="134.765"
             x="240.8633"
             xlink:href="#textext-b6ebb58c-4" />
        </g>
        <g
           id="g4725"
           style="fill:#000000;fill-opacity:1">
          <use
             height="212.59842"
             width="389.76376"
             id="use4727"
             y="134.765"
             x="244.181"
             xlink:href="#textext-b6ebb58c-8" />
        </g>
        <g
           id="g4729"
           style="fill:#000000;fill-opacity:1">
          <use
             height="212.59842"
             width="389.76376"
             id="use4731"
             y="136.259"
             x="246.951"
             xlink:href="#textext-b6ebb58c-10" />
        </g>
        <g
           id="g4733"
           style="fill:#000000;fill-opacity:1">
          <use
             height="212.59842"
             width="389.76376"
             id="use4735"
             y="134.765"
             x="253.89999"
             xlink:href="#textext-b6ebb58c-12" />
        </g>
        <g
           id="g4737"
           style="fill:#000000;fill-opacity:1">
          <use
             height="212.59842"
             width="389.76376"
             id="use4739"
             y="134.765"
             x="262.00699"
             xlink:href="#textext-b6ebb58c-15" />
        </g>
        <g
           id="g4741"
           style="fill:#000000;fill-opacity:1">
          <use
             height="212.59842"
             width="389.76376"
             id="use4743"
             y="136.259"
             x="269.358"
             xlink:href="#textext-b6ebb58c-10" />
        </g>
        <g
           id="g4745"
           style="fill:#000000;fill-opacity:1">
          <use
             height="212.59842"
             width="389.76376"
             id="use4747"
             y="134.765"
             x="275.754"
             xlink:href="#textext-b6ebb58c-13" />
        </g>
        <g
           id="g4749"
           style="fill:#000000;fill-opacity:1">
          <use
             height="212.59842"
             width="389.76376"
             id="use4751"
             y="134.765"
             x="284.30399"
             xlink:href="#textext-b6ebb58c-15" />
        </g>
        <g
           id="g4753"
           style="fill:#000000;fill-opacity:1">
          <use
             height="212.59842"
             width="389.76376"
             id="use4755"
             y="136.259"
             x="291.655"
             xlink:href="#textext-b6ebb58c-10" />
        </g>
      </g>
    </g>
    <text
       sodipodi:linespacing="125%"
       id="text4757"
       y="960.33679"
       x="168.21039"
       style="font-size:19.28177834px;font-style:normal;font-variant:normal;font-weight:normal;font-stretch:normal;line-height:125%;letter-spacing:0px;word-spacing:0px;fill:#000000;fill-opacity:1;stroke:none;font-family:Nimbus Roman No9 L;-inkscape-font-specification:Nimbus Roman No9 L"
       xml:space="preserve"><tspan
         y="960.33679"
         x="168.21039"
         id="tspan4759"
         sodipodi:role="line">?</tspan></text>
    <g
       ns0:text="$(0,1)t_{\\mathsf{p}}\\not\\in \\mathscr{O}_{\\mathsf{p}}\\oplus \\mathscr{O}_{\\mathsf{p}}$"
       ns0:preamble="/home/sriranga/Desktop/TIFR/Studies-in-Mathematics/SM_05/chap2/package.tex"
       transform="matrix(1.2,0,0,1.2,-59.067584,877.68645)"
       id="g4761">
      <defs
         id="defs4763">
        <g
           id="g4765">
          <symbol
             style="overflow:visible"
             overflow="visible"
             id="symbol4767">
            <path
               inkscape:connector-curvature="0"
               style="stroke:none"
               d=""
               id="path4769" />
          </symbol>
          <symbol
             style="overflow:visible"
             overflow="visible"
             id="symbol4771">
            <path
               inkscape:connector-curvature="0"
               style="stroke:none"
               d="M 2.9375,-6.734375 C 2.203125,-6.265625 1.90625,-6 1.53125,-5.546875 c -0.703125,0.875 -1.046875,1.875 -1.046875,3.03125 0,1.265625 0.359375,2.25 1.234375,3.265625 0.421875,0.46875 0.671875,0.703125 1.1875,1.015625 l 0.125,-0.15625 C 2.234375,0.984375 1.953125,0.625 1.6875,-0.125 1.453125,-0.78125 1.328125,-1.546875 1.328125,-2.546875 1.328125,-3.59375 1.46875,-4.40625 1.734375,-5.03125 2.015625,-5.640625 2.3125,-6 3.03125,-6.578125 z m 0,0"
               id="path4773" />
          </symbol>
          <symbol
             style="overflow:visible"
             overflow="visible"
             id="symbol4775">
            <path
               inkscape:connector-curvature="0"
               style="stroke:none"
               d="m 2.53125,-6.734375 c -0.546875,0 -0.96875,0.171875 -1.328125,0.515625 -0.578125,0.5625 -0.96875,1.703125 -0.96875,2.875 0,1.078125 0.328125,2.25 0.796875,2.8125 0.375,0.4375 0.875,0.671875 1.46875,0.671875 0.5,0 0.921875,-0.171875 1.28125,-0.515625 C 4.359375,-0.921875 4.75,-2.078125 4.75,-3.296875 c 0,-2.03125 -0.90625,-3.4375 -2.21875,-3.4375 z m -0.03125,0.25 c 0.84375,0 1.28125,1.125 1.28125,3.21875 0,2.078125 -0.4375,3.140625 -1.28125,3.140625 -0.859375,0 -1.296875,-1.0625 -1.296875,-3.140625 0,-2.109375 0.4375,-3.21875 1.296875,-3.21875 z m 0,0"
               id="path4777" />
          </symbol>
          <symbol
             style="overflow:visible"
             overflow="visible"
             id="symbol4779">
            <path
               inkscape:connector-curvature="0"
               style="stroke:none"
               d="m 2.90625,-6.734375 -1.796875,0.90625 0,0.140625 C 1.21875,-5.734375 1.328125,-5.78125 1.375,-5.796875 1.5625,-5.875 1.71875,-5.90625 1.828125,-5.90625 2.03125,-5.90625 2.125,-5.765625 2.125,-5.4375 l 0,4.515625 c 0,0.328125 -0.078125,0.546875 -0.234375,0.640625 -0.15625,0.09375 -0.296875,0.125 -0.71875,0.125 l 0,0.15625 2.75,0 0,-0.15625 c -0.78125,0 -0.9375,-0.109375 -0.9375,-0.578125 l 0,-5.984375 z m 0,0"
               id="path4781" />
          </symbol>
          <symbol
             style="overflow:visible"
             overflow="visible"
             id="symbol4783">
            <path
               inkscape:connector-curvature="0"
               style="stroke:none"
               d="M 0.375,1.765625 C 1.109375,1.28125 1.421875,1.03125 1.78125,0.5625 2.5,-0.296875 2.84375,-1.296875 2.84375,-2.46875 c 0,-1.265625 -0.375,-2.234375 -1.25,-3.25 C 1.1875,-6.203125 0.921875,-6.421875 0.40625,-6.734375 l -0.109375,0.15625 c 0.796875,0.625 1.0625,0.96875 1.34375,1.71875 0.234375,0.671875 0.34375,1.4375 0.34375,2.421875 0,1.046875 -0.125,1.875 -0.40625,2.484375 C 1.3125,0.671875 1,1.03125 0.296875,1.609375 z m 0,0"
               id="path4785" />
          </symbol>
          <symbol
             style="overflow:visible"
             overflow="visible"
             id="symbol4787">
            <path
               inkscape:connector-curvature="0"
               style="stroke:none"
               d=""
               id="path4789" />
          </symbol>
          <symbol
             style="overflow:visible"
             overflow="visible"
             id="symbol4791">
            <path
               inkscape:connector-curvature="0"
               style="stroke:none"
               d="m 1.9375,-0.0625 c 0,-0.828125 -0.578125,-0.953125 -0.796875,-0.953125 -0.25,0 -0.578125,0.140625 -0.578125,0.578125 0,0.390625 0.359375,0.5 0.609375,0.5 0.078125,0 0.125,-0.015625 0.15625,-0.015625 0.03125,-0.015625 0.0625,-0.03125 0.09375,-0.03125 0.0625,0 0.140625,0.046875 0.140625,0.140625 0,0.1875 -0.171875,0.640625 -0.828125,1.0625 l 0.09375,0.1875 C 1.125,1.3125 1.9375,0.640625 1.9375,-0.0625 z m 0,0"
               id="path4793" />
          </symbol>
          <symbol
             style="overflow:visible"
             overflow="visible"
             id="symbol4795">
            <path
               inkscape:connector-curvature="0"
               style="stroke:none"
               d=""
               id="path4797" />
          </symbol>
          <symbol
             style="overflow:visible"
             overflow="visible"
             id="symbol4799">
            <path
               inkscape:connector-curvature="0"
               style="stroke:none"
               d="m 2.953125,-4.265625 -0.796875,0 0.28125,-1.03125 c 0,-0.015625 0,-0.03125 0,-0.046875 0,-0.0625 -0.03125,-0.09375 -0.078125,-0.09375 -0.0625,0 -0.09375,0 -0.140625,0.078125 C 1.828125,-4.84375 1.203125,-4.34375 0.890625,-4.25 0.640625,-4.171875 0.5625,-4.109375 0.5625,-4 c 0,0 0,0.015625 0.015625,0.046875 l 0.734375,0 -0.71875,2.75 C 0.578125,-1.109375 0.5625,-1.09375 0.53125,-1 0.453125,-0.703125 0.375,-0.34375 0.375,-0.265625 c 0,0.21875 0.203125,0.375 0.46875,0.375 0.46875,0 0.796875,-0.28125 1.421875,-1.203125 l -0.125,-0.078125 c -0.5,0.640625 -0.65625,0.796875 -0.8125,0.796875 -0.09375,0 -0.15625,-0.078125 -0.15625,-0.203125 0,-0.015625 0,-0.015625 0.015625,-0.046875 l 0.875,-3.328125 0.84375,0 z m 0,0"
               id="path4801" />
          </symbol>
          <symbol
             style="overflow:visible"
             overflow="visible"
             id="symbol4803">
            <path
               inkscape:connector-curvature="0"
               style="stroke:none"
               d=""
               id="path4805" />
          </symbol>
          <symbol
             style="overflow:visible"
             overflow="visible"
             id="symbol4807">
            <path
               inkscape:connector-curvature="0"
               style="stroke:none"
               d="m 0.359375,1.4375 0.5625,0 0,-1.796875 C 1.203125,0 1.53125,0.15625 1.984375,0.15625 c 0.890625,0 1.484375,-0.71875 1.484375,-1.828125 0,-1.171875 -0.578125,-1.90625 -1.5,-1.90625 -0.46875,0 -0.84375,0.21875 -1.09375,0.625 l 0,-0.515625 -0.515625,0 z M 1.875,-3.046875 c 0.609375,0 1.015625,0.53125 1.015625,1.359375 0,0.78125 -0.40625,1.328125 -1.015625,1.328125 -0.578125,0 -0.953125,-0.53125 -0.953125,-1.34375 0,-0.828125 0.375,-1.34375 0.953125,-1.34375 z m 0,0"
               id="path4809" />
          </symbol>
          <symbol
             style="overflow:visible"
             overflow="visible"
             id="symbol4811">
            <path
               inkscape:connector-curvature="0"
               style="stroke:none"
               d=""
               id="path4813" />
          </symbol>
          <symbol
             style="overflow:visible"
             overflow="visible"
             id="symbol4815">
            <path
               inkscape:connector-curvature="0"
               style="stroke:none"
               d="m 4.828125,-0.078125 0,-0.5 -1.890625,0 c -0.15625,0 -0.3125,-0.015625 -0.46875,-0.0625 l 0.671875,-1.671875 1.515625,0 0,-0.5 -1.3125,0 0.6875,-1.734375 0.796875,0 0,-0.5 -0.59375,0 0.4375,-1.09375 -0.546875,0 -0.4375,1.09375 -0.71875,0 c -1.390625,0 -2.453125,1.15625 -2.453125,2.484375 0,0.921875 0.515625,1.78125 1.3125,2.1875 l -0.546875,1.390625 0.53125,0 0.484375,-1.1875 c 0.203125,0.0625 0.4375,0.09375 0.671875,0.09375 z m -1.34375,-4.46875 -0.6875,1.734375 -1.765625,0 C 1.140625,-3.765625 1.9375,-4.546875 2.9375,-4.546875 z m -0.875,2.234375 -0.59375,1.46875 C 1.5,-1.140625 1.109375,-1.671875 1.03125,-2.3125 z m 0,0"
               id="path4817" />
          </symbol>
          <symbol
             style="overflow:visible"
             overflow="visible"
             id="symbol4819">
            <path
               inkscape:connector-curvature="0"
               style="stroke:none"
               d=""
               id="path4821" />
          </symbol>
          <symbol
             style="overflow:visible"
             overflow="visible"
             id="symbol4823">
            <path
               inkscape:connector-curvature="0"
               style="stroke:none"
               d="m 5.203125,-4.921875 c -0.015625,0.03125 -0.03125,0.046875 -0.03125,0.0625 0,0.03125 0.015625,0.0625 0.046875,0.078125 0.296875,0.171875 0.65625,0.34375 1.125,0.359375 -0.078125,0.65625 -0.515625,1.46875 -1.09375,2.28125 -0.34375,0.5 -0.75,1 -1.296875,1.4375 -0.421875,0.328125 -0.90625,0.5625 -1.25,0.5625 -0.78125,0 -1.125,-0.4375 -1.125,-1.0625 l 0,-0.046875 C 1.609375,-2.078125 2.171875,-3.109375 2.90625,-4.140625 3.375,-4.8125 3.875,-5.484375 4.578125,-6.0625 c 0.53125,-0.4375 1.15625,-0.78125 1.59375,-0.78125 0.640625,0 1.15625,0.140625 1.421875,0.46875 0.09375,0.109375 0.140625,0.25 0.140625,0.40625 0,0.203125 -0.078125,0.421875 -0.25,0.6875 -0.125,0.171875 -0.28125,0.34375 -0.5,0.453125 -0.078125,0.046875 -0.140625,0.09375 -0.21875,0.109375 -0.09375,-0.578125 -0.5,-0.96875 -1.25,-0.96875 -0.375,0 -0.84375,0.328125 -1.234375,0.640625 -0.546875,0.46875 -1,0.984375 -1.375,1.515625 -0.59375,0.84375 -0.84375,1.640625 -0.9375,2.359375 l 0,0.046875 c 0.015625,0.03125 0.046875,0.046875 0.078125,0.046875 0,0 0.03125,0 0.03125,-0.015625 L 2.21875,-1.140625 c 0.03125,0 0.046875,-0.03125 0.046875,-0.0625 0.09375,-0.6875 0.328125,-1.4375 0.890625,-2.234375 0.359375,-0.5 0.765625,-1.015625 1.28125,-1.453125 0.359375,-0.3125 0.75,-0.578125 1.046875,-0.578125 0.59375,0 0.859375,0.328125 0.859375,0.828125 -0.390625,-0.03125 -0.671875,-0.1875 -0.984375,-0.34375 C 5.34375,-5 5.328125,-5 5.3125,-5 5.296875,-5 5.28125,-4.984375 5.25,-4.96875 z M 7.125,-4.640625 C 7.359375,-4.78125 7.578125,-4.984375 7.71875,-5.1875 7.921875,-5.46875 8,-5.734375 8,-5.96875 8,-6.1875 7.9375,-6.375 7.8125,-6.515625 7.484375,-6.921875 6.890625,-7.0625 6.203125,-7.0625 c -0.609375,0 -1.40625,0.359375 -2.109375,0.828125 -0.84375,0.578125 -1.546875,1.28125 -2.046875,2 -0.6875,0.96875 -1.09375,1.9375 -1.09375,2.734375 0,0.09375 0,0.1875 0.015625,0.28125 0.09375,0.796875 0.6875,1.296875 1.6875,1.296875 0.46875,0 1.078125,-0.25 1.59375,-0.625 0.640625,-0.4375 1.15625,-0.953125 1.53125,-1.5 C 6.375,-2.890625 6.765625,-3.75 6.765625,-4.46875 l 0,-0.03125 c 0.125,-0.03125 0.25,-0.078125 0.359375,-0.140625 z m 0,0"
               id="path4825" />
          </symbol>
          <symbol
             style="overflow:visible"
             overflow="visible"
             id="symbol4827">
            <path
               inkscape:connector-curvature="0"
               style="stroke:none"
               d=""
               id="path4829" />
          </symbol>
          <symbol
             style="overflow:visible"
             overflow="visible"
             id="symbol4831">
            <path
               inkscape:connector-curvature="0"
               style="stroke:none"
               d="m 6.171875,-2.5625 c 0,-1.65625 -1.34375,-3 -3,-3 -1.65625,0 -3,1.34375 -3,3 0,1.65625 1.34375,3 3,3 1.65625,0 3,-1.34375 3,-3 z m -0.453125,-0.234375 -2.328125,0 0,-2.3125 C 4.609375,-5 5.609375,-4.03125 5.71875,-2.796875 z m -2.765625,-2.3125 -0.015625,2.3125 -2.3125,0 C 0.734375,-4.015625 1.71875,-5 2.953125,-5.109375 z m 2.765625,2.78125 c -0.109375,1.21875 -1.109375,2.203125 -2.328125,2.3125 l 0,-2.328125 z m -2.765625,2.3125 C 1.71875,-0.125 0.734375,-1.109375 0.625,-2.34375 l 2.328125,0 z m 0,0"
               id="path4833" />
          </symbol>
        </g>
      </defs>
      <g
         id="g4835">
        <g
           style="fill:#000000;fill-opacity:1"
           id="g4837">
          <use
             height="212.59842"
             width="389.76376"
             xlink:href="#textext-ecb618e7-1"
             x="223.43201"
             y="134.765"
             id="use4839" />
          <use
             height="212.59842"
             width="389.76376"
             xlink:href="#textext-ecb618e7-2"
             x="226.74954"
             y="134.765"
             id="use4841" />
        </g>
        <g
           style="fill:#000000;fill-opacity:1"
           id="g4843">
          <use
             height="212.59842"
             width="389.76376"
             xlink:href="#textext-ecb618e7-6"
             x="231.731"
             y="134.765"
             id="use4845" />
        </g>
        <g
           style="fill:#000000;fill-opacity:1"
           id="g4847">
          <use
             height="212.59842"
             width="389.76376"
             xlink:href="#textext-ecb618e7-3"
             x="235.882"
             y="134.765"
             id="use4849" />
          <use
             height="212.59842"
             width="389.76376"
             xlink:href="#textext-ecb618e7-4"
             x="240.8633"
             y="134.765"
             id="use4851" />
        </g>
        <g
           style="fill:#000000;fill-opacity:1"
           id="g4853">
          <use
             height="212.59842"
             width="389.76376"
             xlink:href="#textext-ecb618e7-8"
             x="244.181"
             y="134.765"
             id="use4855" />
        </g>
        <g
           style="fill:#000000;fill-opacity:1"
           id="g4857">
          <use
             height="212.59842"
             width="389.76376"
             xlink:href="#textext-ecb618e7-10"
             x="246.951"
             y="136.259"
             id="use4859" />
        </g>
        <g
           style="fill:#000000;fill-opacity:1"
           id="g4861">
          <use
             height="212.59842"
             width="389.76376"
             xlink:href="#textext-ecb618e7-12"
             x="253.89999"
             y="134.765"
             id="use4863" />
        </g>
        <g
           style="fill:#000000;fill-opacity:1"
           id="g4865">
          <use
             height="212.59842"
             width="389.76376"
             xlink:href="#textext-ecb618e7-14"
             x="262.00699"
             y="134.765"
             id="use4867" />
        </g>
        <g
           style="fill:#000000;fill-opacity:1"
           id="g4869">
          <use
             height="212.59842"
             width="389.76376"
             xlink:href="#textext-ecb618e7-10"
             x="269.358"
             y="136.259"
             id="use4871" />
        </g>
        <g
           style="fill:#000000;fill-opacity:1"
           id="g4873">
          <use
             height="212.59842"
             width="389.76376"
             xlink:href="#textext-ecb618e7-16"
             x="275.754"
             y="134.765"
             id="use4875" />
        </g>
        <g
           style="fill:#000000;fill-opacity:1"
           id="g4877">
          <use
             height="212.59842"
             width="389.76376"
             xlink:href="#textext-ecb618e7-14"
             x="284.30399"
             y="134.765"
             id="use4879" />
        </g>
        <g
           style="fill:#000000;fill-opacity:1"
           id="g4881">
          <use
             height="212.59842"
             width="389.76376"
             xlink:href="#textext-ecb618e7-10"
             x="291.655"
             y="136.259"
             id="use4883" />
        </g>
      </g>
    </g>
    <g
       ns0:text="$\\nu=M_{\\mathsf{p}}$"
       ns0:preamble="/home/sriranga/Desktop/Mangaluru-Project/src/chap1/package.tex"
       transform="matrix(1.2,0,0,1.2,-141.88278,707.74206)"
       id="g5736">
      <defs
         id="defs5738">
        <g
           id="g5740">
          <symbol
             overflow="visible"
             id="textext-64fc8456-0"
             style="overflow:visible">
            <path
               style="stroke:none"
               d=""
               id="path5743"
               inkscape:connector-curvature="0" />
          </symbol>
          <symbol
             overflow="visible"
             id="textext-64fc8456-1"
             style="overflow:visible">
            <path
               style="stroke:none"
               d="m 4.609375,-4.046875 c 0,-0.0625 -0.03125,-0.34375 -0.359375,-0.34375 -0.65625,0 -0.65625,0.390625 -0.65625,1.078125 0,0.3125 -0.234375,0.765625 -0.78125,1.421875 L 2.015625,-0.9375 c 0,-0.015625 0.125,-0.703125 0.125,-1.1875 0,-1.609375 -0.53125,-2.15625 -0.609375,-2.265625 -0.5,0.21875 -1.15625,0.28125 -1.265625,0.28125 l -0.03125,0.140625 c 0.296875,0 1.21875,0.015625 1.21875,2.28125 0,0.65625 -0.171875,1.6875 -0.171875,1.796875 l 0.296875,0 C 1.75,-0.09375 4.609375,-3.421875 4.609375,-4.046875 z m 0,0"
               id="path5746"
               inkscape:connector-curvature="0" />
          </symbol>
          <symbol
             overflow="visible"
             id="textext-64fc8456-2"
             style="overflow:visible">
            <path
               style="stroke:none"
               d=""
               id="path5749"
               inkscape:connector-curvature="0" />
          </symbol>
          <symbol
             overflow="visible"
             id="textext-64fc8456-3"
             style="overflow:visible">
            <path
               style="stroke:none"
               d="m 5.71875,-3.296875 0,-0.546875 -5.09375,0 0,0.546875 z m 0,2.03125 0,-0.5625 -5.09375,0 0,0.5625 z m 0,0"
               id="path5752"
               inkscape:connector-curvature="0" />
          </symbol>
          <symbol
             overflow="visible"
             id="textext-64fc8456-4"
             style="overflow:visible">
            <path
               style="stroke:none"
               d=""
               id="path5755"
               inkscape:connector-curvature="0" />
          </symbol>
          <symbol
             overflow="visible"
             id="textext-64fc8456-5"
             style="overflow:visible">
            <path
               style="stroke:none"
               d="m 8.703125,-6.515625 -1.671875,0 -3.34375,4.921875 -0.546875,-4.921875 -1.8125,0 0,0.171875 c 0.5,0.03125 0.75,0.140625 0.75,0.359375 0,0.078125 -0.046875,0.234375 -0.109375,0.40625 C 1.953125,-5.53125 1.921875,-5.421875 1.890625,-5.28125 1.875,-5.25 1.859375,-5.203125 1.859375,-5.15625 l -1.0625,3.703125 c -0.3125,1.03125 -0.453125,1.234375 -0.96875,1.296875 l 0,0.15625 1.96875,0 0,-0.15625 C 1.28125,-0.203125 1.09375,-0.3125 1.09375,-0.59375 1.09375,-0.703125 1.125,-0.953125 1.171875,-1.125 L 2.359375,-5.4375 2.953125,0 3.125,0 6.890625,-5.59375 5.609375,-0.90625 C 5.4375,-0.375 5.25,-0.234375 4.59375,-0.15625 l 0,0.15625 2.71875,0 0,-0.15625 c -0.671875,-0.0625 -0.765625,-0.125 -0.765625,-0.4375 0,-0.15625 0.015625,-0.296875 0.109375,-0.609375 l 1.234375,-4.40625 c 0.171875,-0.59375 0.21875,-0.65625 0.8125,-0.734375 z m 0,0"
               id="path5758"
               inkscape:connector-curvature="0" />
          </symbol>
          <symbol
             overflow="visible"
             id="textext-64fc8456-6"
             style="overflow:visible">
            <path
               style="stroke:none"
               d=""
               id="path5761"
               inkscape:connector-curvature="0" />
          </symbol>
          <symbol
             overflow="visible"
             id="textext-64fc8456-7"
             style="overflow:visible">
            <path
               style="stroke:none"
               d="m 0.359375,1.4375 0.5625,0 0,-1.796875 C 1.203125,0 1.53125,0.15625 1.984375,0.15625 c 0.890625,0 1.484375,-0.71875 1.484375,-1.828125 0,-1.171875 -0.578125,-1.90625 -1.5,-1.90625 -0.46875,0 -0.84375,0.21875 -1.09375,0.625 l 0,-0.515625 -0.515625,0 z M 1.875,-3.046875 c 0.609375,0 1.015625,0.53125 1.015625,1.359375 0,0.78125 -0.40625,1.328125 -1.015625,1.328125 -0.578125,0 -0.953125,-0.53125 -0.953125,-1.34375 0,-0.828125 0.375,-1.34375 0.953125,-1.34375 z m 0,0"
               id="path5764"
               inkscape:connector-curvature="0" />
          </symbol>
        </g>
      </defs>
      <g
         id="textext-64fc8456-8">
        <g
           style="fill:#000000;fill-opacity:1"
           id="g5767">
          <use
             xlink:href="#textext-64fc8456-1"
             x="223.43201"
             y="134.765"
             id="use5769"
             width="389.76376"
             height="212.59842" />
        </g>
        <g
           style="fill:#000000;fill-opacity:1"
           id="g5771">
          <use
             xlink:href="#textext-64fc8456-3"
             x="230.802"
             y="134.765"
             id="use5773"
             width="389.76376"
             height="212.59842" />
        </g>
        <g
           style="fill:#000000;fill-opacity:1"
           id="g5775">
          <use
             xlink:href="#textext-64fc8456-5"
             x="240.40401"
             y="134.765"
             id="use5777"
             width="389.76376"
             height="212.59842" />
        </g>
        <g
           style="fill:#000000;fill-opacity:1"
           id="g5779">
          <use
             xlink:href="#textext-64fc8456-7"
             x="248.703"
             y="136.259"
             id="use5781"
             width="389.76376"
             height="212.59842" />
        </g>
      </g>
    </g>
    <g
       id="g6401"
       transform="matrix(1.2,0,0,1.2,-40.302995,858.39023)"
       ns0:preamble="/home/sriranga/Desktop/Mangaluru-Project/src/chap1/package.tex"
       ns0:text="$\\nu\'=M_{\\mathsf{p}}$">
      <defs
         id="defs6403">
        <g
           id="g6405">
          <symbol
             id="textext-753fb86c-0"
             overflow="visible"
             style="overflow:visible">
            <path
               id="path6408"
               d=""
               style="stroke:none"
               inkscape:connector-curvature="0" />
          </symbol>
          <symbol
             id="textext-753fb86c-1"
             overflow="visible"
             style="overflow:visible">
            <path
               id="path6411"
               d="m 4.609375,-4.046875 c 0,-0.0625 -0.03125,-0.34375 -0.359375,-0.34375 -0.65625,0 -0.65625,0.390625 -0.65625,1.078125 0,0.3125 -0.234375,0.765625 -0.78125,1.421875 L 2.015625,-0.9375 c 0,-0.015625 0.125,-0.703125 0.125,-1.1875 0,-1.609375 -0.53125,-2.15625 -0.609375,-2.265625 -0.5,0.21875 -1.15625,0.28125 -1.265625,0.28125 l -0.03125,0.140625 c 0.296875,0 1.21875,0.015625 1.21875,2.28125 0,0.65625 -0.171875,1.6875 -0.171875,1.796875 l 0.296875,0 C 1.75,-0.09375 4.609375,-3.421875 4.609375,-4.046875 z m 0,0"
               style="stroke:none"
               inkscape:connector-curvature="0" />
          </symbol>
          <symbol
             id="textext-753fb86c-2"
             overflow="visible"
             style="overflow:visible">
            <path
               id="path6414"
               d=""
               style="stroke:none"
               inkscape:connector-curvature="0" />
          </symbol>
          <symbol
             id="textext-753fb86c-3"
             overflow="visible"
             style="overflow:visible">
            <path
               id="path6417"
               d="m 2.0625,-2.859375 c 0,-0.25 -0.25,-0.421875 -0.46875,-0.421875 -0.25,0 -0.375,0.25 -0.453125,0.46875 l -0.71875,2.109375 c -0.03125,0.0625 -0.078125,0.1875 -0.078125,0.25 0,0.0625 0.046875,0.140625 0.109375,0.140625 0.109375,0 0.234375,-0.140625 0.28125,-0.21875 L 1.875,-2.34375 C 1.96875,-2.484375 2.0625,-2.6875 2.0625,-2.859375 z m 0,0"
               style="stroke:none"
               inkscape:connector-curvature="0" />
          </symbol>
          <symbol
             id="textext-753fb86c-4"
             overflow="visible"
             style="overflow:visible">
            <path
               id="path6420"
               d=""
               style="stroke:none"
               inkscape:connector-curvature="0" />
          </symbol>
          <symbol
             id="textext-753fb86c-5"
             overflow="visible"
             style="overflow:visible">
            <path
               id="path6423"
               d="m 5.71875,-3.296875 0,-0.546875 -5.09375,0 0,0.546875 z m 0,2.03125 0,-0.5625 -5.09375,0 0,0.5625 z m 0,0"
               style="stroke:none"
               inkscape:connector-curvature="0" />
          </symbol>
          <symbol
             id="textext-753fb86c-6"
             overflow="visible"
             style="overflow:visible">
            <path
               id="path6426"
               d=""
               style="stroke:none"
               inkscape:connector-curvature="0" />
          </symbol>
          <symbol
             id="textext-753fb86c-7"
             overflow="visible"
             style="overflow:visible">
            <path
               id="path6429"
               d="m 8.703125,-6.515625 -1.671875,0 -3.34375,4.921875 -0.546875,-4.921875 -1.8125,0 0,0.171875 c 0.5,0.03125 0.75,0.140625 0.75,0.359375 0,0.078125 -0.046875,0.234375 -0.109375,0.40625 C 1.953125,-5.53125 1.921875,-5.421875 1.890625,-5.28125 1.875,-5.25 1.859375,-5.203125 1.859375,-5.15625 l -1.0625,3.703125 c -0.3125,1.03125 -0.453125,1.234375 -0.96875,1.296875 l 0,0.15625 1.96875,0 0,-0.15625 C 1.28125,-0.203125 1.09375,-0.3125 1.09375,-0.59375 1.09375,-0.703125 1.125,-0.953125 1.171875,-1.125 L 2.359375,-5.4375 2.953125,0 3.125,0 6.890625,-5.59375 5.609375,-0.90625 C 5.4375,-0.375 5.25,-0.234375 4.59375,-0.15625 l 0,0.15625 2.71875,0 0,-0.15625 c -0.671875,-0.0625 -0.765625,-0.125 -0.765625,-0.4375 0,-0.15625 0.015625,-0.296875 0.109375,-0.609375 l 1.234375,-4.40625 c 0.171875,-0.59375 0.21875,-0.65625 0.8125,-0.734375 z m 0,0"
               style="stroke:none"
               inkscape:connector-curvature="0" />
          </symbol>
          <symbol
             id="textext-753fb86c-8"
             overflow="visible"
             style="overflow:visible">
            <path
               id="path6432"
               d=""
               style="stroke:none"
               inkscape:connector-curvature="0" />
          </symbol>
          <symbol
             id="textext-753fb86c-9"
             overflow="visible"
             style="overflow:visible">
            <path
               id="path6435"
               d="m 0.359375,1.4375 0.5625,0 0,-1.796875 C 1.203125,0 1.53125,0.15625 1.984375,0.15625 c 0.890625,0 1.484375,-0.71875 1.484375,-1.828125 0,-1.171875 -0.578125,-1.90625 -1.5,-1.90625 -0.46875,0 -0.84375,0.21875 -1.09375,0.625 l 0,-0.515625 -0.515625,0 z M 1.875,-3.046875 c 0.609375,0 1.015625,0.53125 1.015625,1.359375 0,0.78125 -0.40625,1.328125 -1.015625,1.328125 -0.578125,0 -0.953125,-0.53125 -0.953125,-1.34375 0,-0.828125 0.375,-1.34375 0.953125,-1.34375 z m 0,0"
               style="stroke:none"
               inkscape:connector-curvature="0" />
          </symbol>
        </g>
      </defs>
      <g
         id="textext-753fb86c-10">
        <g
           id="g6438"
           style="fill:#000000;fill-opacity:1">
          <use
             id="use6440"
             y="134.765"
             x="223.43201"
             xlink:href="#textext-753fb86c-1"
             width="389.76376"
             height="212.59842" />
        </g>
        <g
           id="g6442"
           style="fill:#000000;fill-opacity:1">
          <use
             id="use6444"
             y="131.14799"
             x="228.035"
             xlink:href="#textext-753fb86c-3"
             width="389.76376"
             height="212.59842" />
        </g>
        <g
           id="g6446"
           style="fill:#000000;fill-opacity:1">
          <use
             id="use6448"
             y="134.765"
             x="233.72"
             xlink:href="#textext-753fb86c-5"
             width="389.76376"
             height="212.59842" />
        </g>
        <g
           id="g6450"
           style="fill:#000000;fill-opacity:1">
          <use
             id="use6452"
             y="134.765"
             x="243.32201"
             xlink:href="#textext-753fb86c-7"
             width="389.76376"
             height="212.59842" />
        </g>
        <g
           id="g6454"
           style="fill:#000000;fill-opacity:1">
          <use
             id="use6456"
             y="136.259"
             x="251.621"
             xlink:href="#textext-753fb86c-9"
             width="389.76376"
             height="212.59842" />
        </g>
      </g>
    </g>
  </g>
</svg>
