<?xml version="1.0" encoding="UTF-8" standalone="no"?>
<!-- Created with Inkscape (http://www.inkscape.org/) -->

<svg
   xmlns:ns0="http://www.iki.fi/pav/software/textext/"
   xmlns:dc="http://purl.org/dc/elements/1.1/"
   xmlns:cc="http://creativecommons.org/ns#"
   xmlns:rdf="http://www.w3.org/1999/02/22-rdf-syntax-ns#"
   xmlns:svg="http://www.w3.org/2000/svg"
   xmlns="http://www.w3.org/2000/svg"
   xmlns:xlink="http://www.w3.org/1999/xlink"
   xmlns:sodipodi="http://sodipodi.sourceforge.net/DTD/sodipodi-0.dtd"
   xmlns:inkscape="http://www.inkscape.org/namespaces/inkscape"
   width="354.33069"
   height="212.59842"
   id="svg2"
   version="1.1"
   inkscape:version="0.48.4 r9939"
   sodipodi:docname="New document 1">
  <sodipodi:namedview
     id="base"
     pagecolor="#ffffff"
     bordercolor="#666666"
     borderopacity="1.0"
     inkscape:pageopacity="0.0"
     inkscape:pageshadow="2"
     inkscape:zoom="2.8654041"
     inkscape:cx="174.27985"
     inkscape:cy="71.094025"
     inkscape:document-units="px"
     inkscape:current-layer="layer1"
     showgrid="false"
     units="cm"
     inkscape:window-width="1024"
     inkscape:window-height="744"
     inkscape:window-x="0"
     inkscape:window-y="24"
     inkscape:window-maximized="1" />
  <defs
     id="defs4">
    <marker
       inkscape:stockid="Arrow1Mend"
       orient="auto"
       refY="0.0"
       refX="0.0"
       id="Arrow1Mend"
       style="overflow:visible;">
      <path
         id="path3768"
         d="M 0.0,0.0 L 5.0,-5.0 L -12.5,0.0 L 5.0,5.0 L 0.0,0.0 z "
         style="fill-rule:evenodd;stroke:#000000;stroke-width:1.0pt;"
         transform="scale(0.4) rotate(180) translate(10,0)" />
    </marker>
  </defs>
  <metadata
     id="metadata7">
    <rdf:RDF>
      <cc:Work
         rdf:about="">
        <dc:format>image/svg+xml</dc:format>
        <dc:type
           rdf:resource="http://purl.org/dc/dcmitype/StillImage" />
        <dc:title></dc:title>
      </cc:Work>
    </rdf:RDF>
  </metadata>
  <g
     inkscape:label="Layer 1"
     inkscape:groupmode="layer"
     id="layer1"
     transform="translate(0,-839.76245)">
    <path
       style="fill:none;stroke:#000000;stroke-width:1.375;stroke-linecap:butt;stroke-linejoin:miter;stroke-miterlimit:4;stroke-opacity:1;stroke-dasharray:none;marker-end:url(#Arrow1Mend)"
       d="m 78.286822,936.12394 0,30.69269 198.494978,0 0,-30.25423"
       id="path2985"
       inkscape:connector-curvature="0" />
    <path
       style="fill:none;stroke:#000000;stroke-width:1.375;stroke-linecap:butt;stroke-linejoin:miter;stroke-miterlimit:4;stroke-opacity:1;stroke-dasharray:none;marker-end:url(#Arrow1Mend)"
       d="m 92.782504,928.18177 48.992396,0"
       id="path4199"
       inkscape:connector-curvature="0" />
    <g
       transform="matrix(1.2,0,0,1.2,-192.68773,770.9072)"
       ns0:text="$C^{n}$"
       ns0:preamble="/home/sriranga/Desktop/Mangaluru-Project/src/chap1/package.tex"
       id="g4395">
      <defs
         id="defs4397">
        <g
           id="g4399">
          <symbol
             style="overflow:visible"
             overflow="visible"
             id="textext-27b641bd-0">
            <path
               inkscape:connector-curvature="0"
               style="stroke:none"
               d=""
               id="path4402" />
          </symbol>
          <symbol
             style="overflow:visible"
             overflow="visible"
             id="textext-27b641bd-1">
            <path
               inkscape:connector-curvature="0"
               style="stroke:none"
               d="M 6.5,-4.640625 6.875,-6.625 l -0.21875,0 c -0.078125,0.171875 -0.171875,0.21875 -0.375,0.21875 -0.078125,0 -0.203125,-0.015625 -0.40625,-0.0625 -0.453125,-0.109375 -0.84375,-0.171875 -1.171875,-0.171875 -2.125,0 -4.046875,2 -4.046875,4.21875 0,1.53125 1.078125,2.59375 2.609375,2.59375 1.015625,0 1.8125,-0.4375 2.71875,-1.484375 L 5.8125,-1.453125 c -0.890625,0.890625 -1.46875,1.1875 -2.296875,1.1875 -1.109375,0 -1.734375,-0.765625 -1.734375,-2.046875 0,-1.1875 0.46875,-2.390625 1.25,-3.203125 C 3.515625,-6 4.140625,-6.28125 4.796875,-6.28125 c 0.921875,0 1.421875,0.546875 1.515625,1.609375 z m 0,0"
               id="path4405" />
          </symbol>
          <symbol
             style="overflow:visible"
             overflow="visible"
             id="textext-27b641bd-2">
            <path
               inkscape:connector-curvature="0"
               style="stroke:none"
               d=""
               id="path4408" />
          </symbol>
          <symbol
             style="overflow:visible"
             overflow="visible"
             id="textext-27b641bd-3">
            <path
               inkscape:connector-curvature="0"
               style="stroke:none"
               d="M 3.203125,-0.8125 3.0625,-0.640625 c -0.203125,0.265625 -0.328125,0.375 -0.421875,0.375 -0.0625,0 -0.125,-0.0625 -0.125,-0.109375 0,-0.046875 0,-0.046875 0.109375,-0.4375 L 3.015625,-2.25 c 0.03125,-0.140625 0.0625,-0.296875 0.0625,-0.390625 0,-0.265625 -0.1875,-0.4375 -0.453125,-0.4375 -0.453125,0 -0.890625,0.421875 -1.609375,1.53125 L 1.484375,-3.0625 1.46875,-3.078125 C 1.09375,-3 0.9375,-2.96875 0.328125,-2.859375 l 0,0.109375 c 0.359375,0.015625 0.453125,0.046875 0.453125,0.1875 0,0.046875 0,0.09375 -0.015625,0.125 L 0.09375,0 0.625,0 C 0.953125,-1.09375 1.015625,-1.25 1.3125,-1.734375 1.734375,-2.375 2.09375,-2.71875 2.34375,-2.71875 c 0.109375,0 0.171875,0.078125 0.171875,0.203125 0,0.078125 -0.046875,0.3125 -0.09375,0.53125 l -0.3125,1.140625 C 2.015625,-0.484375 2,-0.390625 2,-0.3125 c 0,0.265625 0.09375,0.375 0.328125,0.375 0.3125,0 0.5,-0.140625 0.96875,-0.78125 z m 0,0"
               id="path4411" />
          </symbol>
        </g>
      </defs>
      <g
         id="textext-27b641bd-4">
        <g
           style="fill:#000000;fill-opacity:1"
           id="g4414">
          <use
             height="212.59842"
             width="354.33069"
             xlink:href="#textext-27b641bd-1"
             x="223.183"
             y="134.765"
             id="use4416" />
        </g>
        <g
           style="fill:#000000;fill-opacity:1"
           id="g4418">
          <use
             height="212.59842"
             width="354.33069"
             xlink:href="#textext-27b641bd-3"
             x="230.29601"
             y="131.14799"
             id="use4420" />
        </g>
      </g>
    </g>
    <path
       inkscape:connector-curvature="0"
       id="path4446"
       d="m 211.64038,928.18177 48.9924,0"
       style="fill:none;stroke:#000000;stroke-width:1.375;stroke-linecap:butt;stroke-linejoin:miter;stroke-miterlimit:4;stroke-opacity:1;stroke-dasharray:none;marker-end:url(#Arrow1Mend)" />
    <g
       id="g4474"
       ns0:preamble="/home/sriranga/Desktop/Mangaluru-Project/src/chap1/package.tex"
       ns0:text="$\\pi$"
       transform="matrix(1.2,0,0,1.2,-157.74389,760.88485)">
      <defs
         id="defs4476">
        <g
           id="g4478">
          <symbol
             id="textext-34f934dc-0"
             overflow="visible"
             style="overflow:visible">
            <path
               id="path4481"
               d=""
               style="stroke:none"
               inkscape:connector-curvature="0" />
          </symbol>
          <symbol
             id="textext-34f934dc-1"
             overflow="visible"
             style="overflow:visible">
            <path
               id="path4484"
               d="m 5.1875,-4.390625 -3.4375,0 c -0.921875,0 -1.46875,1.09375 -1.546875,1.28125 l 0.109375,0 c 0.046875,-0.078125 0.421875,-0.5625 0.9375,-0.5625 l 0.515625,0 L 1.0625,-1.5625 C 0.84375,-0.90625 0.03125,-0.875 0.03125,-0.203125 l 0,0.046875 c 0,0.171875 0.125,0.265625 0.375,0.265625 0.375,0 0.734375,-0.234375 1.21875,-1.65625 l 0.734375,-2.125 1,0 L 2.875,-1.53125 c -0.078125,0.296875 -0.109375,0.546875 -0.109375,0.75 l 0,0.078125 c 0,0.4375 0.296875,0.8125 0.78125,0.8125 0.234375,0 0.5,-0.0625 0.5,-0.40625 l 0,-0.03125 c 0,-0.59375 -0.59375,-0.515625 -0.59375,-1.0625 0,-0.078125 0,-0.171875 0.03125,-0.28125 l 0.5,-2 1.046875,0 z m 0,0"
               style="stroke:none"
               inkscape:connector-curvature="0" />
          </symbol>
        </g>
      </defs>
      <g
         id="textext-34f934dc-2">
        <g
           id="g4487"
           style="fill:#000000;fill-opacity:1">
          <use
             id="use4489"
             y="134.765"
             x="223.43201"
             xlink:href="#textext-34f934dc-1"
             width="354.33069"
             height="212.59842" />
        </g>
      </g>
    </g>
    <g
       ns0:text="Symm$^{n}(C)$"
       ns0:preamble="/home/sriranga/Desktop/Mangaluru-Project/src/chap1/package.tex"
       transform="matrix(1.2,0,0,1.2,-116.40678,769.52193)"
       id="g4581">
      <defs
         id="defs4583">
        <g
           id="g4585">
          <symbol
             style="overflow:visible"
             overflow="visible"
             id="textext-2e058954-0">
            <path
               inkscape:connector-curvature="0"
               style="stroke:none"
               d=""
               id="path4588" />
          </symbol>
          <symbol
             style="overflow:visible"
             overflow="visible"
             id="textext-2e058954-1">
            <path
               inkscape:connector-curvature="0"
               style="stroke:none"
               d="m 4.453125,-6.734375 -0.203125,0 c -0.046875,0.21875 -0.15625,0.328125 -0.328125,0.328125 -0.09375,0 -0.265625,-0.03125 -0.4375,-0.109375 C 3.125,-6.65625 2.75,-6.734375 2.4375,-6.734375 c -0.4375,0 -0.875,0.171875 -1.203125,0.453125 -0.34375,0.3125 -0.53125,0.734375 -0.53125,1.25 0,0.796875 0.4375,1.359375 1.5625,1.9375 0.71875,0.375 1.234375,0.796875 1.484375,1.171875 0.09375,0.125 0.140625,0.34375 0.140625,0.578125 0,0.671875 -0.5,1.125 -1.234375,1.125 -0.875,0 -1.515625,-0.546875 -2.015625,-1.765625 l -0.21875,0 0.296875,2.109375 0.21875,0 c 0.015625,-0.1875 0.125,-0.328125 0.28125,-0.328125 0.109375,0 0.28125,0.046875 0.46875,0.109375 0.375,0.15625 0.78125,0.234375 1.171875,0.234375 1.140625,0 2.03125,-0.78125 2.03125,-1.8125 C 4.890625,-2.5 4.34375,-3.140625 3.03125,-3.84375 1.984375,-4.421875 1.5625,-4.859375 1.5625,-5.40625 c 0,-0.546875 0.421875,-0.921875 1.046875,-0.921875 0.4375,0 0.859375,0.1875 1.203125,0.546875 0.3125,0.3125 0.453125,0.578125 0.609375,1.171875 l 0.25,0 z m 0,0"
               id="path4591" />
          </symbol>
          <symbol
             style="overflow:visible"
             overflow="visible"
             id="textext-2e058954-2">
            <path
               inkscape:connector-curvature="0"
               style="stroke:none"
               d="m 4.734375,-4.484375 -1.34375,0 0,0.140625 c 0.3125,0 0.484375,0.09375 0.484375,0.25 0,0.046875 -0.015625,0.109375 -0.046875,0.171875 l -0.96875,2.75 L 1.71875,-3.6875 c -0.0625,-0.140625 -0.109375,-0.265625 -0.109375,-0.375 0,-0.1875 0.15625,-0.25 0.578125,-0.28125 l 0,-0.140625 -2.046875,0 0,0.140625 c 0.265625,0.03125 0.421875,0.140625 0.5,0.3125 L 1.78125,-1.578125 1.8125,-1.5 1.96875,-1.203125 c 0.28125,0.5 0.4375,0.859375 0.4375,1.015625 0,0.140625 -0.234375,0.78125 -0.40625,1.078125 -0.140625,0.25 -0.359375,0.4375 -0.5,0.4375 -0.046875,0 -0.140625,-0.015625 -0.25,-0.0625 C 1.0625,1.203125 0.890625,1.15625 0.734375,1.15625 c -0.234375,0 -0.4375,0.203125 -0.4375,0.4375 0,0.328125 0.328125,0.578125 0.734375,0.578125 0.671875,0 1.15625,-0.5625 1.6875,-2 L 4.25,-3.890625 C 4.390625,-4.203125 4.5,-4.3125 4.734375,-4.34375 z m 0,0"
               id="path4594" />
          </symbol>
          <symbol
             style="overflow:visible"
             overflow="visible"
             id="textext-2e058954-3">
            <path
               inkscape:connector-curvature="0"
               style="stroke:none"
               d="M 0.1875,-3.96875 C 0.3125,-4 0.40625,-4 0.515625,-4 c 0.25,0 0.34375,0.15625 0.34375,0.625 l 0,2.53125 c 0,0.53125 -0.140625,0.6875 -0.703125,0.6875 l 0,0.15625 2.21875,0 0,-0.15625 C 1.84375,-0.171875 1.6875,-0.28125 1.6875,-0.671875 l 0,-2.8125 c 0,-0.015625 0.09375,-0.109375 0.15625,-0.1875 0.25,-0.21875 0.671875,-0.390625 1.03125,-0.390625 0.4375,0 0.65625,0.34375 0.65625,1.046875 l 0,2.15625 c 0,0.5625 -0.109375,0.671875 -0.6875,0.703125 l 0,0.15625 2.234375,0 0,-0.15625 c -0.5625,0 -0.71875,-0.171875 -0.71875,-0.796875 l 0,-2.5 C 4.671875,-3.890625 5,-4.0625 5.453125,-4.0625 c 0.5625,0 0.75,0.265625 0.75,1.09375 l 0,2.09375 c 0,0.578125 -0.078125,0.65625 -0.65625,0.71875 l 0,0.15625 2.171875,0 0,-0.15625 -0.25,-0.015625 C 7.171875,-0.1875 7.03125,-0.375 7.03125,-0.75 l 0,-2.0625 c 0,-1.171875 -0.375,-1.765625 -1.15625,-1.765625 -0.578125,0 -1.078125,0.25 -1.625,0.828125 -0.171875,-0.5625 -0.515625,-0.828125 -1.046875,-0.828125 -0.4375,0 -0.71875,0.125 -1.546875,0.765625 l 0,-0.75 -0.078125,-0.015625 c -0.5,0.1875 -0.84375,0.296875 -1.390625,0.4375 z m 0,0"
               id="path4597" />
          </symbol>
          <symbol
             style="overflow:visible"
             overflow="visible"
             id="textext-2e058954-4">
            <path
               inkscape:connector-curvature="0"
               style="stroke:none"
               d="M 2.9375,-6.734375 C 2.203125,-6.265625 1.90625,-6 1.53125,-5.546875 c -0.703125,0.875 -1.046875,1.875 -1.046875,3.03125 0,1.265625 0.359375,2.25 1.234375,3.265625 0.421875,0.46875 0.671875,0.703125 1.1875,1.015625 l 0.125,-0.15625 C 2.234375,0.984375 1.953125,0.625 1.6875,-0.125 1.453125,-0.78125 1.328125,-1.546875 1.328125,-2.546875 1.328125,-3.59375 1.46875,-4.40625 1.734375,-5.03125 2.015625,-5.640625 2.3125,-6 3.03125,-6.578125 z m 0,0"
               id="path4600" />
          </symbol>
          <symbol
             style="overflow:visible"
             overflow="visible"
             id="textext-2e058954-5">
            <path
               inkscape:connector-curvature="0"
               style="stroke:none"
               d="M 0.375,1.765625 C 1.109375,1.28125 1.421875,1.03125 1.78125,0.5625 2.5,-0.296875 2.84375,-1.296875 2.84375,-2.46875 c 0,-1.265625 -0.375,-2.234375 -1.25,-3.25 C 1.1875,-6.203125 0.921875,-6.421875 0.40625,-6.734375 l -0.109375,0.15625 c 0.796875,0.625 1.0625,0.96875 1.34375,1.71875 0.234375,0.671875 0.34375,1.4375 0.34375,2.421875 0,1.046875 -0.125,1.875 -0.40625,2.484375 C 1.3125,0.671875 1,1.03125 0.296875,1.609375 z m 0,0"
               id="path4603" />
          </symbol>
          <symbol
             style="overflow:visible"
             overflow="visible"
             id="textext-2e058954-6">
            <path
               inkscape:connector-curvature="0"
               style="stroke:none"
               d=""
               id="path4606" />
          </symbol>
          <symbol
             style="overflow:visible"
             overflow="visible"
             id="textext-2e058954-7">
            <path
               inkscape:connector-curvature="0"
               style="stroke:none"
               d="M 3.203125,-0.8125 3.0625,-0.640625 c -0.203125,0.265625 -0.328125,0.375 -0.421875,0.375 -0.0625,0 -0.125,-0.0625 -0.125,-0.109375 0,-0.046875 0,-0.046875 0.109375,-0.4375 L 3.015625,-2.25 c 0.03125,-0.140625 0.0625,-0.296875 0.0625,-0.390625 0,-0.265625 -0.1875,-0.4375 -0.453125,-0.4375 -0.453125,0 -0.890625,0.421875 -1.609375,1.53125 L 1.484375,-3.0625 1.46875,-3.078125 C 1.09375,-3 0.9375,-2.96875 0.328125,-2.859375 l 0,0.109375 c 0.359375,0.015625 0.453125,0.046875 0.453125,0.1875 0,0.046875 0,0.09375 -0.015625,0.125 L 0.09375,0 0.625,0 C 0.953125,-1.09375 1.015625,-1.25 1.3125,-1.734375 1.734375,-2.375 2.09375,-2.71875 2.34375,-2.71875 c 0.109375,0 0.171875,0.078125 0.171875,0.203125 0,0.078125 -0.046875,0.3125 -0.09375,0.53125 l -0.3125,1.140625 C 2.015625,-0.484375 2,-0.390625 2,-0.3125 c 0,0.265625 0.09375,0.375 0.328125,0.375 0.3125,0 0.5,-0.140625 0.96875,-0.78125 z m 0,0"
               id="path4609" />
          </symbol>
          <symbol
             style="overflow:visible"
             overflow="visible"
             id="textext-2e058954-8">
            <path
               inkscape:connector-curvature="0"
               style="stroke:none"
               d=""
               id="path4612" />
          </symbol>
          <symbol
             style="overflow:visible"
             overflow="visible"
             id="textext-2e058954-9">
            <path
               inkscape:connector-curvature="0"
               style="stroke:none"
               d="M 6.5,-4.640625 6.875,-6.625 l -0.21875,0 c -0.078125,0.171875 -0.171875,0.21875 -0.375,0.21875 -0.078125,0 -0.203125,-0.015625 -0.40625,-0.0625 -0.453125,-0.109375 -0.84375,-0.171875 -1.171875,-0.171875 -2.125,0 -4.046875,2 -4.046875,4.21875 0,1.53125 1.078125,2.59375 2.609375,2.59375 1.015625,0 1.8125,-0.4375 2.71875,-1.484375 L 5.8125,-1.453125 c -0.890625,0.890625 -1.46875,1.1875 -2.296875,1.1875 -1.109375,0 -1.734375,-0.765625 -1.734375,-2.046875 0,-1.1875 0.46875,-2.390625 1.25,-3.203125 C 3.515625,-6 4.140625,-6.28125 4.796875,-6.28125 c 0.921875,0 1.421875,0.546875 1.515625,1.609375 z m 0,0"
               id="path4615" />
          </symbol>
        </g>
      </defs>
      <g
         id="textext-2e058954-10">
        <g
           style="fill:#000000;fill-opacity:1"
           id="g4618">
          <use
             height="212.59842"
             width="354.33069"
             xlink:href="#textext-2e058954-1"
             x="223.43201"
             y="134.765"
             id="use4620" />
          <use
             height="212.59842"
             width="354.33069"
             xlink:href="#textext-2e058954-2"
             x="228.97121"
             y="134.765"
             id="use4622" />
          <use
             height="212.59842"
             width="354.33069"
             xlink:href="#textext-2e058954-3"
             x="233.9525"
             y="134.765"
             id="use4624" />
          <use
             height="212.59842"
             width="354.33069"
             xlink:href="#textext-2e058954-3"
             x="241.70341"
             y="134.765"
             id="use4626" />
        </g>
        <g
           style="fill:#000000;fill-opacity:1"
           id="g4628">
          <use
             height="212.59842"
             width="354.33069"
             xlink:href="#textext-2e058954-7"
             x="249.455"
             y="131.14799"
             id="use4630" />
        </g>
        <g
           style="fill:#000000;fill-opacity:1"
           id="g4632">
          <use
             height="212.59842"
             width="354.33069"
             xlink:href="#textext-2e058954-4"
             x="253.44"
             y="134.765"
             id="use4634" />
        </g>
        <g
           style="fill:#000000;fill-opacity:1"
           id="g4636">
          <use
             height="212.59842"
             width="354.33069"
             xlink:href="#textext-2e058954-9"
             x="256.508"
             y="134.765"
             id="use4638" />
        </g>
        <g
           style="fill:#000000;fill-opacity:1"
           id="g4640">
          <use
             height="212.59842"
             width="354.33069"
             xlink:href="#textext-2e058954-5"
             x="263.621"
             y="134.765"
             id="use4642" />
        </g>
      </g>
    </g>
    <g
       id="g4808"
       transform="matrix(1.2,0,0,1.2,-37.74389,760.88485)"
       ns0:preamble="/home/sriranga/Desktop/Mangaluru-Project/src/chap1/package.tex"
       ns0:text="$\\psi$">
      <defs
         id="defs4810">
        <g
           id="g4812">
          <symbol
             id="textext-8bae58f0-0"
             overflow="visible">
            <path
               id="path4815"
               d=""
               style="stroke:none;" />
          </symbol>
          <symbol
             id="textext-8bae58f0-1"
             overflow="visible">
            <path
               id="path4818"
               d="M 6.125 -4.28125 C 4.5625 -4.25 4.296875 -2.6875 3.984375 -1.5625 C 3.71875 -0.578125 2.96875 -0.296875 2.40625 -0.296875 L 4.25 -6.21875 L 3.421875 -6.09375 L 1.984375 -0.296875 C 1.53125 -0.296875 1.0625 -0.453125 1.0625 -1.203125 C 1.0625 -1.796875 1.5 -2.5 1.5 -3.375 C 1.5 -3.984375 1.171875 -4.28125 0.46875 -4.28125 L 0.4375 -4.15625 C 0.515625 -4.15625 0.75 -4.109375 0.75 -3.546875 C 0.75 -3.09375 0.28125 -1.90625 0.28125 -1.390625 C 0.28125 -0.171875 1.5 0.109375 1.875 0.109375 L 1.40625 2.0625 L 1.640625 2.0625 L 2.296875 0.09375 C 3.203125 0.09375 4.46875 -0.296875 4.875 -1.78125 L 5.234375 -3.078125 C 5.34375 -3.484375 5.734375 -4.125 6.09375 -4.140625 Z M 6.125 -4.28125 "
               style="stroke:none;" />
          </symbol>
        </g>
      </defs>
      <g
         id="textext-8bae58f0-2">
        <g
           id="g4821"
           style="fill:rgb(0%,0%,0%);fill-opacity:1;">
          <use
             id="use4823"
             y="134.765"
             x="223.432"
             xlink:href="#textext-8bae58f0-1" />
        </g>
      </g>
    </g>
    <g
       ns0:text="$J$."
       ns0:preamble="/home/sriranga/Desktop/Mangaluru-Project/src/chap1/package.tex"
       transform="matrix(1.2,0,0,1.2,1.8329942,768.8669)"
       id="g5021">
      <defs
         id="defs5023">
        <g
           id="g5025">
          <symbol
             style="overflow:visible"
             overflow="visible"
             id="textext-3da35ac1-0">
            <path
               inkscape:connector-curvature="0"
               style="stroke:none"
               d=""
               id="path5028" />
          </symbol>
          <symbol
             style="overflow:visible"
             overflow="visible"
             id="textext-3da35ac1-1">
            <path
               inkscape:connector-curvature="0"
               style="stroke:none"
               d="m 4.890625,-6.515625 -2.53125,0 0,0.171875 c 0.625,0.046875 0.765625,0.140625 0.765625,0.40625 0,0.140625 -0.03125,0.359375 -0.109375,0.640625 l -1.3125,4.625 C 1.59375,-0.28125 1.453125,-0.125 1.21875,-0.125 0.984375,-0.125 0.875,-0.265625 0.875,-0.53125 c 0,-0.046875 0,-0.09375 0,-0.140625 l 0,-0.09375 c 0,-0.25 -0.234375,-0.46875 -0.46875,-0.46875 -0.28125,0 -0.46875,0.21875 -0.46875,0.53125 0,0.53125 0.46875,0.875 1.171875,0.875 0.5,0 0.953125,-0.1875 1.265625,-0.5625 0.265625,-0.3125 0.46875,-0.765625 0.671875,-1.515625 l 1.03125,-3.703125 c 0.171875,-0.59375 0.25,-0.65625 0.8125,-0.734375 z m 0,0"
               id="path5031" />
          </symbol>
          <symbol
             style="overflow:visible"
             overflow="visible"
             id="textext-3da35ac1-2">
            <path
               inkscape:connector-curvature="0"
               style="stroke:none"
               d=""
               id="path5034" />
          </symbol>
          <symbol
             style="overflow:visible"
             overflow="visible"
             id="textext-3da35ac1-3">
            <path
               inkscape:connector-curvature="0"
               style="stroke:none"
               d="m 1.25,-1 c -0.296875,0 -0.546875,0.265625 -0.546875,0.578125 0,0.28125 0.25,0.53125 0.53125,0.53125 0.3125,0 0.5625,-0.25 0.5625,-0.53125 C 1.796875,-0.734375 1.546875,-1 1.25,-1 z m 0,0"
               id="path5037" />
          </symbol>
        </g>
      </defs>
      <g
         id="textext-3da35ac1-4">
        <g
           style="fill:#000000;fill-opacity:1"
           id="g5040">
          <use
             height="212.59842"
             width="354.33069"
             xlink:href="#textext-3da35ac1-1"
             x="223.92999"
             y="134.765"
             id="use5042" />
        </g>
        <g
           style="fill:#000000;fill-opacity:1"
           id="g5044">
          <use
             height="212.59842"
             width="354.33069"
             xlink:href="#textext-3da35ac1-3"
             x="228.82201"
             y="134.765"
             id="use5046" />
        </g>
      </g>
    </g>
    <g
       id="g5264"
       transform="matrix(1.2,0,0,1.2,-94.289056,819.13162)"
       ns0:preamble="/home/sriranga/Desktop/Mangaluru-Project/src/chap1/package.tex"
       ns0:text="$\\varphi^{(n)}_{x}$">
      <defs
         id="defs5266">
        <g
           id="g5268">
          <symbol
             id="textext-5c61bb4d-0"
             overflow="visible"
             style="overflow:visible">
            <path
               id="path5271"
               d=""
               style="stroke:none"
               inkscape:connector-curvature="0" />
          </symbol>
          <symbol
             id="textext-5c61bb4d-1"
             overflow="visible"
             style="overflow:visible">
            <path
               id="path5274"
               d="m 5.421875,-3.046875 c 0,-0.609375 -0.140625,-1.34375 -1.125,-1.34375 -1,0 -1.359375,0.765625 -2.15625,3.671875 -0.46875,0 -1.265625,-0.125 -1.265625,-1.109375 0,-1.625 0.875,-2.28125 0.875,-2.40625 0,-0.015625 -0.015625,-0.03125 -0.0625,-0.03125 -0.109375,0 -1.46875,1.015625 -1.46875,2.78125 0,1.0625 1.0625,1.578125 1.6875,1.578125 C 1.5625,1.421875 1.21875,1.9375 1.125,2.0625 l 0.796875,0 0.5,-1.953125 c 1.8125,0 3,-1.53125 3,-3.15625 z m -0.28125,0.25 c 0,0.71875 -0.5625,2.078125 -2.484375,2.078125 l 0.1875,-0.84375 c 0.46875,-2.09375 1.25,-2.203125 1.53125,-2.203125 0.5625,0 0.765625,0.34375 0.765625,0.96875 z m 0,0"
               style="stroke:none"
               inkscape:connector-curvature="0" />
          </symbol>
          <symbol
             id="textext-5c61bb4d-2"
             overflow="visible"
             style="overflow:visible">
            <path
               id="path5277"
               d=""
               style="stroke:none"
               inkscape:connector-curvature="0" />
          </symbol>
          <symbol
             id="textext-5c61bb4d-3"
             overflow="visible"
             style="overflow:visible">
            <path
               id="path5280"
               d="M 2.0625,-4.703125 C 1.546875,-4.375 1.328125,-4.1875 1.078125,-3.875 c -0.5,0.609375 -0.75,1.296875 -0.75,2.125 0,0.875 0.265625,1.5625 0.875,2.265625 0.28125,0.34375 0.46875,0.5 0.828125,0.71875 L 2.125,1.125 C 1.5625,0.6875 1.359375,0.4375 1.171875,-0.078125 c -0.15625,-0.46875 -0.234375,-1 -0.234375,-1.703125 0,-0.734375 0.09375,-1.296875 0.28125,-1.734375 C 1.40625,-3.9375 1.609375,-4.1875 2.125,-4.59375 z m 0,0"
               style="stroke:none"
               inkscape:connector-curvature="0" />
          </symbol>
          <symbol
             id="textext-5c61bb4d-4"
             overflow="visible"
             style="overflow:visible">
            <path
               id="path5283"
               d="M 0.265625,1.234375 C 0.78125,0.90625 0.984375,0.71875 1.25,0.390625 1.734375,-0.203125 1.984375,-0.90625 1.984375,-1.71875 c 0,-0.890625 -0.25,-1.578125 -0.875,-2.28125 C 0.828125,-4.328125 0.640625,-4.484375 0.28125,-4.703125 L 0.203125,-4.59375 c 0.5625,0.4375 0.75,0.671875 0.9375,1.203125 0.171875,0.46875 0.25,1 0.25,1.6875 0,0.734375 -0.09375,1.3125 -0.28125,1.734375 -0.203125,0.4375 -0.40625,0.6875 -0.90625,1.09375 z m 0,0"
               style="stroke:none"
               inkscape:connector-curvature="0" />
          </symbol>
          <symbol
             id="textext-5c61bb4d-5"
             overflow="visible"
             style="overflow:visible">
            <path
               id="path5286"
               d=""
               style="stroke:none"
               inkscape:connector-curvature="0" />
          </symbol>
          <symbol
             id="textext-5c61bb4d-6"
             overflow="visible"
             style="overflow:visible">
            <path
               id="path5289"
               d="M 3.203125,-0.8125 3.0625,-0.640625 c -0.203125,0.265625 -0.328125,0.375 -0.421875,0.375 -0.0625,0 -0.125,-0.0625 -0.125,-0.109375 0,-0.046875 0,-0.046875 0.109375,-0.4375 L 3.015625,-2.25 c 0.03125,-0.140625 0.0625,-0.296875 0.0625,-0.390625 0,-0.265625 -0.1875,-0.4375 -0.453125,-0.4375 -0.453125,0 -0.890625,0.421875 -1.609375,1.53125 L 1.484375,-3.0625 1.46875,-3.078125 C 1.09375,-3 0.9375,-2.96875 0.328125,-2.859375 l 0,0.109375 c 0.359375,0.015625 0.453125,0.046875 0.453125,0.1875 0,0.046875 0,0.09375 -0.015625,0.125 L 0.09375,0 0.625,0 C 0.953125,-1.09375 1.015625,-1.25 1.3125,-1.734375 1.734375,-2.375 2.09375,-2.71875 2.34375,-2.71875 c 0.109375,0 0.171875,0.078125 0.171875,0.203125 0,0.078125 -0.046875,0.3125 -0.09375,0.53125 l -0.3125,1.140625 C 2.015625,-0.484375 2,-0.390625 2,-0.3125 c 0,0.265625 0.09375,0.375 0.328125,0.375 0.3125,0 0.5,-0.140625 0.96875,-0.78125 z m 0,0"
               style="stroke:none"
               inkscape:connector-curvature="0" />
          </symbol>
          <symbol
             id="textext-5c61bb4d-7"
             overflow="visible"
             style="overflow:visible">
            <path
               id="path5292"
               d="M 2.796875,-0.78125 C 2.75,-0.703125 2.703125,-0.671875 2.640625,-0.578125 2.484375,-0.375 2.40625,-0.3125 2.328125,-0.3125 2.21875,-0.3125 2.15625,-0.390625 2.109375,-0.59375 2.09375,-0.640625 2.09375,-0.6875 2.078125,-0.703125 c -0.171875,-0.71875 -0.25,-1.03125 -0.25,-1.140625 0.3125,-0.53125 0.5625,-0.84375 0.6875,-0.84375 0.046875,0 0.09375,0.03125 0.171875,0.0625 0.078125,0.046875 0.125,0.0625 0.1875,0.0625 0.140625,0 0.234375,-0.109375 0.234375,-0.25 0,-0.15625 -0.109375,-0.265625 -0.28125,-0.265625 -0.3125,0 -0.5625,0.25 -1.046875,1 l -0.078125,-0.375 c -0.09375,-0.484375 -0.171875,-0.625 -0.359375,-0.625 -0.15625,0 -0.390625,0.0625 -0.828125,0.203125 l -0.0625,0.03125 0.015625,0.109375 c 0.265625,-0.0625 0.328125,-0.078125 0.390625,-0.078125 0.171875,0 0.21875,0.0625 0.3125,0.484375 L 1.375,-1.484375 0.8125,-0.65625 c -0.140625,0.203125 -0.28125,0.328125 -0.359375,0.328125 -0.046875,0 -0.109375,-0.015625 -0.1875,-0.0625 -0.078125,-0.046875 -0.15625,-0.0625 -0.21875,-0.0625 -0.125,0 -0.234375,0.09375 -0.234375,0.234375 0,0.1875 0.140625,0.296875 0.34375,0.296875 0.21875,0 0.296875,-0.0625 0.65625,-0.484375 C 1,-0.640625 1.140625,-0.828125 1.4375,-1.21875 l 0.203125,0.828125 c 0.09375,0.359375 0.1875,0.46875 0.40625,0.46875 C 2.3125,0.078125 2.5,-0.09375 2.90625,-0.71875 z m 0,0"
               style="stroke:none"
               inkscape:connector-curvature="0" />
          </symbol>
        </g>
      </defs>
      <g
         id="textext-5c61bb4d-8">
        <g
           id="g5295"
           style="fill:#000000;fill-opacity:1">
          <use
             id="use5297"
             y="134.765"
             x="223.43201"
             xlink:href="#textext-5c61bb4d-1"
             width="354.33069"
             height="212.59842" />
        </g>
        <g
           id="g5299"
           style="fill:#000000;fill-opacity:1">
          <use
             id="use5301"
             y="130.01199"
             x="229.101"
             xlink:href="#textext-5c61bb4d-3"
             width="354.33069"
             height="212.59842" />
        </g>
        <g
           id="g5303"
           style="fill:#000000;fill-opacity:1">
          <use
             id="use5305"
             y="130.01199"
             x="231.423"
             xlink:href="#textext-5c61bb4d-6"
             width="354.33069"
             height="212.59842" />
        </g>
        <g
           id="g5307"
           style="fill:#000000;fill-opacity:1">
          <use
             id="use5309"
             y="130.01199"
             x="234.91"
             xlink:href="#textext-5c61bb4d-4"
             width="354.33069"
             height="212.59842" />
        </g>
        <g
           id="g5311"
           style="fill:#000000;fill-opacity:1">
          <use
             id="use5313"
             y="136.564"
             x="229.45"
             xlink:href="#textext-5c61bb4d-7"
             width="354.33069"
             height="212.59842" />
        </g>
      </g>
    </g>
  </g>
</svg>
