<?xml version="1.0" encoding="UTF-8" standalone="no"?>
<!-- Created with Inkscape (http://www.inkscape.org/) -->

<svg
   xmlns:ns0="http://www.iki.fi/pav/software/textext/"
   xmlns:dc="http://purl.org/dc/elements/1.1/"
   xmlns:cc="http://creativecommons.org/ns#"
   xmlns:rdf="http://www.w3.org/1999/02/22-rdf-syntax-ns#"
   xmlns:svg="http://www.w3.org/2000/svg"
   xmlns="http://www.w3.org/2000/svg"
   xmlns:xlink="http://www.w3.org/1999/xlink"
   xmlns:sodipodi="http://sodipodi.sourceforge.net/DTD/sodipodi-0.dtd"
   xmlns:inkscape="http://www.inkscape.org/namespaces/inkscape"
   width="354.33069"
   height="212.59842"
   id="svg2"
   version="1.1"
   inkscape:version="0.48.4 r9939"
   sodipodi:docname="fig1.svg">
  <sodipodi:namedview
     id="base"
     pagecolor="#ffffff"
     bordercolor="#666666"
     borderopacity="1.0"
     inkscape:pageopacity="0.0"
     inkscape:pageshadow="2"
     inkscape:zoom="2.8784537"
     inkscape:cx="184.52852"
     inkscape:cy="122.28074"
     inkscape:document-units="px"
     inkscape:current-layer="layer1"
     showgrid="false"
     units="cm"
     inkscape:window-width="1024"
     inkscape:window-height="744"
     inkscape:window-x="0"
     inkscape:window-y="24"
     inkscape:window-maximized="1" />
  <defs
     id="defs4">
    <marker
       inkscape:stockid="Arrow1Mend"
       orient="auto"
       refY="0.0"
       refX="0.0"
       id="Arrow1Mend"
       style="overflow:visible;">
      <path
         id="path3768"
         d="M 0.0,0.0 L 5.0,-5.0 L -12.5,0.0 L 5.0,5.0 L 0.0,0.0 z "
         style="fill-rule:evenodd;stroke:#000000;stroke-width:1.0pt;"
         transform="scale(0.4) rotate(180) translate(10,0)" />
    </marker>
  </defs>
  <metadata
     id="metadata7">
    <rdf:RDF>
      <cc:Work
         rdf:about="">
        <dc:format>image/svg+xml</dc:format>
        <dc:type
           rdf:resource="http://purl.org/dc/dcmitype/StillImage" />
        <dc:title></dc:title>
      </cc:Work>
    </rdf:RDF>
  </metadata>
  <g
     inkscape:label="Layer 1"
     inkscape:groupmode="layer"
     id="layer1"
     transform="translate(0,-839.76245)">
    <path
       style="fill:none;stroke:#000000;stroke-width:1.375;stroke-linecap:butt;stroke-linejoin:miter;stroke-miterlimit:4;stroke-opacity:1;stroke-dasharray:none;marker-end:url(#Arrow1Mend)"
       d="m 50.002554,938.13548 0,24.25598 256.524806,0 0,-23.78951"
       id="path2985"
       inkscape:connector-curvature="0" />
    <path
       style="fill:none;stroke:#000000;stroke-width:1.375;stroke-linecap:butt;stroke-linejoin:miter;stroke-miterlimit:4;stroke-opacity:1;stroke-dasharray:none;marker-end:url(#Arrow1Mend)"
       d="m 63.757643,932.30849 52.624797,0"
       id="path4199"
       inkscape:connector-curvature="0"
       sodipodi:nodetypes="cc" />
    <path
       sodipodi:nodetypes="cc"
       inkscape:connector-curvature="0"
       id="path4565"
       d="m 261.94774,932.30849 33.16991,0"
       style="fill:none;stroke:#000000;stroke-width:1.375;stroke-linecap:butt;stroke-linejoin:miter;stroke-miterlimit:4;stroke-opacity:1;stroke-dasharray:none;marker-end:url(#Arrow1Mend)" />
    <path
       sodipodi:nodetypes="cc"
       inkscape:connector-curvature="0"
       id="path3107"
       d="m 64.602168,932.30849 41.160322,0"
       style="fill:none;stroke:#000000;stroke-width:1.375;stroke-linecap:butt;stroke-linejoin:miter;stroke-miterlimit:4;stroke-opacity:1;stroke-dasharray:none;marker-end:url(#Arrow1Mend)" />
    <g
       ns0:text="$F_{q}^{\\times}$"
       ns0:preamble="/home/sriranga/Desktop/Mangaluru-Project/src/chap1/package.tex"
       transform="matrix(1.2,0,0,1.2,-221.10628,772.63621)"
       id="g3224">
      <defs
         id="defs3226">
        <g
           id="g3228">
          <symbol
             overflow="visible"
             id="textext-c94df026-0">
            <path
               style="stroke:none;"
               d=""
               id="path3231" />
          </symbol>
          <symbol
             overflow="visible"
             id="textext-c94df026-1">
            <path
               style="stroke:none;"
               d="M 6.4375 -6.515625 L 1.46875 -6.515625 L 1.46875 -6.34375 C 2.109375 -6.296875 2.234375 -6.234375 2.234375 -5.9375 C 2.234375 -5.796875 2.1875 -5.546875 2.125 -5.296875 L 0.890625 -0.890625 C 0.71875 -0.296875 0.640625 -0.234375 0.078125 -0.15625 L 0.078125 0 L 2.59375 0 L 2.59375 -0.15625 C 2.015625 -0.1875 1.828125 -0.296875 1.828125 -0.59375 C 1.828125 -0.671875 1.859375 -0.828125 1.921875 -1.046875 L 2.546875 -3.265625 C 2.90625 -3.25 3.125 -3.234375 3.34375 -3.234375 C 3.734375 -3.234375 3.8125 -3.234375 3.890625 -3.1875 C 4.046875 -3.109375 4.109375 -2.984375 4.109375 -2.78125 C 4.109375 -2.625 4.09375 -2.5 4.03125 -2.1875 L 4.203125 -2.140625 L 4.96875 -4.46875 L 4.78125 -4.53125 C 4.34375 -3.625 4.3125 -3.625 2.625 -3.59375 L 3.296875 -5.921875 C 3.34375 -6.125 3.484375 -6.1875 3.890625 -6.1875 C 5.578125 -6.1875 5.9375 -6.046875 5.9375 -5.4375 C 5.9375 -5.375 5.9375 -5.328125 5.921875 -5.1875 C 5.90625 -5.140625 5.90625 -5.125 5.90625 -5 L 6.109375 -4.984375 Z M 6.4375 -6.515625 "
               id="path3234" />
          </symbol>
          <symbol
             overflow="visible"
             id="textext-c94df026-2">
            <path
               style="stroke:none;"
               d=""
               id="path3237" />
          </symbol>
          <symbol
             overflow="visible"
             id="textext-c94df026-3">
            <path
               style="stroke:none;"
               d="M 4.046875 -0.25 L 2.484375 -1.796875 L 4.046875 -3.34375 L 3.765625 -3.625 L 2.21875 -2.0625 L 0.671875 -3.625 L 0.390625 -3.34375 L 1.9375 -1.796875 L 0.390625 -0.25 L 0.671875 0.03125 L 2.21875 -1.515625 L 3.765625 0.03125 Z M 4.046875 -0.25 "
               id="path3240" />
          </symbol>
          <symbol
             overflow="visible"
             id="textext-c94df026-4">
            <path
               style="stroke:none;"
               d=""
               id="path3243" />
          </symbol>
          <symbol
             overflow="visible"
             id="textext-c94df026-5">
            <path
               style="stroke:none;"
               d="M 2.71875 1.328125 L 2.609375 1.328125 C 2.34375 1.328125 2.203125 1.265625 2.203125 1.125 C 2.203125 1.109375 2.21875 1.078125 2.21875 1.046875 L 3.359375 -2.96875 L 2.859375 -2.96875 L 2.75 -2.640625 C 2.640625 -2.96875 2.5 -3.078125 2.21875 -3.078125 C 1.296875 -3.078125 0.171875 -1.796875 0.171875 -0.734375 C 0.171875 -0.234375 0.453125 0.078125 0.890625 0.078125 C 1.375 0.078125 1.703125 -0.1875 2.328125 -1.0625 L 1.703125 0.96875 C 1.609375 1.25 1.5 1.3125 1.046875 1.34375 L 1.046875 1.453125 L 2.71875 1.453125 Z M 2.234375 -2.921875 C 2.46875 -2.921875 2.640625 -2.734375 2.640625 -2.5 C 2.640625 -1.921875 2.171875 -0.921875 1.703125 -0.53125 C 1.515625 -0.375 1.328125 -0.296875 1.15625 -0.296875 C 0.921875 -0.296875 0.78125 -0.5 0.78125 -0.828125 C 0.78125 -1.34375 1.140625 -2.125 1.59375 -2.578125 C 1.8125 -2.796875 2.03125 -2.921875 2.234375 -2.921875 Z M 2.234375 -2.921875 "
               id="path3246" />
          </symbol>
        </g>
      </defs>
      <g
         id="textext-c94df026-6">
        <g
           style="fill:rgb(0%,0%,0%);fill-opacity:1;"
           id="g3249">
          <use
             xlink:href="#textext-c94df026-1"
             x="223.681"
             y="134.765"
             id="use3251" />
        </g>
        <g
           style="fill:rgb(0%,0%,0%);fill-opacity:1;"
           id="g3253">
          <use
             xlink:href="#textext-c94df026-3"
             x="230.356"
             y="131.148"
             id="use3255" />
        </g>
        <g
           style="fill:rgb(0%,0%,0%);fill-opacity:1;"
           id="g3257">
          <use
             xlink:href="#textext-c94df026-5"
             x="230.017"
             y="137.226"
             id="use3259" />
        </g>
      </g>
    </g>
    <g
       id="g3505"
       transform="matrix(1.2,0,0,1.2,-147.74945,772.99874)"
       ns0:preamble="/home/sriranga/Desktop/Mangaluru-Project/src/chap1/package.tex"
       ns0:text="$\\mu_{N}(F_{q})=\\mu_{N}(F_{N(P)})\\simeq \\mu_{N}(E)$">
      <defs
         id="defs3507">
        <g
           id="g3509">
          <symbol
             id="textext-694f5f7e-0"
             overflow="visible"
             style="overflow:visible">
            <path
               id="path3512"
               d=""
               style="stroke:none"
               inkscape:connector-curvature="0" />
          </symbol>
          <symbol
             id="textext-694f5f7e-1"
             overflow="visible"
             style="overflow:visible">
            <path
               id="path3515"
               d="m 4.9375,-0.765625 c 0,-0.0625 -0.015625,-0.09375 -0.046875,-0.09375 C 4.75,-0.859375 4.75,-0.265625 4.21875,-0.265625 4.0625,-0.265625 4,-0.40625 4,-0.59375 c 0,-0.25 0.109375,-0.625 0.203125,-1.03125 L 4.90625,-4.390625 4.03125,-4.25 l -0.796875,3 C 3.21875,-1.203125 2.625,-0.375 2.03125,-0.375 c -0.578125,0 -0.75,-0.515625 -0.75,-0.90625 0,-0.109375 0.015625,-0.21875 0.03125,-0.3125 l 0.71875,-2.796875 -0.75,0.125 L 0.203125,0 c -0.21875,0.8125 -0.609375,1.890625 -0.6875,2.0625 l 0.875,0 0.640625,-2.484375 c 0,0 0.046875,0.53125 0.765625,0.53125 0.796875,0 1.28125,-0.78125 1.390625,-0.90625 -0.015625,0.078125 -0.03125,0.15625 -0.03125,0.21875 0,0.65625 0.609375,0.6875 0.78125,0.6875 l 0.03125,0 c 0.6875,0 0.96875,-0.640625 0.96875,-0.875 z m 0,0"
               style="stroke:none"
               inkscape:connector-curvature="0" />
          </symbol>
          <symbol
             id="textext-694f5f7e-2"
             overflow="visible"
             style="overflow:visible">
            <path
               id="path3518"
               d=""
               style="stroke:none"
               inkscape:connector-curvature="0" />
          </symbol>
          <symbol
             id="textext-694f5f7e-3"
             overflow="visible"
             style="overflow:visible">
            <path
               id="path3521"
               d="m 5.0625,-4.546875 -1.390625,0 0,0.109375 c 0.40625,0.03125 0.5,0.109375 0.5,0.359375 0,0.078125 -0.015625,0.15625 -0.0625,0.296875 C 4.09375,-3.75 4.09375,-3.734375 4.09375,-3.71875 l -0.71875,2.640625 -1.4375,-3.46875 -1.125,0 0,0.109375 c 0.328125,0.03125 0.46875,0.109375 0.59375,0.390625 l -0.828125,2.90625 c -0.265625,0.890625 -0.3125,0.96875 -0.71875,1.03125 l 0,0.109375 1.375,0 0,-0.109375 C 0.890625,-0.140625 0.75,-0.21875 0.75,-0.40625 0.75,-0.5 0.78125,-0.640625 0.8125,-0.78125 l 0.796875,-2.953125 1.609375,3.84375 0.125,0 1,-3.515625 c 0.25,-0.890625 0.28125,-0.9375 0.71875,-1.03125 z m 0,0"
               style="stroke:none"
               inkscape:connector-curvature="0" />
          </symbol>
          <symbol
             id="textext-694f5f7e-4"
             overflow="visible"
             style="overflow:visible">
            <path
               id="path3524"
               d="m 2.71875,1.328125 -0.109375,0 c -0.265625,0 -0.40625,-0.0625 -0.40625,-0.203125 0,-0.015625 0.015625,-0.046875 0.015625,-0.078125 l 1.140625,-4.015625 -0.5,0 L 2.75,-2.640625 c -0.109375,-0.328125 -0.25,-0.4375 -0.53125,-0.4375 -0.921875,0 -2.046875,1.28125 -2.046875,2.34375 0,0.5 0.28125,0.8125 0.71875,0.8125 0.484375,0 0.8125,-0.265625 1.4375,-1.140625 l -0.625,2.03125 C 1.609375,1.25 1.5,1.3125 1.046875,1.34375 l 0,0.109375 1.671875,0 z m -0.484375,-4.25 c 0.234375,0 0.40625,0.1875 0.40625,0.421875 0,0.578125 -0.46875,1.578125 -0.9375,1.96875 -0.1875,0.15625 -0.375,0.234375 -0.546875,0.234375 -0.234375,0 -0.375,-0.203125 -0.375,-0.53125 0,-0.515625 0.359375,-1.296875 0.8125,-1.75 0.21875,-0.21875 0.4375,-0.34375 0.640625,-0.34375 z m 0,0"
               style="stroke:none"
               inkscape:connector-curvature="0" />
          </symbol>
          <symbol
             id="textext-694f5f7e-5"
             overflow="visible"
             style="overflow:visible">
            <path
               id="path3527"
               d="m 1.015625,-4.4375 c 0.40625,0.046875 0.5,0.109375 0.5,0.296875 0,0.09375 -0.03125,0.234375 -0.125,0.546875 L 0.578125,-0.625 C 0.453125,-0.203125 0.390625,-0.171875 0,-0.109375 L 0,0 l 1.703125,0 0,-0.109375 c -0.4375,-0.0625 -0.46875,-0.078125 -0.46875,-0.328125 0,-0.078125 0.015625,-0.140625 0.078125,-0.40625 l 0.375,-1.34375 c 0.171875,0.046875 0.359375,0.0625 0.640625,0.0625 0.578125,0 1.03125,-0.125 1.34375,-0.328125 0.34375,-0.265625 0.546875,-0.640625 0.546875,-1.0625 0,-0.671875 -0.53125,-1.03125 -1.46875,-1.03125 l -1.734375,0 z M 2.25,-4.140625 c 0.03125,-0.15625 0.125,-0.203125 0.3125,-0.203125 0.28125,0 0.53125,0.078125 0.671875,0.171875 0.1875,0.125 0.265625,0.328125 0.265625,0.65625 0,0.453125 -0.15625,0.78125 -0.46875,0.953125 -0.21875,0.125 -0.484375,0.171875 -0.921875,0.171875 -0.109375,0 -0.171875,0 -0.359375,-0.03125 z m 0,0"
               style="stroke:none"
               inkscape:connector-curvature="0" />
          </symbol>
          <symbol
             id="textext-694f5f7e-6"
             overflow="visible"
             style="overflow:visible">
            <path
               id="path3530"
               d=""
               style="stroke:none"
               inkscape:connector-curvature="0" />
          </symbol>
          <symbol
             id="textext-694f5f7e-7"
             overflow="visible"
             style="overflow:visible">
            <path
               id="path3533"
               d="M 2.9375,-6.734375 C 2.203125,-6.265625 1.90625,-6 1.53125,-5.546875 c -0.703125,0.875 -1.046875,1.875 -1.046875,3.03125 0,1.265625 0.359375,2.25 1.234375,3.265625 0.421875,0.46875 0.671875,0.703125 1.1875,1.015625 l 0.125,-0.15625 C 2.234375,0.984375 1.953125,0.625 1.6875,-0.125 1.453125,-0.78125 1.328125,-1.546875 1.328125,-2.546875 1.328125,-3.59375 1.46875,-4.40625 1.734375,-5.03125 2.015625,-5.640625 2.3125,-6 3.03125,-6.578125 z m 0,0"
               style="stroke:none"
               inkscape:connector-curvature="0" />
          </symbol>
          <symbol
             id="textext-694f5f7e-8"
             overflow="visible"
             style="overflow:visible">
            <path
               id="path3536"
               d="M 0.375,1.765625 C 1.109375,1.28125 1.421875,1.03125 1.78125,0.5625 2.5,-0.296875 2.84375,-1.296875 2.84375,-2.46875 c 0,-1.265625 -0.375,-2.234375 -1.25,-3.25 C 1.1875,-6.203125 0.921875,-6.421875 0.40625,-6.734375 l -0.109375,0.15625 c 0.796875,0.625 1.0625,0.96875 1.34375,1.71875 0.234375,0.671875 0.34375,1.4375 0.34375,2.421875 0,1.046875 -0.125,1.875 -0.40625,2.484375 C 1.3125,0.671875 1,1.03125 0.296875,1.609375 z m 0,0"
               style="stroke:none"
               inkscape:connector-curvature="0" />
          </symbol>
          <symbol
             id="textext-694f5f7e-9"
             overflow="visible"
             style="overflow:visible">
            <path
               id="path3539"
               d=""
               style="stroke:none"
               inkscape:connector-curvature="0" />
          </symbol>
          <symbol
             id="textext-694f5f7e-10"
             overflow="visible"
             style="overflow:visible">
            <path
               id="path3542"
               d="m 6.4375,-6.515625 -4.96875,0 0,0.171875 c 0.640625,0.046875 0.765625,0.109375 0.765625,0.40625 0,0.140625 -0.046875,0.390625 -0.109375,0.640625 l -1.234375,4.40625 c -0.171875,0.59375 -0.25,0.65625 -0.8125,0.734375 l 0,0.15625 2.515625,0 0,-0.15625 C 2.015625,-0.1875 1.828125,-0.296875 1.828125,-0.59375 c 0,-0.078125 0.03125,-0.234375 0.09375,-0.453125 l 0.625,-2.21875 C 2.90625,-3.25 3.125,-3.234375 3.34375,-3.234375 c 0.390625,0 0.46875,0 0.546875,0.046875 0.15625,0.078125 0.21875,0.203125 0.21875,0.40625 0,0.15625 -0.015625,0.28125 -0.078125,0.59375 L 4.203125,-2.140625 4.96875,-4.46875 4.78125,-4.53125 C 4.34375,-3.625 4.3125,-3.625 2.625,-3.59375 L 3.296875,-5.921875 C 3.34375,-6.125 3.484375,-6.1875 3.890625,-6.1875 c 1.6875,0 2.046875,0.140625 2.046875,0.75 0,0.0625 0,0.109375 -0.015625,0.25 C 5.90625,-5.140625 5.90625,-5.125 5.90625,-5 l 0.203125,0.015625 z m 0,0"
               style="stroke:none"
               inkscape:connector-curvature="0" />
          </symbol>
          <symbol
             id="textext-694f5f7e-11"
             overflow="visible"
             style="overflow:visible">
            <path
               id="path3545"
               d="m 6.3125,-6.515625 -4.953125,0 0,0.171875 c 0.625,0.046875 0.78125,0.140625 0.78125,0.40625 0,0.109375 -0.0625,0.453125 -0.109375,0.640625 l -1.234375,4.40625 c -0.171875,0.5625 -0.25,0.625 -0.8125,0.734375 l 0,0.15625 5.0625,0 L 5.65625,-1.609375 5.5,-1.6875 C 5.03125,-1.0625 4.78125,-0.796875 4.34375,-0.59375 3.984375,-0.421875 3.296875,-0.328125 2.546875,-0.328125 2,-0.328125 1.75,-0.421875 1.75,-0.671875 1.75,-0.78125 1.859375,-1.25 2.109375,-2.125 2.25,-2.5625 2.328125,-2.890625 2.4375,-3.265625 2.78125,-3.25 3.09375,-3.234375 3.203125,-3.234375 3.59375,-3.25 3.875,-3.1875 3.984375,-3.09375 4.03125,-3.046875 4.0625,-2.953125 4.0625,-2.78125 c 0,0.171875 -0.03125,0.296875 -0.078125,0.515625 L 4.1875,-2.21875 4.859375,-4.53125 4.6875,-4.5625 c -0.375,0.84375 -0.46875,0.90625 -1.375,0.9375 -0.125,0 -0.4375,0.015625 -0.796875,0.03125 L 3.1875,-5.921875 C 3.234375,-6.140625 3.34375,-6.1875 3.90625,-6.1875 c 1.5625,0 1.921875,0.140625 1.921875,0.734375 0,0.125 -0.015625,0.28125 -0.03125,0.453125 l 0.21875,0.015625 z m 0,0"
               style="stroke:none"
               inkscape:connector-curvature="0" />
          </symbol>
          <symbol
             id="textext-694f5f7e-12"
             overflow="visible"
             style="overflow:visible">
            <path
               id="path3548"
               d=""
               style="stroke:none"
               inkscape:connector-curvature="0" />
          </symbol>
          <symbol
             id="textext-694f5f7e-13"
             overflow="visible"
             style="overflow:visible">
            <path
               id="path3551"
               d="m 5.71875,-3.296875 0,-0.546875 -5.09375,0 0,0.546875 z m 0,2.03125 0,-0.5625 -5.09375,0 0,0.5625 z m 0,0"
               style="stroke:none"
               inkscape:connector-curvature="0" />
          </symbol>
          <symbol
             id="textext-694f5f7e-14"
             overflow="visible"
             style="overflow:visible">
            <path
               id="path3554"
               d=""
               style="stroke:none"
               inkscape:connector-curvature="0" />
          </symbol>
          <symbol
             id="textext-694f5f7e-15"
             overflow="visible"
             style="overflow:visible">
            <path
               id="path3557"
               d="M 2.0625,-4.703125 C 1.546875,-4.375 1.328125,-4.1875 1.078125,-3.875 c -0.5,0.609375 -0.75,1.296875 -0.75,2.125 0,0.875 0.265625,1.5625 0.875,2.265625 0.28125,0.34375 0.46875,0.5 0.828125,0.71875 L 2.125,1.125 C 1.5625,0.6875 1.359375,0.4375 1.171875,-0.078125 c -0.15625,-0.46875 -0.234375,-1 -0.234375,-1.703125 0,-0.734375 0.09375,-1.296875 0.28125,-1.734375 C 1.40625,-3.9375 1.609375,-4.1875 2.125,-4.59375 z m 0,0"
               style="stroke:none"
               inkscape:connector-curvature="0" />
          </symbol>
          <symbol
             id="textext-694f5f7e-16"
             overflow="visible"
             style="overflow:visible">
            <path
               id="path3560"
               d="M 0.265625,1.234375 C 0.78125,0.90625 0.984375,0.71875 1.25,0.390625 1.734375,-0.203125 1.984375,-0.90625 1.984375,-1.71875 c 0,-0.890625 -0.25,-1.578125 -0.875,-2.28125 C 0.828125,-4.328125 0.640625,-4.484375 0.28125,-4.703125 L 0.203125,-4.59375 c 0.5625,0.4375 0.75,0.671875 0.9375,1.203125 0.171875,0.46875 0.25,1 0.25,1.6875 0,0.734375 -0.09375,1.3125 -0.28125,1.734375 -0.203125,0.4375 -0.40625,0.6875 -0.90625,1.09375 z m 0,0"
               style="stroke:none"
               inkscape:connector-curvature="0" />
          </symbol>
          <symbol
             id="textext-694f5f7e-17"
             overflow="visible"
             style="overflow:visible">
            <path
               id="path3563"
               d=""
               style="stroke:none"
               inkscape:connector-curvature="0" />
          </symbol>
          <symbol
             id="textext-694f5f7e-18"
             overflow="visible"
             style="overflow:visible">
            <path
               id="path3566"
               d="M 5.71875,-4.28125 5.515625,-4.359375 c -0.15625,0.5625 -0.4375,1.078125 -1.09375,1.078125 -0.734375,0 -1.40625,-1.09375 -2.265625,-1.09375 -0.875,0 -1.3125,0.53125 -1.53125,1.328125 l 0.1875,0.078125 c 0.21875,-0.515625 0.5625,-0.890625 1.15625,-0.890625 0.734375,0 1.328125,1.09375 2.265625,1.09375 0.953125,0 1.34375,-0.640625 1.484375,-1.515625 z m -0.015625,3.015625 0,-0.5625 -5.078125,0 0,0.5625 z m 0,0"
               style="stroke:none"
               inkscape:connector-curvature="0" />
          </symbol>
        </g>
      </defs>
      <g
         id="textext-694f5f7e-19">
        <g
           id="g3569"
           style="fill:#000000;fill-opacity:1">
          <use
             id="use3571"
             y="134.765"
             x="223.43201"
             xlink:href="#textext-694f5f7e-1"
             width="354.33069"
             height="212.59842" />
        </g>
        <g
           id="g3573"
           style="fill:#000000;fill-opacity:1">
          <use
             id="use3575"
             y="136.259"
             x="228.936"
             xlink:href="#textext-694f5f7e-3"
             width="354.33069"
             height="212.59842" />
        </g>
        <g
           id="g3577"
           style="fill:#000000;fill-opacity:1">
          <use
             id="use3579"
             y="134.765"
             x="234.505"
             xlink:href="#textext-694f5f7e-7"
             width="354.33069"
             height="212.59842" />
        </g>
        <g
           id="g3581"
           style="fill:#000000;fill-opacity:1">
          <use
             id="use3583"
             y="134.765"
             x="238.071"
             xlink:href="#textext-694f5f7e-10"
             width="354.33069"
             height="212.59842" />
        </g>
        <g
           id="g3585"
           style="fill:#000000;fill-opacity:1">
          <use
             id="use3587"
             y="136.259"
             x="244.407"
             xlink:href="#textext-694f5f7e-4"
             width="354.33069"
             height="212.59842" />
        </g>
        <g
           id="g3589"
           style="fill:#000000;fill-opacity:1">
          <use
             id="use3591"
             y="134.765"
             x="248.392"
             xlink:href="#textext-694f5f7e-8"
             width="354.33069"
             height="212.59842" />
        </g>
        <g
           id="g3593"
           style="fill:#000000;fill-opacity:1">
          <use
             id="use3595"
             y="134.765"
             x="254.47701"
             xlink:href="#textext-694f5f7e-13"
             width="354.33069"
             height="212.59842" />
        </g>
        <g
           id="g3597"
           style="fill:#000000;fill-opacity:1">
          <use
             id="use3599"
             y="134.765"
             x="263.58099"
             xlink:href="#textext-694f5f7e-1"
             width="354.33069"
             height="212.59842" />
        </g>
        <g
           id="g3601"
           style="fill:#000000;fill-opacity:1">
          <use
             id="use3603"
             y="136.259"
             x="269.08499"
             xlink:href="#textext-694f5f7e-3"
             width="354.33069"
             height="212.59842" />
        </g>
        <g
           id="g3605"
           style="fill:#000000;fill-opacity:1">
          <use
             id="use3607"
             y="134.765"
             x="274.65302"
             xlink:href="#textext-694f5f7e-7"
             width="354.33069"
             height="212.59842" />
        </g>
        <g
           id="g3609"
           style="fill:#000000;fill-opacity:1">
          <use
             id="use3611"
             y="134.765"
             x="278.22"
             xlink:href="#textext-694f5f7e-10"
             width="354.33069"
             height="212.59842" />
        </g>
        <g
           id="g3613"
           style="fill:#000000;fill-opacity:1">
          <use
             id="use3615"
             y="136.259"
             x="284.73099"
             xlink:href="#textext-694f5f7e-3"
             width="354.33069"
             height="212.59842" />
        </g>
        <g
           id="g3617"
           style="fill:#000000;fill-opacity:1">
          <use
             id="use3619"
             y="136.259"
             x="289.80099"
             xlink:href="#textext-694f5f7e-15"
             width="354.33069"
             height="212.59842" />
        </g>
        <g
           id="g3621"
           style="fill:#000000;fill-opacity:1">
          <use
             id="use3623"
             y="136.259"
             x="292.297"
             xlink:href="#textext-694f5f7e-5"
             width="354.33069"
             height="212.59842" />
        </g>
        <g
           id="g3625"
           style="fill:#000000;fill-opacity:1">
          <use
             id="use3627"
             y="136.259"
             x="296.55801"
             xlink:href="#textext-694f5f7e-16"
             width="354.33069"
             height="212.59842" />
        </g>
        <g
           id="g3629"
           style="fill:#000000;fill-opacity:1">
          <use
             id="use3631"
             y="134.765"
             x="299.379"
             xlink:href="#textext-694f5f7e-8"
             width="354.33069"
             height="212.59842" />
        </g>
        <g
           id="g3633"
           style="fill:#000000;fill-opacity:1">
          <use
             id="use3635"
             y="134.765"
             x="305.46399"
             xlink:href="#textext-694f5f7e-18"
             width="354.33069"
             height="212.59842" />
        </g>
        <g
           id="g3637"
           style="fill:#000000;fill-opacity:1">
          <use
             id="use3639"
             y="134.765"
             x="314.56699"
             xlink:href="#textext-694f5f7e-1"
             width="354.33069"
             height="212.59842" />
        </g>
        <g
           id="g3641"
           style="fill:#000000;fill-opacity:1">
          <use
             id="use3643"
             y="136.259"
             x="320.07101"
             xlink:href="#textext-694f5f7e-3"
             width="354.33069"
             height="212.59842" />
        </g>
        <g
           id="g3645"
           style="fill:#000000;fill-opacity:1">
          <use
             id="use3647"
             y="134.765"
             x="325.64001"
             xlink:href="#textext-694f5f7e-7"
             width="354.33069"
             height="212.59842" />
        </g>
        <g
           id="g3649"
           style="fill:#000000;fill-opacity:1">
          <use
             id="use3651"
             y="134.765"
             x="329.20599"
             xlink:href="#textext-694f5f7e-11"
             width="354.33069"
             height="212.59842" />
        </g>
        <g
           id="g3653"
           style="fill:#000000;fill-opacity:1">
          <use
             id="use3655"
             y="134.765"
             x="335.772"
             xlink:href="#textext-694f5f7e-8"
             width="354.33069"
             height="212.59842" />
        </g>
      </g>
    </g>
    <g
       ns0:text="$E^{\\times}.$"
       ns0:preamble="/home/sriranga/Desktop/Mangaluru-Project/src/chap1/package.tex"
       transform="matrix(1.2,0,0,1.2,31.768745,773.07359)"
       id="g3941">
      <defs
         id="defs3943">
        <g
           id="g3945">
          <symbol
             overflow="visible"
             id="textext-011fe0c1-0"
             style="overflow:visible">
            <path
               style="stroke:none"
               d=""
               id="path3948"
               inkscape:connector-curvature="0" />
          </symbol>
          <symbol
             overflow="visible"
             id="textext-011fe0c1-1"
             style="overflow:visible">
            <path
               style="stroke:none"
               d="m 6.3125,-6.515625 -4.953125,0 0,0.171875 c 0.625,0.046875 0.78125,0.140625 0.78125,0.40625 0,0.109375 -0.0625,0.453125 -0.109375,0.640625 l -1.234375,4.40625 c -0.171875,0.5625 -0.25,0.625 -0.8125,0.734375 l 0,0.15625 5.0625,0 L 5.65625,-1.609375 5.5,-1.6875 C 5.03125,-1.0625 4.78125,-0.796875 4.34375,-0.59375 3.984375,-0.421875 3.296875,-0.328125 2.546875,-0.328125 2,-0.328125 1.75,-0.421875 1.75,-0.671875 1.75,-0.78125 1.859375,-1.25 2.109375,-2.125 2.25,-2.5625 2.328125,-2.890625 2.4375,-3.265625 2.78125,-3.25 3.09375,-3.234375 3.203125,-3.234375 3.59375,-3.25 3.875,-3.1875 3.984375,-3.09375 4.03125,-3.046875 4.0625,-2.953125 4.0625,-2.78125 c 0,0.171875 -0.03125,0.296875 -0.078125,0.515625 L 4.1875,-2.21875 4.859375,-4.53125 4.6875,-4.5625 c -0.375,0.84375 -0.46875,0.90625 -1.375,0.9375 -0.125,0 -0.4375,0.015625 -0.796875,0.03125 L 3.1875,-5.921875 C 3.234375,-6.140625 3.34375,-6.1875 3.90625,-6.1875 c 1.5625,0 1.921875,0.140625 1.921875,0.734375 0,0.125 -0.015625,0.28125 -0.03125,0.453125 l 0.21875,0.015625 z m 0,0"
               id="path3951"
               inkscape:connector-curvature="0" />
          </symbol>
          <symbol
             overflow="visible"
             id="textext-011fe0c1-2"
             style="overflow:visible">
            <path
               style="stroke:none"
               d=""
               id="path3954"
               inkscape:connector-curvature="0" />
          </symbol>
          <symbol
             overflow="visible"
             id="textext-011fe0c1-3"
             style="overflow:visible">
            <path
               style="stroke:none"
               d="M 4.046875,-0.25 2.484375,-1.796875 4.046875,-3.34375 3.765625,-3.625 2.21875,-2.0625 0.671875,-3.625 0.390625,-3.34375 1.9375,-1.796875 0.390625,-0.25 0.671875,0.03125 2.21875,-1.515625 3.765625,0.03125 z m 0,0"
               id="path3957"
               inkscape:connector-curvature="0" />
          </symbol>
          <symbol
             overflow="visible"
             id="textext-011fe0c1-4"
             style="overflow:visible">
            <path
               style="stroke:none"
               d=""
               id="path3960"
               inkscape:connector-curvature="0" />
          </symbol>
          <symbol
             overflow="visible"
             id="textext-011fe0c1-5"
             style="overflow:visible">
            <path
               style="stroke:none"
               d="M 1.796875,-0.421875 C 1.796875,-0.734375 1.546875,-1 1.25,-1 c -0.296875,0 -0.546875,0.25 -0.546875,0.578125 0,0.375 0.328125,0.53125 0.546875,0.53125 0.203125,0 0.546875,-0.171875 0.546875,-0.53125 z m 0,0"
               id="path3963"
               inkscape:connector-curvature="0" />
          </symbol>
        </g>
      </defs>
      <g
         id="textext-011fe0c1-6">
        <g
           style="fill:#000000;fill-opacity:1"
           id="g3966">
          <use
             xlink:href="#textext-011fe0c1-1"
             x="223.681"
             y="134.765"
             id="use3968"
             width="354.33069"
             height="212.59842" />
        </g>
        <g
           style="fill:#000000;fill-opacity:1"
           id="g3970">
          <use
             xlink:href="#textext-011fe0c1-3"
             x="230.24699"
             y="131.14799"
             id="use3972"
             width="354.33069"
             height="212.59842" />
        </g>
        <g
           style="fill:#000000;fill-opacity:1"
           id="g3974">
          <use
             xlink:href="#textext-011fe0c1-5"
             x="235.17999"
             y="134.765"
             id="use3976"
             width="354.33069"
             height="212.59842" />
        </g>
      </g>
    </g>
    <g
       id="g4274"
       transform="matrix(1.2,0,0,1.2,-90.511473,811.95651)"
       ns0:preamble="/home/sriranga/Desktop/Mangaluru-Project/src/chap1/package.tex"
       ns0:text="$\\chi_{q}$">
      <defs
         id="defs4276">
        <g
           id="g4278">
          <symbol
             id="textext-f2a19c6d-0"
             overflow="visible"
             style="overflow:visible">
            <path
               id="path4281"
               d=""
               style="stroke:none"
               inkscape:connector-curvature="0" />
          </symbol>
          <symbol
             id="textext-f2a19c6d-1"
             overflow="visible"
             style="overflow:visible">
            <path
               id="path4284"
               d="M 5.5,-4.25 5.0625,-4.203125 C 4.96875,-4.09375 3.84375,-2.828125 2.484375,-1.625 L 2.203125,-3.40625 C 2.046875,-4.34375 1.875,-4.390625 1.640625,-4.390625 1.5625,-4.390625 1,-4.171875 0.5,-4.03125 l 0.03125,0.125 C 0.78125,-3.984375 0.875,-4 0.96875,-4 c 0.328125,0 0.390625,0.21875 0.4375,0.46875 l 0.375,2.46875 c -2.078125,1.859375 -2.828125,2.890625 -2.984375,3.125 l 0.46875,-0.125 c 0.09375,-0.125 1.140625,-1.3125 2.59375,-2.53125 l 0.25,1.6875 C 2.21875,1.828125 2.578125,2.0625 2.84375,2.0625 c 0.578125,0 1.25,-0.8125 1.25,-1.03125 C 4.09375,1 4.078125,0.984375 4.046875,0.984375 c -0.125,0 -0.390625,0.609375 -0.78125,0.609375 C 3.125,1.59375 2.953125,1.53125 2.875,0.984375 L 2.578125,-1.15625 C 4.5625,-2.9375 5.359375,-4.046875 5.5,-4.25 z m 0,0"
               style="stroke:none"
               inkscape:connector-curvature="0" />
          </symbol>
          <symbol
             id="textext-f2a19c6d-2"
             overflow="visible"
             style="overflow:visible">
            <path
               id="path4287"
               d=""
               style="stroke:none"
               inkscape:connector-curvature="0" />
          </symbol>
          <symbol
             id="textext-f2a19c6d-3"
             overflow="visible"
             style="overflow:visible">
            <path
               id="path4290"
               d="m 2.71875,1.328125 -0.109375,0 c -0.265625,0 -0.40625,-0.0625 -0.40625,-0.203125 0,-0.015625 0.015625,-0.046875 0.015625,-0.078125 l 1.140625,-4.015625 -0.5,0 L 2.75,-2.640625 c -0.109375,-0.328125 -0.25,-0.4375 -0.53125,-0.4375 -0.921875,0 -2.046875,1.28125 -2.046875,2.34375 0,0.5 0.28125,0.8125 0.71875,0.8125 0.484375,0 0.8125,-0.265625 1.4375,-1.140625 l -0.625,2.03125 C 1.609375,1.25 1.5,1.3125 1.046875,1.34375 l 0,0.109375 1.671875,0 z m -0.484375,-4.25 c 0.234375,0 0.40625,0.1875 0.40625,0.421875 0,0.578125 -0.46875,1.578125 -0.9375,1.96875 -0.1875,0.15625 -0.375,0.234375 -0.546875,0.234375 -0.234375,0 -0.375,-0.203125 -0.375,-0.53125 0,-0.515625 0.359375,-1.296875 0.8125,-1.75 0.21875,-0.21875 0.4375,-0.34375 0.640625,-0.34375 z m 0,0"
               style="stroke:none"
               inkscape:connector-curvature="0" />
          </symbol>
        </g>
      </defs>
      <g
         id="textext-f2a19c6d-4">
        <g
           id="g4293"
           style="fill:#000000;fill-opacity:1">
          <use
             id="use4295"
             y="134.765"
             x="223.43201"
             xlink:href="#textext-f2a19c6d-1"
             width="354.33069"
             height="212.59842" />
        </g>
        <g
           id="g4297"
           style="fill:#000000;fill-opacity:1">
          <use
             id="use4299"
             y="136.259"
             x="228.961"
             xlink:href="#textext-f2a19c6d-3"
             width="354.33069"
             height="212.59842" />
        </g>
      </g>
    </g>
  </g>
</svg>
