<?xml version="1.0" encoding="UTF-8" standalone="no"?>
<!-- Created with Inkscape (http://www.inkscape.org/) -->

<svg
   xmlns:ns0="http://www.iki.fi/pav/software/textext/"
   xmlns:dc="http://purl.org/dc/elements/1.1/"
   xmlns:cc="http://creativecommons.org/ns#"
   xmlns:rdf="http://www.w3.org/1999/02/22-rdf-syntax-ns#"
   xmlns:svg="http://www.w3.org/2000/svg"
   xmlns="http://www.w3.org/2000/svg"
   xmlns:xlink="http://www.w3.org/1999/xlink"
   xmlns:sodipodi="http://sodipodi.sourceforge.net/DTD/sodipodi-0.dtd"
   xmlns:inkscape="http://www.inkscape.org/namespaces/inkscape"
   width="744.09448819"
   height="1052.3622047"
   id="svg2"
   version="1.1"
   inkscape:version="0.48.4 r9939"
   sodipodi:docname="fig8.eps">
  <sodipodi:namedview
     id="base"
     pagecolor="#ffffff"
     bordercolor="#666666"
     borderopacity="1.0"
     inkscape:pageopacity="0.0"
     inkscape:pageshadow="2"
     inkscape:zoom="2.8"
     inkscape:cx="418.33581"
     inkscape:cy="868.27844"
     inkscape:document-units="px"
     inkscape:current-layer="layer1"
     showgrid="false"
     inkscape:window-width="1024"
     inkscape:window-height="744"
     inkscape:window-x="0"
     inkscape:window-y="24"
     inkscape:window-maximized="1" />
  <defs
     id="defs4">
    <marker
       style="overflow:visible"
       id="Arrow1Mstart"
       refX="0.0"
       refY="0.0"
       orient="auto"
       inkscape:stockid="Arrow1Mstart">
      <path
         transform="scale(0.4) translate(10,0)"
         style="fill-rule:evenodd;stroke:#000000;stroke-width:1.0pt"
         d="M 0.0,0.0 L 5.0,-5.0 L -12.5,0.0 L 5.0,5.0 L 0.0,0.0 z "
         id="path3958" />
    </marker>
  </defs>
  <metadata
     id="metadata7">
    <rdf:RDF>
      <cc:Work
         rdf:about="">
        <dc:format>image/svg+xml</dc:format>
        <dc:type
           rdf:resource="http://purl.org/dc/dcmitype/StillImage" />
        <dc:title></dc:title>
      </cc:Work>
    </rdf:RDF>
  </metadata>
  <g
     inkscape:label="Layer 1"
     inkscape:groupmode="layer"
     id="layer1">
    <path
       inkscape:connector-curvature="0"
       id="path3178"
       d="m 387.21906,213.17614 0,-8.6711 28.13809,0 0,8.05174"
       style="fill:none;stroke:#000000;stroke-width:0.99999994px;stroke-linecap:butt;stroke-linejoin:miter;stroke-opacity:1;marker-start:url(#Arrow1Mstart)" />
    <g
       transform="matrix(1.2,0,0,1.2,60,63.928572)"
       ns0:text="$0\\to G_{a}\\to E\\to G\\to 0$."
       ns0:preamble="/home/sriranga/Desktop/TIFR/Studies-in-Mathematics/SM_05/chap2/package.tex"
       id="g4882">
      <defs
         id="defs4884">
        <g
           id="g4886">
          <symbol
             style="overflow:visible"
             overflow="visible"
             id="textext-4bf61ff8-0">
            <path
               inkscape:connector-curvature="0"
               style="stroke:none"
               d=""
               id="path4889" />
          </symbol>
          <symbol
             style="overflow:visible"
             overflow="visible"
             id="textext-4bf61ff8-1">
            <path
               inkscape:connector-curvature="0"
               style="stroke:none"
               d="m 2.53125,-6.734375 c -0.546875,0 -0.96875,0.171875 -1.328125,0.515625 -0.578125,0.5625 -0.96875,1.703125 -0.96875,2.875 0,1.078125 0.328125,2.25 0.796875,2.8125 0.375,0.4375 0.875,0.671875 1.46875,0.671875 0.5,0 0.921875,-0.171875 1.28125,-0.515625 C 4.359375,-0.921875 4.75,-2.078125 4.75,-3.296875 c 0,-2.03125 -0.90625,-3.4375 -2.21875,-3.4375 z m -0.03125,0.25 c 0.84375,0 1.28125,1.125 1.28125,3.21875 0,2.078125 -0.4375,3.140625 -1.28125,3.140625 -0.859375,0 -1.296875,-1.0625 -1.296875,-3.140625 0,-2.109375 0.4375,-3.21875 1.296875,-3.21875 z m 0,0"
               id="path4892" />
          </symbol>
          <symbol
             style="overflow:visible"
             overflow="visible"
             id="textext-4bf61ff8-2">
            <path
               inkscape:connector-curvature="0"
               style="stroke:none"
               d="m 1.25,-1 c -0.296875,0 -0.546875,0.265625 -0.546875,0.578125 0,0.28125 0.25,0.53125 0.53125,0.53125 0.3125,0 0.5625,-0.25 0.5625,-0.53125 C 1.796875,-0.734375 1.546875,-1 1.25,-1 z m 0,0"
               id="path4895" />
          </symbol>
          <symbol
             style="overflow:visible"
             overflow="visible"
             id="textext-4bf61ff8-3">
            <path
               inkscape:connector-curvature="0"
               style="stroke:none"
               d=""
               id="path4898" />
          </symbol>
          <symbol
             style="overflow:visible"
             overflow="visible"
             id="textext-4bf61ff8-4">
            <path
               inkscape:connector-curvature="0"
               style="stroke:none"
               d="m 8.984375,-2.578125 -1.953125,-2.03125 -0.296875,0.328125 1.1875,1.4375 -7.296875,0 0,0.5625 7.296875,0 -1.1875,1.4375 0.296875,0.328125 z m 0,0"
               id="path4901" />
          </symbol>
          <symbol
             style="overflow:visible"
             overflow="visible"
             id="textext-4bf61ff8-5">
            <path
               inkscape:connector-curvature="0"
               style="stroke:none"
               d=""
               id="path4904" />
          </symbol>
          <symbol
             style="overflow:visible"
             overflow="visible"
             id="textext-4bf61ff8-6">
            <path
               inkscape:connector-curvature="0"
               style="stroke:none"
               d="M 7.0625,-6.59375 6.90625,-6.640625 c -0.171875,0.234375 -0.34375,0.34375 -0.59375,0.34375 -0.109375,0 -0.21875,-0.03125 -0.4375,-0.109375 -0.5,-0.15625 -0.9375,-0.234375 -1.34375,-0.234375 -2.09375,0 -4.015625,2 -4.015625,4.1875 0,0.671875 0.296875,1.375 0.765625,1.859375 0.5,0.5 1.234375,0.765625 2.09375,0.765625 0.875,0 1.59375,-0.1875 2.359375,-0.609375 l 0.5,-1.859375 c 0.15625,-0.5625 0.3125,-0.6875 0.96875,-0.71875 l 0,-0.171875 -2.65625,0 0,0.171875 c 0.125,0 0.25,0.03125 0.28125,0.03125 0.328125,0.03125 0.5,0.125 0.5,0.296875 0,0.21875 -0.0625,0.5 -0.28125,1.234375 -0.21875,0.71875 -0.25,0.8125 -0.375,0.921875 -0.21875,0.21875 -0.59375,0.34375 -1.046875,0.34375 -1.28125,0 -2.015625,-0.734375 -2.015625,-2.046875 0,-1.21875 0.5,-2.484375 1.28125,-3.328125 0.453125,-0.46875 1.0625,-0.734375 1.71875,-0.734375 0.65625,0 1.203125,0.265625 1.5,0.71875 0.15625,0.265625 0.234375,0.46875 0.28125,0.90625 l 0.171875,0.03125 z m 0,0"
               id="path4907" />
          </symbol>
          <symbol
             style="overflow:visible"
             overflow="visible"
             id="textext-4bf61ff8-7">
            <path
               inkscape:connector-curvature="0"
               style="stroke:none"
               d="m 6.3125,-6.515625 -4.953125,0 0,0.171875 c 0.625,0.046875 0.78125,0.140625 0.78125,0.40625 0,0.109375 -0.0625,0.453125 -0.109375,0.640625 l -1.234375,4.40625 c -0.171875,0.5625 -0.25,0.625 -0.8125,0.734375 l 0,0.15625 5.0625,0 L 5.65625,-1.609375 5.5,-1.6875 C 5.03125,-1.0625 4.78125,-0.796875 4.34375,-0.59375 3.984375,-0.421875 3.296875,-0.328125 2.546875,-0.328125 2,-0.328125 1.75,-0.421875 1.75,-0.671875 1.75,-0.78125 1.859375,-1.25 2.109375,-2.125 2.25,-2.5625 2.328125,-2.890625 2.4375,-3.265625 2.78125,-3.25 3.09375,-3.234375 3.203125,-3.234375 3.59375,-3.25 3.875,-3.1875 3.984375,-3.09375 4.03125,-3.046875 4.0625,-2.953125 4.0625,-2.78125 c 0,0.171875 -0.03125,0.296875 -0.078125,0.515625 L 4.1875,-2.21875 4.859375,-4.53125 4.6875,-4.5625 c -0.375,0.84375 -0.46875,0.90625 -1.375,0.9375 -0.125,0 -0.4375,0.015625 -0.796875,0.03125 L 3.1875,-5.921875 C 3.234375,-6.140625 3.34375,-6.1875 3.90625,-6.1875 c 1.5625,0 1.921875,0.140625 1.921875,0.734375 0,0.125 -0.015625,0.28125 -0.03125,0.453125 l 0.21875,0.015625 z m 0,0"
               id="path4910" />
          </symbol>
          <symbol
             style="overflow:visible"
             overflow="visible"
             id="textext-4bf61ff8-8">
            <path
               inkscape:connector-curvature="0"
               style="stroke:none"
               d=""
               id="path4913" />
          </symbol>
          <symbol
             style="overflow:visible"
             overflow="visible"
             id="textext-4bf61ff8-9">
            <path
               inkscape:connector-curvature="0"
               style="stroke:none"
               d="M 3.234375,-0.765625 C 3.125,-0.65625 3.09375,-0.625 3.03125,-0.578125 2.828125,-0.359375 2.734375,-0.28125 2.671875,-0.28125 c -0.046875,0 -0.09375,-0.046875 -0.09375,-0.09375 0,-0.140625 0.296875,-1.328125 0.625,-2.53125 0.015625,-0.0625 0.015625,-0.078125 0.03125,-0.140625 L 3.1875,-3.078125 2.765625,-3.03125 2.75,-3 2.671875,-2.671875 c -0.0625,-0.25 -0.265625,-0.40625 -0.5625,-0.40625 -0.921875,0 -1.984375,1.28125 -1.984375,2.375 0,0.5 0.265625,0.78125 0.703125,0.78125 0.484375,0 0.78125,-0.234375 1.40625,-1.09375 -0.140625,0.546875 -0.171875,0.625 -0.171875,0.796875 0,0.203125 0.09375,0.28125 0.28125,0.28125 0.28125,0 0.453125,-0.125 0.96875,-0.765625 z M 2.15625,-2.921875 c 0.234375,0.015625 0.390625,0.1875 0.390625,0.421875 0,0.59375 -0.359375,1.40625 -0.828125,1.921875 -0.171875,0.1875 -0.40625,0.3125 -0.609375,0.3125 -0.25,0 -0.40625,-0.203125 -0.40625,-0.515625 0,-0.375 0.265625,-1.09375 0.5625,-1.53125 0.28125,-0.40625 0.609375,-0.625 0.890625,-0.609375 z m 0,0"
               id="path4916" />
          </symbol>
        </g>
      </defs>
      <g
         id="textext-4bf61ff8-10">
        <g
           style="fill:#000000;fill-opacity:1"
           id="g4919">
          <use
             height="1052.3622"
             width="744.09448"
             xlink:href="#textext-4bf61ff8-1"
             x="223.43201"
             y="134.765"
             id="use4921" />
        </g>
        <g
           style="fill:#000000;fill-opacity:1"
           id="g4923">
          <use
             height="1052.3622"
             width="744.09448"
             xlink:href="#textext-4bf61ff8-4"
             x="231.181"
             y="134.765"
             id="use4925" />
        </g>
        <g
           style="fill:#000000;fill-opacity:1"
           id="g4927">
          <use
             height="1052.3622"
             width="744.09448"
             xlink:href="#textext-4bf61ff8-6"
             x="243.30299"
             y="134.765"
             id="use4929" />
        </g>
        <g
           style="fill:#000000;fill-opacity:1"
           id="g4931">
          <use
             height="1052.3622"
             width="744.09448"
             xlink:href="#textext-4bf61ff8-9"
             x="250.745"
             y="136.259"
             id="use4933" />
        </g>
        <g
           style="fill:#000000;fill-opacity:1"
           id="g4935">
          <use
             height="1052.3622"
             width="744.09448"
             xlink:href="#textext-4bf61ff8-4"
             x="257.49701"
             y="134.765"
             id="use4937" />
        </g>
        <g
           style="fill:#000000;fill-opacity:1"
           id="g4939">
          <use
             height="1052.3622"
             width="744.09448"
             xlink:href="#textext-4bf61ff8-7"
             x="270.11801"
             y="134.765"
             id="use4941" />
        </g>
        <g
           style="fill:#000000;fill-opacity:1"
           id="g4943">
          <use
             height="1052.3622"
             width="744.09448"
             xlink:href="#textext-4bf61ff8-4"
             x="279.45099"
             y="134.765"
             id="use4945" />
        </g>
        <g
           style="fill:#000000;fill-opacity:1"
           id="g4947">
          <use
             height="1052.3622"
             width="744.09448"
             xlink:href="#textext-4bf61ff8-6"
             x="291.573"
             y="134.765"
             id="use4949" />
        </g>
        <g
           style="fill:#000000;fill-opacity:1"
           id="g4951">
          <use
             height="1052.3622"
             width="744.09448"
             xlink:href="#textext-4bf61ff8-4"
             x="301.78201"
             y="134.765"
             id="use4953" />
        </g>
        <g
           style="fill:#000000;fill-opacity:1"
           id="g4955">
          <use
             height="1052.3622"
             width="744.09448"
             xlink:href="#textext-4bf61ff8-1"
             x="314.15399"
             y="134.765"
             id="use4957" />
          <use
             height="1052.3622"
             width="744.09448"
             xlink:href="#textext-4bf61ff8-2"
             x="319.13531"
             y="134.765"
             id="use4959" />
        </g>
      </g>
    </g>
    <g
       id="g5065"
       ns0:preamble="/home/sriranga/Desktop/TIFR/Studies-in-Mathematics/SM_05/chap2/package.tex"
       ns0:text="$S$"
       transform="matrix(1.2,0,0,1.2,131.07143,38.928571)">
      <defs
         id="defs5067">
        <g
           id="g5069">
          <symbol
             id="textext-ea3d9651-0"
             overflow="visible"
             style="overflow:visible">
            <path
               id="path5072"
               d=""
               style="stroke:none"
               inkscape:connector-curvature="0" />
          </symbol>
          <symbol
             id="textext-ea3d9651-1"
             overflow="visible"
             style="overflow:visible">
            <path
               id="path5075"
               d="M 4.671875,-4.671875 5.0625,-6.65625 l -0.234375,0 c -0.140625,0.21875 -0.21875,0.265625 -0.4375,0.265625 -0.125,0 -0.234375,-0.03125 -0.46875,-0.109375 -0.21875,-0.09375 -0.53125,-0.140625 -0.84375,-0.140625 -1.03125,0 -1.765625,0.6875 -1.765625,1.671875 0,0.53125 0.140625,0.828125 0.734375,1.453125 0.09375,0.09375 0.21875,0.234375 0.390625,0.421875 0.1875,0.1875 0.328125,0.34375 0.390625,0.421875 0.46875,0.484375 0.59375,0.75 0.59375,1.171875 0,0.75 -0.546875,1.328125 -1.28125,1.328125 -0.828125,0 -1.453125,-0.703125 -1.453125,-1.65625 0,-0.078125 0.015625,-0.15625 0.015625,-0.21875 l -0.1875,-0.03125 -0.34375,2.234375 0.171875,0 c 0.078125,-0.234375 0.1875,-0.328125 0.390625,-0.328125 0.109375,0 0.25,0.03125 0.515625,0.125 0.453125,0.171875 0.71875,0.21875 1.03125,0.21875 1.140625,0 2.015625,-0.859375 2.015625,-1.984375 0,-0.65625 -0.234375,-1.03125 -1.125,-1.953125 C 2.265625,-4.671875 2.1875,-4.8125 2.1875,-5.296875 c 0,-0.625 0.421875,-1.015625 1.09375,-1.015625 0.375,0 0.671875,0.125 0.890625,0.375 0.21875,0.25 0.296875,0.578125 0.3125,1.25 z m 0,0"
               style="stroke:none"
               inkscape:connector-curvature="0" />
          </symbol>
        </g>
      </defs>
      <g
         id="textext-ea3d9651-2">
        <g
           id="g5078"
           style="fill:#000000;fill-opacity:1">
          <use
             id="use5080"
             y="134.765"
             x="223.43201"
             xlink:href="#textext-ea3d9651-1"
             width="744.09448"
             height="1052.3622" />
        </g>
      </g>
    </g>
  </g>
</svg>
