<?xml version="1.0" encoding="UTF-8" standalone="no"?>
<!-- Created with Inkscape (http://www.inkscape.org/) -->
<svg
   xmlns:ns0="http://www.iki.fi/pav/software/textext/"
   xmlns:dc="http://purl.org/dc/elements/1.1/"
   xmlns:cc="http://creativecommons.org/ns#"
   xmlns:rdf="http://www.w3.org/1999/02/22-rdf-syntax-ns#"
   xmlns:svg="http://www.w3.org/2000/svg"
   xmlns="http://www.w3.org/2000/svg"
   xmlns:xlink="http://www.w3.org/1999/xlink"
   xmlns:sodipodi="http://sodipodi.sourceforge.net/DTD/sodipodi-0.dtd"
   xmlns:inkscape="http://www.inkscape.org/namespaces/inkscape"
   width="283.46457"
   height="212.59842"
   id="svg2"
   sodipodi:version="0.32"
   inkscape:version="0.46"
   version="1.0"
   sodipodi:docname="chap4-fig2.svg"
   inkscape:output_extension="org.inkscape.output.svg.inkscape">
  <sodipodi:namedview
     id="base"
     pagecolor="#ffffff"
     bordercolor="#666666"
     borderopacity="1.0"
     gridtolerance="10000"
     guidetolerance="10"
     objecttolerance="10"
     inkscape:pageopacity="0.0"
     inkscape:pageshadow="2"
     inkscape:zoom="1.4"
     inkscape:cx="86.959601"
     inkscape:cy="67.068839"
     inkscape:document-units="px"
     inkscape:current-layer="layer1"
     showgrid="false"
     units="cm"
     inkscape:window-width="964"
     inkscape:window-height="726"
     inkscape:window-x="50"
     inkscape:window-y="27" />
  <defs
     id="defs4">
    <marker
       style="overflow:visible"
       id="Arrow1Mstart"
       refX="0.0"
       refY="0.0"
       orient="auto"
       inkscape:stockid="Arrow1Mstart">
      <path
         transform="scale(0.4) translate(10,0)"
         style="fill-rule:evenodd;stroke:#000000;stroke-width:1.0pt;marker-start:none"
         d="M 0.0,0.0 L 5.0,-5.0 L -12.5,0.0 L 5.0,5.0 L 0.0,0.0 z "
         id="path3246" />
    </marker>
    <marker
       style="overflow:visible;"
       id="Arrow1Mend"
       refX="0.0"
       refY="0.0"
       orient="auto"
       inkscape:stockid="Arrow1Mend">
      <path
         transform="scale(0.4) rotate(180) translate(10,0)"
         style="fill-rule:evenodd;stroke:#000000;stroke-width:1.0pt;marker-start:none;"
         d="M 0.0,0.0 L 5.0,-5.0 L -12.5,0.0 L 5.0,5.0 L 0.0,0.0 z "
         id="path3249" />
    </marker>
    <inkscape:perspective
       id="perspective10"
       inkscape:persp3d-origin="372.04724 : 350.78739 : 1"
       inkscape:vp_z="744.09448 : 526.18109 : 1"
       inkscape:vp_y="0 : 1000 : 0"
       inkscape:vp_x="0 : 526.18109 : 1"
       sodipodi:type="inkscape:persp3d" />
  </defs>
  <metadata
     id="metadata7">
    <rdf:RDF>
      <cc:Work
         rdf:about="">
        <dc:format>image/svg+xml</dc:format>
        <dc:type
           rdf:resource="http://purl.org/dc/dcmitype/StillImage" />
      </cc:Work>
    </rdf:RDF>
  </metadata>
  <g
     id="layer1"
     inkscape:groupmode="layer"
     inkscape:label="Layer 1">
    <path
       style="fill:none;fill-rule:evenodd;stroke:#000000;stroke-width:0.89999998;stroke-linecap:butt;stroke-linejoin:miter;stroke-miterlimit:4;stroke-dasharray:none;stroke-opacity:1"
       d="M 33.261346,68.295561 L 199.67725,11.586105"
       id="path4857" />
    <path
       id="path2385"
       d="M 24.451637,58.501369 L 187.01978,3.7077724"
       style="fill:none;fill-rule:evenodd;stroke:#000000;stroke-width:0.9;stroke-linecap:butt;stroke-linejoin:miter;stroke-opacity:1;stroke-miterlimit:4;stroke-dasharray:none" />
    <path
       id="path2387"
       d="M 33.261346,80.295561 L 199.67725,23.586105"
       style="fill:none;fill-rule:evenodd;stroke:#000000;stroke-width:0.89999998;stroke-linecap:butt;stroke-linejoin:miter;stroke-miterlimit:4;stroke-dasharray:none;stroke-opacity:1" />
    <path
       id="path2389"
       d="M 40.552024,91.323409 L 201.19628,36.529812"
       style="fill:none;fill-rule:evenodd;stroke:#000000;stroke-width:0.89999998;stroke-linecap:butt;stroke-linejoin:miter;stroke-miterlimit:4;stroke-dasharray:none;stroke-opacity:1" />
    <path
       id="path2391"
       d="M 33.590082,104.26712 L 215.39706,44.109113"
       style="fill:none;fill-rule:evenodd;stroke:#000000;stroke-width:0.89999998;stroke-linecap:butt;stroke-linejoin:miter;stroke-miterlimit:4;stroke-dasharray:none;stroke-opacity:1" />
    <path
       id="path2393"
       d="M 24.932608,119.04254 L 242.81239,48.155725"
       style="fill:none;fill-rule:evenodd;stroke:#000000;stroke-width:0.9;stroke-linecap:butt;stroke-linejoin:miter;stroke-opacity:1;stroke-miterlimit:4;stroke-dasharray:none" />
    <path
       id="path2395"
       d="M 28.299404,135.13577 L 250.9889,61.183573"
       style="fill:none;fill-rule:evenodd;stroke:#000000;stroke-width:0.9;stroke-linecap:butt;stroke-linejoin:miter;stroke-opacity:1;stroke-miterlimit:4;stroke-dasharray:none" />
    <path
       style="fill:none;fill-rule:evenodd;stroke:#000000;stroke-width:0.9;stroke-linecap:butt;stroke-linejoin:miter;stroke-opacity:1;stroke-miterlimit:4;stroke-dasharray:none"
       d="M 33.686277,148.01034 L 256.37577,74.058152"
       id="path2397" />
    <path
       id="path2399"
       d="M 39.07315,160.88492 L 261.76264,86.932731"
       style="fill:none;fill-rule:evenodd;stroke:#000000;stroke-width:0.9;stroke-linecap:butt;stroke-linejoin:miter;stroke-opacity:1;stroke-miterlimit:4;stroke-dasharray:none" />
    <path
       style="fill:none;fill-rule:evenodd;stroke:#000000;stroke-width:0.9;stroke-linecap:butt;stroke-linejoin:miter;stroke-opacity:1;stroke-miterlimit:4;stroke-dasharray:none"
       d="M 65.911321,168.93154 L 247.7183,108.77353"
       id="path2401" />
    <path
       id="path2403"
       d="M 73.991631,183.95188 L 255.79861,123.79387"
       style="fill:none;fill-rule:evenodd;stroke:#000000;stroke-width:0.9;stroke-linecap:butt;stroke-linejoin:miter;stroke-opacity:1;stroke-miterlimit:4;stroke-dasharray:none" />
    <path
       style="fill:none;fill-rule:evenodd;stroke:#000000;stroke-width:0.9;stroke-linecap:butt;stroke-linejoin:miter;stroke-opacity:1;stroke-miterlimit:4;stroke-dasharray:none"
       d="M 91.114189,194.75733 L 251.75845,139.96373"
       id="path2405" />
    <path
       id="path2407"
       d="M 99.194499,207.63191 L 259.83876,152.83831"
       style="fill:none;fill-rule:evenodd;stroke:#000000;stroke-width:0.9;stroke-linecap:butt;stroke-linejoin:miter;stroke-opacity:1;stroke-miterlimit:4;stroke-dasharray:none" />
    <path
       sodipodi:nodetypes="ccccccccsssc"
       id="path3205"
       d="M 53.693745,93.544372 C 69.020947,81.206908 84.521931,87.971023 105.65945,76.721757 C 118.25251,54.594668 117.98656,44.664254 139.83509,22.685494 C 145.7797,15.70047 170.76788,15.715274 154.81619,31.861463 C 147.42103,39.766925 149.43662,45.908282 151.9915,58.841088 C 154.76983,73.022051 172.60631,73.374295 182.86861,73.56332 C 190.82802,73.866241 200.657,73.871554 214.20017,81.413495 C 216.43457,81.900101 223.23369,97.350327 214.17605,119.43919 C 205.0874,149.12256 198.41187,168.94924 185.93991,164.6462 C 174.71992,160.77512 177.8517,161.10306 169.8188,157.85437 C 125.11007,139.77314 117.12299,134.37981 66.104649,152.15204 C 39.187095,161.52876 41.452456,111.36079 53.693745,93.544372 z"
       style="fill:#ffffff;fill-rule:evenodd;stroke:#000000;stroke-width:1.36786938px;stroke-linecap:butt;stroke-linejoin:miter;stroke-opacity:1" />
    <path
       transform="matrix(1.4179433,0,0,1.4268614,-411.96781,-54.173082)"
       sodipodi:open="true"
       sodipodi:end="0.00031481909"
       sodipodi:start="0.00011710268"
       d="M 395.71428,93.314546 A 22.678572,15.714286 0 0 1 395.71428,93.317653"
       sodipodi:ry="15.714286"
       sodipodi:rx="22.678572"
       sodipodi:cy="93.312706"
       sodipodi:cx="373.03571"
       id="path3207"
       style="fill:#0000ff;fill-opacity:1;fill-rule:evenodd;stroke:#000000;stroke-width:1px;stroke-linecap:butt;stroke-linejoin:miter;marker:none;marker-start:none;marker-mid:none;marker-end:none;stroke-miterlimit:4;stroke-dasharray:none;stroke-dashoffset:0;stroke-opacity:1;visibility:visible;display:inline;overflow:visible;enable-background:accumulate"
       sodipodi:type="arc" />
    <path
       transform="matrix(1.290036,0,0,1.2981497,-339.5958,-182.5438)"
       d="M 408.92858,220.09842 A 41.07143,41.07143 0 1 1 326.78572,220.09842 A 41.07143,41.07143 0 1 1 408.92858,220.09842 z"
       sodipodi:ry="41.07143"
       sodipodi:rx="41.07143"
       sodipodi:cy="220.09842"
       sodipodi:cx="367.85715"
       id="path3217"
       style="fill:none;fill-opacity:1;fill-rule:evenodd;stroke:#000000;stroke-width:1px;stroke-linecap:butt;stroke-linejoin:miter;marker:none;marker-start:none;marker-mid:none;marker-end:none;stroke-miterlimit:4;stroke-dasharray:none;stroke-dashoffset:0;stroke-opacity:1;visibility:visible;display:inline;overflow:visible;enable-background:accumulate"
       sodipodi:type="arc" />
    <path
       sodipodi:type="arc"
       style="fill:none;fill-opacity:1;fill-rule:evenodd;stroke:#000000;stroke-width:1.68940496;stroke-linecap:butt;stroke-linejoin:miter;marker:none;marker-start:none;marker-mid:none;marker-end:none;stroke-miterlimit:4;stroke-dasharray:none;stroke-dashoffset:0;stroke-opacity:1;visibility:visible;display:inline;overflow:visible;enable-background:accumulate"
       id="path3219"
       sodipodi:cx="367.85715"
       sodipodi:cy="220.09842"
       sodipodi:rx="41.07143"
       sodipodi:ry="41.07143"
       d="M 408.92858,220.09842 A 41.07143,41.07143 0 1 1 326.78572,220.09842 A 41.07143,41.07143 0 1 1 408.92858,220.09842 z"
       transform="matrix(0.8393152,0,0,0.8445941,-172.68083,-82.716929)" />
    <path
       transform="matrix(1.1141862,0,0,0.7760722,-293.91371,16.657131)"
       d="M 386.78571,112.41985 A 0.53571427,0.89285713 0 1 1 385.71429,112.41985 A 0.53571427,0.89285713 0 1 1 386.78571,112.41985 z"
       sodipodi:ry="0.89285713"
       sodipodi:rx="0.53571427"
       sodipodi:cy="112.41985"
       sodipodi:cx="386.25"
       id="path3221"
       style="fill:#000000;fill-opacity:1;fill-rule:evenodd;stroke:#000000;stroke-width:1px;stroke-linecap:butt;stroke-linejoin:miter;marker:none;marker-start:none;marker-mid:none;marker-end:none;stroke-miterlimit:4;stroke-dasharray:none;stroke-dashoffset:0;stroke-opacity:1;visibility:visible;display:inline;overflow:visible;enable-background:accumulate"
       sodipodi:type="arc" />
    <path
       id="path3235"
       d="M 151.07143,72.955562 C 151.07143,72.955562 151.07143,72.955562 136.42857,103.66985 L 187.14286,103.66985"
       style="fill:none;fill-rule:evenodd;stroke:#000000;stroke-width:1px;stroke-linecap:butt;stroke-linejoin:miter;stroke-opacity:1;marker-end:url(#Arrow1Mend);marker-start:url(#Arrow1Mstart)" />
    <g
       id="g4566"
       ns0:preamble=""
       ns0:text="$r$"
       transform="translate(-83.214286,-55.714286)">
      <defs
         id="defs4568">
        <g
           id="g4570">
          <symbol
             id="textext-f1b0f9d8-0"
             overflow="visible"
             style="overflow:visible">
            <path
               id="path4573"
               d=""
               style="stroke:none" />
          </symbol>
          <symbol
             id="textext-f1b0f9d8-1"
             overflow="visible"
             style="overflow:visible">
            <path
               id="path4576"
               d="M 0.875,-0.59375 C 0.84375,-0.4375 0.78125,-0.203125 0.78125,-0.15625 C 0.78125,0.015625 0.921875,0.109375 1.078125,0.109375 C 1.203125,0.109375 1.375,0.03125 1.453125,-0.171875 C 1.46875,-0.203125 1.796875,-1.5625 1.84375,-1.75 C 1.921875,-2.078125 2.109375,-2.765625 2.15625,-3.046875 C 2.203125,-3.171875 2.484375,-3.640625 2.71875,-3.859375 C 2.796875,-3.921875 3.09375,-4.1875 3.515625,-4.1875 C 3.78125,-4.1875 3.921875,-4.0625 3.9375,-4.0625 C 3.640625,-4.015625 3.421875,-3.78125 3.421875,-3.515625 C 3.421875,-3.359375 3.53125,-3.171875 3.796875,-3.171875 C 4.0625,-3.171875 4.34375,-3.40625 4.34375,-3.765625 C 4.34375,-4.109375 4.03125,-4.40625 3.515625,-4.40625 C 2.875,-4.40625 2.4375,-3.921875 2.25,-3.640625 C 2.15625,-4.09375 1.796875,-4.40625 1.328125,-4.40625 C 0.875,-4.40625 0.6875,-4.015625 0.59375,-3.84375 C 0.421875,-3.5 0.296875,-2.90625 0.296875,-2.875 C 0.296875,-2.765625 0.390625,-2.765625 0.40625,-2.765625 C 0.515625,-2.765625 0.515625,-2.78125 0.578125,-3 C 0.75,-3.703125 0.953125,-4.1875 1.3125,-4.1875 C 1.46875,-4.1875 1.609375,-4.109375 1.609375,-3.734375 C 1.609375,-3.515625 1.578125,-3.40625 1.453125,-2.890625 L 0.875,-0.59375 z"
               style="stroke:none" />
          </symbol>
        </g>
      </defs>
      <g
         id="textext-f1b0f9d8-2">
        <g
           id="g4579"
           style="fill:#000000;fill-opacity:1">
          <use
             id="use4581"
             y="134.765"
             x="223.43201"
             xlink:href="#textext-f1b0f9d8-1"
             width="283.46457"
             height="212.59842" />
        </g>
      </g>
    </g>
    <g
       transform="translate(-92.142857,-22.142857)"
       ns0:text="$m$"
       ns0:preamble=""
       id="g4657">
      <defs
         id="defs4659">
        <g
           id="g4661">
          <symbol
             style="overflow:visible"
             overflow="visible"
             id="textext-08e211e0-0">
            <path
               style="stroke:none"
               d=""
               id="path4664" />
          </symbol>
          <symbol
             style="overflow:visible"
             overflow="visible"
             id="textext-08e211e0-1">
            <path
               style="stroke:none"
               d="M 0.875,-0.59375 C 0.84375,-0.4375 0.78125,-0.203125 0.78125,-0.15625 C 0.78125,0.015625 0.921875,0.109375 1.078125,0.109375 C 1.203125,0.109375 1.375,0.03125 1.453125,-0.171875 C 1.453125,-0.1875 1.578125,-0.65625 1.640625,-0.90625 C 1.703125,-1.203125 1.78125,-1.5 1.859375,-1.796875 C 1.90625,-2.03125 1.96875,-2.25 2.03125,-2.46875 C 2.0625,-2.640625 2.140625,-2.9375 2.15625,-2.96875 C 2.296875,-3.28125 2.828125,-4.1875 3.78125,-4.1875 C 4.234375,-4.1875 4.3125,-3.8125 4.3125,-3.484375 C 4.3125,-3.234375 4.25,-2.953125 4.171875,-2.65625 C 4.046875,-2.15625 4,-1.953125 3.890625,-1.5 C 3.78125,-1.140625 3.78125,-1.078125 3.6875,-0.75 C 3.65625,-0.546875 3.5625,-0.203125 3.5625,-0.15625 C 3.5625,0.015625 3.703125,0.109375 3.84375,0.109375 C 4.15625,0.109375 4.21875,-0.140625 4.296875,-0.453125 C 4.4375,-1.015625 4.8125,-2.46875 4.890625,-2.859375 C 4.921875,-2.984375 5.453125,-4.1875 6.546875,-4.1875 C 6.96875,-4.1875 7.078125,-3.84375 7.078125,-3.484375 C 7.078125,-2.921875 6.65625,-1.78125 6.453125,-1.25 C 6.375,-1.015625 6.328125,-0.90625 6.328125,-0.703125 C 6.328125,-0.234375 6.671875,0.109375 7.140625,0.109375 C 8.078125,0.109375 8.453125,-1.34375 8.453125,-1.421875 C 8.453125,-1.53125 8.359375,-1.53125 8.328125,-1.53125 C 8.234375,-1.53125 8.234375,-1.5 8.1875,-1.34375 C 8.03125,-0.8125 7.71875,-0.109375 7.171875,-0.109375 C 7,-0.109375 6.921875,-0.203125 6.921875,-0.4375 C 6.921875,-0.6875 7.015625,-0.921875 7.109375,-1.140625 C 7.296875,-1.671875 7.71875,-2.765625 7.71875,-3.34375 C 7.71875,-3.984375 7.3125,-4.40625 6.5625,-4.40625 C 5.828125,-4.40625 5.3125,-3.96875 4.9375,-3.4375 C 4.9375,-3.5625 4.90625,-3.90625 4.625,-4.140625 C 4.375,-4.359375 4.0625,-4.40625 3.8125,-4.40625 C 2.90625,-4.40625 2.421875,-3.765625 2.25,-3.53125 C 2.203125,-4.109375 1.78125,-4.40625 1.328125,-4.40625 C 0.875,-4.40625 0.6875,-4.015625 0.59375,-3.84375 C 0.421875,-3.484375 0.296875,-2.90625 0.296875,-2.875 C 0.296875,-2.765625 0.390625,-2.765625 0.40625,-2.765625 C 0.515625,-2.765625 0.515625,-2.78125 0.578125,-3 C 0.75,-3.703125 0.953125,-4.1875 1.3125,-4.1875 C 1.46875,-4.1875 1.609375,-4.109375 1.609375,-3.734375 C 1.609375,-3.515625 1.578125,-3.40625 1.453125,-2.890625 L 0.875,-0.59375 z"
               id="path4667" />
          </symbol>
        </g>
      </defs>
      <g
         id="textext-08e211e0-2">
        <g
           style="fill:#000000;fill-opacity:1"
           id="g4670">
          <use
             height="212.59842"
             width="283.46457"
             xlink:href="#textext-08e211e0-1"
             x="223.43201"
             y="134.765"
             id="use4672" />
        </g>
      </g>
    </g>
    <g
       id="g4768"
       ns0:preamble=""
       ns0:text="$r\'$"
       transform="translate(-51.071429,-20)">
      <defs
         id="defs4770">
        <g
           id="g4772">
          <symbol
             id="textext-0efdccd8-0"
             overflow="visible"
             style="overflow:visible">
            <path
               id="path4775"
               d=""
               style="stroke:none" />
          </symbol>
          <symbol
             id="textext-0efdccd8-1"
             overflow="visible"
             style="overflow:visible">
            <path
               id="path4778"
               d="M 0.875,-0.59375 C 0.84375,-0.4375 0.78125,-0.203125 0.78125,-0.15625 C 0.78125,0.015625 0.921875,0.109375 1.078125,0.109375 C 1.203125,0.109375 1.375,0.03125 1.453125,-0.171875 C 1.46875,-0.203125 1.796875,-1.5625 1.84375,-1.75 C 1.921875,-2.078125 2.109375,-2.765625 2.15625,-3.046875 C 2.203125,-3.171875 2.484375,-3.640625 2.71875,-3.859375 C 2.796875,-3.921875 3.09375,-4.1875 3.515625,-4.1875 C 3.78125,-4.1875 3.921875,-4.0625 3.9375,-4.0625 C 3.640625,-4.015625 3.421875,-3.78125 3.421875,-3.515625 C 3.421875,-3.359375 3.53125,-3.171875 3.796875,-3.171875 C 4.0625,-3.171875 4.34375,-3.40625 4.34375,-3.765625 C 4.34375,-4.109375 4.03125,-4.40625 3.515625,-4.40625 C 2.875,-4.40625 2.4375,-3.921875 2.25,-3.640625 C 2.15625,-4.09375 1.796875,-4.40625 1.328125,-4.40625 C 0.875,-4.40625 0.6875,-4.015625 0.59375,-3.84375 C 0.421875,-3.5 0.296875,-2.90625 0.296875,-2.875 C 0.296875,-2.765625 0.390625,-2.765625 0.40625,-2.765625 C 0.515625,-2.765625 0.515625,-2.78125 0.578125,-3 C 0.75,-3.703125 0.953125,-4.1875 1.3125,-4.1875 C 1.46875,-4.1875 1.609375,-4.109375 1.609375,-3.734375 C 1.609375,-3.515625 1.578125,-3.40625 1.453125,-2.890625 L 0.875,-0.59375 z"
               style="stroke:none" />
          </symbol>
          <symbol
             id="textext-0efdccd8-2"
             overflow="visible"
             style="overflow:visible">
            <path
               id="path4781"
               d=""
               style="stroke:none" />
          </symbol>
          <symbol
             id="textext-0efdccd8-3"
             overflow="visible"
             style="overflow:visible">
            <path
               id="path4784"
               d="M 2.03125,-3.296875 C 2.0625,-3.359375 2.078125,-3.421875 2.078125,-3.515625 C 2.078125,-3.734375 1.890625,-3.890625 1.671875,-3.890625 C 1.390625,-3.890625 1.328125,-3.671875 1.296875,-3.578125 L 0.375,-0.5625 C 0.359375,-0.53125 0.328125,-0.453125 0.328125,-0.4375 C 0.328125,-0.359375 0.546875,-0.28125 0.609375,-0.28125 C 0.65625,-0.28125 0.6875,-0.328125 0.703125,-0.390625 L 2.03125,-3.296875 z"
               style="stroke:none" />
          </symbol>
        </g>
      </defs>
      <g
         id="textext-0efdccd8-4">
        <g
           id="g4787"
           style="fill:#000000;fill-opacity:1">
          <use
             id="use4789"
             y="134.765"
             x="223.43201"
             xlink:href="#textext-0efdccd8-1"
             width="283.46457"
             height="212.59842" />
        </g>
        <g
           id="g4791"
           style="fill:#000000;fill-opacity:1">
          <use
             id="use4793"
             y="131.14999"
             x="228.20399"
             xlink:href="#textext-0efdccd8-3"
             width="283.46457"
             height="212.59842" />
        </g>
      </g>
    </g>
  </g>
</svg>
