<?xml version="1.0" encoding="UTF-8" standalone="no"?>
<!-- Created with Inkscape (http://www.inkscape.org/) -->
<svg
   xmlns:ns0="http://www.iki.fi/pav/software/textext/"
   xmlns:dc="http://purl.org/dc/elements/1.1/"
   xmlns:cc="http://creativecommons.org/ns#"
   xmlns:rdf="http://www.w3.org/1999/02/22-rdf-syntax-ns#"
   xmlns:svg="http://www.w3.org/2000/svg"
   xmlns="http://www.w3.org/2000/svg"
   xmlns:xlink="http://www.w3.org/1999/xlink"
   xmlns:sodipodi="http://sodipodi.sourceforge.net/DTD/sodipodi-0.dtd"
   xmlns:inkscape="http://www.inkscape.org/namespaces/inkscape"
   width="248.03149"
   height="177.16534"
   id="svg2"
   sodipodi:version="0.32"
   inkscape:version="0.46"
   version="1.0"
   sodipodi:docname="chap7-fig5.svg"
   inkscape:output_extension="org.inkscape.output.svg.inkscape">
  <sodipodi:namedview
     id="base"
     pagecolor="#ffffff"
     bordercolor="#666666"
     borderopacity="1.0"
     gridtolerance="10000"
     guidetolerance="10"
     objecttolerance="10"
     inkscape:pageopacity="0.0"
     inkscape:pageshadow="2"
     inkscape:zoom="2.8"
     inkscape:cx="160.60231"
     inkscape:cy="89.18827"
     inkscape:document-units="px"
     inkscape:current-layer="layer1"
     showgrid="false"
     units="cm"
     inkscape:window-width="1014"
     inkscape:window-height="726"
     inkscape:window-x="0"
     inkscape:window-y="27" />
  <defs
     id="defs4">
    <inkscape:perspective
       id="perspective10"
       inkscape:persp3d-origin="372.04724 : 350.78739 : 1"
       inkscape:vp_z="744.09448 : 526.18109 : 1"
       inkscape:vp_y="0 : 1000 : 0"
       inkscape:vp_x="0 : 526.18109 : 1"
       sodipodi:type="inkscape:persp3d" />
  </defs>
  <metadata
     id="metadata7">
    <rdf:RDF>
      <cc:Work
         rdf:about="">
        <dc:format>image/svg+xml</dc:format>
        <dc:type
           rdf:resource="http://purl.org/dc/dcmitype/StillImage" />
      </cc:Work>
    </rdf:RDF>
  </metadata>
  <g
     id="layer1"
     inkscape:groupmode="layer"
     inkscape:label="Layer 1">
    <path
       sodipodi:nodetypes="cccc"
       id="path2383"
       d="M 45.714286,135.37963 L 172.85714,17.165344 C 174.19846,58.610413 199.83804,83.248527 230.74269,110.71612 C 167.60257,119.66928 107.1217,127.29282 45.714286,135.37963 z"
       style="fill:none;fill-rule:evenodd;stroke:#000000;stroke-width:0.9;stroke-linecap:butt;stroke-linejoin:miter;stroke-opacity:1;stroke-miterlimit:4;stroke-dasharray:none" />
    <path
       sodipodi:nodetypes="cc"
       id="path2385"
       d="M 45.714286,135.37963 L 192.85714,69.665344"
       style="fill:none;fill-rule:evenodd;stroke:#000000;stroke-width:0.9;stroke-linecap:butt;stroke-linejoin:miter;stroke-opacity:1;stroke-miterlimit:4;stroke-dasharray:none" />
    <path
       sodipodi:nodetypes="cs"
       id="path3157"
       d="M 125.71429,58.951059 C 125.20807,59.092938 136.33874,94.066824 163.92857,120.73677"
       style="fill:none;fill-rule:evenodd;stroke:#000000;stroke-width:0.9;stroke-linecap:butt;stroke-linejoin:miter;stroke-opacity:1;stroke-miterlimit:4;stroke-dasharray:none" />
    <path
       transform="translate(29.285714,76.428572)"
       d="M 18.214287,58.593914 A 1.4285715,1.4285715 0 1 1 15.357144,58.593914 A 1.4285715,1.4285715 0 1 1 18.214287,58.593914 z"
       sodipodi:ry="1.4285715"
       sodipodi:rx="1.4285715"
       sodipodi:cy="58.593914"
       sodipodi:cx="16.785715"
       id="path3159"
       style="opacity:1;fill:#000000;fill-opacity:1;fill-rule:evenodd;stroke:#000000;stroke-width:1px;stroke-linecap:butt;stroke-linejoin:miter;marker:none;marker-start:none;marker-mid:none;marker-end:none;stroke-miterlimit:4;stroke-dasharray:none;stroke-dashoffset:0;stroke-opacity:1;visibility:visible;display:inline;overflow:visible;enable-background:accumulate"
       sodipodi:type="arc" />
    <path
       sodipodi:type="arc"
       style="opacity:1;fill:#000000;fill-opacity:1;fill-rule:evenodd;stroke:#000000;stroke-width:1px;stroke-linecap:butt;stroke-linejoin:miter;marker:none;marker-start:none;marker-mid:none;marker-end:none;stroke-miterlimit:4;stroke-dasharray:none;stroke-dashoffset:0;stroke-opacity:1;visibility:visible;display:inline;overflow:visible;enable-background:accumulate"
       id="path3161"
       sodipodi:cx="16.785715"
       sodipodi:cy="58.593914"
       sodipodi:rx="1.4285715"
       sodipodi:ry="1.4285715"
       d="M 18.214287,58.593914 A 1.4285715,1.4285715 0 1 1 15.357144,58.593914 A 1.4285715,1.4285715 0 1 1 18.214287,58.593914 z"
       transform="translate(155.85714,-41.214285)" />
    <path
       transform="translate(109.42857,2.3571434)"
       d="M 18.214287,58.593914 A 1.4285715,1.4285715 0 1 1 15.357144,58.593914 A 1.4285715,1.4285715 0 1 1 18.214287,58.593914 z"
       sodipodi:ry="1.4285715"
       sodipodi:rx="1.4285715"
       sodipodi:cy="58.593914"
       sodipodi:cx="16.785715"
       id="path3163"
       style="opacity:1;fill:#000000;fill-opacity:1;fill-rule:evenodd;stroke:#000000;stroke-width:1px;stroke-linecap:butt;stroke-linejoin:miter;marker:none;marker-start:none;marker-mid:none;marker-end:none;stroke-miterlimit:4;stroke-dasharray:none;stroke-dashoffset:0;stroke-opacity:1;visibility:visible;display:inline;overflow:visible;enable-background:accumulate"
       sodipodi:type="arc" />
    <path
       sodipodi:type="arc"
       style="opacity:1;fill:#000000;fill-opacity:1;fill-rule:evenodd;stroke:#000000;stroke-width:1px;stroke-linecap:butt;stroke-linejoin:miter;marker:none;marker-start:none;marker-mid:none;marker-end:none;stroke-miterlimit:4;stroke-dasharray:none;stroke-dashoffset:0;stroke-opacity:1;visibility:visible;display:inline;overflow:visible;enable-background:accumulate"
       id="path3165"
       sodipodi:cx="16.785715"
       sodipodi:cy="58.593914"
       sodipodi:rx="1.4285715"
       sodipodi:ry="1.4285715"
       d="M 18.214287,58.593914 A 1.4285715,1.4285715 0 1 1 15.357144,58.593914 A 1.4285715,1.4285715 0 1 1 18.214287,58.593914 z"
       transform="translate(124.42857,34.214286)" />
    <path
       transform="translate(175.5,11.357144)"
       d="M 18.214287,58.593914 A 1.4285715,1.4285715 0 1 1 15.357144,58.593914 A 1.4285715,1.4285715 0 1 1 18.214287,58.593914 z"
       sodipodi:ry="1.4285715"
       sodipodi:rx="1.4285715"
       sodipodi:cy="58.593914"
       sodipodi:cx="16.785715"
       id="path3167"
       style="opacity:1;fill:#000000;fill-opacity:1;fill-rule:evenodd;stroke:#000000;stroke-width:1px;stroke-linecap:butt;stroke-linejoin:miter;marker:none;marker-start:none;marker-mid:none;marker-end:none;stroke-miterlimit:4;stroke-dasharray:none;stroke-dashoffset:0;stroke-opacity:1;visibility:visible;display:inline;overflow:visible;enable-background:accumulate"
       sodipodi:type="arc" />
    <path
       sodipodi:type="arc"
       style="opacity:1;fill:#000000;fill-opacity:1;fill-rule:evenodd;stroke:#000000;stroke-width:1px;stroke-linecap:butt;stroke-linejoin:miter;marker:none;marker-start:none;marker-mid:none;marker-end:none;stroke-miterlimit:4;stroke-dasharray:none;stroke-dashoffset:0;stroke-opacity:1;visibility:visible;display:inline;overflow:visible;enable-background:accumulate"
       id="path3169"
       sodipodi:cx="16.785715"
       sodipodi:cy="58.593914"
       sodipodi:rx="1.4285715"
       sodipodi:ry="1.4285715"
       d="M 18.214287,58.593914 A 1.4285715,1.4285715 0 1 1 15.357144,58.593914 A 1.4285715,1.4285715 0 1 1 18.214287,58.593914 z"
       transform="translate(213.35714,51.928571)" />
    <path
       transform="translate(147.07143,61.214286)"
       d="M 18.214287,58.593914 A 1.4285715,1.4285715 0 1 1 15.357144,58.593914 A 1.4285715,1.4285715 0 1 1 18.214287,58.593914 z"
       sodipodi:ry="1.4285715"
       sodipodi:rx="1.4285715"
       sodipodi:cy="58.593914"
       sodipodi:cx="16.785715"
       id="path3171"
       style="opacity:1;fill:#000000;fill-opacity:1;fill-rule:evenodd;stroke:#000000;stroke-width:1px;stroke-linecap:butt;stroke-linejoin:miter;marker:none;marker-start:none;marker-mid:none;marker-end:none;stroke-miterlimit:4;stroke-dasharray:none;stroke-dashoffset:0;stroke-opacity:1;visibility:visible;display:inline;overflow:visible;enable-background:accumulate"
       sodipodi:type="arc" />
    <g
       id="g3189"
       ns0:preamble=""
       ns0:text="$(m,n,t)$\n"
       transform="matrix(1.2,0,0,1.2,-190,-103.21429)">
      <defs
         id="defs3191">
        <g
           id="g3193">
          <symbol
             id="textext-e4c4e833-0"
             overflow="visible"
             style="overflow:visible">
            <path
               id="path3196"
               d=""
               style="stroke:none" />
          </symbol>
          <symbol
             id="textext-e4c4e833-1"
             overflow="visible"
             style="overflow:visible">
            <path
               id="path3199"
               d="M 3.296875,2.390625 C 3.296875,2.359375 3.296875,2.34375 3.125,2.171875 C 1.890625,0.921875 1.5625,-0.96875 1.5625,-2.5 C 1.5625,-4.234375 1.9375,-5.96875 3.171875,-7.203125 C 3.296875,-7.328125 3.296875,-7.34375 3.296875,-7.375 C 3.296875,-7.453125 3.265625,-7.484375 3.203125,-7.484375 C 3.09375,-7.484375 2.203125,-6.796875 1.609375,-5.53125 C 1.109375,-4.4375 0.984375,-3.328125 0.984375,-2.5 C 0.984375,-1.71875 1.09375,-0.515625 1.640625,0.625 C 2.25,1.84375 3.09375,2.5 3.203125,2.5 C 3.265625,2.5 3.296875,2.46875 3.296875,2.390625 z"
               style="stroke:none" />
          </symbol>
          <symbol
             id="textext-e4c4e833-2"
             overflow="visible"
             style="overflow:visible">
            <path
               id="path3202"
               d="M 2.875,-2.5 C 2.875,-3.265625 2.765625,-4.46875 2.21875,-5.609375 C 1.625,-6.828125 0.765625,-7.484375 0.671875,-7.484375 C 0.609375,-7.484375 0.5625,-7.4375 0.5625,-7.375 C 0.5625,-7.34375 0.5625,-7.328125 0.75,-7.140625 C 1.734375,-6.15625 2.296875,-4.578125 2.296875,-2.5 C 2.296875,-0.78125 1.9375,0.96875 0.703125,2.21875 C 0.5625,2.34375 0.5625,2.359375 0.5625,2.390625 C 0.5625,2.453125 0.609375,2.5 0.671875,2.5 C 0.765625,2.5 1.671875,1.8125 2.25,0.546875 C 2.765625,-0.546875 2.875,-1.65625 2.875,-2.5 z"
               style="stroke:none" />
          </symbol>
          <symbol
             id="textext-e4c4e833-3"
             overflow="visible"
             style="overflow:visible">
            <path
               id="path3205"
               d=""
               style="stroke:none" />
          </symbol>
          <symbol
             id="textext-e4c4e833-4"
             overflow="visible"
             style="overflow:visible">
            <path
               id="path3208"
               d="M 0.875,-0.59375 C 0.84375,-0.4375 0.78125,-0.203125 0.78125,-0.15625 C 0.78125,0.015625 0.921875,0.109375 1.078125,0.109375 C 1.203125,0.109375 1.375,0.03125 1.453125,-0.171875 C 1.453125,-0.1875 1.578125,-0.65625 1.640625,-0.90625 C 1.703125,-1.203125 1.78125,-1.5 1.859375,-1.796875 C 1.90625,-2.03125 1.96875,-2.25 2.03125,-2.46875 C 2.0625,-2.640625 2.140625,-2.9375 2.15625,-2.96875 C 2.296875,-3.28125 2.828125,-4.1875 3.78125,-4.1875 C 4.234375,-4.1875 4.3125,-3.8125 4.3125,-3.484375 C 4.3125,-3.234375 4.25,-2.953125 4.171875,-2.65625 C 4.046875,-2.15625 4,-1.953125 3.890625,-1.5 C 3.78125,-1.140625 3.78125,-1.078125 3.6875,-0.75 C 3.65625,-0.546875 3.5625,-0.203125 3.5625,-0.15625 C 3.5625,0.015625 3.703125,0.109375 3.84375,0.109375 C 4.15625,0.109375 4.21875,-0.140625 4.296875,-0.453125 C 4.4375,-1.015625 4.8125,-2.46875 4.890625,-2.859375 C 4.921875,-2.984375 5.453125,-4.1875 6.546875,-4.1875 C 6.96875,-4.1875 7.078125,-3.84375 7.078125,-3.484375 C 7.078125,-2.921875 6.65625,-1.78125 6.453125,-1.25 C 6.375,-1.015625 6.328125,-0.90625 6.328125,-0.703125 C 6.328125,-0.234375 6.671875,0.109375 7.140625,0.109375 C 8.078125,0.109375 8.453125,-1.34375 8.453125,-1.421875 C 8.453125,-1.53125 8.359375,-1.53125 8.328125,-1.53125 C 8.234375,-1.53125 8.234375,-1.5 8.1875,-1.34375 C 8.03125,-0.8125 7.71875,-0.109375 7.171875,-0.109375 C 7,-0.109375 6.921875,-0.203125 6.921875,-0.4375 C 6.921875,-0.6875 7.015625,-0.921875 7.109375,-1.140625 C 7.296875,-1.671875 7.71875,-2.765625 7.71875,-3.34375 C 7.71875,-3.984375 7.3125,-4.40625 6.5625,-4.40625 C 5.828125,-4.40625 5.3125,-3.96875 4.9375,-3.4375 C 4.9375,-3.5625 4.90625,-3.90625 4.625,-4.140625 C 4.375,-4.359375 4.0625,-4.40625 3.8125,-4.40625 C 2.90625,-4.40625 2.421875,-3.765625 2.25,-3.53125 C 2.203125,-4.109375 1.78125,-4.40625 1.328125,-4.40625 C 0.875,-4.40625 0.6875,-4.015625 0.59375,-3.84375 C 0.421875,-3.484375 0.296875,-2.90625 0.296875,-2.875 C 0.296875,-2.765625 0.390625,-2.765625 0.40625,-2.765625 C 0.515625,-2.765625 0.515625,-2.78125 0.578125,-3 C 0.75,-3.703125 0.953125,-4.1875 1.3125,-4.1875 C 1.46875,-4.1875 1.609375,-4.109375 1.609375,-3.734375 C 1.609375,-3.515625 1.578125,-3.40625 1.453125,-2.890625 L 0.875,-0.59375 z"
               style="stroke:none" />
          </symbol>
          <symbol
             id="textext-e4c4e833-5"
             overflow="visible"
             style="overflow:visible">
            <path
               id="path3211"
               d="M 2.03125,-0.015625 C 2.03125,-0.671875 1.78125,-1.0625 1.390625,-1.0625 C 1.0625,-1.0625 0.859375,-0.8125 0.859375,-0.53125 C 0.859375,-0.265625 1.0625,0 1.390625,0 C 1.5,0 1.640625,-0.046875 1.734375,-0.125 C 1.765625,-0.15625 1.78125,-0.15625 1.78125,-0.15625 C 1.796875,-0.15625 1.796875,-0.15625 1.796875,-0.015625 C 1.796875,0.734375 1.453125,1.328125 1.125,1.65625 C 1.015625,1.765625 1.015625,1.78125 1.015625,1.8125 C 1.015625,1.890625 1.0625,1.921875 1.109375,1.921875 C 1.21875,1.921875 2.03125,1.15625 2.03125,-0.015625 z"
               style="stroke:none" />
          </symbol>
          <symbol
             id="textext-e4c4e833-6"
             overflow="visible"
             style="overflow:visible">
            <path
               id="path3214"
               d="M 0.875,-0.59375 C 0.84375,-0.4375 0.78125,-0.203125 0.78125,-0.15625 C 0.78125,0.015625 0.921875,0.109375 1.078125,0.109375 C 1.203125,0.109375 1.375,0.03125 1.453125,-0.171875 C 1.453125,-0.1875 1.578125,-0.65625 1.640625,-0.90625 C 1.703125,-1.203125 1.78125,-1.5 1.859375,-1.796875 C 1.90625,-2.03125 1.96875,-2.25 2.03125,-2.46875 C 2.0625,-2.640625 2.140625,-2.9375 2.15625,-2.96875 C 2.296875,-3.28125 2.828125,-4.1875 3.78125,-4.1875 C 4.234375,-4.1875 4.3125,-3.8125 4.3125,-3.484375 C 4.3125,-2.875 3.828125,-1.59375 3.671875,-1.171875 C 3.578125,-0.9375 3.5625,-0.8125 3.5625,-0.703125 C 3.5625,-0.234375 3.921875,0.109375 4.390625,0.109375 C 5.328125,0.109375 5.6875,-1.34375 5.6875,-1.421875 C 5.6875,-1.53125 5.609375,-1.53125 5.578125,-1.53125 C 5.46875,-1.53125 5.46875,-1.5 5.421875,-1.34375 C 5.21875,-0.671875 4.890625,-0.109375 4.40625,-0.109375 C 4.234375,-0.109375 4.171875,-0.203125 4.171875,-0.4375 C 4.171875,-0.6875 4.25,-0.921875 4.34375,-1.140625 C 4.53125,-1.671875 4.953125,-2.765625 4.953125,-3.34375 C 4.953125,-4 4.53125,-4.40625 3.8125,-4.40625 C 2.90625,-4.40625 2.421875,-3.765625 2.25,-3.53125 C 2.203125,-4.09375 1.796875,-4.40625 1.328125,-4.40625 C 0.875,-4.40625 0.6875,-4.015625 0.59375,-3.84375 C 0.421875,-3.5 0.296875,-2.90625 0.296875,-2.875 C 0.296875,-2.765625 0.390625,-2.765625 0.40625,-2.765625 C 0.515625,-2.765625 0.515625,-2.78125 0.578125,-3 C 0.75,-3.703125 0.953125,-4.1875 1.3125,-4.1875 C 1.5,-4.1875 1.609375,-4.0625 1.609375,-3.734375 C 1.609375,-3.515625 1.578125,-3.40625 1.453125,-2.890625 L 0.875,-0.59375 z"
               style="stroke:none" />
          </symbol>
          <symbol
             id="textext-e4c4e833-7"
             overflow="visible"
             style="overflow:visible">
            <path
               id="path3217"
               d="M 2.046875,-3.984375 L 2.984375,-3.984375 C 3.1875,-3.984375 3.296875,-3.984375 3.296875,-4.1875 C 3.296875,-4.296875 3.1875,-4.296875 3.015625,-4.296875 L 2.140625,-4.296875 C 2.5,-5.71875 2.546875,-5.90625 2.546875,-5.96875 C 2.546875,-6.140625 2.421875,-6.234375 2.25,-6.234375 C 2.21875,-6.234375 1.9375,-6.234375 1.859375,-5.875 L 1.46875,-4.296875 L 0.53125,-4.296875 C 0.328125,-4.296875 0.234375,-4.296875 0.234375,-4.109375 C 0.234375,-3.984375 0.3125,-3.984375 0.515625,-3.984375 L 1.390625,-3.984375 C 0.671875,-1.15625 0.625,-0.984375 0.625,-0.8125 C 0.625,-0.265625 1,0.109375 1.546875,0.109375 C 2.5625,0.109375 3.125,-1.34375 3.125,-1.421875 C 3.125,-1.53125 3.046875,-1.53125 3.015625,-1.53125 C 2.921875,-1.53125 2.90625,-1.5 2.859375,-1.390625 C 2.4375,-0.34375 1.90625,-0.109375 1.5625,-0.109375 C 1.359375,-0.109375 1.25,-0.234375 1.25,-0.5625 C 1.25,-0.8125 1.28125,-0.875 1.3125,-1.046875 L 2.046875,-3.984375 z"
               style="stroke:none" />
          </symbol>
        </g>
      </defs>
      <g
         id="textext-e4c4e833-8">
        <g
           id="g3220"
           style="fill:#000000;fill-opacity:1">
          <use
             id="use3222"
             y="134.765"
             x="223.43201"
             xlink:href="#textext-e4c4e833-1"
             width="248.03149"
             height="177.16534" />
        </g>
        <g
           id="g3224"
           style="fill:#000000;fill-opacity:1">
          <use
             id="use3226"
             y="134.765"
             x="227.306"
             xlink:href="#textext-e4c4e833-4"
             width="248.03149"
             height="177.16534" />
          <use
             id="use3228"
             y="134.765"
             x="236.05316"
             xlink:href="#textext-e4c4e833-5"
             width="248.03149"
             height="177.16534" />
        </g>
        <g
           id="g3230"
           style="fill:#000000;fill-opacity:1">
          <use
             id="use3232"
             y="134.765"
             x="240.48453"
             xlink:href="#textext-e4c4e833-6"
             width="248.03149"
             height="177.16534" />
          <use
             id="use3234"
             y="134.765"
             x="246.46408"
             xlink:href="#textext-e4c4e833-5"
             width="248.03149"
             height="177.16534" />
        </g>
        <g
           id="g3236"
           style="fill:#000000;fill-opacity:1">
          <use
             id="use3238"
             y="134.765"
             x="250.88548"
             xlink:href="#textext-e4c4e833-7"
             width="248.03149"
             height="177.16534" />
        </g>
        <g
           id="g3240"
           style="fill:#000000;fill-opacity:1">
          <use
             id="use3242"
             y="134.765"
             x="254.487"
             xlink:href="#textext-e4c4e833-2"
             width="248.03149"
             height="177.16534" />
        </g>
      </g>
    </g>
    <g
       transform="matrix(1.2,0,0,1.2,-125.35714,-26.071429)"
       ns0:text="$(m,n\',t)$"
       ns0:preamble=""
       id="g3338">
      <defs
         id="defs3340">
        <g
           id="g3342">
          <symbol
             style="overflow:visible"
             overflow="visible"
             id="textext-c8c2df7d-0">
            <path
               style="stroke:none"
               d=""
               id="path3345" />
          </symbol>
          <symbol
             style="overflow:visible"
             overflow="visible"
             id="textext-c8c2df7d-1">
            <path
               style="stroke:none"
               d="M 3.296875,2.390625 C 3.296875,2.359375 3.296875,2.34375 3.125,2.171875 C 1.890625,0.921875 1.5625,-0.96875 1.5625,-2.5 C 1.5625,-4.234375 1.9375,-5.96875 3.171875,-7.203125 C 3.296875,-7.328125 3.296875,-7.34375 3.296875,-7.375 C 3.296875,-7.453125 3.265625,-7.484375 3.203125,-7.484375 C 3.09375,-7.484375 2.203125,-6.796875 1.609375,-5.53125 C 1.109375,-4.4375 0.984375,-3.328125 0.984375,-2.5 C 0.984375,-1.71875 1.09375,-0.515625 1.640625,0.625 C 2.25,1.84375 3.09375,2.5 3.203125,2.5 C 3.265625,2.5 3.296875,2.46875 3.296875,2.390625 z"
               id="path3348" />
          </symbol>
          <symbol
             style="overflow:visible"
             overflow="visible"
             id="textext-c8c2df7d-2">
            <path
               style="stroke:none"
               d="M 2.875,-2.5 C 2.875,-3.265625 2.765625,-4.46875 2.21875,-5.609375 C 1.625,-6.828125 0.765625,-7.484375 0.671875,-7.484375 C 0.609375,-7.484375 0.5625,-7.4375 0.5625,-7.375 C 0.5625,-7.34375 0.5625,-7.328125 0.75,-7.140625 C 1.734375,-6.15625 2.296875,-4.578125 2.296875,-2.5 C 2.296875,-0.78125 1.9375,0.96875 0.703125,2.21875 C 0.5625,2.34375 0.5625,2.359375 0.5625,2.390625 C 0.5625,2.453125 0.609375,2.5 0.671875,2.5 C 0.765625,2.5 1.671875,1.8125 2.25,0.546875 C 2.765625,-0.546875 2.875,-1.65625 2.875,-2.5 z"
               id="path3351" />
          </symbol>
          <symbol
             style="overflow:visible"
             overflow="visible"
             id="textext-c8c2df7d-3">
            <path
               style="stroke:none"
               d=""
               id="path3354" />
          </symbol>
          <symbol
             style="overflow:visible"
             overflow="visible"
             id="textext-c8c2df7d-4">
            <path
               style="stroke:none"
               d="M 0.875,-0.59375 C 0.84375,-0.4375 0.78125,-0.203125 0.78125,-0.15625 C 0.78125,0.015625 0.921875,0.109375 1.078125,0.109375 C 1.203125,0.109375 1.375,0.03125 1.453125,-0.171875 C 1.453125,-0.1875 1.578125,-0.65625 1.640625,-0.90625 C 1.703125,-1.203125 1.78125,-1.5 1.859375,-1.796875 C 1.90625,-2.03125 1.96875,-2.25 2.03125,-2.46875 C 2.0625,-2.640625 2.140625,-2.9375 2.15625,-2.96875 C 2.296875,-3.28125 2.828125,-4.1875 3.78125,-4.1875 C 4.234375,-4.1875 4.3125,-3.8125 4.3125,-3.484375 C 4.3125,-3.234375 4.25,-2.953125 4.171875,-2.65625 C 4.046875,-2.15625 4,-1.953125 3.890625,-1.5 C 3.78125,-1.140625 3.78125,-1.078125 3.6875,-0.75 C 3.65625,-0.546875 3.5625,-0.203125 3.5625,-0.15625 C 3.5625,0.015625 3.703125,0.109375 3.84375,0.109375 C 4.15625,0.109375 4.21875,-0.140625 4.296875,-0.453125 C 4.4375,-1.015625 4.8125,-2.46875 4.890625,-2.859375 C 4.921875,-2.984375 5.453125,-4.1875 6.546875,-4.1875 C 6.96875,-4.1875 7.078125,-3.84375 7.078125,-3.484375 C 7.078125,-2.921875 6.65625,-1.78125 6.453125,-1.25 C 6.375,-1.015625 6.328125,-0.90625 6.328125,-0.703125 C 6.328125,-0.234375 6.671875,0.109375 7.140625,0.109375 C 8.078125,0.109375 8.453125,-1.34375 8.453125,-1.421875 C 8.453125,-1.53125 8.359375,-1.53125 8.328125,-1.53125 C 8.234375,-1.53125 8.234375,-1.5 8.1875,-1.34375 C 8.03125,-0.8125 7.71875,-0.109375 7.171875,-0.109375 C 7,-0.109375 6.921875,-0.203125 6.921875,-0.4375 C 6.921875,-0.6875 7.015625,-0.921875 7.109375,-1.140625 C 7.296875,-1.671875 7.71875,-2.765625 7.71875,-3.34375 C 7.71875,-3.984375 7.3125,-4.40625 6.5625,-4.40625 C 5.828125,-4.40625 5.3125,-3.96875 4.9375,-3.4375 C 4.9375,-3.5625 4.90625,-3.90625 4.625,-4.140625 C 4.375,-4.359375 4.0625,-4.40625 3.8125,-4.40625 C 2.90625,-4.40625 2.421875,-3.765625 2.25,-3.53125 C 2.203125,-4.109375 1.78125,-4.40625 1.328125,-4.40625 C 0.875,-4.40625 0.6875,-4.015625 0.59375,-3.84375 C 0.421875,-3.484375 0.296875,-2.90625 0.296875,-2.875 C 0.296875,-2.765625 0.390625,-2.765625 0.40625,-2.765625 C 0.515625,-2.765625 0.515625,-2.78125 0.578125,-3 C 0.75,-3.703125 0.953125,-4.1875 1.3125,-4.1875 C 1.46875,-4.1875 1.609375,-4.109375 1.609375,-3.734375 C 1.609375,-3.515625 1.578125,-3.40625 1.453125,-2.890625 L 0.875,-0.59375 z"
               id="path3357" />
          </symbol>
          <symbol
             style="overflow:visible"
             overflow="visible"
             id="textext-c8c2df7d-5">
            <path
               style="stroke:none"
               d="M 2.03125,-0.015625 C 2.03125,-0.671875 1.78125,-1.0625 1.390625,-1.0625 C 1.0625,-1.0625 0.859375,-0.8125 0.859375,-0.53125 C 0.859375,-0.265625 1.0625,0 1.390625,0 C 1.5,0 1.640625,-0.046875 1.734375,-0.125 C 1.765625,-0.15625 1.78125,-0.15625 1.78125,-0.15625 C 1.796875,-0.15625 1.796875,-0.15625 1.796875,-0.015625 C 1.796875,0.734375 1.453125,1.328125 1.125,1.65625 C 1.015625,1.765625 1.015625,1.78125 1.015625,1.8125 C 1.015625,1.890625 1.0625,1.921875 1.109375,1.921875 C 1.21875,1.921875 2.03125,1.15625 2.03125,-0.015625 z"
               id="path3360" />
          </symbol>
          <symbol
             style="overflow:visible"
             overflow="visible"
             id="textext-c8c2df7d-6">
            <path
               style="stroke:none"
               d="M 0.875,-0.59375 C 0.84375,-0.4375 0.78125,-0.203125 0.78125,-0.15625 C 0.78125,0.015625 0.921875,0.109375 1.078125,0.109375 C 1.203125,0.109375 1.375,0.03125 1.453125,-0.171875 C 1.453125,-0.1875 1.578125,-0.65625 1.640625,-0.90625 C 1.703125,-1.203125 1.78125,-1.5 1.859375,-1.796875 C 1.90625,-2.03125 1.96875,-2.25 2.03125,-2.46875 C 2.0625,-2.640625 2.140625,-2.9375 2.15625,-2.96875 C 2.296875,-3.28125 2.828125,-4.1875 3.78125,-4.1875 C 4.234375,-4.1875 4.3125,-3.8125 4.3125,-3.484375 C 4.3125,-2.875 3.828125,-1.59375 3.671875,-1.171875 C 3.578125,-0.9375 3.5625,-0.8125 3.5625,-0.703125 C 3.5625,-0.234375 3.921875,0.109375 4.390625,0.109375 C 5.328125,0.109375 5.6875,-1.34375 5.6875,-1.421875 C 5.6875,-1.53125 5.609375,-1.53125 5.578125,-1.53125 C 5.46875,-1.53125 5.46875,-1.5 5.421875,-1.34375 C 5.21875,-0.671875 4.890625,-0.109375 4.40625,-0.109375 C 4.234375,-0.109375 4.171875,-0.203125 4.171875,-0.4375 C 4.171875,-0.6875 4.25,-0.921875 4.34375,-1.140625 C 4.53125,-1.671875 4.953125,-2.765625 4.953125,-3.34375 C 4.953125,-4 4.53125,-4.40625 3.8125,-4.40625 C 2.90625,-4.40625 2.421875,-3.765625 2.25,-3.53125 C 2.203125,-4.09375 1.796875,-4.40625 1.328125,-4.40625 C 0.875,-4.40625 0.6875,-4.015625 0.59375,-3.84375 C 0.421875,-3.5 0.296875,-2.90625 0.296875,-2.875 C 0.296875,-2.765625 0.390625,-2.765625 0.40625,-2.765625 C 0.515625,-2.765625 0.515625,-2.78125 0.578125,-3 C 0.75,-3.703125 0.953125,-4.1875 1.3125,-4.1875 C 1.5,-4.1875 1.609375,-4.0625 1.609375,-3.734375 C 1.609375,-3.515625 1.578125,-3.40625 1.453125,-2.890625 L 0.875,-0.59375 z"
               id="path3363" />
          </symbol>
          <symbol
             style="overflow:visible"
             overflow="visible"
             id="textext-c8c2df7d-7">
            <path
               style="stroke:none"
               d="M 2.046875,-3.984375 L 2.984375,-3.984375 C 3.1875,-3.984375 3.296875,-3.984375 3.296875,-4.1875 C 3.296875,-4.296875 3.1875,-4.296875 3.015625,-4.296875 L 2.140625,-4.296875 C 2.5,-5.71875 2.546875,-5.90625 2.546875,-5.96875 C 2.546875,-6.140625 2.421875,-6.234375 2.25,-6.234375 C 2.21875,-6.234375 1.9375,-6.234375 1.859375,-5.875 L 1.46875,-4.296875 L 0.53125,-4.296875 C 0.328125,-4.296875 0.234375,-4.296875 0.234375,-4.109375 C 0.234375,-3.984375 0.3125,-3.984375 0.515625,-3.984375 L 1.390625,-3.984375 C 0.671875,-1.15625 0.625,-0.984375 0.625,-0.8125 C 0.625,-0.265625 1,0.109375 1.546875,0.109375 C 2.5625,0.109375 3.125,-1.34375 3.125,-1.421875 C 3.125,-1.53125 3.046875,-1.53125 3.015625,-1.53125 C 2.921875,-1.53125 2.90625,-1.5 2.859375,-1.390625 C 2.4375,-0.34375 1.90625,-0.109375 1.5625,-0.109375 C 1.359375,-0.109375 1.25,-0.234375 1.25,-0.5625 C 1.25,-0.8125 1.28125,-0.875 1.3125,-1.046875 L 2.046875,-3.984375 z"
               id="path3366" />
          </symbol>
          <symbol
             style="overflow:visible"
             overflow="visible"
             id="textext-c8c2df7d-8">
            <path
               style="stroke:none"
               d=""
               id="path3369" />
          </symbol>
          <symbol
             style="overflow:visible"
             overflow="visible"
             id="textext-c8c2df7d-9">
            <path
               style="stroke:none"
               d="M 2.03125,-3.296875 C 2.0625,-3.359375 2.078125,-3.421875 2.078125,-3.515625 C 2.078125,-3.734375 1.890625,-3.890625 1.671875,-3.890625 C 1.390625,-3.890625 1.328125,-3.671875 1.296875,-3.578125 L 0.375,-0.5625 C 0.359375,-0.53125 0.328125,-0.453125 0.328125,-0.4375 C 0.328125,-0.359375 0.546875,-0.28125 0.609375,-0.28125 C 0.65625,-0.28125 0.6875,-0.328125 0.703125,-0.390625 L 2.03125,-3.296875 z"
               id="path3372" />
          </symbol>
        </g>
      </defs>
      <g
         id="textext-c8c2df7d-10">
        <g
           style="fill:#000000;fill-opacity:1"
           id="g3375">
          <use
             height="177.16534"
             width="248.03149"
             xlink:href="#textext-c8c2df7d-1"
             x="223.43201"
             y="134.765"
             id="use3377" />
        </g>
        <g
           style="fill:#000000;fill-opacity:1"
           id="g3379">
          <use
             height="177.16534"
             width="248.03149"
             xlink:href="#textext-c8c2df7d-4"
             x="227.306"
             y="134.765"
             id="use3381" />
          <use
             height="177.16534"
             width="248.03149"
             xlink:href="#textext-c8c2df7d-5"
             x="236.05316"
             y="134.765"
             id="use3383" />
        </g>
        <g
           style="fill:#000000;fill-opacity:1"
           id="g3385">
          <use
             height="177.16534"
             width="248.03149"
             xlink:href="#textext-c8c2df7d-6"
             x="240.48453"
             y="134.765"
             id="use3387" />
        </g>
        <g
           style="fill:#000000;fill-opacity:1"
           id="g3389">
          <use
             height="177.16534"
             width="248.03149"
             xlink:href="#textext-c8c2df7d-9"
             x="246.46201"
             y="131.14999"
             id="use3391" />
        </g>
        <g
           style="fill:#000000;fill-opacity:1"
           id="g3393">
          <use
             height="177.16534"
             width="248.03149"
             xlink:href="#textext-c8c2df7d-5"
             x="249.257"
             y="134.765"
             id="use3395" />
        </g>
        <g
           style="fill:#000000;fill-opacity:1"
           id="g3397">
          <use
             height="177.16534"
             width="248.03149"
             xlink:href="#textext-c8c2df7d-7"
             x="253.68837"
             y="134.765"
             id="use3399" />
        </g>
        <g
           style="fill:#000000;fill-opacity:1"
           id="g3401">
          <use
             height="177.16534"
             width="248.03149"
             xlink:href="#textext-c8c2df7d-2"
             x="257.28201"
             y="134.765"
             id="use3403" />
        </g>
      </g>
    </g>
    <g
       id="g3577"
       ns0:preamble=""
       ns0:text="$m$"
       transform="matrix(1.2,0,0,1.2,-227.14286,-16.785714)">
      <defs
         id="defs3579">
        <g
           id="g3581">
          <symbol
             id="textext-292592cf-0"
             overflow="visible"
             style="overflow:visible">
            <path
               id="path3584"
               d=""
               style="stroke:none" />
          </symbol>
          <symbol
             id="textext-292592cf-1"
             overflow="visible"
             style="overflow:visible">
            <path
               id="path3587"
               d="M 0.875,-0.59375 C 0.84375,-0.4375 0.78125,-0.203125 0.78125,-0.15625 C 0.78125,0.015625 0.921875,0.109375 1.078125,0.109375 C 1.203125,0.109375 1.375,0.03125 1.453125,-0.171875 C 1.453125,-0.1875 1.578125,-0.65625 1.640625,-0.90625 C 1.703125,-1.203125 1.78125,-1.5 1.859375,-1.796875 C 1.90625,-2.03125 1.96875,-2.25 2.03125,-2.46875 C 2.0625,-2.640625 2.140625,-2.9375 2.15625,-2.96875 C 2.296875,-3.28125 2.828125,-4.1875 3.78125,-4.1875 C 4.234375,-4.1875 4.3125,-3.8125 4.3125,-3.484375 C 4.3125,-3.234375 4.25,-2.953125 4.171875,-2.65625 C 4.046875,-2.15625 4,-1.953125 3.890625,-1.5 C 3.78125,-1.140625 3.78125,-1.078125 3.6875,-0.75 C 3.65625,-0.546875 3.5625,-0.203125 3.5625,-0.15625 C 3.5625,0.015625 3.703125,0.109375 3.84375,0.109375 C 4.15625,0.109375 4.21875,-0.140625 4.296875,-0.453125 C 4.4375,-1.015625 4.8125,-2.46875 4.890625,-2.859375 C 4.921875,-2.984375 5.453125,-4.1875 6.546875,-4.1875 C 6.96875,-4.1875 7.078125,-3.84375 7.078125,-3.484375 C 7.078125,-2.921875 6.65625,-1.78125 6.453125,-1.25 C 6.375,-1.015625 6.328125,-0.90625 6.328125,-0.703125 C 6.328125,-0.234375 6.671875,0.109375 7.140625,0.109375 C 8.078125,0.109375 8.453125,-1.34375 8.453125,-1.421875 C 8.453125,-1.53125 8.359375,-1.53125 8.328125,-1.53125 C 8.234375,-1.53125 8.234375,-1.5 8.1875,-1.34375 C 8.03125,-0.8125 7.71875,-0.109375 7.171875,-0.109375 C 7,-0.109375 6.921875,-0.203125 6.921875,-0.4375 C 6.921875,-0.6875 7.015625,-0.921875 7.109375,-1.140625 C 7.296875,-1.671875 7.71875,-2.765625 7.71875,-3.34375 C 7.71875,-3.984375 7.3125,-4.40625 6.5625,-4.40625 C 5.828125,-4.40625 5.3125,-3.96875 4.9375,-3.4375 C 4.9375,-3.5625 4.90625,-3.90625 4.625,-4.140625 C 4.375,-4.359375 4.0625,-4.40625 3.8125,-4.40625 C 2.90625,-4.40625 2.421875,-3.765625 2.25,-3.53125 C 2.203125,-4.109375 1.78125,-4.40625 1.328125,-4.40625 C 0.875,-4.40625 0.6875,-4.015625 0.59375,-3.84375 C 0.421875,-3.484375 0.296875,-2.90625 0.296875,-2.875 C 0.296875,-2.765625 0.390625,-2.765625 0.40625,-2.765625 C 0.515625,-2.765625 0.515625,-2.78125 0.578125,-3 C 0.75,-3.703125 0.953125,-4.1875 1.3125,-4.1875 C 1.46875,-4.1875 1.609375,-4.109375 1.609375,-3.734375 C 1.609375,-3.515625 1.578125,-3.40625 1.453125,-2.890625 L 0.875,-0.59375 z"
               style="stroke:none" />
          </symbol>
        </g>
      </defs>
      <g
         id="textext-292592cf-2">
        <g
           id="g3590"
           style="fill:#000000;fill-opacity:1">
          <use
             id="use3592"
             y="134.765"
             x="223.43201"
             xlink:href="#textext-292592cf-1"
             width="248.03149"
             height="177.16534" />
        </g>
      </g>
    </g>
    <g
       transform="matrix(1.2,0,0,1.2,-113.92857,-63.928572)"
       ns0:text="$f(t,\\alpha)$"
       ns0:preamble=""
       id="g3786">
      <defs
         id="defs3788">
        <g
           id="g3790">
          <symbol
             style="overflow:visible"
             overflow="visible"
             id="textext-73b0ffa4-0">
            <path
               style="stroke:none"
               d=""
               id="path3793" />
          </symbol>
          <symbol
             style="overflow:visible"
             overflow="visible"
             id="textext-73b0ffa4-1">
            <path
               style="stroke:none"
               d="M 3.65625,-3.984375 L 4.515625,-3.984375 C 4.71875,-3.984375 4.8125,-3.984375 4.8125,-4.1875 C 4.8125,-4.296875 4.71875,-4.296875 4.546875,-4.296875 L 3.71875,-4.296875 C 3.828125,-4.875 3.8125,-4.859375 3.921875,-5.4375 C 3.96875,-5.640625 4.109375,-6.34375 4.171875,-6.46875 C 4.25,-6.65625 4.421875,-6.8125 4.640625,-6.8125 C 4.671875,-6.8125 4.9375,-6.8125 5.125,-6.625 C 4.6875,-6.59375 4.578125,-6.234375 4.578125,-6.09375 C 4.578125,-5.859375 4.765625,-5.734375 4.953125,-5.734375 C 5.21875,-5.734375 5.5,-5.96875 5.5,-6.34375 C 5.5,-6.796875 5.046875,-7.03125 4.640625,-7.03125 C 4.296875,-7.03125 3.671875,-6.84375 3.375,-5.859375 C 3.3125,-5.65625 3.28125,-5.546875 3.046875,-4.296875 L 2.359375,-4.296875 C 2.15625,-4.296875 2.046875,-4.296875 2.046875,-4.109375 C 2.046875,-3.984375 2.140625,-3.984375 2.328125,-3.984375 L 2.984375,-3.984375 L 2.25,-0.046875 C 2.0625,0.921875 1.890625,1.828125 1.375,1.828125 C 1.328125,1.828125 1.09375,1.828125 0.890625,1.640625 C 1.359375,1.609375 1.453125,1.25 1.453125,1.109375 C 1.453125,0.875 1.265625,0.75 1.078125,0.75 C 0.8125,0.75 0.53125,0.984375 0.53125,1.359375 C 0.53125,1.796875 0.96875,2.046875 1.375,2.046875 C 1.921875,2.046875 2.328125,1.453125 2.5,1.078125 C 2.828125,0.453125 3.046875,-0.75 3.0625,-0.828125 L 3.65625,-3.984375 z"
               id="path3796" />
          </symbol>
          <symbol
             style="overflow:visible"
             overflow="visible"
             id="textext-73b0ffa4-2">
            <path
               style="stroke:none"
               d="M 2.046875,-3.984375 L 2.984375,-3.984375 C 3.1875,-3.984375 3.296875,-3.984375 3.296875,-4.1875 C 3.296875,-4.296875 3.1875,-4.296875 3.015625,-4.296875 L 2.140625,-4.296875 C 2.5,-5.71875 2.546875,-5.90625 2.546875,-5.96875 C 2.546875,-6.140625 2.421875,-6.234375 2.25,-6.234375 C 2.21875,-6.234375 1.9375,-6.234375 1.859375,-5.875 L 1.46875,-4.296875 L 0.53125,-4.296875 C 0.328125,-4.296875 0.234375,-4.296875 0.234375,-4.109375 C 0.234375,-3.984375 0.3125,-3.984375 0.515625,-3.984375 L 1.390625,-3.984375 C 0.671875,-1.15625 0.625,-0.984375 0.625,-0.8125 C 0.625,-0.265625 1,0.109375 1.546875,0.109375 C 2.5625,0.109375 3.125,-1.34375 3.125,-1.421875 C 3.125,-1.53125 3.046875,-1.53125 3.015625,-1.53125 C 2.921875,-1.53125 2.90625,-1.5 2.859375,-1.390625 C 2.4375,-0.34375 1.90625,-0.109375 1.5625,-0.109375 C 1.359375,-0.109375 1.25,-0.234375 1.25,-0.5625 C 1.25,-0.8125 1.28125,-0.875 1.3125,-1.046875 L 2.046875,-3.984375 z"
               id="path3799" />
          </symbol>
          <symbol
             style="overflow:visible"
             overflow="visible"
             id="textext-73b0ffa4-3">
            <path
               style="stroke:none"
               d="M 2.03125,-0.015625 C 2.03125,-0.671875 1.78125,-1.0625 1.390625,-1.0625 C 1.0625,-1.0625 0.859375,-0.8125 0.859375,-0.53125 C 0.859375,-0.265625 1.0625,0 1.390625,0 C 1.5,0 1.640625,-0.046875 1.734375,-0.125 C 1.765625,-0.15625 1.78125,-0.15625 1.78125,-0.15625 C 1.796875,-0.15625 1.796875,-0.15625 1.796875,-0.015625 C 1.796875,0.734375 1.453125,1.328125 1.125,1.65625 C 1.015625,1.765625 1.015625,1.78125 1.015625,1.8125 C 1.015625,1.890625 1.0625,1.921875 1.109375,1.921875 C 1.21875,1.921875 2.03125,1.15625 2.03125,-0.015625 z"
               id="path3802" />
          </symbol>
          <symbol
             style="overflow:visible"
             overflow="visible"
             id="textext-73b0ffa4-4">
            <path
               style="stroke:none"
               d="M 4.75,-2.359375 C 4.75,-3.921875 3.828125,-4.40625 3.09375,-4.40625 C 1.71875,-4.40625 0.40625,-2.984375 0.40625,-1.578125 C 0.40625,-0.640625 1,0.109375 2.03125,0.109375 C 2.65625,0.109375 3.375,-0.125 4.125,-0.734375 C 4.25,-0.203125 4.578125,0.109375 5.03125,0.109375 C 5.5625,0.109375 5.875,-0.4375 5.875,-0.59375 C 5.875,-0.671875 5.8125,-0.703125 5.75,-0.703125 C 5.6875,-0.703125 5.65625,-0.671875 5.625,-0.59375 C 5.4375,-0.109375 5.078125,-0.109375 5.0625,-0.109375 C 4.75,-0.109375 4.75,-0.890625 4.75,-1.125 C 4.75,-1.328125 4.75,-1.359375 4.859375,-1.46875 C 5.796875,-2.65625 6,-3.8125 6,-3.8125 C 6,-3.84375 5.984375,-3.921875 5.875,-3.921875 C 5.78125,-3.921875 5.78125,-3.890625 5.734375,-3.703125 C 5.546875,-3.078125 5.21875,-2.328125 4.75,-1.734375 L 4.75,-2.359375 z M 4.09375,-0.984375 C 3.203125,-0.21875 2.4375,-0.109375 2.046875,-0.109375 C 1.453125,-0.109375 1.140625,-0.5625 1.140625,-1.203125 C 1.140625,-1.6875 1.40625,-2.765625 1.71875,-3.265625 C 2.1875,-4 2.734375,-4.1875 3.078125,-4.1875 C 4.0625,-4.1875 4.0625,-2.875 4.0625,-2.109375 C 4.0625,-1.734375 4.0625,-1.15625 4.09375,-0.984375 z"
               id="path3805" />
          </symbol>
          <symbol
             style="overflow:visible"
             overflow="visible"
             id="textext-73b0ffa4-5">
            <path
               style="stroke:none"
               d=""
               id="path3808" />
          </symbol>
          <symbol
             style="overflow:visible"
             overflow="visible"
             id="textext-73b0ffa4-6">
            <path
               style="stroke:none"
               d="M 3.296875,2.390625 C 3.296875,2.359375 3.296875,2.34375 3.125,2.171875 C 1.890625,0.921875 1.5625,-0.96875 1.5625,-2.5 C 1.5625,-4.234375 1.9375,-5.96875 3.171875,-7.203125 C 3.296875,-7.328125 3.296875,-7.34375 3.296875,-7.375 C 3.296875,-7.453125 3.265625,-7.484375 3.203125,-7.484375 C 3.09375,-7.484375 2.203125,-6.796875 1.609375,-5.53125 C 1.109375,-4.4375 0.984375,-3.328125 0.984375,-2.5 C 0.984375,-1.71875 1.09375,-0.515625 1.640625,0.625 C 2.25,1.84375 3.09375,2.5 3.203125,2.5 C 3.265625,2.5 3.296875,2.46875 3.296875,2.390625 z"
               id="path3811" />
          </symbol>
          <symbol
             style="overflow:visible"
             overflow="visible"
             id="textext-73b0ffa4-7">
            <path
               style="stroke:none"
               d="M 2.875,-2.5 C 2.875,-3.265625 2.765625,-4.46875 2.21875,-5.609375 C 1.625,-6.828125 0.765625,-7.484375 0.671875,-7.484375 C 0.609375,-7.484375 0.5625,-7.4375 0.5625,-7.375 C 0.5625,-7.34375 0.5625,-7.328125 0.75,-7.140625 C 1.734375,-6.15625 2.296875,-4.578125 2.296875,-2.5 C 2.296875,-0.78125 1.9375,0.96875 0.703125,2.21875 C 0.5625,2.34375 0.5625,2.359375 0.5625,2.390625 C 0.5625,2.453125 0.609375,2.5 0.671875,2.5 C 0.765625,2.5 1.671875,1.8125 2.25,0.546875 C 2.765625,-0.546875 2.875,-1.65625 2.875,-2.5 z"
               id="path3814" />
          </symbol>
        </g>
      </defs>
      <g
         id="textext-73b0ffa4-8">
        <g
           style="fill:#000000;fill-opacity:1"
           id="g3817">
          <use
             height="177.16534"
             width="248.03149"
             xlink:href="#textext-73b0ffa4-1"
             x="223.43201"
             y="134.765"
             id="use3819" />
        </g>
        <g
           style="fill:#000000;fill-opacity:1"
           id="g3821">
          <use
             height="177.16534"
             width="248.03149"
             xlink:href="#textext-73b0ffa4-6"
             x="229.382"
             y="134.765"
             id="use3823" />
        </g>
        <g
           style="fill:#000000;fill-opacity:1"
           id="g3825">
          <use
             height="177.16534"
             width="248.03149"
             xlink:href="#textext-73b0ffa4-2"
             x="233.256"
             y="134.765"
             id="use3827" />
          <use
             height="177.16534"
             width="248.03149"
             xlink:href="#textext-73b0ffa4-3"
             x="236.8535"
             y="134.765"
             id="use3829" />
        </g>
        <g
           style="fill:#000000;fill-opacity:1"
           id="g3831">
          <use
             height="177.16534"
             width="248.03149"
             xlink:href="#textext-73b0ffa4-4"
             x="241.28487"
             y="134.765"
             id="use3833" />
        </g>
        <g
           style="fill:#000000;fill-opacity:1"
           id="g3835">
          <use
             height="177.16534"
             width="248.03149"
             xlink:href="#textext-73b0ffa4-7"
             x="247.692"
             y="134.765"
             id="use3837" />
        </g>
      </g>
    </g>
    <g
       id="g4093"
       ns0:preamble=""
       ns0:text="$n\'$"
       transform="matrix(1.2,0,0,1.2,-36.071429,-43.928571)">
      <defs
         id="defs4095">
        <g
           id="g4097">
          <symbol
             id="textext-3b22f47a-0"
             overflow="visible"
             style="overflow:visible">
            <path
               id="path4100"
               d=""
               style="stroke:none" />
          </symbol>
          <symbol
             id="textext-3b22f47a-1"
             overflow="visible"
             style="overflow:visible">
            <path
               id="path4103"
               d="M 0.875,-0.59375 C 0.84375,-0.4375 0.78125,-0.203125 0.78125,-0.15625 C 0.78125,0.015625 0.921875,0.109375 1.078125,0.109375 C 1.203125,0.109375 1.375,0.03125 1.453125,-0.171875 C 1.453125,-0.1875 1.578125,-0.65625 1.640625,-0.90625 C 1.703125,-1.203125 1.78125,-1.5 1.859375,-1.796875 C 1.90625,-2.03125 1.96875,-2.25 2.03125,-2.46875 C 2.0625,-2.640625 2.140625,-2.9375 2.15625,-2.96875 C 2.296875,-3.28125 2.828125,-4.1875 3.78125,-4.1875 C 4.234375,-4.1875 4.3125,-3.8125 4.3125,-3.484375 C 4.3125,-2.875 3.828125,-1.59375 3.671875,-1.171875 C 3.578125,-0.9375 3.5625,-0.8125 3.5625,-0.703125 C 3.5625,-0.234375 3.921875,0.109375 4.390625,0.109375 C 5.328125,0.109375 5.6875,-1.34375 5.6875,-1.421875 C 5.6875,-1.53125 5.609375,-1.53125 5.578125,-1.53125 C 5.46875,-1.53125 5.46875,-1.5 5.421875,-1.34375 C 5.21875,-0.671875 4.890625,-0.109375 4.40625,-0.109375 C 4.234375,-0.109375 4.171875,-0.203125 4.171875,-0.4375 C 4.171875,-0.6875 4.25,-0.921875 4.34375,-1.140625 C 4.53125,-1.671875 4.953125,-2.765625 4.953125,-3.34375 C 4.953125,-4 4.53125,-4.40625 3.8125,-4.40625 C 2.90625,-4.40625 2.421875,-3.765625 2.25,-3.53125 C 2.203125,-4.09375 1.796875,-4.40625 1.328125,-4.40625 C 0.875,-4.40625 0.6875,-4.015625 0.59375,-3.84375 C 0.421875,-3.5 0.296875,-2.90625 0.296875,-2.875 C 0.296875,-2.765625 0.390625,-2.765625 0.40625,-2.765625 C 0.515625,-2.765625 0.515625,-2.78125 0.578125,-3 C 0.75,-3.703125 0.953125,-4.1875 1.3125,-4.1875 C 1.5,-4.1875 1.609375,-4.0625 1.609375,-3.734375 C 1.609375,-3.515625 1.578125,-3.40625 1.453125,-2.890625 L 0.875,-0.59375 z"
               style="stroke:none" />
          </symbol>
          <symbol
             id="textext-3b22f47a-2"
             overflow="visible"
             style="overflow:visible">
            <path
               id="path4106"
               d=""
               style="stroke:none" />
          </symbol>
          <symbol
             id="textext-3b22f47a-3"
             overflow="visible"
             style="overflow:visible">
            <path
               id="path4109"
               d="M 2.03125,-3.296875 C 2.0625,-3.359375 2.078125,-3.421875 2.078125,-3.515625 C 2.078125,-3.734375 1.890625,-3.890625 1.671875,-3.890625 C 1.390625,-3.890625 1.328125,-3.671875 1.296875,-3.578125 L 0.375,-0.5625 C 0.359375,-0.53125 0.328125,-0.453125 0.328125,-0.4375 C 0.328125,-0.359375 0.546875,-0.28125 0.609375,-0.28125 C 0.65625,-0.28125 0.6875,-0.328125 0.703125,-0.390625 L 2.03125,-3.296875 z"
               style="stroke:none" />
          </symbol>
        </g>
      </defs>
      <g
         id="textext-3b22f47a-4">
        <g
           id="g4112"
           style="fill:#000000;fill-opacity:1">
          <use
             id="use4114"
             y="134.765"
             x="223.43201"
             xlink:href="#textext-3b22f47a-1"
             width="248.03149"
             height="177.16534" />
        </g>
        <g
           id="g4116"
           style="fill:#000000;fill-opacity:1">
          <use
             id="use4118"
             y="131.14999"
             x="229.412"
             xlink:href="#textext-3b22f47a-3"
             width="248.03149"
             height="177.16534" />
        </g>
      </g>
    </g>
    <g
       transform="matrix(1.2,0,0,1.2,-68.928572,-92.142858)"
       ns0:text="$(n,n\',\\frac{\\alpha}{1})$"
       ns0:preamble=""
       id="g4406">
      <defs
         id="defs4408">
        <g
           id="g4410">
          <symbol
             style="overflow:visible"
             overflow="visible"
             id="textext-c3db7721-0">
            <path
               style="stroke:none"
               d=""
               id="path4413" />
          </symbol>
          <symbol
             style="overflow:visible"
             overflow="visible"
             id="textext-c3db7721-1">
            <path
               style="stroke:none"
               d="M 3.296875,2.390625 C 3.296875,2.359375 3.296875,2.34375 3.125,2.171875 C 1.890625,0.921875 1.5625,-0.96875 1.5625,-2.5 C 1.5625,-4.234375 1.9375,-5.96875 3.171875,-7.203125 C 3.296875,-7.328125 3.296875,-7.34375 3.296875,-7.375 C 3.296875,-7.453125 3.265625,-7.484375 3.203125,-7.484375 C 3.09375,-7.484375 2.203125,-6.796875 1.609375,-5.53125 C 1.109375,-4.4375 0.984375,-3.328125 0.984375,-2.5 C 0.984375,-1.71875 1.09375,-0.515625 1.640625,0.625 C 2.25,1.84375 3.09375,2.5 3.203125,2.5 C 3.265625,2.5 3.296875,2.46875 3.296875,2.390625 z"
               id="path4416" />
          </symbol>
          <symbol
             style="overflow:visible"
             overflow="visible"
             id="textext-c3db7721-2">
            <path
               style="stroke:none"
               d="M 2.875,-2.5 C 2.875,-3.265625 2.765625,-4.46875 2.21875,-5.609375 C 1.625,-6.828125 0.765625,-7.484375 0.671875,-7.484375 C 0.609375,-7.484375 0.5625,-7.4375 0.5625,-7.375 C 0.5625,-7.34375 0.5625,-7.328125 0.75,-7.140625 C 1.734375,-6.15625 2.296875,-4.578125 2.296875,-2.5 C 2.296875,-0.78125 1.9375,0.96875 0.703125,2.21875 C 0.5625,2.34375 0.5625,2.359375 0.5625,2.390625 C 0.5625,2.453125 0.609375,2.5 0.671875,2.5 C 0.765625,2.5 1.671875,1.8125 2.25,0.546875 C 2.765625,-0.546875 2.875,-1.65625 2.875,-2.5 z"
               id="path4419" />
          </symbol>
          <symbol
             style="overflow:visible"
             overflow="visible"
             id="textext-c3db7721-3">
            <path
               style="stroke:none"
               d=""
               id="path4422" />
          </symbol>
          <symbol
             style="overflow:visible"
             overflow="visible"
             id="textext-c3db7721-4">
            <path
               style="stroke:none"
               d="M 0.875,-0.59375 C 0.84375,-0.4375 0.78125,-0.203125 0.78125,-0.15625 C 0.78125,0.015625 0.921875,0.109375 1.078125,0.109375 C 1.203125,0.109375 1.375,0.03125 1.453125,-0.171875 C 1.453125,-0.1875 1.578125,-0.65625 1.640625,-0.90625 C 1.703125,-1.203125 1.78125,-1.5 1.859375,-1.796875 C 1.90625,-2.03125 1.96875,-2.25 2.03125,-2.46875 C 2.0625,-2.640625 2.140625,-2.9375 2.15625,-2.96875 C 2.296875,-3.28125 2.828125,-4.1875 3.78125,-4.1875 C 4.234375,-4.1875 4.3125,-3.8125 4.3125,-3.484375 C 4.3125,-2.875 3.828125,-1.59375 3.671875,-1.171875 C 3.578125,-0.9375 3.5625,-0.8125 3.5625,-0.703125 C 3.5625,-0.234375 3.921875,0.109375 4.390625,0.109375 C 5.328125,0.109375 5.6875,-1.34375 5.6875,-1.421875 C 5.6875,-1.53125 5.609375,-1.53125 5.578125,-1.53125 C 5.46875,-1.53125 5.46875,-1.5 5.421875,-1.34375 C 5.21875,-0.671875 4.890625,-0.109375 4.40625,-0.109375 C 4.234375,-0.109375 4.171875,-0.203125 4.171875,-0.4375 C 4.171875,-0.6875 4.25,-0.921875 4.34375,-1.140625 C 4.53125,-1.671875 4.953125,-2.765625 4.953125,-3.34375 C 4.953125,-4 4.53125,-4.40625 3.8125,-4.40625 C 2.90625,-4.40625 2.421875,-3.765625 2.25,-3.53125 C 2.203125,-4.09375 1.796875,-4.40625 1.328125,-4.40625 C 0.875,-4.40625 0.6875,-4.015625 0.59375,-3.84375 C 0.421875,-3.5 0.296875,-2.90625 0.296875,-2.875 C 0.296875,-2.765625 0.390625,-2.765625 0.40625,-2.765625 C 0.515625,-2.765625 0.515625,-2.78125 0.578125,-3 C 0.75,-3.703125 0.953125,-4.1875 1.3125,-4.1875 C 1.5,-4.1875 1.609375,-4.0625 1.609375,-3.734375 C 1.609375,-3.515625 1.578125,-3.40625 1.453125,-2.890625 L 0.875,-0.59375 z"
               id="path4425" />
          </symbol>
          <symbol
             style="overflow:visible"
             overflow="visible"
             id="textext-c3db7721-5">
            <path
               style="stroke:none"
               d="M 2.03125,-0.015625 C 2.03125,-0.671875 1.78125,-1.0625 1.390625,-1.0625 C 1.0625,-1.0625 0.859375,-0.8125 0.859375,-0.53125 C 0.859375,-0.265625 1.0625,0 1.390625,0 C 1.5,0 1.640625,-0.046875 1.734375,-0.125 C 1.765625,-0.15625 1.78125,-0.15625 1.78125,-0.15625 C 1.796875,-0.15625 1.796875,-0.15625 1.796875,-0.015625 C 1.796875,0.734375 1.453125,1.328125 1.125,1.65625 C 1.015625,1.765625 1.015625,1.78125 1.015625,1.8125 C 1.015625,1.890625 1.0625,1.921875 1.109375,1.921875 C 1.21875,1.921875 2.03125,1.15625 2.03125,-0.015625 z"
               id="path4428" />
          </symbol>
          <symbol
             style="overflow:visible"
             overflow="visible"
             id="textext-c3db7721-6">
            <path
               style="stroke:none"
               d=""
               id="path4431" />
          </symbol>
          <symbol
             style="overflow:visible"
             overflow="visible"
             id="textext-c3db7721-7">
            <path
               style="stroke:none"
               d="M 2.03125,-3.296875 C 2.0625,-3.359375 2.078125,-3.421875 2.078125,-3.515625 C 2.078125,-3.734375 1.890625,-3.890625 1.671875,-3.890625 C 1.390625,-3.890625 1.328125,-3.671875 1.296875,-3.578125 L 0.375,-0.5625 C 0.359375,-0.53125 0.328125,-0.453125 0.328125,-0.4375 C 0.328125,-0.359375 0.546875,-0.28125 0.609375,-0.28125 C 0.65625,-0.28125 0.6875,-0.328125 0.703125,-0.390625 L 2.03125,-3.296875 z"
               id="path4434" />
          </symbol>
          <symbol
             style="overflow:visible"
             overflow="visible"
             id="textext-c3db7721-8">
            <path
               style="stroke:none"
               d=""
               id="path4437" />
          </symbol>
          <symbol
             style="overflow:visible"
             overflow="visible"
             id="textext-c3db7721-9">
            <path
               style="stroke:none"
               d="M 3.8125,-0.984375 C 4.453125,-1.640625 4.703125,-2.578125 4.703125,-2.640625 C 4.703125,-2.734375 4.625,-2.734375 4.59375,-2.734375 C 4.5,-2.734375 4.5,-2.71875 4.453125,-2.5625 C 4.328125,-2.109375 4.09375,-1.671875 3.796875,-1.296875 C 3.796875,-1.40625 3.78125,-1.875 3.765625,-1.9375 C 3.65625,-2.625 3.140625,-3.078125 2.4375,-3.078125 C 1.421875,-3.078125 0.4375,-2.125 0.4375,-1.140625 C 0.4375,-0.5 0.90625,0.0625 1.703125,0.0625 C 2.34375,0.0625 2.921875,-0.21875 3.3125,-0.515625 C 3.484375,-0.015625 3.828125,0.0625 4.046875,0.0625 C 4.453125,0.0625 4.703125,-0.265625 4.703125,-0.421875 C 4.703125,-0.5 4.609375,-0.5 4.578125,-0.5 C 4.484375,-0.5 4.46875,-0.46875 4.453125,-0.4375 C 4.359375,-0.171875 4.140625,-0.125 4.0625,-0.125 C 3.96875,-0.125 3.84375,-0.125 3.8125,-0.984375 z M 3.265625,-0.75 C 2.578125,-0.1875 2,-0.125 1.734375,-0.125 C 1.265625,-0.125 1.015625,-0.4375 1.015625,-0.90625 C 1.015625,-1.09375 1.109375,-1.859375 1.46875,-2.34375 C 1.796875,-2.765625 2.1875,-2.875 2.4375,-2.875 C 2.984375,-2.875 3.15625,-2.34375 3.203125,-1.90625 C 3.25,-1.609375 3.234375,-1.109375 3.265625,-0.75 z"
               id="path4440" />
          </symbol>
          <symbol
             style="overflow:visible"
             overflow="visible"
             id="textext-c3db7721-10">
            <path
               style="stroke:none"
               d=""
               id="path4443" />
          </symbol>
          <symbol
             style="overflow:visible"
             overflow="visible"
             id="textext-c3db7721-11">
            <path
               style="stroke:none"
               d="M 2.328125,-4.4375 C 2.328125,-4.625 2.328125,-4.625 2.125,-4.625 C 1.671875,-4.1875 1.046875,-4.1875 0.765625,-4.1875 L 0.765625,-3.9375 C 0.921875,-3.9375 1.390625,-3.9375 1.765625,-4.125 L 1.765625,-0.578125 C 1.765625,-0.34375 1.765625,-0.25 1.078125,-0.25 L 0.8125,-0.25 L 0.8125,0 C 0.9375,0 1.796875,-0.03125 2.046875,-0.03125 C 2.265625,-0.03125 3.140625,0 3.296875,0 L 3.296875,-0.25 L 3.03125,-0.25 C 2.328125,-0.25 2.328125,-0.34375 2.328125,-0.578125 L 2.328125,-4.4375 z"
               id="path4446" />
          </symbol>
        </g>
      </defs>
      <g
         id="textext-c3db7721-12">
        <g
           style="fill:#000000;fill-opacity:1"
           id="g4449">
          <use
             height="177.16534"
             width="248.03149"
             xlink:href="#textext-c3db7721-1"
             x="223.43201"
             y="134.765"
             id="use4451" />
        </g>
        <g
           style="fill:#000000;fill-opacity:1"
           id="g4453">
          <use
             height="177.16534"
             width="248.03149"
             xlink:href="#textext-c3db7721-4"
             x="227.306"
             y="134.765"
             id="use4455" />
          <use
             height="177.16534"
             width="248.03149"
             xlink:href="#textext-c3db7721-5"
             x="233.28555"
             y="134.765"
             id="use4457" />
        </g>
        <g
           style="fill:#000000;fill-opacity:1"
           id="g4459">
          <use
             height="177.16534"
             width="248.03149"
             xlink:href="#textext-c3db7721-4"
             x="237.71692"
             y="134.765"
             id="use4461" />
        </g>
        <g
           style="fill:#000000;fill-opacity:1"
           id="g4463">
          <use
             height="177.16534"
             width="248.03149"
             xlink:href="#textext-c3db7721-7"
             x="243.694"
             y="131.14999"
             id="use4465" />
        </g>
        <g
           style="fill:#000000;fill-opacity:1"
           id="g4467">
          <use
             height="177.16534"
             width="248.03149"
             xlink:href="#textext-c3db7721-5"
             x="246.489"
             y="134.765"
             id="use4469" />
        </g>
        <g
           style="fill:#000000;fill-opacity:1"
           id="g4471">
          <use
             height="177.16534"
             width="248.03149"
             xlink:href="#textext-c3db7721-9"
             x="252.11301"
             y="130.842"
             id="use4473" />
        </g>
        <path
           style="fill:none;stroke:#000000;stroke-width:0.398;stroke-linecap:butt;stroke-linejoin:miter;stroke-miterlimit:10;stroke-opacity:1"
           d="M 0.00028125,0.0005625 L 5.179969,0.0005625"
           transform="matrix(1,0,0,-1,252.113,132.274)"
           id="path4475" />
        <g
           style="fill:#000000;fill-opacity:1"
           id="g4477">
          <use
             height="177.16534"
             width="248.03149"
             xlink:href="#textext-c3db7721-11"
             x="252.717"
             y="138.2"
             id="use4479" />
        </g>
        <g
           style="fill:#000000;fill-opacity:1"
           id="g4481">
          <use
             height="177.16534"
             width="248.03149"
             xlink:href="#textext-c3db7721-2"
             x="258.487"
             y="134.765"
             id="use4483" />
        </g>
      </g>
    </g>
    <g
       id="g4863"
       ns0:preamble=""
       ns0:text="$n$"
       transform="matrix(1.2,0,0,1.2,-98.214286,-149.28571)">
      <defs
         id="defs4865">
        <g
           id="g4867">
          <symbol
             id="textext-c7bfc582-0"
             overflow="visible"
             style="overflow:visible">
            <path
               id="path4870"
               d=""
               style="stroke:none" />
          </symbol>
          <symbol
             id="textext-c7bfc582-1"
             overflow="visible"
             style="overflow:visible">
            <path
               id="path4873"
               d="M 0.875,-0.59375 C 0.84375,-0.4375 0.78125,-0.203125 0.78125,-0.15625 C 0.78125,0.015625 0.921875,0.109375 1.078125,0.109375 C 1.203125,0.109375 1.375,0.03125 1.453125,-0.171875 C 1.453125,-0.1875 1.578125,-0.65625 1.640625,-0.90625 C 1.703125,-1.203125 1.78125,-1.5 1.859375,-1.796875 C 1.90625,-2.03125 1.96875,-2.25 2.03125,-2.46875 C 2.0625,-2.640625 2.140625,-2.9375 2.15625,-2.96875 C 2.296875,-3.28125 2.828125,-4.1875 3.78125,-4.1875 C 4.234375,-4.1875 4.3125,-3.8125 4.3125,-3.484375 C 4.3125,-2.875 3.828125,-1.59375 3.671875,-1.171875 C 3.578125,-0.9375 3.5625,-0.8125 3.5625,-0.703125 C 3.5625,-0.234375 3.921875,0.109375 4.390625,0.109375 C 5.328125,0.109375 5.6875,-1.34375 5.6875,-1.421875 C 5.6875,-1.53125 5.609375,-1.53125 5.578125,-1.53125 C 5.46875,-1.53125 5.46875,-1.5 5.421875,-1.34375 C 5.21875,-0.671875 4.890625,-0.109375 4.40625,-0.109375 C 4.234375,-0.109375 4.171875,-0.203125 4.171875,-0.4375 C 4.171875,-0.6875 4.25,-0.921875 4.34375,-1.140625 C 4.53125,-1.671875 4.953125,-2.765625 4.953125,-3.34375 C 4.953125,-4 4.53125,-4.40625 3.8125,-4.40625 C 2.90625,-4.40625 2.421875,-3.765625 2.25,-3.53125 C 2.203125,-4.09375 1.796875,-4.40625 1.328125,-4.40625 C 0.875,-4.40625 0.6875,-4.015625 0.59375,-3.84375 C 0.421875,-3.5 0.296875,-2.90625 0.296875,-2.875 C 0.296875,-2.765625 0.390625,-2.765625 0.40625,-2.765625 C 0.515625,-2.765625 0.515625,-2.78125 0.578125,-3 C 0.75,-3.703125 0.953125,-4.1875 1.3125,-4.1875 C 1.5,-4.1875 1.609375,-4.0625 1.609375,-3.734375 C 1.609375,-3.515625 1.578125,-3.40625 1.453125,-2.890625 L 0.875,-0.59375 z"
               style="stroke:none" />
          </symbol>
        </g>
      </defs>
      <g
         id="textext-c7bfc582-2">
        <g
           id="g4876"
           style="fill:#000000;fill-opacity:1">
          <use
             id="use4878"
             y="134.765"
             x="223.43201"
             xlink:href="#textext-c7bfc582-1"
             width="248.03149"
             height="177.16534" />
        </g>
      </g>
    </g>
  </g>
</svg>
