<?xml version="1.0" encoding="UTF-8" standalone="no"?>
<!-- Created with Inkscape (http://www.inkscape.org/) -->
<svg
   xmlns:ns0="http://www.iki.fi/pav/software/textext/"
   xmlns:dc="http://purl.org/dc/elements/1.1/"
   xmlns:cc="http://creativecommons.org/ns#"
   xmlns:rdf="http://www.w3.org/1999/02/22-rdf-syntax-ns#"
   xmlns:svg="http://www.w3.org/2000/svg"
   xmlns="http://www.w3.org/2000/svg"
   xmlns:xlink="http://www.w3.org/1999/xlink"
   xmlns:sodipodi="http://sodipodi.sourceforge.net/DTD/sodipodi-0.dtd"
   xmlns:inkscape="http://www.inkscape.org/namespaces/inkscape"
   width="531.49603"
   height="212.59842"
   id="svg2"
   sodipodi:version="0.32"
   inkscape:version="0.46"
   version="1.0"
   sodipodi:docname="chap7-fig10.svg"
   inkscape:output_extension="org.inkscape.output.svg.inkscape">
  <sodipodi:namedview
     id="base"
     pagecolor="#ffffff"
     bordercolor="#666666"
     borderopacity="1.0"
     gridtolerance="10000"
     guidetolerance="10"
     objecttolerance="10"
     inkscape:pageopacity="0.0"
     inkscape:pageshadow="2"
     inkscape:zoom="2.8"
     inkscape:cx="315.83822"
     inkscape:cy="111.82954"
     inkscape:document-units="px"
     inkscape:current-layer="layer1"
     showgrid="false"
     units="cm"
     inkscape:window-width="1014"
     inkscape:window-height="726"
     inkscape:window-x="0"
     inkscape:window-y="27" />
  <defs
     id="defs4">
    <marker
       style="overflow:visible;"
       id="Arrow1Mend"
       refX="0.0"
       refY="0.0"
       orient="auto"
       inkscape:stockid="Arrow1Mend">
      <path
         transform="scale(0.4) rotate(180) translate(10,0)"
         style="fill-rule:evenodd;stroke:#000000;stroke-width:1.0pt;marker-start:none;"
         d="M 0.0,0.0 L 5.0,-5.0 L -12.5,0.0 L 5.0,5.0 L 0.0,0.0 z "
         id="path3191" />
    </marker>
    <inkscape:perspective
       id="perspective10"
       inkscape:persp3d-origin="372.04724 : 350.78739 : 1"
       inkscape:vp_z="744.09448 : 526.18109 : 1"
       inkscape:vp_y="0 : 1000 : 0"
       inkscape:vp_x="0 : 526.18109 : 1"
       sodipodi:type="inkscape:persp3d" />
  </defs>
  <metadata
     id="metadata7">
    <rdf:RDF>
      <cc:Work
         rdf:about="">
        <dc:format>image/svg+xml</dc:format>
        <dc:type
           rdf:resource="http://purl.org/dc/dcmitype/StillImage" />
      </cc:Work>
    </rdf:RDF>
  </metadata>
  <g
     id="layer1"
     inkscape:groupmode="layer"
     inkscape:label="Layer 1">
    <path
       transform="matrix(1.0239993,0,0,1.0239993,-2.8418166,-25.574728)"
       d="M 165.15994,73.954979 A 44.194176,44.194176 0 1 1 76.771591,73.954979 A 44.194176,44.194176 0 1 1 165.15994,73.954979 z"
       sodipodi:ry="44.194176"
       sodipodi:rx="44.194176"
       sodipodi:cy="73.954979"
       sodipodi:cx="120.96577"
       id="path2383"
       style="opacity:1;fill:none;fill-opacity:1;fill-rule:evenodd;stroke:#000000;stroke-width:0.89999998;stroke-linecap:butt;stroke-linejoin:miter;marker:none;marker-start:none;marker-mid:none;marker-end:none;stroke-miterlimit:4;stroke-dasharray:none;stroke-dashoffset:0;stroke-opacity:1;visibility:visible;display:inline;overflow:visible;enable-background:accumulate"
       sodipodi:type="arc" />
    <path
       sodipodi:nodetypes="csc"
       id="path3155"
       d="M 135.97084,156.99236 C 135.97084,156.99236 201.48569,133.79827 172.18598,85.452058 C 142.88625,37.105828 118.116,51.932908 118.116,51.932908"
       style="fill:none;fill-rule:evenodd;stroke:#000000;stroke-width:0.8752262;stroke-linecap:butt;stroke-linejoin:miter;stroke-miterlimit:4;stroke-dasharray:none;stroke-opacity:1" />
    <path
       style="fill:none;fill-rule:evenodd;stroke:#000000;stroke-width:0.87079108;stroke-linecap:butt;stroke-linejoin:miter;stroke-miterlimit:4;stroke-dasharray:none;stroke-opacity:1"
       d="M 136.29782,157.09484 C 136.29782,157.09484 68.950025,158.48504 87.324157,102.27245 C 98.382702,68.44068 111.26477,55.651382 119.76965,50.830386"
       id="path3157"
       sodipodi:nodetypes="css" />
    <g
       transform="matrix(0.9524505,0,0,1,14.352627,0)"
       id="g5832">
      <path
         sodipodi:nodetypes="csc"
         id="path3165"
         d="M 356.36169,149.93986 C 356.36169,149.93986 415.96752,125.71503 379.97472,76.391499 C 343.9819,27.067954 329.28718,31.2697 329.28718,31.2697"
         style="fill:none;fill-rule:evenodd;stroke:#000000;stroke-width:0.89999998;stroke-linecap:butt;stroke-linejoin:miter;stroke-miterlimit:4;stroke-dasharray:none;stroke-opacity:1" />
      <path
         style="fill:none;fill-rule:evenodd;stroke:#000000;stroke-width:0.89999998;stroke-linecap:butt;stroke-linejoin:miter;stroke-miterlimit:4;stroke-dasharray:none;stroke-opacity:1"
         d="M 357.32886,149.76833 C 357.32886,149.76833 291.80311,147.62272 303.75155,89.840045 C 315.70001,32.057355 331.08956,30.950791 331.08956,30.950791"
         id="path3167"
         sodipodi:nodetypes="csc" />
    </g>
    <path
       id="path3177"
       d="M 111.92554,56.940457 C 123.03332,37.927332 123.03332,37.927332 123.03332,37.927332"
       style="fill:none;fill-rule:evenodd;stroke:#000000;stroke-width:0.89999998;stroke-linecap:butt;stroke-linejoin:miter;marker-end:url(#Arrow1Mend);stroke-miterlimit:4;stroke-dasharray:none;stroke-opacity:1" />
    <path
       style="fill:none;fill-rule:evenodd;stroke:#000000;stroke-width:0.89999998;stroke-linecap:butt;stroke-linejoin:miter;marker-end:url(#Arrow1Mend);stroke-miterlimit:4;stroke-dasharray:none;stroke-opacity:1"
       d="M 118.69805,51.094297 C 139.08091,46.529234 139.08091,46.529234 139.08091,46.529234"
       id="path3961" />
    <path
       id="path3963"
       d="M 97.035921,78.919087 L 145.77578,55.43304"
       style="fill:none;fill-rule:evenodd;stroke:#000000;stroke-width:0.89999998;stroke-linecap:butt;stroke-linejoin:miter;stroke-miterlimit:4;stroke-dasharray:none;stroke-opacity:1" />
    <g
       id="g3984"
       ns0:preamble=""
       ns0:text="$B(m,n)$"
       transform="matrix(1.0830946,-0.5166295,0.5166295,1.0830946,-223.68791,1.9459608)">
      <defs
         id="defs3986">
        <g
           id="g3988">
          <symbol
             id="textext-2970bf4c-0"
             overflow="visible"
             style="overflow:visible">
            <path
               id="path3991"
               d=""
               style="stroke:none" />
          </symbol>
          <symbol
             id="textext-2970bf4c-1"
             overflow="visible"
             style="overflow:visible">
            <path
               id="path3994"
               d="M 1.59375,-0.78125 C 1.5,-0.390625 1.46875,-0.3125 0.6875,-0.3125 C 0.515625,-0.3125 0.421875,-0.3125 0.421875,-0.109375 C 0.421875,0 0.515625,0 0.6875,0 L 4.25,0 C 5.828125,0 7,-1.171875 7,-2.15625 C 7,-2.875 6.421875,-3.453125 5.453125,-3.5625 C 6.484375,-3.75 7.53125,-4.484375 7.53125,-5.4375 C 7.53125,-6.171875 6.875,-6.8125 5.6875,-6.8125 L 2.328125,-6.8125 C 2.140625,-6.8125 2.046875,-6.8125 2.046875,-6.609375 C 2.046875,-6.5 2.140625,-6.5 2.328125,-6.5 C 2.34375,-6.5 2.53125,-6.5 2.703125,-6.484375 C 2.875,-6.453125 2.96875,-6.453125 2.96875,-6.3125 C 2.96875,-6.28125 2.953125,-6.25 2.9375,-6.125 L 1.59375,-0.78125 z M 3.09375,-3.65625 L 3.71875,-6.125 C 3.8125,-6.46875 3.828125,-6.5 4.25,-6.5 L 5.546875,-6.5 C 6.421875,-6.5 6.625,-5.90625 6.625,-5.46875 C 6.625,-4.59375 5.765625,-3.65625 4.5625,-3.65625 L 3.09375,-3.65625 z M 2.65625,-0.3125 C 2.515625,-0.3125 2.5,-0.3125 2.4375,-0.3125 C 2.328125,-0.328125 2.296875,-0.34375 2.296875,-0.421875 C 2.296875,-0.453125 2.296875,-0.46875 2.359375,-0.640625 L 3.046875,-3.421875 L 4.921875,-3.421875 C 5.875,-3.421875 6.078125,-2.6875 6.078125,-2.265625 C 6.078125,-1.28125 5.1875,-0.3125 4,-0.3125 L 2.65625,-0.3125 z"
               style="stroke:none" />
          </symbol>
          <symbol
             id="textext-2970bf4c-2"
             overflow="visible"
             style="overflow:visible">
            <path
               id="path3997"
               d="M 0.875,-0.59375 C 0.84375,-0.4375 0.78125,-0.203125 0.78125,-0.15625 C 0.78125,0.015625 0.921875,0.109375 1.078125,0.109375 C 1.203125,0.109375 1.375,0.03125 1.453125,-0.171875 C 1.453125,-0.1875 1.578125,-0.65625 1.640625,-0.90625 C 1.703125,-1.203125 1.78125,-1.5 1.859375,-1.796875 C 1.90625,-2.03125 1.96875,-2.25 2.03125,-2.46875 C 2.0625,-2.640625 2.140625,-2.9375 2.15625,-2.96875 C 2.296875,-3.28125 2.828125,-4.1875 3.78125,-4.1875 C 4.234375,-4.1875 4.3125,-3.8125 4.3125,-3.484375 C 4.3125,-3.234375 4.25,-2.953125 4.171875,-2.65625 C 4.046875,-2.15625 4,-1.953125 3.890625,-1.5 C 3.78125,-1.140625 3.78125,-1.078125 3.6875,-0.75 C 3.65625,-0.546875 3.5625,-0.203125 3.5625,-0.15625 C 3.5625,0.015625 3.703125,0.109375 3.84375,0.109375 C 4.15625,0.109375 4.21875,-0.140625 4.296875,-0.453125 C 4.4375,-1.015625 4.8125,-2.46875 4.890625,-2.859375 C 4.921875,-2.984375 5.453125,-4.1875 6.546875,-4.1875 C 6.96875,-4.1875 7.078125,-3.84375 7.078125,-3.484375 C 7.078125,-2.921875 6.65625,-1.78125 6.453125,-1.25 C 6.375,-1.015625 6.328125,-0.90625 6.328125,-0.703125 C 6.328125,-0.234375 6.671875,0.109375 7.140625,0.109375 C 8.078125,0.109375 8.453125,-1.34375 8.453125,-1.421875 C 8.453125,-1.53125 8.359375,-1.53125 8.328125,-1.53125 C 8.234375,-1.53125 8.234375,-1.5 8.1875,-1.34375 C 8.03125,-0.8125 7.71875,-0.109375 7.171875,-0.109375 C 7,-0.109375 6.921875,-0.203125 6.921875,-0.4375 C 6.921875,-0.6875 7.015625,-0.921875 7.109375,-1.140625 C 7.296875,-1.671875 7.71875,-2.765625 7.71875,-3.34375 C 7.71875,-3.984375 7.3125,-4.40625 6.5625,-4.40625 C 5.828125,-4.40625 5.3125,-3.96875 4.9375,-3.4375 C 4.9375,-3.5625 4.90625,-3.90625 4.625,-4.140625 C 4.375,-4.359375 4.0625,-4.40625 3.8125,-4.40625 C 2.90625,-4.40625 2.421875,-3.765625 2.25,-3.53125 C 2.203125,-4.109375 1.78125,-4.40625 1.328125,-4.40625 C 0.875,-4.40625 0.6875,-4.015625 0.59375,-3.84375 C 0.421875,-3.484375 0.296875,-2.90625 0.296875,-2.875 C 0.296875,-2.765625 0.390625,-2.765625 0.40625,-2.765625 C 0.515625,-2.765625 0.515625,-2.78125 0.578125,-3 C 0.75,-3.703125 0.953125,-4.1875 1.3125,-4.1875 C 1.46875,-4.1875 1.609375,-4.109375 1.609375,-3.734375 C 1.609375,-3.515625 1.578125,-3.40625 1.453125,-2.890625 L 0.875,-0.59375 z"
               style="stroke:none" />
          </symbol>
          <symbol
             id="textext-2970bf4c-3"
             overflow="visible"
             style="overflow:visible">
            <path
               id="path4000"
               d="M 2.03125,-0.015625 C 2.03125,-0.671875 1.78125,-1.0625 1.390625,-1.0625 C 1.0625,-1.0625 0.859375,-0.8125 0.859375,-0.53125 C 0.859375,-0.265625 1.0625,0 1.390625,0 C 1.5,0 1.640625,-0.046875 1.734375,-0.125 C 1.765625,-0.15625 1.78125,-0.15625 1.78125,-0.15625 C 1.796875,-0.15625 1.796875,-0.15625 1.796875,-0.015625 C 1.796875,0.734375 1.453125,1.328125 1.125,1.65625 C 1.015625,1.765625 1.015625,1.78125 1.015625,1.8125 C 1.015625,1.890625 1.0625,1.921875 1.109375,1.921875 C 1.21875,1.921875 2.03125,1.15625 2.03125,-0.015625 z"
               style="stroke:none" />
          </symbol>
          <symbol
             id="textext-2970bf4c-4"
             overflow="visible"
             style="overflow:visible">
            <path
               id="path4003"
               d="M 0.875,-0.59375 C 0.84375,-0.4375 0.78125,-0.203125 0.78125,-0.15625 C 0.78125,0.015625 0.921875,0.109375 1.078125,0.109375 C 1.203125,0.109375 1.375,0.03125 1.453125,-0.171875 C 1.453125,-0.1875 1.578125,-0.65625 1.640625,-0.90625 C 1.703125,-1.203125 1.78125,-1.5 1.859375,-1.796875 C 1.90625,-2.03125 1.96875,-2.25 2.03125,-2.46875 C 2.0625,-2.640625 2.140625,-2.9375 2.15625,-2.96875 C 2.296875,-3.28125 2.828125,-4.1875 3.78125,-4.1875 C 4.234375,-4.1875 4.3125,-3.8125 4.3125,-3.484375 C 4.3125,-2.875 3.828125,-1.59375 3.671875,-1.171875 C 3.578125,-0.9375 3.5625,-0.8125 3.5625,-0.703125 C 3.5625,-0.234375 3.921875,0.109375 4.390625,0.109375 C 5.328125,0.109375 5.6875,-1.34375 5.6875,-1.421875 C 5.6875,-1.53125 5.609375,-1.53125 5.578125,-1.53125 C 5.46875,-1.53125 5.46875,-1.5 5.421875,-1.34375 C 5.21875,-0.671875 4.890625,-0.109375 4.40625,-0.109375 C 4.234375,-0.109375 4.171875,-0.203125 4.171875,-0.4375 C 4.171875,-0.6875 4.25,-0.921875 4.34375,-1.140625 C 4.53125,-1.671875 4.953125,-2.765625 4.953125,-3.34375 C 4.953125,-4 4.53125,-4.40625 3.8125,-4.40625 C 2.90625,-4.40625 2.421875,-3.765625 2.25,-3.53125 C 2.203125,-4.09375 1.796875,-4.40625 1.328125,-4.40625 C 0.875,-4.40625 0.6875,-4.015625 0.59375,-3.84375 C 0.421875,-3.5 0.296875,-2.90625 0.296875,-2.875 C 0.296875,-2.765625 0.390625,-2.765625 0.40625,-2.765625 C 0.515625,-2.765625 0.515625,-2.78125 0.578125,-3 C 0.75,-3.703125 0.953125,-4.1875 1.3125,-4.1875 C 1.5,-4.1875 1.609375,-4.0625 1.609375,-3.734375 C 1.609375,-3.515625 1.578125,-3.40625 1.453125,-2.890625 L 0.875,-0.59375 z"
               style="stroke:none" />
          </symbol>
          <symbol
             id="textext-2970bf4c-5"
             overflow="visible"
             style="overflow:visible">
            <path
               id="path4006"
               d=""
               style="stroke:none" />
          </symbol>
          <symbol
             id="textext-2970bf4c-6"
             overflow="visible"
             style="overflow:visible">
            <path
               id="path4009"
               d="M 3.296875,2.390625 C 3.296875,2.359375 3.296875,2.34375 3.125,2.171875 C 1.890625,0.921875 1.5625,-0.96875 1.5625,-2.5 C 1.5625,-4.234375 1.9375,-5.96875 3.171875,-7.203125 C 3.296875,-7.328125 3.296875,-7.34375 3.296875,-7.375 C 3.296875,-7.453125 3.265625,-7.484375 3.203125,-7.484375 C 3.09375,-7.484375 2.203125,-6.796875 1.609375,-5.53125 C 1.109375,-4.4375 0.984375,-3.328125 0.984375,-2.5 C 0.984375,-1.71875 1.09375,-0.515625 1.640625,0.625 C 2.25,1.84375 3.09375,2.5 3.203125,2.5 C 3.265625,2.5 3.296875,2.46875 3.296875,2.390625 z"
               style="stroke:none" />
          </symbol>
          <symbol
             id="textext-2970bf4c-7"
             overflow="visible"
             style="overflow:visible">
            <path
               id="path4012"
               d="M 2.875,-2.5 C 2.875,-3.265625 2.765625,-4.46875 2.21875,-5.609375 C 1.625,-6.828125 0.765625,-7.484375 0.671875,-7.484375 C 0.609375,-7.484375 0.5625,-7.4375 0.5625,-7.375 C 0.5625,-7.34375 0.5625,-7.328125 0.75,-7.140625 C 1.734375,-6.15625 2.296875,-4.578125 2.296875,-2.5 C 2.296875,-0.78125 1.9375,0.96875 0.703125,2.21875 C 0.5625,2.34375 0.5625,2.359375 0.5625,2.390625 C 0.5625,2.453125 0.609375,2.5 0.671875,2.5 C 0.765625,2.5 1.671875,1.8125 2.25,0.546875 C 2.765625,-0.546875 2.875,-1.65625 2.875,-2.5 z"
               style="stroke:none" />
          </symbol>
        </g>
      </defs>
      <g
         id="textext-2970bf4c-8">
        <g
           id="g4015"
           style="fill:#000000;fill-opacity:1">
          <use
             id="use4017"
             y="134.765"
             x="223.43201"
             xlink:href="#textext-2970bf4c-1"
             width="531.49603"
             height="212.59842" />
        </g>
        <g
           id="g4019"
           style="fill:#000000;fill-opacity:1">
          <use
             id="use4021"
             y="134.765"
             x="231.489"
             xlink:href="#textext-2970bf4c-6"
             width="531.49603"
             height="212.59842" />
        </g>
        <g
           id="g4023"
           style="fill:#000000;fill-opacity:1">
          <use
             id="use4025"
             y="134.765"
             x="235.36301"
             xlink:href="#textext-2970bf4c-2"
             width="531.49603"
             height="212.59842" />
          <use
             id="use4027"
             y="134.765"
             x="244.11017"
             xlink:href="#textext-2970bf4c-3"
             width="531.49603"
             height="212.59842" />
        </g>
        <g
           id="g4029"
           style="fill:#000000;fill-opacity:1">
          <use
             id="use4031"
             y="134.765"
             x="248.54153"
             xlink:href="#textext-2970bf4c-4"
             width="531.49603"
             height="212.59842" />
        </g>
        <g
           id="g4033"
           style="fill:#000000;fill-opacity:1">
          <use
             id="use4035"
             y="134.765"
             x="254.51801"
             xlink:href="#textext-2970bf4c-7"
             width="531.49603"
             height="212.59842" />
        </g>
      </g>
    </g>
    <g
       transform="matrix(1.2,0,0,1.2,-145,-127.85714)"
       ns0:text="$\\gamma\'(l)$"
       ns0:preamble=""
       id="g4131">
      <defs
         id="defs4133">
        <g
           id="g4135">
          <symbol
             style="overflow:visible"
             overflow="visible"
             id="textext-1a648faa-0">
            <path
               style="stroke:none"
               d=""
               id="path4138" />
          </symbol>
          <symbol
             style="overflow:visible"
             overflow="visible"
             id="textext-1a648faa-1">
            <path
               style="stroke:none"
               d="M 0.40625,-2.53125 C 0.796875,-3.671875 1.890625,-3.6875 2,-3.6875 C 3.5,-3.6875 3.609375,-1.9375 3.609375,-1.15625 C 3.609375,-0.546875 3.5625,-0.375 3.484375,-0.171875 C 3.265625,0.546875 2.96875,1.703125 2.96875,1.96875 C 2.96875,2.078125 3.015625,2.140625 3.09375,2.140625 C 3.234375,2.140625 3.3125,1.921875 3.421875,1.546875 C 3.65625,0.703125 3.75,0.140625 3.78125,-0.171875 C 3.8125,-0.296875 3.828125,-0.421875 3.875,-0.5625 C 4.1875,-1.546875 4.828125,-3.03125 5.21875,-3.8125 C 5.296875,-3.9375 5.40625,-4.15625 5.40625,-4.203125 C 5.40625,-4.296875 5.3125,-4.296875 5.296875,-4.296875 C 5.265625,-4.296875 5.203125,-4.296875 5.171875,-4.234375 C 4.65625,-3.28125 4.25,-2.28125 3.859375,-1.28125 C 3.84375,-1.578125 3.84375,-2.34375 3.453125,-3.3125 C 3.203125,-3.921875 2.8125,-4.40625 2.125,-4.40625 C 0.875,-4.40625 0.171875,-2.890625 0.171875,-2.578125 C 0.171875,-2.484375 0.265625,-2.484375 0.375,-2.484375 L 0.40625,-2.53125 z"
               id="path4141" />
          </symbol>
          <symbol
             style="overflow:visible"
             overflow="visible"
             id="textext-1a648faa-2">
            <path
               style="stroke:none"
               d="M 2.578125,-6.8125 C 2.578125,-6.8125 2.578125,-6.921875 2.4375,-6.921875 C 2.21875,-6.921875 1.484375,-6.84375 1.21875,-6.8125 C 1.140625,-6.8125 1.03125,-6.796875 1.03125,-6.609375 C 1.03125,-6.5 1.140625,-6.5 1.28125,-6.5 C 1.765625,-6.5 1.78125,-6.40625 1.78125,-6.328125 L 1.75,-6.125 L 0.484375,-1.140625 C 0.453125,-1.03125 0.4375,-0.96875 0.4375,-0.8125 C 0.4375,-0.234375 0.875,0.109375 1.34375,0.109375 C 1.671875,0.109375 1.921875,-0.09375 2.09375,-0.453125 C 2.265625,-0.828125 2.390625,-1.40625 2.390625,-1.421875 C 2.390625,-1.53125 2.296875,-1.53125 2.265625,-1.53125 C 2.171875,-1.53125 2.15625,-1.484375 2.140625,-1.34375 C 1.96875,-0.703125 1.78125,-0.109375 1.375,-0.109375 C 1.078125,-0.109375 1.078125,-0.421875 1.078125,-0.5625 C 1.078125,-0.8125 1.09375,-0.859375 1.140625,-1.046875 L 2.578125,-6.8125 z"
               id="path4144" />
          </symbol>
          <symbol
             style="overflow:visible"
             overflow="visible"
             id="textext-1a648faa-3">
            <path
               style="stroke:none"
               d=""
               id="path4147" />
          </symbol>
          <symbol
             style="overflow:visible"
             overflow="visible"
             id="textext-1a648faa-4">
            <path
               style="stroke:none"
               d="M 2.03125,-3.296875 C 2.0625,-3.359375 2.078125,-3.421875 2.078125,-3.515625 C 2.078125,-3.734375 1.890625,-3.890625 1.671875,-3.890625 C 1.390625,-3.890625 1.328125,-3.671875 1.296875,-3.578125 L 0.375,-0.5625 C 0.359375,-0.53125 0.328125,-0.453125 0.328125,-0.4375 C 0.328125,-0.359375 0.546875,-0.28125 0.609375,-0.28125 C 0.65625,-0.28125 0.6875,-0.328125 0.703125,-0.390625 L 2.03125,-3.296875 z"
               id="path4150" />
          </symbol>
          <symbol
             style="overflow:visible"
             overflow="visible"
             id="textext-1a648faa-5">
            <path
               style="stroke:none"
               d=""
               id="path4153" />
          </symbol>
          <symbol
             style="overflow:visible"
             overflow="visible"
             id="textext-1a648faa-6">
            <path
               style="stroke:none"
               d="M 3.296875,2.390625 C 3.296875,2.359375 3.296875,2.34375 3.125,2.171875 C 1.890625,0.921875 1.5625,-0.96875 1.5625,-2.5 C 1.5625,-4.234375 1.9375,-5.96875 3.171875,-7.203125 C 3.296875,-7.328125 3.296875,-7.34375 3.296875,-7.375 C 3.296875,-7.453125 3.265625,-7.484375 3.203125,-7.484375 C 3.09375,-7.484375 2.203125,-6.796875 1.609375,-5.53125 C 1.109375,-4.4375 0.984375,-3.328125 0.984375,-2.5 C 0.984375,-1.71875 1.09375,-0.515625 1.640625,0.625 C 2.25,1.84375 3.09375,2.5 3.203125,2.5 C 3.265625,2.5 3.296875,2.46875 3.296875,2.390625 z"
               id="path4156" />
          </symbol>
          <symbol
             style="overflow:visible"
             overflow="visible"
             id="textext-1a648faa-7">
            <path
               style="stroke:none"
               d="M 2.875,-2.5 C 2.875,-3.265625 2.765625,-4.46875 2.21875,-5.609375 C 1.625,-6.828125 0.765625,-7.484375 0.671875,-7.484375 C 0.609375,-7.484375 0.5625,-7.4375 0.5625,-7.375 C 0.5625,-7.34375 0.5625,-7.328125 0.75,-7.140625 C 1.734375,-6.15625 2.296875,-4.578125 2.296875,-2.5 C 2.296875,-0.78125 1.9375,0.96875 0.703125,2.21875 C 0.5625,2.34375 0.5625,2.359375 0.5625,2.390625 C 0.5625,2.453125 0.609375,2.5 0.671875,2.5 C 0.765625,2.5 1.671875,1.8125 2.25,0.546875 C 2.765625,-0.546875 2.875,-1.65625 2.875,-2.5 z"
               id="path4159" />
          </symbol>
        </g>
      </defs>
      <g
         id="textext-1a648faa-8">
        <g
           style="fill:#000000;fill-opacity:1"
           id="g4162">
          <use
             height="212.59842"
             width="531.49603"
             xlink:href="#textext-1a648faa-1"
             x="223.43201"
             y="134.765"
             id="use4164" />
        </g>
        <g
           style="fill:#000000;fill-opacity:1"
           id="g4166">
          <use
             height="212.59842"
             width="531.49603"
             xlink:href="#textext-1a648faa-4"
             x="229.144"
             y="131.14999"
             id="use4168" />
        </g>
        <g
           style="fill:#000000;fill-opacity:1"
           id="g4170">
          <use
             height="212.59842"
             width="531.49603"
             xlink:href="#textext-1a648faa-6"
             x="231.939"
             y="134.765"
             id="use4172" />
        </g>
        <g
           style="fill:#000000;fill-opacity:1"
           id="g4174">
          <use
             height="212.59842"
             width="531.49603"
             xlink:href="#textext-1a648faa-2"
             x="235.813"
             y="134.765"
             id="use4176" />
        </g>
        <g
           style="fill:#000000;fill-opacity:1"
           id="g4178">
          <use
             height="212.59842"
             width="531.49603"
             xlink:href="#textext-1a648faa-7"
             x="238.98199"
             y="134.765"
             id="use4180" />
        </g>
      </g>
    </g>
    <g
       id="g4336"
       ns0:preamble=""
       ns0:text="$\\gamma\'(0)$"
       transform="matrix(1.2,0,0,1.2,-128.92857,-115.35715)">
      <defs
         id="defs4338">
        <g
           id="g4340">
          <symbol
             id="textext-c90417fc-0"
             overflow="visible"
             style="overflow:visible">
            <path
               id="path4343"
               d=""
               style="stroke:none" />
          </symbol>
          <symbol
             id="textext-c90417fc-1"
             overflow="visible"
             style="overflow:visible">
            <path
               id="path4346"
               d="M 0.40625,-2.53125 C 0.796875,-3.671875 1.890625,-3.6875 2,-3.6875 C 3.5,-3.6875 3.609375,-1.9375 3.609375,-1.15625 C 3.609375,-0.546875 3.5625,-0.375 3.484375,-0.171875 C 3.265625,0.546875 2.96875,1.703125 2.96875,1.96875 C 2.96875,2.078125 3.015625,2.140625 3.09375,2.140625 C 3.234375,2.140625 3.3125,1.921875 3.421875,1.546875 C 3.65625,0.703125 3.75,0.140625 3.78125,-0.171875 C 3.8125,-0.296875 3.828125,-0.421875 3.875,-0.5625 C 4.1875,-1.546875 4.828125,-3.03125 5.21875,-3.8125 C 5.296875,-3.9375 5.40625,-4.15625 5.40625,-4.203125 C 5.40625,-4.296875 5.3125,-4.296875 5.296875,-4.296875 C 5.265625,-4.296875 5.203125,-4.296875 5.171875,-4.234375 C 4.65625,-3.28125 4.25,-2.28125 3.859375,-1.28125 C 3.84375,-1.578125 3.84375,-2.34375 3.453125,-3.3125 C 3.203125,-3.921875 2.8125,-4.40625 2.125,-4.40625 C 0.875,-4.40625 0.171875,-2.890625 0.171875,-2.578125 C 0.171875,-2.484375 0.265625,-2.484375 0.375,-2.484375 L 0.40625,-2.53125 z"
               style="stroke:none" />
          </symbol>
          <symbol
             id="textext-c90417fc-2"
             overflow="visible"
             style="overflow:visible">
            <path
               id="path4349"
               d=""
               style="stroke:none" />
          </symbol>
          <symbol
             id="textext-c90417fc-3"
             overflow="visible"
             style="overflow:visible">
            <path
               id="path4352"
               d="M 2.03125,-3.296875 C 2.0625,-3.359375 2.078125,-3.421875 2.078125,-3.515625 C 2.078125,-3.734375 1.890625,-3.890625 1.671875,-3.890625 C 1.390625,-3.890625 1.328125,-3.671875 1.296875,-3.578125 L 0.375,-0.5625 C 0.359375,-0.53125 0.328125,-0.453125 0.328125,-0.4375 C 0.328125,-0.359375 0.546875,-0.28125 0.609375,-0.28125 C 0.65625,-0.28125 0.6875,-0.328125 0.703125,-0.390625 L 2.03125,-3.296875 z"
               style="stroke:none" />
          </symbol>
          <symbol
             id="textext-c90417fc-4"
             overflow="visible"
             style="overflow:visible">
            <path
               id="path4355"
               d=""
               style="stroke:none" />
          </symbol>
          <symbol
             id="textext-c90417fc-5"
             overflow="visible"
             style="overflow:visible">
            <path
               id="path4358"
               d="M 3.296875,2.390625 C 3.296875,2.359375 3.296875,2.34375 3.125,2.171875 C 1.890625,0.921875 1.5625,-0.96875 1.5625,-2.5 C 1.5625,-4.234375 1.9375,-5.96875 3.171875,-7.203125 C 3.296875,-7.328125 3.296875,-7.34375 3.296875,-7.375 C 3.296875,-7.453125 3.265625,-7.484375 3.203125,-7.484375 C 3.09375,-7.484375 2.203125,-6.796875 1.609375,-5.53125 C 1.109375,-4.4375 0.984375,-3.328125 0.984375,-2.5 C 0.984375,-1.71875 1.09375,-0.515625 1.640625,0.625 C 2.25,1.84375 3.09375,2.5 3.203125,2.5 C 3.265625,2.5 3.296875,2.46875 3.296875,2.390625 z"
               style="stroke:none" />
          </symbol>
          <symbol
             id="textext-c90417fc-6"
             overflow="visible"
             style="overflow:visible">
            <path
               id="path4361"
               d="M 4.578125,-3.1875 C 4.578125,-3.984375 4.53125,-4.78125 4.1875,-5.515625 C 3.734375,-6.484375 2.90625,-6.640625 2.5,-6.640625 C 1.890625,-6.640625 1.171875,-6.375 0.75,-5.453125 C 0.4375,-4.765625 0.390625,-3.984375 0.390625,-3.1875 C 0.390625,-2.4375 0.421875,-1.546875 0.84375,-0.78125 C 1.265625,0.015625 2,0.21875 2.484375,0.21875 C 3.015625,0.21875 3.78125,0.015625 4.21875,-0.9375 C 4.53125,-1.625 4.578125,-2.40625 4.578125,-3.1875 z M 2.484375,0 C 2.09375,0 1.5,-0.25 1.328125,-1.203125 C 1.21875,-1.796875 1.21875,-2.71875 1.21875,-3.3125 C 1.21875,-3.953125 1.21875,-4.609375 1.296875,-5.140625 C 1.484375,-6.328125 2.234375,-6.421875 2.484375,-6.421875 C 2.8125,-6.421875 3.46875,-6.234375 3.65625,-5.25 C 3.765625,-4.6875 3.765625,-3.9375 3.765625,-3.3125 C 3.765625,-2.5625 3.765625,-1.890625 3.65625,-1.25 C 3.5,-0.296875 2.9375,0 2.484375,0 z"
               style="stroke:none" />
          </symbol>
          <symbol
             id="textext-c90417fc-7"
             overflow="visible"
             style="overflow:visible">
            <path
               id="path4364"
               d="M 2.875,-2.5 C 2.875,-3.265625 2.765625,-4.46875 2.21875,-5.609375 C 1.625,-6.828125 0.765625,-7.484375 0.671875,-7.484375 C 0.609375,-7.484375 0.5625,-7.4375 0.5625,-7.375 C 0.5625,-7.34375 0.5625,-7.328125 0.75,-7.140625 C 1.734375,-6.15625 2.296875,-4.578125 2.296875,-2.5 C 2.296875,-0.78125 1.9375,0.96875 0.703125,2.21875 C 0.5625,2.34375 0.5625,2.359375 0.5625,2.390625 C 0.5625,2.453125 0.609375,2.5 0.671875,2.5 C 0.765625,2.5 1.671875,1.8125 2.25,0.546875 C 2.765625,-0.546875 2.875,-1.65625 2.875,-2.5 z"
               style="stroke:none" />
          </symbol>
        </g>
      </defs>
      <g
         id="textext-c90417fc-8">
        <g
           id="g4367"
           style="fill:#000000;fill-opacity:1">
          <use
             id="use4369"
             y="134.765"
             x="223.43201"
             xlink:href="#textext-c90417fc-1"
             width="531.49603"
             height="212.59842" />
        </g>
        <g
           id="g4371"
           style="fill:#000000;fill-opacity:1">
          <use
             id="use4373"
             y="131.14999"
             x="229.144"
             xlink:href="#textext-c90417fc-3"
             width="531.49603"
             height="212.59842" />
        </g>
        <g
           id="g4375"
           style="fill:#000000;fill-opacity:1">
          <use
             id="use4377"
             y="134.765"
             x="231.939"
             xlink:href="#textext-c90417fc-5"
             width="531.49603"
             height="212.59842" />
          <use
             id="use4379"
             y="134.765"
             x="235.81346"
             xlink:href="#textext-c90417fc-6"
             width="531.49603"
             height="212.59842" />
          <use
             id="use4381"
             y="134.765"
             x="240.79475"
             xlink:href="#textext-c90417fc-7"
             width="531.49603"
             height="212.59842" />
        </g>
      </g>
    </g>
    <g
       transform="matrix(1.2,0,0,1.2,-137.14286,-91.785714)"
       ns0:text="$\\gamma(\\epsilon)$"
       ns0:preamble=""
       id="g4593">
      <defs
         id="defs4595">
        <g
           id="g4597">
          <symbol
             style="overflow:visible"
             overflow="visible"
             id="textext-34b25c78-0">
            <path
               style="stroke:none"
               d=""
               id="path4600" />
          </symbol>
          <symbol
             style="overflow:visible"
             overflow="visible"
             id="textext-34b25c78-1">
            <path
               style="stroke:none"
               d="M 0.40625,-2.53125 C 0.796875,-3.671875 1.890625,-3.6875 2,-3.6875 C 3.5,-3.6875 3.609375,-1.9375 3.609375,-1.15625 C 3.609375,-0.546875 3.5625,-0.375 3.484375,-0.171875 C 3.265625,0.546875 2.96875,1.703125 2.96875,1.96875 C 2.96875,2.078125 3.015625,2.140625 3.09375,2.140625 C 3.234375,2.140625 3.3125,1.921875 3.421875,1.546875 C 3.65625,0.703125 3.75,0.140625 3.78125,-0.171875 C 3.8125,-0.296875 3.828125,-0.421875 3.875,-0.5625 C 4.1875,-1.546875 4.828125,-3.03125 5.21875,-3.8125 C 5.296875,-3.9375 5.40625,-4.15625 5.40625,-4.203125 C 5.40625,-4.296875 5.3125,-4.296875 5.296875,-4.296875 C 5.265625,-4.296875 5.203125,-4.296875 5.171875,-4.234375 C 4.65625,-3.28125 4.25,-2.28125 3.859375,-1.28125 C 3.84375,-1.578125 3.84375,-2.34375 3.453125,-3.3125 C 3.203125,-3.921875 2.8125,-4.40625 2.125,-4.40625 C 0.875,-4.40625 0.171875,-2.890625 0.171875,-2.578125 C 0.171875,-2.484375 0.265625,-2.484375 0.375,-2.484375 L 0.40625,-2.53125 z"
               id="path4603" />
          </symbol>
          <symbol
             style="overflow:visible"
             overflow="visible"
             id="textext-34b25c78-2">
            <path
               style="stroke:none"
               d="M 2.96875,-2.25 C 3.125,-2.25 3.3125,-2.25 3.3125,-2.421875 C 3.3125,-2.5625 3.1875,-2.5625 3.015625,-2.5625 L 1.40625,-2.5625 C 1.640625,-3.40625 2.203125,-3.984375 3.109375,-3.984375 L 3.421875,-3.984375 C 3.59375,-3.984375 3.75,-3.984375 3.75,-4.15625 C 3.75,-4.296875 3.625,-4.296875 3.453125,-4.296875 L 3.09375,-4.296875 C 1.796875,-4.296875 0.46875,-3.296875 0.46875,-1.78125 C 0.46875,-0.671875 1.21875,0.109375 2.265625,0.109375 C 2.921875,0.109375 3.5625,-0.296875 3.5625,-0.40625 C 3.5625,-0.421875 3.5625,-0.53125 3.46875,-0.53125 C 3.453125,-0.53125 3.421875,-0.53125 3.34375,-0.484375 C 3.03125,-0.28125 2.65625,-0.109375 2.296875,-0.109375 C 1.71875,-0.109375 1.21875,-0.53125 1.21875,-1.40625 C 1.21875,-1.75 1.296875,-2.140625 1.328125,-2.25 L 2.96875,-2.25 z"
               id="path4606" />
          </symbol>
          <symbol
             style="overflow:visible"
             overflow="visible"
             id="textext-34b25c78-3">
            <path
               style="stroke:none"
               d=""
               id="path4609" />
          </symbol>
          <symbol
             style="overflow:visible"
             overflow="visible"
             id="textext-34b25c78-4">
            <path
               style="stroke:none"
               d="M 3.296875,2.390625 C 3.296875,2.359375 3.296875,2.34375 3.125,2.171875 C 1.890625,0.921875 1.5625,-0.96875 1.5625,-2.5 C 1.5625,-4.234375 1.9375,-5.96875 3.171875,-7.203125 C 3.296875,-7.328125 3.296875,-7.34375 3.296875,-7.375 C 3.296875,-7.453125 3.265625,-7.484375 3.203125,-7.484375 C 3.09375,-7.484375 2.203125,-6.796875 1.609375,-5.53125 C 1.109375,-4.4375 0.984375,-3.328125 0.984375,-2.5 C 0.984375,-1.71875 1.09375,-0.515625 1.640625,0.625 C 2.25,1.84375 3.09375,2.5 3.203125,2.5 C 3.265625,2.5 3.296875,2.46875 3.296875,2.390625 z"
               id="path4612" />
          </symbol>
          <symbol
             style="overflow:visible"
             overflow="visible"
             id="textext-34b25c78-5">
            <path
               style="stroke:none"
               d="M 2.875,-2.5 C 2.875,-3.265625 2.765625,-4.46875 2.21875,-5.609375 C 1.625,-6.828125 0.765625,-7.484375 0.671875,-7.484375 C 0.609375,-7.484375 0.5625,-7.4375 0.5625,-7.375 C 0.5625,-7.34375 0.5625,-7.328125 0.75,-7.140625 C 1.734375,-6.15625 2.296875,-4.578125 2.296875,-2.5 C 2.296875,-0.78125 1.9375,0.96875 0.703125,2.21875 C 0.5625,2.34375 0.5625,2.359375 0.5625,2.390625 C 0.5625,2.453125 0.609375,2.5 0.671875,2.5 C 0.765625,2.5 1.671875,1.8125 2.25,0.546875 C 2.765625,-0.546875 2.875,-1.65625 2.875,-2.5 z"
               id="path4615" />
          </symbol>
        </g>
      </defs>
      <g
         id="textext-34b25c78-6">
        <g
           style="fill:#000000;fill-opacity:1"
           id="g4618">
          <use
             height="212.59842"
             width="531.49603"
             xlink:href="#textext-34b25c78-1"
             x="223.43201"
             y="134.765"
             id="use4620" />
        </g>
        <g
           style="fill:#000000;fill-opacity:1"
           id="g4622">
          <use
             height="212.59842"
             width="531.49603"
             xlink:href="#textext-34b25c78-4"
             x="229.144"
             y="134.765"
             id="use4624" />
        </g>
        <g
           style="fill:#000000;fill-opacity:1"
           id="g4626">
          <use
             height="212.59842"
             width="531.49603"
             xlink:href="#textext-34b25c78-2"
             x="233.01801"
             y="134.765"
             id="use4628" />
        </g>
        <g
           style="fill:#000000;fill-opacity:1"
           id="g4630">
          <use
             height="212.59842"
             width="531.49603"
             xlink:href="#textext-34b25c78-5"
             x="237.062"
             y="134.765"
             id="use4632" />
        </g>
      </g>
    </g>
    <g
       id="g4892"
       ns0:preamble=""
       ns0:text="$f_{\\epsilon}$"
       transform="matrix(1.2,0,0,1.2,-156.78571,-81.071429)">
      <defs
         id="defs4894">
        <g
           id="g4896">
          <symbol
             id="textext-0b3e5507-0"
             overflow="visible"
             style="overflow:visible">
            <path
               id="path4899"
               d=""
               style="stroke:none" />
          </symbol>
          <symbol
             id="textext-0b3e5507-1"
             overflow="visible"
             style="overflow:visible">
            <path
               id="path4902"
               d="M 3.65625,-3.984375 L 4.515625,-3.984375 C 4.71875,-3.984375 4.8125,-3.984375 4.8125,-4.1875 C 4.8125,-4.296875 4.71875,-4.296875 4.546875,-4.296875 L 3.71875,-4.296875 C 3.828125,-4.875 3.8125,-4.859375 3.921875,-5.4375 C 3.96875,-5.640625 4.109375,-6.34375 4.171875,-6.46875 C 4.25,-6.65625 4.421875,-6.8125 4.640625,-6.8125 C 4.671875,-6.8125 4.9375,-6.8125 5.125,-6.625 C 4.6875,-6.59375 4.578125,-6.234375 4.578125,-6.09375 C 4.578125,-5.859375 4.765625,-5.734375 4.953125,-5.734375 C 5.21875,-5.734375 5.5,-5.96875 5.5,-6.34375 C 5.5,-6.796875 5.046875,-7.03125 4.640625,-7.03125 C 4.296875,-7.03125 3.671875,-6.84375 3.375,-5.859375 C 3.3125,-5.65625 3.28125,-5.546875 3.046875,-4.296875 L 2.359375,-4.296875 C 2.15625,-4.296875 2.046875,-4.296875 2.046875,-4.109375 C 2.046875,-3.984375 2.140625,-3.984375 2.328125,-3.984375 L 2.984375,-3.984375 L 2.25,-0.046875 C 2.0625,0.921875 1.890625,1.828125 1.375,1.828125 C 1.328125,1.828125 1.09375,1.828125 0.890625,1.640625 C 1.359375,1.609375 1.453125,1.25 1.453125,1.109375 C 1.453125,0.875 1.265625,0.75 1.078125,0.75 C 0.8125,0.75 0.53125,0.984375 0.53125,1.359375 C 0.53125,1.796875 0.96875,2.046875 1.375,2.046875 C 1.921875,2.046875 2.328125,1.453125 2.5,1.078125 C 2.828125,0.453125 3.046875,-0.75 3.0625,-0.828125 L 3.65625,-3.984375 z"
               style="stroke:none" />
          </symbol>
          <symbol
             id="textext-0b3e5507-2"
             overflow="visible"
             style="overflow:visible">
            <path
               id="path4905"
               d=""
               style="stroke:none" />
          </symbol>
          <symbol
             id="textext-0b3e5507-3"
             overflow="visible"
             style="overflow:visible">
            <path
               id="path4908"
               d="M 2.4375,-1.5625 C 2.53125,-1.5625 2.671875,-1.5625 2.671875,-1.6875 C 2.671875,-1.8125 2.5625,-1.8125 2.4375,-1.8125 L 1.1875,-1.8125 C 1.390625,-2.453125 1.84375,-2.75 2.453125,-2.75 L 2.71875,-2.75 C 2.84375,-2.75 2.96875,-2.75 2.96875,-2.890625 C 2.96875,-3 2.875,-3 2.734375,-3 L 2.4375,-3 C 1.515625,-3 0.46875,-2.359375 0.46875,-1.296875 C 0.46875,-0.484375 1.09375,0.0625 1.90625,0.0625 C 2.109375,0.0625 2.40625,0.03125 2.78125,-0.171875 C 2.90625,-0.25 2.921875,-0.265625 2.921875,-0.3125 C 2.921875,-0.328125 2.921875,-0.453125 2.828125,-0.453125 C 2.796875,-0.453125 2.78125,-0.453125 2.734375,-0.421875 C 2.5,-0.265625 2.203125,-0.125 1.921875,-0.125 C 1.640625,-0.125 1.0625,-0.265625 1.0625,-1.0625 C 1.0625,-1.15625 1.0625,-1.296875 1.125,-1.5625 L 2.4375,-1.5625 z"
               style="stroke:none" />
          </symbol>
        </g>
      </defs>
      <g
         id="textext-0b3e5507-4">
        <g
           id="g4911"
           style="fill:#000000;fill-opacity:1">
          <use
             id="use4913"
             y="134.765"
             x="223.43201"
             xlink:href="#textext-0b3e5507-1"
             width="531.49603"
             height="212.59842" />
        </g>
        <g
           id="g4915"
           style="fill:#000000;fill-opacity:1">
          <use
             id="use4917"
             y="136.259"
             x="228.31"
             xlink:href="#textext-0b3e5507-3"
             width="531.49603"
             height="212.59842" />
        </g>
      </g>
    </g>
    <g
       transform="matrix(1.2,0,0,1.2,-220.71429,-74.642857)"
       ns0:text="$\\gamma(l-\\epsilon)$"
       ns0:preamble=""
       id="g5209">
      <defs
         id="defs5211">
        <g
           id="g5213">
          <symbol
             style="overflow:visible"
             overflow="visible"
             id="textext-a55e51d3-0">
            <path
               style="stroke:none"
               d=""
               id="path5216" />
          </symbol>
          <symbol
             style="overflow:visible"
             overflow="visible"
             id="textext-a55e51d3-1">
            <path
               style="stroke:none"
               d="M 0.40625,-2.53125 C 0.796875,-3.671875 1.890625,-3.6875 2,-3.6875 C 3.5,-3.6875 3.609375,-1.9375 3.609375,-1.15625 C 3.609375,-0.546875 3.5625,-0.375 3.484375,-0.171875 C 3.265625,0.546875 2.96875,1.703125 2.96875,1.96875 C 2.96875,2.078125 3.015625,2.140625 3.09375,2.140625 C 3.234375,2.140625 3.3125,1.921875 3.421875,1.546875 C 3.65625,0.703125 3.75,0.140625 3.78125,-0.171875 C 3.8125,-0.296875 3.828125,-0.421875 3.875,-0.5625 C 4.1875,-1.546875 4.828125,-3.03125 5.21875,-3.8125 C 5.296875,-3.9375 5.40625,-4.15625 5.40625,-4.203125 C 5.40625,-4.296875 5.3125,-4.296875 5.296875,-4.296875 C 5.265625,-4.296875 5.203125,-4.296875 5.171875,-4.234375 C 4.65625,-3.28125 4.25,-2.28125 3.859375,-1.28125 C 3.84375,-1.578125 3.84375,-2.34375 3.453125,-3.3125 C 3.203125,-3.921875 2.8125,-4.40625 2.125,-4.40625 C 0.875,-4.40625 0.171875,-2.890625 0.171875,-2.578125 C 0.171875,-2.484375 0.265625,-2.484375 0.375,-2.484375 L 0.40625,-2.53125 z"
               id="path5219" />
          </symbol>
          <symbol
             style="overflow:visible"
             overflow="visible"
             id="textext-a55e51d3-2">
            <path
               style="stroke:none"
               d="M 2.578125,-6.8125 C 2.578125,-6.8125 2.578125,-6.921875 2.4375,-6.921875 C 2.21875,-6.921875 1.484375,-6.84375 1.21875,-6.8125 C 1.140625,-6.8125 1.03125,-6.796875 1.03125,-6.609375 C 1.03125,-6.5 1.140625,-6.5 1.28125,-6.5 C 1.765625,-6.5 1.78125,-6.40625 1.78125,-6.328125 L 1.75,-6.125 L 0.484375,-1.140625 C 0.453125,-1.03125 0.4375,-0.96875 0.4375,-0.8125 C 0.4375,-0.234375 0.875,0.109375 1.34375,0.109375 C 1.671875,0.109375 1.921875,-0.09375 2.09375,-0.453125 C 2.265625,-0.828125 2.390625,-1.40625 2.390625,-1.421875 C 2.390625,-1.53125 2.296875,-1.53125 2.265625,-1.53125 C 2.171875,-1.53125 2.15625,-1.484375 2.140625,-1.34375 C 1.96875,-0.703125 1.78125,-0.109375 1.375,-0.109375 C 1.078125,-0.109375 1.078125,-0.421875 1.078125,-0.5625 C 1.078125,-0.8125 1.09375,-0.859375 1.140625,-1.046875 L 2.578125,-6.8125 z"
               id="path5222" />
          </symbol>
          <symbol
             style="overflow:visible"
             overflow="visible"
             id="textext-a55e51d3-3">
            <path
               style="stroke:none"
               d="M 2.96875,-2.25 C 3.125,-2.25 3.3125,-2.25 3.3125,-2.421875 C 3.3125,-2.5625 3.1875,-2.5625 3.015625,-2.5625 L 1.40625,-2.5625 C 1.640625,-3.40625 2.203125,-3.984375 3.109375,-3.984375 L 3.421875,-3.984375 C 3.59375,-3.984375 3.75,-3.984375 3.75,-4.15625 C 3.75,-4.296875 3.625,-4.296875 3.453125,-4.296875 L 3.09375,-4.296875 C 1.796875,-4.296875 0.46875,-3.296875 0.46875,-1.78125 C 0.46875,-0.671875 1.21875,0.109375 2.265625,0.109375 C 2.921875,0.109375 3.5625,-0.296875 3.5625,-0.40625 C 3.5625,-0.421875 3.5625,-0.53125 3.46875,-0.53125 C 3.453125,-0.53125 3.421875,-0.53125 3.34375,-0.484375 C 3.03125,-0.28125 2.65625,-0.109375 2.296875,-0.109375 C 1.71875,-0.109375 1.21875,-0.53125 1.21875,-1.40625 C 1.21875,-1.75 1.296875,-2.140625 1.328125,-2.25 L 2.96875,-2.25 z"
               id="path5225" />
          </symbol>
          <symbol
             style="overflow:visible"
             overflow="visible"
             id="textext-a55e51d3-4">
            <path
               style="stroke:none"
               d=""
               id="path5228" />
          </symbol>
          <symbol
             style="overflow:visible"
             overflow="visible"
             id="textext-a55e51d3-5">
            <path
               style="stroke:none"
               d="M 3.296875,2.390625 C 3.296875,2.359375 3.296875,2.34375 3.125,2.171875 C 1.890625,0.921875 1.5625,-0.96875 1.5625,-2.5 C 1.5625,-4.234375 1.9375,-5.96875 3.171875,-7.203125 C 3.296875,-7.328125 3.296875,-7.34375 3.296875,-7.375 C 3.296875,-7.453125 3.265625,-7.484375 3.203125,-7.484375 C 3.09375,-7.484375 2.203125,-6.796875 1.609375,-5.53125 C 1.109375,-4.4375 0.984375,-3.328125 0.984375,-2.5 C 0.984375,-1.71875 1.09375,-0.515625 1.640625,0.625 C 2.25,1.84375 3.09375,2.5 3.203125,2.5 C 3.265625,2.5 3.296875,2.46875 3.296875,2.390625 z"
               id="path5231" />
          </symbol>
          <symbol
             style="overflow:visible"
             overflow="visible"
             id="textext-a55e51d3-6">
            <path
               style="stroke:none"
               d="M 2.875,-2.5 C 2.875,-3.265625 2.765625,-4.46875 2.21875,-5.609375 C 1.625,-6.828125 0.765625,-7.484375 0.671875,-7.484375 C 0.609375,-7.484375 0.5625,-7.4375 0.5625,-7.375 C 0.5625,-7.34375 0.5625,-7.328125 0.75,-7.140625 C 1.734375,-6.15625 2.296875,-4.578125 2.296875,-2.5 C 2.296875,-0.78125 1.9375,0.96875 0.703125,2.21875 C 0.5625,2.34375 0.5625,2.359375 0.5625,2.390625 C 0.5625,2.453125 0.609375,2.5 0.671875,2.5 C 0.765625,2.5 1.671875,1.8125 2.25,0.546875 C 2.765625,-0.546875 2.875,-1.65625 2.875,-2.5 z"
               id="path5234" />
          </symbol>
          <symbol
             style="overflow:visible"
             overflow="visible"
             id="textext-a55e51d3-7">
            <path
               style="stroke:none"
               d=""
               id="path5237" />
          </symbol>
          <symbol
             style="overflow:visible"
             overflow="visible"
             id="textext-a55e51d3-8">
            <path
               style="stroke:none"
               d="M 6.59375,-2.296875 C 6.734375,-2.296875 6.921875,-2.296875 6.921875,-2.5 C 6.921875,-2.6875 6.734375,-2.6875 6.59375,-2.6875 L 1.15625,-2.6875 C 1.015625,-2.6875 0.828125,-2.6875 0.828125,-2.5 C 0.828125,-2.296875 1.015625,-2.296875 1.15625,-2.296875 L 6.59375,-2.296875 z"
               id="path5240" />
          </symbol>
        </g>
      </defs>
      <g
         id="textext-a55e51d3-9">
        <g
           style="fill:#000000;fill-opacity:1"
           id="g5243">
          <use
             height="212.59842"
             width="531.49603"
             xlink:href="#textext-a55e51d3-1"
             x="223.43201"
             y="134.765"
             id="use5245" />
        </g>
        <g
           style="fill:#000000;fill-opacity:1"
           id="g5247">
          <use
             height="212.59842"
             width="531.49603"
             xlink:href="#textext-a55e51d3-5"
             x="229.144"
             y="134.765"
             id="use5249" />
        </g>
        <g
           style="fill:#000000;fill-opacity:1"
           id="g5251">
          <use
             height="212.59842"
             width="531.49603"
             xlink:href="#textext-a55e51d3-2"
             x="233.01801"
             y="134.765"
             id="use5253" />
        </g>
        <g
           style="fill:#000000;fill-opacity:1"
           id="g5255">
          <use
             height="212.59842"
             width="531.49603"
             xlink:href="#textext-a55e51d3-8"
             x="238.39999"
             y="134.765"
             id="use5257" />
        </g>
        <g
           style="fill:#000000;fill-opacity:1"
           id="g5259">
          <use
             height="212.59842"
             width="531.49603"
             xlink:href="#textext-a55e51d3-3"
             x="248.36301"
             y="134.765"
             id="use5261" />
        </g>
        <g
           style="fill:#000000;fill-opacity:1"
           id="g5263">
          <use
             height="212.59842"
             width="531.49603"
             xlink:href="#textext-a55e51d3-6"
             x="252.407"
             y="134.765"
             id="use5265" />
        </g>
      </g>
    </g>
    <g
       id="g5625"
       ns0:preamble=""
       ns0:text="$\\gamma$"
       transform="matrix(1.2,0,0,1.2,-104.64286,-12.857143)">
      <defs
         id="defs5627">
        <g
           id="g5629">
          <symbol
             id="textext-86ace24c-0"
             overflow="visible"
             style="overflow:visible">
            <path
               id="path5632"
               d=""
               style="stroke:none" />
          </symbol>
          <symbol
             id="textext-86ace24c-1"
             overflow="visible"
             style="overflow:visible">
            <path
               id="path5635"
               d="M 0.40625,-2.53125 C 0.796875,-3.671875 1.890625,-3.6875 2,-3.6875 C 3.5,-3.6875 3.609375,-1.9375 3.609375,-1.15625 C 3.609375,-0.546875 3.5625,-0.375 3.484375,-0.171875 C 3.265625,0.546875 2.96875,1.703125 2.96875,1.96875 C 2.96875,2.078125 3.015625,2.140625 3.09375,2.140625 C 3.234375,2.140625 3.3125,1.921875 3.421875,1.546875 C 3.65625,0.703125 3.75,0.140625 3.78125,-0.171875 C 3.8125,-0.296875 3.828125,-0.421875 3.875,-0.5625 C 4.1875,-1.546875 4.828125,-3.03125 5.21875,-3.8125 C 5.296875,-3.9375 5.40625,-4.15625 5.40625,-4.203125 C 5.40625,-4.296875 5.3125,-4.296875 5.296875,-4.296875 C 5.265625,-4.296875 5.203125,-4.296875 5.171875,-4.234375 C 4.65625,-3.28125 4.25,-2.28125 3.859375,-1.28125 C 3.84375,-1.578125 3.84375,-2.34375 3.453125,-3.3125 C 3.203125,-3.921875 2.8125,-4.40625 2.125,-4.40625 C 0.875,-4.40625 0.171875,-2.890625 0.171875,-2.578125 C 0.171875,-2.484375 0.265625,-2.484375 0.375,-2.484375 L 0.40625,-2.53125 z"
               style="stroke:none" />
          </symbol>
        </g>
      </defs>
      <g
         id="textext-86ace24c-2">
        <g
           id="g5638"
           style="fill:#000000;fill-opacity:1">
          <use
             id="use5640"
             y="134.765"
             x="223.43201"
             xlink:href="#textext-86ace24c-1"
             width="531.49603"
             height="212.59842" />
        </g>
      </g>
    </g>
    <path
       style="fill:none;fill-rule:evenodd;stroke:#000000;stroke-width:0.89999998;stroke-linecap:butt;stroke-linejoin:miter;stroke-miterlimit:4;stroke-dasharray:none;stroke-opacity:1"
       d="M 318.92857,41.884133 C 335.35714,33.312705 335.35714,33.312705 335.35714,33.312705"
       id="path5836" />
    <path
       style="fill:none;fill-rule:evenodd;stroke:#000000;stroke-width:0.89999998;stroke-linecap:butt;stroke-linejoin:miter;stroke-miterlimit:4;stroke-dasharray:none;stroke-opacity:1"
       d="M 313.21428,54.741276 C 316.42857,52.598419 342.85714,37.955561 342.85714,37.955561"
       id="path5838" />
    <path
       style="fill:none;fill-rule:evenodd;stroke:#000000;stroke-width:0.89999998;stroke-linecap:butt;stroke-linejoin:miter;stroke-miterlimit:4;stroke-dasharray:none;stroke-opacity:1"
       d="M 309.64286,65.098419 L 348.21428,42.241276"
       id="path5840" />
    <path
       style="fill:none;fill-rule:evenodd;stroke:#000000;stroke-width:0.89999998;stroke-linecap:butt;stroke-linejoin:miter;stroke-miterlimit:4;stroke-dasharray:none;stroke-opacity:1"
       d="M 306.42858,76.169847 L 354.28572,48.669847"
       id="path5842" />
    <path
       style="fill:none;fill-rule:evenodd;stroke:#000000;stroke-width:0.89999998;stroke-linecap:butt;stroke-linejoin:miter;stroke-miterlimit:4;stroke-dasharray:none;stroke-opacity:1"
       d="M 304.28572,86.52699 L 360.71429,55.098419"
       id="path5844" />
    <path
       style="fill:none;fill-rule:evenodd;stroke:#000000;stroke-width:0.89999998;stroke-linecap:butt;stroke-linejoin:miter;stroke-miterlimit:4;stroke-dasharray:none;stroke-opacity:1"
       d="M 302.14285,97.598419 L 366.07142,61.884133"
       id="path5846" />
    <g
       transform="matrix(1.2,0,0,1.2,67.857143,-132.85714)"
       ns0:text="$m$"
       ns0:preamble=""
       id="g6044">
      <defs
         id="defs6046">
        <g
           id="g6048">
          <symbol
             style="overflow:visible"
             overflow="visible"
             id="textext-292592cf-0">
            <path
               style="stroke:none"
               d=""
               id="path6051" />
          </symbol>
          <symbol
             style="overflow:visible"
             overflow="visible"
             id="textext-292592cf-1">
            <path
               style="stroke:none"
               d="M 0.875,-0.59375 C 0.84375,-0.4375 0.78125,-0.203125 0.78125,-0.15625 C 0.78125,0.015625 0.921875,0.109375 1.078125,0.109375 C 1.203125,0.109375 1.375,0.03125 1.453125,-0.171875 C 1.453125,-0.1875 1.578125,-0.65625 1.640625,-0.90625 C 1.703125,-1.203125 1.78125,-1.5 1.859375,-1.796875 C 1.90625,-2.03125 1.96875,-2.25 2.03125,-2.46875 C 2.0625,-2.640625 2.140625,-2.9375 2.15625,-2.96875 C 2.296875,-3.28125 2.828125,-4.1875 3.78125,-4.1875 C 4.234375,-4.1875 4.3125,-3.8125 4.3125,-3.484375 C 4.3125,-3.234375 4.25,-2.953125 4.171875,-2.65625 C 4.046875,-2.15625 4,-1.953125 3.890625,-1.5 C 3.78125,-1.140625 3.78125,-1.078125 3.6875,-0.75 C 3.65625,-0.546875 3.5625,-0.203125 3.5625,-0.15625 C 3.5625,0.015625 3.703125,0.109375 3.84375,0.109375 C 4.15625,0.109375 4.21875,-0.140625 4.296875,-0.453125 C 4.4375,-1.015625 4.8125,-2.46875 4.890625,-2.859375 C 4.921875,-2.984375 5.453125,-4.1875 6.546875,-4.1875 C 6.96875,-4.1875 7.078125,-3.84375 7.078125,-3.484375 C 7.078125,-2.921875 6.65625,-1.78125 6.453125,-1.25 C 6.375,-1.015625 6.328125,-0.90625 6.328125,-0.703125 C 6.328125,-0.234375 6.671875,0.109375 7.140625,0.109375 C 8.078125,0.109375 8.453125,-1.34375 8.453125,-1.421875 C 8.453125,-1.53125 8.359375,-1.53125 8.328125,-1.53125 C 8.234375,-1.53125 8.234375,-1.5 8.1875,-1.34375 C 8.03125,-0.8125 7.71875,-0.109375 7.171875,-0.109375 C 7,-0.109375 6.921875,-0.203125 6.921875,-0.4375 C 6.921875,-0.6875 7.015625,-0.921875 7.109375,-1.140625 C 7.296875,-1.671875 7.71875,-2.765625 7.71875,-3.34375 C 7.71875,-3.984375 7.3125,-4.40625 6.5625,-4.40625 C 5.828125,-4.40625 5.3125,-3.96875 4.9375,-3.4375 C 4.9375,-3.5625 4.90625,-3.90625 4.625,-4.140625 C 4.375,-4.359375 4.0625,-4.40625 3.8125,-4.40625 C 2.90625,-4.40625 2.421875,-3.765625 2.25,-3.53125 C 2.203125,-4.109375 1.78125,-4.40625 1.328125,-4.40625 C 0.875,-4.40625 0.6875,-4.015625 0.59375,-3.84375 C 0.421875,-3.484375 0.296875,-2.90625 0.296875,-2.875 C 0.296875,-2.765625 0.390625,-2.765625 0.40625,-2.765625 C 0.515625,-2.765625 0.515625,-2.78125 0.578125,-3 C 0.75,-3.703125 0.953125,-4.1875 1.3125,-4.1875 C 1.46875,-4.1875 1.609375,-4.109375 1.609375,-3.734375 C 1.609375,-3.515625 1.578125,-3.40625 1.453125,-2.890625 L 0.875,-0.59375 z"
               id="path6054" />
          </symbol>
        </g>
      </defs>
      <g
         id="textext-292592cf-2">
        <g
           style="fill:#000000;fill-opacity:1"
           id="g6057">
          <use
             height="212.59842"
             width="531.49603"
             xlink:href="#textext-292592cf-1"
             x="223.43201"
             y="134.765"
             id="use6059" />
        </g>
      </g>
    </g>
    <g
       id="g6471"
       ns0:preamble=""
       ns0:text="$\\gamma(\\epsilon_{0})$"
       transform="matrix(1.2,0,0,1.2,103.92857,-102.85714)">
      <defs
         id="defs6473">
        <g
           id="g6475">
          <symbol
             id="textext-a40307b9-0"
             overflow="visible"
             style="overflow:visible">
            <path
               id="path6478"
               d=""
               style="stroke:none" />
          </symbol>
          <symbol
             id="textext-a40307b9-1"
             overflow="visible"
             style="overflow:visible">
            <path
               id="path6481"
               d="M 0.40625,-2.53125 C 0.796875,-3.671875 1.890625,-3.6875 2,-3.6875 C 3.5,-3.6875 3.609375,-1.9375 3.609375,-1.15625 C 3.609375,-0.546875 3.5625,-0.375 3.484375,-0.171875 C 3.265625,0.546875 2.96875,1.703125 2.96875,1.96875 C 2.96875,2.078125 3.015625,2.140625 3.09375,2.140625 C 3.234375,2.140625 3.3125,1.921875 3.421875,1.546875 C 3.65625,0.703125 3.75,0.140625 3.78125,-0.171875 C 3.8125,-0.296875 3.828125,-0.421875 3.875,-0.5625 C 4.1875,-1.546875 4.828125,-3.03125 5.21875,-3.8125 C 5.296875,-3.9375 5.40625,-4.15625 5.40625,-4.203125 C 5.40625,-4.296875 5.3125,-4.296875 5.296875,-4.296875 C 5.265625,-4.296875 5.203125,-4.296875 5.171875,-4.234375 C 4.65625,-3.28125 4.25,-2.28125 3.859375,-1.28125 C 3.84375,-1.578125 3.84375,-2.34375 3.453125,-3.3125 C 3.203125,-3.921875 2.8125,-4.40625 2.125,-4.40625 C 0.875,-4.40625 0.171875,-2.890625 0.171875,-2.578125 C 0.171875,-2.484375 0.265625,-2.484375 0.375,-2.484375 L 0.40625,-2.53125 z"
               style="stroke:none" />
          </symbol>
          <symbol
             id="textext-a40307b9-2"
             overflow="visible"
             style="overflow:visible">
            <path
               id="path6484"
               d="M 2.96875,-2.25 C 3.125,-2.25 3.3125,-2.25 3.3125,-2.421875 C 3.3125,-2.5625 3.1875,-2.5625 3.015625,-2.5625 L 1.40625,-2.5625 C 1.640625,-3.40625 2.203125,-3.984375 3.109375,-3.984375 L 3.421875,-3.984375 C 3.59375,-3.984375 3.75,-3.984375 3.75,-4.15625 C 3.75,-4.296875 3.625,-4.296875 3.453125,-4.296875 L 3.09375,-4.296875 C 1.796875,-4.296875 0.46875,-3.296875 0.46875,-1.78125 C 0.46875,-0.671875 1.21875,0.109375 2.265625,0.109375 C 2.921875,0.109375 3.5625,-0.296875 3.5625,-0.40625 C 3.5625,-0.421875 3.5625,-0.53125 3.46875,-0.53125 C 3.453125,-0.53125 3.421875,-0.53125 3.34375,-0.484375 C 3.03125,-0.28125 2.65625,-0.109375 2.296875,-0.109375 C 1.71875,-0.109375 1.21875,-0.53125 1.21875,-1.40625 C 1.21875,-1.75 1.296875,-2.140625 1.328125,-2.25 L 2.96875,-2.25 z"
               style="stroke:none" />
          </symbol>
          <symbol
             id="textext-a40307b9-3"
             overflow="visible"
             style="overflow:visible">
            <path
               id="path6487"
               d=""
               style="stroke:none" />
          </symbol>
          <symbol
             id="textext-a40307b9-4"
             overflow="visible"
             style="overflow:visible">
            <path
               id="path6490"
               d="M 3.296875,2.390625 C 3.296875,2.359375 3.296875,2.34375 3.125,2.171875 C 1.890625,0.921875 1.5625,-0.96875 1.5625,-2.5 C 1.5625,-4.234375 1.9375,-5.96875 3.171875,-7.203125 C 3.296875,-7.328125 3.296875,-7.34375 3.296875,-7.375 C 3.296875,-7.453125 3.265625,-7.484375 3.203125,-7.484375 C 3.09375,-7.484375 2.203125,-6.796875 1.609375,-5.53125 C 1.109375,-4.4375 0.984375,-3.328125 0.984375,-2.5 C 0.984375,-1.71875 1.09375,-0.515625 1.640625,0.625 C 2.25,1.84375 3.09375,2.5 3.203125,2.5 C 3.265625,2.5 3.296875,2.46875 3.296875,2.390625 z"
               style="stroke:none" />
          </symbol>
          <symbol
             id="textext-a40307b9-5"
             overflow="visible"
             style="overflow:visible">
            <path
               id="path6493"
               d="M 2.875,-2.5 C 2.875,-3.265625 2.765625,-4.46875 2.21875,-5.609375 C 1.625,-6.828125 0.765625,-7.484375 0.671875,-7.484375 C 0.609375,-7.484375 0.5625,-7.4375 0.5625,-7.375 C 0.5625,-7.34375 0.5625,-7.328125 0.75,-7.140625 C 1.734375,-6.15625 2.296875,-4.578125 2.296875,-2.5 C 2.296875,-0.78125 1.9375,0.96875 0.703125,2.21875 C 0.5625,2.34375 0.5625,2.359375 0.5625,2.390625 C 0.5625,2.453125 0.609375,2.5 0.671875,2.5 C 0.765625,2.5 1.671875,1.8125 2.25,0.546875 C 2.765625,-0.546875 2.875,-1.65625 2.875,-2.5 z"
               style="stroke:none" />
          </symbol>
          <symbol
             id="textext-a40307b9-6"
             overflow="visible"
             style="overflow:visible">
            <path
               id="path6496"
               d=""
               style="stroke:none" />
          </symbol>
          <symbol
             id="textext-a40307b9-7"
             overflow="visible"
             style="overflow:visible">
            <path
               id="path6499"
               d="M 3.59375,-2.21875 C 3.59375,-2.984375 3.5,-3.546875 3.1875,-4.03125 C 2.96875,-4.34375 2.53125,-4.625 1.984375,-4.625 C 0.359375,-4.625 0.359375,-2.71875 0.359375,-2.21875 C 0.359375,-1.71875 0.359375,0.140625 1.984375,0.140625 C 3.59375,0.140625 3.59375,-1.71875 3.59375,-2.21875 z M 1.984375,-0.0625 C 1.65625,-0.0625 1.234375,-0.25 1.09375,-0.8125 C 1,-1.21875 1,-1.796875 1,-2.3125 C 1,-2.828125 1,-3.359375 1.09375,-3.734375 C 1.25,-4.28125 1.6875,-4.4375 1.984375,-4.4375 C 2.359375,-4.4375 2.71875,-4.203125 2.84375,-3.796875 C 2.953125,-3.421875 2.96875,-2.921875 2.96875,-2.3125 C 2.96875,-1.796875 2.96875,-1.28125 2.875,-0.84375 C 2.734375,-0.203125 2.265625,-0.0625 1.984375,-0.0625 z"
               style="stroke:none" />
          </symbol>
        </g>
      </defs>
      <g
         id="textext-a40307b9-8">
        <g
           id="g6502"
           style="fill:#000000;fill-opacity:1">
          <use
             id="use6504"
             y="134.765"
             x="223.43201"
             xlink:href="#textext-a40307b9-1"
             width="531.49603"
             height="212.59842" />
        </g>
        <g
           id="g6506"
           style="fill:#000000;fill-opacity:1">
          <use
             id="use6508"
             y="134.765"
             x="229.144"
             xlink:href="#textext-a40307b9-4"
             width="531.49603"
             height="212.59842" />
        </g>
        <g
           id="g6510"
           style="fill:#000000;fill-opacity:1">
          <use
             id="use6512"
             y="134.765"
             x="233.01801"
             xlink:href="#textext-a40307b9-2"
             width="531.49603"
             height="212.59842" />
        </g>
        <g
           id="g6514"
           style="fill:#000000;fill-opacity:1">
          <use
             id="use6516"
             y="136.259"
             x="237.062"
             xlink:href="#textext-a40307b9-7"
             width="531.49603"
             height="212.59842" />
        </g>
        <g
           id="g6518"
           style="fill:#000000;fill-opacity:1">
          <use
             id="use6520"
             y="134.765"
             x="241.53101"
             xlink:href="#textext-a40307b9-5"
             width="531.49603"
             height="212.59842" />
        </g>
      </g>
    </g>
    <g
       transform="matrix(1.2,0,0,1.2,38.571429,-58.214285)"
       ns0:text="$\\gamma(l-\\epsilon_{0})$"
       ns0:preamble=""
       id="g6992">
      <defs
         id="defs6994">
        <g
           id="g6996">
          <symbol
             style="overflow:visible"
             overflow="visible"
             id="textext-aa5d7ae2-0">
            <path
               style="stroke:none"
               d=""
               id="path6999" />
          </symbol>
          <symbol
             style="overflow:visible"
             overflow="visible"
             id="textext-aa5d7ae2-1">
            <path
               style="stroke:none"
               d="M 0.40625,-2.53125 C 0.796875,-3.671875 1.890625,-3.6875 2,-3.6875 C 3.5,-3.6875 3.609375,-1.9375 3.609375,-1.15625 C 3.609375,-0.546875 3.5625,-0.375 3.484375,-0.171875 C 3.265625,0.546875 2.96875,1.703125 2.96875,1.96875 C 2.96875,2.078125 3.015625,2.140625 3.09375,2.140625 C 3.234375,2.140625 3.3125,1.921875 3.421875,1.546875 C 3.65625,0.703125 3.75,0.140625 3.78125,-0.171875 C 3.8125,-0.296875 3.828125,-0.421875 3.875,-0.5625 C 4.1875,-1.546875 4.828125,-3.03125 5.21875,-3.8125 C 5.296875,-3.9375 5.40625,-4.15625 5.40625,-4.203125 C 5.40625,-4.296875 5.3125,-4.296875 5.296875,-4.296875 C 5.265625,-4.296875 5.203125,-4.296875 5.171875,-4.234375 C 4.65625,-3.28125 4.25,-2.28125 3.859375,-1.28125 C 3.84375,-1.578125 3.84375,-2.34375 3.453125,-3.3125 C 3.203125,-3.921875 2.8125,-4.40625 2.125,-4.40625 C 0.875,-4.40625 0.171875,-2.890625 0.171875,-2.578125 C 0.171875,-2.484375 0.265625,-2.484375 0.375,-2.484375 L 0.40625,-2.53125 z"
               id="path7002" />
          </symbol>
          <symbol
             style="overflow:visible"
             overflow="visible"
             id="textext-aa5d7ae2-2">
            <path
               style="stroke:none"
               d="M 2.578125,-6.8125 C 2.578125,-6.8125 2.578125,-6.921875 2.4375,-6.921875 C 2.21875,-6.921875 1.484375,-6.84375 1.21875,-6.8125 C 1.140625,-6.8125 1.03125,-6.796875 1.03125,-6.609375 C 1.03125,-6.5 1.140625,-6.5 1.28125,-6.5 C 1.765625,-6.5 1.78125,-6.40625 1.78125,-6.328125 L 1.75,-6.125 L 0.484375,-1.140625 C 0.453125,-1.03125 0.4375,-0.96875 0.4375,-0.8125 C 0.4375,-0.234375 0.875,0.109375 1.34375,0.109375 C 1.671875,0.109375 1.921875,-0.09375 2.09375,-0.453125 C 2.265625,-0.828125 2.390625,-1.40625 2.390625,-1.421875 C 2.390625,-1.53125 2.296875,-1.53125 2.265625,-1.53125 C 2.171875,-1.53125 2.15625,-1.484375 2.140625,-1.34375 C 1.96875,-0.703125 1.78125,-0.109375 1.375,-0.109375 C 1.078125,-0.109375 1.078125,-0.421875 1.078125,-0.5625 C 1.078125,-0.8125 1.09375,-0.859375 1.140625,-1.046875 L 2.578125,-6.8125 z"
               id="path7005" />
          </symbol>
          <symbol
             style="overflow:visible"
             overflow="visible"
             id="textext-aa5d7ae2-3">
            <path
               style="stroke:none"
               d="M 2.96875,-2.25 C 3.125,-2.25 3.3125,-2.25 3.3125,-2.421875 C 3.3125,-2.5625 3.1875,-2.5625 3.015625,-2.5625 L 1.40625,-2.5625 C 1.640625,-3.40625 2.203125,-3.984375 3.109375,-3.984375 L 3.421875,-3.984375 C 3.59375,-3.984375 3.75,-3.984375 3.75,-4.15625 C 3.75,-4.296875 3.625,-4.296875 3.453125,-4.296875 L 3.09375,-4.296875 C 1.796875,-4.296875 0.46875,-3.296875 0.46875,-1.78125 C 0.46875,-0.671875 1.21875,0.109375 2.265625,0.109375 C 2.921875,0.109375 3.5625,-0.296875 3.5625,-0.40625 C 3.5625,-0.421875 3.5625,-0.53125 3.46875,-0.53125 C 3.453125,-0.53125 3.421875,-0.53125 3.34375,-0.484375 C 3.03125,-0.28125 2.65625,-0.109375 2.296875,-0.109375 C 1.71875,-0.109375 1.21875,-0.53125 1.21875,-1.40625 C 1.21875,-1.75 1.296875,-2.140625 1.328125,-2.25 L 2.96875,-2.25 z"
               id="path7008" />
          </symbol>
          <symbol
             style="overflow:visible"
             overflow="visible"
             id="textext-aa5d7ae2-4">
            <path
               style="stroke:none"
               d=""
               id="path7011" />
          </symbol>
          <symbol
             style="overflow:visible"
             overflow="visible"
             id="textext-aa5d7ae2-5">
            <path
               style="stroke:none"
               d="M 3.296875,2.390625 C 3.296875,2.359375 3.296875,2.34375 3.125,2.171875 C 1.890625,0.921875 1.5625,-0.96875 1.5625,-2.5 C 1.5625,-4.234375 1.9375,-5.96875 3.171875,-7.203125 C 3.296875,-7.328125 3.296875,-7.34375 3.296875,-7.375 C 3.296875,-7.453125 3.265625,-7.484375 3.203125,-7.484375 C 3.09375,-7.484375 2.203125,-6.796875 1.609375,-5.53125 C 1.109375,-4.4375 0.984375,-3.328125 0.984375,-2.5 C 0.984375,-1.71875 1.09375,-0.515625 1.640625,0.625 C 2.25,1.84375 3.09375,2.5 3.203125,2.5 C 3.265625,2.5 3.296875,2.46875 3.296875,2.390625 z"
               id="path7014" />
          </symbol>
          <symbol
             style="overflow:visible"
             overflow="visible"
             id="textext-aa5d7ae2-6">
            <path
               style="stroke:none"
               d="M 2.875,-2.5 C 2.875,-3.265625 2.765625,-4.46875 2.21875,-5.609375 C 1.625,-6.828125 0.765625,-7.484375 0.671875,-7.484375 C 0.609375,-7.484375 0.5625,-7.4375 0.5625,-7.375 C 0.5625,-7.34375 0.5625,-7.328125 0.75,-7.140625 C 1.734375,-6.15625 2.296875,-4.578125 2.296875,-2.5 C 2.296875,-0.78125 1.9375,0.96875 0.703125,2.21875 C 0.5625,2.34375 0.5625,2.359375 0.5625,2.390625 C 0.5625,2.453125 0.609375,2.5 0.671875,2.5 C 0.765625,2.5 1.671875,1.8125 2.25,0.546875 C 2.765625,-0.546875 2.875,-1.65625 2.875,-2.5 z"
               id="path7017" />
          </symbol>
          <symbol
             style="overflow:visible"
             overflow="visible"
             id="textext-aa5d7ae2-7">
            <path
               style="stroke:none"
               d=""
               id="path7020" />
          </symbol>
          <symbol
             style="overflow:visible"
             overflow="visible"
             id="textext-aa5d7ae2-8">
            <path
               style="stroke:none"
               d="M 6.59375,-2.296875 C 6.734375,-2.296875 6.921875,-2.296875 6.921875,-2.5 C 6.921875,-2.6875 6.734375,-2.6875 6.59375,-2.6875 L 1.15625,-2.6875 C 1.015625,-2.6875 0.828125,-2.6875 0.828125,-2.5 C 0.828125,-2.296875 1.015625,-2.296875 1.15625,-2.296875 L 6.59375,-2.296875 z"
               id="path7023" />
          </symbol>
          <symbol
             style="overflow:visible"
             overflow="visible"
             id="textext-aa5d7ae2-9">
            <path
               style="stroke:none"
               d=""
               id="path7026" />
          </symbol>
          <symbol
             style="overflow:visible"
             overflow="visible"
             id="textext-aa5d7ae2-10">
            <path
               style="stroke:none"
               d="M 3.59375,-2.21875 C 3.59375,-2.984375 3.5,-3.546875 3.1875,-4.03125 C 2.96875,-4.34375 2.53125,-4.625 1.984375,-4.625 C 0.359375,-4.625 0.359375,-2.71875 0.359375,-2.21875 C 0.359375,-1.71875 0.359375,0.140625 1.984375,0.140625 C 3.59375,0.140625 3.59375,-1.71875 3.59375,-2.21875 z M 1.984375,-0.0625 C 1.65625,-0.0625 1.234375,-0.25 1.09375,-0.8125 C 1,-1.21875 1,-1.796875 1,-2.3125 C 1,-2.828125 1,-3.359375 1.09375,-3.734375 C 1.25,-4.28125 1.6875,-4.4375 1.984375,-4.4375 C 2.359375,-4.4375 2.71875,-4.203125 2.84375,-3.796875 C 2.953125,-3.421875 2.96875,-2.921875 2.96875,-2.3125 C 2.96875,-1.796875 2.96875,-1.28125 2.875,-0.84375 C 2.734375,-0.203125 2.265625,-0.0625 1.984375,-0.0625 z"
               id="path7029" />
          </symbol>
        </g>
      </defs>
      <g
         id="textext-aa5d7ae2-11">
        <g
           style="fill:#000000;fill-opacity:1"
           id="g7032">
          <use
             height="212.59842"
             width="531.49603"
             xlink:href="#textext-aa5d7ae2-1"
             x="223.43201"
             y="134.765"
             id="use7034" />
        </g>
        <g
           style="fill:#000000;fill-opacity:1"
           id="g7036">
          <use
             height="212.59842"
             width="531.49603"
             xlink:href="#textext-aa5d7ae2-5"
             x="229.144"
             y="134.765"
             id="use7038" />
        </g>
        <g
           style="fill:#000000;fill-opacity:1"
           id="g7040">
          <use
             height="212.59842"
             width="531.49603"
             xlink:href="#textext-aa5d7ae2-2"
             x="233.01801"
             y="134.765"
             id="use7042" />
        </g>
        <g
           style="fill:#000000;fill-opacity:1"
           id="g7044">
          <use
             height="212.59842"
             width="531.49603"
             xlink:href="#textext-aa5d7ae2-8"
             x="238.39999"
             y="134.765"
             id="use7046" />
        </g>
        <g
           style="fill:#000000;fill-opacity:1"
           id="g7048">
          <use
             height="212.59842"
             width="531.49603"
             xlink:href="#textext-aa5d7ae2-3"
             x="248.36301"
             y="134.765"
             id="use7050" />
        </g>
        <g
           style="fill:#000000;fill-opacity:1"
           id="g7052">
          <use
             height="212.59842"
             width="531.49603"
             xlink:href="#textext-aa5d7ae2-10"
             x="252.407"
             y="136.259"
             id="use7054" />
        </g>
        <g
           style="fill:#000000;fill-opacity:1"
           id="g7056">
          <use
             height="212.59842"
             width="531.49603"
             xlink:href="#textext-aa5d7ae2-6"
             x="256.87601"
             y="134.765"
             id="use7058" />
        </g>
      </g>
    </g>
    <g
       id="g7610"
       ns0:preamble=""
       ns0:text="$\\gamma$"
       transform="matrix(1.2,0,0,1.2,72.857143,-20.714286)">
      <defs
         id="defs7612">
        <g
           id="g7614">
          <symbol
             id="symbol7616"
             overflow="visible"
             style="overflow:visible">
            <path
               id="path7618"
               d=""
               style="stroke:none" />
          </symbol>
          <symbol
             id="symbol7620"
             overflow="visible"
             style="overflow:visible">
            <path
               id="path7622"
               d="M 0.40625,-2.53125 C 0.796875,-3.671875 1.890625,-3.6875 2,-3.6875 C 3.5,-3.6875 3.609375,-1.9375 3.609375,-1.15625 C 3.609375,-0.546875 3.5625,-0.375 3.484375,-0.171875 C 3.265625,0.546875 2.96875,1.703125 2.96875,1.96875 C 2.96875,2.078125 3.015625,2.140625 3.09375,2.140625 C 3.234375,2.140625 3.3125,1.921875 3.421875,1.546875 C 3.65625,0.703125 3.75,0.140625 3.78125,-0.171875 C 3.8125,-0.296875 3.828125,-0.421875 3.875,-0.5625 C 4.1875,-1.546875 4.828125,-3.03125 5.21875,-3.8125 C 5.296875,-3.9375 5.40625,-4.15625 5.40625,-4.203125 C 5.40625,-4.296875 5.3125,-4.296875 5.296875,-4.296875 C 5.265625,-4.296875 5.203125,-4.296875 5.171875,-4.234375 C 4.65625,-3.28125 4.25,-2.28125 3.859375,-1.28125 C 3.84375,-1.578125 3.84375,-2.34375 3.453125,-3.3125 C 3.203125,-3.921875 2.8125,-4.40625 2.125,-4.40625 C 0.875,-4.40625 0.171875,-2.890625 0.171875,-2.578125 C 0.171875,-2.484375 0.265625,-2.484375 0.375,-2.484375 L 0.40625,-2.53125 z"
               style="stroke:none" />
          </symbol>
        </g>
      </defs>
      <g
         id="g7624">
        <g
           id="g7626"
           style="fill:#000000;fill-opacity:1">
          <use
             id="use7628"
             y="134.765"
             x="223.43201"
             xlink:href="#textext-86ace24c-1"
             width="531.49603"
             height="212.59842" />
        </g>
      </g>
    </g>
  </g>
</svg>
