<?xml version="1.0" encoding="UTF-8" standalone="no"?>
<!-- Created with Inkscape (http://www.inkscape.org/) -->
<svg
   xmlns:ns0="http://www.iki.fi/pav/software/textext/"
   xmlns:dc="http://purl.org/dc/elements/1.1/"
   xmlns:cc="http://creativecommons.org/ns#"
   xmlns:rdf="http://www.w3.org/1999/02/22-rdf-syntax-ns#"
   xmlns:svg="http://www.w3.org/2000/svg"
   xmlns="http://www.w3.org/2000/svg"
   xmlns:xlink="http://www.w3.org/1999/xlink"
   xmlns:sodipodi="http://sodipodi.sourceforge.net/DTD/sodipodi-0.dtd"
   xmlns:inkscape="http://www.inkscape.org/namespaces/inkscape"
   width="177.16534"
   height="212.59842"
   id="svg2"
   sodipodi:version="0.32"
   inkscape:version="0.46"
   version="1.0"
   sodipodi:docname="chap7-fig9.svg"
   inkscape:output_extension="org.inkscape.output.svg.inkscape">
  <sodipodi:namedview
     id="base"
     pagecolor="#ffffff"
     bordercolor="#666666"
     borderopacity="1.0"
     gridtolerance="10000"
     guidetolerance="10"
     objecttolerance="10"
     inkscape:pageopacity="0.0"
     inkscape:pageshadow="2"
     inkscape:zoom="0.98994949"
     inkscape:cx="188.99819"
     inkscape:cy="162.13221"
     inkscape:document-units="px"
     inkscape:current-layer="layer1"
     showgrid="false"
     units="cm"
     inkscape:window-width="914"
     inkscape:window-height="726"
     inkscape:window-x="100"
     inkscape:window-y="27" />
  <defs
     id="defs4">
    <marker
       style="overflow:visible;"
       id="Arrow1Mend"
       refX="0.0"
       refY="0.0"
       orient="auto"
       inkscape:stockid="Arrow1Mend">
      <path
         transform="scale(0.4) rotate(180) translate(10,0)"
         style="fill-rule:evenodd;stroke:#000000;stroke-width:1.0pt;marker-start:none;"
         d="M 0.0,0.0 L 5.0,-5.0 L -12.5,0.0 L 5.0,5.0 L 0.0,0.0 z "
         id="path3173" />
    </marker>
    <marker
       style="overflow:visible"
       id="CurveIn"
       refX="0.0"
       refY="0.0"
       orient="auto"
       inkscape:stockid="CurveIn">
      <path
         transform="scale(0.6)"
         style="fill-rule:evenodd;stroke:#000000;stroke-width:1.0pt;marker-start:none;marker-end:none;fill:none"
         d="M 4.6254930,-5.0456926 C 1.8654930,-5.0456926 -0.37450702,-2.8056926 -0.37450702,-0.045692580 C -0.37450702,2.7143074 1.8654930,4.9543074 4.6254930,4.9543074"
         id="path3349" />
    </marker>
    <inkscape:perspective
       id="perspective10"
       inkscape:persp3d-origin="372.04724 : 350.78739 : 1"
       inkscape:vp_z="744.09448 : 526.18109 : 1"
       inkscape:vp_y="0 : 1000 : 0"
       inkscape:vp_x="0 : 526.18109 : 1"
       sodipodi:type="inkscape:persp3d" />
  </defs>
  <metadata
     id="metadata7">
    <rdf:RDF>
      <cc:Work
         rdf:about="">
        <dc:format>image/svg+xml</dc:format>
        <dc:type
           rdf:resource="http://purl.org/dc/dcmitype/StillImage" />
      </cc:Work>
    </rdf:RDF>
  </metadata>
  <g
     id="layer1"
     inkscape:groupmode="layer"
     inkscape:label="Layer 1">
    <path
       transform="translate(-10,10)"
       d="M 152.02795,176.23293 A 58.841385,20.203051 0 1 1 34.345184,176.23293 A 58.841385,20.203051 0 1 1 152.02795,176.23293 z"
       sodipodi:ry="20.203051"
       sodipodi:rx="58.841385"
       sodipodi:cy="176.23293"
       sodipodi:cx="93.186569"
       id="path2383"
       style="fill:none;fill-opacity:1;fill-rule:evenodd;stroke:#000000;stroke-width:0.89999998;stroke-linecap:butt;stroke-linejoin:miter;marker:none;marker-start:none;marker-mid:none;marker-end:none;stroke-miterlimit:4;stroke-dasharray:none;stroke-dashoffset:0;stroke-opacity:1;visibility:visible;display:inline;overflow:visible;enable-background:accumulate"
       sodipodi:type="arc" />
    <path
       sodipodi:open="true"
       sodipodi:end="4.7198529"
       sodipodi:start="0"
       transform="matrix(-1,0,0,-1,176.37314,210.46585)"
       sodipodi:type="arc"
       style="fill:none;fill-opacity:1;fill-rule:evenodd;stroke:#000000;stroke-width:0.89999998;stroke-linecap:butt;stroke-linejoin:miter;marker:none;marker-start:none;marker-mid:none;marker-end:url(#CurveIn);stroke-miterlimit:4;stroke-dasharray:none;stroke-dashoffset:0;stroke-opacity:1;visibility:visible;display:inline;overflow:visible;enable-background:accumulate"
       id="path3155"
       sodipodi:cx="93.186569"
       sodipodi:cy="176.23293"
       sodipodi:rx="58.841385"
       sodipodi:ry="20.203051"
       d="M 152.02795,176.23293 A 58.841385,20.203051 0 1 1 93.625753,156.03044" />
    <path
       d="M 150.85609,180.24489 A 58.841385,20.203051 0 0 1 53.082204,191.01662"
       sodipodi:ry="20.203051"
       sodipodi:rx="58.841385"
       sodipodi:cy="176.23293"
       sodipodi:cx="93.186569"
       id="path3159"
       style="fill:none;fill-opacity:1;fill-rule:evenodd;stroke:#000000;stroke-width:0.90000004;stroke-linecap:butt;stroke-linejoin:miter;marker:none;marker-start:none;marker-mid:none;marker-end:url(#CurveIn);stroke-miterlimit:4;stroke-dasharray:none;stroke-dashoffset:0;stroke-opacity:1;visibility:visible;display:inline;overflow:visible;enable-background:accumulate"
       sodipodi:type="arc"
       transform="matrix(-0.9990416,4.3769904e-2,4.3769904e-2,0.9990416,167.2842,-152.66207)"
       sodipodi:start="0.1999109"
       sodipodi:end="2.3206987"
       sodipodi:open="true" />
    <path
       sodipodi:open="true"
       sodipodi:end="2.3206987"
       sodipodi:start="2.1199239"
       transform="matrix(-0.9977325,-6.7303344e-2,-6.7303344e-2,0.9977325,177.02612,-142.96818)"
       sodipodi:type="arc"
       style="fill:none;fill-opacity:1;fill-rule:evenodd;stroke:#000000;stroke-width:0.90000004;stroke-linecap:butt;stroke-linejoin:miter;marker:none;marker-start:none;marker-mid:none;marker-end:url(#CurveIn);stroke-miterlimit:4;stroke-dasharray:none;stroke-dashoffset:0;stroke-opacity:1;visibility:visible;display:inline;overflow:visible;enable-background:accumulate"
       id="path4454"
       sodipodi:cx="93.186569"
       sodipodi:cy="176.23293"
       sodipodi:rx="58.841385"
       sodipodi:ry="20.203051"
       d="M 62.474705,193.46573 A 58.841385,20.203051 0 0 1 53.082204,191.01662" />
    <path
       id="path4458"
       d="M 24.285714,33.669847 C 24.285714,185.8127 23.928571,185.8127 23.928571,185.8127"
       style="fill:none;fill-rule:evenodd;stroke:#000000;stroke-width:0.89999998;stroke-linecap:butt;stroke-linejoin:miter;stroke-miterlimit:4;stroke-dasharray:3.6, 3.6;stroke-dashoffset:0;stroke-opacity:1" />
    <path
       style="fill:none;fill-rule:evenodd;stroke:#000000;stroke-width:0.89999998;stroke-linecap:butt;stroke-linejoin:miter;stroke-miterlimit:4;stroke-dasharray:3.6, 3.6;stroke-dashoffset:0;stroke-opacity:1"
       d="M 141.92857,35.098419 C 141.92857,187.24126 141.57143,187.24126 141.57143,187.24126"
       id="path4462" />
    <path
       sodipodi:nodetypes="cc"
       id="path4468"
       d="M 53.571429,17.241276 L 53.571429,203.3127"
       style="fill:none;fill-rule:evenodd;stroke:#000000;stroke-width:1;stroke-linecap:butt;stroke-linejoin:miter;stroke-miterlimit:4;stroke-dasharray:3, 3;stroke-dashoffset:0;stroke-opacity:1" />
    <path
       sodipodi:nodetypes="cc"
       id="path4470"
       d="M 84.642859,16.169847 L 84.285716,207.95554"
       style="fill:none;fill-rule:evenodd;stroke:#000000;stroke-width:1;stroke-linecap:butt;stroke-linejoin:miter;stroke-miterlimit:4;stroke-dasharray:4, 4;stroke-dashoffset:0;stroke-opacity:1" />
    <path
       sodipodi:nodetypes="cc"
       style="fill:none;fill-rule:evenodd;stroke:#000000;stroke-width:1;stroke-linecap:butt;stroke-linejoin:miter;stroke-miterlimit:4;stroke-dasharray:3, 3;stroke-dashoffset:0;stroke-opacity:1"
       d="M 103.71429,15.812705 L 103.71429,205.45556"
       id="path4472" />
    <path
       id="path4474"
       d="M 120.07143,19.098419 L 120.07143,205.16984"
       style="fill:none;fill-rule:evenodd;stroke:#000000;stroke-width:1;stroke-linecap:butt;stroke-linejoin:miter;stroke-miterlimit:4;stroke-dasharray:3, 3;stroke-dashoffset:0;stroke-opacity:1"
       sodipodi:nodetypes="cc" />
    <path
       transform="translate(89.642857,155.35714)"
       d="M 16.071428,49.384132 A 1.7857143,1.7857143 0 1 1 12.5,49.384132 A 1.7857143,1.7857143 0 1 1 16.071428,49.384132 z"
       sodipodi:ry="1.7857143"
       sodipodi:rx="1.7857143"
       sodipodi:cy="49.384132"
       sodipodi:cx="14.285714"
       id="path4478"
       style="fill:#000000;fill-opacity:1;fill-rule:evenodd;stroke:#000000;stroke-width:1px;stroke-linecap:butt;stroke-linejoin:miter;marker:none;marker-start:none;marker-mid:none;marker-end:none;stroke-miterlimit:4;stroke-dasharray:none;stroke-dashoffset:0;stroke-opacity:1;visibility:visible;display:inline;overflow:visible;enable-background:accumulate"
       sodipodi:type="arc" />
    <path
       sodipodi:type="arc"
       style="fill:#000000;fill-opacity:1;fill-rule:evenodd;stroke:#000000;stroke-width:1px;stroke-linecap:butt;stroke-linejoin:miter;marker:none;marker-start:none;marker-mid:none;marker-end:none;stroke-miterlimit:4;stroke-dasharray:none;stroke-dashoffset:0;stroke-opacity:1;visibility:visible;display:inline;overflow:visible;enable-background:accumulate"
       id="path4480"
       sodipodi:cx="14.285714"
       sodipodi:cy="49.384132"
       sodipodi:rx="1.7857143"
       sodipodi:ry="1.7857143"
       d="M 16.071428,49.384132 A 1.7857143,1.7857143 0 1 1 12.5,49.384132 A 1.7857143,1.7857143 0 1 1 16.071428,49.384132 z"
       transform="translate(39.285714,153.28571)" />
    <path
       transform="translate(39.428571,-2.785714)"
       d="M 16.071428,49.384132 A 1.7857143,1.7857143 0 1 1 12.5,49.384132 A 1.7857143,1.7857143 0 1 1 16.071428,49.384132 z"
       sodipodi:ry="1.7857143"
       sodipodi:rx="1.7857143"
       sodipodi:cy="49.384132"
       sodipodi:cx="14.285714"
       id="path4482"
       style="fill:#000000;fill-opacity:1;fill-rule:evenodd;stroke:#000000;stroke-width:1px;stroke-linecap:butt;stroke-linejoin:miter;marker:none;marker-start:none;marker-mid:none;marker-end:none;stroke-miterlimit:4;stroke-dasharray:none;stroke-dashoffset:0;stroke-opacity:1;visibility:visible;display:inline;overflow:visible;enable-background:accumulate"
       sodipodi:type="arc" />
    <path
       sodipodi:type="arc"
       style="fill:#000000;fill-opacity:1;fill-rule:evenodd;stroke:#000000;stroke-width:1px;stroke-linecap:butt;stroke-linejoin:miter;marker:none;marker-start:none;marker-mid:none;marker-end:none;stroke-miterlimit:4;stroke-dasharray:none;stroke-dashoffset:0;stroke-opacity:1;visibility:visible;display:inline;overflow:visible;enable-background:accumulate"
       id="path4484"
       sodipodi:cx="14.285714"
       sodipodi:cy="49.384132"
       sodipodi:rx="1.7857143"
       sodipodi:ry="1.7857143"
       d="M 16.071428,49.384132 A 1.7857143,1.7857143 0 1 1 12.5,49.384132 A 1.7857143,1.7857143 0 1 1 16.071428,49.384132 z"
       transform="translate(89.428571,4.5)" />
    <path
       transform="translate(89.428571,-4)"
       d="M 16.071428,49.384132 A 1.7857143,1.7857143 0 1 1 12.5,49.384132 A 1.7857143,1.7857143 0 1 1 16.071428,49.384132 z"
       sodipodi:ry="1.7857143"
       sodipodi:rx="1.7857143"
       sodipodi:cy="49.384132"
       sodipodi:cx="14.285714"
       id="path4486"
       style="fill:#000000;fill-opacity:1;fill-rule:evenodd;stroke:#000000;stroke-width:1px;stroke-linecap:butt;stroke-linejoin:miter;marker:none;marker-start:none;marker-mid:none;marker-end:none;stroke-miterlimit:4;stroke-dasharray:none;stroke-dashoffset:0;stroke-opacity:1;visibility:visible;display:inline;overflow:visible;enable-background:accumulate"
       sodipodi:type="arc" />
    <path
       id="path4520"
       d="M 162.14286,58.669848 L 162.14286,93.669848"
       style="fill:none;fill-rule:evenodd;stroke:#000000;stroke-width:1px;stroke-linecap:butt;stroke-linejoin:miter;stroke-opacity:1;marker-end:url(#Arrow1Mend)" />
    <g
       id="g5071"
       ns0:preamble=""
       ns0:text="$p$"
       transform="matrix(1.2,0,0,1.2,-101.78571,-85)">
      <defs
         id="defs5073">
        <g
           id="g5075">
          <symbol
             id="textext-90dd7d34-0"
             overflow="visible"
             style="overflow:visible">
            <path
               id="path5078"
               d=""
               style="stroke:none" />
          </symbol>
          <symbol
             id="textext-90dd7d34-1"
             overflow="visible"
             style="overflow:visible">
            <path
               id="path5081"
               d="M 0.453125,1.21875 C 0.375,1.5625 0.34375,1.625 -0.09375,1.625 C -0.203125,1.625 -0.3125,1.625 -0.3125,1.8125 C -0.3125,1.890625 -0.265625,1.9375 -0.1875,1.9375 C 0.078125,1.9375 0.375,1.90625 0.640625,1.90625 C 0.984375,1.90625 1.3125,1.9375 1.640625,1.9375 C 1.6875,1.9375 1.8125,1.9375 1.8125,1.734375 C 1.8125,1.625 1.71875,1.625 1.578125,1.625 C 1.078125,1.625 1.078125,1.5625 1.078125,1.46875 C 1.078125,1.34375 1.5,-0.28125 1.5625,-0.53125 C 1.6875,-0.234375 1.96875,0.109375 2.484375,0.109375 C 3.640625,0.109375 4.890625,-1.34375 4.890625,-2.8125 C 4.890625,-3.75 4.3125,-4.40625 3.5625,-4.40625 C 3.0625,-4.40625 2.578125,-4.046875 2.25,-3.65625 C 2.15625,-4.203125 1.71875,-4.40625 1.359375,-4.40625 C 0.890625,-4.40625 0.703125,-4.015625 0.625,-3.84375 C 0.4375,-3.5 0.3125,-2.90625 0.3125,-2.875 C 0.3125,-2.765625 0.40625,-2.765625 0.421875,-2.765625 C 0.53125,-2.765625 0.53125,-2.78125 0.59375,-3 C 0.765625,-3.703125 0.96875,-4.1875 1.328125,-4.1875 C 1.5,-4.1875 1.640625,-4.109375 1.640625,-3.734375 C 1.640625,-3.5 1.609375,-3.390625 1.5625,-3.21875 L 0.453125,1.21875 z M 2.203125,-3.109375 C 2.265625,-3.375 2.546875,-3.65625 2.71875,-3.8125 C 3.078125,-4.109375 3.359375,-4.1875 3.53125,-4.1875 C 3.921875,-4.1875 4.171875,-3.84375 4.171875,-3.25 C 4.171875,-2.65625 3.84375,-1.515625 3.65625,-1.140625 C 3.3125,-0.4375 2.84375,-0.109375 2.46875,-0.109375 C 1.8125,-0.109375 1.6875,-0.9375 1.6875,-1 C 1.6875,-1.015625 1.6875,-1.03125 1.71875,-1.15625 L 2.203125,-3.109375 z"
               style="stroke:none" />
          </symbol>
        </g>
      </defs>
      <g
         id="textext-90dd7d34-2">
        <g
           id="g5084"
           style="fill:#000000;fill-opacity:1">
          <use
             id="use5086"
             y="134.765"
             x="223.43201"
             xlink:href="#textext-90dd7d34-1"
             width="177.16534"
             height="212.59842" />
        </g>
      </g>
    </g>
  </g>
</svg>
