<?xml version="1.0" encoding="UTF-8" standalone="no"?>
<!-- Created with Inkscape (http://www.inkscape.org/) -->
<svg
   xmlns:ns0="http://www.iki.fi/pav/software/textext/"
   xmlns:dc="http://purl.org/dc/elements/1.1/"
   xmlns:cc="http://creativecommons.org/ns#"
   xmlns:rdf="http://www.w3.org/1999/02/22-rdf-syntax-ns#"
   xmlns:svg="http://www.w3.org/2000/svg"
   xmlns="http://www.w3.org/2000/svg"
   xmlns:xlink="http://www.w3.org/1999/xlink"
   xmlns:sodipodi="http://sodipodi.sourceforge.net/DTD/sodipodi-0.dtd"
   xmlns:inkscape="http://www.inkscape.org/namespaces/inkscape"
   width="496.06299"
   height="177.16534"
   id="svg2"
   sodipodi:version="0.32"
   inkscape:version="0.46"
   version="1.0"
   sodipodi:docname="chap7-fig7.svg"
   inkscape:output_extension="org.inkscape.output.svg.inkscape">
  <sodipodi:namedview
     id="base"
     pagecolor="#ffffff"
     bordercolor="#666666"
     borderopacity="1.0"
     gridtolerance="10000"
     guidetolerance="10"
     objecttolerance="10"
     inkscape:pageopacity="0.0"
     inkscape:pageshadow="2"
     inkscape:zoom="2.8"
     inkscape:cx="208.40906"
     inkscape:cy="95.470259"
     inkscape:document-units="px"
     inkscape:current-layer="layer1"
     showgrid="false"
     units="cm"
     inkscape:window-width="1009"
     inkscape:window-height="726"
     inkscape:window-x="5"
     inkscape:window-y="27" />
  <defs
     id="defs4">
    <marker
       style="overflow:visible"
       id="CurvyCross"
       refX="0"
       refY="0"
       orient="auto"
       inkscape:stockid="CurvyCross">
      <g
         transform="scale(0.6,0.6)"
         id="g3357">
        <path
           style="fill:none;fill-rule:evenodd;stroke:#000000;stroke-width:1pt;marker-start:none;marker-end:none"
           d="M 4.625493,-5.0456926 C 1.865493,-5.0456926 -0.37450702,-2.8056926 -0.37450702,-0.04569258 C -0.37450702,2.7143074 1.865493,4.9543074 4.625493,4.9543074"
           id="path3359" />
        <path
           style="fill:none;fill-rule:evenodd;stroke:#000000;stroke-width:1pt;marker-start:none;marker-end:none"
           d="M -5.4129913,-5.0456926 C -2.6529913,-5.0456926 -0.41299131,-2.8056926 -0.41299131,-0.04569258 C -0.41299131,2.7143074 -2.6529913,4.9543074 -5.4129913,4.9543074"
           id="path3361" />
      </g>
    </marker>
    <marker
       style="overflow:visible"
       id="Arrow1Mend"
       refX="0"
       refY="0"
       orient="auto"
       inkscape:stockid="Arrow1Mend">
      <path
         transform="matrix(-0.4,0,0,-0.4,-4,0)"
         style="fill-rule:evenodd;stroke:#000000;stroke-width:1pt;marker-start:none"
         d="M 0,0 L 5,-5 L -12.5,0 L 5,5 L 0,0 z"
         id="path3175" />
    </marker>
    <inkscape:perspective
       id="perspective10"
       inkscape:persp3d-origin="372.04724 : 350.78739 : 1"
       inkscape:vp_z="744.09448 : 526.18109 : 1"
       inkscape:vp_y="0 : 1000 : 0"
       inkscape:vp_x="0 : 526.18109 : 1"
       sodipodi:type="inkscape:persp3d" />
  </defs>
  <metadata
     id="metadata7">
    <rdf:RDF>
      <cc:Work
         rdf:about="">
        <dc:format>image/svg+xml</dc:format>
        <dc:type
           rdf:resource="http://purl.org/dc/dcmitype/StillImage" />
      </cc:Work>
    </rdf:RDF>
  </metadata>
  <g
     id="layer1"
     inkscape:groupmode="layer"
     inkscape:label="Layer 1">
    <path
       transform="matrix(1.4003613,0,0,1.3592847,-80.83293,-32.564288)"
       d="M 242.18407,95.517807 A 51.770317,51.770317 0 1 1 138.64344,95.517807 A 51.770317,51.770317 0 1 1 242.18407,95.517807 z"
       sodipodi:ry="51.770317"
       sodipodi:rx="51.770317"
       sodipodi:cy="95.517807"
       sodipodi:cx="190.41376"
       id="path2383"
       style="fill:none;fill-opacity:1;fill-rule:evenodd;stroke:#000000;stroke-width:0.65232986;stroke-linecap:butt;stroke-linejoin:miter;marker:none;marker-start:none;marker-mid:none;marker-end:none;stroke-miterlimit:4;stroke-dasharray:none;stroke-dashoffset:0;stroke-opacity:1;visibility:visible;display:inline;overflow:visible;enable-background:accumulate"
       sodipodi:type="arc" />
    <path
       transform="translate(-0.3571428,86.357143)"
       d="M 187.85714,10.125141 A 1.7857143,1.9642857 0 1 1 184.28571,10.125141 A 1.7857143,1.9642857 0 1 1 187.85714,10.125141 z"
       sodipodi:ry="1.9642857"
       sodipodi:rx="1.7857143"
       sodipodi:cy="10.125141"
       sodipodi:cx="186.07143"
       id="path3964"
       style="fill:#000000;fill-opacity:1;fill-rule:evenodd;stroke:#000000;stroke-width:1px;stroke-linecap:butt;stroke-linejoin:miter;marker:none;marker-start:none;marker-mid:none;marker-end:none;stroke-miterlimit:4;stroke-dasharray:none;stroke-dashoffset:0;stroke-opacity:1;visibility:visible;display:inline;overflow:visible;enable-background:accumulate"
       sodipodi:type="arc" />
    <path
       style="fill:none;fill-rule:evenodd;stroke:#000000;stroke-width:1px;stroke-linecap:butt;stroke-linejoin:miter;stroke-opacity:1"
       d="M 184.64286,96.660856 L 254.70625,75.2297"
       id="path2515"
       sodipodi:nodetypes="cc" />
    <path
       style="fill:none;fill-rule:evenodd;stroke:#000000;stroke-width:1px;stroke-linecap:butt;stroke-linejoin:miter;stroke-opacity:1"
       d="M 185.35715,97.87963 C 185.35715,97.87963 192.14286,67.522487 201.07143,70.022487 C 227.78902,75.596122 227.60339,24.143207 255.35715,48.951058 C 265.35646,50.339397 266.9204,52.594356 273.96468,41.517865 C 282.9745,27.720018 303.90357,28.945402 291.48062,43.914381 C 289.76174,57.467537 293.04489,57.580228 305.00001,59.665345"
       id="path2525"
       sodipodi:nodetypes="cccccc" />
    <path
       style="fill:none;fill-rule:evenodd;stroke:#000000;stroke-width:1;stroke-linecap:butt;stroke-linejoin:miter;stroke-opacity:1;stroke-miterlimit:4;stroke-dasharray:4,4;stroke-dashoffset:0"
       d="M 255,75.093916 C 256.42857,75.093916 305.71428,59.37963 305.71428,59.37963"
       id="path2527"
       sodipodi:nodetypes="cc" />
    <path
       sodipodi:type="arc"
       style="fill:#000000;fill-opacity:1;fill-rule:evenodd;stroke:#000000;stroke-width:1px;stroke-linecap:butt;stroke-linejoin:miter;marker:none;marker-start:none;marker-mid:none;marker-end:none;stroke-miterlimit:4;stroke-dasharray:none;stroke-dashoffset:0;stroke-opacity:1;visibility:visible;display:inline;overflow:visible;enable-background:accumulate"
       id="path3319"
       sodipodi:cx="186.07143"
       sodipodi:cy="10.125141"
       sodipodi:rx="1.7857143"
       sodipodi:ry="1.9642857"
       d="M 187.85714,10.125141 A 1.7857143,1.9642857 0 1 1 184.28571,10.125141 A 1.7857143,1.9642857 0 1 1 187.85714,10.125141 z"
       transform="translate(117.35714,49.85714)" />
    <path
       transform="translate(48.5,35.214283)"
       d="M 187.85714,10.125141 A 1.7857143,1.9642857 0 1 1 184.28571,10.125141 A 1.7857143,1.9642857 0 1 1 187.85714,10.125141 z"
       sodipodi:ry="1.9642857"
       sodipodi:rx="1.7857143"
       sodipodi:cy="10.125141"
       sodipodi:cx="186.07143"
       id="path3321"
       style="fill:#000000;fill-opacity:1;fill-rule:evenodd;stroke:#000000;stroke-width:1px;stroke-linecap:butt;stroke-linejoin:miter;marker:none;marker-start:none;marker-mid:none;marker-end:none;stroke-miterlimit:4;stroke-dasharray:none;stroke-dashoffset:0;stroke-opacity:1;visibility:visible;display:inline;overflow:visible;enable-background:accumulate"
       sodipodi:type="arc" />
    <path
       sodipodi:type="arc"
       style="fill:#000000;fill-opacity:1;fill-rule:evenodd;stroke:#000000;stroke-width:1px;stroke-linecap:butt;stroke-linejoin:miter;marker:none;marker-start:none;marker-mid:none;marker-end:none;stroke-miterlimit:4;stroke-dasharray:none;stroke-dashoffset:0;stroke-opacity:1;visibility:visible;display:inline;overflow:visible;enable-background:accumulate"
       id="path3323"
       sodipodi:cx="186.07143"
       sodipodi:cy="10.125141"
       sodipodi:rx="1.7857143"
       sodipodi:ry="1.9642857"
       d="M 187.85714,10.125141 A 1.7857143,1.9642857 0 1 1 184.28571,10.125141 A 1.7857143,1.9642857 0 1 1 187.85714,10.125141 z"
       transform="translate(68.357143,65.571426)" />
    <g
       transform="matrix(1.2,0,0,1.2,-34.642857,-125)"
       ns0:text="$C(b)$"
       ns0:preamble=""
       id="g3345">
      <defs
         id="defs3347">
        <g
           id="g3349">
          <symbol
             style="overflow:visible"
             overflow="visible"
             id="textext-c819805a-0">
            <path
               style="stroke:none"
               d=""
               id="path3352" />
          </symbol>
          <symbol
             style="overflow:visible"
             overflow="visible"
             id="textext-c819805a-1">
            <path
               style="stroke:none"
               d="M 7.578125,-6.921875 C 7.578125,-6.953125 7.5625,-7.03125 7.46875,-7.03125 C 7.4375,-7.03125 7.421875,-7.015625 7.3125,-6.90625 L 6.625,-6.140625 C 6.53125,-6.28125 6.078125,-7.03125 4.96875,-7.03125 C 2.734375,-7.03125 0.5,-4.828125 0.5,-2.515625 C 0.5,-0.875 1.671875,0.21875 3.203125,0.21875 C 4.0625,0.21875 4.828125,-0.171875 5.359375,-0.640625 C 6.28125,-1.453125 6.453125,-2.359375 6.453125,-2.390625 C 6.453125,-2.5 6.34375,-2.5 6.328125,-2.5 C 6.265625,-2.5 6.21875,-2.46875 6.203125,-2.390625 C 6.109375,-2.109375 5.875,-1.390625 5.1875,-0.8125 C 4.5,-0.265625 3.875,-0.09375 3.359375,-0.09375 C 2.46875,-0.09375 1.40625,-0.609375 1.40625,-2.15625 C 1.40625,-2.734375 1.609375,-4.34375 2.609375,-5.515625 C 3.21875,-6.21875 4.15625,-6.71875 5.046875,-6.71875 C 6.0625,-6.71875 6.65625,-5.953125 6.65625,-4.796875 C 6.65625,-4.390625 6.625,-4.390625 6.625,-4.28125 C 6.625,-4.1875 6.734375,-4.1875 6.765625,-4.1875 C 6.890625,-4.1875 6.890625,-4.203125 6.953125,-4.390625 L 7.578125,-6.921875 z"
               id="path3355" />
          </symbol>
          <symbol
             style="overflow:visible"
             overflow="visible"
             id="textext-c819805a-2">
            <path
               style="stroke:none"
               d="M 2.375,-6.8125 C 2.375,-6.8125 2.375,-6.921875 2.25,-6.921875 C 2.03125,-6.921875 1.296875,-6.84375 1.03125,-6.8125 C 0.953125,-6.8125 0.84375,-6.796875 0.84375,-6.625 C 0.84375,-6.5 0.9375,-6.5 1.09375,-6.5 C 1.5625,-6.5 1.578125,-6.4375 1.578125,-6.328125 C 1.578125,-6.265625 1.5,-5.921875 1.453125,-5.71875 L 0.625,-2.46875 C 0.515625,-1.96875 0.46875,-1.796875 0.46875,-1.453125 C 0.46875,-0.515625 1,0.109375 1.734375,0.109375 C 2.90625,0.109375 4.140625,-1.375 4.140625,-2.8125 C 4.140625,-3.71875 3.609375,-4.40625 2.8125,-4.40625 C 2.359375,-4.40625 1.9375,-4.109375 1.640625,-3.8125 L 2.375,-6.8125 z M 1.453125,-3.046875 C 1.5,-3.265625 1.5,-3.28125 1.59375,-3.390625 C 2.078125,-4.03125 2.53125,-4.1875 2.796875,-4.1875 C 3.15625,-4.1875 3.421875,-3.890625 3.421875,-3.25 C 3.421875,-2.65625 3.09375,-1.515625 2.90625,-1.140625 C 2.578125,-0.46875 2.125,-0.109375 1.734375,-0.109375 C 1.390625,-0.109375 1.0625,-0.375 1.0625,-1.109375 C 1.0625,-1.3125 1.0625,-1.5 1.21875,-2.125 L 1.453125,-3.046875 z"
               id="path3358" />
          </symbol>
          <symbol
             style="overflow:visible"
             overflow="visible"
             id="textext-c819805a-3">
            <path
               style="stroke:none"
               d=""
               id="path3362" />
          </symbol>
          <symbol
             style="overflow:visible"
             overflow="visible"
             id="textext-c819805a-4">
            <path
               style="stroke:none"
               d="M 3.296875,2.390625 C 3.296875,2.359375 3.296875,2.34375 3.125,2.171875 C 1.890625,0.921875 1.5625,-0.96875 1.5625,-2.5 C 1.5625,-4.234375 1.9375,-5.96875 3.171875,-7.203125 C 3.296875,-7.328125 3.296875,-7.34375 3.296875,-7.375 C 3.296875,-7.453125 3.265625,-7.484375 3.203125,-7.484375 C 3.09375,-7.484375 2.203125,-6.796875 1.609375,-5.53125 C 1.109375,-4.4375 0.984375,-3.328125 0.984375,-2.5 C 0.984375,-1.71875 1.09375,-0.515625 1.640625,0.625 C 2.25,1.84375 3.09375,2.5 3.203125,2.5 C 3.265625,2.5 3.296875,2.46875 3.296875,2.390625 z"
               id="path3365" />
          </symbol>
          <symbol
             style="overflow:visible"
             overflow="visible"
             id="textext-c819805a-5">
            <path
               style="stroke:none"
               d="M 2.875,-2.5 C 2.875,-3.265625 2.765625,-4.46875 2.21875,-5.609375 C 1.625,-6.828125 0.765625,-7.484375 0.671875,-7.484375 C 0.609375,-7.484375 0.5625,-7.4375 0.5625,-7.375 C 0.5625,-7.34375 0.5625,-7.328125 0.75,-7.140625 C 1.734375,-6.15625 2.296875,-4.578125 2.296875,-2.5 C 2.296875,-0.78125 1.9375,0.96875 0.703125,2.21875 C 0.5625,2.34375 0.5625,2.359375 0.5625,2.390625 C 0.5625,2.453125 0.609375,2.5 0.671875,2.5 C 0.765625,2.5 1.671875,1.8125 2.25,0.546875 C 2.765625,-0.546875 2.875,-1.65625 2.875,-2.5 z"
               id="path3368" />
          </symbol>
        </g>
      </defs>
      <g
         id="textext-c819805a-6">
        <g
           style="fill:#000000;fill-opacity:1"
           id="g3371">
          <use
             height="177.16534"
             width="496.06299"
             xlink:href="#textext-c819805a-1"
             x="223.43201"
             y="134.765"
             id="use3373" />
        </g>
        <g
           style="fill:#000000;fill-opacity:1"
           id="g3375">
          <use
             height="177.16534"
             width="496.06299"
             xlink:href="#textext-c819805a-4"
             x="231.265"
             y="134.765"
             id="use3377" />
        </g>
        <g
           style="fill:#000000;fill-opacity:1"
           id="g3379">
          <use
             height="177.16534"
             width="496.06299"
             xlink:href="#textext-c819805a-2"
             x="235.14"
             y="134.765"
             id="use3381" />
        </g>
        <g
           style="fill:#000000;fill-opacity:1"
           id="g3383">
          <use
             height="177.16534"
             width="496.06299"
             xlink:href="#textext-c819805a-5"
             x="239.41499"
             y="134.765"
             id="use3385" />
        </g>
      </g>
    </g>
    <g
       id="g3473"
       ns0:preamble=""
       ns0:text="$D_{r}$"
       transform="matrix(1.2,0,0,1.2,-131.07143,-104.28571)">
      <defs
         id="defs3475">
        <g
           id="g3477">
          <symbol
             id="textext-b27c712d-0"
             overflow="visible"
             style="overflow:visible">
            <path
               id="path3480"
               d=""
               style="stroke:none" />
          </symbol>
          <symbol
             id="textext-b27c712d-1"
             overflow="visible"
             style="overflow:visible">
            <path
               id="path3483"
               d="M 1.578125,-0.78125 C 1.484375,-0.390625 1.46875,-0.3125 0.671875,-0.3125 C 0.515625,-0.3125 0.40625,-0.3125 0.40625,-0.125 C 0.40625,0 0.484375,0 0.671875,0 L 3.984375,0 C 6.046875,0 8.015625,-2.109375 8.015625,-4.28125 C 8.015625,-5.6875 7.171875,-6.8125 5.671875,-6.8125 L 2.328125,-6.8125 C 2.140625,-6.8125 2.03125,-6.8125 2.03125,-6.625 C 2.03125,-6.5 2.109375,-6.5 2.3125,-6.5 C 2.4375,-6.5 2.625,-6.484375 2.734375,-6.484375 C 2.90625,-6.453125 2.953125,-6.4375 2.953125,-6.3125 C 2.953125,-6.28125 2.953125,-6.25 2.921875,-6.125 L 1.578125,-0.78125 z M 3.734375,-6.125 C 3.828125,-6.46875 3.84375,-6.5 4.28125,-6.5 L 5.34375,-6.5 C 6.3125,-6.5 7.140625,-5.96875 7.140625,-4.65625 C 7.140625,-4.171875 6.953125,-2.53125 6.09375,-1.4375 C 5.8125,-1.0625 5.03125,-0.3125 3.796875,-0.3125 L 2.671875,-0.3125 C 2.53125,-0.3125 2.515625,-0.3125 2.453125,-0.3125 C 2.359375,-0.328125 2.328125,-0.34375 2.328125,-0.421875 C 2.328125,-0.453125 2.328125,-0.46875 2.375,-0.640625 L 3.734375,-6.125 z"
               style="stroke:none" />
          </symbol>
          <symbol
             id="textext-b27c712d-2"
             overflow="visible"
             style="overflow:visible">
            <path
               id="path3486"
               d=""
               style="stroke:none" />
          </symbol>
          <symbol
             id="textext-b27c712d-3"
             overflow="visible"
             style="overflow:visible">
            <path
               id="path3489"
               d="M 1.640625,-1.40625 C 1.640625,-1.453125 1.8125,-2.078125 1.8125,-2.109375 C 1.828125,-2.171875 2.03125,-2.515625 2.265625,-2.6875 C 2.328125,-2.734375 2.515625,-2.875 2.828125,-2.875 C 2.890625,-2.875 3.0625,-2.875 3.203125,-2.78125 C 2.984375,-2.71875 2.90625,-2.515625 2.90625,-2.390625 C 2.90625,-2.25 3.015625,-2.140625 3.171875,-2.140625 C 3.34375,-2.140625 3.5625,-2.265625 3.5625,-2.5625 C 3.5625,-2.921875 3.1875,-3.078125 2.828125,-3.078125 C 2.46875,-3.078125 2.15625,-2.921875 1.84375,-2.578125 C 1.71875,-3 1.296875,-3.078125 1.125,-3.078125 C 0.875,-3.078125 0.703125,-2.90625 0.578125,-2.71875 C 0.421875,-2.453125 0.328125,-2.046875 0.328125,-2 C 0.328125,-1.921875 0.421875,-1.921875 0.453125,-1.921875 C 0.546875,-1.921875 0.546875,-1.9375 0.59375,-2.125 C 0.703125,-2.546875 0.84375,-2.875 1.109375,-2.875 C 1.296875,-2.875 1.34375,-2.71875 1.34375,-2.53125 C 1.34375,-2.40625 1.28125,-2.140625 1.21875,-1.953125 C 1.171875,-1.765625 1.109375,-1.484375 1.078125,-1.328125 L 0.84375,-0.4375 C 0.828125,-0.34375 0.78125,-0.171875 0.78125,-0.15625 C 0.78125,0 0.90625,0.0625 1.015625,0.0625 C 1.125,0.0625 1.265625,0 1.3125,-0.125 C 1.328125,-0.171875 1.40625,-0.484375 1.453125,-0.65625 L 1.640625,-1.40625 z"
               style="stroke:none" />
          </symbol>
        </g>
      </defs>
      <g
         id="textext-b27c712d-4">
        <g
           id="g3492"
           style="fill:#000000;fill-opacity:1">
          <use
             id="use3494"
             y="134.765"
             x="223.43201"
             xlink:href="#textext-b27c712d-1"
             width="496.06299"
             height="177.16534" />
        </g>
        <g
           id="g3496"
           style="fill:#000000;fill-opacity:1">
          <use
             id="use3498"
             y="136.259"
             x="231.67999"
             xlink:href="#textext-b27c712d-3"
             width="496.06299"
             height="177.16534" />
        </g>
      </g>
    </g>
    <g
       transform="matrix(1.2,0,0,1.2,-87.142857,-54.642857)"
       ns0:text="$m$"
       ns0:preamble=""
       id="g3618">
      <defs
         id="defs3620">
        <g
           id="g3622">
          <symbol
             style="overflow:visible"
             overflow="visible"
             id="textext-292592cf-0">
            <path
               style="stroke:none"
               d=""
               id="path3625" />
          </symbol>
          <symbol
             style="overflow:visible"
             overflow="visible"
             id="textext-292592cf-1">
            <path
               style="stroke:none"
               d="M 0.875,-0.59375 C 0.84375,-0.4375 0.78125,-0.203125 0.78125,-0.15625 C 0.78125,0.015625 0.921875,0.109375 1.078125,0.109375 C 1.203125,0.109375 1.375,0.03125 1.453125,-0.171875 C 1.453125,-0.1875 1.578125,-0.65625 1.640625,-0.90625 C 1.703125,-1.203125 1.78125,-1.5 1.859375,-1.796875 C 1.90625,-2.03125 1.96875,-2.25 2.03125,-2.46875 C 2.0625,-2.640625 2.140625,-2.9375 2.15625,-2.96875 C 2.296875,-3.28125 2.828125,-4.1875 3.78125,-4.1875 C 4.234375,-4.1875 4.3125,-3.8125 4.3125,-3.484375 C 4.3125,-3.234375 4.25,-2.953125 4.171875,-2.65625 C 4.046875,-2.15625 4,-1.953125 3.890625,-1.5 C 3.78125,-1.140625 3.78125,-1.078125 3.6875,-0.75 C 3.65625,-0.546875 3.5625,-0.203125 3.5625,-0.15625 C 3.5625,0.015625 3.703125,0.109375 3.84375,0.109375 C 4.15625,0.109375 4.21875,-0.140625 4.296875,-0.453125 C 4.4375,-1.015625 4.8125,-2.46875 4.890625,-2.859375 C 4.921875,-2.984375 5.453125,-4.1875 6.546875,-4.1875 C 6.96875,-4.1875 7.078125,-3.84375 7.078125,-3.484375 C 7.078125,-2.921875 6.65625,-1.78125 6.453125,-1.25 C 6.375,-1.015625 6.328125,-0.90625 6.328125,-0.703125 C 6.328125,-0.234375 6.671875,0.109375 7.140625,0.109375 C 8.078125,0.109375 8.453125,-1.34375 8.453125,-1.421875 C 8.453125,-1.53125 8.359375,-1.53125 8.328125,-1.53125 C 8.234375,-1.53125 8.234375,-1.5 8.1875,-1.34375 C 8.03125,-0.8125 7.71875,-0.109375 7.171875,-0.109375 C 7,-0.109375 6.921875,-0.203125 6.921875,-0.4375 C 6.921875,-0.6875 7.015625,-0.921875 7.109375,-1.140625 C 7.296875,-1.671875 7.71875,-2.765625 7.71875,-3.34375 C 7.71875,-3.984375 7.3125,-4.40625 6.5625,-4.40625 C 5.828125,-4.40625 5.3125,-3.96875 4.9375,-3.4375 C 4.9375,-3.5625 4.90625,-3.90625 4.625,-4.140625 C 4.375,-4.359375 4.0625,-4.40625 3.8125,-4.40625 C 2.90625,-4.40625 2.421875,-3.765625 2.25,-3.53125 C 2.203125,-4.109375 1.78125,-4.40625 1.328125,-4.40625 C 0.875,-4.40625 0.6875,-4.015625 0.59375,-3.84375 C 0.421875,-3.484375 0.296875,-2.90625 0.296875,-2.875 C 0.296875,-2.765625 0.390625,-2.765625 0.40625,-2.765625 C 0.515625,-2.765625 0.515625,-2.78125 0.578125,-3 C 0.75,-3.703125 0.953125,-4.1875 1.3125,-4.1875 C 1.46875,-4.1875 1.609375,-4.109375 1.609375,-3.734375 C 1.609375,-3.515625 1.578125,-3.40625 1.453125,-2.890625 L 0.875,-0.59375 z"
               id="path3628" />
          </symbol>
        </g>
      </defs>
      <g
         id="textext-292592cf-2">
        <g
           style="fill:#000000;fill-opacity:1"
           id="g3631">
          <use
             height="177.16534"
             width="496.06299"
             xlink:href="#textext-292592cf-1"
             x="223.43201"
             y="134.765"
             id="use3633" />
        </g>
      </g>
    </g>
    <g
       id="g3773"
       ns0:preamble=""
       ns0:text="$p$"
       transform="matrix(1.2,0,0,1.2,-8.5714285,-77.5)">
      <defs
         id="defs3775">
        <g
           id="g3777">
          <symbol
             id="textext-90dd7d34-0"
             overflow="visible"
             style="overflow:visible">
            <path
               id="path3780"
               d=""
               style="stroke:none" />
          </symbol>
          <symbol
             id="textext-90dd7d34-1"
             overflow="visible"
             style="overflow:visible">
            <path
               id="path3783"
               d="M 0.453125,1.21875 C 0.375,1.5625 0.34375,1.625 -0.09375,1.625 C -0.203125,1.625 -0.3125,1.625 -0.3125,1.8125 C -0.3125,1.890625 -0.265625,1.9375 -0.1875,1.9375 C 0.078125,1.9375 0.375,1.90625 0.640625,1.90625 C 0.984375,1.90625 1.3125,1.9375 1.640625,1.9375 C 1.6875,1.9375 1.8125,1.9375 1.8125,1.734375 C 1.8125,1.625 1.71875,1.625 1.578125,1.625 C 1.078125,1.625 1.078125,1.5625 1.078125,1.46875 C 1.078125,1.34375 1.5,-0.28125 1.5625,-0.53125 C 1.6875,-0.234375 1.96875,0.109375 2.484375,0.109375 C 3.640625,0.109375 4.890625,-1.34375 4.890625,-2.8125 C 4.890625,-3.75 4.3125,-4.40625 3.5625,-4.40625 C 3.0625,-4.40625 2.578125,-4.046875 2.25,-3.65625 C 2.15625,-4.203125 1.71875,-4.40625 1.359375,-4.40625 C 0.890625,-4.40625 0.703125,-4.015625 0.625,-3.84375 C 0.4375,-3.5 0.3125,-2.90625 0.3125,-2.875 C 0.3125,-2.765625 0.40625,-2.765625 0.421875,-2.765625 C 0.53125,-2.765625 0.53125,-2.78125 0.59375,-3 C 0.765625,-3.703125 0.96875,-4.1875 1.328125,-4.1875 C 1.5,-4.1875 1.640625,-4.109375 1.640625,-3.734375 C 1.640625,-3.5 1.609375,-3.390625 1.5625,-3.21875 L 0.453125,1.21875 z M 2.203125,-3.109375 C 2.265625,-3.375 2.546875,-3.65625 2.71875,-3.8125 C 3.078125,-4.109375 3.359375,-4.1875 3.53125,-4.1875 C 3.921875,-4.1875 4.171875,-3.84375 4.171875,-3.25 C 4.171875,-2.65625 3.84375,-1.515625 3.65625,-1.140625 C 3.3125,-0.4375 2.84375,-0.109375 2.46875,-0.109375 C 1.8125,-0.109375 1.6875,-0.9375 1.6875,-1 C 1.6875,-1.015625 1.6875,-1.03125 1.71875,-1.15625 L 2.203125,-3.109375 z"
               style="stroke:none" />
          </symbol>
        </g>
      </defs>
      <g
         id="textext-90dd7d34-2">
        <g
           id="g3786"
           style="fill:#000000;fill-opacity:1">
          <use
             id="use3788"
             y="134.765"
             x="223.43201"
             xlink:href="#textext-90dd7d34-1"
             width="496.06299"
             height="177.16534" />
        </g>
      </g>
    </g>
    <g
       transform="matrix(1.2,0,0,1.2,38.571429,-93.214286)"
       ns0:text="$n$"
       ns0:preamble=""
       id="g3948">
      <defs
         id="defs3950">
        <g
           id="g3952">
          <symbol
             style="overflow:visible"
             overflow="visible"
             id="textext-c7bfc582-0">
            <path
               style="stroke:none"
               d=""
               id="path3955" />
          </symbol>
          <symbol
             style="overflow:visible"
             overflow="visible"
             id="textext-c7bfc582-1">
            <path
               style="stroke:none"
               d="M 0.875,-0.59375 C 0.84375,-0.4375 0.78125,-0.203125 0.78125,-0.15625 C 0.78125,0.015625 0.921875,0.109375 1.078125,0.109375 C 1.203125,0.109375 1.375,0.03125 1.453125,-0.171875 C 1.453125,-0.1875 1.578125,-0.65625 1.640625,-0.90625 C 1.703125,-1.203125 1.78125,-1.5 1.859375,-1.796875 C 1.90625,-2.03125 1.96875,-2.25 2.03125,-2.46875 C 2.0625,-2.640625 2.140625,-2.9375 2.15625,-2.96875 C 2.296875,-3.28125 2.828125,-4.1875 3.78125,-4.1875 C 4.234375,-4.1875 4.3125,-3.8125 4.3125,-3.484375 C 4.3125,-2.875 3.828125,-1.59375 3.671875,-1.171875 C 3.578125,-0.9375 3.5625,-0.8125 3.5625,-0.703125 C 3.5625,-0.234375 3.921875,0.109375 4.390625,0.109375 C 5.328125,0.109375 5.6875,-1.34375 5.6875,-1.421875 C 5.6875,-1.53125 5.609375,-1.53125 5.578125,-1.53125 C 5.46875,-1.53125 5.46875,-1.5 5.421875,-1.34375 C 5.21875,-0.671875 4.890625,-0.109375 4.40625,-0.109375 C 4.234375,-0.109375 4.171875,-0.203125 4.171875,-0.4375 C 4.171875,-0.6875 4.25,-0.921875 4.34375,-1.140625 C 4.53125,-1.671875 4.953125,-2.765625 4.953125,-3.34375 C 4.953125,-4 4.53125,-4.40625 3.8125,-4.40625 C 2.90625,-4.40625 2.421875,-3.765625 2.25,-3.53125 C 2.203125,-4.09375 1.796875,-4.40625 1.328125,-4.40625 C 0.875,-4.40625 0.6875,-4.015625 0.59375,-3.84375 C 0.421875,-3.5 0.296875,-2.90625 0.296875,-2.875 C 0.296875,-2.765625 0.390625,-2.765625 0.40625,-2.765625 C 0.515625,-2.765625 0.515625,-2.78125 0.578125,-3 C 0.75,-3.703125 0.953125,-4.1875 1.3125,-4.1875 C 1.5,-4.1875 1.609375,-4.0625 1.609375,-3.734375 C 1.609375,-3.515625 1.578125,-3.40625 1.453125,-2.890625 L 0.875,-0.59375 z"
               id="path3958" />
          </symbol>
        </g>
      </defs>
      <g
         id="textext-c7bfc582-2">
        <g
           style="fill:#000000;fill-opacity:1"
           id="g3961">
          <use
             height="177.16534"
             width="496.06299"
             xlink:href="#textext-c7bfc582-1"
             x="223.43201"
             y="134.765"
             id="use3963" />
        </g>
      </g>
    </g>
    <g
       id="g4143"
       ns0:preamble=""
       ns0:text="$C$"
       transform="matrix(1.2,0,0,1.2,-63.928571,-95.357143)">
      <defs
         id="defs4145">
        <g
           id="g4147">
          <symbol
             id="textext-b794fb24-0"
             overflow="visible"
             style="overflow:visible">
            <path
               id="path4150"
               d=""
               style="stroke:none" />
          </symbol>
          <symbol
             id="textext-b794fb24-1"
             overflow="visible"
             style="overflow:visible">
            <path
               id="path4153"
               d="M 7.578125,-6.921875 C 7.578125,-6.953125 7.5625,-7.03125 7.46875,-7.03125 C 7.4375,-7.03125 7.421875,-7.015625 7.3125,-6.90625 L 6.625,-6.140625 C 6.53125,-6.28125 6.078125,-7.03125 4.96875,-7.03125 C 2.734375,-7.03125 0.5,-4.828125 0.5,-2.515625 C 0.5,-0.875 1.671875,0.21875 3.203125,0.21875 C 4.0625,0.21875 4.828125,-0.171875 5.359375,-0.640625 C 6.28125,-1.453125 6.453125,-2.359375 6.453125,-2.390625 C 6.453125,-2.5 6.34375,-2.5 6.328125,-2.5 C 6.265625,-2.5 6.21875,-2.46875 6.203125,-2.390625 C 6.109375,-2.109375 5.875,-1.390625 5.1875,-0.8125 C 4.5,-0.265625 3.875,-0.09375 3.359375,-0.09375 C 2.46875,-0.09375 1.40625,-0.609375 1.40625,-2.15625 C 1.40625,-2.734375 1.609375,-4.34375 2.609375,-5.515625 C 3.21875,-6.21875 4.15625,-6.71875 5.046875,-6.71875 C 6.0625,-6.71875 6.65625,-5.953125 6.65625,-4.796875 C 6.65625,-4.390625 6.625,-4.390625 6.625,-4.28125 C 6.625,-4.1875 6.734375,-4.1875 6.765625,-4.1875 C 6.890625,-4.1875 6.890625,-4.203125 6.953125,-4.390625 L 7.578125,-6.921875 z"
               style="stroke:none" />
          </symbol>
        </g>
      </defs>
      <g
         id="textext-b794fb24-2">
        <g
           id="g4156"
           style="fill:#000000;fill-opacity:1">
          <use
             id="use4158"
             y="134.765"
             x="223.43201"
             xlink:href="#textext-b794fb24-1"
             width="496.06299"
             height="177.16534" />
        </g>
      </g>
    </g>
  </g>
</svg>
