<?xml version="1.0" encoding="UTF-8" standalone="no"?>
<!-- Created with Inkscape (http://www.inkscape.org/) -->

<svg
   xmlns:ns0="http://www.iki.fi/pav/software/textext/"
   xmlns:dc="http://purl.org/dc/elements/1.1/"
   xmlns:cc="http://creativecommons.org/ns#"
   xmlns:rdf="http://www.w3.org/1999/02/22-rdf-syntax-ns#"
   xmlns:svg="http://www.w3.org/2000/svg"
   xmlns="http://www.w3.org/2000/svg"
   xmlns:xlink="http://www.w3.org/1999/xlink"
   xmlns:sodipodi="http://sodipodi.sourceforge.net/DTD/sodipodi-0.dtd"
   xmlns:inkscape="http://www.inkscape.org/namespaces/inkscape"
   width="283.46457"
   height="177.16534"
   id="svg2"
   version="1.1"
   inkscape:version="0.47 r22583"
   sodipodi:docname="New document 1">
  <sodipodi:namedview
     id="base"
     pagecolor="#ffffff"
     bordercolor="#666666"
     borderopacity="1.0"
     inkscape:pageopacity="0.0"
     inkscape:pageshadow="2"
     inkscape:zoom="1.9117969"
     inkscape:cx="141.73228"
     inkscape:cy="88.582672"
     inkscape:document-units="cm"
     inkscape:current-layer="layer1"
     showgrid="false"
     units="cm"
     inkscape:window-width="1024"
     inkscape:window-height="701"
     inkscape:window-x="-4"
     inkscape:window-y="0"
     inkscape:window-maximized="1">
    <inkscape:grid
       snapvisiblegridlinesonly="true"
       enabled="true"
       visible="true"
       empspacing="5"
       id="grid2816"
       type="xygrid" />
  </sodipodi:namedview>
  <defs
     id="defs4">
    <inkscape:perspective
       id="perspective10"
       inkscape:persp3d-origin="372.04724 : 350.78739 : 1"
       inkscape:vp_z="744.09448 : 526.18109 : 1"
       inkscape:vp_y="0 : 1000 : 0"
       inkscape:vp_x="0 : 526.18109 : 1"
       sodipodi:type="inkscape:persp3d" />
    <inkscape:perspective
       id="perspective3667"
       inkscape:persp3d-origin="0.5 : 0.33333333 : 1"
       inkscape:vp_z="1 : 0.5 : 1"
       inkscape:vp_y="0 : 1000 : 0"
       inkscape:vp_x="0 : 0.5 : 1"
       sodipodi:type="inkscape:persp3d" />
    <inkscape:perspective
       sodipodi:type="inkscape:persp3d"
       inkscape:vp_x="0 : 0.5 : 1"
       inkscape:vp_y="0 : 1000 : 0"
       inkscape:vp_z="1 : 0.5 : 1"
       inkscape:persp3d-origin="0.5 : 0.33333333 : 1"
       id="perspective3789" />
    <inkscape:perspective
       id="perspective3933"
       inkscape:persp3d-origin="0.5 : 0.33333333 : 1"
       inkscape:vp_z="1 : 0.5 : 1"
       inkscape:vp_y="0 : 1000 : 0"
       inkscape:vp_x="0 : 0.5 : 1"
       sodipodi:type="inkscape:persp3d" />
    <inkscape:perspective
       sodipodi:type="inkscape:persp3d"
       inkscape:vp_x="0 : 0.5 : 1"
       inkscape:vp_y="0 : 1000 : 0"
       inkscape:vp_z="1 : 0.5 : 1"
       inkscape:persp3d-origin="0.5 : 0.33333333 : 1"
       id="perspective4156" />
    <inkscape:perspective
       id="perspective4156-5"
       inkscape:persp3d-origin="0.5 : 0.33333333 : 1"
       inkscape:vp_z="1 : 0.5 : 1"
       inkscape:vp_y="0 : 1000 : 0"
       inkscape:vp_x="0 : 0.5 : 1"
       sodipodi:type="inkscape:persp3d" />
    <inkscape:perspective
       sodipodi:type="inkscape:persp3d"
       inkscape:vp_x="0 : 0.5 : 1"
       inkscape:vp_y="0 : 1000 : 0"
       inkscape:vp_z="1 : 0.5 : 1"
       inkscape:persp3d-origin="0.5 : 0.33333333 : 1"
       id="perspective4156-1" />
  </defs>
  <metadata
     id="metadata7">
    <rdf:RDF>
      <cc:Work
         rdf:about="">
        <dc:format>image/svg+xml</dc:format>
        <dc:type
           rdf:resource="http://purl.org/dc/dcmitype/StillImage" />
        <dc:title></dc:title>
      </cc:Work>
    </rdf:RDF>
  </metadata>
  <g
     transform="translate(0,-875.19551)"
     id="layer1"
     inkscape:groupmode="layer"
     inkscape:label="Layer 1">
    <path
       id="path2818"
       d="m 65,982.36085 150,0"
       style="fill:none;stroke:#000000;stroke-width:0.99199998;stroke-linecap:butt;stroke-linejoin:miter;stroke-miterlimit:4;stroke-opacity:1;stroke-dasharray:none" />
    <path
       sodipodi:nodetypes="cc"
       transform="translate(0,875.19551)"
       id="path3598"
       d="m 105,97.165344 c -10,-20 -15,-40 -15,-60"
       style="fill:none;stroke:#000000;stroke-width:1px;stroke-linecap:butt;stroke-linejoin:miter;stroke-opacity:1" />
    <path
       sodipodi:nodetypes="cc"
       transform="translate(0,875.19551)"
       id="path3600"
       d="m 200,87.165344 c -10,-30 -40,-60 -60,-75"
       style="fill:none;stroke:#000000;stroke-width:1px;stroke-linecap:butt;stroke-linejoin:miter;stroke-opacity:1" />
    <path
       sodipodi:nodetypes="ccc"
       transform="translate(0,875.19551)"
       id="path3602"
       d="m 70,87.165344 c 15,-20 41.47087,-25.668583 65,-25 11.09841,-26.685714 33.6497,-36.192112 60,-40"
       style="fill:none;stroke:#000000;stroke-width:1px;stroke-linecap:butt;stroke-linejoin:miter;stroke-opacity:1" />
    <path
       sodipodi:nodetypes="cc"
       transform="translate(0,875.19551)"
       id="path3604"
       d="m 80,62.165344 c 20,-25 48.57412,-43.09255 85,-50"
       style="fill:none;stroke:#000000;stroke-width:1px;stroke-linecap:butt;stroke-linejoin:miter;stroke-opacity:1" />
    <path
       sodipodi:nodetypes="cc"
       transform="translate(0,875.19551)"
       id="path3606"
       d="m 135,62.165344 c -12.36096,-21.027991 -27.24337,-38.525951 -50,-45"
       style="fill:none;stroke:#000000;stroke-width:1px;stroke-linecap:butt;stroke-linejoin:miter;stroke-opacity:1" />
    <g
       id="g3621"
       ns0:preamble="/home/manju/Documents/ubm/preamble.tex"
       ns0:text="$x$"
       transform="matrix(1.2,0,0,1.2,-204.69873,803.59885)">
      <defs
         id="defs3623">
        <g
           id="g3625">
          <symbol
             id="textext-1d4f9ed4-0"
             overflow="visible"
             style="overflow:visible">
            <path
               id="path3628"
               d=""
               style="stroke:none" />
          </symbol>
          <symbol
             id="textext-1d4f9ed4-1"
             overflow="visible"
             style="overflow:visible">
            <path
               id="path3631"
               d="M 3.328125,-3.015625 C 3.390625,-3.265625 3.625,-4.1875 4.3125,-4.1875 c 0.046875,0 0.296875,0 0.5,0.125 C 4.53125,-4 4.34375,-3.765625 4.34375,-3.515625 c 0,0.15625 0.109375,0.34375 0.375,0.34375 0.21875,0 0.53125,-0.171875 0.53125,-0.578125 0,-0.515625 -0.578125,-0.65625 -0.921875,-0.65625 -0.578125,0 -0.921875,0.53125 -1.046875,0.75 -0.25,-0.65625 -0.78125,-0.75 -1.078125,-0.75 -1.03125,0 -1.609375,1.28125 -1.609375,1.53125 0,0.109375 0.109375,0.109375 0.125,0.109375 0.078125,0 0.109375,-0.03125 0.125,-0.109375 0.34375,-1.0625 1,-1.3125 1.34375,-1.3125 0.1875,0 0.53125,0.09375 0.53125,0.671875 0,0.3125 -0.171875,0.96875 -0.53125,2.375 -0.15625,0.609375 -0.515625,1.03125 -0.953125,1.03125 -0.0625,0 -0.28125,0 -0.5,-0.125 0.25,-0.0625 0.46875,-0.265625 0.46875,-0.546875 0,-0.265625 -0.21875,-0.34375 -0.359375,-0.34375 -0.3125,0 -0.546875,0.25 -0.546875,0.578125 0,0.453125 0.484375,0.65625 0.921875,0.65625 0.671875,0 1.03125,-0.703125 1.046875,-0.75 0.125,0.359375 0.484375,0.75 1.078125,0.75 1.03125,0 1.59375,-1.28125 1.59375,-1.53125 0,-0.109375 -0.078125,-0.109375 -0.109375,-0.109375 -0.09375,0 -0.109375,0.046875 -0.140625,0.109375 -0.328125,1.078125 -1,1.3125 -1.3125,1.3125 -0.390625,0 -0.546875,-0.3125 -0.546875,-0.65625 0,-0.21875 0.046875,-0.4375 0.15625,-0.875 l 0.34375,-1.375 z m 0,0"
               style="stroke:none" />
          </symbol>
        </g>
      </defs>
      <g
         id="textext-1d4f9ed4-2">
        <g
           id="g3634"
           style="fill:#000000;fill-opacity:1">
          <use
             id="use3636"
             y="134.76469"
             x="223.4321"
             xlink:href="#textext-1d4f9ed4-1"
             width="283.46457"
             height="177.16534" />
        </g>
      </g>
    </g>
    <g
       ns0:text="$y$"
       ns0:preamble="/home/manju/Documents/ubm/preamble.tex"
       transform="matrix(1.2,0,0,1.2,-71.6387,735.49933)"
       id="g3732">
      <defs
         id="defs3734">
        <g
           id="g3736">
          <symbol
             style="overflow:visible"
             overflow="visible"
             id="textext-e6a921b4-0">
            <path
               style="stroke:none"
               d=""
               id="path3739" />
          </symbol>
          <symbol
             style="overflow:visible"
             overflow="visible"
             id="textext-e6a921b4-1">
            <path
               style="stroke:none"
               d="m 4.84375,-3.796875 c 0.046875,-0.140625 0.046875,-0.15625 0.046875,-0.234375 0,-0.171875 -0.140625,-0.265625 -0.296875,-0.265625 -0.09375,0 -0.25,0.0625 -0.34375,0.203125 -0.015625,0.0625 -0.109375,0.359375 -0.140625,0.546875 -0.078125,0.25 -0.140625,0.53125 -0.203125,0.796875 l -0.453125,1.796875 c -0.03125,0.140625 -0.46875,0.84375 -1.125,0.84375 -0.5,0 -0.609375,-0.4375 -0.609375,-0.8125 C 1.71875,-1.375 1.890625,-2 2.21875,-2.875 2.375,-3.28125 2.421875,-3.390625 2.421875,-3.59375 c 0,-0.4375 -0.3125,-0.8125 -0.8125,-0.8125 -0.953125,0 -1.3125,1.453125 -1.3125,1.53125 0,0.109375 0.09375,0.109375 0.109375,0.109375 0.109375,0 0.109375,-0.03125 0.15625,-0.1875 0.28125,-0.9375 0.671875,-1.234375 1.015625,-1.234375 0.078125,0 0.25,0 0.25,0.3125 0,0.25 -0.109375,0.515625 -0.171875,0.703125 -0.40625,1.0625 -0.578125,1.625 -0.578125,2.09375 0,0.890625 0.625,1.1875 1.21875,1.1875 0.390625,0 0.71875,-0.171875 1,-0.453125 -0.125,0.515625 -0.25,1.015625 -0.640625,1.546875 -0.265625,0.328125 -0.640625,0.625 -1.09375,0.625 -0.140625,0 -0.59375,-0.03125 -0.765625,-0.421875 0.15625,0 0.296875,0 0.421875,-0.125 C 1.328125,1.203125 1.421875,1.0625 1.421875,0.875 1.421875,0.5625 1.15625,0.53125 1.0625,0.53125 0.828125,0.53125 0.5,0.6875 0.5,1.171875 c 0,0.5 0.4375,0.875 1.0625,0.875 1.015625,0 2.046875,-0.90625 2.328125,-2.03125 l 0.953125,-3.8125 z m 0,0"
               id="path3742" />
          </symbol>
        </g>
      </defs>
      <g
         id="textext-e6a921b4-2">
        <g
           style="fill:#000000;fill-opacity:1"
           id="g3745">
          <use
             height="177.16534"
             width="283.46457"
             xlink:href="#textext-e6a921b4-1"
             x="223.4321"
             y="134.76469"
             id="use3747" />
        </g>
      </g>
    </g>
    <g
       id="g3865"
       transform="matrix(1.2,0,0,1.2,-133.95073,783.83789)"
       ns0:preamble="/home/manju/Documents/ubm/preamble.tex"
       ns0:text="$\\tau$">
      <defs
         id="defs3867">
        <g
           id="g3869">
          <symbol
             id="textext-3769adec-0"
             overflow="visible"
             style="overflow:visible">
            <path
               id="path3872"
               d=""
               style="stroke:none" />
          </symbol>
          <symbol
             id="textext-3769adec-1"
             overflow="visible"
             style="overflow:visible">
            <path
               id="path3875"
               d="m 2.9375,-3.71875 1.671875,0 c 0.125,0 0.484375,0 0.484375,-0.34375 0,-0.234375 -0.203125,-0.234375 -0.40625,-0.234375 l -2.78125,0 c -0.203125,0 -0.59375,0 -1.03125,0.46875 -0.328125,0.359375 -0.609375,0.84375 -0.609375,0.890625 0,0.015625 0,0.109375 0.125,0.109375 0.078125,0 0.09375,-0.046875 0.15625,-0.125 C 1.03125,-3.71875 1.609375,-3.71875 1.8125,-3.71875 l 0.828125,0 C 2.15625,-2.125 1.765625,-0.859375 1.671875,-0.515625 1.625,-0.40625 1.5625,-0.1875 1.5625,-0.15625 c 0,0.109375 0.078125,0.28125 0.296875,0.28125 0.328125,0 0.375,-0.28125 0.40625,-0.4375 L 2.9375,-3.71875 z m 0,0"
               style="stroke:none" />
          </symbol>
        </g>
      </defs>
      <g
         id="textext-3769adec-2">
        <g
           id="g3878"
           style="fill:#000000;fill-opacity:1">
          <use
             id="use3880"
             y="134.76469"
             x="223.4321"
             xlink:href="#textext-3769adec-1"
             width="283.46457"
             height="177.16534" />
        </g>
      </g>
    </g>
    <g
       ns0:text="$\\epsilon\'\'(\\tau)$"
       ns0:preamble="/home/manju/Documents/ubm/preamble.tex"
       transform="matrix(1.2,0,0,1.2,-218.22571,814.98677)"
       id="g4020">
      <defs
         id="defs4022">
        <g
           id="g4024">
          <symbol
             style="overflow:visible"
             overflow="visible"
             id="textext-47a622cd-0">
            <path
               style="stroke:none"
               d=""
               id="path4027" />
          </symbol>
          <symbol
             style="overflow:visible"
             overflow="visible"
             id="textext-47a622cd-1">
            <path
               style="stroke:none"
               d="m 2.96875,-2.25 c 0.15625,0 0.34375,0 0.34375,-0.171875 0,-0.140625 -0.125,-0.140625 -0.296875,-0.140625 l -1.609375,0 c 0.234375,-0.84375 0.796875,-1.421875 1.703125,-1.421875 l 0.3125,0 c 0.171875,0 0.328125,0 0.328125,-0.171875 0,-0.140625 -0.125,-0.140625 -0.296875,-0.140625 l -0.359375,0 c -1.296875,0 -2.625,1 -2.625,2.515625 0,1.109375 0.75,1.890625 1.796875,1.890625 0.65625,0 1.296875,-0.40625 1.296875,-0.515625 0,-0.015625 0,-0.125 -0.09375,-0.125 -0.015625,0 -0.046875,0 -0.125,0.046875 -0.3125,0.203125 -0.6875,0.375 -1.046875,0.375 -0.578125,0 -1.078125,-0.421875 -1.078125,-1.296875 0,-0.34375 0.078125,-0.734375 0.109375,-0.84375 l 1.640625,0 z m 0,0"
               id="path4030" />
          </symbol>
          <symbol
             style="overflow:visible"
             overflow="visible"
             id="textext-47a622cd-2">
            <path
               style="stroke:none"
               d="m 2.9375,-3.71875 1.671875,0 c 0.125,0 0.484375,0 0.484375,-0.34375 0,-0.234375 -0.203125,-0.234375 -0.40625,-0.234375 l -2.78125,0 c -0.203125,0 -0.59375,0 -1.03125,0.46875 -0.328125,0.359375 -0.609375,0.84375 -0.609375,0.890625 0,0.015625 0,0.109375 0.125,0.109375 0.078125,0 0.09375,-0.046875 0.15625,-0.125 C 1.03125,-3.71875 1.609375,-3.71875 1.8125,-3.71875 l 0.828125,0 C 2.15625,-2.125 1.765625,-0.859375 1.671875,-0.515625 1.625,-0.40625 1.5625,-0.1875 1.5625,-0.15625 c 0,0.109375 0.078125,0.28125 0.296875,0.28125 0.328125,0 0.375,-0.28125 0.40625,-0.4375 L 2.9375,-3.71875 z m 0,0"
               id="path4033" />
          </symbol>
          <symbol
             style="overflow:visible"
             overflow="visible"
             id="textext-47a622cd-3">
            <path
               style="stroke:none"
               d=""
               id="path4036" />
          </symbol>
          <symbol
             style="overflow:visible"
             overflow="visible"
             id="textext-47a622cd-4">
            <path
               style="stroke:none"
               d="m 2.03125,-3.296875 c 0.03125,-0.0625 0.046875,-0.125 0.046875,-0.21875 0,-0.21875 -0.1875,-0.375 -0.40625,-0.375 -0.28125,0 -0.34375,0.21875 -0.375,0.3125 L 0.375,-0.5625 c -0.015625,0.03125 -0.046875,0.109375 -0.046875,0.125 0,0.078125 0.21875,0.15625 0.28125,0.15625 0.046875,0 0.078125,-0.046875 0.09375,-0.109375 l 1.328125,-2.90625 z m 0,0"
               id="path4039" />
          </symbol>
          <symbol
             style="overflow:visible"
             overflow="visible"
             id="textext-47a622cd-5">
            <path
               style="stroke:none"
               d=""
               id="path4042" />
          </symbol>
          <symbol
             style="overflow:visible"
             overflow="visible"
             id="textext-47a622cd-6">
            <path
               style="stroke:none"
               d="m 3.296875,2.390625 c 0,-0.03125 0,-0.046875 -0.171875,-0.21875 C 1.890625,0.921875 1.5625,-0.96875 1.5625,-2.5 c 0,-1.734375 0.375,-3.46875 1.609375,-4.703125 0.125,-0.125 0.125,-0.140625 0.125,-0.171875 0,-0.078125 -0.03125,-0.109375 -0.09375,-0.109375 -0.109375,0 -1,0.6875 -1.59375,1.953125 -0.5,1.09375 -0.625,2.203125 -0.625,3.03125 0,0.78125 0.109375,1.984375 0.65625,3.125 C 2.25,1.84375 3.09375,2.5 3.203125,2.5 c 0.0625,0 0.09375,-0.03125 0.09375,-0.109375 z m 0,0"
               id="path4045" />
          </symbol>
          <symbol
             style="overflow:visible"
             overflow="visible"
             id="textext-47a622cd-7">
            <path
               style="stroke:none"
               d="m 2.875,-2.5 c 0,-0.765625 -0.109375,-1.96875 -0.65625,-3.109375 -0.59375,-1.21875 -1.453125,-1.875 -1.546875,-1.875 -0.0625,0 -0.109375,0.046875 -0.109375,0.109375 0,0.03125 0,0.046875 0.1875,0.234375 0.984375,0.984375 1.546875,2.5625 1.546875,4.640625 0,1.71875 -0.359375,3.46875 -1.59375,4.71875 C 0.5625,2.34375 0.5625,2.359375 0.5625,2.390625 0.5625,2.453125 0.609375,2.5 0.671875,2.5 0.765625,2.5 1.671875,1.8125 2.25,0.546875 2.765625,-0.546875 2.875,-1.65625 2.875,-2.5 z m 0,0"
               id="path4048" />
          </symbol>
        </g>
      </defs>
      <g
         id="textext-47a622cd-8">
        <g
           style="fill:#000000;fill-opacity:1"
           id="g4051">
          <use
             height="177.16534"
             width="283.46457"
             xlink:href="#textext-47a622cd-1"
             x="223.4321"
             y="134.76469"
             id="use4053" />
        </g>
        <g
           style="fill:#000000;fill-opacity:1"
           id="g4055">
          <use
             height="177.16534"
             width="283.46457"
             xlink:href="#textext-47a622cd-4"
             x="227.476"
             y="131.14931"
             id="use4057" />
          <use
             height="177.16534"
             width="283.46457"
             xlink:href="#textext-47a622cd-4"
             x="229.77039"
             y="131.14931"
             id="use4059" />
        </g>
        <g
           style="fill:#000000;fill-opacity:1"
           id="g4061">
          <use
             height="177.16534"
             width="283.46457"
             xlink:href="#textext-47a622cd-6"
             x="232.56799"
             y="134.76469"
             id="use4063" />
        </g>
        <g
           style="fill:#000000;fill-opacity:1"
           id="g4065">
          <use
             height="177.16534"
             width="283.46457"
             xlink:href="#textext-47a622cd-2"
             x="236.4424"
             y="134.76469"
             id="use4067" />
        </g>
        <g
           style="fill:#000000;fill-opacity:1"
           id="g4069">
          <use
             height="177.16534"
             width="283.46457"
             xlink:href="#textext-47a622cd-7"
             x="241.92529"
             y="134.76469"
             id="use4071" />
        </g>
      </g>
    </g>
    <g
       id="g4338"
       transform="matrix(1.2,0,0,1.2,-68.386139,745.74485)"
       ns0:preamble="/home/manju/Documents/ubm/preamble.tex"
       ns0:text="$\\epsilon(\\tau)$">
      <defs
         id="defs4340">
        <g
           id="g4342">
          <symbol
             id="textext-dcd330f0-0"
             overflow="visible"
             style="overflow:visible">
            <path
               id="path4345"
               d=""
               style="stroke:none" />
          </symbol>
          <symbol
             id="textext-dcd330f0-1"
             overflow="visible"
             style="overflow:visible">
            <path
               id="path4348"
               d="m 2.96875,-2.25 c 0.15625,0 0.34375,0 0.34375,-0.171875 0,-0.140625 -0.125,-0.140625 -0.296875,-0.140625 l -1.609375,0 c 0.234375,-0.84375 0.796875,-1.421875 1.703125,-1.421875 l 0.3125,0 c 0.171875,0 0.328125,0 0.328125,-0.171875 0,-0.140625 -0.125,-0.140625 -0.296875,-0.140625 l -0.359375,0 c -1.296875,0 -2.625,1 -2.625,2.515625 0,1.109375 0.75,1.890625 1.796875,1.890625 0.65625,0 1.296875,-0.40625 1.296875,-0.515625 0,-0.015625 0,-0.125 -0.09375,-0.125 -0.015625,0 -0.046875,0 -0.125,0.046875 -0.3125,0.203125 -0.6875,0.375 -1.046875,0.375 -0.578125,0 -1.078125,-0.421875 -1.078125,-1.296875 0,-0.34375 0.078125,-0.734375 0.109375,-0.84375 l 1.640625,0 z m 0,0"
               style="stroke:none" />
          </symbol>
          <symbol
             id="textext-dcd330f0-2"
             overflow="visible"
             style="overflow:visible">
            <path
               id="path4351"
               d="m 2.9375,-3.71875 1.671875,0 c 0.125,0 0.484375,0 0.484375,-0.34375 0,-0.234375 -0.203125,-0.234375 -0.40625,-0.234375 l -2.78125,0 c -0.203125,0 -0.59375,0 -1.03125,0.46875 -0.328125,0.359375 -0.609375,0.84375 -0.609375,0.890625 0,0.015625 0,0.109375 0.125,0.109375 0.078125,0 0.09375,-0.046875 0.15625,-0.125 C 1.03125,-3.71875 1.609375,-3.71875 1.8125,-3.71875 l 0.828125,0 C 2.15625,-2.125 1.765625,-0.859375 1.671875,-0.515625 1.625,-0.40625 1.5625,-0.1875 1.5625,-0.15625 c 0,0.109375 0.078125,0.28125 0.296875,0.28125 0.328125,0 0.375,-0.28125 0.40625,-0.4375 L 2.9375,-3.71875 z m 0,0"
               style="stroke:none" />
          </symbol>
          <symbol
             id="textext-dcd330f0-3"
             overflow="visible"
             style="overflow:visible">
            <path
               id="path4354"
               d=""
               style="stroke:none" />
          </symbol>
          <symbol
             id="textext-dcd330f0-4"
             overflow="visible"
             style="overflow:visible">
            <path
               id="path4357"
               d="m 3.296875,2.390625 c 0,-0.03125 0,-0.046875 -0.171875,-0.21875 C 1.890625,0.921875 1.5625,-0.96875 1.5625,-2.5 c 0,-1.734375 0.375,-3.46875 1.609375,-4.703125 0.125,-0.125 0.125,-0.140625 0.125,-0.171875 0,-0.078125 -0.03125,-0.109375 -0.09375,-0.109375 -0.109375,0 -1,0.6875 -1.59375,1.953125 -0.5,1.09375 -0.625,2.203125 -0.625,3.03125 0,0.78125 0.109375,1.984375 0.65625,3.125 C 2.25,1.84375 3.09375,2.5 3.203125,2.5 c 0.0625,0 0.09375,-0.03125 0.09375,-0.109375 z m 0,0"
               style="stroke:none" />
          </symbol>
          <symbol
             id="textext-dcd330f0-5"
             overflow="visible"
             style="overflow:visible">
            <path
               id="path4360"
               d="m 2.875,-2.5 c 0,-0.765625 -0.109375,-1.96875 -0.65625,-3.109375 -0.59375,-1.21875 -1.453125,-1.875 -1.546875,-1.875 -0.0625,0 -0.109375,0.046875 -0.109375,0.109375 0,0.03125 0,0.046875 0.1875,0.234375 0.984375,0.984375 1.546875,2.5625 1.546875,4.640625 0,1.71875 -0.359375,3.46875 -1.59375,4.71875 C 0.5625,2.34375 0.5625,2.359375 0.5625,2.390625 0.5625,2.453125 0.609375,2.5 0.671875,2.5 0.765625,2.5 1.671875,1.8125 2.25,0.546875 2.765625,-0.546875 2.875,-1.65625 2.875,-2.5 z m 0,0"
               style="stroke:none" />
          </symbol>
        </g>
      </defs>
      <g
         id="textext-dcd330f0-6">
        <g
           id="g4363"
           style="fill:#000000;fill-opacity:1">
          <use
             id="use4365"
             y="134.76469"
             x="223.4321"
             xlink:href="#textext-dcd330f0-1"
             width="283.46457"
             height="177.16534" />
        </g>
        <g
           id="g4367"
           style="fill:#000000;fill-opacity:1">
          <use
             id="use4369"
             y="134.76469"
             x="227.476"
             xlink:href="#textext-dcd330f0-4"
             width="283.46457"
             height="177.16534" />
        </g>
        <g
           id="g4371"
           style="fill:#000000;fill-opacity:1">
          <use
             id="use4373"
             y="134.76469"
             x="231.3504"
             xlink:href="#textext-dcd330f0-2"
             width="283.46457"
             height="177.16534" />
        </g>
        <g
           id="g4375"
           style="fill:#000000;fill-opacity:1">
          <use
             id="use4377"
             y="134.76469"
             x="236.8333"
             xlink:href="#textext-dcd330f0-5"
             width="283.46457"
             height="177.16534" />
        </g>
      </g>
    </g>
    <g
       ns0:text="$D$"
       ns0:preamble="/home/manju/Documents/ubm/preamble.tex"
       transform="matrix(1.2,0,0,1.2,-166.58664,763.38086)"
       id="g4651">
      <defs
         id="defs4653">
        <g
           id="g4655">
          <symbol
             style="overflow:visible"
             overflow="visible"
             id="textext-1aea7131-0">
            <path
               style="stroke:none"
               d=""
               id="path4658" />
          </symbol>
          <symbol
             style="overflow:visible"
             overflow="visible"
             id="textext-1aea7131-1">
            <path
               style="stroke:none"
               d="m 1.578125,-0.78125 c -0.09375,0.390625 -0.109375,0.46875 -0.90625,0.46875 -0.15625,0 -0.265625,0 -0.265625,0.1875 C 0.40625,0 0.484375,0 0.671875,0 l 3.3125,0 c 2.0625,0 4.03125,-2.109375 4.03125,-4.28125 0,-1.40625 -0.84375,-2.53125 -2.34375,-2.53125 l -3.34375,0 c -0.1875,0 -0.296875,0 -0.296875,0.1875 0,0.125 0.078125,0.125 0.28125,0.125 0.125,0 0.3125,0.015625 0.421875,0.015625 0.171875,0.03125 0.21875,0.046875 0.21875,0.171875 0,0.03125 0,0.0625 -0.03125,0.1875 l -1.34375,5.34375 z M 3.734375,-6.125 C 3.828125,-6.46875 3.84375,-6.5 4.28125,-6.5 l 1.0625,0 c 0.96875,0 1.796875,0.53125 1.796875,1.84375 0,0.484375 -0.1875,2.125 -1.046875,3.21875 -0.28125,0.375 -1.0625,1.125 -2.296875,1.125 l -1.125,0 c -0.140625,0 -0.15625,0 -0.21875,0 -0.09375,-0.015625 -0.125,-0.03125 -0.125,-0.109375 0,-0.03125 0,-0.046875 0.046875,-0.21875 L 3.734375,-6.125 z m 0,0"
               id="path4661" />
          </symbol>
        </g>
      </defs>
      <g
         id="textext-1aea7131-2">
        <g
           style="fill:#000000;fill-opacity:1"
           id="g4664">
          <use
             height="177.16534"
             width="283.46457"
             xlink:href="#textext-1aea7131-1"
             x="223.4321"
             y="134.76469"
             id="use4666" />
        </g>
      </g>
    </g>
    <g
       id="g4962"
       transform="matrix(1.2,0,0,1.2,-208.50153,732.20832)"
       ns0:preamble="/home/manju/Documents/ubm/preamble.tex"
       ns0:text="$\\epsilon\'(\\tau)$">
      <defs
         id="defs4964">
        <g
           id="g4966">
          <symbol
             id="textext-31e7c32e-0"
             overflow="visible"
             style="overflow:visible">
            <path
               id="path4969"
               d=""
               style="stroke:none" />
          </symbol>
          <symbol
             id="textext-31e7c32e-1"
             overflow="visible"
             style="overflow:visible">
            <path
               id="path4972"
               d="m 2.96875,-2.25 c 0.15625,0 0.34375,0 0.34375,-0.171875 0,-0.140625 -0.125,-0.140625 -0.296875,-0.140625 l -1.609375,0 c 0.234375,-0.84375 0.796875,-1.421875 1.703125,-1.421875 l 0.3125,0 c 0.171875,0 0.328125,0 0.328125,-0.171875 0,-0.140625 -0.125,-0.140625 -0.296875,-0.140625 l -0.359375,0 c -1.296875,0 -2.625,1 -2.625,2.515625 0,1.109375 0.75,1.890625 1.796875,1.890625 0.65625,0 1.296875,-0.40625 1.296875,-0.515625 0,-0.015625 0,-0.125 -0.09375,-0.125 -0.015625,0 -0.046875,0 -0.125,0.046875 -0.3125,0.203125 -0.6875,0.375 -1.046875,0.375 -0.578125,0 -1.078125,-0.421875 -1.078125,-1.296875 0,-0.34375 0.078125,-0.734375 0.109375,-0.84375 l 1.640625,0 z m 0,0"
               style="stroke:none" />
          </symbol>
          <symbol
             id="textext-31e7c32e-2"
             overflow="visible"
             style="overflow:visible">
            <path
               id="path4975"
               d="m 2.9375,-3.71875 1.671875,0 c 0.125,0 0.484375,0 0.484375,-0.34375 0,-0.234375 -0.203125,-0.234375 -0.40625,-0.234375 l -2.78125,0 c -0.203125,0 -0.59375,0 -1.03125,0.46875 -0.328125,0.359375 -0.609375,0.84375 -0.609375,0.890625 0,0.015625 0,0.109375 0.125,0.109375 0.078125,0 0.09375,-0.046875 0.15625,-0.125 C 1.03125,-3.71875 1.609375,-3.71875 1.8125,-3.71875 l 0.828125,0 C 2.15625,-2.125 1.765625,-0.859375 1.671875,-0.515625 1.625,-0.40625 1.5625,-0.1875 1.5625,-0.15625 c 0,0.109375 0.078125,0.28125 0.296875,0.28125 0.328125,0 0.375,-0.28125 0.40625,-0.4375 L 2.9375,-3.71875 z m 0,0"
               style="stroke:none" />
          </symbol>
          <symbol
             id="textext-31e7c32e-3"
             overflow="visible"
             style="overflow:visible">
            <path
               id="path4978"
               d=""
               style="stroke:none" />
          </symbol>
          <symbol
             id="textext-31e7c32e-4"
             overflow="visible"
             style="overflow:visible">
            <path
               id="path4981"
               d="m 2.03125,-3.296875 c 0.03125,-0.0625 0.046875,-0.125 0.046875,-0.21875 0,-0.21875 -0.1875,-0.375 -0.40625,-0.375 -0.28125,0 -0.34375,0.21875 -0.375,0.3125 L 0.375,-0.5625 c -0.015625,0.03125 -0.046875,0.109375 -0.046875,0.125 0,0.078125 0.21875,0.15625 0.28125,0.15625 0.046875,0 0.078125,-0.046875 0.09375,-0.109375 l 1.328125,-2.90625 z m 0,0"
               style="stroke:none" />
          </symbol>
          <symbol
             id="textext-31e7c32e-5"
             overflow="visible"
             style="overflow:visible">
            <path
               id="path4984"
               d=""
               style="stroke:none" />
          </symbol>
          <symbol
             id="textext-31e7c32e-6"
             overflow="visible"
             style="overflow:visible">
            <path
               id="path4987"
               d="m 3.296875,2.390625 c 0,-0.03125 0,-0.046875 -0.171875,-0.21875 C 1.890625,0.921875 1.5625,-0.96875 1.5625,-2.5 c 0,-1.734375 0.375,-3.46875 1.609375,-4.703125 0.125,-0.125 0.125,-0.140625 0.125,-0.171875 0,-0.078125 -0.03125,-0.109375 -0.09375,-0.109375 -0.109375,0 -1,0.6875 -1.59375,1.953125 -0.5,1.09375 -0.625,2.203125 -0.625,3.03125 0,0.78125 0.109375,1.984375 0.65625,3.125 C 2.25,1.84375 3.09375,2.5 3.203125,2.5 c 0.0625,0 0.09375,-0.03125 0.09375,-0.109375 z m 0,0"
               style="stroke:none" />
          </symbol>
          <symbol
             id="textext-31e7c32e-7"
             overflow="visible"
             style="overflow:visible">
            <path
               id="path4990"
               d="m 2.875,-2.5 c 0,-0.765625 -0.109375,-1.96875 -0.65625,-3.109375 -0.59375,-1.21875 -1.453125,-1.875 -1.546875,-1.875 -0.0625,0 -0.109375,0.046875 -0.109375,0.109375 0,0.03125 0,0.046875 0.1875,0.234375 0.984375,0.984375 1.546875,2.5625 1.546875,4.640625 0,1.71875 -0.359375,3.46875 -1.59375,4.71875 C 0.5625,2.34375 0.5625,2.359375 0.5625,2.390625 0.5625,2.453125 0.609375,2.5 0.671875,2.5 0.765625,2.5 1.671875,1.8125 2.25,0.546875 2.765625,-0.546875 2.875,-1.65625 2.875,-2.5 z m 0,0"
               style="stroke:none" />
          </symbol>
        </g>
      </defs>
      <g
         id="textext-31e7c32e-8">
        <g
           id="g4993"
           style="fill:#000000;fill-opacity:1">
          <use
             id="use4995"
             y="134.76469"
             x="223.4321"
             xlink:href="#textext-31e7c32e-1"
             width="283.46457"
             height="177.16534" />
        </g>
        <g
           id="g4997"
           style="fill:#000000;fill-opacity:1">
          <use
             id="use4999"
             y="131.14931"
             x="227.476"
             xlink:href="#textext-31e7c32e-4"
             width="283.46457"
             height="177.16534" />
        </g>
        <g
           id="g5001"
           style="fill:#000000;fill-opacity:1">
          <use
             id="use5003"
             y="134.76469"
             x="230.2711"
             xlink:href="#textext-31e7c32e-6"
             width="283.46457"
             height="177.16534" />
        </g>
        <g
           id="g5005"
           style="fill:#000000;fill-opacity:1">
          <use
             id="use5007"
             y="134.76469"
             x="234.14549"
             xlink:href="#textext-31e7c32e-2"
             width="283.46457"
             height="177.16534" />
        </g>
        <g
           id="g5009"
           style="fill:#000000;fill-opacity:1">
          <use
             id="use5011"
             y="134.76469"
             x="239.6284"
             xlink:href="#textext-31e7c32e-7"
             width="283.46457"
             height="177.16534" />
        </g>
      </g>
    </g>
  </g>
</svg>
