<?xml version="1.0" encoding="UTF-8" standalone="no"?>
<!-- Created with Inkscape (http://www.inkscape.org/) -->

<svg
   xmlns:ns0="http://www.iki.fi/pav/software/textext/"
   xmlns:dc="http://purl.org/dc/elements/1.1/"
   xmlns:cc="http://creativecommons.org/ns#"
   xmlns:rdf="http://www.w3.org/1999/02/22-rdf-syntax-ns#"
   xmlns:svg="http://www.w3.org/2000/svg"
   xmlns="http://www.w3.org/2000/svg"
   xmlns:xlink="http://www.w3.org/1999/xlink"
   xmlns:sodipodi="http://sodipodi.sourceforge.net/DTD/sodipodi-0.dtd"
   xmlns:inkscape="http://www.inkscape.org/namespaces/inkscape"
   width="283.46457"
   height="212.59842"
   id="svg2"
   version="1.1"
   inkscape:version="0.47pre4 r22446"
   sodipodi:docname="New document 1">
  <sodipodi:namedview
     id="base"
     pagecolor="#ffffff"
     bordercolor="#666666"
     borderopacity="1.0"
     inkscape:pageopacity="0.0"
     inkscape:pageshadow="2"
     inkscape:zoom="1.979899"
     inkscape:cx="147.29466"
     inkscape:cy="110.71939"
     inkscape:document-units="px"
     inkscape:current-layer="layer1"
     showgrid="false"
     units="cm"
     inkscape:window-width="1024"
     inkscape:window-height="685"
     inkscape:window-x="0"
     inkscape:window-y="30"
     inkscape:window-maximized="1" />
  <defs
     id="defs4">
    <inkscape:perspective
       id="perspective10"
       inkscape:persp3d-origin="372.04724 : 350.78739 : 1"
       inkscape:vp_z="744.09448 : 526.18109 : 1"
       inkscape:vp_y="0 : 1000 : 0"
       inkscape:vp_x="0 : 526.18109 : 1"
       sodipodi:type="inkscape:persp3d" />
  </defs>
  <metadata
     id="metadata7">
    <rdf:RDF>
      <cc:Work
         rdf:about="">
        <dc:format>image/svg+xml</dc:format>
        <dc:type
           rdf:resource="http://purl.org/dc/dcmitype/StillImage" />
        <dc:title></dc:title>
      </cc:Work>
    </rdf:RDF>
  </metadata>
  <g
     transform="translate(0,-839.76245)"
     id="layer1"
     inkscape:groupmode="layer"
     inkscape:label="Layer 1">
    <path
       sodipodi:nodetypes="casassa"
       id="path2816"
       d="m 58.724286,870.65591 c 22.605055,-15.49225 53.250934,1.13567 79.880044,1.20438 20.24433,0.0523 42.75671,2.85018 60.73071,-0.60217 16.05923,-3.08458 53.84897,13.93866 54.16525,35.529 0.82018,55.98837 -78.36661,98.45658 -137.70302,96.20918 -36.704822,-1.3902 -76.451762,-35.43864 -82.787793,-72.72393 -3.703723,-21.79509 8.748652,-47.98878 25.714809,-59.61646 z"
       style="fill:none;stroke:#000000;stroke-width:1.25;stroke-linecap:butt;stroke-linejoin:miter;stroke-miterlimit:4;stroke-opacity:1;stroke-dasharray:none" />
    <path
       id="path3590"
       d="m 129.36044,864.4725 0,14.64721"
       style="fill:none;stroke:#000000;stroke-width:1.25;stroke-linecap:butt;stroke-linejoin:miter;stroke-miterlimit:4;stroke-opacity:1;stroke-dasharray:none" />
    <path
       style="fill:none;stroke:#000000;stroke-width:1.25;stroke-linecap:butt;stroke-linejoin:miter;stroke-miterlimit:4;stroke-opacity:1;stroke-dasharray:none"
       d="m 141.36044,994.4725 0,14.6472"
       id="path3592" />
    <g
       id="g3603"
       ns0:preamble=""
       ns0:text="$A$"
       transform="matrix(1.2,0,0,1.2,-135.8046,703.06617)">
      <defs
         id="defs3605">
        <g
           id="g3607">
          <symbol
             id="textext-7c683543-0"
             overflow="visible"
             style="overflow:visible">
            <path
               id="path3610"
               d=""
               style="stroke:none" />
          </symbol>
          <symbol
             id="textext-7c683543-1"
             overflow="visible"
             style="overflow:visible">
            <path
               id="path3613"
               d="M 1.78125,-1.140625 C 1.390625,-0.484375 1,-0.34375 0.5625,-0.3125 0.4375,-0.296875 0.34375,-0.296875 0.34375,-0.109375 0.34375,-0.046875 0.40625,0 0.484375,0 0.75,0 1.0625,-0.03125 1.328125,-0.03125 c 0.34375,0 0.6875,0.03125 1,0.03125 0.0625,0 0.1875,0 0.1875,-0.1875 0,-0.109375 -0.078125,-0.125 -0.15625,-0.125 -0.21875,-0.015625 -0.46875,-0.09375 -0.46875,-0.34375 0,-0.125 0.0625,-0.234375 0.140625,-0.375 0.078125,-0.109375 0.078125,-0.109375 0.765625,-1.265625 l 2.5,0 c 0.015625,0.203125 0.15625,1.5625 0.15625,1.65625 0,0.296875 -0.515625,0.328125 -0.71875,0.328125 C 4.59375,-0.3125 4.5,-0.3125 4.5,-0.109375 4.5,0 4.609375,0 4.640625,0 5.046875,0 5.46875,-0.03125 5.875,-0.03125 6.125,-0.03125 6.765625,0 7.015625,0 7.0625,0 7.1875,0 7.1875,-0.203125 7.1875,-0.3125 7.09375,-0.3125 6.953125,-0.3125 6.34375,-0.3125 6.34375,-0.375 6.3125,-0.671875 l -0.609375,-6.21875 c -0.015625,-0.203125 -0.015625,-0.25 -0.1875,-0.25 -0.15625,0 -0.203125,0.078125 -0.265625,0.171875 l -3.46875,5.828125 z m 1.203125,-1.46875 1.953125,-3.296875 0.328125,3.296875 -2.28125,0 z m 0,0"
               style="stroke:none" />
          </symbol>
        </g>
      </defs>
      <g
         id="textext-7c683543-2">
        <g
           id="g3616"
           style="fill:#000000;fill-opacity:1">
          <use
             id="use3618"
             y="134.765"
             x="223.43201"
             xlink:href="#textext-7c683543-1"
             width="283.46457"
             height="212.59842" />
        </g>
      </g>
    </g>
    <g
       ns0:text="$\\Gamma_{0}$"
       ns0:preamble=""
       transform="matrix(1.2,0,0,1.2,-254.25641,762.16009)"
       id="g3676">
      <defs
         id="defs3678">
        <g
           id="g3680">
          <symbol
             style="overflow:visible"
             overflow="visible"
             id="textext-2a87dc50-0">
            <path
               style="stroke:none"
               d=""
               id="path3683" />
          </symbol>
          <symbol
             style="overflow:visible"
             overflow="visible"
             id="textext-2a87dc50-1">
            <path
               style="stroke:none"
               d="m 5.515625,-6.78125 -5.1875,0 0,0.3125 0.234375,0 c 0.765625,0 0.796875,0.109375 0.796875,0.46875 l 0,5.21875 c 0,0.359375 -0.03125,0.46875 -0.796875,0.46875 l -0.234375,0 0,0.3125 c 0.34375,-0.03125 1.125,-0.03125 1.515625,-0.03125 0.40625,0 1.3125,0 1.671875,0.03125 l 0,-0.3125 -0.328125,0 C 2.25,-0.3125 2.25,-0.4375 2.25,-0.78125 l 0,-5.296875 c 0,-0.328125 0.015625,-0.390625 0.484375,-0.390625 l 1.03125,0 c 1.421875,0 1.625,0.59375 1.78125,1.9375 l 0.25,0 -0.28125,-2.25 z m 0,0"
               id="path3686" />
          </symbol>
          <symbol
             style="overflow:visible"
             overflow="visible"
             id="textext-2a87dc50-2">
            <path
               style="stroke:none"
               d=""
               id="path3689" />
          </symbol>
          <symbol
             style="overflow:visible"
             overflow="visible"
             id="textext-2a87dc50-3">
            <path
               style="stroke:none"
               d="M 3.59375,-2.21875 C 3.59375,-2.984375 3.5,-3.546875 3.1875,-4.03125 2.96875,-4.34375 2.53125,-4.625 1.984375,-4.625 c -1.625,0 -1.625,1.90625 -1.625,2.40625 0,0.5 0,2.359375 1.625,2.359375 1.609375,0 1.609375,-1.859375 1.609375,-2.359375 z M 1.984375,-0.0625 c -0.328125,0 -0.75,-0.1875 -0.890625,-0.75 C 1,-1.21875 1,-1.796875 1,-2.3125 1,-2.828125 1,-3.359375 1.09375,-3.734375 1.25,-4.28125 1.6875,-4.4375 1.984375,-4.4375 c 0.375,0 0.734375,0.234375 0.859375,0.640625 0.109375,0.375 0.125,0.875 0.125,1.484375 0,0.515625 0,1.03125 -0.09375,1.46875 -0.140625,0.640625 -0.609375,0.78125 -0.890625,0.78125 z m 0,0"
               id="path3692" />
          </symbol>
        </g>
      </defs>
      <g
         id="textext-2a87dc50-4">
        <g
           style="fill:#000000;fill-opacity:1"
           id="g3695">
          <use
             height="212.59842"
             width="283.46457"
             xlink:href="#textext-2a87dc50-1"
             x="223.43201"
             y="134.765"
             id="use3697" />
        </g>
        <g
           style="fill:#000000;fill-opacity:1"
           id="g3699">
          <use
             height="212.59842"
             width="283.46457"
             xlink:href="#textext-2a87dc50-3"
             x="229.659"
             y="136.259"
             id="use3701" />
        </g>
      </g>
    </g>
    <g
       id="g3803"
       transform="matrix(1.2,0,0,1.2,-10.25641,762.16009)"
       ns0:preamble=""
       ns0:text="$\\Gamma_{1}$">
      <defs
         id="defs3805">
        <g
           id="g3807">
          <symbol
             id="textext-78c91609-0"
             overflow="visible"
             style="overflow:visible">
            <path
               id="path3810"
               d=""
               style="stroke:none" />
          </symbol>
          <symbol
             id="textext-78c91609-1"
             overflow="visible"
             style="overflow:visible">
            <path
               id="path3813"
               d="m 5.515625,-6.78125 -5.1875,0 0,0.3125 0.234375,0 c 0.765625,0 0.796875,0.109375 0.796875,0.46875 l 0,5.21875 c 0,0.359375 -0.03125,0.46875 -0.796875,0.46875 l -0.234375,0 0,0.3125 c 0.34375,-0.03125 1.125,-0.03125 1.515625,-0.03125 0.40625,0 1.3125,0 1.671875,0.03125 l 0,-0.3125 -0.328125,0 C 2.25,-0.3125 2.25,-0.4375 2.25,-0.78125 l 0,-5.296875 c 0,-0.328125 0.015625,-0.390625 0.484375,-0.390625 l 1.03125,0 c 1.421875,0 1.625,0.59375 1.78125,1.9375 l 0.25,0 -0.28125,-2.25 z m 0,0"
               style="stroke:none" />
          </symbol>
          <symbol
             id="textext-78c91609-2"
             overflow="visible"
             style="overflow:visible">
            <path
               id="path3816"
               d=""
               style="stroke:none" />
          </symbol>
          <symbol
             id="textext-78c91609-3"
             overflow="visible"
             style="overflow:visible">
            <path
               id="path3819"
               d="m 2.328125,-4.4375 c 0,-0.1875 0,-0.1875 -0.203125,-0.1875 -0.453125,0.4375 -1.078125,0.4375 -1.359375,0.4375 l 0,0.25 c 0.15625,0 0.625,0 1,-0.1875 l 0,3.546875 c 0,0.234375 0,0.328125 -0.6875,0.328125 l -0.265625,0 0,0.25 c 0.125,0 0.984375,-0.03125 1.234375,-0.03125 0.21875,0 1.09375,0.03125 1.25,0.03125 l 0,-0.25 -0.265625,0 c -0.703125,0 -0.703125,-0.09375 -0.703125,-0.328125 l 0,-3.859375 z m 0,0"
               style="stroke:none" />
          </symbol>
        </g>
      </defs>
      <g
         id="textext-78c91609-4">
        <g
           id="g3822"
           style="fill:#000000;fill-opacity:1">
          <use
             id="use3824"
             y="134.765"
             x="223.43201"
             xlink:href="#textext-78c91609-1"
             width="283.46457"
             height="212.59842" />
        </g>
        <g
           id="g3826"
           style="fill:#000000;fill-opacity:1">
          <use
             id="use3828"
             y="136.259"
             x="229.659"
             xlink:href="#textext-78c91609-3"
             width="283.46457"
             height="212.59842" />
        </g>
      </g>
    </g>
    <g
       ns0:text="$\\Omega$"
       ns0:preamble=""
       transform="matrix(1.2,0,0,1.2,-137.24626,771.69563)"
       id="g3962">
      <defs
         id="defs3964">
        <g
           id="g3966">
          <symbol
             style="overflow:visible"
             overflow="visible"
             id="textext-ae7618f1-0">
            <path
               style="stroke:none"
               d=""
               id="path3969" />
          </symbol>
          <symbol
             style="overflow:visible"
             overflow="visible"
             id="textext-ae7618f1-1">
            <path
               style="stroke:none"
               d="m 6.75,-1.609375 -0.25,0 c -0.046875,0.25 -0.09375,0.484375 -0.1875,0.71875 -0.046875,0.15625 -0.078125,0.25 -0.65625,0.25 l -0.796875,0 C 5,-1.203125 5.296875,-1.6875 5.75,-2.34375 c 0.46875,-0.703125 0.875,-1.390625 0.875,-2.1875 0,-1.375 -1.34375,-2.5 -3.03125,-2.5 -1.703125,0 -3.03125,1.140625 -3.03125,2.5 0,0.796875 0.40625,1.484375 0.875,2.1875 0.4375,0.65625 0.75,1.140625 0.890625,1.703125 l -0.796875,0 C 0.953125,-0.640625 0.921875,-0.734375 0.875,-0.875 0.78125,-1.109375 0.734375,-1.359375 0.6875,-1.609375 l -0.25,0 L 0.765625,0 2.359375,0 c 0.21875,0 0.25,0 0.25,-0.203125 0,-0.703125 -0.3125,-1.578125 -0.53125,-2.21875 -0.21875,-0.578125 -0.5,-1.359375 -0.5,-2.109375 0,-1.59375 1.109375,-2.28125 2.015625,-2.28125 0.953125,0 2.015625,0.71875 2.015625,2.28125 0,0.75 -0.28125,1.5 -0.5625,2.3125 -0.15625,0.421875 -0.46875,1.328125 -0.46875,2.015625 C 4.578125,0 4.609375,0 4.828125,0 L 6.421875,0 6.75,-1.609375 z m 0,0"
               id="path3972" />
          </symbol>
        </g>
      </defs>
      <g
         id="textext-ae7618f1-2">
        <g
           style="fill:#000000;fill-opacity:1"
           id="g3975">
          <use
             height="212.59842"
             width="283.46457"
             xlink:href="#textext-ae7618f1-1"
             x="223.43201"
             y="134.765"
             id="use3977" />
        </g>
      </g>
    </g>
    <g
       id="g4119"
       transform="matrix(1.2,0,0,1.2,-121.8046,853.06617)"
       ns0:preamble=""
       ns0:text="$B$">
      <defs
         id="defs4121">
        <g
           id="g4123">
          <symbol
             id="textext-45618403-0"
             overflow="visible">
            <path
               id="path4126"
               d=""
               style="stroke:none;" />
          </symbol>
          <symbol
             id="textext-45618403-1"
             overflow="visible">
            <path
               id="path4129"
               d="M 1.59375 -0.78125 C 1.5 -0.390625 1.46875 -0.3125 0.6875 -0.3125 C 0.515625 -0.3125 0.421875 -0.3125 0.421875 -0.109375 C 0.421875 0 0.515625 0 0.6875 0 L 4.25 0 C 5.828125 0 7 -1.171875 7 -2.15625 C 7 -2.875 6.421875 -3.453125 5.453125 -3.5625 C 6.484375 -3.75 7.53125 -4.484375 7.53125 -5.4375 C 7.53125 -6.171875 6.875 -6.8125 5.6875 -6.8125 L 2.328125 -6.8125 C 2.140625 -6.8125 2.046875 -6.8125 2.046875 -6.609375 C 2.046875 -6.5 2.140625 -6.5 2.328125 -6.5 C 2.34375 -6.5 2.53125 -6.5 2.703125 -6.484375 C 2.875 -6.453125 2.96875 -6.453125 2.96875 -6.3125 C 2.96875 -6.28125 2.953125 -6.25 2.9375 -6.125 L 1.59375 -0.78125 Z M 3.09375 -3.65625 L 3.71875 -6.125 C 3.8125 -6.46875 3.828125 -6.5 4.25 -6.5 L 5.546875 -6.5 C 6.421875 -6.5 6.625 -5.90625 6.625 -5.46875 C 6.625 -4.59375 5.765625 -3.65625 4.5625 -3.65625 L 3.09375 -3.65625 Z M 2.65625 -0.3125 C 2.515625 -0.3125 2.5 -0.3125 2.4375 -0.3125 C 2.328125 -0.328125 2.296875 -0.34375 2.296875 -0.421875 C 2.296875 -0.453125 2.296875 -0.46875 2.359375 -0.640625 L 3.046875 -3.421875 L 4.921875 -3.421875 C 5.875 -3.421875 6.078125 -2.6875 6.078125 -2.265625 C 6.078125 -1.28125 5.1875 -0.3125 4 -0.3125 L 2.65625 -0.3125 Z M 2.65625 -0.3125 "
               style="stroke:none;" />
          </symbol>
        </g>
      </defs>
      <g
         id="textext-45618403-2">
        <g
           id="g4132"
           style="fill:rgb(0%,0%,0%);fill-opacity:1;">
          <use
             id="use4134"
             y="134.765"
             x="223.432"
             xlink:href="#textext-45618403-1" />
        </g>
      </g>
    </g>
  </g>
</svg>
