<?xml version="1.0" encoding="UTF-8" standalone="no"?>
<!-- Created with Inkscape (http://www.inkscape.org/) -->

<svg
   xmlns:ns0="http://www.iki.fi/pav/software/textext/"
   xmlns:dc="http://purl.org/dc/elements/1.1/"
   xmlns:cc="http://creativecommons.org/ns#"
   xmlns:rdf="http://www.w3.org/1999/02/22-rdf-syntax-ns#"
   xmlns:svg="http://www.w3.org/2000/svg"
   xmlns="http://www.w3.org/2000/svg"
   xmlns:xlink="http://www.w3.org/1999/xlink"
   xmlns:sodipodi="http://sodipodi.sourceforge.net/DTD/sodipodi-0.dtd"
   xmlns:inkscape="http://www.inkscape.org/namespaces/inkscape"
   width="248.03149"
   height="212.59842"
   id="svg6807"
   version="1.1"
   inkscape:version="0.47pre4 r22446"
   sodipodi:docname="New document 5">
  <sodipodi:namedview
     id="base"
     pagecolor="#ffffff"
     bordercolor="#666666"
     borderopacity="1.0"
     inkscape:pageopacity="0.0"
     inkscape:pageshadow="2"
     inkscape:zoom="1.979899"
     inkscape:cx="146.65767"
     inkscape:cy="101.28729"
     inkscape:document-units="px"
     inkscape:current-layer="layer1"
     showgrid="false"
     units="cm"
     inkscape:window-width="1024"
     inkscape:window-height="685"
     inkscape:window-x="0"
     inkscape:window-y="30"
     inkscape:window-maximized="1" />
  <defs
     id="defs6809">
    <marker
       style="overflow:visible;"
       id="Arrow1Mend"
       refX="0.0"
       refY="0.0"
       orient="auto"
       inkscape:stockid="Arrow1Mend">
      <path
         transform="scale(0.4) rotate(180) translate(10,0)"
         style="fill-rule:evenodd;stroke:#000000;stroke-width:1.0pt;marker-start:none;"
         d="M 0.0,0.0 L 5.0,-5.0 L -12.5,0.0 L 5.0,5.0 L 0.0,0.0 z "
         id="path7341" />
    </marker>
    <marker
       style="overflow:visible"
       id="Arrow1Mstart"
       refX="0.0"
       refY="0.0"
       orient="auto"
       inkscape:stockid="Arrow1Mstart">
      <path
         transform="scale(0.4) translate(10,0)"
         style="fill-rule:evenodd;stroke:#000000;stroke-width:1.0pt;marker-start:none"
         d="M 0.0,0.0 L 5.0,-5.0 L -12.5,0.0 L 5.0,5.0 L 0.0,0.0 z "
         id="path7338" />
    </marker>
    <marker
       style="overflow:visible"
       id="DotM"
       refX="0.0"
       refY="0.0"
       orient="auto"
       inkscape:stockid="DotM">
      <path
         transform="scale(0.4) translate(7.4, 1)"
         style="fill-rule:evenodd;stroke:#000000;stroke-width:1.0pt;marker-start:none;marker-end:none"
         d="M -2.5,-1.0 C -2.5,1.7600000 -4.7400000,4.0 -7.5,4.0 C -10.260000,4.0 -12.5,1.7600000 -12.5,-1.0 C -12.5,-3.7600000 -10.260000,-6.0 -7.5,-6.0 C -4.7400000,-6.0 -2.5,-3.7600000 -2.5,-1.0 z "
         id="path7397" />
    </marker>
    <inkscape:perspective
       id="perspective6815"
       inkscape:persp3d-origin="372.04724 : 350.78739 : 1"
       inkscape:vp_z="744.09448 : 526.18109 : 1"
       inkscape:vp_y="0 : 1000 : 0"
       inkscape:vp_x="0 : 526.18109 : 1"
       sodipodi:type="inkscape:persp3d" />
  </defs>
  <metadata
     id="metadata6812">
    <rdf:RDF>
      <cc:Work
         rdf:about="">
        <dc:format>image/svg+xml</dc:format>
        <dc:type
           rdf:resource="http://purl.org/dc/dcmitype/StillImage" />
        <dc:title></dc:title>
      </cc:Work>
    </rdf:RDF>
  </metadata>
  <g
     transform="translate(0,-839.76245)"
     id="layer1"
     inkscape:groupmode="layer"
     inkscape:label="Layer 1">
    <path
       sodipodi:nodetypes="cccc"
       id="path6817"
       d="M 24.748738,1029.1274 103.54063,867.50295 216.67772,1003.8736 24.748738,1029.1274 z"
       style="fill:none;stroke:#000000;stroke-width:1.25;stroke-linecap:butt;stroke-linejoin:miter;stroke-miterlimit:4;stroke-opacity:1;stroke-dasharray:none;marker-start:url(#DotM);marker-mid:url(#DotM)" />
    <path
       sodipodi:nodetypes="ccc"
       transform="translate(0,839.76245)"
       id="path7961"
       d="m 103.03556,4.0019187 0,24.7487373 23.73858,0"
       style="fill:none;stroke:#000000;stroke-width:1.25000000000000000;stroke-linecap:butt;stroke-linejoin:miter;stroke-opacity:1;stroke-miterlimit:4;stroke-dasharray:none;marker-start:url(#Arrow1Mstart);marker-end:url(#Arrow1Mend)" />
    <path
       style="fill:none;stroke:#000000;stroke-width:1.25;stroke-linecap:butt;stroke-linejoin:miter;stroke-miterlimit:4;stroke-opacity:1;stroke-dasharray:none;marker-start:url(#Arrow1Mstart);marker-end:url(#Arrow1Mend)"
       d="m 216.04572,979.27961 0,24.74879 23.73858,0"
       id="path8341"
       sodipodi:nodetypes="ccc" />
    <path
       sodipodi:nodetypes="ccc"
       id="path8343"
       d="m 24.550796,1004.2898 0,24.7488 23.73858,0"
       style="fill:none;stroke:#000000;stroke-width:1.25;stroke-linecap:butt;stroke-linejoin:miter;stroke-miterlimit:4;stroke-opacity:1;stroke-dasharray:none;marker-start:url(#Arrow1Mstart);marker-end:url(#Arrow1Mend)" />
    <path
       transform="translate(3.0304576,844.81321)"
       d="m 113.13709,123.95753 c 0,1.5342 -1.24372,2.77792 -2.77792,2.77792 -1.5342,0 -2.77792,-1.24372 -2.77792,-2.77792 0,-1.53421 1.24372,-2.77792 2.77792,-2.77792 1.5342,0 2.77792,1.24371 2.77792,2.77792 z"
       sodipodi:ry="2.7779195"
       sodipodi:rx="2.7779195"
       sodipodi:cy="123.95753"
       sodipodi:cx="110.35917"
       id="path8345"
       style="fill:#000000;fill-opacity:1;fill-rule:nonzero;stroke:#000000;stroke-width:1.25;stroke-linecap:round;stroke-linejoin:miter;stroke-miterlimit:4;stroke-opacity:1;stroke-dasharray:none;stroke-dashoffset:0"
       sodipodi:type="arc" />
    <g
       id="g8364"
       ns0:preamble=""
       ns0:text="$a_{1}$"
       transform="matrix(1.2,0,0,1.2,-182.33253,703.06617)">
      <defs
         id="defs8366">
        <g
           id="g8368">
          <symbol
             id="textext-b05080f8-0"
             overflow="visible"
             style="overflow:visible">
            <path
               id="path8371"
               d=""
               style="stroke:none" />
          </symbol>
          <symbol
             id="textext-b05080f8-1"
             overflow="visible"
             style="overflow:visible">
            <path
               id="path8374"
               d="M 3.71875,-3.765625 C 3.53125,-4.140625 3.25,-4.40625 2.796875,-4.40625 c -1.15625,0 -2.390625,1.46875 -2.390625,2.921875 0,0.9375 0.546875,1.59375 1.3125,1.59375 0.203125,0 0.703125,-0.046875 1.296875,-0.75 0.078125,0.421875 0.4375,0.75 0.90625,0.75 0.359375,0 0.578125,-0.234375 0.75,-0.546875 0.15625,-0.359375 0.296875,-0.96875 0.296875,-0.984375 0,-0.109375 -0.09375,-0.109375 -0.125,-0.109375 -0.09375,0 -0.109375,0.046875 -0.140625,0.1875 -0.171875,0.640625 -0.34375,1.234375 -0.75,1.234375 -0.28125,0 -0.296875,-0.265625 -0.296875,-0.453125 0,-0.21875 0.015625,-0.3125 0.125,-0.75 C 3.890625,-1.71875 3.90625,-1.828125 4,-2.203125 4.171875,-2.84375 4.203125,-3.03125 4.359375,-3.59375 c 0.0625,-0.28125 0.0625,-0.296875 0.0625,-0.34375 0,-0.171875 -0.109375,-0.265625 -0.28125,-0.265625 -0.25,0 -0.390625,0.21875 -0.421875,0.4375 z M 3.078125,-1.1875 C 3.015625,-1 3.015625,-0.984375 2.875,-0.8125 2.4375,-0.265625 2.03125,-0.109375 1.75,-0.109375 c -0.5,0 -0.640625,-0.546875 -0.640625,-0.9375 0,-0.5 0.3125,-1.71875 0.546875,-2.1875 0.3125,-0.578125 0.75,-0.953125 1.15625,-0.953125 0.640625,0 0.78125,0.8125 0.78125,0.875 0,0.0625 -0.015625,0.125 -0.03125,0.171875 L 3.078125,-1.1875 z m 0,0"
               style="stroke:none" />
          </symbol>
          <symbol
             id="textext-b05080f8-2"
             overflow="visible"
             style="overflow:visible">
            <path
               id="path8377"
               d=""
               style="stroke:none" />
          </symbol>
          <symbol
             id="textext-b05080f8-3"
             overflow="visible"
             style="overflow:visible">
            <path
               id="path8380"
               d="m 2.328125,-4.4375 c 0,-0.1875 0,-0.1875 -0.203125,-0.1875 -0.453125,0.4375 -1.078125,0.4375 -1.359375,0.4375 l 0,0.25 c 0.15625,0 0.625,0 1,-0.1875 l 0,3.546875 c 0,0.234375 0,0.328125 -0.6875,0.328125 l -0.265625,0 0,0.25 c 0.125,0 0.984375,-0.03125 1.234375,-0.03125 0.21875,0 1.09375,0.03125 1.25,0.03125 l 0,-0.25 -0.265625,0 c -0.703125,0 -0.703125,-0.09375 -0.703125,-0.328125 l 0,-3.859375 z m 0,0"
               style="stroke:none" />
          </symbol>
        </g>
      </defs>
      <g
         id="textext-b05080f8-4">
        <g
           id="g8383"
           style="fill:#000000;fill-opacity:1">
          <use
             id="use8385"
             y="134.765"
             x="223.43201"
             xlink:href="#textext-b05080f8-1"
             width="248.03149"
             height="212.59842" />
        </g>
        <g
           id="g8387"
           style="fill:#000000;fill-opacity:1">
          <use
             id="use8389"
             y="136.259"
             x="228.698"
             xlink:href="#textext-b05080f8-3"
             width="248.03149"
             height="212.59842" />
        </g>
      </g>
    </g>
    <g
       ns0:text="$a_{2}$"
       ns0:preamble=""
       transform="matrix(1.2,0,0,1.2,-254.09397,879.41646)"
       id="g8487">
      <defs
         id="defs8489">
        <g
           id="g8491">
          <symbol
             style="overflow:visible"
             overflow="visible"
             id="textext-8c4695c0-0">
            <path
               style="stroke:none"
               d=""
               id="path8494" />
          </symbol>
          <symbol
             style="overflow:visible"
             overflow="visible"
             id="textext-8c4695c0-1">
            <path
               style="stroke:none"
               d="M 3.71875,-3.765625 C 3.53125,-4.140625 3.25,-4.40625 2.796875,-4.40625 c -1.15625,0 -2.390625,1.46875 -2.390625,2.921875 0,0.9375 0.546875,1.59375 1.3125,1.59375 0.203125,0 0.703125,-0.046875 1.296875,-0.75 0.078125,0.421875 0.4375,0.75 0.90625,0.75 0.359375,0 0.578125,-0.234375 0.75,-0.546875 0.15625,-0.359375 0.296875,-0.96875 0.296875,-0.984375 0,-0.109375 -0.09375,-0.109375 -0.125,-0.109375 -0.09375,0 -0.109375,0.046875 -0.140625,0.1875 -0.171875,0.640625 -0.34375,1.234375 -0.75,1.234375 -0.28125,0 -0.296875,-0.265625 -0.296875,-0.453125 0,-0.21875 0.015625,-0.3125 0.125,-0.75 C 3.890625,-1.71875 3.90625,-1.828125 4,-2.203125 4.171875,-2.84375 4.203125,-3.03125 4.359375,-3.59375 c 0.0625,-0.28125 0.0625,-0.296875 0.0625,-0.34375 0,-0.171875 -0.109375,-0.265625 -0.28125,-0.265625 -0.25,0 -0.390625,0.21875 -0.421875,0.4375 z M 3.078125,-1.1875 C 3.015625,-1 3.015625,-0.984375 2.875,-0.8125 2.4375,-0.265625 2.03125,-0.109375 1.75,-0.109375 c -0.5,0 -0.640625,-0.546875 -0.640625,-0.9375 0,-0.5 0.3125,-1.71875 0.546875,-2.1875 0.3125,-0.578125 0.75,-0.953125 1.15625,-0.953125 0.640625,0 0.78125,0.8125 0.78125,0.875 0,0.0625 -0.015625,0.125 -0.03125,0.171875 L 3.078125,-1.1875 z m 0,0"
               id="path8497" />
          </symbol>
          <symbol
             style="overflow:visible"
             overflow="visible"
             id="textext-8c4695c0-2">
            <path
               style="stroke:none"
               d=""
               id="path8500" />
          </symbol>
          <symbol
             style="overflow:visible"
             overflow="visible"
             id="textext-8c4695c0-3">
            <path
               style="stroke:none"
               d="m 3.515625,-1.265625 -0.234375,0 c -0.015625,0.15625 -0.09375,0.5625 -0.1875,0.625 -0.046875,0.046875 -0.578125,0.046875 -0.6875,0.046875 l -1.28125,0 c 0.734375,-0.640625 0.984375,-0.84375 1.390625,-1.171875 0.515625,-0.40625 1,-0.84375 1,-1.5 0,-0.84375 -0.734375,-1.359375 -1.625,-1.359375 -0.859375,0 -1.453125,0.609375 -1.453125,1.25 0,0.34375 0.296875,0.390625 0.375,0.390625 0.15625,0 0.359375,-0.125 0.359375,-0.375 0,-0.125 -0.046875,-0.375 -0.40625,-0.375 C 0.984375,-4.21875 1.453125,-4.375 1.78125,-4.375 c 0.703125,0 1.0625,0.546875 1.0625,1.109375 0,0.609375 -0.4375,1.078125 -0.65625,1.328125 L 0.515625,-0.265625 C 0.4375,-0.203125 0.4375,-0.1875 0.4375,0 l 2.875,0 0.203125,-1.265625 z m 0,0"
               id="path8503" />
          </symbol>
        </g>
      </defs>
      <g
         id="textext-8c4695c0-4">
        <g
           style="fill:#000000;fill-opacity:1"
           id="g8506">
          <use
             height="212.59842"
             width="248.03149"
             xlink:href="#textext-8c4695c0-1"
             x="223.43201"
             y="134.765"
             id="use8508" />
        </g>
        <g
           style="fill:#000000;fill-opacity:1"
           id="g8510">
          <use
             height="212.59842"
             width="248.03149"
             xlink:href="#textext-8c4695c0-3"
             x="228.698"
             y="136.259"
             id="use8512" />
        </g>
      </g>
    </g>
    <g
       id="g8642"
       transform="matrix(1.2,0,0,1.2,-56.045707,853.65757)"
       ns0:preamble=""
       ns0:text="$a_{3}$">
      <defs
         id="defs8644">
        <g
           id="g8646">
          <symbol
             id="textext-1dd77ede-0"
             overflow="visible"
             style="overflow:visible">
            <path
               id="path8649"
               d=""
               style="stroke:none" />
          </symbol>
          <symbol
             id="textext-1dd77ede-1"
             overflow="visible"
             style="overflow:visible">
            <path
               id="path8652"
               d="M 3.71875,-3.765625 C 3.53125,-4.140625 3.25,-4.40625 2.796875,-4.40625 c -1.15625,0 -2.390625,1.46875 -2.390625,2.921875 0,0.9375 0.546875,1.59375 1.3125,1.59375 0.203125,0 0.703125,-0.046875 1.296875,-0.75 0.078125,0.421875 0.4375,0.75 0.90625,0.75 0.359375,0 0.578125,-0.234375 0.75,-0.546875 0.15625,-0.359375 0.296875,-0.96875 0.296875,-0.984375 0,-0.109375 -0.09375,-0.109375 -0.125,-0.109375 -0.09375,0 -0.109375,0.046875 -0.140625,0.1875 -0.171875,0.640625 -0.34375,1.234375 -0.75,1.234375 -0.28125,0 -0.296875,-0.265625 -0.296875,-0.453125 0,-0.21875 0.015625,-0.3125 0.125,-0.75 C 3.890625,-1.71875 3.90625,-1.828125 4,-2.203125 4.171875,-2.84375 4.203125,-3.03125 4.359375,-3.59375 c 0.0625,-0.28125 0.0625,-0.296875 0.0625,-0.34375 0,-0.171875 -0.109375,-0.265625 -0.28125,-0.265625 -0.25,0 -0.390625,0.21875 -0.421875,0.4375 z M 3.078125,-1.1875 C 3.015625,-1 3.015625,-0.984375 2.875,-0.8125 2.4375,-0.265625 2.03125,-0.109375 1.75,-0.109375 c -0.5,0 -0.640625,-0.546875 -0.640625,-0.9375 0,-0.5 0.3125,-1.71875 0.546875,-2.1875 0.3125,-0.578125 0.75,-0.953125 1.15625,-0.953125 0.640625,0 0.78125,0.8125 0.78125,0.875 0,0.0625 -0.015625,0.125 -0.03125,0.171875 L 3.078125,-1.1875 z m 0,0"
               style="stroke:none" />
          </symbol>
          <symbol
             id="textext-1dd77ede-2"
             overflow="visible"
             style="overflow:visible">
            <path
               id="path8655"
               d=""
               style="stroke:none" />
          </symbol>
          <symbol
             id="textext-1dd77ede-3"
             overflow="visible"
             style="overflow:visible">
            <path
               id="path8658"
               d="m 1.90625,-2.328125 c 0.546875,0 0.9375,0.375 0.9375,1.125 0,0.859375 -0.515625,1.125 -0.90625,1.125 -0.28125,0 -0.90625,-0.078125 -1.1875,-0.5 0.328125,0 0.40625,-0.234375 0.40625,-0.390625 0,-0.21875 -0.171875,-0.375 -0.390625,-0.375 -0.1875,0 -0.390625,0.125 -0.390625,0.40625 0,0.65625 0.71875,1.078125 1.5625,1.078125 0.96875,0 1.640625,-0.65625 1.640625,-1.34375 0,-0.546875 -0.4375,-1.09375 -1.203125,-1.25 0.71875,-0.265625 0.984375,-0.78125 0.984375,-1.21875 0,-0.546875 -0.625,-0.953125 -1.40625,-0.953125 -0.765625,0 -1.359375,0.375 -1.359375,0.9375 0,0.234375 0.15625,0.359375 0.359375,0.359375 0.21875,0 0.359375,-0.15625 0.359375,-0.34375 0,-0.203125 -0.140625,-0.359375 -0.359375,-0.375 0.25,-0.296875 0.71875,-0.375 0.984375,-0.375 0.3125,0 0.75,0.15625 0.75,0.75 0,0.296875 -0.09375,0.625 -0.28125,0.828125 -0.21875,0.265625 -0.421875,0.28125 -0.765625,0.3125 -0.171875,0.015625 -0.1875,0.015625 -0.21875,0.015625 -0.015625,0 -0.078125,0.015625 -0.078125,0.09375 0,0.09375 0.0625,0.09375 0.1875,0.09375 l 0.375,0 z m 0,0"
               style="stroke:none" />
          </symbol>
        </g>
      </defs>
      <g
         id="textext-1dd77ede-4">
        <g
           id="g8661"
           style="fill:#000000;fill-opacity:1">
          <use
             id="use8663"
             y="134.765"
             x="223.43201"
             xlink:href="#textext-1dd77ede-1"
             width="248.03149"
             height="212.59842" />
        </g>
        <g
           id="g8665"
           style="fill:#000000;fill-opacity:1">
          <use
             id="use8667"
             y="136.259"
             x="228.698"
             xlink:href="#textext-1dd77ede-3"
             width="248.03149"
             height="212.59842" />
        </g>
      </g>
    </g>
    <g
       ns0:text="$a_{123}$"
       ns0:preamble=""
       transform="matrix(1.2,0,0,1.2,-147.46451,809.55349)"
       id="g8829">
      <defs
         id="defs8831">
        <g
           id="g8833">
          <symbol
             style="overflow:visible"
             overflow="visible"
             id="textext-ac7761a7-0">
            <path
               style="stroke:none"
               d=""
               id="path8836" />
          </symbol>
          <symbol
             style="overflow:visible"
             overflow="visible"
             id="textext-ac7761a7-1">
            <path
               style="stroke:none"
               d="M 3.71875,-3.765625 C 3.53125,-4.140625 3.25,-4.40625 2.796875,-4.40625 c -1.15625,0 -2.390625,1.46875 -2.390625,2.921875 0,0.9375 0.546875,1.59375 1.3125,1.59375 0.203125,0 0.703125,-0.046875 1.296875,-0.75 0.078125,0.421875 0.4375,0.75 0.90625,0.75 0.359375,0 0.578125,-0.234375 0.75,-0.546875 0.15625,-0.359375 0.296875,-0.96875 0.296875,-0.984375 0,-0.109375 -0.09375,-0.109375 -0.125,-0.109375 -0.09375,0 -0.109375,0.046875 -0.140625,0.1875 -0.171875,0.640625 -0.34375,1.234375 -0.75,1.234375 -0.28125,0 -0.296875,-0.265625 -0.296875,-0.453125 0,-0.21875 0.015625,-0.3125 0.125,-0.75 C 3.890625,-1.71875 3.90625,-1.828125 4,-2.203125 4.171875,-2.84375 4.203125,-3.03125 4.359375,-3.59375 c 0.0625,-0.28125 0.0625,-0.296875 0.0625,-0.34375 0,-0.171875 -0.109375,-0.265625 -0.28125,-0.265625 -0.25,0 -0.390625,0.21875 -0.421875,0.4375 z M 3.078125,-1.1875 C 3.015625,-1 3.015625,-0.984375 2.875,-0.8125 2.4375,-0.265625 2.03125,-0.109375 1.75,-0.109375 c -0.5,0 -0.640625,-0.546875 -0.640625,-0.9375 0,-0.5 0.3125,-1.71875 0.546875,-2.1875 0.3125,-0.578125 0.75,-0.953125 1.15625,-0.953125 0.640625,0 0.78125,0.8125 0.78125,0.875 0,0.0625 -0.015625,0.125 -0.03125,0.171875 L 3.078125,-1.1875 z m 0,0"
               id="path8839" />
          </symbol>
          <symbol
             style="overflow:visible"
             overflow="visible"
             id="textext-ac7761a7-2">
            <path
               style="stroke:none"
               d=""
               id="path8842" />
          </symbol>
          <symbol
             style="overflow:visible"
             overflow="visible"
             id="textext-ac7761a7-3">
            <path
               style="stroke:none"
               d="m 2.328125,-4.4375 c 0,-0.1875 0,-0.1875 -0.203125,-0.1875 -0.453125,0.4375 -1.078125,0.4375 -1.359375,0.4375 l 0,0.25 c 0.15625,0 0.625,0 1,-0.1875 l 0,3.546875 c 0,0.234375 0,0.328125 -0.6875,0.328125 l -0.265625,0 0,0.25 c 0.125,0 0.984375,-0.03125 1.234375,-0.03125 0.21875,0 1.09375,0.03125 1.25,0.03125 l 0,-0.25 -0.265625,0 c -0.703125,0 -0.703125,-0.09375 -0.703125,-0.328125 l 0,-3.859375 z m 0,0"
               id="path8845" />
          </symbol>
          <symbol
             style="overflow:visible"
             overflow="visible"
             id="textext-ac7761a7-4">
            <path
               style="stroke:none"
               d="m 3.515625,-1.265625 -0.234375,0 c -0.015625,0.15625 -0.09375,0.5625 -0.1875,0.625 -0.046875,0.046875 -0.578125,0.046875 -0.6875,0.046875 l -1.28125,0 c 0.734375,-0.640625 0.984375,-0.84375 1.390625,-1.171875 0.515625,-0.40625 1,-0.84375 1,-1.5 0,-0.84375 -0.734375,-1.359375 -1.625,-1.359375 -0.859375,0 -1.453125,0.609375 -1.453125,1.25 0,0.34375 0.296875,0.390625 0.375,0.390625 0.15625,0 0.359375,-0.125 0.359375,-0.375 0,-0.125 -0.046875,-0.375 -0.40625,-0.375 C 0.984375,-4.21875 1.453125,-4.375 1.78125,-4.375 c 0.703125,0 1.0625,0.546875 1.0625,1.109375 0,0.609375 -0.4375,1.078125 -0.65625,1.328125 L 0.515625,-0.265625 C 0.4375,-0.203125 0.4375,-0.1875 0.4375,0 l 2.875,0 0.203125,-1.265625 z m 0,0"
               id="path8848" />
          </symbol>
          <symbol
             style="overflow:visible"
             overflow="visible"
             id="textext-ac7761a7-5">
            <path
               style="stroke:none"
               d="m 1.90625,-2.328125 c 0.546875,0 0.9375,0.375 0.9375,1.125 0,0.859375 -0.515625,1.125 -0.90625,1.125 -0.28125,0 -0.90625,-0.078125 -1.1875,-0.5 0.328125,0 0.40625,-0.234375 0.40625,-0.390625 0,-0.21875 -0.171875,-0.375 -0.390625,-0.375 -0.1875,0 -0.390625,0.125 -0.390625,0.40625 0,0.65625 0.71875,1.078125 1.5625,1.078125 0.96875,0 1.640625,-0.65625 1.640625,-1.34375 0,-0.546875 -0.4375,-1.09375 -1.203125,-1.25 0.71875,-0.265625 0.984375,-0.78125 0.984375,-1.21875 0,-0.546875 -0.625,-0.953125 -1.40625,-0.953125 -0.765625,0 -1.359375,0.375 -1.359375,0.9375 0,0.234375 0.15625,0.359375 0.359375,0.359375 0.21875,0 0.359375,-0.15625 0.359375,-0.34375 0,-0.203125 -0.140625,-0.359375 -0.359375,-0.375 0.25,-0.296875 0.71875,-0.375 0.984375,-0.375 0.3125,0 0.75,0.15625 0.75,0.75 0,0.296875 -0.09375,0.625 -0.28125,0.828125 -0.21875,0.265625 -0.421875,0.28125 -0.765625,0.3125 -0.171875,0.015625 -0.1875,0.015625 -0.21875,0.015625 -0.015625,0 -0.078125,0.015625 -0.078125,0.09375 0,0.09375 0.0625,0.09375 0.1875,0.09375 l 0.375,0 z m 0,0"
               id="path8851" />
          </symbol>
        </g>
      </defs>
      <g
         id="textext-ac7761a7-6">
        <g
           style="fill:#000000;fill-opacity:1"
           id="g8854">
          <use
             height="212.59842"
             width="248.03149"
             xlink:href="#textext-ac7761a7-1"
             x="223.43201"
             y="134.765"
             id="use8856" />
        </g>
        <g
           style="fill:#000000;fill-opacity:1"
           id="g8858">
          <use
             height="212.59842"
             width="248.03149"
             xlink:href="#textext-ac7761a7-3"
             x="228.698"
             y="136.259"
             id="use8860" />
          <use
             height="212.59842"
             width="248.03149"
             xlink:href="#textext-ac7761a7-4"
             x="232.66959"
             y="136.259"
             id="use8862" />
          <use
             height="212.59842"
             width="248.03149"
             xlink:href="#textext-ac7761a7-5"
             x="236.64116"
             y="136.259"
             id="use8864" />
        </g>
      </g>
    </g>
    <g
       id="g9082"
       transform="matrix(1.2,0,0,1.2,-118.17009,830.16009)"
       ns0:preamble=""
       ns0:text="$K$">
      <defs
         id="defs9084">
        <g
           id="g9086">
          <symbol
             id="textext-54abf235-0"
             overflow="visible"
             style="overflow:visible">
            <path
               id="path9089"
               d=""
               style="stroke:none" />
          </symbol>
          <symbol
             id="textext-54abf235-1"
             overflow="visible"
             style="overflow:visible">
            <path
               id="path9092"
               d="M 5.078125,-4.03125 C 5.0625,-4.0625 5.03125,-4.140625 5.03125,-4.171875 c 0,0 0.171875,-0.140625 0.28125,-0.21875 l 1.75,-1.34375 C 8,-6.4375 8.390625,-6.46875 8.6875,-6.5 8.765625,-6.515625 8.859375,-6.515625 8.859375,-6.703125 8.859375,-6.734375 8.828125,-6.8125 8.75,-6.8125 c -0.21875,0 -0.46875,0.03125 -0.703125,0.03125 -0.359375,0 -0.75,-0.03125 -1.109375,-0.03125 -0.0625,0 -0.1875,0 -0.1875,0.203125 0,0.0625 0.046875,0.09375 0.125,0.109375 0.21875,0.015625 0.296875,0.0625 0.296875,0.203125 0,0.1875 -0.296875,0.421875 -0.359375,0.46875 L 2.9375,-2.84375 3.734375,-6.046875 C 3.8125,-6.40625 3.84375,-6.5 4.5625,-6.5 c 0.25,0 0.34375,0 0.34375,-0.203125 0,-0.078125 -0.078125,-0.109375 -0.140625,-0.109375 -0.28125,0 -1,0.03125 -1.28125,0.03125 C 3.203125,-6.78125 2.5,-6.8125 2.203125,-6.8125 2.140625,-6.8125 2,-6.8125 2,-6.625 2,-6.5 2.09375,-6.5 2.296875,-6.5 c 0.125,0 0.3125,0.015625 0.421875,0.015625 0.15625,0.03125 0.21875,0.046875 0.21875,0.171875 0,0.03125 0,0.0625 -0.03125,0.1875 L 1.5625,-0.78125 c -0.09375,0.390625 -0.109375,0.46875 -0.90625,0.46875 -0.171875,0 -0.28125,0 -0.28125,0.1875 C 0.375,0 0.5,0 0.53125,0 0.8125,0 1.515625,-0.03125 1.796875,-0.03125 2,-0.03125 2.21875,-0.015625 2.4375,-0.015625 2.65625,-0.015625 2.875,0 3.078125,0 3.15625,0 3.28125,0 3.28125,-0.203125 3.28125,-0.3125 3.1875,-0.3125 3,-0.3125 c -0.375,0 -0.640625,0 -0.640625,-0.171875 0,-0.078125 0.046875,-0.296875 0.078125,-0.4375 C 2.578125,-1.453125 2.71875,-1.96875 2.84375,-2.5 l 1.484375,-1.15625 c 0.25,0.609375 0.90625,2.09375 1.15625,2.6875 0.125,0.265625 0.125,0.296875 0.125,0.34375 0,0.3125 -0.4375,0.3125 -0.53125,0.3125 -0.109375,0 -0.21875,0 -0.21875,0.203125 C 4.859375,0 4.984375,0 5,0 5.40625,0 5.828125,-0.03125 6.21875,-0.03125 6.4375,-0.03125 6.984375,0 7.203125,0 7.25,0 7.375,0 7.375,-0.203125 7.375,-0.3125 7.265625,-0.3125 7.171875,-0.3125 c -0.40625,0 -0.53125,-0.09375 -0.6875,-0.4375 l -1.40625,-3.28125 z m 0,0"
               style="stroke:none" />
          </symbol>
        </g>
      </defs>
      <g
         id="textext-54abf235-2">
        <g
           id="g9095"
           style="fill:#000000;fill-opacity:1">
          <use
             id="use9097"
             y="134.765"
             x="223.43201"
             xlink:href="#textext-54abf235-1"
             width="248.03149"
             height="212.59842" />
        </g>
      </g>
    </g>
  </g>
</svg>
