<?xml version="1.0" encoding="UTF-8" standalone="no"?>
<!-- Created with Inkscape (http://www.inkscape.org/) -->

<svg
   xmlns:ns0="http://www.iki.fi/pav/software/textext/"
   xmlns:dc="http://purl.org/dc/elements/1.1/"
   xmlns:cc="http://creativecommons.org/ns#"
   xmlns:rdf="http://www.w3.org/1999/02/22-rdf-syntax-ns#"
   xmlns:svg="http://www.w3.org/2000/svg"
   xmlns="http://www.w3.org/2000/svg"
   xmlns:xlink="http://www.w3.org/1999/xlink"
   xmlns:sodipodi="http://sodipodi.sourceforge.net/DTD/sodipodi-0.dtd"
   xmlns:inkscape="http://www.inkscape.org/namespaces/inkscape"
   width="283.46457"
   height="212.59842"
   id="svg10950"
   version="1.1"
   inkscape:version="0.47pre4 r22446"
   sodipodi:docname="New document 17">
  <sodipodi:namedview
     id="base"
     pagecolor="#ffffff"
     bordercolor="#666666"
     borderopacity="1.0"
     inkscape:pageopacity="0.0"
     inkscape:pageshadow="2"
     inkscape:zoom="1.979899"
     inkscape:cx="71.506735"
     inkscape:cy="99.422642"
     inkscape:document-units="px"
     inkscape:current-layer="layer1"
     showgrid="false"
     units="cm"
     inkscape:window-width="1024"
     inkscape:window-height="685"
     inkscape:window-x="0"
     inkscape:window-y="30"
     inkscape:window-maximized="1">
    <inkscape:grid
       type="xygrid"
       id="grid10960"
       empspacing="5"
       visible="true"
       enabled="true"
       snapvisiblegridlinesonly="true" />
  </sodipodi:namedview>
  <defs
     id="defs10952">
    <marker
       inkscape:stockid="Arrow1Mend"
       orient="auto"
       refY="0.0"
       refX="0.0"
       id="Arrow1Mend"
       style="overflow:visible;">
      <path
         id="path7341"
         d="M 0.0,0.0 L 5.0,-5.0 L -12.5,0.0 L 5.0,5.0 L 0.0,0.0 z "
         style="fill-rule:evenodd;stroke:#000000;stroke-width:1.0pt;marker-start:none;"
         transform="scale(0.4) rotate(180) translate(10,0)" />
    </marker>
    <inkscape:perspective
       sodipodi:type="inkscape:persp3d"
       inkscape:vp_x="0 : 526.18109 : 1"
       inkscape:vp_y="0 : 1000 : 0"
       inkscape:vp_z="744.09448 : 526.18109 : 1"
       inkscape:persp3d-origin="372.04724 : 350.78739 : 1"
       id="perspective10958" />
  </defs>
  <metadata
     id="metadata10955">
    <rdf:RDF>
      <cc:Work
         rdf:about="">
        <dc:format>image/svg+xml</dc:format>
        <dc:type
           rdf:resource="http://purl.org/dc/dcmitype/StillImage" />
        <dc:title></dc:title>
      </cc:Work>
    </rdf:RDF>
  </metadata>
  <g
     inkscape:label="Layer 1"
     inkscape:groupmode="layer"
     id="layer1"
     transform="translate(0,-839.76245)">
    <path
       style="fill:none;stroke:#000000;stroke-width:1.25000000000000000;stroke-linecap:butt;stroke-linejoin:miter;stroke-miterlimit:4;stroke-opacity:1;stroke-dasharray:none;marker-mid:none;marker-start:none"
       d="M 17.5,1005.5752 125,862.36087 212.40013,978.79762 232.5,1005.5752 l -215,0 z"
       id="path10962"
       sodipodi:nodetypes="ccccc" />
    <path
       style="fill:none;stroke:#000000;stroke-width:1.25;stroke-linecap:butt;stroke-linejoin:miter;stroke-miterlimit:4;stroke-opacity:1;stroke-dasharray:none;marker-end:url(#Arrow1Mend)"
       d="m 155.71429,959.86087 63.95395,-58.12763"
       id="path12028"
       sodipodi:nodetypes="cc" />
    <path
       id="path12214"
       d="m 205.54238,969.69572 8.86785,11.66987"
       style="fill:none;stroke:#000000;stroke-width:1.25;stroke-linecap:butt;stroke-linejoin:miter;stroke-miterlimit:4;stroke-opacity:1;stroke-dasharray:none;marker-end:url(#Arrow1Mend)"
       sodipodi:nodetypes="cc"
       inkscape:transform-center-x="36.071429"
       inkscape:transform-center-y="2.5" />
    <g
       transform="matrix(1.2,0,0,1.2,-148.49242,692.45957)"
       ns0:text="$a_{1}$"
       ns0:preamble=""
       id="g12228">
      <defs
         id="defs12230">
        <g
           id="g12232">
          <symbol
             style="overflow:visible"
             overflow="visible"
             id="textext-b05080f8-0">
            <path
               style="stroke:none"
               d=""
               id="path12235" />
          </symbol>
          <symbol
             style="overflow:visible"
             overflow="visible"
             id="textext-b05080f8-1">
            <path
               style="stroke:none"
               d="M 3.71875,-3.765625 C 3.53125,-4.140625 3.25,-4.40625 2.796875,-4.40625 c -1.15625,0 -2.390625,1.46875 -2.390625,2.921875 0,0.9375 0.546875,1.59375 1.3125,1.59375 0.203125,0 0.703125,-0.046875 1.296875,-0.75 0.078125,0.421875 0.4375,0.75 0.90625,0.75 0.359375,0 0.578125,-0.234375 0.75,-0.546875 0.15625,-0.359375 0.296875,-0.96875 0.296875,-0.984375 0,-0.109375 -0.09375,-0.109375 -0.125,-0.109375 -0.09375,0 -0.109375,0.046875 -0.140625,0.1875 -0.171875,0.640625 -0.34375,1.234375 -0.75,1.234375 -0.28125,0 -0.296875,-0.265625 -0.296875,-0.453125 0,-0.21875 0.015625,-0.3125 0.125,-0.75 C 3.890625,-1.71875 3.90625,-1.828125 4,-2.203125 4.171875,-2.84375 4.203125,-3.03125 4.359375,-3.59375 c 0.0625,-0.28125 0.0625,-0.296875 0.0625,-0.34375 0,-0.171875 -0.109375,-0.265625 -0.28125,-0.265625 -0.25,0 -0.390625,0.21875 -0.421875,0.4375 z M 3.078125,-1.1875 C 3.015625,-1 3.015625,-0.984375 2.875,-0.8125 2.4375,-0.265625 2.03125,-0.109375 1.75,-0.109375 c -0.5,0 -0.640625,-0.546875 -0.640625,-0.9375 0,-0.5 0.3125,-1.71875 0.546875,-2.1875 0.3125,-0.578125 0.75,-0.953125 1.15625,-0.953125 0.640625,0 0.78125,0.8125 0.78125,0.875 0,0.0625 -0.015625,0.125 -0.03125,0.171875 L 3.078125,-1.1875 z m 0,0"
               id="path12238" />
          </symbol>
          <symbol
             style="overflow:visible"
             overflow="visible"
             id="textext-b05080f8-2">
            <path
               style="stroke:none"
               d=""
               id="path12241" />
          </symbol>
          <symbol
             style="overflow:visible"
             overflow="visible"
             id="textext-b05080f8-3">
            <path
               style="stroke:none"
               d="m 2.328125,-4.4375 c 0,-0.1875 0,-0.1875 -0.203125,-0.1875 -0.453125,0.4375 -1.078125,0.4375 -1.359375,0.4375 l 0,0.25 c 0.15625,0 0.625,0 1,-0.1875 l 0,3.546875 c 0,0.234375 0,0.328125 -0.6875,0.328125 l -0.265625,0 0,0.25 c 0.125,0 0.984375,-0.03125 1.234375,-0.03125 0.21875,0 1.09375,0.03125 1.25,0.03125 l 0,-0.25 -0.265625,0 c -0.703125,0 -0.703125,-0.09375 -0.703125,-0.328125 l 0,-3.859375 z m 0,0"
               id="path12244" />
          </symbol>
        </g>
      </defs>
      <g
         id="textext-b05080f8-4">
        <g
           style="fill:#000000;fill-opacity:1"
           id="g12247">
          <use
             height="212.59842"
             width="283.46457"
             xlink:href="#textext-b05080f8-1"
             x="223.43201"
             y="134.765"
             id="use12249" />
        </g>
        <g
           style="fill:#000000;fill-opacity:1"
           id="g12251">
          <use
             height="212.59842"
             width="283.46457"
             xlink:href="#textext-b05080f8-3"
             x="228.698"
             y="136.259"
             id="use12253" />
        </g>
      </g>
    </g>
    <g
       id="g12341"
       transform="matrix(1.2,0,0,1.2,-34.345182,853.53574)"
       ns0:preamble=""
       ns0:text="$a_{2}$">
      <defs
         id="defs12343">
        <g
           id="g12345">
          <symbol
             id="textext-8c4695c0-0"
             overflow="visible"
             style="overflow:visible">
            <path
               id="path12348"
               d=""
               style="stroke:none" />
          </symbol>
          <symbol
             id="textext-8c4695c0-1"
             overflow="visible"
             style="overflow:visible">
            <path
               id="path12351"
               d="M 3.71875,-3.765625 C 3.53125,-4.140625 3.25,-4.40625 2.796875,-4.40625 c -1.15625,0 -2.390625,1.46875 -2.390625,2.921875 0,0.9375 0.546875,1.59375 1.3125,1.59375 0.203125,0 0.703125,-0.046875 1.296875,-0.75 0.078125,0.421875 0.4375,0.75 0.90625,0.75 0.359375,0 0.578125,-0.234375 0.75,-0.546875 0.15625,-0.359375 0.296875,-0.96875 0.296875,-0.984375 0,-0.109375 -0.09375,-0.109375 -0.125,-0.109375 -0.09375,0 -0.109375,0.046875 -0.140625,0.1875 -0.171875,0.640625 -0.34375,1.234375 -0.75,1.234375 -0.28125,0 -0.296875,-0.265625 -0.296875,-0.453125 0,-0.21875 0.015625,-0.3125 0.125,-0.75 C 3.890625,-1.71875 3.90625,-1.828125 4,-2.203125 4.171875,-2.84375 4.203125,-3.03125 4.359375,-3.59375 c 0.0625,-0.28125 0.0625,-0.296875 0.0625,-0.34375 0,-0.171875 -0.109375,-0.265625 -0.28125,-0.265625 -0.25,0 -0.390625,0.21875 -0.421875,0.4375 z M 3.078125,-1.1875 C 3.015625,-1 3.015625,-0.984375 2.875,-0.8125 2.4375,-0.265625 2.03125,-0.109375 1.75,-0.109375 c -0.5,0 -0.640625,-0.546875 -0.640625,-0.9375 0,-0.5 0.3125,-1.71875 0.546875,-2.1875 0.3125,-0.578125 0.75,-0.953125 1.15625,-0.953125 0.640625,0 0.78125,0.8125 0.78125,0.875 0,0.0625 -0.015625,0.125 -0.03125,0.171875 L 3.078125,-1.1875 z m 0,0"
               style="stroke:none" />
          </symbol>
          <symbol
             id="textext-8c4695c0-2"
             overflow="visible"
             style="overflow:visible">
            <path
               id="path12354"
               d=""
               style="stroke:none" />
          </symbol>
          <symbol
             id="textext-8c4695c0-3"
             overflow="visible"
             style="overflow:visible">
            <path
               id="path12357"
               d="m 3.515625,-1.265625 -0.234375,0 c -0.015625,0.15625 -0.09375,0.5625 -0.1875,0.625 -0.046875,0.046875 -0.578125,0.046875 -0.6875,0.046875 l -1.28125,0 c 0.734375,-0.640625 0.984375,-0.84375 1.390625,-1.171875 0.515625,-0.40625 1,-0.84375 1,-1.5 0,-0.84375 -0.734375,-1.359375 -1.625,-1.359375 -0.859375,0 -1.453125,0.609375 -1.453125,1.25 0,0.34375 0.296875,0.390625 0.375,0.390625 0.15625,0 0.359375,-0.125 0.359375,-0.375 0,-0.125 -0.046875,-0.375 -0.40625,-0.375 C 0.984375,-4.21875 1.453125,-4.375 1.78125,-4.375 c 0.703125,0 1.0625,0.546875 1.0625,1.109375 0,0.609375 -0.4375,1.078125 -0.65625,1.328125 L 0.515625,-0.265625 C 0.4375,-0.203125 0.4375,-0.1875 0.4375,0 l 2.875,0 0.203125,-1.265625 z m 0,0"
               style="stroke:none" />
          </symbol>
        </g>
      </defs>
      <g
         id="textext-8c4695c0-4">
        <g
           id="g12360"
           style="fill:#000000;fill-opacity:1">
          <use
             id="use12362"
             y="134.765"
             x="223.43201"
             xlink:href="#textext-8c4695c0-1"
             width="283.46457"
             height="212.59842" />
        </g>
        <g
           id="g12364"
           style="fill:#000000;fill-opacity:1">
          <use
             id="use12366"
             y="136.259"
             x="228.698"
             xlink:href="#textext-8c4695c0-3"
             width="283.46457"
             height="212.59842" />
        </g>
      </g>
    </g>
    <g
       ns0:text="$a_{3}$"
       ns0:preamble=""
       transform="matrix(1.2,0,0,1.2,-259.37564,854.04082)"
       id="g12486">
      <defs
         id="defs12488">
        <g
           id="g12490">
          <symbol
             style="overflow:visible"
             overflow="visible"
             id="textext-1dd77ede-0">
            <path
               style="stroke:none"
               d=""
               id="path12493" />
          </symbol>
          <symbol
             style="overflow:visible"
             overflow="visible"
             id="textext-1dd77ede-1">
            <path
               style="stroke:none"
               d="M 3.71875,-3.765625 C 3.53125,-4.140625 3.25,-4.40625 2.796875,-4.40625 c -1.15625,0 -2.390625,1.46875 -2.390625,2.921875 0,0.9375 0.546875,1.59375 1.3125,1.59375 0.203125,0 0.703125,-0.046875 1.296875,-0.75 0.078125,0.421875 0.4375,0.75 0.90625,0.75 0.359375,0 0.578125,-0.234375 0.75,-0.546875 0.15625,-0.359375 0.296875,-0.96875 0.296875,-0.984375 0,-0.109375 -0.09375,-0.109375 -0.125,-0.109375 -0.09375,0 -0.109375,0.046875 -0.140625,0.1875 -0.171875,0.640625 -0.34375,1.234375 -0.75,1.234375 -0.28125,0 -0.296875,-0.265625 -0.296875,-0.453125 0,-0.21875 0.015625,-0.3125 0.125,-0.75 C 3.890625,-1.71875 3.90625,-1.828125 4,-2.203125 4.171875,-2.84375 4.203125,-3.03125 4.359375,-3.59375 c 0.0625,-0.28125 0.0625,-0.296875 0.0625,-0.34375 0,-0.171875 -0.109375,-0.265625 -0.28125,-0.265625 -0.25,0 -0.390625,0.21875 -0.421875,0.4375 z M 3.078125,-1.1875 C 3.015625,-1 3.015625,-0.984375 2.875,-0.8125 2.4375,-0.265625 2.03125,-0.109375 1.75,-0.109375 c -0.5,0 -0.640625,-0.546875 -0.640625,-0.9375 0,-0.5 0.3125,-1.71875 0.546875,-2.1875 0.3125,-0.578125 0.75,-0.953125 1.15625,-0.953125 0.640625,0 0.78125,0.8125 0.78125,0.875 0,0.0625 -0.015625,0.125 -0.03125,0.171875 L 3.078125,-1.1875 z m 0,0"
               id="path12496" />
          </symbol>
          <symbol
             style="overflow:visible"
             overflow="visible"
             id="textext-1dd77ede-2">
            <path
               style="stroke:none"
               d=""
               id="path12499" />
          </symbol>
          <symbol
             style="overflow:visible"
             overflow="visible"
             id="textext-1dd77ede-3">
            <path
               style="stroke:none"
               d="m 1.90625,-2.328125 c 0.546875,0 0.9375,0.375 0.9375,1.125 0,0.859375 -0.515625,1.125 -0.90625,1.125 -0.28125,0 -0.90625,-0.078125 -1.1875,-0.5 0.328125,0 0.40625,-0.234375 0.40625,-0.390625 0,-0.21875 -0.171875,-0.375 -0.390625,-0.375 -0.1875,0 -0.390625,0.125 -0.390625,0.40625 0,0.65625 0.71875,1.078125 1.5625,1.078125 0.96875,0 1.640625,-0.65625 1.640625,-1.34375 0,-0.546875 -0.4375,-1.09375 -1.203125,-1.25 0.71875,-0.265625 0.984375,-0.78125 0.984375,-1.21875 0,-0.546875 -0.625,-0.953125 -1.40625,-0.953125 -0.765625,0 -1.359375,0.375 -1.359375,0.9375 0,0.234375 0.15625,0.359375 0.359375,0.359375 0.21875,0 0.359375,-0.15625 0.359375,-0.34375 0,-0.203125 -0.140625,-0.359375 -0.359375,-0.375 0.25,-0.296875 0.71875,-0.375 0.984375,-0.375 0.3125,0 0.75,0.15625 0.75,0.75 0,0.296875 -0.09375,0.625 -0.28125,0.828125 -0.21875,0.265625 -0.421875,0.28125 -0.765625,0.3125 -0.171875,0.015625 -0.1875,0.015625 -0.21875,0.015625 -0.015625,0 -0.078125,0.015625 -0.078125,0.09375 0,0.09375 0.0625,0.09375 0.1875,0.09375 l 0.375,0 z m 0,0"
               id="path12502" />
          </symbol>
        </g>
      </defs>
      <g
         id="textext-1dd77ede-4">
        <g
           style="fill:#000000;fill-opacity:1"
           id="g12505">
          <use
             height="212.59842"
             width="283.46457"
             xlink:href="#textext-1dd77ede-1"
             x="223.43201"
             y="134.765"
             id="use12507" />
        </g>
        <g
           style="fill:#000000;fill-opacity:1"
           id="g12509">
          <use
             height="212.59842"
             width="283.46457"
             xlink:href="#textext-1dd77ede-3"
             x="228.698"
             y="136.259"
             id="use12511" />
        </g>
      </g>
    </g>
    <g
       id="g12663"
       transform="matrix(1.2,0,0,1.2,-92.428953,804.34029)"
       ns0:preamble=""
       ns0:text="$a_{12}$">
      <defs
         id="defs12665">
        <g
           id="g12667">
          <symbol
             id="textext-434a424f-0"
             overflow="visible"
             style="overflow:visible">
            <path
               id="path12670"
               d=""
               style="stroke:none" />
          </symbol>
          <symbol
             id="textext-434a424f-1"
             overflow="visible"
             style="overflow:visible">
            <path
               id="path12673"
               d="M 3.71875,-3.765625 C 3.53125,-4.140625 3.25,-4.40625 2.796875,-4.40625 c -1.15625,0 -2.390625,1.46875 -2.390625,2.921875 0,0.9375 0.546875,1.59375 1.3125,1.59375 0.203125,0 0.703125,-0.046875 1.296875,-0.75 0.078125,0.421875 0.4375,0.75 0.90625,0.75 0.359375,0 0.578125,-0.234375 0.75,-0.546875 0.15625,-0.359375 0.296875,-0.96875 0.296875,-0.984375 0,-0.109375 -0.09375,-0.109375 -0.125,-0.109375 -0.09375,0 -0.109375,0.046875 -0.140625,0.1875 -0.171875,0.640625 -0.34375,1.234375 -0.75,1.234375 -0.28125,0 -0.296875,-0.265625 -0.296875,-0.453125 0,-0.21875 0.015625,-0.3125 0.125,-0.75 C 3.890625,-1.71875 3.90625,-1.828125 4,-2.203125 4.171875,-2.84375 4.203125,-3.03125 4.359375,-3.59375 c 0.0625,-0.28125 0.0625,-0.296875 0.0625,-0.34375 0,-0.171875 -0.109375,-0.265625 -0.28125,-0.265625 -0.25,0 -0.390625,0.21875 -0.421875,0.4375 z M 3.078125,-1.1875 C 3.015625,-1 3.015625,-0.984375 2.875,-0.8125 2.4375,-0.265625 2.03125,-0.109375 1.75,-0.109375 c -0.5,0 -0.640625,-0.546875 -0.640625,-0.9375 0,-0.5 0.3125,-1.71875 0.546875,-2.1875 0.3125,-0.578125 0.75,-0.953125 1.15625,-0.953125 0.640625,0 0.78125,0.8125 0.78125,0.875 0,0.0625 -0.015625,0.125 -0.03125,0.171875 L 3.078125,-1.1875 z m 0,0"
               style="stroke:none" />
          </symbol>
          <symbol
             id="textext-434a424f-2"
             overflow="visible"
             style="overflow:visible">
            <path
               id="path12676"
               d=""
               style="stroke:none" />
          </symbol>
          <symbol
             id="textext-434a424f-3"
             overflow="visible"
             style="overflow:visible">
            <path
               id="path12679"
               d="m 2.328125,-4.4375 c 0,-0.1875 0,-0.1875 -0.203125,-0.1875 -0.453125,0.4375 -1.078125,0.4375 -1.359375,0.4375 l 0,0.25 c 0.15625,0 0.625,0 1,-0.1875 l 0,3.546875 c 0,0.234375 0,0.328125 -0.6875,0.328125 l -0.265625,0 0,0.25 c 0.125,0 0.984375,-0.03125 1.234375,-0.03125 0.21875,0 1.09375,0.03125 1.25,0.03125 l 0,-0.25 -0.265625,0 c -0.703125,0 -0.703125,-0.09375 -0.703125,-0.328125 l 0,-3.859375 z m 0,0"
               style="stroke:none" />
          </symbol>
          <symbol
             id="textext-434a424f-4"
             overflow="visible"
             style="overflow:visible">
            <path
               id="path12682"
               d="m 3.515625,-1.265625 -0.234375,0 c -0.015625,0.15625 -0.09375,0.5625 -0.1875,0.625 -0.046875,0.046875 -0.578125,0.046875 -0.6875,0.046875 l -1.28125,0 c 0.734375,-0.640625 0.984375,-0.84375 1.390625,-1.171875 0.515625,-0.40625 1,-0.84375 1,-1.5 0,-0.84375 -0.734375,-1.359375 -1.625,-1.359375 -0.859375,0 -1.453125,0.609375 -1.453125,1.25 0,0.34375 0.296875,0.390625 0.375,0.390625 0.15625,0 0.359375,-0.125 0.359375,-0.375 0,-0.125 -0.046875,-0.375 -0.40625,-0.375 C 0.984375,-4.21875 1.453125,-4.375 1.78125,-4.375 c 0.703125,0 1.0625,0.546875 1.0625,1.109375 0,0.609375 -0.4375,1.078125 -0.65625,1.328125 L 0.515625,-0.265625 C 0.4375,-0.203125 0.4375,-0.1875 0.4375,0 l 2.875,0 0.203125,-1.265625 z m 0,0"
               style="stroke:none" />
          </symbol>
        </g>
      </defs>
      <g
         id="textext-434a424f-5">
        <g
           id="g12685"
           style="fill:#000000;fill-opacity:1">
          <use
             id="use12687"
             y="134.765"
             x="223.43201"
             xlink:href="#textext-434a424f-1"
             width="283.46457"
             height="212.59842" />
        </g>
        <g
           id="g12689"
           style="fill:#000000;fill-opacity:1">
          <use
             id="use12691"
             y="136.259"
             x="228.698"
             xlink:href="#textext-434a424f-3"
             width="283.46457"
             height="212.59842" />
          <use
             id="use12693"
             y="136.259"
             x="232.66959"
             xlink:href="#textext-434a424f-4"
             width="283.46457"
             height="212.59842" />
        </g>
      </g>
    </g>
    <g
       ns0:text="$\\lambda_{3}$"
       ns0:preamble=""
       transform="matrix(1.2,0,0,1.2,-44.446707,742.07377)"
       id="g12889">
      <defs
         id="defs12891">
        <g
           id="g12893">
          <symbol
             style="overflow:visible"
             overflow="visible"
             id="textext-43165b94-0">
            <path
               style="stroke:none"
               d=""
               id="path12896" />
          </symbol>
          <symbol
             style="overflow:visible"
             overflow="visible"
             id="textext-43165b94-1">
            <path
               style="stroke:none"
               d="m 3.5625,-2.90625 c 0.40625,1.046875 0.890625,2.5625 1.046875,2.796875 0.15625,0.21875 0.25,0.21875 0.53125,0.21875 l 0.21875,0 c 0.09375,-0.015625 0.109375,-0.0625 0.109375,-0.09375 0,-0.03125 -0.03125,-0.0625 -0.0625,-0.09375 C 5.3125,-0.1875 5.25,-0.34375 5.1875,-0.53125 L 3.15625,-6.203125 c -0.21875,-0.578125 -0.75,-0.71875 -1.21875,-0.71875 -0.046875,0 -0.1875,0 -0.1875,0.109375 0,0.078125 0.078125,0.109375 0.09375,0.109375 C 2.171875,-6.65625 2.25,-6.59375 2.5,-5.90625 c 0.25,0.71875 0.796875,2.234375 0.953125,2.703125 l -2.75,2.734375 c -0.109375,0.125 -0.171875,0.171875 -0.171875,0.3125 0,0.171875 0.140625,0.28125 0.296875,0.28125 0.15625,0 0.25,-0.109375 0.328125,-0.203125 L 3.5625,-2.90625 z m 0,0"
               id="path12899" />
          </symbol>
          <symbol
             style="overflow:visible"
             overflow="visible"
             id="textext-43165b94-2">
            <path
               style="stroke:none"
               d=""
               id="path12902" />
          </symbol>
          <symbol
             style="overflow:visible"
             overflow="visible"
             id="textext-43165b94-3">
            <path
               style="stroke:none"
               d="m 1.90625,-2.328125 c 0.546875,0 0.9375,0.375 0.9375,1.125 0,0.859375 -0.515625,1.125 -0.90625,1.125 -0.28125,0 -0.90625,-0.078125 -1.1875,-0.5 0.328125,0 0.40625,-0.234375 0.40625,-0.390625 0,-0.21875 -0.171875,-0.375 -0.390625,-0.375 -0.1875,0 -0.390625,0.125 -0.390625,0.40625 0,0.65625 0.71875,1.078125 1.5625,1.078125 0.96875,0 1.640625,-0.65625 1.640625,-1.34375 0,-0.546875 -0.4375,-1.09375 -1.203125,-1.25 0.71875,-0.265625 0.984375,-0.78125 0.984375,-1.21875 0,-0.546875 -0.625,-0.953125 -1.40625,-0.953125 -0.765625,0 -1.359375,0.375 -1.359375,0.9375 0,0.234375 0.15625,0.359375 0.359375,0.359375 0.21875,0 0.359375,-0.15625 0.359375,-0.34375 0,-0.203125 -0.140625,-0.359375 -0.359375,-0.375 0.25,-0.296875 0.71875,-0.375 0.984375,-0.375 0.3125,0 0.75,0.15625 0.75,0.75 0,0.296875 -0.09375,0.625 -0.28125,0.828125 -0.21875,0.265625 -0.421875,0.28125 -0.765625,0.3125 -0.171875,0.015625 -0.1875,0.015625 -0.21875,0.015625 -0.015625,0 -0.078125,0.015625 -0.078125,0.09375 0,0.09375 0.0625,0.09375 0.1875,0.09375 l 0.375,0 z m 0,0"
               id="path12905" />
          </symbol>
        </g>
      </defs>
      <g
         id="textext-43165b94-4">
        <g
           style="fill:#000000;fill-opacity:1"
           id="g12908">
          <use
             height="212.59842"
             width="283.46457"
             xlink:href="#textext-43165b94-1"
             x="223.43201"
             y="134.765"
             id="use12910" />
        </g>
        <g
           style="fill:#000000;fill-opacity:1"
           id="g12912">
          <use
             height="212.59842"
             width="283.46457"
             xlink:href="#textext-43165b94-3"
             x="229.244"
             y="136.259"
             id="use12914" />
        </g>
      </g>
    </g>
    <g
       id="g13136"
       transform="matrix(1.2,0,0,1.2,-152.53303,755.99255)"
       ns0:preamble=""
       ns0:text="$\\lambda_{3}=0$">
      <defs
         id="defs13138">
        <g
           id="g13140">
          <symbol
             id="textext-7b3e8567-0"
             overflow="visible"
             style="overflow:visible">
            <path
               id="path13143"
               d=""
               style="stroke:none" />
          </symbol>
          <symbol
             id="textext-7b3e8567-1"
             overflow="visible"
             style="overflow:visible">
            <path
               id="path13146"
               d="m 3.5625,-2.90625 c 0.40625,1.046875 0.890625,2.5625 1.046875,2.796875 0.15625,0.21875 0.25,0.21875 0.53125,0.21875 l 0.21875,0 c 0.09375,-0.015625 0.109375,-0.0625 0.109375,-0.09375 0,-0.03125 -0.03125,-0.0625 -0.0625,-0.09375 C 5.3125,-0.1875 5.25,-0.34375 5.1875,-0.53125 L 3.15625,-6.203125 c -0.21875,-0.578125 -0.75,-0.71875 -1.21875,-0.71875 -0.046875,0 -0.1875,0 -0.1875,0.109375 0,0.078125 0.078125,0.109375 0.09375,0.109375 C 2.171875,-6.65625 2.25,-6.59375 2.5,-5.90625 c 0.25,0.71875 0.796875,2.234375 0.953125,2.703125 l -2.75,2.734375 c -0.109375,0.125 -0.171875,0.171875 -0.171875,0.3125 0,0.171875 0.140625,0.28125 0.296875,0.28125 0.15625,0 0.25,-0.109375 0.328125,-0.203125 L 3.5625,-2.90625 z m 0,0"
               style="stroke:none" />
          </symbol>
          <symbol
             id="textext-7b3e8567-2"
             overflow="visible"
             style="overflow:visible">
            <path
               id="path13149"
               d=""
               style="stroke:none" />
          </symbol>
          <symbol
             id="textext-7b3e8567-3"
             overflow="visible"
             style="overflow:visible">
            <path
               id="path13152"
               d="m 1.90625,-2.328125 c 0.546875,0 0.9375,0.375 0.9375,1.125 0,0.859375 -0.515625,1.125 -0.90625,1.125 -0.28125,0 -0.90625,-0.078125 -1.1875,-0.5 0.328125,0 0.40625,-0.234375 0.40625,-0.390625 0,-0.21875 -0.171875,-0.375 -0.390625,-0.375 -0.1875,0 -0.390625,0.125 -0.390625,0.40625 0,0.65625 0.71875,1.078125 1.5625,1.078125 0.96875,0 1.640625,-0.65625 1.640625,-1.34375 0,-0.546875 -0.4375,-1.09375 -1.203125,-1.25 0.71875,-0.265625 0.984375,-0.78125 0.984375,-1.21875 0,-0.546875 -0.625,-0.953125 -1.40625,-0.953125 -0.765625,0 -1.359375,0.375 -1.359375,0.9375 0,0.234375 0.15625,0.359375 0.359375,0.359375 0.21875,0 0.359375,-0.15625 0.359375,-0.34375 0,-0.203125 -0.140625,-0.359375 -0.359375,-0.375 0.25,-0.296875 0.71875,-0.375 0.984375,-0.375 0.3125,0 0.75,0.15625 0.75,0.75 0,0.296875 -0.09375,0.625 -0.28125,0.828125 -0.21875,0.265625 -0.421875,0.28125 -0.765625,0.3125 -0.171875,0.015625 -0.1875,0.015625 -0.21875,0.015625 -0.015625,0 -0.078125,0.015625 -0.078125,0.09375 0,0.09375 0.0625,0.09375 0.1875,0.09375 l 0.375,0 z m 0,0"
               style="stroke:none" />
          </symbol>
          <symbol
             id="textext-7b3e8567-4"
             overflow="visible"
             style="overflow:visible">
            <path
               id="path13155"
               d=""
               style="stroke:none" />
          </symbol>
          <symbol
             id="textext-7b3e8567-5"
             overflow="visible"
             style="overflow:visible">
            <path
               id="path13158"
               d="m 6.84375,-3.265625 c 0.15625,0 0.34375,0 0.34375,-0.1875 C 7.1875,-3.65625 7,-3.65625 6.859375,-3.65625 l -5.96875,0 c -0.140625,0 -0.328125,0 -0.328125,0.203125 0,0.1875 0.1875,0.1875 0.328125,0.1875 l 5.953125,0 z m 0.015625,1.9375 c 0.140625,0 0.328125,0 0.328125,-0.203125 0,-0.1875 -0.1875,-0.1875 -0.34375,-0.1875 l -5.953125,0 c -0.140625,0 -0.328125,0 -0.328125,0.1875 0,0.203125 0.1875,0.203125 0.328125,0.203125 l 5.96875,0 z m 0,0"
               style="stroke:none" />
          </symbol>
          <symbol
             id="textext-7b3e8567-6"
             overflow="visible"
             style="overflow:visible">
            <path
               id="path13161"
               d="m 4.578125,-3.1875 c 0,-0.796875 -0.046875,-1.59375 -0.390625,-2.328125 -0.453125,-0.96875 -1.28125,-1.125 -1.6875,-1.125 -0.609375,0 -1.328125,0.265625 -1.75,1.1875 -0.3125,0.6875 -0.359375,1.46875 -0.359375,2.265625 0,0.75 0.03125,1.640625 0.453125,2.40625 0.421875,0.796875 1.15625,1 1.640625,1 0.53125,0 1.296875,-0.203125 1.734375,-1.15625 0.3125,-0.6875 0.359375,-1.46875 0.359375,-2.25 z M 2.484375,0 C 2.09375,0 1.5,-0.25 1.328125,-1.203125 1.21875,-1.796875 1.21875,-2.71875 1.21875,-3.3125 c 0,-0.640625 0,-1.296875 0.078125,-1.828125 0.1875,-1.1875 0.9375,-1.28125 1.1875,-1.28125 0.328125,0 0.984375,0.1875 1.171875,1.171875 0.109375,0.5625 0.109375,1.3125 0.109375,1.9375 0,0.75 0,1.421875 -0.109375,2.0625 C 3.5,-0.296875 2.9375,0 2.484375,0 z m 0,0"
               style="stroke:none" />
          </symbol>
        </g>
      </defs>
      <g
         id="textext-7b3e8567-7">
        <g
           id="g13164"
           style="fill:#000000;fill-opacity:1">
          <use
             id="use13166"
             y="134.765"
             x="223.43201"
             xlink:href="#textext-7b3e8567-1"
             width="283.46457"
             height="212.59842" />
        </g>
        <g
           id="g13168"
           style="fill:#000000;fill-opacity:1">
          <use
             id="use13170"
             y="136.259"
             x="229.244"
             xlink:href="#textext-7b3e8567-3"
             width="283.46457"
             height="212.59842" />
        </g>
        <g
           id="g13172"
           style="fill:#000000;fill-opacity:1">
          <use
             id="use13174"
             y="134.765"
             x="236.48"
             xlink:href="#textext-7b3e8567-5"
             width="283.46457"
             height="212.59842" />
        </g>
        <g
           id="g13176"
           style="fill:#000000;fill-opacity:1">
          <use
             id="use13178"
             y="134.765"
             x="246.99852"
             xlink:href="#textext-7b3e8567-6"
             width="283.46457"
             height="212.59842" />
        </g>
      </g>
    </g>
  </g>
</svg>
