<?xml version="1.0" encoding="UTF-8" standalone="no"?>
<!-- Created with Inkscape (http://www.inkscape.org/) -->

<svg
   xmlns:ns0="http://www.iki.fi/pav/software/textext/"
   xmlns:dc="http://purl.org/dc/elements/1.1/"
   xmlns:cc="http://creativecommons.org/ns#"
   xmlns:rdf="http://www.w3.org/1999/02/22-rdf-syntax-ns#"
   xmlns:svg="http://www.w3.org/2000/svg"
   xmlns="http://www.w3.org/2000/svg"
   xmlns:xlink="http://www.w3.org/1999/xlink"
   xmlns:sodipodi="http://sodipodi.sourceforge.net/DTD/sodipodi-0.dtd"
   xmlns:inkscape="http://www.inkscape.org/namespaces/inkscape"
   width="283.46457"
   height="283.46457"
   id="svg2"
   version="1.1"
   inkscape:version="0.47pre4 r22446"
   sodipodi:docname="New document 1">
  <sodipodi:namedview
     id="base"
     pagecolor="#ffffff"
     bordercolor="#666666"
     borderopacity="1.0"
     inkscape:pageopacity="0.0"
     inkscape:pageshadow="2"
     inkscape:zoom="1.4"
     inkscape:cx="175.9297"
     inkscape:cy="150.68364"
     inkscape:document-units="px"
     inkscape:current-layer="layer1"
     showgrid="false"
     units="cm"
     inkscape:window-width="1024"
     inkscape:window-height="685"
     inkscape:window-x="0"
     inkscape:window-y="30"
     inkscape:window-maximized="1" />
  <defs
     id="defs4">
    <inkscape:perspective
       sodipodi:type="inkscape:persp3d"
       inkscape:vp_x="0 : 526.18109 : 1"
       inkscape:vp_y="0 : 1000 : 0"
       inkscape:vp_z="744.09448 : 526.18109 : 1"
       inkscape:persp3d-origin="372.04724 : 350.78739 : 1"
       id="perspective10" />
  </defs>
  <metadata
     id="metadata7">
    <rdf:RDF>
      <cc:Work
         rdf:about="">
        <dc:format>image/svg+xml</dc:format>
        <dc:type
           rdf:resource="http://purl.org/dc/dcmitype/StillImage" />
        <dc:title></dc:title>
      </cc:Work>
    </rdf:RDF>
  </metadata>
  <g
     inkscape:label="Layer 1"
     inkscape:groupmode="layer"
     id="layer1"
     transform="translate(0,-768.89631)">
    <path
       style="fill:none;stroke:#000000;stroke-width:1.25;stroke-linecap:butt;stroke-linejoin:miter;stroke-miterlimit:4;stroke-opacity:1;stroke-dasharray:none"
       d="m 37.945087,812.17757 c -2.546764,1.34151 -3.78702,3.6629 -3.989099,6.76293 l 0,145.12105 c -0.06955,3.36964 1.469938,5.93474 3.737966,8.13558"
       id="path2816"
       sodipodi:nodetypes="cccc" />
    <path
       sodipodi:nodetypes="cccc"
       id="path3594"
       d="m 257.95372,812.17757 c 2.54677,1.34151 3.78702,3.6629 3.9891,6.76293 l 0,145.12105 c 0.0696,3.36964 -1.46994,5.93474 -3.73796,8.13558"
       style="fill:none;stroke:#000000;stroke-width:1.25;stroke-linecap:butt;stroke-linejoin:miter;stroke-miterlimit:4;stroke-opacity:1;stroke-dasharray:none" />
    <path
       style="fill:none;stroke:#000000;stroke-width:1.5;stroke-linecap:butt;stroke-linejoin:miter;stroke-opacity:1;stroke-miterlimit:4;stroke-dasharray:none"
       d="M 59.285714,44.535997 257.5,196.67885"
       id="path3596"
       transform="translate(0,768.89631)" />
    <path
       style="fill:none;stroke:#000000;stroke-width:1px;stroke-linecap:butt;stroke-linejoin:miter;stroke-opacity:1"
       d="m 146.87312,972.50881 -0.14846,-91.16627 109.34677,0.50508"
       id="path3600"
       sodipodi:nodetypes="ccc" />
    <path
       style="fill:none;stroke:#000000;stroke-width:1.16860461px;stroke-linecap:butt;stroke-linejoin:miter;stroke-opacity:1"
       d="m 65.084303,818.4716 7.367492,-6.02892"
       id="path3602"
       sodipodi:nodetypes="cc" />
    <path
       style="fill:none;stroke:#000000;stroke-width:1.16860461px;stroke-linecap:butt;stroke-linejoin:miter;stroke-opacity:1"
       d="M 69.715605,821.96425 80.80162,812.44268"
       id="path3604"
       sodipodi:nodetypes="cc" />
    <path
       style="fill:none;stroke:#000000;stroke-width:1.16860461px;stroke-linecap:butt;stroke-linejoin:miter;stroke-opacity:1"
       d="M 74.290407,825.25814 89.54438,812.08805"
       id="path3606"
       sodipodi:nodetypes="cc" />
    <path
       sodipodi:nodetypes="cc"
       id="path3608"
       d="M 79.707578,829.15377 97.697739,812.44268"
       style="fill:none;stroke:#000000;stroke-width:1.16860461px;stroke-linecap:butt;stroke-linejoin:miter;stroke-opacity:1" />
    <path
       sodipodi:nodetypes="cc"
       id="path3610"
       d="M 84.857867,832.09299 106.04756,812.44268"
       style="fill:none;stroke:#000000;stroke-width:1.16860461px;stroke-linecap:butt;stroke-linejoin:miter;stroke-opacity:1" />
    <path
       sodipodi:nodetypes="cc"
       id="path3612"
       d="M 88.899772,835.94031 114.79033,812.08805"
       style="fill:none;stroke:#000000;stroke-width:1.16860461px;stroke-linecap:butt;stroke-linejoin:miter;stroke-opacity:1" />
    <path
       style="fill:none;stroke:#000000;stroke-width:1.16860461px;stroke-linecap:butt;stroke-linejoin:miter;stroke-opacity:1"
       d="M 93.881406,839.13209 122.94368,812.44268"
       id="path3614"
       sodipodi:nodetypes="cc" />
    <path
       style="fill:none;stroke:#000000;stroke-width:1.16860461px;stroke-linecap:butt;stroke-linejoin:miter;stroke-opacity:1"
       d="M 97.769014,842.62472 131.2935,812.44268"
       id="path3616"
       sodipodi:nodetypes="cc" />
    <path
       style="fill:none;stroke:#000000;stroke-width:1.16860461px;stroke-linecap:butt;stroke-linejoin:miter;stroke-opacity:1"
       d="m 102.56853,846.27326 37.46774,-34.18521"
       id="path3618"
       sodipodi:nodetypes="cc" />
    <path
       sodipodi:nodetypes="cc"
       id="path3620"
       d="m 107.24198,850.01844 40.94764,-37.57576"
       style="fill:none;stroke:#000000;stroke-width:1.16860461px;stroke-linecap:butt;stroke-linejoin:miter;stroke-opacity:1" />
    <path
       sodipodi:nodetypes="cc"
       id="path3622"
       d="m 112.61812,854.09641 43.92132,-41.65373"
       style="fill:none;stroke:#000000;stroke-width:1.16860461px;stroke-linecap:butt;stroke-linejoin:miter;stroke-opacity:1" />
    <path
       sodipodi:nodetypes="cc"
       id="path3624"
       d="m 117.57197,857.90068 47.71024,-45.81263"
       style="fill:none;stroke:#000000;stroke-width:1.16860461px;stroke-linecap:butt;stroke-linejoin:miter;stroke-opacity:1" />
    <path
       style="fill:none;stroke:#000000;stroke-width:1.16860461px;stroke-linecap:butt;stroke-linejoin:miter;stroke-opacity:1"
       d="M 122.67022,861.40633 172.9444,812.44268"
       id="path3626"
       sodipodi:nodetypes="cc" />
    <path
       style="fill:none;stroke:#000000;stroke-width:1.16860461px;stroke-linecap:butt;stroke-linejoin:miter;stroke-opacity:1"
       d="m 127.68006,865.14797 53.61415,-52.70529"
       id="path3628"
       sodipodi:nodetypes="cc" />
    <path
       style="fill:none;stroke:#000000;stroke-width:1.16860461px;stroke-linecap:butt;stroke-linejoin:miter;stroke-opacity:1"
       d="m 131.87631,868.44541 58.16067,-56.35736"
       id="path3630"
       sodipodi:nodetypes="cc" />
    <path
       sodipodi:nodetypes="cc"
       id="path3632"
       d="m 136.722,872.7069 60.97718,-60.26422"
       style="fill:none;stroke:#000000;stroke-width:1.16860461px;stroke-linecap:butt;stroke-linejoin:miter;stroke-opacity:1" />
    <path
       sodipodi:nodetypes="cc"
       id="path3634"
       d="m 141.95316,876.69577 64.09583,-64.25309"
       style="fill:none;stroke:#000000;stroke-width:1.16860461px;stroke-linecap:butt;stroke-linejoin:miter;stroke-opacity:1" />
    <path
       sodipodi:nodetypes="cc"
       id="path3636"
       d="m 147.25434,880.49828 67.53742,-68.41023"
       style="fill:none;stroke:#000000;stroke-width:1.16860461px;stroke-linecap:butt;stroke-linejoin:miter;stroke-opacity:1" />
    <path
       style="fill:none;stroke:#000000;stroke-width:1.16860461px;stroke-linecap:butt;stroke-linejoin:miter;stroke-opacity:1"
       d="m 146.70196,890.56286 75.75199,-78.12018"
       id="path3638"
       sodipodi:nodetypes="cc" />
    <path
       style="fill:none;stroke:#000000;stroke-width:1.16860461px;stroke-linecap:butt;stroke-linejoin:miter;stroke-opacity:1"
       d="m 146.97713,898.09433 83.82664,-85.65165"
       id="path3640"
       sodipodi:nodetypes="cc" />
    <path
       style="fill:none;stroke:#000000;stroke-width:1.16860461px;stroke-linecap:butt;stroke-linejoin:miter;stroke-opacity:1"
       d="m 146.88023,905.67784 92.66631,-93.58979"
       id="path3642"
       sodipodi:nodetypes="cc" />
    <path
       sodipodi:nodetypes="cc"
       id="path3644"
       d="M 146.76993,915.24263 247.20873,812.44268"
       style="fill:none;stroke:#000000;stroke-width:1.16860461px;stroke-linecap:butt;stroke-linejoin:miter;stroke-opacity:1" />
    <path
       sodipodi:nodetypes="cc"
       id="path3646"
       d="M 146.38225,925.54672 257.07377,812.69522"
       style="fill:none;stroke:#000000;stroke-width:1.16860461px;stroke-linecap:butt;stroke-linejoin:miter;stroke-opacity:1" />
    <path
       sodipodi:nodetypes="cc"
       id="path3741"
       d="m 245.08348,971.44525 16.7079,-19.14418"
       style="fill:none;stroke:#000000;stroke-width:1.16860461px;stroke-linecap:butt;stroke-linejoin:miter;stroke-opacity:1" />
    <path
       sodipodi:nodetypes="cc"
       id="path3743"
       d="m 235.99644,971.7281 26.04984,-27.38671"
       style="fill:none;stroke:#000000;stroke-width:1.16860461px;stroke-linecap:butt;stroke-linejoin:miter;stroke-opacity:1" />
    <path
       style="fill:none;stroke:#000000;stroke-width:1.16860461px;stroke-linecap:butt;stroke-linejoin:miter;stroke-opacity:1"
       d="M 228.45717,971.20686 261.9248,935.54094"
       id="path3745"
       sodipodi:nodetypes="cc" />
    <path
       style="fill:none;stroke:#000000;stroke-width:1.16860461px;stroke-linecap:butt;stroke-linejoin:miter;stroke-opacity:1"
       d="m 218.45591,971.88021 43.67433,-44.36933"
       id="path3747"
       sodipodi:nodetypes="cc" />
    <path
       style="fill:none;stroke:#000000;stroke-width:1.16860461px;stroke-linecap:butt;stroke-linejoin:miter;stroke-opacity:1"
       d="m 209.15271,971.87179 52.9799,-53.58329"
       id="path3749"
       sodipodi:nodetypes="cc" />
    <path
       sodipodi:nodetypes="cc"
       id="path3751"
       d="m 201.89723,971.20926 59.92356,-61.9916"
       style="fill:none;stroke:#000000;stroke-width:1.16860461px;stroke-linecap:butt;stroke-linejoin:miter;stroke-opacity:1" />
    <path
       sodipodi:nodetypes="cc"
       id="path3753"
       d="m 193.06354,971.66426 68.71014,-71.48683"
       style="fill:none;stroke:#000000;stroke-width:1.16860461px;stroke-linecap:butt;stroke-linejoin:miter;stroke-opacity:1" />
    <path
       sodipodi:nodetypes="cc"
       id="path3755"
       d="m 184.52172,971.43507 77.50687,-80.73255"
       style="fill:none;stroke:#000000;stroke-width:1.16860461px;stroke-linecap:butt;stroke-linejoin:miter;stroke-opacity:1" />
    <path
       style="fill:none;stroke:#000000;stroke-width:1.16860461px;stroke-linecap:butt;stroke-linejoin:miter;stroke-opacity:1"
       d="m 174.2396,971.81445 87.98225,-90.43532"
       id="path3757"
       sodipodi:nodetypes="cc" />
    <path
       style="fill:none;stroke:#000000;stroke-width:1.16860461px;stroke-linecap:butt;stroke-linejoin:miter;stroke-opacity:1"
       d="m 165.4499,972.15739 96.72484,-100.5761"
       id="path3759"
       sodipodi:nodetypes="cc" />
    <path
       style="fill:none;stroke:#000000;stroke-width:1.16860461px;stroke-linecap:butt;stroke-linejoin:miter;stroke-opacity:1"
       d="M 156.10651,971.83623 262.17712,861.6013"
       id="path3761"
       sodipodi:nodetypes="cc" />
    <path
       sodipodi:nodetypes="cc"
       id="path3763"
       d="M 147.14239,972.15029 261.86529,852.27792"
       style="fill:none;stroke:#000000;stroke-width:1.16860461px;stroke-linecap:butt;stroke-linejoin:miter;stroke-opacity:1" />
    <path
       sodipodi:nodetypes="cc"
       id="path3765"
       d="M 146.87988,964.44556 262.32326,842.48007"
       style="fill:none;stroke:#000000;stroke-width:1.16860461px;stroke-linecap:butt;stroke-linejoin:miter;stroke-opacity:1" />
    <path
       sodipodi:nodetypes="cc"
       id="path3767"
       d="M 146.93951,955.75708 261.56802,833.76278"
       style="fill:none;stroke:#000000;stroke-width:1.16860461px;stroke-linecap:butt;stroke-linejoin:miter;stroke-opacity:1" />
    <path
       style="fill:none;stroke:#000000;stroke-width:1.16860461px;stroke-linecap:butt;stroke-linejoin:miter;stroke-opacity:1"
       d="M 146.71495,946.9531 261.50873,824.18685"
       id="path3769"
       sodipodi:nodetypes="cc" />
    <path
       style="fill:none;stroke:#000000;stroke-width:1.16860461px;stroke-linecap:butt;stroke-linejoin:miter;stroke-opacity:1"
       d="M 147.17741,936.22119 260.70402,817.92455"
       id="path3771"
       sodipodi:nodetypes="cc" />
    <path
       style="fill:none;stroke:#000000;stroke-width:1.16860461px;stroke-linecap:butt;stroke-linejoin:miter;stroke-opacity:1"
       d="M 251.33602,971.44525 261.73047,959.1196"
       id="path3775"
       sodipodi:nodetypes="cc" />
    <g
       transform="matrix(1.2,0,0,1.2,-171.42857,735)"
       ns0:text="$0$"
       ns0:preamble=""
       id="g3827">
      <defs
         id="defs3829">
        <g
           id="g3831">
          <symbol
             style="overflow:visible"
             overflow="visible"
             id="textext-3657c828-0">
            <path
               style="stroke:none"
               d=""
               id="path3834" />
          </symbol>
          <symbol
             style="overflow:visible"
             overflow="visible"
             id="textext-3657c828-1">
            <path
               style="stroke:none"
               d="m 4.578125,-3.1875 c 0,-0.796875 -0.046875,-1.59375 -0.390625,-2.328125 -0.453125,-0.96875 -1.28125,-1.125 -1.6875,-1.125 -0.609375,0 -1.328125,0.265625 -1.75,1.1875 -0.3125,0.6875 -0.359375,1.46875 -0.359375,2.265625 0,0.75 0.03125,1.640625 0.453125,2.40625 0.421875,0.796875 1.15625,1 1.640625,1 0.53125,0 1.296875,-0.203125 1.734375,-1.15625 0.3125,-0.6875 0.359375,-1.46875 0.359375,-2.25 z M 2.484375,0 C 2.09375,0 1.5,-0.25 1.328125,-1.203125 1.21875,-1.796875 1.21875,-2.71875 1.21875,-3.3125 c 0,-0.640625 0,-1.296875 0.078125,-1.828125 0.1875,-1.1875 0.9375,-1.28125 1.1875,-1.28125 0.328125,0 0.984375,0.1875 1.171875,1.171875 0.109375,0.5625 0.109375,1.3125 0.109375,1.9375 0,0.75 0,1.421875 -0.109375,2.0625 C 3.5,-0.296875 2.9375,0 2.484375,0 z m 0,0"
               id="path3837" />
          </symbol>
        </g>
      </defs>
      <g
         id="textext-3657c828-2">
        <g
           style="fill:#000000;fill-opacity:1"
           id="g3840">
          <use
             height="283.46457"
             width="283.46457"
             xlink:href="#textext-3657c828-1"
             x="223.43201"
             y="134.765"
             id="use3842" />
        </g>
      </g>
    </g>
    <g
       id="g3982"
       transform="matrix(1.2,0,0,1.2,-124.28571,829.57143)"
       ns0:preamble=""
       ns0:text="$k$">
      <defs
         id="defs3984">
        <g
           id="g3986">
          <symbol
             id="textext-250a7f72-0"
             overflow="visible"
             style="overflow:visible">
            <path
               id="path3989"
               d=""
               style="stroke:none" />
          </symbol>
          <symbol
             id="textext-250a7f72-1"
             overflow="visible"
             style="overflow:visible">
            <path
               id="path3992"
               d="m 2.859375,-6.8125 c 0,0 0,-0.109375 -0.125,-0.109375 -0.234375,0 -0.953125,0.078125 -1.21875,0.109375 -0.078125,0 -0.1875,0.015625 -0.1875,0.1875 0,0.125 0.09375,0.125 0.234375,0.125 0.484375,0 0.5,0.0625 0.5,0.171875 L 2.03125,-6.125 0.59375,-0.390625 c -0.046875,0.140625 -0.046875,0.15625 -0.046875,0.21875 0,0.234375 0.203125,0.28125 0.296875,0.28125 0.125,0 0.265625,-0.09375 0.328125,-0.203125 0.046875,-0.09375 0.5,-1.9375 0.5625,-2.1875 0.34375,0.03125 1.15625,0.1875 1.15625,0.84375 0,0.078125 0,0.109375 -0.03125,0.21875 -0.015625,0.109375 -0.03125,0.234375 -0.03125,0.34375 0,0.578125 0.390625,0.984375 0.90625,0.984375 0.296875,0 0.578125,-0.15625 0.796875,-0.53125 0.25,-0.4375 0.359375,-0.984375 0.359375,-1 0,-0.109375 -0.09375,-0.109375 -0.125,-0.109375 -0.09375,0 -0.109375,0.046875 -0.140625,0.1875 -0.203125,0.71875 -0.421875,1.234375 -0.859375,1.234375 -0.203125,0 -0.328125,-0.109375 -0.328125,-0.46875 0,-0.171875 0.046875,-0.40625 0.078125,-0.5625 C 3.5625,-1.3125 3.5625,-1.34375 3.5625,-1.453125 3.5625,-2.09375 2.9375,-2.375 2.078125,-2.5 2.390625,-2.671875 2.71875,-2.984375 2.9375,-3.234375 3.421875,-3.765625 3.875,-4.1875 4.359375,-4.1875 c 0.0625,0 0.078125,0 0.09375,0.015625 0.125,0.015625 0.125,0.015625 0.21875,0.078125 0.015625,0 0.015625,0.015625 0.03125,0.03125 -0.46875,0.03125 -0.5625,0.421875 -0.5625,0.546875 0,0.15625 0.109375,0.34375 0.375,0.34375 0.265625,0 0.546875,-0.21875 0.546875,-0.609375 0,-0.296875 -0.234375,-0.625 -0.671875,-0.625 -0.28125,0 -0.734375,0.078125 -1.453125,0.875 -0.34375,0.375 -0.734375,0.78125 -1.109375,0.921875 L 2.859375,-6.8125 z m 0,0"
               style="stroke:none" />
          </symbol>
        </g>
      </defs>
      <g
         id="textext-250a7f72-2">
        <g
           id="g3995"
           style="fill:#000000;fill-opacity:1">
          <use
             id="use3997"
             y="134.765"
             x="223.43201"
             xlink:href="#textext-250a7f72-1"
             width="283.46457"
             height="283.46457" />
        </g>
      </g>
    </g>
    <g
       ns0:text="$k$"
       ns0:preamble=""
       transform="matrix(1.2,0,0,1.2,-0.85714123,723.85714)"
       id="g4067">
      <defs
         id="defs4069">
        <g
           id="g4071">
          <symbol
             overflow="visible"
             id="symbol4073"
             style="overflow:visible">
            <path
               style="stroke:none"
               d=""
               id="path4075" />
          </symbol>
          <symbol
             overflow="visible"
             id="symbol4077"
             style="overflow:visible">
            <path
               style="stroke:none"
               d="m 2.859375,-6.8125 c 0,0 0,-0.109375 -0.125,-0.109375 -0.234375,0 -0.953125,0.078125 -1.21875,0.109375 -0.078125,0 -0.1875,0.015625 -0.1875,0.1875 0,0.125 0.09375,0.125 0.234375,0.125 0.484375,0 0.5,0.0625 0.5,0.171875 L 2.03125,-6.125 0.59375,-0.390625 c -0.046875,0.140625 -0.046875,0.15625 -0.046875,0.21875 0,0.234375 0.203125,0.28125 0.296875,0.28125 0.125,0 0.265625,-0.09375 0.328125,-0.203125 0.046875,-0.09375 0.5,-1.9375 0.5625,-2.1875 0.34375,0.03125 1.15625,0.1875 1.15625,0.84375 0,0.078125 0,0.109375 -0.03125,0.21875 -0.015625,0.109375 -0.03125,0.234375 -0.03125,0.34375 0,0.578125 0.390625,0.984375 0.90625,0.984375 0.296875,0 0.578125,-0.15625 0.796875,-0.53125 0.25,-0.4375 0.359375,-0.984375 0.359375,-1 0,-0.109375 -0.09375,-0.109375 -0.125,-0.109375 -0.09375,0 -0.109375,0.046875 -0.140625,0.1875 -0.203125,0.71875 -0.421875,1.234375 -0.859375,1.234375 -0.203125,0 -0.328125,-0.109375 -0.328125,-0.46875 0,-0.171875 0.046875,-0.40625 0.078125,-0.5625 C 3.5625,-1.3125 3.5625,-1.34375 3.5625,-1.453125 3.5625,-2.09375 2.9375,-2.375 2.078125,-2.5 2.390625,-2.671875 2.71875,-2.984375 2.9375,-3.234375 3.421875,-3.765625 3.875,-4.1875 4.359375,-4.1875 c 0.0625,0 0.078125,0 0.09375,0.015625 0.125,0.015625 0.125,0.015625 0.21875,0.078125 0.015625,0 0.015625,0.015625 0.03125,0.03125 -0.46875,0.03125 -0.5625,0.421875 -0.5625,0.546875 0,0.15625 0.109375,0.34375 0.375,0.34375 0.265625,0 0.546875,-0.21875 0.546875,-0.609375 0,-0.296875 -0.234375,-0.625 -0.671875,-0.625 -0.28125,0 -0.734375,0.078125 -1.453125,0.875 -0.34375,0.375 -0.734375,0.78125 -1.109375,0.921875 L 2.859375,-6.8125 z m 0,0"
               id="path4079" />
          </symbol>
        </g>
      </defs>
      <g
         id="g4081">
        <g
           style="fill:#000000;fill-opacity:1"
           id="g4083">
          <use
             xlink:href="#textext-250a7f72-1"
             x="223.43201"
             y="134.765"
             id="use4085"
             width="283.46457"
             height="283.46457" />
        </g>
      </g>
    </g>
  </g>
</svg>
