<?xml version="1.0" encoding="UTF-8" standalone="no"?>
<!-- Created with Inkscape (http://www.inkscape.org/) -->

<svg
   xmlns:dc="http://purl.org/dc/elements/1.1/"
   xmlns:cc="http://creativecommons.org/ns#"
   xmlns:rdf="http://www.w3.org/1999/02/22-rdf-syntax-ns#"
   xmlns:svg="http://www.w3.org/2000/svg"
   xmlns="http://www.w3.org/2000/svg"
   xmlns:sodipodi="http://sodipodi.sourceforge.net/DTD/sodipodi-0.dtd"
   xmlns:inkscape="http://www.inkscape.org/namespaces/inkscape"
   width="177.16534"
   height="177.16534"
   id="svg2"
   version="1.1"
   inkscape:version="0.48.4 r9939"
   sodipodi:docname="New document 1">
  <defs
     id="defs4" />
  <sodipodi:namedview
     id="base"
     pagecolor="#ffffff"
     bordercolor="#666666"
     borderopacity="1.0"
     inkscape:pageopacity="0.0"
     inkscape:pageshadow="2"
     inkscape:zoom="5.6"
     inkscape:cx="100.19926"
     inkscape:cy="82.544457"
     inkscape:document-units="px"
     inkscape:current-layer="layer1"
     showgrid="false"
     units="cm"
     inkscape:window-width="1366"
     inkscape:window-height="744"
     inkscape:window-x="0"
     inkscape:window-y="24"
     inkscape:window-maximized="1" />
  <metadata
     id="metadata7">
    <rdf:RDF>
      <cc:Work
         rdf:about="">
        <dc:format>image/svg+xml</dc:format>
        <dc:type
           rdf:resource="http://purl.org/dc/dcmitype/StillImage" />
        <dc:title></dc:title>
      </cc:Work>
    </rdf:RDF>
  </metadata>
  <g
     inkscape:label="Layer 1"
     inkscape:groupmode="layer"
     id="layer1"
     transform="translate(0,-875.19552)">
    <path
       sodipodi:type="arc"
       style="fill:#000000;fill-opacity:0;stroke:#000000;stroke-width:1.5;stroke-miterlimit:4;stroke-opacity:1;stroke-dasharray:none"
       id="path2985"
       sodipodi:cx="75.178574"
       sodipodi:cy="54.843914"
       sodipodi:rx="3.3928571"
       sodipodi:ry="3.3928571"
       d="m 78.571431,54.843914 a 3.3928571,3.3928571 0 1 1 -6.785714,0 3.3928571,3.3928571 0 1 1 6.785714,0 z"
       transform="translate(11.071429,878.58838)" />
    <path
       transform="translate(-22.75,938.23124)"
       d="m 78.571431,54.843914 a 3.3928571,3.3928571 0 1 1 -6.785714,0 3.3928571,3.3928571 0 1 1 6.785714,0 z"
       sodipodi:ry="3.3928571"
       sodipodi:rx="3.3928571"
       sodipodi:cy="54.843914"
       sodipodi:cx="75.178574"
       id="path3759"
       style="fill:#000000;fill-opacity:0;stroke:#000000;stroke-width:1.5;stroke-miterlimit:4;stroke-opacity:1;stroke-dasharray:none"
       sodipodi:type="arc" />
    <path
       sodipodi:type="arc"
       style="fill:#000000;fill-opacity:0;stroke:#000000;stroke-width:1.5;stroke-miterlimit:4;stroke-opacity:1;stroke-dasharray:none"
       id="path3761"
       sodipodi:cx="75.178574"
       sodipodi:cy="54.843914"
       sodipodi:rx="3.3928571"
       sodipodi:ry="3.3928571"
       d="m 78.571431,54.843914 a 3.3928571,3.3928571 0 1 1 -6.785714,0 3.3928571,3.3928571 0 1 1 6.785714,0 z"
       transform="translate(44.178574,938.23124)" />
    <path
       transform="matrix(0.78947368,0,0,0.78947368,58.719929,909.67018)"
       d="m 78.571431,54.843914 a 3.3928571,3.3928571 0 1 1 -6.785714,0 3.3928571,3.3928571 0 1 1 6.785714,0 z"
       sodipodi:ry="3.3928571"
       sodipodi:rx="3.3928571"
       sodipodi:cy="54.843914"
       sodipodi:cx="75.178574"
       id="path3763"
       style="fill:#000000;fill-opacity:0;stroke:#000000;stroke-width:1.89999998;stroke-miterlimit:4;stroke-opacity:1;stroke-dasharray:none"
       sodipodi:type="arc" />
    <path
       sodipodi:type="arc"
       style="fill:#000000;fill-opacity:0;stroke:#000000;stroke-width:1.89999998;stroke-miterlimit:4;stroke-opacity:1;stroke-dasharray:none"
       id="path3773"
       sodipodi:cx="75.178574"
       sodipodi:cy="54.843914"
       sodipodi:rx="3.3928571"
       sodipodi:ry="3.3928571"
       d="m 78.571431,54.843914 a 3.3928571,3.3928571 0 1 1 -6.785714,0 3.3928571,3.3928571 0 1 1 6.785714,0 z"
       transform="matrix(0.78947368,0,0,0.78947368,-5.3157864,909.67018)" />
    <path
       sodipodi:type="arc"
       style="fill:#000000;fill-opacity:0;stroke:#000000;stroke-width:1.89999998;stroke-miterlimit:4;stroke-opacity:1;stroke-dasharray:none"
       id="path3775"
       sodipodi:cx="75.178574"
       sodipodi:cy="54.843914"
       sodipodi:rx="3.3928571"
       sodipodi:ry="3.3928571"
       d="m 78.571431,54.843914 a 3.3928571,3.3928571 0 1 1 -6.785714,0 3.3928571,3.3928571 0 1 1 6.785714,0 z"
       transform="matrix(0.78947368,0,0,0.78947368,26.719929,968.77733)" />
  </g>
</svg>
