<?xml version="1.0" encoding="UTF-8" standalone="no"?>
<!-- Created with Inkscape (http://www.inkscape.org/) -->
<svg
   xmlns:ns0="http://www.iki.fi/pav/software/textext/"
   xmlns:dc="http://purl.org/dc/elements/1.1/"
   xmlns:cc="http://creativecommons.org/ns#"
   xmlns:rdf="http://www.w3.org/1999/02/22-rdf-syntax-ns#"
   xmlns:svg="http://www.w3.org/2000/svg"
   xmlns="http://www.w3.org/2000/svg"
   xmlns:xlink="http://www.w3.org/1999/xlink"
   xmlns:sodipodi="http://sodipodi.sourceforge.net/DTD/sodipodi-0.dtd"
   xmlns:inkscape="http://www.inkscape.org/namespaces/inkscape"
   width="372.04724"
   height="141.73228"
   id="svg2"
   sodipodi:version="0.32"
   inkscape:version="0.46"
   version="1.0"
   sodipodi:docname="chap2-fig42.svg"
   inkscape:output_extension="org.inkscape.output.svg.inkscape">
  <sodipodi:namedview
     id="base"
     pagecolor="#ffffff"
     bordercolor="#666666"
     borderopacity="1.0"
     gridtolerance="10000"
     guidetolerance="10"
     objecttolerance="10"
     inkscape:pageopacity="0.0"
     inkscape:pageshadow="2"
     inkscape:zoom="2.4292212"
     inkscape:cx="171.06172"
     inkscape:cy="34.115377"
     inkscape:document-units="px"
     inkscape:current-layer="layer1"
     showgrid="false"
     units="cm"
     inkscape:window-width="1009"
     inkscape:window-height="726"
     inkscape:window-x="5"
     inkscape:window-y="27">
    <inkscape:grid
       type="xygrid"
       id="grid15378"
       visible="true"
       enabled="true" />
  </sodipodi:namedview>
  <defs
     id="defs4">
    <inkscape:perspective
       sodipodi:type="inkscape:persp3d"
       inkscape:vp_x="0 : 526.18109 : 1"
       inkscape:vp_y="0 : 1000 : 0"
       inkscape:vp_z="744.09448 : 526.18109 : 1"
       inkscape:persp3d-origin="372.04724 : 350.78739 : 1"
       id="perspective10" />
  </defs>
  <metadata
     id="metadata7">
    <rdf:RDF>
      <cc:Work
         rdf:about="">
        <dc:format>image/svg+xml</dc:format>
        <dc:type
           rdf:resource="http://purl.org/dc/dcmitype/StillImage" />
      </cc:Work>
    </rdf:RDF>
  </metadata>
  <g
     inkscape:label="Layer 1"
     inkscape:groupmode="layer"
     id="layer1">
    <path
       style="fill:none;fill-rule:evenodd;stroke:#000000;stroke-width:1;stroke-linecap:butt;stroke-linejoin:miter;stroke-miterlimit:4;stroke-dasharray:none;stroke-opacity:1"
       d="M 29.379,62.458612 L 64.914309,62.458612"
       id="path15496" />
    <path
       transform="matrix(-1.0681001,0,0,1.0681001,171.77516,15.712279)"
       sodipodi:type="arc"
       style="opacity:1;fill:#ffffff;fill-opacity:1;fill-rule:evenodd;stroke:#000000;stroke-width:1px;stroke-linecap:butt;stroke-linejoin:miter;marker:none;marker-start:none;marker-mid:none;marker-end:none;stroke-miterlimit:4;stroke-dasharray:none;stroke-dashoffset:0;stroke-opacity:1;visibility:visible;display:inline;overflow:visible;enable-background:accumulate"
       id="path15506"
       sodipodi:cx="135.64018"
       sodipodi:cy="43.55267"
       sodipodi:rx="3.4990637"
       sodipodi:ry="3.4990637"
       d="M 139.13925,43.55267 A 3.4990637,3.4990637 0 1 1 132.14112,43.55267 A 3.4990637,3.4990637 0 1 1 139.13925,43.55267 z" />
    <path
       id="path20229"
       d="M 164.82363,62.458612 L 129.28832,62.458612"
       style="fill:none;fill-rule:evenodd;stroke:#000000;stroke-width:1.0892638;stroke-linecap:butt;stroke-linejoin:miter;stroke-miterlimit:4;stroke-dasharray:none;stroke-opacity:1" />
    <path
       d="M 139.13925,43.55267 A 3.4990637,3.4990637 0 1 1 132.14112,43.55267 A 3.4990637,3.4990637 0 1 1 139.13925,43.55267 z"
       sodipodi:ry="3.4990637"
       sodipodi:rx="3.4990637"
       sodipodi:cy="43.55267"
       sodipodi:cx="135.64018"
       id="path20231"
       style="opacity:1;fill:#ffffff;fill-opacity:1;fill-rule:evenodd;stroke:#000000;stroke-width:1px;stroke-linecap:butt;stroke-linejoin:miter;marker:none;marker-start:none;marker-mid:none;marker-end:none;stroke-miterlimit:4;stroke-dasharray:none;stroke-dashoffset:0;stroke-opacity:1;visibility:visible;display:inline;overflow:visible;enable-background:accumulate"
       sodipodi:type="arc"
       transform="matrix(1.0681001,0,0,1.0681001,22.427437,15.712279)" />
    <path
       style="fill:none;fill-rule:evenodd;stroke:#000000;stroke-width:1.0892638;stroke-linecap:butt;stroke-linejoin:miter;stroke-miterlimit:4;stroke-dasharray:none;stroke-opacity:1"
       d="M 206.21566,62.458612 L 170.68034,62.458612"
       id="path20233" />
    <path
       transform="matrix(1.0681001,0,0,1.0681001,63.819459,15.712279)"
       sodipodi:type="arc"
       style="opacity:1;fill:#ffffff;fill-opacity:1;fill-rule:evenodd;stroke:#000000;stroke-width:1px;stroke-linecap:butt;stroke-linejoin:miter;marker:none;marker-start:none;marker-mid:none;marker-end:none;stroke-miterlimit:4;stroke-dasharray:none;stroke-dashoffset:0;stroke-opacity:1;visibility:visible;display:inline;overflow:visible;enable-background:accumulate"
       id="path20235"
       sodipodi:cx="135.64018"
       sodipodi:cy="43.55267"
       sodipodi:rx="3.4990637"
       sodipodi:ry="3.4990637"
       d="M 139.13925,43.55267 A 3.4990637,3.4990637 0 1 1 132.14112,43.55267 A 3.4990637,3.4990637 0 1 1 139.13925,43.55267 z" />
    <path
       id="path20237"
       d="M 247.92474,62.458612 L 212.38943,62.458612"
       style="fill:none;fill-rule:evenodd;stroke:#000000;stroke-width:1.0892638;stroke-linecap:butt;stroke-linejoin:miter;stroke-miterlimit:4;stroke-dasharray:none;stroke-opacity:1" />
    <path
       style="fill:none;fill-rule:evenodd;stroke:#000000;stroke-width:1.0892638;stroke-linecap:butt;stroke-linejoin:miter;stroke-miterlimit:4;stroke-dasharray:none;stroke-opacity:1"
       d="M 302.11178,62.458612 L 266.57647,62.458612"
       id="path20241" />
    <path
       transform="matrix(1.0681001,0,0,1.0681001,159.71562,15.712279)"
       sodipodi:type="arc"
       style="opacity:1;fill:#ffffff;fill-opacity:1;fill-rule:evenodd;stroke:#000000;stroke-width:1px;stroke-linecap:butt;stroke-linejoin:miter;marker:none;marker-start:none;marker-mid:none;marker-end:none;stroke-miterlimit:4;stroke-dasharray:none;stroke-dashoffset:0;stroke-opacity:1;visibility:visible;display:inline;overflow:visible;enable-background:accumulate"
       id="path20243"
       sodipodi:cx="135.64018"
       sodipodi:cy="43.55267"
       sodipodi:rx="3.4990637"
       sodipodi:ry="3.4990637"
       d="M 139.13925,43.55267 A 3.4990637,3.4990637 0 1 1 132.14112,43.55267 A 3.4990637,3.4990637 0 1 1 139.13925,43.55267 z" />
    <path
       id="path21820"
       d="M 70.967345,62.458612 L 106.50266,62.458612"
       style="fill:none;fill-rule:evenodd;stroke:#000000;stroke-width:1;stroke-linecap:butt;stroke-linejoin:miter;stroke-miterlimit:4;stroke-dasharray:none;stroke-opacity:1" />
    <path
       d="M 139.13925,43.55267 A 3.4990637,3.4990637 0 1 1 132.14112,43.55267 A 3.4990637,3.4990637 0 1 1 139.13925,43.55267 z"
       sodipodi:ry="3.4990637"
       sodipodi:rx="3.4990637"
       sodipodi:cy="43.55267"
       sodipodi:cx="135.64018"
       id="path21822"
       style="opacity:1;fill:#ffffff;fill-opacity:1;fill-rule:evenodd;stroke:#000000;stroke-width:1px;stroke-linecap:butt;stroke-linejoin:miter;marker:none;marker-start:none;marker-mid:none;marker-end:none;stroke-miterlimit:4;stroke-dasharray:none;stroke-dashoffset:0;stroke-opacity:1;visibility:visible;display:inline;overflow:visible;enable-background:accumulate"
       sodipodi:type="arc"
       transform="matrix(-1.0681001,0,0,1.0681001,213.36351,15.712279)" />
    <path
       transform="matrix(0.7941727,0,0,0.7941727,22.065718,9.9615527)"
       d="M 115.205,73.397629 A 2,2 0 1 1 111.205,73.397629 A 2,2 0 1 1 115.205,73.397629 z"
       sodipodi:ry="2"
       sodipodi:rx="2"
       sodipodi:cy="73.397629"
       sodipodi:cx="113.205"
       style="fill:#000000;stroke:none"
       id="path21824"
       sodipodi:type="arc" />
    <path
       sodipodi:type="arc"
       id="path21826"
       style="fill:#000000;stroke:none"
       sodipodi:cx="113.205"
       sodipodi:cy="73.397629"
       sodipodi:rx="2"
       sodipodi:ry="2"
       d="M 115.205,73.397629 A 2,2 0 1 1 111.205,73.397629 A 2,2 0 1 1 115.205,73.397629 z"
       transform="matrix(0.7941727,0,0,0.7941727,28.065718,9.9615527)" />
    <path
       transform="matrix(0.7941727,0,0,0.7941727,33.654064,9.9615527)"
       d="M 115.205,73.397629 A 2,2 0 1 1 111.205,73.397629 A 2,2 0 1 1 115.205,73.397629 z"
       sodipodi:ry="2"
       sodipodi:rx="2"
       sodipodi:cy="73.397629"
       sodipodi:cx="113.205"
       style="fill:#000000;stroke:none"
       id="path21828"
       sodipodi:type="arc" />
    <g
       transform="translate(-6.8732511,-40.291084)"
       id="g21838">
      <path
         id="path21830"
         d="M 54.093958,127.32403 L 54.093958,78.575936"
         style="fill:none;fill-rule:evenodd;stroke:#000000;stroke-width:1;stroke-linecap:butt;stroke-linejoin:miter;stroke-miterlimit:4;stroke-dasharray:none;stroke-opacity:1" />
      <path
         style="fill:none;fill-rule:evenodd;stroke:#000000;stroke-width:1px;stroke-linecap:butt;stroke-linejoin:miter;stroke-opacity:1"
         d="M 54.432658,79.149282 L 59.672165,79.149282"
         id="path21834" />
      <path
         id="path21836"
         d="M 54.432658,126.8582 L 59.672165,126.8582"
         style="fill:none;fill-rule:evenodd;stroke:#000000;stroke-width:1px;stroke-linecap:butt;stroke-linejoin:miter;stroke-opacity:1" />
    </g>
    <g
       id="g21843"
       transform="matrix(-1,0,0,-1,339.98204,165.31779)">
      <path
         style="fill:none;fill-rule:evenodd;stroke:#000000;stroke-width:1;stroke-linecap:butt;stroke-linejoin:miter;stroke-miterlimit:4;stroke-dasharray:none;stroke-opacity:1"
         d="M 54.093958,127.32403 L 54.093958,78.575936"
         id="path21845" />
      <path
         id="path21847"
         d="M 54.432658,79.149282 L 59.672165,79.149282"
         style="fill:none;fill-rule:evenodd;stroke:#000000;stroke-width:1px;stroke-linecap:butt;stroke-linejoin:miter;stroke-opacity:1" />
      <path
         style="fill:none;fill-rule:evenodd;stroke:#000000;stroke-width:1px;stroke-linecap:butt;stroke-linejoin:miter;stroke-opacity:1"
         d="M 54.432658,126.8582 L 59.672165,126.8582"
         id="path21849" />
    </g>
    <g
       transform="translate(-0.1455419,-3.7840885)"
       id="g21869">
      <path
         style="fill:none;fill-rule:evenodd;stroke:#000000;stroke-width:0.97113609;stroke-linecap:butt;stroke-linejoin:miter;stroke-miterlimit:4;stroke-dasharray:none;stroke-opacity:1"
         d="M 167.36815,72.291414 C 165.24101,75.681775 162.70901,78.733167 158.97573,80.185709 C 142.61869,80.764722 127.7773,82.195972 117.48884,95.804308"
         id="path21851"
         sodipodi:nodetypes="ccc" />
      <path
         sodipodi:nodetypes="ccc"
         id="path21853"
         d="M 68.225863,72.291414 C 70.353,75.681775 72.884994,78.733167 76.618278,80.185709 C 92.975329,80.764722 107.81672,82.195972 118.10518,95.804308"
         style="fill:none;fill-rule:evenodd;stroke:#000000;stroke-width:0.97113609;stroke-linecap:butt;stroke-linejoin:miter;stroke-miterlimit:4;stroke-dasharray:none;stroke-opacity:1" />
    </g>
    <path
       style="fill:none;fill-rule:evenodd;stroke:#000000;stroke-width:1;stroke-linecap:butt;stroke-linejoin:miter;stroke-miterlimit:4;stroke-dasharray:none;stroke-opacity:1"
       d="M 282.27154,94.055175 C 277.29196,98.520028 271.3646,102.53848 262.62508,104.45137 C 224.33364,105.21389 189.59031,107.09874 165.50527,125.01991"
       id="path21875"
       sodipodi:nodetypes="ccc" />
    <path
       sodipodi:nodetypes="ccc"
       id="path21877"
       d="M 50.181815,94.055175 C 55.161392,98.520028 61.088729,102.53848 69.828258,104.45137 C 108.11972,105.21389 142.86306,107.09874 166.9481,125.01991"
       style="fill:none;fill-rule:evenodd;stroke:#000000;stroke-width:1;stroke-linecap:butt;stroke-linejoin:miter;stroke-miterlimit:4;stroke-dasharray:none;stroke-opacity:1" />
    <g
       id="g21915"
       ns0:preamble="/home/raghu/TIFR/Curves-on-rational-and-unirational-surfaces/figures/preample.tex"
       ns0:text="$-1$"
       transform="translate(-202.9457,-82.330911)">
      <defs
         id="defs21917">
        <g
           id="g21919">
          <symbol
             id="textext-841a25ce-0"
             overflow="visible"
             style="overflow:visible">
            <path
               id="path21922"
               d=""
               style="stroke:none" />
          </symbol>
          <symbol
             id="textext-841a25ce-1"
             overflow="visible"
             style="overflow:visible">
            <path
               id="path21925"
               d="M 6.59375,-2.296875 C 6.734375,-2.296875 6.921875,-2.296875 6.921875,-2.5 C 6.921875,-2.6875 6.734375,-2.6875 6.59375,-2.6875 L 1.15625,-2.6875 C 1.015625,-2.6875 0.828125,-2.6875 0.828125,-2.5 C 0.828125,-2.296875 1.015625,-2.296875 1.15625,-2.296875 L 6.59375,-2.296875 z"
               style="stroke:none" />
          </symbol>
          <symbol
             id="textext-841a25ce-2"
             overflow="visible"
             style="overflow:visible">
            <path
               id="path21928"
               d=""
               style="stroke:none" />
          </symbol>
          <symbol
             id="textext-841a25ce-3"
             overflow="visible"
             style="overflow:visible">
            <path
               id="path21931"
               d="M 2.9375,-6.375 C 2.9375,-6.625 2.9375,-6.640625 2.703125,-6.640625 C 2.078125,-6 1.203125,-6 0.890625,-6 L 0.890625,-5.6875 C 1.09375,-5.6875 1.671875,-5.6875 2.1875,-5.953125 L 2.1875,-0.78125 C 2.1875,-0.421875 2.15625,-0.3125 1.265625,-0.3125 L 0.953125,-0.3125 L 0.953125,0 C 1.296875,-0.03125 2.15625,-0.03125 2.5625,-0.03125 C 2.953125,-0.03125 3.828125,-0.03125 4.171875,0 L 4.171875,-0.3125 L 3.859375,-0.3125 C 2.953125,-0.3125 2.9375,-0.421875 2.9375,-0.78125 L 2.9375,-6.375 z"
               style="stroke:none" />
          </symbol>
        </g>
      </defs>
      <g
         id="textext-841a25ce-4">
        <g
           id="g21934"
           style="fill:#000000;fill-opacity:1">
          <use
             id="use21936"
             y="134.765"
             x="223.43201"
             xlink:href="#textext-841a25ce-1"
             width="372.04724"
             height="141.73228" />
        </g>
        <g
           id="g21938"
           style="fill:#000000;fill-opacity:1">
          <use
             id="use21940"
             y="134.765"
             x="231.181"
             xlink:href="#textext-841a25ce-3"
             width="372.04724"
             height="141.73228" />
        </g>
      </g>
    </g>
    <g
       ns0:text="$-2$"
       ns0:preamble="/home/raghu/TIFR/Curves-on-rational-and-unirational-surfaces/figures/preample.tex"
       transform="translate(-161.769,-82.330911)"
       id="g22072">
      <defs
         id="defs22074">
        <g
           id="g22076">
          <symbol
             overflow="visible"
             id="textext-e0ad40be-0">
            <path
               style="stroke:none;"
               d=""
               id="path22079" />
          </symbol>
          <symbol
             overflow="visible"
             id="textext-e0ad40be-1">
            <path
               style="stroke:none;"
               d="M 6.59375 -2.296875 C 6.734375 -2.296875 6.921875 -2.296875 6.921875 -2.5 C 6.921875 -2.6875 6.734375 -2.6875 6.59375 -2.6875 L 1.15625 -2.6875 C 1.015625 -2.6875 0.828125 -2.6875 0.828125 -2.5 C 0.828125 -2.296875 1.015625 -2.296875 1.15625 -2.296875 L 6.59375 -2.296875 Z M 6.59375 -2.296875 "
               id="path22082" />
          </symbol>
          <symbol
             overflow="visible"
             id="textext-e0ad40be-2">
            <path
               style="stroke:none;"
               d=""
               id="path22085" />
          </symbol>
          <symbol
             overflow="visible"
             id="textext-e0ad40be-3">
            <path
               style="stroke:none;"
               d="M 4.46875 -1.734375 L 4.234375 -1.734375 C 4.171875 -1.4375 4.109375 -1 4 -0.84375 C 3.9375 -0.765625 3.28125 -0.765625 3.0625 -0.765625 L 1.265625 -0.765625 L 2.328125 -1.796875 C 3.875 -3.171875 4.46875 -3.703125 4.46875 -4.703125 C 4.46875 -5.84375 3.578125 -6.640625 2.359375 -6.640625 C 1.234375 -6.640625 0.5 -5.71875 0.5 -4.828125 C 0.5 -4.28125 1 -4.28125 1.03125 -4.28125 C 1.203125 -4.28125 1.546875 -4.390625 1.546875 -4.8125 C 1.546875 -5.0625 1.359375 -5.328125 1.015625 -5.328125 C 0.9375 -5.328125 0.921875 -5.328125 0.890625 -5.3125 C 1.109375 -5.96875 1.65625 -6.328125 2.234375 -6.328125 C 3.140625 -6.328125 3.5625 -5.515625 3.5625 -4.703125 C 3.5625 -3.90625 3.078125 -3.125 2.515625 -2.5 L 0.609375 -0.375 C 0.5 -0.265625 0.5 -0.234375 0.5 0 L 4.203125 0 L 4.46875 -1.734375 Z M 4.46875 -1.734375 "
               id="path22088" />
          </symbol>
        </g>
      </defs>
      <g
         id="textext-e0ad40be-4">
        <g
           style="fill:rgb(0%,0%,0%);fill-opacity:1;"
           id="g22091">
          <use
             xlink:href="#textext-e0ad40be-1"
             x="223.432"
             y="134.765"
             id="use22093" />
        </g>
        <g
           style="fill:rgb(0%,0%,0%);fill-opacity:1;"
           id="g22095">
          <use
             xlink:href="#textext-e0ad40be-3"
             x="231.181"
             y="134.765"
             id="use22097" />
        </g>
      </g>
    </g>
    <g
       id="g22163"
       transform="translate(-63.827275,-82.330911)"
       ns0:preamble="/home/raghu/TIFR/Curves-on-rational-and-unirational-surfaces/figures/preample.tex"
       ns0:text="$-2$">
      <defs
         id="defs22165">
        <g
           id="g22167">
          <symbol
             style="overflow:visible"
             id="symbol22169"
             overflow="visible">
            <path
               id="path22171"
               d=""
               style="stroke:none" />
          </symbol>
          <symbol
             style="overflow:visible"
             id="symbol22173"
             overflow="visible">
            <path
               id="path22175"
               d="M 6.59375,-2.296875 C 6.734375,-2.296875 6.921875,-2.296875 6.921875,-2.5 C 6.921875,-2.6875 6.734375,-2.6875 6.59375,-2.6875 L 1.15625,-2.6875 C 1.015625,-2.6875 0.828125,-2.6875 0.828125,-2.5 C 0.828125,-2.296875 1.015625,-2.296875 1.15625,-2.296875 L 6.59375,-2.296875 z"
               style="stroke:none" />
          </symbol>
          <symbol
             style="overflow:visible"
             id="symbol22177"
             overflow="visible">
            <path
               id="path22179"
               d=""
               style="stroke:none" />
          </symbol>
          <symbol
             style="overflow:visible"
             id="symbol22181"
             overflow="visible">
            <path
               id="path22183"
               d="M 4.46875,-1.734375 L 4.234375,-1.734375 C 4.171875,-1.4375 4.109375,-1 4,-0.84375 C 3.9375,-0.765625 3.28125,-0.765625 3.0625,-0.765625 L 1.265625,-0.765625 L 2.328125,-1.796875 C 3.875,-3.171875 4.46875,-3.703125 4.46875,-4.703125 C 4.46875,-5.84375 3.578125,-6.640625 2.359375,-6.640625 C 1.234375,-6.640625 0.5,-5.71875 0.5,-4.828125 C 0.5,-4.28125 1,-4.28125 1.03125,-4.28125 C 1.203125,-4.28125 1.546875,-4.390625 1.546875,-4.8125 C 1.546875,-5.0625 1.359375,-5.328125 1.015625,-5.328125 C 0.9375,-5.328125 0.921875,-5.328125 0.890625,-5.3125 C 1.109375,-5.96875 1.65625,-6.328125 2.234375,-6.328125 C 3.140625,-6.328125 3.5625,-5.515625 3.5625,-4.703125 C 3.5625,-3.90625 3.078125,-3.125 2.515625,-2.5 L 0.609375,-0.375 C 0.5,-0.265625 0.5,-0.234375 0.5,0 L 4.203125,0 L 4.46875,-1.734375 z"
               style="stroke:none" />
          </symbol>
        </g>
      </defs>
      <g
         id="g22185">
        <g
           id="g22187"
           style="fill:#000000;fill-opacity:1">
          <use
             height="141.73228"
             width="372.04724"
             id="use22189"
             y="134.765"
             x="223.43201"
             xlink:href="#textext-e0ad40be-1" />
        </g>
        <g
           id="g22191"
           style="fill:#000000;fill-opacity:1">
          <use
             height="141.73228"
             width="372.04724"
             id="use22193"
             y="134.765"
             x="231.181"
             xlink:href="#textext-e0ad40be-3" />
        </g>
      </g>
    </g>
    <g
       id="g22309"
       transform="translate(-35.827275,-83.919256)"
       ns0:preamble="/home/raghu/TIFR/Curves-on-rational-and-unirational-surfaces/figures/preample.tex"
       ns0:text="$-(q_{2}+2)$">
      <defs
         id="defs22311">
        <g
           id="g22313">
          <symbol
             id="textext-d18ec4f2-0"
             overflow="visible"
             style="overflow:visible">
            <path
               id="path22316"
               d=""
               style="stroke:none" />
          </symbol>
          <symbol
             id="textext-d18ec4f2-1"
             overflow="visible"
             style="overflow:visible">
            <path
               id="path22319"
               d="M 6.59375,-2.296875 C 6.734375,-2.296875 6.921875,-2.296875 6.921875,-2.5 C 6.921875,-2.6875 6.734375,-2.6875 6.59375,-2.6875 L 1.15625,-2.6875 C 1.015625,-2.6875 0.828125,-2.6875 0.828125,-2.5 C 0.828125,-2.296875 1.015625,-2.296875 1.15625,-2.296875 L 6.59375,-2.296875 z"
               style="stroke:none" />
          </symbol>
          <symbol
             id="textext-d18ec4f2-2"
             overflow="visible"
             style="overflow:visible">
            <path
               id="path22322"
               d=""
               style="stroke:none" />
          </symbol>
          <symbol
             id="textext-d18ec4f2-3"
             overflow="visible"
             style="overflow:visible">
            <path
               id="path22325"
               d="M 3.296875,2.390625 C 3.296875,2.359375 3.296875,2.34375 3.125,2.171875 C 1.890625,0.921875 1.5625,-0.96875 1.5625,-2.5 C 1.5625,-4.234375 1.9375,-5.96875 3.171875,-7.203125 C 3.296875,-7.328125 3.296875,-7.34375 3.296875,-7.375 C 3.296875,-7.453125 3.265625,-7.484375 3.203125,-7.484375 C 3.09375,-7.484375 2.203125,-6.796875 1.609375,-5.53125 C 1.109375,-4.4375 0.984375,-3.328125 0.984375,-2.5 C 0.984375,-1.71875 1.09375,-0.515625 1.640625,0.625 C 2.25,1.84375 3.09375,2.5 3.203125,2.5 C 3.265625,2.5 3.296875,2.46875 3.296875,2.390625 z"
               style="stroke:none" />
          </symbol>
          <symbol
             id="textext-d18ec4f2-4"
             overflow="visible"
             style="overflow:visible">
            <path
               id="path22328"
               d="M 4.078125,-2.296875 L 6.859375,-2.296875 C 7,-2.296875 7.1875,-2.296875 7.1875,-2.5 C 7.1875,-2.6875 7,-2.6875 6.859375,-2.6875 L 4.078125,-2.6875 L 4.078125,-5.484375 C 4.078125,-5.625 4.078125,-5.8125 3.875,-5.8125 C 3.671875,-5.8125 3.671875,-5.625 3.671875,-5.484375 L 3.671875,-2.6875 L 0.890625,-2.6875 C 0.75,-2.6875 0.5625,-2.6875 0.5625,-2.5 C 0.5625,-2.296875 0.75,-2.296875 0.890625,-2.296875 L 3.671875,-2.296875 L 3.671875,0.5 C 3.671875,0.640625 3.671875,0.828125 3.875,0.828125 C 4.078125,0.828125 4.078125,0.640625 4.078125,0.5 L 4.078125,-2.296875 z"
               style="stroke:none" />
          </symbol>
          <symbol
             id="textext-d18ec4f2-5"
             overflow="visible"
             style="overflow:visible">
            <path
               id="path22331"
               d="M 4.46875,-1.734375 L 4.234375,-1.734375 C 4.171875,-1.4375 4.109375,-1 4,-0.84375 C 3.9375,-0.765625 3.28125,-0.765625 3.0625,-0.765625 L 1.265625,-0.765625 L 2.328125,-1.796875 C 3.875,-3.171875 4.46875,-3.703125 4.46875,-4.703125 C 4.46875,-5.84375 3.578125,-6.640625 2.359375,-6.640625 C 1.234375,-6.640625 0.5,-5.71875 0.5,-4.828125 C 0.5,-4.28125 1,-4.28125 1.03125,-4.28125 C 1.203125,-4.28125 1.546875,-4.390625 1.546875,-4.8125 C 1.546875,-5.0625 1.359375,-5.328125 1.015625,-5.328125 C 0.9375,-5.328125 0.921875,-5.328125 0.890625,-5.3125 C 1.109375,-5.96875 1.65625,-6.328125 2.234375,-6.328125 C 3.140625,-6.328125 3.5625,-5.515625 3.5625,-4.703125 C 3.5625,-3.90625 3.078125,-3.125 2.515625,-2.5 L 0.609375,-0.375 C 0.5,-0.265625 0.5,-0.234375 0.5,0 L 4.203125,0 L 4.46875,-1.734375 z"
               style="stroke:none" />
          </symbol>
          <symbol
             id="textext-d18ec4f2-6"
             overflow="visible"
             style="overflow:visible">
            <path
               id="path22334"
               d="M 2.875,-2.5 C 2.875,-3.265625 2.765625,-4.46875 2.21875,-5.609375 C 1.625,-6.828125 0.765625,-7.484375 0.671875,-7.484375 C 0.609375,-7.484375 0.5625,-7.4375 0.5625,-7.375 C 0.5625,-7.34375 0.5625,-7.328125 0.75,-7.140625 C 1.734375,-6.15625 2.296875,-4.578125 2.296875,-2.5 C 2.296875,-0.78125 1.9375,0.96875 0.703125,2.21875 C 0.5625,2.34375 0.5625,2.359375 0.5625,2.390625 C 0.5625,2.453125 0.609375,2.5 0.671875,2.5 C 0.765625,2.5 1.671875,1.8125 2.25,0.546875 C 2.765625,-0.546875 2.875,-1.65625 2.875,-2.5 z"
               style="stroke:none" />
          </symbol>
          <symbol
             id="textext-d18ec4f2-7"
             overflow="visible"
             style="overflow:visible">
            <path
               id="path22337"
               d=""
               style="stroke:none" />
          </symbol>
          <symbol
             id="textext-d18ec4f2-8"
             overflow="visible"
             style="overflow:visible">
            <path
               id="path22340"
               d="M 4.5,-4.296875 C 4.5,-4.34375 4.46875,-4.390625 4.40625,-4.390625 C 4.296875,-4.390625 3.890625,-4 3.734375,-3.703125 C 3.515625,-4.25 3.125,-4.40625 2.796875,-4.40625 C 1.625,-4.40625 0.40625,-2.9375 0.40625,-1.484375 C 0.40625,-0.515625 0.984375,0.109375 1.71875,0.109375 C 2.140625,0.109375 2.53125,-0.125 2.890625,-0.484375 C 2.796875,-0.140625 2.46875,1.203125 2.4375,1.296875 C 2.359375,1.578125 2.28125,1.609375 1.71875,1.625 C 1.59375,1.625 1.5,1.625 1.5,1.828125 C 1.5,1.828125 1.5,1.9375 1.625,1.9375 C 1.9375,1.9375 2.296875,1.90625 2.625,1.90625 C 2.953125,1.90625 3.3125,1.9375 3.65625,1.9375 C 3.703125,1.9375 3.828125,1.9375 3.828125,1.734375 C 3.828125,1.625 3.734375,1.625 3.5625,1.625 C 3.09375,1.625 3.09375,1.5625 3.09375,1.46875 C 3.09375,1.390625 3.109375,1.328125 3.125,1.25 L 4.5,-4.296875 z M 1.75,-0.109375 C 1.140625,-0.109375 1.109375,-0.875 1.109375,-1.046875 C 1.109375,-1.53125 1.390625,-2.609375 1.5625,-3.03125 C 1.875,-3.765625 2.390625,-4.1875 2.796875,-4.1875 C 3.453125,-4.1875 3.59375,-3.375 3.59375,-3.3125 C 3.59375,-3.25 3.046875,-1.0625 3.015625,-1.03125 C 2.859375,-0.75 2.296875,-0.109375 1.75,-0.109375 z"
               style="stroke:none" />
          </symbol>
          <symbol
             id="textext-d18ec4f2-9"
             overflow="visible"
             style="overflow:visible">
            <path
               id="path22343"
               d=""
               style="stroke:none" />
          </symbol>
          <symbol
             id="textext-d18ec4f2-10"
             overflow="visible"
             style="overflow:visible">
            <path
               id="path22346"
               d="M 3.515625,-1.265625 L 3.28125,-1.265625 C 3.265625,-1.109375 3.1875,-0.703125 3.09375,-0.640625 C 3.046875,-0.59375 2.515625,-0.59375 2.40625,-0.59375 L 1.125,-0.59375 C 1.859375,-1.234375 2.109375,-1.4375 2.515625,-1.765625 C 3.03125,-2.171875 3.515625,-2.609375 3.515625,-3.265625 C 3.515625,-4.109375 2.78125,-4.625 1.890625,-4.625 C 1.03125,-4.625 0.4375,-4.015625 0.4375,-3.375 C 0.4375,-3.03125 0.734375,-2.984375 0.8125,-2.984375 C 0.96875,-2.984375 1.171875,-3.109375 1.171875,-3.359375 C 1.171875,-3.484375 1.125,-3.734375 0.765625,-3.734375 C 0.984375,-4.21875 1.453125,-4.375 1.78125,-4.375 C 2.484375,-4.375 2.84375,-3.828125 2.84375,-3.265625 C 2.84375,-2.65625 2.40625,-2.1875 2.1875,-1.9375 L 0.515625,-0.265625 C 0.4375,-0.203125 0.4375,-0.1875 0.4375,0 L 3.3125,0 L 3.515625,-1.265625 z"
               style="stroke:none" />
          </symbol>
        </g>
      </defs>
      <g
         id="textext-d18ec4f2-11">
        <g
           id="g22349"
           style="fill:#000000;fill-opacity:1">
          <use
             id="use22351"
             y="134.765"
             x="223.43201"
             xlink:href="#textext-d18ec4f2-1"
             width="372.04724"
             height="141.73228" />
        </g>
        <g
           id="g22353"
           style="fill:#000000;fill-opacity:1">
          <use
             id="use22355"
             y="134.765"
             x="231.181"
             xlink:href="#textext-d18ec4f2-3"
             width="372.04724"
             height="141.73228" />
        </g>
        <g
           id="g22357"
           style="fill:#000000;fill-opacity:1">
          <use
             id="use22359"
             y="134.765"
             x="235.05499"
             xlink:href="#textext-d18ec4f2-8"
             width="372.04724"
             height="141.73228" />
        </g>
        <g
           id="g22361"
           style="fill:#000000;fill-opacity:1">
          <use
             id="use22363"
             y="136.259"
             x="239.50301"
             xlink:href="#textext-d18ec4f2-10"
             width="372.04724"
             height="141.73228" />
        </g>
        <g
           id="g22365"
           style="fill:#000000;fill-opacity:1">
          <use
             id="use22367"
             y="134.765"
             x="246.186"
             xlink:href="#textext-d18ec4f2-4"
             width="372.04724"
             height="141.73228" />
        </g>
        <g
           id="g22369"
           style="fill:#000000;fill-opacity:1">
          <use
             id="use22371"
             y="134.765"
             x="256.14661"
             xlink:href="#textext-d18ec4f2-5"
             width="372.04724"
             height="141.73228" />
          <use
             id="use22373"
             y="134.765"
             x="261.1279"
             xlink:href="#textext-d18ec4f2-6"
             width="372.04724"
             height="141.73228" />
        </g>
      </g>
    </g>
    <g
       ns0:text="$-1$"
       ns0:preamble="/home/raghu/TIFR/Curves-on-rational-and-unirational-surfaces/figures/preample.tex"
       transform="translate(73.76107,-82.330911)"
       id="g22647">
      <defs
         id="defs22649">
        <g
           id="g22651">
          <symbol
             overflow="visible"
             id="textext-26a98741-0">
            <path
               style="stroke:none;"
               d=""
               id="path22654" />
          </symbol>
          <symbol
             overflow="visible"
             id="textext-26a98741-1">
            <path
               style="stroke:none;"
               d="M 6.59375 -2.296875 C 6.734375 -2.296875 6.921875 -2.296875 6.921875 -2.5 C 6.921875 -2.6875 6.734375 -2.6875 6.59375 -2.6875 L 1.15625 -2.6875 C 1.015625 -2.6875 0.828125 -2.6875 0.828125 -2.5 C 0.828125 -2.296875 1.015625 -2.296875 1.15625 -2.296875 L 6.59375 -2.296875 Z M 6.59375 -2.296875 "
               id="path22657" />
          </symbol>
          <symbol
             overflow="visible"
             id="textext-26a98741-2">
            <path
               style="stroke:none;"
               d=""
               id="path22660" />
          </symbol>
          <symbol
             overflow="visible"
             id="textext-26a98741-3">
            <path
               style="stroke:none;"
               d="M 2.9375 -6.375 C 2.9375 -6.625 2.9375 -6.640625 2.703125 -6.640625 C 2.078125 -6 1.203125 -6 0.890625 -6 L 0.890625 -5.6875 C 1.09375 -5.6875 1.671875 -5.6875 2.1875 -5.953125 L 2.1875 -0.78125 C 2.1875 -0.421875 2.15625 -0.3125 1.265625 -0.3125 L 0.953125 -0.3125 L 0.953125 0 C 1.296875 -0.03125 2.15625 -0.03125 2.5625 -0.03125 C 2.953125 -0.03125 3.828125 -0.03125 4.171875 0 L 4.171875 -0.3125 L 3.859375 -0.3125 C 2.953125 -0.3125 2.9375 -0.421875 2.9375 -0.78125 L 2.9375 -6.375 Z M 2.9375 -6.375 "
               id="path22663" />
          </symbol>
        </g>
      </defs>
      <g
         id="textext-26a98741-4">
        <g
           style="fill:rgb(0%,0%,0%);fill-opacity:1;"
           id="g22666">
          <use
             xlink:href="#textext-26a98741-1"
             x="223.432"
             y="134.765"
             id="use22668" />
        </g>
        <g
           style="fill:rgb(0%,0%,0%);fill-opacity:1;"
           id="g22670">
          <use
             xlink:href="#textext-26a98741-3"
             x="231.181"
             y="134.765"
             id="use22672" />
        </g>
      </g>
    </g>
    <g
       id="g22978"
       transform="translate(76.172725,-56.330911)"
       ns0:preamble="/home/raghu/TIFR/Curves-on-rational-and-unirational-surfaces/figures/preample.tex"
       ns0:text="$S_{2}$">
      <defs
         id="defs22980">
        <g
           id="g22982">
          <symbol
             id="textext-c2e92fca-0"
             overflow="visible"
             style="overflow:visible">
            <path
               id="path22985"
               d=""
               style="stroke:none" />
          </symbol>
          <symbol
             id="textext-c2e92fca-1"
             overflow="visible"
             style="overflow:visible">
            <path
               id="path22988"
               d="M 6.4375,-6.921875 C 6.4375,-6.953125 6.40625,-7.03125 6.3125,-7.03125 C 6.265625,-7.03125 6.265625,-7.015625 6.140625,-6.875 L 5.65625,-6.3125 C 5.40625,-6.78125 4.890625,-7.03125 4.234375,-7.03125 C 2.96875,-7.03125 1.78125,-5.875 1.78125,-4.671875 C 1.78125,-3.875 2.296875,-3.40625 2.8125,-3.265625 L 3.875,-2.984375 C 4.25,-2.890625 4.796875,-2.734375 4.796875,-1.921875 C 4.796875,-1.03125 3.984375,-0.09375 3,-0.09375 C 2.359375,-0.09375 1.25,-0.3125 1.25,-1.546875 C 1.25,-1.78125 1.3125,-2.03125 1.3125,-2.078125 C 1.328125,-2.125 1.328125,-2.140625 1.328125,-2.15625 C 1.328125,-2.25 1.265625,-2.265625 1.21875,-2.265625 C 1.171875,-2.265625 1.140625,-2.25 1.109375,-2.21875 C 1.078125,-2.1875 0.515625,0.09375 0.515625,0.125 C 0.515625,0.171875 0.5625,0.21875 0.625,0.21875 C 0.671875,0.21875 0.6875,0.203125 0.8125,0.0625 L 1.296875,-0.5 C 1.71875,0.078125 2.40625,0.21875 2.984375,0.21875 C 4.34375,0.21875 5.515625,-1.109375 5.515625,-2.34375 C 5.515625,-3.03125 5.171875,-3.375 5.03125,-3.515625 C 4.796875,-3.734375 4.640625,-3.78125 3.765625,-4 C 3.53125,-4.0625 3.1875,-4.171875 3.09375,-4.1875 C 2.828125,-4.28125 2.484375,-4.5625 2.484375,-5.09375 C 2.484375,-5.90625 3.28125,-6.75 4.234375,-6.75 C 5.046875,-6.75 5.65625,-6.3125 5.65625,-5.203125 C 5.65625,-4.890625 5.625,-4.703125 5.625,-4.640625 C 5.625,-4.640625 5.625,-4.546875 5.734375,-4.546875 C 5.84375,-4.546875 5.859375,-4.578125 5.890625,-4.75 L 6.4375,-6.921875 z"
               style="stroke:none" />
          </symbol>
          <symbol
             id="textext-c2e92fca-2"
             overflow="visible"
             style="overflow:visible">
            <path
               id="path22991"
               d=""
               style="stroke:none" />
          </symbol>
          <symbol
             id="textext-c2e92fca-3"
             overflow="visible"
             style="overflow:visible">
            <path
               id="path22994"
               d="M 3.515625,-1.265625 L 3.28125,-1.265625 C 3.265625,-1.109375 3.1875,-0.703125 3.09375,-0.640625 C 3.046875,-0.59375 2.515625,-0.59375 2.40625,-0.59375 L 1.125,-0.59375 C 1.859375,-1.234375 2.109375,-1.4375 2.515625,-1.765625 C 3.03125,-2.171875 3.515625,-2.609375 3.515625,-3.265625 C 3.515625,-4.109375 2.78125,-4.625 1.890625,-4.625 C 1.03125,-4.625 0.4375,-4.015625 0.4375,-3.375 C 0.4375,-3.03125 0.734375,-2.984375 0.8125,-2.984375 C 0.96875,-2.984375 1.171875,-3.109375 1.171875,-3.359375 C 1.171875,-3.484375 1.125,-3.734375 0.765625,-3.734375 C 0.984375,-4.21875 1.453125,-4.375 1.78125,-4.375 C 2.484375,-4.375 2.84375,-3.828125 2.84375,-3.265625 C 2.84375,-2.65625 2.40625,-2.1875 2.1875,-1.9375 L 0.515625,-0.265625 C 0.4375,-0.203125 0.4375,-0.1875 0.4375,0 L 3.3125,0 L 3.515625,-1.265625 z"
               style="stroke:none" />
          </symbol>
        </g>
      </defs>
      <g
         id="textext-c2e92fca-4">
        <g
           id="g22997"
           style="fill:#000000;fill-opacity:1">
          <use
             id="use22999"
             y="134.765"
             x="223.43201"
             xlink:href="#textext-c2e92fca-1"
             width="372.04724"
             height="141.73228" />
        </g>
        <g
           id="g23001"
           style="fill:#000000;fill-opacity:1">
          <use
             id="use23003"
             y="136.259"
             x="229.541"
             xlink:href="#textext-c2e92fca-3"
             width="372.04724"
             height="141.73228" />
        </g>
      </g>
    </g>
    <g
       transform="translate(27.580856,-69.981276)"
       ns0:text="$H_{2}$"
       ns0:preamble="/home/raghu/TIFR/Curves-on-rational-and-unirational-surfaces/figures/preample.tex"
       id="g23309">
      <defs
         id="defs23311">
        <g
           id="g23313">
          <symbol
             style="overflow:visible"
             overflow="visible"
             id="textext-de425cb9-0">
            <path
               style="stroke:none"
               d=""
               id="path23316" />
          </symbol>
          <symbol
             style="overflow:visible"
             overflow="visible"
             id="textext-de425cb9-1">
            <path
               style="stroke:none"
               d="M 7.609375,-6.046875 C 7.703125,-6.40625 7.71875,-6.5 8.4375,-6.5 C 8.703125,-6.5 8.78125,-6.5 8.78125,-6.703125 C 8.78125,-6.8125 8.671875,-6.8125 8.640625,-6.8125 C 8.359375,-6.8125 7.640625,-6.78125 7.359375,-6.78125 C 7.078125,-6.78125 6.375,-6.8125 6.078125,-6.8125 C 6,-6.8125 5.890625,-6.8125 5.890625,-6.609375 C 5.890625,-6.5 5.984375,-6.5 6.171875,-6.5 C 6.1875,-6.5 6.375,-6.5 6.546875,-6.484375 C 6.734375,-6.453125 6.8125,-6.453125 6.8125,-6.3125 C 6.8125,-6.28125 6.8125,-6.265625 6.78125,-6.125 L 6.1875,-3.703125 L 3.140625,-3.703125 L 3.734375,-6.046875 C 3.8125,-6.40625 3.84375,-6.5 4.5625,-6.5 C 4.828125,-6.5 4.90625,-6.5 4.90625,-6.703125 C 4.90625,-6.8125 4.796875,-6.8125 4.765625,-6.8125 C 4.484375,-6.8125 3.765625,-6.78125 3.484375,-6.78125 C 3.203125,-6.78125 2.5,-6.8125 2.203125,-6.8125 C 2.125,-6.8125 2.015625,-6.8125 2.015625,-6.609375 C 2.015625,-6.5 2.109375,-6.5 2.296875,-6.5 C 2.3125,-6.5 2.5,-6.5 2.671875,-6.484375 C 2.84375,-6.453125 2.9375,-6.453125 2.9375,-6.3125 C 2.9375,-6.28125 2.9375,-6.25 2.90625,-6.125 L 1.5625,-0.78125 C 1.46875,-0.390625 1.453125,-0.3125 0.65625,-0.3125 C 0.484375,-0.3125 0.390625,-0.3125 0.390625,-0.109375 C 0.390625,0 0.515625,0 0.53125,0 C 0.8125,0 1.515625,-0.03125 1.796875,-0.03125 C 2,-0.03125 2.21875,-0.015625 2.4375,-0.015625 C 2.65625,-0.015625 2.875,0 3.078125,0 C 3.15625,0 3.28125,0 3.28125,-0.203125 C 3.28125,-0.3125 3.1875,-0.3125 3,-0.3125 C 2.625,-0.3125 2.359375,-0.3125 2.359375,-0.484375 C 2.359375,-0.546875 2.375,-0.59375 2.375,-0.65625 L 3.0625,-3.390625 L 6.09375,-3.390625 C 5.6875,-1.734375 5.453125,-0.78125 5.40625,-0.640625 C 5.3125,-0.3125 5.125,-0.3125 4.5,-0.3125 C 4.359375,-0.3125 4.265625,-0.3125 4.265625,-0.109375 C 4.265625,0 4.390625,0 4.40625,0 C 4.6875,0 5.390625,-0.03125 5.671875,-0.03125 C 5.875,-0.03125 6.09375,-0.015625 6.3125,-0.015625 C 6.53125,-0.015625 6.75,0 6.953125,0 C 7.03125,0 7.15625,0 7.15625,-0.203125 C 7.15625,-0.3125 7.0625,-0.3125 6.875,-0.3125 C 6.515625,-0.3125 6.234375,-0.3125 6.234375,-0.484375 C 6.234375,-0.546875 6.25,-0.59375 6.265625,-0.65625 L 7.609375,-6.046875 z"
               id="path23319" />
          </symbol>
          <symbol
             style="overflow:visible"
             overflow="visible"
             id="textext-de425cb9-2">
            <path
               style="stroke:none"
               d=""
               id="path23322" />
          </symbol>
          <symbol
             style="overflow:visible"
             overflow="visible"
             id="textext-de425cb9-3">
            <path
               style="stroke:none"
               d="M 3.515625,-1.265625 L 3.28125,-1.265625 C 3.265625,-1.109375 3.1875,-0.703125 3.09375,-0.640625 C 3.046875,-0.59375 2.515625,-0.59375 2.40625,-0.59375 L 1.125,-0.59375 C 1.859375,-1.234375 2.109375,-1.4375 2.515625,-1.765625 C 3.03125,-2.171875 3.515625,-2.609375 3.515625,-3.265625 C 3.515625,-4.109375 2.78125,-4.625 1.890625,-4.625 C 1.03125,-4.625 0.4375,-4.015625 0.4375,-3.375 C 0.4375,-3.03125 0.734375,-2.984375 0.8125,-2.984375 C 0.96875,-2.984375 1.171875,-3.109375 1.171875,-3.359375 C 1.171875,-3.484375 1.125,-3.734375 0.765625,-3.734375 C 0.984375,-4.21875 1.453125,-4.375 1.78125,-4.375 C 2.484375,-4.375 2.84375,-3.828125 2.84375,-3.265625 C 2.84375,-2.65625 2.40625,-2.1875 2.1875,-1.9375 L 0.515625,-0.265625 C 0.4375,-0.203125 0.4375,-0.1875 0.4375,0 L 3.3125,0 L 3.515625,-1.265625 z"
               id="path23325" />
          </symbol>
        </g>
      </defs>
      <g
         id="textext-de425cb9-4">
        <g
           style="fill:#000000;fill-opacity:1"
           id="g23328">
          <use
             height="141.73228"
             width="372.04724"
             xlink:href="#textext-de425cb9-1"
             x="223.43201"
             y="134.765"
             id="use23330" />
        </g>
        <g
           style="fill:#000000;fill-opacity:1"
           id="g23332">
          <use
             height="141.73228"
             width="372.04724"
             xlink:href="#textext-de425cb9-3"
             x="231.714"
             y="136.259"
             id="use23334" />
        </g>
      </g>
    </g>
    <g
       id="g23672"
       ns0:preamble="/home/raghu/TIFR/Curves-on-rational-and-unirational-surfaces/figures/preample.tex"
       ns0:text="$C_{2}$"
       transform="translate(-202.47579,-55.98502)">
      <defs
         id="defs23674">
        <g
           id="g23676">
          <symbol
             id="textext-b51923ae-0"
             overflow="visible"
             style="overflow:visible">
            <path
               id="path23679"
               d=""
               style="stroke:none" />
          </symbol>
          <symbol
             id="textext-b51923ae-1"
             overflow="visible"
             style="overflow:visible">
            <path
               id="path23682"
               d="M 7.578125,-6.921875 C 7.578125,-6.953125 7.5625,-7.03125 7.46875,-7.03125 C 7.4375,-7.03125 7.421875,-7.015625 7.3125,-6.90625 L 6.625,-6.140625 C 6.53125,-6.28125 6.078125,-7.03125 4.96875,-7.03125 C 2.734375,-7.03125 0.5,-4.828125 0.5,-2.515625 C 0.5,-0.875 1.671875,0.21875 3.203125,0.21875 C 4.0625,0.21875 4.828125,-0.171875 5.359375,-0.640625 C 6.28125,-1.453125 6.453125,-2.359375 6.453125,-2.390625 C 6.453125,-2.5 6.34375,-2.5 6.328125,-2.5 C 6.265625,-2.5 6.21875,-2.46875 6.203125,-2.390625 C 6.109375,-2.109375 5.875,-1.390625 5.1875,-0.8125 C 4.5,-0.265625 3.875,-0.09375 3.359375,-0.09375 C 2.46875,-0.09375 1.40625,-0.609375 1.40625,-2.15625 C 1.40625,-2.734375 1.609375,-4.34375 2.609375,-5.515625 C 3.21875,-6.21875 4.15625,-6.71875 5.046875,-6.71875 C 6.0625,-6.71875 6.65625,-5.953125 6.65625,-4.796875 C 6.65625,-4.390625 6.625,-4.390625 6.625,-4.28125 C 6.625,-4.1875 6.734375,-4.1875 6.765625,-4.1875 C 6.890625,-4.1875 6.890625,-4.203125 6.953125,-4.390625 L 7.578125,-6.921875 z"
               style="stroke:none" />
          </symbol>
          <symbol
             id="textext-b51923ae-2"
             overflow="visible"
             style="overflow:visible">
            <path
               id="path23685"
               d=""
               style="stroke:none" />
          </symbol>
          <symbol
             id="textext-b51923ae-3"
             overflow="visible"
             style="overflow:visible">
            <path
               id="path23688"
               d="M 3.515625,-1.265625 L 3.28125,-1.265625 C 3.265625,-1.109375 3.1875,-0.703125 3.09375,-0.640625 C 3.046875,-0.59375 2.515625,-0.59375 2.40625,-0.59375 L 1.125,-0.59375 C 1.859375,-1.234375 2.109375,-1.4375 2.515625,-1.765625 C 3.03125,-2.171875 3.515625,-2.609375 3.515625,-3.265625 C 3.515625,-4.109375 2.78125,-4.625 1.890625,-4.625 C 1.03125,-4.625 0.4375,-4.015625 0.4375,-3.375 C 0.4375,-3.03125 0.734375,-2.984375 0.8125,-2.984375 C 0.96875,-2.984375 1.171875,-3.109375 1.171875,-3.359375 C 1.171875,-3.484375 1.125,-3.734375 0.765625,-3.734375 C 0.984375,-4.21875 1.453125,-4.375 1.78125,-4.375 C 2.484375,-4.375 2.84375,-3.828125 2.84375,-3.265625 C 2.84375,-2.65625 2.40625,-2.1875 2.1875,-1.9375 L 0.515625,-0.265625 C 0.4375,-0.203125 0.4375,-0.1875 0.4375,0 L 3.3125,0 L 3.515625,-1.265625 z"
               style="stroke:none" />
          </symbol>
        </g>
      </defs>
      <g
         id="textext-b51923ae-4">
        <g
           id="g23691"
           style="fill:#000000;fill-opacity:1">
          <use
             id="use23693"
             y="134.765"
             x="223.43201"
             xlink:href="#textext-b51923ae-1"
             width="372.04724"
             height="141.73228" />
        </g>
        <g
           id="g23695"
           style="fill:#000000;fill-opacity:1">
          <use
             id="use23697"
             y="136.259"
             x="230.55299"
             xlink:href="#textext-b51923ae-3"
             width="372.04724"
             height="141.73228" />
        </g>
      </g>
    </g>
    <g
       transform="translate(-115.26328,-36.225601)"
       ns0:text="$q_{1-1}$"
       ns0:preamble="/home/raghu/TIFR/Curves-on-rational-and-unirational-surfaces/figures/preample.tex"
       id="g24067">
      <defs
         id="defs24069">
        <g
           id="g24071">
          <symbol
             style="overflow:visible"
             overflow="visible"
             id="textext-e4c90f68-0">
            <path
               style="stroke:none"
               d=""
               id="path24074" />
          </symbol>
          <symbol
             style="overflow:visible"
             overflow="visible"
             id="textext-e4c90f68-1">
            <path
               style="stroke:none"
               d="M 4.5,-4.296875 C 4.5,-4.34375 4.46875,-4.390625 4.40625,-4.390625 C 4.296875,-4.390625 3.890625,-4 3.734375,-3.703125 C 3.515625,-4.25 3.125,-4.40625 2.796875,-4.40625 C 1.625,-4.40625 0.40625,-2.9375 0.40625,-1.484375 C 0.40625,-0.515625 0.984375,0.109375 1.71875,0.109375 C 2.140625,0.109375 2.53125,-0.125 2.890625,-0.484375 C 2.796875,-0.140625 2.46875,1.203125 2.4375,1.296875 C 2.359375,1.578125 2.28125,1.609375 1.71875,1.625 C 1.59375,1.625 1.5,1.625 1.5,1.828125 C 1.5,1.828125 1.5,1.9375 1.625,1.9375 C 1.9375,1.9375 2.296875,1.90625 2.625,1.90625 C 2.953125,1.90625 3.3125,1.9375 3.65625,1.9375 C 3.703125,1.9375 3.828125,1.9375 3.828125,1.734375 C 3.828125,1.625 3.734375,1.625 3.5625,1.625 C 3.09375,1.625 3.09375,1.5625 3.09375,1.46875 C 3.09375,1.390625 3.109375,1.328125 3.125,1.25 L 4.5,-4.296875 z M 1.75,-0.109375 C 1.140625,-0.109375 1.109375,-0.875 1.109375,-1.046875 C 1.109375,-1.53125 1.390625,-2.609375 1.5625,-3.03125 C 1.875,-3.765625 2.390625,-4.1875 2.796875,-4.1875 C 3.453125,-4.1875 3.59375,-3.375 3.59375,-3.3125 C 3.59375,-3.25 3.046875,-1.0625 3.015625,-1.03125 C 2.859375,-0.75 2.296875,-0.109375 1.75,-0.109375 z"
               id="path24077" />
          </symbol>
          <symbol
             style="overflow:visible"
             overflow="visible"
             id="textext-e4c90f68-2">
            <path
               style="stroke:none"
               d=""
               id="path24080" />
          </symbol>
          <symbol
             style="overflow:visible"
             overflow="visible"
             id="textext-e4c90f68-3">
            <path
               style="stroke:none"
               d="M 2.328125,-4.4375 C 2.328125,-4.625 2.328125,-4.625 2.125,-4.625 C 1.671875,-4.1875 1.046875,-4.1875 0.765625,-4.1875 L 0.765625,-3.9375 C 0.921875,-3.9375 1.390625,-3.9375 1.765625,-4.125 L 1.765625,-0.578125 C 1.765625,-0.34375 1.765625,-0.25 1.078125,-0.25 L 0.8125,-0.25 L 0.8125,0 C 0.9375,0 1.796875,-0.03125 2.046875,-0.03125 C 2.265625,-0.03125 3.140625,0 3.296875,0 L 3.296875,-0.25 L 3.03125,-0.25 C 2.328125,-0.25 2.328125,-0.34375 2.328125,-0.578125 L 2.328125,-4.4375 z"
               id="path24083" />
          </symbol>
          <symbol
             style="overflow:visible"
             overflow="visible"
             id="textext-e4c90f68-4">
            <path
               style="stroke:none"
               d=""
               id="path24086" />
          </symbol>
          <symbol
             style="overflow:visible"
             overflow="visible"
             id="textext-e4c90f68-5">
            <path
               style="stroke:none"
               d="M 5.203125,-1.578125 C 5.296875,-1.578125 5.46875,-1.578125 5.46875,-1.734375 C 5.46875,-1.921875 5.296875,-1.921875 5.203125,-1.921875 L 1.015625,-1.921875 C 0.90625,-1.921875 0.75,-1.921875 0.75,-1.734375 C 0.75,-1.578125 0.921875,-1.578125 1.015625,-1.578125 L 5.203125,-1.578125 z"
               id="path24089" />
          </symbol>
        </g>
      </defs>
      <g
         id="textext-e4c90f68-6">
        <g
           style="fill:#000000;fill-opacity:1"
           id="g24092">
          <use
             height="141.73228"
             width="372.04724"
             xlink:href="#textext-e4c90f68-1"
             x="223.43201"
             y="134.765"
             id="use24094" />
        </g>
        <g
           style="fill:#000000;fill-opacity:1"
           id="g24096">
          <use
             height="141.73228"
             width="372.04724"
             xlink:href="#textext-e4c90f68-3"
             x="227.88"
             y="136.259"
             id="use24098" />
        </g>
        <g
           style="fill:#000000;fill-opacity:1"
           id="g24100">
          <use
             height="141.73228"
             width="372.04724"
             xlink:href="#textext-e4c90f68-5"
             x="231.851"
             y="136.259"
             id="use24102" />
        </g>
        <g
           style="fill:#000000;fill-opacity:1"
           id="g24104">
          <use
             height="141.73228"
             width="372.04724"
             xlink:href="#textext-e4c90f68-3"
             x="238.077"
             y="136.259"
             id="use24106" />
        </g>
      </g>
    </g>
    <g
       id="g24524"
       ns0:preamble="/home/raghu/TIFR/Curves-on-rational-and-unirational-surfaces/figures/preample.tex"
       ns0:text="$G_{2}$"
       transform="translate(-63.394802,1.2932365)">
      <defs
         id="defs24526">
        <g
           id="g24528">
          <symbol
             id="textext-19389559-0"
             overflow="visible"
             style="overflow:visible">
            <path
               id="path24531"
               d=""
               style="stroke:none" />
          </symbol>
          <symbol
             id="textext-19389559-1"
             overflow="visible"
             style="overflow:visible">
            <path
               id="path24534"
               d="M 7.578125,-6.921875 C 7.578125,-6.953125 7.5625,-7.03125 7.46875,-7.03125 C 7.4375,-7.03125 7.421875,-7.015625 7.3125,-6.90625 L 6.625,-6.140625 C 6.53125,-6.28125 6.078125,-7.03125 4.96875,-7.03125 C 2.734375,-7.03125 0.5,-4.828125 0.5,-2.515625 C 0.5,-0.921875 1.609375,0.21875 3.21875,0.21875 C 3.65625,0.21875 4.109375,0.125 4.46875,-0.015625 C 4.96875,-0.21875 5.15625,-0.421875 5.328125,-0.625 C 5.421875,-0.375 5.6875,-0.015625 5.78125,-0.015625 C 5.828125,-0.015625 5.859375,-0.046875 5.859375,-0.046875 C 5.875,-0.0625 5.96875,-0.453125 6.015625,-0.65625 L 6.203125,-1.421875 C 6.25,-1.59375 6.296875,-1.765625 6.34375,-1.9375 C 6.453125,-2.375 6.453125,-2.40625 7.03125,-2.40625 C 7.078125,-2.40625 7.1875,-2.421875 7.1875,-2.609375 C 7.1875,-2.6875 7.140625,-2.71875 7.0625,-2.71875 C 6.828125,-2.71875 6.234375,-2.6875 6.015625,-2.6875 C 5.703125,-2.6875 4.921875,-2.71875 4.609375,-2.71875 C 4.53125,-2.71875 4.40625,-2.71875 4.40625,-2.515625 C 4.40625,-2.40625 4.484375,-2.40625 4.703125,-2.40625 C 4.71875,-2.40625 5,-2.40625 5.234375,-2.390625 C 5.5,-2.359375 5.546875,-2.328125 5.546875,-2.203125 C 5.546875,-2.109375 5.4375,-1.671875 5.328125,-1.296875 C 5.046875,-0.203125 3.765625,-0.09375 3.40625,-0.09375 C 2.453125,-0.09375 1.40625,-0.65625 1.40625,-2.1875 C 1.40625,-2.5 1.5,-4.140625 2.546875,-5.4375 C 3.09375,-6.109375 4.0625,-6.71875 5.046875,-6.71875 C 6.0625,-6.71875 6.65625,-5.953125 6.65625,-4.796875 C 6.65625,-4.390625 6.625,-4.390625 6.625,-4.28125 C 6.625,-4.1875 6.734375,-4.1875 6.765625,-4.1875 C 6.890625,-4.1875 6.890625,-4.203125 6.953125,-4.390625 L 7.578125,-6.921875 z"
               style="stroke:none" />
          </symbol>
          <symbol
             id="textext-19389559-2"
             overflow="visible"
             style="overflow:visible">
            <path
               id="path24537"
               d=""
               style="stroke:none" />
          </symbol>
          <symbol
             id="textext-19389559-3"
             overflow="visible"
             style="overflow:visible">
            <path
               id="path24540"
               d="M 3.515625,-1.265625 L 3.28125,-1.265625 C 3.265625,-1.109375 3.1875,-0.703125 3.09375,-0.640625 C 3.046875,-0.59375 2.515625,-0.59375 2.40625,-0.59375 L 1.125,-0.59375 C 1.859375,-1.234375 2.109375,-1.4375 2.515625,-1.765625 C 3.03125,-2.171875 3.515625,-2.609375 3.515625,-3.265625 C 3.515625,-4.109375 2.78125,-4.625 1.890625,-4.625 C 1.03125,-4.625 0.4375,-4.015625 0.4375,-3.375 C 0.4375,-3.03125 0.734375,-2.984375 0.8125,-2.984375 C 0.96875,-2.984375 1.171875,-3.109375 1.171875,-3.359375 C 1.171875,-3.484375 1.125,-3.734375 0.765625,-3.734375 C 0.984375,-4.21875 1.453125,-4.375 1.78125,-4.375 C 2.484375,-4.375 2.84375,-3.828125 2.84375,-3.265625 C 2.84375,-2.65625 2.40625,-2.1875 2.1875,-1.9375 L 0.515625,-0.265625 C 0.4375,-0.203125 0.4375,-0.1875 0.4375,0 L 3.3125,0 L 3.515625,-1.265625 z"
               style="stroke:none" />
          </symbol>
        </g>
      </defs>
      <g
         id="textext-19389559-4">
        <g
           id="g24543"
           style="fill:#000000;fill-opacity:1">
          <use
             id="use24545"
             y="134.765"
             x="223.43201"
             xlink:href="#textext-19389559-1"
             width="372.04724"
             height="141.73228" />
        </g>
        <g
           id="g24547"
           style="fill:#000000;fill-opacity:1">
          <use
             id="use24549"
             y="136.259"
             x="231.265"
             xlink:href="#textext-19389559-3"
             width="372.04724"
             height="141.73228" />
        </g>
      </g>
    </g>
  </g>
</svg>
