<?xml version="1.0" encoding="UTF-8" standalone="no"?>
<!-- Created with Inkscape (http://www.inkscape.org/) -->
<svg
   xmlns:ns0="http://www.iki.fi/pav/software/textext/"
   xmlns:dc="http://purl.org/dc/elements/1.1/"
   xmlns:cc="http://creativecommons.org/ns#"
   xmlns:rdf="http://www.w3.org/1999/02/22-rdf-syntax-ns#"
   xmlns:svg="http://www.w3.org/2000/svg"
   xmlns="http://www.w3.org/2000/svg"
   xmlns:xlink="http://www.w3.org/1999/xlink"
   xmlns:sodipodi="http://sodipodi.sourceforge.net/DTD/sodipodi-0.dtd"
   xmlns:inkscape="http://www.inkscape.org/namespaces/inkscape"
   width="177.16534"
   height="159.44882"
   id="svg2"
   sodipodi:version="0.32"
   inkscape:version="0.46"
   version="1.0"
   sodipodi:docname="chap2-fig9.svg"
   inkscape:output_extension="org.inkscape.output.svg.inkscape">
  <sodipodi:namedview
     id="base"
     pagecolor="#ffffff"
     bordercolor="#666666"
     borderopacity="1.0"
     gridtolerance="10000"
     guidetolerance="10"
     objecttolerance="10"
     inkscape:pageopacity="0.0"
     inkscape:pageshadow="2"
     inkscape:zoom="2.8"
     inkscape:cx="101.28065"
     inkscape:cy="84.817101"
     inkscape:document-units="px"
     inkscape:current-layer="layer1"
     showgrid="false"
     units="cm"
     inkscape:window-width="964"
     inkscape:window-height="726"
     inkscape:window-x="50"
     inkscape:window-y="27" />
  <defs
     id="defs4">
    <inkscape:perspective
       sodipodi:type="inkscape:persp3d"
       inkscape:vp_x="0 : 526.18109 : 1"
       inkscape:vp_y="0 : 1000 : 0"
       inkscape:vp_z="744.09448 : 526.18109 : 1"
       inkscape:persp3d-origin="372.04724 : 350.78739 : 1"
       id="perspective10" />
  </defs>
  <metadata
     id="metadata7">
    <rdf:RDF>
      <cc:Work
         rdf:about="">
        <dc:format>image/svg+xml</dc:format>
        <dc:type
           rdf:resource="http://purl.org/dc/dcmitype/StillImage" />
      </cc:Work>
    </rdf:RDF>
  </metadata>
  <g
     inkscape:label="Layer 1"
     inkscape:groupmode="layer"
     id="layer1">
    <path
       style="fill:none;fill-rule:evenodd;stroke:#000000;stroke-width:1px;stroke-linecap:butt;stroke-linejoin:miter;stroke-opacity:1"
       d="M 53.571429,31.948822 L 8.9285714,118.73454"
       id="path2383" />
    <path
       style="fill:none;fill-rule:evenodd;stroke:#000000;stroke-width:1px;stroke-linecap:butt;stroke-linejoin:miter;stroke-opacity:1"
       d="M 116.78571,16.591679 L 175,114.80596"
       id="path2385" />
    <path
       style="fill:none;fill-rule:evenodd;stroke:#000000;stroke-width:1px;stroke-linecap:butt;stroke-linejoin:miter;stroke-opacity:1"
       d="M 33.571429,48.02025 L 130.35714,20.877393"
       id="path2387" />
    <path
       style="fill:none;fill-rule:evenodd;stroke:#000000;stroke-width:1px;stroke-linecap:butt;stroke-linejoin:miter;stroke-opacity:1"
       d="M 57.594157,74.748272 C 71.218439,66.59279 79.96836,42.132414 83.571429,34.805965 C 85.28326,57.093929 110.43753,92.651665 125.00001,95.163108"
       id="path2389"
       sodipodi:nodetypes="ccc" />
    <g
       transform="translate(-206.78571,-60.714286)"
       ns0:text="$-1$"
       ns0:preamble=""
       id="g2401">
      <defs
         id="defs2403">
        <g
           id="g2405">
          <symbol
             style="overflow:visible"
             overflow="visible"
             id="textext-108f8aa9-0">
            <path
               style="stroke:none"
               d=""
               id="path2408" />
          </symbol>
          <symbol
             style="overflow:visible"
             overflow="visible"
             id="textext-108f8aa9-1">
            <path
               style="stroke:none"
               d="M 6.59375,-2.296875 C 6.734375,-2.296875 6.921875,-2.296875 6.921875,-2.5 C 6.921875,-2.6875 6.734375,-2.6875 6.59375,-2.6875 L 1.15625,-2.6875 C 1.015625,-2.6875 0.828125,-2.6875 0.828125,-2.5 C 0.828125,-2.296875 1.015625,-2.296875 1.15625,-2.296875 L 6.59375,-2.296875 z"
               id="path2411" />
          </symbol>
          <symbol
             style="overflow:visible"
             overflow="visible"
             id="textext-108f8aa9-2">
            <path
               style="stroke:none"
               d=""
               id="path2414" />
          </symbol>
          <symbol
             style="overflow:visible"
             overflow="visible"
             id="textext-108f8aa9-3">
            <path
               style="stroke:none"
               d="M 2.9375,-6.375 C 2.9375,-6.625 2.9375,-6.640625 2.703125,-6.640625 C 2.078125,-6 1.203125,-6 0.890625,-6 L 0.890625,-5.6875 C 1.09375,-5.6875 1.671875,-5.6875 2.1875,-5.953125 L 2.1875,-0.78125 C 2.1875,-0.421875 2.15625,-0.3125 1.265625,-0.3125 L 0.953125,-0.3125 L 0.953125,0 C 1.296875,-0.03125 2.15625,-0.03125 2.5625,-0.03125 C 2.953125,-0.03125 3.828125,-0.03125 4.171875,0 L 4.171875,-0.3125 L 3.859375,-0.3125 C 2.953125,-0.3125 2.9375,-0.421875 2.9375,-0.78125 L 2.9375,-6.375 z"
               id="path2417" />
          </symbol>
        </g>
      </defs>
      <g
         id="textext-108f8aa9-4">
        <g
           style="fill:#000000;fill-opacity:1"
           id="g2420">
          <use
             height="159.44882"
             width="177.16534"
             xlink:href="#textext-108f8aa9-1"
             x="223.43201"
             y="134.765"
             id="use2422" />
        </g>
        <g
           style="fill:#000000;fill-opacity:1"
           id="g2424">
          <use
             height="159.44882"
             width="177.16534"
             xlink:href="#textext-108f8aa9-3"
             x="231.181"
             y="134.765"
             id="use2426" />
        </g>
      </g>
    </g>
    <g
       id="g2452"
       ns0:preamble=""
       ns0:text="$-1$"
       transform="translate(-162.78571,-102.71429)">
      <defs
         id="defs2454">
        <g
           id="g2456">
          <symbol
             id="symbol2458"
             overflow="visible"
             style="overflow:visible">
            <path
               id="path2460"
               d=""
               style="stroke:none" />
          </symbol>
          <symbol
             id="symbol2462"
             overflow="visible"
             style="overflow:visible">
            <path
               id="path2464"
               d="M 6.59375,-2.296875 C 6.734375,-2.296875 6.921875,-2.296875 6.921875,-2.5 C 6.921875,-2.6875 6.734375,-2.6875 6.59375,-2.6875 L 1.15625,-2.6875 C 1.015625,-2.6875 0.828125,-2.6875 0.828125,-2.5 C 0.828125,-2.296875 1.015625,-2.296875 1.15625,-2.296875 L 6.59375,-2.296875 z"
               style="stroke:none" />
          </symbol>
          <symbol
             id="symbol2466"
             overflow="visible"
             style="overflow:visible">
            <path
               id="path2468"
               d=""
               style="stroke:none" />
          </symbol>
          <symbol
             id="symbol2470"
             overflow="visible"
             style="overflow:visible">
            <path
               id="path2472"
               d="M 2.9375,-6.375 C 2.9375,-6.625 2.9375,-6.640625 2.703125,-6.640625 C 2.078125,-6 1.203125,-6 0.890625,-6 L 0.890625,-5.6875 C 1.09375,-5.6875 1.671875,-5.6875 2.1875,-5.953125 L 2.1875,-0.78125 C 2.1875,-0.421875 2.15625,-0.3125 1.265625,-0.3125 L 0.953125,-0.3125 L 0.953125,0 C 1.296875,-0.03125 2.15625,-0.03125 2.5625,-0.03125 C 2.953125,-0.03125 3.828125,-0.03125 4.171875,0 L 4.171875,-0.3125 L 3.859375,-0.3125 C 2.953125,-0.3125 2.9375,-0.421875 2.9375,-0.78125 L 2.9375,-6.375 z"
               style="stroke:none" />
          </symbol>
        </g>
      </defs>
      <g
         id="g2474">
        <g
           id="g2476"
           style="fill:#000000;fill-opacity:1">
          <use
             id="use2478"
             y="134.765"
             x="223.43201"
             xlink:href="#textext-108f8aa9-1"
             width="177.16534"
             height="159.44882" />
        </g>
        <g
           id="g2480"
           style="fill:#000000;fill-opacity:1">
          <use
             id="use2482"
             y="134.765"
             x="231.181"
             xlink:href="#textext-108f8aa9-3"
             width="177.16534"
             height="159.44882" />
        </g>
      </g>
    </g>
    <g
       id="g2558"
       transform="translate(-74.78571,-74.71429)"
       ns0:preamble=""
       ns0:text="$-2$">
      <defs
         id="defs2560">
        <g
           id="g2562">
          <symbol
             id="textext-e3869bf4-0"
             overflow="visible">
            <path
               id="path2565"
               d=""
               style="stroke:none;" />
          </symbol>
          <symbol
             id="textext-e3869bf4-1"
             overflow="visible">
            <path
               id="path2568"
               d="M 6.59375 -2.296875 C 6.734375 -2.296875 6.921875 -2.296875 6.921875 -2.5 C 6.921875 -2.6875 6.734375 -2.6875 6.59375 -2.6875 L 1.15625 -2.6875 C 1.015625 -2.6875 0.828125 -2.6875 0.828125 -2.5 C 0.828125 -2.296875 1.015625 -2.296875 1.15625 -2.296875 L 6.59375 -2.296875 Z M 6.59375 -2.296875 "
               style="stroke:none;" />
          </symbol>
          <symbol
             id="textext-e3869bf4-2"
             overflow="visible">
            <path
               id="path2571"
               d=""
               style="stroke:none;" />
          </symbol>
          <symbol
             id="textext-e3869bf4-3"
             overflow="visible">
            <path
               id="path2574"
               d="M 4.46875 -1.734375 L 4.234375 -1.734375 C 4.171875 -1.4375 4.109375 -1 4 -0.84375 C 3.9375 -0.765625 3.28125 -0.765625 3.0625 -0.765625 L 1.265625 -0.765625 L 2.328125 -1.796875 C 3.875 -3.171875 4.46875 -3.703125 4.46875 -4.703125 C 4.46875 -5.84375 3.578125 -6.640625 2.359375 -6.640625 C 1.234375 -6.640625 0.5 -5.71875 0.5 -4.828125 C 0.5 -4.28125 1 -4.28125 1.03125 -4.28125 C 1.203125 -4.28125 1.546875 -4.390625 1.546875 -4.8125 C 1.546875 -5.0625 1.359375 -5.328125 1.015625 -5.328125 C 0.9375 -5.328125 0.921875 -5.328125 0.890625 -5.3125 C 1.109375 -5.96875 1.65625 -6.328125 2.234375 -6.328125 C 3.140625 -6.328125 3.5625 -5.515625 3.5625 -4.703125 C 3.5625 -3.90625 3.078125 -3.125 2.515625 -2.5 L 0.609375 -0.375 C 0.5 -0.265625 0.5 -0.234375 0.5 0 L 4.203125 0 L 4.46875 -1.734375 Z M 4.46875 -1.734375 "
               style="stroke:none;" />
          </symbol>
        </g>
      </defs>
      <g
         id="textext-e3869bf4-4">
        <g
           id="g2577"
           style="fill:rgb(0%,0%,0%);fill-opacity:1;">
          <use
             id="use2579"
             y="134.765"
             x="223.432"
             xlink:href="#textext-e3869bf4-1" />
        </g>
        <g
           id="g2581"
           style="fill:rgb(0%,0%,0%);fill-opacity:1;">
          <use
             id="use2583"
             y="134.765"
             x="231.181"
             xlink:href="#textext-e3869bf4-3" />
        </g>
      </g>
    </g>
    <g
       transform="translate(-123.57143,-94.642857)"
       ns0:text="$\\ell^{(2)}_{2}$"
       ns0:preamble=""
       id="g2699">
      <defs
         id="defs2701">
        <g
           id="g2703">
          <symbol
             style="overflow:visible"
             overflow="visible"
             id="textext-7c7c443a-0">
            <path
               style="stroke:none"
               d=""
               id="path2706" />
          </symbol>
          <symbol
             style="overflow:visible"
             overflow="visible"
             id="textext-7c7c443a-1">
            <path
               style="stroke:none"
               d="M 0.15625,-0.984375 C 0.140625,-0.953125 0.109375,-0.921875 0.109375,-0.890625 C 0.109375,-0.84375 0.171875,-0.75 0.234375,-0.75 C 0.28125,-0.75 0.3125,-0.78125 0.59375,-1.0625 C 0.671875,-1.140625 0.875,-1.328125 0.953125,-1.40625 C 1.046875,-0.625 1.328125,0.125 2.0625,0.125 C 2.46875,0.125 2.8125,-0.109375 3.015625,-0.265625 C 3.15625,-0.359375 3.625,-0.75 3.625,-0.84375 C 3.625,-0.875 3.59375,-0.96875 3.515625,-0.96875 C 3.484375,-0.96875 3.46875,-0.953125 3.375,-0.875 C 2.734375,-0.25 2.375,-0.09375 2.078125,-0.09375 C 1.640625,-0.09375 1.46875,-0.625 1.46875,-1.390625 C 1.46875,-1.453125 1.5,-1.90625 1.53125,-1.96875 C 1.546875,-2 1.546875,-2.015625 1.75,-2.21875 C 2.546875,-3.015625 3.96875,-4.703125 3.96875,-6.25 C 3.96875,-6.421875 3.96875,-7.03125 3.375,-7.03125 C 2.546875,-7.03125 1.8125,-5.390625 1.71875,-5.15625 C 1.234375,-4.0625 0.921875,-2.90625 0.921875,-1.71875 L 0.15625,-0.984375 z M 1.578125,-2.375 C 1.59375,-2.5 2.03125,-4.703125 2.59375,-5.875 C 2.859375,-6.40625 3.078125,-6.8125 3.390625,-6.8125 C 3.734375,-6.8125 3.734375,-6.453125 3.734375,-6.296875 C 3.734375,-4.625 2.046875,-2.875 1.578125,-2.375 z"
               id="path2709" />
          </symbol>
          <symbol
             style="overflow:visible"
             overflow="visible"
             id="textext-7c7c443a-2">
            <path
               style="stroke:none"
               d=""
               id="path2712" />
          </symbol>
          <symbol
             style="overflow:visible"
             overflow="visible"
             id="textext-7c7c443a-3">
            <path
               style="stroke:none"
               d="M 2.46875,-5.21875 C 1.15625,-4.296875 0.796875,-2.8125 0.796875,-1.75 C 0.796875,-0.765625 1.09375,0.765625 2.46875,1.734375 C 2.53125,1.734375 2.609375,1.734375 2.609375,1.65625 C 2.609375,1.609375 2.59375,1.59375 2.546875,1.546875 C 1.609375,0.703125 1.28125,-0.46875 1.28125,-1.734375 C 1.28125,-3.625 2,-4.546875 2.5625,-5.0625 C 2.59375,-5.09375 2.609375,-5.109375 2.609375,-5.140625 C 2.609375,-5.21875 2.53125,-5.21875 2.46875,-5.21875 z"
               id="path2715" />
          </symbol>
          <symbol
             style="overflow:visible"
             overflow="visible"
             id="textext-7c7c443a-4">
            <path
               style="stroke:none"
               d="M 3.515625,-1.265625 L 3.28125,-1.265625 C 3.265625,-1.109375 3.1875,-0.703125 3.09375,-0.640625 C 3.046875,-0.59375 2.515625,-0.59375 2.40625,-0.59375 L 1.125,-0.59375 C 1.859375,-1.234375 2.109375,-1.4375 2.515625,-1.765625 C 3.03125,-2.171875 3.515625,-2.609375 3.515625,-3.265625 C 3.515625,-4.109375 2.78125,-4.625 1.890625,-4.625 C 1.03125,-4.625 0.4375,-4.015625 0.4375,-3.375 C 0.4375,-3.03125 0.734375,-2.984375 0.8125,-2.984375 C 0.96875,-2.984375 1.171875,-3.109375 1.171875,-3.359375 C 1.171875,-3.484375 1.125,-3.734375 0.765625,-3.734375 C 0.984375,-4.21875 1.453125,-4.375 1.78125,-4.375 C 2.484375,-4.375 2.84375,-3.828125 2.84375,-3.265625 C 2.84375,-2.65625 2.40625,-2.1875 2.1875,-1.9375 L 0.515625,-0.265625 C 0.4375,-0.203125 0.4375,-0.1875 0.4375,0 L 3.3125,0 L 3.515625,-1.265625 z"
               id="path2718" />
          </symbol>
          <symbol
             style="overflow:visible"
             overflow="visible"
             id="textext-7c7c443a-5">
            <path
               style="stroke:none"
               d="M 0.625,-5.21875 C 0.578125,-5.21875 0.5,-5.21875 0.5,-5.140625 C 0.5,-5.109375 0.515625,-5.09375 0.5625,-5.03125 C 1.15625,-4.484375 1.828125,-3.546875 1.828125,-1.75 C 1.828125,-0.296875 1.375,0.8125 0.625,1.484375 C 0.5,1.609375 0.5,1.609375 0.5,1.65625 C 0.5,1.6875 0.515625,1.734375 0.578125,1.734375 C 0.671875,1.734375 1.328125,1.28125 1.796875,0.40625 C 2.09375,-0.171875 2.296875,-0.921875 2.296875,-1.734375 C 2.296875,-2.71875 2,-4.25 0.625,-5.21875 z"
               id="path2721" />
          </symbol>
        </g>
      </defs>
      <g
         id="textext-7c7c443a-6">
        <g
           style="fill:#000000;fill-opacity:1"
           id="g2724">
          <use
             height="159.44882"
             width="177.16534"
             xlink:href="#textext-7c7c443a-1"
             x="223.43201"
             y="135.20799"
             id="use2726" />
        </g>
        <g
           style="fill:#000000;fill-opacity:1"
           id="g2728">
          <use
             height="159.44882"
             width="177.16534"
             xlink:href="#textext-7c7c443a-3"
             x="227.58299"
             y="130.033"
             id="use2730" />
          <use
             height="159.44882"
             width="177.16534"
             xlink:href="#textext-7c7c443a-4"
             x="230.69611"
             y="130.033"
             id="use2732" />
          <use
             height="159.44882"
             width="177.16534"
             xlink:href="#textext-7c7c443a-5"
             x="234.66768"
             y="130.033"
             id="use2734" />
        </g>
        <g
           style="fill:#000000;fill-opacity:1"
           id="g2736">
          <use
             height="159.44882"
             width="177.16534"
             xlink:href="#textext-7c7c443a-4"
             x="227.58299"
             y="137.864"
             id="use2738" />
        </g>
      </g>
    </g>
    <g
       id="g2902"
       ns0:preamble=""
       ns0:text="$C^{(2)}$"
       transform="translate(-123.92857,-31.785714)">
      <defs
         id="defs2904">
        <g
           id="g2906">
          <symbol
             id="textext-7d7ffd03-0"
             overflow="visible"
             style="overflow:visible">
            <path
               id="path2909"
               d=""
               style="stroke:none" />
          </symbol>
          <symbol
             id="textext-7d7ffd03-1"
             overflow="visible"
             style="overflow:visible">
            <path
               id="path2912"
               d="M 7.578125,-6.921875 C 7.578125,-6.953125 7.5625,-7.03125 7.46875,-7.03125 C 7.4375,-7.03125 7.421875,-7.015625 7.3125,-6.90625 L 6.625,-6.140625 C 6.53125,-6.28125 6.078125,-7.03125 4.96875,-7.03125 C 2.734375,-7.03125 0.5,-4.828125 0.5,-2.515625 C 0.5,-0.875 1.671875,0.21875 3.203125,0.21875 C 4.0625,0.21875 4.828125,-0.171875 5.359375,-0.640625 C 6.28125,-1.453125 6.453125,-2.359375 6.453125,-2.390625 C 6.453125,-2.5 6.34375,-2.5 6.328125,-2.5 C 6.265625,-2.5 6.21875,-2.46875 6.203125,-2.390625 C 6.109375,-2.109375 5.875,-1.390625 5.1875,-0.8125 C 4.5,-0.265625 3.875,-0.09375 3.359375,-0.09375 C 2.46875,-0.09375 1.40625,-0.609375 1.40625,-2.15625 C 1.40625,-2.734375 1.609375,-4.34375 2.609375,-5.515625 C 3.21875,-6.21875 4.15625,-6.71875 5.046875,-6.71875 C 6.0625,-6.71875 6.65625,-5.953125 6.65625,-4.796875 C 6.65625,-4.390625 6.625,-4.390625 6.625,-4.28125 C 6.625,-4.1875 6.734375,-4.1875 6.765625,-4.1875 C 6.890625,-4.1875 6.890625,-4.203125 6.953125,-4.390625 L 7.578125,-6.921875 z"
               style="stroke:none" />
          </symbol>
          <symbol
             id="textext-7d7ffd03-2"
             overflow="visible"
             style="overflow:visible">
            <path
               id="path2915"
               d=""
               style="stroke:none" />
          </symbol>
          <symbol
             id="textext-7d7ffd03-3"
             overflow="visible"
             style="overflow:visible">
            <path
               id="path2918"
               d="M 2.46875,-5.21875 C 1.15625,-4.296875 0.796875,-2.8125 0.796875,-1.75 C 0.796875,-0.765625 1.09375,0.765625 2.46875,1.734375 C 2.53125,1.734375 2.609375,1.734375 2.609375,1.65625 C 2.609375,1.609375 2.59375,1.59375 2.546875,1.546875 C 1.609375,0.703125 1.28125,-0.46875 1.28125,-1.734375 C 1.28125,-3.625 2,-4.546875 2.5625,-5.0625 C 2.59375,-5.09375 2.609375,-5.109375 2.609375,-5.140625 C 2.609375,-5.21875 2.53125,-5.21875 2.46875,-5.21875 z"
               style="stroke:none" />
          </symbol>
          <symbol
             id="textext-7d7ffd03-4"
             overflow="visible"
             style="overflow:visible">
            <path
               id="path2921"
               d="M 3.515625,-1.265625 L 3.28125,-1.265625 C 3.265625,-1.109375 3.1875,-0.703125 3.09375,-0.640625 C 3.046875,-0.59375 2.515625,-0.59375 2.40625,-0.59375 L 1.125,-0.59375 C 1.859375,-1.234375 2.109375,-1.4375 2.515625,-1.765625 C 3.03125,-2.171875 3.515625,-2.609375 3.515625,-3.265625 C 3.515625,-4.109375 2.78125,-4.625 1.890625,-4.625 C 1.03125,-4.625 0.4375,-4.015625 0.4375,-3.375 C 0.4375,-3.03125 0.734375,-2.984375 0.8125,-2.984375 C 0.96875,-2.984375 1.171875,-3.109375 1.171875,-3.359375 C 1.171875,-3.484375 1.125,-3.734375 0.765625,-3.734375 C 0.984375,-4.21875 1.453125,-4.375 1.78125,-4.375 C 2.484375,-4.375 2.84375,-3.828125 2.84375,-3.265625 C 2.84375,-2.65625 2.40625,-2.1875 2.1875,-1.9375 L 0.515625,-0.265625 C 0.4375,-0.203125 0.4375,-0.1875 0.4375,0 L 3.3125,0 L 3.515625,-1.265625 z"
               style="stroke:none" />
          </symbol>
          <symbol
             id="textext-7d7ffd03-5"
             overflow="visible"
             style="overflow:visible">
            <path
               id="path2924"
               d="M 0.625,-5.21875 C 0.578125,-5.21875 0.5,-5.21875 0.5,-5.140625 C 0.5,-5.109375 0.515625,-5.09375 0.5625,-5.03125 C 1.15625,-4.484375 1.828125,-3.546875 1.828125,-1.75 C 1.828125,-0.296875 1.375,0.8125 0.625,1.484375 C 0.5,1.609375 0.5,1.609375 0.5,1.65625 C 0.5,1.6875 0.515625,1.734375 0.578125,1.734375 C 0.671875,1.734375 1.328125,1.28125 1.796875,0.40625 C 2.09375,-0.171875 2.296875,-0.921875 2.296875,-1.734375 C 2.296875,-2.71875 2,-4.25 0.625,-5.21875 z"
               style="stroke:none" />
          </symbol>
        </g>
      </defs>
      <g
         id="textext-7d7ffd03-6">
        <g
           id="g2927"
           style="fill:#000000;fill-opacity:1">
          <use
             id="use2929"
             y="134.765"
             x="223.43201"
             xlink:href="#textext-7d7ffd03-1"
             width="177.16534"
             height="159.44882" />
        </g>
        <g
           id="g2931"
           style="fill:#000000;fill-opacity:1">
          <use
             id="use2933"
             y="131.14999"
             x="231.265"
             xlink:href="#textext-7d7ffd03-3"
             width="177.16534"
             height="159.44882" />
          <use
             id="use2935"
             y="131.14999"
             x="234.3781"
             xlink:href="#textext-7d7ffd03-4"
             width="177.16534"
             height="159.44882" />
          <use
             id="use2937"
             y="131.14999"
             x="238.34969"
             xlink:href="#textext-7d7ffd03-5"
             width="177.16534"
             height="159.44882" />
        </g>
      </g>
    </g>
    <g
       ns0:text="$\\ell^{(2)}_{1}$"
       ns0:preamble=""
       transform="translate(-77.57143,-32.642857)"
       id="g3193">
      <defs
         id="defs3195">
        <g
           id="g3197">
          <symbol
             style="overflow:visible"
             overflow="visible"
             id="textext-de7c9229-0">
            <path
               style="stroke:none"
               d=""
               id="path3200" />
          </symbol>
          <symbol
             style="overflow:visible"
             overflow="visible"
             id="textext-de7c9229-1">
            <path
               style="stroke:none"
               d="M 0.15625,-0.984375 C 0.140625,-0.953125 0.109375,-0.921875 0.109375,-0.890625 C 0.109375,-0.84375 0.171875,-0.75 0.234375,-0.75 C 0.28125,-0.75 0.3125,-0.78125 0.59375,-1.0625 C 0.671875,-1.140625 0.875,-1.328125 0.953125,-1.40625 C 1.046875,-0.625 1.328125,0.125 2.0625,0.125 C 2.46875,0.125 2.8125,-0.109375 3.015625,-0.265625 C 3.15625,-0.359375 3.625,-0.75 3.625,-0.84375 C 3.625,-0.875 3.59375,-0.96875 3.515625,-0.96875 C 3.484375,-0.96875 3.46875,-0.953125 3.375,-0.875 C 2.734375,-0.25 2.375,-0.09375 2.078125,-0.09375 C 1.640625,-0.09375 1.46875,-0.625 1.46875,-1.390625 C 1.46875,-1.453125 1.5,-1.90625 1.53125,-1.96875 C 1.546875,-2 1.546875,-2.015625 1.75,-2.21875 C 2.546875,-3.015625 3.96875,-4.703125 3.96875,-6.25 C 3.96875,-6.421875 3.96875,-7.03125 3.375,-7.03125 C 2.546875,-7.03125 1.8125,-5.390625 1.71875,-5.15625 C 1.234375,-4.0625 0.921875,-2.90625 0.921875,-1.71875 L 0.15625,-0.984375 z M 1.578125,-2.375 C 1.59375,-2.5 2.03125,-4.703125 2.59375,-5.875 C 2.859375,-6.40625 3.078125,-6.8125 3.390625,-6.8125 C 3.734375,-6.8125 3.734375,-6.453125 3.734375,-6.296875 C 3.734375,-4.625 2.046875,-2.875 1.578125,-2.375 z"
               id="path3203" />
          </symbol>
          <symbol
             style="overflow:visible"
             overflow="visible"
             id="textext-de7c9229-2">
            <path
               style="stroke:none"
               d=""
               id="path3206" />
          </symbol>
          <symbol
             style="overflow:visible"
             overflow="visible"
             id="textext-de7c9229-3">
            <path
               style="stroke:none"
               d="M 2.46875,-5.21875 C 1.15625,-4.296875 0.796875,-2.8125 0.796875,-1.75 C 0.796875,-0.765625 1.09375,0.765625 2.46875,1.734375 C 2.53125,1.734375 2.609375,1.734375 2.609375,1.65625 C 2.609375,1.609375 2.59375,1.59375 2.546875,1.546875 C 1.609375,0.703125 1.28125,-0.46875 1.28125,-1.734375 C 1.28125,-3.625 2,-4.546875 2.5625,-5.0625 C 2.59375,-5.09375 2.609375,-5.109375 2.609375,-5.140625 C 2.609375,-5.21875 2.53125,-5.21875 2.46875,-5.21875 z"
               id="path3209" />
          </symbol>
          <symbol
             style="overflow:visible"
             overflow="visible"
             id="textext-de7c9229-4">
            <path
               style="stroke:none"
               d="M 3.515625,-1.265625 L 3.28125,-1.265625 C 3.265625,-1.109375 3.1875,-0.703125 3.09375,-0.640625 C 3.046875,-0.59375 2.515625,-0.59375 2.40625,-0.59375 L 1.125,-0.59375 C 1.859375,-1.234375 2.109375,-1.4375 2.515625,-1.765625 C 3.03125,-2.171875 3.515625,-2.609375 3.515625,-3.265625 C 3.515625,-4.109375 2.78125,-4.625 1.890625,-4.625 C 1.03125,-4.625 0.4375,-4.015625 0.4375,-3.375 C 0.4375,-3.03125 0.734375,-2.984375 0.8125,-2.984375 C 0.96875,-2.984375 1.171875,-3.109375 1.171875,-3.359375 C 1.171875,-3.484375 1.125,-3.734375 0.765625,-3.734375 C 0.984375,-4.21875 1.453125,-4.375 1.78125,-4.375 C 2.484375,-4.375 2.84375,-3.828125 2.84375,-3.265625 C 2.84375,-2.65625 2.40625,-2.1875 2.1875,-1.9375 L 0.515625,-0.265625 C 0.4375,-0.203125 0.4375,-0.1875 0.4375,0 L 3.3125,0 L 3.515625,-1.265625 z"
               id="path3212" />
          </symbol>
          <symbol
             style="overflow:visible"
             overflow="visible"
             id="textext-de7c9229-5">
            <path
               style="stroke:none"
               d="M 0.625,-5.21875 C 0.578125,-5.21875 0.5,-5.21875 0.5,-5.140625 C 0.5,-5.109375 0.515625,-5.09375 0.5625,-5.03125 C 1.15625,-4.484375 1.828125,-3.546875 1.828125,-1.75 C 1.828125,-0.296875 1.375,0.8125 0.625,1.484375 C 0.5,1.609375 0.5,1.609375 0.5,1.65625 C 0.5,1.6875 0.515625,1.734375 0.578125,1.734375 C 0.671875,1.734375 1.328125,1.28125 1.796875,0.40625 C 2.09375,-0.171875 2.296875,-0.921875 2.296875,-1.734375 C 2.296875,-2.71875 2,-4.25 0.625,-5.21875 z"
               id="path3215" />
          </symbol>
          <symbol
             style="overflow:visible"
             overflow="visible"
             id="textext-de7c9229-6">
            <path
               style="stroke:none"
               d="M 2.328125,-4.4375 C 2.328125,-4.625 2.328125,-4.625 2.125,-4.625 C 1.671875,-4.1875 1.046875,-4.1875 0.765625,-4.1875 L 0.765625,-3.9375 C 0.921875,-3.9375 1.390625,-3.9375 1.765625,-4.125 L 1.765625,-0.578125 C 1.765625,-0.34375 1.765625,-0.25 1.078125,-0.25 L 0.8125,-0.25 L 0.8125,0 C 0.9375,0 1.796875,-0.03125 2.046875,-0.03125 C 2.265625,-0.03125 3.140625,0 3.296875,0 L 3.296875,-0.25 L 3.03125,-0.25 C 2.328125,-0.25 2.328125,-0.34375 2.328125,-0.578125 L 2.328125,-4.4375 z"
               id="path3218" />
          </symbol>
        </g>
      </defs>
      <g
         id="textext-de7c9229-7">
        <g
           style="fill:#000000;fill-opacity:1"
           id="g3221">
          <use
             height="159.44882"
             width="177.16534"
             xlink:href="#textext-de7c9229-1"
             x="223.43201"
             y="135.20799"
             id="use3223" />
        </g>
        <g
           style="fill:#000000;fill-opacity:1"
           id="g3225">
          <use
             height="159.44882"
             width="177.16534"
             xlink:href="#textext-de7c9229-3"
             x="227.58299"
             y="130.033"
             id="use3227" />
          <use
             height="159.44882"
             width="177.16534"
             xlink:href="#textext-de7c9229-4"
             x="230.69611"
             y="130.033"
             id="use3229" />
          <use
             height="159.44882"
             width="177.16534"
             xlink:href="#textext-de7c9229-5"
             x="234.66768"
             y="130.033"
             id="use3231" />
        </g>
        <g
           style="fill:#000000;fill-opacity:1"
           id="g3233">
          <use
             height="159.44882"
             width="177.16534"
             xlink:href="#textext-de7c9229-6"
             x="227.58299"
             y="137.864"
             id="use3235" />
        </g>
      </g>
    </g>
    <g
       id="g3547"
       transform="translate(-199.57143,-34.642857)"
       ns0:preamble=""
       ns0:text="$\\ell^{(2)}_{0}$">
      <defs
         id="defs3549">
        <g
           id="g3551">
          <symbol
             id="textext-45bfef33-0"
             overflow="visible">
            <path
               id="path3554"
               d=""
               style="stroke:none;" />
          </symbol>
          <symbol
             id="textext-45bfef33-1"
             overflow="visible">
            <path
               id="path3557"
               d="M 0.15625 -0.984375 C 0.140625 -0.953125 0.109375 -0.921875 0.109375 -0.890625 C 0.109375 -0.84375 0.171875 -0.75 0.234375 -0.75 C 0.28125 -0.75 0.3125 -0.78125 0.59375 -1.0625 C 0.671875 -1.140625 0.875 -1.328125 0.953125 -1.40625 C 1.046875 -0.625 1.328125 0.125 2.0625 0.125 C 2.46875 0.125 2.8125 -0.109375 3.015625 -0.265625 C 3.15625 -0.359375 3.625 -0.75 3.625 -0.84375 C 3.625 -0.875 3.59375 -0.96875 3.515625 -0.96875 C 3.484375 -0.96875 3.46875 -0.953125 3.375 -0.875 C 2.734375 -0.25 2.375 -0.09375 2.078125 -0.09375 C 1.640625 -0.09375 1.46875 -0.625 1.46875 -1.390625 C 1.46875 -1.453125 1.5 -1.90625 1.53125 -1.96875 C 1.546875 -2 1.546875 -2.015625 1.75 -2.21875 C 2.546875 -3.015625 3.96875 -4.703125 3.96875 -6.25 C 3.96875 -6.421875 3.96875 -7.03125 3.375 -7.03125 C 2.546875 -7.03125 1.8125 -5.390625 1.71875 -5.15625 C 1.234375 -4.0625 0.921875 -2.90625 0.921875 -1.71875 L 0.15625 -0.984375 Z M 1.578125 -2.375 C 1.59375 -2.5 2.03125 -4.703125 2.59375 -5.875 C 2.859375 -6.40625 3.078125 -6.8125 3.390625 -6.8125 C 3.734375 -6.8125 3.734375 -6.453125 3.734375 -6.296875 C 3.734375 -4.625 2.046875 -2.875 1.578125 -2.375 Z M 1.578125 -2.375 "
               style="stroke:none;" />
          </symbol>
          <symbol
             id="textext-45bfef33-2"
             overflow="visible">
            <path
               id="path3560"
               d=""
               style="stroke:none;" />
          </symbol>
          <symbol
             id="textext-45bfef33-3"
             overflow="visible">
            <path
               id="path3563"
               d="M 2.46875 -5.21875 C 1.15625 -4.296875 0.796875 -2.8125 0.796875 -1.75 C 0.796875 -0.765625 1.09375 0.765625 2.46875 1.734375 C 2.53125 1.734375 2.609375 1.734375 2.609375 1.65625 C 2.609375 1.609375 2.59375 1.59375 2.546875 1.546875 C 1.609375 0.703125 1.28125 -0.46875 1.28125 -1.734375 C 1.28125 -3.625 2 -4.546875 2.5625 -5.0625 C 2.59375 -5.09375 2.609375 -5.109375 2.609375 -5.140625 C 2.609375 -5.21875 2.53125 -5.21875 2.46875 -5.21875 Z M 2.46875 -5.21875 "
               style="stroke:none;" />
          </symbol>
          <symbol
             id="textext-45bfef33-4"
             overflow="visible">
            <path
               id="path3566"
               d="M 3.515625 -1.265625 L 3.28125 -1.265625 C 3.265625 -1.109375 3.1875 -0.703125 3.09375 -0.640625 C 3.046875 -0.59375 2.515625 -0.59375 2.40625 -0.59375 L 1.125 -0.59375 C 1.859375 -1.234375 2.109375 -1.4375 2.515625 -1.765625 C 3.03125 -2.171875 3.515625 -2.609375 3.515625 -3.265625 C 3.515625 -4.109375 2.78125 -4.625 1.890625 -4.625 C 1.03125 -4.625 0.4375 -4.015625 0.4375 -3.375 C 0.4375 -3.03125 0.734375 -2.984375 0.8125 -2.984375 C 0.96875 -2.984375 1.171875 -3.109375 1.171875 -3.359375 C 1.171875 -3.484375 1.125 -3.734375 0.765625 -3.734375 C 0.984375 -4.21875 1.453125 -4.375 1.78125 -4.375 C 2.484375 -4.375 2.84375 -3.828125 2.84375 -3.265625 C 2.84375 -2.65625 2.40625 -2.1875 2.1875 -1.9375 L 0.515625 -0.265625 C 0.4375 -0.203125 0.4375 -0.1875 0.4375 0 L 3.3125 0 L 3.515625 -1.265625 Z M 3.515625 -1.265625 "
               style="stroke:none;" />
          </symbol>
          <symbol
             id="textext-45bfef33-5"
             overflow="visible">
            <path
               id="path3569"
               d="M 0.625 -5.21875 C 0.578125 -5.21875 0.5 -5.21875 0.5 -5.140625 C 0.5 -5.109375 0.515625 -5.09375 0.5625 -5.03125 C 1.15625 -4.484375 1.828125 -3.546875 1.828125 -1.75 C 1.828125 -0.296875 1.375 0.8125 0.625 1.484375 C 0.5 1.609375 0.5 1.609375 0.5 1.65625 C 0.5 1.6875 0.515625 1.734375 0.578125 1.734375 C 0.671875 1.734375 1.328125 1.28125 1.796875 0.40625 C 2.09375 -0.171875 2.296875 -0.921875 2.296875 -1.734375 C 2.296875 -2.71875 2 -4.25 0.625 -5.21875 Z M 0.625 -5.21875 "
               style="stroke:none;" />
          </symbol>
          <symbol
             id="textext-45bfef33-6"
             overflow="visible">
            <path
               id="path3572"
               d="M 3.59375 -2.21875 C 3.59375 -2.984375 3.5 -3.546875 3.1875 -4.03125 C 2.96875 -4.34375 2.53125 -4.625 1.984375 -4.625 C 0.359375 -4.625 0.359375 -2.71875 0.359375 -2.21875 C 0.359375 -1.71875 0.359375 0.140625 1.984375 0.140625 C 3.59375 0.140625 3.59375 -1.71875 3.59375 -2.21875 Z M 1.984375 -0.0625 C 1.65625 -0.0625 1.234375 -0.25 1.09375 -0.8125 C 1 -1.21875 1 -1.796875 1 -2.3125 C 1 -2.828125 1 -3.359375 1.09375 -3.734375 C 1.25 -4.28125 1.6875 -4.4375 1.984375 -4.4375 C 2.359375 -4.4375 2.71875 -4.203125 2.84375 -3.796875 C 2.953125 -3.421875 2.96875 -2.921875 2.96875 -2.3125 C 2.96875 -1.796875 2.96875 -1.28125 2.875 -0.84375 C 2.734375 -0.203125 2.265625 -0.0625 1.984375 -0.0625 Z M 1.984375 -0.0625 "
               style="stroke:none;" />
          </symbol>
        </g>
      </defs>
      <g
         id="textext-45bfef33-7">
        <g
           id="g3575"
           style="fill:rgb(0%,0%,0%);fill-opacity:1;">
          <use
             id="use3577"
             y="135.208"
             x="223.432"
             xlink:href="#textext-45bfef33-1" />
        </g>
        <g
           id="g3579"
           style="fill:rgb(0%,0%,0%);fill-opacity:1;">
          <use
             id="use3581"
             y="130.033"
             x="227.583"
             xlink:href="#textext-45bfef33-3" />
          <use
             id="use3583"
             y="130.033"
             x="230.696104"
             xlink:href="#textext-45bfef33-4" />
          <use
             id="use3585"
             y="130.033"
             x="234.667683"
             xlink:href="#textext-45bfef33-5" />
        </g>
        <g
           id="g3587"
           style="fill:rgb(0%,0%,0%);fill-opacity:1;">
          <use
             id="use3589"
             y="137.864"
             x="227.583"
             xlink:href="#textext-45bfef33-6" />
        </g>
      </g>
    </g>
  </g>
</svg>
