<?xml version="1.0" encoding="UTF-8" standalone="no"?>
<!-- Created with Inkscape (http://www.inkscape.org/) -->
<svg
   xmlns:ns0="http://www.iki.fi/pav/software/textext/"
   xmlns:dc="http://purl.org/dc/elements/1.1/"
   xmlns:cc="http://creativecommons.org/ns#"
   xmlns:rdf="http://www.w3.org/1999/02/22-rdf-syntax-ns#"
   xmlns:svg="http://www.w3.org/2000/svg"
   xmlns="http://www.w3.org/2000/svg"
   xmlns:xlink="http://www.w3.org/1999/xlink"
   xmlns:sodipodi="http://sodipodi.sourceforge.net/DTD/sodipodi-0.dtd"
   xmlns:inkscape="http://www.inkscape.org/namespaces/inkscape"
   width="379.13385"
   height="283.46457"
   id="svg2"
   sodipodi:version="0.32"
   inkscape:version="0.46"
   version="1.0"
   sodipodi:docname="chap2-fig28.svg"
   inkscape:output_extension="org.inkscape.output.svg.inkscape">
  <sodipodi:namedview
     id="base"
     pagecolor="#ffffff"
     bordercolor="#666666"
     borderopacity="1.0"
     gridtolerance="10000"
     guidetolerance="10"
     objecttolerance="10"
     inkscape:pageopacity="0.0"
     inkscape:pageshadow="2"
     inkscape:zoom="3.4354376"
     inkscape:cx="230.15868"
     inkscape:cy="146.34801"
     inkscape:document-units="px"
     inkscape:current-layer="layer1"
     showgrid="false"
     units="cm"
     inkscape:window-width="1009"
     inkscape:window-height="726"
     inkscape:window-x="5"
     inkscape:window-y="27" />
  <defs
     id="defs4">
    <inkscape:perspective
       id="perspective10"
       inkscape:persp3d-origin="372.04724 : 350.78739 : 1"
       inkscape:vp_z="744.09448 : 526.18109 : 1"
       inkscape:vp_y="0 : 1000 : 0"
       inkscape:vp_x="0 : 526.18109 : 1"
       sodipodi:type="inkscape:persp3d" />
  </defs>
  <metadata
     id="metadata7">
    <rdf:RDF>
      <cc:Work
         rdf:about="">
        <dc:format>image/svg+xml</dc:format>
        <dc:type
           rdf:resource="http://purl.org/dc/dcmitype/StillImage" />
      </cc:Work>
    </rdf:RDF>
  </metadata>
  <g
     id="layer1"
     inkscape:groupmode="layer"
     inkscape:label="Layer 1">
    <path
       transform="translate(66.532224,-0.2720409)"
       d="M 110.44859,101.60526 A 2.5843883,2.5843883 0 1 1 105.27981,101.60526 A 2.5843883,2.5843883 0 1 1 110.44859,101.60526 z"
       sodipodi:ry="2.5843883"
       sodipodi:rx="2.5843883"
       sodipodi:cy="101.60526"
       sodipodi:cx="107.8642"
       id="path71092"
       style="opacity:1;fill:#ffffff;fill-opacity:1;fill-rule:evenodd;stroke:#000000;stroke-width:1px;stroke-linecap:butt;stroke-linejoin:miter;marker:none;marker-start:none;marker-mid:none;marker-end:none;stroke-miterlimit:4;stroke-dasharray:none;stroke-dashoffset:0;stroke-opacity:1;visibility:visible;display:inline;overflow:visible;enable-background:accumulate"
       sodipodi:type="arc" />
    <path
       sodipodi:type="arc"
       style="opacity:1;fill:#ffffff;fill-opacity:1;fill-rule:evenodd;stroke:#000000;stroke-width:1px;stroke-linecap:butt;stroke-linejoin:miter;marker:none;marker-start:none;marker-mid:none;marker-end:none;stroke-miterlimit:4;stroke-dasharray:none;stroke-dashoffset:0;stroke-opacity:1;visibility:visible;display:inline;overflow:visible;enable-background:accumulate"
       id="path71100"
       sodipodi:cx="107.8642"
       sodipodi:cy="101.60526"
       sodipodi:rx="2.5843883"
       sodipodi:ry="2.5843883"
       d="M 110.44859,101.60526 A 2.5843883,2.5843883 0 1 1 105.27981,101.60526 A 2.5843883,2.5843883 0 1 1 110.44859,101.60526 z"
       transform="translate(108,-0.2720409)" />
    <path
       style="fill:none;fill-rule:evenodd;stroke:#000000;stroke-width:1;stroke-linecap:butt;stroke-linejoin:miter;stroke-opacity:1;stroke-miterlimit:4;stroke-dasharray:none"
       d="M 217.91314,101.46923 L 254.75702,101.46923"
       id="path71102" />
    <path
       id="path71613"
       d="M 176.4953,101.46923 L 213.33918,101.46923"
       style="fill:none;fill-rule:evenodd;stroke:#000000;stroke-width:1;stroke-linecap:butt;stroke-linejoin:miter;stroke-miterlimit:4;stroke-dasharray:none;stroke-opacity:1" />
    <path
       style="fill:none;fill-rule:evenodd;stroke:#000000;stroke-width:1;stroke-linecap:butt;stroke-linejoin:miter;stroke-miterlimit:4;stroke-dasharray:none;stroke-opacity:1"
       d="M 135.07746,101.46923 L 171.92134,101.46923"
       id="path71615" />
    <g
       transform="translate(-99.259552,-30.272708)"
       ns0:text="$\\mathscr{E}$"
       ns0:preamble="/home/raghu/TIFR/Curves-on-rational-and-unirational-surfaces/figures/preample.tex"
       id="g71648">
      <defs
         id="defs71650">
        <g
           id="g71652">
          <symbol
             style="overflow:visible"
             overflow="visible"
             id="textext-9cdf8968-0">
            <path
               style="stroke:none"
               d=""
               id="path71655" />
          </symbol>
          <symbol
             style="overflow:visible"
             overflow="visible"
             id="textext-9cdf8968-1">
            <path
               style="stroke:none"
               d="M 6.234375,-6.09375 L 6.28125,-6.15625 C 6.296875,-6.15625 6.296875,-6.1875 6.296875,-6.203125 C 6.296875,-6.234375 6.265625,-6.28125 6.203125,-6.28125 C 6.046875,-6.28125 5.84375,-6.203125 5.65625,-6.09375 C 5.453125,-5.96875 5.28125,-5.796875 5.15625,-5.625 C 5,-5.40625 4.90625,-5.171875 4.90625,-4.96875 C 4.90625,-4.921875 4.921875,-4.859375 4.9375,-4.796875 C 5.015625,-4.546875 5.265625,-4.421875 5.578125,-4.421875 C 5.765625,-4.421875 5.984375,-4.515625 6.203125,-4.65625 C 6.4375,-4.796875 6.625,-5 6.765625,-5.1875 C 6.984375,-5.5 7.09375,-5.796875 7.09375,-6.078125 C 7.09375,-6.234375 7.046875,-6.375 6.96875,-6.515625 C 6.734375,-6.890625 6.25,-7.0625 5.65625,-7.0625 C 5.25,-7.0625 4.78125,-6.90625 4.296875,-6.640625 C 3.84375,-6.375 3.421875,-6.015625 3.140625,-5.625 C 2.84375,-5.21875 2.71875,-4.828125 2.71875,-4.484375 C 2.71875,-4.34375 2.734375,-4.21875 2.78125,-4.09375 C 2.796875,-4.046875 2.828125,-3.984375 2.875,-3.9375 C 2.65625,-3.875 2.4375,-3.78125 2.21875,-3.6875 C 1.71875,-3.453125 1.25,-3.09375 0.953125,-2.703125 C 0.609375,-2.21875 0.453125,-1.734375 0.453125,-1.328125 C 0.453125,-1.109375 0.484375,-0.921875 0.578125,-0.734375 C 0.875,-0.171875 1.546875,0.078125 2.375,0.078125 C 2.796875,0.078125 3.296875,-0.046875 3.796875,-0.296875 C 4.234375,-0.515625 4.65625,-0.84375 4.921875,-1.203125 C 5.078125,-1.453125 5.15625,-1.671875 5.15625,-1.859375 C 5.15625,-2.03125 5.109375,-2.1875 5,-2.3125 C 4.75,-2.640625 4.265625,-2.765625 3.734375,-2.765625 C 3.0625,-2.765625 2.3125,-1.84375 2.21875,-1.0625 C 2.21875,-1.046875 2.21875,-1.03125 2.21875,-1.015625 C 2.234375,-0.984375 2.25,-0.96875 2.28125,-0.96875 L 2.328125,-0.96875 L 2.390625,-1 C 2.421875,-1 2.4375,-1.03125 2.4375,-1.0625 C 2.546875,-1.78125 3.171875,-2.546875 3.6875,-2.546875 C 4.140625,-2.546875 4.46875,-2.4375 4.609375,-2.1875 C 4.640625,-2.140625 4.65625,-2.046875 4.65625,-1.96875 C 4.65625,-1.796875 4.578125,-1.5625 4.390625,-1.3125 C 4.171875,-1 3.875,-0.6875 3.515625,-0.46875 C 3.125,-0.234375 2.734375,-0.140625 2.421875,-0.140625 C 1.71875,-0.140625 1.21875,-0.375 1.078125,-0.84375 C 1.046875,-0.921875 1.03125,-1.015625 1.03125,-1.109375 C 1.03125,-1.53125 1.265625,-2.046875 1.65625,-2.609375 C 1.890625,-2.9375 2.203125,-3.265625 2.59375,-3.515625 C 2.75,-3.59375 2.90625,-3.671875 3.0625,-3.734375 C 3.3125,-3.53125 3.65625,-3.453125 4.0625,-3.453125 C 4.140625,-3.453125 4.265625,-3.46875 4.359375,-3.5 C 4.421875,-3.515625 4.515625,-3.5625 4.5625,-3.65625 C 4.609375,-3.703125 4.609375,-3.75 4.609375,-3.78125 C 4.609375,-3.890625 4.5,-3.953125 4.4375,-3.984375 C 4.265625,-4.0625 4.046875,-4.09375 3.84375,-4.09375 C 3.671875,-4.09375 3.515625,-4.078125 3.328125,-4.046875 C 3.3125,-4.09375 3.296875,-4.125 3.296875,-4.171875 C 3.28125,-4.21875 3.28125,-4.25 3.28125,-4.28125 C 3.28125,-4.625 3.515625,-5.0625 3.84375,-5.53125 C 4.0625,-5.859375 4.296875,-6.15625 4.640625,-6.40625 C 4.96875,-6.625 5.296875,-6.734375 5.546875,-6.734375 C 6.09375,-6.734375 6.515625,-6.625 6.703125,-6.328125 C 6.765625,-6.234375 6.78125,-6.125 6.78125,-6 C 6.78125,-5.796875 6.703125,-5.546875 6.515625,-5.28125 C 6.40625,-5.109375 6.25,-4.953125 6.0625,-4.828125 C 5.90625,-4.703125 5.734375,-4.640625 5.609375,-4.640625 C 5.3125,-4.640625 5.15625,-4.765625 5.15625,-4.96875 C 5.15625,-5.109375 5.25,-5.3125 5.40625,-5.53125 C 5.5,-5.671875 5.625,-5.8125 5.78125,-5.90625 C 5.921875,-6.015625 6.078125,-6.0625 6.171875,-6.0625 C 6.203125,-6.0625 6.234375,-6.078125 6.234375,-6.09375 z M 3.796875,-3.875 C 3.984375,-3.875 4.15625,-3.859375 4.28125,-3.8125 C 4.328125,-3.78125 4.34375,-3.78125 4.34375,-3.765625 C 4.34375,-3.765625 4.328125,-3.75 4.328125,-3.75 C 4.328125,-3.75 4.28125,-3.703125 4.25,-3.6875 C 4.203125,-3.671875 4.140625,-3.671875 4.09375,-3.671875 C 3.828125,-3.671875 3.625,-3.734375 3.484375,-3.84375 C 3.59375,-3.859375 3.703125,-3.875 3.796875,-3.875 z"
               id="path71658" />
          </symbol>
        </g>
      </defs>
      <g
         id="textext-9cdf8968-2">
        <g
           style="fill:#000000;fill-opacity:1"
           id="g71661">
          <use
             height="283.46457"
             width="379.13385"
             xlink:href="#textext-9cdf8968-1"
             x="223.43201"
             y="134.765"
             id="use71663" />
        </g>
      </g>
    </g>
    <g
       id="g71705"
       ns0:preamble="/home/raghu/TIFR/Curves-on-rational-and-unirational-surfaces/figures/preample.tex"
       ns0:text="$\\mathscr{F}$"
       transform="translate(32.892462,-29.399457)">
      <defs
         id="defs71707">
        <g
           id="g71709">
          <symbol
             id="textext-bda7ea0b-0"
             overflow="visible"
             style="overflow:visible">
            <path
               id="path71712"
               d=""
               style="stroke:none" />
          </symbol>
          <symbol
             id="textext-bda7ea0b-1"
             overflow="visible"
             style="overflow:visible">
            <path
               id="path71715"
               d="M 8.140625,-4.046875 C 7.953125,-4.046875 7.75,-3.921875 7.59375,-3.78125 C 7.34375,-3.609375 7.171875,-3.40625 7.015625,-3.1875 L 6.890625,-3.015625 C 6.640625,-2.953125 6.390625,-2.9375 6.15625,-2.921875 C 6.359375,-3.4375 6.484375,-3.953125 6.875,-4.484375 C 7.203125,-4.9375 7.59375,-5.40625 8.0625,-5.828125 C 8.078125,-5.84375 8.078125,-5.875 8.078125,-5.890625 L 8.0625,-5.984375 C 8.0625,-6.03125 8.03125,-6.046875 7.984375,-6.046875 C 7.96875,-6.046875 7.953125,-6.046875 7.9375,-6.046875 C 7.296875,-5.640625 6.734375,-5.125 6.34375,-4.578125 C 5.9375,-4.015625 5.65625,-3.453125 5.328125,-2.890625 C 4.90625,-2.859375 4.453125,-2.796875 3.96875,-2.625 C 3.59375,-2.515625 3.109375,-2.34375 2.859375,-2 C 2.84375,-1.984375 2.84375,-1.96875 2.84375,-1.953125 C 2.84375,-1.921875 2.859375,-1.90625 2.875,-1.890625 C 2.90625,-1.875 2.921875,-1.875 2.9375,-1.875 L 3.046875,-1.875 C 3.078125,-1.875 3.09375,-1.890625 3.109375,-1.90625 C 3.296875,-2.171875 3.6875,-2.328125 4.0625,-2.453125 C 4.453125,-2.578125 4.828125,-2.625 5.1875,-2.65625 C 5.078125,-2.5 4.96875,-2.3125 4.84375,-2.140625 C 4.078125,-1.0625 2.984375,0 2.109375,0 C 1.265625,0 0.625,-0.171875 0.625,-0.640625 C 0.625,-0.734375 0.640625,-0.828125 0.703125,-0.953125 C 0.78125,-0.84375 0.890625,-0.796875 1,-0.796875 C 1.265625,-0.796875 1.5625,-1 1.5625,-1.1875 C 1.5625,-1.4375 1.421875,-1.53125 1.234375,-1.53125 C 1.03125,-1.53125 0.78125,-1.40625 0.671875,-1.234375 C 0.484375,-0.984375 0.40625,-0.765625 0.40625,-0.59375 C 0.40625,-0.015625 1.21875,0.21875 2.0625,0.21875 C 3.234375,0.21875 4.84375,-0.84375 5.6875,-2.046875 C 5.859375,-2.265625 5.96875,-2.484375 6.0625,-2.6875 C 6.28125,-2.703125 6.515625,-2.734375 6.75,-2.765625 C 6.640625,-2.578125 6.546875,-2.390625 6.484375,-2.203125 C 6.484375,-2.1875 6.484375,-2.1875 6.484375,-2.171875 C 6.484375,-2.15625 6.484375,-2.15625 6.484375,-2.140625 C 6.5,-2.125 6.515625,-2.109375 6.53125,-2.109375 C 6.546875,-2.09375 6.5625,-2.09375 6.5625,-2.09375 C 6.578125,-2.09375 6.59375,-2.09375 6.59375,-2.109375 L 7.140625,-2.328125 C 7.171875,-2.34375 7.203125,-2.375 7.203125,-2.40625 L 7.203125,-2.421875 C 7.1875,-2.453125 7.1875,-2.484375 7.1875,-2.515625 C 7.1875,-2.625 7.21875,-2.75 7.3125,-2.890625 C 7.65625,-2.984375 8.109375,-3.125 8.328125,-3.4375 C 8.40625,-3.546875 8.46875,-3.65625 8.46875,-3.765625 C 8.46875,-3.796875 8.46875,-3.8125 8.453125,-3.84375 C 8.40625,-3.984375 8.28125,-4.046875 8.140625,-4.046875 z M 9.828125,-6.46875 C 9.8125,-6.484375 9.796875,-6.484375 9.78125,-6.484375 C 8.5,-6.484375 7.859375,-7.25 6.546875,-7.25 C 5.96875,-7.25 5.28125,-7.0625 4.59375,-6.671875 C 3.953125,-6.3125 3.34375,-5.828125 2.96875,-5.28125 C 2.71875,-4.921875 2.578125,-4.5625 2.578125,-4.25 C 2.578125,-4.171875 2.578125,-4.109375 2.59375,-4.03125 C 2.6875,-3.6875 2.984375,-3.484375 3.4375,-3.484375 C 3.84375,-3.484375 4.296875,-3.5625 4.78125,-3.78125 C 5.15625,-3.9375 5.546875,-4.171875 5.765625,-4.484375 C 5.984375,-4.8125 6.125,-5.140625 6.125,-5.40625 C 6.125,-5.6875 5.984375,-5.90625 5.734375,-6.03125 L 5.6875,-6.046875 C 5.671875,-6.046875 5.65625,-6.03125 5.640625,-6.015625 L 5.578125,-5.984375 C 5.546875,-5.96875 5.546875,-5.9375 5.546875,-5.90625 C 5.546875,-5.90625 5.546875,-5.875 5.546875,-5.875 C 5.609375,-5.78125 5.625,-5.671875 5.625,-5.546875 C 5.625,-5.28125 5.5,-4.9375 5.25,-4.578125 C 5.078125,-4.34375 4.8125,-4.109375 4.515625,-3.953125 C 4.140625,-3.78125 3.78125,-3.703125 3.484375,-3.703125 C 3.109375,-3.703125 2.890625,-3.875 2.84375,-4.109375 C 2.828125,-4.140625 2.828125,-4.1875 2.828125,-4.234375 C 2.828125,-4.5 2.96875,-4.828125 3.21875,-5.1875 C 3.53125,-5.625 4.03125,-6.03125 4.578125,-6.296875 C 5.1875,-6.609375 5.765625,-6.703125 6.265625,-6.703125 C 7.546875,-6.703125 8.1875,-5.9375 9.515625,-5.9375 C 9.546875,-5.9375 9.5625,-5.953125 9.5625,-5.96875 L 9.84375,-6.359375 C 9.859375,-6.375 9.875,-6.390625 9.875,-6.40625 C 9.875,-6.4375 9.84375,-6.453125 9.828125,-6.46875 z M 8.09375,-3.53125 C 7.953125,-3.34375 7.71875,-3.234375 7.453125,-3.15625 C 7.578125,-3.328125 7.71875,-3.53125 7.8125,-3.625 C 7.9375,-3.75 8.03125,-3.828125 8.09375,-3.828125 C 8.15625,-3.828125 8.1875,-3.796875 8.203125,-3.765625 C 8.203125,-3.703125 8.171875,-3.65625 8.09375,-3.53125 z"
               style="stroke:none" />
          </symbol>
        </g>
      </defs>
      <g
         id="textext-bda7ea0b-2">
        <g
           id="g71718"
           style="fill:#000000;fill-opacity:1">
          <use
             id="use71720"
             y="134.765"
             x="223.43201"
             xlink:href="#textext-bda7ea0b-1"
             width="379.13385"
             height="283.46457" />
        </g>
      </g>
    </g>
    <g
       transform="translate(-52.395072,-41.042806)"
       ns0:text="$\\alpha$"
       ns0:preamble="/home/raghu/TIFR/Curves-on-rational-and-unirational-surfaces/figures/preample.tex"
       id="g71782">
      <defs
         id="defs71784">
        <g
           id="g71786">
          <symbol
             style="overflow:visible"
             overflow="visible"
             id="textext-95704e40-0">
            <path
               style="stroke:none"
               d=""
               id="path71789" />
          </symbol>
          <symbol
             style="overflow:visible"
             overflow="visible"
             id="textext-95704e40-1">
            <path
               style="stroke:none"
               d="M 4.75,-2.359375 C 4.75,-3.921875 3.828125,-4.40625 3.09375,-4.40625 C 1.71875,-4.40625 0.40625,-2.984375 0.40625,-1.578125 C 0.40625,-0.640625 1,0.109375 2.03125,0.109375 C 2.65625,0.109375 3.375,-0.125 4.125,-0.734375 C 4.25,-0.203125 4.578125,0.109375 5.03125,0.109375 C 5.5625,0.109375 5.875,-0.4375 5.875,-0.59375 C 5.875,-0.671875 5.8125,-0.703125 5.75,-0.703125 C 5.6875,-0.703125 5.65625,-0.671875 5.625,-0.59375 C 5.4375,-0.109375 5.078125,-0.109375 5.0625,-0.109375 C 4.75,-0.109375 4.75,-0.890625 4.75,-1.125 C 4.75,-1.328125 4.75,-1.359375 4.859375,-1.46875 C 5.796875,-2.65625 6,-3.8125 6,-3.8125 C 6,-3.84375 5.984375,-3.921875 5.875,-3.921875 C 5.78125,-3.921875 5.78125,-3.890625 5.734375,-3.703125 C 5.546875,-3.078125 5.21875,-2.328125 4.75,-1.734375 L 4.75,-2.359375 z M 4.09375,-0.984375 C 3.203125,-0.21875 2.4375,-0.109375 2.046875,-0.109375 C 1.453125,-0.109375 1.140625,-0.5625 1.140625,-1.203125 C 1.140625,-1.6875 1.40625,-2.765625 1.71875,-3.265625 C 2.1875,-4 2.734375,-4.1875 3.078125,-4.1875 C 4.0625,-4.1875 4.0625,-2.875 4.0625,-2.109375 C 4.0625,-1.734375 4.0625,-1.15625 4.09375,-0.984375 z"
               id="path71792" />
          </symbol>
        </g>
      </defs>
      <g
         id="textext-95704e40-2">
        <g
           style="fill:#000000;fill-opacity:1"
           id="g71795">
          <use
             height="283.46457"
             width="379.13385"
             xlink:href="#textext-95704e40-1"
             x="223.43201"
             y="134.765"
             id="use71797" />
        </g>
      </g>
    </g>
    <g
       id="g71879"
       ns0:preamble="/home/raghu/TIFR/Curves-on-rational-and-unirational-surfaces/figures/preample.tex"
       ns0:text="$\\beta$"
       transform="translate(-9.8968469,-40.169555)">
      <defs
         id="defs71881">
        <g
           id="g71883">
          <symbol
             id="textext-3b884914-0"
             overflow="visible"
             style="overflow:visible">
            <path
               id="path71886"
               d=""
               style="stroke:none" />
          </symbol>
          <symbol
             id="textext-3b884914-1"
             overflow="visible"
             style="overflow:visible">
            <path
               id="path71889"
               d="M 0.28125,1.6875 C 0.265625,1.71875 0.25,1.78125 0.25,1.828125 C 0.25,1.9375 0.34375,1.9375 0.375,1.9375 C 0.421875,1.9375 0.4375,1.921875 0.46875,1.890625 C 0.515625,1.84375 0.796875,0.5625 1.21875,-1.046875 C 1.375,-0.46875 1.890625,0.125 2.828125,0.125 C 4.140625,0.125 5.46875,-1.21875 5.46875,-2.625 C 5.46875,-3.34375 5.15625,-3.78125 4.8125,-4.015625 C 5.5,-4.4375 5.875,-5.140625 5.875,-5.75 C 5.875,-6.40625 5.421875,-7.03125 4.546875,-7.03125 C 3.25,-7.03125 2.125,-5.65625 1.796875,-4.359375 L 0.28125,1.6875 z M 3.265625,-4 C 3.375,-4.046875 3.4375,-4.078125 3.78125,-4.078125 C 3.921875,-4.078125 4.046875,-4.078125 4.171875,-4.015625 C 4,-3.9375 3.78125,-3.9375 3.703125,-3.9375 C 3.453125,-3.9375 3.4375,-3.9375 3.265625,-4 z M 4.484375,-4.203125 C 4.203125,-4.296875 3.890625,-4.296875 3.796875,-4.296875 C 3.5625,-4.296875 3.015625,-4.296875 3.015625,-3.984375 C 3.015625,-3.71875 3.453125,-3.71875 3.703125,-3.71875 C 3.84375,-3.71875 4.125,-3.71875 4.453125,-3.84375 C 4.671875,-3.625 4.75,-3.328125 4.75,-3.015625 C 4.75,-2.609375 4.546875,-1.671875 4.25,-1.125 C 4.03125,-0.703125 3.515625,-0.09375 2.796875,-0.09375 C 1.90625,-0.09375 1.40625,-0.75 1.40625,-1.5625 C 1.40625,-1.796875 1.453125,-1.9375 1.53125,-2.296875 C 1.625,-2.671875 1.9375,-3.921875 2,-4.140625 C 2.46875,-5.984375 3.65625,-6.8125 4.53125,-6.8125 C 4.828125,-6.8125 5.25,-6.65625 5.25,-6 C 5.25,-5.765625 5.140625,-4.6875 4.484375,-4.203125 z"
               style="stroke:none" />
          </symbol>
        </g>
      </defs>
      <g
         id="textext-3b884914-2">
        <g
           id="g71892"
           style="fill:#000000;fill-opacity:1">
          <use
             id="use71894"
             y="134.765"
             x="223.43201"
             xlink:href="#textext-3b884914-1"
             width="379.13385"
             height="283.46457" />
        </g>
      </g>
    </g>
    <g
       transform="translate(-54.432658,-19.211526)"
       ns0:text="$E_{0}$"
       ns0:preamble="/home/raghu/TIFR/Curves-on-rational-and-unirational-surfaces/figures/preample.tex"
       id="g71996">
      <defs
         id="defs71998">
        <g
           id="g72000">
          <symbol
             style="overflow:visible"
             overflow="visible"
             id="textext-ae4f8f9a-0">
            <path
               style="stroke:none"
               d=""
               id="path72003" />
          </symbol>
          <symbol
             style="overflow:visible"
             overflow="visible"
             id="textext-ae4f8f9a-1">
            <path
               style="stroke:none"
               d="M 7.0625,-2.328125 C 7.078125,-2.375 7.109375,-2.4375 7.109375,-2.46875 C 7.109375,-2.46875 7.109375,-2.578125 6.984375,-2.578125 C 6.890625,-2.578125 6.875,-2.515625 6.859375,-2.453125 C 6.203125,-0.984375 5.84375,-0.3125 4.140625,-0.3125 L 2.6875,-0.3125 C 2.546875,-0.3125 2.515625,-0.3125 2.46875,-0.3125 C 2.359375,-0.328125 2.328125,-0.34375 2.328125,-0.421875 C 2.328125,-0.453125 2.328125,-0.46875 2.375,-0.640625 L 3.0625,-3.375 L 4.046875,-3.375 C 4.890625,-3.375 4.890625,-3.15625 4.890625,-2.90625 C 4.890625,-2.84375 4.890625,-2.71875 4.828125,-2.421875 C 4.8125,-2.375 4.796875,-2.34375 4.796875,-2.3125 C 4.796875,-2.265625 4.828125,-2.203125 4.921875,-2.203125 C 5,-2.203125 5.03125,-2.25 5.078125,-2.40625 L 5.640625,-4.734375 C 5.640625,-4.796875 5.59375,-4.84375 5.515625,-4.84375 C 5.4375,-4.84375 5.40625,-4.78125 5.390625,-4.671875 C 5.171875,-3.90625 5,-3.671875 4.078125,-3.671875 L 3.140625,-3.671875 L 3.734375,-6.078125 C 3.828125,-6.4375 3.84375,-6.46875 4.28125,-6.46875 L 5.6875,-6.46875 C 6.890625,-6.46875 7.203125,-6.1875 7.203125,-5.359375 C 7.203125,-5.125 7.203125,-5.109375 7.15625,-4.828125 C 7.15625,-4.78125 7.140625,-4.703125 7.140625,-4.65625 C 7.140625,-4.609375 7.171875,-4.53125 7.265625,-4.53125 C 7.375,-4.53125 7.390625,-4.59375 7.40625,-4.78125 L 7.609375,-6.515625 C 7.640625,-6.78125 7.59375,-6.78125 7.34375,-6.78125 L 2.296875,-6.78125 C 2.109375,-6.78125 2,-6.78125 2,-6.578125 C 2,-6.46875 2.09375,-6.46875 2.28125,-6.46875 C 2.65625,-6.46875 2.9375,-6.46875 2.9375,-6.296875 C 2.9375,-6.25 2.9375,-6.234375 2.875,-6.046875 L 1.5625,-0.78125 C 1.46875,-0.390625 1.453125,-0.3125 0.65625,-0.3125 C 0.484375,-0.3125 0.375,-0.3125 0.375,-0.125 C 0.375,0 0.46875,0 0.65625,0 L 5.828125,0 C 6.0625,0 6.078125,-0.015625 6.140625,-0.171875 L 7.0625,-2.328125 z"
               id="path72006" />
          </symbol>
          <symbol
             style="overflow:visible"
             overflow="visible"
             id="textext-ae4f8f9a-2">
            <path
               style="stroke:none"
               d=""
               id="path72009" />
          </symbol>
          <symbol
             style="overflow:visible"
             overflow="visible"
             id="textext-ae4f8f9a-3">
            <path
               style="stroke:none"
               d="M 3.59375,-2.21875 C 3.59375,-2.984375 3.5,-3.546875 3.1875,-4.03125 C 2.96875,-4.34375 2.53125,-4.625 1.984375,-4.625 C 0.359375,-4.625 0.359375,-2.71875 0.359375,-2.21875 C 0.359375,-1.71875 0.359375,0.140625 1.984375,0.140625 C 3.59375,0.140625 3.59375,-1.71875 3.59375,-2.21875 z M 1.984375,-0.0625 C 1.65625,-0.0625 1.234375,-0.25 1.09375,-0.8125 C 1,-1.21875 1,-1.796875 1,-2.3125 C 1,-2.828125 1,-3.359375 1.09375,-3.734375 C 1.25,-4.28125 1.6875,-4.4375 1.984375,-4.4375 C 2.359375,-4.4375 2.71875,-4.203125 2.84375,-3.796875 C 2.953125,-3.421875 2.96875,-2.921875 2.96875,-2.3125 C 2.96875,-1.796875 2.96875,-1.28125 2.875,-0.84375 C 2.734375,-0.203125 2.265625,-0.0625 1.984375,-0.0625 z"
               id="path72012" />
          </symbol>
        </g>
      </defs>
      <g
         id="textext-ae4f8f9a-4">
        <g
           style="fill:#000000;fill-opacity:1"
           id="g72015">
          <use
             height="283.46457"
             width="379.13385"
             xlink:href="#textext-ae4f8f9a-1"
             x="223.43201"
             y="134.765"
             id="use72017" />
        </g>
        <g
           style="fill:#000000;fill-opacity:1"
           id="g72019">
          <use
             height="283.46457"
             width="379.13385"
             xlink:href="#textext-ae4f8f9a-3"
             x="230.786"
             y="136.259"
             id="use72021" />
        </g>
      </g>
    </g>
    <g
       id="g72155"
       ns0:preamble="/home/raghu/TIFR/Curves-on-rational-and-unirational-surfaces/figures/preample.tex"
       ns0:text="$F_{0}$"
       transform="translate(-12.5166,-18.338275)">
      <defs
         id="defs72157">
        <g
           id="g72159">
          <symbol
             id="textext-8cdc568a-0"
             overflow="visible"
             style="overflow:visible">
            <path
               id="path72162"
               d=""
               style="stroke:none" />
          </symbol>
          <symbol
             id="textext-8cdc568a-1"
             overflow="visible"
             style="overflow:visible">
            <path
               id="path72165"
               d="M 3.015625,-3.234375 L 3.984375,-3.234375 C 4.734375,-3.234375 4.8125,-3.078125 4.8125,-2.796875 C 4.8125,-2.71875 4.8125,-2.609375 4.75,-2.296875 C 4.71875,-2.25 4.71875,-2.21875 4.71875,-2.1875 C 4.71875,-2.109375 4.78125,-2.078125 4.828125,-2.078125 C 4.9375,-2.078125 4.9375,-2.109375 4.984375,-2.28125 L 5.53125,-4.453125 C 5.5625,-4.5625 5.5625,-4.578125 5.5625,-4.609375 C 5.5625,-4.625 5.546875,-4.71875 5.4375,-4.71875 C 5.34375,-4.71875 5.328125,-4.671875 5.296875,-4.5 C 5.078125,-3.734375 4.859375,-3.546875 4,-3.546875 L 3.09375,-3.546875 L 3.734375,-6.078125 C 3.828125,-6.4375 3.84375,-6.46875 4.28125,-6.46875 L 5.59375,-6.46875 C 6.8125,-6.46875 7.046875,-6.140625 7.046875,-5.375 C 7.046875,-5.140625 7.046875,-5.109375 7.015625,-4.828125 C 7,-4.703125 7,-4.6875 7,-4.65625 C 7,-4.609375 7.03125,-4.53125 7.125,-4.53125 C 7.234375,-4.53125 7.234375,-4.59375 7.25,-4.78125 L 7.453125,-6.515625 C 7.484375,-6.78125 7.4375,-6.78125 7.1875,-6.78125 L 2.296875,-6.78125 C 2.109375,-6.78125 2,-6.78125 2,-6.578125 C 2,-6.46875 2.09375,-6.46875 2.28125,-6.46875 C 2.65625,-6.46875 2.9375,-6.46875 2.9375,-6.296875 C 2.9375,-6.25 2.9375,-6.234375 2.875,-6.046875 L 1.5625,-0.78125 C 1.46875,-0.390625 1.453125,-0.3125 0.65625,-0.3125 C 0.484375,-0.3125 0.375,-0.3125 0.375,-0.125 C 0.375,0 0.5,0 0.53125,0 C 0.8125,0 1.5625,-0.03125 1.84375,-0.03125 C 2.171875,-0.03125 3,0 3.328125,0 C 3.421875,0 3.53125,0 3.53125,-0.1875 C 3.53125,-0.265625 3.484375,-0.296875 3.484375,-0.296875 C 3.453125,-0.3125 3.421875,-0.3125 3.203125,-0.3125 C 2.984375,-0.3125 2.9375,-0.3125 2.6875,-0.328125 C 2.390625,-0.359375 2.359375,-0.40625 2.359375,-0.53125 C 2.359375,-0.546875 2.359375,-0.609375 2.40625,-0.75 L 3.015625,-3.234375 z"
               style="stroke:none" />
          </symbol>
          <symbol
             id="textext-8cdc568a-2"
             overflow="visible"
             style="overflow:visible">
            <path
               id="path72168"
               d=""
               style="stroke:none" />
          </symbol>
          <symbol
             id="textext-8cdc568a-3"
             overflow="visible"
             style="overflow:visible">
            <path
               id="path72171"
               d="M 3.59375,-2.21875 C 3.59375,-2.984375 3.5,-3.546875 3.1875,-4.03125 C 2.96875,-4.34375 2.53125,-4.625 1.984375,-4.625 C 0.359375,-4.625 0.359375,-2.71875 0.359375,-2.21875 C 0.359375,-1.71875 0.359375,0.140625 1.984375,0.140625 C 3.59375,0.140625 3.59375,-1.71875 3.59375,-2.21875 z M 1.984375,-0.0625 C 1.65625,-0.0625 1.234375,-0.25 1.09375,-0.8125 C 1,-1.21875 1,-1.796875 1,-2.3125 C 1,-2.828125 1,-3.359375 1.09375,-3.734375 C 1.25,-4.28125 1.6875,-4.4375 1.984375,-4.4375 C 2.359375,-4.4375 2.71875,-4.203125 2.84375,-3.796875 C 2.953125,-3.421875 2.96875,-2.921875 2.96875,-2.3125 C 2.96875,-1.796875 2.96875,-1.28125 2.875,-0.84375 C 2.734375,-0.203125 2.265625,-0.0625 1.984375,-0.0625 z"
               style="stroke:none" />
          </symbol>
        </g>
      </defs>
      <g
         id="textext-8cdc568a-4">
        <g
           id="g72174"
           style="fill:#000000;fill-opacity:1">
          <use
             id="use72176"
             y="134.765"
             x="223.43201"
             xlink:href="#textext-8cdc568a-1"
             width="379.13385"
             height="283.46457" />
        </g>
        <g
           id="g72178"
           style="fill:#000000;fill-opacity:1">
          <use
             id="use72180"
             y="136.259"
             x="229.839"
             xlink:href="#textext-8cdc568a-3"
             width="379.13385"
             height="283.46457" />
        </g>
      </g>
    </g>
  </g>
</svg>
