<?xml version="1.0" encoding="UTF-8" standalone="no"?>
<!-- Created with Inkscape (http://www.inkscape.org/) -->
<svg
   xmlns:ns0="http://www.iki.fi/pav/software/textext/"
   xmlns:dc="http://purl.org/dc/elements/1.1/"
   xmlns:cc="http://creativecommons.org/ns#"
   xmlns:rdf="http://www.w3.org/1999/02/22-rdf-syntax-ns#"
   xmlns:svg="http://www.w3.org/2000/svg"
   xmlns="http://www.w3.org/2000/svg"
   xmlns:xlink="http://www.w3.org/1999/xlink"
   xmlns:sodipodi="http://sodipodi.sourceforge.net/DTD/sodipodi-0.dtd"
   xmlns:inkscape="http://www.inkscape.org/namespaces/inkscape"
   width="425.19684"
   height="318.89764"
   id="svg2"
   sodipodi:version="0.32"
   inkscape:version="0.46"
   version="1.0"
   sodipodi:docname="chap2-fig2.svg"
   inkscape:output_extension="org.inkscape.output.svg.inkscape">
  <sodipodi:namedview
     id="base"
     pagecolor="#ffffff"
     bordercolor="#666666"
     borderopacity="1.0"
     gridtolerance="10000"
     guidetolerance="10"
     objecttolerance="10"
     inkscape:pageopacity="0.0"
     inkscape:pageshadow="2"
     inkscape:zoom="1.979899"
     inkscape:cx="131.65702"
     inkscape:cy="178.0466"
     inkscape:document-units="px"
     inkscape:current-layer="layer1"
     showgrid="false"
     units="cm"
     inkscape:window-width="1012"
     inkscape:window-height="726"
     inkscape:window-x="2"
     inkscape:window-y="27" />
  <defs
     id="defs4">
    <inkscape:perspective
       id="perspective10"
       inkscape:persp3d-origin="372.04724 : 350.78739 : 1"
       inkscape:vp_z="744.09448 : 526.18109 : 1"
       inkscape:vp_y="0 : 1000 : 0"
       inkscape:vp_x="0 : 526.18109 : 1"
       sodipodi:type="inkscape:persp3d" />
  </defs>
  <metadata
     id="metadata7">
    <rdf:RDF>
      <cc:Work
         rdf:about="">
        <dc:format>image/svg+xml</dc:format>
        <dc:type
           rdf:resource="http://purl.org/dc/dcmitype/StillImage" />
      </cc:Work>
    </rdf:RDF>
  </metadata>
  <g
     id="layer1"
     inkscape:groupmode="layer"
     inkscape:label="Layer 1">
    <path
       id="path2383"
       d="M 92.533245,38.284848 L 334.25621,37.674437"
       style="fill:none;fill-rule:evenodd;stroke:#000000;stroke-width:1;stroke-linecap:butt;stroke-linejoin:miter;stroke-miterlimit:4;stroke-dasharray:4, 4;stroke-dashoffset:0;stroke-opacity:1" />
    <path
       sodipodi:nodetypes="csss"
       id="path3159"
       d="M 171.72593,45.146304 C 173.60031,34.729351 170.65646,28.957028 168.27313,27.350095 C 154.84017,18.293057 155.18123,77.80973 164.13276,103.71769 C 179.58995,148.45468 174.26018,197.77064 165.94507,226.22642"
       style="fill:none;fill-rule:evenodd;stroke:#000000;stroke-width:1px;stroke-linecap:butt;stroke-linejoin:miter;stroke-opacity:1" />
    <path
       style="fill:none;fill-rule:evenodd;stroke:#000000;stroke-width:1px;stroke-linecap:butt;stroke-linejoin:miter;stroke-opacity:1"
       d="M 193.72592,45.146304 C 195.6003,34.729351 192.65645,28.957028 190.27312,27.350095 C 176.84016,18.293057 177.18122,77.80973 186.13275,103.71769 C 201.77411,148.9877 196.13022,198.94643 187.64661,227.23459"
       id="path3161"
       sodipodi:nodetypes="csss" />
    <path
       sodipodi:nodetypes="csss"
       id="path3163"
       d="M 241.16386,51.082085 C 241.71486,44.75852 236.6338,39.514209 234.24394,39.724464 C 218.10522,41.144314 221.15204,90.184099 230.10357,116.09206 C 243.49219,154.84209 241.28523,197.02751 235.05115,226.11662"
       style="fill:none;fill-rule:evenodd;stroke:#000000;stroke-width:1px;stroke-linecap:butt;stroke-linejoin:miter;stroke-opacity:1" />
    <path
       style="fill:none;fill-rule:evenodd;stroke:#000000;stroke-width:1;stroke-linecap:butt;stroke-linejoin:miter;stroke-miterlimit:4;stroke-dasharray:4, 4;stroke-dashoffset:0;stroke-opacity:1"
       d="M 92.533245,210.28485 L 334.25621,209.67444"
       id="path3169" />
    <path
       id="path3175"
       d="M 112.65882,26.262715 L 73.046451,75.156437"
       style="fill:none;fill-rule:evenodd;stroke:#000000;stroke-width:1;stroke-linecap:butt;stroke-linejoin:miter;stroke-opacity:1;stroke-miterlimit:4;stroke-dasharray:none" />
    <g
       transform="matrix(0.8314707,0,0,1,34.404629,-13.889597)"
       id="g3199">
      <path
         style="fill:none;fill-rule:evenodd;stroke:#000000;stroke-width:1px;stroke-linecap:butt;stroke-linejoin:miter;stroke-opacity:1"
         d="M 143.18913,242.12605 C 151.97536,255.88315 158.0935,240.90949 164.65486,245.66158 C 170.59875,249.90977 169.76909,251.73128 170.68196,250.68605"
         id="path3195"
         sodipodi:nodetypes="ccc" />
      <path
         sodipodi:nodetypes="ccc"
         id="path3197"
         d="M 170.17897,251.22714 C 178.9652,237.47004 185.08334,252.4437 191.6447,247.69161 C 197.58859,243.44342 196.75893,241.62191 197.6718,242.66714"
         style="fill:none;fill-rule:evenodd;stroke:#000000;stroke-width:1px;stroke-linecap:butt;stroke-linejoin:miter;stroke-opacity:1" />
    </g>
    <g
       id="g4416"
       ns0:preamble=""
       ns0:text="$f=1$"
       transform="matrix(1.2,0,0,1.2,13.370929,87.540997)">
      <defs
         id="defs4418">
        <g
           id="g4420">
          <symbol
             id="textext-3058cf40-0"
             overflow="visible"
             style="overflow:visible">
            <path
               id="path4423"
               d=""
               style="stroke:none" />
          </symbol>
          <symbol
             id="textext-3058cf40-1"
             overflow="visible"
             style="overflow:visible">
            <path
               id="path4426"
               d="M 3.65625,-3.984375 L 4.515625,-3.984375 C 4.71875,-3.984375 4.8125,-3.984375 4.8125,-4.1875 C 4.8125,-4.296875 4.71875,-4.296875 4.546875,-4.296875 L 3.71875,-4.296875 C 3.828125,-4.875 3.8125,-4.859375 3.921875,-5.4375 C 3.96875,-5.640625 4.109375,-6.34375 4.171875,-6.46875 C 4.25,-6.65625 4.421875,-6.8125 4.640625,-6.8125 C 4.671875,-6.8125 4.9375,-6.8125 5.125,-6.625 C 4.6875,-6.59375 4.578125,-6.234375 4.578125,-6.09375 C 4.578125,-5.859375 4.765625,-5.734375 4.953125,-5.734375 C 5.21875,-5.734375 5.5,-5.96875 5.5,-6.34375 C 5.5,-6.796875 5.046875,-7.03125 4.640625,-7.03125 C 4.296875,-7.03125 3.671875,-6.84375 3.375,-5.859375 C 3.3125,-5.65625 3.28125,-5.546875 3.046875,-4.296875 L 2.359375,-4.296875 C 2.15625,-4.296875 2.046875,-4.296875 2.046875,-4.109375 C 2.046875,-3.984375 2.140625,-3.984375 2.328125,-3.984375 L 2.984375,-3.984375 L 2.25,-0.046875 C 2.0625,0.921875 1.890625,1.828125 1.375,1.828125 C 1.328125,1.828125 1.09375,1.828125 0.890625,1.640625 C 1.359375,1.609375 1.453125,1.25 1.453125,1.109375 C 1.453125,0.875 1.265625,0.75 1.078125,0.75 C 0.8125,0.75 0.53125,0.984375 0.53125,1.359375 C 0.53125,1.796875 0.96875,2.046875 1.375,2.046875 C 1.921875,2.046875 2.328125,1.453125 2.5,1.078125 C 2.828125,0.453125 3.046875,-0.75 3.0625,-0.828125 L 3.65625,-3.984375 z"
               style="stroke:none" />
          </symbol>
          <symbol
             id="textext-3058cf40-2"
             overflow="visible"
             style="overflow:visible">
            <path
               id="path4429"
               d=""
               style="stroke:none" />
          </symbol>
          <symbol
             id="textext-3058cf40-3"
             overflow="visible"
             style="overflow:visible">
            <path
               id="path4432"
               d="M 6.84375,-3.265625 C 7,-3.265625 7.1875,-3.265625 7.1875,-3.453125 C 7.1875,-3.65625 7,-3.65625 6.859375,-3.65625 L 0.890625,-3.65625 C 0.75,-3.65625 0.5625,-3.65625 0.5625,-3.453125 C 0.5625,-3.265625 0.75,-3.265625 0.890625,-3.265625 L 6.84375,-3.265625 z M 6.859375,-1.328125 C 7,-1.328125 7.1875,-1.328125 7.1875,-1.53125 C 7.1875,-1.71875 7,-1.71875 6.84375,-1.71875 L 0.890625,-1.71875 C 0.75,-1.71875 0.5625,-1.71875 0.5625,-1.53125 C 0.5625,-1.328125 0.75,-1.328125 0.890625,-1.328125 L 6.859375,-1.328125 z"
               style="stroke:none" />
          </symbol>
          <symbol
             id="textext-3058cf40-4"
             overflow="visible"
             style="overflow:visible">
            <path
               id="path4435"
               d="M 2.9375,-6.375 C 2.9375,-6.625 2.9375,-6.640625 2.703125,-6.640625 C 2.078125,-6 1.203125,-6 0.890625,-6 L 0.890625,-5.6875 C 1.09375,-5.6875 1.671875,-5.6875 2.1875,-5.953125 L 2.1875,-0.78125 C 2.1875,-0.421875 2.15625,-0.3125 1.265625,-0.3125 L 0.953125,-0.3125 L 0.953125,0 C 1.296875,-0.03125 2.15625,-0.03125 2.5625,-0.03125 C 2.953125,-0.03125 3.828125,-0.03125 4.171875,0 L 4.171875,-0.3125 L 3.859375,-0.3125 C 2.953125,-0.3125 2.9375,-0.421875 2.9375,-0.78125 L 2.9375,-6.375 z"
               style="stroke:none" />
          </symbol>
        </g>
      </defs>
      <g
         id="textext-3058cf40-5">
        <g
           id="g4438"
           style="fill:#000000;fill-opacity:1">
          <use
             id="use4440"
             y="134.765"
             x="223.43201"
             xlink:href="#textext-3058cf40-1"
             width="425.19684"
             height="318.89764" />
        </g>
        <g
           id="g4442"
           style="fill:#000000;fill-opacity:1">
          <use
             id="use4444"
             y="134.765"
             x="232.149"
             xlink:href="#textext-3058cf40-3"
             width="425.19684"
             height="318.89764" />
        </g>
        <g
           id="g4446"
           style="fill:#000000;fill-opacity:1">
          <use
             id="use4448"
             y="134.765"
             x="242.66751"
             xlink:href="#textext-3058cf40-4"
             width="425.19684"
             height="318.89764" />
        </g>
      </g>
    </g>
    <g
       transform="matrix(1.2,0,0,1.2,-45.708127,89.056227)"
       ns0:text="$f=0$"
       ns0:preamble=""
       id="g4734">
      <defs
         id="defs4736">
        <g
           id="g4738">
          <symbol
             style="overflow:visible"
             overflow="visible"
             id="textext-c7c3dac9-0">
            <path
               style="stroke:none"
               d=""
               id="path4741" />
          </symbol>
          <symbol
             style="overflow:visible"
             overflow="visible"
             id="textext-c7c3dac9-1">
            <path
               style="stroke:none"
               d="M 3.65625,-3.984375 L 4.515625,-3.984375 C 4.71875,-3.984375 4.8125,-3.984375 4.8125,-4.1875 C 4.8125,-4.296875 4.71875,-4.296875 4.546875,-4.296875 L 3.71875,-4.296875 C 3.828125,-4.875 3.8125,-4.859375 3.921875,-5.4375 C 3.96875,-5.640625 4.109375,-6.34375 4.171875,-6.46875 C 4.25,-6.65625 4.421875,-6.8125 4.640625,-6.8125 C 4.671875,-6.8125 4.9375,-6.8125 5.125,-6.625 C 4.6875,-6.59375 4.578125,-6.234375 4.578125,-6.09375 C 4.578125,-5.859375 4.765625,-5.734375 4.953125,-5.734375 C 5.21875,-5.734375 5.5,-5.96875 5.5,-6.34375 C 5.5,-6.796875 5.046875,-7.03125 4.640625,-7.03125 C 4.296875,-7.03125 3.671875,-6.84375 3.375,-5.859375 C 3.3125,-5.65625 3.28125,-5.546875 3.046875,-4.296875 L 2.359375,-4.296875 C 2.15625,-4.296875 2.046875,-4.296875 2.046875,-4.109375 C 2.046875,-3.984375 2.140625,-3.984375 2.328125,-3.984375 L 2.984375,-3.984375 L 2.25,-0.046875 C 2.0625,0.921875 1.890625,1.828125 1.375,1.828125 C 1.328125,1.828125 1.09375,1.828125 0.890625,1.640625 C 1.359375,1.609375 1.453125,1.25 1.453125,1.109375 C 1.453125,0.875 1.265625,0.75 1.078125,0.75 C 0.8125,0.75 0.53125,0.984375 0.53125,1.359375 C 0.53125,1.796875 0.96875,2.046875 1.375,2.046875 C 1.921875,2.046875 2.328125,1.453125 2.5,1.078125 C 2.828125,0.453125 3.046875,-0.75 3.0625,-0.828125 L 3.65625,-3.984375 z"
               id="path4744" />
          </symbol>
          <symbol
             style="overflow:visible"
             overflow="visible"
             id="textext-c7c3dac9-2">
            <path
               style="stroke:none"
               d=""
               id="path4747" />
          </symbol>
          <symbol
             style="overflow:visible"
             overflow="visible"
             id="textext-c7c3dac9-3">
            <path
               style="stroke:none"
               d="M 6.84375,-3.265625 C 7,-3.265625 7.1875,-3.265625 7.1875,-3.453125 C 7.1875,-3.65625 7,-3.65625 6.859375,-3.65625 L 0.890625,-3.65625 C 0.75,-3.65625 0.5625,-3.65625 0.5625,-3.453125 C 0.5625,-3.265625 0.75,-3.265625 0.890625,-3.265625 L 6.84375,-3.265625 z M 6.859375,-1.328125 C 7,-1.328125 7.1875,-1.328125 7.1875,-1.53125 C 7.1875,-1.71875 7,-1.71875 6.84375,-1.71875 L 0.890625,-1.71875 C 0.75,-1.71875 0.5625,-1.71875 0.5625,-1.53125 C 0.5625,-1.328125 0.75,-1.328125 0.890625,-1.328125 L 6.859375,-1.328125 z"
               id="path4750" />
          </symbol>
          <symbol
             style="overflow:visible"
             overflow="visible"
             id="textext-c7c3dac9-4">
            <path
               style="stroke:none"
               d="M 4.578125,-3.1875 C 4.578125,-3.984375 4.53125,-4.78125 4.1875,-5.515625 C 3.734375,-6.484375 2.90625,-6.640625 2.5,-6.640625 C 1.890625,-6.640625 1.171875,-6.375 0.75,-5.453125 C 0.4375,-4.765625 0.390625,-3.984375 0.390625,-3.1875 C 0.390625,-2.4375 0.421875,-1.546875 0.84375,-0.78125 C 1.265625,0.015625 2,0.21875 2.484375,0.21875 C 3.015625,0.21875 3.78125,0.015625 4.21875,-0.9375 C 4.53125,-1.625 4.578125,-2.40625 4.578125,-3.1875 z M 2.484375,0 C 2.09375,0 1.5,-0.25 1.328125,-1.203125 C 1.21875,-1.796875 1.21875,-2.71875 1.21875,-3.3125 C 1.21875,-3.953125 1.21875,-4.609375 1.296875,-5.140625 C 1.484375,-6.328125 2.234375,-6.421875 2.484375,-6.421875 C 2.8125,-6.421875 3.46875,-6.234375 3.65625,-5.25 C 3.765625,-4.6875 3.765625,-3.9375 3.765625,-3.3125 C 3.765625,-2.5625 3.765625,-1.890625 3.65625,-1.25 C 3.5,-0.296875 2.9375,0 2.484375,0 z"
               id="path4753" />
          </symbol>
        </g>
      </defs>
      <g
         id="textext-c7c3dac9-5">
        <g
           style="fill:#000000;fill-opacity:1"
           id="g4756">
          <use
             height="318.89764"
             width="425.19684"
             xlink:href="#textext-c7c3dac9-1"
             x="223.43201"
             y="134.765"
             id="use4758" />
        </g>
        <g
           style="fill:#000000;fill-opacity:1"
           id="g4760">
          <use
             height="318.89764"
             width="425.19684"
             xlink:href="#textext-c7c3dac9-3"
             x="232.149"
             y="134.765"
             id="use4762" />
        </g>
        <g
           style="fill:#000000;fill-opacity:1"
           id="g4764">
          <use
             height="318.89764"
             width="425.19684"
             xlink:href="#textext-c7c3dac9-4"
             x="242.66751"
             y="134.765"
             id="use4766" />
        </g>
      </g>
    </g>
    <g
       id="g5092"
       ns0:preamble=""
       ns0:text="$f=\\infty$"
       transform="matrix(1.2,0,0,1.2,-199.90252,86.311124)">
      <defs
         id="defs5094">
        <g
           id="g5096">
          <symbol
             id="textext-fb8c63ee-0"
             overflow="visible"
             style="overflow:visible">
            <path
               id="path5099"
               d=""
               style="stroke:none" />
          </symbol>
          <symbol
             id="textext-fb8c63ee-1"
             overflow="visible"
             style="overflow:visible">
            <path
               id="path5102"
               d="M 3.65625,-3.984375 L 4.515625,-3.984375 C 4.71875,-3.984375 4.8125,-3.984375 4.8125,-4.1875 C 4.8125,-4.296875 4.71875,-4.296875 4.546875,-4.296875 L 3.71875,-4.296875 C 3.828125,-4.875 3.8125,-4.859375 3.921875,-5.4375 C 3.96875,-5.640625 4.109375,-6.34375 4.171875,-6.46875 C 4.25,-6.65625 4.421875,-6.8125 4.640625,-6.8125 C 4.671875,-6.8125 4.9375,-6.8125 5.125,-6.625 C 4.6875,-6.59375 4.578125,-6.234375 4.578125,-6.09375 C 4.578125,-5.859375 4.765625,-5.734375 4.953125,-5.734375 C 5.21875,-5.734375 5.5,-5.96875 5.5,-6.34375 C 5.5,-6.796875 5.046875,-7.03125 4.640625,-7.03125 C 4.296875,-7.03125 3.671875,-6.84375 3.375,-5.859375 C 3.3125,-5.65625 3.28125,-5.546875 3.046875,-4.296875 L 2.359375,-4.296875 C 2.15625,-4.296875 2.046875,-4.296875 2.046875,-4.109375 C 2.046875,-3.984375 2.140625,-3.984375 2.328125,-3.984375 L 2.984375,-3.984375 L 2.25,-0.046875 C 2.0625,0.921875 1.890625,1.828125 1.375,1.828125 C 1.328125,1.828125 1.09375,1.828125 0.890625,1.640625 C 1.359375,1.609375 1.453125,1.25 1.453125,1.109375 C 1.453125,0.875 1.265625,0.75 1.078125,0.75 C 0.8125,0.75 0.53125,0.984375 0.53125,1.359375 C 0.53125,1.796875 0.96875,2.046875 1.375,2.046875 C 1.921875,2.046875 2.328125,1.453125 2.5,1.078125 C 2.828125,0.453125 3.046875,-0.75 3.0625,-0.828125 L 3.65625,-3.984375 z"
               style="stroke:none" />
          </symbol>
          <symbol
             id="textext-fb8c63ee-2"
             overflow="visible"
             style="overflow:visible">
            <path
               id="path5105"
               d=""
               style="stroke:none" />
          </symbol>
          <symbol
             id="textext-fb8c63ee-3"
             overflow="visible"
             style="overflow:visible">
            <path
               id="path5108"
               d="M 6.84375,-3.265625 C 7,-3.265625 7.1875,-3.265625 7.1875,-3.453125 C 7.1875,-3.65625 7,-3.65625 6.859375,-3.65625 L 0.890625,-3.65625 C 0.75,-3.65625 0.5625,-3.65625 0.5625,-3.453125 C 0.5625,-3.265625 0.75,-3.265625 0.890625,-3.265625 L 6.84375,-3.265625 z M 6.859375,-1.328125 C 7,-1.328125 7.1875,-1.328125 7.1875,-1.53125 C 7.1875,-1.71875 7,-1.71875 6.84375,-1.71875 L 0.890625,-1.71875 C 0.75,-1.71875 0.5625,-1.71875 0.5625,-1.53125 C 0.5625,-1.328125 0.75,-1.328125 0.890625,-1.328125 L 6.859375,-1.328125 z"
               style="stroke:none" />
          </symbol>
          <symbol
             id="textext-fb8c63ee-4"
             overflow="visible"
             style="overflow:visible">
            <path
               id="path5111"
               d=""
               style="stroke:none" />
          </symbol>
          <symbol
             id="textext-fb8c63ee-5"
             overflow="visible"
             style="overflow:visible">
            <path
               id="path5114"
               d="M 5.0625,-2.71875 C 4.390625,-3.515625 4.390625,-3.53125 4.171875,-3.71875 C 3.84375,-3.984375 3.265625,-4.40625 2.46875,-4.40625 C 1.3125,-4.40625 0.5625,-3.3125 0.5625,-2.140625 C 0.5625,-1.03125 1.25,0.109375 2.4375,0.109375 C 3.875,0.109375 4.765625,-1.359375 4.890625,-1.578125 C 5.5625,-0.78125 5.578125,-0.765625 5.796875,-0.578125 C 6.109375,-0.3125 6.703125,0.109375 7.484375,0.109375 C 8.640625,0.109375 9.40625,-0.984375 9.40625,-2.15625 C 9.40625,-3.265625 8.703125,-4.40625 7.515625,-4.40625 C 6.078125,-4.40625 5.1875,-2.9375 5.0625,-2.71875 z M 5.328125,-2.359375 C 5.703125,-3.046875 6.453125,-4.09375 7.59375,-4.09375 C 8.640625,-4.09375 9.1875,-3.046875 9.1875,-2.15625 C 9.1875,-1.15625 8.484375,-0.375 7.640625,-0.375 C 7.1875,-0.375 6.78125,-0.59375 6.328125,-1.09375 C 6.046875,-1.390625 5.609375,-2.03125 5.328125,-2.359375 z M 4.640625,-1.9375 C 4.25,-1.25 3.5,-0.203125 2.375,-0.203125 C 1.3125,-0.203125 0.78125,-1.25 0.78125,-2.140625 C 0.78125,-3.140625 1.46875,-3.921875 2.3125,-3.921875 C 2.765625,-3.921875 3.1875,-3.703125 3.625,-3.203125 C 3.90625,-2.90625 4.359375,-2.265625 4.640625,-1.9375 z"
               style="stroke:none" />
          </symbol>
        </g>
      </defs>
      <g
         id="textext-fb8c63ee-6">
        <g
           id="g5117"
           style="fill:#000000;fill-opacity:1">
          <use
             id="use5119"
             y="134.765"
             x="223.43201"
             xlink:href="#textext-fb8c63ee-1"
             width="425.19684"
             height="318.89764" />
        </g>
        <g
           id="g5121"
           style="fill:#000000;fill-opacity:1">
          <use
             id="use5123"
             y="134.765"
             x="232.149"
             xlink:href="#textext-fb8c63ee-3"
             width="425.19684"
             height="318.89764" />
        </g>
        <g
           id="g5125"
           style="fill:#000000;fill-opacity:1">
          <use
             id="use5127"
             y="134.765"
             x="242.66499"
             xlink:href="#textext-fb8c63ee-5"
             width="425.19684"
             height="318.89764" />
        </g>
      </g>
    </g>
    <g
       transform="matrix(1.2,0,0,1.2,-107.83686,88.811124)"
       ns0:text="$f=\\alpha$"
       ns0:preamble=""
       id="g5497">
      <defs
         id="defs5499">
        <g
           id="g5501">
          <symbol
             style="overflow:visible"
             overflow="visible"
             id="textext-1d457810-0">
            <path
               style="stroke:none"
               d=""
               id="path5504" />
          </symbol>
          <symbol
             style="overflow:visible"
             overflow="visible"
             id="textext-1d457810-1">
            <path
               style="stroke:none"
               d="M 3.65625,-3.984375 L 4.515625,-3.984375 C 4.71875,-3.984375 4.8125,-3.984375 4.8125,-4.1875 C 4.8125,-4.296875 4.71875,-4.296875 4.546875,-4.296875 L 3.71875,-4.296875 C 3.828125,-4.875 3.8125,-4.859375 3.921875,-5.4375 C 3.96875,-5.640625 4.109375,-6.34375 4.171875,-6.46875 C 4.25,-6.65625 4.421875,-6.8125 4.640625,-6.8125 C 4.671875,-6.8125 4.9375,-6.8125 5.125,-6.625 C 4.6875,-6.59375 4.578125,-6.234375 4.578125,-6.09375 C 4.578125,-5.859375 4.765625,-5.734375 4.953125,-5.734375 C 5.21875,-5.734375 5.5,-5.96875 5.5,-6.34375 C 5.5,-6.796875 5.046875,-7.03125 4.640625,-7.03125 C 4.296875,-7.03125 3.671875,-6.84375 3.375,-5.859375 C 3.3125,-5.65625 3.28125,-5.546875 3.046875,-4.296875 L 2.359375,-4.296875 C 2.15625,-4.296875 2.046875,-4.296875 2.046875,-4.109375 C 2.046875,-3.984375 2.140625,-3.984375 2.328125,-3.984375 L 2.984375,-3.984375 L 2.25,-0.046875 C 2.0625,0.921875 1.890625,1.828125 1.375,1.828125 C 1.328125,1.828125 1.09375,1.828125 0.890625,1.640625 C 1.359375,1.609375 1.453125,1.25 1.453125,1.109375 C 1.453125,0.875 1.265625,0.75 1.078125,0.75 C 0.8125,0.75 0.53125,0.984375 0.53125,1.359375 C 0.53125,1.796875 0.96875,2.046875 1.375,2.046875 C 1.921875,2.046875 2.328125,1.453125 2.5,1.078125 C 2.828125,0.453125 3.046875,-0.75 3.0625,-0.828125 L 3.65625,-3.984375 z"
               id="path5507" />
          </symbol>
          <symbol
             style="overflow:visible"
             overflow="visible"
             id="textext-1d457810-2">
            <path
               style="stroke:none"
               d="M 4.75,-2.359375 C 4.75,-3.921875 3.828125,-4.40625 3.09375,-4.40625 C 1.71875,-4.40625 0.40625,-2.984375 0.40625,-1.578125 C 0.40625,-0.640625 1,0.109375 2.03125,0.109375 C 2.65625,0.109375 3.375,-0.125 4.125,-0.734375 C 4.25,-0.203125 4.578125,0.109375 5.03125,0.109375 C 5.5625,0.109375 5.875,-0.4375 5.875,-0.59375 C 5.875,-0.671875 5.8125,-0.703125 5.75,-0.703125 C 5.6875,-0.703125 5.65625,-0.671875 5.625,-0.59375 C 5.4375,-0.109375 5.078125,-0.109375 5.0625,-0.109375 C 4.75,-0.109375 4.75,-0.890625 4.75,-1.125 C 4.75,-1.328125 4.75,-1.359375 4.859375,-1.46875 C 5.796875,-2.65625 6,-3.8125 6,-3.8125 C 6,-3.84375 5.984375,-3.921875 5.875,-3.921875 C 5.78125,-3.921875 5.78125,-3.890625 5.734375,-3.703125 C 5.546875,-3.078125 5.21875,-2.328125 4.75,-1.734375 L 4.75,-2.359375 z M 4.09375,-0.984375 C 3.203125,-0.21875 2.4375,-0.109375 2.046875,-0.109375 C 1.453125,-0.109375 1.140625,-0.5625 1.140625,-1.203125 C 1.140625,-1.6875 1.40625,-2.765625 1.71875,-3.265625 C 2.1875,-4 2.734375,-4.1875 3.078125,-4.1875 C 4.0625,-4.1875 4.0625,-2.875 4.0625,-2.109375 C 4.0625,-1.734375 4.0625,-1.15625 4.09375,-0.984375 z"
               id="path5510" />
          </symbol>
          <symbol
             style="overflow:visible"
             overflow="visible"
             id="textext-1d457810-3">
            <path
               style="stroke:none"
               d=""
               id="path5513" />
          </symbol>
          <symbol
             style="overflow:visible"
             overflow="visible"
             id="textext-1d457810-4">
            <path
               style="stroke:none"
               d="M 6.84375,-3.265625 C 7,-3.265625 7.1875,-3.265625 7.1875,-3.453125 C 7.1875,-3.65625 7,-3.65625 6.859375,-3.65625 L 0.890625,-3.65625 C 0.75,-3.65625 0.5625,-3.65625 0.5625,-3.453125 C 0.5625,-3.265625 0.75,-3.265625 0.890625,-3.265625 L 6.84375,-3.265625 z M 6.859375,-1.328125 C 7,-1.328125 7.1875,-1.328125 7.1875,-1.53125 C 7.1875,-1.71875 7,-1.71875 6.84375,-1.71875 L 0.890625,-1.71875 C 0.75,-1.71875 0.5625,-1.71875 0.5625,-1.53125 C 0.5625,-1.328125 0.75,-1.328125 0.890625,-1.328125 L 6.859375,-1.328125 z"
               id="path5516" />
          </symbol>
        </g>
      </defs>
      <g
         id="textext-1d457810-5">
        <g
           style="fill:#000000;fill-opacity:1"
           id="g5519">
          <use
             height="318.89764"
             width="425.19684"
             xlink:href="#textext-1d457810-1"
             x="223.43201"
             y="134.765"
             id="use5521" />
        </g>
        <g
           style="fill:#000000;fill-opacity:1"
           id="g5523">
          <use
             height="318.89764"
             width="425.19684"
             xlink:href="#textext-1d457810-4"
             x="232.149"
             y="134.765"
             id="use5525" />
        </g>
        <g
           style="fill:#000000;fill-opacity:1"
           id="g5527">
          <use
             height="318.89764"
             width="425.19684"
             xlink:href="#textext-1d457810-2"
             x="242.66499"
             y="134.765"
             id="use5529" />
        </g>
      </g>
    </g>
    <g
       id="g5939"
       ns0:preamble=""
       ns0:text="$\\alpha\\neq 0,1$"
       transform="matrix(1.2,0,0,1.2,-111.45905,102.47356)">
      <defs
         id="defs5941">
        <g
           id="g5943">
          <symbol
             id="textext-435070b8-0"
             overflow="visible"
             style="overflow:visible">
            <path
               id="path5946"
               d=""
               style="stroke:none" />
          </symbol>
          <symbol
             id="textext-435070b8-1"
             overflow="visible"
             style="overflow:visible">
            <path
               id="path5949"
               d="M 4.75,-2.359375 C 4.75,-3.921875 3.828125,-4.40625 3.09375,-4.40625 C 1.71875,-4.40625 0.40625,-2.984375 0.40625,-1.578125 C 0.40625,-0.640625 1,0.109375 2.03125,0.109375 C 2.65625,0.109375 3.375,-0.125 4.125,-0.734375 C 4.25,-0.203125 4.578125,0.109375 5.03125,0.109375 C 5.5625,0.109375 5.875,-0.4375 5.875,-0.59375 C 5.875,-0.671875 5.8125,-0.703125 5.75,-0.703125 C 5.6875,-0.703125 5.65625,-0.671875 5.625,-0.59375 C 5.4375,-0.109375 5.078125,-0.109375 5.0625,-0.109375 C 4.75,-0.109375 4.75,-0.890625 4.75,-1.125 C 4.75,-1.328125 4.75,-1.359375 4.859375,-1.46875 C 5.796875,-2.65625 6,-3.8125 6,-3.8125 C 6,-3.84375 5.984375,-3.921875 5.875,-3.921875 C 5.78125,-3.921875 5.78125,-3.890625 5.734375,-3.703125 C 5.546875,-3.078125 5.21875,-2.328125 4.75,-1.734375 L 4.75,-2.359375 z M 4.09375,-0.984375 C 3.203125,-0.21875 2.4375,-0.109375 2.046875,-0.109375 C 1.453125,-0.109375 1.140625,-0.5625 1.140625,-1.203125 C 1.140625,-1.6875 1.40625,-2.765625 1.71875,-3.265625 C 2.1875,-4 2.734375,-4.1875 3.078125,-4.1875 C 4.0625,-4.1875 4.0625,-2.875 4.0625,-2.109375 C 4.0625,-1.734375 4.0625,-1.15625 4.09375,-0.984375 z"
               style="stroke:none" />
          </symbol>
          <symbol
             id="textext-435070b8-2"
             overflow="visible"
             style="overflow:visible">
            <path
               id="path5952"
               d="M 2.03125,-0.015625 C 2.03125,-0.671875 1.78125,-1.0625 1.390625,-1.0625 C 1.0625,-1.0625 0.859375,-0.8125 0.859375,-0.53125 C 0.859375,-0.265625 1.0625,0 1.390625,0 C 1.5,0 1.640625,-0.046875 1.734375,-0.125 C 1.765625,-0.15625 1.78125,-0.15625 1.78125,-0.15625 C 1.796875,-0.15625 1.796875,-0.15625 1.796875,-0.015625 C 1.796875,0.734375 1.453125,1.328125 1.125,1.65625 C 1.015625,1.765625 1.015625,1.78125 1.015625,1.8125 C 1.015625,1.890625 1.0625,1.921875 1.109375,1.921875 C 1.21875,1.921875 2.03125,1.15625 2.03125,-0.015625 z"
               style="stroke:none" />
          </symbol>
          <symbol
             id="textext-435070b8-3"
             overflow="visible"
             style="overflow:visible">
            <path
               id="path5955"
               d=""
               style="stroke:none" />
          </symbol>
          <symbol
             id="textext-435070b8-4"
             overflow="visible"
             style="overflow:visible">
            <path
               id="path5958"
               d="M 6.296875,-6.765625 C 6.34375,-6.875 6.359375,-6.890625 6.359375,-6.9375 C 6.359375,-7.015625 6.296875,-7.140625 6.15625,-7.140625 C 6.0625,-7.140625 6,-7.078125 5.9375,-6.953125 L 1.453125,1.78125 C 1.390625,1.890625 1.390625,1.90625 1.390625,1.953125 C 1.390625,2.03125 1.453125,2.15625 1.578125,2.15625 C 1.6875,2.15625 1.75,2.09375 1.796875,1.96875 L 6.296875,-6.765625 z"
               style="stroke:none" />
          </symbol>
          <symbol
             id="textext-435070b8-5"
             overflow="visible"
             style="overflow:visible">
            <path
               id="path5961"
               d=""
               style="stroke:none" />
          </symbol>
          <symbol
             id="textext-435070b8-6"
             overflow="visible"
             style="overflow:visible">
            <path
               id="path5964"
               d="M 6.84375,-3.265625 C 7,-3.265625 7.1875,-3.265625 7.1875,-3.453125 C 7.1875,-3.65625 7,-3.65625 6.859375,-3.65625 L 0.890625,-3.65625 C 0.75,-3.65625 0.5625,-3.65625 0.5625,-3.453125 C 0.5625,-3.265625 0.75,-3.265625 0.890625,-3.265625 L 6.84375,-3.265625 z M 6.859375,-1.328125 C 7,-1.328125 7.1875,-1.328125 7.1875,-1.53125 C 7.1875,-1.71875 7,-1.71875 6.84375,-1.71875 L 0.890625,-1.71875 C 0.75,-1.71875 0.5625,-1.71875 0.5625,-1.53125 C 0.5625,-1.328125 0.75,-1.328125 0.890625,-1.328125 L 6.859375,-1.328125 z"
               style="stroke:none" />
          </symbol>
          <symbol
             id="textext-435070b8-7"
             overflow="visible"
             style="overflow:visible">
            <path
               id="path5967"
               d="M 4.578125,-3.1875 C 4.578125,-3.984375 4.53125,-4.78125 4.1875,-5.515625 C 3.734375,-6.484375 2.90625,-6.640625 2.5,-6.640625 C 1.890625,-6.640625 1.171875,-6.375 0.75,-5.453125 C 0.4375,-4.765625 0.390625,-3.984375 0.390625,-3.1875 C 0.390625,-2.4375 0.421875,-1.546875 0.84375,-0.78125 C 1.265625,0.015625 2,0.21875 2.484375,0.21875 C 3.015625,0.21875 3.78125,0.015625 4.21875,-0.9375 C 4.53125,-1.625 4.578125,-2.40625 4.578125,-3.1875 z M 2.484375,0 C 2.09375,0 1.5,-0.25 1.328125,-1.203125 C 1.21875,-1.796875 1.21875,-2.71875 1.21875,-3.3125 C 1.21875,-3.953125 1.21875,-4.609375 1.296875,-5.140625 C 1.484375,-6.328125 2.234375,-6.421875 2.484375,-6.421875 C 2.8125,-6.421875 3.46875,-6.234375 3.65625,-5.25 C 3.765625,-4.6875 3.765625,-3.9375 3.765625,-3.3125 C 3.765625,-2.5625 3.765625,-1.890625 3.65625,-1.25 C 3.5,-0.296875 2.9375,0 2.484375,0 z"
               style="stroke:none" />
          </symbol>
          <symbol
             id="textext-435070b8-8"
             overflow="visible"
             style="overflow:visible">
            <path
               id="path5970"
               d="M 2.9375,-6.375 C 2.9375,-6.625 2.9375,-6.640625 2.703125,-6.640625 C 2.078125,-6 1.203125,-6 0.890625,-6 L 0.890625,-5.6875 C 1.09375,-5.6875 1.671875,-5.6875 2.1875,-5.953125 L 2.1875,-0.78125 C 2.1875,-0.421875 2.15625,-0.3125 1.265625,-0.3125 L 0.953125,-0.3125 L 0.953125,0 C 1.296875,-0.03125 2.15625,-0.03125 2.5625,-0.03125 C 2.953125,-0.03125 3.828125,-0.03125 4.171875,0 L 4.171875,-0.3125 L 3.859375,-0.3125 C 2.953125,-0.3125 2.9375,-0.421875 2.9375,-0.78125 L 2.9375,-6.375 z"
               style="stroke:none" />
          </symbol>
        </g>
      </defs>
      <g
         id="textext-435070b8-9">
        <g
           id="g5973"
           style="fill:#000000;fill-opacity:1">
          <use
             id="use5975"
             y="134.765"
             x="223.43201"
             xlink:href="#textext-435070b8-1"
             width="425.19684"
             height="318.89764" />
        </g>
        <g
           id="g5977"
           style="fill:#000000;fill-opacity:1">
          <use
             id="use5979"
             y="134.765"
             x="232.60899"
             xlink:href="#textext-435070b8-4"
             width="425.19684"
             height="318.89764" />
        </g>
        <g
           id="g5981"
           style="fill:#000000;fill-opacity:1">
          <use
             id="use5983"
             y="134.765"
             x="232.60899"
             xlink:href="#textext-435070b8-6"
             width="425.19684"
             height="318.89764" />
        </g>
        <g
           id="g5985"
           style="fill:#000000;fill-opacity:1">
          <use
             id="use5987"
             y="134.765"
             x="243.12752"
             xlink:href="#textext-435070b8-7"
             width="425.19684"
             height="318.89764" />
        </g>
        <g
           id="g5989"
           style="fill:#000000;fill-opacity:1">
          <use
             id="use5991"
             y="134.765"
             x="248.10699"
             xlink:href="#textext-435070b8-2"
             width="425.19684"
             height="318.89764" />
        </g>
        <g
           id="g5993"
           style="fill:#000000;fill-opacity:1">
          <use
             id="use5995"
             y="134.765"
             x="252.535"
             xlink:href="#textext-435070b8-8"
             width="425.19684"
             height="318.89764" />
        </g>
      </g>
    </g>
    <path
       style="fill:none;fill-rule:evenodd;stroke:#000000;stroke-width:1px;stroke-linecap:butt;stroke-linejoin:miter;stroke-opacity:1"
       d="M 82.142857,47.826217 C 82.142857,118.5405 81.785714,118.5405 81.785714,118.5405"
       id="path3460" />
    <path
       style="fill:none;fill-rule:evenodd;stroke:#000000;stroke-width:1px;stroke-linecap:butt;stroke-linejoin:miter;stroke-opacity:1"
       d="M 73.571428,94.254788 L 102.5,140.68336"
       id="path3462" />
    <path
       style="fill:none;fill-rule:evenodd;stroke:#000000;stroke-width:1px;stroke-linecap:butt;stroke-linejoin:miter;stroke-opacity:1"
       d="M 102.14286,129.25479 L 62.857142,212.82622"
       id="path3464" />
    <path
       style="fill:none;fill-rule:evenodd;stroke:#000000;stroke-width:1px;stroke-linecap:butt;stroke-linejoin:miter;stroke-opacity:1"
       d="M 71.428571,138.18336 L 114.28571,223.89764"
       id="path3466" />
    <path
       style="fill:none;fill-rule:evenodd;stroke:#000000;stroke-width:1px;stroke-linecap:butt;stroke-linejoin:miter;stroke-opacity:1"
       d="M 30.714286,132.46907 L 71.071428,208.5405"
       id="path3468" />
    <path
       style="fill:none;fill-rule:evenodd;stroke:#000000;stroke-width:1px;stroke-linecap:butt;stroke-linejoin:miter;stroke-opacity:1"
       d="M 329.07543,25.710096 C 326.93956,36.853409 327.38853,81.376826 319.64286,118.5405 C 312.0023,155.99129 298.10696,188.6799 295.44243,225.00183"
       id="path3470"
       sodipodi:nodetypes="ccs" />
    <path
       style="fill:none;fill-rule:evenodd;stroke:#000000;stroke-width:1px;stroke-linecap:butt;stroke-linejoin:miter;stroke-opacity:1"
       d="M 305,25.326217 C 305.37638,28.48709 305.35543,33.972371 305.70737,38.186524 C 307.99809,65.615939 310.24131,101.73806 329.28571,114.96908"
       id="path3472"
       sodipodi:nodetypes="csc" />
    <g
       transform="matrix(1.2,0,0,1.2,96.785714,52.857143)"
       ns0:text="$S_{2}$"
       ns0:preamble=""
       id="g3612">
      <defs
         id="defs3614">
        <g
           id="g3616">
          <symbol
             style="overflow:visible"
             overflow="visible"
             id="textext-f4d6bb7e-0">
            <path
               style="stroke:none"
               d=""
               id="path3619" />
          </symbol>
          <symbol
             style="overflow:visible"
             overflow="visible"
             id="textext-f4d6bb7e-1">
            <path
               style="stroke:none"
               d="M 6.4375,-6.921875 C 6.4375,-6.953125 6.40625,-7.03125 6.3125,-7.03125 C 6.265625,-7.03125 6.265625,-7.015625 6.140625,-6.875 L 5.65625,-6.3125 C 5.40625,-6.78125 4.890625,-7.03125 4.234375,-7.03125 C 2.96875,-7.03125 1.78125,-5.875 1.78125,-4.671875 C 1.78125,-3.875 2.296875,-3.40625 2.8125,-3.265625 L 3.875,-2.984375 C 4.25,-2.890625 4.796875,-2.734375 4.796875,-1.921875 C 4.796875,-1.03125 3.984375,-0.09375 3,-0.09375 C 2.359375,-0.09375 1.25,-0.3125 1.25,-1.546875 C 1.25,-1.78125 1.3125,-2.03125 1.3125,-2.078125 C 1.328125,-2.125 1.328125,-2.140625 1.328125,-2.15625 C 1.328125,-2.25 1.265625,-2.265625 1.21875,-2.265625 C 1.171875,-2.265625 1.140625,-2.25 1.109375,-2.21875 C 1.078125,-2.1875 0.515625,0.09375 0.515625,0.125 C 0.515625,0.171875 0.5625,0.21875 0.625,0.21875 C 0.671875,0.21875 0.6875,0.203125 0.8125,0.0625 L 1.296875,-0.5 C 1.71875,0.078125 2.40625,0.21875 2.984375,0.21875 C 4.34375,0.21875 5.515625,-1.109375 5.515625,-2.34375 C 5.515625,-3.03125 5.171875,-3.375 5.03125,-3.515625 C 4.796875,-3.734375 4.640625,-3.78125 3.765625,-4 C 3.53125,-4.0625 3.1875,-4.171875 3.09375,-4.1875 C 2.828125,-4.28125 2.484375,-4.5625 2.484375,-5.09375 C 2.484375,-5.90625 3.28125,-6.75 4.234375,-6.75 C 5.046875,-6.75 5.65625,-6.3125 5.65625,-5.203125 C 5.65625,-4.890625 5.625,-4.703125 5.625,-4.640625 C 5.625,-4.640625 5.625,-4.546875 5.734375,-4.546875 C 5.84375,-4.546875 5.859375,-4.578125 5.890625,-4.75 L 6.4375,-6.921875 z"
               id="path3622" />
          </symbol>
          <symbol
             style="overflow:visible"
             overflow="visible"
             id="textext-f4d6bb7e-2">
            <path
               style="stroke:none"
               d=""
               id="path3625" />
          </symbol>
          <symbol
             style="overflow:visible"
             overflow="visible"
             id="textext-f4d6bb7e-3">
            <path
               style="stroke:none"
               d="M 3.515625,-1.265625 L 3.28125,-1.265625 C 3.265625,-1.109375 3.1875,-0.703125 3.09375,-0.640625 C 3.046875,-0.59375 2.515625,-0.59375 2.40625,-0.59375 L 1.125,-0.59375 C 1.859375,-1.234375 2.109375,-1.4375 2.515625,-1.765625 C 3.03125,-2.171875 3.515625,-2.609375 3.515625,-3.265625 C 3.515625,-4.109375 2.78125,-4.625 1.890625,-4.625 C 1.03125,-4.625 0.4375,-4.015625 0.4375,-3.375 C 0.4375,-3.03125 0.734375,-2.984375 0.8125,-2.984375 C 0.96875,-2.984375 1.171875,-3.109375 1.171875,-3.359375 C 1.171875,-3.484375 1.125,-3.734375 0.765625,-3.734375 C 0.984375,-4.21875 1.453125,-4.375 1.78125,-4.375 C 2.484375,-4.375 2.84375,-3.828125 2.84375,-3.265625 C 2.84375,-2.65625 2.40625,-2.1875 2.1875,-1.9375 L 0.515625,-0.265625 C 0.4375,-0.203125 0.4375,-0.1875 0.4375,0 L 3.3125,0 L 3.515625,-1.265625 z"
               id="path3628" />
          </symbol>
        </g>
      </defs>
      <g
         id="textext-f4d6bb7e-4">
        <g
           style="fill:#000000;fill-opacity:1"
           id="g3631">
          <use
             height="318.89764"
             width="425.19684"
             xlink:href="#textext-f4d6bb7e-1"
             x="223.43201"
             y="134.765"
             id="use3633" />
        </g>
        <g
           style="fill:#000000;fill-opacity:1"
           id="g3635">
          <use
             height="318.89764"
             width="425.19684"
             xlink:href="#textext-f4d6bb7e-3"
             x="229.541"
             y="136.259"
             id="use3637" />
        </g>
      </g>
    </g>
    <g
       id="g3945"
       ns0:preamble=""
       ns0:text="$S_{1}$"
       transform="matrix(1.2,0,0,1.2,95,-121.42857)">
      <defs
         id="defs3947">
        <g
           id="g3949">
          <symbol
             id="textext-fd17d783-0"
             overflow="visible"
             style="overflow:visible">
            <path
               id="path3952"
               d=""
               style="stroke:none" />
          </symbol>
          <symbol
             id="textext-fd17d783-1"
             overflow="visible"
             style="overflow:visible">
            <path
               id="path3955"
               d="M 6.4375,-6.921875 C 6.4375,-6.953125 6.40625,-7.03125 6.3125,-7.03125 C 6.265625,-7.03125 6.265625,-7.015625 6.140625,-6.875 L 5.65625,-6.3125 C 5.40625,-6.78125 4.890625,-7.03125 4.234375,-7.03125 C 2.96875,-7.03125 1.78125,-5.875 1.78125,-4.671875 C 1.78125,-3.875 2.296875,-3.40625 2.8125,-3.265625 L 3.875,-2.984375 C 4.25,-2.890625 4.796875,-2.734375 4.796875,-1.921875 C 4.796875,-1.03125 3.984375,-0.09375 3,-0.09375 C 2.359375,-0.09375 1.25,-0.3125 1.25,-1.546875 C 1.25,-1.78125 1.3125,-2.03125 1.3125,-2.078125 C 1.328125,-2.125 1.328125,-2.140625 1.328125,-2.15625 C 1.328125,-2.25 1.265625,-2.265625 1.21875,-2.265625 C 1.171875,-2.265625 1.140625,-2.25 1.109375,-2.21875 C 1.078125,-2.1875 0.515625,0.09375 0.515625,0.125 C 0.515625,0.171875 0.5625,0.21875 0.625,0.21875 C 0.671875,0.21875 0.6875,0.203125 0.8125,0.0625 L 1.296875,-0.5 C 1.71875,0.078125 2.40625,0.21875 2.984375,0.21875 C 4.34375,0.21875 5.515625,-1.109375 5.515625,-2.34375 C 5.515625,-3.03125 5.171875,-3.375 5.03125,-3.515625 C 4.796875,-3.734375 4.640625,-3.78125 3.765625,-4 C 3.53125,-4.0625 3.1875,-4.171875 3.09375,-4.1875 C 2.828125,-4.28125 2.484375,-4.5625 2.484375,-5.09375 C 2.484375,-5.90625 3.28125,-6.75 4.234375,-6.75 C 5.046875,-6.75 5.65625,-6.3125 5.65625,-5.203125 C 5.65625,-4.890625 5.625,-4.703125 5.625,-4.640625 C 5.625,-4.640625 5.625,-4.546875 5.734375,-4.546875 C 5.84375,-4.546875 5.859375,-4.578125 5.890625,-4.75 L 6.4375,-6.921875 z"
               style="stroke:none" />
          </symbol>
          <symbol
             id="textext-fd17d783-2"
             overflow="visible"
             style="overflow:visible">
            <path
               id="path3958"
               d=""
               style="stroke:none" />
          </symbol>
          <symbol
             id="textext-fd17d783-3"
             overflow="visible"
             style="overflow:visible">
            <path
               id="path3961"
               d="M 2.328125,-4.4375 C 2.328125,-4.625 2.328125,-4.625 2.125,-4.625 C 1.671875,-4.1875 1.046875,-4.1875 0.765625,-4.1875 L 0.765625,-3.9375 C 0.921875,-3.9375 1.390625,-3.9375 1.765625,-4.125 L 1.765625,-0.578125 C 1.765625,-0.34375 1.765625,-0.25 1.078125,-0.25 L 0.8125,-0.25 L 0.8125,0 C 0.9375,0 1.796875,-0.03125 2.046875,-0.03125 C 2.265625,-0.03125 3.140625,0 3.296875,0 L 3.296875,-0.25 L 3.03125,-0.25 C 2.328125,-0.25 2.328125,-0.34375 2.328125,-0.578125 L 2.328125,-4.4375 z"
               style="stroke:none" />
          </symbol>
        </g>
      </defs>
      <g
         id="textext-fd17d783-4">
        <g
           id="g3964"
           style="fill:#000000;fill-opacity:1">
          <use
             id="use3966"
             y="134.765"
             x="223.43201"
             xlink:href="#textext-fd17d783-1"
             width="425.19684"
             height="318.89764" />
        </g>
        <g
           id="g3968"
           style="fill:#000000;fill-opacity:1">
          <use
             id="use3970"
             y="136.259"
             x="229.541"
             xlink:href="#textext-fd17d783-3"
             width="425.19684"
             height="318.89764" />
        </g>
      </g>
    </g>
    <g
       transform="matrix(1.2,0,0,1.2,26.428571,-69.642857)"
       ns0:text="$D_{1}$"
       ns0:preamble=""
       id="g4310">
      <defs
         id="defs4312">
        <g
           id="g4314">
          <symbol
             style="overflow:visible"
             overflow="visible"
             id="textext-238fcf2e-0">
            <path
               style="stroke:none"
               d=""
               id="path4317" />
          </symbol>
          <symbol
             style="overflow:visible"
             overflow="visible"
             id="textext-238fcf2e-1">
            <path
               style="stroke:none"
               d="M 1.578125,-0.78125 C 1.484375,-0.390625 1.46875,-0.3125 0.671875,-0.3125 C 0.515625,-0.3125 0.40625,-0.3125 0.40625,-0.125 C 0.40625,0 0.484375,0 0.671875,0 L 3.984375,0 C 6.046875,0 8.015625,-2.109375 8.015625,-4.28125 C 8.015625,-5.6875 7.171875,-6.8125 5.671875,-6.8125 L 2.328125,-6.8125 C 2.140625,-6.8125 2.03125,-6.8125 2.03125,-6.625 C 2.03125,-6.5 2.109375,-6.5 2.3125,-6.5 C 2.4375,-6.5 2.625,-6.484375 2.734375,-6.484375 C 2.90625,-6.453125 2.953125,-6.4375 2.953125,-6.3125 C 2.953125,-6.28125 2.953125,-6.25 2.921875,-6.125 L 1.578125,-0.78125 z M 3.734375,-6.125 C 3.828125,-6.46875 3.84375,-6.5 4.28125,-6.5 L 5.34375,-6.5 C 6.3125,-6.5 7.140625,-5.96875 7.140625,-4.65625 C 7.140625,-4.171875 6.953125,-2.53125 6.09375,-1.4375 C 5.8125,-1.0625 5.03125,-0.3125 3.796875,-0.3125 L 2.671875,-0.3125 C 2.53125,-0.3125 2.515625,-0.3125 2.453125,-0.3125 C 2.359375,-0.328125 2.328125,-0.34375 2.328125,-0.421875 C 2.328125,-0.453125 2.328125,-0.46875 2.375,-0.640625 L 3.734375,-6.125 z"
               id="path4320" />
          </symbol>
          <symbol
             style="overflow:visible"
             overflow="visible"
             id="textext-238fcf2e-2">
            <path
               style="stroke:none"
               d=""
               id="path4323" />
          </symbol>
          <symbol
             style="overflow:visible"
             overflow="visible"
             id="textext-238fcf2e-3">
            <path
               style="stroke:none"
               d="M 2.328125,-4.4375 C 2.328125,-4.625 2.328125,-4.625 2.125,-4.625 C 1.671875,-4.1875 1.046875,-4.1875 0.765625,-4.1875 L 0.765625,-3.9375 C 0.921875,-3.9375 1.390625,-3.9375 1.765625,-4.125 L 1.765625,-0.578125 C 1.765625,-0.34375 1.765625,-0.25 1.078125,-0.25 L 0.8125,-0.25 L 0.8125,0 C 0.9375,0 1.796875,-0.03125 2.046875,-0.03125 C 2.265625,-0.03125 3.140625,0 3.296875,0 L 3.296875,-0.25 L 3.03125,-0.25 C 2.328125,-0.25 2.328125,-0.34375 2.328125,-0.578125 L 2.328125,-4.4375 z"
               id="path4326" />
          </symbol>
        </g>
      </defs>
      <g
         id="textext-238fcf2e-4">
        <g
           style="fill:#000000;fill-opacity:1"
           id="g4329">
          <use
             height="318.89764"
             width="425.19684"
             xlink:href="#textext-238fcf2e-1"
             x="223.43201"
             y="134.765"
             id="use4331" />
        </g>
        <g
           style="fill:#000000;fill-opacity:1"
           id="g4333">
          <use
             height="318.89764"
             width="425.19684"
             xlink:href="#textext-238fcf2e-3"
             x="231.67999"
             y="136.259"
             id="use4335" />
        </g>
      </g>
    </g>
    <g
       id="g4707"
       ns0:preamble=""
       ns0:text="$C_{1}$"
       transform="matrix(1.2,0,0,1.2,-170.71578,-102.53048)">
      <defs
         id="defs4709">
        <g
           id="g4711">
          <symbol
             id="textext-0159f184-0"
             overflow="visible"
             style="overflow:visible">
            <path
               id="path4714"
               d=""
               style="stroke:none" />
          </symbol>
          <symbol
             id="textext-0159f184-1"
             overflow="visible"
             style="overflow:visible">
            <path
               id="path4717"
               d="M 7.578125,-6.921875 C 7.578125,-6.953125 7.5625,-7.03125 7.46875,-7.03125 C 7.4375,-7.03125 7.421875,-7.015625 7.3125,-6.90625 L 6.625,-6.140625 C 6.53125,-6.28125 6.078125,-7.03125 4.96875,-7.03125 C 2.734375,-7.03125 0.5,-4.828125 0.5,-2.515625 C 0.5,-0.875 1.671875,0.21875 3.203125,0.21875 C 4.0625,0.21875 4.828125,-0.171875 5.359375,-0.640625 C 6.28125,-1.453125 6.453125,-2.359375 6.453125,-2.390625 C 6.453125,-2.5 6.34375,-2.5 6.328125,-2.5 C 6.265625,-2.5 6.21875,-2.46875 6.203125,-2.390625 C 6.109375,-2.109375 5.875,-1.390625 5.1875,-0.8125 C 4.5,-0.265625 3.875,-0.09375 3.359375,-0.09375 C 2.46875,-0.09375 1.40625,-0.609375 1.40625,-2.15625 C 1.40625,-2.734375 1.609375,-4.34375 2.609375,-5.515625 C 3.21875,-6.21875 4.15625,-6.71875 5.046875,-6.71875 C 6.0625,-6.71875 6.65625,-5.953125 6.65625,-4.796875 C 6.65625,-4.390625 6.625,-4.390625 6.625,-4.28125 C 6.625,-4.1875 6.734375,-4.1875 6.765625,-4.1875 C 6.890625,-4.1875 6.890625,-4.203125 6.953125,-4.390625 L 7.578125,-6.921875 z"
               style="stroke:none" />
          </symbol>
          <symbol
             id="textext-0159f184-2"
             overflow="visible"
             style="overflow:visible">
            <path
               id="path4720"
               d=""
               style="stroke:none" />
          </symbol>
          <symbol
             id="textext-0159f184-3"
             overflow="visible"
             style="overflow:visible">
            <path
               id="path4723"
               d="M 2.328125,-4.4375 C 2.328125,-4.625 2.328125,-4.625 2.125,-4.625 C 1.671875,-4.1875 1.046875,-4.1875 0.765625,-4.1875 L 0.765625,-3.9375 C 0.921875,-3.9375 1.390625,-3.9375 1.765625,-4.125 L 1.765625,-0.578125 C 1.765625,-0.34375 1.765625,-0.25 1.078125,-0.25 L 0.8125,-0.25 L 0.8125,0 C 0.9375,0 1.796875,-0.03125 2.046875,-0.03125 C 2.265625,-0.03125 3.140625,0 3.296875,0 L 3.296875,-0.25 L 3.03125,-0.25 C 2.328125,-0.25 2.328125,-0.34375 2.328125,-0.578125 L 2.328125,-4.4375 z"
               style="stroke:none" />
          </symbol>
        </g>
      </defs>
      <g
         id="textext-0159f184-4">
        <g
           id="g4726"
           style="fill:#000000;fill-opacity:1">
          <use
             id="use4728"
             y="134.765"
             x="223.43201"
             xlink:href="#textext-0159f184-1"
             width="425.19684"
             height="318.89764" />
        </g>
        <g
           id="g4730"
           style="fill:#000000;fill-opacity:1">
          <use
             id="use4732"
             y="136.259"
             x="230.55299"
             xlink:href="#textext-0159f184-3"
             width="425.19684"
             height="318.89764" />
        </g>
      </g>
    </g>
    <g
       transform="matrix(1.2,0,0,1.2,-180.8173,-71.215754)"
       ns0:text="$C_{2}$"
       ns0:preamble=""
       id="g5136">
      <defs
         id="defs5138">
        <g
           id="g5140">
          <symbol
             style="overflow:visible"
             overflow="visible"
             id="textext-5d9bfd80-0">
            <path
               style="stroke:none"
               d=""
               id="path5143" />
          </symbol>
          <symbol
             style="overflow:visible"
             overflow="visible"
             id="textext-5d9bfd80-1">
            <path
               style="stroke:none"
               d="M 7.578125,-6.921875 C 7.578125,-6.953125 7.5625,-7.03125 7.46875,-7.03125 C 7.4375,-7.03125 7.421875,-7.015625 7.3125,-6.90625 L 6.625,-6.140625 C 6.53125,-6.28125 6.078125,-7.03125 4.96875,-7.03125 C 2.734375,-7.03125 0.5,-4.828125 0.5,-2.515625 C 0.5,-0.875 1.671875,0.21875 3.203125,0.21875 C 4.0625,0.21875 4.828125,-0.171875 5.359375,-0.640625 C 6.28125,-1.453125 6.453125,-2.359375 6.453125,-2.390625 C 6.453125,-2.5 6.34375,-2.5 6.328125,-2.5 C 6.265625,-2.5 6.21875,-2.46875 6.203125,-2.390625 C 6.109375,-2.109375 5.875,-1.390625 5.1875,-0.8125 C 4.5,-0.265625 3.875,-0.09375 3.359375,-0.09375 C 2.46875,-0.09375 1.40625,-0.609375 1.40625,-2.15625 C 1.40625,-2.734375 1.609375,-4.34375 2.609375,-5.515625 C 3.21875,-6.21875 4.15625,-6.71875 5.046875,-6.71875 C 6.0625,-6.71875 6.65625,-5.953125 6.65625,-4.796875 C 6.65625,-4.390625 6.625,-4.390625 6.625,-4.28125 C 6.625,-4.1875 6.734375,-4.1875 6.765625,-4.1875 C 6.890625,-4.1875 6.890625,-4.203125 6.953125,-4.390625 L 7.578125,-6.921875 z"
               id="path5146" />
          </symbol>
          <symbol
             style="overflow:visible"
             overflow="visible"
             id="textext-5d9bfd80-2">
            <path
               style="stroke:none"
               d=""
               id="path5149" />
          </symbol>
          <symbol
             style="overflow:visible"
             overflow="visible"
             id="textext-5d9bfd80-3">
            <path
               style="stroke:none"
               d="M 3.515625,-1.265625 L 3.28125,-1.265625 C 3.265625,-1.109375 3.1875,-0.703125 3.09375,-0.640625 C 3.046875,-0.59375 2.515625,-0.59375 2.40625,-0.59375 L 1.125,-0.59375 C 1.859375,-1.234375 2.109375,-1.4375 2.515625,-1.765625 C 3.03125,-2.171875 3.515625,-2.609375 3.515625,-3.265625 C 3.515625,-4.109375 2.78125,-4.625 1.890625,-4.625 C 1.03125,-4.625 0.4375,-4.015625 0.4375,-3.375 C 0.4375,-3.03125 0.734375,-2.984375 0.8125,-2.984375 C 0.96875,-2.984375 1.171875,-3.109375 1.171875,-3.359375 C 1.171875,-3.484375 1.125,-3.734375 0.765625,-3.734375 C 0.984375,-4.21875 1.453125,-4.375 1.78125,-4.375 C 2.484375,-4.375 2.84375,-3.828125 2.84375,-3.265625 C 2.84375,-2.65625 2.40625,-2.1875 2.1875,-1.9375 L 0.515625,-0.265625 C 0.4375,-0.203125 0.4375,-0.1875 0.4375,0 L 3.3125,0 L 3.515625,-1.265625 z"
               id="path5152" />
          </symbol>
        </g>
      </defs>
      <g
         id="textext-5d9bfd80-4">
        <g
           style="fill:#000000;fill-opacity:1"
           id="g5155">
          <use
             height="318.89764"
             width="425.19684"
             xlink:href="#textext-5d9bfd80-1"
             x="223.43201"
             y="134.765"
             id="use5157" />
        </g>
        <g
           style="fill:#000000;fill-opacity:1"
           id="g5159">
          <use
             height="318.89764"
             width="425.19684"
             xlink:href="#textext-5d9bfd80-3"
             x="230.55299"
             y="136.259"
             id="use5161" />
        </g>
      </g>
    </g>
    <g
       id="g5597"
       ns0:preamble=""
       ns0:text="$C_{3}$"
       transform="matrix(1.2,0,0,1.2,-172.23101,-39.901025)">
      <defs
         id="defs5599">
        <g
           id="g5601">
          <symbol
             id="textext-de79872c-0"
             overflow="visible"
             style="overflow:visible">
            <path
               id="path5604"
               d=""
               style="stroke:none" />
          </symbol>
          <symbol
             id="textext-de79872c-1"
             overflow="visible"
             style="overflow:visible">
            <path
               id="path5607"
               d="M 7.578125,-6.921875 C 7.578125,-6.953125 7.5625,-7.03125 7.46875,-7.03125 C 7.4375,-7.03125 7.421875,-7.015625 7.3125,-6.90625 L 6.625,-6.140625 C 6.53125,-6.28125 6.078125,-7.03125 4.96875,-7.03125 C 2.734375,-7.03125 0.5,-4.828125 0.5,-2.515625 C 0.5,-0.875 1.671875,0.21875 3.203125,0.21875 C 4.0625,0.21875 4.828125,-0.171875 5.359375,-0.640625 C 6.28125,-1.453125 6.453125,-2.359375 6.453125,-2.390625 C 6.453125,-2.5 6.34375,-2.5 6.328125,-2.5 C 6.265625,-2.5 6.21875,-2.46875 6.203125,-2.390625 C 6.109375,-2.109375 5.875,-1.390625 5.1875,-0.8125 C 4.5,-0.265625 3.875,-0.09375 3.359375,-0.09375 C 2.46875,-0.09375 1.40625,-0.609375 1.40625,-2.15625 C 1.40625,-2.734375 1.609375,-4.34375 2.609375,-5.515625 C 3.21875,-6.21875 4.15625,-6.71875 5.046875,-6.71875 C 6.0625,-6.71875 6.65625,-5.953125 6.65625,-4.796875 C 6.65625,-4.390625 6.625,-4.390625 6.625,-4.28125 C 6.625,-4.1875 6.734375,-4.1875 6.765625,-4.1875 C 6.890625,-4.1875 6.890625,-4.203125 6.953125,-4.390625 L 7.578125,-6.921875 z"
               style="stroke:none" />
          </symbol>
          <symbol
             id="textext-de79872c-2"
             overflow="visible"
             style="overflow:visible">
            <path
               id="path5610"
               d=""
               style="stroke:none" />
          </symbol>
          <symbol
             id="textext-de79872c-3"
             overflow="visible"
             style="overflow:visible">
            <path
               id="path5613"
               d="M 1.90625,-2.328125 C 2.453125,-2.328125 2.84375,-1.953125 2.84375,-1.203125 C 2.84375,-0.34375 2.328125,-0.078125 1.9375,-0.078125 C 1.65625,-0.078125 1.03125,-0.15625 0.75,-0.578125 C 1.078125,-0.578125 1.15625,-0.8125 1.15625,-0.96875 C 1.15625,-1.1875 0.984375,-1.34375 0.765625,-1.34375 C 0.578125,-1.34375 0.375,-1.21875 0.375,-0.9375 C 0.375,-0.28125 1.09375,0.140625 1.9375,0.140625 C 2.90625,0.140625 3.578125,-0.515625 3.578125,-1.203125 C 3.578125,-1.75 3.140625,-2.296875 2.375,-2.453125 C 3.09375,-2.71875 3.359375,-3.234375 3.359375,-3.671875 C 3.359375,-4.21875 2.734375,-4.625 1.953125,-4.625 C 1.1875,-4.625 0.59375,-4.25 0.59375,-3.6875 C 0.59375,-3.453125 0.75,-3.328125 0.953125,-3.328125 C 1.171875,-3.328125 1.3125,-3.484375 1.3125,-3.671875 C 1.3125,-3.875 1.171875,-4.03125 0.953125,-4.046875 C 1.203125,-4.34375 1.671875,-4.421875 1.9375,-4.421875 C 2.25,-4.421875 2.6875,-4.265625 2.6875,-3.671875 C 2.6875,-3.375 2.59375,-3.046875 2.40625,-2.84375 C 2.1875,-2.578125 1.984375,-2.5625 1.640625,-2.53125 C 1.46875,-2.515625 1.453125,-2.515625 1.421875,-2.515625 C 1.40625,-2.515625 1.34375,-2.5 1.34375,-2.421875 C 1.34375,-2.328125 1.40625,-2.328125 1.53125,-2.328125 L 1.90625,-2.328125 z"
               style="stroke:none" />
          </symbol>
        </g>
      </defs>
      <g
         id="textext-de79872c-4">
        <g
           id="g5616"
           style="fill:#000000;fill-opacity:1">
          <use
             id="use5618"
             y="134.765"
             x="223.43201"
             xlink:href="#textext-de79872c-1"
             width="425.19684"
             height="318.89764" />
        </g>
        <g
           id="g5620"
           style="fill:#000000;fill-opacity:1">
          <use
             id="use5622"
             y="136.259"
             x="230.55299"
             xlink:href="#textext-de79872c-3"
             width="425.19684"
             height="318.89764" />
        </g>
      </g>
    </g>
    <g
       transform="matrix(1.2,0,0,1.2,-189.4036,-14.647212)"
       ns0:text="$C_{4}$"
       ns0:preamble=""
       id="g6090">
      <defs
         id="defs6092">
        <g
           id="g6094">
          <symbol
             style="overflow:visible"
             overflow="visible"
             id="textext-1277e939-0">
            <path
               style="stroke:none"
               d=""
               id="path6097" />
          </symbol>
          <symbol
             style="overflow:visible"
             overflow="visible"
             id="textext-1277e939-1">
            <path
               style="stroke:none"
               d="M 7.578125,-6.921875 C 7.578125,-6.953125 7.5625,-7.03125 7.46875,-7.03125 C 7.4375,-7.03125 7.421875,-7.015625 7.3125,-6.90625 L 6.625,-6.140625 C 6.53125,-6.28125 6.078125,-7.03125 4.96875,-7.03125 C 2.734375,-7.03125 0.5,-4.828125 0.5,-2.515625 C 0.5,-0.875 1.671875,0.21875 3.203125,0.21875 C 4.0625,0.21875 4.828125,-0.171875 5.359375,-0.640625 C 6.28125,-1.453125 6.453125,-2.359375 6.453125,-2.390625 C 6.453125,-2.5 6.34375,-2.5 6.328125,-2.5 C 6.265625,-2.5 6.21875,-2.46875 6.203125,-2.390625 C 6.109375,-2.109375 5.875,-1.390625 5.1875,-0.8125 C 4.5,-0.265625 3.875,-0.09375 3.359375,-0.09375 C 2.46875,-0.09375 1.40625,-0.609375 1.40625,-2.15625 C 1.40625,-2.734375 1.609375,-4.34375 2.609375,-5.515625 C 3.21875,-6.21875 4.15625,-6.71875 5.046875,-6.71875 C 6.0625,-6.71875 6.65625,-5.953125 6.65625,-4.796875 C 6.65625,-4.390625 6.625,-4.390625 6.625,-4.28125 C 6.625,-4.1875 6.734375,-4.1875 6.765625,-4.1875 C 6.890625,-4.1875 6.890625,-4.203125 6.953125,-4.390625 L 7.578125,-6.921875 z"
               id="path6100" />
          </symbol>
          <symbol
             style="overflow:visible"
             overflow="visible"
             id="textext-1277e939-2">
            <path
               style="stroke:none"
               d=""
               id="path6103" />
          </symbol>
          <symbol
             style="overflow:visible"
             overflow="visible"
             id="textext-1277e939-3">
            <path
               style="stroke:none"
               d="M 3.6875,-1.140625 L 3.6875,-1.390625 L 2.90625,-1.390625 L 2.90625,-4.5 C 2.90625,-4.640625 2.90625,-4.703125 2.765625,-4.703125 C 2.671875,-4.703125 2.640625,-4.703125 2.578125,-4.59375 L 0.265625,-1.390625 L 0.265625,-1.140625 L 2.328125,-1.140625 L 2.328125,-0.578125 C 2.328125,-0.328125 2.328125,-0.25 1.75,-0.25 L 1.5625,-0.25 L 1.5625,0 C 1.921875,-0.015625 2.359375,-0.03125 2.609375,-0.03125 C 2.875,-0.03125 3.3125,-0.015625 3.671875,0 L 3.671875,-0.25 L 3.484375,-0.25 C 2.90625,-0.25 2.90625,-0.328125 2.90625,-0.578125 L 2.90625,-1.140625 L 3.6875,-1.140625 z M 2.375,-3.9375 L 2.375,-1.390625 L 0.53125,-1.390625 L 2.375,-3.9375 z"
               id="path6106" />
          </symbol>
        </g>
      </defs>
      <g
         id="textext-1277e939-4">
        <g
           style="fill:#000000;fill-opacity:1"
           id="g6109">
          <use
             height="318.89764"
             width="425.19684"
             xlink:href="#textext-1277e939-1"
             x="223.43201"
             y="134.765"
             id="use6111" />
        </g>
        <g
           style="fill:#000000;fill-opacity:1"
           id="g6113">
          <use
             height="318.89764"
             width="425.19684"
             xlink:href="#textext-1277e939-3"
             x="230.55299"
             y="136.259"
             id="use6115" />
        </g>
      </g>
    </g>
    <g
       id="g6615"
       ns0:preamble=""
       ns0:text="$C_{5}$"
       transform="matrix(1.2,0,0,1.2,-173.24116,15.657364)">
      <defs
         id="defs6617">
        <g
           id="g6619">
          <symbol
             id="textext-91b0d122-0"
             overflow="visible"
             style="overflow:visible">
            <path
               id="path6622"
               d=""
               style="stroke:none" />
          </symbol>
          <symbol
             id="textext-91b0d122-1"
             overflow="visible"
             style="overflow:visible">
            <path
               id="path6625"
               d="M 7.578125,-6.921875 C 7.578125,-6.953125 7.5625,-7.03125 7.46875,-7.03125 C 7.4375,-7.03125 7.421875,-7.015625 7.3125,-6.90625 L 6.625,-6.140625 C 6.53125,-6.28125 6.078125,-7.03125 4.96875,-7.03125 C 2.734375,-7.03125 0.5,-4.828125 0.5,-2.515625 C 0.5,-0.875 1.671875,0.21875 3.203125,0.21875 C 4.0625,0.21875 4.828125,-0.171875 5.359375,-0.640625 C 6.28125,-1.453125 6.453125,-2.359375 6.453125,-2.390625 C 6.453125,-2.5 6.34375,-2.5 6.328125,-2.5 C 6.265625,-2.5 6.21875,-2.46875 6.203125,-2.390625 C 6.109375,-2.109375 5.875,-1.390625 5.1875,-0.8125 C 4.5,-0.265625 3.875,-0.09375 3.359375,-0.09375 C 2.46875,-0.09375 1.40625,-0.609375 1.40625,-2.15625 C 1.40625,-2.734375 1.609375,-4.34375 2.609375,-5.515625 C 3.21875,-6.21875 4.15625,-6.71875 5.046875,-6.71875 C 6.0625,-6.71875 6.65625,-5.953125 6.65625,-4.796875 C 6.65625,-4.390625 6.625,-4.390625 6.625,-4.28125 C 6.625,-4.1875 6.734375,-4.1875 6.765625,-4.1875 C 6.890625,-4.1875 6.890625,-4.203125 6.953125,-4.390625 L 7.578125,-6.921875 z"
               style="stroke:none" />
          </symbol>
          <symbol
             id="textext-91b0d122-2"
             overflow="visible"
             style="overflow:visible">
            <path
               id="path6628"
               d=""
               style="stroke:none" />
          </symbol>
          <symbol
             id="textext-91b0d122-3"
             overflow="visible"
             style="overflow:visible">
            <path
               id="path6631"
               d="M 1.078125,-3.890625 C 1.4375,-3.796875 1.640625,-3.796875 1.75,-3.796875 C 2.671875,-3.796875 3.21875,-4.421875 3.21875,-4.53125 C 3.21875,-4.609375 3.171875,-4.625 3.140625,-4.625 C 3.125,-4.625 3.109375,-4.625 3.078125,-4.609375 C 2.90625,-4.546875 2.546875,-4.40625 2.03125,-4.40625 C 1.828125,-4.40625 1.46875,-4.421875 1.015625,-4.59375 C 0.9375,-4.625 0.921875,-4.625 0.921875,-4.625 C 0.828125,-4.625 0.828125,-4.546875 0.828125,-4.4375 L 0.828125,-2.390625 C 0.828125,-2.265625 0.828125,-2.1875 0.9375,-2.1875 C 1,-2.1875 1.015625,-2.1875 1.078125,-2.28125 C 1.375,-2.65625 1.8125,-2.71875 2.046875,-2.71875 C 2.46875,-2.71875 2.65625,-2.390625 2.6875,-2.328125 C 2.8125,-2.09375 2.859375,-1.828125 2.859375,-1.421875 C 2.859375,-1.21875 2.859375,-0.8125 2.640625,-0.5 C 2.46875,-0.25 2.171875,-0.078125 1.828125,-0.078125 C 1.375,-0.078125 0.90625,-0.328125 0.734375,-0.796875 C 1,-0.78125 1.140625,-0.953125 1.140625,-1.140625 C 1.140625,-1.4375 0.875,-1.484375 0.78125,-1.484375 C 0.78125,-1.484375 0.4375,-1.484375 0.4375,-1.109375 C 0.4375,-0.484375 1.015625,0.140625 1.84375,0.140625 C 2.734375,0.140625 3.515625,-0.515625 3.515625,-1.40625 C 3.515625,-2.1875 2.921875,-2.90625 2.0625,-2.90625 C 1.75,-2.90625 1.390625,-2.84375 1.078125,-2.578125 L 1.078125,-3.890625 z"
               style="stroke:none" />
          </symbol>
        </g>
      </defs>
      <g
         id="textext-91b0d122-4">
        <g
           id="g6634"
           style="fill:#000000;fill-opacity:1">
          <use
             id="use6636"
             y="134.765"
             x="223.43201"
             xlink:href="#textext-91b0d122-1"
             width="425.19684"
             height="318.89764" />
        </g>
        <g
           id="g6638"
           style="fill:#000000;fill-opacity:1">
          <use
             id="use6640"
             y="136.259"
             x="230.55299"
             xlink:href="#textext-91b0d122-3"
             width="425.19684"
             height="318.89764" />
        </g>
      </g>
    </g>
    <g
       transform="matrix(1.2,0,0,1.2,-237.38585,9.5964491)"
       ns0:text="$C_{6}$"
       ns0:preamble=""
       id="g7172">
      <defs
         id="defs7174">
        <g
           id="g7176">
          <symbol
             style="overflow:visible"
             overflow="visible"
             id="textext-9198aec9-0">
            <path
               style="stroke:none"
               d=""
               id="path7179" />
          </symbol>
          <symbol
             style="overflow:visible"
             overflow="visible"
             id="textext-9198aec9-1">
            <path
               style="stroke:none"
               d="M 7.578125,-6.921875 C 7.578125,-6.953125 7.5625,-7.03125 7.46875,-7.03125 C 7.4375,-7.03125 7.421875,-7.015625 7.3125,-6.90625 L 6.625,-6.140625 C 6.53125,-6.28125 6.078125,-7.03125 4.96875,-7.03125 C 2.734375,-7.03125 0.5,-4.828125 0.5,-2.515625 C 0.5,-0.875 1.671875,0.21875 3.203125,0.21875 C 4.0625,0.21875 4.828125,-0.171875 5.359375,-0.640625 C 6.28125,-1.453125 6.453125,-2.359375 6.453125,-2.390625 C 6.453125,-2.5 6.34375,-2.5 6.328125,-2.5 C 6.265625,-2.5 6.21875,-2.46875 6.203125,-2.390625 C 6.109375,-2.109375 5.875,-1.390625 5.1875,-0.8125 C 4.5,-0.265625 3.875,-0.09375 3.359375,-0.09375 C 2.46875,-0.09375 1.40625,-0.609375 1.40625,-2.15625 C 1.40625,-2.734375 1.609375,-4.34375 2.609375,-5.515625 C 3.21875,-6.21875 4.15625,-6.71875 5.046875,-6.71875 C 6.0625,-6.71875 6.65625,-5.953125 6.65625,-4.796875 C 6.65625,-4.390625 6.625,-4.390625 6.625,-4.28125 C 6.625,-4.1875 6.734375,-4.1875 6.765625,-4.1875 C 6.890625,-4.1875 6.890625,-4.203125 6.953125,-4.390625 L 7.578125,-6.921875 z"
               id="path7182" />
          </symbol>
          <symbol
             style="overflow:visible"
             overflow="visible"
             id="textext-9198aec9-2">
            <path
               style="stroke:none"
               d=""
               id="path7185" />
          </symbol>
          <symbol
             style="overflow:visible"
             overflow="visible"
             id="textext-9198aec9-3">
            <path
               style="stroke:none"
               d="M 1.046875,-2.28125 C 1.046875,-2.84375 1.09375,-3.359375 1.359375,-3.796875 C 1.59375,-4.171875 1.96875,-4.421875 2.421875,-4.421875 C 2.625,-4.421875 2.90625,-4.375 3.046875,-4.1875 C 2.875,-4.171875 2.71875,-4.046875 2.71875,-3.84375 C 2.71875,-3.671875 2.84375,-3.515625 3.046875,-3.515625 C 3.265625,-3.515625 3.390625,-3.65625 3.390625,-3.859375 C 3.390625,-4.265625 3.09375,-4.625 2.40625,-4.625 C 1.40625,-4.625 0.375,-3.703125 0.375,-2.203125 C 0.375,-0.40625 1.21875,0.140625 2,0.140625 C 2.84375,0.140625 3.578125,-0.515625 3.578125,-1.421875 C 3.578125,-2.3125 2.875,-2.96875 2.0625,-2.96875 C 1.5,-2.96875 1.203125,-2.59375 1.046875,-2.28125 z M 2,-0.078125 C 1.640625,-0.078125 1.375,-0.28125 1.21875,-0.59375 C 1.125,-0.796875 1.0625,-1.15625 1.0625,-1.5625 C 1.0625,-2.25 1.46875,-2.765625 2.03125,-2.765625 C 2.34375,-2.765625 2.5625,-2.640625 2.734375,-2.390625 C 2.90625,-2.125 2.90625,-1.828125 2.90625,-1.421875 C 2.90625,-1.03125 2.90625,-0.734375 2.71875,-0.453125 C 2.5625,-0.21875 2.328125,-0.078125 2,-0.078125 z"
               id="path7188" />
          </symbol>
        </g>
      </defs>
      <g
         id="textext-9198aec9-4">
        <g
           style="fill:#000000;fill-opacity:1"
           id="g7191">
          <use
             height="318.89764"
             width="425.19684"
             xlink:href="#textext-9198aec9-1"
             x="223.43201"
             y="134.765"
             id="use7193" />
        </g>
        <g
           style="fill:#000000;fill-opacity:1"
           id="g7195">
          <use
             height="318.89764"
             width="425.19684"
             xlink:href="#textext-9198aec9-3"
             x="230.55299"
             y="136.259"
             id="use7197" />
        </g>
      </g>
    </g>
    <g
       id="g7761"
       ns0:preamble=""
       ns0:text="$D_{2}$"
       transform="matrix(1.2,0,0,1.2,49.497474,-22.223356)">
      <defs
         id="defs7763">
        <g
           id="g7765">
          <symbol
             id="textext-9137eeed-0"
             overflow="visible"
             style="overflow:visible">
            <path
               id="path7768"
               d=""
               style="stroke:none" />
          </symbol>
          <symbol
             id="textext-9137eeed-1"
             overflow="visible"
             style="overflow:visible">
            <path
               id="path7771"
               d="M 1.578125,-0.78125 C 1.484375,-0.390625 1.46875,-0.3125 0.671875,-0.3125 C 0.515625,-0.3125 0.40625,-0.3125 0.40625,-0.125 C 0.40625,0 0.484375,0 0.671875,0 L 3.984375,0 C 6.046875,0 8.015625,-2.109375 8.015625,-4.28125 C 8.015625,-5.6875 7.171875,-6.8125 5.671875,-6.8125 L 2.328125,-6.8125 C 2.140625,-6.8125 2.03125,-6.8125 2.03125,-6.625 C 2.03125,-6.5 2.109375,-6.5 2.3125,-6.5 C 2.4375,-6.5 2.625,-6.484375 2.734375,-6.484375 C 2.90625,-6.453125 2.953125,-6.4375 2.953125,-6.3125 C 2.953125,-6.28125 2.953125,-6.25 2.921875,-6.125 L 1.578125,-0.78125 z M 3.734375,-6.125 C 3.828125,-6.46875 3.84375,-6.5 4.28125,-6.5 L 5.34375,-6.5 C 6.3125,-6.5 7.140625,-5.96875 7.140625,-4.65625 C 7.140625,-4.171875 6.953125,-2.53125 6.09375,-1.4375 C 5.8125,-1.0625 5.03125,-0.3125 3.796875,-0.3125 L 2.671875,-0.3125 C 2.53125,-0.3125 2.515625,-0.3125 2.453125,-0.3125 C 2.359375,-0.328125 2.328125,-0.34375 2.328125,-0.421875 C 2.328125,-0.453125 2.328125,-0.46875 2.375,-0.640625 L 3.734375,-6.125 z"
               style="stroke:none" />
          </symbol>
          <symbol
             id="textext-9137eeed-2"
             overflow="visible"
             style="overflow:visible">
            <path
               id="path7774"
               d=""
               style="stroke:none" />
          </symbol>
          <symbol
             id="textext-9137eeed-3"
             overflow="visible"
             style="overflow:visible">
            <path
               id="path7777"
               d="M 3.515625,-1.265625 L 3.28125,-1.265625 C 3.265625,-1.109375 3.1875,-0.703125 3.09375,-0.640625 C 3.046875,-0.59375 2.515625,-0.59375 2.40625,-0.59375 L 1.125,-0.59375 C 1.859375,-1.234375 2.109375,-1.4375 2.515625,-1.765625 C 3.03125,-2.171875 3.515625,-2.609375 3.515625,-3.265625 C 3.515625,-4.109375 2.78125,-4.625 1.890625,-4.625 C 1.03125,-4.625 0.4375,-4.015625 0.4375,-3.375 C 0.4375,-3.03125 0.734375,-2.984375 0.8125,-2.984375 C 0.96875,-2.984375 1.171875,-3.109375 1.171875,-3.359375 C 1.171875,-3.484375 1.125,-3.734375 0.765625,-3.734375 C 0.984375,-4.21875 1.453125,-4.375 1.78125,-4.375 C 2.484375,-4.375 2.84375,-3.828125 2.84375,-3.265625 C 2.84375,-2.65625 2.40625,-2.1875 2.1875,-1.9375 L 0.515625,-0.265625 C 0.4375,-0.203125 0.4375,-0.1875 0.4375,0 L 3.3125,0 L 3.515625,-1.265625 z"
               style="stroke:none" />
          </symbol>
        </g>
      </defs>
      <g
         id="textext-9137eeed-4">
        <g
           id="g7780"
           style="fill:#000000;fill-opacity:1">
          <use
             id="use7782"
             y="134.765"
             x="223.43201"
             xlink:href="#textext-9137eeed-1"
             width="425.19684"
             height="318.89764" />
        </g>
        <g
           id="g7784"
           style="fill:#000000;fill-opacity:1">
          <use
             id="use7786"
             y="136.259"
             x="231.67999"
             xlink:href="#textext-9137eeed-3"
             width="425.19684"
             height="318.89764" />
        </g>
      </g>
    </g>
  </g>
</svg>
