<?xml version="1.0" encoding="UTF-8" standalone="no"?>
<!-- Created with Inkscape (http://www.inkscape.org/) -->
<svg
   xmlns:ns0="http://www.iki.fi/pav/software/textext/"
   xmlns:dc="http://purl.org/dc/elements/1.1/"
   xmlns:cc="http://creativecommons.org/ns#"
   xmlns:rdf="http://www.w3.org/1999/02/22-rdf-syntax-ns#"
   xmlns:svg="http://www.w3.org/2000/svg"
   xmlns="http://www.w3.org/2000/svg"
   xmlns:xlink="http://www.w3.org/1999/xlink"
   xmlns:sodipodi="http://sodipodi.sourceforge.net/DTD/sodipodi-0.dtd"
   xmlns:inkscape="http://www.inkscape.org/namespaces/inkscape"
   width="354.33069"
   height="177.16534"
   id="svg2"
   sodipodi:version="0.32"
   inkscape:version="0.46"
   version="1.0"
   sodipodi:docname="chap2-fig11.svg"
   inkscape:output_extension="org.inkscape.output.svg.inkscape">
  <sodipodi:namedview
     id="base"
     pagecolor="#ffffff"
     bordercolor="#666666"
     borderopacity="1.0"
     gridtolerance="10000"
     guidetolerance="10"
     objecttolerance="10"
     inkscape:pageopacity="0.0"
     inkscape:pageshadow="2"
     inkscape:zoom="7.391749"
     inkscape:cx="192.42549"
     inkscape:cy="96.748487"
     inkscape:document-units="px"
     inkscape:current-layer="layer1"
     showgrid="false"
     units="cm"
     inkscape:window-width="1014"
     inkscape:window-height="726"
     inkscape:window-x="5"
     inkscape:window-y="62" />
  <defs
     id="defs4">
    <marker
       inkscape:stockid="Arrow2Lend"
       orient="auto"
       refY="0.0"
       refX="0.0"
       id="Arrow2Lend"
       style="overflow:visible;">
      <path
         id="path3698"
         style="font-size:12.0;fill-rule:evenodd;stroke-width:0.62500000;stroke-linejoin:round;"
         d="M 8.7185878,4.0337352 L -2.2072895,0.016013256 L 8.7185884,-4.0017078 C 6.9730900,-1.6296469 6.9831476,1.6157441 8.7185878,4.0337352 z "
         transform="scale(1.1) rotate(180) translate(1,0)" />
    </marker>
    <marker
       inkscape:stockid="Arrow1Mend"
       orient="auto"
       refY="0.0"
       refX="0.0"
       id="Arrow1Mend"
       style="overflow:visible;">
      <path
         id="path3686"
         d="M 0.0,0.0 L 5.0,-5.0 L -12.5,0.0 L 5.0,5.0 L 0.0,0.0 z "
         style="fill-rule:evenodd;stroke:#000000;stroke-width:1.0pt;marker-start:none;"
         transform="scale(0.4) rotate(180) translate(10,0)" />
    </marker>
    <marker
       inkscape:stockid="Arrow1Lend"
       orient="auto"
       refY="0.0"
       refX="0.0"
       id="Arrow1Lend"
       style="overflow:visible;">
      <path
         id="path3680"
         d="M 0.0,0.0 L 5.0,-5.0 L -12.5,0.0 L 5.0,5.0 L 0.0,0.0 z "
         style="fill-rule:evenodd;stroke:#000000;stroke-width:1.0pt;marker-start:none;"
         transform="scale(0.8) rotate(180) translate(12.5,0)" />
    </marker>
    <inkscape:perspective
       sodipodi:type="inkscape:persp3d"
       inkscape:vp_x="0 : 526.18109 : 1"
       inkscape:vp_y="0 : 1000 : 0"
       inkscape:vp_z="744.09448 : 526.18109 : 1"
       inkscape:persp3d-origin="372.04724 : 350.78739 : 1"
       id="perspective10" />
  </defs>
  <metadata
     id="metadata7">
    <rdf:RDF>
      <cc:Work
         rdf:about="">
        <dc:format>image/svg+xml</dc:format>
        <dc:type
           rdf:resource="http://purl.org/dc/dcmitype/StillImage" />
      </cc:Work>
    </rdf:RDF>
  </metadata>
  <g
     inkscape:label="Layer 1"
     inkscape:groupmode="layer"
     id="layer1">
    <path
       style="fill:none;fill-rule:evenodd;stroke:#000000;stroke-width:1;stroke-linecap:butt;stroke-linejoin:miter;stroke-opacity:1;stroke-miterlimit:4;stroke-dasharray:none"
       d="M 20.13049,133.60665 L 73.444376,18.304025"
       id="path2383" />
    <path
       id="path3157"
       d="M 56.13049,18.304025 L 109.44438,133.60665"
       style="fill:none;fill-rule:evenodd;stroke:#000000;stroke-width:1;stroke-linecap:butt;stroke-linejoin:miter;stroke-miterlimit:4;stroke-dasharray:none;stroke-opacity:1" />
    <path
       id="path3159"
       d="M 248.13049,133.60665 L 301.44438,18.304025"
       style="fill:none;fill-rule:evenodd;stroke:#000000;stroke-width:1;stroke-linecap:butt;stroke-linejoin:miter;stroke-miterlimit:4;stroke-dasharray:none;stroke-opacity:1" />
    <path
       style="fill:none;fill-rule:evenodd;stroke:#000000;stroke-width:1;stroke-linecap:butt;stroke-linejoin:miter;stroke-miterlimit:4;stroke-dasharray:none;stroke-opacity:1"
       d="M 284.13049,18.304025 L 337.44438,133.60665"
       id="path3161" />
    <path
       style="fill:none;fill-rule:evenodd;stroke:#000000;stroke-width:1px;stroke-linecap:butt;stroke-linejoin:miter;stroke-opacity:1"
       d="M 256.13095,68.397036 C 257.45572,60.588631 263.24224,51.846313 269.85962,46.799393 C 273.10167,44.32676 285.56821,36.017988 292.75042,37.074652 C 297.34231,37.750224 299.44696,32.089619 296.67889,29.372695 C 290.18461,25.239169 291.96234,31.93847 292.57236,36.923115 C 294.06749,49.925167 298.10331,75.166182 289.5055,81.312387"
       id="path5506"
       sodipodi:nodetypes="cssccc" />
    <g
       transform="translate(-222.31764,-42.091118)"
       ns0:text="$\\tau^{-1}_{1}(Q\'_{1})$"
       ns0:preamble=""
       id="g5526">
      <defs
         id="defs5528">
        <g
           id="g5530">
          <symbol
             style="overflow:visible"
             overflow="visible"
             id="textext-335558c9-0">
            <path
               style="stroke:none"
               d=""
               id="path5533" />
          </symbol>
          <symbol
             style="overflow:visible"
             overflow="visible"
             id="textext-335558c9-1">
            <path
               style="stroke:none"
               d="M 2.9375,-3.71875 L 4.609375,-3.71875 C 4.734375,-3.71875 5.09375,-3.71875 5.09375,-4.0625 C 5.09375,-4.296875 4.890625,-4.296875 4.6875,-4.296875 L 1.90625,-4.296875 C 1.703125,-4.296875 1.3125,-4.296875 0.875,-3.828125 C 0.546875,-3.46875 0.265625,-2.984375 0.265625,-2.9375 C 0.265625,-2.921875 0.265625,-2.828125 0.390625,-2.828125 C 0.46875,-2.828125 0.484375,-2.875 0.546875,-2.953125 C 1.03125,-3.71875 1.609375,-3.71875 1.8125,-3.71875 L 2.640625,-3.71875 C 2.15625,-2.125 1.765625,-0.859375 1.671875,-0.515625 C 1.625,-0.40625 1.5625,-0.1875 1.5625,-0.15625 C 1.5625,-0.046875 1.640625,0.125 1.859375,0.125 C 2.1875,0.125 2.234375,-0.15625 2.265625,-0.3125 L 2.9375,-3.71875 z"
               id="path5536" />
          </symbol>
          <symbol
             style="overflow:visible"
             overflow="visible"
             id="textext-335558c9-2">
            <path
               style="stroke:none"
               d="M 4.359375,-0.0625 C 5.90625,-0.640625 7.375,-2.421875 7.375,-4.34375 C 7.375,-5.953125 6.3125,-7.03125 4.828125,-7.03125 C 2.6875,-7.03125 0.484375,-4.765625 0.484375,-2.4375 C 0.484375,-0.78125 1.609375,0.21875 3.046875,0.21875 C 3.296875,0.21875 3.625,0.171875 4.015625,0.0625 C 3.984375,0.6875 3.984375,0.703125 3.984375,0.84375 C 3.984375,1.15625 3.984375,1.9375 4.8125,1.9375 C 5.984375,1.9375 6.46875,0.109375 6.46875,0 C 6.46875,-0.0625 6.40625,-0.09375 6.359375,-0.09375 C 6.28125,-0.09375 6.265625,-0.046875 6.234375,0.015625 C 6,0.71875 5.421875,0.96875 5.078125,0.96875 C 4.609375,0.96875 4.46875,0.703125 4.359375,-0.0625 z M 2.484375,-0.140625 C 1.703125,-0.453125 1.359375,-1.21875 1.359375,-2.125 C 1.359375,-2.8125 1.625,-4.234375 2.375,-5.296875 C 3.109375,-6.3125 4.046875,-6.78125 4.78125,-6.78125 C 5.765625,-6.78125 6.5,-6 6.5,-4.671875 C 6.5,-3.671875 5.984375,-1.328125 4.3125,-0.40625 C 4.265625,-0.75 4.171875,-1.46875 3.4375,-1.46875 C 2.90625,-1.46875 2.421875,-0.984375 2.421875,-0.453125 C 2.421875,-0.265625 2.484375,-0.15625 2.484375,-0.140625 z M 3.09375,-0.03125 C 2.953125,-0.03125 2.640625,-0.03125 2.640625,-0.453125 C 2.640625,-0.859375 3.015625,-1.25 3.4375,-1.25 C 3.859375,-1.25 4.046875,-1.015625 4.046875,-0.40625 C 4.046875,-0.265625 4.03125,-0.25 3.9375,-0.203125 C 3.671875,-0.09375 3.375,-0.03125 3.09375,-0.03125 z"
               id="path5539" />
          </symbol>
          <symbol
             style="overflow:visible"
             overflow="visible"
             id="textext-335558c9-3">
            <path
               style="stroke:none"
               d=""
               id="path5542" />
          </symbol>
          <symbol
             style="overflow:visible"
             overflow="visible"
             id="textext-335558c9-4">
            <path
               style="stroke:none"
               d="M 5.203125,-1.578125 C 5.296875,-1.578125 5.46875,-1.578125 5.46875,-1.734375 C 5.46875,-1.921875 5.296875,-1.921875 5.203125,-1.921875 L 1.015625,-1.921875 C 0.90625,-1.921875 0.75,-1.921875 0.75,-1.734375 C 0.75,-1.578125 0.921875,-1.578125 1.015625,-1.578125 L 5.203125,-1.578125 z"
               id="path5545" />
          </symbol>
          <symbol
             style="overflow:visible"
             overflow="visible"
             id="textext-335558c9-5">
            <path
               style="stroke:none"
               d="M 2.03125,-3.296875 C 2.0625,-3.359375 2.078125,-3.421875 2.078125,-3.515625 C 2.078125,-3.734375 1.890625,-3.890625 1.671875,-3.890625 C 1.390625,-3.890625 1.328125,-3.671875 1.296875,-3.578125 L 0.375,-0.5625 C 0.359375,-0.53125 0.328125,-0.453125 0.328125,-0.4375 C 0.328125,-0.359375 0.546875,-0.28125 0.609375,-0.28125 C 0.65625,-0.28125 0.6875,-0.328125 0.703125,-0.390625 L 2.03125,-3.296875 z"
               id="path5548" />
          </symbol>
          <symbol
             style="overflow:visible"
             overflow="visible"
             id="textext-335558c9-6">
            <path
               style="stroke:none"
               d=""
               id="path5551" />
          </symbol>
          <symbol
             style="overflow:visible"
             overflow="visible"
             id="textext-335558c9-7">
            <path
               style="stroke:none"
               d="M 2.328125,-4.4375 C 2.328125,-4.625 2.328125,-4.625 2.125,-4.625 C 1.671875,-4.1875 1.046875,-4.1875 0.765625,-4.1875 L 0.765625,-3.9375 C 0.921875,-3.9375 1.390625,-3.9375 1.765625,-4.125 L 1.765625,-0.578125 C 1.765625,-0.34375 1.765625,-0.25 1.078125,-0.25 L 0.8125,-0.25 L 0.8125,0 C 0.9375,0 1.796875,-0.03125 2.046875,-0.03125 C 2.265625,-0.03125 3.140625,0 3.296875,0 L 3.296875,-0.25 L 3.03125,-0.25 C 2.328125,-0.25 2.328125,-0.34375 2.328125,-0.578125 L 2.328125,-4.4375 z"
               id="path5554" />
          </symbol>
          <symbol
             style="overflow:visible"
             overflow="visible"
             id="textext-335558c9-8">
            <path
               style="stroke:none"
               d=""
               id="path5557" />
          </symbol>
          <symbol
             style="overflow:visible"
             overflow="visible"
             id="textext-335558c9-9">
            <path
               style="stroke:none"
               d="M 3.296875,2.390625 C 3.296875,2.359375 3.296875,2.34375 3.125,2.171875 C 1.890625,0.921875 1.5625,-0.96875 1.5625,-2.5 C 1.5625,-4.234375 1.9375,-5.96875 3.171875,-7.203125 C 3.296875,-7.328125 3.296875,-7.34375 3.296875,-7.375 C 3.296875,-7.453125 3.265625,-7.484375 3.203125,-7.484375 C 3.09375,-7.484375 2.203125,-6.796875 1.609375,-5.53125 C 1.109375,-4.4375 0.984375,-3.328125 0.984375,-2.5 C 0.984375,-1.71875 1.09375,-0.515625 1.640625,0.625 C 2.25,1.84375 3.09375,2.5 3.203125,2.5 C 3.265625,2.5 3.296875,2.46875 3.296875,2.390625 z"
               id="path5560" />
          </symbol>
          <symbol
             style="overflow:visible"
             overflow="visible"
             id="textext-335558c9-10">
            <path
               style="stroke:none"
               d="M 2.875,-2.5 C 2.875,-3.265625 2.765625,-4.46875 2.21875,-5.609375 C 1.625,-6.828125 0.765625,-7.484375 0.671875,-7.484375 C 0.609375,-7.484375 0.5625,-7.4375 0.5625,-7.375 C 0.5625,-7.34375 0.5625,-7.328125 0.75,-7.140625 C 1.734375,-6.15625 2.296875,-4.578125 2.296875,-2.5 C 2.296875,-0.78125 1.9375,0.96875 0.703125,2.21875 C 0.5625,2.34375 0.5625,2.359375 0.5625,2.390625 C 0.5625,2.453125 0.609375,2.5 0.671875,2.5 C 0.765625,2.5 1.671875,1.8125 2.25,0.546875 C 2.765625,-0.546875 2.875,-1.65625 2.875,-2.5 z"
               id="path5563" />
          </symbol>
        </g>
      </defs>
      <g
         id="textext-335558c9-11">
        <g
           style="fill:#000000;fill-opacity:1"
           id="g5566">
          <use
             height="177.16534"
             width="354.33069"
             xlink:href="#textext-335558c9-1"
             x="223.43201"
             y="134.765"
             id="use5568" />
        </g>
        <g
           style="fill:#000000;fill-opacity:1"
           id="g5570">
          <use
             height="177.16534"
             width="354.33069"
             xlink:href="#textext-335558c9-4"
             x="228.91499"
             y="130.50301"
             id="use5572" />
        </g>
        <g
           style="fill:#000000;fill-opacity:1"
           id="g5574">
          <use
             height="177.16534"
             width="354.33069"
             xlink:href="#textext-335558c9-7"
             x="235.142"
             y="130.50301"
             id="use5576" />
        </g>
        <g
           style="fill:#000000;fill-opacity:1"
           id="g5578">
          <use
             height="177.16534"
             width="354.33069"
             xlink:href="#textext-335558c9-7"
             x="227.787"
             y="137.42101"
             id="use5580" />
        </g>
        <g
           style="fill:#000000;fill-opacity:1"
           id="g5582">
          <use
             height="177.16534"
             width="354.33069"
             xlink:href="#textext-335558c9-9"
             x="239.61099"
             y="134.765"
             id="use5584" />
        </g>
        <g
           style="fill:#000000;fill-opacity:1"
           id="g5586">
          <use
             height="177.16534"
             width="354.33069"
             xlink:href="#textext-335558c9-2"
             x="243.485"
             y="134.765"
             id="use5588" />
        </g>
        <g
           style="fill:#000000;fill-opacity:1"
           id="g5590">
          <use
             height="177.16534"
             width="354.33069"
             xlink:href="#textext-335558c9-5"
             x="251.36099"
             y="131.149"
             id="use5592" />
        </g>
        <g
           style="fill:#000000;fill-opacity:1"
           id="g5594">
          <use
             height="177.16534"
             width="354.33069"
             xlink:href="#textext-335558c9-7"
             x="251.36099"
             y="137.23801"
             id="use5596" />
        </g>
        <g
           style="fill:#000000;fill-opacity:1"
           id="g5598">
          <use
             height="177.16534"
             width="354.33069"
             xlink:href="#textext-335558c9-10"
             x="255.83099"
             y="134.765"
             id="use5600" />
        </g>
      </g>
    </g>
    <g
       id="g5812"
       transform="translate(-128.02176,-42.091118)"
       ns0:preamble=""
       ns0:text="$\\tau\'_{1}(\\pi^{-1}(P_{1}))$">
      <defs
         id="defs5814">
        <g
           id="g5816">
          <symbol
             id="textext-da81d403-0"
             overflow="visible"
             style="overflow:visible">
            <path
               id="path5819"
               d=""
               style="stroke:none" />
          </symbol>
          <symbol
             id="textext-da81d403-1"
             overflow="visible"
             style="overflow:visible">
            <path
               id="path5822"
               d="M 2.9375,-3.71875 L 4.609375,-3.71875 C 4.734375,-3.71875 5.09375,-3.71875 5.09375,-4.0625 C 5.09375,-4.296875 4.890625,-4.296875 4.6875,-4.296875 L 1.90625,-4.296875 C 1.703125,-4.296875 1.3125,-4.296875 0.875,-3.828125 C 0.546875,-3.46875 0.265625,-2.984375 0.265625,-2.9375 C 0.265625,-2.921875 0.265625,-2.828125 0.390625,-2.828125 C 0.46875,-2.828125 0.484375,-2.875 0.546875,-2.953125 C 1.03125,-3.71875 1.609375,-3.71875 1.8125,-3.71875 L 2.640625,-3.71875 C 2.15625,-2.125 1.765625,-0.859375 1.671875,-0.515625 C 1.625,-0.40625 1.5625,-0.1875 1.5625,-0.15625 C 1.5625,-0.046875 1.640625,0.125 1.859375,0.125 C 2.1875,0.125 2.234375,-0.15625 2.265625,-0.3125 L 2.9375,-3.71875 z"
               style="stroke:none" />
          </symbol>
          <symbol
             id="textext-da81d403-2"
             overflow="visible"
             style="overflow:visible">
            <path
               id="path5825"
               d="M 2.640625,-3.71875 L 3.765625,-3.71875 C 3.4375,-2.25 3.34375,-1.8125 3.34375,-1.140625 C 3.34375,-1 3.34375,-0.734375 3.421875,-0.390625 C 3.53125,0.046875 3.640625,0.109375 3.78125,0.109375 C 3.984375,0.109375 4.203125,-0.0625 4.203125,-0.265625 C 4.203125,-0.328125 4.203125,-0.34375 4.140625,-0.484375 C 3.84375,-1.203125 3.84375,-1.859375 3.84375,-2.140625 C 3.84375,-2.65625 3.921875,-3.203125 4.03125,-3.71875 L 5.15625,-3.71875 C 5.296875,-3.71875 5.65625,-3.71875 5.65625,-4.0625 C 5.65625,-4.296875 5.4375,-4.296875 5.25,-4.296875 L 1.90625,-4.296875 C 1.6875,-4.296875 1.3125,-4.296875 0.875,-3.828125 C 0.53125,-3.4375 0.265625,-2.984375 0.265625,-2.9375 C 0.265625,-2.921875 0.265625,-2.828125 0.390625,-2.828125 C 0.46875,-2.828125 0.484375,-2.875 0.546875,-2.953125 C 1.03125,-3.71875 1.609375,-3.71875 1.8125,-3.71875 L 2.375,-3.71875 C 2.0625,-2.515625 1.53125,-1.3125 1.109375,-0.40625 C 1.03125,-0.25 1.03125,-0.234375 1.03125,-0.15625 C 1.03125,0.03125 1.1875,0.109375 1.3125,0.109375 C 1.609375,0.109375 1.6875,-0.171875 1.8125,-0.53125 C 1.953125,-1 1.953125,-1.015625 2.078125,-1.515625 L 2.640625,-3.71875 z"
               style="stroke:none" />
          </symbol>
          <symbol
             id="textext-da81d403-3"
             overflow="visible"
             style="overflow:visible">
            <path
               id="path5828"
               d="M 3.015625,-3.15625 L 4.71875,-3.15625 C 6.125,-3.15625 7.515625,-4.1875 7.515625,-5.296875 C 7.515625,-6.078125 6.859375,-6.8125 5.546875,-6.8125 L 2.328125,-6.8125 C 2.140625,-6.8125 2.03125,-6.8125 2.03125,-6.625 C 2.03125,-6.5 2.109375,-6.5 2.3125,-6.5 C 2.4375,-6.5 2.625,-6.484375 2.734375,-6.484375 C 2.90625,-6.453125 2.953125,-6.4375 2.953125,-6.3125 C 2.953125,-6.28125 2.953125,-6.25 2.921875,-6.125 L 1.578125,-0.78125 C 1.484375,-0.390625 1.46875,-0.3125 0.671875,-0.3125 C 0.515625,-0.3125 0.40625,-0.3125 0.40625,-0.125 C 0.40625,0 0.515625,0 0.546875,0 C 0.828125,0 1.53125,-0.03125 1.8125,-0.03125 C 2.03125,-0.03125 2.25,-0.015625 2.453125,-0.015625 C 2.671875,-0.015625 2.890625,0 3.09375,0 C 3.171875,0 3.296875,0 3.296875,-0.203125 C 3.296875,-0.3125 3.203125,-0.3125 3.015625,-0.3125 C 2.65625,-0.3125 2.375,-0.3125 2.375,-0.484375 C 2.375,-0.546875 2.390625,-0.59375 2.40625,-0.65625 L 3.015625,-3.15625 z M 3.734375,-6.125 C 3.828125,-6.46875 3.84375,-6.5 4.28125,-6.5 L 5.234375,-6.5 C 6.0625,-6.5 6.59375,-6.234375 6.59375,-5.546875 C 6.59375,-5.15625 6.390625,-4.296875 6,-3.9375 C 5.5,-3.484375 4.90625,-3.40625 4.46875,-3.40625 L 3.0625,-3.40625 L 3.734375,-6.125 z"
               style="stroke:none" />
          </symbol>
          <symbol
             id="textext-da81d403-4"
             overflow="visible"
             style="overflow:visible">
            <path
               id="path5831"
               d=""
               style="stroke:none" />
          </symbol>
          <symbol
             id="textext-da81d403-5"
             overflow="visible"
             style="overflow:visible">
            <path
               id="path5834"
               d="M 2.03125,-3.296875 C 2.0625,-3.359375 2.078125,-3.421875 2.078125,-3.515625 C 2.078125,-3.734375 1.890625,-3.890625 1.671875,-3.890625 C 1.390625,-3.890625 1.328125,-3.671875 1.296875,-3.578125 L 0.375,-0.5625 C 0.359375,-0.53125 0.328125,-0.453125 0.328125,-0.4375 C 0.328125,-0.359375 0.546875,-0.28125 0.609375,-0.28125 C 0.65625,-0.28125 0.6875,-0.328125 0.703125,-0.390625 L 2.03125,-3.296875 z"
               style="stroke:none" />
          </symbol>
          <symbol
             id="textext-da81d403-6"
             overflow="visible"
             style="overflow:visible">
            <path
               id="path5837"
               d="M 5.203125,-1.578125 C 5.296875,-1.578125 5.46875,-1.578125 5.46875,-1.734375 C 5.46875,-1.921875 5.296875,-1.921875 5.203125,-1.921875 L 1.015625,-1.921875 C 0.90625,-1.921875 0.75,-1.921875 0.75,-1.734375 C 0.75,-1.578125 0.921875,-1.578125 1.015625,-1.578125 L 5.203125,-1.578125 z"
               style="stroke:none" />
          </symbol>
          <symbol
             id="textext-da81d403-7"
             overflow="visible"
             style="overflow:visible">
            <path
               id="path5840"
               d=""
               style="stroke:none" />
          </symbol>
          <symbol
             id="textext-da81d403-8"
             overflow="visible"
             style="overflow:visible">
            <path
               id="path5843"
               d="M 2.328125,-4.4375 C 2.328125,-4.625 2.328125,-4.625 2.125,-4.625 C 1.671875,-4.1875 1.046875,-4.1875 0.765625,-4.1875 L 0.765625,-3.9375 C 0.921875,-3.9375 1.390625,-3.9375 1.765625,-4.125 L 1.765625,-0.578125 C 1.765625,-0.34375 1.765625,-0.25 1.078125,-0.25 L 0.8125,-0.25 L 0.8125,0 C 0.9375,0 1.796875,-0.03125 2.046875,-0.03125 C 2.265625,-0.03125 3.140625,0 3.296875,0 L 3.296875,-0.25 L 3.03125,-0.25 C 2.328125,-0.25 2.328125,-0.34375 2.328125,-0.578125 L 2.328125,-4.4375 z"
               style="stroke:none" />
          </symbol>
          <symbol
             id="textext-da81d403-9"
             overflow="visible"
             style="overflow:visible">
            <path
               id="path5846"
               d=""
               style="stroke:none" />
          </symbol>
          <symbol
             id="textext-da81d403-10"
             overflow="visible"
             style="overflow:visible">
            <path
               id="path5849"
               d="M 3.296875,2.390625 C 3.296875,2.359375 3.296875,2.34375 3.125,2.171875 C 1.890625,0.921875 1.5625,-0.96875 1.5625,-2.5 C 1.5625,-4.234375 1.9375,-5.96875 3.171875,-7.203125 C 3.296875,-7.328125 3.296875,-7.34375 3.296875,-7.375 C 3.296875,-7.453125 3.265625,-7.484375 3.203125,-7.484375 C 3.09375,-7.484375 2.203125,-6.796875 1.609375,-5.53125 C 1.109375,-4.4375 0.984375,-3.328125 0.984375,-2.5 C 0.984375,-1.71875 1.09375,-0.515625 1.640625,0.625 C 2.25,1.84375 3.09375,2.5 3.203125,2.5 C 3.265625,2.5 3.296875,2.46875 3.296875,2.390625 z"
               style="stroke:none" />
          </symbol>
          <symbol
             id="textext-da81d403-11"
             overflow="visible"
             style="overflow:visible">
            <path
               id="path5852"
               d="M 2.875,-2.5 C 2.875,-3.265625 2.765625,-4.46875 2.21875,-5.609375 C 1.625,-6.828125 0.765625,-7.484375 0.671875,-7.484375 C 0.609375,-7.484375 0.5625,-7.4375 0.5625,-7.375 C 0.5625,-7.34375 0.5625,-7.328125 0.75,-7.140625 C 1.734375,-6.15625 2.296875,-4.578125 2.296875,-2.5 C 2.296875,-0.78125 1.9375,0.96875 0.703125,2.21875 C 0.5625,2.34375 0.5625,2.359375 0.5625,2.390625 C 0.5625,2.453125 0.609375,2.5 0.671875,2.5 C 0.765625,2.5 1.671875,1.8125 2.25,0.546875 C 2.765625,-0.546875 2.875,-1.65625 2.875,-2.5 z"
               style="stroke:none" />
          </symbol>
        </g>
      </defs>
      <g
         id="textext-da81d403-12">
        <g
           id="g5855"
           style="fill:#000000;fill-opacity:1">
          <use
             id="use5857"
             y="134.765"
             x="223.43201"
             xlink:href="#textext-da81d403-1"
             width="354.33069"
             height="177.16534" />
        </g>
        <g
           id="g5859"
           style="fill:#000000;fill-opacity:1">
          <use
             id="use5861"
             y="131.14999"
             x="228.91499"
             xlink:href="#textext-da81d403-5"
             width="354.33069"
             height="177.16534" />
        </g>
        <g
           id="g5863"
           style="fill:#000000;fill-opacity:1">
          <use
             id="use5865"
             y="137.23801"
             x="227.787"
             xlink:href="#textext-da81d403-8"
             width="354.33069"
             height="177.16534" />
        </g>
        <g
           id="g5867"
           style="fill:#000000;fill-opacity:1">
          <use
             id="use5869"
             y="134.765"
             x="232.257"
             xlink:href="#textext-da81d403-10"
             width="354.33069"
             height="177.16534" />
        </g>
        <g
           id="g5871"
           style="fill:#000000;fill-opacity:1">
          <use
             id="use5873"
             y="134.765"
             x="236.131"
             xlink:href="#textext-da81d403-2"
             width="354.33069"
             height="177.16534" />
        </g>
        <g
           id="g5875"
           style="fill:#000000;fill-opacity:1">
          <use
             id="use5877"
             y="131.14999"
             x="242.16701"
             xlink:href="#textext-da81d403-6"
             width="354.33069"
             height="177.16534" />
        </g>
        <g
           id="g5879"
           style="fill:#000000;fill-opacity:1">
          <use
             id="use5881"
             y="131.14999"
             x="248.394"
             xlink:href="#textext-da81d403-8"
             width="354.33069"
             height="177.16534" />
        </g>
        <g
           id="g5883"
           style="fill:#000000;fill-opacity:1">
          <use
             id="use5885"
             y="134.765"
             x="252.86301"
             xlink:href="#textext-da81d403-10"
             width="354.33069"
             height="177.16534" />
        </g>
        <g
           id="g5887"
           style="fill:#000000;fill-opacity:1">
          <use
             id="use5889"
             y="134.765"
             x="256.73801"
             xlink:href="#textext-da81d403-3"
             width="354.33069"
             height="177.16534" />
        </g>
        <g
           id="g5891"
           style="fill:#000000;fill-opacity:1">
          <use
             id="use5893"
             y="136.259"
             x="263.134"
             xlink:href="#textext-da81d403-8"
             width="354.33069"
             height="177.16534" />
        </g>
        <g
           id="g5895"
           style="fill:#000000;fill-opacity:1">
          <use
             id="use5897"
             y="134.765"
             x="267.603"
             xlink:href="#textext-da81d403-11"
             width="354.33069"
             height="177.16534" />
          <use
             id="use5899"
             y="134.765"
             x="271.47745"
             xlink:href="#textext-da81d403-11"
             width="354.33069"
             height="177.16534" />
        </g>
      </g>
    </g>
    <g
       transform="translate(-153.05861,-93.7484)"
       ns0:text="$Q\'_{2}$"
       ns0:preamble=""
       id="g6125">
      <defs
         id="defs6127">
        <g
           id="g6129">
          <symbol
             style="overflow:visible"
             overflow="visible"
             id="textext-49f905c4-0">
            <path
               style="stroke:none"
               d=""
               id="path6132" />
          </symbol>
          <symbol
             style="overflow:visible"
             overflow="visible"
             id="textext-49f905c4-1">
            <path
               style="stroke:none"
               d="M 4.359375,-0.0625 C 5.90625,-0.640625 7.375,-2.421875 7.375,-4.34375 C 7.375,-5.953125 6.3125,-7.03125 4.828125,-7.03125 C 2.6875,-7.03125 0.484375,-4.765625 0.484375,-2.4375 C 0.484375,-0.78125 1.609375,0.21875 3.046875,0.21875 C 3.296875,0.21875 3.625,0.171875 4.015625,0.0625 C 3.984375,0.6875 3.984375,0.703125 3.984375,0.84375 C 3.984375,1.15625 3.984375,1.9375 4.8125,1.9375 C 5.984375,1.9375 6.46875,0.109375 6.46875,0 C 6.46875,-0.0625 6.40625,-0.09375 6.359375,-0.09375 C 6.28125,-0.09375 6.265625,-0.046875 6.234375,0.015625 C 6,0.71875 5.421875,0.96875 5.078125,0.96875 C 4.609375,0.96875 4.46875,0.703125 4.359375,-0.0625 z M 2.484375,-0.140625 C 1.703125,-0.453125 1.359375,-1.21875 1.359375,-2.125 C 1.359375,-2.8125 1.625,-4.234375 2.375,-5.296875 C 3.109375,-6.3125 4.046875,-6.78125 4.78125,-6.78125 C 5.765625,-6.78125 6.5,-6 6.5,-4.671875 C 6.5,-3.671875 5.984375,-1.328125 4.3125,-0.40625 C 4.265625,-0.75 4.171875,-1.46875 3.4375,-1.46875 C 2.90625,-1.46875 2.421875,-0.984375 2.421875,-0.453125 C 2.421875,-0.265625 2.484375,-0.15625 2.484375,-0.140625 z M 3.09375,-0.03125 C 2.953125,-0.03125 2.640625,-0.03125 2.640625,-0.453125 C 2.640625,-0.859375 3.015625,-1.25 3.4375,-1.25 C 3.859375,-1.25 4.046875,-1.015625 4.046875,-0.40625 C 4.046875,-0.265625 4.03125,-0.25 3.9375,-0.203125 C 3.671875,-0.09375 3.375,-0.03125 3.09375,-0.03125 z"
               id="path6135" />
          </symbol>
          <symbol
             style="overflow:visible"
             overflow="visible"
             id="textext-49f905c4-2">
            <path
               style="stroke:none"
               d=""
               id="path6138" />
          </symbol>
          <symbol
             style="overflow:visible"
             overflow="visible"
             id="textext-49f905c4-3">
            <path
               style="stroke:none"
               d="M 2.03125,-3.296875 C 2.0625,-3.359375 2.078125,-3.421875 2.078125,-3.515625 C 2.078125,-3.734375 1.890625,-3.890625 1.671875,-3.890625 C 1.390625,-3.890625 1.328125,-3.671875 1.296875,-3.578125 L 0.375,-0.5625 C 0.359375,-0.53125 0.328125,-0.453125 0.328125,-0.4375 C 0.328125,-0.359375 0.546875,-0.28125 0.609375,-0.28125 C 0.65625,-0.28125 0.6875,-0.328125 0.703125,-0.390625 L 2.03125,-3.296875 z"
               id="path6141" />
          </symbol>
          <symbol
             style="overflow:visible"
             overflow="visible"
             id="textext-49f905c4-4">
            <path
               style="stroke:none"
               d=""
               id="path6144" />
          </symbol>
          <symbol
             style="overflow:visible"
             overflow="visible"
             id="textext-49f905c4-5">
            <path
               style="stroke:none"
               d="M 3.515625,-1.265625 L 3.28125,-1.265625 C 3.265625,-1.109375 3.1875,-0.703125 3.09375,-0.640625 C 3.046875,-0.59375 2.515625,-0.59375 2.40625,-0.59375 L 1.125,-0.59375 C 1.859375,-1.234375 2.109375,-1.4375 2.515625,-1.765625 C 3.03125,-2.171875 3.515625,-2.609375 3.515625,-3.265625 C 3.515625,-4.109375 2.78125,-4.625 1.890625,-4.625 C 1.03125,-4.625 0.4375,-4.015625 0.4375,-3.375 C 0.4375,-3.03125 0.734375,-2.984375 0.8125,-2.984375 C 0.96875,-2.984375 1.171875,-3.109375 1.171875,-3.359375 C 1.171875,-3.484375 1.125,-3.734375 0.765625,-3.734375 C 0.984375,-4.21875 1.453125,-4.375 1.78125,-4.375 C 2.484375,-4.375 2.84375,-3.828125 2.84375,-3.265625 C 2.84375,-2.65625 2.40625,-2.1875 2.1875,-1.9375 L 0.515625,-0.265625 C 0.4375,-0.203125 0.4375,-0.1875 0.4375,0 L 3.3125,0 L 3.515625,-1.265625 z"
               id="path6147" />
          </symbol>
        </g>
      </defs>
      <g
         id="textext-49f905c4-6">
        <g
           style="fill:#000000;fill-opacity:1"
           id="g6150">
          <use
             height="177.16534"
             width="354.33069"
             xlink:href="#textext-49f905c4-1"
             x="223.43201"
             y="134.765"
             id="use6152" />
        </g>
        <g
           style="fill:#000000;fill-opacity:1"
           id="g6154">
          <use
             height="177.16534"
             width="354.33069"
             xlink:href="#textext-49f905c4-3"
             x="231.308"
             y="131.14999"
             id="use6156" />
        </g>
        <g
           style="fill:#000000;fill-opacity:1"
           id="g6158">
          <use
             height="177.16534"
             width="354.33069"
             xlink:href="#textext-49f905c4-5"
             x="231.308"
             y="137.23801"
             id="use6160" />
        </g>
      </g>
    </g>
    <g
       id="g6430"
       ns0:preamble=""
       ns0:text="$\\pi_{1}$"
       transform="translate(-46.126696,-53.187868)">
      <defs
         id="defs6432">
        <g
           id="g6434">
          <symbol
             id="textext-016b22c0-0"
             overflow="visible"
             style="overflow:visible">
            <path
               id="path6437"
               d=""
               style="stroke:none" />
          </symbol>
          <symbol
             id="textext-016b22c0-1"
             overflow="visible"
             style="overflow:visible">
            <path
               id="path6440"
               d="M 2.640625,-3.71875 L 3.765625,-3.71875 C 3.4375,-2.25 3.34375,-1.8125 3.34375,-1.140625 C 3.34375,-1 3.34375,-0.734375 3.421875,-0.390625 C 3.53125,0.046875 3.640625,0.109375 3.78125,0.109375 C 3.984375,0.109375 4.203125,-0.0625 4.203125,-0.265625 C 4.203125,-0.328125 4.203125,-0.34375 4.140625,-0.484375 C 3.84375,-1.203125 3.84375,-1.859375 3.84375,-2.140625 C 3.84375,-2.65625 3.921875,-3.203125 4.03125,-3.71875 L 5.15625,-3.71875 C 5.296875,-3.71875 5.65625,-3.71875 5.65625,-4.0625 C 5.65625,-4.296875 5.4375,-4.296875 5.25,-4.296875 L 1.90625,-4.296875 C 1.6875,-4.296875 1.3125,-4.296875 0.875,-3.828125 C 0.53125,-3.4375 0.265625,-2.984375 0.265625,-2.9375 C 0.265625,-2.921875 0.265625,-2.828125 0.390625,-2.828125 C 0.46875,-2.828125 0.484375,-2.875 0.546875,-2.953125 C 1.03125,-3.71875 1.609375,-3.71875 1.8125,-3.71875 L 2.375,-3.71875 C 2.0625,-2.515625 1.53125,-1.3125 1.109375,-0.40625 C 1.03125,-0.25 1.03125,-0.234375 1.03125,-0.15625 C 1.03125,0.03125 1.1875,0.109375 1.3125,0.109375 C 1.609375,0.109375 1.6875,-0.171875 1.8125,-0.53125 C 1.953125,-1 1.953125,-1.015625 2.078125,-1.515625 L 2.640625,-3.71875 z"
               style="stroke:none" />
          </symbol>
          <symbol
             id="textext-016b22c0-2"
             overflow="visible"
             style="overflow:visible">
            <path
               id="path6443"
               d=""
               style="stroke:none" />
          </symbol>
          <symbol
             id="textext-016b22c0-3"
             overflow="visible"
             style="overflow:visible">
            <path
               id="path6446"
               d="M 2.328125,-4.4375 C 2.328125,-4.625 2.328125,-4.625 2.125,-4.625 C 1.671875,-4.1875 1.046875,-4.1875 0.765625,-4.1875 L 0.765625,-3.9375 C 0.921875,-3.9375 1.390625,-3.9375 1.765625,-4.125 L 1.765625,-0.578125 C 1.765625,-0.34375 1.765625,-0.25 1.078125,-0.25 L 0.8125,-0.25 L 0.8125,0 C 0.9375,0 1.796875,-0.03125 2.046875,-0.03125 C 2.265625,-0.03125 3.140625,0 3.296875,0 L 3.296875,-0.25 L 3.03125,-0.25 C 2.328125,-0.25 2.328125,-0.34375 2.328125,-0.578125 L 2.328125,-4.4375 z"
               style="stroke:none" />
          </symbol>
        </g>
      </defs>
      <g
         id="textext-016b22c0-4">
        <g
           id="g6449"
           style="fill:#000000;fill-opacity:1">
          <use
             id="use6451"
             y="134.765"
             x="223.43201"
             xlink:href="#textext-016b22c0-1"
             width="354.33069"
             height="177.16534" />
        </g>
        <g
           id="g6453"
           style="fill:#000000;fill-opacity:1">
          <use
             id="use6455"
             y="136.259"
             x="229.11099"
             xlink:href="#textext-016b22c0-3"
             width="354.33069"
             height="177.16534" />
        </g>
      </g>
    </g>
    <g
       transform="translate(12.295879,-83.79959)"
       ns0:text="$\\sigma\'_{1}(F)$"
       ns0:preamble=""
       id="g6757">
      <defs
         id="defs6759">
        <g
           id="g6761">
          <symbol
             style="overflow:visible"
             overflow="visible"
             id="textext-868f26b6-0">
            <path
               style="stroke:none"
               d=""
               id="path6764" />
          </symbol>
          <symbol
             style="overflow:visible"
             overflow="visible"
             id="textext-868f26b6-1">
            <path
               style="stroke:none"
               d="M 5.15625,-3.71875 C 5.296875,-3.71875 5.65625,-3.71875 5.65625,-4.0625 C 5.65625,-4.296875 5.4375,-4.296875 5.265625,-4.296875 L 2.984375,-4.296875 C 1.484375,-4.296875 0.375,-2.65625 0.375,-1.46875 C 0.375,-0.59375 0.96875,0.109375 1.875,0.109375 C 3.046875,0.109375 4.375,-1.09375 4.375,-2.625 C 4.375,-2.796875 4.375,-3.28125 4.0625,-3.71875 L 5.15625,-3.71875 z M 1.890625,-0.109375 C 1.390625,-0.109375 1,-0.46875 1,-1.1875 C 1,-1.484375 1.109375,-2.296875 1.46875,-2.890625 C 1.890625,-3.578125 2.484375,-3.71875 2.828125,-3.71875 C 3.65625,-3.71875 3.734375,-3.0625 3.734375,-2.75 C 3.734375,-2.28125 3.53125,-1.46875 3.203125,-0.953125 C 2.8125,-0.375 2.265625,-0.109375 1.890625,-0.109375 z"
               id="path6767" />
          </symbol>
          <symbol
             style="overflow:visible"
             overflow="visible"
             id="textext-868f26b6-2">
            <path
               style="stroke:none"
               d="M 3.015625,-3.234375 L 3.984375,-3.234375 C 4.734375,-3.234375 4.8125,-3.078125 4.8125,-2.796875 C 4.8125,-2.71875 4.8125,-2.609375 4.75,-2.296875 C 4.71875,-2.25 4.71875,-2.21875 4.71875,-2.1875 C 4.71875,-2.109375 4.78125,-2.078125 4.828125,-2.078125 C 4.9375,-2.078125 4.9375,-2.109375 4.984375,-2.28125 L 5.53125,-4.453125 C 5.5625,-4.5625 5.5625,-4.578125 5.5625,-4.609375 C 5.5625,-4.625 5.546875,-4.71875 5.4375,-4.71875 C 5.34375,-4.71875 5.328125,-4.671875 5.296875,-4.5 C 5.078125,-3.734375 4.859375,-3.546875 4,-3.546875 L 3.09375,-3.546875 L 3.734375,-6.078125 C 3.828125,-6.4375 3.84375,-6.46875 4.28125,-6.46875 L 5.59375,-6.46875 C 6.8125,-6.46875 7.046875,-6.140625 7.046875,-5.375 C 7.046875,-5.140625 7.046875,-5.109375 7.015625,-4.828125 C 7,-4.703125 7,-4.6875 7,-4.65625 C 7,-4.609375 7.03125,-4.53125 7.125,-4.53125 C 7.234375,-4.53125 7.234375,-4.59375 7.25,-4.78125 L 7.453125,-6.515625 C 7.484375,-6.78125 7.4375,-6.78125 7.1875,-6.78125 L 2.296875,-6.78125 C 2.109375,-6.78125 2,-6.78125 2,-6.578125 C 2,-6.46875 2.09375,-6.46875 2.28125,-6.46875 C 2.65625,-6.46875 2.9375,-6.46875 2.9375,-6.296875 C 2.9375,-6.25 2.9375,-6.234375 2.875,-6.046875 L 1.5625,-0.78125 C 1.46875,-0.390625 1.453125,-0.3125 0.65625,-0.3125 C 0.484375,-0.3125 0.375,-0.3125 0.375,-0.125 C 0.375,0 0.5,0 0.53125,0 C 0.8125,0 1.5625,-0.03125 1.84375,-0.03125 C 2.171875,-0.03125 3,0 3.328125,0 C 3.421875,0 3.53125,0 3.53125,-0.1875 C 3.53125,-0.265625 3.484375,-0.296875 3.484375,-0.296875 C 3.453125,-0.3125 3.421875,-0.3125 3.203125,-0.3125 C 2.984375,-0.3125 2.9375,-0.3125 2.6875,-0.328125 C 2.390625,-0.359375 2.359375,-0.40625 2.359375,-0.53125 C 2.359375,-0.546875 2.359375,-0.609375 2.40625,-0.75 L 3.015625,-3.234375 z"
               id="path6770" />
          </symbol>
          <symbol
             style="overflow:visible"
             overflow="visible"
             id="textext-868f26b6-3">
            <path
               style="stroke:none"
               d=""
               id="path6773" />
          </symbol>
          <symbol
             style="overflow:visible"
             overflow="visible"
             id="textext-868f26b6-4">
            <path
               style="stroke:none"
               d="M 2.03125,-3.296875 C 2.0625,-3.359375 2.078125,-3.421875 2.078125,-3.515625 C 2.078125,-3.734375 1.890625,-3.890625 1.671875,-3.890625 C 1.390625,-3.890625 1.328125,-3.671875 1.296875,-3.578125 L 0.375,-0.5625 C 0.359375,-0.53125 0.328125,-0.453125 0.328125,-0.4375 C 0.328125,-0.359375 0.546875,-0.28125 0.609375,-0.28125 C 0.65625,-0.28125 0.6875,-0.328125 0.703125,-0.390625 L 2.03125,-3.296875 z"
               id="path6776" />
          </symbol>
          <symbol
             style="overflow:visible"
             overflow="visible"
             id="textext-868f26b6-5">
            <path
               style="stroke:none"
               d=""
               id="path6779" />
          </symbol>
          <symbol
             style="overflow:visible"
             overflow="visible"
             id="textext-868f26b6-6">
            <path
               style="stroke:none"
               d="M 2.328125,-4.4375 C 2.328125,-4.625 2.328125,-4.625 2.125,-4.625 C 1.671875,-4.1875 1.046875,-4.1875 0.765625,-4.1875 L 0.765625,-3.9375 C 0.921875,-3.9375 1.390625,-3.9375 1.765625,-4.125 L 1.765625,-0.578125 C 1.765625,-0.34375 1.765625,-0.25 1.078125,-0.25 L 0.8125,-0.25 L 0.8125,0 C 0.9375,0 1.796875,-0.03125 2.046875,-0.03125 C 2.265625,-0.03125 3.140625,0 3.296875,0 L 3.296875,-0.25 L 3.03125,-0.25 C 2.328125,-0.25 2.328125,-0.34375 2.328125,-0.578125 L 2.328125,-4.4375 z"
               id="path6782" />
          </symbol>
          <symbol
             style="overflow:visible"
             overflow="visible"
             id="textext-868f26b6-7">
            <path
               style="stroke:none"
               d=""
               id="path6785" />
          </symbol>
          <symbol
             style="overflow:visible"
             overflow="visible"
             id="textext-868f26b6-8">
            <path
               style="stroke:none"
               d="M 3.296875,2.390625 C 3.296875,2.359375 3.296875,2.34375 3.125,2.171875 C 1.890625,0.921875 1.5625,-0.96875 1.5625,-2.5 C 1.5625,-4.234375 1.9375,-5.96875 3.171875,-7.203125 C 3.296875,-7.328125 3.296875,-7.34375 3.296875,-7.375 C 3.296875,-7.453125 3.265625,-7.484375 3.203125,-7.484375 C 3.09375,-7.484375 2.203125,-6.796875 1.609375,-5.53125 C 1.109375,-4.4375 0.984375,-3.328125 0.984375,-2.5 C 0.984375,-1.71875 1.09375,-0.515625 1.640625,0.625 C 2.25,1.84375 3.09375,2.5 3.203125,2.5 C 3.265625,2.5 3.296875,2.46875 3.296875,2.390625 z"
               id="path6788" />
          </symbol>
          <symbol
             style="overflow:visible"
             overflow="visible"
             id="textext-868f26b6-9">
            <path
               style="stroke:none"
               d="M 2.875,-2.5 C 2.875,-3.265625 2.765625,-4.46875 2.21875,-5.609375 C 1.625,-6.828125 0.765625,-7.484375 0.671875,-7.484375 C 0.609375,-7.484375 0.5625,-7.4375 0.5625,-7.375 C 0.5625,-7.34375 0.5625,-7.328125 0.75,-7.140625 C 1.734375,-6.15625 2.296875,-4.578125 2.296875,-2.5 C 2.296875,-0.78125 1.9375,0.96875 0.703125,2.21875 C 0.5625,2.34375 0.5625,2.359375 0.5625,2.390625 C 0.5625,2.453125 0.609375,2.5 0.671875,2.5 C 0.765625,2.5 1.671875,1.8125 2.25,0.546875 C 2.765625,-0.546875 2.875,-1.65625 2.875,-2.5 z"
               id="path6791" />
          </symbol>
        </g>
      </defs>
      <g
         id="textext-868f26b6-10">
        <g
           style="fill:#000000;fill-opacity:1"
           id="g6794">
          <use
             height="177.16534"
             width="354.33069"
             xlink:href="#textext-868f26b6-1"
             x="223.43201"
             y="134.765"
             id="use6796" />
        </g>
        <g
           style="fill:#000000;fill-opacity:1"
           id="g6798">
          <use
             height="177.16534"
             width="354.33069"
             xlink:href="#textext-868f26b6-4"
             x="229.48199"
             y="131.14999"
             id="use6800" />
        </g>
        <g
           style="fill:#000000;fill-opacity:1"
           id="g6802">
          <use
             height="177.16534"
             width="354.33069"
             xlink:href="#textext-868f26b6-6"
             x="229.125"
             y="137.23801"
             id="use6804" />
        </g>
        <g
           style="fill:#000000;fill-opacity:1"
           id="g6806">
          <use
             height="177.16534"
             width="354.33069"
             xlink:href="#textext-868f26b6-8"
             x="233.59399"
             y="134.765"
             id="use6808" />
        </g>
        <g
           style="fill:#000000;fill-opacity:1"
           id="g6810">
          <use
             height="177.16534"
             width="354.33069"
             xlink:href="#textext-868f26b6-2"
             x="237.46899"
             y="134.765"
             id="use6812" />
        </g>
        <g
           style="fill:#000000;fill-opacity:1"
           id="g6814">
          <use
             height="177.16534"
             width="354.33069"
             xlink:href="#textext-868f26b6-9"
             x="245.259"
             y="134.765"
             id="use6816" />
        </g>
      </g>
    </g>
    <g
       id="g7190"
       ns0:preamble=""
       ns0:text="$P_{2}$"
       transform="translate(79.641669,-91.835168)">
      <defs
         id="defs7192">
        <g
           id="g7194">
          <symbol
             id="textext-a69aa3cc-0"
             overflow="visible"
             style="overflow:visible">
            <path
               id="path7197"
               d=""
               style="stroke:none" />
          </symbol>
          <symbol
             id="textext-a69aa3cc-1"
             overflow="visible"
             style="overflow:visible">
            <path
               id="path7200"
               d="M 3.015625,-3.15625 L 4.71875,-3.15625 C 6.125,-3.15625 7.515625,-4.1875 7.515625,-5.296875 C 7.515625,-6.078125 6.859375,-6.8125 5.546875,-6.8125 L 2.328125,-6.8125 C 2.140625,-6.8125 2.03125,-6.8125 2.03125,-6.625 C 2.03125,-6.5 2.109375,-6.5 2.3125,-6.5 C 2.4375,-6.5 2.625,-6.484375 2.734375,-6.484375 C 2.90625,-6.453125 2.953125,-6.4375 2.953125,-6.3125 C 2.953125,-6.28125 2.953125,-6.25 2.921875,-6.125 L 1.578125,-0.78125 C 1.484375,-0.390625 1.46875,-0.3125 0.671875,-0.3125 C 0.515625,-0.3125 0.40625,-0.3125 0.40625,-0.125 C 0.40625,0 0.515625,0 0.546875,0 C 0.828125,0 1.53125,-0.03125 1.8125,-0.03125 C 2.03125,-0.03125 2.25,-0.015625 2.453125,-0.015625 C 2.671875,-0.015625 2.890625,0 3.09375,0 C 3.171875,0 3.296875,0 3.296875,-0.203125 C 3.296875,-0.3125 3.203125,-0.3125 3.015625,-0.3125 C 2.65625,-0.3125 2.375,-0.3125 2.375,-0.484375 C 2.375,-0.546875 2.390625,-0.59375 2.40625,-0.65625 L 3.015625,-3.15625 z M 3.734375,-6.125 C 3.828125,-6.46875 3.84375,-6.5 4.28125,-6.5 L 5.234375,-6.5 C 6.0625,-6.5 6.59375,-6.234375 6.59375,-5.546875 C 6.59375,-5.15625 6.390625,-4.296875 6,-3.9375 C 5.5,-3.484375 4.90625,-3.40625 4.46875,-3.40625 L 3.0625,-3.40625 L 3.734375,-6.125 z"
               style="stroke:none" />
          </symbol>
          <symbol
             id="textext-a69aa3cc-2"
             overflow="visible"
             style="overflow:visible">
            <path
               id="path7203"
               d=""
               style="stroke:none" />
          </symbol>
          <symbol
             id="textext-a69aa3cc-3"
             overflow="visible"
             style="overflow:visible">
            <path
               id="path7206"
               d="M 3.515625,-1.265625 L 3.28125,-1.265625 C 3.265625,-1.109375 3.1875,-0.703125 3.09375,-0.640625 C 3.046875,-0.59375 2.515625,-0.59375 2.40625,-0.59375 L 1.125,-0.59375 C 1.859375,-1.234375 2.109375,-1.4375 2.515625,-1.765625 C 3.03125,-2.171875 3.515625,-2.609375 3.515625,-3.265625 C 3.515625,-4.109375 2.78125,-4.625 1.890625,-4.625 C 1.03125,-4.625 0.4375,-4.015625 0.4375,-3.375 C 0.4375,-3.03125 0.734375,-2.984375 0.8125,-2.984375 C 0.96875,-2.984375 1.171875,-3.109375 1.171875,-3.359375 C 1.171875,-3.484375 1.125,-3.734375 0.765625,-3.734375 C 0.984375,-4.21875 1.453125,-4.375 1.78125,-4.375 C 2.484375,-4.375 2.84375,-3.828125 2.84375,-3.265625 C 2.84375,-2.65625 2.40625,-2.1875 2.1875,-1.9375 L 0.515625,-0.265625 C 0.4375,-0.203125 0.4375,-0.1875 0.4375,0 L 3.3125,0 L 3.515625,-1.265625 z"
               style="stroke:none" />
          </symbol>
        </g>
      </defs>
      <g
         id="textext-a69aa3cc-4">
        <g
           id="g7209"
           style="fill:#000000;fill-opacity:1">
          <use
             id="use7211"
             y="134.765"
             x="223.43201"
             xlink:href="#textext-a69aa3cc-1"
             width="354.33069"
             height="177.16534" />
        </g>
        <g
           id="g7213"
           style="fill:#000000;fill-opacity:1">
          <use
             id="use7215"
             y="136.259"
             x="229.828"
             xlink:href="#textext-a69aa3cc-3"
             width="354.33069"
             height="177.16534" />
        </g>
      </g>
    </g>
    <g
       transform="translate(97.626056,-40.943179)"
       ns0:text="$\\sigma\'_{1}(G)$"
       ns0:preamble=""
       id="g7621">
      <defs
         id="defs7623">
        <g
           id="g7625">
          <symbol
             style="overflow:visible"
             overflow="visible"
             id="textext-bf036a73-0">
            <path
               style="stroke:none"
               d=""
               id="path7628" />
          </symbol>
          <symbol
             style="overflow:visible"
             overflow="visible"
             id="textext-bf036a73-1">
            <path
               style="stroke:none"
               d="M 5.15625,-3.71875 C 5.296875,-3.71875 5.65625,-3.71875 5.65625,-4.0625 C 5.65625,-4.296875 5.4375,-4.296875 5.265625,-4.296875 L 2.984375,-4.296875 C 1.484375,-4.296875 0.375,-2.65625 0.375,-1.46875 C 0.375,-0.59375 0.96875,0.109375 1.875,0.109375 C 3.046875,0.109375 4.375,-1.09375 4.375,-2.625 C 4.375,-2.796875 4.375,-3.28125 4.0625,-3.71875 L 5.15625,-3.71875 z M 1.890625,-0.109375 C 1.390625,-0.109375 1,-0.46875 1,-1.1875 C 1,-1.484375 1.109375,-2.296875 1.46875,-2.890625 C 1.890625,-3.578125 2.484375,-3.71875 2.828125,-3.71875 C 3.65625,-3.71875 3.734375,-3.0625 3.734375,-2.75 C 3.734375,-2.28125 3.53125,-1.46875 3.203125,-0.953125 C 2.8125,-0.375 2.265625,-0.109375 1.890625,-0.109375 z"
               id="path7631" />
          </symbol>
          <symbol
             style="overflow:visible"
             overflow="visible"
             id="textext-bf036a73-2">
            <path
               style="stroke:none"
               d="M 7.578125,-6.921875 C 7.578125,-6.953125 7.5625,-7.03125 7.46875,-7.03125 C 7.4375,-7.03125 7.421875,-7.015625 7.3125,-6.90625 L 6.625,-6.140625 C 6.53125,-6.28125 6.078125,-7.03125 4.96875,-7.03125 C 2.734375,-7.03125 0.5,-4.828125 0.5,-2.515625 C 0.5,-0.921875 1.609375,0.21875 3.21875,0.21875 C 3.65625,0.21875 4.109375,0.125 4.46875,-0.015625 C 4.96875,-0.21875 5.15625,-0.421875 5.328125,-0.625 C 5.421875,-0.375 5.6875,-0.015625 5.78125,-0.015625 C 5.828125,-0.015625 5.859375,-0.046875 5.859375,-0.046875 C 5.875,-0.0625 5.96875,-0.453125 6.015625,-0.65625 L 6.203125,-1.421875 C 6.25,-1.59375 6.296875,-1.765625 6.34375,-1.9375 C 6.453125,-2.375 6.453125,-2.40625 7.03125,-2.40625 C 7.078125,-2.40625 7.1875,-2.421875 7.1875,-2.609375 C 7.1875,-2.6875 7.140625,-2.71875 7.0625,-2.71875 C 6.828125,-2.71875 6.234375,-2.6875 6.015625,-2.6875 C 5.703125,-2.6875 4.921875,-2.71875 4.609375,-2.71875 C 4.53125,-2.71875 4.40625,-2.71875 4.40625,-2.515625 C 4.40625,-2.40625 4.484375,-2.40625 4.703125,-2.40625 C 4.71875,-2.40625 5,-2.40625 5.234375,-2.390625 C 5.5,-2.359375 5.546875,-2.328125 5.546875,-2.203125 C 5.546875,-2.109375 5.4375,-1.671875 5.328125,-1.296875 C 5.046875,-0.203125 3.765625,-0.09375 3.40625,-0.09375 C 2.453125,-0.09375 1.40625,-0.65625 1.40625,-2.1875 C 1.40625,-2.5 1.5,-4.140625 2.546875,-5.4375 C 3.09375,-6.109375 4.0625,-6.71875 5.046875,-6.71875 C 6.0625,-6.71875 6.65625,-5.953125 6.65625,-4.796875 C 6.65625,-4.390625 6.625,-4.390625 6.625,-4.28125 C 6.625,-4.1875 6.734375,-4.1875 6.765625,-4.1875 C 6.890625,-4.1875 6.890625,-4.203125 6.953125,-4.390625 L 7.578125,-6.921875 z"
               id="path7634" />
          </symbol>
          <symbol
             style="overflow:visible"
             overflow="visible"
             id="textext-bf036a73-3">
            <path
               style="stroke:none"
               d=""
               id="path7637" />
          </symbol>
          <symbol
             style="overflow:visible"
             overflow="visible"
             id="textext-bf036a73-4">
            <path
               style="stroke:none"
               d="M 2.03125,-3.296875 C 2.0625,-3.359375 2.078125,-3.421875 2.078125,-3.515625 C 2.078125,-3.734375 1.890625,-3.890625 1.671875,-3.890625 C 1.390625,-3.890625 1.328125,-3.671875 1.296875,-3.578125 L 0.375,-0.5625 C 0.359375,-0.53125 0.328125,-0.453125 0.328125,-0.4375 C 0.328125,-0.359375 0.546875,-0.28125 0.609375,-0.28125 C 0.65625,-0.28125 0.6875,-0.328125 0.703125,-0.390625 L 2.03125,-3.296875 z"
               id="path7640" />
          </symbol>
          <symbol
             style="overflow:visible"
             overflow="visible"
             id="textext-bf036a73-5">
            <path
               style="stroke:none"
               d=""
               id="path7643" />
          </symbol>
          <symbol
             style="overflow:visible"
             overflow="visible"
             id="textext-bf036a73-6">
            <path
               style="stroke:none"
               d="M 2.328125,-4.4375 C 2.328125,-4.625 2.328125,-4.625 2.125,-4.625 C 1.671875,-4.1875 1.046875,-4.1875 0.765625,-4.1875 L 0.765625,-3.9375 C 0.921875,-3.9375 1.390625,-3.9375 1.765625,-4.125 L 1.765625,-0.578125 C 1.765625,-0.34375 1.765625,-0.25 1.078125,-0.25 L 0.8125,-0.25 L 0.8125,0 C 0.9375,0 1.796875,-0.03125 2.046875,-0.03125 C 2.265625,-0.03125 3.140625,0 3.296875,0 L 3.296875,-0.25 L 3.03125,-0.25 C 2.328125,-0.25 2.328125,-0.34375 2.328125,-0.578125 L 2.328125,-4.4375 z"
               id="path7646" />
          </symbol>
          <symbol
             style="overflow:visible"
             overflow="visible"
             id="textext-bf036a73-7">
            <path
               style="stroke:none"
               d=""
               id="path7649" />
          </symbol>
          <symbol
             style="overflow:visible"
             overflow="visible"
             id="textext-bf036a73-8">
            <path
               style="stroke:none"
               d="M 3.296875,2.390625 C 3.296875,2.359375 3.296875,2.34375 3.125,2.171875 C 1.890625,0.921875 1.5625,-0.96875 1.5625,-2.5 C 1.5625,-4.234375 1.9375,-5.96875 3.171875,-7.203125 C 3.296875,-7.328125 3.296875,-7.34375 3.296875,-7.375 C 3.296875,-7.453125 3.265625,-7.484375 3.203125,-7.484375 C 3.09375,-7.484375 2.203125,-6.796875 1.609375,-5.53125 C 1.109375,-4.4375 0.984375,-3.328125 0.984375,-2.5 C 0.984375,-1.71875 1.09375,-0.515625 1.640625,0.625 C 2.25,1.84375 3.09375,2.5 3.203125,2.5 C 3.265625,2.5 3.296875,2.46875 3.296875,2.390625 z"
               id="path7652" />
          </symbol>
          <symbol
             style="overflow:visible"
             overflow="visible"
             id="textext-bf036a73-9">
            <path
               style="stroke:none"
               d="M 2.875,-2.5 C 2.875,-3.265625 2.765625,-4.46875 2.21875,-5.609375 C 1.625,-6.828125 0.765625,-7.484375 0.671875,-7.484375 C 0.609375,-7.484375 0.5625,-7.4375 0.5625,-7.375 C 0.5625,-7.34375 0.5625,-7.328125 0.75,-7.140625 C 1.734375,-6.15625 2.296875,-4.578125 2.296875,-2.5 C 2.296875,-0.78125 1.9375,0.96875 0.703125,2.21875 C 0.5625,2.34375 0.5625,2.359375 0.5625,2.390625 C 0.5625,2.453125 0.609375,2.5 0.671875,2.5 C 0.765625,2.5 1.671875,1.8125 2.25,0.546875 C 2.765625,-0.546875 2.875,-1.65625 2.875,-2.5 z"
               id="path7655" />
          </symbol>
        </g>
      </defs>
      <g
         id="textext-bf036a73-10">
        <g
           style="fill:#000000;fill-opacity:1"
           id="g7658">
          <use
             height="177.16534"
             width="354.33069"
             xlink:href="#textext-bf036a73-1"
             x="223.43201"
             y="134.765"
             id="use7660" />
        </g>
        <g
           style="fill:#000000;fill-opacity:1"
           id="g7662">
          <use
             height="177.16534"
             width="354.33069"
             xlink:href="#textext-bf036a73-4"
             x="229.48199"
             y="131.14999"
             id="use7664" />
        </g>
        <g
           style="fill:#000000;fill-opacity:1"
           id="g7666">
          <use
             height="177.16534"
             width="354.33069"
             xlink:href="#textext-bf036a73-6"
             x="229.125"
             y="137.23801"
             id="use7668" />
        </g>
        <g
           style="fill:#000000;fill-opacity:1"
           id="g7670">
          <use
             height="177.16534"
             width="354.33069"
             xlink:href="#textext-bf036a73-8"
             x="233.59399"
             y="134.765"
             id="use7672" />
        </g>
        <g
           style="fill:#000000;fill-opacity:1"
           id="g7674">
          <use
             height="177.16534"
             width="354.33069"
             xlink:href="#textext-bf036a73-2"
             x="237.46899"
             y="134.765"
             id="use7676" />
        </g>
        <g
           style="fill:#000000;fill-opacity:1"
           id="g7678">
          <use
             height="177.16534"
             width="354.33069"
             xlink:href="#textext-bf036a73-9"
             x="245.302"
             y="134.765"
             id="use7680" />
        </g>
      </g>
    </g>
    <g
       id="g8158"
       ns0:preamble=""
       ns0:text="$\\sigma^{-1}_{1}(P_{1})$"
       transform="translate(39.463783,-19.89762)">
      <defs
         id="defs8160">
        <g
           id="g8162">
          <symbol
             id="textext-4fa4e1b1-0"
             overflow="visible"
             style="overflow:visible">
            <path
               id="path8165"
               d=""
               style="stroke:none" />
          </symbol>
          <symbol
             id="textext-4fa4e1b1-1"
             overflow="visible"
             style="overflow:visible">
            <path
               id="path8168"
               d="M 5.15625,-3.71875 C 5.296875,-3.71875 5.65625,-3.71875 5.65625,-4.0625 C 5.65625,-4.296875 5.4375,-4.296875 5.265625,-4.296875 L 2.984375,-4.296875 C 1.484375,-4.296875 0.375,-2.65625 0.375,-1.46875 C 0.375,-0.59375 0.96875,0.109375 1.875,0.109375 C 3.046875,0.109375 4.375,-1.09375 4.375,-2.625 C 4.375,-2.796875 4.375,-3.28125 4.0625,-3.71875 L 5.15625,-3.71875 z M 1.890625,-0.109375 C 1.390625,-0.109375 1,-0.46875 1,-1.1875 C 1,-1.484375 1.109375,-2.296875 1.46875,-2.890625 C 1.890625,-3.578125 2.484375,-3.71875 2.828125,-3.71875 C 3.65625,-3.71875 3.734375,-3.0625 3.734375,-2.75 C 3.734375,-2.28125 3.53125,-1.46875 3.203125,-0.953125 C 2.8125,-0.375 2.265625,-0.109375 1.890625,-0.109375 z"
               style="stroke:none" />
          </symbol>
          <symbol
             id="textext-4fa4e1b1-2"
             overflow="visible"
             style="overflow:visible">
            <path
               id="path8171"
               d="M 3.015625,-3.15625 L 4.71875,-3.15625 C 6.125,-3.15625 7.515625,-4.1875 7.515625,-5.296875 C 7.515625,-6.078125 6.859375,-6.8125 5.546875,-6.8125 L 2.328125,-6.8125 C 2.140625,-6.8125 2.03125,-6.8125 2.03125,-6.625 C 2.03125,-6.5 2.109375,-6.5 2.3125,-6.5 C 2.4375,-6.5 2.625,-6.484375 2.734375,-6.484375 C 2.90625,-6.453125 2.953125,-6.4375 2.953125,-6.3125 C 2.953125,-6.28125 2.953125,-6.25 2.921875,-6.125 L 1.578125,-0.78125 C 1.484375,-0.390625 1.46875,-0.3125 0.671875,-0.3125 C 0.515625,-0.3125 0.40625,-0.3125 0.40625,-0.125 C 0.40625,0 0.515625,0 0.546875,0 C 0.828125,0 1.53125,-0.03125 1.8125,-0.03125 C 2.03125,-0.03125 2.25,-0.015625 2.453125,-0.015625 C 2.671875,-0.015625 2.890625,0 3.09375,0 C 3.171875,0 3.296875,0 3.296875,-0.203125 C 3.296875,-0.3125 3.203125,-0.3125 3.015625,-0.3125 C 2.65625,-0.3125 2.375,-0.3125 2.375,-0.484375 C 2.375,-0.546875 2.390625,-0.59375 2.40625,-0.65625 L 3.015625,-3.15625 z M 3.734375,-6.125 C 3.828125,-6.46875 3.84375,-6.5 4.28125,-6.5 L 5.234375,-6.5 C 6.0625,-6.5 6.59375,-6.234375 6.59375,-5.546875 C 6.59375,-5.15625 6.390625,-4.296875 6,-3.9375 C 5.5,-3.484375 4.90625,-3.40625 4.46875,-3.40625 L 3.0625,-3.40625 L 3.734375,-6.125 z"
               style="stroke:none" />
          </symbol>
          <symbol
             id="textext-4fa4e1b1-3"
             overflow="visible"
             style="overflow:visible">
            <path
               id="path8174"
               d=""
               style="stroke:none" />
          </symbol>
          <symbol
             id="textext-4fa4e1b1-4"
             overflow="visible"
             style="overflow:visible">
            <path
               id="path8177"
               d="M 5.203125,-1.578125 C 5.296875,-1.578125 5.46875,-1.578125 5.46875,-1.734375 C 5.46875,-1.921875 5.296875,-1.921875 5.203125,-1.921875 L 1.015625,-1.921875 C 0.90625,-1.921875 0.75,-1.921875 0.75,-1.734375 C 0.75,-1.578125 0.921875,-1.578125 1.015625,-1.578125 L 5.203125,-1.578125 z"
               style="stroke:none" />
          </symbol>
          <symbol
             id="textext-4fa4e1b1-5"
             overflow="visible"
             style="overflow:visible">
            <path
               id="path8180"
               d=""
               style="stroke:none" />
          </symbol>
          <symbol
             id="textext-4fa4e1b1-6"
             overflow="visible"
             style="overflow:visible">
            <path
               id="path8183"
               d="M 2.328125,-4.4375 C 2.328125,-4.625 2.328125,-4.625 2.125,-4.625 C 1.671875,-4.1875 1.046875,-4.1875 0.765625,-4.1875 L 0.765625,-3.9375 C 0.921875,-3.9375 1.390625,-3.9375 1.765625,-4.125 L 1.765625,-0.578125 C 1.765625,-0.34375 1.765625,-0.25 1.078125,-0.25 L 0.8125,-0.25 L 0.8125,0 C 0.9375,0 1.796875,-0.03125 2.046875,-0.03125 C 2.265625,-0.03125 3.140625,0 3.296875,0 L 3.296875,-0.25 L 3.03125,-0.25 C 2.328125,-0.25 2.328125,-0.34375 2.328125,-0.578125 L 2.328125,-4.4375 z"
               style="stroke:none" />
          </symbol>
          <symbol
             id="textext-4fa4e1b1-7"
             overflow="visible"
             style="overflow:visible">
            <path
               id="path8186"
               d=""
               style="stroke:none" />
          </symbol>
          <symbol
             id="textext-4fa4e1b1-8"
             overflow="visible"
             style="overflow:visible">
            <path
               id="path8189"
               d="M 3.296875,2.390625 C 3.296875,2.359375 3.296875,2.34375 3.125,2.171875 C 1.890625,0.921875 1.5625,-0.96875 1.5625,-2.5 C 1.5625,-4.234375 1.9375,-5.96875 3.171875,-7.203125 C 3.296875,-7.328125 3.296875,-7.34375 3.296875,-7.375 C 3.296875,-7.453125 3.265625,-7.484375 3.203125,-7.484375 C 3.09375,-7.484375 2.203125,-6.796875 1.609375,-5.53125 C 1.109375,-4.4375 0.984375,-3.328125 0.984375,-2.5 C 0.984375,-1.71875 1.09375,-0.515625 1.640625,0.625 C 2.25,1.84375 3.09375,2.5 3.203125,2.5 C 3.265625,2.5 3.296875,2.46875 3.296875,2.390625 z"
               style="stroke:none" />
          </symbol>
          <symbol
             id="textext-4fa4e1b1-9"
             overflow="visible"
             style="overflow:visible">
            <path
               id="path8192"
               d="M 2.875,-2.5 C 2.875,-3.265625 2.765625,-4.46875 2.21875,-5.609375 C 1.625,-6.828125 0.765625,-7.484375 0.671875,-7.484375 C 0.609375,-7.484375 0.5625,-7.4375 0.5625,-7.375 C 0.5625,-7.34375 0.5625,-7.328125 0.75,-7.140625 C 1.734375,-6.15625 2.296875,-4.578125 2.296875,-2.5 C 2.296875,-0.78125 1.9375,0.96875 0.703125,2.21875 C 0.5625,2.34375 0.5625,2.359375 0.5625,2.390625 C 0.5625,2.453125 0.609375,2.5 0.671875,2.5 C 0.765625,2.5 1.671875,1.8125 2.25,0.546875 C 2.765625,-0.546875 2.875,-1.65625 2.875,-2.5 z"
               style="stroke:none" />
          </symbol>
        </g>
      </defs>
      <g
         id="textext-4fa4e1b1-10">
        <g
           id="g8195"
           style="fill:#000000;fill-opacity:1">
          <use
             id="use8197"
             y="134.765"
             x="223.43201"
             xlink:href="#textext-4fa4e1b1-1"
             width="354.33069"
             height="177.16534" />
        </g>
        <g
           id="g8199"
           style="fill:#000000;fill-opacity:1">
          <use
             id="use8201"
             y="130.50301"
             x="229.48199"
             xlink:href="#textext-4fa4e1b1-4"
             width="354.33069"
             height="177.16534" />
        </g>
        <g
           id="g8203"
           style="fill:#000000;fill-opacity:1">
          <use
             id="use8205"
             y="130.50301"
             x="235.709"
             xlink:href="#textext-4fa4e1b1-6"
             width="354.33069"
             height="177.16534" />
        </g>
        <g
           id="g8207"
           style="fill:#000000;fill-opacity:1">
          <use
             id="use8209"
             y="137.42101"
             x="229.125"
             xlink:href="#textext-4fa4e1b1-6"
             width="354.33069"
             height="177.16534" />
        </g>
        <g
           id="g8211"
           style="fill:#000000;fill-opacity:1">
          <use
             id="use8213"
             y="134.765"
             x="240.17799"
             xlink:href="#textext-4fa4e1b1-8"
             width="354.33069"
             height="177.16534" />
        </g>
        <g
           id="g8215"
           style="fill:#000000;fill-opacity:1">
          <use
             id="use8217"
             y="134.765"
             x="244.05299"
             xlink:href="#textext-4fa4e1b1-2"
             width="354.33069"
             height="177.16534" />
        </g>
        <g
           id="g8219"
           style="fill:#000000;fill-opacity:1">
          <use
             id="use8221"
             y="136.259"
             x="250.44901"
             xlink:href="#textext-4fa4e1b1-6"
             width="354.33069"
             height="177.16534" />
        </g>
        <g
           id="g8223"
           style="fill:#000000;fill-opacity:1">
          <use
             id="use8225"
             y="134.765"
             x="254.918"
             xlink:href="#textext-4fa4e1b1-9"
             width="354.33069"
             height="177.16534" />
        </g>
      </g>
    </g>
    <path
       style="fill:none;fill-rule:evenodd;stroke:#000000;stroke-width:1px;stroke-linecap:butt;stroke-linejoin:miter;marker-end:url(#Arrow2Lend);stroke-opacity:1"
       d="M 150.97915,73.170879 L 217.94571,73.035593"
       id="path2662" />
  </g>
</svg>
