<?xml version="1.0" encoding="UTF-8" standalone="no"?>
<!-- Created with Inkscape (http://www.inkscape.org/) -->
<svg
   xmlns:ns0="http://www.iki.fi/pav/software/textext/"
   xmlns:dc="http://purl.org/dc/elements/1.1/"
   xmlns:cc="http://creativecommons.org/ns#"
   xmlns:rdf="http://www.w3.org/1999/02/22-rdf-syntax-ns#"
   xmlns:svg="http://www.w3.org/2000/svg"
   xmlns="http://www.w3.org/2000/svg"
   xmlns:xlink="http://www.w3.org/1999/xlink"
   xmlns:sodipodi="http://sodipodi.sourceforge.net/DTD/sodipodi-0.dtd"
   xmlns:inkscape="http://www.inkscape.org/namespaces/inkscape"
   width="372.04724"
   height="283.46457"
   id="svg2"
   sodipodi:version="0.32"
   inkscape:version="0.46"
   version="1.0"
   sodipodi:docname="chap2-fig24.svg"
   inkscape:output_extension="org.inkscape.output.svg.inkscape">
  <sodipodi:namedview
     id="base"
     pagecolor="#ffffff"
     bordercolor="#666666"
     borderopacity="1.0"
     gridtolerance="10000"
     guidetolerance="10"
     objecttolerance="10"
     inkscape:pageopacity="0.0"
     inkscape:pageshadow="2"
     inkscape:zoom="1.8379592"
     inkscape:cx="214.24716"
     inkscape:cy="135.24407"
     inkscape:document-units="px"
     inkscape:current-layer="layer1"
     showgrid="false"
     units="cm"
     inkscape:window-width="1009"
     inkscape:window-height="726"
     inkscape:window-x="5"
     inkscape:window-y="27" />
  <defs
     id="defs4">
    <inkscape:perspective
       id="perspective10"
       inkscape:persp3d-origin="372.04724 : 350.78739 : 1"
       inkscape:vp_z="744.09448 : 526.18109 : 1"
       inkscape:vp_y="0 : 1000 : 0"
       inkscape:vp_x="0 : 526.18109 : 1"
       sodipodi:type="inkscape:persp3d" />
  </defs>
  <metadata
     id="metadata7">
    <rdf:RDF>
      <cc:Work
         rdf:about="">
        <dc:format>image/svg+xml</dc:format>
        <dc:type
           rdf:resource="http://purl.org/dc/dcmitype/StillImage" />
      </cc:Work>
    </rdf:RDF>
  </metadata>
  <g
     id="layer1"
     inkscape:groupmode="layer"
     inkscape:label="Layer 1">
    <path
       sodipodi:type="arc"
       style="opacity:1;fill:#ffffff;fill-opacity:1;fill-rule:evenodd;stroke:#000000;stroke-width:1.33712101;stroke-linecap:butt;stroke-linejoin:miter;marker:none;marker-start:none;marker-mid:none;marker-end:none;stroke-miterlimit:4;stroke-dasharray:none;stroke-dashoffset:0;stroke-opacity:1;visibility:visible;display:inline;overflow:visible;enable-background:accumulate"
       id="path49944"
       sodipodi:cx="64.248886"
       sodipodi:cy="137.65422"
       sodipodi:rx="5.3861341"
       sodipodi:ry="5.3861341"
       d="M 69.63502,137.65422 A 5.3861341,5.3861341 0 1 1 58.862752,137.65422 A 5.3861341,5.3861341 0 1 1 69.63502,137.65422 z"
       transform="matrix(0.822663,0,0,0.822663,7.393703,-50.676981)" />
    <path
       style="fill:none;fill-rule:evenodd;stroke:#000000;stroke-width:1px;stroke-linecap:butt;stroke-linejoin:miter;stroke-opacity:1"
       d="M 64.826337,62.83454 L 109.169,62.83454"
       id="path49950" />
    <path
       transform="matrix(0.822663,0,0,0.822663,60.57758,-50.676981)"
       d="M 69.63502,137.65422 A 5.3861341,5.3861341 0 1 1 58.862752,137.65422 A 5.3861341,5.3861341 0 1 1 69.63502,137.65422 z"
       sodipodi:ry="5.3861341"
       sodipodi:rx="5.3861341"
       sodipodi:cy="137.65422"
       sodipodi:cx="64.248886"
       id="path49952"
       style="opacity:1;fill:#ffffff;fill-opacity:1;fill-rule:evenodd;stroke:#000000;stroke-width:1.33712101;stroke-linecap:butt;stroke-linejoin:miter;marker:none;marker-start:none;marker-mid:none;marker-end:none;stroke-miterlimit:4;stroke-dasharray:none;stroke-dashoffset:0;stroke-opacity:1;visibility:visible;display:inline;overflow:visible;enable-background:accumulate"
       sodipodi:type="arc" />
    <path
       id="path49954"
       d="M 118.01022,62.83454 L 162.35288,62.83454"
       style="fill:none;fill-rule:evenodd;stroke:#000000;stroke-width:1px;stroke-linecap:butt;stroke-linejoin:miter;stroke-opacity:1" />
    <path
       transform="matrix(-0.822663,0,0,0.822663,339.27117,-50.676981)"
       d="M 69.63502,137.65422 A 5.3861341,5.3861341 0 1 1 58.862752,137.65422 A 5.3861341,5.3861341 0 1 1 69.63502,137.65422 z"
       sodipodi:ry="5.3861341"
       sodipodi:rx="5.3861341"
       sodipodi:cy="137.65422"
       sodipodi:cx="64.248886"
       id="path49956"
       style="opacity:1;fill:#ffffff;fill-opacity:1;fill-rule:evenodd;stroke:#000000;stroke-width:1.33712101;stroke-linecap:butt;stroke-linejoin:miter;marker:none;marker-start:none;marker-mid:none;marker-end:none;stroke-miterlimit:4;stroke-dasharray:none;stroke-dashoffset:0;stroke-opacity:1;visibility:visible;display:inline;overflow:visible;enable-background:accumulate"
       sodipodi:type="arc" />
    <path
       id="path49958"
       d="M 281.83853,62.83454 L 237.49587,62.83454"
       style="fill:none;fill-rule:evenodd;stroke:#000000;stroke-width:1px;stroke-linecap:butt;stroke-linejoin:miter;stroke-opacity:1" />
    <path
       sodipodi:type="arc"
       style="opacity:1;fill:#ffffff;fill-opacity:1;fill-rule:evenodd;stroke:#000000;stroke-width:1.33712101;stroke-linecap:butt;stroke-linejoin:miter;marker:none;marker-start:none;marker-mid:none;marker-end:none;stroke-miterlimit:4;stroke-dasharray:none;stroke-dashoffset:0;stroke-opacity:1;visibility:visible;display:inline;overflow:visible;enable-background:accumulate"
       id="path49960"
       sodipodi:cx="64.248886"
       sodipodi:cy="137.65422"
       sodipodi:rx="5.3861341"
       sodipodi:ry="5.3861341"
       d="M 69.63502,137.65422 A 5.3861341,5.3861341 0 1 1 58.862752,137.65422 A 5.3861341,5.3861341 0 1 1 69.63502,137.65422 z"
       transform="matrix(-0.822663,0,0,0.822663,286.08729,-50.676981)" />
    <path
       style="fill:none;fill-rule:evenodd;stroke:#000000;stroke-width:1px;stroke-linecap:butt;stroke-linejoin:miter;stroke-opacity:1"
       d="M 228.65465,62.83454 L 184.31199,62.83454"
       id="path49962" />
    <path
       sodipodi:type="arc"
       id="path49964"
       style="fill:#000000;stroke:none"
       sodipodi:cx="92.221848"
       sodipodi:cy="169.47945"
       sodipodi:rx="2"
       sodipodi:ry="2"
       d="M 94.221848,169.47945 A 2,2 0 1 1 90.221848,169.47945 A 2,2 0 1 1 94.221848,169.47945 z"
       transform="matrix(0.8639796,0,0,0.8639796,87.707945,-79.607337)" />
    <path
       transform="matrix(0.8639796,0,0,0.8639796,93.707945,-79.607337)"
       d="M 94.221848,169.47945 A 2,2 0 1 1 90.221848,169.47945 A 2,2 0 1 1 94.221848,169.47945 z"
       sodipodi:ry="2"
       sodipodi:rx="2"
       sodipodi:cy="169.47945"
       sodipodi:cx="92.221848"
       style="fill:#000000;stroke:none"
       id="path49966"
       sodipodi:type="arc" />
    <path
       sodipodi:type="arc"
       id="path49968"
       style="fill:#000000;stroke:none"
       sodipodi:cx="92.221848"
       sodipodi:cy="169.47945"
       sodipodi:rx="2"
       sodipodi:ry="2"
       d="M 94.221848,169.47945 A 2,2 0 1 1 90.221848,169.47945 A 2,2 0 1 1 94.221848,169.47945 z"
       transform="matrix(0.8639796,0,0,0.8639796,99.70794,-79.607337)" />
    <path
       sodipodi:type="arc"
       style="opacity:1;fill:#ffffff;fill-opacity:1;fill-rule:evenodd;stroke:#000000;stroke-width:1.33712101;stroke-linecap:butt;stroke-linejoin:miter;marker:none;marker-start:none;marker-mid:none;marker-end:none;stroke-miterlimit:4;stroke-dasharray:none;stroke-dashoffset:0;stroke-opacity:1;visibility:visible;display:inline;overflow:visible;enable-background:accumulate"
       id="path49970"
       sodipodi:cx="64.248886"
       sodipodi:cy="137.65422"
       sodipodi:rx="5.3861341"
       sodipodi:ry="5.3861341"
       d="M 69.63502,137.65422 A 5.3861341,5.3861341 0 1 1 58.862752,137.65422 A 5.3861341,5.3861341 0 1 1 69.63502,137.65422 z"
       transform="matrix(-0.822663,0,0,0.822663,391.81525,-50.676981)" />
    <path
       style="fill:none;fill-rule:evenodd;stroke:#000000;stroke-width:1px;stroke-linecap:butt;stroke-linejoin:miter;stroke-opacity:1"
       d="M 334.65465,62.83454 L 290.31199,62.83454"
       id="path49972" />
    <g
       transform="translate(-170.48901,-81.617144)"
       ns0:text="$-1$"
       ns0:preamble=""
       id="g49993">
      <defs
         id="defs49995">
        <g
           id="g49997">
          <symbol
             style="overflow:visible"
             overflow="visible"
             id="textext-108f8aa9-0">
            <path
               style="stroke:none"
               d=""
               id="path50000" />
          </symbol>
          <symbol
             style="overflow:visible"
             overflow="visible"
             id="textext-108f8aa9-1">
            <path
               style="stroke:none"
               d="M 6.59375,-2.296875 C 6.734375,-2.296875 6.921875,-2.296875 6.921875,-2.5 C 6.921875,-2.6875 6.734375,-2.6875 6.59375,-2.6875 L 1.15625,-2.6875 C 1.015625,-2.6875 0.828125,-2.6875 0.828125,-2.5 C 0.828125,-2.296875 1.015625,-2.296875 1.15625,-2.296875 L 6.59375,-2.296875 z"
               id="path50003" />
          </symbol>
          <symbol
             style="overflow:visible"
             overflow="visible"
             id="textext-108f8aa9-2">
            <path
               style="stroke:none"
               d=""
               id="path50006" />
          </symbol>
          <symbol
             style="overflow:visible"
             overflow="visible"
             id="textext-108f8aa9-3">
            <path
               style="stroke:none"
               d="M 2.9375,-6.375 C 2.9375,-6.625 2.9375,-6.640625 2.703125,-6.640625 C 2.078125,-6 1.203125,-6 0.890625,-6 L 0.890625,-5.6875 C 1.09375,-5.6875 1.671875,-5.6875 2.1875,-5.953125 L 2.1875,-0.78125 C 2.1875,-0.421875 2.15625,-0.3125 1.265625,-0.3125 L 0.953125,-0.3125 L 0.953125,0 C 1.296875,-0.03125 2.15625,-0.03125 2.5625,-0.03125 C 2.953125,-0.03125 3.828125,-0.03125 4.171875,0 L 4.171875,-0.3125 L 3.859375,-0.3125 C 2.953125,-0.3125 2.9375,-0.421875 2.9375,-0.78125 L 2.9375,-6.375 z"
               id="path50009" />
          </symbol>
        </g>
      </defs>
      <g
         id="textext-108f8aa9-4">
        <g
           style="fill:#000000;fill-opacity:1"
           id="g50012">
          <use
             height="283.46457"
             width="372.04724"
             xlink:href="#textext-108f8aa9-1"
             x="223.43201"
             y="134.765"
             id="use50014" />
        </g>
        <g
           style="fill:#000000;fill-opacity:1"
           id="g50016">
          <use
             height="283.46457"
             width="372.04724"
             xlink:href="#textext-108f8aa9-3"
             x="231.181"
             y="134.765"
             id="use50018" />
        </g>
      </g>
    </g>
    <g
       id="g50120"
       transform="translate(-116.48901,-81.617144)"
       ns0:preamble=""
       ns0:text="$-2$">
      <defs
         id="defs50122">
        <g
           id="g50124">
          <symbol
             style="overflow:visible"
             id="textext-e3869bf4-0"
             overflow="visible">
            <path
               id="path50127"
               d=""
               style="stroke:none" />
          </symbol>
          <symbol
             style="overflow:visible"
             id="textext-e3869bf4-1"
             overflow="visible">
            <path
               id="path50130"
               d="M 6.59375,-2.296875 C 6.734375,-2.296875 6.921875,-2.296875 6.921875,-2.5 C 6.921875,-2.6875 6.734375,-2.6875 6.59375,-2.6875 L 1.15625,-2.6875 C 1.015625,-2.6875 0.828125,-2.6875 0.828125,-2.5 C 0.828125,-2.296875 1.015625,-2.296875 1.15625,-2.296875 L 6.59375,-2.296875 z"
               style="stroke:none" />
          </symbol>
          <symbol
             style="overflow:visible"
             id="textext-e3869bf4-2"
             overflow="visible">
            <path
               id="path50133"
               d=""
               style="stroke:none" />
          </symbol>
          <symbol
             style="overflow:visible"
             id="textext-e3869bf4-3"
             overflow="visible">
            <path
               id="path50136"
               d="M 4.46875,-1.734375 L 4.234375,-1.734375 C 4.171875,-1.4375 4.109375,-1 4,-0.84375 C 3.9375,-0.765625 3.28125,-0.765625 3.0625,-0.765625 L 1.265625,-0.765625 L 2.328125,-1.796875 C 3.875,-3.171875 4.46875,-3.703125 4.46875,-4.703125 C 4.46875,-5.84375 3.578125,-6.640625 2.359375,-6.640625 C 1.234375,-6.640625 0.5,-5.71875 0.5,-4.828125 C 0.5,-4.28125 1,-4.28125 1.03125,-4.28125 C 1.203125,-4.28125 1.546875,-4.390625 1.546875,-4.8125 C 1.546875,-5.0625 1.359375,-5.328125 1.015625,-5.328125 C 0.9375,-5.328125 0.921875,-5.328125 0.890625,-5.3125 C 1.109375,-5.96875 1.65625,-6.328125 2.234375,-6.328125 C 3.140625,-6.328125 3.5625,-5.515625 3.5625,-4.703125 C 3.5625,-3.90625 3.078125,-3.125 2.515625,-2.5 L 0.609375,-0.375 C 0.5,-0.265625 0.5,-0.234375 0.5,0 L 4.203125,0 L 4.46875,-1.734375 z"
               style="stroke:none" />
          </symbol>
        </g>
      </defs>
      <g
         id="textext-e3869bf4-4">
        <g
           id="g50139"
           style="fill:#000000;fill-opacity:1">
          <use
             height="283.46457"
             width="372.04724"
             id="use50141"
             y="134.765"
             x="223.43201"
             xlink:href="#textext-e3869bf4-1" />
        </g>
        <g
           id="g50143"
           style="fill:#000000;fill-opacity:1">
          <use
             height="283.46457"
             width="372.04724"
             id="use50145"
             y="134.765"
             x="231.181"
             xlink:href="#textext-e3869bf4-3" />
        </g>
      </g>
    </g>
    <g
       ns0:text="$-2$"
       ns0:preamble=""
       transform="translate(3.51099,-81.617144)"
       id="g50196">
      <defs
         id="defs50198">
        <g
           id="g50200">
          <symbol
             overflow="visible"
             id="symbol50202"
             style="overflow:visible">
            <path
               style="stroke:none"
               d=""
               id="path50204" />
          </symbol>
          <symbol
             overflow="visible"
             id="symbol50206"
             style="overflow:visible">
            <path
               style="stroke:none"
               d="M 6.59375,-2.296875 C 6.734375,-2.296875 6.921875,-2.296875 6.921875,-2.5 C 6.921875,-2.6875 6.734375,-2.6875 6.59375,-2.6875 L 1.15625,-2.6875 C 1.015625,-2.6875 0.828125,-2.6875 0.828125,-2.5 C 0.828125,-2.296875 1.015625,-2.296875 1.15625,-2.296875 L 6.59375,-2.296875 z"
               id="path50208" />
          </symbol>
          <symbol
             overflow="visible"
             id="symbol50210"
             style="overflow:visible">
            <path
               style="stroke:none"
               d=""
               id="path50212" />
          </symbol>
          <symbol
             overflow="visible"
             id="symbol50214"
             style="overflow:visible">
            <path
               style="stroke:none"
               d="M 4.46875,-1.734375 L 4.234375,-1.734375 C 4.171875,-1.4375 4.109375,-1 4,-0.84375 C 3.9375,-0.765625 3.28125,-0.765625 3.0625,-0.765625 L 1.265625,-0.765625 L 2.328125,-1.796875 C 3.875,-3.171875 4.46875,-3.703125 4.46875,-4.703125 C 4.46875,-5.84375 3.578125,-6.640625 2.359375,-6.640625 C 1.234375,-6.640625 0.5,-5.71875 0.5,-4.828125 C 0.5,-4.28125 1,-4.28125 1.03125,-4.28125 C 1.203125,-4.28125 1.546875,-4.390625 1.546875,-4.8125 C 1.546875,-5.0625 1.359375,-5.328125 1.015625,-5.328125 C 0.9375,-5.328125 0.921875,-5.328125 0.890625,-5.3125 C 1.109375,-5.96875 1.65625,-6.328125 2.234375,-6.328125 C 3.140625,-6.328125 3.5625,-5.515625 3.5625,-4.703125 C 3.5625,-3.90625 3.078125,-3.125 2.515625,-2.5 L 0.609375,-0.375 C 0.5,-0.265625 0.5,-0.234375 0.5,0 L 4.203125,0 L 4.46875,-1.734375 z"
               id="path50216" />
          </symbol>
        </g>
      </defs>
      <g
         id="g50218">
        <g
           style="fill:#000000;fill-opacity:1"
           id="g50220">
          <use
             xlink:href="#textext-e3869bf4-1"
             x="223.43201"
             y="134.765"
             id="use50222"
             width="372.04724"
             height="283.46457" />
        </g>
        <g
           style="fill:#000000;fill-opacity:1"
           id="g50224">
          <use
             xlink:href="#textext-e3869bf4-3"
             x="231.181"
             y="134.765"
             id="use50226"
             width="372.04724"
             height="283.46457" />
        </g>
      </g>
    </g>
    <g
       id="g50228"
       ns0:preamble=""
       ns0:text="$-1$"
       transform="translate(56.055072,-81.617144)">
      <defs
         id="defs50230">
        <g
           id="g50232">
          <symbol
             id="symbol50234"
             overflow="visible"
             style="overflow:visible">
            <path
               id="path50236"
               d=""
               style="stroke:none" />
          </symbol>
          <symbol
             id="symbol50238"
             overflow="visible"
             style="overflow:visible">
            <path
               id="path50240"
               d="M 6.59375,-2.296875 C 6.734375,-2.296875 6.921875,-2.296875 6.921875,-2.5 C 6.921875,-2.6875 6.734375,-2.6875 6.59375,-2.6875 L 1.15625,-2.6875 C 1.015625,-2.6875 0.828125,-2.6875 0.828125,-2.5 C 0.828125,-2.296875 1.015625,-2.296875 1.15625,-2.296875 L 6.59375,-2.296875 z"
               style="stroke:none" />
          </symbol>
          <symbol
             id="symbol50242"
             overflow="visible"
             style="overflow:visible">
            <path
               id="path50244"
               d=""
               style="stroke:none" />
          </symbol>
          <symbol
             id="symbol50246"
             overflow="visible"
             style="overflow:visible">
            <path
               id="path50248"
               d="M 2.9375,-6.375 C 2.9375,-6.625 2.9375,-6.640625 2.703125,-6.640625 C 2.078125,-6 1.203125,-6 0.890625,-6 L 0.890625,-5.6875 C 1.09375,-5.6875 1.671875,-5.6875 2.1875,-5.953125 L 2.1875,-0.78125 C 2.1875,-0.421875 2.15625,-0.3125 1.265625,-0.3125 L 0.953125,-0.3125 L 0.953125,0 C 1.296875,-0.03125 2.15625,-0.03125 2.5625,-0.03125 C 2.953125,-0.03125 3.828125,-0.03125 4.171875,0 L 4.171875,-0.3125 L 3.859375,-0.3125 C 2.953125,-0.3125 2.9375,-0.421875 2.9375,-0.78125 L 2.9375,-6.375 z"
               style="stroke:none" />
          </symbol>
        </g>
      </defs>
      <g
         id="g50250">
        <g
           id="g50252"
           style="fill:#000000;fill-opacity:1">
          <use
             id="use50254"
             y="134.765"
             x="223.43201"
             xlink:href="#textext-108f8aa9-1"
             width="372.04724"
             height="283.46457" />
        </g>
        <g
           id="g50256"
           style="fill:#000000;fill-opacity:1">
          <use
             id="use50258"
             y="134.765"
             x="231.181"
             xlink:href="#textext-108f8aa9-3"
             width="372.04724"
             height="283.46457" />
        </g>
      </g>
    </g>
    <g
       ns0:text="$-i$"
       ns0:preamble=""
       transform="translate(109.14323,-81.617144)"
       id="g50375">
      <defs
         id="defs50377">
        <g
           id="g50379">
          <symbol
             style="overflow:visible"
             overflow="visible"
             id="textext-a0f2244c-0">
            <path
               style="stroke:none"
               d=""
               id="path50382" />
          </symbol>
          <symbol
             style="overflow:visible"
             overflow="visible"
             id="textext-a0f2244c-1">
            <path
               style="stroke:none"
               d="M 6.59375,-2.296875 C 6.734375,-2.296875 6.921875,-2.296875 6.921875,-2.5 C 6.921875,-2.6875 6.734375,-2.6875 6.59375,-2.6875 L 1.15625,-2.6875 C 1.015625,-2.6875 0.828125,-2.6875 0.828125,-2.5 C 0.828125,-2.296875 1.015625,-2.296875 1.15625,-2.296875 L 6.59375,-2.296875 z"
               id="path50385" />
          </symbol>
          <symbol
             style="overflow:visible"
             overflow="visible"
             id="textext-a0f2244c-2">
            <path
               style="stroke:none"
               d=""
               id="path50388" />
          </symbol>
          <symbol
             style="overflow:visible"
             overflow="visible"
             id="textext-a0f2244c-3">
            <path
               style="stroke:none"
               d="M 2.828125,-6.234375 C 2.828125,-6.4375 2.6875,-6.59375 2.46875,-6.59375 C 2.1875,-6.59375 1.921875,-6.328125 1.921875,-6.0625 C 1.921875,-5.875 2.0625,-5.703125 2.296875,-5.703125 C 2.53125,-5.703125 2.828125,-5.9375 2.828125,-6.234375 z M 2.078125,-2.484375 C 2.1875,-2.765625 2.1875,-2.796875 2.296875,-3.0625 C 2.375,-3.265625 2.421875,-3.40625 2.421875,-3.59375 C 2.421875,-4.03125 2.109375,-4.40625 1.609375,-4.40625 C 0.671875,-4.40625 0.296875,-2.953125 0.296875,-2.875 C 0.296875,-2.765625 0.390625,-2.765625 0.40625,-2.765625 C 0.515625,-2.765625 0.515625,-2.796875 0.5625,-2.953125 C 0.84375,-3.890625 1.234375,-4.1875 1.578125,-4.1875 C 1.65625,-4.1875 1.828125,-4.1875 1.828125,-3.875 C 1.828125,-3.65625 1.75,-3.453125 1.71875,-3.34375 C 1.640625,-3.09375 1.1875,-1.9375 1.03125,-1.5 C 0.921875,-1.25 0.796875,-0.921875 0.796875,-0.703125 C 0.796875,-0.234375 1.140625,0.109375 1.609375,0.109375 C 2.546875,0.109375 2.921875,-1.328125 2.921875,-1.421875 C 2.921875,-1.53125 2.828125,-1.53125 2.796875,-1.53125 C 2.703125,-1.53125 2.703125,-1.5 2.65625,-1.34375 C 2.46875,-0.71875 2.140625,-0.109375 1.640625,-0.109375 C 1.46875,-0.109375 1.390625,-0.203125 1.390625,-0.4375 C 1.390625,-0.6875 1.453125,-0.828125 1.6875,-1.4375 L 2.078125,-2.484375 z"
               id="path50391" />
          </symbol>
        </g>
      </defs>
      <g
         id="textext-a0f2244c-4">
        <g
           style="fill:#000000;fill-opacity:1"
           id="g50394">
          <use
             height="283.46457"
             width="372.04724"
             xlink:href="#textext-a0f2244c-1"
             x="223.43201"
             y="134.765"
             id="use50396" />
        </g>
        <g
           style="fill:#000000;fill-opacity:1"
           id="g50398">
          <use
             height="283.46457"
             width="372.04724"
             xlink:href="#textext-a0f2244c-3"
             x="231.181"
             y="134.765"
             id="use50400" />
        </g>
      </g>
    </g>
    <g
       id="g50598"
       ns0:preamble=""
       ns0:text="$\\ell_{0}^{(i)}$"
       transform="translate(-168.12125,-50.5996)">
      <defs
         id="defs50600">
        <g
           id="g50602">
          <symbol
             id="textext-4e23ff07-0"
             overflow="visible"
             style="overflow:visible">
            <path
               id="path50605"
               d=""
               style="stroke:none" />
          </symbol>
          <symbol
             id="textext-4e23ff07-1"
             overflow="visible"
             style="overflow:visible">
            <path
               id="path50608"
               d="M 0.15625,-0.984375 C 0.140625,-0.953125 0.109375,-0.921875 0.109375,-0.890625 C 0.109375,-0.84375 0.171875,-0.75 0.234375,-0.75 C 0.28125,-0.75 0.3125,-0.78125 0.59375,-1.0625 C 0.671875,-1.140625 0.875,-1.328125 0.953125,-1.40625 C 1.046875,-0.625 1.328125,0.125 2.0625,0.125 C 2.46875,0.125 2.8125,-0.109375 3.015625,-0.265625 C 3.15625,-0.359375 3.625,-0.75 3.625,-0.84375 C 3.625,-0.875 3.59375,-0.96875 3.515625,-0.96875 C 3.484375,-0.96875 3.46875,-0.953125 3.375,-0.875 C 2.734375,-0.25 2.375,-0.09375 2.078125,-0.09375 C 1.640625,-0.09375 1.46875,-0.625 1.46875,-1.390625 C 1.46875,-1.453125 1.5,-1.90625 1.53125,-1.96875 C 1.546875,-2 1.546875,-2.015625 1.75,-2.21875 C 2.546875,-3.015625 3.96875,-4.703125 3.96875,-6.25 C 3.96875,-6.421875 3.96875,-7.03125 3.375,-7.03125 C 2.546875,-7.03125 1.8125,-5.390625 1.71875,-5.15625 C 1.234375,-4.0625 0.921875,-2.90625 0.921875,-1.71875 L 0.15625,-0.984375 z M 1.578125,-2.375 C 1.59375,-2.5 2.03125,-4.703125 2.59375,-5.875 C 2.859375,-6.40625 3.078125,-6.8125 3.390625,-6.8125 C 3.734375,-6.8125 3.734375,-6.453125 3.734375,-6.296875 C 3.734375,-4.625 2.046875,-2.875 1.578125,-2.375 z"
               style="stroke:none" />
          </symbol>
          <symbol
             id="textext-4e23ff07-2"
             overflow="visible"
             style="overflow:visible">
            <path
               id="path50611"
               d=""
               style="stroke:none" />
          </symbol>
          <symbol
             id="textext-4e23ff07-3"
             overflow="visible"
             style="overflow:visible">
            <path
               id="path50614"
               d="M 2.46875,-5.21875 C 1.15625,-4.296875 0.796875,-2.8125 0.796875,-1.75 C 0.796875,-0.765625 1.09375,0.765625 2.46875,1.734375 C 2.53125,1.734375 2.609375,1.734375 2.609375,1.65625 C 2.609375,1.609375 2.59375,1.59375 2.546875,1.546875 C 1.609375,0.703125 1.28125,-0.46875 1.28125,-1.734375 C 1.28125,-3.625 2,-4.546875 2.5625,-5.0625 C 2.59375,-5.09375 2.609375,-5.109375 2.609375,-5.140625 C 2.609375,-5.21875 2.53125,-5.21875 2.46875,-5.21875 z"
               style="stroke:none" />
          </symbol>
          <symbol
             id="textext-4e23ff07-4"
             overflow="visible"
             style="overflow:visible">
            <path
               id="path50617"
               d="M 0.625,-5.21875 C 0.578125,-5.21875 0.5,-5.21875 0.5,-5.140625 C 0.5,-5.109375 0.515625,-5.09375 0.5625,-5.03125 C 1.15625,-4.484375 1.828125,-3.546875 1.828125,-1.75 C 1.828125,-0.296875 1.375,0.8125 0.625,1.484375 C 0.5,1.609375 0.5,1.609375 0.5,1.65625 C 0.5,1.6875 0.515625,1.734375 0.578125,1.734375 C 0.671875,1.734375 1.328125,1.28125 1.796875,0.40625 C 2.09375,-0.171875 2.296875,-0.921875 2.296875,-1.734375 C 2.296875,-2.71875 2,-4.25 0.625,-5.21875 z"
               style="stroke:none" />
          </symbol>
          <symbol
             id="textext-4e23ff07-5"
             overflow="visible"
             style="overflow:visible">
            <path
               id="path50620"
               d="M 3.59375,-2.21875 C 3.59375,-2.984375 3.5,-3.546875 3.1875,-4.03125 C 2.96875,-4.34375 2.53125,-4.625 1.984375,-4.625 C 0.359375,-4.625 0.359375,-2.71875 0.359375,-2.21875 C 0.359375,-1.71875 0.359375,0.140625 1.984375,0.140625 C 3.59375,0.140625 3.59375,-1.71875 3.59375,-2.21875 z M 1.984375,-0.0625 C 1.65625,-0.0625 1.234375,-0.25 1.09375,-0.8125 C 1,-1.21875 1,-1.796875 1,-2.3125 C 1,-2.828125 1,-3.359375 1.09375,-3.734375 C 1.25,-4.28125 1.6875,-4.4375 1.984375,-4.4375 C 2.359375,-4.4375 2.71875,-4.203125 2.84375,-3.796875 C 2.953125,-3.421875 2.96875,-2.921875 2.96875,-2.3125 C 2.96875,-1.796875 2.96875,-1.28125 2.875,-0.84375 C 2.734375,-0.203125 2.265625,-0.0625 1.984375,-0.0625 z"
               style="stroke:none" />
          </symbol>
          <symbol
             id="textext-4e23ff07-6"
             overflow="visible"
             style="overflow:visible">
            <path
               id="path50623"
               d=""
               style="stroke:none" />
          </symbol>
          <symbol
             id="textext-4e23ff07-7"
             overflow="visible"
             style="overflow:visible">
            <path
               id="path50626"
               d="M 2.265625,-4.359375 C 2.265625,-4.46875 2.171875,-4.625 1.984375,-4.625 C 1.796875,-4.625 1.59375,-4.4375 1.59375,-4.234375 C 1.59375,-4.125 1.671875,-3.96875 1.875,-3.96875 C 2.0625,-3.96875 2.265625,-4.171875 2.265625,-4.359375 z M 0.84375,-0.8125 C 0.8125,-0.71875 0.78125,-0.640625 0.78125,-0.515625 C 0.78125,-0.1875 1.046875,0.0625 1.4375,0.0625 C 2.125,0.0625 2.4375,-0.890625 2.4375,-1 C 2.4375,-1.09375 2.34375,-1.09375 2.328125,-1.09375 C 2.234375,-1.09375 2.21875,-1.046875 2.1875,-0.96875 C 2.03125,-0.40625 1.734375,-0.125 1.453125,-0.125 C 1.3125,-0.125 1.28125,-0.21875 1.28125,-0.375 C 1.28125,-0.53125 1.328125,-0.65625 1.390625,-0.8125 C 1.46875,-1 1.546875,-1.1875 1.609375,-1.375 C 1.671875,-1.546875 1.9375,-2.171875 1.953125,-2.265625 C 1.984375,-2.328125 2,-2.40625 2,-2.484375 C 2,-2.8125 1.71875,-3.078125 1.34375,-3.078125 C 0.640625,-3.078125 0.328125,-2.125 0.328125,-2 C 0.328125,-1.921875 0.421875,-1.921875 0.453125,-1.921875 C 0.546875,-1.921875 0.546875,-1.953125 0.578125,-2.03125 C 0.75,-2.625 1.0625,-2.875 1.3125,-2.875 C 1.421875,-2.875 1.484375,-2.828125 1.484375,-2.640625 C 1.484375,-2.46875 1.453125,-2.375 1.28125,-1.9375 L 0.84375,-0.8125 z"
               style="stroke:none" />
          </symbol>
        </g>
      </defs>
      <g
         id="textext-4e23ff07-8">
        <g
           id="g50629"
           style="fill:#000000;fill-opacity:1">
          <use
             id="use50631"
             y="135.20799"
             x="223.43201"
             xlink:href="#textext-4e23ff07-1"
             width="372.04724"
             height="283.46457" />
        </g>
        <g
           id="g50633"
           style="fill:#000000;fill-opacity:1">
          <use
             id="use50635"
             y="130.033"
             x="227.58299"
             xlink:href="#textext-4e23ff07-3"
             width="372.04724"
             height="283.46457" />
        </g>
        <g
           id="g50637"
           style="fill:#000000;fill-opacity:1">
          <use
             id="use50639"
             y="130.033"
             x="230.69701"
             xlink:href="#textext-4e23ff07-7"
             width="372.04724"
             height="283.46457" />
        </g>
        <g
           id="g50641"
           style="fill:#000000;fill-opacity:1">
          <use
             id="use50643"
             y="130.033"
             x="233.515"
             xlink:href="#textext-4e23ff07-4"
             width="372.04724"
             height="283.46457" />
        </g>
        <g
           id="g50645"
           style="fill:#000000;fill-opacity:1">
          <use
             id="use50647"
             y="137.864"
             x="227.58299"
             xlink:href="#textext-4e23ff07-5"
             width="372.04724"
             height="283.46457" />
        </g>
      </g>
    </g>
    <g
       ns0:text="$\\ell_{2}^{(i)}$"
       ns0:preamble=""
       transform="translate(-116.66533,-50.5996)"
       id="g50965">
      <defs
         id="defs50967">
        <g
           id="g50969">
          <symbol
             overflow="visible"
             id="textext-63aed1ec-0">
            <path
               style="stroke:none;"
               d=""
               id="path50972" />
          </symbol>
          <symbol
             overflow="visible"
             id="textext-63aed1ec-1">
            <path
               style="stroke:none;"
               d="M 0.15625 -0.984375 C 0.140625 -0.953125 0.109375 -0.921875 0.109375 -0.890625 C 0.109375 -0.84375 0.171875 -0.75 0.234375 -0.75 C 0.28125 -0.75 0.3125 -0.78125 0.59375 -1.0625 C 0.671875 -1.140625 0.875 -1.328125 0.953125 -1.40625 C 1.046875 -0.625 1.328125 0.125 2.0625 0.125 C 2.46875 0.125 2.8125 -0.109375 3.015625 -0.265625 C 3.15625 -0.359375 3.625 -0.75 3.625 -0.84375 C 3.625 -0.875 3.59375 -0.96875 3.515625 -0.96875 C 3.484375 -0.96875 3.46875 -0.953125 3.375 -0.875 C 2.734375 -0.25 2.375 -0.09375 2.078125 -0.09375 C 1.640625 -0.09375 1.46875 -0.625 1.46875 -1.390625 C 1.46875 -1.453125 1.5 -1.90625 1.53125 -1.96875 C 1.546875 -2 1.546875 -2.015625 1.75 -2.21875 C 2.546875 -3.015625 3.96875 -4.703125 3.96875 -6.25 C 3.96875 -6.421875 3.96875 -7.03125 3.375 -7.03125 C 2.546875 -7.03125 1.8125 -5.390625 1.71875 -5.15625 C 1.234375 -4.0625 0.921875 -2.90625 0.921875 -1.71875 L 0.15625 -0.984375 Z M 1.578125 -2.375 C 1.59375 -2.5 2.03125 -4.703125 2.59375 -5.875 C 2.859375 -6.40625 3.078125 -6.8125 3.390625 -6.8125 C 3.734375 -6.8125 3.734375 -6.453125 3.734375 -6.296875 C 3.734375 -4.625 2.046875 -2.875 1.578125 -2.375 Z M 1.578125 -2.375 "
               id="path50975" />
          </symbol>
          <symbol
             overflow="visible"
             id="textext-63aed1ec-2">
            <path
               style="stroke:none;"
               d=""
               id="path50978" />
          </symbol>
          <symbol
             overflow="visible"
             id="textext-63aed1ec-3">
            <path
               style="stroke:none;"
               d="M 2.46875 -5.21875 C 1.15625 -4.296875 0.796875 -2.8125 0.796875 -1.75 C 0.796875 -0.765625 1.09375 0.765625 2.46875 1.734375 C 2.53125 1.734375 2.609375 1.734375 2.609375 1.65625 C 2.609375 1.609375 2.59375 1.59375 2.546875 1.546875 C 1.609375 0.703125 1.28125 -0.46875 1.28125 -1.734375 C 1.28125 -3.625 2 -4.546875 2.5625 -5.0625 C 2.59375 -5.09375 2.609375 -5.109375 2.609375 -5.140625 C 2.609375 -5.21875 2.53125 -5.21875 2.46875 -5.21875 Z M 2.46875 -5.21875 "
               id="path50981" />
          </symbol>
          <symbol
             overflow="visible"
             id="textext-63aed1ec-4">
            <path
               style="stroke:none;"
               d="M 0.625 -5.21875 C 0.578125 -5.21875 0.5 -5.21875 0.5 -5.140625 C 0.5 -5.109375 0.515625 -5.09375 0.5625 -5.03125 C 1.15625 -4.484375 1.828125 -3.546875 1.828125 -1.75 C 1.828125 -0.296875 1.375 0.8125 0.625 1.484375 C 0.5 1.609375 0.5 1.609375 0.5 1.65625 C 0.5 1.6875 0.515625 1.734375 0.578125 1.734375 C 0.671875 1.734375 1.328125 1.28125 1.796875 0.40625 C 2.09375 -0.171875 2.296875 -0.921875 2.296875 -1.734375 C 2.296875 -2.71875 2 -4.25 0.625 -5.21875 Z M 0.625 -5.21875 "
               id="path50984" />
          </symbol>
          <symbol
             overflow="visible"
             id="textext-63aed1ec-5">
            <path
               style="stroke:none;"
               d="M 3.515625 -1.265625 L 3.28125 -1.265625 C 3.265625 -1.109375 3.1875 -0.703125 3.09375 -0.640625 C 3.046875 -0.59375 2.515625 -0.59375 2.40625 -0.59375 L 1.125 -0.59375 C 1.859375 -1.234375 2.109375 -1.4375 2.515625 -1.765625 C 3.03125 -2.171875 3.515625 -2.609375 3.515625 -3.265625 C 3.515625 -4.109375 2.78125 -4.625 1.890625 -4.625 C 1.03125 -4.625 0.4375 -4.015625 0.4375 -3.375 C 0.4375 -3.03125 0.734375 -2.984375 0.8125 -2.984375 C 0.96875 -2.984375 1.171875 -3.109375 1.171875 -3.359375 C 1.171875 -3.484375 1.125 -3.734375 0.765625 -3.734375 C 0.984375 -4.21875 1.453125 -4.375 1.78125 -4.375 C 2.484375 -4.375 2.84375 -3.828125 2.84375 -3.265625 C 2.84375 -2.65625 2.40625 -2.1875 2.1875 -1.9375 L 0.515625 -0.265625 C 0.4375 -0.203125 0.4375 -0.1875 0.4375 0 L 3.3125 0 L 3.515625 -1.265625 Z M 3.515625 -1.265625 "
               id="path50987" />
          </symbol>
          <symbol
             overflow="visible"
             id="textext-63aed1ec-6">
            <path
               style="stroke:none;"
               d=""
               id="path50990" />
          </symbol>
          <symbol
             overflow="visible"
             id="textext-63aed1ec-7">
            <path
               style="stroke:none;"
               d="M 2.265625 -4.359375 C 2.265625 -4.46875 2.171875 -4.625 1.984375 -4.625 C 1.796875 -4.625 1.59375 -4.4375 1.59375 -4.234375 C 1.59375 -4.125 1.671875 -3.96875 1.875 -3.96875 C 2.0625 -3.96875 2.265625 -4.171875 2.265625 -4.359375 Z M 0.84375 -0.8125 C 0.8125 -0.71875 0.78125 -0.640625 0.78125 -0.515625 C 0.78125 -0.1875 1.046875 0.0625 1.4375 0.0625 C 2.125 0.0625 2.4375 -0.890625 2.4375 -1 C 2.4375 -1.09375 2.34375 -1.09375 2.328125 -1.09375 C 2.234375 -1.09375 2.21875 -1.046875 2.1875 -0.96875 C 2.03125 -0.40625 1.734375 -0.125 1.453125 -0.125 C 1.3125 -0.125 1.28125 -0.21875 1.28125 -0.375 C 1.28125 -0.53125 1.328125 -0.65625 1.390625 -0.8125 C 1.46875 -1 1.546875 -1.1875 1.609375 -1.375 C 1.671875 -1.546875 1.9375 -2.171875 1.953125 -2.265625 C 1.984375 -2.328125 2 -2.40625 2 -2.484375 C 2 -2.8125 1.71875 -3.078125 1.34375 -3.078125 C 0.640625 -3.078125 0.328125 -2.125 0.328125 -2 C 0.328125 -1.921875 0.421875 -1.921875 0.453125 -1.921875 C 0.546875 -1.921875 0.546875 -1.953125 0.578125 -2.03125 C 0.75 -2.625 1.0625 -2.875 1.3125 -2.875 C 1.421875 -2.875 1.484375 -2.828125 1.484375 -2.640625 C 1.484375 -2.46875 1.453125 -2.375 1.28125 -1.9375 L 0.84375 -0.8125 Z M 0.84375 -0.8125 "
               id="path50993" />
          </symbol>
        </g>
      </defs>
      <g
         id="textext-63aed1ec-8">
        <g
           style="fill:rgb(0%,0%,0%);fill-opacity:1;"
           id="g50996">
          <use
             xlink:href="#textext-63aed1ec-1"
             x="223.432"
             y="135.208"
             id="use50998" />
        </g>
        <g
           style="fill:rgb(0%,0%,0%);fill-opacity:1;"
           id="g51000">
          <use
             xlink:href="#textext-63aed1ec-3"
             x="227.583"
             y="130.033"
             id="use51002" />
        </g>
        <g
           style="fill:rgb(0%,0%,0%);fill-opacity:1;"
           id="g51004">
          <use
             xlink:href="#textext-63aed1ec-7"
             x="230.697"
             y="130.033"
             id="use51006" />
        </g>
        <g
           style="fill:rgb(0%,0%,0%);fill-opacity:1;"
           id="g51008">
          <use
             xlink:href="#textext-63aed1ec-4"
             x="233.515"
             y="130.033"
             id="use51010" />
        </g>
        <g
           style="fill:rgb(0%,0%,0%);fill-opacity:1;"
           id="g51012">
          <use
             xlink:href="#textext-63aed1ec-5"
             x="227.583"
             y="137.864"
             id="use51014" />
        </g>
      </g>
    </g>
    <g
       id="g51392"
       transform="translate(1.33467,-50.5996)"
       ns0:preamble=""
       ns0:text="$\\ell_{i-1}^{(i)}$">
      <defs
         id="defs51394">
        <g
           id="g51396">
          <symbol
             id="textext-52eec029-0"
             overflow="visible"
             style="overflow:visible">
            <path
               id="path51399"
               d=""
               style="stroke:none" />
          </symbol>
          <symbol
             id="textext-52eec029-1"
             overflow="visible"
             style="overflow:visible">
            <path
               id="path51402"
               d="M 0.15625,-0.984375 C 0.140625,-0.953125 0.109375,-0.921875 0.109375,-0.890625 C 0.109375,-0.84375 0.171875,-0.75 0.234375,-0.75 C 0.28125,-0.75 0.3125,-0.78125 0.59375,-1.0625 C 0.671875,-1.140625 0.875,-1.328125 0.953125,-1.40625 C 1.046875,-0.625 1.328125,0.125 2.0625,0.125 C 2.46875,0.125 2.8125,-0.109375 3.015625,-0.265625 C 3.15625,-0.359375 3.625,-0.75 3.625,-0.84375 C 3.625,-0.875 3.59375,-0.96875 3.515625,-0.96875 C 3.484375,-0.96875 3.46875,-0.953125 3.375,-0.875 C 2.734375,-0.25 2.375,-0.09375 2.078125,-0.09375 C 1.640625,-0.09375 1.46875,-0.625 1.46875,-1.390625 C 1.46875,-1.453125 1.5,-1.90625 1.53125,-1.96875 C 1.546875,-2 1.546875,-2.015625 1.75,-2.21875 C 2.546875,-3.015625 3.96875,-4.703125 3.96875,-6.25 C 3.96875,-6.421875 3.96875,-7.03125 3.375,-7.03125 C 2.546875,-7.03125 1.8125,-5.390625 1.71875,-5.15625 C 1.234375,-4.0625 0.921875,-2.90625 0.921875,-1.71875 L 0.15625,-0.984375 z M 1.578125,-2.375 C 1.59375,-2.5 2.03125,-4.703125 2.59375,-5.875 C 2.859375,-6.40625 3.078125,-6.8125 3.390625,-6.8125 C 3.734375,-6.8125 3.734375,-6.453125 3.734375,-6.296875 C 3.734375,-4.625 2.046875,-2.875 1.578125,-2.375 z"
               style="stroke:none" />
          </symbol>
          <symbol
             id="textext-52eec029-2"
             overflow="visible"
             style="overflow:visible">
            <path
               id="path51405"
               d=""
               style="stroke:none" />
          </symbol>
          <symbol
             id="textext-52eec029-3"
             overflow="visible"
             style="overflow:visible">
            <path
               id="path51408"
               d="M 2.46875,-5.21875 C 1.15625,-4.296875 0.796875,-2.8125 0.796875,-1.75 C 0.796875,-0.765625 1.09375,0.765625 2.46875,1.734375 C 2.53125,1.734375 2.609375,1.734375 2.609375,1.65625 C 2.609375,1.609375 2.59375,1.59375 2.546875,1.546875 C 1.609375,0.703125 1.28125,-0.46875 1.28125,-1.734375 C 1.28125,-3.625 2,-4.546875 2.5625,-5.0625 C 2.59375,-5.09375 2.609375,-5.109375 2.609375,-5.140625 C 2.609375,-5.21875 2.53125,-5.21875 2.46875,-5.21875 z"
               style="stroke:none" />
          </symbol>
          <symbol
             id="textext-52eec029-4"
             overflow="visible"
             style="overflow:visible">
            <path
               id="path51411"
               d="M 0.625,-5.21875 C 0.578125,-5.21875 0.5,-5.21875 0.5,-5.140625 C 0.5,-5.109375 0.515625,-5.09375 0.5625,-5.03125 C 1.15625,-4.484375 1.828125,-3.546875 1.828125,-1.75 C 1.828125,-0.296875 1.375,0.8125 0.625,1.484375 C 0.5,1.609375 0.5,1.609375 0.5,1.65625 C 0.5,1.6875 0.515625,1.734375 0.578125,1.734375 C 0.671875,1.734375 1.328125,1.28125 1.796875,0.40625 C 2.09375,-0.171875 2.296875,-0.921875 2.296875,-1.734375 C 2.296875,-2.71875 2,-4.25 0.625,-5.21875 z"
               style="stroke:none" />
          </symbol>
          <symbol
             id="textext-52eec029-5"
             overflow="visible"
             style="overflow:visible">
            <path
               id="path51414"
               d="M 2.328125,-4.4375 C 2.328125,-4.625 2.328125,-4.625 2.125,-4.625 C 1.671875,-4.1875 1.046875,-4.1875 0.765625,-4.1875 L 0.765625,-3.9375 C 0.921875,-3.9375 1.390625,-3.9375 1.765625,-4.125 L 1.765625,-0.578125 C 1.765625,-0.34375 1.765625,-0.25 1.078125,-0.25 L 0.8125,-0.25 L 0.8125,0 C 0.9375,0 1.796875,-0.03125 2.046875,-0.03125 C 2.265625,-0.03125 3.140625,0 3.296875,0 L 3.296875,-0.25 L 3.03125,-0.25 C 2.328125,-0.25 2.328125,-0.34375 2.328125,-0.578125 L 2.328125,-4.4375 z"
               style="stroke:none" />
          </symbol>
          <symbol
             id="textext-52eec029-6"
             overflow="visible"
             style="overflow:visible">
            <path
               id="path51417"
               d=""
               style="stroke:none" />
          </symbol>
          <symbol
             id="textext-52eec029-7"
             overflow="visible"
             style="overflow:visible">
            <path
               id="path51420"
               d="M 2.265625,-4.359375 C 2.265625,-4.46875 2.171875,-4.625 1.984375,-4.625 C 1.796875,-4.625 1.59375,-4.4375 1.59375,-4.234375 C 1.59375,-4.125 1.671875,-3.96875 1.875,-3.96875 C 2.0625,-3.96875 2.265625,-4.171875 2.265625,-4.359375 z M 0.84375,-0.8125 C 0.8125,-0.71875 0.78125,-0.640625 0.78125,-0.515625 C 0.78125,-0.1875 1.046875,0.0625 1.4375,0.0625 C 2.125,0.0625 2.4375,-0.890625 2.4375,-1 C 2.4375,-1.09375 2.34375,-1.09375 2.328125,-1.09375 C 2.234375,-1.09375 2.21875,-1.046875 2.1875,-0.96875 C 2.03125,-0.40625 1.734375,-0.125 1.453125,-0.125 C 1.3125,-0.125 1.28125,-0.21875 1.28125,-0.375 C 1.28125,-0.53125 1.328125,-0.65625 1.390625,-0.8125 C 1.46875,-1 1.546875,-1.1875 1.609375,-1.375 C 1.671875,-1.546875 1.9375,-2.171875 1.953125,-2.265625 C 1.984375,-2.328125 2,-2.40625 2,-2.484375 C 2,-2.8125 1.71875,-3.078125 1.34375,-3.078125 C 0.640625,-3.078125 0.328125,-2.125 0.328125,-2 C 0.328125,-1.921875 0.421875,-1.921875 0.453125,-1.921875 C 0.546875,-1.921875 0.546875,-1.953125 0.578125,-2.03125 C 0.75,-2.625 1.0625,-2.875 1.3125,-2.875 C 1.421875,-2.875 1.484375,-2.828125 1.484375,-2.640625 C 1.484375,-2.46875 1.453125,-2.375 1.28125,-1.9375 L 0.84375,-0.8125 z"
               style="stroke:none" />
          </symbol>
          <symbol
             id="textext-52eec029-8"
             overflow="visible"
             style="overflow:visible">
            <path
               id="path51423"
               d=""
               style="stroke:none" />
          </symbol>
          <symbol
             id="textext-52eec029-9"
             overflow="visible"
             style="overflow:visible">
            <path
               id="path51426"
               d="M 5.203125,-1.578125 C 5.296875,-1.578125 5.46875,-1.578125 5.46875,-1.734375 C 5.46875,-1.921875 5.296875,-1.921875 5.203125,-1.921875 L 1.015625,-1.921875 C 0.90625,-1.921875 0.75,-1.921875 0.75,-1.734375 C 0.75,-1.578125 0.921875,-1.578125 1.015625,-1.578125 L 5.203125,-1.578125 z"
               style="stroke:none" />
          </symbol>
        </g>
      </defs>
      <g
         id="textext-52eec029-10">
        <g
           id="g51429"
           style="fill:#000000;fill-opacity:1">
          <use
             id="use51431"
             y="135.20799"
             x="223.43201"
             xlink:href="#textext-52eec029-1"
             width="372.04724"
             height="283.46457" />
        </g>
        <g
           id="g51433"
           style="fill:#000000;fill-opacity:1">
          <use
             id="use51435"
             y="130.033"
             x="227.58299"
             xlink:href="#textext-52eec029-3"
             width="372.04724"
             height="283.46457" />
        </g>
        <g
           id="g51437"
           style="fill:#000000;fill-opacity:1">
          <use
             id="use51439"
             y="130.033"
             x="230.69701"
             xlink:href="#textext-52eec029-7"
             width="372.04724"
             height="283.46457" />
        </g>
        <g
           id="g51441"
           style="fill:#000000;fill-opacity:1">
          <use
             id="use51443"
             y="130.033"
             x="233.515"
             xlink:href="#textext-52eec029-4"
             width="372.04724"
             height="283.46457" />
        </g>
        <g
           id="g51445"
           style="fill:#000000;fill-opacity:1">
          <use
             id="use51447"
             y="137.985"
             x="227.58299"
             xlink:href="#textext-52eec029-7"
             width="372.04724"
             height="283.46457" />
        </g>
        <g
           id="g51449"
           style="fill:#000000;fill-opacity:1">
          <use
             id="use51451"
             y="137.985"
             x="230.40199"
             xlink:href="#textext-52eec029-9"
             width="372.04724"
             height="283.46457" />
        </g>
        <g
           id="g51453"
           style="fill:#000000;fill-opacity:1">
          <use
             id="use51455"
             y="137.985"
             x="236.629"
             xlink:href="#textext-52eec029-5"
             width="372.04724"
             height="283.46457" />
        </g>
      </g>
    </g>
    <g
       ns0:text="$\\ell_{i}^{(i)}$"
       ns0:preamble=""
       transform="translate(56.599162,-50.5996)"
       id="g51925">
      <defs
         id="defs51927">
        <g
           id="g51929">
          <symbol
             style="overflow:visible"
             overflow="visible"
             id="textext-02fedd73-0">
            <path
               style="stroke:none"
               d=""
               id="path51932" />
          </symbol>
          <symbol
             style="overflow:visible"
             overflow="visible"
             id="textext-02fedd73-1">
            <path
               style="stroke:none"
               d="M 0.15625,-0.984375 C 0.140625,-0.953125 0.109375,-0.921875 0.109375,-0.890625 C 0.109375,-0.84375 0.171875,-0.75 0.234375,-0.75 C 0.28125,-0.75 0.3125,-0.78125 0.59375,-1.0625 C 0.671875,-1.140625 0.875,-1.328125 0.953125,-1.40625 C 1.046875,-0.625 1.328125,0.125 2.0625,0.125 C 2.46875,0.125 2.8125,-0.109375 3.015625,-0.265625 C 3.15625,-0.359375 3.625,-0.75 3.625,-0.84375 C 3.625,-0.875 3.59375,-0.96875 3.515625,-0.96875 C 3.484375,-0.96875 3.46875,-0.953125 3.375,-0.875 C 2.734375,-0.25 2.375,-0.09375 2.078125,-0.09375 C 1.640625,-0.09375 1.46875,-0.625 1.46875,-1.390625 C 1.46875,-1.453125 1.5,-1.90625 1.53125,-1.96875 C 1.546875,-2 1.546875,-2.015625 1.75,-2.21875 C 2.546875,-3.015625 3.96875,-4.703125 3.96875,-6.25 C 3.96875,-6.421875 3.96875,-7.03125 3.375,-7.03125 C 2.546875,-7.03125 1.8125,-5.390625 1.71875,-5.15625 C 1.234375,-4.0625 0.921875,-2.90625 0.921875,-1.71875 L 0.15625,-0.984375 z M 1.578125,-2.375 C 1.59375,-2.5 2.03125,-4.703125 2.59375,-5.875 C 2.859375,-6.40625 3.078125,-6.8125 3.390625,-6.8125 C 3.734375,-6.8125 3.734375,-6.453125 3.734375,-6.296875 C 3.734375,-4.625 2.046875,-2.875 1.578125,-2.375 z"
               id="path51935" />
          </symbol>
          <symbol
             style="overflow:visible"
             overflow="visible"
             id="textext-02fedd73-2">
            <path
               style="stroke:none"
               d=""
               id="path51938" />
          </symbol>
          <symbol
             style="overflow:visible"
             overflow="visible"
             id="textext-02fedd73-3">
            <path
               style="stroke:none"
               d="M 2.46875,-5.21875 C 1.15625,-4.296875 0.796875,-2.8125 0.796875,-1.75 C 0.796875,-0.765625 1.09375,0.765625 2.46875,1.734375 C 2.53125,1.734375 2.609375,1.734375 2.609375,1.65625 C 2.609375,1.609375 2.59375,1.59375 2.546875,1.546875 C 1.609375,0.703125 1.28125,-0.46875 1.28125,-1.734375 C 1.28125,-3.625 2,-4.546875 2.5625,-5.0625 C 2.59375,-5.09375 2.609375,-5.109375 2.609375,-5.140625 C 2.609375,-5.21875 2.53125,-5.21875 2.46875,-5.21875 z"
               id="path51941" />
          </symbol>
          <symbol
             style="overflow:visible"
             overflow="visible"
             id="textext-02fedd73-4">
            <path
               style="stroke:none"
               d="M 0.625,-5.21875 C 0.578125,-5.21875 0.5,-5.21875 0.5,-5.140625 C 0.5,-5.109375 0.515625,-5.09375 0.5625,-5.03125 C 1.15625,-4.484375 1.828125,-3.546875 1.828125,-1.75 C 1.828125,-0.296875 1.375,0.8125 0.625,1.484375 C 0.5,1.609375 0.5,1.609375 0.5,1.65625 C 0.5,1.6875 0.515625,1.734375 0.578125,1.734375 C 0.671875,1.734375 1.328125,1.28125 1.796875,0.40625 C 2.09375,-0.171875 2.296875,-0.921875 2.296875,-1.734375 C 2.296875,-2.71875 2,-4.25 0.625,-5.21875 z"
               id="path51944" />
          </symbol>
          <symbol
             style="overflow:visible"
             overflow="visible"
             id="textext-02fedd73-5">
            <path
               style="stroke:none"
               d=""
               id="path51947" />
          </symbol>
          <symbol
             style="overflow:visible"
             overflow="visible"
             id="textext-02fedd73-6">
            <path
               style="stroke:none"
               d="M 2.265625,-4.359375 C 2.265625,-4.46875 2.171875,-4.625 1.984375,-4.625 C 1.796875,-4.625 1.59375,-4.4375 1.59375,-4.234375 C 1.59375,-4.125 1.671875,-3.96875 1.875,-3.96875 C 2.0625,-3.96875 2.265625,-4.171875 2.265625,-4.359375 z M 0.84375,-0.8125 C 0.8125,-0.71875 0.78125,-0.640625 0.78125,-0.515625 C 0.78125,-0.1875 1.046875,0.0625 1.4375,0.0625 C 2.125,0.0625 2.4375,-0.890625 2.4375,-1 C 2.4375,-1.09375 2.34375,-1.09375 2.328125,-1.09375 C 2.234375,-1.09375 2.21875,-1.046875 2.1875,-0.96875 C 2.03125,-0.40625 1.734375,-0.125 1.453125,-0.125 C 1.3125,-0.125 1.28125,-0.21875 1.28125,-0.375 C 1.28125,-0.53125 1.328125,-0.65625 1.390625,-0.8125 C 1.46875,-1 1.546875,-1.1875 1.609375,-1.375 C 1.671875,-1.546875 1.9375,-2.171875 1.953125,-2.265625 C 1.984375,-2.328125 2,-2.40625 2,-2.484375 C 2,-2.8125 1.71875,-3.078125 1.34375,-3.078125 C 0.640625,-3.078125 0.328125,-2.125 0.328125,-2 C 0.328125,-1.921875 0.421875,-1.921875 0.453125,-1.921875 C 0.546875,-1.921875 0.546875,-1.953125 0.578125,-2.03125 C 0.75,-2.625 1.0625,-2.875 1.3125,-2.875 C 1.421875,-2.875 1.484375,-2.828125 1.484375,-2.640625 C 1.484375,-2.46875 1.453125,-2.375 1.28125,-1.9375 L 0.84375,-0.8125 z"
               id="path51950" />
          </symbol>
        </g>
      </defs>
      <g
         id="textext-02fedd73-7">
        <g
           style="fill:#000000;fill-opacity:1"
           id="g51953">
          <use
             height="283.46457"
             width="372.04724"
             xlink:href="#textext-02fedd73-1"
             x="223.43201"
             y="135.20799"
             id="use51955" />
        </g>
        <g
           style="fill:#000000;fill-opacity:1"
           id="g51957">
          <use
             height="283.46457"
             width="372.04724"
             xlink:href="#textext-02fedd73-3"
             x="227.58299"
             y="130.033"
             id="use51959" />
        </g>
        <g
           style="fill:#000000;fill-opacity:1"
           id="g51961">
          <use
             height="283.46457"
             width="372.04724"
             xlink:href="#textext-02fedd73-6"
             x="230.69701"
             y="130.033"
             id="use51963" />
        </g>
        <g
           style="fill:#000000;fill-opacity:1"
           id="g51965">
          <use
             height="283.46457"
             width="372.04724"
             xlink:href="#textext-02fedd73-4"
             x="233.515"
             y="130.033"
             id="use51967" />
        </g>
        <g
           style="fill:#000000;fill-opacity:1"
           id="g51969">
          <use
             height="283.46457"
             width="372.04724"
             xlink:href="#textext-02fedd73-6"
             x="227.58299"
             y="137.985"
             id="use51971" />
        </g>
      </g>
    </g>
    <g
       id="g52477"
       transform="translate(108.59916,-50.5996)"
       ns0:preamble=""
       ns0:text="$\\ell_{1}^{(i)}$">
      <defs
         id="defs52479">
        <g
           id="g52481">
          <symbol
             id="textext-7dd7578a-0"
             overflow="visible">
            <path
               id="path52484"
               d=""
               style="stroke:none;" />
          </symbol>
          <symbol
             id="textext-7dd7578a-1"
             overflow="visible">
            <path
               id="path52487"
               d="M 0.15625 -0.984375 C 0.140625 -0.953125 0.109375 -0.921875 0.109375 -0.890625 C 0.109375 -0.84375 0.171875 -0.75 0.234375 -0.75 C 0.28125 -0.75 0.3125 -0.78125 0.59375 -1.0625 C 0.671875 -1.140625 0.875 -1.328125 0.953125 -1.40625 C 1.046875 -0.625 1.328125 0.125 2.0625 0.125 C 2.46875 0.125 2.8125 -0.109375 3.015625 -0.265625 C 3.15625 -0.359375 3.625 -0.75 3.625 -0.84375 C 3.625 -0.875 3.59375 -0.96875 3.515625 -0.96875 C 3.484375 -0.96875 3.46875 -0.953125 3.375 -0.875 C 2.734375 -0.25 2.375 -0.09375 2.078125 -0.09375 C 1.640625 -0.09375 1.46875 -0.625 1.46875 -1.390625 C 1.46875 -1.453125 1.5 -1.90625 1.53125 -1.96875 C 1.546875 -2 1.546875 -2.015625 1.75 -2.21875 C 2.546875 -3.015625 3.96875 -4.703125 3.96875 -6.25 C 3.96875 -6.421875 3.96875 -7.03125 3.375 -7.03125 C 2.546875 -7.03125 1.8125 -5.390625 1.71875 -5.15625 C 1.234375 -4.0625 0.921875 -2.90625 0.921875 -1.71875 L 0.15625 -0.984375 Z M 1.578125 -2.375 C 1.59375 -2.5 2.03125 -4.703125 2.59375 -5.875 C 2.859375 -6.40625 3.078125 -6.8125 3.390625 -6.8125 C 3.734375 -6.8125 3.734375 -6.453125 3.734375 -6.296875 C 3.734375 -4.625 2.046875 -2.875 1.578125 -2.375 Z M 1.578125 -2.375 "
               style="stroke:none;" />
          </symbol>
          <symbol
             id="textext-7dd7578a-2"
             overflow="visible">
            <path
               id="path52490"
               d=""
               style="stroke:none;" />
          </symbol>
          <symbol
             id="textext-7dd7578a-3"
             overflow="visible">
            <path
               id="path52493"
               d="M 2.46875 -5.21875 C 1.15625 -4.296875 0.796875 -2.8125 0.796875 -1.75 C 0.796875 -0.765625 1.09375 0.765625 2.46875 1.734375 C 2.53125 1.734375 2.609375 1.734375 2.609375 1.65625 C 2.609375 1.609375 2.59375 1.59375 2.546875 1.546875 C 1.609375 0.703125 1.28125 -0.46875 1.28125 -1.734375 C 1.28125 -3.625 2 -4.546875 2.5625 -5.0625 C 2.59375 -5.09375 2.609375 -5.109375 2.609375 -5.140625 C 2.609375 -5.21875 2.53125 -5.21875 2.46875 -5.21875 Z M 2.46875 -5.21875 "
               style="stroke:none;" />
          </symbol>
          <symbol
             id="textext-7dd7578a-4"
             overflow="visible">
            <path
               id="path52496"
               d="M 0.625 -5.21875 C 0.578125 -5.21875 0.5 -5.21875 0.5 -5.140625 C 0.5 -5.109375 0.515625 -5.09375 0.5625 -5.03125 C 1.15625 -4.484375 1.828125 -3.546875 1.828125 -1.75 C 1.828125 -0.296875 1.375 0.8125 0.625 1.484375 C 0.5 1.609375 0.5 1.609375 0.5 1.65625 C 0.5 1.6875 0.515625 1.734375 0.578125 1.734375 C 0.671875 1.734375 1.328125 1.28125 1.796875 0.40625 C 2.09375 -0.171875 2.296875 -0.921875 2.296875 -1.734375 C 2.296875 -2.71875 2 -4.25 0.625 -5.21875 Z M 0.625 -5.21875 "
               style="stroke:none;" />
          </symbol>
          <symbol
             id="textext-7dd7578a-5"
             overflow="visible">
            <path
               id="path52499"
               d="M 2.328125 -4.4375 C 2.328125 -4.625 2.328125 -4.625 2.125 -4.625 C 1.671875 -4.1875 1.046875 -4.1875 0.765625 -4.1875 L 0.765625 -3.9375 C 0.921875 -3.9375 1.390625 -3.9375 1.765625 -4.125 L 1.765625 -0.578125 C 1.765625 -0.34375 1.765625 -0.25 1.078125 -0.25 L 0.8125 -0.25 L 0.8125 0 C 0.9375 0 1.796875 -0.03125 2.046875 -0.03125 C 2.265625 -0.03125 3.140625 0 3.296875 0 L 3.296875 -0.25 L 3.03125 -0.25 C 2.328125 -0.25 2.328125 -0.34375 2.328125 -0.578125 L 2.328125 -4.4375 Z M 2.328125 -4.4375 "
               style="stroke:none;" />
          </symbol>
          <symbol
             id="textext-7dd7578a-6"
             overflow="visible">
            <path
               id="path52502"
               d=""
               style="stroke:none;" />
          </symbol>
          <symbol
             id="textext-7dd7578a-7"
             overflow="visible">
            <path
               id="path52505"
               d="M 2.265625 -4.359375 C 2.265625 -4.46875 2.171875 -4.625 1.984375 -4.625 C 1.796875 -4.625 1.59375 -4.4375 1.59375 -4.234375 C 1.59375 -4.125 1.671875 -3.96875 1.875 -3.96875 C 2.0625 -3.96875 2.265625 -4.171875 2.265625 -4.359375 Z M 0.84375 -0.8125 C 0.8125 -0.71875 0.78125 -0.640625 0.78125 -0.515625 C 0.78125 -0.1875 1.046875 0.0625 1.4375 0.0625 C 2.125 0.0625 2.4375 -0.890625 2.4375 -1 C 2.4375 -1.09375 2.34375 -1.09375 2.328125 -1.09375 C 2.234375 -1.09375 2.21875 -1.046875 2.1875 -0.96875 C 2.03125 -0.40625 1.734375 -0.125 1.453125 -0.125 C 1.3125 -0.125 1.28125 -0.21875 1.28125 -0.375 C 1.28125 -0.53125 1.328125 -0.65625 1.390625 -0.8125 C 1.46875 -1 1.546875 -1.1875 1.609375 -1.375 C 1.671875 -1.546875 1.9375 -2.171875 1.953125 -2.265625 C 1.984375 -2.328125 2 -2.40625 2 -2.484375 C 2 -2.8125 1.71875 -3.078125 1.34375 -3.078125 C 0.640625 -3.078125 0.328125 -2.125 0.328125 -2 C 0.328125 -1.921875 0.421875 -1.921875 0.453125 -1.921875 C 0.546875 -1.921875 0.546875 -1.953125 0.578125 -2.03125 C 0.75 -2.625 1.0625 -2.875 1.3125 -2.875 C 1.421875 -2.875 1.484375 -2.828125 1.484375 -2.640625 C 1.484375 -2.46875 1.453125 -2.375 1.28125 -1.9375 L 0.84375 -0.8125 Z M 0.84375 -0.8125 "
               style="stroke:none;" />
          </symbol>
        </g>
      </defs>
      <g
         id="textext-7dd7578a-8">
        <g
           id="g52508"
           style="fill:rgb(0%,0%,0%);fill-opacity:1;">
          <use
             id="use52510"
             y="135.208"
             x="223.432"
             xlink:href="#textext-7dd7578a-1" />
        </g>
        <g
           id="g52512"
           style="fill:rgb(0%,0%,0%);fill-opacity:1;">
          <use
             id="use52514"
             y="130.033"
             x="227.583"
             xlink:href="#textext-7dd7578a-3" />
        </g>
        <g
           id="g52516"
           style="fill:rgb(0%,0%,0%);fill-opacity:1;">
          <use
             id="use52518"
             y="130.033"
             x="230.697"
             xlink:href="#textext-7dd7578a-7" />
        </g>
        <g
           id="g52520"
           style="fill:rgb(0%,0%,0%);fill-opacity:1;">
          <use
             id="use52522"
             y="130.033"
             x="233.515"
             xlink:href="#textext-7dd7578a-4" />
        </g>
        <g
           id="g52524"
           style="fill:rgb(0%,0%,0%);fill-opacity:1;">
          <use
             id="use52526"
             y="137.864"
             x="227.583"
             xlink:href="#textext-7dd7578a-5" />
        </g>
      </g>
    </g>
  </g>
</svg>
