<?xml version="1.0" encoding="UTF-8" standalone="no"?>
<!-- Created with Inkscape (http://www.inkscape.org/) -->
<svg
   xmlns:ns0="http://www.iki.fi/pav/software/textext/"
   xmlns:dc="http://purl.org/dc/elements/1.1/"
   xmlns:cc="http://creativecommons.org/ns#"
   xmlns:rdf="http://www.w3.org/1999/02/22-rdf-syntax-ns#"
   xmlns:svg="http://www.w3.org/2000/svg"
   xmlns="http://www.w3.org/2000/svg"
   xmlns:xlink="http://www.w3.org/1999/xlink"
   xmlns:sodipodi="http://sodipodi.sourceforge.net/DTD/sodipodi-0.dtd"
   xmlns:inkscape="http://www.inkscape.org/namespaces/inkscape"
   width="386.22046"
   height="141.73228"
   id="svg2"
   sodipodi:version="0.32"
   inkscape:version="0.46"
   version="1.0"
   sodipodi:docname="chap2-fig40.svg"
   inkscape:output_extension="org.inkscape.output.svg.inkscape">
  <sodipodi:namedview
     id="base"
     pagecolor="#ffffff"
     bordercolor="#666666"
     borderopacity="1.0"
     gridtolerance="10000"
     guidetolerance="10"
     objecttolerance="10"
     inkscape:pageopacity="0.0"
     inkscape:pageshadow="2"
     inkscape:zoom="2.4292212"
     inkscape:cx="194.43924"
     inkscape:cy="93.164063"
     inkscape:document-units="px"
     inkscape:current-layer="layer1"
     showgrid="false"
     units="cm"
     inkscape:window-width="1009"
     inkscape:window-height="726"
     inkscape:window-x="5"
     inkscape:window-y="27">
    <inkscape:grid
       type="xygrid"
       id="grid15378"
       visible="true"
       enabled="true" />
  </sodipodi:namedview>
  <defs
     id="defs4">
    <inkscape:perspective
       sodipodi:type="inkscape:persp3d"
       inkscape:vp_x="0 : 526.18109 : 1"
       inkscape:vp_y="0 : 1000 : 0"
       inkscape:vp_z="744.09448 : 526.18109 : 1"
       inkscape:persp3d-origin="372.04724 : 350.78739 : 1"
       id="perspective10" />
  </defs>
  <metadata
     id="metadata7">
    <rdf:RDF>
      <cc:Work
         rdf:about="">
        <dc:format>image/svg+xml</dc:format>
        <dc:type
           rdf:resource="http://purl.org/dc/dcmitype/StillImage" />
      </cc:Work>
    </rdf:RDF>
  </metadata>
  <g
     inkscape:label="Layer 1"
     inkscape:groupmode="layer"
     id="layer1">
    <path
       sodipodi:type="arc"
       style="opacity:1;fill:#ffffff;fill-opacity:1;fill-rule:evenodd;stroke:#000000;stroke-width:1.01981428;stroke-linecap:butt;stroke-linejoin:miter;marker:none;marker-start:none;marker-mid:none;marker-end:none;stroke-miterlimit:4;stroke-dasharray:none;stroke-dashoffset:0;stroke-opacity:1;visibility:visible;display:inline;overflow:visible;enable-background:accumulate"
       id="path189583"
       sodipodi:cx="135.64018"
       sodipodi:cy="43.55267"
       sodipodi:rx="3.4990637"
       sodipodi:ry="3.4990637"
       d="M 139.13925,43.55267 A 3.4990637,3.4990637 0 1 1 132.14112,43.55267 A 3.4990637,3.4990637 0 1 1 139.13925,43.55267 z"
       transform="matrix(0.9805707,0,0,0.9805707,-125.21078,-8.9102499)" />
    <path
       d="M 139.13925,43.55267 A 3.4990637,3.4990637 0 1 1 132.14112,43.55267 A 3.4990637,3.4990637 0 1 1 139.13925,43.55267 z"
       sodipodi:ry="3.4990637"
       sodipodi:rx="3.4990637"
       sodipodi:cy="43.55267"
       sodipodi:cx="135.64018"
       id="path189595"
       style="opacity:1;fill:#ffffff;fill-opacity:1;fill-rule:evenodd;stroke:#000000;stroke-width:1.01981428;stroke-linecap:butt;stroke-linejoin:miter;marker:none;marker-start:none;marker-mid:none;marker-end:none;stroke-miterlimit:4;stroke-dasharray:none;stroke-dashoffset:0;stroke-opacity:1;visibility:visible;display:inline;overflow:visible;enable-background:accumulate"
       sodipodi:type="arc"
       transform="matrix(0.9805707,0,0,0.9805707,-90.351134,-8.9102499)" />
    <path
       sodipodi:type="arc"
       id="path189607"
       style="fill:#000000;stroke:none"
       sodipodi:cx="158.64062"
       sodipodi:cy="85.553123"
       sodipodi:rx="2"
       sodipodi:ry="2"
       d="M 160.64062,85.553123 A 2,2 0 1 1 156.64062,85.553123 A 2,2 0 1 1 160.64062,85.553123 z"
       transform="matrix(0.9092137,0,0,0.9092137,-31.614996,-38.75639)" />
    <path
       transform="matrix(0.9092137,0,0,0.9092137,-25.731572,-38.75639)"
       d="M 160.64062,85.553123 A 2,2 0 1 1 156.64062,85.553123 A 2,2 0 1 1 160.64062,85.553123 z"
       sodipodi:ry="2"
       sodipodi:rx="2"
       sodipodi:cy="85.553123"
       sodipodi:cx="158.64062"
       style="fill:#000000;stroke:none"
       id="path189609"
       sodipodi:type="arc" />
    <path
       sodipodi:type="arc"
       id="path189611"
       style="fill:#000000;stroke:none"
       sodipodi:cx="158.64062"
       sodipodi:cy="85.553123"
       sodipodi:rx="2"
       sodipodi:ry="2"
       d="M 160.64062,85.553123 A 2,2 0 1 1 156.64062,85.553123 A 2,2 0 1 1 160.64062,85.553123 z"
       transform="matrix(0.9092137,0,0,0.9092137,-19.848148,-38.75639)" />
    <path
       d="M 139.13925,43.55267 A 3.4990637,3.4990637 0 1 1 132.14112,43.55267 A 3.4990637,3.4990637 0 1 1 139.13925,43.55267 z"
       sodipodi:ry="3.4990637"
       sodipodi:rx="3.4990637"
       sodipodi:cy="43.55267"
       sodipodi:cx="135.64018"
       id="path197066"
       style="opacity:1;fill:#ffffff;fill-opacity:1;fill-rule:evenodd;stroke:#000000;stroke-width:1.01981428;stroke-linecap:butt;stroke-linejoin:miter;marker:none;marker-start:none;marker-mid:none;marker-end:none;stroke-miterlimit:4;stroke-dasharray:none;stroke-dashoffset:0;stroke-opacity:1;visibility:visible;display:inline;overflow:visible;enable-background:accumulate"
       sodipodi:type="arc"
       transform="matrix(-0.9805707,0,0,0.9805707,209.58958,-8.9102499)" />
    <g
       id="g15520">
      <path
         sodipodi:nodetypes="czz"
         id="path201316"
         d="M 41.620192,41.597318 C 53.654131,50.733078 72.33385,44.882264 82.686753,48.694189 C 93.039646,52.506114 98.139962,53.697079 101.77402,61.796107"
         style="fill:none;fill-rule:evenodd;stroke:#000000;stroke-width:1;stroke-linecap:butt;stroke-linejoin:miter;stroke-miterlimit:4;stroke-dasharray:none;stroke-opacity:1" />
      <path
         style="fill:none;fill-rule:evenodd;stroke:#000000;stroke-width:1;stroke-linecap:butt;stroke-linejoin:miter;stroke-miterlimit:4;stroke-dasharray:none;stroke-opacity:1"
         d="M 161.36522,41.597318 C 149.33129,50.733078 130.65156,44.882264 120.29867,48.694189 C 109.94577,52.506114 104.84545,53.697079 101.2114,61.796107"
         id="path201318"
         sodipodi:nodetypes="czz" />
    </g>
    <path
       transform="matrix(0.9092137,0,0,0.9092137,187.39174,-38.784636)"
       d="M 160.64062,85.553123 A 2,2 0 1 1 156.64062,85.553123 A 2,2 0 1 1 160.64062,85.553123 z"
       sodipodi:ry="2"
       sodipodi:rx="2"
       sodipodi:cy="85.553123"
       sodipodi:cx="158.64062"
       style="fill:#000000;stroke:none"
       id="path4265"
       sodipodi:type="arc" />
    <path
       sodipodi:type="arc"
       id="path4267"
       style="fill:#000000;stroke:none"
       sodipodi:cx="158.64062"
       sodipodi:cy="85.553123"
       sodipodi:rx="2"
       sodipodi:ry="2"
       d="M 160.64062,85.553123 A 2,2 0 1 1 156.64062,85.553123 A 2,2 0 1 1 160.64062,85.553123 z"
       transform="matrix(0.9092137,0,0,0.9092137,193.27514,-38.784636)" />
    <path
       transform="matrix(0.9092137,0,0,0.9092137,199.15855,-38.784636)"
       d="M 160.64062,85.553123 A 2,2 0 1 1 156.64062,85.553123 A 2,2 0 1 1 160.64062,85.553123 z"
       sodipodi:ry="2"
       sodipodi:rx="2"
       sodipodi:cy="85.553123"
       sodipodi:cx="158.64062"
       style="fill:#000000;stroke:none"
       id="path4269"
       sodipodi:type="arc" />
    <g
       id="g4283"
       transform="translate(248.71446,0.7633278)">
      <path
         style="fill:none;fill-rule:evenodd;stroke:#000000;stroke-width:1;stroke-linecap:butt;stroke-linejoin:miter;stroke-miterlimit:4;stroke-dasharray:none;stroke-opacity:1"
         d="M 46.678935,40.488175 C 55.162189,46.928375 68.330346,42.803878 75.628563,45.491072 C 82.926773,48.178266 86.522211,49.01783 89.084016,54.727191"
         id="path4285"
         sodipodi:nodetypes="czz" />
      <path
         sodipodi:nodetypes="czz"
         id="path4287"
         d="M 131.09248,40.488175 C 122.60923,46.928375 109.44107,42.803878 102.14286,45.491072 C 94.844643,48.178266 91.249204,49.01783 88.6874,54.727191"
         style="fill:none;fill-rule:evenodd;stroke:#000000;stroke-width:1;stroke-linecap:butt;stroke-linejoin:miter;stroke-miterlimit:4;stroke-dasharray:none;stroke-opacity:1" />
    </g>
    <g
       transform="matrix(0.9805707,0,0,0.9805707,-218.54768,-106.47714)"
       ns0:text="$-1$"
       ns0:preamble="/home/raghu/TIFR/Curves-on-rational-and-unirational-surfaces/figures/preample.tex"
       id="g4409">
      <defs
         id="defs4411">
        <g
           id="g4413">
          <symbol
             style="overflow:visible"
             overflow="visible"
             id="textext-841a25ce-0">
            <path
               style="stroke:none"
               d=""
               id="path4416" />
          </symbol>
          <symbol
             style="overflow:visible"
             overflow="visible"
             id="textext-841a25ce-1">
            <path
               style="stroke:none"
               d="M 6.59375,-2.296875 C 6.734375,-2.296875 6.921875,-2.296875 6.921875,-2.5 C 6.921875,-2.6875 6.734375,-2.6875 6.59375,-2.6875 L 1.15625,-2.6875 C 1.015625,-2.6875 0.828125,-2.6875 0.828125,-2.5 C 0.828125,-2.296875 1.015625,-2.296875 1.15625,-2.296875 L 6.59375,-2.296875 z"
               id="path4419" />
          </symbol>
          <symbol
             style="overflow:visible"
             overflow="visible"
             id="textext-841a25ce-2">
            <path
               style="stroke:none"
               d=""
               id="path4422" />
          </symbol>
          <symbol
             style="overflow:visible"
             overflow="visible"
             id="textext-841a25ce-3">
            <path
               style="stroke:none"
               d="M 2.9375,-6.375 C 2.9375,-6.625 2.9375,-6.640625 2.703125,-6.640625 C 2.078125,-6 1.203125,-6 0.890625,-6 L 0.890625,-5.6875 C 1.09375,-5.6875 1.671875,-5.6875 2.1875,-5.953125 L 2.1875,-0.78125 C 2.1875,-0.421875 2.15625,-0.3125 1.265625,-0.3125 L 0.953125,-0.3125 L 0.953125,0 C 1.296875,-0.03125 2.15625,-0.03125 2.5625,-0.03125 C 2.953125,-0.03125 3.828125,-0.03125 4.171875,0 L 4.171875,-0.3125 L 3.859375,-0.3125 C 2.953125,-0.3125 2.9375,-0.421875 2.9375,-0.78125 L 2.9375,-6.375 z"
               id="path4425" />
          </symbol>
        </g>
      </defs>
      <g
         id="textext-841a25ce-4">
        <g
           style="fill:#000000;fill-opacity:1"
           id="g4428">
          <use
             height="141.73228"
             width="379.13385"
             xlink:href="#textext-841a25ce-1"
             x="223.43201"
             y="134.765"
             id="use4430" />
        </g>
        <g
           style="fill:#000000;fill-opacity:1"
           id="g4432">
          <use
             height="141.73228"
             width="379.13385"
             xlink:href="#textext-841a25ce-3"
             x="231.181"
             y="134.765"
             id="use4434" />
        </g>
      </g>
    </g>
    <g
       id="g4622"
       transform="matrix(0.9805707,0,0,0.9805707,-183.24714,-106.47714)"
       ns0:preamble="/home/raghu/TIFR/Curves-on-rational-and-unirational-surfaces/figures/preample.tex"
       ns0:text="$-2$">
      <defs
         id="defs4624">
        <g
           id="g4626">
          <symbol
             id="textext-e0ad40be-0"
             overflow="visible"
             style="overflow:visible">
            <path
               id="path4629"
               d=""
               style="stroke:none" />
          </symbol>
          <symbol
             id="textext-e0ad40be-1"
             overflow="visible"
             style="overflow:visible">
            <path
               id="path4632"
               d="M 6.59375,-2.296875 C 6.734375,-2.296875 6.921875,-2.296875 6.921875,-2.5 C 6.921875,-2.6875 6.734375,-2.6875 6.59375,-2.6875 L 1.15625,-2.6875 C 1.015625,-2.6875 0.828125,-2.6875 0.828125,-2.5 C 0.828125,-2.296875 1.015625,-2.296875 1.15625,-2.296875 L 6.59375,-2.296875 z"
               style="stroke:none" />
          </symbol>
          <symbol
             id="textext-e0ad40be-2"
             overflow="visible"
             style="overflow:visible">
            <path
               id="path4635"
               d=""
               style="stroke:none" />
          </symbol>
          <symbol
             id="textext-e0ad40be-3"
             overflow="visible"
             style="overflow:visible">
            <path
               id="path4638"
               d="M 4.46875,-1.734375 L 4.234375,-1.734375 C 4.171875,-1.4375 4.109375,-1 4,-0.84375 C 3.9375,-0.765625 3.28125,-0.765625 3.0625,-0.765625 L 1.265625,-0.765625 L 2.328125,-1.796875 C 3.875,-3.171875 4.46875,-3.703125 4.46875,-4.703125 C 4.46875,-5.84375 3.578125,-6.640625 2.359375,-6.640625 C 1.234375,-6.640625 0.5,-5.71875 0.5,-4.828125 C 0.5,-4.28125 1,-4.28125 1.03125,-4.28125 C 1.203125,-4.28125 1.546875,-4.390625 1.546875,-4.8125 C 1.546875,-5.0625 1.359375,-5.328125 1.015625,-5.328125 C 0.9375,-5.328125 0.921875,-5.328125 0.890625,-5.3125 C 1.109375,-5.96875 1.65625,-6.328125 2.234375,-6.328125 C 3.140625,-6.328125 3.5625,-5.515625 3.5625,-4.703125 C 3.5625,-3.90625 3.078125,-3.125 2.515625,-2.5 L 0.609375,-0.375 C 0.5,-0.265625 0.5,-0.234375 0.5,0 L 4.203125,0 L 4.46875,-1.734375 z"
               style="stroke:none" />
          </symbol>
        </g>
      </defs>
      <g
         id="textext-e0ad40be-4">
        <g
           id="g4641"
           style="fill:#000000;fill-opacity:1">
          <use
             id="use4643"
             y="134.765"
             x="223.43201"
             xlink:href="#textext-e0ad40be-1"
             width="379.13385"
             height="141.73228" />
        </g>
        <g
           id="g4645"
           style="fill:#000000;fill-opacity:1">
          <use
             id="use4647"
             y="134.765"
             x="231.181"
             xlink:href="#textext-e0ad40be-3"
             width="379.13385"
             height="141.73228" />
        </g>
      </g>
    </g>
    <g
       id="g6247"
       ns0:preamble="/home/raghu/TIFR/Curves-on-rational-and-unirational-surfaces/figures/preample.tex"
       ns0:text="$S_{1}$"
       transform="matrix(0.9805707,0,0,0.9805707,-216.5294,-82.547137)">
      <defs
         id="defs6249">
        <g
           id="g6251">
          <symbol
             id="textext-9f915eed-0"
             overflow="visible"
             style="overflow:visible">
            <path
               id="path6254"
               d=""
               style="stroke:none" />
          </symbol>
          <symbol
             id="textext-9f915eed-1"
             overflow="visible"
             style="overflow:visible">
            <path
               id="path6257"
               d="M 6.4375,-6.921875 C 6.4375,-6.953125 6.40625,-7.03125 6.3125,-7.03125 C 6.265625,-7.03125 6.265625,-7.015625 6.140625,-6.875 L 5.65625,-6.3125 C 5.40625,-6.78125 4.890625,-7.03125 4.234375,-7.03125 C 2.96875,-7.03125 1.78125,-5.875 1.78125,-4.671875 C 1.78125,-3.875 2.296875,-3.40625 2.8125,-3.265625 L 3.875,-2.984375 C 4.25,-2.890625 4.796875,-2.734375 4.796875,-1.921875 C 4.796875,-1.03125 3.984375,-0.09375 3,-0.09375 C 2.359375,-0.09375 1.25,-0.3125 1.25,-1.546875 C 1.25,-1.78125 1.3125,-2.03125 1.3125,-2.078125 C 1.328125,-2.125 1.328125,-2.140625 1.328125,-2.15625 C 1.328125,-2.25 1.265625,-2.265625 1.21875,-2.265625 C 1.171875,-2.265625 1.140625,-2.25 1.109375,-2.21875 C 1.078125,-2.1875 0.515625,0.09375 0.515625,0.125 C 0.515625,0.171875 0.5625,0.21875 0.625,0.21875 C 0.671875,0.21875 0.6875,0.203125 0.8125,0.0625 L 1.296875,-0.5 C 1.71875,0.078125 2.40625,0.21875 2.984375,0.21875 C 4.34375,0.21875 5.515625,-1.109375 5.515625,-2.34375 C 5.515625,-3.03125 5.171875,-3.375 5.03125,-3.515625 C 4.796875,-3.734375 4.640625,-3.78125 3.765625,-4 C 3.53125,-4.0625 3.1875,-4.171875 3.09375,-4.1875 C 2.828125,-4.28125 2.484375,-4.5625 2.484375,-5.09375 C 2.484375,-5.90625 3.28125,-6.75 4.234375,-6.75 C 5.046875,-6.75 5.65625,-6.3125 5.65625,-5.203125 C 5.65625,-4.890625 5.625,-4.703125 5.625,-4.640625 C 5.625,-4.640625 5.625,-4.546875 5.734375,-4.546875 C 5.84375,-4.546875 5.859375,-4.578125 5.890625,-4.75 L 6.4375,-6.921875 z"
               style="stroke:none" />
          </symbol>
          <symbol
             id="textext-9f915eed-2"
             overflow="visible"
             style="overflow:visible">
            <path
               id="path6260"
               d=""
               style="stroke:none" />
          </symbol>
          <symbol
             id="textext-9f915eed-3"
             overflow="visible"
             style="overflow:visible">
            <path
               id="path6263"
               d="M 2.328125,-4.4375 C 2.328125,-4.625 2.328125,-4.625 2.125,-4.625 C 1.671875,-4.1875 1.046875,-4.1875 0.765625,-4.1875 L 0.765625,-3.9375 C 0.921875,-3.9375 1.390625,-3.9375 1.765625,-4.125 L 1.765625,-0.578125 C 1.765625,-0.34375 1.765625,-0.25 1.078125,-0.25 L 0.8125,-0.25 L 0.8125,0 C 0.9375,0 1.796875,-0.03125 2.046875,-0.03125 C 2.265625,-0.03125 3.140625,0 3.296875,0 L 3.296875,-0.25 L 3.03125,-0.25 C 2.328125,-0.25 2.328125,-0.34375 2.328125,-0.578125 L 2.328125,-4.4375 z"
               style="stroke:none" />
          </symbol>
        </g>
      </defs>
      <g
         id="textext-9f915eed-4">
        <g
           id="g6266"
           style="fill:#000000;fill-opacity:1">
          <use
             id="use6268"
             y="134.765"
             x="223.43201"
             xlink:href="#textext-9f915eed-1"
             width="379.13385"
             height="141.73228" />
        </g>
        <g
           id="g6270"
           style="fill:#000000;fill-opacity:1">
          <use
             id="use6272"
             y="136.259"
             x="229.541"
             xlink:href="#textext-9f915eed-3"
             width="379.13385"
             height="141.73228" />
        </g>
      </g>
    </g>
    <path
       style="fill:none;fill-rule:evenodd;stroke:#000000;stroke-width:1;stroke-linecap:butt;stroke-linejoin:miter;stroke-miterlimit:4;stroke-dasharray:none;stroke-opacity:1"
       d="M 11.485542,34.176012 L 39.340122,34.176012"
       id="path15380" />
    <path
       id="path15382"
       d="M 45.575972,34.176012 L 73.430552,34.176012"
       style="fill:none;fill-rule:evenodd;stroke:#000000;stroke-width:1;stroke-linecap:butt;stroke-linejoin:miter;stroke-miterlimit:4;stroke-dasharray:none;stroke-opacity:1" />
    <path
       style="fill:none;fill-rule:evenodd;stroke:#000000;stroke-width:1;stroke-linecap:butt;stroke-linejoin:miter;stroke-miterlimit:4;stroke-dasharray:none;stroke-opacity:1"
       d="M 79.52086,34.176012 L 107.37543,34.176012"
       id="path15400" />
    <path
       transform="matrix(0.9805707,0,0,0.9805707,27.399132,-8.9102499)"
       d="M 139.13925,43.55267 A 3.4990637,3.4990637 0 1 1 132.14112,43.55267 A 3.4990637,3.4990637 0 1 1 139.13925,43.55267 z"
       sodipodi:ry="3.4990637"
       sodipodi:rx="3.4990637"
       sodipodi:cy="43.55267"
       sodipodi:cx="135.64018"
       id="path15482"
       style="opacity:1;fill:#ffffff;fill-opacity:1;fill-rule:evenodd;stroke:#000000;stroke-width:1px;stroke-linecap:butt;stroke-linejoin:miter;marker:none;marker-start:none;marker-mid:none;marker-end:none;stroke-miterlimit:4;stroke-dasharray:none;stroke-dashoffset:0;stroke-opacity:1;visibility:visible;display:inline;overflow:visible;enable-background:accumulate"
       sodipodi:type="arc" />
    <path
       transform="matrix(0.9805707,0,0,0.9805707,62.258757,-8.9102499)"
       sodipodi:type="arc"
       style="opacity:1;fill:#ffffff;fill-opacity:1;fill-rule:evenodd;stroke:#000000;stroke-width:1px;stroke-linecap:butt;stroke-linejoin:miter;marker:none;marker-start:none;marker-mid:none;marker-end:none;stroke-miterlimit:4;stroke-dasharray:none;stroke-dashoffset:0;stroke-opacity:1;visibility:visible;display:inline;overflow:visible;enable-background:accumulate"
       id="path15484"
       sodipodi:cx="135.64018"
       sodipodi:cy="43.55267"
       sodipodi:rx="3.4990637"
       sodipodi:ry="3.4990637"
       d="M 139.13925,43.55267 A 3.4990637,3.4990637 0 1 1 132.14112,43.55267 A 3.4990637,3.4990637 0 1 1 139.13925,43.55267 z" />
    <path
       transform="matrix(-0.9805707,0,0,0.9805707,362.19947,-8.9102499)"
       sodipodi:type="arc"
       style="opacity:1;fill:#ffffff;fill-opacity:1;fill-rule:evenodd;stroke:#000000;stroke-width:1px;stroke-linecap:butt;stroke-linejoin:miter;marker:none;marker-start:none;marker-mid:none;marker-end:none;stroke-miterlimit:4;stroke-dasharray:none;stroke-dashoffset:0;stroke-opacity:1;visibility:visible;display:inline;overflow:visible;enable-background:accumulate"
       id="path15492"
       sodipodi:cx="135.64018"
       sodipodi:cy="43.55267"
       sodipodi:rx="3.4990637"
       sodipodi:ry="3.4990637"
       d="M 139.13925,43.55267 A 3.4990637,3.4990637 0 1 1 132.14112,43.55267 A 3.4990637,3.4990637 0 1 1 139.13925,43.55267 z" />
    <path
       id="path15494"
       d="M 164.09542,34.176012 L 191.95,34.176012"
       style="fill:none;fill-rule:evenodd;stroke:#000000;stroke-width:1;stroke-linecap:butt;stroke-linejoin:miter;stroke-miterlimit:4;stroke-dasharray:none;stroke-opacity:1" />
    <path
       style="fill:none;fill-rule:evenodd;stroke:#000000;stroke-width:1;stroke-linecap:butt;stroke-linejoin:miter;stroke-miterlimit:4;stroke-dasharray:none;stroke-opacity:1"
       d="M 198.18585,34.176012 L 226.04043,34.176012"
       id="path15496" />
    <path
       id="path15498"
       d="M 232.13074,34.176012 L 259.98533,34.176012"
       style="fill:none;fill-rule:evenodd;stroke:#000000;stroke-width:1;stroke-linecap:butt;stroke-linejoin:miter;stroke-miterlimit:4;stroke-dasharray:none;stroke-opacity:1" />
    <path
       style="fill:none;fill-rule:evenodd;stroke:#000000;stroke-width:1;stroke-linecap:butt;stroke-linejoin:miter;stroke-miterlimit:4;stroke-dasharray:none;stroke-opacity:1"
       d="M 129.0803,34.176012 L 156.93488,34.176012"
       id="path15500" />
    <path
       d="M 139.13925,43.55267 A 3.4990637,3.4990637 0 1 1 132.14112,43.55267 A 3.4990637,3.4990637 0 1 1 139.13925,43.55267 z"
       sodipodi:ry="3.4990637"
       sodipodi:rx="3.4990637"
       sodipodi:cy="43.55267"
       sodipodi:cx="135.64018"
       id="path15502"
       style="opacity:1;fill:#ffffff;fill-opacity:1;fill-rule:evenodd;stroke:#000000;stroke-width:1px;stroke-linecap:butt;stroke-linejoin:miter;marker:none;marker-start:none;marker-mid:none;marker-end:none;stroke-miterlimit:4;stroke-dasharray:none;stroke-dashoffset:0;stroke-opacity:1;visibility:visible;display:inline;overflow:visible;enable-background:accumulate"
       sodipodi:type="arc"
       transform="matrix(-0.9805707,0,0,0.9805707,393.86316,-8.9102499)" />
    <path
       id="path15504"
       d="M 260.71071,74.089744 L 260.71071,37.518424"
       style="fill:none;fill-rule:evenodd;stroke:#000000;stroke-width:1;stroke-linecap:butt;stroke-linejoin:miter;stroke-miterlimit:4;stroke-dasharray:none;stroke-opacity:1" />
    <path
       transform="matrix(-0.9805707,0,0,0.9805707,393.66621,34.92304)"
       sodipodi:type="arc"
       style="opacity:1;fill:#ffffff;fill-opacity:1;fill-rule:evenodd;stroke:#000000;stroke-width:1px;stroke-linecap:butt;stroke-linejoin:miter;marker:none;marker-start:none;marker-mid:none;marker-end:none;stroke-miterlimit:4;stroke-dasharray:none;stroke-dashoffset:0;stroke-opacity:1;visibility:visible;display:inline;overflow:visible;enable-background:accumulate"
       id="path15506"
       sodipodi:cx="135.64018"
       sodipodi:cy="43.55267"
       sodipodi:rx="3.4990637"
       sodipodi:ry="3.4990637"
       d="M 139.13925,43.55267 A 3.4990637,3.4990637 0 1 1 132.14112,43.55267 A 3.4990637,3.4990637 0 1 1 139.13925,43.55267 z" />
    <path
       style="fill:none;fill-rule:evenodd;stroke:#000000;stroke-width:1;stroke-linecap:butt;stroke-linejoin:miter;stroke-miterlimit:4;stroke-dasharray:none;stroke-opacity:1"
       d="M 264.46833,34.176012 L 292.32292,34.176012"
       id="path15508" />
    <path
       transform="matrix(-0.9805707,0,0,0.9805707,428.87828,-8.9102499)"
       sodipodi:type="arc"
       style="opacity:1;fill:#ffffff;fill-opacity:1;fill-rule:evenodd;stroke:#000000;stroke-width:1px;stroke-linecap:butt;stroke-linejoin:miter;marker:none;marker-start:none;marker-mid:none;marker-end:none;stroke-miterlimit:4;stroke-dasharray:none;stroke-dashoffset:0;stroke-opacity:1;visibility:visible;display:inline;overflow:visible;enable-background:accumulate"
       id="path15510"
       sodipodi:cx="135.64018"
       sodipodi:cy="43.55267"
       sodipodi:rx="3.4990637"
       sodipodi:ry="3.4990637"
       d="M 139.13925,43.55267 A 3.4990637,3.4990637 0 1 1 132.14112,43.55267 A 3.4990637,3.4990637 0 1 1 139.13925,43.55267 z" />
    <path
       id="path15512"
       d="M 298.94943,34.176012 L 326.80402,34.176012"
       style="fill:none;fill-rule:evenodd;stroke:#000000;stroke-width:1;stroke-linecap:butt;stroke-linejoin:miter;stroke-miterlimit:4;stroke-dasharray:none;stroke-opacity:1" />
    <path
       d="M 139.13925,43.55267 A 3.4990637,3.4990637 0 1 1 132.14112,43.55267 A 3.4990637,3.4990637 0 1 1 139.13925,43.55267 z"
       sodipodi:ry="3.4990637"
       sodipodi:rx="3.4990637"
       sodipodi:cy="43.55267"
       sodipodi:cx="135.64018"
       id="path15514"
       style="opacity:1;fill:#ffffff;fill-opacity:1;fill-rule:evenodd;stroke:#000000;stroke-width:1px;stroke-linecap:butt;stroke-linejoin:miter;marker:none;marker-start:none;marker-mid:none;marker-end:none;stroke-miterlimit:4;stroke-dasharray:none;stroke-dashoffset:0;stroke-opacity:1;visibility:visible;display:inline;overflow:visible;enable-background:accumulate"
       sodipodi:type="arc"
       transform="matrix(0.9805707,0,0,0.9805707,246.38497,-8.9102499)" />
    <path
       style="fill:none;fill-rule:evenodd;stroke:#000000;stroke-width:1;stroke-linecap:butt;stroke-linejoin:miter;stroke-miterlimit:4;stroke-dasharray:none;stroke-opacity:1"
       d="M 376.31383,34.176012 L 348.45924,34.176012"
       id="path15516" />
    <g
       ns0:text="$-2$"
       ns0:preamble="/home/raghu/TIFR/Curves-on-rational-and-unirational-surfaces/figures/preample.tex"
       transform="matrix(0.9805707,0,0,0.9805707,-149.24714,-106.47714)"
       id="g15524">
      <defs
         id="defs15526">
        <g
           id="g15528">
          <symbol
             style="overflow:visible"
             overflow="visible"
             id="symbol15530">
            <path
               style="stroke:none"
               d=""
               id="path15532" />
          </symbol>
          <symbol
             style="overflow:visible"
             overflow="visible"
             id="symbol15534">
            <path
               style="stroke:none"
               d="M 6.59375,-2.296875 C 6.734375,-2.296875 6.921875,-2.296875 6.921875,-2.5 C 6.921875,-2.6875 6.734375,-2.6875 6.59375,-2.6875 L 1.15625,-2.6875 C 1.015625,-2.6875 0.828125,-2.6875 0.828125,-2.5 C 0.828125,-2.296875 1.015625,-2.296875 1.15625,-2.296875 L 6.59375,-2.296875 z"
               id="path15536" />
          </symbol>
          <symbol
             style="overflow:visible"
             overflow="visible"
             id="symbol15538">
            <path
               style="stroke:none"
               d=""
               id="path15540" />
          </symbol>
          <symbol
             style="overflow:visible"
             overflow="visible"
             id="symbol15542">
            <path
               style="stroke:none"
               d="M 4.46875,-1.734375 L 4.234375,-1.734375 C 4.171875,-1.4375 4.109375,-1 4,-0.84375 C 3.9375,-0.765625 3.28125,-0.765625 3.0625,-0.765625 L 1.265625,-0.765625 L 2.328125,-1.796875 C 3.875,-3.171875 4.46875,-3.703125 4.46875,-4.703125 C 4.46875,-5.84375 3.578125,-6.640625 2.359375,-6.640625 C 1.234375,-6.640625 0.5,-5.71875 0.5,-4.828125 C 0.5,-4.28125 1,-4.28125 1.03125,-4.28125 C 1.203125,-4.28125 1.546875,-4.390625 1.546875,-4.8125 C 1.546875,-5.0625 1.359375,-5.328125 1.015625,-5.328125 C 0.9375,-5.328125 0.921875,-5.328125 0.890625,-5.3125 C 1.109375,-5.96875 1.65625,-6.328125 2.234375,-6.328125 C 3.140625,-6.328125 3.5625,-5.515625 3.5625,-4.703125 C 3.5625,-3.90625 3.078125,-3.125 2.515625,-2.5 L 0.609375,-0.375 C 0.5,-0.265625 0.5,-0.234375 0.5,0 L 4.203125,0 L 4.46875,-1.734375 z"
               id="path15544" />
          </symbol>
        </g>
      </defs>
      <g
         id="g15546">
        <g
           style="fill:#000000;fill-opacity:1"
           id="g15548">
          <use
             height="141.73228"
             width="379.13385"
             xlink:href="#textext-e0ad40be-1"
             x="223.43201"
             y="134.765"
             id="use15550" />
        </g>
        <g
           style="fill:#000000;fill-opacity:1"
           id="g15552">
          <use
             height="141.73228"
             width="379.13385"
             xlink:href="#textext-e0ad40be-3"
             x="231.181"
             y="134.765"
             id="use15554" />
        </g>
      </g>
    </g>
    <g
       id="g15556"
       transform="matrix(0.9805707,0,0,0.9805707,-65.24714,-106.47714)"
       ns0:preamble="/home/raghu/TIFR/Curves-on-rational-and-unirational-surfaces/figures/preample.tex"
       ns0:text="$-2$">
      <defs
         id="defs15558">
        <g
           id="g15560">
          <symbol
             id="symbol15562"
             overflow="visible"
             style="overflow:visible">
            <path
               id="path15564"
               d=""
               style="stroke:none" />
          </symbol>
          <symbol
             id="symbol15566"
             overflow="visible"
             style="overflow:visible">
            <path
               id="path15568"
               d="M 6.59375,-2.296875 C 6.734375,-2.296875 6.921875,-2.296875 6.921875,-2.5 C 6.921875,-2.6875 6.734375,-2.6875 6.59375,-2.6875 L 1.15625,-2.6875 C 1.015625,-2.6875 0.828125,-2.6875 0.828125,-2.5 C 0.828125,-2.296875 1.015625,-2.296875 1.15625,-2.296875 L 6.59375,-2.296875 z"
               style="stroke:none" />
          </symbol>
          <symbol
             id="symbol15570"
             overflow="visible"
             style="overflow:visible">
            <path
               id="path15572"
               d=""
               style="stroke:none" />
          </symbol>
          <symbol
             id="symbol15574"
             overflow="visible"
             style="overflow:visible">
            <path
               id="path15576"
               d="M 4.46875,-1.734375 L 4.234375,-1.734375 C 4.171875,-1.4375 4.109375,-1 4,-0.84375 C 3.9375,-0.765625 3.28125,-0.765625 3.0625,-0.765625 L 1.265625,-0.765625 L 2.328125,-1.796875 C 3.875,-3.171875 4.46875,-3.703125 4.46875,-4.703125 C 4.46875,-5.84375 3.578125,-6.640625 2.359375,-6.640625 C 1.234375,-6.640625 0.5,-5.71875 0.5,-4.828125 C 0.5,-4.28125 1,-4.28125 1.03125,-4.28125 C 1.203125,-4.28125 1.546875,-4.390625 1.546875,-4.8125 C 1.546875,-5.0625 1.359375,-5.328125 1.015625,-5.328125 C 0.9375,-5.328125 0.921875,-5.328125 0.890625,-5.3125 C 1.109375,-5.96875 1.65625,-6.328125 2.234375,-6.328125 C 3.140625,-6.328125 3.5625,-5.515625 3.5625,-4.703125 C 3.5625,-3.90625 3.078125,-3.125 2.515625,-2.5 L 0.609375,-0.375 C 0.5,-0.265625 0.5,-0.234375 0.5,0 L 4.203125,0 L 4.46875,-1.734375 z"
               style="stroke:none" />
          </symbol>
        </g>
      </defs>
      <g
         id="g15578">
        <g
           id="g15580"
           style="fill:#000000;fill-opacity:1">
          <use
             id="use15582"
             y="134.765"
             x="223.43201"
             xlink:href="#textext-e0ad40be-1"
             width="379.13385"
             height="141.73228" />
        </g>
        <g
           id="g15584"
           style="fill:#000000;fill-opacity:1">
          <use
             id="use15586"
             y="134.765"
             x="231.181"
             xlink:href="#textext-e0ad40be-3"
             width="379.13385"
             height="141.73228" />
        </g>
      </g>
    </g>
    <g
       transform="translate(16.009608,-110.90291)"
       ns0:text="$-(q_{2}+1)$"
       ns0:preamble="/home/raghu/TIFR/Curves-on-rational-and-unirational-surfaces/figures/preample.tex"
       id="g15708">
      <defs
         id="defs15710">
        <g
           id="g15712">
          <symbol
             style="overflow:visible"
             overflow="visible"
             id="textext-530b6d8e-0">
            <path
               style="stroke:none"
               d=""
               id="path15715" />
          </symbol>
          <symbol
             style="overflow:visible"
             overflow="visible"
             id="textext-530b6d8e-1">
            <path
               style="stroke:none"
               d="M 6.59375,-2.296875 C 6.734375,-2.296875 6.921875,-2.296875 6.921875,-2.5 C 6.921875,-2.6875 6.734375,-2.6875 6.59375,-2.6875 L 1.15625,-2.6875 C 1.015625,-2.6875 0.828125,-2.6875 0.828125,-2.5 C 0.828125,-2.296875 1.015625,-2.296875 1.15625,-2.296875 L 6.59375,-2.296875 z"
               id="path15718" />
          </symbol>
          <symbol
             style="overflow:visible"
             overflow="visible"
             id="textext-530b6d8e-2">
            <path
               style="stroke:none"
               d=""
               id="path15721" />
          </symbol>
          <symbol
             style="overflow:visible"
             overflow="visible"
             id="textext-530b6d8e-3">
            <path
               style="stroke:none"
               d="M 3.296875,2.390625 C 3.296875,2.359375 3.296875,2.34375 3.125,2.171875 C 1.890625,0.921875 1.5625,-0.96875 1.5625,-2.5 C 1.5625,-4.234375 1.9375,-5.96875 3.171875,-7.203125 C 3.296875,-7.328125 3.296875,-7.34375 3.296875,-7.375 C 3.296875,-7.453125 3.265625,-7.484375 3.203125,-7.484375 C 3.09375,-7.484375 2.203125,-6.796875 1.609375,-5.53125 C 1.109375,-4.4375 0.984375,-3.328125 0.984375,-2.5 C 0.984375,-1.71875 1.09375,-0.515625 1.640625,0.625 C 2.25,1.84375 3.09375,2.5 3.203125,2.5 C 3.265625,2.5 3.296875,2.46875 3.296875,2.390625 z"
               id="path15724" />
          </symbol>
          <symbol
             style="overflow:visible"
             overflow="visible"
             id="textext-530b6d8e-4">
            <path
               style="stroke:none"
               d="M 4.078125,-2.296875 L 6.859375,-2.296875 C 7,-2.296875 7.1875,-2.296875 7.1875,-2.5 C 7.1875,-2.6875 7,-2.6875 6.859375,-2.6875 L 4.078125,-2.6875 L 4.078125,-5.484375 C 4.078125,-5.625 4.078125,-5.8125 3.875,-5.8125 C 3.671875,-5.8125 3.671875,-5.625 3.671875,-5.484375 L 3.671875,-2.6875 L 0.890625,-2.6875 C 0.75,-2.6875 0.5625,-2.6875 0.5625,-2.5 C 0.5625,-2.296875 0.75,-2.296875 0.890625,-2.296875 L 3.671875,-2.296875 L 3.671875,0.5 C 3.671875,0.640625 3.671875,0.828125 3.875,0.828125 C 4.078125,0.828125 4.078125,0.640625 4.078125,0.5 L 4.078125,-2.296875 z"
               id="path15727" />
          </symbol>
          <symbol
             style="overflow:visible"
             overflow="visible"
             id="textext-530b6d8e-5">
            <path
               style="stroke:none"
               d="M 2.9375,-6.375 C 2.9375,-6.625 2.9375,-6.640625 2.703125,-6.640625 C 2.078125,-6 1.203125,-6 0.890625,-6 L 0.890625,-5.6875 C 1.09375,-5.6875 1.671875,-5.6875 2.1875,-5.953125 L 2.1875,-0.78125 C 2.1875,-0.421875 2.15625,-0.3125 1.265625,-0.3125 L 0.953125,-0.3125 L 0.953125,0 C 1.296875,-0.03125 2.15625,-0.03125 2.5625,-0.03125 C 2.953125,-0.03125 3.828125,-0.03125 4.171875,0 L 4.171875,-0.3125 L 3.859375,-0.3125 C 2.953125,-0.3125 2.9375,-0.421875 2.9375,-0.78125 L 2.9375,-6.375 z"
               id="path15730" />
          </symbol>
          <symbol
             style="overflow:visible"
             overflow="visible"
             id="textext-530b6d8e-6">
            <path
               style="stroke:none"
               d="M 2.875,-2.5 C 2.875,-3.265625 2.765625,-4.46875 2.21875,-5.609375 C 1.625,-6.828125 0.765625,-7.484375 0.671875,-7.484375 C 0.609375,-7.484375 0.5625,-7.4375 0.5625,-7.375 C 0.5625,-7.34375 0.5625,-7.328125 0.75,-7.140625 C 1.734375,-6.15625 2.296875,-4.578125 2.296875,-2.5 C 2.296875,-0.78125 1.9375,0.96875 0.703125,2.21875 C 0.5625,2.34375 0.5625,2.359375 0.5625,2.390625 C 0.5625,2.453125 0.609375,2.5 0.671875,2.5 C 0.765625,2.5 1.671875,1.8125 2.25,0.546875 C 2.765625,-0.546875 2.875,-1.65625 2.875,-2.5 z"
               id="path15733" />
          </symbol>
          <symbol
             style="overflow:visible"
             overflow="visible"
             id="textext-530b6d8e-7">
            <path
               style="stroke:none"
               d=""
               id="path15736" />
          </symbol>
          <symbol
             style="overflow:visible"
             overflow="visible"
             id="textext-530b6d8e-8">
            <path
               style="stroke:none"
               d="M 4.5,-4.296875 C 4.5,-4.34375 4.46875,-4.390625 4.40625,-4.390625 C 4.296875,-4.390625 3.890625,-4 3.734375,-3.703125 C 3.515625,-4.25 3.125,-4.40625 2.796875,-4.40625 C 1.625,-4.40625 0.40625,-2.9375 0.40625,-1.484375 C 0.40625,-0.515625 0.984375,0.109375 1.71875,0.109375 C 2.140625,0.109375 2.53125,-0.125 2.890625,-0.484375 C 2.796875,-0.140625 2.46875,1.203125 2.4375,1.296875 C 2.359375,1.578125 2.28125,1.609375 1.71875,1.625 C 1.59375,1.625 1.5,1.625 1.5,1.828125 C 1.5,1.828125 1.5,1.9375 1.625,1.9375 C 1.9375,1.9375 2.296875,1.90625 2.625,1.90625 C 2.953125,1.90625 3.3125,1.9375 3.65625,1.9375 C 3.703125,1.9375 3.828125,1.9375 3.828125,1.734375 C 3.828125,1.625 3.734375,1.625 3.5625,1.625 C 3.09375,1.625 3.09375,1.5625 3.09375,1.46875 C 3.09375,1.390625 3.109375,1.328125 3.125,1.25 L 4.5,-4.296875 z M 1.75,-0.109375 C 1.140625,-0.109375 1.109375,-0.875 1.109375,-1.046875 C 1.109375,-1.53125 1.390625,-2.609375 1.5625,-3.03125 C 1.875,-3.765625 2.390625,-4.1875 2.796875,-4.1875 C 3.453125,-4.1875 3.59375,-3.375 3.59375,-3.3125 C 3.59375,-3.25 3.046875,-1.0625 3.015625,-1.03125 C 2.859375,-0.75 2.296875,-0.109375 1.75,-0.109375 z"
               id="path15739" />
          </symbol>
          <symbol
             style="overflow:visible"
             overflow="visible"
             id="textext-530b6d8e-9">
            <path
               style="stroke:none"
               d=""
               id="path15742" />
          </symbol>
          <symbol
             style="overflow:visible"
             overflow="visible"
             id="textext-530b6d8e-10">
            <path
               style="stroke:none"
               d="M 3.515625,-1.265625 L 3.28125,-1.265625 C 3.265625,-1.109375 3.1875,-0.703125 3.09375,-0.640625 C 3.046875,-0.59375 2.515625,-0.59375 2.40625,-0.59375 L 1.125,-0.59375 C 1.859375,-1.234375 2.109375,-1.4375 2.515625,-1.765625 C 3.03125,-2.171875 3.515625,-2.609375 3.515625,-3.265625 C 3.515625,-4.109375 2.78125,-4.625 1.890625,-4.625 C 1.03125,-4.625 0.4375,-4.015625 0.4375,-3.375 C 0.4375,-3.03125 0.734375,-2.984375 0.8125,-2.984375 C 0.96875,-2.984375 1.171875,-3.109375 1.171875,-3.359375 C 1.171875,-3.484375 1.125,-3.734375 0.765625,-3.734375 C 0.984375,-4.21875 1.453125,-4.375 1.78125,-4.375 C 2.484375,-4.375 2.84375,-3.828125 2.84375,-3.265625 C 2.84375,-2.65625 2.40625,-2.1875 2.1875,-1.9375 L 0.515625,-0.265625 C 0.4375,-0.203125 0.4375,-0.1875 0.4375,0 L 3.3125,0 L 3.515625,-1.265625 z"
               id="path15745" />
          </symbol>
        </g>
      </defs>
      <g
         id="textext-530b6d8e-11">
        <g
           style="fill:#000000;fill-opacity:1"
           id="g15748">
          <use
             height="141.73228"
             width="386.22046"
             xlink:href="#textext-530b6d8e-1"
             x="223.43201"
             y="134.765"
             id="use15750" />
        </g>
        <g
           style="fill:#000000;fill-opacity:1"
           id="g15752">
          <use
             height="141.73228"
             width="386.22046"
             xlink:href="#textext-530b6d8e-3"
             x="231.181"
             y="134.765"
             id="use15754" />
        </g>
        <g
           style="fill:#000000;fill-opacity:1"
           id="g15756">
          <use
             height="141.73228"
             width="386.22046"
             xlink:href="#textext-530b6d8e-8"
             x="235.05499"
             y="134.765"
             id="use15758" />
        </g>
        <g
           style="fill:#000000;fill-opacity:1"
           id="g15760">
          <use
             height="141.73228"
             width="386.22046"
             xlink:href="#textext-530b6d8e-10"
             x="239.50301"
             y="136.259"
             id="use15762" />
        </g>
        <g
           style="fill:#000000;fill-opacity:1"
           id="g15764">
          <use
             height="141.73228"
             width="386.22046"
             xlink:href="#textext-530b6d8e-4"
             x="246.186"
             y="134.765"
             id="use15766" />
        </g>
        <g
           style="fill:#000000;fill-opacity:1"
           id="g15768">
          <use
             height="141.73228"
             width="386.22046"
             xlink:href="#textext-530b6d8e-5"
             x="256.14661"
             y="134.765"
             id="use15770" />
          <use
             height="141.73228"
             width="386.22046"
             xlink:href="#textext-530b6d8e-6"
             x="261.1279"
             y="134.765"
             id="use15772" />
        </g>
      </g>
    </g>
    <g
       ns0:text="$-2$"
       ns0:preamble="/home/raghu/TIFR/Curves-on-rational-and-unirational-surfaces/figures/preample.tex"
       transform="matrix(0.9805707,0,0,0.9805707,70.170692,-105.89498)"
       id="g15931">
      <defs
         id="defs15933">
        <g
           id="g15935">
          <symbol
             style="overflow:visible"
             overflow="visible"
             id="symbol15937">
            <path
               style="stroke:none"
               d=""
               id="path15939" />
          </symbol>
          <symbol
             style="overflow:visible"
             overflow="visible"
             id="symbol15941">
            <path
               style="stroke:none"
               d="M 6.59375,-2.296875 C 6.734375,-2.296875 6.921875,-2.296875 6.921875,-2.5 C 6.921875,-2.6875 6.734375,-2.6875 6.59375,-2.6875 L 1.15625,-2.6875 C 1.015625,-2.6875 0.828125,-2.6875 0.828125,-2.5 C 0.828125,-2.296875 1.015625,-2.296875 1.15625,-2.296875 L 6.59375,-2.296875 z"
               id="path15943" />
          </symbol>
          <symbol
             style="overflow:visible"
             overflow="visible"
             id="symbol15945">
            <path
               style="stroke:none"
               d=""
               id="path15947" />
          </symbol>
          <symbol
             style="overflow:visible"
             overflow="visible"
             id="symbol15949">
            <path
               style="stroke:none"
               d="M 4.46875,-1.734375 L 4.234375,-1.734375 C 4.171875,-1.4375 4.109375,-1 4,-0.84375 C 3.9375,-0.765625 3.28125,-0.765625 3.0625,-0.765625 L 1.265625,-0.765625 L 2.328125,-1.796875 C 3.875,-3.171875 4.46875,-3.703125 4.46875,-4.703125 C 4.46875,-5.84375 3.578125,-6.640625 2.359375,-6.640625 C 1.234375,-6.640625 0.5,-5.71875 0.5,-4.828125 C 0.5,-4.28125 1,-4.28125 1.03125,-4.28125 C 1.203125,-4.28125 1.546875,-4.390625 1.546875,-4.8125 C 1.546875,-5.0625 1.359375,-5.328125 1.015625,-5.328125 C 0.9375,-5.328125 0.921875,-5.328125 0.890625,-5.3125 C 1.109375,-5.96875 1.65625,-6.328125 2.234375,-6.328125 C 3.140625,-6.328125 3.5625,-5.515625 3.5625,-4.703125 C 3.5625,-3.90625 3.078125,-3.125 2.515625,-2.5 L 0.609375,-0.375 C 0.5,-0.265625 0.5,-0.234375 0.5,0 L 4.203125,0 L 4.46875,-1.734375 z"
               id="path15951" />
          </symbol>
        </g>
      </defs>
      <g
         id="g15953">
        <g
           style="fill:#000000;fill-opacity:1"
           id="g15955">
          <use
             height="141.73228"
             width="379.13385"
             xlink:href="#textext-e0ad40be-1"
             x="223.43201"
             y="134.765"
             id="use15957" />
        </g>
        <g
           style="fill:#000000;fill-opacity:1"
           id="g15959">
          <use
             height="141.73228"
             width="379.13385"
             xlink:href="#textext-e0ad40be-3"
             x="231.181"
             y="134.765"
             id="use15961" />
        </g>
      </g>
    </g>
    <g
       id="g15963"
       transform="matrix(0.9805707,0,0,0.9805707,153.58853,-105.89498)"
       ns0:preamble="/home/raghu/TIFR/Curves-on-rational-and-unirational-surfaces/figures/preample.tex"
       ns0:text="$-2$">
      <defs
         id="defs15965">
        <g
           id="g15967">
          <symbol
             id="symbol15969"
             overflow="visible"
             style="overflow:visible">
            <path
               id="path15971"
               d=""
               style="stroke:none" />
          </symbol>
          <symbol
             id="symbol15973"
             overflow="visible"
             style="overflow:visible">
            <path
               id="path15975"
               d="M 6.59375,-2.296875 C 6.734375,-2.296875 6.921875,-2.296875 6.921875,-2.5 C 6.921875,-2.6875 6.734375,-2.6875 6.59375,-2.6875 L 1.15625,-2.6875 C 1.015625,-2.6875 0.828125,-2.6875 0.828125,-2.5 C 0.828125,-2.296875 1.015625,-2.296875 1.15625,-2.296875 L 6.59375,-2.296875 z"
               style="stroke:none" />
          </symbol>
          <symbol
             id="symbol15977"
             overflow="visible"
             style="overflow:visible">
            <path
               id="path15979"
               d=""
               style="stroke:none" />
          </symbol>
          <symbol
             id="symbol15981"
             overflow="visible"
             style="overflow:visible">
            <path
               id="path15983"
               d="M 4.46875,-1.734375 L 4.234375,-1.734375 C 4.171875,-1.4375 4.109375,-1 4,-0.84375 C 3.9375,-0.765625 3.28125,-0.765625 3.0625,-0.765625 L 1.265625,-0.765625 L 2.328125,-1.796875 C 3.875,-3.171875 4.46875,-3.703125 4.46875,-4.703125 C 4.46875,-5.84375 3.578125,-6.640625 2.359375,-6.640625 C 1.234375,-6.640625 0.5,-5.71875 0.5,-4.828125 C 0.5,-4.28125 1,-4.28125 1.03125,-4.28125 C 1.203125,-4.28125 1.546875,-4.390625 1.546875,-4.8125 C 1.546875,-5.0625 1.359375,-5.328125 1.015625,-5.328125 C 0.9375,-5.328125 0.921875,-5.328125 0.890625,-5.3125 C 1.109375,-5.96875 1.65625,-6.328125 2.234375,-6.328125 C 3.140625,-6.328125 3.5625,-5.515625 3.5625,-4.703125 C 3.5625,-3.90625 3.078125,-3.125 2.515625,-2.5 L 0.609375,-0.375 C 0.5,-0.265625 0.5,-0.234375 0.5,0 L 4.203125,0 L 4.46875,-1.734375 z"
               style="stroke:none" />
          </symbol>
        </g>
      </defs>
      <g
         id="g15985">
        <g
           id="g15987"
           style="fill:#000000;fill-opacity:1">
          <use
             id="use15989"
             y="134.765"
             x="223.43201"
             xlink:href="#textext-e0ad40be-1"
             width="379.13385"
             height="141.73228" />
        </g>
        <g
           id="g15991"
           style="fill:#000000;fill-opacity:1">
          <use
             id="use15993"
             y="134.765"
             x="231.181"
             xlink:href="#textext-e0ad40be-3"
             width="379.13385"
             height="141.73228" />
        </g>
      </g>
    </g>
    <g
       id="g16186"
       ns0:preamble="/home/raghu/TIFR/Curves-on-rational-and-unirational-surfaces/figures/preample.tex"
       ns0:text="$q_{2}-1$"
       transform="translate(-135.0227,-63.689912)">
      <defs
         id="defs16188">
        <g
           id="g16190">
          <symbol
             id="textext-8ec416e3-0"
             overflow="visible"
             style="overflow:visible">
            <path
               id="path16193"
               d=""
               style="stroke:none" />
          </symbol>
          <symbol
             id="textext-8ec416e3-1"
             overflow="visible"
             style="overflow:visible">
            <path
               id="path16196"
               d="M 4.5,-4.296875 C 4.5,-4.34375 4.46875,-4.390625 4.40625,-4.390625 C 4.296875,-4.390625 3.890625,-4 3.734375,-3.703125 C 3.515625,-4.25 3.125,-4.40625 2.796875,-4.40625 C 1.625,-4.40625 0.40625,-2.9375 0.40625,-1.484375 C 0.40625,-0.515625 0.984375,0.109375 1.71875,0.109375 C 2.140625,0.109375 2.53125,-0.125 2.890625,-0.484375 C 2.796875,-0.140625 2.46875,1.203125 2.4375,1.296875 C 2.359375,1.578125 2.28125,1.609375 1.71875,1.625 C 1.59375,1.625 1.5,1.625 1.5,1.828125 C 1.5,1.828125 1.5,1.9375 1.625,1.9375 C 1.9375,1.9375 2.296875,1.90625 2.625,1.90625 C 2.953125,1.90625 3.3125,1.9375 3.65625,1.9375 C 3.703125,1.9375 3.828125,1.9375 3.828125,1.734375 C 3.828125,1.625 3.734375,1.625 3.5625,1.625 C 3.09375,1.625 3.09375,1.5625 3.09375,1.46875 C 3.09375,1.390625 3.109375,1.328125 3.125,1.25 L 4.5,-4.296875 z M 1.75,-0.109375 C 1.140625,-0.109375 1.109375,-0.875 1.109375,-1.046875 C 1.109375,-1.53125 1.390625,-2.609375 1.5625,-3.03125 C 1.875,-3.765625 2.390625,-4.1875 2.796875,-4.1875 C 3.453125,-4.1875 3.59375,-3.375 3.59375,-3.3125 C 3.59375,-3.25 3.046875,-1.0625 3.015625,-1.03125 C 2.859375,-0.75 2.296875,-0.109375 1.75,-0.109375 z"
               style="stroke:none" />
          </symbol>
          <symbol
             id="textext-8ec416e3-2"
             overflow="visible"
             style="overflow:visible">
            <path
               id="path16199"
               d=""
               style="stroke:none" />
          </symbol>
          <symbol
             id="textext-8ec416e3-3"
             overflow="visible"
             style="overflow:visible">
            <path
               id="path16202"
               d="M 3.515625,-1.265625 L 3.28125,-1.265625 C 3.265625,-1.109375 3.1875,-0.703125 3.09375,-0.640625 C 3.046875,-0.59375 2.515625,-0.59375 2.40625,-0.59375 L 1.125,-0.59375 C 1.859375,-1.234375 2.109375,-1.4375 2.515625,-1.765625 C 3.03125,-2.171875 3.515625,-2.609375 3.515625,-3.265625 C 3.515625,-4.109375 2.78125,-4.625 1.890625,-4.625 C 1.03125,-4.625 0.4375,-4.015625 0.4375,-3.375 C 0.4375,-3.03125 0.734375,-2.984375 0.8125,-2.984375 C 0.96875,-2.984375 1.171875,-3.109375 1.171875,-3.359375 C 1.171875,-3.484375 1.125,-3.734375 0.765625,-3.734375 C 0.984375,-4.21875 1.453125,-4.375 1.78125,-4.375 C 2.484375,-4.375 2.84375,-3.828125 2.84375,-3.265625 C 2.84375,-2.65625 2.40625,-2.1875 2.1875,-1.9375 L 0.515625,-0.265625 C 0.4375,-0.203125 0.4375,-0.1875 0.4375,0 L 3.3125,0 L 3.515625,-1.265625 z"
               style="stroke:none" />
          </symbol>
          <symbol
             id="textext-8ec416e3-4"
             overflow="visible"
             style="overflow:visible">
            <path
               id="path16205"
               d=""
               style="stroke:none" />
          </symbol>
          <symbol
             id="textext-8ec416e3-5"
             overflow="visible"
             style="overflow:visible">
            <path
               id="path16208"
               d="M 6.59375,-2.296875 C 6.734375,-2.296875 6.921875,-2.296875 6.921875,-2.5 C 6.921875,-2.6875 6.734375,-2.6875 6.59375,-2.6875 L 1.15625,-2.6875 C 1.015625,-2.6875 0.828125,-2.6875 0.828125,-2.5 C 0.828125,-2.296875 1.015625,-2.296875 1.15625,-2.296875 L 6.59375,-2.296875 z"
               style="stroke:none" />
          </symbol>
          <symbol
             id="textext-8ec416e3-6"
             overflow="visible"
             style="overflow:visible">
            <path
               id="path16211"
               d=""
               style="stroke:none" />
          </symbol>
          <symbol
             id="textext-8ec416e3-7"
             overflow="visible"
             style="overflow:visible">
            <path
               id="path16214"
               d="M 2.9375,-6.375 C 2.9375,-6.625 2.9375,-6.640625 2.703125,-6.640625 C 2.078125,-6 1.203125,-6 0.890625,-6 L 0.890625,-5.6875 C 1.09375,-5.6875 1.671875,-5.6875 2.1875,-5.953125 L 2.1875,-0.78125 C 2.1875,-0.421875 2.15625,-0.3125 1.265625,-0.3125 L 0.953125,-0.3125 L 0.953125,0 C 1.296875,-0.03125 2.15625,-0.03125 2.5625,-0.03125 C 2.953125,-0.03125 3.828125,-0.03125 4.171875,0 L 4.171875,-0.3125 L 3.859375,-0.3125 C 2.953125,-0.3125 2.9375,-0.421875 2.9375,-0.78125 L 2.9375,-6.375 z"
               style="stroke:none" />
          </symbol>
        </g>
      </defs>
      <g
         id="textext-8ec416e3-8">
        <g
           id="g16217"
           style="fill:#000000;fill-opacity:1">
          <use
             id="use16219"
             y="134.765"
             x="223.43201"
             xlink:href="#textext-8ec416e3-1"
             width="386.22046"
             height="141.73228" />
        </g>
        <g
           id="g16221"
           style="fill:#000000;fill-opacity:1">
          <use
             id="use16223"
             y="136.259"
             x="227.88"
             xlink:href="#textext-8ec416e3-3"
             width="386.22046"
             height="141.73228" />
        </g>
        <g
           id="g16225"
           style="fill:#000000;fill-opacity:1">
          <use
             id="use16227"
             y="134.765"
             x="234.563"
             xlink:href="#textext-8ec416e3-5"
             width="386.22046"
             height="141.73228" />
        </g>
        <g
           id="g16229"
           style="fill:#000000;fill-opacity:1">
          <use
             id="use16231"
             y="134.765"
             x="244.52499"
             xlink:href="#textext-8ec416e3-7"
             width="386.22046"
             height="141.73228" />
        </g>
      </g>
    </g>
    <g
       ns0:text="$C_{1}$"
       ns0:preamble="/home/raghu/TIFR/Curves-on-rational-and-unirational-surfaces/figures/preample.tex"
       transform="matrix(0.9805707,0,0,0.9805707,-29.35271,-82.547137)"
       id="g16701">
      <defs
         id="defs16703">
        <g
           id="g16705">
          <symbol
             style="overflow:visible"
             overflow="visible"
             id="textext-219a66d7-0">
            <path
               style="stroke:none"
               d=""
               id="path16708" />
          </symbol>
          <symbol
             style="overflow:visible"
             overflow="visible"
             id="textext-219a66d7-1">
            <path
               style="stroke:none"
               d="M 7.578125,-6.921875 C 7.578125,-6.953125 7.5625,-7.03125 7.46875,-7.03125 C 7.4375,-7.03125 7.421875,-7.015625 7.3125,-6.90625 L 6.625,-6.140625 C 6.53125,-6.28125 6.078125,-7.03125 4.96875,-7.03125 C 2.734375,-7.03125 0.5,-4.828125 0.5,-2.515625 C 0.5,-0.875 1.671875,0.21875 3.203125,0.21875 C 4.0625,0.21875 4.828125,-0.171875 5.359375,-0.640625 C 6.28125,-1.453125 6.453125,-2.359375 6.453125,-2.390625 C 6.453125,-2.5 6.34375,-2.5 6.328125,-2.5 C 6.265625,-2.5 6.21875,-2.46875 6.203125,-2.390625 C 6.109375,-2.109375 5.875,-1.390625 5.1875,-0.8125 C 4.5,-0.265625 3.875,-0.09375 3.359375,-0.09375 C 2.46875,-0.09375 1.40625,-0.609375 1.40625,-2.15625 C 1.40625,-2.734375 1.609375,-4.34375 2.609375,-5.515625 C 3.21875,-6.21875 4.15625,-6.71875 5.046875,-6.71875 C 6.0625,-6.71875 6.65625,-5.953125 6.65625,-4.796875 C 6.65625,-4.390625 6.625,-4.390625 6.625,-4.28125 C 6.625,-4.1875 6.734375,-4.1875 6.765625,-4.1875 C 6.890625,-4.1875 6.890625,-4.203125 6.953125,-4.390625 L 7.578125,-6.921875 z"
               id="path16711" />
          </symbol>
          <symbol
             style="overflow:visible"
             overflow="visible"
             id="textext-219a66d7-2">
            <path
               style="stroke:none"
               d=""
               id="path16714" />
          </symbol>
          <symbol
             style="overflow:visible"
             overflow="visible"
             id="textext-219a66d7-3">
            <path
               style="stroke:none"
               d="M 2.328125,-4.4375 C 2.328125,-4.625 2.328125,-4.625 2.125,-4.625 C 1.671875,-4.1875 1.046875,-4.1875 0.765625,-4.1875 L 0.765625,-3.9375 C 0.921875,-3.9375 1.390625,-3.9375 1.765625,-4.125 L 1.765625,-0.578125 C 1.765625,-0.34375 1.765625,-0.25 1.078125,-0.25 L 0.8125,-0.25 L 0.8125,0 C 0.9375,0 1.796875,-0.03125 2.046875,-0.03125 C 2.265625,-0.03125 3.140625,0 3.296875,0 L 3.296875,-0.25 L 3.03125,-0.25 C 2.328125,-0.25 2.328125,-0.34375 2.328125,-0.578125 L 2.328125,-4.4375 z"
               id="path16717" />
          </symbol>
        </g>
      </defs>
      <g
         id="textext-219a66d7-4">
        <g
           style="fill:#000000;fill-opacity:1"
           id="g16720">
          <use
             height="141.73228"
             width="386.22046"
             xlink:href="#textext-219a66d7-1"
             x="223.43201"
             y="134.765"
             id="use16722" />
        </g>
        <g
           style="fill:#000000;fill-opacity:1"
           id="g16724">
          <use
             height="141.73228"
             width="386.22046"
             xlink:href="#textext-219a66d7-3"
             x="230.55299"
             y="136.259"
             id="use16726" />
        </g>
      </g>
    </g>
    <g
       id="g17228"
       transform="matrix(0.9805707,0,0,0.9805707,4.2356354,-82.547137)"
       ns0:preamble="/home/raghu/TIFR/Curves-on-rational-and-unirational-surfaces/figures/preample.tex"
       ns0:text="$C_{2}$">
      <defs
         id="defs17230">
        <g
           id="g17232">
          <symbol
             id="textext-eb4b5dca-0"
             overflow="visible">
            <path
               id="path17235"
               d=""
               style="stroke:none;" />
          </symbol>
          <symbol
             id="textext-eb4b5dca-1"
             overflow="visible">
            <path
               id="path17238"
               d="M 7.578125 -6.921875 C 7.578125 -6.953125 7.5625 -7.03125 7.46875 -7.03125 C 7.4375 -7.03125 7.421875 -7.015625 7.3125 -6.90625 L 6.625 -6.140625 C 6.53125 -6.28125 6.078125 -7.03125 4.96875 -7.03125 C 2.734375 -7.03125 0.5 -4.828125 0.5 -2.515625 C 0.5 -0.875 1.671875 0.21875 3.203125 0.21875 C 4.0625 0.21875 4.828125 -0.171875 5.359375 -0.640625 C 6.28125 -1.453125 6.453125 -2.359375 6.453125 -2.390625 C 6.453125 -2.5 6.34375 -2.5 6.328125 -2.5 C 6.265625 -2.5 6.21875 -2.46875 6.203125 -2.390625 C 6.109375 -2.109375 5.875 -1.390625 5.1875 -0.8125 C 4.5 -0.265625 3.875 -0.09375 3.359375 -0.09375 C 2.46875 -0.09375 1.40625 -0.609375 1.40625 -2.15625 C 1.40625 -2.734375 1.609375 -4.34375 2.609375 -5.515625 C 3.21875 -6.21875 4.15625 -6.71875 5.046875 -6.71875 C 6.0625 -6.71875 6.65625 -5.953125 6.65625 -4.796875 C 6.65625 -4.390625 6.625 -4.390625 6.625 -4.28125 C 6.625 -4.1875 6.734375 -4.1875 6.765625 -4.1875 C 6.890625 -4.1875 6.890625 -4.203125 6.953125 -4.390625 L 7.578125 -6.921875 Z M 7.578125 -6.921875 "
               style="stroke:none;" />
          </symbol>
          <symbol
             id="textext-eb4b5dca-2"
             overflow="visible">
            <path
               id="path17241"
               d=""
               style="stroke:none;" />
          </symbol>
          <symbol
             id="textext-eb4b5dca-3"
             overflow="visible">
            <path
               id="path17244"
               d="M 3.515625 -1.265625 L 3.28125 -1.265625 C 3.265625 -1.109375 3.1875 -0.703125 3.09375 -0.640625 C 3.046875 -0.59375 2.515625 -0.59375 2.40625 -0.59375 L 1.125 -0.59375 C 1.859375 -1.234375 2.109375 -1.4375 2.515625 -1.765625 C 3.03125 -2.171875 3.515625 -2.609375 3.515625 -3.265625 C 3.515625 -4.109375 2.78125 -4.625 1.890625 -4.625 C 1.03125 -4.625 0.4375 -4.015625 0.4375 -3.375 C 0.4375 -3.03125 0.734375 -2.984375 0.8125 -2.984375 C 0.96875 -2.984375 1.171875 -3.109375 1.171875 -3.359375 C 1.171875 -3.484375 1.125 -3.734375 0.765625 -3.734375 C 0.984375 -4.21875 1.453125 -4.375 1.78125 -4.375 C 2.484375 -4.375 2.84375 -3.828125 2.84375 -3.265625 C 2.84375 -2.65625 2.40625 -2.1875 2.1875 -1.9375 L 0.515625 -0.265625 C 0.4375 -0.203125 0.4375 -0.1875 0.4375 0 L 3.3125 0 L 3.515625 -1.265625 Z M 3.515625 -1.265625 "
               style="stroke:none;" />
          </symbol>
        </g>
      </defs>
      <g
         id="textext-eb4b5dca-4">
        <g
           id="g17247"
           style="fill:rgb(0%,0%,0%);fill-opacity:1;">
          <use
             id="use17249"
             y="134.765"
             x="223.432"
             xlink:href="#textext-eb4b5dca-1" />
        </g>
        <g
           id="g17251"
           style="fill:rgb(0%,0%,0%);fill-opacity:1;">
          <use
             id="use17253"
             y="136.259"
             x="230.553"
             xlink:href="#textext-eb4b5dca-3" />
        </g>
      </g>
    </g>
    <g
       ns0:text="$T_{2}$"
       ns0:preamble="/home/raghu/TIFR/Curves-on-rational-and-unirational-surfaces/figures/preample.tex"
       transform="matrix(0.9805707,0,0,0.9805707,46.235635,-82.547137)"
       id="g17787">
      <defs
         id="defs17789">
        <g
           id="g17791">
          <symbol
             overflow="visible"
             id="textext-b91a5f8f-0">
            <path
               style="stroke:none;"
               d=""
               id="path17794" />
          </symbol>
          <symbol
             overflow="visible"
             id="textext-b91a5f8f-1">
            <path
               style="stroke:none;"
               d="M 4.25 -6.046875 C 4.328125 -6.328125 4.359375 -6.390625 4.484375 -6.421875 C 4.578125 -6.4375 4.90625 -6.4375 5.109375 -6.4375 C 6.125 -6.4375 6.5625 -6.40625 6.5625 -5.625 C 6.5625 -5.46875 6.53125 -5.078125 6.484375 -4.828125 C 6.484375 -4.78125 6.453125 -4.671875 6.453125 -4.640625 C 6.453125 -4.578125 6.484375 -4.5 6.578125 -4.5 C 6.6875 -4.5 6.703125 -4.578125 6.734375 -4.734375 L 7 -6.46875 C 7.015625 -6.515625 7.015625 -6.609375 7.015625 -6.640625 C 7.015625 -6.75 6.921875 -6.75 6.75 -6.75 L 1.21875 -6.75 C 0.984375 -6.75 0.96875 -6.734375 0.890625 -6.546875 L 0.296875 -4.796875 C 0.296875 -4.78125 0.234375 -4.640625 0.234375 -4.609375 C 0.234375 -4.5625 0.296875 -4.5 0.359375 -4.5 C 0.453125 -4.5 0.46875 -4.5625 0.53125 -4.71875 C 1.0625 -6.265625 1.328125 -6.4375 2.796875 -6.4375 L 3.1875 -6.4375 C 3.46875 -6.4375 3.46875 -6.40625 3.46875 -6.3125 C 3.46875 -6.265625 3.4375 -6.140625 3.421875 -6.109375 L 2.09375 -0.78125 C 2 -0.421875 1.96875 -0.3125 0.90625 -0.3125 C 0.546875 -0.3125 0.484375 -0.3125 0.484375 -0.125 C 0.484375 0 0.59375 0 0.65625 0 C 0.921875 0 1.203125 -0.015625 1.46875 -0.015625 C 1.75 -0.015625 2.046875 -0.03125 2.328125 -0.03125 C 2.609375 -0.03125 2.875 -0.015625 3.15625 -0.015625 C 3.4375 -0.015625 3.734375 0 4.015625 0 C 4.109375 0 4.234375 0 4.234375 -0.203125 C 4.234375 -0.3125 4.15625 -0.3125 3.890625 -0.3125 C 3.65625 -0.3125 3.515625 -0.3125 3.265625 -0.328125 C 2.96875 -0.359375 2.890625 -0.390625 2.890625 -0.546875 C 2.890625 -0.5625 2.890625 -0.609375 2.9375 -0.75 L 4.25 -6.046875 Z M 4.25 -6.046875 "
               id="path17797" />
          </symbol>
          <symbol
             overflow="visible"
             id="textext-b91a5f8f-2">
            <path
               style="stroke:none;"
               d=""
               id="path17800" />
          </symbol>
          <symbol
             overflow="visible"
             id="textext-b91a5f8f-3">
            <path
               style="stroke:none;"
               d="M 3.515625 -1.265625 L 3.28125 -1.265625 C 3.265625 -1.109375 3.1875 -0.703125 3.09375 -0.640625 C 3.046875 -0.59375 2.515625 -0.59375 2.40625 -0.59375 L 1.125 -0.59375 C 1.859375 -1.234375 2.109375 -1.4375 2.515625 -1.765625 C 3.03125 -2.171875 3.515625 -2.609375 3.515625 -3.265625 C 3.515625 -4.109375 2.78125 -4.625 1.890625 -4.625 C 1.03125 -4.625 0.4375 -4.015625 0.4375 -3.375 C 0.4375 -3.03125 0.734375 -2.984375 0.8125 -2.984375 C 0.96875 -2.984375 1.171875 -3.109375 1.171875 -3.359375 C 1.171875 -3.484375 1.125 -3.734375 0.765625 -3.734375 C 0.984375 -4.21875 1.453125 -4.375 1.78125 -4.375 C 2.484375 -4.375 2.84375 -3.828125 2.84375 -3.265625 C 2.84375 -2.65625 2.40625 -2.1875 2.1875 -1.9375 L 0.515625 -0.265625 C 0.4375 -0.203125 0.4375 -0.1875 0.4375 0 L 3.3125 0 L 3.515625 -1.265625 Z M 3.515625 -1.265625 "
               id="path17803" />
          </symbol>
        </g>
      </defs>
      <g
         id="textext-b91a5f8f-4">
        <g
           style="fill:rgb(0%,0%,0%);fill-opacity:1;"
           id="g17806">
          <use
             xlink:href="#textext-b91a5f8f-1"
             x="223.432"
             y="134.765"
             id="use17808" />
        </g>
        <g
           style="fill:rgb(0%,0%,0%);fill-opacity:1;"
           id="g17810">
          <use
             xlink:href="#textext-b91a5f8f-3"
             x="229.254"
             y="136.259"
             id="use17812" />
        </g>
      </g>
    </g>
    <g
       id="g18402"
       transform="translate(100.9773,-70.159842)"
       ns0:preamble="/home/raghu/TIFR/Curves-on-rational-and-unirational-surfaces/figures/preample.tex"
       ns0:text="$q_{1}-1$">
      <defs
         id="defs18404">
        <g
           id="g18406">
          <symbol
             id="textext-b4687445-0"
             overflow="visible">
            <path
               id="path18409"
               d=""
               style="stroke:none;" />
          </symbol>
          <symbol
             id="textext-b4687445-1"
             overflow="visible">
            <path
               id="path18412"
               d="M 4.5 -4.296875 C 4.5 -4.34375 4.46875 -4.390625 4.40625 -4.390625 C 4.296875 -4.390625 3.890625 -4 3.734375 -3.703125 C 3.515625 -4.25 3.125 -4.40625 2.796875 -4.40625 C 1.625 -4.40625 0.40625 -2.9375 0.40625 -1.484375 C 0.40625 -0.515625 0.984375 0.109375 1.71875 0.109375 C 2.140625 0.109375 2.53125 -0.125 2.890625 -0.484375 C 2.796875 -0.140625 2.46875 1.203125 2.4375 1.296875 C 2.359375 1.578125 2.28125 1.609375 1.71875 1.625 C 1.59375 1.625 1.5 1.625 1.5 1.828125 C 1.5 1.828125 1.5 1.9375 1.625 1.9375 C 1.9375 1.9375 2.296875 1.90625 2.625 1.90625 C 2.953125 1.90625 3.3125 1.9375 3.65625 1.9375 C 3.703125 1.9375 3.828125 1.9375 3.828125 1.734375 C 3.828125 1.625 3.734375 1.625 3.5625 1.625 C 3.09375 1.625 3.09375 1.5625 3.09375 1.46875 C 3.09375 1.390625 3.109375 1.328125 3.125 1.25 L 4.5 -4.296875 Z M 1.75 -0.109375 C 1.140625 -0.109375 1.109375 -0.875 1.109375 -1.046875 C 1.109375 -1.53125 1.390625 -2.609375 1.5625 -3.03125 C 1.875 -3.765625 2.390625 -4.1875 2.796875 -4.1875 C 3.453125 -4.1875 3.59375 -3.375 3.59375 -3.3125 C 3.59375 -3.25 3.046875 -1.0625 3.015625 -1.03125 C 2.859375 -0.75 2.296875 -0.109375 1.75 -0.109375 Z M 1.75 -0.109375 "
               style="stroke:none;" />
          </symbol>
          <symbol
             id="textext-b4687445-2"
             overflow="visible">
            <path
               id="path18415"
               d=""
               style="stroke:none;" />
          </symbol>
          <symbol
             id="textext-b4687445-3"
             overflow="visible">
            <path
               id="path18418"
               d="M 2.328125 -4.4375 C 2.328125 -4.625 2.328125 -4.625 2.125 -4.625 C 1.671875 -4.1875 1.046875 -4.1875 0.765625 -4.1875 L 0.765625 -3.9375 C 0.921875 -3.9375 1.390625 -3.9375 1.765625 -4.125 L 1.765625 -0.578125 C 1.765625 -0.34375 1.765625 -0.25 1.078125 -0.25 L 0.8125 -0.25 L 0.8125 0 C 0.9375 0 1.796875 -0.03125 2.046875 -0.03125 C 2.265625 -0.03125 3.140625 0 3.296875 0 L 3.296875 -0.25 L 3.03125 -0.25 C 2.328125 -0.25 2.328125 -0.34375 2.328125 -0.578125 L 2.328125 -4.4375 Z M 2.328125 -4.4375 "
               style="stroke:none;" />
          </symbol>
          <symbol
             id="textext-b4687445-4"
             overflow="visible">
            <path
               id="path18421"
               d=""
               style="stroke:none;" />
          </symbol>
          <symbol
             id="textext-b4687445-5"
             overflow="visible">
            <path
               id="path18424"
               d="M 6.59375 -2.296875 C 6.734375 -2.296875 6.921875 -2.296875 6.921875 -2.5 C 6.921875 -2.6875 6.734375 -2.6875 6.59375 -2.6875 L 1.15625 -2.6875 C 1.015625 -2.6875 0.828125 -2.6875 0.828125 -2.5 C 0.828125 -2.296875 1.015625 -2.296875 1.15625 -2.296875 L 6.59375 -2.296875 Z M 6.59375 -2.296875 "
               style="stroke:none;" />
          </symbol>
          <symbol
             id="textext-b4687445-6"
             overflow="visible">
            <path
               id="path18427"
               d=""
               style="stroke:none;" />
          </symbol>
          <symbol
             id="textext-b4687445-7"
             overflow="visible">
            <path
               id="path18430"
               d="M 2.9375 -6.375 C 2.9375 -6.625 2.9375 -6.640625 2.703125 -6.640625 C 2.078125 -6 1.203125 -6 0.890625 -6 L 0.890625 -5.6875 C 1.09375 -5.6875 1.671875 -5.6875 2.1875 -5.953125 L 2.1875 -0.78125 C 2.1875 -0.421875 2.15625 -0.3125 1.265625 -0.3125 L 0.953125 -0.3125 L 0.953125 0 C 1.296875 -0.03125 2.15625 -0.03125 2.5625 -0.03125 C 2.953125 -0.03125 3.828125 -0.03125 4.171875 0 L 4.171875 -0.3125 L 3.859375 -0.3125 C 2.953125 -0.3125 2.9375 -0.421875 2.9375 -0.78125 L 2.9375 -6.375 Z M 2.9375 -6.375 "
               style="stroke:none;" />
          </symbol>
        </g>
      </defs>
      <g
         id="textext-b4687445-8">
        <g
           id="g18433"
           style="fill:rgb(0%,0%,0%);fill-opacity:1;">
          <use
             id="use18435"
             y="134.765"
             x="223.432"
             xlink:href="#textext-b4687445-1" />
        </g>
        <g
           id="g18437"
           style="fill:rgb(0%,0%,0%);fill-opacity:1;">
          <use
             id="use18439"
             y="136.259"
             x="227.88"
             xlink:href="#textext-b4687445-3" />
        </g>
        <g
           id="g18441"
           style="fill:rgb(0%,0%,0%);fill-opacity:1;">
          <use
             id="use18443"
             y="134.765"
             x="234.563"
             xlink:href="#textext-b4687445-5" />
        </g>
        <g
           id="g18445"
           style="fill:rgb(0%,0%,0%);fill-opacity:1;">
          <use
             id="use18447"
             y="134.765"
             x="244.525"
             xlink:href="#textext-b4687445-7" />
        </g>
      </g>
    </g>
    <g
       transform="translate(16.877837,-53.926749)"
       ns0:text="$-1$"
       ns0:preamble="/home/raghu/TIFR/Curves-on-rational-and-unirational-surfaces/figures/preample.tex"
       id="g19037">
      <defs
         id="defs19039">
        <g
           id="g19041">
          <symbol
             style="overflow:visible"
             overflow="visible"
             id="symbol19043">
            <path
               style="stroke:none"
               d=""
               id="path19045" />
          </symbol>
          <symbol
             style="overflow:visible"
             overflow="visible"
             id="symbol19047">
            <path
               style="stroke:none"
               d="M 6.59375,-2.296875 C 6.734375,-2.296875 6.921875,-2.296875 6.921875,-2.5 C 6.921875,-2.6875 6.734375,-2.6875 6.59375,-2.6875 L 1.15625,-2.6875 C 1.015625,-2.6875 0.828125,-2.6875 0.828125,-2.5 C 0.828125,-2.296875 1.015625,-2.296875 1.15625,-2.296875 L 6.59375,-2.296875 z"
               id="path19049" />
          </symbol>
          <symbol
             style="overflow:visible"
             overflow="visible"
             id="symbol19051">
            <path
               style="stroke:none"
               d=""
               id="path19053" />
          </symbol>
          <symbol
             style="overflow:visible"
             overflow="visible"
             id="symbol19055">
            <path
               style="stroke:none"
               d="M 2.9375,-6.375 C 2.9375,-6.625 2.9375,-6.640625 2.703125,-6.640625 C 2.078125,-6 1.203125,-6 0.890625,-6 L 0.890625,-5.6875 C 1.09375,-5.6875 1.671875,-5.6875 2.1875,-5.953125 L 2.1875,-0.78125 C 2.1875,-0.421875 2.15625,-0.3125 1.265625,-0.3125 L 0.953125,-0.3125 L 0.953125,0 C 1.296875,-0.03125 2.15625,-0.03125 2.5625,-0.03125 C 2.953125,-0.03125 3.828125,-0.03125 4.171875,0 L 4.171875,-0.3125 L 3.859375,-0.3125 C 2.953125,-0.3125 2.9375,-0.421875 2.9375,-0.78125 L 2.9375,-6.375 z"
               id="path19057" />
          </symbol>
        </g>
      </defs>
      <g
         id="g19059">
        <g
           style="fill:#000000;fill-opacity:1"
           id="g19061">
          <use
             height="141.73228"
             width="386.22046"
             xlink:href="#textext-841a25ce-1"
             x="223.43201"
             y="134.765"
             id="use19063" />
        </g>
        <g
           style="fill:#000000;fill-opacity:1"
           id="g19065">
          <use
             height="141.73228"
             width="386.22046"
             xlink:href="#textext-841a25ce-3"
             x="231.181"
             y="134.765"
             id="use19067" />
        </g>
      </g>
    </g>
    <g
       id="g19721"
       transform="translate(45.289492,-54.338404)"
       ns0:preamble="/home/raghu/TIFR/Curves-on-rational-and-unirational-surfaces/figures/preample.tex"
       ns0:text="$S_{2}$">
      <defs
         id="defs19723">
        <g
           id="g19725">
          <symbol
             id="textext-c2e92fca-0"
             overflow="visible"
             style="overflow:visible">
            <path
               id="path19728"
               d=""
               style="stroke:none" />
          </symbol>
          <symbol
             id="textext-c2e92fca-1"
             overflow="visible"
             style="overflow:visible">
            <path
               id="path19731"
               d="M 6.4375,-6.921875 C 6.4375,-6.953125 6.40625,-7.03125 6.3125,-7.03125 C 6.265625,-7.03125 6.265625,-7.015625 6.140625,-6.875 L 5.65625,-6.3125 C 5.40625,-6.78125 4.890625,-7.03125 4.234375,-7.03125 C 2.96875,-7.03125 1.78125,-5.875 1.78125,-4.671875 C 1.78125,-3.875 2.296875,-3.40625 2.8125,-3.265625 L 3.875,-2.984375 C 4.25,-2.890625 4.796875,-2.734375 4.796875,-1.921875 C 4.796875,-1.03125 3.984375,-0.09375 3,-0.09375 C 2.359375,-0.09375 1.25,-0.3125 1.25,-1.546875 C 1.25,-1.78125 1.3125,-2.03125 1.3125,-2.078125 C 1.328125,-2.125 1.328125,-2.140625 1.328125,-2.15625 C 1.328125,-2.25 1.265625,-2.265625 1.21875,-2.265625 C 1.171875,-2.265625 1.140625,-2.25 1.109375,-2.21875 C 1.078125,-2.1875 0.515625,0.09375 0.515625,0.125 C 0.515625,0.171875 0.5625,0.21875 0.625,0.21875 C 0.671875,0.21875 0.6875,0.203125 0.8125,0.0625 L 1.296875,-0.5 C 1.71875,0.078125 2.40625,0.21875 2.984375,0.21875 C 4.34375,0.21875 5.515625,-1.109375 5.515625,-2.34375 C 5.515625,-3.03125 5.171875,-3.375 5.03125,-3.515625 C 4.796875,-3.734375 4.640625,-3.78125 3.765625,-4 C 3.53125,-4.0625 3.1875,-4.171875 3.09375,-4.1875 C 2.828125,-4.28125 2.484375,-4.5625 2.484375,-5.09375 C 2.484375,-5.90625 3.28125,-6.75 4.234375,-6.75 C 5.046875,-6.75 5.65625,-6.3125 5.65625,-5.203125 C 5.65625,-4.890625 5.625,-4.703125 5.625,-4.640625 C 5.625,-4.640625 5.625,-4.546875 5.734375,-4.546875 C 5.84375,-4.546875 5.859375,-4.578125 5.890625,-4.75 L 6.4375,-6.921875 z"
               style="stroke:none" />
          </symbol>
          <symbol
             id="textext-c2e92fca-2"
             overflow="visible"
             style="overflow:visible">
            <path
               id="path19734"
               d=""
               style="stroke:none" />
          </symbol>
          <symbol
             id="textext-c2e92fca-3"
             overflow="visible"
             style="overflow:visible">
            <path
               id="path19737"
               d="M 3.515625,-1.265625 L 3.28125,-1.265625 C 3.265625,-1.109375 3.1875,-0.703125 3.09375,-0.640625 C 3.046875,-0.59375 2.515625,-0.59375 2.40625,-0.59375 L 1.125,-0.59375 C 1.859375,-1.234375 2.109375,-1.4375 2.515625,-1.765625 C 3.03125,-2.171875 3.515625,-2.609375 3.515625,-3.265625 C 3.515625,-4.109375 2.78125,-4.625 1.890625,-4.625 C 1.03125,-4.625 0.4375,-4.015625 0.4375,-3.375 C 0.4375,-3.03125 0.734375,-2.984375 0.8125,-2.984375 C 0.96875,-2.984375 1.171875,-3.109375 1.171875,-3.359375 C 1.171875,-3.484375 1.125,-3.734375 0.765625,-3.734375 C 0.984375,-4.21875 1.453125,-4.375 1.78125,-4.375 C 2.484375,-4.375 2.84375,-3.828125 2.84375,-3.265625 C 2.84375,-2.65625 2.40625,-2.1875 2.1875,-1.9375 L 0.515625,-0.265625 C 0.4375,-0.203125 0.4375,-0.1875 0.4375,0 L 3.3125,0 L 3.515625,-1.265625 z"
               style="stroke:none" />
          </symbol>
        </g>
      </defs>
      <g
         id="textext-c2e92fca-4">
        <g
           id="g19740"
           style="fill:#000000;fill-opacity:1">
          <use
             id="use19742"
             y="134.765"
             x="223.43201"
             xlink:href="#textext-c2e92fca-1"
             width="386.22046"
             height="141.73228" />
        </g>
        <g
           id="g19744"
           style="fill:#000000;fill-opacity:1">
          <use
             id="use19746"
             y="136.259"
             x="229.541"
             xlink:href="#textext-c2e92fca-3"
             width="386.22046"
             height="141.73228" />
        </g>
      </g>
    </g>
  </g>
</svg>
