<?xml version="1.0" encoding="UTF-8" standalone="no"?>
<!-- Created with Inkscape (http://www.inkscape.org/) -->
<svg
   xmlns:ns0="http://www.iki.fi/pav/software/textext/"
   xmlns:dc="http://purl.org/dc/elements/1.1/"
   xmlns:cc="http://creativecommons.org/ns#"
   xmlns:rdf="http://www.w3.org/1999/02/22-rdf-syntax-ns#"
   xmlns:svg="http://www.w3.org/2000/svg"
   xmlns="http://www.w3.org/2000/svg"
   xmlns:xlink="http://www.w3.org/1999/xlink"
   xmlns:sodipodi="http://sodipodi.sourceforge.net/DTD/sodipodi-0.dtd"
   xmlns:inkscape="http://www.inkscape.org/namespaces/inkscape"
   width="379.13385"
   height="283.46457"
   id="svg2"
   sodipodi:version="0.32"
   inkscape:version="0.46"
   version="1.0"
   sodipodi:docname="chap2-fig35.svg"
   inkscape:output_extension="org.inkscape.output.svg.inkscape">
  <sodipodi:namedview
     id="base"
     pagecolor="#ffffff"
     bordercolor="#666666"
     borderopacity="1.0"
     gridtolerance="10000"
     guidetolerance="10"
     objecttolerance="10"
     inkscape:pageopacity="0.0"
     inkscape:pageshadow="2"
     inkscape:zoom="3.4354376"
     inkscape:cx="136.66428"
     inkscape:cy="148.67976"
     inkscape:document-units="px"
     inkscape:current-layer="layer1"
     showgrid="false"
     units="cm"
     inkscape:window-width="1009"
     inkscape:window-height="726"
     inkscape:window-x="5"
     inkscape:window-y="27" />
  <defs
     id="defs4">
    <inkscape:perspective
       sodipodi:type="inkscape:persp3d"
       inkscape:vp_x="0 : 526.18109 : 1"
       inkscape:vp_y="0 : 1000 : 0"
       inkscape:vp_z="744.09448 : 526.18109 : 1"
       inkscape:persp3d-origin="372.04724 : 350.78739 : 1"
       id="perspective10" />
  </defs>
  <metadata
     id="metadata7">
    <rdf:RDF>
      <cc:Work
         rdf:about="">
        <dc:format>image/svg+xml</dc:format>
        <dc:type
           rdf:resource="http://purl.org/dc/dcmitype/StillImage" />
      </cc:Work>
    </rdf:RDF>
  </metadata>
  <g
     inkscape:label="Layer 1"
     inkscape:groupmode="layer"
     id="layer1">
    <path
       transform="matrix(-1,0,0,1,142.56182,-0.2720409)"
       d="M 110.44859,101.60526 A 2.5843883,2.5843883 0 1 1 105.27981,101.60526 A 2.5843883,2.5843883 0 1 1 110.44859,101.60526 z"
       sodipodi:ry="2.5843883"
       sodipodi:rx="2.5843883"
       sodipodi:cy="101.60526"
       sodipodi:cx="107.8642"
       id="path176558"
       style="opacity:1;fill:#ffffff;fill-opacity:1;fill-rule:evenodd;stroke:#000000;stroke-width:1px;stroke-linecap:butt;stroke-linejoin:miter;marker:none;marker-start:none;marker-mid:none;marker-end:none;stroke-miterlimit:4;stroke-dasharray:none;stroke-dashoffset:0;stroke-opacity:1;visibility:visible;display:inline;overflow:visible;enable-background:accumulate"
       sodipodi:type="arc" />
    <path
       style="fill:none;fill-rule:evenodd;stroke:#000000;stroke-width:1;stroke-linecap:butt;stroke-linejoin:miter;stroke-miterlimit:4;stroke-dasharray:none;stroke-opacity:1"
       d="M 68.684178,101.33847 L 37.306485,101.33847"
       id="path176562" />
    <path
       sodipodi:type="arc"
       style="opacity:1;fill:#ffffff;fill-opacity:1;fill-rule:evenodd;stroke:#000000;stroke-width:1px;stroke-linecap:butt;stroke-linejoin:miter;marker:none;marker-start:none;marker-mid:none;marker-end:none;stroke-miterlimit:4;stroke-dasharray:none;stroke-dashoffset:0;stroke-opacity:1;visibility:visible;display:inline;overflow:visible;enable-background:accumulate"
       id="path176564"
       sodipodi:cx="107.8642"
       sodipodi:cy="101.60526"
       sodipodi:rx="2.5843883"
       sodipodi:ry="2.5843883"
       d="M 110.44859,101.60526 A 2.5843883,2.5843883 0 1 1 105.27981,101.60526 A 2.5843883,2.5843883 0 1 1 110.44859,101.60526 z"
       transform="matrix(-1,0,0,1,230.56182,-0.2720409)" />
    <path
       transform="matrix(-1,0,0,1,266.8529,-0.2720409)"
       d="M 110.44859,101.60526 A 2.5843883,2.5843883 0 1 1 105.27981,101.60526 A 2.5843883,2.5843883 0 1 1 110.44859,101.60526 z"
       sodipodi:ry="2.5843883"
       sodipodi:rx="2.5843883"
       sodipodi:cy="101.60526"
       sodipodi:cx="107.8642"
       id="path176568"
       style="opacity:1;fill:#ffffff;fill-opacity:1;fill-rule:evenodd;stroke:#000000;stroke-width:1px;stroke-linecap:butt;stroke-linejoin:miter;marker:none;marker-start:none;marker-mid:none;marker-end:none;stroke-miterlimit:4;stroke-dasharray:none;stroke-dashoffset:0;stroke-opacity:1;visibility:visible;display:inline;overflow:visible;enable-background:accumulate"
       sodipodi:type="arc" />
    <path
       transform="matrix(-1,0,0,1,355.9421,-0.2720409)"
       d="M 110.44859,101.60526 A 2.5843883,2.5843883 0 1 1 105.27981,101.60526 A 2.5843883,2.5843883 0 1 1 110.44859,101.60526 z"
       sodipodi:ry="2.5843883"
       sodipodi:rx="2.5843883"
       sodipodi:cy="101.60526"
       sodipodi:cx="107.8642"
       id="path176574"
       style="opacity:1;fill:#ffffff;fill-opacity:1;fill-rule:evenodd;stroke:#000000;stroke-width:1px;stroke-linecap:butt;stroke-linejoin:miter;marker:none;marker-start:none;marker-mid:none;marker-end:none;stroke-miterlimit:4;stroke-dasharray:none;stroke-dashoffset:0;stroke-opacity:1;visibility:visible;display:inline;overflow:visible;enable-background:accumulate"
       sodipodi:type="arc" />
    <path
       id="path185550"
       d="M 120.68418,101.33847 L 89.306485,101.33847"
       style="fill:none;fill-rule:evenodd;stroke:#000000;stroke-width:1;stroke-linecap:butt;stroke-linejoin:miter;stroke-miterlimit:4;stroke-dasharray:none;stroke-opacity:1" />
    <path
       style="fill:none;fill-rule:evenodd;stroke:#000000;stroke-width:1;stroke-linecap:butt;stroke-linejoin:miter;stroke-miterlimit:4;stroke-dasharray:none;stroke-opacity:1"
       d="M 156.68418,101.33847 L 125.30648,101.33847"
       id="path185552" />
    <path
       id="path185554"
       d="M 192.68418,101.33847 L 161.30648,101.33847"
       style="fill:none;fill-rule:evenodd;stroke:#000000;stroke-width:1;stroke-linecap:butt;stroke-linejoin:miter;stroke-miterlimit:4;stroke-dasharray:none;stroke-opacity:1" />
    <path
       style="fill:none;fill-rule:evenodd;stroke:#000000;stroke-width:1;stroke-linecap:butt;stroke-linejoin:miter;stroke-miterlimit:4;stroke-dasharray:none;stroke-opacity:1"
       d="M 246.06446,101.33847 L 214.68676,101.33847"
       id="path185556" />
    <g
       transform="translate(-149.32595,-29.981624)"
       ns0:text="$G_{1}$"
       ns0:preamble="/home/raghu/TIFR/Curves-on-rational-and-unirational-surfaces/figures/preample.tex"
       id="g185574">
      <defs
         id="defs185576">
        <g
           id="g185578">
          <symbol
             style="overflow:visible"
             overflow="visible"
             id="textext-201620e3-0">
            <path
               style="stroke:none"
               d=""
               id="path185581" />
          </symbol>
          <symbol
             style="overflow:visible"
             overflow="visible"
             id="textext-201620e3-1">
            <path
               style="stroke:none"
               d="M 7.578125,-6.921875 C 7.578125,-6.953125 7.5625,-7.03125 7.46875,-7.03125 C 7.4375,-7.03125 7.421875,-7.015625 7.3125,-6.90625 L 6.625,-6.140625 C 6.53125,-6.28125 6.078125,-7.03125 4.96875,-7.03125 C 2.734375,-7.03125 0.5,-4.828125 0.5,-2.515625 C 0.5,-0.921875 1.609375,0.21875 3.21875,0.21875 C 3.65625,0.21875 4.109375,0.125 4.46875,-0.015625 C 4.96875,-0.21875 5.15625,-0.421875 5.328125,-0.625 C 5.421875,-0.375 5.6875,-0.015625 5.78125,-0.015625 C 5.828125,-0.015625 5.859375,-0.046875 5.859375,-0.046875 C 5.875,-0.0625 5.96875,-0.453125 6.015625,-0.65625 L 6.203125,-1.421875 C 6.25,-1.59375 6.296875,-1.765625 6.34375,-1.9375 C 6.453125,-2.375 6.453125,-2.40625 7.03125,-2.40625 C 7.078125,-2.40625 7.1875,-2.421875 7.1875,-2.609375 C 7.1875,-2.6875 7.140625,-2.71875 7.0625,-2.71875 C 6.828125,-2.71875 6.234375,-2.6875 6.015625,-2.6875 C 5.703125,-2.6875 4.921875,-2.71875 4.609375,-2.71875 C 4.53125,-2.71875 4.40625,-2.71875 4.40625,-2.515625 C 4.40625,-2.40625 4.484375,-2.40625 4.703125,-2.40625 C 4.71875,-2.40625 5,-2.40625 5.234375,-2.390625 C 5.5,-2.359375 5.546875,-2.328125 5.546875,-2.203125 C 5.546875,-2.109375 5.4375,-1.671875 5.328125,-1.296875 C 5.046875,-0.203125 3.765625,-0.09375 3.40625,-0.09375 C 2.453125,-0.09375 1.40625,-0.65625 1.40625,-2.1875 C 1.40625,-2.5 1.5,-4.140625 2.546875,-5.4375 C 3.09375,-6.109375 4.0625,-6.71875 5.046875,-6.71875 C 6.0625,-6.71875 6.65625,-5.953125 6.65625,-4.796875 C 6.65625,-4.390625 6.625,-4.390625 6.625,-4.28125 C 6.625,-4.1875 6.734375,-4.1875 6.765625,-4.1875 C 6.890625,-4.1875 6.890625,-4.203125 6.953125,-4.390625 L 7.578125,-6.921875 z"
               id="path185584" />
          </symbol>
          <symbol
             style="overflow:visible"
             overflow="visible"
             id="textext-201620e3-2">
            <path
               style="stroke:none"
               d=""
               id="path185587" />
          </symbol>
          <symbol
             style="overflow:visible"
             overflow="visible"
             id="textext-201620e3-3">
            <path
               style="stroke:none"
               d="M 2.328125,-4.4375 C 2.328125,-4.625 2.328125,-4.625 2.125,-4.625 C 1.671875,-4.1875 1.046875,-4.1875 0.765625,-4.1875 L 0.765625,-3.9375 C 0.921875,-3.9375 1.390625,-3.9375 1.765625,-4.125 L 1.765625,-0.578125 C 1.765625,-0.34375 1.765625,-0.25 1.078125,-0.25 L 0.8125,-0.25 L 0.8125,0 C 0.9375,0 1.796875,-0.03125 2.046875,-0.03125 C 2.265625,-0.03125 3.140625,0 3.296875,0 L 3.296875,-0.25 L 3.03125,-0.25 C 2.328125,-0.25 2.328125,-0.34375 2.328125,-0.578125 L 2.328125,-4.4375 z"
               id="path185590" />
          </symbol>
        </g>
      </defs>
      <g
         id="textext-201620e3-4">
        <g
           style="fill:#000000;fill-opacity:1"
           id="g185593">
          <use
             height="283.46457"
             width="379.13385"
             xlink:href="#textext-201620e3-1"
             x="223.43201"
             y="134.765"
             id="use185595" />
        </g>
        <g
           style="fill:#000000;fill-opacity:1"
           id="g185597">
          <use
             height="283.46457"
             width="379.13385"
             xlink:href="#textext-201620e3-3"
             x="231.265"
             y="136.259"
             id="use185599" />
        </g>
      </g>
    </g>
    <g
       id="g185631"
       ns0:preamble="/home/raghu/TIFR/Curves-on-rational-and-unirational-surfaces/figures/preample.tex"
       ns0:text="$G_{1}$"
       transform="translate(-25.363536,-30.272708)">
      <defs
         id="defs185633">
        <g
           id="g185635">
          <symbol
             id="symbol185637"
             overflow="visible"
             style="overflow:visible">
            <path
               id="path185639"
               d=""
               style="stroke:none" />
          </symbol>
          <symbol
             id="symbol185641"
             overflow="visible"
             style="overflow:visible">
            <path
               id="path185643"
               d="M 7.578125,-6.921875 C 7.578125,-6.953125 7.5625,-7.03125 7.46875,-7.03125 C 7.4375,-7.03125 7.421875,-7.015625 7.3125,-6.90625 L 6.625,-6.140625 C 6.53125,-6.28125 6.078125,-7.03125 4.96875,-7.03125 C 2.734375,-7.03125 0.5,-4.828125 0.5,-2.515625 C 0.5,-0.921875 1.609375,0.21875 3.21875,0.21875 C 3.65625,0.21875 4.109375,0.125 4.46875,-0.015625 C 4.96875,-0.21875 5.15625,-0.421875 5.328125,-0.625 C 5.421875,-0.375 5.6875,-0.015625 5.78125,-0.015625 C 5.828125,-0.015625 5.859375,-0.046875 5.859375,-0.046875 C 5.875,-0.0625 5.96875,-0.453125 6.015625,-0.65625 L 6.203125,-1.421875 C 6.25,-1.59375 6.296875,-1.765625 6.34375,-1.9375 C 6.453125,-2.375 6.453125,-2.40625 7.03125,-2.40625 C 7.078125,-2.40625 7.1875,-2.421875 7.1875,-2.609375 C 7.1875,-2.6875 7.140625,-2.71875 7.0625,-2.71875 C 6.828125,-2.71875 6.234375,-2.6875 6.015625,-2.6875 C 5.703125,-2.6875 4.921875,-2.71875 4.609375,-2.71875 C 4.53125,-2.71875 4.40625,-2.71875 4.40625,-2.515625 C 4.40625,-2.40625 4.484375,-2.40625 4.703125,-2.40625 C 4.71875,-2.40625 5,-2.40625 5.234375,-2.390625 C 5.5,-2.359375 5.546875,-2.328125 5.546875,-2.203125 C 5.546875,-2.109375 5.4375,-1.671875 5.328125,-1.296875 C 5.046875,-0.203125 3.765625,-0.09375 3.40625,-0.09375 C 2.453125,-0.09375 1.40625,-0.65625 1.40625,-2.1875 C 1.40625,-2.5 1.5,-4.140625 2.546875,-5.4375 C 3.09375,-6.109375 4.0625,-6.71875 5.046875,-6.71875 C 6.0625,-6.71875 6.65625,-5.953125 6.65625,-4.796875 C 6.65625,-4.390625 6.625,-4.390625 6.625,-4.28125 C 6.625,-4.1875 6.734375,-4.1875 6.765625,-4.1875 C 6.890625,-4.1875 6.890625,-4.203125 6.953125,-4.390625 L 7.578125,-6.921875 z"
               style="stroke:none" />
          </symbol>
          <symbol
             id="symbol185645"
             overflow="visible"
             style="overflow:visible">
            <path
               id="path185647"
               d=""
               style="stroke:none" />
          </symbol>
          <symbol
             id="symbol185649"
             overflow="visible"
             style="overflow:visible">
            <path
               id="path185651"
               d="M 2.328125,-4.4375 C 2.328125,-4.625 2.328125,-4.625 2.125,-4.625 C 1.671875,-4.1875 1.046875,-4.1875 0.765625,-4.1875 L 0.765625,-3.9375 C 0.921875,-3.9375 1.390625,-3.9375 1.765625,-4.125 L 1.765625,-0.578125 C 1.765625,-0.34375 1.765625,-0.25 1.078125,-0.25 L 0.8125,-0.25 L 0.8125,0 C 0.9375,0 1.796875,-0.03125 2.046875,-0.03125 C 2.265625,-0.03125 3.140625,0 3.296875,0 L 3.296875,-0.25 L 3.03125,-0.25 C 2.328125,-0.25 2.328125,-0.34375 2.328125,-0.578125 L 2.328125,-4.4375 z"
               style="stroke:none" />
          </symbol>
        </g>
      </defs>
      <g
         id="g185653">
        <g
           id="g185655"
           style="fill:#000000;fill-opacity:1">
          <use
             id="use185657"
             y="134.765"
             x="223.43201"
             xlink:href="#textext-201620e3-1"
             width="379.13385"
             height="283.46457" />
        </g>
        <g
           id="g185659"
           style="fill:#000000;fill-opacity:1">
          <use
             id="use185661"
             y="136.259"
             x="231.265"
             xlink:href="#textext-201620e3-3"
             width="379.13385"
             height="283.46457" />
        </g>
      </g>
    </g>
    <g
       id="g185711"
       ns0:preamble="/home/raghu/TIFR/Curves-on-rational-and-unirational-surfaces/figures/preample.tex"
       ns0:text="$-1$"
       transform="translate(-195.31718,-40.169556)">
      <defs
         id="defs185713">
        <g
           id="g185715">
          <symbol
             id="textext-841a25ce-0"
             overflow="visible"
             style="overflow:visible">
            <path
               id="path185718"
               d=""
               style="stroke:none" />
          </symbol>
          <symbol
             id="textext-841a25ce-1"
             overflow="visible"
             style="overflow:visible">
            <path
               id="path185721"
               d="M 6.59375,-2.296875 C 6.734375,-2.296875 6.921875,-2.296875 6.921875,-2.5 C 6.921875,-2.6875 6.734375,-2.6875 6.59375,-2.6875 L 1.15625,-2.6875 C 1.015625,-2.6875 0.828125,-2.6875 0.828125,-2.5 C 0.828125,-2.296875 1.015625,-2.296875 1.15625,-2.296875 L 6.59375,-2.296875 z"
               style="stroke:none" />
          </symbol>
          <symbol
             id="textext-841a25ce-2"
             overflow="visible"
             style="overflow:visible">
            <path
               id="path185724"
               d=""
               style="stroke:none" />
          </symbol>
          <symbol
             id="textext-841a25ce-3"
             overflow="visible"
             style="overflow:visible">
            <path
               id="path185727"
               d="M 2.9375,-6.375 C 2.9375,-6.625 2.9375,-6.640625 2.703125,-6.640625 C 2.078125,-6 1.203125,-6 0.890625,-6 L 0.890625,-5.6875 C 1.09375,-5.6875 1.671875,-5.6875 2.1875,-5.953125 L 2.1875,-0.78125 C 2.1875,-0.421875 2.15625,-0.3125 1.265625,-0.3125 L 0.953125,-0.3125 L 0.953125,0 C 1.296875,-0.03125 2.15625,-0.03125 2.5625,-0.03125 C 2.953125,-0.03125 3.828125,-0.03125 4.171875,0 L 4.171875,-0.3125 L 3.859375,-0.3125 C 2.953125,-0.3125 2.9375,-0.421875 2.9375,-0.78125 L 2.9375,-6.375 z"
               style="stroke:none" />
          </symbol>
        </g>
      </defs>
      <g
         id="textext-841a25ce-4">
        <g
           id="g185730"
           style="fill:#000000;fill-opacity:1">
          <use
             id="use185732"
             y="134.765"
             x="223.43201"
             xlink:href="#textext-841a25ce-1"
             width="379.13385"
             height="283.46457" />
        </g>
        <g
           id="g185734"
           style="fill:#000000;fill-opacity:1">
          <use
             id="use185736"
             y="134.765"
             x="231.181"
             xlink:href="#textext-841a25ce-3"
             width="379.13385"
             height="283.46457" />
        </g>
      </g>
    </g>
    <g
       ns0:text="$S_{1}$"
       ns0:preamble="/home/raghu/TIFR/Curves-on-rational-and-unirational-surfaces/figures/preample.tex"
       transform="translate(-193.89934,-19.587388)"
       id="g185896">
      <defs
         id="defs185898">
        <g
           id="g185900">
          <symbol
             style="overflow:visible"
             overflow="visible"
             id="textext-8374d325-0">
            <path
               style="stroke:none"
               d=""
               id="path185903" />
          </symbol>
          <symbol
             style="overflow:visible"
             overflow="visible"
             id="textext-8374d325-1">
            <path
               style="stroke:none"
               d="M 6.4375,-6.921875 C 6.4375,-6.953125 6.40625,-7.03125 6.3125,-7.03125 C 6.265625,-7.03125 6.265625,-7.015625 6.140625,-6.875 L 5.65625,-6.3125 C 5.40625,-6.78125 4.890625,-7.03125 4.234375,-7.03125 C 2.96875,-7.03125 1.78125,-5.875 1.78125,-4.671875 C 1.78125,-3.875 2.296875,-3.40625 2.8125,-3.265625 L 3.875,-2.984375 C 4.25,-2.890625 4.796875,-2.734375 4.796875,-1.921875 C 4.796875,-1.03125 3.984375,-0.09375 3,-0.09375 C 2.359375,-0.09375 1.25,-0.3125 1.25,-1.546875 C 1.25,-1.78125 1.3125,-2.03125 1.3125,-2.078125 C 1.328125,-2.125 1.328125,-2.140625 1.328125,-2.15625 C 1.328125,-2.25 1.265625,-2.265625 1.21875,-2.265625 C 1.171875,-2.265625 1.140625,-2.25 1.109375,-2.21875 C 1.078125,-2.1875 0.515625,0.09375 0.515625,0.125 C 0.515625,0.171875 0.5625,0.21875 0.625,0.21875 C 0.671875,0.21875 0.6875,0.203125 0.8125,0.0625 L 1.296875,-0.5 C 1.71875,0.078125 2.40625,0.21875 2.984375,0.21875 C 4.34375,0.21875 5.515625,-1.109375 5.515625,-2.34375 C 5.515625,-3.03125 5.171875,-3.375 5.03125,-3.515625 C 4.796875,-3.734375 4.640625,-3.78125 3.765625,-4 C 3.53125,-4.0625 3.1875,-4.171875 3.09375,-4.1875 C 2.828125,-4.28125 2.484375,-4.5625 2.484375,-5.09375 C 2.484375,-5.90625 3.28125,-6.75 4.234375,-6.75 C 5.046875,-6.75 5.65625,-6.3125 5.65625,-5.203125 C 5.65625,-4.890625 5.625,-4.703125 5.625,-4.640625 C 5.625,-4.640625 5.625,-4.546875 5.734375,-4.546875 C 5.84375,-4.546875 5.859375,-4.578125 5.890625,-4.75 L 6.4375,-6.921875 z"
               id="path185906" />
          </symbol>
          <symbol
             style="overflow:visible"
             overflow="visible"
             id="textext-8374d325-2">
            <path
               style="stroke:none"
               d=""
               id="path185909" />
          </symbol>
          <symbol
             style="overflow:visible"
             overflow="visible"
             id="textext-8374d325-3">
            <path
               style="stroke:none"
               d="M 2.328125,-4.4375 C 2.328125,-4.625 2.328125,-4.625 2.125,-4.625 C 1.671875,-4.1875 1.046875,-4.1875 0.765625,-4.1875 L 0.765625,-3.9375 C 0.921875,-3.9375 1.390625,-3.9375 1.765625,-4.125 L 1.765625,-0.578125 C 1.765625,-0.34375 1.765625,-0.25 1.078125,-0.25 L 0.8125,-0.25 L 0.8125,0 C 0.9375,0 1.796875,-0.03125 2.046875,-0.03125 C 2.265625,-0.03125 3.140625,0 3.296875,0 L 3.296875,-0.25 L 3.03125,-0.25 C 2.328125,-0.25 2.328125,-0.34375 2.328125,-0.578125 L 2.328125,-4.4375 z"
               id="path185912" />
          </symbol>
        </g>
      </defs>
      <g
         id="textext-8374d325-4">
        <g
           style="fill:#000000;fill-opacity:1"
           id="g185915">
          <use
             height="283.46457"
             width="379.13385"
             xlink:href="#textext-8374d325-1"
             x="223.43201"
             y="134.765"
             id="use185917" />
        </g>
        <g
           style="fill:#000000;fill-opacity:1"
           id="g185919">
          <use
             height="283.46457"
             width="379.13385"
             xlink:href="#textext-8374d325-3"
             x="229.541"
             y="136.259"
             id="use185921" />
        </g>
      </g>
    </g>
    <g
       id="g186113"
       transform="translate(-106.19042,-19.587388)"
       ns0:preamble="/home/raghu/TIFR/Curves-on-rational-and-unirational-surfaces/figures/preample.tex"
       ns0:text="$C_{1}$">
      <defs
         id="defs186115">
        <g
           id="g186117">
          <symbol
             id="textext-219a66d7-0"
             overflow="visible">
            <path
               id="path186120"
               d=""
               style="stroke:none;" />
          </symbol>
          <symbol
             id="textext-219a66d7-1"
             overflow="visible">
            <path
               id="path186123"
               d="M 7.578125 -6.921875 C 7.578125 -6.953125 7.5625 -7.03125 7.46875 -7.03125 C 7.4375 -7.03125 7.421875 -7.015625 7.3125 -6.90625 L 6.625 -6.140625 C 6.53125 -6.28125 6.078125 -7.03125 4.96875 -7.03125 C 2.734375 -7.03125 0.5 -4.828125 0.5 -2.515625 C 0.5 -0.875 1.671875 0.21875 3.203125 0.21875 C 4.0625 0.21875 4.828125 -0.171875 5.359375 -0.640625 C 6.28125 -1.453125 6.453125 -2.359375 6.453125 -2.390625 C 6.453125 -2.5 6.34375 -2.5 6.328125 -2.5 C 6.265625 -2.5 6.21875 -2.46875 6.203125 -2.390625 C 6.109375 -2.109375 5.875 -1.390625 5.1875 -0.8125 C 4.5 -0.265625 3.875 -0.09375 3.359375 -0.09375 C 2.46875 -0.09375 1.40625 -0.609375 1.40625 -2.15625 C 1.40625 -2.734375 1.609375 -4.34375 2.609375 -5.515625 C 3.21875 -6.21875 4.15625 -6.71875 5.046875 -6.71875 C 6.0625 -6.71875 6.65625 -5.953125 6.65625 -4.796875 C 6.65625 -4.390625 6.625 -4.390625 6.625 -4.28125 C 6.625 -4.1875 6.734375 -4.1875 6.765625 -4.1875 C 6.890625 -4.1875 6.890625 -4.203125 6.953125 -4.390625 L 7.578125 -6.921875 Z M 7.578125 -6.921875 "
               style="stroke:none;" />
          </symbol>
          <symbol
             id="textext-219a66d7-2"
             overflow="visible">
            <path
               id="path186126"
               d=""
               style="stroke:none;" />
          </symbol>
          <symbol
             id="textext-219a66d7-3"
             overflow="visible">
            <path
               id="path186129"
               d="M 2.328125 -4.4375 C 2.328125 -4.625 2.328125 -4.625 2.125 -4.625 C 1.671875 -4.1875 1.046875 -4.1875 0.765625 -4.1875 L 0.765625 -3.9375 C 0.921875 -3.9375 1.390625 -3.9375 1.765625 -4.125 L 1.765625 -0.578125 C 1.765625 -0.34375 1.765625 -0.25 1.078125 -0.25 L 0.8125 -0.25 L 0.8125 0 C 0.9375 0 1.796875 -0.03125 2.046875 -0.03125 C 2.265625 -0.03125 3.140625 0 3.296875 0 L 3.296875 -0.25 L 3.03125 -0.25 C 2.328125 -0.25 2.328125 -0.34375 2.328125 -0.578125 L 2.328125 -4.4375 Z M 2.328125 -4.4375 "
               style="stroke:none;" />
          </symbol>
        </g>
      </defs>
      <g
         id="textext-219a66d7-4">
        <g
           id="g186132"
           style="fill:rgb(0%,0%,0%);fill-opacity:1;">
          <use
             id="use186134"
             y="134.765"
             x="223.432"
             xlink:href="#textext-219a66d7-1" />
        </g>
        <g
           id="g186136"
           style="fill:rgb(0%,0%,0%);fill-opacity:1;">
          <use
             id="use186138"
             y="136.259"
             x="230.553"
             xlink:href="#textext-219a66d7-3" />
        </g>
      </g>
    </g>
    <g
       ns0:text="$C_{2}$"
       ns0:preamble="/home/raghu/TIFR/Curves-on-rational-and-unirational-surfaces/figures/preample.tex"
       transform="translate(-70.19042,-19.587388)"
       id="g186362">
      <defs
         id="defs186364">
        <g
           id="g186366">
          <symbol
             overflow="visible"
             id="textext-eb4b5dca-0">
            <path
               style="stroke:none;"
               d=""
               id="path186369" />
          </symbol>
          <symbol
             overflow="visible"
             id="textext-eb4b5dca-1">
            <path
               style="stroke:none;"
               d="M 7.578125 -6.921875 C 7.578125 -6.953125 7.5625 -7.03125 7.46875 -7.03125 C 7.4375 -7.03125 7.421875 -7.015625 7.3125 -6.90625 L 6.625 -6.140625 C 6.53125 -6.28125 6.078125 -7.03125 4.96875 -7.03125 C 2.734375 -7.03125 0.5 -4.828125 0.5 -2.515625 C 0.5 -0.875 1.671875 0.21875 3.203125 0.21875 C 4.0625 0.21875 4.828125 -0.171875 5.359375 -0.640625 C 6.28125 -1.453125 6.453125 -2.359375 6.453125 -2.390625 C 6.453125 -2.5 6.34375 -2.5 6.328125 -2.5 C 6.265625 -2.5 6.21875 -2.46875 6.203125 -2.390625 C 6.109375 -2.109375 5.875 -1.390625 5.1875 -0.8125 C 4.5 -0.265625 3.875 -0.09375 3.359375 -0.09375 C 2.46875 -0.09375 1.40625 -0.609375 1.40625 -2.15625 C 1.40625 -2.734375 1.609375 -4.34375 2.609375 -5.515625 C 3.21875 -6.21875 4.15625 -6.71875 5.046875 -6.71875 C 6.0625 -6.71875 6.65625 -5.953125 6.65625 -4.796875 C 6.65625 -4.390625 6.625 -4.390625 6.625 -4.28125 C 6.625 -4.1875 6.734375 -4.1875 6.765625 -4.1875 C 6.890625 -4.1875 6.890625 -4.203125 6.953125 -4.390625 L 7.578125 -6.921875 Z M 7.578125 -6.921875 "
               id="path186372" />
          </symbol>
          <symbol
             overflow="visible"
             id="textext-eb4b5dca-2">
            <path
               style="stroke:none;"
               d=""
               id="path186375" />
          </symbol>
          <symbol
             overflow="visible"
             id="textext-eb4b5dca-3">
            <path
               style="stroke:none;"
               d="M 3.515625 -1.265625 L 3.28125 -1.265625 C 3.265625 -1.109375 3.1875 -0.703125 3.09375 -0.640625 C 3.046875 -0.59375 2.515625 -0.59375 2.40625 -0.59375 L 1.125 -0.59375 C 1.859375 -1.234375 2.109375 -1.4375 2.515625 -1.765625 C 3.03125 -2.171875 3.515625 -2.609375 3.515625 -3.265625 C 3.515625 -4.109375 2.78125 -4.625 1.890625 -4.625 C 1.03125 -4.625 0.4375 -4.015625 0.4375 -3.375 C 0.4375 -3.03125 0.734375 -2.984375 0.8125 -2.984375 C 0.96875 -2.984375 1.171875 -3.109375 1.171875 -3.359375 C 1.171875 -3.484375 1.125 -3.734375 0.765625 -3.734375 C 0.984375 -4.21875 1.453125 -4.375 1.78125 -4.375 C 2.484375 -4.375 2.84375 -3.828125 2.84375 -3.265625 C 2.84375 -2.65625 2.40625 -2.1875 2.1875 -1.9375 L 0.515625 -0.265625 C 0.4375 -0.203125 0.4375 -0.1875 0.4375 0 L 3.3125 0 L 3.515625 -1.265625 Z M 3.515625 -1.265625 "
               id="path186378" />
          </symbol>
        </g>
      </defs>
      <g
         id="textext-eb4b5dca-4">
        <g
           style="fill:rgb(0%,0%,0%);fill-opacity:1;"
           id="g186381">
          <use
             xlink:href="#textext-eb4b5dca-1"
             x="223.432"
             y="134.765"
             id="use186383" />
        </g>
        <g
           style="fill:rgb(0%,0%,0%);fill-opacity:1;"
           id="g186385">
          <use
             xlink:href="#textext-eb4b5dca-3"
             x="230.553"
             y="136.259"
             id="use186387" />
        </g>
      </g>
    </g>
    <g
       transform="translate(-71.026096,-40.169556)"
       ns0:text="$-1$"
       ns0:preamble="/home/raghu/TIFR/Curves-on-rational-and-unirational-surfaces/figures/preample.tex"
       id="g186796">
      <defs
         id="defs186798">
        <g
           id="g186800">
          <symbol
             style="overflow:visible"
             overflow="visible"
             id="symbol186802">
            <path
               style="stroke:none"
               d=""
               id="path186804" />
          </symbol>
          <symbol
             style="overflow:visible"
             overflow="visible"
             id="symbol186806">
            <path
               style="stroke:none"
               d="M 6.59375,-2.296875 C 6.734375,-2.296875 6.921875,-2.296875 6.921875,-2.5 C 6.921875,-2.6875 6.734375,-2.6875 6.59375,-2.6875 L 1.15625,-2.6875 C 1.015625,-2.6875 0.828125,-2.6875 0.828125,-2.5 C 0.828125,-2.296875 1.015625,-2.296875 1.15625,-2.296875 L 6.59375,-2.296875 z"
               id="path186808" />
          </symbol>
          <symbol
             style="overflow:visible"
             overflow="visible"
             id="symbol186810">
            <path
               style="stroke:none"
               d=""
               id="path186812" />
          </symbol>
          <symbol
             style="overflow:visible"
             overflow="visible"
             id="symbol186814">
            <path
               style="stroke:none"
               d="M 2.9375,-6.375 C 2.9375,-6.625 2.9375,-6.640625 2.703125,-6.640625 C 2.078125,-6 1.203125,-6 0.890625,-6 L 0.890625,-5.6875 C 1.09375,-5.6875 1.671875,-5.6875 2.1875,-5.953125 L 2.1875,-0.78125 C 2.1875,-0.421875 2.15625,-0.3125 1.265625,-0.3125 L 0.953125,-0.3125 L 0.953125,0 C 1.296875,-0.03125 2.15625,-0.03125 2.5625,-0.03125 C 2.953125,-0.03125 3.828125,-0.03125 4.171875,0 L 4.171875,-0.3125 L 3.859375,-0.3125 C 2.953125,-0.3125 2.9375,-0.421875 2.9375,-0.78125 L 2.9375,-6.375 z"
               id="path186816" />
          </symbol>
        </g>
      </defs>
      <g
         id="g186818">
        <g
           style="fill:#000000;fill-opacity:1"
           id="g186820">
          <use
             height="283.46457"
             width="379.13385"
             xlink:href="#textext-841a25ce-1"
             x="223.43201"
             y="134.765"
             id="use186822" />
        </g>
        <g
           style="fill:#000000;fill-opacity:1"
           id="g186824">
          <use
             height="283.46457"
             width="379.13385"
             xlink:href="#textext-841a25ce-3"
             x="231.181"
             y="134.765"
             id="use186826" />
        </g>
      </g>
    </g>
    <g
       id="g186828"
       ns0:preamble="/home/raghu/TIFR/Curves-on-rational-and-unirational-surfaces/figures/preample.tex"
       ns0:text="$-1$"
       transform="translate(17.809568,-40.169556)">
      <defs
         id="defs186830">
        <g
           id="g186832">
          <symbol
             id="symbol186834"
             overflow="visible"
             style="overflow:visible">
            <path
               id="path186836"
               d=""
               style="stroke:none" />
          </symbol>
          <symbol
             id="symbol186838"
             overflow="visible"
             style="overflow:visible">
            <path
               id="path186840"
               d="M 6.59375,-2.296875 C 6.734375,-2.296875 6.921875,-2.296875 6.921875,-2.5 C 6.921875,-2.6875 6.734375,-2.6875 6.59375,-2.6875 L 1.15625,-2.6875 C 1.015625,-2.6875 0.828125,-2.6875 0.828125,-2.5 C 0.828125,-2.296875 1.015625,-2.296875 1.15625,-2.296875 L 6.59375,-2.296875 z"
               style="stroke:none" />
          </symbol>
          <symbol
             id="symbol186842"
             overflow="visible"
             style="overflow:visible">
            <path
               id="path186844"
               d=""
               style="stroke:none" />
          </symbol>
          <symbol
             id="symbol186846"
             overflow="visible"
             style="overflow:visible">
            <path
               id="path186848"
               d="M 2.9375,-6.375 C 2.9375,-6.625 2.9375,-6.640625 2.703125,-6.640625 C 2.078125,-6 1.203125,-6 0.890625,-6 L 0.890625,-5.6875 C 1.09375,-5.6875 1.671875,-5.6875 2.1875,-5.953125 L 2.1875,-0.78125 C 2.1875,-0.421875 2.15625,-0.3125 1.265625,-0.3125 L 0.953125,-0.3125 L 0.953125,0 C 1.296875,-0.03125 2.15625,-0.03125 2.5625,-0.03125 C 2.953125,-0.03125 3.828125,-0.03125 4.171875,0 L 4.171875,-0.3125 L 3.859375,-0.3125 C 2.953125,-0.3125 2.9375,-0.421875 2.9375,-0.78125 L 2.9375,-6.375 z"
               style="stroke:none" />
          </symbol>
        </g>
      </defs>
      <g
         id="g186850">
        <g
           id="g186852"
           style="fill:#000000;fill-opacity:1">
          <use
             id="use186854"
             y="134.765"
             x="223.43201"
             xlink:href="#textext-841a25ce-1"
             width="379.13385"
             height="283.46457" />
        </g>
        <g
           id="g186856"
           style="fill:#000000;fill-opacity:1">
          <use
             id="use186858"
             y="134.765"
             x="231.181"
             xlink:href="#textext-841a25ce-3"
             width="379.13385"
             height="283.46457" />
        </g>
      </g>
    </g>
    <g
       transform="translate(-121.67304,-41.916057)"
       ns0:text="$-(q_{1}+1)$"
       ns0:preamble="/home/raghu/TIFR/Curves-on-rational-and-unirational-surfaces/figures/preample.tex"
       id="g187020">
      <defs
         id="defs187022">
        <g
           id="g187024">
          <symbol
             style="overflow:visible"
             overflow="visible"
             id="textext-f7aff9d4-0">
            <path
               style="stroke:none"
               d=""
               id="path187027" />
          </symbol>
          <symbol
             style="overflow:visible"
             overflow="visible"
             id="textext-f7aff9d4-1">
            <path
               style="stroke:none"
               d="M 6.59375,-2.296875 C 6.734375,-2.296875 6.921875,-2.296875 6.921875,-2.5 C 6.921875,-2.6875 6.734375,-2.6875 6.59375,-2.6875 L 1.15625,-2.6875 C 1.015625,-2.6875 0.828125,-2.6875 0.828125,-2.5 C 0.828125,-2.296875 1.015625,-2.296875 1.15625,-2.296875 L 6.59375,-2.296875 z"
               id="path187030" />
          </symbol>
          <symbol
             style="overflow:visible"
             overflow="visible"
             id="textext-f7aff9d4-2">
            <path
               style="stroke:none"
               d=""
               id="path187033" />
          </symbol>
          <symbol
             style="overflow:visible"
             overflow="visible"
             id="textext-f7aff9d4-3">
            <path
               style="stroke:none"
               d="M 3.296875,2.390625 C 3.296875,2.359375 3.296875,2.34375 3.125,2.171875 C 1.890625,0.921875 1.5625,-0.96875 1.5625,-2.5 C 1.5625,-4.234375 1.9375,-5.96875 3.171875,-7.203125 C 3.296875,-7.328125 3.296875,-7.34375 3.296875,-7.375 C 3.296875,-7.453125 3.265625,-7.484375 3.203125,-7.484375 C 3.09375,-7.484375 2.203125,-6.796875 1.609375,-5.53125 C 1.109375,-4.4375 0.984375,-3.328125 0.984375,-2.5 C 0.984375,-1.71875 1.09375,-0.515625 1.640625,0.625 C 2.25,1.84375 3.09375,2.5 3.203125,2.5 C 3.265625,2.5 3.296875,2.46875 3.296875,2.390625 z"
               id="path187036" />
          </symbol>
          <symbol
             style="overflow:visible"
             overflow="visible"
             id="textext-f7aff9d4-4">
            <path
               style="stroke:none"
               d="M 4.078125,-2.296875 L 6.859375,-2.296875 C 7,-2.296875 7.1875,-2.296875 7.1875,-2.5 C 7.1875,-2.6875 7,-2.6875 6.859375,-2.6875 L 4.078125,-2.6875 L 4.078125,-5.484375 C 4.078125,-5.625 4.078125,-5.8125 3.875,-5.8125 C 3.671875,-5.8125 3.671875,-5.625 3.671875,-5.484375 L 3.671875,-2.6875 L 0.890625,-2.6875 C 0.75,-2.6875 0.5625,-2.6875 0.5625,-2.5 C 0.5625,-2.296875 0.75,-2.296875 0.890625,-2.296875 L 3.671875,-2.296875 L 3.671875,0.5 C 3.671875,0.640625 3.671875,0.828125 3.875,0.828125 C 4.078125,0.828125 4.078125,0.640625 4.078125,0.5 L 4.078125,-2.296875 z"
               id="path187039" />
          </symbol>
          <symbol
             style="overflow:visible"
             overflow="visible"
             id="textext-f7aff9d4-5">
            <path
               style="stroke:none"
               d="M 2.9375,-6.375 C 2.9375,-6.625 2.9375,-6.640625 2.703125,-6.640625 C 2.078125,-6 1.203125,-6 0.890625,-6 L 0.890625,-5.6875 C 1.09375,-5.6875 1.671875,-5.6875 2.1875,-5.953125 L 2.1875,-0.78125 C 2.1875,-0.421875 2.15625,-0.3125 1.265625,-0.3125 L 0.953125,-0.3125 L 0.953125,0 C 1.296875,-0.03125 2.15625,-0.03125 2.5625,-0.03125 C 2.953125,-0.03125 3.828125,-0.03125 4.171875,0 L 4.171875,-0.3125 L 3.859375,-0.3125 C 2.953125,-0.3125 2.9375,-0.421875 2.9375,-0.78125 L 2.9375,-6.375 z"
               id="path187042" />
          </symbol>
          <symbol
             style="overflow:visible"
             overflow="visible"
             id="textext-f7aff9d4-6">
            <path
               style="stroke:none"
               d="M 2.875,-2.5 C 2.875,-3.265625 2.765625,-4.46875 2.21875,-5.609375 C 1.625,-6.828125 0.765625,-7.484375 0.671875,-7.484375 C 0.609375,-7.484375 0.5625,-7.4375 0.5625,-7.375 C 0.5625,-7.34375 0.5625,-7.328125 0.75,-7.140625 C 1.734375,-6.15625 2.296875,-4.578125 2.296875,-2.5 C 2.296875,-0.78125 1.9375,0.96875 0.703125,2.21875 C 0.5625,2.34375 0.5625,2.359375 0.5625,2.390625 C 0.5625,2.453125 0.609375,2.5 0.671875,2.5 C 0.765625,2.5 1.671875,1.8125 2.25,0.546875 C 2.765625,-0.546875 2.875,-1.65625 2.875,-2.5 z"
               id="path187045" />
          </symbol>
          <symbol
             style="overflow:visible"
             overflow="visible"
             id="textext-f7aff9d4-7">
            <path
               style="stroke:none"
               d=""
               id="path187048" />
          </symbol>
          <symbol
             style="overflow:visible"
             overflow="visible"
             id="textext-f7aff9d4-8">
            <path
               style="stroke:none"
               d="M 4.5,-4.296875 C 4.5,-4.34375 4.46875,-4.390625 4.40625,-4.390625 C 4.296875,-4.390625 3.890625,-4 3.734375,-3.703125 C 3.515625,-4.25 3.125,-4.40625 2.796875,-4.40625 C 1.625,-4.40625 0.40625,-2.9375 0.40625,-1.484375 C 0.40625,-0.515625 0.984375,0.109375 1.71875,0.109375 C 2.140625,0.109375 2.53125,-0.125 2.890625,-0.484375 C 2.796875,-0.140625 2.46875,1.203125 2.4375,1.296875 C 2.359375,1.578125 2.28125,1.609375 1.71875,1.625 C 1.59375,1.625 1.5,1.625 1.5,1.828125 C 1.5,1.828125 1.5,1.9375 1.625,1.9375 C 1.9375,1.9375 2.296875,1.90625 2.625,1.90625 C 2.953125,1.90625 3.3125,1.9375 3.65625,1.9375 C 3.703125,1.9375 3.828125,1.9375 3.828125,1.734375 C 3.828125,1.625 3.734375,1.625 3.5625,1.625 C 3.09375,1.625 3.09375,1.5625 3.09375,1.46875 C 3.09375,1.390625 3.109375,1.328125 3.125,1.25 L 4.5,-4.296875 z M 1.75,-0.109375 C 1.140625,-0.109375 1.109375,-0.875 1.109375,-1.046875 C 1.109375,-1.53125 1.390625,-2.609375 1.5625,-3.03125 C 1.875,-3.765625 2.390625,-4.1875 2.796875,-4.1875 C 3.453125,-4.1875 3.59375,-3.375 3.59375,-3.3125 C 3.59375,-3.25 3.046875,-1.0625 3.015625,-1.03125 C 2.859375,-0.75 2.296875,-0.109375 1.75,-0.109375 z"
               id="path187051" />
          </symbol>
          <symbol
             style="overflow:visible"
             overflow="visible"
             id="textext-f7aff9d4-9">
            <path
               style="stroke:none"
               d=""
               id="path187054" />
          </symbol>
          <symbol
             style="overflow:visible"
             overflow="visible"
             id="textext-f7aff9d4-10">
            <path
               style="stroke:none"
               d="M 2.328125,-4.4375 C 2.328125,-4.625 2.328125,-4.625 2.125,-4.625 C 1.671875,-4.1875 1.046875,-4.1875 0.765625,-4.1875 L 0.765625,-3.9375 C 0.921875,-3.9375 1.390625,-3.9375 1.765625,-4.125 L 1.765625,-0.578125 C 1.765625,-0.34375 1.765625,-0.25 1.078125,-0.25 L 0.8125,-0.25 L 0.8125,0 C 0.9375,0 1.796875,-0.03125 2.046875,-0.03125 C 2.265625,-0.03125 3.140625,0 3.296875,0 L 3.296875,-0.25 L 3.03125,-0.25 C 2.328125,-0.25 2.328125,-0.34375 2.328125,-0.578125 L 2.328125,-4.4375 z"
               id="path187057" />
          </symbol>
        </g>
      </defs>
      <g
         id="textext-f7aff9d4-11">
        <g
           style="fill:#000000;fill-opacity:1"
           id="g187060">
          <use
             height="283.46457"
             width="379.13385"
             xlink:href="#textext-f7aff9d4-1"
             x="223.43201"
             y="134.765"
             id="use187062" />
        </g>
        <g
           style="fill:#000000;fill-opacity:1"
           id="g187064">
          <use
             height="283.46457"
             width="379.13385"
             xlink:href="#textext-f7aff9d4-3"
             x="231.181"
             y="134.765"
             id="use187066" />
        </g>
        <g
           style="fill:#000000;fill-opacity:1"
           id="g187068">
          <use
             height="283.46457"
             width="379.13385"
             xlink:href="#textext-f7aff9d4-8"
             x="235.05499"
             y="134.765"
             id="use187070" />
        </g>
        <g
           style="fill:#000000;fill-opacity:1"
           id="g187072">
          <use
             height="283.46457"
             width="379.13385"
             xlink:href="#textext-f7aff9d4-10"
             x="239.50301"
             y="136.259"
             id="use187074" />
        </g>
        <g
           style="fill:#000000;fill-opacity:1"
           id="g187076">
          <use
             height="283.46457"
             width="379.13385"
             xlink:href="#textext-f7aff9d4-4"
             x="246.186"
             y="134.765"
             id="use187078" />
        </g>
        <g
           style="fill:#000000;fill-opacity:1"
           id="g187080">
          <use
             height="283.46457"
             width="379.13385"
             xlink:href="#textext-f7aff9d4-5"
             x="256.14661"
             y="134.765"
             id="use187082" />
          <use
             height="283.46457"
             width="379.13385"
             xlink:href="#textext-f7aff9d4-6"
             x="261.1279"
             y="134.765"
             id="use187084" />
        </g>
      </g>
    </g>
    <g
       id="g187465"
       transform="translate(19.771988,-19.587388)"
       ns0:preamble="/home/raghu/TIFR/Curves-on-rational-and-unirational-surfaces/figures/preample.tex"
       ns0:text="$S_{2},$">
      <defs
         id="defs187467">
        <g
           id="g187469">
          <symbol
             id="textext-27096b46-0"
             overflow="visible">
            <path
               id="path187472"
               d=""
               style="stroke:none;" />
          </symbol>
          <symbol
             id="textext-27096b46-1"
             overflow="visible">
            <path
               id="path187475"
               d="M 6.4375 -6.921875 C 6.4375 -6.953125 6.40625 -7.03125 6.3125 -7.03125 C 6.265625 -7.03125 6.265625 -7.015625 6.140625 -6.875 L 5.65625 -6.3125 C 5.40625 -6.78125 4.890625 -7.03125 4.234375 -7.03125 C 2.96875 -7.03125 1.78125 -5.875 1.78125 -4.671875 C 1.78125 -3.875 2.296875 -3.40625 2.8125 -3.265625 L 3.875 -2.984375 C 4.25 -2.890625 4.796875 -2.734375 4.796875 -1.921875 C 4.796875 -1.03125 3.984375 -0.09375 3 -0.09375 C 2.359375 -0.09375 1.25 -0.3125 1.25 -1.546875 C 1.25 -1.78125 1.3125 -2.03125 1.3125 -2.078125 C 1.328125 -2.125 1.328125 -2.140625 1.328125 -2.15625 C 1.328125 -2.25 1.265625 -2.265625 1.21875 -2.265625 C 1.171875 -2.265625 1.140625 -2.25 1.109375 -2.21875 C 1.078125 -2.1875 0.515625 0.09375 0.515625 0.125 C 0.515625 0.171875 0.5625 0.21875 0.625 0.21875 C 0.671875 0.21875 0.6875 0.203125 0.8125 0.0625 L 1.296875 -0.5 C 1.71875 0.078125 2.40625 0.21875 2.984375 0.21875 C 4.34375 0.21875 5.515625 -1.109375 5.515625 -2.34375 C 5.515625 -3.03125 5.171875 -3.375 5.03125 -3.515625 C 4.796875 -3.734375 4.640625 -3.78125 3.765625 -4 C 3.53125 -4.0625 3.1875 -4.171875 3.09375 -4.1875 C 2.828125 -4.28125 2.484375 -4.5625 2.484375 -5.09375 C 2.484375 -5.90625 3.28125 -6.75 4.234375 -6.75 C 5.046875 -6.75 5.65625 -6.3125 5.65625 -5.203125 C 5.65625 -4.890625 5.625 -4.703125 5.625 -4.640625 C 5.625 -4.640625 5.625 -4.546875 5.734375 -4.546875 C 5.84375 -4.546875 5.859375 -4.578125 5.890625 -4.75 L 6.4375 -6.921875 Z M 6.4375 -6.921875 "
               style="stroke:none;" />
          </symbol>
          <symbol
             id="textext-27096b46-2"
             overflow="visible">
            <path
               id="path187478"
               d="M 2.03125 -0.015625 C 2.03125 -0.671875 1.78125 -1.0625 1.390625 -1.0625 C 1.0625 -1.0625 0.859375 -0.8125 0.859375 -0.53125 C 0.859375 -0.265625 1.0625 0 1.390625 0 C 1.5 0 1.640625 -0.046875 1.734375 -0.125 C 1.765625 -0.15625 1.78125 -0.15625 1.78125 -0.15625 C 1.796875 -0.15625 1.796875 -0.15625 1.796875 -0.015625 C 1.796875 0.734375 1.453125 1.328125 1.125 1.65625 C 1.015625 1.765625 1.015625 1.78125 1.015625 1.8125 C 1.015625 1.890625 1.0625 1.921875 1.109375 1.921875 C 1.21875 1.921875 2.03125 1.15625 2.03125 -0.015625 Z M 2.03125 -0.015625 "
               style="stroke:none;" />
          </symbol>
          <symbol
             id="textext-27096b46-3"
             overflow="visible">
            <path
               id="path187481"
               d=""
               style="stroke:none;" />
          </symbol>
          <symbol
             id="textext-27096b46-4"
             overflow="visible">
            <path
               id="path187484"
               d="M 3.515625 -1.265625 L 3.28125 -1.265625 C 3.265625 -1.109375 3.1875 -0.703125 3.09375 -0.640625 C 3.046875 -0.59375 2.515625 -0.59375 2.40625 -0.59375 L 1.125 -0.59375 C 1.859375 -1.234375 2.109375 -1.4375 2.515625 -1.765625 C 3.03125 -2.171875 3.515625 -2.609375 3.515625 -3.265625 C 3.515625 -4.109375 2.78125 -4.625 1.890625 -4.625 C 1.03125 -4.625 0.4375 -4.015625 0.4375 -3.375 C 0.4375 -3.03125 0.734375 -2.984375 0.8125 -2.984375 C 0.96875 -2.984375 1.171875 -3.109375 1.171875 -3.359375 C 1.171875 -3.484375 1.125 -3.734375 0.765625 -3.734375 C 0.984375 -4.21875 1.453125 -4.375 1.78125 -4.375 C 2.484375 -4.375 2.84375 -3.828125 2.84375 -3.265625 C 2.84375 -2.65625 2.40625 -2.1875 2.1875 -1.9375 L 0.515625 -0.265625 C 0.4375 -0.203125 0.4375 -0.1875 0.4375 0 L 3.3125 0 L 3.515625 -1.265625 Z M 3.515625 -1.265625 "
               style="stroke:none;" />
          </symbol>
        </g>
      </defs>
      <g
         id="textext-27096b46-5">
        <g
           id="g187487"
           style="fill:rgb(0%,0%,0%);fill-opacity:1;">
          <use
             id="use187489"
             y="134.765"
             x="223.432"
             xlink:href="#textext-27096b46-1" />
        </g>
        <g
           id="g187491"
           style="fill:rgb(0%,0%,0%);fill-opacity:1;">
          <use
             id="use187493"
             y="136.259"
             x="229.541"
             xlink:href="#textext-27096b46-4" />
        </g>
        <g
           id="g187495"
           style="fill:rgb(0%,0%,0%);fill-opacity:1;">
          <use
             id="use187497"
             y="134.765"
             x="234.011"
             xlink:href="#textext-27096b46-2" />
        </g>
      </g>
    </g>
  </g>
</svg>
