<?xml version="1.0" encoding="UTF-8" standalone="no"?>
<!-- Created with Inkscape (http://www.inkscape.org/) -->
<svg
   xmlns:ns0="http://www.iki.fi/pav/software/textext/"
   xmlns:dc="http://purl.org/dc/elements/1.1/"
   xmlns:cc="http://creativecommons.org/ns#"
   xmlns:rdf="http://www.w3.org/1999/02/22-rdf-syntax-ns#"
   xmlns:svg="http://www.w3.org/2000/svg"
   xmlns="http://www.w3.org/2000/svg"
   xmlns:xlink="http://www.w3.org/1999/xlink"
   xmlns:sodipodi="http://sodipodi.sourceforge.net/DTD/sodipodi-0.dtd"
   xmlns:inkscape="http://www.inkscape.org/namespaces/inkscape"
   width="372.04724"
   height="212.59842"
   id="svg2"
   sodipodi:version="0.32"
   inkscape:version="0.46"
   version="1.0"
   sodipodi:docname="chap2-fig21.svg"
   inkscape:output_extension="org.inkscape.output.svg.inkscape">
  <sodipodi:namedview
     id="base"
     pagecolor="#ffffff"
     bordercolor="#666666"
     borderopacity="1.0"
     gridtolerance="10000"
     guidetolerance="10"
     objecttolerance="10"
     inkscape:pageopacity="0.0"
     inkscape:pageshadow="2"
     inkscape:zoom="2.5992668"
     inkscape:cx="216.72532"
     inkscape:cy="128.61412"
     inkscape:document-units="px"
     inkscape:current-layer="layer1"
     showgrid="false"
     units="cm"
     inkscape:window-width="1009"
     inkscape:window-height="726"
     inkscape:window-x="5"
     inkscape:window-y="27" />
  <defs
     id="defs4">
    <inkscape:perspective
       sodipodi:type="inkscape:persp3d"
       inkscape:vp_x="0 : 526.18109 : 1"
       inkscape:vp_y="0 : 1000 : 0"
       inkscape:vp_z="744.09448 : 526.18109 : 1"
       inkscape:persp3d-origin="372.04724 : 350.78739 : 1"
       id="perspective10" />
  </defs>
  <metadata
     id="metadata7">
    <rdf:RDF>
      <cc:Work
         rdf:about="">
        <dc:format>image/svg+xml</dc:format>
        <dc:type
           rdf:resource="http://purl.org/dc/dcmitype/StillImage" />
      </cc:Work>
    </rdf:RDF>
  </metadata>
  <g
     inkscape:label="Layer 1"
     inkscape:groupmode="layer"
     id="layer1">
    <path
       sodipodi:type="arc"
       style="fill:#ffffff;fill-opacity:1;fill-rule:evenodd;stroke:#000000;stroke-width:1.01099658;stroke-linecap:butt;stroke-linejoin:miter;marker:none;marker-start:none;marker-mid:none;marker-end:none;stroke-miterlimit:4;stroke-dasharray:none;stroke-dashoffset:0;stroke-opacity:1;visibility:visible;display:inline;overflow:visible;enable-background:accumulate"
       id="path32841"
       sodipodi:cx="43.858521"
       sodipodi:cy="38.318504"
       sodipodi:rx="2.3083432"
       sodipodi:ry="2.3083432"
       d="M 46.166864,38.318504 A 2.3083432,2.3083432 0 1 1 41.550177,38.318504 A 2.3083432,2.3083432 0 1 1 46.166864,38.318504 z"
       transform="matrix(0.989123,0,0,0.989123,36.209977,49.812857)" />
    <path
       style="fill:none;fill-rule:evenodd;stroke:#000000;stroke-width:1;stroke-linecap:butt;stroke-linejoin:miter;stroke-miterlimit:4;stroke-dasharray:none;stroke-opacity:1"
       d="M 81.86553,87.695242 L 122.57753,87.695242"
       id="path32843" />
    <path
       transform="matrix(0.989123,0,0,0.989123,80.20998,49.812857)"
       d="M 46.166864,38.318504 A 2.3083432,2.3083432 0 1 1 41.550177,38.318504 A 2.3083432,2.3083432 0 1 1 46.166864,38.318504 z"
       sodipodi:ry="2.3083432"
       sodipodi:rx="2.3083432"
       sodipodi:cy="38.318504"
       sodipodi:cx="43.858521"
       id="path35156"
       style="fill:#ffffff;fill-opacity:1;fill-rule:evenodd;stroke:#000000;stroke-width:1.01099658;stroke-linecap:butt;stroke-linejoin:miter;marker:none;marker-start:none;marker-mid:none;marker-end:none;stroke-miterlimit:4;stroke-dasharray:none;stroke-dashoffset:0;stroke-opacity:1;visibility:visible;display:inline;overflow:visible;enable-background:accumulate"
       sodipodi:type="arc" />
    <path
       id="path35158"
       d="M 125.86553,87.695242 L 166.57753,87.695242"
       style="fill:none;fill-rule:evenodd;stroke:#000000;stroke-width:1;stroke-linecap:butt;stroke-linejoin:miter;stroke-miterlimit:4;stroke-dasharray:none;stroke-opacity:1" />
    <path
       transform="matrix(-0.989123,0,0,0.989123,317.67577,49.812857)"
       d="M 46.166864,38.318504 A 2.3083432,2.3083432 0 1 1 41.550177,38.318504 A 2.3083432,2.3083432 0 1 1 46.166864,38.318504 z"
       sodipodi:ry="2.3083432"
       sodipodi:rx="2.3083432"
       sodipodi:cy="38.318504"
       sodipodi:cx="43.858521"
       id="path35160"
       style="fill:#ffffff;fill-opacity:1;fill-rule:evenodd;stroke:#000000;stroke-width:1.01099658;stroke-linecap:butt;stroke-linejoin:miter;marker:none;marker-start:none;marker-mid:none;marker-end:none;stroke-miterlimit:4;stroke-dasharray:none;stroke-dashoffset:0;stroke-opacity:1;visibility:visible;display:inline;overflow:visible;enable-background:accumulate"
       sodipodi:type="arc" />
    <path
       id="path35162"
       d="M 272.02022,87.695242 L 231.30822,87.695242"
       style="fill:none;fill-rule:evenodd;stroke:#000000;stroke-width:1;stroke-linecap:butt;stroke-linejoin:miter;stroke-miterlimit:4;stroke-dasharray:none;stroke-opacity:1" />
    <path
       sodipodi:type="arc"
       style="fill:#ffffff;fill-opacity:1;fill-rule:evenodd;stroke:#000000;stroke-width:1.01099658;stroke-linecap:butt;stroke-linejoin:miter;marker:none;marker-start:none;marker-mid:none;marker-end:none;stroke-miterlimit:4;stroke-dasharray:none;stroke-dashoffset:0;stroke-opacity:1;visibility:visible;display:inline;overflow:visible;enable-background:accumulate"
       id="path35164"
       sodipodi:cx="43.858521"
       sodipodi:cy="38.318504"
       sodipodi:rx="2.3083432"
       sodipodi:ry="2.3083432"
       d="M 46.166864,38.318504 A 2.3083432,2.3083432 0 1 1 41.550177,38.318504 A 2.3083432,2.3083432 0 1 1 46.166864,38.318504 z"
       transform="matrix(-0.989123,0,0,0.989123,273.67577,49.812857)" />
    <path
       style="fill:none;fill-rule:evenodd;stroke:#000000;stroke-width:1;stroke-linecap:butt;stroke-linejoin:miter;stroke-miterlimit:4;stroke-dasharray:none;stroke-opacity:1"
       d="M 228.02022,87.695242 L 187.30822,87.695242"
       id="path35166" />
    <path
       sodipodi:type="arc"
       style="fill:#ffffff;fill-opacity:1;fill-rule:evenodd;stroke:#000000;stroke-width:1.01099658;stroke-linecap:butt;stroke-linejoin:miter;marker:none;marker-start:none;marker-mid:none;marker-end:none;stroke-miterlimit:4;stroke-dasharray:none;stroke-dashoffset:0;stroke-opacity:1;visibility:visible;display:inline;overflow:visible;enable-background:accumulate"
       id="path35168"
       sodipodi:cx="43.858521"
       sodipodi:cy="38.318504"
       sodipodi:rx="2.3083432"
       sodipodi:ry="2.3083432"
       d="M 46.166864,38.318504 A 2.3083432,2.3083432 0 1 1 41.550177,38.318504 A 2.3083432,2.3083432 0 1 1 46.166864,38.318504 z"
       transform="matrix(-0.989123,0,0,0.989123,361.94781,49.812857)" />
    <path
       style="fill:none;fill-rule:evenodd;stroke:#000000;stroke-width:1;stroke-linecap:butt;stroke-linejoin:miter;stroke-miterlimit:4;stroke-dasharray:none;stroke-opacity:1"
       d="M 316.83634,87.695242 L 276.12434,87.695242"
       id="path35170" />
    <path
       transform="matrix(0.989123,0,0,0.989123,36.209977,49.812857)"
       d="M 46.166864,38.318504 A 2.3083432,2.3083432 0 1 1 41.550177,38.318504 A 2.3083432,2.3083432 0 1 1 46.166864,38.318504 z"
       sodipodi:ry="2.3083432"
       sodipodi:rx="2.3083432"
       sodipodi:cy="38.318504"
       sodipodi:cx="43.858521"
       id="path35174"
       style="fill:#ffffff;fill-opacity:1;fill-rule:evenodd;stroke:#000000;stroke-width:1.01099658;stroke-linecap:butt;stroke-linejoin:miter;marker:none;marker-start:none;marker-mid:none;marker-end:none;stroke-miterlimit:4;stroke-dasharray:none;stroke-dashoffset:0;stroke-opacity:1;visibility:visible;display:inline;overflow:visible;enable-background:accumulate"
       sodipodi:type="arc" />
    <path
       id="path35176"
       d="M 81.86553,87.695242 L 122.57753,87.695242"
       style="fill:none;fill-rule:evenodd;stroke:#000000;stroke-width:1;stroke-linecap:butt;stroke-linejoin:miter;stroke-miterlimit:4;stroke-dasharray:none;stroke-opacity:1" />
    <path
       sodipodi:type="arc"
       style="fill:#ffffff;fill-opacity:1;fill-rule:evenodd;stroke:#000000;stroke-width:1.01099658;stroke-linecap:butt;stroke-linejoin:miter;marker:none;marker-start:none;marker-mid:none;marker-end:none;stroke-miterlimit:4;stroke-dasharray:none;stroke-dashoffset:0;stroke-opacity:1;visibility:visible;display:inline;overflow:visible;enable-background:accumulate"
       id="path35178"
       sodipodi:cx="43.858521"
       sodipodi:cy="38.318504"
       sodipodi:rx="2.3083432"
       sodipodi:ry="2.3083432"
       d="M 46.166864,38.318504 A 2.3083432,2.3083432 0 1 1 41.550177,38.318504 A 2.3083432,2.3083432 0 1 1 46.166864,38.318504 z"
       transform="matrix(0.989123,0,0,0.989123,80.20998,49.812857)" />
    <path
       style="fill:none;fill-rule:evenodd;stroke:#000000;stroke-width:1;stroke-linecap:butt;stroke-linejoin:miter;stroke-miterlimit:4;stroke-dasharray:none;stroke-opacity:1"
       d="M 125.86553,87.695242 L 166.57753,87.695242"
       id="path35180" />
    <path
       sodipodi:type="arc"
       style="fill:#ffffff;fill-opacity:1;fill-rule:evenodd;stroke:#000000;stroke-width:1.01099658;stroke-linecap:butt;stroke-linejoin:miter;marker:none;marker-start:none;marker-mid:none;marker-end:none;stroke-miterlimit:4;stroke-dasharray:none;stroke-dashoffset:0;stroke-opacity:1;visibility:visible;display:inline;overflow:visible;enable-background:accumulate"
       id="path35182"
       sodipodi:cx="43.858521"
       sodipodi:cy="38.318504"
       sodipodi:rx="2.3083432"
       sodipodi:ry="2.3083432"
       d="M 46.166864,38.318504 A 2.3083432,2.3083432 0 1 1 41.550177,38.318504 A 2.3083432,2.3083432 0 1 1 46.166864,38.318504 z"
       transform="matrix(-0.989123,0,0,0.989123,317.67577,49.812857)" />
    <path
       style="fill:none;fill-rule:evenodd;stroke:#000000;stroke-width:1;stroke-linecap:butt;stroke-linejoin:miter;stroke-miterlimit:4;stroke-dasharray:none;stroke-opacity:1"
       d="M 272.02022,87.695242 L 231.30822,87.695242"
       id="path35184" />
    <path
       transform="matrix(-0.989123,0,0,0.989123,273.67577,49.812857)"
       d="M 46.166864,38.318504 A 2.3083432,2.3083432 0 1 1 41.550177,38.318504 A 2.3083432,2.3083432 0 1 1 46.166864,38.318504 z"
       sodipodi:ry="2.3083432"
       sodipodi:rx="2.3083432"
       sodipodi:cy="38.318504"
       sodipodi:cx="43.858521"
       id="path35186"
       style="fill:#ffffff;fill-opacity:1;fill-rule:evenodd;stroke:#000000;stroke-width:1.01099658;stroke-linecap:butt;stroke-linejoin:miter;marker:none;marker-start:none;marker-mid:none;marker-end:none;stroke-miterlimit:4;stroke-dasharray:none;stroke-dashoffset:0;stroke-opacity:1;visibility:visible;display:inline;overflow:visible;enable-background:accumulate"
       sodipodi:type="arc" />
    <path
       id="path35188"
       d="M 228.02022,87.695242 L 187.30822,87.695242"
       style="fill:none;fill-rule:evenodd;stroke:#000000;stroke-width:1;stroke-linecap:butt;stroke-linejoin:miter;stroke-miterlimit:4;stroke-dasharray:none;stroke-opacity:1" />
    <path
       transform="matrix(-0.989123,0,0,0.989123,361.94781,49.812857)"
       d="M 46.166864,38.318504 A 2.3083432,2.3083432 0 1 1 41.550177,38.318504 A 2.3083432,2.3083432 0 1 1 46.166864,38.318504 z"
       sodipodi:ry="2.3083432"
       sodipodi:rx="2.3083432"
       sodipodi:cy="38.318504"
       sodipodi:cx="43.858521"
       id="path35190"
       style="fill:#ffffff;fill-opacity:1;fill-rule:evenodd;stroke:#000000;stroke-width:1.01099658;stroke-linecap:butt;stroke-linejoin:miter;marker:none;marker-start:none;marker-mid:none;marker-end:none;stroke-miterlimit:4;stroke-dasharray:none;stroke-dashoffset:0;stroke-opacity:1;visibility:visible;display:inline;overflow:visible;enable-background:accumulate"
       sodipodi:type="arc" />
    <path
       id="path35192"
       d="M 316.83634,87.695242 L 276.12434,87.695242"
       style="fill:none;fill-rule:evenodd;stroke:#000000;stroke-width:1;stroke-linecap:butt;stroke-linejoin:miter;stroke-miterlimit:4;stroke-dasharray:none;stroke-opacity:1" />
    <g
       transform="translate(-149.65759,-53.861342)"
       ns0:text="$-1$"
       ns0:preamble=""
       id="g35220">
      <defs
         id="defs35222">
        <g
           id="g35224">
          <symbol
             style="overflow:visible"
             overflow="visible"
             id="textext-108f8aa9-0">
            <path
               style="stroke:none"
               d=""
               id="path35227" />
          </symbol>
          <symbol
             style="overflow:visible"
             overflow="visible"
             id="textext-108f8aa9-1">
            <path
               style="stroke:none"
               d="M 6.59375,-2.296875 C 6.734375,-2.296875 6.921875,-2.296875 6.921875,-2.5 C 6.921875,-2.6875 6.734375,-2.6875 6.59375,-2.6875 L 1.15625,-2.6875 C 1.015625,-2.6875 0.828125,-2.6875 0.828125,-2.5 C 0.828125,-2.296875 1.015625,-2.296875 1.15625,-2.296875 L 6.59375,-2.296875 z"
               id="path35230" />
          </symbol>
          <symbol
             style="overflow:visible"
             overflow="visible"
             id="textext-108f8aa9-2">
            <path
               style="stroke:none"
               d=""
               id="path35233" />
          </symbol>
          <symbol
             style="overflow:visible"
             overflow="visible"
             id="textext-108f8aa9-3">
            <path
               style="stroke:none"
               d="M 2.9375,-6.375 C 2.9375,-6.625 2.9375,-6.640625 2.703125,-6.640625 C 2.078125,-6 1.203125,-6 0.890625,-6 L 0.890625,-5.6875 C 1.09375,-5.6875 1.671875,-5.6875 2.1875,-5.953125 L 2.1875,-0.78125 C 2.1875,-0.421875 2.15625,-0.3125 1.265625,-0.3125 L 0.953125,-0.3125 L 0.953125,0 C 1.296875,-0.03125 2.15625,-0.03125 2.5625,-0.03125 C 2.953125,-0.03125 3.828125,-0.03125 4.171875,0 L 4.171875,-0.3125 L 3.859375,-0.3125 C 2.953125,-0.3125 2.9375,-0.421875 2.9375,-0.78125 L 2.9375,-6.375 z"
               id="path35236" />
          </symbol>
        </g>
      </defs>
      <g
         id="textext-108f8aa9-4">
        <g
           style="fill:#000000;fill-opacity:1"
           id="g35239">
          <use
             height="212.59842"
             width="372.04724"
             xlink:href="#textext-108f8aa9-1"
             x="223.43201"
             y="134.765"
             id="use35241" />
        </g>
        <g
           style="fill:#000000;fill-opacity:1"
           id="g35243">
          <use
             height="212.59842"
             width="372.04724"
             xlink:href="#textext-108f8aa9-3"
             x="231.181"
             y="134.765"
             id="use35245" />
        </g>
      </g>
    </g>
    <g
       id="g35361"
       transform="translate(-107.65759,-53.861342)"
       ns0:preamble=""
       ns0:text="$-2$">
      <defs
         id="defs35363">
        <g
           id="g35365">
          <symbol
             style="overflow:visible"
             id="textext-e3869bf4-0"
             overflow="visible">
            <path
               id="path35368"
               d=""
               style="stroke:none" />
          </symbol>
          <symbol
             style="overflow:visible"
             id="textext-e3869bf4-1"
             overflow="visible">
            <path
               id="path35371"
               d="M 6.59375,-2.296875 C 6.734375,-2.296875 6.921875,-2.296875 6.921875,-2.5 C 6.921875,-2.6875 6.734375,-2.6875 6.59375,-2.6875 L 1.15625,-2.6875 C 1.015625,-2.6875 0.828125,-2.6875 0.828125,-2.5 C 0.828125,-2.296875 1.015625,-2.296875 1.15625,-2.296875 L 6.59375,-2.296875 z"
               style="stroke:none" />
          </symbol>
          <symbol
             style="overflow:visible"
             id="textext-e3869bf4-2"
             overflow="visible">
            <path
               id="path35374"
               d=""
               style="stroke:none" />
          </symbol>
          <symbol
             style="overflow:visible"
             id="textext-e3869bf4-3"
             overflow="visible">
            <path
               id="path35377"
               d="M 4.46875,-1.734375 L 4.234375,-1.734375 C 4.171875,-1.4375 4.109375,-1 4,-0.84375 C 3.9375,-0.765625 3.28125,-0.765625 3.0625,-0.765625 L 1.265625,-0.765625 L 2.328125,-1.796875 C 3.875,-3.171875 4.46875,-3.703125 4.46875,-4.703125 C 4.46875,-5.84375 3.578125,-6.640625 2.359375,-6.640625 C 1.234375,-6.640625 0.5,-5.71875 0.5,-4.828125 C 0.5,-4.28125 1,-4.28125 1.03125,-4.28125 C 1.203125,-4.28125 1.546875,-4.390625 1.546875,-4.8125 C 1.546875,-5.0625 1.359375,-5.328125 1.015625,-5.328125 C 0.9375,-5.328125 0.921875,-5.328125 0.890625,-5.3125 C 1.109375,-5.96875 1.65625,-6.328125 2.234375,-6.328125 C 3.140625,-6.328125 3.5625,-5.515625 3.5625,-4.703125 C 3.5625,-3.90625 3.078125,-3.125 2.515625,-2.5 L 0.609375,-0.375 C 0.5,-0.265625 0.5,-0.234375 0.5,0 L 4.203125,0 L 4.46875,-1.734375 z"
               style="stroke:none" />
          </symbol>
        </g>
      </defs>
      <g
         id="textext-e3869bf4-4">
        <g
           id="g35380"
           style="fill:#000000;fill-opacity:1">
          <use
             height="212.59842"
             width="372.04724"
             id="use35382"
             y="134.765"
             x="223.43201"
             xlink:href="#textext-e3869bf4-1" />
        </g>
        <g
           id="g35384"
           style="fill:#000000;fill-opacity:1">
          <use
             height="212.59842"
             width="372.04724"
             id="use35386"
             y="134.765"
             x="231.181"
             xlink:href="#textext-e3869bf4-3" />
        </g>
      </g>
    </g>
    <g
       ns0:text="$-2$"
       ns0:preamble=""
       transform="translate(-1.65759,-53.861342)"
       id="g35444">
      <defs
         id="defs35446">
        <g
           id="g35448">
          <symbol
             overflow="visible"
             id="symbol35450"
             style="overflow:visible">
            <path
               style="stroke:none"
               d=""
               id="path35452" />
          </symbol>
          <symbol
             overflow="visible"
             id="symbol35454"
             style="overflow:visible">
            <path
               style="stroke:none"
               d="M 6.59375,-2.296875 C 6.734375,-2.296875 6.921875,-2.296875 6.921875,-2.5 C 6.921875,-2.6875 6.734375,-2.6875 6.59375,-2.6875 L 1.15625,-2.6875 C 1.015625,-2.6875 0.828125,-2.6875 0.828125,-2.5 C 0.828125,-2.296875 1.015625,-2.296875 1.15625,-2.296875 L 6.59375,-2.296875 z"
               id="path35456" />
          </symbol>
          <symbol
             overflow="visible"
             id="symbol35458"
             style="overflow:visible">
            <path
               style="stroke:none"
               d=""
               id="path35460" />
          </symbol>
          <symbol
             overflow="visible"
             id="symbol35462"
             style="overflow:visible">
            <path
               style="stroke:none"
               d="M 4.46875,-1.734375 L 4.234375,-1.734375 C 4.171875,-1.4375 4.109375,-1 4,-0.84375 C 3.9375,-0.765625 3.28125,-0.765625 3.0625,-0.765625 L 1.265625,-0.765625 L 2.328125,-1.796875 C 3.875,-3.171875 4.46875,-3.703125 4.46875,-4.703125 C 4.46875,-5.84375 3.578125,-6.640625 2.359375,-6.640625 C 1.234375,-6.640625 0.5,-5.71875 0.5,-4.828125 C 0.5,-4.28125 1,-4.28125 1.03125,-4.28125 C 1.203125,-4.28125 1.546875,-4.390625 1.546875,-4.8125 C 1.546875,-5.0625 1.359375,-5.328125 1.015625,-5.328125 C 0.9375,-5.328125 0.921875,-5.328125 0.890625,-5.3125 C 1.109375,-5.96875 1.65625,-6.328125 2.234375,-6.328125 C 3.140625,-6.328125 3.5625,-5.515625 3.5625,-4.703125 C 3.5625,-3.90625 3.078125,-3.125 2.515625,-2.5 L 0.609375,-0.375 C 0.5,-0.265625 0.5,-0.234375 0.5,0 L 4.203125,0 L 4.46875,-1.734375 z"
               id="path35464" />
          </symbol>
        </g>
      </defs>
      <g
         id="g35466">
        <g
           style="fill:#000000;fill-opacity:1"
           id="g35468">
          <use
             xlink:href="#textext-e3869bf4-1"
             x="223.43201"
             y="134.765"
             id="use35470"
             width="372.04724"
             height="212.59842" />
        </g>
        <g
           style="fill:#000000;fill-opacity:1"
           id="g35472">
          <use
             xlink:href="#textext-e3869bf4-3"
             x="231.181"
             y="134.765"
             id="use35474"
             width="372.04724"
             height="212.59842" />
        </g>
      </g>
    </g>
    <g
       id="g35476"
       ns0:preamble=""
       ns0:text="$-1$"
       transform="translate(42.34241,-53.861342)">
      <defs
         id="defs35478">
        <g
           id="g35480">
          <symbol
             id="symbol35482"
             overflow="visible"
             style="overflow:visible">
            <path
               id="path35484"
               d=""
               style="stroke:none" />
          </symbol>
          <symbol
             id="symbol35486"
             overflow="visible"
             style="overflow:visible">
            <path
               id="path35488"
               d="M 6.59375,-2.296875 C 6.734375,-2.296875 6.921875,-2.296875 6.921875,-2.5 C 6.921875,-2.6875 6.734375,-2.6875 6.59375,-2.6875 L 1.15625,-2.6875 C 1.015625,-2.6875 0.828125,-2.6875 0.828125,-2.5 C 0.828125,-2.296875 1.015625,-2.296875 1.15625,-2.296875 L 6.59375,-2.296875 z"
               style="stroke:none" />
          </symbol>
          <symbol
             id="symbol35490"
             overflow="visible"
             style="overflow:visible">
            <path
               id="path35492"
               d=""
               style="stroke:none" />
          </symbol>
          <symbol
             id="symbol35494"
             overflow="visible"
             style="overflow:visible">
            <path
               id="path35496"
               d="M 2.9375,-6.375 C 2.9375,-6.625 2.9375,-6.640625 2.703125,-6.640625 C 2.078125,-6 1.203125,-6 0.890625,-6 L 0.890625,-5.6875 C 1.09375,-5.6875 1.671875,-5.6875 2.1875,-5.953125 L 2.1875,-0.78125 C 2.1875,-0.421875 2.15625,-0.3125 1.265625,-0.3125 L 0.953125,-0.3125 L 0.953125,0 C 1.296875,-0.03125 2.15625,-0.03125 2.5625,-0.03125 C 2.953125,-0.03125 3.828125,-0.03125 4.171875,0 L 4.171875,-0.3125 L 3.859375,-0.3125 C 2.953125,-0.3125 2.9375,-0.421875 2.9375,-0.78125 L 2.9375,-6.375 z"
               style="stroke:none" />
          </symbol>
        </g>
      </defs>
      <g
         id="g35498">
        <g
           id="g35500"
           style="fill:#000000;fill-opacity:1">
          <use
             id="use35502"
             y="134.765"
             x="223.43201"
             xlink:href="#textext-108f8aa9-1"
             width="372.04724"
             height="212.59842" />
        </g>
        <g
           id="g35504"
           style="fill:#000000;fill-opacity:1">
          <use
             id="use35506"
             y="134.765"
             x="231.181"
             xlink:href="#textext-108f8aa9-3"
             width="372.04724"
             height="212.59842" />
        </g>
      </g>
    </g>
    <g
       ns0:text="$-i$"
       ns0:preamble=""
       transform="translate(88.34241,-53.861342)"
       id="g35630">
      <defs
         id="defs35632">
        <g
           id="g35634">
          <symbol
             style="overflow:visible"
             overflow="visible"
             id="textext-a0f2244c-0">
            <path
               style="stroke:none"
               d=""
               id="path35637" />
          </symbol>
          <symbol
             style="overflow:visible"
             overflow="visible"
             id="textext-a0f2244c-1">
            <path
               style="stroke:none"
               d="M 6.59375,-2.296875 C 6.734375,-2.296875 6.921875,-2.296875 6.921875,-2.5 C 6.921875,-2.6875 6.734375,-2.6875 6.59375,-2.6875 L 1.15625,-2.6875 C 1.015625,-2.6875 0.828125,-2.6875 0.828125,-2.5 C 0.828125,-2.296875 1.015625,-2.296875 1.15625,-2.296875 L 6.59375,-2.296875 z"
               id="path35640" />
          </symbol>
          <symbol
             style="overflow:visible"
             overflow="visible"
             id="textext-a0f2244c-2">
            <path
               style="stroke:none"
               d=""
               id="path35643" />
          </symbol>
          <symbol
             style="overflow:visible"
             overflow="visible"
             id="textext-a0f2244c-3">
            <path
               style="stroke:none"
               d="M 2.828125,-6.234375 C 2.828125,-6.4375 2.6875,-6.59375 2.46875,-6.59375 C 2.1875,-6.59375 1.921875,-6.328125 1.921875,-6.0625 C 1.921875,-5.875 2.0625,-5.703125 2.296875,-5.703125 C 2.53125,-5.703125 2.828125,-5.9375 2.828125,-6.234375 z M 2.078125,-2.484375 C 2.1875,-2.765625 2.1875,-2.796875 2.296875,-3.0625 C 2.375,-3.265625 2.421875,-3.40625 2.421875,-3.59375 C 2.421875,-4.03125 2.109375,-4.40625 1.609375,-4.40625 C 0.671875,-4.40625 0.296875,-2.953125 0.296875,-2.875 C 0.296875,-2.765625 0.390625,-2.765625 0.40625,-2.765625 C 0.515625,-2.765625 0.515625,-2.796875 0.5625,-2.953125 C 0.84375,-3.890625 1.234375,-4.1875 1.578125,-4.1875 C 1.65625,-4.1875 1.828125,-4.1875 1.828125,-3.875 C 1.828125,-3.65625 1.75,-3.453125 1.71875,-3.34375 C 1.640625,-3.09375 1.1875,-1.9375 1.03125,-1.5 C 0.921875,-1.25 0.796875,-0.921875 0.796875,-0.703125 C 0.796875,-0.234375 1.140625,0.109375 1.609375,0.109375 C 2.546875,0.109375 2.921875,-1.328125 2.921875,-1.421875 C 2.921875,-1.53125 2.828125,-1.53125 2.796875,-1.53125 C 2.703125,-1.53125 2.703125,-1.5 2.65625,-1.34375 C 2.46875,-0.71875 2.140625,-0.109375 1.640625,-0.109375 C 1.46875,-0.109375 1.390625,-0.203125 1.390625,-0.4375 C 1.390625,-0.6875 1.453125,-0.828125 1.6875,-1.4375 L 2.078125,-2.484375 z"
               id="path35646" />
          </symbol>
        </g>
      </defs>
      <g
         id="textext-a0f2244c-4">
        <g
           style="fill:#000000;fill-opacity:1"
           id="g35649">
          <use
             height="212.59842"
             width="372.04724"
             xlink:href="#textext-a0f2244c-1"
             x="223.43201"
             y="134.765"
             id="use35651" />
        </g>
        <g
           style="fill:#000000;fill-opacity:1"
           id="g35653">
          <use
             height="212.59842"
             width="372.04724"
             xlink:href="#textext-a0f2244c-3"
             x="231.181"
             y="134.765"
             id="use35655" />
        </g>
      </g>
    </g>
    <g
       id="g35867"
       ns0:preamble=""
       ns0:text="$\\ell_{0}^{(i)}$"
       transform="translate(-150.42703,-26.930671)">
      <defs
         id="defs35869">
        <g
           id="g35871">
          <symbol
             id="textext-4e23ff07-0"
             overflow="visible"
             style="overflow:visible">
            <path
               id="path35874"
               d=""
               style="stroke:none" />
          </symbol>
          <symbol
             id="textext-4e23ff07-1"
             overflow="visible"
             style="overflow:visible">
            <path
               id="path35877"
               d="M 0.15625,-0.984375 C 0.140625,-0.953125 0.109375,-0.921875 0.109375,-0.890625 C 0.109375,-0.84375 0.171875,-0.75 0.234375,-0.75 C 0.28125,-0.75 0.3125,-0.78125 0.59375,-1.0625 C 0.671875,-1.140625 0.875,-1.328125 0.953125,-1.40625 C 1.046875,-0.625 1.328125,0.125 2.0625,0.125 C 2.46875,0.125 2.8125,-0.109375 3.015625,-0.265625 C 3.15625,-0.359375 3.625,-0.75 3.625,-0.84375 C 3.625,-0.875 3.59375,-0.96875 3.515625,-0.96875 C 3.484375,-0.96875 3.46875,-0.953125 3.375,-0.875 C 2.734375,-0.25 2.375,-0.09375 2.078125,-0.09375 C 1.640625,-0.09375 1.46875,-0.625 1.46875,-1.390625 C 1.46875,-1.453125 1.5,-1.90625 1.53125,-1.96875 C 1.546875,-2 1.546875,-2.015625 1.75,-2.21875 C 2.546875,-3.015625 3.96875,-4.703125 3.96875,-6.25 C 3.96875,-6.421875 3.96875,-7.03125 3.375,-7.03125 C 2.546875,-7.03125 1.8125,-5.390625 1.71875,-5.15625 C 1.234375,-4.0625 0.921875,-2.90625 0.921875,-1.71875 L 0.15625,-0.984375 z M 1.578125,-2.375 C 1.59375,-2.5 2.03125,-4.703125 2.59375,-5.875 C 2.859375,-6.40625 3.078125,-6.8125 3.390625,-6.8125 C 3.734375,-6.8125 3.734375,-6.453125 3.734375,-6.296875 C 3.734375,-4.625 2.046875,-2.875 1.578125,-2.375 z"
               style="stroke:none" />
          </symbol>
          <symbol
             id="textext-4e23ff07-2"
             overflow="visible"
             style="overflow:visible">
            <path
               id="path35880"
               d=""
               style="stroke:none" />
          </symbol>
          <symbol
             id="textext-4e23ff07-3"
             overflow="visible"
             style="overflow:visible">
            <path
               id="path35883"
               d="M 2.46875,-5.21875 C 1.15625,-4.296875 0.796875,-2.8125 0.796875,-1.75 C 0.796875,-0.765625 1.09375,0.765625 2.46875,1.734375 C 2.53125,1.734375 2.609375,1.734375 2.609375,1.65625 C 2.609375,1.609375 2.59375,1.59375 2.546875,1.546875 C 1.609375,0.703125 1.28125,-0.46875 1.28125,-1.734375 C 1.28125,-3.625 2,-4.546875 2.5625,-5.0625 C 2.59375,-5.09375 2.609375,-5.109375 2.609375,-5.140625 C 2.609375,-5.21875 2.53125,-5.21875 2.46875,-5.21875 z"
               style="stroke:none" />
          </symbol>
          <symbol
             id="textext-4e23ff07-4"
             overflow="visible"
             style="overflow:visible">
            <path
               id="path35886"
               d="M 0.625,-5.21875 C 0.578125,-5.21875 0.5,-5.21875 0.5,-5.140625 C 0.5,-5.109375 0.515625,-5.09375 0.5625,-5.03125 C 1.15625,-4.484375 1.828125,-3.546875 1.828125,-1.75 C 1.828125,-0.296875 1.375,0.8125 0.625,1.484375 C 0.5,1.609375 0.5,1.609375 0.5,1.65625 C 0.5,1.6875 0.515625,1.734375 0.578125,1.734375 C 0.671875,1.734375 1.328125,1.28125 1.796875,0.40625 C 2.09375,-0.171875 2.296875,-0.921875 2.296875,-1.734375 C 2.296875,-2.71875 2,-4.25 0.625,-5.21875 z"
               style="stroke:none" />
          </symbol>
          <symbol
             id="textext-4e23ff07-5"
             overflow="visible"
             style="overflow:visible">
            <path
               id="path35889"
               d="M 3.59375,-2.21875 C 3.59375,-2.984375 3.5,-3.546875 3.1875,-4.03125 C 2.96875,-4.34375 2.53125,-4.625 1.984375,-4.625 C 0.359375,-4.625 0.359375,-2.71875 0.359375,-2.21875 C 0.359375,-1.71875 0.359375,0.140625 1.984375,0.140625 C 3.59375,0.140625 3.59375,-1.71875 3.59375,-2.21875 z M 1.984375,-0.0625 C 1.65625,-0.0625 1.234375,-0.25 1.09375,-0.8125 C 1,-1.21875 1,-1.796875 1,-2.3125 C 1,-2.828125 1,-3.359375 1.09375,-3.734375 C 1.25,-4.28125 1.6875,-4.4375 1.984375,-4.4375 C 2.359375,-4.4375 2.71875,-4.203125 2.84375,-3.796875 C 2.953125,-3.421875 2.96875,-2.921875 2.96875,-2.3125 C 2.96875,-1.796875 2.96875,-1.28125 2.875,-0.84375 C 2.734375,-0.203125 2.265625,-0.0625 1.984375,-0.0625 z"
               style="stroke:none" />
          </symbol>
          <symbol
             id="textext-4e23ff07-6"
             overflow="visible"
             style="overflow:visible">
            <path
               id="path35892"
               d=""
               style="stroke:none" />
          </symbol>
          <symbol
             id="textext-4e23ff07-7"
             overflow="visible"
             style="overflow:visible">
            <path
               id="path35895"
               d="M 2.265625,-4.359375 C 2.265625,-4.46875 2.171875,-4.625 1.984375,-4.625 C 1.796875,-4.625 1.59375,-4.4375 1.59375,-4.234375 C 1.59375,-4.125 1.671875,-3.96875 1.875,-3.96875 C 2.0625,-3.96875 2.265625,-4.171875 2.265625,-4.359375 z M 0.84375,-0.8125 C 0.8125,-0.71875 0.78125,-0.640625 0.78125,-0.515625 C 0.78125,-0.1875 1.046875,0.0625 1.4375,0.0625 C 2.125,0.0625 2.4375,-0.890625 2.4375,-1 C 2.4375,-1.09375 2.34375,-1.09375 2.328125,-1.09375 C 2.234375,-1.09375 2.21875,-1.046875 2.1875,-0.96875 C 2.03125,-0.40625 1.734375,-0.125 1.453125,-0.125 C 1.3125,-0.125 1.28125,-0.21875 1.28125,-0.375 C 1.28125,-0.53125 1.328125,-0.65625 1.390625,-0.8125 C 1.46875,-1 1.546875,-1.1875 1.609375,-1.375 C 1.671875,-1.546875 1.9375,-2.171875 1.953125,-2.265625 C 1.984375,-2.328125 2,-2.40625 2,-2.484375 C 2,-2.8125 1.71875,-3.078125 1.34375,-3.078125 C 0.640625,-3.078125 0.328125,-2.125 0.328125,-2 C 0.328125,-1.921875 0.421875,-1.921875 0.453125,-1.921875 C 0.546875,-1.921875 0.546875,-1.953125 0.578125,-2.03125 C 0.75,-2.625 1.0625,-2.875 1.3125,-2.875 C 1.421875,-2.875 1.484375,-2.828125 1.484375,-2.640625 C 1.484375,-2.46875 1.453125,-2.375 1.28125,-1.9375 L 0.84375,-0.8125 z"
               style="stroke:none" />
          </symbol>
        </g>
      </defs>
      <g
         id="textext-4e23ff07-8">
        <g
           id="g35898"
           style="fill:#000000;fill-opacity:1">
          <use
             id="use35900"
             y="135.20799"
             x="223.43201"
             xlink:href="#textext-4e23ff07-1"
             width="372.04724"
             height="212.59842" />
        </g>
        <g
           id="g35902"
           style="fill:#000000;fill-opacity:1">
          <use
             id="use35904"
             y="130.033"
             x="227.58299"
             xlink:href="#textext-4e23ff07-3"
             width="372.04724"
             height="212.59842" />
        </g>
        <g
           id="g35906"
           style="fill:#000000;fill-opacity:1">
          <use
             id="use35908"
             y="130.033"
             x="230.69701"
             xlink:href="#textext-4e23ff07-7"
             width="372.04724"
             height="212.59842" />
        </g>
        <g
           id="g35910"
           style="fill:#000000;fill-opacity:1">
          <use
             id="use35912"
             y="130.033"
             x="233.515"
             xlink:href="#textext-4e23ff07-4"
             width="372.04724"
             height="212.59842" />
        </g>
        <g
           id="g35914"
           style="fill:#000000;fill-opacity:1">
          <use
             id="use35916"
             y="137.864"
             x="227.58299"
             xlink:href="#textext-4e23ff07-5"
             width="372.04724"
             height="212.59842" />
        </g>
      </g>
    </g>
    <g
       ns0:text="$\\ell_{2}^{(i)}$"
       ns0:preamble=""
       transform="translate(-106.42703,-26.930671)"
       id="g36248">
      <defs
         id="defs36250">
        <g
           id="g36252">
          <symbol
             overflow="visible"
             id="textext-63aed1ec-0">
            <path
               style="stroke:none;"
               d=""
               id="path36255" />
          </symbol>
          <symbol
             overflow="visible"
             id="textext-63aed1ec-1">
            <path
               style="stroke:none;"
               d="M 0.15625 -0.984375 C 0.140625 -0.953125 0.109375 -0.921875 0.109375 -0.890625 C 0.109375 -0.84375 0.171875 -0.75 0.234375 -0.75 C 0.28125 -0.75 0.3125 -0.78125 0.59375 -1.0625 C 0.671875 -1.140625 0.875 -1.328125 0.953125 -1.40625 C 1.046875 -0.625 1.328125 0.125 2.0625 0.125 C 2.46875 0.125 2.8125 -0.109375 3.015625 -0.265625 C 3.15625 -0.359375 3.625 -0.75 3.625 -0.84375 C 3.625 -0.875 3.59375 -0.96875 3.515625 -0.96875 C 3.484375 -0.96875 3.46875 -0.953125 3.375 -0.875 C 2.734375 -0.25 2.375 -0.09375 2.078125 -0.09375 C 1.640625 -0.09375 1.46875 -0.625 1.46875 -1.390625 C 1.46875 -1.453125 1.5 -1.90625 1.53125 -1.96875 C 1.546875 -2 1.546875 -2.015625 1.75 -2.21875 C 2.546875 -3.015625 3.96875 -4.703125 3.96875 -6.25 C 3.96875 -6.421875 3.96875 -7.03125 3.375 -7.03125 C 2.546875 -7.03125 1.8125 -5.390625 1.71875 -5.15625 C 1.234375 -4.0625 0.921875 -2.90625 0.921875 -1.71875 L 0.15625 -0.984375 Z M 1.578125 -2.375 C 1.59375 -2.5 2.03125 -4.703125 2.59375 -5.875 C 2.859375 -6.40625 3.078125 -6.8125 3.390625 -6.8125 C 3.734375 -6.8125 3.734375 -6.453125 3.734375 -6.296875 C 3.734375 -4.625 2.046875 -2.875 1.578125 -2.375 Z M 1.578125 -2.375 "
               id="path36258" />
          </symbol>
          <symbol
             overflow="visible"
             id="textext-63aed1ec-2">
            <path
               style="stroke:none;"
               d=""
               id="path36261" />
          </symbol>
          <symbol
             overflow="visible"
             id="textext-63aed1ec-3">
            <path
               style="stroke:none;"
               d="M 2.46875 -5.21875 C 1.15625 -4.296875 0.796875 -2.8125 0.796875 -1.75 C 0.796875 -0.765625 1.09375 0.765625 2.46875 1.734375 C 2.53125 1.734375 2.609375 1.734375 2.609375 1.65625 C 2.609375 1.609375 2.59375 1.59375 2.546875 1.546875 C 1.609375 0.703125 1.28125 -0.46875 1.28125 -1.734375 C 1.28125 -3.625 2 -4.546875 2.5625 -5.0625 C 2.59375 -5.09375 2.609375 -5.109375 2.609375 -5.140625 C 2.609375 -5.21875 2.53125 -5.21875 2.46875 -5.21875 Z M 2.46875 -5.21875 "
               id="path36264" />
          </symbol>
          <symbol
             overflow="visible"
             id="textext-63aed1ec-4">
            <path
               style="stroke:none;"
               d="M 0.625 -5.21875 C 0.578125 -5.21875 0.5 -5.21875 0.5 -5.140625 C 0.5 -5.109375 0.515625 -5.09375 0.5625 -5.03125 C 1.15625 -4.484375 1.828125 -3.546875 1.828125 -1.75 C 1.828125 -0.296875 1.375 0.8125 0.625 1.484375 C 0.5 1.609375 0.5 1.609375 0.5 1.65625 C 0.5 1.6875 0.515625 1.734375 0.578125 1.734375 C 0.671875 1.734375 1.328125 1.28125 1.796875 0.40625 C 2.09375 -0.171875 2.296875 -0.921875 2.296875 -1.734375 C 2.296875 -2.71875 2 -4.25 0.625 -5.21875 Z M 0.625 -5.21875 "
               id="path36267" />
          </symbol>
          <symbol
             overflow="visible"
             id="textext-63aed1ec-5">
            <path
               style="stroke:none;"
               d="M 3.515625 -1.265625 L 3.28125 -1.265625 C 3.265625 -1.109375 3.1875 -0.703125 3.09375 -0.640625 C 3.046875 -0.59375 2.515625 -0.59375 2.40625 -0.59375 L 1.125 -0.59375 C 1.859375 -1.234375 2.109375 -1.4375 2.515625 -1.765625 C 3.03125 -2.171875 3.515625 -2.609375 3.515625 -3.265625 C 3.515625 -4.109375 2.78125 -4.625 1.890625 -4.625 C 1.03125 -4.625 0.4375 -4.015625 0.4375 -3.375 C 0.4375 -3.03125 0.734375 -2.984375 0.8125 -2.984375 C 0.96875 -2.984375 1.171875 -3.109375 1.171875 -3.359375 C 1.171875 -3.484375 1.125 -3.734375 0.765625 -3.734375 C 0.984375 -4.21875 1.453125 -4.375 1.78125 -4.375 C 2.484375 -4.375 2.84375 -3.828125 2.84375 -3.265625 C 2.84375 -2.65625 2.40625 -2.1875 2.1875 -1.9375 L 0.515625 -0.265625 C 0.4375 -0.203125 0.4375 -0.1875 0.4375 0 L 3.3125 0 L 3.515625 -1.265625 Z M 3.515625 -1.265625 "
               id="path36270" />
          </symbol>
          <symbol
             overflow="visible"
             id="textext-63aed1ec-6">
            <path
               style="stroke:none;"
               d=""
               id="path36273" />
          </symbol>
          <symbol
             overflow="visible"
             id="textext-63aed1ec-7">
            <path
               style="stroke:none;"
               d="M 2.265625 -4.359375 C 2.265625 -4.46875 2.171875 -4.625 1.984375 -4.625 C 1.796875 -4.625 1.59375 -4.4375 1.59375 -4.234375 C 1.59375 -4.125 1.671875 -3.96875 1.875 -3.96875 C 2.0625 -3.96875 2.265625 -4.171875 2.265625 -4.359375 Z M 0.84375 -0.8125 C 0.8125 -0.71875 0.78125 -0.640625 0.78125 -0.515625 C 0.78125 -0.1875 1.046875 0.0625 1.4375 0.0625 C 2.125 0.0625 2.4375 -0.890625 2.4375 -1 C 2.4375 -1.09375 2.34375 -1.09375 2.328125 -1.09375 C 2.234375 -1.09375 2.21875 -1.046875 2.1875 -0.96875 C 2.03125 -0.40625 1.734375 -0.125 1.453125 -0.125 C 1.3125 -0.125 1.28125 -0.21875 1.28125 -0.375 C 1.28125 -0.53125 1.328125 -0.65625 1.390625 -0.8125 C 1.46875 -1 1.546875 -1.1875 1.609375 -1.375 C 1.671875 -1.546875 1.9375 -2.171875 1.953125 -2.265625 C 1.984375 -2.328125 2 -2.40625 2 -2.484375 C 2 -2.8125 1.71875 -3.078125 1.34375 -3.078125 C 0.640625 -3.078125 0.328125 -2.125 0.328125 -2 C 0.328125 -1.921875 0.421875 -1.921875 0.453125 -1.921875 C 0.546875 -1.921875 0.546875 -1.953125 0.578125 -2.03125 C 0.75 -2.625 1.0625 -2.875 1.3125 -2.875 C 1.421875 -2.875 1.484375 -2.828125 1.484375 -2.640625 C 1.484375 -2.46875 1.453125 -2.375 1.28125 -1.9375 L 0.84375 -0.8125 Z M 0.84375 -0.8125 "
               id="path36276" />
          </symbol>
        </g>
      </defs>
      <g
         id="textext-63aed1ec-8">
        <g
           style="fill:rgb(0%,0%,0%);fill-opacity:1;"
           id="g36279">
          <use
             xlink:href="#textext-63aed1ec-1"
             x="223.432"
             y="135.208"
             id="use36281" />
        </g>
        <g
           style="fill:rgb(0%,0%,0%);fill-opacity:1;"
           id="g36283">
          <use
             xlink:href="#textext-63aed1ec-3"
             x="227.583"
             y="130.033"
             id="use36285" />
        </g>
        <g
           style="fill:rgb(0%,0%,0%);fill-opacity:1;"
           id="g36287">
          <use
             xlink:href="#textext-63aed1ec-7"
             x="230.697"
             y="130.033"
             id="use36289" />
        </g>
        <g
           style="fill:rgb(0%,0%,0%);fill-opacity:1;"
           id="g36291">
          <use
             xlink:href="#textext-63aed1ec-4"
             x="233.515"
             y="130.033"
             id="use36293" />
        </g>
        <g
           style="fill:rgb(0%,0%,0%);fill-opacity:1;"
           id="g36295">
          <use
             xlink:href="#textext-63aed1ec-5"
             x="227.583"
             y="137.864"
             id="use36297" />
        </g>
      </g>
    </g>
    <g
       id="g36689"
       transform="translate(-2.42703,-26.930671)"
       ns0:preamble=""
       ns0:text="$\\ell_{i-1}^{(i)}$">
      <defs
         id="defs36691">
        <g
           id="g36693">
          <symbol
             id="textext-52eec029-0"
             overflow="visible">
            <path
               id="path36696"
               d=""
               style="stroke:none;" />
          </symbol>
          <symbol
             id="textext-52eec029-1"
             overflow="visible">
            <path
               id="path36699"
               d="M 0.15625 -0.984375 C 0.140625 -0.953125 0.109375 -0.921875 0.109375 -0.890625 C 0.109375 -0.84375 0.171875 -0.75 0.234375 -0.75 C 0.28125 -0.75 0.3125 -0.78125 0.59375 -1.0625 C 0.671875 -1.140625 0.875 -1.328125 0.953125 -1.40625 C 1.046875 -0.625 1.328125 0.125 2.0625 0.125 C 2.46875 0.125 2.8125 -0.109375 3.015625 -0.265625 C 3.15625 -0.359375 3.625 -0.75 3.625 -0.84375 C 3.625 -0.875 3.59375 -0.96875 3.515625 -0.96875 C 3.484375 -0.96875 3.46875 -0.953125 3.375 -0.875 C 2.734375 -0.25 2.375 -0.09375 2.078125 -0.09375 C 1.640625 -0.09375 1.46875 -0.625 1.46875 -1.390625 C 1.46875 -1.453125 1.5 -1.90625 1.53125 -1.96875 C 1.546875 -2 1.546875 -2.015625 1.75 -2.21875 C 2.546875 -3.015625 3.96875 -4.703125 3.96875 -6.25 C 3.96875 -6.421875 3.96875 -7.03125 3.375 -7.03125 C 2.546875 -7.03125 1.8125 -5.390625 1.71875 -5.15625 C 1.234375 -4.0625 0.921875 -2.90625 0.921875 -1.71875 L 0.15625 -0.984375 Z M 1.578125 -2.375 C 1.59375 -2.5 2.03125 -4.703125 2.59375 -5.875 C 2.859375 -6.40625 3.078125 -6.8125 3.390625 -6.8125 C 3.734375 -6.8125 3.734375 -6.453125 3.734375 -6.296875 C 3.734375 -4.625 2.046875 -2.875 1.578125 -2.375 Z M 1.578125 -2.375 "
               style="stroke:none;" />
          </symbol>
          <symbol
             id="textext-52eec029-2"
             overflow="visible">
            <path
               id="path36702"
               d=""
               style="stroke:none;" />
          </symbol>
          <symbol
             id="textext-52eec029-3"
             overflow="visible">
            <path
               id="path36705"
               d="M 2.46875 -5.21875 C 1.15625 -4.296875 0.796875 -2.8125 0.796875 -1.75 C 0.796875 -0.765625 1.09375 0.765625 2.46875 1.734375 C 2.53125 1.734375 2.609375 1.734375 2.609375 1.65625 C 2.609375 1.609375 2.59375 1.59375 2.546875 1.546875 C 1.609375 0.703125 1.28125 -0.46875 1.28125 -1.734375 C 1.28125 -3.625 2 -4.546875 2.5625 -5.0625 C 2.59375 -5.09375 2.609375 -5.109375 2.609375 -5.140625 C 2.609375 -5.21875 2.53125 -5.21875 2.46875 -5.21875 Z M 2.46875 -5.21875 "
               style="stroke:none;" />
          </symbol>
          <symbol
             id="textext-52eec029-4"
             overflow="visible">
            <path
               id="path36708"
               d="M 0.625 -5.21875 C 0.578125 -5.21875 0.5 -5.21875 0.5 -5.140625 C 0.5 -5.109375 0.515625 -5.09375 0.5625 -5.03125 C 1.15625 -4.484375 1.828125 -3.546875 1.828125 -1.75 C 1.828125 -0.296875 1.375 0.8125 0.625 1.484375 C 0.5 1.609375 0.5 1.609375 0.5 1.65625 C 0.5 1.6875 0.515625 1.734375 0.578125 1.734375 C 0.671875 1.734375 1.328125 1.28125 1.796875 0.40625 C 2.09375 -0.171875 2.296875 -0.921875 2.296875 -1.734375 C 2.296875 -2.71875 2 -4.25 0.625 -5.21875 Z M 0.625 -5.21875 "
               style="stroke:none;" />
          </symbol>
          <symbol
             id="textext-52eec029-5"
             overflow="visible">
            <path
               id="path36711"
               d="M 2.328125 -4.4375 C 2.328125 -4.625 2.328125 -4.625 2.125 -4.625 C 1.671875 -4.1875 1.046875 -4.1875 0.765625 -4.1875 L 0.765625 -3.9375 C 0.921875 -3.9375 1.390625 -3.9375 1.765625 -4.125 L 1.765625 -0.578125 C 1.765625 -0.34375 1.765625 -0.25 1.078125 -0.25 L 0.8125 -0.25 L 0.8125 0 C 0.9375 0 1.796875 -0.03125 2.046875 -0.03125 C 2.265625 -0.03125 3.140625 0 3.296875 0 L 3.296875 -0.25 L 3.03125 -0.25 C 2.328125 -0.25 2.328125 -0.34375 2.328125 -0.578125 L 2.328125 -4.4375 Z M 2.328125 -4.4375 "
               style="stroke:none;" />
          </symbol>
          <symbol
             id="textext-52eec029-6"
             overflow="visible">
            <path
               id="path36714"
               d=""
               style="stroke:none;" />
          </symbol>
          <symbol
             id="textext-52eec029-7"
             overflow="visible">
            <path
               id="path36717"
               d="M 2.265625 -4.359375 C 2.265625 -4.46875 2.171875 -4.625 1.984375 -4.625 C 1.796875 -4.625 1.59375 -4.4375 1.59375 -4.234375 C 1.59375 -4.125 1.671875 -3.96875 1.875 -3.96875 C 2.0625 -3.96875 2.265625 -4.171875 2.265625 -4.359375 Z M 0.84375 -0.8125 C 0.8125 -0.71875 0.78125 -0.640625 0.78125 -0.515625 C 0.78125 -0.1875 1.046875 0.0625 1.4375 0.0625 C 2.125 0.0625 2.4375 -0.890625 2.4375 -1 C 2.4375 -1.09375 2.34375 -1.09375 2.328125 -1.09375 C 2.234375 -1.09375 2.21875 -1.046875 2.1875 -0.96875 C 2.03125 -0.40625 1.734375 -0.125 1.453125 -0.125 C 1.3125 -0.125 1.28125 -0.21875 1.28125 -0.375 C 1.28125 -0.53125 1.328125 -0.65625 1.390625 -0.8125 C 1.46875 -1 1.546875 -1.1875 1.609375 -1.375 C 1.671875 -1.546875 1.9375 -2.171875 1.953125 -2.265625 C 1.984375 -2.328125 2 -2.40625 2 -2.484375 C 2 -2.8125 1.71875 -3.078125 1.34375 -3.078125 C 0.640625 -3.078125 0.328125 -2.125 0.328125 -2 C 0.328125 -1.921875 0.421875 -1.921875 0.453125 -1.921875 C 0.546875 -1.921875 0.546875 -1.953125 0.578125 -2.03125 C 0.75 -2.625 1.0625 -2.875 1.3125 -2.875 C 1.421875 -2.875 1.484375 -2.828125 1.484375 -2.640625 C 1.484375 -2.46875 1.453125 -2.375 1.28125 -1.9375 L 0.84375 -0.8125 Z M 0.84375 -0.8125 "
               style="stroke:none;" />
          </symbol>
          <symbol
             id="textext-52eec029-8"
             overflow="visible">
            <path
               id="path36720"
               d=""
               style="stroke:none;" />
          </symbol>
          <symbol
             id="textext-52eec029-9"
             overflow="visible">
            <path
               id="path36723"
               d="M 5.203125 -1.578125 C 5.296875 -1.578125 5.46875 -1.578125 5.46875 -1.734375 C 5.46875 -1.921875 5.296875 -1.921875 5.203125 -1.921875 L 1.015625 -1.921875 C 0.90625 -1.921875 0.75 -1.921875 0.75 -1.734375 C 0.75 -1.578125 0.921875 -1.578125 1.015625 -1.578125 L 5.203125 -1.578125 Z M 5.203125 -1.578125 "
               style="stroke:none;" />
          </symbol>
        </g>
      </defs>
      <g
         id="textext-52eec029-10">
        <g
           id="g36726"
           style="fill:rgb(0%,0%,0%);fill-opacity:1;">
          <use
             id="use36728"
             y="135.208"
             x="223.432"
             xlink:href="#textext-52eec029-1" />
        </g>
        <g
           id="g36730"
           style="fill:rgb(0%,0%,0%);fill-opacity:1;">
          <use
             id="use36732"
             y="130.033"
             x="227.583"
             xlink:href="#textext-52eec029-3" />
        </g>
        <g
           id="g36734"
           style="fill:rgb(0%,0%,0%);fill-opacity:1;">
          <use
             id="use36736"
             y="130.033"
             x="230.697"
             xlink:href="#textext-52eec029-7" />
        </g>
        <g
           id="g36738"
           style="fill:rgb(0%,0%,0%);fill-opacity:1;">
          <use
             id="use36740"
             y="130.033"
             x="233.515"
             xlink:href="#textext-52eec029-4" />
        </g>
        <g
           id="g36742"
           style="fill:rgb(0%,0%,0%);fill-opacity:1;">
          <use
             id="use36744"
             y="137.985"
             x="227.583"
             xlink:href="#textext-52eec029-7" />
        </g>
        <g
           id="g36746"
           style="fill:rgb(0%,0%,0%);fill-opacity:1;">
          <use
             id="use36748"
             y="137.985"
             x="230.402"
             xlink:href="#textext-52eec029-9" />
        </g>
        <g
           id="g36750"
           style="fill:rgb(0%,0%,0%);fill-opacity:1;">
          <use
             id="use36752"
             y="137.985"
             x="236.629"
             xlink:href="#textext-52eec029-5" />
        </g>
      </g>
    </g>
    <g
       ns0:text="$\\ell_{i}^{(i)}$"
       ns0:preamble=""
       transform="translate(43.57297,-26.930671)"
       id="g37236">
      <defs
         id="defs37238">
        <g
           id="g37240">
          <symbol
             overflow="visible"
             id="textext-02fedd73-0">
            <path
               style="stroke:none;"
               d=""
               id="path37243" />
          </symbol>
          <symbol
             overflow="visible"
             id="textext-02fedd73-1">
            <path
               style="stroke:none;"
               d="M 0.15625 -0.984375 C 0.140625 -0.953125 0.109375 -0.921875 0.109375 -0.890625 C 0.109375 -0.84375 0.171875 -0.75 0.234375 -0.75 C 0.28125 -0.75 0.3125 -0.78125 0.59375 -1.0625 C 0.671875 -1.140625 0.875 -1.328125 0.953125 -1.40625 C 1.046875 -0.625 1.328125 0.125 2.0625 0.125 C 2.46875 0.125 2.8125 -0.109375 3.015625 -0.265625 C 3.15625 -0.359375 3.625 -0.75 3.625 -0.84375 C 3.625 -0.875 3.59375 -0.96875 3.515625 -0.96875 C 3.484375 -0.96875 3.46875 -0.953125 3.375 -0.875 C 2.734375 -0.25 2.375 -0.09375 2.078125 -0.09375 C 1.640625 -0.09375 1.46875 -0.625 1.46875 -1.390625 C 1.46875 -1.453125 1.5 -1.90625 1.53125 -1.96875 C 1.546875 -2 1.546875 -2.015625 1.75 -2.21875 C 2.546875 -3.015625 3.96875 -4.703125 3.96875 -6.25 C 3.96875 -6.421875 3.96875 -7.03125 3.375 -7.03125 C 2.546875 -7.03125 1.8125 -5.390625 1.71875 -5.15625 C 1.234375 -4.0625 0.921875 -2.90625 0.921875 -1.71875 L 0.15625 -0.984375 Z M 1.578125 -2.375 C 1.59375 -2.5 2.03125 -4.703125 2.59375 -5.875 C 2.859375 -6.40625 3.078125 -6.8125 3.390625 -6.8125 C 3.734375 -6.8125 3.734375 -6.453125 3.734375 -6.296875 C 3.734375 -4.625 2.046875 -2.875 1.578125 -2.375 Z M 1.578125 -2.375 "
               id="path37246" />
          </symbol>
          <symbol
             overflow="visible"
             id="textext-02fedd73-2">
            <path
               style="stroke:none;"
               d=""
               id="path37249" />
          </symbol>
          <symbol
             overflow="visible"
             id="textext-02fedd73-3">
            <path
               style="stroke:none;"
               d="M 2.46875 -5.21875 C 1.15625 -4.296875 0.796875 -2.8125 0.796875 -1.75 C 0.796875 -0.765625 1.09375 0.765625 2.46875 1.734375 C 2.53125 1.734375 2.609375 1.734375 2.609375 1.65625 C 2.609375 1.609375 2.59375 1.59375 2.546875 1.546875 C 1.609375 0.703125 1.28125 -0.46875 1.28125 -1.734375 C 1.28125 -3.625 2 -4.546875 2.5625 -5.0625 C 2.59375 -5.09375 2.609375 -5.109375 2.609375 -5.140625 C 2.609375 -5.21875 2.53125 -5.21875 2.46875 -5.21875 Z M 2.46875 -5.21875 "
               id="path37252" />
          </symbol>
          <symbol
             overflow="visible"
             id="textext-02fedd73-4">
            <path
               style="stroke:none;"
               d="M 0.625 -5.21875 C 0.578125 -5.21875 0.5 -5.21875 0.5 -5.140625 C 0.5 -5.109375 0.515625 -5.09375 0.5625 -5.03125 C 1.15625 -4.484375 1.828125 -3.546875 1.828125 -1.75 C 1.828125 -0.296875 1.375 0.8125 0.625 1.484375 C 0.5 1.609375 0.5 1.609375 0.5 1.65625 C 0.5 1.6875 0.515625 1.734375 0.578125 1.734375 C 0.671875 1.734375 1.328125 1.28125 1.796875 0.40625 C 2.09375 -0.171875 2.296875 -0.921875 2.296875 -1.734375 C 2.296875 -2.71875 2 -4.25 0.625 -5.21875 Z M 0.625 -5.21875 "
               id="path37255" />
          </symbol>
          <symbol
             overflow="visible"
             id="textext-02fedd73-5">
            <path
               style="stroke:none;"
               d=""
               id="path37258" />
          </symbol>
          <symbol
             overflow="visible"
             id="textext-02fedd73-6">
            <path
               style="stroke:none;"
               d="M 2.265625 -4.359375 C 2.265625 -4.46875 2.171875 -4.625 1.984375 -4.625 C 1.796875 -4.625 1.59375 -4.4375 1.59375 -4.234375 C 1.59375 -4.125 1.671875 -3.96875 1.875 -3.96875 C 2.0625 -3.96875 2.265625 -4.171875 2.265625 -4.359375 Z M 0.84375 -0.8125 C 0.8125 -0.71875 0.78125 -0.640625 0.78125 -0.515625 C 0.78125 -0.1875 1.046875 0.0625 1.4375 0.0625 C 2.125 0.0625 2.4375 -0.890625 2.4375 -1 C 2.4375 -1.09375 2.34375 -1.09375 2.328125 -1.09375 C 2.234375 -1.09375 2.21875 -1.046875 2.1875 -0.96875 C 2.03125 -0.40625 1.734375 -0.125 1.453125 -0.125 C 1.3125 -0.125 1.28125 -0.21875 1.28125 -0.375 C 1.28125 -0.53125 1.328125 -0.65625 1.390625 -0.8125 C 1.46875 -1 1.546875 -1.1875 1.609375 -1.375 C 1.671875 -1.546875 1.9375 -2.171875 1.953125 -2.265625 C 1.984375 -2.328125 2 -2.40625 2 -2.484375 C 2 -2.8125 1.71875 -3.078125 1.34375 -3.078125 C 0.640625 -3.078125 0.328125 -2.125 0.328125 -2 C 0.328125 -1.921875 0.421875 -1.921875 0.453125 -1.921875 C 0.546875 -1.921875 0.546875 -1.953125 0.578125 -2.03125 C 0.75 -2.625 1.0625 -2.875 1.3125 -2.875 C 1.421875 -2.875 1.484375 -2.828125 1.484375 -2.640625 C 1.484375 -2.46875 1.453125 -2.375 1.28125 -1.9375 L 0.84375 -0.8125 Z M 0.84375 -0.8125 "
               id="path37261" />
          </symbol>
        </g>
      </defs>
      <g
         id="textext-02fedd73-7">
        <g
           style="fill:rgb(0%,0%,0%);fill-opacity:1;"
           id="g37264">
          <use
             xlink:href="#textext-02fedd73-1"
             x="223.432"
             y="135.208"
             id="use37266" />
        </g>
        <g
           style="fill:rgb(0%,0%,0%);fill-opacity:1;"
           id="g37268">
          <use
             xlink:href="#textext-02fedd73-3"
             x="227.583"
             y="130.033"
             id="use37270" />
        </g>
        <g
           style="fill:rgb(0%,0%,0%);fill-opacity:1;"
           id="g37272">
          <use
             xlink:href="#textext-02fedd73-6"
             x="230.697"
             y="130.033"
             id="use37274" />
        </g>
        <g
           style="fill:rgb(0%,0%,0%);fill-opacity:1;"
           id="g37276">
          <use
             xlink:href="#textext-02fedd73-4"
             x="233.515"
             y="130.033"
             id="use37278" />
        </g>
        <g
           style="fill:rgb(0%,0%,0%);fill-opacity:1;"
           id="g37280">
          <use
             xlink:href="#textext-02fedd73-6"
             x="227.583"
             y="137.985"
             id="use37282" />
        </g>
      </g>
    </g>
    <g
       id="g37802"
       transform="translate(89.57297,-26.930671)"
       ns0:preamble=""
       ns0:text="$\\ell_{1}^{(i)}$">
      <defs
         id="defs37804">
        <g
           id="g37806">
          <symbol
             id="textext-7dd7578a-0"
             overflow="visible">
            <path
               id="path37809"
               d=""
               style="stroke:none;" />
          </symbol>
          <symbol
             id="textext-7dd7578a-1"
             overflow="visible">
            <path
               id="path37812"
               d="M 0.15625 -0.984375 C 0.140625 -0.953125 0.109375 -0.921875 0.109375 -0.890625 C 0.109375 -0.84375 0.171875 -0.75 0.234375 -0.75 C 0.28125 -0.75 0.3125 -0.78125 0.59375 -1.0625 C 0.671875 -1.140625 0.875 -1.328125 0.953125 -1.40625 C 1.046875 -0.625 1.328125 0.125 2.0625 0.125 C 2.46875 0.125 2.8125 -0.109375 3.015625 -0.265625 C 3.15625 -0.359375 3.625 -0.75 3.625 -0.84375 C 3.625 -0.875 3.59375 -0.96875 3.515625 -0.96875 C 3.484375 -0.96875 3.46875 -0.953125 3.375 -0.875 C 2.734375 -0.25 2.375 -0.09375 2.078125 -0.09375 C 1.640625 -0.09375 1.46875 -0.625 1.46875 -1.390625 C 1.46875 -1.453125 1.5 -1.90625 1.53125 -1.96875 C 1.546875 -2 1.546875 -2.015625 1.75 -2.21875 C 2.546875 -3.015625 3.96875 -4.703125 3.96875 -6.25 C 3.96875 -6.421875 3.96875 -7.03125 3.375 -7.03125 C 2.546875 -7.03125 1.8125 -5.390625 1.71875 -5.15625 C 1.234375 -4.0625 0.921875 -2.90625 0.921875 -1.71875 L 0.15625 -0.984375 Z M 1.578125 -2.375 C 1.59375 -2.5 2.03125 -4.703125 2.59375 -5.875 C 2.859375 -6.40625 3.078125 -6.8125 3.390625 -6.8125 C 3.734375 -6.8125 3.734375 -6.453125 3.734375 -6.296875 C 3.734375 -4.625 2.046875 -2.875 1.578125 -2.375 Z M 1.578125 -2.375 "
               style="stroke:none;" />
          </symbol>
          <symbol
             id="textext-7dd7578a-2"
             overflow="visible">
            <path
               id="path37815"
               d=""
               style="stroke:none;" />
          </symbol>
          <symbol
             id="textext-7dd7578a-3"
             overflow="visible">
            <path
               id="path37818"
               d="M 2.46875 -5.21875 C 1.15625 -4.296875 0.796875 -2.8125 0.796875 -1.75 C 0.796875 -0.765625 1.09375 0.765625 2.46875 1.734375 C 2.53125 1.734375 2.609375 1.734375 2.609375 1.65625 C 2.609375 1.609375 2.59375 1.59375 2.546875 1.546875 C 1.609375 0.703125 1.28125 -0.46875 1.28125 -1.734375 C 1.28125 -3.625 2 -4.546875 2.5625 -5.0625 C 2.59375 -5.09375 2.609375 -5.109375 2.609375 -5.140625 C 2.609375 -5.21875 2.53125 -5.21875 2.46875 -5.21875 Z M 2.46875 -5.21875 "
               style="stroke:none;" />
          </symbol>
          <symbol
             id="textext-7dd7578a-4"
             overflow="visible">
            <path
               id="path37821"
               d="M 0.625 -5.21875 C 0.578125 -5.21875 0.5 -5.21875 0.5 -5.140625 C 0.5 -5.109375 0.515625 -5.09375 0.5625 -5.03125 C 1.15625 -4.484375 1.828125 -3.546875 1.828125 -1.75 C 1.828125 -0.296875 1.375 0.8125 0.625 1.484375 C 0.5 1.609375 0.5 1.609375 0.5 1.65625 C 0.5 1.6875 0.515625 1.734375 0.578125 1.734375 C 0.671875 1.734375 1.328125 1.28125 1.796875 0.40625 C 2.09375 -0.171875 2.296875 -0.921875 2.296875 -1.734375 C 2.296875 -2.71875 2 -4.25 0.625 -5.21875 Z M 0.625 -5.21875 "
               style="stroke:none;" />
          </symbol>
          <symbol
             id="textext-7dd7578a-5"
             overflow="visible">
            <path
               id="path37824"
               d="M 2.328125 -4.4375 C 2.328125 -4.625 2.328125 -4.625 2.125 -4.625 C 1.671875 -4.1875 1.046875 -4.1875 0.765625 -4.1875 L 0.765625 -3.9375 C 0.921875 -3.9375 1.390625 -3.9375 1.765625 -4.125 L 1.765625 -0.578125 C 1.765625 -0.34375 1.765625 -0.25 1.078125 -0.25 L 0.8125 -0.25 L 0.8125 0 C 0.9375 0 1.796875 -0.03125 2.046875 -0.03125 C 2.265625 -0.03125 3.140625 0 3.296875 0 L 3.296875 -0.25 L 3.03125 -0.25 C 2.328125 -0.25 2.328125 -0.34375 2.328125 -0.578125 L 2.328125 -4.4375 Z M 2.328125 -4.4375 "
               style="stroke:none;" />
          </symbol>
          <symbol
             id="textext-7dd7578a-6"
             overflow="visible">
            <path
               id="path37827"
               d=""
               style="stroke:none;" />
          </symbol>
          <symbol
             id="textext-7dd7578a-7"
             overflow="visible">
            <path
               id="path37830"
               d="M 2.265625 -4.359375 C 2.265625 -4.46875 2.171875 -4.625 1.984375 -4.625 C 1.796875 -4.625 1.59375 -4.4375 1.59375 -4.234375 C 1.59375 -4.125 1.671875 -3.96875 1.875 -3.96875 C 2.0625 -3.96875 2.265625 -4.171875 2.265625 -4.359375 Z M 0.84375 -0.8125 C 0.8125 -0.71875 0.78125 -0.640625 0.78125 -0.515625 C 0.78125 -0.1875 1.046875 0.0625 1.4375 0.0625 C 2.125 0.0625 2.4375 -0.890625 2.4375 -1 C 2.4375 -1.09375 2.34375 -1.09375 2.328125 -1.09375 C 2.234375 -1.09375 2.21875 -1.046875 2.1875 -0.96875 C 2.03125 -0.40625 1.734375 -0.125 1.453125 -0.125 C 1.3125 -0.125 1.28125 -0.21875 1.28125 -0.375 C 1.28125 -0.53125 1.328125 -0.65625 1.390625 -0.8125 C 1.46875 -1 1.546875 -1.1875 1.609375 -1.375 C 1.671875 -1.546875 1.9375 -2.171875 1.953125 -2.265625 C 1.984375 -2.328125 2 -2.40625 2 -2.484375 C 2 -2.8125 1.71875 -3.078125 1.34375 -3.078125 C 0.640625 -3.078125 0.328125 -2.125 0.328125 -2 C 0.328125 -1.921875 0.421875 -1.921875 0.453125 -1.921875 C 0.546875 -1.921875 0.546875 -1.953125 0.578125 -2.03125 C 0.75 -2.625 1.0625 -2.875 1.3125 -2.875 C 1.421875 -2.875 1.484375 -2.828125 1.484375 -2.640625 C 1.484375 -2.46875 1.453125 -2.375 1.28125 -1.9375 L 0.84375 -0.8125 Z M 0.84375 -0.8125 "
               style="stroke:none;" />
          </symbol>
        </g>
      </defs>
      <g
         id="textext-7dd7578a-8">
        <g
           id="g37833"
           style="fill:rgb(0%,0%,0%);fill-opacity:1;">
          <use
             id="use37835"
             y="135.208"
             x="223.432"
             xlink:href="#textext-7dd7578a-1" />
        </g>
        <g
           id="g37837"
           style="fill:rgb(0%,0%,0%);fill-opacity:1;">
          <use
             id="use37839"
             y="130.033"
             x="227.583"
             xlink:href="#textext-7dd7578a-3" />
        </g>
        <g
           id="g37841"
           style="fill:rgb(0%,0%,0%);fill-opacity:1;">
          <use
             id="use37843"
             y="130.033"
             x="230.697"
             xlink:href="#textext-7dd7578a-7" />
        </g>
        <g
           id="g37845"
           style="fill:rgb(0%,0%,0%);fill-opacity:1;">
          <use
             id="use37847"
             y="130.033"
             x="233.515"
             xlink:href="#textext-7dd7578a-4" />
        </g>
        <g
           id="g37849"
           style="fill:rgb(0%,0%,0%);fill-opacity:1;">
          <use
             id="use37851"
             y="137.864"
             x="227.583"
             xlink:href="#textext-7dd7578a-5" />
        </g>
      </g>
    </g>
    <path
       sodipodi:type="arc"
       id="path38113"
       style="fill:#000000;stroke:none"
       sodipodi:cx="179.66605"
       sodipodi:cy="118.34107"
       sodipodi:rx="2"
       sodipodi:ry="2"
       d="M 181.66605,118.34107 A 2,2 0 1 1 177.66605,118.34107 A 2,2 0 1 1 181.66605,118.34107 z"
       transform="matrix(0.8557285,0,0,0.8557285,16.87967,-7.9140126)" />
    <path
       transform="matrix(0.8557285,0,0,0.8557285,22.87967,-7.9140126)"
       d="M 181.66605,118.34107 A 2,2 0 1 1 177.66605,118.34107 A 2,2 0 1 1 181.66605,118.34107 z"
       sodipodi:ry="2"
       sodipodi:rx="2"
       sodipodi:cy="118.34107"
       sodipodi:cx="179.66605"
       style="fill:#000000;stroke:none"
       id="path38115"
       sodipodi:type="arc" />
    <path
       sodipodi:type="arc"
       id="path38117"
       style="fill:#000000;stroke:none"
       sodipodi:cx="179.66605"
       sodipodi:cy="118.34107"
       sodipodi:rx="2"
       sodipodi:ry="2"
       d="M 181.66605,118.34107 A 2,2 0 1 1 177.66605,118.34107 A 2,2 0 1 1 181.66605,118.34107 z"
       transform="matrix(0.8557285,0,0,0.8557285,28.87967,-7.9140126)" />
  </g>
</svg>
