<?xml version="1.0" encoding="UTF-8" standalone="no"?>
<!-- Created with Inkscape (http://www.inkscape.org/) -->
<svg
   xmlns:ns0="http://www.iki.fi/pav/software/textext/"
   xmlns:dc="http://purl.org/dc/elements/1.1/"
   xmlns:cc="http://creativecommons.org/ns#"
   xmlns:rdf="http://www.w3.org/1999/02/22-rdf-syntax-ns#"
   xmlns:svg="http://www.w3.org/2000/svg"
   xmlns="http://www.w3.org/2000/svg"
   xmlns:xlink="http://www.w3.org/1999/xlink"
   xmlns:sodipodi="http://sodipodi.sourceforge.net/DTD/sodipodi-0.dtd"
   xmlns:inkscape="http://www.inkscape.org/namespaces/inkscape"
   width="354.33069"
   height="141.73228"
   id="svg2"
   sodipodi:version="0.32"
   inkscape:version="0.46"
   version="1.0"
   sodipodi:docname="chap2-fig13.svg"
   inkscape:output_extension="org.inkscape.output.svg.inkscape">
  <sodipodi:namedview
     id="base"
     pagecolor="#ffffff"
     bordercolor="#666666"
     borderopacity="1.0"
     gridtolerance="10000"
     guidetolerance="10"
     objecttolerance="10"
     inkscape:pageopacity="0.0"
     inkscape:pageshadow="2"
     inkscape:zoom="2.5992668"
     inkscape:cx="175.33556"
     inkscape:cy="61.385564"
     inkscape:document-units="px"
     inkscape:current-layer="layer1"
     showgrid="false"
     units="cm"
     inkscape:window-width="1009"
     inkscape:window-height="726"
     inkscape:window-x="5"
     inkscape:window-y="27" />
  <defs
     id="defs4">
    <inkscape:perspective
       id="perspective10"
       inkscape:persp3d-origin="372.04724 : 350.78739 : 1"
       inkscape:vp_z="744.09448 : 526.18109 : 1"
       inkscape:vp_y="0 : 1000 : 0"
       inkscape:vp_x="0 : 526.18109 : 1"
       sodipodi:type="inkscape:persp3d" />
  </defs>
  <metadata
     id="metadata7">
    <rdf:RDF>
      <cc:Work
         rdf:about="">
        <dc:format>image/svg+xml</dc:format>
        <dc:type
           rdf:resource="http://purl.org/dc/dcmitype/StillImage" />
      </cc:Work>
    </rdf:RDF>
  </metadata>
  <g
     id="layer1"
     inkscape:groupmode="layer"
     inkscape:label="Layer 1">
    <path
       id="path2383"
       d="M 18.472603,40.915044 L 51.20555,100.85847"
       style="fill:none;fill-rule:evenodd;stroke:#000000;stroke-width:0.89241618;stroke-linecap:butt;stroke-linejoin:miter;stroke-miterlimit:4;stroke-dasharray:none;stroke-opacity:1" />
    <path
       sodipodi:nodetypes="cc"
       id="path2389"
       d="M 4.3066727,104.00354 C 37.715864,98.562961 17.693035,56.575085 43.243869,41.369201"
       style="fill:none;fill-rule:evenodd;stroke:#000000;stroke-width:1;stroke-linecap:butt;stroke-linejoin:miter;stroke-miterlimit:4;stroke-dasharray:none;stroke-opacity:1" />
    <path
       style="fill:none;fill-rule:evenodd;stroke:#000000;stroke-width:0.89241618;stroke-linecap:butt;stroke-linejoin:miter;stroke-miterlimit:4;stroke-dasharray:none;stroke-opacity:1"
       d="M 42.472603,100.85847 L 75.20555,40.915044"
       id="path123310" />
    <path
       id="path123312"
       d="M 70.472603,40.915044 L 103.20555,100.85847"
       style="fill:none;fill-rule:evenodd;stroke:#000000;stroke-width:0.89241618;stroke-linecap:butt;stroke-linejoin:miter;stroke-miterlimit:4;stroke-dasharray:none;stroke-opacity:1" />
    <path
       style="fill:none;fill-rule:evenodd;stroke:#000000;stroke-width:0.89241618;stroke-linecap:butt;stroke-linejoin:miter;stroke-miterlimit:4;stroke-dasharray:none;stroke-opacity:1"
       d="M 94.472603,100.85847 L 127.20555,40.915044"
       id="path123314" />
    <path
       id="path123352"
       d="M 158.4726,100.85847 L 191.20555,40.915044"
       style="fill:none;fill-rule:evenodd;stroke:#000000;stroke-width:0.89241618;stroke-linecap:butt;stroke-linejoin:miter;stroke-miterlimit:4;stroke-dasharray:none;stroke-opacity:1" />
    <path
       style="fill:none;fill-rule:evenodd;stroke:#000000;stroke-width:0.89241618;stroke-linecap:butt;stroke-linejoin:miter;stroke-miterlimit:4;stroke-dasharray:none;stroke-opacity:1"
       d="M 186.4726,40.915044 L 219.20555,100.85847"
       id="path123354" />
    <path
       id="path123356"
       d="M 210.4726,100.85847 L 243.20555,40.915044"
       style="fill:none;fill-rule:evenodd;stroke:#000000;stroke-width:0.89241618;stroke-linecap:butt;stroke-linejoin:miter;stroke-miterlimit:4;stroke-dasharray:none;stroke-opacity:1" />
    <path
       style="fill:none;fill-rule:evenodd;stroke:#000000;stroke-width:0.89241618;stroke-linecap:butt;stroke-linejoin:miter;stroke-miterlimit:4;stroke-dasharray:none;stroke-opacity:1"
       d="M 282.4726,100.85847 L 315.20555,40.915044"
       id="path123358" />
    <path
       id="path123360"
       d="M 306.4726,40.915044 L 339.20555,100.85847"
       style="fill:none;fill-rule:evenodd;stroke:#000000;stroke-width:0.89241618;stroke-linecap:butt;stroke-linejoin:miter;stroke-miterlimit:4;stroke-dasharray:none;stroke-opacity:1" />
    <path
       sodipodi:nodetypes="cccccssssssssssssssssssssc"
       id="path123362"
       d="M 192.26688,91.294407 C 191.55433,87.411969 194.28179,83.850509 195.68912,80.112954 C 197.81256,75.428398 201.12725,72.007779 205.66289,70.825334 C 214.20819,71.291166 219.67957,68.372915 224.25501,62.504751 C 229.25424,55.085892 232.61532,41.196464 240.08573,37.556671 C 241.99001,37.556671 242.93249,37.364309 244.83677,37.364309 C 247.00244,37.364309 248.95666,37.092268 251.09371,37.092268 C 253.04622,37.092268 254.82165,37.162803 256.53453,36.820227 C 258.55043,36.417048 261.43216,36.874455 263.06351,36.548186 C 264.98784,36.16332 267.34507,36.548186 269.32045,36.548186 C 270.64629,36.548186 271.823,36.276145 273.40106,36.276145 C 275.25539,36.276145 277.0603,36.301034 278.84188,36.004104 C 280.42963,35.73948 282.75638,36.004104 284.55474,36.004104 C 285.88788,36.004104 286.92947,36.004104 288.63535,36.004104 C 290.44896,36.004104 292.26256,36.004104 294.07617,36.004104 C 295.52705,36.004104 296.97794,36.004104 298.42882,36.004104 C 300.33311,36.004104 302.23739,36.004104 304.14168,36.004104 C 305.65488,36.004104 306.77378,35.732063 308.49433,35.732063 C 310.10242,35.732063 311.51809,36.004104 313.11903,36.004104 C 315.05821,36.004104 316.6287,35.732063 318.55985,35.732063 C 320.10141,35.732063 321.64298,35.732063 323.18454,35.732063 C 324.63543,35.732063 326.08631,35.732063 327.53719,35.732063 C 329.10119,35.732063 330.31157,35.460023 331.88985,35.460023 C 333.57326,35.460023 335.17024,35.187982 336.78658,35.187982 C 338.32815,35.187982 339.86971,35.187982 341.41128,35.187982 C 342.48589,35.187982 341.7938,35.187982 342.2274,35.187982"
       style="fill:none;fill-rule:evenodd;stroke:#000000;stroke-width:1px;stroke-linecap:butt;stroke-linejoin:miter;stroke-opacity:1" />
    <path
       transform="matrix(0.8076381,0,0,0.8076381,27.867009,13.965086)"
       d="M 126.07345,74.597969 A 2,2 0 1 1 122.07345,74.597969 A 2,2 0 1 1 126.07345,74.597969 z"
       sodipodi:ry="2"
       sodipodi:rx="2"
       sodipodi:cy="74.597969"
       sodipodi:cx="124.07345"
       style="fill:#000000;stroke:none"
       id="path123364"
       sodipodi:type="arc" />
    <path
       sodipodi:type="arc"
       id="path123366"
       style="fill:#000000;stroke:none"
       sodipodi:cx="124.07345"
       sodipodi:cy="74.597969"
       sodipodi:rx="2"
       sodipodi:ry="2"
       d="M 126.07345,74.597969 A 2,2 0 1 1 122.07345,74.597969 A 2,2 0 1 1 126.07345,74.597969 z"
       transform="matrix(0.8076381,0,0,0.8076381,33.867009,13.965086)" />
    <path
       transform="matrix(0.8076381,0,0,0.8076381,39.867009,13.965086)"
       d="M 126.07345,74.597969 A 2,2 0 1 1 122.07345,74.597969 A 2,2 0 1 1 126.07345,74.597969 z"
       sodipodi:ry="2"
       sodipodi:rx="2"
       sodipodi:cy="74.597969"
       sodipodi:cx="124.07345"
       style="fill:#000000;stroke:none"
       id="path123368"
       sodipodi:type="arc" />
    <path
       sodipodi:type="arc"
       id="path123370"
       style="fill:#000000;stroke:none"
       sodipodi:cx="124.07345"
       sodipodi:cy="74.597969"
       sodipodi:rx="2"
       sodipodi:ry="2"
       d="M 126.07345,74.597969 A 2,2 0 1 1 122.07345,74.597969 A 2,2 0 1 1 126.07345,74.597969 z"
       transform="matrix(0.8076381,0,0,0.8076381,45.867009,13.965086)" />
    <path
       transform="matrix(0.8076381,0,0,0.8076381,51.867009,13.965086)"
       d="M 126.07345,74.597969 A 2,2 0 1 1 122.07345,74.597969 A 2,2 0 1 1 126.07345,74.597969 z"
       sodipodi:ry="2"
       sodipodi:rx="2"
       sodipodi:cy="74.597969"
       sodipodi:cx="124.07345"
       style="fill:#000000;stroke:none"
       id="path123372"
       sodipodi:type="arc" />
    <path
       sodipodi:type="arc"
       id="path123374"
       style="fill:#000000;stroke:none"
       sodipodi:cx="124.07345"
       sodipodi:cy="74.597969"
       sodipodi:rx="2"
       sodipodi:ry="2"
       d="M 126.07345,74.597969 A 2,2 0 1 1 122.07345,74.597969 A 2,2 0 1 1 126.07345,74.597969 z"
       transform="matrix(0.8076381,0,0,0.8076381,143.86701,13.965086)" />
    <path
       transform="matrix(0.8076381,0,0,0.8076381,149.86701,13.965086)"
       d="M 126.07345,74.597969 A 2,2 0 1 1 122.07345,74.597969 A 2,2 0 1 1 126.07345,74.597969 z"
       sodipodi:ry="2"
       sodipodi:rx="2"
       sodipodi:cy="74.597969"
       sodipodi:cx="124.07345"
       style="fill:#000000;stroke:none"
       id="path123376"
       sodipodi:type="arc" />
    <path
       sodipodi:type="arc"
       id="path123378"
       style="fill:#000000;stroke:none"
       sodipodi:cx="124.07345"
       sodipodi:cy="74.597969"
       sodipodi:rx="2"
       sodipodi:ry="2"
       d="M 126.07345,74.597969 A 2,2 0 1 1 122.07345,74.597969 A 2,2 0 1 1 126.07345,74.597969 z"
       transform="matrix(0.8076381,0,0,0.8076381,155.86701,13.965086)" />
    <path
       transform="matrix(0.8076381,0,0,0.8076381,161.86701,13.965086)"
       d="M 126.07345,74.597969 A 2,2 0 1 1 122.07345,74.597969 A 2,2 0 1 1 126.07345,74.597969 z"
       sodipodi:ry="2"
       sodipodi:rx="2"
       sodipodi:cy="74.597969"
       sodipodi:cx="124.07345"
       style="fill:#000000;stroke:none"
       id="path123380"
       sodipodi:type="arc" />
    <path
       sodipodi:type="arc"
       id="path123382"
       style="fill:#000000;stroke:none"
       sodipodi:cx="124.07345"
       sodipodi:cy="74.597969"
       sodipodi:rx="2"
       sodipodi:ry="2"
       d="M 126.07345,74.597969 A 2,2 0 1 1 122.07345,74.597969 A 2,2 0 1 1 126.07345,74.597969 z"
       transform="matrix(0.8076381,0,0,0.8076381,167.86701,13.965086)" />
    <path
       transform="matrix(0.8076381,0,0,0.8076381,173.86701,13.965086)"
       d="M 126.07345,74.597969 A 2,2 0 1 1 122.07345,74.597969 A 2,2 0 1 1 126.07345,74.597969 z"
       sodipodi:ry="2"
       sodipodi:rx="2"
       sodipodi:cy="74.597969"
       sodipodi:cx="124.07345"
       style="fill:#000000;stroke:none"
       id="path123384"
       sodipodi:type="arc" />
    <path
       sodipodi:type="arc"
       id="path123386"
       style="fill:#000000;stroke:none"
       sodipodi:cx="124.07345"
       sodipodi:cy="74.597969"
       sodipodi:rx="2"
       sodipodi:ry="2"
       d="M 126.07345,74.597969 A 2,2 0 1 1 122.07345,74.597969 A 2,2 0 1 1 126.07345,74.597969 z"
       transform="matrix(0.8076381,0,0,0.8076381,179.86701,13.965086)" />
    <g
       id="g123417"
       ns0:preamble=""
       ns0:text="$-1$"
       transform="translate(-192.06085,-70.458583)">
      <defs
         id="defs123419">
        <g
           id="g123421">
          <symbol
             id="textext-108f8aa9-0"
             overflow="visible"
             style="overflow:visible">
            <path
               id="path123424"
               d=""
               style="stroke:none" />
          </symbol>
          <symbol
             id="textext-108f8aa9-1"
             overflow="visible"
             style="overflow:visible">
            <path
               id="path123427"
               d="M 6.59375,-2.296875 C 6.734375,-2.296875 6.921875,-2.296875 6.921875,-2.5 C 6.921875,-2.6875 6.734375,-2.6875 6.59375,-2.6875 L 1.15625,-2.6875 C 1.015625,-2.6875 0.828125,-2.6875 0.828125,-2.5 C 0.828125,-2.296875 1.015625,-2.296875 1.15625,-2.296875 L 6.59375,-2.296875 z"
               style="stroke:none" />
          </symbol>
          <symbol
             id="textext-108f8aa9-2"
             overflow="visible"
             style="overflow:visible">
            <path
               id="path123430"
               d=""
               style="stroke:none" />
          </symbol>
          <symbol
             id="textext-108f8aa9-3"
             overflow="visible"
             style="overflow:visible">
            <path
               id="path123433"
               d="M 2.9375,-6.375 C 2.9375,-6.625 2.9375,-6.640625 2.703125,-6.640625 C 2.078125,-6 1.203125,-6 0.890625,-6 L 0.890625,-5.6875 C 1.09375,-5.6875 1.671875,-5.6875 2.1875,-5.953125 L 2.1875,-0.78125 C 2.1875,-0.421875 2.15625,-0.3125 1.265625,-0.3125 L 0.953125,-0.3125 L 0.953125,0 C 1.296875,-0.03125 2.15625,-0.03125 2.5625,-0.03125 C 2.953125,-0.03125 3.828125,-0.03125 4.171875,0 L 4.171875,-0.3125 L 3.859375,-0.3125 C 2.953125,-0.3125 2.9375,-0.421875 2.9375,-0.78125 L 2.9375,-6.375 z"
               style="stroke:none" />
          </symbol>
        </g>
      </defs>
      <g
         id="textext-108f8aa9-4">
        <g
           id="g123436"
           style="fill:#000000;fill-opacity:1">
          <use
             id="use123438"
             y="134.765"
             x="223.43201"
             xlink:href="#textext-108f8aa9-1"
             width="354.33069"
             height="141.73228" />
        </g>
        <g
           id="g123440"
           style="fill:#000000;fill-opacity:1">
          <use
             id="use123442"
             y="134.765"
             x="231.181"
             xlink:href="#textext-108f8aa9-3"
             width="354.33069"
             height="141.73228" />
        </g>
      </g>
    </g>
    <g
       ns0:text="$-2$"
       ns0:preamble=""
       transform="translate(-157.24473,-70.458583)"
       id="g123564">
      <defs
         id="defs123566">
        <g
           id="g123568">
          <symbol
             style="overflow:visible"
             overflow="visible"
             id="textext-e3869bf4-0">
            <path
               style="stroke:none"
               d=""
               id="path123571" />
          </symbol>
          <symbol
             style="overflow:visible"
             overflow="visible"
             id="textext-e3869bf4-1">
            <path
               style="stroke:none"
               d="M 6.59375,-2.296875 C 6.734375,-2.296875 6.921875,-2.296875 6.921875,-2.5 C 6.921875,-2.6875 6.734375,-2.6875 6.59375,-2.6875 L 1.15625,-2.6875 C 1.015625,-2.6875 0.828125,-2.6875 0.828125,-2.5 C 0.828125,-2.296875 1.015625,-2.296875 1.15625,-2.296875 L 6.59375,-2.296875 z"
               id="path123574" />
          </symbol>
          <symbol
             style="overflow:visible"
             overflow="visible"
             id="textext-e3869bf4-2">
            <path
               style="stroke:none"
               d=""
               id="path123577" />
          </symbol>
          <symbol
             style="overflow:visible"
             overflow="visible"
             id="textext-e3869bf4-3">
            <path
               style="stroke:none"
               d="M 4.46875,-1.734375 L 4.234375,-1.734375 C 4.171875,-1.4375 4.109375,-1 4,-0.84375 C 3.9375,-0.765625 3.28125,-0.765625 3.0625,-0.765625 L 1.265625,-0.765625 L 2.328125,-1.796875 C 3.875,-3.171875 4.46875,-3.703125 4.46875,-4.703125 C 4.46875,-5.84375 3.578125,-6.640625 2.359375,-6.640625 C 1.234375,-6.640625 0.5,-5.71875 0.5,-4.828125 C 0.5,-4.28125 1,-4.28125 1.03125,-4.28125 C 1.203125,-4.28125 1.546875,-4.390625 1.546875,-4.8125 C 1.546875,-5.0625 1.359375,-5.328125 1.015625,-5.328125 C 0.9375,-5.328125 0.921875,-5.328125 0.890625,-5.3125 C 1.109375,-5.96875 1.65625,-6.328125 2.234375,-6.328125 C 3.140625,-6.328125 3.5625,-5.515625 3.5625,-4.703125 C 3.5625,-3.90625 3.078125,-3.125 2.515625,-2.5 L 0.609375,-0.375 C 0.5,-0.265625 0.5,-0.234375 0.5,0 L 4.203125,0 L 4.46875,-1.734375 z"
               id="path123580" />
          </symbol>
        </g>
      </defs>
      <g
         id="textext-e3869bf4-4">
        <g
           style="fill:#000000;fill-opacity:1"
           id="g123583">
          <use
             height="141.73228"
             width="354.33069"
             xlink:href="#textext-e3869bf4-1"
             x="223.43201"
             y="134.765"
             id="use123585" />
        </g>
        <g
           style="fill:#000000;fill-opacity:1"
           id="g123587">
          <use
             height="141.73228"
             width="354.33069"
             xlink:href="#textext-e3869bf4-3"
             x="231.181"
             y="134.765"
             id="use123589" />
        </g>
      </g>
    </g>
    <g
       id="g123650"
       transform="translate(-137.24473,-70.458583)"
       ns0:preamble=""
       ns0:text="$-2$">
      <defs
         id="defs123652">
        <g
           id="g123654">
          <symbol
             id="symbol123656"
             overflow="visible"
             style="overflow:visible">
            <path
               id="path123658"
               d=""
               style="stroke:none" />
          </symbol>
          <symbol
             id="symbol123660"
             overflow="visible"
             style="overflow:visible">
            <path
               id="path123662"
               d="M 6.59375,-2.296875 C 6.734375,-2.296875 6.921875,-2.296875 6.921875,-2.5 C 6.921875,-2.6875 6.734375,-2.6875 6.59375,-2.6875 L 1.15625,-2.6875 C 1.015625,-2.6875 0.828125,-2.6875 0.828125,-2.5 C 0.828125,-2.296875 1.015625,-2.296875 1.15625,-2.296875 L 6.59375,-2.296875 z"
               style="stroke:none" />
          </symbol>
          <symbol
             id="symbol123664"
             overflow="visible"
             style="overflow:visible">
            <path
               id="path123666"
               d=""
               style="stroke:none" />
          </symbol>
          <symbol
             id="symbol123668"
             overflow="visible"
             style="overflow:visible">
            <path
               id="path123670"
               d="M 4.46875,-1.734375 L 4.234375,-1.734375 C 4.171875,-1.4375 4.109375,-1 4,-0.84375 C 3.9375,-0.765625 3.28125,-0.765625 3.0625,-0.765625 L 1.265625,-0.765625 L 2.328125,-1.796875 C 3.875,-3.171875 4.46875,-3.703125 4.46875,-4.703125 C 4.46875,-5.84375 3.578125,-6.640625 2.359375,-6.640625 C 1.234375,-6.640625 0.5,-5.71875 0.5,-4.828125 C 0.5,-4.28125 1,-4.28125 1.03125,-4.28125 C 1.203125,-4.28125 1.546875,-4.390625 1.546875,-4.8125 C 1.546875,-5.0625 1.359375,-5.328125 1.015625,-5.328125 C 0.9375,-5.328125 0.921875,-5.328125 0.890625,-5.3125 C 1.109375,-5.96875 1.65625,-6.328125 2.234375,-6.328125 C 3.140625,-6.328125 3.5625,-5.515625 3.5625,-4.703125 C 3.5625,-3.90625 3.078125,-3.125 2.515625,-2.5 L 0.609375,-0.375 C 0.5,-0.265625 0.5,-0.234375 0.5,0 L 4.203125,0 L 4.46875,-1.734375 z"
               style="stroke:none" />
          </symbol>
        </g>
      </defs>
      <g
         id="g123672">
        <g
           id="g123674"
           style="fill:#000000;fill-opacity:1">
          <use
             id="use123676"
             y="134.765"
             x="223.43201"
             xlink:href="#textext-e3869bf4-1"
             width="354.33069"
             height="141.73228" />
        </g>
        <g
           id="g123678"
           style="fill:#000000;fill-opacity:1">
          <use
             id="use123680"
             y="134.765"
             x="231.181"
             xlink:href="#textext-e3869bf4-3"
             width="354.33069"
             height="141.73228" />
        </g>
      </g>
    </g>
    <g
       ns0:text="$-2$"
       ns0:preamble=""
       transform="translate(-59.24473,-70.458583)"
       id="g123682">
      <defs
         id="defs123684">
        <g
           id="g123686">
          <symbol
             style="overflow:visible"
             overflow="visible"
             id="symbol123688">
            <path
               style="stroke:none"
               d=""
               id="path123690" />
          </symbol>
          <symbol
             style="overflow:visible"
             overflow="visible"
             id="symbol123692">
            <path
               style="stroke:none"
               d="M 6.59375,-2.296875 C 6.734375,-2.296875 6.921875,-2.296875 6.921875,-2.5 C 6.921875,-2.6875 6.734375,-2.6875 6.59375,-2.6875 L 1.15625,-2.6875 C 1.015625,-2.6875 0.828125,-2.6875 0.828125,-2.5 C 0.828125,-2.296875 1.015625,-2.296875 1.15625,-2.296875 L 6.59375,-2.296875 z"
               id="path123694" />
          </symbol>
          <symbol
             style="overflow:visible"
             overflow="visible"
             id="symbol123696">
            <path
               style="stroke:none"
               d=""
               id="path123698" />
          </symbol>
          <symbol
             style="overflow:visible"
             overflow="visible"
             id="symbol123700">
            <path
               style="stroke:none"
               d="M 4.46875,-1.734375 L 4.234375,-1.734375 C 4.171875,-1.4375 4.109375,-1 4,-0.84375 C 3.9375,-0.765625 3.28125,-0.765625 3.0625,-0.765625 L 1.265625,-0.765625 L 2.328125,-1.796875 C 3.875,-3.171875 4.46875,-3.703125 4.46875,-4.703125 C 4.46875,-5.84375 3.578125,-6.640625 2.359375,-6.640625 C 1.234375,-6.640625 0.5,-5.71875 0.5,-4.828125 C 0.5,-4.28125 1,-4.28125 1.03125,-4.28125 C 1.203125,-4.28125 1.546875,-4.390625 1.546875,-4.8125 C 1.546875,-5.0625 1.359375,-5.328125 1.015625,-5.328125 C 0.9375,-5.328125 0.921875,-5.328125 0.890625,-5.3125 C 1.109375,-5.96875 1.65625,-6.328125 2.234375,-6.328125 C 3.140625,-6.328125 3.5625,-5.515625 3.5625,-4.703125 C 3.5625,-3.90625 3.078125,-3.125 2.515625,-2.5 L 0.609375,-0.375 C 0.5,-0.265625 0.5,-0.234375 0.5,0 L 4.203125,0 L 4.46875,-1.734375 z"
               id="path123702" />
          </symbol>
        </g>
      </defs>
      <g
         id="g123704">
        <g
           style="fill:#000000;fill-opacity:1"
           id="g123706">
          <use
             height="141.73228"
             width="354.33069"
             xlink:href="#textext-e3869bf4-1"
             x="223.43201"
             y="134.765"
             id="use123708" />
        </g>
        <g
           style="fill:#000000;fill-opacity:1"
           id="g123710">
          <use
             height="141.73228"
             width="354.33069"
             xlink:href="#textext-e3869bf4-3"
             x="231.181"
             y="134.765"
             id="use123712" />
        </g>
      </g>
    </g>
    <g
       id="g123714"
       transform="translate(-23.24473,-70.458583)"
       ns0:preamble=""
       ns0:text="$-2$">
      <defs
         id="defs123716">
        <g
           id="g123718">
          <symbol
             id="symbol123720"
             overflow="visible"
             style="overflow:visible">
            <path
               id="path123722"
               d=""
               style="stroke:none" />
          </symbol>
          <symbol
             id="symbol123724"
             overflow="visible"
             style="overflow:visible">
            <path
               id="path123726"
               d="M 6.59375,-2.296875 C 6.734375,-2.296875 6.921875,-2.296875 6.921875,-2.5 C 6.921875,-2.6875 6.734375,-2.6875 6.59375,-2.6875 L 1.15625,-2.6875 C 1.015625,-2.6875 0.828125,-2.6875 0.828125,-2.5 C 0.828125,-2.296875 1.015625,-2.296875 1.15625,-2.296875 L 6.59375,-2.296875 z"
               style="stroke:none" />
          </symbol>
          <symbol
             id="symbol123728"
             overflow="visible"
             style="overflow:visible">
            <path
               id="path123730"
               d=""
               style="stroke:none" />
          </symbol>
          <symbol
             id="symbol123732"
             overflow="visible"
             style="overflow:visible">
            <path
               id="path123734"
               d="M 4.46875,-1.734375 L 4.234375,-1.734375 C 4.171875,-1.4375 4.109375,-1 4,-0.84375 C 3.9375,-0.765625 3.28125,-0.765625 3.0625,-0.765625 L 1.265625,-0.765625 L 2.328125,-1.796875 C 3.875,-3.171875 4.46875,-3.703125 4.46875,-4.703125 C 4.46875,-5.84375 3.578125,-6.640625 2.359375,-6.640625 C 1.234375,-6.640625 0.5,-5.71875 0.5,-4.828125 C 0.5,-4.28125 1,-4.28125 1.03125,-4.28125 C 1.203125,-4.28125 1.546875,-4.390625 1.546875,-4.8125 C 1.546875,-5.0625 1.359375,-5.328125 1.015625,-5.328125 C 0.9375,-5.328125 0.921875,-5.328125 0.890625,-5.3125 C 1.109375,-5.96875 1.65625,-6.328125 2.234375,-6.328125 C 3.140625,-6.328125 3.5625,-5.515625 3.5625,-4.703125 C 3.5625,-3.90625 3.078125,-3.125 2.515625,-2.5 L 0.609375,-0.375 C 0.5,-0.265625 0.5,-0.234375 0.5,0 L 4.203125,0 L 4.46875,-1.734375 z"
               style="stroke:none" />
          </symbol>
        </g>
      </defs>
      <g
         id="g123736">
        <g
           id="g123738"
           style="fill:#000000;fill-opacity:1">
          <use
             id="use123740"
             y="134.765"
             x="223.43201"
             xlink:href="#textext-e3869bf4-1"
             width="354.33069"
             height="141.73228" />
        </g>
        <g
           id="g123742"
           style="fill:#000000;fill-opacity:1">
          <use
             id="use123744"
             y="134.765"
             x="231.181"
             xlink:href="#textext-e3869bf4-3"
             width="354.33069"
             height="141.73228" />
        </g>
      </g>
    </g>
    <g
       ns0:text="$-2$"
       ns0:preamble=""
       transform="translate(64.75527,-70.458583)"
       id="g123746">
      <defs
         id="defs123748">
        <g
           id="g123750">
          <symbol
             style="overflow:visible"
             overflow="visible"
             id="symbol123752">
            <path
               style="stroke:none"
               d=""
               id="path123754" />
          </symbol>
          <symbol
             style="overflow:visible"
             overflow="visible"
             id="symbol123756">
            <path
               style="stroke:none"
               d="M 6.59375,-2.296875 C 6.734375,-2.296875 6.921875,-2.296875 6.921875,-2.5 C 6.921875,-2.6875 6.734375,-2.6875 6.59375,-2.6875 L 1.15625,-2.6875 C 1.015625,-2.6875 0.828125,-2.6875 0.828125,-2.5 C 0.828125,-2.296875 1.015625,-2.296875 1.15625,-2.296875 L 6.59375,-2.296875 z"
               id="path123758" />
          </symbol>
          <symbol
             style="overflow:visible"
             overflow="visible"
             id="symbol123760">
            <path
               style="stroke:none"
               d=""
               id="path123762" />
          </symbol>
          <symbol
             style="overflow:visible"
             overflow="visible"
             id="symbol123764">
            <path
               style="stroke:none"
               d="M 4.46875,-1.734375 L 4.234375,-1.734375 C 4.171875,-1.4375 4.109375,-1 4,-0.84375 C 3.9375,-0.765625 3.28125,-0.765625 3.0625,-0.765625 L 1.265625,-0.765625 L 2.328125,-1.796875 C 3.875,-3.171875 4.46875,-3.703125 4.46875,-4.703125 C 4.46875,-5.84375 3.578125,-6.640625 2.359375,-6.640625 C 1.234375,-6.640625 0.5,-5.71875 0.5,-4.828125 C 0.5,-4.28125 1,-4.28125 1.03125,-4.28125 C 1.203125,-4.28125 1.546875,-4.390625 1.546875,-4.8125 C 1.546875,-5.0625 1.359375,-5.328125 1.015625,-5.328125 C 0.9375,-5.328125 0.921875,-5.328125 0.890625,-5.3125 C 1.109375,-5.96875 1.65625,-6.328125 2.234375,-6.328125 C 3.140625,-6.328125 3.5625,-5.515625 3.5625,-4.703125 C 3.5625,-3.90625 3.078125,-3.125 2.515625,-2.5 L 0.609375,-0.375 C 0.5,-0.265625 0.5,-0.234375 0.5,0 L 4.203125,0 L 4.46875,-1.734375 z"
               id="path123766" />
          </symbol>
        </g>
      </defs>
      <g
         id="g123768">
        <g
           style="fill:#000000;fill-opacity:1"
           id="g123770">
          <use
             height="141.73228"
             width="354.33069"
             xlink:href="#textext-e3869bf4-1"
             x="223.43201"
             y="134.765"
             id="use123772" />
        </g>
        <g
           style="fill:#000000;fill-opacity:1"
           id="g123774">
          <use
             height="141.73228"
             width="354.33069"
             xlink:href="#textext-e3869bf4-3"
             x="231.181"
             y="134.765"
             id="use123776" />
        </g>
      </g>
    </g>
    <g
       id="g123778"
       transform="translate(96.75527,-70.458583)"
       ns0:preamble=""
       ns0:text="$-2$">
      <defs
         id="defs123780">
        <g
           id="g123782">
          <symbol
             id="symbol123784"
             overflow="visible"
             style="overflow:visible">
            <path
               id="path123786"
               d=""
               style="stroke:none" />
          </symbol>
          <symbol
             id="symbol123788"
             overflow="visible"
             style="overflow:visible">
            <path
               id="path123790"
               d="M 6.59375,-2.296875 C 6.734375,-2.296875 6.921875,-2.296875 6.921875,-2.5 C 6.921875,-2.6875 6.734375,-2.6875 6.59375,-2.6875 L 1.15625,-2.6875 C 1.015625,-2.6875 0.828125,-2.6875 0.828125,-2.5 C 0.828125,-2.296875 1.015625,-2.296875 1.15625,-2.296875 L 6.59375,-2.296875 z"
               style="stroke:none" />
          </symbol>
          <symbol
             id="symbol123792"
             overflow="visible"
             style="overflow:visible">
            <path
               id="path123794"
               d=""
               style="stroke:none" />
          </symbol>
          <symbol
             id="symbol123796"
             overflow="visible"
             style="overflow:visible">
            <path
               id="path123798"
               d="M 4.46875,-1.734375 L 4.234375,-1.734375 C 4.171875,-1.4375 4.109375,-1 4,-0.84375 C 3.9375,-0.765625 3.28125,-0.765625 3.0625,-0.765625 L 1.265625,-0.765625 L 2.328125,-1.796875 C 3.875,-3.171875 4.46875,-3.703125 4.46875,-4.703125 C 4.46875,-5.84375 3.578125,-6.640625 2.359375,-6.640625 C 1.234375,-6.640625 0.5,-5.71875 0.5,-4.828125 C 0.5,-4.28125 1,-4.28125 1.03125,-4.28125 C 1.203125,-4.28125 1.546875,-4.390625 1.546875,-4.8125 C 1.546875,-5.0625 1.359375,-5.328125 1.015625,-5.328125 C 0.9375,-5.328125 0.921875,-5.328125 0.890625,-5.3125 C 1.109375,-5.96875 1.65625,-6.328125 2.234375,-6.328125 C 3.140625,-6.328125 3.5625,-5.515625 3.5625,-4.703125 C 3.5625,-3.90625 3.078125,-3.125 2.515625,-2.5 L 0.609375,-0.375 C 0.5,-0.265625 0.5,-0.234375 0.5,0 L 4.203125,0 L 4.46875,-1.734375 z"
               style="stroke:none" />
          </symbol>
        </g>
      </defs>
      <g
         id="g123800">
        <g
           id="g123802"
           style="fill:#000000;fill-opacity:1">
          <use
             id="use123804"
             y="134.765"
             x="223.43201"
             xlink:href="#textext-e3869bf4-1"
             width="354.33069"
             height="141.73228" />
        </g>
        <g
           id="g123806"
           style="fill:#000000;fill-opacity:1">
          <use
             id="use123808"
             y="134.765"
             x="231.181"
             xlink:href="#textext-e3869bf4-3"
             width="354.33069"
             height="141.73228" />
        </g>
      </g>
    </g>
    <g
       id="g124460"
       ns0:preamble=""
       ns0:text="$\\tau\'(F)$"
       transform="translate(-222.80146,-50.5996)">
      <defs
         id="defs124462">
        <g
           id="g124464">
          <symbol
             id="textext-0f225bd9-0"
             overflow="visible"
             style="overflow:visible">
            <path
               id="path124467"
               d=""
               style="stroke:none" />
          </symbol>
          <symbol
             id="textext-0f225bd9-1"
             overflow="visible"
             style="overflow:visible">
            <path
               id="path124470"
               d="M 2.9375,-3.71875 L 4.609375,-3.71875 C 4.734375,-3.71875 5.09375,-3.71875 5.09375,-4.0625 C 5.09375,-4.296875 4.890625,-4.296875 4.6875,-4.296875 L 1.90625,-4.296875 C 1.703125,-4.296875 1.3125,-4.296875 0.875,-3.828125 C 0.546875,-3.46875 0.265625,-2.984375 0.265625,-2.9375 C 0.265625,-2.921875 0.265625,-2.828125 0.390625,-2.828125 C 0.46875,-2.828125 0.484375,-2.875 0.546875,-2.953125 C 1.03125,-3.71875 1.609375,-3.71875 1.8125,-3.71875 L 2.640625,-3.71875 C 2.15625,-2.125 1.765625,-0.859375 1.671875,-0.515625 C 1.625,-0.40625 1.5625,-0.1875 1.5625,-0.15625 C 1.5625,-0.046875 1.640625,0.125 1.859375,0.125 C 2.1875,0.125 2.234375,-0.15625 2.265625,-0.3125 L 2.9375,-3.71875 z"
               style="stroke:none" />
          </symbol>
          <symbol
             id="textext-0f225bd9-2"
             overflow="visible"
             style="overflow:visible">
            <path
               id="path124473"
               d="M 3.015625,-3.234375 L 3.984375,-3.234375 C 4.734375,-3.234375 4.8125,-3.078125 4.8125,-2.796875 C 4.8125,-2.71875 4.8125,-2.609375 4.75,-2.296875 C 4.71875,-2.25 4.71875,-2.21875 4.71875,-2.1875 C 4.71875,-2.109375 4.78125,-2.078125 4.828125,-2.078125 C 4.9375,-2.078125 4.9375,-2.109375 4.984375,-2.28125 L 5.53125,-4.453125 C 5.5625,-4.5625 5.5625,-4.578125 5.5625,-4.609375 C 5.5625,-4.625 5.546875,-4.71875 5.4375,-4.71875 C 5.34375,-4.71875 5.328125,-4.671875 5.296875,-4.5 C 5.078125,-3.734375 4.859375,-3.546875 4,-3.546875 L 3.09375,-3.546875 L 3.734375,-6.078125 C 3.828125,-6.4375 3.84375,-6.46875 4.28125,-6.46875 L 5.59375,-6.46875 C 6.8125,-6.46875 7.046875,-6.140625 7.046875,-5.375 C 7.046875,-5.140625 7.046875,-5.109375 7.015625,-4.828125 C 7,-4.703125 7,-4.6875 7,-4.65625 C 7,-4.609375 7.03125,-4.53125 7.125,-4.53125 C 7.234375,-4.53125 7.234375,-4.59375 7.25,-4.78125 L 7.453125,-6.515625 C 7.484375,-6.78125 7.4375,-6.78125 7.1875,-6.78125 L 2.296875,-6.78125 C 2.109375,-6.78125 2,-6.78125 2,-6.578125 C 2,-6.46875 2.09375,-6.46875 2.28125,-6.46875 C 2.65625,-6.46875 2.9375,-6.46875 2.9375,-6.296875 C 2.9375,-6.25 2.9375,-6.234375 2.875,-6.046875 L 1.5625,-0.78125 C 1.46875,-0.390625 1.453125,-0.3125 0.65625,-0.3125 C 0.484375,-0.3125 0.375,-0.3125 0.375,-0.125 C 0.375,0 0.5,0 0.53125,0 C 0.8125,0 1.5625,-0.03125 1.84375,-0.03125 C 2.171875,-0.03125 3,0 3.328125,0 C 3.421875,0 3.53125,0 3.53125,-0.1875 C 3.53125,-0.265625 3.484375,-0.296875 3.484375,-0.296875 C 3.453125,-0.3125 3.421875,-0.3125 3.203125,-0.3125 C 2.984375,-0.3125 2.9375,-0.3125 2.6875,-0.328125 C 2.390625,-0.359375 2.359375,-0.40625 2.359375,-0.53125 C 2.359375,-0.546875 2.359375,-0.609375 2.40625,-0.75 L 3.015625,-3.234375 z"
               style="stroke:none" />
          </symbol>
          <symbol
             id="textext-0f225bd9-3"
             overflow="visible"
             style="overflow:visible">
            <path
               id="path124476"
               d=""
               style="stroke:none" />
          </symbol>
          <symbol
             id="textext-0f225bd9-4"
             overflow="visible"
             style="overflow:visible">
            <path
               id="path124479"
               d="M 2.03125,-3.296875 C 2.0625,-3.359375 2.078125,-3.421875 2.078125,-3.515625 C 2.078125,-3.734375 1.890625,-3.890625 1.671875,-3.890625 C 1.390625,-3.890625 1.328125,-3.671875 1.296875,-3.578125 L 0.375,-0.5625 C 0.359375,-0.53125 0.328125,-0.453125 0.328125,-0.4375 C 0.328125,-0.359375 0.546875,-0.28125 0.609375,-0.28125 C 0.65625,-0.28125 0.6875,-0.328125 0.703125,-0.390625 L 2.03125,-3.296875 z"
               style="stroke:none" />
          </symbol>
          <symbol
             id="textext-0f225bd9-5"
             overflow="visible"
             style="overflow:visible">
            <path
               id="path124482"
               d=""
               style="stroke:none" />
          </symbol>
          <symbol
             id="textext-0f225bd9-6"
             overflow="visible"
             style="overflow:visible">
            <path
               id="path124485"
               d="M 3.296875,2.390625 C 3.296875,2.359375 3.296875,2.34375 3.125,2.171875 C 1.890625,0.921875 1.5625,-0.96875 1.5625,-2.5 C 1.5625,-4.234375 1.9375,-5.96875 3.171875,-7.203125 C 3.296875,-7.328125 3.296875,-7.34375 3.296875,-7.375 C 3.296875,-7.453125 3.265625,-7.484375 3.203125,-7.484375 C 3.09375,-7.484375 2.203125,-6.796875 1.609375,-5.53125 C 1.109375,-4.4375 0.984375,-3.328125 0.984375,-2.5 C 0.984375,-1.71875 1.09375,-0.515625 1.640625,0.625 C 2.25,1.84375 3.09375,2.5 3.203125,2.5 C 3.265625,2.5 3.296875,2.46875 3.296875,2.390625 z"
               style="stroke:none" />
          </symbol>
          <symbol
             id="textext-0f225bd9-7"
             overflow="visible"
             style="overflow:visible">
            <path
               id="path124488"
               d="M 2.875,-2.5 C 2.875,-3.265625 2.765625,-4.46875 2.21875,-5.609375 C 1.625,-6.828125 0.765625,-7.484375 0.671875,-7.484375 C 0.609375,-7.484375 0.5625,-7.4375 0.5625,-7.375 C 0.5625,-7.34375 0.5625,-7.328125 0.75,-7.140625 C 1.734375,-6.15625 2.296875,-4.578125 2.296875,-2.5 C 2.296875,-0.78125 1.9375,0.96875 0.703125,2.21875 C 0.5625,2.34375 0.5625,2.359375 0.5625,2.390625 C 0.5625,2.453125 0.609375,2.5 0.671875,2.5 C 0.765625,2.5 1.671875,1.8125 2.25,0.546875 C 2.765625,-0.546875 2.875,-1.65625 2.875,-2.5 z"
               style="stroke:none" />
          </symbol>
        </g>
      </defs>
      <g
         id="textext-0f225bd9-8">
        <g
           id="g124491"
           style="fill:#000000;fill-opacity:1">
          <use
             id="use124493"
             y="134.765"
             x="223.43201"
             xlink:href="#textext-0f225bd9-1"
             width="354.33069"
             height="141.73228" />
        </g>
        <g
           id="g124495"
           style="fill:#000000;fill-opacity:1">
          <use
             id="use124497"
             y="131.14999"
             x="228.91499"
             xlink:href="#textext-0f225bd9-4"
             width="354.33069"
             height="141.73228" />
        </g>
        <g
           id="g124499"
           style="fill:#000000;fill-opacity:1">
          <use
             id="use124501"
             y="134.765"
             x="231.71001"
             xlink:href="#textext-0f225bd9-6"
             width="354.33069"
             height="141.73228" />
        </g>
        <g
           id="g124503"
           style="fill:#000000;fill-opacity:1">
          <use
             id="use124505"
             y="134.765"
             x="235.584"
             xlink:href="#textext-0f225bd9-2"
             width="354.33069"
             height="141.73228" />
        </g>
        <g
           id="g124507"
           style="fill:#000000;fill-opacity:1">
          <use
             id="use124509"
             y="134.765"
             x="243.375"
             xlink:href="#textext-0f225bd9-7"
             width="354.33069"
             height="141.73228" />
        </g>
      </g>
    </g>
    <g
       transform="translate(-196.4135,-46.246946)"
       ns0:text="$E_{N}$"
       ns0:preamble=""
       id="g124851">
      <defs
         id="defs124853">
        <g
           id="g124855">
          <symbol
             style="overflow:visible"
             overflow="visible"
             id="textext-c3d3e93d-0">
            <path
               style="stroke:none"
               d=""
               id="path124858" />
          </symbol>
          <symbol
             style="overflow:visible"
             overflow="visible"
             id="textext-c3d3e93d-1">
            <path
               style="stroke:none"
               d="M 7.0625,-2.328125 C 7.078125,-2.375 7.109375,-2.4375 7.109375,-2.46875 C 7.109375,-2.46875 7.109375,-2.578125 6.984375,-2.578125 C 6.890625,-2.578125 6.875,-2.515625 6.859375,-2.453125 C 6.203125,-0.984375 5.84375,-0.3125 4.140625,-0.3125 L 2.6875,-0.3125 C 2.546875,-0.3125 2.515625,-0.3125 2.46875,-0.3125 C 2.359375,-0.328125 2.328125,-0.34375 2.328125,-0.421875 C 2.328125,-0.453125 2.328125,-0.46875 2.375,-0.640625 L 3.0625,-3.375 L 4.046875,-3.375 C 4.890625,-3.375 4.890625,-3.15625 4.890625,-2.90625 C 4.890625,-2.84375 4.890625,-2.71875 4.828125,-2.421875 C 4.8125,-2.375 4.796875,-2.34375 4.796875,-2.3125 C 4.796875,-2.265625 4.828125,-2.203125 4.921875,-2.203125 C 5,-2.203125 5.03125,-2.25 5.078125,-2.40625 L 5.640625,-4.734375 C 5.640625,-4.796875 5.59375,-4.84375 5.515625,-4.84375 C 5.4375,-4.84375 5.40625,-4.78125 5.390625,-4.671875 C 5.171875,-3.90625 5,-3.671875 4.078125,-3.671875 L 3.140625,-3.671875 L 3.734375,-6.078125 C 3.828125,-6.4375 3.84375,-6.46875 4.28125,-6.46875 L 5.6875,-6.46875 C 6.890625,-6.46875 7.203125,-6.1875 7.203125,-5.359375 C 7.203125,-5.125 7.203125,-5.109375 7.15625,-4.828125 C 7.15625,-4.78125 7.140625,-4.703125 7.140625,-4.65625 C 7.140625,-4.609375 7.171875,-4.53125 7.265625,-4.53125 C 7.375,-4.53125 7.390625,-4.59375 7.40625,-4.78125 L 7.609375,-6.515625 C 7.640625,-6.78125 7.59375,-6.78125 7.34375,-6.78125 L 2.296875,-6.78125 C 2.109375,-6.78125 2,-6.78125 2,-6.578125 C 2,-6.46875 2.09375,-6.46875 2.28125,-6.46875 C 2.65625,-6.46875 2.9375,-6.46875 2.9375,-6.296875 C 2.9375,-6.25 2.9375,-6.234375 2.875,-6.046875 L 1.5625,-0.78125 C 1.46875,-0.390625 1.453125,-0.3125 0.65625,-0.3125 C 0.484375,-0.3125 0.375,-0.3125 0.375,-0.125 C 0.375,0 0.46875,0 0.65625,0 L 5.828125,0 C 6.0625,0 6.078125,-0.015625 6.140625,-0.171875 L 7.0625,-2.328125 z"
               id="path124861" />
          </symbol>
          <symbol
             style="overflow:visible"
             overflow="visible"
             id="textext-c3d3e93d-2">
            <path
               style="stroke:none"
               d=""
               id="path124864" />
          </symbol>
          <symbol
             style="overflow:visible"
             overflow="visible"
             id="textext-c3d3e93d-3">
            <path
               style="stroke:none"
               d="M 5.8125,-4 C 5.875,-4.265625 6,-4.5 6.546875,-4.515625 C 6.578125,-4.515625 6.6875,-4.515625 6.6875,-4.65625 C 6.6875,-4.703125 6.65625,-4.765625 6.578125,-4.765625 C 6.359375,-4.765625 6.09375,-4.734375 5.859375,-4.734375 C 5.6875,-4.734375 5.296875,-4.765625 5.125,-4.765625 C 5.09375,-4.765625 4.984375,-4.765625 4.984375,-4.609375 C 4.984375,-4.515625 5.078125,-4.515625 5.140625,-4.515625 C 5.46875,-4.5 5.578125,-4.390625 5.578125,-4.21875 C 5.578125,-4.171875 5.578125,-4.125 5.546875,-4.0625 L 4.796875,-1.015625 L 3.03125,-4.640625 C 2.96875,-4.765625 2.953125,-4.765625 2.78125,-4.765625 L 1.828125,-4.765625 C 1.703125,-4.765625 1.609375,-4.765625 1.609375,-4.609375 C 1.609375,-4.515625 1.6875,-4.515625 1.84375,-4.515625 C 1.984375,-4.515625 2.140625,-4.5 2.28125,-4.46875 L 1.359375,-0.75 C 1.296875,-0.484375 1.171875,-0.265625 0.625,-0.25 C 0.578125,-0.25 0.484375,-0.25 0.484375,-0.109375 C 0.484375,-0.03125 0.53125,0 0.578125,0 C 0.8125,0 1.078125,-0.03125 1.3125,-0.03125 C 1.484375,-0.03125 1.875,0 2.046875,0 C 2.125,0 2.1875,-0.03125 2.1875,-0.140625 C 2.1875,-0.25 2.109375,-0.25 2.03125,-0.25 C 1.59375,-0.265625 1.59375,-0.453125 1.59375,-0.546875 C 1.59375,-0.578125 1.59375,-0.609375 1.609375,-0.71875 L 2.515625,-4.28125 L 4.546875,-0.125 C 4.59375,0 4.625,0 4.703125,0 C 4.8125,0 4.8125,-0.015625 4.84375,-0.140625 L 5.8125,-4 z"
               id="path124867" />
          </symbol>
        </g>
      </defs>
      <g
         id="textext-c3d3e93d-4">
        <g
           style="fill:#000000;fill-opacity:1"
           id="g124870">
          <use
             height="141.73228"
             width="354.33069"
             xlink:href="#textext-c3d3e93d-1"
             x="223.43201"
             y="134.765"
             id="use124872" />
        </g>
        <g
           style="fill:#000000;fill-opacity:1"
           id="g124874">
          <use
             height="141.73228"
             width="354.33069"
             xlink:href="#textext-c3d3e93d-3"
             x="230.786"
             y="136.259"
             id="use124876" />
        </g>
      </g>
    </g>
    <g
       id="g125282"
       transform="translate(-170.4135,-46.246946)"
       ns0:preamble=""
       ns0:text="$E_{N-1}$">
      <defs
         id="defs125284">
        <g
           id="g125286">
          <symbol
             id="textext-d5c83eab-0"
             overflow="visible">
            <path
               id="path125289"
               d=""
               style="stroke:none;" />
          </symbol>
          <symbol
             id="textext-d5c83eab-1"
             overflow="visible">
            <path
               id="path125292"
               d="M 7.0625 -2.328125 C 7.078125 -2.375 7.109375 -2.4375 7.109375 -2.46875 C 7.109375 -2.46875 7.109375 -2.578125 6.984375 -2.578125 C 6.890625 -2.578125 6.875 -2.515625 6.859375 -2.453125 C 6.203125 -0.984375 5.84375 -0.3125 4.140625 -0.3125 L 2.6875 -0.3125 C 2.546875 -0.3125 2.515625 -0.3125 2.46875 -0.3125 C 2.359375 -0.328125 2.328125 -0.34375 2.328125 -0.421875 C 2.328125 -0.453125 2.328125 -0.46875 2.375 -0.640625 L 3.0625 -3.375 L 4.046875 -3.375 C 4.890625 -3.375 4.890625 -3.15625 4.890625 -2.90625 C 4.890625 -2.84375 4.890625 -2.71875 4.828125 -2.421875 C 4.8125 -2.375 4.796875 -2.34375 4.796875 -2.3125 C 4.796875 -2.265625 4.828125 -2.203125 4.921875 -2.203125 C 5 -2.203125 5.03125 -2.25 5.078125 -2.40625 L 5.640625 -4.734375 C 5.640625 -4.796875 5.59375 -4.84375 5.515625 -4.84375 C 5.4375 -4.84375 5.40625 -4.78125 5.390625 -4.671875 C 5.171875 -3.90625 5 -3.671875 4.078125 -3.671875 L 3.140625 -3.671875 L 3.734375 -6.078125 C 3.828125 -6.4375 3.84375 -6.46875 4.28125 -6.46875 L 5.6875 -6.46875 C 6.890625 -6.46875 7.203125 -6.1875 7.203125 -5.359375 C 7.203125 -5.125 7.203125 -5.109375 7.15625 -4.828125 C 7.15625 -4.78125 7.140625 -4.703125 7.140625 -4.65625 C 7.140625 -4.609375 7.171875 -4.53125 7.265625 -4.53125 C 7.375 -4.53125 7.390625 -4.59375 7.40625 -4.78125 L 7.609375 -6.515625 C 7.640625 -6.78125 7.59375 -6.78125 7.34375 -6.78125 L 2.296875 -6.78125 C 2.109375 -6.78125 2 -6.78125 2 -6.578125 C 2 -6.46875 2.09375 -6.46875 2.28125 -6.46875 C 2.65625 -6.46875 2.9375 -6.46875 2.9375 -6.296875 C 2.9375 -6.25 2.9375 -6.234375 2.875 -6.046875 L 1.5625 -0.78125 C 1.46875 -0.390625 1.453125 -0.3125 0.65625 -0.3125 C 0.484375 -0.3125 0.375 -0.3125 0.375 -0.125 C 0.375 0 0.46875 0 0.65625 0 L 5.828125 0 C 6.0625 0 6.078125 -0.015625 6.140625 -0.171875 L 7.0625 -2.328125 Z M 7.0625 -2.328125 "
               style="stroke:none;" />
          </symbol>
          <symbol
             id="textext-d5c83eab-2"
             overflow="visible">
            <path
               id="path125295"
               d=""
               style="stroke:none;" />
          </symbol>
          <symbol
             id="textext-d5c83eab-3"
             overflow="visible">
            <path
               id="path125298"
               d="M 5.8125 -4 C 5.875 -4.265625 6 -4.5 6.546875 -4.515625 C 6.578125 -4.515625 6.6875 -4.515625 6.6875 -4.65625 C 6.6875 -4.703125 6.65625 -4.765625 6.578125 -4.765625 C 6.359375 -4.765625 6.09375 -4.734375 5.859375 -4.734375 C 5.6875 -4.734375 5.296875 -4.765625 5.125 -4.765625 C 5.09375 -4.765625 4.984375 -4.765625 4.984375 -4.609375 C 4.984375 -4.515625 5.078125 -4.515625 5.140625 -4.515625 C 5.46875 -4.5 5.578125 -4.390625 5.578125 -4.21875 C 5.578125 -4.171875 5.578125 -4.125 5.546875 -4.0625 L 4.796875 -1.015625 L 3.03125 -4.640625 C 2.96875 -4.765625 2.953125 -4.765625 2.78125 -4.765625 L 1.828125 -4.765625 C 1.703125 -4.765625 1.609375 -4.765625 1.609375 -4.609375 C 1.609375 -4.515625 1.6875 -4.515625 1.84375 -4.515625 C 1.984375 -4.515625 2.140625 -4.5 2.28125 -4.46875 L 1.359375 -0.75 C 1.296875 -0.484375 1.171875 -0.265625 0.625 -0.25 C 0.578125 -0.25 0.484375 -0.25 0.484375 -0.109375 C 0.484375 -0.03125 0.53125 0 0.578125 0 C 0.8125 0 1.078125 -0.03125 1.3125 -0.03125 C 1.484375 -0.03125 1.875 0 2.046875 0 C 2.125 0 2.1875 -0.03125 2.1875 -0.140625 C 2.1875 -0.25 2.109375 -0.25 2.03125 -0.25 C 1.59375 -0.265625 1.59375 -0.453125 1.59375 -0.546875 C 1.59375 -0.578125 1.59375 -0.609375 1.609375 -0.71875 L 2.515625 -4.28125 L 4.546875 -0.125 C 4.59375 0 4.625 0 4.703125 0 C 4.8125 0 4.8125 -0.015625 4.84375 -0.140625 L 5.8125 -4 Z M 5.8125 -4 "
               style="stroke:none;" />
          </symbol>
          <symbol
             id="textext-d5c83eab-4"
             overflow="visible">
            <path
               id="path125301"
               d=""
               style="stroke:none;" />
          </symbol>
          <symbol
             id="textext-d5c83eab-5"
             overflow="visible">
            <path
               id="path125304"
               d="M 5.203125 -1.578125 C 5.296875 -1.578125 5.46875 -1.578125 5.46875 -1.734375 C 5.46875 -1.921875 5.296875 -1.921875 5.203125 -1.921875 L 1.015625 -1.921875 C 0.90625 -1.921875 0.75 -1.921875 0.75 -1.734375 C 0.75 -1.578125 0.921875 -1.578125 1.015625 -1.578125 L 5.203125 -1.578125 Z M 5.203125 -1.578125 "
               style="stroke:none;" />
          </symbol>
          <symbol
             id="textext-d5c83eab-6"
             overflow="visible">
            <path
               id="path125307"
               d=""
               style="stroke:none;" />
          </symbol>
          <symbol
             id="textext-d5c83eab-7"
             overflow="visible">
            <path
               id="path125310"
               d="M 2.328125 -4.4375 C 2.328125 -4.625 2.328125 -4.625 2.125 -4.625 C 1.671875 -4.1875 1.046875 -4.1875 0.765625 -4.1875 L 0.765625 -3.9375 C 0.921875 -3.9375 1.390625 -3.9375 1.765625 -4.125 L 1.765625 -0.578125 C 1.765625 -0.34375 1.765625 -0.25 1.078125 -0.25 L 0.8125 -0.25 L 0.8125 0 C 0.9375 0 1.796875 -0.03125 2.046875 -0.03125 C 2.265625 -0.03125 3.140625 0 3.296875 0 L 3.296875 -0.25 L 3.03125 -0.25 C 2.328125 -0.25 2.328125 -0.34375 2.328125 -0.578125 L 2.328125 -4.4375 Z M 2.328125 -4.4375 "
               style="stroke:none;" />
          </symbol>
        </g>
      </defs>
      <g
         id="textext-d5c83eab-8">
        <g
           id="g125313"
           style="fill:rgb(0%,0%,0%);fill-opacity:1;">
          <use
             id="use125315"
             y="134.765"
             x="223.432"
             xlink:href="#textext-d5c83eab-1" />
        </g>
        <g
           id="g125317"
           style="fill:rgb(0%,0%,0%);fill-opacity:1;">
          <use
             id="use125319"
             y="136.259"
             x="230.786"
             xlink:href="#textext-d5c83eab-3" />
        </g>
        <g
           id="g125321"
           style="fill:rgb(0%,0%,0%);fill-opacity:1;">
          <use
             id="use125323"
             y="136.259"
             x="237.845"
             xlink:href="#textext-d5c83eab-5" />
        </g>
        <g
           id="g125325"
           style="fill:rgb(0%,0%,0%);fill-opacity:1;">
          <use
             id="use125327"
             y="136.259"
             x="244.071"
             xlink:href="#textext-d5c83eab-7" />
        </g>
      </g>
    </g>
    <g
       ns0:text="$E_{s}$"
       ns0:preamble=""
       transform="translate(-26.4135,-46.246946)"
       id="g125789">
      <defs
         id="defs125791">
        <g
           id="g125793">
          <symbol
             style="overflow:visible"
             overflow="visible"
             id="textext-06257810-0">
            <path
               style="stroke:none"
               d=""
               id="path125796" />
          </symbol>
          <symbol
             style="overflow:visible"
             overflow="visible"
             id="textext-06257810-1">
            <path
               style="stroke:none"
               d="M 7.0625,-2.328125 C 7.078125,-2.375 7.109375,-2.4375 7.109375,-2.46875 C 7.109375,-2.46875 7.109375,-2.578125 6.984375,-2.578125 C 6.890625,-2.578125 6.875,-2.515625 6.859375,-2.453125 C 6.203125,-0.984375 5.84375,-0.3125 4.140625,-0.3125 L 2.6875,-0.3125 C 2.546875,-0.3125 2.515625,-0.3125 2.46875,-0.3125 C 2.359375,-0.328125 2.328125,-0.34375 2.328125,-0.421875 C 2.328125,-0.453125 2.328125,-0.46875 2.375,-0.640625 L 3.0625,-3.375 L 4.046875,-3.375 C 4.890625,-3.375 4.890625,-3.15625 4.890625,-2.90625 C 4.890625,-2.84375 4.890625,-2.71875 4.828125,-2.421875 C 4.8125,-2.375 4.796875,-2.34375 4.796875,-2.3125 C 4.796875,-2.265625 4.828125,-2.203125 4.921875,-2.203125 C 5,-2.203125 5.03125,-2.25 5.078125,-2.40625 L 5.640625,-4.734375 C 5.640625,-4.796875 5.59375,-4.84375 5.515625,-4.84375 C 5.4375,-4.84375 5.40625,-4.78125 5.390625,-4.671875 C 5.171875,-3.90625 5,-3.671875 4.078125,-3.671875 L 3.140625,-3.671875 L 3.734375,-6.078125 C 3.828125,-6.4375 3.84375,-6.46875 4.28125,-6.46875 L 5.6875,-6.46875 C 6.890625,-6.46875 7.203125,-6.1875 7.203125,-5.359375 C 7.203125,-5.125 7.203125,-5.109375 7.15625,-4.828125 C 7.15625,-4.78125 7.140625,-4.703125 7.140625,-4.65625 C 7.140625,-4.609375 7.171875,-4.53125 7.265625,-4.53125 C 7.375,-4.53125 7.390625,-4.59375 7.40625,-4.78125 L 7.609375,-6.515625 C 7.640625,-6.78125 7.59375,-6.78125 7.34375,-6.78125 L 2.296875,-6.78125 C 2.109375,-6.78125 2,-6.78125 2,-6.578125 C 2,-6.46875 2.09375,-6.46875 2.28125,-6.46875 C 2.65625,-6.46875 2.9375,-6.46875 2.9375,-6.296875 C 2.9375,-6.25 2.9375,-6.234375 2.875,-6.046875 L 1.5625,-0.78125 C 1.46875,-0.390625 1.453125,-0.3125 0.65625,-0.3125 C 0.484375,-0.3125 0.375,-0.3125 0.375,-0.125 C 0.375,0 0.46875,0 0.65625,0 L 5.828125,0 C 6.0625,0 6.078125,-0.015625 6.140625,-0.171875 L 7.0625,-2.328125 z"
               id="path125799" />
          </symbol>
          <symbol
             style="overflow:visible"
             overflow="visible"
             id="textext-06257810-2">
            <path
               style="stroke:none"
               d=""
               id="path125802" />
          </symbol>
          <symbol
             style="overflow:visible"
             overflow="visible"
             id="textext-06257810-3">
            <path
               style="stroke:none"
               d="M 3,-2.625 C 2.828125,-2.578125 2.703125,-2.4375 2.703125,-2.296875 C 2.703125,-2.125 2.84375,-2.0625 2.9375,-2.0625 C 3.015625,-2.0625 3.28125,-2.109375 3.28125,-2.46875 C 3.28125,-2.921875 2.78125,-3.078125 2.34375,-3.078125 C 1.265625,-3.078125 1.0625,-2.265625 1.0625,-2.0625 C 1.0625,-1.796875 1.21875,-1.625 1.3125,-1.546875 C 1.484375,-1.40625 1.609375,-1.375 2.09375,-1.296875 C 2.25,-1.265625 2.6875,-1.1875 2.6875,-0.84375 C 2.6875,-0.71875 2.609375,-0.453125 2.328125,-0.28125 C 2.046875,-0.125 1.703125,-0.125 1.625,-0.125 C 1.34375,-0.125 0.953125,-0.1875 0.78125,-0.421875 C 1.015625,-0.453125 1.171875,-0.625 1.171875,-0.8125 C 1.171875,-0.984375 1.046875,-1.078125 0.90625,-1.078125 C 0.703125,-1.078125 0.5,-0.90625 0.5,-0.609375 C 0.5,-0.1875 0.9375,0.0625 1.609375,0.0625 C 2.90625,0.0625 3.140625,-0.8125 3.140625,-1.078125 C 3.140625,-1.71875 2.4375,-1.84375 2.171875,-1.890625 C 2.109375,-1.90625 1.9375,-1.9375 1.890625,-1.953125 C 1.640625,-2 1.515625,-2.140625 1.515625,-2.296875 C 1.515625,-2.453125 1.640625,-2.640625 1.796875,-2.75 C 1.984375,-2.859375 2.21875,-2.875 2.34375,-2.875 C 2.484375,-2.875 2.84375,-2.859375 3,-2.625 z"
               id="path125805" />
          </symbol>
        </g>
      </defs>
      <g
         id="textext-06257810-4">
        <g
           style="fill:#000000;fill-opacity:1"
           id="g125808">
          <use
             height="141.73228"
             width="354.33069"
             xlink:href="#textext-06257810-1"
             x="223.43201"
             y="134.765"
             id="use125810" />
        </g>
        <g
           style="fill:#000000;fill-opacity:1"
           id="g125812">
          <use
             height="141.73228"
             width="354.33069"
             xlink:href="#textext-06257810-3"
             x="230.786"
             y="136.259"
             id="use125814" />
        </g>
      </g>
    </g>
    <g
       id="g126276"
       ns0:preamble=""
       ns0:text="$\\tau\'(\\overline{G}_{j})$"
       transform="translate(38.08572,-86.508993)">
      <defs
         id="defs126278">
        <g
           id="g126280">
          <symbol
             id="textext-af5e2810-0"
             overflow="visible"
             style="overflow:visible">
            <path
               id="path126283"
               d=""
               style="stroke:none" />
          </symbol>
          <symbol
             id="textext-af5e2810-1"
             overflow="visible"
             style="overflow:visible">
            <path
               id="path126286"
               d="M 2.9375,-3.71875 L 4.609375,-3.71875 C 4.734375,-3.71875 5.09375,-3.71875 5.09375,-4.0625 C 5.09375,-4.296875 4.890625,-4.296875 4.6875,-4.296875 L 1.90625,-4.296875 C 1.703125,-4.296875 1.3125,-4.296875 0.875,-3.828125 C 0.546875,-3.46875 0.265625,-2.984375 0.265625,-2.9375 C 0.265625,-2.921875 0.265625,-2.828125 0.390625,-2.828125 C 0.46875,-2.828125 0.484375,-2.875 0.546875,-2.953125 C 1.03125,-3.71875 1.609375,-3.71875 1.8125,-3.71875 L 2.640625,-3.71875 C 2.15625,-2.125 1.765625,-0.859375 1.671875,-0.515625 C 1.625,-0.40625 1.5625,-0.1875 1.5625,-0.15625 C 1.5625,-0.046875 1.640625,0.125 1.859375,0.125 C 2.1875,0.125 2.234375,-0.15625 2.265625,-0.3125 L 2.9375,-3.71875 z"
               style="stroke:none" />
          </symbol>
          <symbol
             id="textext-af5e2810-2"
             overflow="visible"
             style="overflow:visible">
            <path
               id="path126289"
               d="M 7.578125,-6.921875 C 7.578125,-6.953125 7.5625,-7.03125 7.46875,-7.03125 C 7.4375,-7.03125 7.421875,-7.015625 7.3125,-6.90625 L 6.625,-6.140625 C 6.53125,-6.28125 6.078125,-7.03125 4.96875,-7.03125 C 2.734375,-7.03125 0.5,-4.828125 0.5,-2.515625 C 0.5,-0.921875 1.609375,0.21875 3.21875,0.21875 C 3.65625,0.21875 4.109375,0.125 4.46875,-0.015625 C 4.96875,-0.21875 5.15625,-0.421875 5.328125,-0.625 C 5.421875,-0.375 5.6875,-0.015625 5.78125,-0.015625 C 5.828125,-0.015625 5.859375,-0.046875 5.859375,-0.046875 C 5.875,-0.0625 5.96875,-0.453125 6.015625,-0.65625 L 6.203125,-1.421875 C 6.25,-1.59375 6.296875,-1.765625 6.34375,-1.9375 C 6.453125,-2.375 6.453125,-2.40625 7.03125,-2.40625 C 7.078125,-2.40625 7.1875,-2.421875 7.1875,-2.609375 C 7.1875,-2.6875 7.140625,-2.71875 7.0625,-2.71875 C 6.828125,-2.71875 6.234375,-2.6875 6.015625,-2.6875 C 5.703125,-2.6875 4.921875,-2.71875 4.609375,-2.71875 C 4.53125,-2.71875 4.40625,-2.71875 4.40625,-2.515625 C 4.40625,-2.40625 4.484375,-2.40625 4.703125,-2.40625 C 4.71875,-2.40625 5,-2.40625 5.234375,-2.390625 C 5.5,-2.359375 5.546875,-2.328125 5.546875,-2.203125 C 5.546875,-2.109375 5.4375,-1.671875 5.328125,-1.296875 C 5.046875,-0.203125 3.765625,-0.09375 3.40625,-0.09375 C 2.453125,-0.09375 1.40625,-0.65625 1.40625,-2.1875 C 1.40625,-2.5 1.5,-4.140625 2.546875,-5.4375 C 3.09375,-6.109375 4.0625,-6.71875 5.046875,-6.71875 C 6.0625,-6.71875 6.65625,-5.953125 6.65625,-4.796875 C 6.65625,-4.390625 6.625,-4.390625 6.625,-4.28125 C 6.625,-4.1875 6.734375,-4.1875 6.765625,-4.1875 C 6.890625,-4.1875 6.890625,-4.203125 6.953125,-4.390625 L 7.578125,-6.921875 z"
               style="stroke:none" />
          </symbol>
          <symbol
             id="textext-af5e2810-3"
             overflow="visible"
             style="overflow:visible">
            <path
               id="path126292"
               d=""
               style="stroke:none" />
          </symbol>
          <symbol
             id="textext-af5e2810-4"
             overflow="visible"
             style="overflow:visible">
            <path
               id="path126295"
               d="M 2.03125,-3.296875 C 2.0625,-3.359375 2.078125,-3.421875 2.078125,-3.515625 C 2.078125,-3.734375 1.890625,-3.890625 1.671875,-3.890625 C 1.390625,-3.890625 1.328125,-3.671875 1.296875,-3.578125 L 0.375,-0.5625 C 0.359375,-0.53125 0.328125,-0.453125 0.328125,-0.4375 C 0.328125,-0.359375 0.546875,-0.28125 0.609375,-0.28125 C 0.65625,-0.28125 0.6875,-0.328125 0.703125,-0.390625 L 2.03125,-3.296875 z"
               style="stroke:none" />
          </symbol>
          <symbol
             id="textext-af5e2810-5"
             overflow="visible"
             style="overflow:visible">
            <path
               id="path126298"
               d=""
               style="stroke:none" />
          </symbol>
          <symbol
             id="textext-af5e2810-6"
             overflow="visible"
             style="overflow:visible">
            <path
               id="path126301"
               d="M 3.296875,2.390625 C 3.296875,2.359375 3.296875,2.34375 3.125,2.171875 C 1.890625,0.921875 1.5625,-0.96875 1.5625,-2.5 C 1.5625,-4.234375 1.9375,-5.96875 3.171875,-7.203125 C 3.296875,-7.328125 3.296875,-7.34375 3.296875,-7.375 C 3.296875,-7.453125 3.265625,-7.484375 3.203125,-7.484375 C 3.09375,-7.484375 2.203125,-6.796875 1.609375,-5.53125 C 1.109375,-4.4375 0.984375,-3.328125 0.984375,-2.5 C 0.984375,-1.71875 1.09375,-0.515625 1.640625,0.625 C 2.25,1.84375 3.09375,2.5 3.203125,2.5 C 3.265625,2.5 3.296875,2.46875 3.296875,2.390625 z"
               style="stroke:none" />
          </symbol>
          <symbol
             id="textext-af5e2810-7"
             overflow="visible"
             style="overflow:visible">
            <path
               id="path126304"
               d="M 2.875,-2.5 C 2.875,-3.265625 2.765625,-4.46875 2.21875,-5.609375 C 1.625,-6.828125 0.765625,-7.484375 0.671875,-7.484375 C 0.609375,-7.484375 0.5625,-7.4375 0.5625,-7.375 C 0.5625,-7.34375 0.5625,-7.328125 0.75,-7.140625 C 1.734375,-6.15625 2.296875,-4.578125 2.296875,-2.5 C 2.296875,-0.78125 1.9375,0.96875 0.703125,2.21875 C 0.5625,2.34375 0.5625,2.359375 0.5625,2.390625 C 0.5625,2.453125 0.609375,2.5 0.671875,2.5 C 0.765625,2.5 1.671875,1.8125 2.25,0.546875 C 2.765625,-0.546875 2.875,-1.65625 2.875,-2.5 z"
               style="stroke:none" />
          </symbol>
          <symbol
             id="textext-af5e2810-8"
             overflow="visible"
             style="overflow:visible">
            <path
               id="path126307"
               d=""
               style="stroke:none" />
          </symbol>
          <symbol
             id="textext-af5e2810-9"
             overflow="visible"
             style="overflow:visible">
            <path
               id="path126310"
               d="M 3.0625,-4.359375 C 3.0625,-4.46875 2.96875,-4.625 2.78125,-4.625 C 2.578125,-4.625 2.390625,-4.421875 2.390625,-4.234375 C 2.390625,-4.125 2.46875,-3.96875 2.671875,-3.96875 C 2.859375,-3.96875 3.0625,-4.15625 3.0625,-4.359375 z M 1.578125,0.34375 C 1.46875,0.828125 1.09375,1.21875 0.6875,1.21875 C 0.59375,1.21875 0.515625,1.21875 0.4375,1.1875 C 0.609375,1.09375 0.671875,0.9375 0.671875,0.828125 C 0.671875,0.65625 0.53125,0.578125 0.390625,0.578125 C 0.1875,0.578125 0,0.765625 0,0.984375 C 0,1.25 0.265625,1.421875 0.6875,1.421875 C 1.109375,1.421875 1.921875,1.171875 2.140625,0.328125 L 2.765625,-2.171875 C 2.78125,-2.25 2.796875,-2.3125 2.796875,-2.421875 C 2.796875,-2.796875 2.46875,-3.078125 2.0625,-3.078125 C 1.28125,-3.078125 0.84375,-2.109375 0.84375,-2 C 0.84375,-1.921875 0.9375,-1.921875 0.953125,-1.921875 C 1.03125,-1.921875 1.046875,-1.9375 1.09375,-2.046875 C 1.265625,-2.453125 1.625,-2.875 2.03125,-2.875 C 2.203125,-2.875 2.265625,-2.765625 2.265625,-2.53125 C 2.265625,-2.453125 2.265625,-2.359375 2.25,-2.328125 L 1.578125,0.34375 z"
               style="stroke:none" />
          </symbol>
        </g>
      </defs>
      <g
         id="textext-af5e2810-10">
        <g
           id="g126313"
           style="fill:#000000;fill-opacity:1">
          <use
             id="use126315"
             y="134.765"
             x="223.43201"
             xlink:href="#textext-af5e2810-1"
             width="354.33069"
             height="141.73228" />
        </g>
        <g
           id="g126317"
           style="fill:#000000;fill-opacity:1">
          <use
             id="use126319"
             y="131.14999"
             x="228.91499"
             xlink:href="#textext-af5e2810-4"
             width="354.33069"
             height="141.73228" />
        </g>
        <g
           id="g126321"
           style="fill:#000000;fill-opacity:1">
          <use
             id="use126323"
             y="134.765"
             x="231.71001"
             xlink:href="#textext-af5e2810-6"
             width="354.33069"
             height="141.73228" />
        </g>
        <path
           id="path126325"
           transform="matrix(1,0,0,-1,235.584,126.562)"
           d="M 0.0019375,-0.0005 L 7.833969,-0.0005"
           style="fill:none;stroke:#000000;stroke-width:0.398;stroke-linecap:butt;stroke-linejoin:miter;stroke-miterlimit:10;stroke-opacity:1" />
        <g
           id="g126327"
           style="fill:#000000;fill-opacity:1">
          <use
             id="use126329"
             y="134.765"
             x="235.584"
             xlink:href="#textext-af5e2810-2"
             width="354.33069"
             height="141.73228" />
        </g>
        <g
           id="g126331"
           style="fill:#000000;fill-opacity:1">
          <use
             id="use126333"
             y="136.259"
             x="243.418"
             xlink:href="#textext-af5e2810-9"
             width="354.33069"
             height="141.73228" />
        </g>
        <g
           id="g126335"
           style="fill:#000000;fill-opacity:1">
          <use
             id="use126337"
             y="134.765"
             x="247.61501"
             xlink:href="#textext-af5e2810-7"
             width="354.33069"
             height="141.73228" />
        </g>
      </g>
    </g>
    <g
       transform="translate(70.186542,-44.34266)"
       ns0:text="$E_{2}$"
       ns0:preamble=""
       id="g126873">
      <defs
         id="defs126875">
        <g
           id="g126877">
          <symbol
             style="overflow:visible"
             overflow="visible"
             id="textext-f67cc536-0">
            <path
               style="stroke:none"
               d=""
               id="path126880" />
          </symbol>
          <symbol
             style="overflow:visible"
             overflow="visible"
             id="textext-f67cc536-1">
            <path
               style="stroke:none"
               d="M 7.0625,-2.328125 C 7.078125,-2.375 7.109375,-2.4375 7.109375,-2.46875 C 7.109375,-2.46875 7.109375,-2.578125 6.984375,-2.578125 C 6.890625,-2.578125 6.875,-2.515625 6.859375,-2.453125 C 6.203125,-0.984375 5.84375,-0.3125 4.140625,-0.3125 L 2.6875,-0.3125 C 2.546875,-0.3125 2.515625,-0.3125 2.46875,-0.3125 C 2.359375,-0.328125 2.328125,-0.34375 2.328125,-0.421875 C 2.328125,-0.453125 2.328125,-0.46875 2.375,-0.640625 L 3.0625,-3.375 L 4.046875,-3.375 C 4.890625,-3.375 4.890625,-3.15625 4.890625,-2.90625 C 4.890625,-2.84375 4.890625,-2.71875 4.828125,-2.421875 C 4.8125,-2.375 4.796875,-2.34375 4.796875,-2.3125 C 4.796875,-2.265625 4.828125,-2.203125 4.921875,-2.203125 C 5,-2.203125 5.03125,-2.25 5.078125,-2.40625 L 5.640625,-4.734375 C 5.640625,-4.796875 5.59375,-4.84375 5.515625,-4.84375 C 5.4375,-4.84375 5.40625,-4.78125 5.390625,-4.671875 C 5.171875,-3.90625 5,-3.671875 4.078125,-3.671875 L 3.140625,-3.671875 L 3.734375,-6.078125 C 3.828125,-6.4375 3.84375,-6.46875 4.28125,-6.46875 L 5.6875,-6.46875 C 6.890625,-6.46875 7.203125,-6.1875 7.203125,-5.359375 C 7.203125,-5.125 7.203125,-5.109375 7.15625,-4.828125 C 7.15625,-4.78125 7.140625,-4.703125 7.140625,-4.65625 C 7.140625,-4.609375 7.171875,-4.53125 7.265625,-4.53125 C 7.375,-4.53125 7.390625,-4.59375 7.40625,-4.78125 L 7.609375,-6.515625 C 7.640625,-6.78125 7.59375,-6.78125 7.34375,-6.78125 L 2.296875,-6.78125 C 2.109375,-6.78125 2,-6.78125 2,-6.578125 C 2,-6.46875 2.09375,-6.46875 2.28125,-6.46875 C 2.65625,-6.46875 2.9375,-6.46875 2.9375,-6.296875 C 2.9375,-6.25 2.9375,-6.234375 2.875,-6.046875 L 1.5625,-0.78125 C 1.46875,-0.390625 1.453125,-0.3125 0.65625,-0.3125 C 0.484375,-0.3125 0.375,-0.3125 0.375,-0.125 C 0.375,0 0.46875,0 0.65625,0 L 5.828125,0 C 6.0625,0 6.078125,-0.015625 6.140625,-0.171875 L 7.0625,-2.328125 z"
               id="path126883" />
          </symbol>
          <symbol
             style="overflow:visible"
             overflow="visible"
             id="textext-f67cc536-2">
            <path
               style="stroke:none"
               d=""
               id="path126886" />
          </symbol>
          <symbol
             style="overflow:visible"
             overflow="visible"
             id="textext-f67cc536-3">
            <path
               style="stroke:none"
               d="M 3.515625,-1.265625 L 3.28125,-1.265625 C 3.265625,-1.109375 3.1875,-0.703125 3.09375,-0.640625 C 3.046875,-0.59375 2.515625,-0.59375 2.40625,-0.59375 L 1.125,-0.59375 C 1.859375,-1.234375 2.109375,-1.4375 2.515625,-1.765625 C 3.03125,-2.171875 3.515625,-2.609375 3.515625,-3.265625 C 3.515625,-4.109375 2.78125,-4.625 1.890625,-4.625 C 1.03125,-4.625 0.4375,-4.015625 0.4375,-3.375 C 0.4375,-3.03125 0.734375,-2.984375 0.8125,-2.984375 C 0.96875,-2.984375 1.171875,-3.109375 1.171875,-3.359375 C 1.171875,-3.484375 1.125,-3.734375 0.765625,-3.734375 C 0.984375,-4.21875 1.453125,-4.375 1.78125,-4.375 C 2.484375,-4.375 2.84375,-3.828125 2.84375,-3.265625 C 2.84375,-2.65625 2.40625,-2.1875 2.1875,-1.9375 L 0.515625,-0.265625 C 0.4375,-0.203125 0.4375,-0.1875 0.4375,0 L 3.3125,0 L 3.515625,-1.265625 z"
               id="path126889" />
          </symbol>
        </g>
      </defs>
      <g
         id="textext-f67cc536-4">
        <g
           style="fill:#000000;fill-opacity:1"
           id="g126892">
          <use
             height="141.73228"
             width="354.33069"
             xlink:href="#textext-f67cc536-1"
             x="223.43201"
             y="134.765"
             id="use126894" />
        </g>
        <g
           style="fill:#000000;fill-opacity:1"
           id="g126896">
          <use
             height="141.73228"
             width="354.33069"
             xlink:href="#textext-f67cc536-3"
             x="230.786"
             y="136.259"
             id="use126898" />
        </g>
      </g>
    </g>
    <g
       id="g127498"
       transform="translate(96.186542,-44.34266)"
       ns0:preamble=""
       ns0:text="$E_{1}$">
      <defs
         id="defs127500">
        <g
           id="g127502">
          <symbol
             id="textext-285f4c52-0"
             overflow="visible">
            <path
               id="path127505"
               d=""
               style="stroke:none;" />
          </symbol>
          <symbol
             id="textext-285f4c52-1"
             overflow="visible">
            <path
               id="path127508"
               d="M 7.0625 -2.328125 C 7.078125 -2.375 7.109375 -2.4375 7.109375 -2.46875 C 7.109375 -2.46875 7.109375 -2.578125 6.984375 -2.578125 C 6.890625 -2.578125 6.875 -2.515625 6.859375 -2.453125 C 6.203125 -0.984375 5.84375 -0.3125 4.140625 -0.3125 L 2.6875 -0.3125 C 2.546875 -0.3125 2.515625 -0.3125 2.46875 -0.3125 C 2.359375 -0.328125 2.328125 -0.34375 2.328125 -0.421875 C 2.328125 -0.453125 2.328125 -0.46875 2.375 -0.640625 L 3.0625 -3.375 L 4.046875 -3.375 C 4.890625 -3.375 4.890625 -3.15625 4.890625 -2.90625 C 4.890625 -2.84375 4.890625 -2.71875 4.828125 -2.421875 C 4.8125 -2.375 4.796875 -2.34375 4.796875 -2.3125 C 4.796875 -2.265625 4.828125 -2.203125 4.921875 -2.203125 C 5 -2.203125 5.03125 -2.25 5.078125 -2.40625 L 5.640625 -4.734375 C 5.640625 -4.796875 5.59375 -4.84375 5.515625 -4.84375 C 5.4375 -4.84375 5.40625 -4.78125 5.390625 -4.671875 C 5.171875 -3.90625 5 -3.671875 4.078125 -3.671875 L 3.140625 -3.671875 L 3.734375 -6.078125 C 3.828125 -6.4375 3.84375 -6.46875 4.28125 -6.46875 L 5.6875 -6.46875 C 6.890625 -6.46875 7.203125 -6.1875 7.203125 -5.359375 C 7.203125 -5.125 7.203125 -5.109375 7.15625 -4.828125 C 7.15625 -4.78125 7.140625 -4.703125 7.140625 -4.65625 C 7.140625 -4.609375 7.171875 -4.53125 7.265625 -4.53125 C 7.375 -4.53125 7.390625 -4.59375 7.40625 -4.78125 L 7.609375 -6.515625 C 7.640625 -6.78125 7.59375 -6.78125 7.34375 -6.78125 L 2.296875 -6.78125 C 2.109375 -6.78125 2 -6.78125 2 -6.578125 C 2 -6.46875 2.09375 -6.46875 2.28125 -6.46875 C 2.65625 -6.46875 2.9375 -6.46875 2.9375 -6.296875 C 2.9375 -6.25 2.9375 -6.234375 2.875 -6.046875 L 1.5625 -0.78125 C 1.46875 -0.390625 1.453125 -0.3125 0.65625 -0.3125 C 0.484375 -0.3125 0.375 -0.3125 0.375 -0.125 C 0.375 0 0.46875 0 0.65625 0 L 5.828125 0 C 6.0625 0 6.078125 -0.015625 6.140625 -0.171875 L 7.0625 -2.328125 Z M 7.0625 -2.328125 "
               style="stroke:none;" />
          </symbol>
          <symbol
             id="textext-285f4c52-2"
             overflow="visible">
            <path
               id="path127511"
               d=""
               style="stroke:none;" />
          </symbol>
          <symbol
             id="textext-285f4c52-3"
             overflow="visible">
            <path
               id="path127514"
               d="M 2.328125 -4.4375 C 2.328125 -4.625 2.328125 -4.625 2.125 -4.625 C 1.671875 -4.1875 1.046875 -4.1875 0.765625 -4.1875 L 0.765625 -3.9375 C 0.921875 -3.9375 1.390625 -3.9375 1.765625 -4.125 L 1.765625 -0.578125 C 1.765625 -0.34375 1.765625 -0.25 1.078125 -0.25 L 0.8125 -0.25 L 0.8125 0 C 0.9375 0 1.796875 -0.03125 2.046875 -0.03125 C 2.265625 -0.03125 3.140625 0 3.296875 0 L 3.296875 -0.25 L 3.03125 -0.25 C 2.328125 -0.25 2.328125 -0.34375 2.328125 -0.578125 L 2.328125 -4.4375 Z M 2.328125 -4.4375 "
               style="stroke:none;" />
          </symbol>
        </g>
      </defs>
      <g
         id="textext-285f4c52-4">
        <g
           id="g127517"
           style="fill:rgb(0%,0%,0%);fill-opacity:1;">
          <use
             id="use127519"
             y="134.765"
             x="223.432"
             xlink:href="#textext-285f4c52-1" />
        </g>
        <g
           id="g127521"
           style="fill:rgb(0%,0%,0%);fill-opacity:1;">
          <use
             id="use127523"
             y="136.259"
             x="230.786"
             xlink:href="#textext-285f4c52-3" />
        </g>
      </g>
    </g>
  </g>
</svg>
