<?xml version="1.0" encoding="UTF-8" standalone="no"?>
<!-- Created with Inkscape (http://www.inkscape.org/) -->
<svg
   xmlns:ns0="http://www.iki.fi/pav/software/textext/"
   xmlns:dc="http://purl.org/dc/elements/1.1/"
   xmlns:cc="http://creativecommons.org/ns#"
   xmlns:rdf="http://www.w3.org/1999/02/22-rdf-syntax-ns#"
   xmlns:svg="http://www.w3.org/2000/svg"
   xmlns="http://www.w3.org/2000/svg"
   xmlns:xlink="http://www.w3.org/1999/xlink"
   xmlns:sodipodi="http://sodipodi.sourceforge.net/DTD/sodipodi-0.dtd"
   xmlns:inkscape="http://www.inkscape.org/namespaces/inkscape"
   width="372.04724"
   height="141.73228"
   id="svg2"
   sodipodi:version="0.32"
   inkscape:version="0.46"
   version="1.0"
   sodipodi:docname="chap2-fig25.svg"
   inkscape:output_extension="org.inkscape.output.svg.inkscape">
  <sodipodi:namedview
     id="base"
     pagecolor="#ffffff"
     bordercolor="#666666"
     borderopacity="1.0"
     gridtolerance="10000"
     guidetolerance="10"
     objecttolerance="10"
     inkscape:pageopacity="0.0"
     inkscape:pageshadow="2"
     inkscape:zoom="1.8379592"
     inkscape:cx="170.41428"
     inkscape:cy="68.662497"
     inkscape:document-units="px"
     inkscape:current-layer="layer1"
     showgrid="false"
     units="cm"
     inkscape:window-width="1009"
     inkscape:window-height="726"
     inkscape:window-x="5"
     inkscape:window-y="27" />
  <defs
     id="defs4">
    <inkscape:perspective
       sodipodi:type="inkscape:persp3d"
       inkscape:vp_x="0 : 526.18109 : 1"
       inkscape:vp_y="0 : 1000 : 0"
       inkscape:vp_z="744.09448 : 526.18109 : 1"
       inkscape:persp3d-origin="372.04724 : 350.78739 : 1"
       id="perspective10" />
  </defs>
  <metadata
     id="metadata7">
    <rdf:RDF>
      <cc:Work
         rdf:about="">
        <dc:format>image/svg+xml</dc:format>
        <dc:type
           rdf:resource="http://purl.org/dc/dcmitype/StillImage" />
      </cc:Work>
    </rdf:RDF>
  </metadata>
  <g
     inkscape:label="Layer 1"
     inkscape:groupmode="layer"
     id="layer1">
    <path
       id="path52973"
       d="M 6.695888,108.64603 L 55.940543,27.469294"
       style="fill:none;fill-rule:evenodd;stroke:#000000;stroke-width:1px;stroke-linecap:butt;stroke-linejoin:miter;stroke-opacity:1" />
    <path
       style="fill:none;fill-rule:evenodd;stroke:#000000;stroke-width:1px;stroke-linecap:butt;stroke-linejoin:miter;stroke-opacity:1"
       d="M 38.695888,27.469294 L 87.940543,108.64603"
       id="path52975" />
    <path
       id="path52977"
       d="M 70.695888,108.64603 L 119.94054,27.469294"
       style="fill:none;fill-rule:evenodd;stroke:#000000;stroke-width:1px;stroke-linecap:butt;stroke-linejoin:miter;stroke-opacity:1" />
    <path
       style="fill:none;fill-rule:evenodd;stroke:#000000;stroke-width:1px;stroke-linecap:butt;stroke-linejoin:miter;stroke-opacity:1"
       d="M 174.69589,108.64603 L 223.94054,27.469294"
       id="path52979" />
    <path
       id="path52981"
       d="M 290.69589,108.64603 L 339.94054,27.469294"
       style="fill:none;fill-rule:evenodd;stroke:#000000;stroke-width:1px;stroke-linecap:butt;stroke-linejoin:miter;stroke-opacity:1" />
    <path
       id="path52983"
       d="M 202.90506,29.392914 L 326.40143,93.6418"
       style="fill:none;fill-rule:evenodd;stroke:#000000;stroke-width:1px;stroke-linecap:butt;stroke-linejoin:miter;stroke-opacity:1" />
    <path
       sodipodi:nodetypes="ccszs"
       id="path52985"
       d="M 219.67831,71.050853 C 227.60685,70.722815 242.64295,58.054231 246.79659,53.597514 C 221.65191,140.95622 378.79504,118.81835 346.10948,80.458794 C 339.30321,72.471007 313.953,63.367288 318.28781,63.618795 C 322.62263,63.870301 350.81686,64.132159 357.36273,56.102757"
       style="fill:none;fill-rule:evenodd;stroke:#000000;stroke-width:1px;stroke-linecap:butt;stroke-linejoin:miter;stroke-opacity:1" />
    <g
       id="g53000"
       ns0:preamble=""
       ns0:text="$-1$"
       transform="translate(-195.61248,-85.692871)">
      <defs
         id="defs53002">
        <g
           id="g53004">
          <symbol
             id="textext-108f8aa9-0"
             overflow="visible"
             style="overflow:visible">
            <path
               id="path53007"
               d=""
               style="stroke:none" />
          </symbol>
          <symbol
             id="textext-108f8aa9-1"
             overflow="visible"
             style="overflow:visible">
            <path
               id="path53010"
               d="M 6.59375,-2.296875 C 6.734375,-2.296875 6.921875,-2.296875 6.921875,-2.5 C 6.921875,-2.6875 6.734375,-2.6875 6.59375,-2.6875 L 1.15625,-2.6875 C 1.015625,-2.6875 0.828125,-2.6875 0.828125,-2.5 C 0.828125,-2.296875 1.015625,-2.296875 1.15625,-2.296875 L 6.59375,-2.296875 z"
               style="stroke:none" />
          </symbol>
          <symbol
             id="textext-108f8aa9-2"
             overflow="visible"
             style="overflow:visible">
            <path
               id="path53013"
               d=""
               style="stroke:none" />
          </symbol>
          <symbol
             id="textext-108f8aa9-3"
             overflow="visible"
             style="overflow:visible">
            <path
               id="path53016"
               d="M 2.9375,-6.375 C 2.9375,-6.625 2.9375,-6.640625 2.703125,-6.640625 C 2.078125,-6 1.203125,-6 0.890625,-6 L 0.890625,-5.6875 C 1.09375,-5.6875 1.671875,-5.6875 2.1875,-5.953125 L 2.1875,-0.78125 C 2.1875,-0.421875 2.15625,-0.3125 1.265625,-0.3125 L 0.953125,-0.3125 L 0.953125,0 C 1.296875,-0.03125 2.15625,-0.03125 2.5625,-0.03125 C 2.953125,-0.03125 3.828125,-0.03125 4.171875,0 L 4.171875,-0.3125 L 3.859375,-0.3125 C 2.953125,-0.3125 2.9375,-0.421875 2.9375,-0.78125 L 2.9375,-6.375 z"
               style="stroke:none" />
          </symbol>
        </g>
      </defs>
      <g
         id="textext-108f8aa9-4">
        <g
           id="g53019"
           style="fill:#000000;fill-opacity:1">
          <use
             id="use53021"
             y="134.765"
             x="223.43201"
             xlink:href="#textext-108f8aa9-1"
             width="372.04724"
             height="141.73228" />
        </g>
        <g
           id="g53023"
           style="fill:#000000;fill-opacity:1">
          <use
             id="use53025"
             y="134.765"
             x="231.181"
             xlink:href="#textext-108f8aa9-3"
             width="372.04724"
             height="141.73228" />
        </g>
      </g>
    </g>
    <g
       ns0:text="$-2$"
       ns0:preamble=""
       transform="translate(-169.88452,-85.692871)"
       id="g53115">
      <defs
         id="defs53117">
        <g
           id="g53119">
          <symbol
             overflow="visible"
             id="textext-e3869bf4-0"
             style="overflow:visible">
            <path
               style="stroke:none"
               d=""
               id="path53122" />
          </symbol>
          <symbol
             overflow="visible"
             id="textext-e3869bf4-1"
             style="overflow:visible">
            <path
               style="stroke:none"
               d="M 6.59375,-2.296875 C 6.734375,-2.296875 6.921875,-2.296875 6.921875,-2.5 C 6.921875,-2.6875 6.734375,-2.6875 6.59375,-2.6875 L 1.15625,-2.6875 C 1.015625,-2.6875 0.828125,-2.6875 0.828125,-2.5 C 0.828125,-2.296875 1.015625,-2.296875 1.15625,-2.296875 L 6.59375,-2.296875 z"
               id="path53125" />
          </symbol>
          <symbol
             overflow="visible"
             id="textext-e3869bf4-2"
             style="overflow:visible">
            <path
               style="stroke:none"
               d=""
               id="path53128" />
          </symbol>
          <symbol
             overflow="visible"
             id="textext-e3869bf4-3"
             style="overflow:visible">
            <path
               style="stroke:none"
               d="M 4.46875,-1.734375 L 4.234375,-1.734375 C 4.171875,-1.4375 4.109375,-1 4,-0.84375 C 3.9375,-0.765625 3.28125,-0.765625 3.0625,-0.765625 L 1.265625,-0.765625 L 2.328125,-1.796875 C 3.875,-3.171875 4.46875,-3.703125 4.46875,-4.703125 C 4.46875,-5.84375 3.578125,-6.640625 2.359375,-6.640625 C 1.234375,-6.640625 0.5,-5.71875 0.5,-4.828125 C 0.5,-4.28125 1,-4.28125 1.03125,-4.28125 C 1.203125,-4.28125 1.546875,-4.390625 1.546875,-4.8125 C 1.546875,-5.0625 1.359375,-5.328125 1.015625,-5.328125 C 0.9375,-5.328125 0.921875,-5.328125 0.890625,-5.3125 C 1.109375,-5.96875 1.65625,-6.328125 2.234375,-6.328125 C 3.140625,-6.328125 3.5625,-5.515625 3.5625,-4.703125 C 3.5625,-3.90625 3.078125,-3.125 2.515625,-2.5 L 0.609375,-0.375 C 0.5,-0.265625 0.5,-0.234375 0.5,0 L 4.203125,0 L 4.46875,-1.734375 z"
               id="path53131" />
          </symbol>
        </g>
      </defs>
      <g
         id="textext-e3869bf4-4">
        <g
           style="fill:#000000;fill-opacity:1"
           id="g53134">
          <use
             xlink:href="#textext-e3869bf4-1"
             x="223.43201"
             y="134.765"
             id="use53136"
             width="372.04724"
             height="141.73228" />
        </g>
        <g
           style="fill:#000000;fill-opacity:1"
           id="g53138">
          <use
             xlink:href="#textext-e3869bf4-3"
             x="231.181"
             y="134.765"
             id="use53140"
             width="372.04724"
             height="141.73228" />
        </g>
      </g>
    </g>
    <g
       id="g53185"
       transform="translate(-111.88452,-85.692871)"
       ns0:preamble=""
       ns0:text="$-2$">
      <defs
         id="defs53187">
        <g
           id="g53189">
          <symbol
             style="overflow:visible"
             id="symbol53191"
             overflow="visible">
            <path
               id="path53193"
               d=""
               style="stroke:none" />
          </symbol>
          <symbol
             style="overflow:visible"
             id="symbol53195"
             overflow="visible">
            <path
               id="path53197"
               d="M 6.59375,-2.296875 C 6.734375,-2.296875 6.921875,-2.296875 6.921875,-2.5 C 6.921875,-2.6875 6.734375,-2.6875 6.59375,-2.6875 L 1.15625,-2.6875 C 1.015625,-2.6875 0.828125,-2.6875 0.828125,-2.5 C 0.828125,-2.296875 1.015625,-2.296875 1.15625,-2.296875 L 6.59375,-2.296875 z"
               style="stroke:none" />
          </symbol>
          <symbol
             style="overflow:visible"
             id="symbol53199"
             overflow="visible">
            <path
               id="path53201"
               d=""
               style="stroke:none" />
          </symbol>
          <symbol
             style="overflow:visible"
             id="symbol53203"
             overflow="visible">
            <path
               id="path53205"
               d="M 4.46875,-1.734375 L 4.234375,-1.734375 C 4.171875,-1.4375 4.109375,-1 4,-0.84375 C 3.9375,-0.765625 3.28125,-0.765625 3.0625,-0.765625 L 1.265625,-0.765625 L 2.328125,-1.796875 C 3.875,-3.171875 4.46875,-3.703125 4.46875,-4.703125 C 4.46875,-5.84375 3.578125,-6.640625 2.359375,-6.640625 C 1.234375,-6.640625 0.5,-5.71875 0.5,-4.828125 C 0.5,-4.28125 1,-4.28125 1.03125,-4.28125 C 1.203125,-4.28125 1.546875,-4.390625 1.546875,-4.8125 C 1.546875,-5.0625 1.359375,-5.328125 1.015625,-5.328125 C 0.9375,-5.328125 0.921875,-5.328125 0.890625,-5.3125 C 1.109375,-5.96875 1.65625,-6.328125 2.234375,-6.328125 C 3.140625,-6.328125 3.5625,-5.515625 3.5625,-4.703125 C 3.5625,-3.90625 3.078125,-3.125 2.515625,-2.5 L 0.609375,-0.375 C 0.5,-0.265625 0.5,-0.234375 0.5,0 L 4.203125,0 L 4.46875,-1.734375 z"
               style="stroke:none" />
          </symbol>
        </g>
      </defs>
      <g
         id="g53207">
        <g
           id="g53209"
           style="fill:#000000;fill-opacity:1">
          <use
             height="141.73228"
             width="372.04724"
             id="use53211"
             y="134.765"
             x="223.43201"
             xlink:href="#textext-e3869bf4-1" />
        </g>
        <g
           id="g53213"
           style="fill:#000000;fill-opacity:1">
          <use
             height="141.73228"
             width="372.04724"
             id="use53215"
             y="134.765"
             x="231.181"
             xlink:href="#textext-e3869bf4-3" />
        </g>
      </g>
    </g>
    <g
       id="g53278"
       ns0:preamble=""
       ns0:text="$\\ell^{(r)}_{0}$"
       transform="translate(-203.22962,-36.181434)">
      <defs
         id="defs53280">
        <g
           id="g53282">
          <symbol
             id="textext-dde60549-0"
             overflow="visible"
             style="overflow:visible">
            <path
               id="path53285"
               d=""
               style="stroke:none" />
          </symbol>
          <symbol
             id="textext-dde60549-1"
             overflow="visible"
             style="overflow:visible">
            <path
               id="path53288"
               d="M 0.15625,-0.984375 C 0.140625,-0.953125 0.109375,-0.921875 0.109375,-0.890625 C 0.109375,-0.84375 0.171875,-0.75 0.234375,-0.75 C 0.28125,-0.75 0.3125,-0.78125 0.59375,-1.0625 C 0.671875,-1.140625 0.875,-1.328125 0.953125,-1.40625 C 1.046875,-0.625 1.328125,0.125 2.0625,0.125 C 2.46875,0.125 2.8125,-0.109375 3.015625,-0.265625 C 3.15625,-0.359375 3.625,-0.75 3.625,-0.84375 C 3.625,-0.875 3.59375,-0.96875 3.515625,-0.96875 C 3.484375,-0.96875 3.46875,-0.953125 3.375,-0.875 C 2.734375,-0.25 2.375,-0.09375 2.078125,-0.09375 C 1.640625,-0.09375 1.46875,-0.625 1.46875,-1.390625 C 1.46875,-1.453125 1.5,-1.90625 1.53125,-1.96875 C 1.546875,-2 1.546875,-2.015625 1.75,-2.21875 C 2.546875,-3.015625 3.96875,-4.703125 3.96875,-6.25 C 3.96875,-6.421875 3.96875,-7.03125 3.375,-7.03125 C 2.546875,-7.03125 1.8125,-5.390625 1.71875,-5.15625 C 1.234375,-4.0625 0.921875,-2.90625 0.921875,-1.71875 L 0.15625,-0.984375 z M 1.578125,-2.375 C 1.59375,-2.5 2.03125,-4.703125 2.59375,-5.875 C 2.859375,-6.40625 3.078125,-6.8125 3.390625,-6.8125 C 3.734375,-6.8125 3.734375,-6.453125 3.734375,-6.296875 C 3.734375,-4.625 2.046875,-2.875 1.578125,-2.375 z"
               style="stroke:none" />
          </symbol>
          <symbol
             id="textext-dde60549-2"
             overflow="visible"
             style="overflow:visible">
            <path
               id="path53291"
               d=""
               style="stroke:none" />
          </symbol>
          <symbol
             id="textext-dde60549-3"
             overflow="visible"
             style="overflow:visible">
            <path
               id="path53294"
               d="M 2.46875,-5.21875 C 1.15625,-4.296875 0.796875,-2.8125 0.796875,-1.75 C 0.796875,-0.765625 1.09375,0.765625 2.46875,1.734375 C 2.53125,1.734375 2.609375,1.734375 2.609375,1.65625 C 2.609375,1.609375 2.59375,1.59375 2.546875,1.546875 C 1.609375,0.703125 1.28125,-0.46875 1.28125,-1.734375 C 1.28125,-3.625 2,-4.546875 2.5625,-5.0625 C 2.59375,-5.09375 2.609375,-5.109375 2.609375,-5.140625 C 2.609375,-5.21875 2.53125,-5.21875 2.46875,-5.21875 z"
               style="stroke:none" />
          </symbol>
          <symbol
             id="textext-dde60549-4"
             overflow="visible"
             style="overflow:visible">
            <path
               id="path53297"
               d="M 0.625,-5.21875 C 0.578125,-5.21875 0.5,-5.21875 0.5,-5.140625 C 0.5,-5.109375 0.515625,-5.09375 0.5625,-5.03125 C 1.15625,-4.484375 1.828125,-3.546875 1.828125,-1.75 C 1.828125,-0.296875 1.375,0.8125 0.625,1.484375 C 0.5,1.609375 0.5,1.609375 0.5,1.65625 C 0.5,1.6875 0.515625,1.734375 0.578125,1.734375 C 0.671875,1.734375 1.328125,1.28125 1.796875,0.40625 C 2.09375,-0.171875 2.296875,-0.921875 2.296875,-1.734375 C 2.296875,-2.71875 2,-4.25 0.625,-5.21875 z"
               style="stroke:none" />
          </symbol>
          <symbol
             id="textext-dde60549-5"
             overflow="visible"
             style="overflow:visible">
            <path
               id="path53300"
               d="M 3.59375,-2.21875 C 3.59375,-2.984375 3.5,-3.546875 3.1875,-4.03125 C 2.96875,-4.34375 2.53125,-4.625 1.984375,-4.625 C 0.359375,-4.625 0.359375,-2.71875 0.359375,-2.21875 C 0.359375,-1.71875 0.359375,0.140625 1.984375,0.140625 C 3.59375,0.140625 3.59375,-1.71875 3.59375,-2.21875 z M 1.984375,-0.0625 C 1.65625,-0.0625 1.234375,-0.25 1.09375,-0.8125 C 1,-1.21875 1,-1.796875 1,-2.3125 C 1,-2.828125 1,-3.359375 1.09375,-3.734375 C 1.25,-4.28125 1.6875,-4.4375 1.984375,-4.4375 C 2.359375,-4.4375 2.71875,-4.203125 2.84375,-3.796875 C 2.953125,-3.421875 2.96875,-2.921875 2.96875,-2.3125 C 2.96875,-1.796875 2.96875,-1.28125 2.875,-0.84375 C 2.734375,-0.203125 2.265625,-0.0625 1.984375,-0.0625 z"
               style="stroke:none" />
          </symbol>
          <symbol
             id="textext-dde60549-6"
             overflow="visible"
             style="overflow:visible">
            <path
               id="path53303"
               d=""
               style="stroke:none" />
          </symbol>
          <symbol
             id="textext-dde60549-7"
             overflow="visible"
             style="overflow:visible">
            <path
               id="path53306"
               d="M 1.640625,-1.40625 C 1.640625,-1.453125 1.8125,-2.078125 1.8125,-2.109375 C 1.828125,-2.171875 2.03125,-2.515625 2.265625,-2.6875 C 2.328125,-2.734375 2.515625,-2.875 2.828125,-2.875 C 2.890625,-2.875 3.0625,-2.875 3.203125,-2.78125 C 2.984375,-2.71875 2.90625,-2.515625 2.90625,-2.390625 C 2.90625,-2.25 3.015625,-2.140625 3.171875,-2.140625 C 3.34375,-2.140625 3.5625,-2.265625 3.5625,-2.5625 C 3.5625,-2.921875 3.1875,-3.078125 2.828125,-3.078125 C 2.46875,-3.078125 2.15625,-2.921875 1.84375,-2.578125 C 1.71875,-3 1.296875,-3.078125 1.125,-3.078125 C 0.875,-3.078125 0.703125,-2.90625 0.578125,-2.71875 C 0.421875,-2.453125 0.328125,-2.046875 0.328125,-2 C 0.328125,-1.921875 0.421875,-1.921875 0.453125,-1.921875 C 0.546875,-1.921875 0.546875,-1.9375 0.59375,-2.125 C 0.703125,-2.546875 0.84375,-2.875 1.109375,-2.875 C 1.296875,-2.875 1.34375,-2.71875 1.34375,-2.53125 C 1.34375,-2.40625 1.28125,-2.140625 1.21875,-1.953125 C 1.171875,-1.765625 1.109375,-1.484375 1.078125,-1.328125 L 0.84375,-0.4375 C 0.828125,-0.34375 0.78125,-0.171875 0.78125,-0.15625 C 0.78125,0 0.90625,0.0625 1.015625,0.0625 C 1.125,0.0625 1.265625,0 1.3125,-0.125 C 1.328125,-0.171875 1.40625,-0.484375 1.453125,-0.65625 L 1.640625,-1.40625 z"
               style="stroke:none" />
          </symbol>
        </g>
      </defs>
      <g
         id="textext-dde60549-8">
        <g
           id="g53309"
           style="fill:#000000;fill-opacity:1">
          <use
             id="use53311"
             y="135.20799"
             x="223.43201"
             xlink:href="#textext-dde60549-1"
             width="372.04724"
             height="141.73228" />
        </g>
        <g
           id="g53313"
           style="fill:#000000;fill-opacity:1">
          <use
             id="use53315"
             y="130.033"
             x="227.58299"
             xlink:href="#textext-dde60549-3"
             width="372.04724"
             height="141.73228" />
        </g>
        <g
           id="g53317"
           style="fill:#000000;fill-opacity:1">
          <use
             id="use53319"
             y="130.033"
             x="230.69701"
             xlink:href="#textext-dde60549-7"
             width="372.04724"
             height="141.73228" />
        </g>
        <g
           id="g53321"
           style="fill:#000000;fill-opacity:1">
          <use
             id="use53323"
             y="130.033"
             x="234.61"
             xlink:href="#textext-dde60549-4"
             width="372.04724"
             height="141.73228" />
        </g>
        <g
           id="g53325"
           style="fill:#000000;fill-opacity:1">
          <use
             id="use53327"
             y="137.864"
             x="227.58299"
             xlink:href="#textext-dde60549-5"
             width="372.04724"
             height="141.73228" />
        </g>
      </g>
    </g>
    <g
       transform="translate(-166.50411,-36.725516)"
       ns0:text="$\\ell^{(r)}_{2}$"
       ns0:preamble=""
       id="g53509">
      <defs
         id="defs53511">
        <g
           id="g53513">
          <symbol
             style="overflow:visible"
             overflow="visible"
             id="textext-c1103c47-0">
            <path
               style="stroke:none"
               d=""
               id="path53516" />
          </symbol>
          <symbol
             style="overflow:visible"
             overflow="visible"
             id="textext-c1103c47-1">
            <path
               style="stroke:none"
               d="M 0.15625,-0.984375 C 0.140625,-0.953125 0.109375,-0.921875 0.109375,-0.890625 C 0.109375,-0.84375 0.171875,-0.75 0.234375,-0.75 C 0.28125,-0.75 0.3125,-0.78125 0.59375,-1.0625 C 0.671875,-1.140625 0.875,-1.328125 0.953125,-1.40625 C 1.046875,-0.625 1.328125,0.125 2.0625,0.125 C 2.46875,0.125 2.8125,-0.109375 3.015625,-0.265625 C 3.15625,-0.359375 3.625,-0.75 3.625,-0.84375 C 3.625,-0.875 3.59375,-0.96875 3.515625,-0.96875 C 3.484375,-0.96875 3.46875,-0.953125 3.375,-0.875 C 2.734375,-0.25 2.375,-0.09375 2.078125,-0.09375 C 1.640625,-0.09375 1.46875,-0.625 1.46875,-1.390625 C 1.46875,-1.453125 1.5,-1.90625 1.53125,-1.96875 C 1.546875,-2 1.546875,-2.015625 1.75,-2.21875 C 2.546875,-3.015625 3.96875,-4.703125 3.96875,-6.25 C 3.96875,-6.421875 3.96875,-7.03125 3.375,-7.03125 C 2.546875,-7.03125 1.8125,-5.390625 1.71875,-5.15625 C 1.234375,-4.0625 0.921875,-2.90625 0.921875,-1.71875 L 0.15625,-0.984375 z M 1.578125,-2.375 C 1.59375,-2.5 2.03125,-4.703125 2.59375,-5.875 C 2.859375,-6.40625 3.078125,-6.8125 3.390625,-6.8125 C 3.734375,-6.8125 3.734375,-6.453125 3.734375,-6.296875 C 3.734375,-4.625 2.046875,-2.875 1.578125,-2.375 z"
               id="path53519" />
          </symbol>
          <symbol
             style="overflow:visible"
             overflow="visible"
             id="textext-c1103c47-2">
            <path
               style="stroke:none"
               d=""
               id="path53522" />
          </symbol>
          <symbol
             style="overflow:visible"
             overflow="visible"
             id="textext-c1103c47-3">
            <path
               style="stroke:none"
               d="M 2.46875,-5.21875 C 1.15625,-4.296875 0.796875,-2.8125 0.796875,-1.75 C 0.796875,-0.765625 1.09375,0.765625 2.46875,1.734375 C 2.53125,1.734375 2.609375,1.734375 2.609375,1.65625 C 2.609375,1.609375 2.59375,1.59375 2.546875,1.546875 C 1.609375,0.703125 1.28125,-0.46875 1.28125,-1.734375 C 1.28125,-3.625 2,-4.546875 2.5625,-5.0625 C 2.59375,-5.09375 2.609375,-5.109375 2.609375,-5.140625 C 2.609375,-5.21875 2.53125,-5.21875 2.46875,-5.21875 z"
               id="path53525" />
          </symbol>
          <symbol
             style="overflow:visible"
             overflow="visible"
             id="textext-c1103c47-4">
            <path
               style="stroke:none"
               d="M 0.625,-5.21875 C 0.578125,-5.21875 0.5,-5.21875 0.5,-5.140625 C 0.5,-5.109375 0.515625,-5.09375 0.5625,-5.03125 C 1.15625,-4.484375 1.828125,-3.546875 1.828125,-1.75 C 1.828125,-0.296875 1.375,0.8125 0.625,1.484375 C 0.5,1.609375 0.5,1.609375 0.5,1.65625 C 0.5,1.6875 0.515625,1.734375 0.578125,1.734375 C 0.671875,1.734375 1.328125,1.28125 1.796875,0.40625 C 2.09375,-0.171875 2.296875,-0.921875 2.296875,-1.734375 C 2.296875,-2.71875 2,-4.25 0.625,-5.21875 z"
               id="path53528" />
          </symbol>
          <symbol
             style="overflow:visible"
             overflow="visible"
             id="textext-c1103c47-5">
            <path
               style="stroke:none"
               d="M 3.515625,-1.265625 L 3.28125,-1.265625 C 3.265625,-1.109375 3.1875,-0.703125 3.09375,-0.640625 C 3.046875,-0.59375 2.515625,-0.59375 2.40625,-0.59375 L 1.125,-0.59375 C 1.859375,-1.234375 2.109375,-1.4375 2.515625,-1.765625 C 3.03125,-2.171875 3.515625,-2.609375 3.515625,-3.265625 C 3.515625,-4.109375 2.78125,-4.625 1.890625,-4.625 C 1.03125,-4.625 0.4375,-4.015625 0.4375,-3.375 C 0.4375,-3.03125 0.734375,-2.984375 0.8125,-2.984375 C 0.96875,-2.984375 1.171875,-3.109375 1.171875,-3.359375 C 1.171875,-3.484375 1.125,-3.734375 0.765625,-3.734375 C 0.984375,-4.21875 1.453125,-4.375 1.78125,-4.375 C 2.484375,-4.375 2.84375,-3.828125 2.84375,-3.265625 C 2.84375,-2.65625 2.40625,-2.1875 2.1875,-1.9375 L 0.515625,-0.265625 C 0.4375,-0.203125 0.4375,-0.1875 0.4375,0 L 3.3125,0 L 3.515625,-1.265625 z"
               id="path53531" />
          </symbol>
          <symbol
             style="overflow:visible"
             overflow="visible"
             id="textext-c1103c47-6">
            <path
               style="stroke:none"
               d=""
               id="path53534" />
          </symbol>
          <symbol
             style="overflow:visible"
             overflow="visible"
             id="textext-c1103c47-7">
            <path
               style="stroke:none"
               d="M 1.640625,-1.40625 C 1.640625,-1.453125 1.8125,-2.078125 1.8125,-2.109375 C 1.828125,-2.171875 2.03125,-2.515625 2.265625,-2.6875 C 2.328125,-2.734375 2.515625,-2.875 2.828125,-2.875 C 2.890625,-2.875 3.0625,-2.875 3.203125,-2.78125 C 2.984375,-2.71875 2.90625,-2.515625 2.90625,-2.390625 C 2.90625,-2.25 3.015625,-2.140625 3.171875,-2.140625 C 3.34375,-2.140625 3.5625,-2.265625 3.5625,-2.5625 C 3.5625,-2.921875 3.1875,-3.078125 2.828125,-3.078125 C 2.46875,-3.078125 2.15625,-2.921875 1.84375,-2.578125 C 1.71875,-3 1.296875,-3.078125 1.125,-3.078125 C 0.875,-3.078125 0.703125,-2.90625 0.578125,-2.71875 C 0.421875,-2.453125 0.328125,-2.046875 0.328125,-2 C 0.328125,-1.921875 0.421875,-1.921875 0.453125,-1.921875 C 0.546875,-1.921875 0.546875,-1.9375 0.59375,-2.125 C 0.703125,-2.546875 0.84375,-2.875 1.109375,-2.875 C 1.296875,-2.875 1.34375,-2.71875 1.34375,-2.53125 C 1.34375,-2.40625 1.28125,-2.140625 1.21875,-1.953125 C 1.171875,-1.765625 1.109375,-1.484375 1.078125,-1.328125 L 0.84375,-0.4375 C 0.828125,-0.34375 0.78125,-0.171875 0.78125,-0.15625 C 0.78125,0 0.90625,0.0625 1.015625,0.0625 C 1.125,0.0625 1.265625,0 1.3125,-0.125 C 1.328125,-0.171875 1.40625,-0.484375 1.453125,-0.65625 L 1.640625,-1.40625 z"
               id="path53537" />
          </symbol>
        </g>
      </defs>
      <g
         id="textext-c1103c47-8">
        <g
           style="fill:#000000;fill-opacity:1"
           id="g53540">
          <use
             height="141.73228"
             width="372.04724"
             xlink:href="#textext-c1103c47-1"
             x="223.43201"
             y="135.20799"
             id="use53542" />
        </g>
        <g
           style="fill:#000000;fill-opacity:1"
           id="g53544">
          <use
             height="141.73228"
             width="372.04724"
             xlink:href="#textext-c1103c47-3"
             x="227.58299"
             y="130.033"
             id="use53546" />
        </g>
        <g
           style="fill:#000000;fill-opacity:1"
           id="g53548">
          <use
             height="141.73228"
             width="372.04724"
             xlink:href="#textext-c1103c47-7"
             x="230.69701"
             y="130.033"
             id="use53550" />
        </g>
        <g
           style="fill:#000000;fill-opacity:1"
           id="g53552">
          <use
             height="141.73228"
             width="372.04724"
             xlink:href="#textext-c1103c47-4"
             x="234.61"
             y="130.033"
             id="use53554" />
        </g>
        <g
           style="fill:#000000;fill-opacity:1"
           id="g53556">
          <use
             height="141.73228"
             width="372.04724"
             xlink:href="#textext-c1103c47-5"
             x="227.58299"
             y="137.864"
             id="use53558" />
        </g>
      </g>
    </g>
    <path
       transform="matrix(0.9319897,0,0,0.9319897,2.9917564,4.4707984)"
       d="M 134.21185,67.737167 A 2,2 0 1 1 130.21185,67.737167 A 2,2 0 1 1 134.21185,67.737167 z"
       sodipodi:ry="2"
       sodipodi:rx="2"
       sodipodi:cy="67.737167"
       sodipodi:cx="132.21185"
       style="fill:#000000;stroke:none"
       id="path53679"
       sodipodi:type="arc" />
    <path
       sodipodi:type="arc"
       id="path53681"
       style="fill:#000000;stroke:none"
       sodipodi:cx="132.21185"
       sodipodi:cy="67.737167"
       sodipodi:rx="2"
       sodipodi:ry="2"
       d="M 134.21185,67.737167 A 2,2 0 1 1 130.21185,67.737167 A 2,2 0 1 1 134.21185,67.737167 z"
       transform="matrix(0.9319897,0,0,0.9319897,8.991756,4.4707984)" />
    <path
       transform="matrix(0.9319897,0,0,0.9319897,14.991756,4.4707984)"
       d="M 134.21185,67.737167 A 2,2 0 1 1 130.21185,67.737167 A 2,2 0 1 1 134.21185,67.737167 z"
       sodipodi:ry="2"
       sodipodi:rx="2"
       sodipodi:cy="67.737167"
       sodipodi:cx="132.21185"
       style="fill:#000000;stroke:none"
       id="path53683"
       sodipodi:type="arc" />
    <path
       sodipodi:type="arc"
       id="path53685"
       style="fill:#000000;stroke:none"
       sodipodi:cx="132.21185"
       sodipodi:cy="67.737167"
       sodipodi:rx="2"
       sodipodi:ry="2"
       d="M 134.21185,67.737167 A 2,2 0 1 1 130.21185,67.737167 A 2,2 0 1 1 134.21185,67.737167 z"
       transform="matrix(0.9319897,0,0,0.9319897,20.991756,4.4707984)" />
    <path
       transform="matrix(0.9319897,0,0,0.9319897,26.991756,4.4707984)"
       d="M 134.21185,67.737167 A 2,2 0 1 1 130.21185,67.737167 A 2,2 0 1 1 134.21185,67.737167 z"
       sodipodi:ry="2"
       sodipodi:rx="2"
       sodipodi:cy="67.737167"
       sodipodi:cx="132.21185"
       style="fill:#000000;stroke:none"
       id="path53687"
       sodipodi:type="arc" />
    <path
       sodipodi:type="arc"
       id="path53689"
       style="fill:#000000;stroke:none"
       sodipodi:cx="132.21185"
       sodipodi:cy="67.737167"
       sodipodi:rx="2"
       sodipodi:ry="2"
       d="M 134.21185,67.737167 A 2,2 0 1 1 130.21185,67.737167 A 2,2 0 1 1 134.21185,67.737167 z"
       transform="matrix(0.9319897,0,0,0.9319897,32.991756,4.4707984)" />
    <path
       transform="matrix(0.9319897,0,0,0.9319897,38.991756,4.4707984)"
       d="M 134.21185,67.737167 A 2,2 0 1 1 130.21185,67.737167 A 2,2 0 1 1 134.21185,67.737167 z"
       sodipodi:ry="2"
       sodipodi:rx="2"
       sodipodi:cy="67.737167"
       sodipodi:cx="132.21185"
       style="fill:#000000;stroke:none"
       id="path53691"
       sodipodi:type="arc" />
    <path
       sodipodi:type="arc"
       id="path53693"
       style="fill:#000000;stroke:none"
       sodipodi:cx="132.21185"
       sodipodi:cy="67.737167"
       sodipodi:rx="2"
       sodipodi:ry="2"
       d="M 134.21185,67.737167 A 2,2 0 1 1 130.21185,67.737167 A 2,2 0 1 1 134.21185,67.737167 z"
       transform="matrix(0.9319897,0,0,0.9319897,44.991756,4.4707984)" />
    <path
       transform="matrix(0.9319897,0,0,0.9319897,50.991756,4.4707984)"
       d="M 134.21185,67.737167 A 2,2 0 1 1 130.21185,67.737167 A 2,2 0 1 1 134.21185,67.737167 z"
       sodipodi:ry="2"
       sodipodi:rx="2"
       sodipodi:cy="67.737167"
       sodipodi:cx="132.21185"
       style="fill:#000000;stroke:none"
       id="path53695"
       sodipodi:type="arc" />
    <g
       ns0:text="$-2$"
       ns0:preamble=""
       transform="translate(-27.88452,-85.692871)"
       id="g53697">
      <defs
         id="defs53699">
        <g
           id="g53701">
          <symbol
             overflow="visible"
             id="symbol53703"
             style="overflow:visible">
            <path
               style="stroke:none"
               d=""
               id="path53705" />
          </symbol>
          <symbol
             overflow="visible"
             id="symbol53707"
             style="overflow:visible">
            <path
               style="stroke:none"
               d="M 6.59375,-2.296875 C 6.734375,-2.296875 6.921875,-2.296875 6.921875,-2.5 C 6.921875,-2.6875 6.734375,-2.6875 6.59375,-2.6875 L 1.15625,-2.6875 C 1.015625,-2.6875 0.828125,-2.6875 0.828125,-2.5 C 0.828125,-2.296875 1.015625,-2.296875 1.15625,-2.296875 L 6.59375,-2.296875 z"
               id="path53709" />
          </symbol>
          <symbol
             overflow="visible"
             id="symbol53711"
             style="overflow:visible">
            <path
               style="stroke:none"
               d=""
               id="path53713" />
          </symbol>
          <symbol
             overflow="visible"
             id="symbol53715"
             style="overflow:visible">
            <path
               style="stroke:none"
               d="M 4.46875,-1.734375 L 4.234375,-1.734375 C 4.171875,-1.4375 4.109375,-1 4,-0.84375 C 3.9375,-0.765625 3.28125,-0.765625 3.0625,-0.765625 L 1.265625,-0.765625 L 2.328125,-1.796875 C 3.875,-3.171875 4.46875,-3.703125 4.46875,-4.703125 C 4.46875,-5.84375 3.578125,-6.640625 2.359375,-6.640625 C 1.234375,-6.640625 0.5,-5.71875 0.5,-4.828125 C 0.5,-4.28125 1,-4.28125 1.03125,-4.28125 C 1.203125,-4.28125 1.546875,-4.390625 1.546875,-4.8125 C 1.546875,-5.0625 1.359375,-5.328125 1.015625,-5.328125 C 0.9375,-5.328125 0.921875,-5.328125 0.890625,-5.3125 C 1.109375,-5.96875 1.65625,-6.328125 2.234375,-6.328125 C 3.140625,-6.328125 3.5625,-5.515625 3.5625,-4.703125 C 3.5625,-3.90625 3.078125,-3.125 2.515625,-2.5 L 0.609375,-0.375 C 0.5,-0.265625 0.5,-0.234375 0.5,0 L 4.203125,0 L 4.46875,-1.734375 z"
               id="path53717" />
          </symbol>
        </g>
      </defs>
      <g
         id="g53719">
        <g
           style="fill:#000000;fill-opacity:1"
           id="g53721">
          <use
             xlink:href="#textext-e3869bf4-1"
             x="223.43201"
             y="134.765"
             id="use53723"
             width="372.04724"
             height="141.73228" />
        </g>
        <g
           style="fill:#000000;fill-opacity:1"
           id="g53725">
          <use
             xlink:href="#textext-e3869bf4-3"
             x="231.181"
             y="134.765"
             id="use53727"
             width="372.04724"
             height="141.73228" />
        </g>
      </g>
    </g>
    <g
       id="g53875"
       ns0:preamble=""
       ns0:text="$Q$"
       transform="translate(23.924495,-84.876748)">
      <defs
         id="defs53877">
        <g
           id="g53879">
          <symbol
             id="textext-9f198138-0"
             overflow="visible"
             style="overflow:visible">
            <path
               id="path53882"
               d=""
               style="stroke:none" />
          </symbol>
          <symbol
             id="textext-9f198138-1"
             overflow="visible"
             style="overflow:visible">
            <path
               id="path53885"
               d="M 4.359375,-0.0625 C 5.90625,-0.640625 7.375,-2.421875 7.375,-4.34375 C 7.375,-5.953125 6.3125,-7.03125 4.828125,-7.03125 C 2.6875,-7.03125 0.484375,-4.765625 0.484375,-2.4375 C 0.484375,-0.78125 1.609375,0.21875 3.046875,0.21875 C 3.296875,0.21875 3.625,0.171875 4.015625,0.0625 C 3.984375,0.6875 3.984375,0.703125 3.984375,0.84375 C 3.984375,1.15625 3.984375,1.9375 4.8125,1.9375 C 5.984375,1.9375 6.46875,0.109375 6.46875,0 C 6.46875,-0.0625 6.40625,-0.09375 6.359375,-0.09375 C 6.28125,-0.09375 6.265625,-0.046875 6.234375,0.015625 C 6,0.71875 5.421875,0.96875 5.078125,0.96875 C 4.609375,0.96875 4.46875,0.703125 4.359375,-0.0625 z M 2.484375,-0.140625 C 1.703125,-0.453125 1.359375,-1.21875 1.359375,-2.125 C 1.359375,-2.8125 1.625,-4.234375 2.375,-5.296875 C 3.109375,-6.3125 4.046875,-6.78125 4.78125,-6.78125 C 5.765625,-6.78125 6.5,-6 6.5,-4.671875 C 6.5,-3.671875 5.984375,-1.328125 4.3125,-0.40625 C 4.265625,-0.75 4.171875,-1.46875 3.4375,-1.46875 C 2.90625,-1.46875 2.421875,-0.984375 2.421875,-0.453125 C 2.421875,-0.265625 2.484375,-0.15625 2.484375,-0.140625 z M 3.09375,-0.03125 C 2.953125,-0.03125 2.640625,-0.03125 2.640625,-0.453125 C 2.640625,-0.859375 3.015625,-1.25 3.4375,-1.25 C 3.859375,-1.25 4.046875,-1.015625 4.046875,-0.40625 C 4.046875,-0.265625 4.03125,-0.25 3.9375,-0.203125 C 3.671875,-0.09375 3.375,-0.03125 3.09375,-0.03125 z"
               style="stroke:none" />
          </symbol>
        </g>
      </defs>
      <g
         id="textext-9f198138-2">
        <g
           id="g53888"
           style="fill:#000000;fill-opacity:1">
          <use
             id="use53890"
             y="134.765"
             x="223.43201"
             xlink:href="#textext-9f198138-1"
             width="372.04724"
             height="141.73228" />
        </g>
      </g>
    </g>
    <g
       transform="translate(-32.660004,-41.35021)"
       ns0:text="$\\ell^{(r)}_{r-1}$"
       ns0:preamble=""
       id="g54202">
      <defs
         id="defs54204">
        <g
           id="g54206">
          <symbol
             style="overflow:visible"
             overflow="visible"
             id="textext-fe772629-0">
            <path
               style="stroke:none"
               d=""
               id="path54209" />
          </symbol>
          <symbol
             style="overflow:visible"
             overflow="visible"
             id="textext-fe772629-1">
            <path
               style="stroke:none"
               d="M 0.15625,-0.984375 C 0.140625,-0.953125 0.109375,-0.921875 0.109375,-0.890625 C 0.109375,-0.84375 0.171875,-0.75 0.234375,-0.75 C 0.28125,-0.75 0.3125,-0.78125 0.59375,-1.0625 C 0.671875,-1.140625 0.875,-1.328125 0.953125,-1.40625 C 1.046875,-0.625 1.328125,0.125 2.0625,0.125 C 2.46875,0.125 2.8125,-0.109375 3.015625,-0.265625 C 3.15625,-0.359375 3.625,-0.75 3.625,-0.84375 C 3.625,-0.875 3.59375,-0.96875 3.515625,-0.96875 C 3.484375,-0.96875 3.46875,-0.953125 3.375,-0.875 C 2.734375,-0.25 2.375,-0.09375 2.078125,-0.09375 C 1.640625,-0.09375 1.46875,-0.625 1.46875,-1.390625 C 1.46875,-1.453125 1.5,-1.90625 1.53125,-1.96875 C 1.546875,-2 1.546875,-2.015625 1.75,-2.21875 C 2.546875,-3.015625 3.96875,-4.703125 3.96875,-6.25 C 3.96875,-6.421875 3.96875,-7.03125 3.375,-7.03125 C 2.546875,-7.03125 1.8125,-5.390625 1.71875,-5.15625 C 1.234375,-4.0625 0.921875,-2.90625 0.921875,-1.71875 L 0.15625,-0.984375 z M 1.578125,-2.375 C 1.59375,-2.5 2.03125,-4.703125 2.59375,-5.875 C 2.859375,-6.40625 3.078125,-6.8125 3.390625,-6.8125 C 3.734375,-6.8125 3.734375,-6.453125 3.734375,-6.296875 C 3.734375,-4.625 2.046875,-2.875 1.578125,-2.375 z"
               id="path54212" />
          </symbol>
          <symbol
             style="overflow:visible"
             overflow="visible"
             id="textext-fe772629-2">
            <path
               style="stroke:none"
               d=""
               id="path54215" />
          </symbol>
          <symbol
             style="overflow:visible"
             overflow="visible"
             id="textext-fe772629-3">
            <path
               style="stroke:none"
               d="M 2.46875,-5.21875 C 1.15625,-4.296875 0.796875,-2.8125 0.796875,-1.75 C 0.796875,-0.765625 1.09375,0.765625 2.46875,1.734375 C 2.53125,1.734375 2.609375,1.734375 2.609375,1.65625 C 2.609375,1.609375 2.59375,1.59375 2.546875,1.546875 C 1.609375,0.703125 1.28125,-0.46875 1.28125,-1.734375 C 1.28125,-3.625 2,-4.546875 2.5625,-5.0625 C 2.59375,-5.09375 2.609375,-5.109375 2.609375,-5.140625 C 2.609375,-5.21875 2.53125,-5.21875 2.46875,-5.21875 z"
               id="path54218" />
          </symbol>
          <symbol
             style="overflow:visible"
             overflow="visible"
             id="textext-fe772629-4">
            <path
               style="stroke:none"
               d="M 0.625,-5.21875 C 0.578125,-5.21875 0.5,-5.21875 0.5,-5.140625 C 0.5,-5.109375 0.515625,-5.09375 0.5625,-5.03125 C 1.15625,-4.484375 1.828125,-3.546875 1.828125,-1.75 C 1.828125,-0.296875 1.375,0.8125 0.625,1.484375 C 0.5,1.609375 0.5,1.609375 0.5,1.65625 C 0.5,1.6875 0.515625,1.734375 0.578125,1.734375 C 0.671875,1.734375 1.328125,1.28125 1.796875,0.40625 C 2.09375,-0.171875 2.296875,-0.921875 2.296875,-1.734375 C 2.296875,-2.71875 2,-4.25 0.625,-5.21875 z"
               id="path54221" />
          </symbol>
          <symbol
             style="overflow:visible"
             overflow="visible"
             id="textext-fe772629-5">
            <path
               style="stroke:none"
               d="M 2.328125,-4.4375 C 2.328125,-4.625 2.328125,-4.625 2.125,-4.625 C 1.671875,-4.1875 1.046875,-4.1875 0.765625,-4.1875 L 0.765625,-3.9375 C 0.921875,-3.9375 1.390625,-3.9375 1.765625,-4.125 L 1.765625,-0.578125 C 1.765625,-0.34375 1.765625,-0.25 1.078125,-0.25 L 0.8125,-0.25 L 0.8125,0 C 0.9375,0 1.796875,-0.03125 2.046875,-0.03125 C 2.265625,-0.03125 3.140625,0 3.296875,0 L 3.296875,-0.25 L 3.03125,-0.25 C 2.328125,-0.25 2.328125,-0.34375 2.328125,-0.578125 L 2.328125,-4.4375 z"
               id="path54224" />
          </symbol>
          <symbol
             style="overflow:visible"
             overflow="visible"
             id="textext-fe772629-6">
            <path
               style="stroke:none"
               d=""
               id="path54227" />
          </symbol>
          <symbol
             style="overflow:visible"
             overflow="visible"
             id="textext-fe772629-7">
            <path
               style="stroke:none"
               d="M 1.640625,-1.40625 C 1.640625,-1.453125 1.8125,-2.078125 1.8125,-2.109375 C 1.828125,-2.171875 2.03125,-2.515625 2.265625,-2.6875 C 2.328125,-2.734375 2.515625,-2.875 2.828125,-2.875 C 2.890625,-2.875 3.0625,-2.875 3.203125,-2.78125 C 2.984375,-2.71875 2.90625,-2.515625 2.90625,-2.390625 C 2.90625,-2.25 3.015625,-2.140625 3.171875,-2.140625 C 3.34375,-2.140625 3.5625,-2.265625 3.5625,-2.5625 C 3.5625,-2.921875 3.1875,-3.078125 2.828125,-3.078125 C 2.46875,-3.078125 2.15625,-2.921875 1.84375,-2.578125 C 1.71875,-3 1.296875,-3.078125 1.125,-3.078125 C 0.875,-3.078125 0.703125,-2.90625 0.578125,-2.71875 C 0.421875,-2.453125 0.328125,-2.046875 0.328125,-2 C 0.328125,-1.921875 0.421875,-1.921875 0.453125,-1.921875 C 0.546875,-1.921875 0.546875,-1.9375 0.59375,-2.125 C 0.703125,-2.546875 0.84375,-2.875 1.109375,-2.875 C 1.296875,-2.875 1.34375,-2.71875 1.34375,-2.53125 C 1.34375,-2.40625 1.28125,-2.140625 1.21875,-1.953125 C 1.171875,-1.765625 1.109375,-1.484375 1.078125,-1.328125 L 0.84375,-0.4375 C 0.828125,-0.34375 0.78125,-0.171875 0.78125,-0.15625 C 0.78125,0 0.90625,0.0625 1.015625,0.0625 C 1.125,0.0625 1.265625,0 1.3125,-0.125 C 1.328125,-0.171875 1.40625,-0.484375 1.453125,-0.65625 L 1.640625,-1.40625 z"
               id="path54230" />
          </symbol>
          <symbol
             style="overflow:visible"
             overflow="visible"
             id="textext-fe772629-8">
            <path
               style="stroke:none"
               d=""
               id="path54233" />
          </symbol>
          <symbol
             style="overflow:visible"
             overflow="visible"
             id="textext-fe772629-9">
            <path
               style="stroke:none"
               d="M 5.203125,-1.578125 C 5.296875,-1.578125 5.46875,-1.578125 5.46875,-1.734375 C 5.46875,-1.921875 5.296875,-1.921875 5.203125,-1.921875 L 1.015625,-1.921875 C 0.90625,-1.921875 0.75,-1.921875 0.75,-1.734375 C 0.75,-1.578125 0.921875,-1.578125 1.015625,-1.578125 L 5.203125,-1.578125 z"
               id="path54236" />
          </symbol>
        </g>
      </defs>
      <g
         id="textext-fe772629-10">
        <g
           style="fill:#000000;fill-opacity:1"
           id="g54239">
          <use
             height="141.73228"
             width="372.04724"
             xlink:href="#textext-fe772629-1"
             x="223.43201"
             y="135.20799"
             id="use54241" />
        </g>
        <g
           style="fill:#000000;fill-opacity:1"
           id="g54243">
          <use
             height="141.73228"
             width="372.04724"
             xlink:href="#textext-fe772629-3"
             x="227.58299"
             y="130.033"
             id="use54245" />
        </g>
        <g
           style="fill:#000000;fill-opacity:1"
           id="g54247">
          <use
             height="141.73228"
             width="372.04724"
             xlink:href="#textext-fe772629-7"
             x="230.69701"
             y="130.033"
             id="use54249" />
        </g>
        <g
           style="fill:#000000;fill-opacity:1"
           id="g54251">
          <use
             height="141.73228"
             width="372.04724"
             xlink:href="#textext-fe772629-4"
             x="234.61"
             y="130.033"
             id="use54253" />
        </g>
        <g
           style="fill:#000000;fill-opacity:1"
           id="g54255">
          <use
             height="141.73228"
             width="372.04724"
             xlink:href="#textext-fe772629-7"
             x="227.58299"
             y="137.864"
             id="use54257" />
        </g>
        <g
           style="fill:#000000;fill-opacity:1"
           id="g54259">
          <use
             height="141.73228"
             width="372.04724"
             xlink:href="#textext-fe772629-9"
             x="231.49699"
             y="137.864"
             id="use54261" />
        </g>
        <g
           style="fill:#000000;fill-opacity:1"
           id="g54263">
          <use
             height="141.73228"
             width="372.04724"
             xlink:href="#textext-fe772629-5"
             x="237.72301"
             y="137.864"
             id="use54265" />
        </g>
      </g>
    </g>
    <g
       id="g54729"
       transform="translate(26.619587,-56.725516)"
       ns0:preamble=""
       ns0:text="$\\ell^{(r)}_{r}$">
      <defs
         id="defs54731">
        <g
           id="g54733">
          <symbol
             id="textext-3bd445f9-0"
             overflow="visible"
             style="overflow:visible">
            <path
               id="path54736"
               d=""
               style="stroke:none" />
          </symbol>
          <symbol
             id="textext-3bd445f9-1"
             overflow="visible"
             style="overflow:visible">
            <path
               id="path54739"
               d="M 0.15625,-0.984375 C 0.140625,-0.953125 0.109375,-0.921875 0.109375,-0.890625 C 0.109375,-0.84375 0.171875,-0.75 0.234375,-0.75 C 0.28125,-0.75 0.3125,-0.78125 0.59375,-1.0625 C 0.671875,-1.140625 0.875,-1.328125 0.953125,-1.40625 C 1.046875,-0.625 1.328125,0.125 2.0625,0.125 C 2.46875,0.125 2.8125,-0.109375 3.015625,-0.265625 C 3.15625,-0.359375 3.625,-0.75 3.625,-0.84375 C 3.625,-0.875 3.59375,-0.96875 3.515625,-0.96875 C 3.484375,-0.96875 3.46875,-0.953125 3.375,-0.875 C 2.734375,-0.25 2.375,-0.09375 2.078125,-0.09375 C 1.640625,-0.09375 1.46875,-0.625 1.46875,-1.390625 C 1.46875,-1.453125 1.5,-1.90625 1.53125,-1.96875 C 1.546875,-2 1.546875,-2.015625 1.75,-2.21875 C 2.546875,-3.015625 3.96875,-4.703125 3.96875,-6.25 C 3.96875,-6.421875 3.96875,-7.03125 3.375,-7.03125 C 2.546875,-7.03125 1.8125,-5.390625 1.71875,-5.15625 C 1.234375,-4.0625 0.921875,-2.90625 0.921875,-1.71875 L 0.15625,-0.984375 z M 1.578125,-2.375 C 1.59375,-2.5 2.03125,-4.703125 2.59375,-5.875 C 2.859375,-6.40625 3.078125,-6.8125 3.390625,-6.8125 C 3.734375,-6.8125 3.734375,-6.453125 3.734375,-6.296875 C 3.734375,-4.625 2.046875,-2.875 1.578125,-2.375 z"
               style="stroke:none" />
          </symbol>
          <symbol
             id="textext-3bd445f9-2"
             overflow="visible"
             style="overflow:visible">
            <path
               id="path54742"
               d=""
               style="stroke:none" />
          </symbol>
          <symbol
             id="textext-3bd445f9-3"
             overflow="visible"
             style="overflow:visible">
            <path
               id="path54745"
               d="M 2.46875,-5.21875 C 1.15625,-4.296875 0.796875,-2.8125 0.796875,-1.75 C 0.796875,-0.765625 1.09375,0.765625 2.46875,1.734375 C 2.53125,1.734375 2.609375,1.734375 2.609375,1.65625 C 2.609375,1.609375 2.59375,1.59375 2.546875,1.546875 C 1.609375,0.703125 1.28125,-0.46875 1.28125,-1.734375 C 1.28125,-3.625 2,-4.546875 2.5625,-5.0625 C 2.59375,-5.09375 2.609375,-5.109375 2.609375,-5.140625 C 2.609375,-5.21875 2.53125,-5.21875 2.46875,-5.21875 z"
               style="stroke:none" />
          </symbol>
          <symbol
             id="textext-3bd445f9-4"
             overflow="visible"
             style="overflow:visible">
            <path
               id="path54748"
               d="M 0.625,-5.21875 C 0.578125,-5.21875 0.5,-5.21875 0.5,-5.140625 C 0.5,-5.109375 0.515625,-5.09375 0.5625,-5.03125 C 1.15625,-4.484375 1.828125,-3.546875 1.828125,-1.75 C 1.828125,-0.296875 1.375,0.8125 0.625,1.484375 C 0.5,1.609375 0.5,1.609375 0.5,1.65625 C 0.5,1.6875 0.515625,1.734375 0.578125,1.734375 C 0.671875,1.734375 1.328125,1.28125 1.796875,0.40625 C 2.09375,-0.171875 2.296875,-0.921875 2.296875,-1.734375 C 2.296875,-2.71875 2,-4.25 0.625,-5.21875 z"
               style="stroke:none" />
          </symbol>
          <symbol
             id="textext-3bd445f9-5"
             overflow="visible"
             style="overflow:visible">
            <path
               id="path54751"
               d=""
               style="stroke:none" />
          </symbol>
          <symbol
             id="textext-3bd445f9-6"
             overflow="visible"
             style="overflow:visible">
            <path
               id="path54754"
               d="M 1.640625,-1.40625 C 1.640625,-1.453125 1.8125,-2.078125 1.8125,-2.109375 C 1.828125,-2.171875 2.03125,-2.515625 2.265625,-2.6875 C 2.328125,-2.734375 2.515625,-2.875 2.828125,-2.875 C 2.890625,-2.875 3.0625,-2.875 3.203125,-2.78125 C 2.984375,-2.71875 2.90625,-2.515625 2.90625,-2.390625 C 2.90625,-2.25 3.015625,-2.140625 3.171875,-2.140625 C 3.34375,-2.140625 3.5625,-2.265625 3.5625,-2.5625 C 3.5625,-2.921875 3.1875,-3.078125 2.828125,-3.078125 C 2.46875,-3.078125 2.15625,-2.921875 1.84375,-2.578125 C 1.71875,-3 1.296875,-3.078125 1.125,-3.078125 C 0.875,-3.078125 0.703125,-2.90625 0.578125,-2.71875 C 0.421875,-2.453125 0.328125,-2.046875 0.328125,-2 C 0.328125,-1.921875 0.421875,-1.921875 0.453125,-1.921875 C 0.546875,-1.921875 0.546875,-1.9375 0.59375,-2.125 C 0.703125,-2.546875 0.84375,-2.875 1.109375,-2.875 C 1.296875,-2.875 1.34375,-2.71875 1.34375,-2.53125 C 1.34375,-2.40625 1.28125,-2.140625 1.21875,-1.953125 C 1.171875,-1.765625 1.109375,-1.484375 1.078125,-1.328125 L 0.84375,-0.4375 C 0.828125,-0.34375 0.78125,-0.171875 0.78125,-0.15625 C 0.78125,0 0.90625,0.0625 1.015625,0.0625 C 1.125,0.0625 1.265625,0 1.3125,-0.125 C 1.328125,-0.171875 1.40625,-0.484375 1.453125,-0.65625 L 1.640625,-1.40625 z"
               style="stroke:none" />
          </symbol>
        </g>
      </defs>
      <g
         id="textext-3bd445f9-7">
        <g
           id="g54757"
           style="fill:#000000;fill-opacity:1">
          <use
             id="use54759"
             y="135.20799"
             x="223.43201"
             xlink:href="#textext-3bd445f9-1"
             width="372.04724"
             height="141.73228" />
        </g>
        <g
           id="g54761"
           style="fill:#000000;fill-opacity:1">
          <use
             id="use54763"
             y="130.033"
             x="227.58299"
             xlink:href="#textext-3bd445f9-3"
             width="372.04724"
             height="141.73228" />
        </g>
        <g
           id="g54765"
           style="fill:#000000;fill-opacity:1">
          <use
             id="use54767"
             y="130.033"
             x="230.69701"
             xlink:href="#textext-3bd445f9-6"
             width="372.04724"
             height="141.73228" />
        </g>
        <g
           id="g54769"
           style="fill:#000000;fill-opacity:1">
          <use
             id="use54771"
             y="130.033"
             x="234.61"
             xlink:href="#textext-3bd445f9-4"
             width="372.04724"
             height="141.73228" />
        </g>
        <g
           id="g54773"
           style="fill:#000000;fill-opacity:1">
          <use
             id="use54775"
             y="136.373"
             x="227.58299"
             xlink:href="#textext-3bd445f9-6"
             width="372.04724"
             height="141.73228" />
        </g>
      </g>
    </g>
    <g
       transform="translate(103.08838,-75.355318)"
       ns0:text="$\\ell^{(r)}_{1}$"
       ns0:preamble=""
       id="g55219">
      <defs
         id="defs55221">
        <g
           id="g55223">
          <symbol
             style="overflow:visible"
             overflow="visible"
             id="textext-65d18047-0">
            <path
               style="stroke:none"
               d=""
               id="path55226" />
          </symbol>
          <symbol
             style="overflow:visible"
             overflow="visible"
             id="textext-65d18047-1">
            <path
               style="stroke:none"
               d="M 0.15625,-0.984375 C 0.140625,-0.953125 0.109375,-0.921875 0.109375,-0.890625 C 0.109375,-0.84375 0.171875,-0.75 0.234375,-0.75 C 0.28125,-0.75 0.3125,-0.78125 0.59375,-1.0625 C 0.671875,-1.140625 0.875,-1.328125 0.953125,-1.40625 C 1.046875,-0.625 1.328125,0.125 2.0625,0.125 C 2.46875,0.125 2.8125,-0.109375 3.015625,-0.265625 C 3.15625,-0.359375 3.625,-0.75 3.625,-0.84375 C 3.625,-0.875 3.59375,-0.96875 3.515625,-0.96875 C 3.484375,-0.96875 3.46875,-0.953125 3.375,-0.875 C 2.734375,-0.25 2.375,-0.09375 2.078125,-0.09375 C 1.640625,-0.09375 1.46875,-0.625 1.46875,-1.390625 C 1.46875,-1.453125 1.5,-1.90625 1.53125,-1.96875 C 1.546875,-2 1.546875,-2.015625 1.75,-2.21875 C 2.546875,-3.015625 3.96875,-4.703125 3.96875,-6.25 C 3.96875,-6.421875 3.96875,-7.03125 3.375,-7.03125 C 2.546875,-7.03125 1.8125,-5.390625 1.71875,-5.15625 C 1.234375,-4.0625 0.921875,-2.90625 0.921875,-1.71875 L 0.15625,-0.984375 z M 1.578125,-2.375 C 1.59375,-2.5 2.03125,-4.703125 2.59375,-5.875 C 2.859375,-6.40625 3.078125,-6.8125 3.390625,-6.8125 C 3.734375,-6.8125 3.734375,-6.453125 3.734375,-6.296875 C 3.734375,-4.625 2.046875,-2.875 1.578125,-2.375 z"
               id="path55229" />
          </symbol>
          <symbol
             style="overflow:visible"
             overflow="visible"
             id="textext-65d18047-2">
            <path
               style="stroke:none"
               d=""
               id="path55232" />
          </symbol>
          <symbol
             style="overflow:visible"
             overflow="visible"
             id="textext-65d18047-3">
            <path
               style="stroke:none"
               d="M 2.46875,-5.21875 C 1.15625,-4.296875 0.796875,-2.8125 0.796875,-1.75 C 0.796875,-0.765625 1.09375,0.765625 2.46875,1.734375 C 2.53125,1.734375 2.609375,1.734375 2.609375,1.65625 C 2.609375,1.609375 2.59375,1.59375 2.546875,1.546875 C 1.609375,0.703125 1.28125,-0.46875 1.28125,-1.734375 C 1.28125,-3.625 2,-4.546875 2.5625,-5.0625 C 2.59375,-5.09375 2.609375,-5.109375 2.609375,-5.140625 C 2.609375,-5.21875 2.53125,-5.21875 2.46875,-5.21875 z"
               id="path55235" />
          </symbol>
          <symbol
             style="overflow:visible"
             overflow="visible"
             id="textext-65d18047-4">
            <path
               style="stroke:none"
               d="M 0.625,-5.21875 C 0.578125,-5.21875 0.5,-5.21875 0.5,-5.140625 C 0.5,-5.109375 0.515625,-5.09375 0.5625,-5.03125 C 1.15625,-4.484375 1.828125,-3.546875 1.828125,-1.75 C 1.828125,-0.296875 1.375,0.8125 0.625,1.484375 C 0.5,1.609375 0.5,1.609375 0.5,1.65625 C 0.5,1.6875 0.515625,1.734375 0.578125,1.734375 C 0.671875,1.734375 1.328125,1.28125 1.796875,0.40625 C 2.09375,-0.171875 2.296875,-0.921875 2.296875,-1.734375 C 2.296875,-2.71875 2,-4.25 0.625,-5.21875 z"
               id="path55238" />
          </symbol>
          <symbol
             style="overflow:visible"
             overflow="visible"
             id="textext-65d18047-5">
            <path
               style="stroke:none"
               d="M 2.328125,-4.4375 C 2.328125,-4.625 2.328125,-4.625 2.125,-4.625 C 1.671875,-4.1875 1.046875,-4.1875 0.765625,-4.1875 L 0.765625,-3.9375 C 0.921875,-3.9375 1.390625,-3.9375 1.765625,-4.125 L 1.765625,-0.578125 C 1.765625,-0.34375 1.765625,-0.25 1.078125,-0.25 L 0.8125,-0.25 L 0.8125,0 C 0.9375,0 1.796875,-0.03125 2.046875,-0.03125 C 2.265625,-0.03125 3.140625,0 3.296875,0 L 3.296875,-0.25 L 3.03125,-0.25 C 2.328125,-0.25 2.328125,-0.34375 2.328125,-0.578125 L 2.328125,-4.4375 z"
               id="path55241" />
          </symbol>
          <symbol
             style="overflow:visible"
             overflow="visible"
             id="textext-65d18047-6">
            <path
               style="stroke:none"
               d=""
               id="path55244" />
          </symbol>
          <symbol
             style="overflow:visible"
             overflow="visible"
             id="textext-65d18047-7">
            <path
               style="stroke:none"
               d="M 1.640625,-1.40625 C 1.640625,-1.453125 1.8125,-2.078125 1.8125,-2.109375 C 1.828125,-2.171875 2.03125,-2.515625 2.265625,-2.6875 C 2.328125,-2.734375 2.515625,-2.875 2.828125,-2.875 C 2.890625,-2.875 3.0625,-2.875 3.203125,-2.78125 C 2.984375,-2.71875 2.90625,-2.515625 2.90625,-2.390625 C 2.90625,-2.25 3.015625,-2.140625 3.171875,-2.140625 C 3.34375,-2.140625 3.5625,-2.265625 3.5625,-2.5625 C 3.5625,-2.921875 3.1875,-3.078125 2.828125,-3.078125 C 2.46875,-3.078125 2.15625,-2.921875 1.84375,-2.578125 C 1.71875,-3 1.296875,-3.078125 1.125,-3.078125 C 0.875,-3.078125 0.703125,-2.90625 0.578125,-2.71875 C 0.421875,-2.453125 0.328125,-2.046875 0.328125,-2 C 0.328125,-1.921875 0.421875,-1.921875 0.453125,-1.921875 C 0.546875,-1.921875 0.546875,-1.9375 0.59375,-2.125 C 0.703125,-2.546875 0.84375,-2.875 1.109375,-2.875 C 1.296875,-2.875 1.34375,-2.71875 1.34375,-2.53125 C 1.34375,-2.40625 1.28125,-2.140625 1.21875,-1.953125 C 1.171875,-1.765625 1.109375,-1.484375 1.078125,-1.328125 L 0.84375,-0.4375 C 0.828125,-0.34375 0.78125,-0.171875 0.78125,-0.15625 C 0.78125,0 0.90625,0.0625 1.015625,0.0625 C 1.125,0.0625 1.265625,0 1.3125,-0.125 C 1.328125,-0.171875 1.40625,-0.484375 1.453125,-0.65625 L 1.640625,-1.40625 z"
               id="path55247" />
          </symbol>
        </g>
      </defs>
      <g
         id="textext-65d18047-8">
        <g
           style="fill:#000000;fill-opacity:1"
           id="g55250">
          <use
             height="141.73228"
             width="372.04724"
             xlink:href="#textext-65d18047-1"
             x="223.43201"
             y="135.20799"
             id="use55252" />
        </g>
        <g
           style="fill:#000000;fill-opacity:1"
           id="g55254">
          <use
             height="141.73228"
             width="372.04724"
             xlink:href="#textext-65d18047-3"
             x="227.58299"
             y="130.033"
             id="use55256" />
        </g>
        <g
           style="fill:#000000;fill-opacity:1"
           id="g55258">
          <use
             height="141.73228"
             width="372.04724"
             xlink:href="#textext-65d18047-7"
             x="230.69701"
             y="130.033"
             id="use55260" />
        </g>
        <g
           style="fill:#000000;fill-opacity:1"
           id="g55262">
          <use
             height="141.73228"
             width="372.04724"
             xlink:href="#textext-65d18047-4"
             x="234.61"
             y="130.033"
             id="use55264" />
        </g>
        <g
           style="fill:#000000;fill-opacity:1"
           id="g55266">
          <use
             height="141.73228"
             width="372.04724"
             xlink:href="#textext-65d18047-5"
             x="227.58299"
             y="137.864"
             id="use55268" />
        </g>
      </g>
    </g>
    <g
       id="g55772"
       ns0:preamble=""
       ns0:text="$p\'_{1}$"
       transform="translate(85.133688,-71.546746)">
      <defs
         id="defs55774">
        <g
           id="g55776">
          <symbol
             id="textext-c9d06590-0"
             overflow="visible"
             style="overflow:visible">
            <path
               id="path55779"
               d=""
               style="stroke:none" />
          </symbol>
          <symbol
             id="textext-c9d06590-1"
             overflow="visible"
             style="overflow:visible">
            <path
               id="path55782"
               d="M 0.453125,1.21875 C 0.375,1.5625 0.34375,1.625 -0.09375,1.625 C -0.203125,1.625 -0.3125,1.625 -0.3125,1.8125 C -0.3125,1.890625 -0.265625,1.9375 -0.1875,1.9375 C 0.078125,1.9375 0.375,1.90625 0.640625,1.90625 C 0.984375,1.90625 1.3125,1.9375 1.640625,1.9375 C 1.6875,1.9375 1.8125,1.9375 1.8125,1.734375 C 1.8125,1.625 1.71875,1.625 1.578125,1.625 C 1.078125,1.625 1.078125,1.5625 1.078125,1.46875 C 1.078125,1.34375 1.5,-0.28125 1.5625,-0.53125 C 1.6875,-0.234375 1.96875,0.109375 2.484375,0.109375 C 3.640625,0.109375 4.890625,-1.34375 4.890625,-2.8125 C 4.890625,-3.75 4.3125,-4.40625 3.5625,-4.40625 C 3.0625,-4.40625 2.578125,-4.046875 2.25,-3.65625 C 2.15625,-4.203125 1.71875,-4.40625 1.359375,-4.40625 C 0.890625,-4.40625 0.703125,-4.015625 0.625,-3.84375 C 0.4375,-3.5 0.3125,-2.90625 0.3125,-2.875 C 0.3125,-2.765625 0.40625,-2.765625 0.421875,-2.765625 C 0.53125,-2.765625 0.53125,-2.78125 0.59375,-3 C 0.765625,-3.703125 0.96875,-4.1875 1.328125,-4.1875 C 1.5,-4.1875 1.640625,-4.109375 1.640625,-3.734375 C 1.640625,-3.5 1.609375,-3.390625 1.5625,-3.21875 L 0.453125,1.21875 z M 2.203125,-3.109375 C 2.265625,-3.375 2.546875,-3.65625 2.71875,-3.8125 C 3.078125,-4.109375 3.359375,-4.1875 3.53125,-4.1875 C 3.921875,-4.1875 4.171875,-3.84375 4.171875,-3.25 C 4.171875,-2.65625 3.84375,-1.515625 3.65625,-1.140625 C 3.3125,-0.4375 2.84375,-0.109375 2.46875,-0.109375 C 1.8125,-0.109375 1.6875,-0.9375 1.6875,-1 C 1.6875,-1.015625 1.6875,-1.03125 1.71875,-1.15625 L 2.203125,-3.109375 z"
               style="stroke:none" />
          </symbol>
          <symbol
             id="textext-c9d06590-2"
             overflow="visible"
             style="overflow:visible">
            <path
               id="path55785"
               d=""
               style="stroke:none" />
          </symbol>
          <symbol
             id="textext-c9d06590-3"
             overflow="visible"
             style="overflow:visible">
            <path
               id="path55788"
               d="M 2.03125,-3.296875 C 2.0625,-3.359375 2.078125,-3.421875 2.078125,-3.515625 C 2.078125,-3.734375 1.890625,-3.890625 1.671875,-3.890625 C 1.390625,-3.890625 1.328125,-3.671875 1.296875,-3.578125 L 0.375,-0.5625 C 0.359375,-0.53125 0.328125,-0.453125 0.328125,-0.4375 C 0.328125,-0.359375 0.546875,-0.28125 0.609375,-0.28125 C 0.65625,-0.28125 0.6875,-0.328125 0.703125,-0.390625 L 2.03125,-3.296875 z"
               style="stroke:none" />
          </symbol>
          <symbol
             id="textext-c9d06590-4"
             overflow="visible"
             style="overflow:visible">
            <path
               id="path55791"
               d=""
               style="stroke:none" />
          </symbol>
          <symbol
             id="textext-c9d06590-5"
             overflow="visible"
             style="overflow:visible">
            <path
               id="path55794"
               d="M 2.328125,-4.4375 C 2.328125,-4.625 2.328125,-4.625 2.125,-4.625 C 1.671875,-4.1875 1.046875,-4.1875 0.765625,-4.1875 L 0.765625,-3.9375 C 0.921875,-3.9375 1.390625,-3.9375 1.765625,-4.125 L 1.765625,-0.578125 C 1.765625,-0.34375 1.765625,-0.25 1.078125,-0.25 L 0.8125,-0.25 L 0.8125,0 C 0.9375,0 1.796875,-0.03125 2.046875,-0.03125 C 2.265625,-0.03125 3.140625,0 3.296875,0 L 3.296875,-0.25 L 3.03125,-0.25 C 2.328125,-0.25 2.328125,-0.34375 2.328125,-0.578125 L 2.328125,-4.4375 z"
               style="stroke:none" />
          </symbol>
        </g>
      </defs>
      <g
         id="textext-c9d06590-6">
        <g
           id="g55797"
           style="fill:#000000;fill-opacity:1">
          <use
             id="use55799"
             y="134.765"
             x="223.43201"
             xlink:href="#textext-c9d06590-1"
             width="372.04724"
             height="141.73228" />
        </g>
        <g
           id="g55801"
           style="fill:#000000;fill-opacity:1">
          <use
             id="use55803"
             y="131.14999"
             x="228.44501"
             xlink:href="#textext-c9d06590-3"
             width="372.04724"
             height="141.73228" />
        </g>
        <g
           id="g55805"
           style="fill:#000000;fill-opacity:1">
          <use
             id="use55807"
             y="137.23801"
             x="228.44501"
             xlink:href="#textext-c9d06590-5"
             width="372.04724"
             height="141.73228" />
        </g>
      </g>
    </g>
    <g
       transform="translate(88.670219,-87.869198)"
       ns0:text="$-r$"
       ns0:preamble=""
       id="g56355">
      <defs
         id="defs56357">
        <g
           id="g56359">
          <symbol
             style="overflow:visible"
             overflow="visible"
             id="textext-fd40ccc4-0">
            <path
               style="stroke:none"
               d=""
               id="path56362" />
          </symbol>
          <symbol
             style="overflow:visible"
             overflow="visible"
             id="textext-fd40ccc4-1">
            <path
               style="stroke:none"
               d="M 6.59375,-2.296875 C 6.734375,-2.296875 6.921875,-2.296875 6.921875,-2.5 C 6.921875,-2.6875 6.734375,-2.6875 6.59375,-2.6875 L 1.15625,-2.6875 C 1.015625,-2.6875 0.828125,-2.6875 0.828125,-2.5 C 0.828125,-2.296875 1.015625,-2.296875 1.15625,-2.296875 L 6.59375,-2.296875 z"
               id="path56365" />
          </symbol>
          <symbol
             style="overflow:visible"
             overflow="visible"
             id="textext-fd40ccc4-2">
            <path
               style="stroke:none"
               d=""
               id="path56368" />
          </symbol>
          <symbol
             style="overflow:visible"
             overflow="visible"
             id="textext-fd40ccc4-3">
            <path
               style="stroke:none"
               d="M 0.875,-0.59375 C 0.84375,-0.4375 0.78125,-0.203125 0.78125,-0.15625 C 0.78125,0.015625 0.921875,0.109375 1.078125,0.109375 C 1.203125,0.109375 1.375,0.03125 1.453125,-0.171875 C 1.46875,-0.203125 1.796875,-1.5625 1.84375,-1.75 C 1.921875,-2.078125 2.109375,-2.765625 2.15625,-3.046875 C 2.203125,-3.171875 2.484375,-3.640625 2.71875,-3.859375 C 2.796875,-3.921875 3.09375,-4.1875 3.515625,-4.1875 C 3.78125,-4.1875 3.921875,-4.0625 3.9375,-4.0625 C 3.640625,-4.015625 3.421875,-3.78125 3.421875,-3.515625 C 3.421875,-3.359375 3.53125,-3.171875 3.796875,-3.171875 C 4.0625,-3.171875 4.34375,-3.40625 4.34375,-3.765625 C 4.34375,-4.109375 4.03125,-4.40625 3.515625,-4.40625 C 2.875,-4.40625 2.4375,-3.921875 2.25,-3.640625 C 2.15625,-4.09375 1.796875,-4.40625 1.328125,-4.40625 C 0.875,-4.40625 0.6875,-4.015625 0.59375,-3.84375 C 0.421875,-3.5 0.296875,-2.90625 0.296875,-2.875 C 0.296875,-2.765625 0.390625,-2.765625 0.40625,-2.765625 C 0.515625,-2.765625 0.515625,-2.78125 0.578125,-3 C 0.75,-3.703125 0.953125,-4.1875 1.3125,-4.1875 C 1.46875,-4.1875 1.609375,-4.109375 1.609375,-3.734375 C 1.609375,-3.515625 1.578125,-3.40625 1.453125,-2.890625 L 0.875,-0.59375 z"
               id="path56371" />
          </symbol>
        </g>
      </defs>
      <g
         id="textext-fd40ccc4-4">
        <g
           style="fill:#000000;fill-opacity:1"
           id="g56374">
          <use
             height="141.73228"
             width="372.04724"
             xlink:href="#textext-fd40ccc4-1"
             x="223.43201"
             y="134.765"
             id="use56376" />
        </g>
        <g
           style="fill:#000000;fill-opacity:1"
           id="g56378">
          <use
             height="141.73228"
             width="372.04724"
             xlink:href="#textext-fd40ccc4-3"
             x="231.181"
             y="134.765"
             id="use56380" />
        </g>
      </g>
    </g>
    <g
       id="g56960"
       ns0:preamble=""
       ns0:text="$-1$"
       transform="translate(57.929602,-64.201642)">
      <defs
         id="defs56962">
        <g
           id="g56964">
          <symbol
             id="symbol56966"
             overflow="visible"
             style="overflow:visible">
            <path
               id="path56968"
               d=""
               style="stroke:none" />
          </symbol>
          <symbol
             id="symbol56970"
             overflow="visible"
             style="overflow:visible">
            <path
               id="path56972"
               d="M 6.59375,-2.296875 C 6.734375,-2.296875 6.921875,-2.296875 6.921875,-2.5 C 6.921875,-2.6875 6.734375,-2.6875 6.59375,-2.6875 L 1.15625,-2.6875 C 1.015625,-2.6875 0.828125,-2.6875 0.828125,-2.5 C 0.828125,-2.296875 1.015625,-2.296875 1.15625,-2.296875 L 6.59375,-2.296875 z"
               style="stroke:none" />
          </symbol>
          <symbol
             id="symbol56974"
             overflow="visible"
             style="overflow:visible">
            <path
               id="path56976"
               d=""
               style="stroke:none" />
          </symbol>
          <symbol
             id="symbol56978"
             overflow="visible"
             style="overflow:visible">
            <path
               id="path56980"
               d="M 2.9375,-6.375 C 2.9375,-6.625 2.9375,-6.640625 2.703125,-6.640625 C 2.078125,-6 1.203125,-6 0.890625,-6 L 0.890625,-5.6875 C 1.09375,-5.6875 1.671875,-5.6875 2.1875,-5.953125 L 2.1875,-0.78125 C 2.1875,-0.421875 2.15625,-0.3125 1.265625,-0.3125 L 0.953125,-0.3125 L 0.953125,0 C 1.296875,-0.03125 2.15625,-0.03125 2.5625,-0.03125 C 2.953125,-0.03125 3.828125,-0.03125 4.171875,0 L 4.171875,-0.3125 L 3.859375,-0.3125 C 2.953125,-0.3125 2.9375,-0.421875 2.9375,-0.78125 L 2.9375,-6.375 z"
               style="stroke:none" />
          </symbol>
        </g>
      </defs>
      <g
         id="g56982">
        <g
           id="g56984"
           style="fill:#000000;fill-opacity:1">
          <use
             id="use56986"
             y="134.765"
             x="223.43201"
             xlink:href="#textext-108f8aa9-1"
             width="372.04724"
             height="141.73228" />
        </g>
        <g
           id="g56988"
           style="fill:#000000;fill-opacity:1">
          <use
             id="use56990"
             y="134.765"
             x="231.181"
             xlink:href="#textext-108f8aa9-3"
             width="372.04724"
             height="141.73228" />
        </g>
      </g>
    </g>
    <g
       id="g58282"
       transform="translate(124.85165,-53.592049)"
       ns0:preamble=""
       ns0:text="$C^{(r)},$">
      <defs
         id="defs58284">
        <g
           id="g58286">
          <symbol
             id="textext-5e0a3c51-0"
             overflow="visible"
             style="overflow:visible">
            <path
               id="path58289"
               d=""
               style="stroke:none" />
          </symbol>
          <symbol
             id="textext-5e0a3c51-1"
             overflow="visible"
             style="overflow:visible">
            <path
               id="path58292"
               d="M 7.578125,-6.921875 C 7.578125,-6.953125 7.5625,-7.03125 7.46875,-7.03125 C 7.4375,-7.03125 7.421875,-7.015625 7.3125,-6.90625 L 6.625,-6.140625 C 6.53125,-6.28125 6.078125,-7.03125 4.96875,-7.03125 C 2.734375,-7.03125 0.5,-4.828125 0.5,-2.515625 C 0.5,-0.875 1.671875,0.21875 3.203125,0.21875 C 4.0625,0.21875 4.828125,-0.171875 5.359375,-0.640625 C 6.28125,-1.453125 6.453125,-2.359375 6.453125,-2.390625 C 6.453125,-2.5 6.34375,-2.5 6.328125,-2.5 C 6.265625,-2.5 6.21875,-2.46875 6.203125,-2.390625 C 6.109375,-2.109375 5.875,-1.390625 5.1875,-0.8125 C 4.5,-0.265625 3.875,-0.09375 3.359375,-0.09375 C 2.46875,-0.09375 1.40625,-0.609375 1.40625,-2.15625 C 1.40625,-2.734375 1.609375,-4.34375 2.609375,-5.515625 C 3.21875,-6.21875 4.15625,-6.71875 5.046875,-6.71875 C 6.0625,-6.71875 6.65625,-5.953125 6.65625,-4.796875 C 6.65625,-4.390625 6.625,-4.390625 6.625,-4.28125 C 6.625,-4.1875 6.734375,-4.1875 6.765625,-4.1875 C 6.890625,-4.1875 6.890625,-4.203125 6.953125,-4.390625 L 7.578125,-6.921875 z"
               style="stroke:none" />
          </symbol>
          <symbol
             id="textext-5e0a3c51-2"
             overflow="visible"
             style="overflow:visible">
            <path
               id="path58295"
               d="M 2.03125,-0.015625 C 2.03125,-0.671875 1.78125,-1.0625 1.390625,-1.0625 C 1.0625,-1.0625 0.859375,-0.8125 0.859375,-0.53125 C 0.859375,-0.265625 1.0625,0 1.390625,0 C 1.5,0 1.640625,-0.046875 1.734375,-0.125 C 1.765625,-0.15625 1.78125,-0.15625 1.78125,-0.15625 C 1.796875,-0.15625 1.796875,-0.15625 1.796875,-0.015625 C 1.796875,0.734375 1.453125,1.328125 1.125,1.65625 C 1.015625,1.765625 1.015625,1.78125 1.015625,1.8125 C 1.015625,1.890625 1.0625,1.921875 1.109375,1.921875 C 1.21875,1.921875 2.03125,1.15625 2.03125,-0.015625 z"
               style="stroke:none" />
          </symbol>
          <symbol
             id="textext-5e0a3c51-3"
             overflow="visible"
             style="overflow:visible">
            <path
               id="path58298"
               d=""
               style="stroke:none" />
          </symbol>
          <symbol
             id="textext-5e0a3c51-4"
             overflow="visible"
             style="overflow:visible">
            <path
               id="path58301"
               d="M 2.46875,-5.21875 C 1.15625,-4.296875 0.796875,-2.8125 0.796875,-1.75 C 0.796875,-0.765625 1.09375,0.765625 2.46875,1.734375 C 2.53125,1.734375 2.609375,1.734375 2.609375,1.65625 C 2.609375,1.609375 2.59375,1.59375 2.546875,1.546875 C 1.609375,0.703125 1.28125,-0.46875 1.28125,-1.734375 C 1.28125,-3.625 2,-4.546875 2.5625,-5.0625 C 2.59375,-5.09375 2.609375,-5.109375 2.609375,-5.140625 C 2.609375,-5.21875 2.53125,-5.21875 2.46875,-5.21875 z"
               style="stroke:none" />
          </symbol>
          <symbol
             id="textext-5e0a3c51-5"
             overflow="visible"
             style="overflow:visible">
            <path
               id="path58304"
               d="M 0.625,-5.21875 C 0.578125,-5.21875 0.5,-5.21875 0.5,-5.140625 C 0.5,-5.109375 0.515625,-5.09375 0.5625,-5.03125 C 1.15625,-4.484375 1.828125,-3.546875 1.828125,-1.75 C 1.828125,-0.296875 1.375,0.8125 0.625,1.484375 C 0.5,1.609375 0.5,1.609375 0.5,1.65625 C 0.5,1.6875 0.515625,1.734375 0.578125,1.734375 C 0.671875,1.734375 1.328125,1.28125 1.796875,0.40625 C 2.09375,-0.171875 2.296875,-0.921875 2.296875,-1.734375 C 2.296875,-2.71875 2,-4.25 0.625,-5.21875 z"
               style="stroke:none" />
          </symbol>
          <symbol
             id="textext-5e0a3c51-6"
             overflow="visible"
             style="overflow:visible">
            <path
               id="path58307"
               d=""
               style="stroke:none" />
          </symbol>
          <symbol
             id="textext-5e0a3c51-7"
             overflow="visible"
             style="overflow:visible">
            <path
               id="path58310"
               d="M 1.640625,-1.40625 C 1.640625,-1.453125 1.8125,-2.078125 1.8125,-2.109375 C 1.828125,-2.171875 2.03125,-2.515625 2.265625,-2.6875 C 2.328125,-2.734375 2.515625,-2.875 2.828125,-2.875 C 2.890625,-2.875 3.0625,-2.875 3.203125,-2.78125 C 2.984375,-2.71875 2.90625,-2.515625 2.90625,-2.390625 C 2.90625,-2.25 3.015625,-2.140625 3.171875,-2.140625 C 3.34375,-2.140625 3.5625,-2.265625 3.5625,-2.5625 C 3.5625,-2.921875 3.1875,-3.078125 2.828125,-3.078125 C 2.46875,-3.078125 2.15625,-2.921875 1.84375,-2.578125 C 1.71875,-3 1.296875,-3.078125 1.125,-3.078125 C 0.875,-3.078125 0.703125,-2.90625 0.578125,-2.71875 C 0.421875,-2.453125 0.328125,-2.046875 0.328125,-2 C 0.328125,-1.921875 0.421875,-1.921875 0.453125,-1.921875 C 0.546875,-1.921875 0.546875,-1.9375 0.59375,-2.125 C 0.703125,-2.546875 0.84375,-2.875 1.109375,-2.875 C 1.296875,-2.875 1.34375,-2.71875 1.34375,-2.53125 C 1.34375,-2.40625 1.28125,-2.140625 1.21875,-1.953125 C 1.171875,-1.765625 1.109375,-1.484375 1.078125,-1.328125 L 0.84375,-0.4375 C 0.828125,-0.34375 0.78125,-0.171875 0.78125,-0.15625 C 0.78125,0 0.90625,0.0625 1.015625,0.0625 C 1.125,0.0625 1.265625,0 1.3125,-0.125 C 1.328125,-0.171875 1.40625,-0.484375 1.453125,-0.65625 L 1.640625,-1.40625 z"
               style="stroke:none" />
          </symbol>
        </g>
      </defs>
      <g
         id="textext-5e0a3c51-8">
        <g
           id="g58313"
           style="fill:#000000;fill-opacity:1">
          <use
             id="use58315"
             y="134.765"
             x="223.43201"
             xlink:href="#textext-5e0a3c51-1"
             width="372.04724"
             height="141.73228" />
        </g>
        <g
           id="g58317"
           style="fill:#000000;fill-opacity:1">
          <use
             id="use58319"
             y="131.14999"
             x="231.265"
             xlink:href="#textext-5e0a3c51-4"
             width="372.04724"
             height="141.73228" />
        </g>
        <g
           id="g58321"
           style="fill:#000000;fill-opacity:1">
          <use
             id="use58323"
             y="131.14999"
             x="234.379"
             xlink:href="#textext-5e0a3c51-7"
             width="372.04724"
             height="141.73228" />
        </g>
        <g
           id="g58325"
           style="fill:#000000;fill-opacity:1">
          <use
             id="use58327"
             y="131.14999"
             x="238.29201"
             xlink:href="#textext-5e0a3c51-5"
             width="372.04724"
             height="141.73228" />
        </g>
        <g
           id="g58329"
           style="fill:#000000;fill-opacity:1">
          <use
             id="use58331"
             y="134.765"
             x="241.90401"
             xlink:href="#textext-5e0a3c51-2"
             width="372.04724"
             height="141.73228" />
        </g>
      </g>
    </g>
  </g>
</svg>
