<?xml version="1.0" encoding="UTF-8" standalone="no"?>
<!-- Created with Inkscape (http://www.inkscape.org/) -->
<svg
   xmlns:ns0="http://www.iki.fi/pav/software/textext/"
   xmlns:dc="http://purl.org/dc/elements/1.1/"
   xmlns:cc="http://creativecommons.org/ns#"
   xmlns:rdf="http://www.w3.org/1999/02/22-rdf-syntax-ns#"
   xmlns:svg="http://www.w3.org/2000/svg"
   xmlns="http://www.w3.org/2000/svg"
   xmlns:xlink="http://www.w3.org/1999/xlink"
   xmlns:sodipodi="http://sodipodi.sourceforge.net/DTD/sodipodi-0.dtd"
   xmlns:inkscape="http://www.inkscape.org/namespaces/inkscape"
   width="354.33069"
   height="141.73228"
   id="svg2"
   sodipodi:version="0.32"
   inkscape:version="0.46"
   version="1.0"
   sodipodi:docname="chap2-fig12.svg"
   inkscape:output_extension="org.inkscape.output.svg.inkscape">
  <sodipodi:namedview
     id="base"
     pagecolor="#ffffff"
     bordercolor="#666666"
     borderopacity="1.0"
     gridtolerance="10000"
     guidetolerance="10"
     objecttolerance="10"
     inkscape:pageopacity="0.0"
     inkscape:pageshadow="2"
     inkscape:zoom="1.2996334"
     inkscape:cx="191.15296"
     inkscape:cy="88.36455"
     inkscape:document-units="px"
     inkscape:current-layer="layer1"
     showgrid="false"
     units="cm"
     inkscape:window-width="1009"
     inkscape:window-height="726"
     inkscape:window-x="5"
     inkscape:window-y="27" />
  <defs
     id="defs4">
    <inkscape:perspective
       sodipodi:type="inkscape:persp3d"
       inkscape:vp_x="0 : 526.18109 : 1"
       inkscape:vp_y="0 : 1000 : 0"
       inkscape:vp_z="744.09448 : 526.18109 : 1"
       inkscape:persp3d-origin="372.04724 : 350.78739 : 1"
       id="perspective10" />
  </defs>
  <metadata
     id="metadata7">
    <rdf:RDF>
      <cc:Work
         rdf:about="">
        <dc:format>image/svg+xml</dc:format>
        <dc:type
           rdf:resource="http://purl.org/dc/dcmitype/StillImage" />
      </cc:Work>
    </rdf:RDF>
  </metadata>
  <g
     inkscape:label="Layer 1"
     inkscape:groupmode="layer"
     id="layer1">
    <path
       style="fill:none;fill-rule:evenodd;stroke:#000000;stroke-width:1;stroke-linecap:butt;stroke-linejoin:miter;stroke-opacity:1;stroke-miterlimit:4;stroke-dasharray:none"
       d="M 24.02569,43.084817 L 65.122986,103.03334"
       id="path2383" />
    <path
       id="path2385"
       d="M 49.922135,103.03334 L 91.019435,43.084817"
       style="fill:none;fill-rule:evenodd;stroke:#000000;stroke-width:1;stroke-linecap:butt;stroke-linejoin:miter;stroke-opacity:1;stroke-miterlimit:4;stroke-dasharray:none" />
    <path
       style="fill:none;fill-rule:evenodd;stroke:#000000;stroke-width:1;stroke-linecap:butt;stroke-linejoin:miter;stroke-miterlimit:4;stroke-dasharray:none;stroke-opacity:1"
       d="M 70.200052,43.084817 L 111.29735,103.03334"
       id="path2387" />
    <path
       style="fill:none;fill-rule:evenodd;stroke:#000000;stroke-width:1;stroke-linecap:butt;stroke-linejoin:miter;stroke-opacity:1;stroke-miterlimit:4;stroke-dasharray:none"
       d="M 15.308083,101.6952 C 46.483241,94.24205 18.67866,59.818424 60.764182,45.493463"
       id="path2389"
       sodipodi:nodetypes="cs" />
    <path
       id="path2391"
       d="M 165.40436,43.084817 L 206.50166,103.03334"
       style="fill:none;fill-rule:evenodd;stroke:#000000;stroke-width:1;stroke-linecap:butt;stroke-linejoin:miter;stroke-miterlimit:4;stroke-dasharray:none;stroke-opacity:1" />
    <path
       style="fill:none;fill-rule:evenodd;stroke:#000000;stroke-width:1;stroke-linecap:butt;stroke-linejoin:miter;stroke-miterlimit:4;stroke-dasharray:none;stroke-opacity:1"
       d="M 147.50791,103.03334 L 188.60521,43.084817"
       id="path2393" />
    <path
       style="fill:none;fill-rule:evenodd;stroke:#000000;stroke-width:1;stroke-linecap:butt;stroke-linejoin:miter;stroke-miterlimit:4;stroke-dasharray:none;stroke-opacity:1"
       d="M 187.68227,103.03334 L 228.77958,43.084817"
       id="path2395" />
    <path
       style="fill:none;fill-rule:evenodd;stroke:#000000;stroke-width:1;stroke-linecap:butt;stroke-linejoin:miter;stroke-miterlimit:4;stroke-dasharray:none;stroke-opacity:1"
       d="M 283.40436,43.084817 L 324.50166,103.03334"
       id="path3189" />
    <path
       id="path3191"
       d="M 265.50791,103.03334 L 306.60521,43.084817"
       style="fill:none;fill-rule:evenodd;stroke:#000000;stroke-width:1;stroke-linecap:butt;stroke-linejoin:miter;stroke-miterlimit:4;stroke-dasharray:none;stroke-opacity:1" />
    <path
       style="fill:none;fill-rule:evenodd;stroke:#000000;stroke-width:1px;stroke-linecap:butt;stroke-linejoin:miter;stroke-opacity:1"
       d="M 173.47369,82.484807 C 176.02342,77.489987 181.51007,71.37889 185.40013,67.480577 C 186.88413,66.29149 188.66993,65.545394 190.40154,64.787509 C 194.41576,63.822353 199.24871,67.426 203.77069,69.885101 C 208.30078,72.348617 214.78707,70.618204 220.21764,70.173644 C 222.28219,69.793406 224.33187,69.740283 226.37322,69.211834 C 229.23642,68.463599 231.9146,67.67628 234.64478,66.518767 C 236.41597,65.497635 238.31215,64.865587 240.22328,64.018062 C 241.23192,63.765902 242.78417,63.122341 243.68579,62.671528 C 244.62694,62.200955 247.87012,61.384994 248.87956,61.132633 C 253.97312,60.419328 256.13767,62.607864 260.99837,64.595147 C 265.21085,66.503216 267.34101,67.160584 269.26993,71.135453 C 270.47177,73.612049 275.7702,74.250847 278.50331,74.982692 C 282.09461,75.083628 287.6078,75.239697 291.19919,75.175054 C 295.72846,75.093529 297.88599,72.218309 301.97146,70.750729 C 305.75535,69.391483 310.47145,68.19939 314.45528,69.836878 C 315.85256,70.411205 317.49715,72.345807 318.51459,73.347616"
       id="path3203"
       sodipodi:nodetypes="cccsccccsccscssss" />
    <g
       ns0:text="$\\sigma\'(G)$"
       ns0:preamble=""
       transform="matrix(0.9,0,0,0.9,-191.78881,-38.901843)"
       id="g120474">
      <defs
         id="defs120476">
        <g
           id="g120478">
          <symbol
             overflow="visible"
             id="symbol120480">
            <path
               style="stroke:none;"
               d=""
               id="path120482" />
          </symbol>
          <symbol
             overflow="visible"
             id="symbol120484">
            <path
               style="stroke:none;"
               d="M 5.15625 -3.71875 C 5.296875 -3.71875 5.65625 -3.71875 5.65625 -4.0625 C 5.65625 -4.296875 5.4375 -4.296875 5.265625 -4.296875 L 2.984375 -4.296875 C 1.484375 -4.296875 0.375 -2.65625 0.375 -1.46875 C 0.375 -0.59375 0.96875 0.109375 1.875 0.109375 C 3.046875 0.109375 4.375 -1.09375 4.375 -2.625 C 4.375 -2.796875 4.375 -3.28125 4.0625 -3.71875 L 5.15625 -3.71875 Z M 1.890625 -0.109375 C 1.390625 -0.109375 1 -0.46875 1 -1.1875 C 1 -1.484375 1.109375 -2.296875 1.46875 -2.890625 C 1.890625 -3.578125 2.484375 -3.71875 2.828125 -3.71875 C 3.65625 -3.71875 3.734375 -3.0625 3.734375 -2.75 C 3.734375 -2.28125 3.53125 -1.46875 3.203125 -0.953125 C 2.8125 -0.375 2.265625 -0.109375 1.890625 -0.109375 Z M 1.890625 -0.109375 "
               id="path120486" />
          </symbol>
          <symbol
             overflow="visible"
             id="symbol120488">
            <path
               style="stroke:none;"
               d="M 7.578125 -6.921875 C 7.578125 -6.953125 7.5625 -7.03125 7.46875 -7.03125 C 7.4375 -7.03125 7.421875 -7.015625 7.3125 -6.90625 L 6.625 -6.140625 C 6.53125 -6.28125 6.078125 -7.03125 4.96875 -7.03125 C 2.734375 -7.03125 0.5 -4.828125 0.5 -2.515625 C 0.5 -0.921875 1.609375 0.21875 3.21875 0.21875 C 3.65625 0.21875 4.109375 0.125 4.46875 -0.015625 C 4.96875 -0.21875 5.15625 -0.421875 5.328125 -0.625 C 5.421875 -0.375 5.6875 -0.015625 5.78125 -0.015625 C 5.828125 -0.015625 5.859375 -0.046875 5.859375 -0.046875 C 5.875 -0.0625 5.96875 -0.453125 6.015625 -0.65625 L 6.203125 -1.421875 C 6.25 -1.59375 6.296875 -1.765625 6.34375 -1.9375 C 6.453125 -2.375 6.453125 -2.40625 7.03125 -2.40625 C 7.078125 -2.40625 7.1875 -2.421875 7.1875 -2.609375 C 7.1875 -2.6875 7.140625 -2.71875 7.0625 -2.71875 C 6.828125 -2.71875 6.234375 -2.6875 6.015625 -2.6875 C 5.703125 -2.6875 4.921875 -2.71875 4.609375 -2.71875 C 4.53125 -2.71875 4.40625 -2.71875 4.40625 -2.515625 C 4.40625 -2.40625 4.484375 -2.40625 4.703125 -2.40625 C 4.71875 -2.40625 5 -2.40625 5.234375 -2.390625 C 5.5 -2.359375 5.546875 -2.328125 5.546875 -2.203125 C 5.546875 -2.109375 5.4375 -1.671875 5.328125 -1.296875 C 5.046875 -0.203125 3.765625 -0.09375 3.40625 -0.09375 C 2.453125 -0.09375 1.40625 -0.65625 1.40625 -2.1875 C 1.40625 -2.5 1.5 -4.140625 2.546875 -5.4375 C 3.09375 -6.109375 4.0625 -6.71875 5.046875 -6.71875 C 6.0625 -6.71875 6.65625 -5.953125 6.65625 -4.796875 C 6.65625 -4.390625 6.625 -4.390625 6.625 -4.28125 C 6.625 -4.1875 6.734375 -4.1875 6.765625 -4.1875 C 6.890625 -4.1875 6.890625 -4.203125 6.953125 -4.390625 L 7.578125 -6.921875 Z M 7.578125 -6.921875 "
               id="path120490" />
          </symbol>
          <symbol
             overflow="visible"
             id="symbol120492">
            <path
               style="stroke:none;"
               d=""
               id="path120494" />
          </symbol>
          <symbol
             overflow="visible"
             id="symbol120496">
            <path
               style="stroke:none;"
               d="M 2.03125 -3.296875 C 2.0625 -3.359375 2.078125 -3.421875 2.078125 -3.515625 C 2.078125 -3.734375 1.890625 -3.890625 1.671875 -3.890625 C 1.390625 -3.890625 1.328125 -3.671875 1.296875 -3.578125 L 0.375 -0.5625 C 0.359375 -0.53125 0.328125 -0.453125 0.328125 -0.4375 C 0.328125 -0.359375 0.546875 -0.28125 0.609375 -0.28125 C 0.65625 -0.28125 0.6875 -0.328125 0.703125 -0.390625 L 2.03125 -3.296875 Z M 2.03125 -3.296875 "
               id="path120498" />
          </symbol>
          <symbol
             overflow="visible"
             id="symbol120500">
            <path
               style="stroke:none;"
               d=""
               id="path120502" />
          </symbol>
          <symbol
             overflow="visible"
             id="symbol120504">
            <path
               style="stroke:none;"
               d="M 3.296875 2.390625 C 3.296875 2.359375 3.296875 2.34375 3.125 2.171875 C 1.890625 0.921875 1.5625 -0.96875 1.5625 -2.5 C 1.5625 -4.234375 1.9375 -5.96875 3.171875 -7.203125 C 3.296875 -7.328125 3.296875 -7.34375 3.296875 -7.375 C 3.296875 -7.453125 3.265625 -7.484375 3.203125 -7.484375 C 3.09375 -7.484375 2.203125 -6.796875 1.609375 -5.53125 C 1.109375 -4.4375 0.984375 -3.328125 0.984375 -2.5 C 0.984375 -1.71875 1.09375 -0.515625 1.640625 0.625 C 2.25 1.84375 3.09375 2.5 3.203125 2.5 C 3.265625 2.5 3.296875 2.46875 3.296875 2.390625 Z M 3.296875 2.390625 "
               id="path120506" />
          </symbol>
          <symbol
             overflow="visible"
             id="symbol120508">
            <path
               style="stroke:none;"
               d="M 2.875 -2.5 C 2.875 -3.265625 2.765625 -4.46875 2.21875 -5.609375 C 1.625 -6.828125 0.765625 -7.484375 0.671875 -7.484375 C 0.609375 -7.484375 0.5625 -7.4375 0.5625 -7.375 C 0.5625 -7.34375 0.5625 -7.328125 0.75 -7.140625 C 1.734375 -6.15625 2.296875 -4.578125 2.296875 -2.5 C 2.296875 -0.78125 1.9375 0.96875 0.703125 2.21875 C 0.5625 2.34375 0.5625 2.359375 0.5625 2.390625 C 0.5625 2.453125 0.609375 2.5 0.671875 2.5 C 0.765625 2.5 1.671875 1.8125 2.25 0.546875 C 2.765625 -0.546875 2.875 -1.65625 2.875 -2.5 Z M 2.875 -2.5 "
               id="path120510" />
          </symbol>
        </g>
      </defs>
      <g
         id="g120512">
        <g
           style="fill:rgb(0%,0%,0%);fill-opacity:1;"
           id="g120514">
          <use
             xlink:href="#textext-be663806-1"
             x="223.432"
             y="134.765"
             id="use120516" />
        </g>
        <g
           style="fill:rgb(0%,0%,0%);fill-opacity:1;"
           id="g120518">
          <use
             xlink:href="#textext-be663806-4"
             x="229.482"
             y="131.15"
             id="use120520" />
        </g>
        <g
           style="fill:rgb(0%,0%,0%);fill-opacity:1;"
           id="g120522">
          <use
             xlink:href="#textext-be663806-6"
             x="232.277"
             y="134.765"
             id="use120524" />
        </g>
        <g
           style="fill:rgb(0%,0%,0%);fill-opacity:1;"
           id="g120526">
          <use
             xlink:href="#textext-be663806-2"
             x="236.152"
             y="134.765"
             id="use120528" />
        </g>
        <g
           style="fill:rgb(0%,0%,0%);fill-opacity:1;"
           id="g120530">
          <use
             xlink:href="#textext-be663806-7"
             x="243.985"
             y="134.765"
             id="use120532" />
        </g>
      </g>
    </g>
    <g
       id="g120846"
       transform="matrix(0.9,0,0,0.9,-166.28297,-37.541639)"
       ns0:preamble=""
       ns0:text="$E_{M}$">
      <defs
         id="defs120848">
        <g
           id="g120850">
          <symbol
             style="overflow:visible"
             id="textext-4caf8575-0"
             overflow="visible">
            <path
               id="path120853"
               d=""
               style="stroke:none" />
          </symbol>
          <symbol
             style="overflow:visible"
             id="textext-4caf8575-1"
             overflow="visible">
            <path
               id="path120856"
               d="M 7.0625,-2.328125 C 7.078125,-2.375 7.109375,-2.4375 7.109375,-2.46875 C 7.109375,-2.46875 7.109375,-2.578125 6.984375,-2.578125 C 6.890625,-2.578125 6.875,-2.515625 6.859375,-2.453125 C 6.203125,-0.984375 5.84375,-0.3125 4.140625,-0.3125 L 2.6875,-0.3125 C 2.546875,-0.3125 2.515625,-0.3125 2.46875,-0.3125 C 2.359375,-0.328125 2.328125,-0.34375 2.328125,-0.421875 C 2.328125,-0.453125 2.328125,-0.46875 2.375,-0.640625 L 3.0625,-3.375 L 4.046875,-3.375 C 4.890625,-3.375 4.890625,-3.15625 4.890625,-2.90625 C 4.890625,-2.84375 4.890625,-2.71875 4.828125,-2.421875 C 4.8125,-2.375 4.796875,-2.34375 4.796875,-2.3125 C 4.796875,-2.265625 4.828125,-2.203125 4.921875,-2.203125 C 5,-2.203125 5.03125,-2.25 5.078125,-2.40625 L 5.640625,-4.734375 C 5.640625,-4.796875 5.59375,-4.84375 5.515625,-4.84375 C 5.4375,-4.84375 5.40625,-4.78125 5.390625,-4.671875 C 5.171875,-3.90625 5,-3.671875 4.078125,-3.671875 L 3.140625,-3.671875 L 3.734375,-6.078125 C 3.828125,-6.4375 3.84375,-6.46875 4.28125,-6.46875 L 5.6875,-6.46875 C 6.890625,-6.46875 7.203125,-6.1875 7.203125,-5.359375 C 7.203125,-5.125 7.203125,-5.109375 7.15625,-4.828125 C 7.15625,-4.78125 7.140625,-4.703125 7.140625,-4.65625 C 7.140625,-4.609375 7.171875,-4.53125 7.265625,-4.53125 C 7.375,-4.53125 7.390625,-4.59375 7.40625,-4.78125 L 7.609375,-6.515625 C 7.640625,-6.78125 7.59375,-6.78125 7.34375,-6.78125 L 2.296875,-6.78125 C 2.109375,-6.78125 2,-6.78125 2,-6.578125 C 2,-6.46875 2.09375,-6.46875 2.28125,-6.46875 C 2.65625,-6.46875 2.9375,-6.46875 2.9375,-6.296875 C 2.9375,-6.25 2.9375,-6.234375 2.875,-6.046875 L 1.5625,-0.78125 C 1.46875,-0.390625 1.453125,-0.3125 0.65625,-0.3125 C 0.484375,-0.3125 0.375,-0.3125 0.375,-0.125 C 0.375,0 0.46875,0 0.65625,0 L 5.828125,0 C 6.0625,0 6.078125,-0.015625 6.140625,-0.171875 L 7.0625,-2.328125 z"
               style="stroke:none" />
          </symbol>
          <symbol
             style="overflow:visible"
             id="textext-4caf8575-2"
             overflow="visible">
            <path
               id="path120859"
               d=""
               style="stroke:none" />
          </symbol>
          <symbol
             style="overflow:visible"
             id="textext-4caf8575-3"
             overflow="visible">
            <path
               id="path120862"
               d="M 7.109375,-4.1875 C 7.171875,-4.453125 7.1875,-4.515625 7.703125,-4.515625 C 7.859375,-4.515625 7.9375,-4.515625 7.9375,-4.65625 C 7.9375,-4.765625 7.859375,-4.765625 7.734375,-4.765625 L 6.78125,-4.765625 C 6.578125,-4.765625 6.578125,-4.75 6.484375,-4.625 L 3.796875,-0.640625 L 3.109375,-4.578125 C 3.078125,-4.75 3.078125,-4.765625 2.859375,-4.765625 L 1.875,-4.765625 C 1.734375,-4.765625 1.640625,-4.765625 1.640625,-4.609375 C 1.640625,-4.515625 1.71875,-4.515625 1.875,-4.515625 C 1.984375,-4.515625 2.015625,-4.515625 2.140625,-4.5 C 2.28125,-4.484375 2.296875,-4.46875 2.296875,-4.390625 C 2.296875,-4.390625 2.296875,-4.34375 2.265625,-4.25 L 1.390625,-0.75 C 1.328125,-0.515625 1.21875,-0.265625 0.65625,-0.25 C 0.609375,-0.25 0.515625,-0.25 0.515625,-0.09375 C 0.515625,-0.09375 0.515625,0 0.625,0 C 0.828125,0 1.125,-0.03125 1.34375,-0.03125 C 1.515625,-0.03125 1.921875,0 2.078125,0 C 2.125,0 2.21875,0 2.21875,-0.15625 C 2.21875,-0.25 2.125,-0.25 2.0625,-0.25 C 1.625,-0.265625 1.625,-0.453125 1.625,-0.546875 C 1.625,-0.578125 1.625,-0.609375 1.65625,-0.71875 L 2.578125,-4.421875 L 2.578125,-4.421875 L 3.328125,-0.1875 C 3.359375,-0.0625 3.359375,0 3.46875,0 C 3.5625,0 3.625,-0.078125 3.671875,-0.15625 L 6.59375,-4.5 L 6.609375,-4.484375 L 5.625,-0.546875 C 5.5625,-0.3125 5.546875,-0.25 5.015625,-0.25 C 4.890625,-0.25 4.796875,-0.25 4.796875,-0.09375 C 4.796875,-0.09375 4.796875,0 4.90625,0 C 5.046875,0 5.203125,-0.015625 5.34375,-0.015625 C 5.484375,-0.015625 5.640625,-0.03125 5.78125,-0.03125 C 5.984375,-0.03125 6.46875,0 6.671875,0 C 6.703125,0 6.8125,0 6.8125,-0.15625 C 6.8125,-0.25 6.734375,-0.25 6.59375,-0.25 C 6.578125,-0.25 6.453125,-0.25 6.328125,-0.265625 C 6.171875,-0.28125 6.171875,-0.296875 6.171875,-0.375 C 6.171875,-0.40625 6.1875,-0.484375 6.1875,-0.515625 L 7.109375,-4.1875 z"
               style="stroke:none" />
          </symbol>
        </g>
      </defs>
      <g
         id="textext-4caf8575-4">
        <g
           id="g120865"
           style="fill:#000000;fill-opacity:1">
          <use
             height="141.73228"
             width="354.33069"
             id="use120867"
             y="134.765"
             x="223.43201"
             xlink:href="#textext-4caf8575-1" />
        </g>
        <g
           id="g120869"
           style="fill:#000000;fill-opacity:1">
          <use
             height="141.73228"
             width="354.33069"
             id="use120871"
             y="136.259"
             x="230.786"
             xlink:href="#textext-4caf8575-3" />
        </g>
      </g>
    </g>
    <g
       ns0:text="$E_{M-1}$"
       ns0:preamble=""
       transform="matrix(0.9,0,0,0.9,-133.1288,-37.541639)"
       id="g121173">
      <defs
         id="defs121175">
        <g
           id="g121177">
          <symbol
             overflow="visible"
             id="textext-c48122cb-0">
            <path
               style="stroke:none;"
               d=""
               id="path121180" />
          </symbol>
          <symbol
             overflow="visible"
             id="textext-c48122cb-1">
            <path
               style="stroke:none;"
               d="M 7.0625 -2.328125 C 7.078125 -2.375 7.109375 -2.4375 7.109375 -2.46875 C 7.109375 -2.46875 7.109375 -2.578125 6.984375 -2.578125 C 6.890625 -2.578125 6.875 -2.515625 6.859375 -2.453125 C 6.203125 -0.984375 5.84375 -0.3125 4.140625 -0.3125 L 2.6875 -0.3125 C 2.546875 -0.3125 2.515625 -0.3125 2.46875 -0.3125 C 2.359375 -0.328125 2.328125 -0.34375 2.328125 -0.421875 C 2.328125 -0.453125 2.328125 -0.46875 2.375 -0.640625 L 3.0625 -3.375 L 4.046875 -3.375 C 4.890625 -3.375 4.890625 -3.15625 4.890625 -2.90625 C 4.890625 -2.84375 4.890625 -2.71875 4.828125 -2.421875 C 4.8125 -2.375 4.796875 -2.34375 4.796875 -2.3125 C 4.796875 -2.265625 4.828125 -2.203125 4.921875 -2.203125 C 5 -2.203125 5.03125 -2.25 5.078125 -2.40625 L 5.640625 -4.734375 C 5.640625 -4.796875 5.59375 -4.84375 5.515625 -4.84375 C 5.4375 -4.84375 5.40625 -4.78125 5.390625 -4.671875 C 5.171875 -3.90625 5 -3.671875 4.078125 -3.671875 L 3.140625 -3.671875 L 3.734375 -6.078125 C 3.828125 -6.4375 3.84375 -6.46875 4.28125 -6.46875 L 5.6875 -6.46875 C 6.890625 -6.46875 7.203125 -6.1875 7.203125 -5.359375 C 7.203125 -5.125 7.203125 -5.109375 7.15625 -4.828125 C 7.15625 -4.78125 7.140625 -4.703125 7.140625 -4.65625 C 7.140625 -4.609375 7.171875 -4.53125 7.265625 -4.53125 C 7.375 -4.53125 7.390625 -4.59375 7.40625 -4.78125 L 7.609375 -6.515625 C 7.640625 -6.78125 7.59375 -6.78125 7.34375 -6.78125 L 2.296875 -6.78125 C 2.109375 -6.78125 2 -6.78125 2 -6.578125 C 2 -6.46875 2.09375 -6.46875 2.28125 -6.46875 C 2.65625 -6.46875 2.9375 -6.46875 2.9375 -6.296875 C 2.9375 -6.25 2.9375 -6.234375 2.875 -6.046875 L 1.5625 -0.78125 C 1.46875 -0.390625 1.453125 -0.3125 0.65625 -0.3125 C 0.484375 -0.3125 0.375 -0.3125 0.375 -0.125 C 0.375 0 0.46875 0 0.65625 0 L 5.828125 0 C 6.0625 0 6.078125 -0.015625 6.140625 -0.171875 L 7.0625 -2.328125 Z M 7.0625 -2.328125 "
               id="path121183" />
          </symbol>
          <symbol
             overflow="visible"
             id="textext-c48122cb-2">
            <path
               style="stroke:none;"
               d=""
               id="path121186" />
          </symbol>
          <symbol
             overflow="visible"
             id="textext-c48122cb-3">
            <path
               style="stroke:none;"
               d="M 7.109375 -4.1875 C 7.171875 -4.453125 7.1875 -4.515625 7.703125 -4.515625 C 7.859375 -4.515625 7.9375 -4.515625 7.9375 -4.65625 C 7.9375 -4.765625 7.859375 -4.765625 7.734375 -4.765625 L 6.78125 -4.765625 C 6.578125 -4.765625 6.578125 -4.75 6.484375 -4.625 L 3.796875 -0.640625 L 3.109375 -4.578125 C 3.078125 -4.75 3.078125 -4.765625 2.859375 -4.765625 L 1.875 -4.765625 C 1.734375 -4.765625 1.640625 -4.765625 1.640625 -4.609375 C 1.640625 -4.515625 1.71875 -4.515625 1.875 -4.515625 C 1.984375 -4.515625 2.015625 -4.515625 2.140625 -4.5 C 2.28125 -4.484375 2.296875 -4.46875 2.296875 -4.390625 C 2.296875 -4.390625 2.296875 -4.34375 2.265625 -4.25 L 1.390625 -0.75 C 1.328125 -0.515625 1.21875 -0.265625 0.65625 -0.25 C 0.609375 -0.25 0.515625 -0.25 0.515625 -0.09375 C 0.515625 -0.09375 0.515625 0 0.625 0 C 0.828125 0 1.125 -0.03125 1.34375 -0.03125 C 1.515625 -0.03125 1.921875 0 2.078125 0 C 2.125 0 2.21875 0 2.21875 -0.15625 C 2.21875 -0.25 2.125 -0.25 2.0625 -0.25 C 1.625 -0.265625 1.625 -0.453125 1.625 -0.546875 C 1.625 -0.578125 1.625 -0.609375 1.65625 -0.71875 L 2.578125 -4.421875 L 2.578125 -4.421875 L 3.328125 -0.1875 C 3.359375 -0.0625 3.359375 0 3.46875 0 C 3.5625 0 3.625 -0.078125 3.671875 -0.15625 L 6.59375 -4.5 L 6.609375 -4.484375 L 5.625 -0.546875 C 5.5625 -0.3125 5.546875 -0.25 5.015625 -0.25 C 4.890625 -0.25 4.796875 -0.25 4.796875 -0.09375 C 4.796875 -0.09375 4.796875 0 4.90625 0 C 5.046875 0 5.203125 -0.015625 5.34375 -0.015625 C 5.484375 -0.015625 5.640625 -0.03125 5.78125 -0.03125 C 5.984375 -0.03125 6.46875 0 6.671875 0 C 6.703125 0 6.8125 0 6.8125 -0.15625 C 6.8125 -0.25 6.734375 -0.25 6.59375 -0.25 C 6.578125 -0.25 6.453125 -0.25 6.328125 -0.265625 C 6.171875 -0.28125 6.171875 -0.296875 6.171875 -0.375 C 6.171875 -0.40625 6.1875 -0.484375 6.1875 -0.515625 L 7.109375 -4.1875 Z M 7.109375 -4.1875 "
               id="path121189" />
          </symbol>
          <symbol
             overflow="visible"
             id="textext-c48122cb-4">
            <path
               style="stroke:none;"
               d=""
               id="path121192" />
          </symbol>
          <symbol
             overflow="visible"
             id="textext-c48122cb-5">
            <path
               style="stroke:none;"
               d="M 5.203125 -1.578125 C 5.296875 -1.578125 5.46875 -1.578125 5.46875 -1.734375 C 5.46875 -1.921875 5.296875 -1.921875 5.203125 -1.921875 L 1.015625 -1.921875 C 0.90625 -1.921875 0.75 -1.921875 0.75 -1.734375 C 0.75 -1.578125 0.921875 -1.578125 1.015625 -1.578125 L 5.203125 -1.578125 Z M 5.203125 -1.578125 "
               id="path121195" />
          </symbol>
          <symbol
             overflow="visible"
             id="textext-c48122cb-6">
            <path
               style="stroke:none;"
               d=""
               id="path121198" />
          </symbol>
          <symbol
             overflow="visible"
             id="textext-c48122cb-7">
            <path
               style="stroke:none;"
               d="M 2.328125 -4.4375 C 2.328125 -4.625 2.328125 -4.625 2.125 -4.625 C 1.671875 -4.1875 1.046875 -4.1875 0.765625 -4.1875 L 0.765625 -3.9375 C 0.921875 -3.9375 1.390625 -3.9375 1.765625 -4.125 L 1.765625 -0.578125 C 1.765625 -0.34375 1.765625 -0.25 1.078125 -0.25 L 0.8125 -0.25 L 0.8125 0 C 0.9375 0 1.796875 -0.03125 2.046875 -0.03125 C 2.265625 -0.03125 3.140625 0 3.296875 0 L 3.296875 -0.25 L 3.03125 -0.25 C 2.328125 -0.25 2.328125 -0.34375 2.328125 -0.578125 L 2.328125 -4.4375 Z M 2.328125 -4.4375 "
               id="path121201" />
          </symbol>
        </g>
      </defs>
      <g
         id="textext-c48122cb-8">
        <g
           style="fill:rgb(0%,0%,0%);fill-opacity:1;"
           id="g121204">
          <use
             xlink:href="#textext-c48122cb-1"
             x="223.432"
             y="134.765"
             id="use121206" />
        </g>
        <g
           style="fill:rgb(0%,0%,0%);fill-opacity:1;"
           id="g121208">
          <use
             xlink:href="#textext-c48122cb-3"
             x="230.786"
             y="136.259"
             id="use121210" />
        </g>
        <g
           style="fill:rgb(0%,0%,0%);fill-opacity:1;"
           id="g121212">
          <use
             xlink:href="#textext-c48122cb-5"
             x="239.132"
             y="136.259"
             id="use121214" />
        </g>
        <g
           style="fill:rgb(0%,0%,0%);fill-opacity:1;"
           id="g121216">
          <use
             xlink:href="#textext-c48122cb-7"
             x="245.358"
             y="136.259"
             id="use121218" />
        </g>
      </g>
    </g>
    <g
       id="g121525"
       transform="matrix(0.9,0,0,0.9,-21.1288,-37.541639)"
       ns0:preamble=""
       ns0:text="$E_{r}$">
      <defs
         id="defs121527">
        <g
           id="g121529">
          <symbol
             style="overflow:visible"
             id="textext-1a8a6241-0"
             overflow="visible">
            <path
               id="path121532"
               d=""
               style="stroke:none" />
          </symbol>
          <symbol
             style="overflow:visible"
             id="textext-1a8a6241-1"
             overflow="visible">
            <path
               id="path121535"
               d="M 7.0625,-2.328125 C 7.078125,-2.375 7.109375,-2.4375 7.109375,-2.46875 C 7.109375,-2.46875 7.109375,-2.578125 6.984375,-2.578125 C 6.890625,-2.578125 6.875,-2.515625 6.859375,-2.453125 C 6.203125,-0.984375 5.84375,-0.3125 4.140625,-0.3125 L 2.6875,-0.3125 C 2.546875,-0.3125 2.515625,-0.3125 2.46875,-0.3125 C 2.359375,-0.328125 2.328125,-0.34375 2.328125,-0.421875 C 2.328125,-0.453125 2.328125,-0.46875 2.375,-0.640625 L 3.0625,-3.375 L 4.046875,-3.375 C 4.890625,-3.375 4.890625,-3.15625 4.890625,-2.90625 C 4.890625,-2.84375 4.890625,-2.71875 4.828125,-2.421875 C 4.8125,-2.375 4.796875,-2.34375 4.796875,-2.3125 C 4.796875,-2.265625 4.828125,-2.203125 4.921875,-2.203125 C 5,-2.203125 5.03125,-2.25 5.078125,-2.40625 L 5.640625,-4.734375 C 5.640625,-4.796875 5.59375,-4.84375 5.515625,-4.84375 C 5.4375,-4.84375 5.40625,-4.78125 5.390625,-4.671875 C 5.171875,-3.90625 5,-3.671875 4.078125,-3.671875 L 3.140625,-3.671875 L 3.734375,-6.078125 C 3.828125,-6.4375 3.84375,-6.46875 4.28125,-6.46875 L 5.6875,-6.46875 C 6.890625,-6.46875 7.203125,-6.1875 7.203125,-5.359375 C 7.203125,-5.125 7.203125,-5.109375 7.15625,-4.828125 C 7.15625,-4.78125 7.140625,-4.703125 7.140625,-4.65625 C 7.140625,-4.609375 7.171875,-4.53125 7.265625,-4.53125 C 7.375,-4.53125 7.390625,-4.59375 7.40625,-4.78125 L 7.609375,-6.515625 C 7.640625,-6.78125 7.59375,-6.78125 7.34375,-6.78125 L 2.296875,-6.78125 C 2.109375,-6.78125 2,-6.78125 2,-6.578125 C 2,-6.46875 2.09375,-6.46875 2.28125,-6.46875 C 2.65625,-6.46875 2.9375,-6.46875 2.9375,-6.296875 C 2.9375,-6.25 2.9375,-6.234375 2.875,-6.046875 L 1.5625,-0.78125 C 1.46875,-0.390625 1.453125,-0.3125 0.65625,-0.3125 C 0.484375,-0.3125 0.375,-0.3125 0.375,-0.125 C 0.375,0 0.46875,0 0.65625,0 L 5.828125,0 C 6.0625,0 6.078125,-0.015625 6.140625,-0.171875 L 7.0625,-2.328125 z"
               style="stroke:none" />
          </symbol>
          <symbol
             style="overflow:visible"
             id="textext-1a8a6241-2"
             overflow="visible">
            <path
               id="path121538"
               d=""
               style="stroke:none" />
          </symbol>
          <symbol
             style="overflow:visible"
             id="textext-1a8a6241-3"
             overflow="visible">
            <path
               id="path121541"
               d="M 1.640625,-1.40625 C 1.640625,-1.453125 1.8125,-2.078125 1.8125,-2.109375 C 1.828125,-2.171875 2.03125,-2.515625 2.265625,-2.6875 C 2.328125,-2.734375 2.515625,-2.875 2.828125,-2.875 C 2.890625,-2.875 3.0625,-2.875 3.203125,-2.78125 C 2.984375,-2.71875 2.90625,-2.515625 2.90625,-2.390625 C 2.90625,-2.25 3.015625,-2.140625 3.171875,-2.140625 C 3.34375,-2.140625 3.5625,-2.265625 3.5625,-2.5625 C 3.5625,-2.921875 3.1875,-3.078125 2.828125,-3.078125 C 2.46875,-3.078125 2.15625,-2.921875 1.84375,-2.578125 C 1.71875,-3 1.296875,-3.078125 1.125,-3.078125 C 0.875,-3.078125 0.703125,-2.90625 0.578125,-2.71875 C 0.421875,-2.453125 0.328125,-2.046875 0.328125,-2 C 0.328125,-1.921875 0.421875,-1.921875 0.453125,-1.921875 C 0.546875,-1.921875 0.546875,-1.9375 0.59375,-2.125 C 0.703125,-2.546875 0.84375,-2.875 1.109375,-2.875 C 1.296875,-2.875 1.34375,-2.71875 1.34375,-2.53125 C 1.34375,-2.40625 1.28125,-2.140625 1.21875,-1.953125 C 1.171875,-1.765625 1.109375,-1.484375 1.078125,-1.328125 L 0.84375,-0.4375 C 0.828125,-0.34375 0.78125,-0.171875 0.78125,-0.15625 C 0.78125,0 0.90625,0.0625 1.015625,0.0625 C 1.125,0.0625 1.265625,0 1.3125,-0.125 C 1.328125,-0.171875 1.40625,-0.484375 1.453125,-0.65625 L 1.640625,-1.40625 z"
               style="stroke:none" />
          </symbol>
        </g>
      </defs>
      <g
         id="textext-1a8a6241-4">
        <g
           id="g121544"
           style="fill:#000000;fill-opacity:1">
          <use
             height="141.73228"
             width="354.33069"
             id="use121546"
             y="134.765"
             x="223.43201"
             xlink:href="#textext-1a8a6241-1" />
        </g>
        <g
           id="g121548"
           style="fill:#000000;fill-opacity:1">
          <use
             height="141.73228"
             width="354.33069"
             id="use121550"
             y="136.259"
             x="230.786"
             xlink:href="#textext-1a8a6241-3" />
        </g>
      </g>
    </g>
    <g
       ns0:text="$\\sigma\'(F)$"
       ns0:preamble=""
       transform="matrix(0.9,0,0,0.9,44.21119,-64.901843)"
       id="g121830">
      <defs
         id="defs121832">
        <g
           id="g121834">
          <symbol
             style="overflow:visible"
             overflow="visible"
             id="textext-e74f46ba-0">
            <path
               style="stroke:none"
               d=""
               id="path121837" />
          </symbol>
          <symbol
             style="overflow:visible"
             overflow="visible"
             id="textext-e74f46ba-1">
            <path
               style="stroke:none"
               d="M 5.15625,-3.71875 C 5.296875,-3.71875 5.65625,-3.71875 5.65625,-4.0625 C 5.65625,-4.296875 5.4375,-4.296875 5.265625,-4.296875 L 2.984375,-4.296875 C 1.484375,-4.296875 0.375,-2.65625 0.375,-1.46875 C 0.375,-0.59375 0.96875,0.109375 1.875,0.109375 C 3.046875,0.109375 4.375,-1.09375 4.375,-2.625 C 4.375,-2.796875 4.375,-3.28125 4.0625,-3.71875 L 5.15625,-3.71875 z M 1.890625,-0.109375 C 1.390625,-0.109375 1,-0.46875 1,-1.1875 C 1,-1.484375 1.109375,-2.296875 1.46875,-2.890625 C 1.890625,-3.578125 2.484375,-3.71875 2.828125,-3.71875 C 3.65625,-3.71875 3.734375,-3.0625 3.734375,-2.75 C 3.734375,-2.28125 3.53125,-1.46875 3.203125,-0.953125 C 2.8125,-0.375 2.265625,-0.109375 1.890625,-0.109375 z"
               id="path121840" />
          </symbol>
          <symbol
             style="overflow:visible"
             overflow="visible"
             id="textext-e74f46ba-2">
            <path
               style="stroke:none"
               d="M 3.015625,-3.234375 L 3.984375,-3.234375 C 4.734375,-3.234375 4.8125,-3.078125 4.8125,-2.796875 C 4.8125,-2.71875 4.8125,-2.609375 4.75,-2.296875 C 4.71875,-2.25 4.71875,-2.21875 4.71875,-2.1875 C 4.71875,-2.109375 4.78125,-2.078125 4.828125,-2.078125 C 4.9375,-2.078125 4.9375,-2.109375 4.984375,-2.28125 L 5.53125,-4.453125 C 5.5625,-4.5625 5.5625,-4.578125 5.5625,-4.609375 C 5.5625,-4.625 5.546875,-4.71875 5.4375,-4.71875 C 5.34375,-4.71875 5.328125,-4.671875 5.296875,-4.5 C 5.078125,-3.734375 4.859375,-3.546875 4,-3.546875 L 3.09375,-3.546875 L 3.734375,-6.078125 C 3.828125,-6.4375 3.84375,-6.46875 4.28125,-6.46875 L 5.59375,-6.46875 C 6.8125,-6.46875 7.046875,-6.140625 7.046875,-5.375 C 7.046875,-5.140625 7.046875,-5.109375 7.015625,-4.828125 C 7,-4.703125 7,-4.6875 7,-4.65625 C 7,-4.609375 7.03125,-4.53125 7.125,-4.53125 C 7.234375,-4.53125 7.234375,-4.59375 7.25,-4.78125 L 7.453125,-6.515625 C 7.484375,-6.78125 7.4375,-6.78125 7.1875,-6.78125 L 2.296875,-6.78125 C 2.109375,-6.78125 2,-6.78125 2,-6.578125 C 2,-6.46875 2.09375,-6.46875 2.28125,-6.46875 C 2.65625,-6.46875 2.9375,-6.46875 2.9375,-6.296875 C 2.9375,-6.25 2.9375,-6.234375 2.875,-6.046875 L 1.5625,-0.78125 C 1.46875,-0.390625 1.453125,-0.3125 0.65625,-0.3125 C 0.484375,-0.3125 0.375,-0.3125 0.375,-0.125 C 0.375,0 0.5,0 0.53125,0 C 0.8125,0 1.5625,-0.03125 1.84375,-0.03125 C 2.171875,-0.03125 3,0 3.328125,0 C 3.421875,0 3.53125,0 3.53125,-0.1875 C 3.53125,-0.265625 3.484375,-0.296875 3.484375,-0.296875 C 3.453125,-0.3125 3.421875,-0.3125 3.203125,-0.3125 C 2.984375,-0.3125 2.9375,-0.3125 2.6875,-0.328125 C 2.390625,-0.359375 2.359375,-0.40625 2.359375,-0.53125 C 2.359375,-0.546875 2.359375,-0.609375 2.40625,-0.75 L 3.015625,-3.234375 z"
               id="path121843" />
          </symbol>
          <symbol
             style="overflow:visible"
             overflow="visible"
             id="textext-e74f46ba-3">
            <path
               style="stroke:none"
               d=""
               id="path121846" />
          </symbol>
          <symbol
             style="overflow:visible"
             overflow="visible"
             id="textext-e74f46ba-4">
            <path
               style="stroke:none"
               d="M 2.03125,-3.296875 C 2.0625,-3.359375 2.078125,-3.421875 2.078125,-3.515625 C 2.078125,-3.734375 1.890625,-3.890625 1.671875,-3.890625 C 1.390625,-3.890625 1.328125,-3.671875 1.296875,-3.578125 L 0.375,-0.5625 C 0.359375,-0.53125 0.328125,-0.453125 0.328125,-0.4375 C 0.328125,-0.359375 0.546875,-0.28125 0.609375,-0.28125 C 0.65625,-0.28125 0.6875,-0.328125 0.703125,-0.390625 L 2.03125,-3.296875 z"
               id="path121849" />
          </symbol>
          <symbol
             style="overflow:visible"
             overflow="visible"
             id="textext-e74f46ba-5">
            <path
               style="stroke:none"
               d=""
               id="path121852" />
          </symbol>
          <symbol
             style="overflow:visible"
             overflow="visible"
             id="textext-e74f46ba-6">
            <path
               style="stroke:none"
               d="M 3.296875,2.390625 C 3.296875,2.359375 3.296875,2.34375 3.125,2.171875 C 1.890625,0.921875 1.5625,-0.96875 1.5625,-2.5 C 1.5625,-4.234375 1.9375,-5.96875 3.171875,-7.203125 C 3.296875,-7.328125 3.296875,-7.34375 3.296875,-7.375 C 3.296875,-7.453125 3.265625,-7.484375 3.203125,-7.484375 C 3.09375,-7.484375 2.203125,-6.796875 1.609375,-5.53125 C 1.109375,-4.4375 0.984375,-3.328125 0.984375,-2.5 C 0.984375,-1.71875 1.09375,-0.515625 1.640625,0.625 C 2.25,1.84375 3.09375,2.5 3.203125,2.5 C 3.265625,2.5 3.296875,2.46875 3.296875,2.390625 z"
               id="path121855" />
          </symbol>
          <symbol
             style="overflow:visible"
             overflow="visible"
             id="textext-e74f46ba-7">
            <path
               style="stroke:none"
               d="M 2.875,-2.5 C 2.875,-3.265625 2.765625,-4.46875 2.21875,-5.609375 C 1.625,-6.828125 0.765625,-7.484375 0.671875,-7.484375 C 0.609375,-7.484375 0.5625,-7.4375 0.5625,-7.375 C 0.5625,-7.34375 0.5625,-7.328125 0.75,-7.140625 C 1.734375,-6.15625 2.296875,-4.578125 2.296875,-2.5 C 2.296875,-0.78125 1.9375,0.96875 0.703125,2.21875 C 0.5625,2.34375 0.5625,2.359375 0.5625,2.390625 C 0.5625,2.453125 0.609375,2.5 0.671875,2.5 C 0.765625,2.5 1.671875,1.8125 2.25,0.546875 C 2.765625,-0.546875 2.875,-1.65625 2.875,-2.5 z"
               id="path121858" />
          </symbol>
        </g>
      </defs>
      <g
         id="textext-e74f46ba-8">
        <g
           style="fill:#000000;fill-opacity:1"
           id="g121861">
          <use
             height="141.73228"
             width="354.33069"
             xlink:href="#textext-e74f46ba-1"
             x="223.43201"
             y="134.765"
             id="use121863" />
        </g>
        <g
           style="fill:#000000;fill-opacity:1"
           id="g121865">
          <use
             height="141.73228"
             width="354.33069"
             xlink:href="#textext-e74f46ba-4"
             x="229.48199"
             y="131.14999"
             id="use121867" />
        </g>
        <g
           style="fill:#000000;fill-opacity:1"
           id="g121869">
          <use
             height="141.73228"
             width="354.33069"
             xlink:href="#textext-e74f46ba-6"
             x="232.27699"
             y="134.765"
             id="use121871" />
        </g>
        <g
           style="fill:#000000;fill-opacity:1"
           id="g121873">
          <use
             height="141.73228"
             width="354.33069"
             xlink:href="#textext-e74f46ba-2"
             x="236.15199"
             y="134.765"
             id="use121875" />
        </g>
        <g
           style="fill:#000000;fill-opacity:1"
           id="g121877">
          <use
             height="141.73228"
             width="354.33069"
             xlink:href="#textext-e74f46ba-7"
             x="243.942"
             y="134.765"
             id="use121879" />
        </g>
      </g>
    </g>
    <g
       id="g122167"
       transform="matrix(0.9,0,0,0.9,76.865559,-27.154094)"
       ns0:preamble=""
       ns0:text="$E_{2}$">
      <defs
         id="defs122169">
        <g
           id="g122171">
          <symbol
             style="overflow:visible"
             id="textext-e0ecea4f-0"
             overflow="visible">
            <path
               id="path122174"
               d=""
               style="stroke:none" />
          </symbol>
          <symbol
             style="overflow:visible"
             id="textext-e0ecea4f-1"
             overflow="visible">
            <path
               id="path122177"
               d="M 7.0625,-2.328125 C 7.078125,-2.375 7.109375,-2.4375 7.109375,-2.46875 C 7.109375,-2.46875 7.109375,-2.578125 6.984375,-2.578125 C 6.890625,-2.578125 6.875,-2.515625 6.859375,-2.453125 C 6.203125,-0.984375 5.84375,-0.3125 4.140625,-0.3125 L 2.6875,-0.3125 C 2.546875,-0.3125 2.515625,-0.3125 2.46875,-0.3125 C 2.359375,-0.328125 2.328125,-0.34375 2.328125,-0.421875 C 2.328125,-0.453125 2.328125,-0.46875 2.375,-0.640625 L 3.0625,-3.375 L 4.046875,-3.375 C 4.890625,-3.375 4.890625,-3.15625 4.890625,-2.90625 C 4.890625,-2.84375 4.890625,-2.71875 4.828125,-2.421875 C 4.8125,-2.375 4.796875,-2.34375 4.796875,-2.3125 C 4.796875,-2.265625 4.828125,-2.203125 4.921875,-2.203125 C 5,-2.203125 5.03125,-2.25 5.078125,-2.40625 L 5.640625,-4.734375 C 5.640625,-4.796875 5.59375,-4.84375 5.515625,-4.84375 C 5.4375,-4.84375 5.40625,-4.78125 5.390625,-4.671875 C 5.171875,-3.90625 5,-3.671875 4.078125,-3.671875 L 3.140625,-3.671875 L 3.734375,-6.078125 C 3.828125,-6.4375 3.84375,-6.46875 4.28125,-6.46875 L 5.6875,-6.46875 C 6.890625,-6.46875 7.203125,-6.1875 7.203125,-5.359375 C 7.203125,-5.125 7.203125,-5.109375 7.15625,-4.828125 C 7.15625,-4.78125 7.140625,-4.703125 7.140625,-4.65625 C 7.140625,-4.609375 7.171875,-4.53125 7.265625,-4.53125 C 7.375,-4.53125 7.390625,-4.59375 7.40625,-4.78125 L 7.609375,-6.515625 C 7.640625,-6.78125 7.59375,-6.78125 7.34375,-6.78125 L 2.296875,-6.78125 C 2.109375,-6.78125 2,-6.78125 2,-6.578125 C 2,-6.46875 2.09375,-6.46875 2.28125,-6.46875 C 2.65625,-6.46875 2.9375,-6.46875 2.9375,-6.296875 C 2.9375,-6.25 2.9375,-6.234375 2.875,-6.046875 L 1.5625,-0.78125 C 1.46875,-0.390625 1.453125,-0.3125 0.65625,-0.3125 C 0.484375,-0.3125 0.375,-0.3125 0.375,-0.125 C 0.375,0 0.46875,0 0.65625,0 L 5.828125,0 C 6.0625,0 6.078125,-0.015625 6.140625,-0.171875 L 7.0625,-2.328125 z"
               style="stroke:none" />
          </symbol>
          <symbol
             style="overflow:visible"
             id="textext-e0ecea4f-2"
             overflow="visible">
            <path
               id="path122180"
               d=""
               style="stroke:none" />
          </symbol>
          <symbol
             style="overflow:visible"
             id="textext-e0ecea4f-3"
             overflow="visible">
            <path
               id="path122183"
               d="M 3.515625,-1.265625 L 3.28125,-1.265625 C 3.265625,-1.109375 3.1875,-0.703125 3.09375,-0.640625 C 3.046875,-0.59375 2.515625,-0.59375 2.40625,-0.59375 L 1.125,-0.59375 C 1.859375,-1.234375 2.109375,-1.4375 2.515625,-1.765625 C 3.03125,-2.171875 3.515625,-2.609375 3.515625,-3.265625 C 3.515625,-4.109375 2.78125,-4.625 1.890625,-4.625 C 1.03125,-4.625 0.4375,-4.015625 0.4375,-3.375 C 0.4375,-3.03125 0.734375,-2.984375 0.8125,-2.984375 C 0.96875,-2.984375 1.171875,-3.109375 1.171875,-3.359375 C 1.171875,-3.484375 1.125,-3.734375 0.765625,-3.734375 C 0.984375,-4.21875 1.453125,-4.375 1.78125,-4.375 C 2.484375,-4.375 2.84375,-3.828125 2.84375,-3.265625 C 2.84375,-2.65625 2.40625,-2.1875 2.1875,-1.9375 L 0.515625,-0.265625 C 0.4375,-0.203125 0.4375,-0.1875 0.4375,0 L 3.3125,0 L 3.515625,-1.265625 z"
               style="stroke:none" />
          </symbol>
        </g>
      </defs>
      <g
         id="textext-e0ecea4f-4">
        <g
           id="g122186"
           style="fill:#000000;fill-opacity:1">
          <use
             height="141.73228"
             width="354.33069"
             id="use122188"
             y="134.765"
             x="223.43201"
             xlink:href="#textext-e0ecea4f-1" />
        </g>
        <g
           id="g122190"
           style="fill:#000000;fill-opacity:1">
          <use
             height="141.73228"
             width="354.33069"
             id="use122192"
             y="136.259"
             x="230.786"
             xlink:href="#textext-e0ecea4f-3" />
        </g>
      </g>
    </g>
    <g
       ns0:text="$E_{1}$"
       ns0:preamble=""
       transform="matrix(0.9,0,0,0.9,113.17954,-34.848571)"
       id="g122528">
      <defs
         id="defs122530">
        <g
           id="g122532">
          <symbol
             style="overflow:visible"
             overflow="visible"
             id="textext-285f4c52-0">
            <path
               style="stroke:none"
               d=""
               id="path122535" />
          </symbol>
          <symbol
             style="overflow:visible"
             overflow="visible"
             id="textext-285f4c52-1">
            <path
               style="stroke:none"
               d="M 7.0625,-2.328125 C 7.078125,-2.375 7.109375,-2.4375 7.109375,-2.46875 C 7.109375,-2.46875 7.109375,-2.578125 6.984375,-2.578125 C 6.890625,-2.578125 6.875,-2.515625 6.859375,-2.453125 C 6.203125,-0.984375 5.84375,-0.3125 4.140625,-0.3125 L 2.6875,-0.3125 C 2.546875,-0.3125 2.515625,-0.3125 2.46875,-0.3125 C 2.359375,-0.328125 2.328125,-0.34375 2.328125,-0.421875 C 2.328125,-0.453125 2.328125,-0.46875 2.375,-0.640625 L 3.0625,-3.375 L 4.046875,-3.375 C 4.890625,-3.375 4.890625,-3.15625 4.890625,-2.90625 C 4.890625,-2.84375 4.890625,-2.71875 4.828125,-2.421875 C 4.8125,-2.375 4.796875,-2.34375 4.796875,-2.3125 C 4.796875,-2.265625 4.828125,-2.203125 4.921875,-2.203125 C 5,-2.203125 5.03125,-2.25 5.078125,-2.40625 L 5.640625,-4.734375 C 5.640625,-4.796875 5.59375,-4.84375 5.515625,-4.84375 C 5.4375,-4.84375 5.40625,-4.78125 5.390625,-4.671875 C 5.171875,-3.90625 5,-3.671875 4.078125,-3.671875 L 3.140625,-3.671875 L 3.734375,-6.078125 C 3.828125,-6.4375 3.84375,-6.46875 4.28125,-6.46875 L 5.6875,-6.46875 C 6.890625,-6.46875 7.203125,-6.1875 7.203125,-5.359375 C 7.203125,-5.125 7.203125,-5.109375 7.15625,-4.828125 C 7.15625,-4.78125 7.140625,-4.703125 7.140625,-4.65625 C 7.140625,-4.609375 7.171875,-4.53125 7.265625,-4.53125 C 7.375,-4.53125 7.390625,-4.59375 7.40625,-4.78125 L 7.609375,-6.515625 C 7.640625,-6.78125 7.59375,-6.78125 7.34375,-6.78125 L 2.296875,-6.78125 C 2.109375,-6.78125 2,-6.78125 2,-6.578125 C 2,-6.46875 2.09375,-6.46875 2.28125,-6.46875 C 2.65625,-6.46875 2.9375,-6.46875 2.9375,-6.296875 C 2.9375,-6.25 2.9375,-6.234375 2.875,-6.046875 L 1.5625,-0.78125 C 1.46875,-0.390625 1.453125,-0.3125 0.65625,-0.3125 C 0.484375,-0.3125 0.375,-0.3125 0.375,-0.125 C 0.375,0 0.46875,0 0.65625,0 L 5.828125,0 C 6.0625,0 6.078125,-0.015625 6.140625,-0.171875 L 7.0625,-2.328125 z"
               id="path122538" />
          </symbol>
          <symbol
             style="overflow:visible"
             overflow="visible"
             id="textext-285f4c52-2">
            <path
               style="stroke:none"
               d=""
               id="path122541" />
          </symbol>
          <symbol
             style="overflow:visible"
             overflow="visible"
             id="textext-285f4c52-3">
            <path
               style="stroke:none"
               d="M 2.328125,-4.4375 C 2.328125,-4.625 2.328125,-4.625 2.125,-4.625 C 1.671875,-4.1875 1.046875,-4.1875 0.765625,-4.1875 L 0.765625,-3.9375 C 0.921875,-3.9375 1.390625,-3.9375 1.765625,-4.125 L 1.765625,-0.578125 C 1.765625,-0.34375 1.765625,-0.25 1.078125,-0.25 L 0.8125,-0.25 L 0.8125,0 C 0.9375,0 1.796875,-0.03125 2.046875,-0.03125 C 2.265625,-0.03125 3.140625,0 3.296875,0 L 3.296875,-0.25 L 3.03125,-0.25 C 2.328125,-0.25 2.328125,-0.34375 2.328125,-0.578125 L 2.328125,-4.4375 z"
               id="path122544" />
          </symbol>
        </g>
      </defs>
      <g
         id="textext-285f4c52-4">
        <g
           style="fill:#000000;fill-opacity:1"
           id="g122547">
          <use
             height="141.73228"
             width="354.33069"
             xlink:href="#textext-285f4c52-1"
             x="223.43201"
             y="134.765"
             id="use122549" />
        </g>
        <g
           style="fill:#000000;fill-opacity:1"
           id="g122551">
          <use
             height="141.73228"
             width="354.33069"
             xlink:href="#textext-285f4c52-3"
             x="230.786"
             y="136.259"
             id="use122553" />
        </g>
      </g>
    </g>
    <g
       id="g122949"
       transform="matrix(0.9,0,0,0.9,-191.78881,-38.901843)"
       ns0:preamble=""
       ns0:text="$\\sigma\'(G)$">
      <defs
         id="defs122951">
        <g
           id="g122953">
          <symbol
             id="textext-be663806-0"
             overflow="visible">
            <path
               id="path122956"
               d=""
               style="stroke:none;" />
          </symbol>
          <symbol
             id="textext-be663806-1"
             overflow="visible">
            <path
               id="path122959"
               d="M 5.15625 -3.71875 C 5.296875 -3.71875 5.65625 -3.71875 5.65625 -4.0625 C 5.65625 -4.296875 5.4375 -4.296875 5.265625 -4.296875 L 2.984375 -4.296875 C 1.484375 -4.296875 0.375 -2.65625 0.375 -1.46875 C 0.375 -0.59375 0.96875 0.109375 1.875 0.109375 C 3.046875 0.109375 4.375 -1.09375 4.375 -2.625 C 4.375 -2.796875 4.375 -3.28125 4.0625 -3.71875 L 5.15625 -3.71875 Z M 1.890625 -0.109375 C 1.390625 -0.109375 1 -0.46875 1 -1.1875 C 1 -1.484375 1.109375 -2.296875 1.46875 -2.890625 C 1.890625 -3.578125 2.484375 -3.71875 2.828125 -3.71875 C 3.65625 -3.71875 3.734375 -3.0625 3.734375 -2.75 C 3.734375 -2.28125 3.53125 -1.46875 3.203125 -0.953125 C 2.8125 -0.375 2.265625 -0.109375 1.890625 -0.109375 Z M 1.890625 -0.109375 "
               style="stroke:none;" />
          </symbol>
          <symbol
             id="textext-be663806-2"
             overflow="visible">
            <path
               id="path122962"
               d="M 7.578125 -6.921875 C 7.578125 -6.953125 7.5625 -7.03125 7.46875 -7.03125 C 7.4375 -7.03125 7.421875 -7.015625 7.3125 -6.90625 L 6.625 -6.140625 C 6.53125 -6.28125 6.078125 -7.03125 4.96875 -7.03125 C 2.734375 -7.03125 0.5 -4.828125 0.5 -2.515625 C 0.5 -0.921875 1.609375 0.21875 3.21875 0.21875 C 3.65625 0.21875 4.109375 0.125 4.46875 -0.015625 C 4.96875 -0.21875 5.15625 -0.421875 5.328125 -0.625 C 5.421875 -0.375 5.6875 -0.015625 5.78125 -0.015625 C 5.828125 -0.015625 5.859375 -0.046875 5.859375 -0.046875 C 5.875 -0.0625 5.96875 -0.453125 6.015625 -0.65625 L 6.203125 -1.421875 C 6.25 -1.59375 6.296875 -1.765625 6.34375 -1.9375 C 6.453125 -2.375 6.453125 -2.40625 7.03125 -2.40625 C 7.078125 -2.40625 7.1875 -2.421875 7.1875 -2.609375 C 7.1875 -2.6875 7.140625 -2.71875 7.0625 -2.71875 C 6.828125 -2.71875 6.234375 -2.6875 6.015625 -2.6875 C 5.703125 -2.6875 4.921875 -2.71875 4.609375 -2.71875 C 4.53125 -2.71875 4.40625 -2.71875 4.40625 -2.515625 C 4.40625 -2.40625 4.484375 -2.40625 4.703125 -2.40625 C 4.71875 -2.40625 5 -2.40625 5.234375 -2.390625 C 5.5 -2.359375 5.546875 -2.328125 5.546875 -2.203125 C 5.546875 -2.109375 5.4375 -1.671875 5.328125 -1.296875 C 5.046875 -0.203125 3.765625 -0.09375 3.40625 -0.09375 C 2.453125 -0.09375 1.40625 -0.65625 1.40625 -2.1875 C 1.40625 -2.5 1.5 -4.140625 2.546875 -5.4375 C 3.09375 -6.109375 4.0625 -6.71875 5.046875 -6.71875 C 6.0625 -6.71875 6.65625 -5.953125 6.65625 -4.796875 C 6.65625 -4.390625 6.625 -4.390625 6.625 -4.28125 C 6.625 -4.1875 6.734375 -4.1875 6.765625 -4.1875 C 6.890625 -4.1875 6.890625 -4.203125 6.953125 -4.390625 L 7.578125 -6.921875 Z M 7.578125 -6.921875 "
               style="stroke:none;" />
          </symbol>
          <symbol
             id="textext-be663806-3"
             overflow="visible">
            <path
               id="path122965"
               d=""
               style="stroke:none;" />
          </symbol>
          <symbol
             id="textext-be663806-4"
             overflow="visible">
            <path
               id="path122968"
               d="M 2.03125 -3.296875 C 2.0625 -3.359375 2.078125 -3.421875 2.078125 -3.515625 C 2.078125 -3.734375 1.890625 -3.890625 1.671875 -3.890625 C 1.390625 -3.890625 1.328125 -3.671875 1.296875 -3.578125 L 0.375 -0.5625 C 0.359375 -0.53125 0.328125 -0.453125 0.328125 -0.4375 C 0.328125 -0.359375 0.546875 -0.28125 0.609375 -0.28125 C 0.65625 -0.28125 0.6875 -0.328125 0.703125 -0.390625 L 2.03125 -3.296875 Z M 2.03125 -3.296875 "
               style="stroke:none;" />
          </symbol>
          <symbol
             id="textext-be663806-5"
             overflow="visible">
            <path
               id="path122971"
               d=""
               style="stroke:none;" />
          </symbol>
          <symbol
             id="textext-be663806-6"
             overflow="visible">
            <path
               id="path122974"
               d="M 3.296875 2.390625 C 3.296875 2.359375 3.296875 2.34375 3.125 2.171875 C 1.890625 0.921875 1.5625 -0.96875 1.5625 -2.5 C 1.5625 -4.234375 1.9375 -5.96875 3.171875 -7.203125 C 3.296875 -7.328125 3.296875 -7.34375 3.296875 -7.375 C 3.296875 -7.453125 3.265625 -7.484375 3.203125 -7.484375 C 3.09375 -7.484375 2.203125 -6.796875 1.609375 -5.53125 C 1.109375 -4.4375 0.984375 -3.328125 0.984375 -2.5 C 0.984375 -1.71875 1.09375 -0.515625 1.640625 0.625 C 2.25 1.84375 3.09375 2.5 3.203125 2.5 C 3.265625 2.5 3.296875 2.46875 3.296875 2.390625 Z M 3.296875 2.390625 "
               style="stroke:none;" />
          </symbol>
          <symbol
             id="textext-be663806-7"
             overflow="visible">
            <path
               id="path122977"
               d="M 2.875 -2.5 C 2.875 -3.265625 2.765625 -4.46875 2.21875 -5.609375 C 1.625 -6.828125 0.765625 -7.484375 0.671875 -7.484375 C 0.609375 -7.484375 0.5625 -7.4375 0.5625 -7.375 C 0.5625 -7.34375 0.5625 -7.328125 0.75 -7.140625 C 1.734375 -6.15625 2.296875 -4.578125 2.296875 -2.5 C 2.296875 -0.78125 1.9375 0.96875 0.703125 2.21875 C 0.5625 2.34375 0.5625 2.359375 0.5625 2.390625 C 0.5625 2.453125 0.609375 2.5 0.671875 2.5 C 0.765625 2.5 1.671875 1.8125 2.25 0.546875 C 2.765625 -0.546875 2.875 -1.65625 2.875 -2.5 Z M 2.875 -2.5 "
               style="stroke:none;" />
          </symbol>
        </g>
      </defs>
      <g
         id="textext-be663806-8">
        <g
           id="g122980"
           style="fill:rgb(0%,0%,0%);fill-opacity:1;">
          <use
             id="use122982"
             y="134.765"
             x="223.432"
             xlink:href="#textext-be663806-1" />
        </g>
        <g
           id="g122984"
           style="fill:rgb(0%,0%,0%);fill-opacity:1;">
          <use
             id="use122986"
             y="131.15"
             x="229.482"
             xlink:href="#textext-be663806-4" />
        </g>
        <g
           id="g122988"
           style="fill:rgb(0%,0%,0%);fill-opacity:1;">
          <use
             id="use122990"
             y="134.765"
             x="232.277"
             xlink:href="#textext-be663806-6" />
        </g>
        <g
           id="g122992"
           style="fill:rgb(0%,0%,0%);fill-opacity:1;">
          <use
             id="use122994"
             y="134.765"
             x="236.152"
             xlink:href="#textext-be663806-2" />
        </g>
        <g
           id="g122996"
           style="fill:rgb(0%,0%,0%);fill-opacity:1;">
          <use
             id="use122998"
             y="134.765"
             x="243.985"
             xlink:href="#textext-be663806-7" />
        </g>
      </g>
    </g>
  </g>
</svg>
