<?xml version="1.0" encoding="UTF-8" standalone="no"?>
<!-- Created with Inkscape (http://www.inkscape.org/) -->
<svg
   xmlns:ns0="http://www.iki.fi/pav/software/textext/"
   xmlns:dc="http://purl.org/dc/elements/1.1/"
   xmlns:cc="http://creativecommons.org/ns#"
   xmlns:rdf="http://www.w3.org/1999/02/22-rdf-syntax-ns#"
   xmlns:svg="http://www.w3.org/2000/svg"
   xmlns="http://www.w3.org/2000/svg"
   xmlns:xlink="http://www.w3.org/1999/xlink"
   xmlns:sodipodi="http://sodipodi.sourceforge.net/DTD/sodipodi-0.dtd"
   xmlns:inkscape="http://www.inkscape.org/namespaces/inkscape"
   width="372.04724"
   height="141.73228"
   id="svg2"
   sodipodi:version="0.32"
   inkscape:version="0.46"
   version="1.0"
   sodipodi:docname="chap2-fig43.svg"
   inkscape:output_extension="org.inkscape.output.svg.inkscape">
  <sodipodi:namedview
     id="base"
     pagecolor="#ffffff"
     bordercolor="#666666"
     borderopacity="1.0"
     gridtolerance="10000"
     guidetolerance="10"
     objecttolerance="10"
     inkscape:pageopacity="0.0"
     inkscape:pageshadow="2"
     inkscape:zoom="2.4292212"
     inkscape:cx="171.06172"
     inkscape:cy="34.115377"
     inkscape:document-units="px"
     inkscape:current-layer="layer1"
     showgrid="false"
     units="cm"
     inkscape:window-width="1009"
     inkscape:window-height="726"
     inkscape:window-x="5"
     inkscape:window-y="27">
    <inkscape:grid
       enabled="true"
       visible="true"
       id="grid15378"
       type="xygrid" />
  </sodipodi:namedview>
  <defs
     id="defs4">
    <inkscape:perspective
       id="perspective10"
       inkscape:persp3d-origin="372.04724 : 350.78739 : 1"
       inkscape:vp_z="744.09448 : 526.18109 : 1"
       inkscape:vp_y="0 : 1000 : 0"
       inkscape:vp_x="0 : 526.18109 : 1"
       sodipodi:type="inkscape:persp3d" />
  </defs>
  <metadata
     id="metadata7">
    <rdf:RDF>
      <cc:Work
         rdf:about="">
        <dc:format>image/svg+xml</dc:format>
        <dc:type
           rdf:resource="http://purl.org/dc/dcmitype/StillImage" />
      </cc:Work>
    </rdf:RDF>
  </metadata>
  <g
     id="layer1"
     inkscape:groupmode="layer"
     inkscape:label="Layer 1">
    <path
       id="path15496"
       d="M 29.379,62.458612 L 64.914309,62.458612"
       style="fill:none;fill-rule:evenodd;stroke:#000000;stroke-width:1;stroke-linecap:butt;stroke-linejoin:miter;stroke-miterlimit:4;stroke-dasharray:none;stroke-opacity:1" />
    <path
       d="M 139.13925,43.55267 A 3.4990637,3.4990637 0 1 1 132.14112,43.55267 A 3.4990637,3.4990637 0 1 1 139.13925,43.55267 z"
       sodipodi:ry="3.4990637"
       sodipodi:rx="3.4990637"
       sodipodi:cy="43.55267"
       sodipodi:cx="135.64018"
       id="path15506"
       style="opacity:1;fill:#ffffff;fill-opacity:1;fill-rule:evenodd;stroke:#000000;stroke-width:1px;stroke-linecap:butt;stroke-linejoin:miter;marker:none;marker-start:none;marker-mid:none;marker-end:none;stroke-miterlimit:4;stroke-dasharray:none;stroke-dashoffset:0;stroke-opacity:1;visibility:visible;display:inline;overflow:visible;enable-background:accumulate"
       sodipodi:type="arc"
       transform="matrix(-1.0681001,0,0,1.0681001,171.77516,15.712279)" />
    <path
       style="fill:none;fill-rule:evenodd;stroke:#000000;stroke-width:1.0892638;stroke-linecap:butt;stroke-linejoin:miter;stroke-miterlimit:4;stroke-dasharray:none;stroke-opacity:1"
       d="M 120.82363,62.458612 L 85.28832,62.458612"
       id="path20229" />
    <path
       transform="matrix(1.0681001,0,0,1.0681001,-21.572563,15.712279)"
       sodipodi:type="arc"
       style="opacity:1;fill:#ffffff;fill-opacity:1;fill-rule:evenodd;stroke:#000000;stroke-width:1px;stroke-linecap:butt;stroke-linejoin:miter;marker:none;marker-start:none;marker-mid:none;marker-end:none;stroke-miterlimit:4;stroke-dasharray:none;stroke-dashoffset:0;stroke-opacity:1;visibility:visible;display:inline;overflow:visible;enable-background:accumulate"
       id="path20231"
       sodipodi:cx="135.64018"
       sodipodi:cy="43.55267"
       sodipodi:rx="3.4990637"
       sodipodi:ry="3.4990637"
       d="M 139.13925,43.55267 A 3.4990637,3.4990637 0 1 1 132.14112,43.55267 A 3.4990637,3.4990637 0 1 1 139.13925,43.55267 z" />
    <path
       id="path20233"
       d="M 162.21566,62.458612 L 126.68034,62.458612"
       style="fill:none;fill-rule:evenodd;stroke:#000000;stroke-width:1.0892638;stroke-linecap:butt;stroke-linejoin:miter;stroke-miterlimit:4;stroke-dasharray:none;stroke-opacity:1" />
    <path
       d="M 139.13925,43.55267 A 3.4990637,3.4990637 0 1 1 132.14112,43.55267 A 3.4990637,3.4990637 0 1 1 139.13925,43.55267 z"
       sodipodi:ry="3.4990637"
       sodipodi:rx="3.4990637"
       sodipodi:cy="43.55267"
       sodipodi:cx="135.64018"
       id="path20235"
       style="opacity:1;fill:#ffffff;fill-opacity:1;fill-rule:evenodd;stroke:#000000;stroke-width:1px;stroke-linecap:butt;stroke-linejoin:miter;marker:none;marker-start:none;marker-mid:none;marker-end:none;stroke-miterlimit:4;stroke-dasharray:none;stroke-dashoffset:0;stroke-opacity:1;visibility:visible;display:inline;overflow:visible;enable-background:accumulate"
       sodipodi:type="arc"
       transform="matrix(1.0681001,0,0,1.0681001,19.819459,15.712279)" />
    <path
       style="fill:none;fill-rule:evenodd;stroke:#000000;stroke-width:1.0892638;stroke-linecap:butt;stroke-linejoin:miter;stroke-miterlimit:4;stroke-dasharray:none;stroke-opacity:1"
       d="M 203.92474,62.458612 L 168.38943,62.458612"
       id="path20237" />
    <path
       id="path20241"
       d="M 260.11178,62.458612 L 224.57647,62.458612"
       style="fill:none;fill-rule:evenodd;stroke:#000000;stroke-width:1.0892638;stroke-linecap:butt;stroke-linejoin:miter;stroke-miterlimit:4;stroke-dasharray:none;stroke-opacity:1" />
    <path
       d="M 139.13925,43.55267 A 3.4990637,3.4990637 0 1 1 132.14112,43.55267 A 3.4990637,3.4990637 0 1 1 139.13925,43.55267 z"
       sodipodi:ry="3.4990637"
       sodipodi:rx="3.4990637"
       sodipodi:cy="43.55267"
       sodipodi:cx="135.64018"
       id="path20243"
       style="opacity:1;fill:#ffffff;fill-opacity:1;fill-rule:evenodd;stroke:#000000;stroke-width:1px;stroke-linecap:butt;stroke-linejoin:miter;marker:none;marker-start:none;marker-mid:none;marker-end:none;stroke-miterlimit:4;stroke-dasharray:none;stroke-dashoffset:0;stroke-opacity:1;visibility:visible;display:inline;overflow:visible;enable-background:accumulate"
       sodipodi:type="arc"
       transform="matrix(1.0681001,0,0,1.0681001,117.71562,15.712279)" />
    <g
       id="g21838"
       transform="translate(-6.8732511,-40.291084)">
      <path
         style="fill:none;fill-rule:evenodd;stroke:#000000;stroke-width:1;stroke-linecap:butt;stroke-linejoin:miter;stroke-miterlimit:4;stroke-dasharray:none;stroke-opacity:1"
         d="M 54.093958,127.32403 L 54.093958,78.575936"
         id="path21830" />
      <path
         id="path21834"
         d="M 54.432658,79.149282 L 59.672165,79.149282"
         style="fill:none;fill-rule:evenodd;stroke:#000000;stroke-width:1px;stroke-linecap:butt;stroke-linejoin:miter;stroke-opacity:1" />
      <path
         style="fill:none;fill-rule:evenodd;stroke:#000000;stroke-width:1px;stroke-linecap:butt;stroke-linejoin:miter;stroke-opacity:1"
         d="M 54.432658,126.8582 L 59.672165,126.8582"
         id="path21836" />
    </g>
    <g
       transform="matrix(-1,0,0,-1,297.98204,165.31779)"
       id="g21843">
      <path
         id="path21845"
         d="M 54.093958,127.32403 L 54.093958,78.575936"
         style="fill:none;fill-rule:evenodd;stroke:#000000;stroke-width:1;stroke-linecap:butt;stroke-linejoin:miter;stroke-miterlimit:4;stroke-dasharray:none;stroke-opacity:1" />
      <path
         style="fill:none;fill-rule:evenodd;stroke:#000000;stroke-width:1px;stroke-linecap:butt;stroke-linejoin:miter;stroke-opacity:1"
         d="M 54.432658,79.149282 L 59.672165,79.149282"
         id="path21847" />
      <path
         id="path21849"
         d="M 54.432658,126.8582 L 59.672165,126.8582"
         style="fill:none;fill-rule:evenodd;stroke:#000000;stroke-width:1px;stroke-linecap:butt;stroke-linejoin:miter;stroke-opacity:1" />
    </g>
    <path
       sodipodi:nodetypes="ccc"
       id="path21875"
       d="M 241.1259,90.330467 C 237.02869,95.335249 232.15165,99.839647 224.96075,101.98386 C 193.45448,102.83859 164.86759,104.95137 145.05037,125.03973"
       style="fill:none;fill-rule:evenodd;stroke:#000000;stroke-width:1;stroke-linecap:butt;stroke-linejoin:miter;stroke-miterlimit:4;stroke-dasharray:none;stroke-opacity:1" />
    <path
       style="fill:none;fill-rule:evenodd;stroke:#000000;stroke-width:1;stroke-linecap:butt;stroke-linejoin:miter;stroke-miterlimit:4;stroke-dasharray:none;stroke-opacity:1"
       d="M 50.161998,90.330467 C 54.259204,95.335249 59.136229,99.839647 66.327132,101.98386 C 97.833425,102.83859 126.42032,104.95137 146.23754,125.03973"
       id="path21877"
       sodipodi:nodetypes="ccc" />
    <g
       transform="translate(-202.9457,-82.330911)"
       ns0:text="$-1$"
       ns0:preamble="/home/raghu/TIFR/Curves-on-rational-and-unirational-surfaces/figures/preample.tex"
       id="g21915">
      <defs
         id="defs21917">
        <g
           id="g21919">
          <symbol
             style="overflow:visible"
             overflow="visible"
             id="textext-841a25ce-0">
            <path
               style="stroke:none"
               d=""
               id="path21922" />
          </symbol>
          <symbol
             style="overflow:visible"
             overflow="visible"
             id="textext-841a25ce-1">
            <path
               style="stroke:none"
               d="M 6.59375,-2.296875 C 6.734375,-2.296875 6.921875,-2.296875 6.921875,-2.5 C 6.921875,-2.6875 6.734375,-2.6875 6.59375,-2.6875 L 1.15625,-2.6875 C 1.015625,-2.6875 0.828125,-2.6875 0.828125,-2.5 C 0.828125,-2.296875 1.015625,-2.296875 1.15625,-2.296875 L 6.59375,-2.296875 z"
               id="path21925" />
          </symbol>
          <symbol
             style="overflow:visible"
             overflow="visible"
             id="textext-841a25ce-2">
            <path
               style="stroke:none"
               d=""
               id="path21928" />
          </symbol>
          <symbol
             style="overflow:visible"
             overflow="visible"
             id="textext-841a25ce-3">
            <path
               style="stroke:none"
               d="M 2.9375,-6.375 C 2.9375,-6.625 2.9375,-6.640625 2.703125,-6.640625 C 2.078125,-6 1.203125,-6 0.890625,-6 L 0.890625,-5.6875 C 1.09375,-5.6875 1.671875,-5.6875 2.1875,-5.953125 L 2.1875,-0.78125 C 2.1875,-0.421875 2.15625,-0.3125 1.265625,-0.3125 L 0.953125,-0.3125 L 0.953125,0 C 1.296875,-0.03125 2.15625,-0.03125 2.5625,-0.03125 C 2.953125,-0.03125 3.828125,-0.03125 4.171875,0 L 4.171875,-0.3125 L 3.859375,-0.3125 C 2.953125,-0.3125 2.9375,-0.421875 2.9375,-0.78125 L 2.9375,-6.375 z"
               id="path21931" />
          </symbol>
        </g>
      </defs>
      <g
         id="textext-841a25ce-4">
        <g
           style="fill:#000000;fill-opacity:1"
           id="g21934">
          <use
             height="141.73228"
             width="372.04724"
             xlink:href="#textext-841a25ce-1"
             x="223.43201"
             y="134.765"
             id="use21936" />
        </g>
        <g
           style="fill:#000000;fill-opacity:1"
           id="g21938">
          <use
             height="141.73228"
             width="372.04724"
             xlink:href="#textext-841a25ce-3"
             x="231.181"
             y="134.765"
             id="use21940" />
        </g>
      </g>
    </g>
    <g
       id="g22647"
       transform="translate(31.76107,-82.330911)"
       ns0:preamble="/home/raghu/TIFR/Curves-on-rational-and-unirational-surfaces/figures/preample.tex"
       ns0:text="$-1$">
      <defs
         id="defs22649">
        <g
           id="g22651">
          <symbol
             style="overflow:visible"
             id="textext-26a98741-0"
             overflow="visible">
            <path
               id="path22654"
               d=""
               style="stroke:none" />
          </symbol>
          <symbol
             style="overflow:visible"
             id="textext-26a98741-1"
             overflow="visible">
            <path
               id="path22657"
               d="M 6.59375,-2.296875 C 6.734375,-2.296875 6.921875,-2.296875 6.921875,-2.5 C 6.921875,-2.6875 6.734375,-2.6875 6.59375,-2.6875 L 1.15625,-2.6875 C 1.015625,-2.6875 0.828125,-2.6875 0.828125,-2.5 C 0.828125,-2.296875 1.015625,-2.296875 1.15625,-2.296875 L 6.59375,-2.296875 z"
               style="stroke:none" />
          </symbol>
          <symbol
             style="overflow:visible"
             id="textext-26a98741-2"
             overflow="visible">
            <path
               id="path22660"
               d=""
               style="stroke:none" />
          </symbol>
          <symbol
             style="overflow:visible"
             id="textext-26a98741-3"
             overflow="visible">
            <path
               id="path22663"
               d="M 2.9375,-6.375 C 2.9375,-6.625 2.9375,-6.640625 2.703125,-6.640625 C 2.078125,-6 1.203125,-6 0.890625,-6 L 0.890625,-5.6875 C 1.09375,-5.6875 1.671875,-5.6875 2.1875,-5.953125 L 2.1875,-0.78125 C 2.1875,-0.421875 2.15625,-0.3125 1.265625,-0.3125 L 0.953125,-0.3125 L 0.953125,0 C 1.296875,-0.03125 2.15625,-0.03125 2.5625,-0.03125 C 2.953125,-0.03125 3.828125,-0.03125 4.171875,0 L 4.171875,-0.3125 L 3.859375,-0.3125 C 2.953125,-0.3125 2.9375,-0.421875 2.9375,-0.78125 L 2.9375,-6.375 z"
               style="stroke:none" />
          </symbol>
        </g>
      </defs>
      <g
         id="textext-26a98741-4">
        <g
           id="g22666"
           style="fill:#000000;fill-opacity:1">
          <use
             height="141.73228"
             width="372.04724"
             id="use22668"
             y="134.765"
             x="223.43201"
             xlink:href="#textext-26a98741-1" />
        </g>
        <g
           id="g22670"
           style="fill:#000000;fill-opacity:1">
          <use
             height="141.73228"
             width="372.04724"
             id="use22672"
             y="134.765"
             x="231.181"
             xlink:href="#textext-26a98741-3" />
        </g>
      </g>
    </g>
    <g
       id="g23309"
       ns0:preamble="/home/raghu/TIFR/Curves-on-rational-and-unirational-surfaces/figures/preample.tex"
       ns0:text="$H_{2}$"
       transform="translate(-154.37046,-70.392931)">
      <defs
         id="defs23311">
        <g
           id="g23313">
          <symbol
             id="textext-de425cb9-0"
             overflow="visible"
             style="overflow:visible">
            <path
               id="path23316"
               d=""
               style="stroke:none" />
          </symbol>
          <symbol
             id="textext-de425cb9-1"
             overflow="visible"
             style="overflow:visible">
            <path
               id="path23319"
               d="M 7.609375,-6.046875 C 7.703125,-6.40625 7.71875,-6.5 8.4375,-6.5 C 8.703125,-6.5 8.78125,-6.5 8.78125,-6.703125 C 8.78125,-6.8125 8.671875,-6.8125 8.640625,-6.8125 C 8.359375,-6.8125 7.640625,-6.78125 7.359375,-6.78125 C 7.078125,-6.78125 6.375,-6.8125 6.078125,-6.8125 C 6,-6.8125 5.890625,-6.8125 5.890625,-6.609375 C 5.890625,-6.5 5.984375,-6.5 6.171875,-6.5 C 6.1875,-6.5 6.375,-6.5 6.546875,-6.484375 C 6.734375,-6.453125 6.8125,-6.453125 6.8125,-6.3125 C 6.8125,-6.28125 6.8125,-6.265625 6.78125,-6.125 L 6.1875,-3.703125 L 3.140625,-3.703125 L 3.734375,-6.046875 C 3.8125,-6.40625 3.84375,-6.5 4.5625,-6.5 C 4.828125,-6.5 4.90625,-6.5 4.90625,-6.703125 C 4.90625,-6.8125 4.796875,-6.8125 4.765625,-6.8125 C 4.484375,-6.8125 3.765625,-6.78125 3.484375,-6.78125 C 3.203125,-6.78125 2.5,-6.8125 2.203125,-6.8125 C 2.125,-6.8125 2.015625,-6.8125 2.015625,-6.609375 C 2.015625,-6.5 2.109375,-6.5 2.296875,-6.5 C 2.3125,-6.5 2.5,-6.5 2.671875,-6.484375 C 2.84375,-6.453125 2.9375,-6.453125 2.9375,-6.3125 C 2.9375,-6.28125 2.9375,-6.25 2.90625,-6.125 L 1.5625,-0.78125 C 1.46875,-0.390625 1.453125,-0.3125 0.65625,-0.3125 C 0.484375,-0.3125 0.390625,-0.3125 0.390625,-0.109375 C 0.390625,0 0.515625,0 0.53125,0 C 0.8125,0 1.515625,-0.03125 1.796875,-0.03125 C 2,-0.03125 2.21875,-0.015625 2.4375,-0.015625 C 2.65625,-0.015625 2.875,0 3.078125,0 C 3.15625,0 3.28125,0 3.28125,-0.203125 C 3.28125,-0.3125 3.1875,-0.3125 3,-0.3125 C 2.625,-0.3125 2.359375,-0.3125 2.359375,-0.484375 C 2.359375,-0.546875 2.375,-0.59375 2.375,-0.65625 L 3.0625,-3.390625 L 6.09375,-3.390625 C 5.6875,-1.734375 5.453125,-0.78125 5.40625,-0.640625 C 5.3125,-0.3125 5.125,-0.3125 4.5,-0.3125 C 4.359375,-0.3125 4.265625,-0.3125 4.265625,-0.109375 C 4.265625,0 4.390625,0 4.40625,0 C 4.6875,0 5.390625,-0.03125 5.671875,-0.03125 C 5.875,-0.03125 6.09375,-0.015625 6.3125,-0.015625 C 6.53125,-0.015625 6.75,0 6.953125,0 C 7.03125,0 7.15625,0 7.15625,-0.203125 C 7.15625,-0.3125 7.0625,-0.3125 6.875,-0.3125 C 6.515625,-0.3125 6.234375,-0.3125 6.234375,-0.484375 C 6.234375,-0.546875 6.25,-0.59375 6.265625,-0.65625 L 7.609375,-6.046875 z"
               style="stroke:none" />
          </symbol>
          <symbol
             id="textext-de425cb9-2"
             overflow="visible"
             style="overflow:visible">
            <path
               id="path23322"
               d=""
               style="stroke:none" />
          </symbol>
          <symbol
             id="textext-de425cb9-3"
             overflow="visible"
             style="overflow:visible">
            <path
               id="path23325"
               d="M 3.515625,-1.265625 L 3.28125,-1.265625 C 3.265625,-1.109375 3.1875,-0.703125 3.09375,-0.640625 C 3.046875,-0.59375 2.515625,-0.59375 2.40625,-0.59375 L 1.125,-0.59375 C 1.859375,-1.234375 2.109375,-1.4375 2.515625,-1.765625 C 3.03125,-2.171875 3.515625,-2.609375 3.515625,-3.265625 C 3.515625,-4.109375 2.78125,-4.625 1.890625,-4.625 C 1.03125,-4.625 0.4375,-4.015625 0.4375,-3.375 C 0.4375,-3.03125 0.734375,-2.984375 0.8125,-2.984375 C 0.96875,-2.984375 1.171875,-3.109375 1.171875,-3.359375 C 1.171875,-3.484375 1.125,-3.734375 0.765625,-3.734375 C 0.984375,-4.21875 1.453125,-4.375 1.78125,-4.375 C 2.484375,-4.375 2.84375,-3.828125 2.84375,-3.265625 C 2.84375,-2.65625 2.40625,-2.1875 2.1875,-1.9375 L 0.515625,-0.265625 C 0.4375,-0.203125 0.4375,-0.1875 0.4375,0 L 3.3125,0 L 3.515625,-1.265625 z"
               style="stroke:none" />
          </symbol>
        </g>
      </defs>
      <g
         id="textext-de425cb9-4">
        <g
           id="g23328"
           style="fill:#000000;fill-opacity:1">
          <use
             id="use23330"
             y="134.765"
             x="223.43201"
             xlink:href="#textext-de425cb9-1"
             width="372.04724"
             height="141.73228" />
        </g>
        <g
           id="g23332"
           style="fill:#000000;fill-opacity:1">
          <use
             id="use23334"
             y="136.259"
             x="231.714"
             xlink:href="#textext-de425cb9-3"
             width="372.04724"
             height="141.73228" />
        </g>
      </g>
    </g>
    <g
       id="g25023"
       ns0:preamble="/home/raghu/TIFR/Curves-on-rational-and-unirational-surfaces/figures/preample.tex"
       ns0:text="$G_{1}$"
       transform="translate(-14.819564,-69.157967)">
      <defs
         id="defs25025">
        <g
           id="g25027">
          <symbol
             id="textext-201620e3-0"
             overflow="visible"
             style="overflow:visible">
            <path
               id="path25030"
               d=""
               style="stroke:none" />
          </symbol>
          <symbol
             id="textext-201620e3-1"
             overflow="visible"
             style="overflow:visible">
            <path
               id="path25033"
               d="M 7.578125,-6.921875 C 7.578125,-6.953125 7.5625,-7.03125 7.46875,-7.03125 C 7.4375,-7.03125 7.421875,-7.015625 7.3125,-6.90625 L 6.625,-6.140625 C 6.53125,-6.28125 6.078125,-7.03125 4.96875,-7.03125 C 2.734375,-7.03125 0.5,-4.828125 0.5,-2.515625 C 0.5,-0.921875 1.609375,0.21875 3.21875,0.21875 C 3.65625,0.21875 4.109375,0.125 4.46875,-0.015625 C 4.96875,-0.21875 5.15625,-0.421875 5.328125,-0.625 C 5.421875,-0.375 5.6875,-0.015625 5.78125,-0.015625 C 5.828125,-0.015625 5.859375,-0.046875 5.859375,-0.046875 C 5.875,-0.0625 5.96875,-0.453125 6.015625,-0.65625 L 6.203125,-1.421875 C 6.25,-1.59375 6.296875,-1.765625 6.34375,-1.9375 C 6.453125,-2.375 6.453125,-2.40625 7.03125,-2.40625 C 7.078125,-2.40625 7.1875,-2.421875 7.1875,-2.609375 C 7.1875,-2.6875 7.140625,-2.71875 7.0625,-2.71875 C 6.828125,-2.71875 6.234375,-2.6875 6.015625,-2.6875 C 5.703125,-2.6875 4.921875,-2.71875 4.609375,-2.71875 C 4.53125,-2.71875 4.40625,-2.71875 4.40625,-2.515625 C 4.40625,-2.40625 4.484375,-2.40625 4.703125,-2.40625 C 4.71875,-2.40625 5,-2.40625 5.234375,-2.390625 C 5.5,-2.359375 5.546875,-2.328125 5.546875,-2.203125 C 5.546875,-2.109375 5.4375,-1.671875 5.328125,-1.296875 C 5.046875,-0.203125 3.765625,-0.09375 3.40625,-0.09375 C 2.453125,-0.09375 1.40625,-0.65625 1.40625,-2.1875 C 1.40625,-2.5 1.5,-4.140625 2.546875,-5.4375 C 3.09375,-6.109375 4.0625,-6.71875 5.046875,-6.71875 C 6.0625,-6.71875 6.65625,-5.953125 6.65625,-4.796875 C 6.65625,-4.390625 6.625,-4.390625 6.625,-4.28125 C 6.625,-4.1875 6.734375,-4.1875 6.765625,-4.1875 C 6.890625,-4.1875 6.890625,-4.203125 6.953125,-4.390625 L 7.578125,-6.921875 z"
               style="stroke:none" />
          </symbol>
          <symbol
             id="textext-201620e3-2"
             overflow="visible"
             style="overflow:visible">
            <path
               id="path25036"
               d=""
               style="stroke:none" />
          </symbol>
          <symbol
             id="textext-201620e3-3"
             overflow="visible"
             style="overflow:visible">
            <path
               id="path25039"
               d="M 2.328125,-4.4375 C 2.328125,-4.625 2.328125,-4.625 2.125,-4.625 C 1.671875,-4.1875 1.046875,-4.1875 0.765625,-4.1875 L 0.765625,-3.9375 C 0.921875,-3.9375 1.390625,-3.9375 1.765625,-4.125 L 1.765625,-0.578125 C 1.765625,-0.34375 1.765625,-0.25 1.078125,-0.25 L 0.8125,-0.25 L 0.8125,0 C 0.9375,0 1.796875,-0.03125 2.046875,-0.03125 C 2.265625,-0.03125 3.140625,0 3.296875,0 L 3.296875,-0.25 L 3.03125,-0.25 C 2.328125,-0.25 2.328125,-0.34375 2.328125,-0.578125 L 2.328125,-4.4375 z"
               style="stroke:none" />
          </symbol>
        </g>
      </defs>
      <g
         id="textext-201620e3-4">
        <g
           id="g25042"
           style="fill:#000000;fill-opacity:1">
          <use
             id="use25044"
             y="134.765"
             x="223.43201"
             xlink:href="#textext-201620e3-1"
             width="372.04724"
             height="141.73228" />
        </g>
        <g
           id="g25046"
           style="fill:#000000;fill-opacity:1">
          <use
             id="use25048"
             y="136.259"
             x="231.265"
             xlink:href="#textext-201620e3-3"
             width="372.04724"
             height="141.73228" />
        </g>
      </g>
    </g>
    <g
       transform="translate(-201.71073,-56.338401)"
       ns0:text="$S_{1}$"
       ns0:preamble="/home/raghu/TIFR/Curves-on-rational-and-unirational-surfaces/figures/preample.tex"
       id="g25415">
      <defs
         id="defs25417">
        <g
           id="g25419">
          <symbol
             style="overflow:visible"
             overflow="visible"
             id="textext-9f915eed-0">
            <path
               style="stroke:none"
               d=""
               id="path25422" />
          </symbol>
          <symbol
             style="overflow:visible"
             overflow="visible"
             id="textext-9f915eed-1">
            <path
               style="stroke:none"
               d="M 6.4375,-6.921875 C 6.4375,-6.953125 6.40625,-7.03125 6.3125,-7.03125 C 6.265625,-7.03125 6.265625,-7.015625 6.140625,-6.875 L 5.65625,-6.3125 C 5.40625,-6.78125 4.890625,-7.03125 4.234375,-7.03125 C 2.96875,-7.03125 1.78125,-5.875 1.78125,-4.671875 C 1.78125,-3.875 2.296875,-3.40625 2.8125,-3.265625 L 3.875,-2.984375 C 4.25,-2.890625 4.796875,-2.734375 4.796875,-1.921875 C 4.796875,-1.03125 3.984375,-0.09375 3,-0.09375 C 2.359375,-0.09375 1.25,-0.3125 1.25,-1.546875 C 1.25,-1.78125 1.3125,-2.03125 1.3125,-2.078125 C 1.328125,-2.125 1.328125,-2.140625 1.328125,-2.15625 C 1.328125,-2.25 1.265625,-2.265625 1.21875,-2.265625 C 1.171875,-2.265625 1.140625,-2.25 1.109375,-2.21875 C 1.078125,-2.1875 0.515625,0.09375 0.515625,0.125 C 0.515625,0.171875 0.5625,0.21875 0.625,0.21875 C 0.671875,0.21875 0.6875,0.203125 0.8125,0.0625 L 1.296875,-0.5 C 1.71875,0.078125 2.40625,0.21875 2.984375,0.21875 C 4.34375,0.21875 5.515625,-1.109375 5.515625,-2.34375 C 5.515625,-3.03125 5.171875,-3.375 5.03125,-3.515625 C 4.796875,-3.734375 4.640625,-3.78125 3.765625,-4 C 3.53125,-4.0625 3.1875,-4.171875 3.09375,-4.1875 C 2.828125,-4.28125 2.484375,-4.5625 2.484375,-5.09375 C 2.484375,-5.90625 3.28125,-6.75 4.234375,-6.75 C 5.046875,-6.75 5.65625,-6.3125 5.65625,-5.203125 C 5.65625,-4.890625 5.625,-4.703125 5.625,-4.640625 C 5.625,-4.640625 5.625,-4.546875 5.734375,-4.546875 C 5.84375,-4.546875 5.859375,-4.578125 5.890625,-4.75 L 6.4375,-6.921875 z"
               id="path25425" />
          </symbol>
          <symbol
             style="overflow:visible"
             overflow="visible"
             id="textext-9f915eed-2">
            <path
               style="stroke:none"
               d=""
               id="path25428" />
          </symbol>
          <symbol
             style="overflow:visible"
             overflow="visible"
             id="textext-9f915eed-3">
            <path
               style="stroke:none"
               d="M 2.328125,-4.4375 C 2.328125,-4.625 2.328125,-4.625 2.125,-4.625 C 1.671875,-4.1875 1.046875,-4.1875 0.765625,-4.1875 L 0.765625,-3.9375 C 0.921875,-3.9375 1.390625,-3.9375 1.765625,-4.125 L 1.765625,-0.578125 C 1.765625,-0.34375 1.765625,-0.25 1.078125,-0.25 L 0.8125,-0.25 L 0.8125,0 C 0.9375,0 1.796875,-0.03125 2.046875,-0.03125 C 2.265625,-0.03125 3.140625,0 3.296875,0 L 3.296875,-0.25 L 3.03125,-0.25 C 2.328125,-0.25 2.328125,-0.34375 2.328125,-0.578125 L 2.328125,-4.4375 z"
               id="path25431" />
          </symbol>
        </g>
      </defs>
      <g
         id="textext-9f915eed-4">
        <g
           style="fill:#000000;fill-opacity:1"
           id="g25434">
          <use
             height="141.73228"
             width="372.04724"
             xlink:href="#textext-9f915eed-1"
             x="223.43201"
             y="134.765"
             id="use25436" />
        </g>
        <g
           style="fill:#000000;fill-opacity:1"
           id="g25438">
          <use
             height="141.73228"
             width="372.04724"
             xlink:href="#textext-9f915eed-3"
             x="229.541"
             y="136.259"
             id="use25440" />
        </g>
      </g>
    </g>
    <g
       id="g25684"
       transform="translate(34.28927,-56.338401)"
       ns0:preamble="/home/raghu/TIFR/Curves-on-rational-and-unirational-surfaces/figures/preample.tex"
       ns0:text="$S_{2}$">
      <defs
         id="defs25686">
        <g
           id="g25688">
          <symbol
             id="textext-c2e92fca-0"
             overflow="visible">
            <path
               id="path25691"
               d=""
               style="stroke:none;" />
          </symbol>
          <symbol
             id="textext-c2e92fca-1"
             overflow="visible">
            <path
               id="path25694"
               d="M 6.4375 -6.921875 C 6.4375 -6.953125 6.40625 -7.03125 6.3125 -7.03125 C 6.265625 -7.03125 6.265625 -7.015625 6.140625 -6.875 L 5.65625 -6.3125 C 5.40625 -6.78125 4.890625 -7.03125 4.234375 -7.03125 C 2.96875 -7.03125 1.78125 -5.875 1.78125 -4.671875 C 1.78125 -3.875 2.296875 -3.40625 2.8125 -3.265625 L 3.875 -2.984375 C 4.25 -2.890625 4.796875 -2.734375 4.796875 -1.921875 C 4.796875 -1.03125 3.984375 -0.09375 3 -0.09375 C 2.359375 -0.09375 1.25 -0.3125 1.25 -1.546875 C 1.25 -1.78125 1.3125 -2.03125 1.3125 -2.078125 C 1.328125 -2.125 1.328125 -2.140625 1.328125 -2.15625 C 1.328125 -2.25 1.265625 -2.265625 1.21875 -2.265625 C 1.171875 -2.265625 1.140625 -2.25 1.109375 -2.21875 C 1.078125 -2.1875 0.515625 0.09375 0.515625 0.125 C 0.515625 0.171875 0.5625 0.21875 0.625 0.21875 C 0.671875 0.21875 0.6875 0.203125 0.8125 0.0625 L 1.296875 -0.5 C 1.71875 0.078125 2.40625 0.21875 2.984375 0.21875 C 4.34375 0.21875 5.515625 -1.109375 5.515625 -2.34375 C 5.515625 -3.03125 5.171875 -3.375 5.03125 -3.515625 C 4.796875 -3.734375 4.640625 -3.78125 3.765625 -4 C 3.53125 -4.0625 3.1875 -4.171875 3.09375 -4.1875 C 2.828125 -4.28125 2.484375 -4.5625 2.484375 -5.09375 C 2.484375 -5.90625 3.28125 -6.75 4.234375 -6.75 C 5.046875 -6.75 5.65625 -6.3125 5.65625 -5.203125 C 5.65625 -4.890625 5.625 -4.703125 5.625 -4.640625 C 5.625 -4.640625 5.625 -4.546875 5.734375 -4.546875 C 5.84375 -4.546875 5.859375 -4.578125 5.890625 -4.75 L 6.4375 -6.921875 Z M 6.4375 -6.921875 "
               style="stroke:none;" />
          </symbol>
          <symbol
             id="textext-c2e92fca-2"
             overflow="visible">
            <path
               id="path25697"
               d=""
               style="stroke:none;" />
          </symbol>
          <symbol
             id="textext-c2e92fca-3"
             overflow="visible">
            <path
               id="path25700"
               d="M 3.515625 -1.265625 L 3.28125 -1.265625 C 3.265625 -1.109375 3.1875 -0.703125 3.09375 -0.640625 C 3.046875 -0.59375 2.515625 -0.59375 2.40625 -0.59375 L 1.125 -0.59375 C 1.859375 -1.234375 2.109375 -1.4375 2.515625 -1.765625 C 3.03125 -2.171875 3.515625 -2.609375 3.515625 -3.265625 C 3.515625 -4.109375 2.78125 -4.625 1.890625 -4.625 C 1.03125 -4.625 0.4375 -4.015625 0.4375 -3.375 C 0.4375 -3.03125 0.734375 -2.984375 0.8125 -2.984375 C 0.96875 -2.984375 1.171875 -3.109375 1.171875 -3.359375 C 1.171875 -3.484375 1.125 -3.734375 0.765625 -3.734375 C 0.984375 -4.21875 1.453125 -4.375 1.78125 -4.375 C 2.484375 -4.375 2.84375 -3.828125 2.84375 -3.265625 C 2.84375 -2.65625 2.40625 -2.1875 2.1875 -1.9375 L 0.515625 -0.265625 C 0.4375 -0.203125 0.4375 -0.1875 0.4375 0 L 3.3125 0 L 3.515625 -1.265625 Z M 3.515625 -1.265625 "
               style="stroke:none;" />
          </symbol>
        </g>
      </defs>
      <g
         id="textext-c2e92fca-4">
        <g
           id="g25703"
           style="fill:rgb(0%,0%,0%);fill-opacity:1;">
          <use
             id="use25705"
             y="134.765"
             x="223.432"
             xlink:href="#textext-c2e92fca-1" />
        </g>
        <g
           id="g25707"
           style="fill:rgb(0%,0%,0%);fill-opacity:1;">
          <use
             id="use25709"
             y="136.259"
             x="229.541"
             xlink:href="#textext-c2e92fca-3" />
        </g>
      </g>
    </g>
    <g
       transform="translate(-81.919258,2.8815819)"
       ns0:text="$\\Delta\'$"
       ns0:preamble="/home/raghu/TIFR/Curves-on-rational-and-unirational-surfaces/figures/preample.tex"
       id="g25953">
      <defs
         id="defs25955">
        <g
           id="g25957">
          <symbol
             style="overflow:visible"
             overflow="visible"
             id="textext-6cb0a891-0">
            <path
               style="stroke:none"
               d=""
               id="path25960" />
          </symbol>
          <symbol
             style="overflow:visible"
             overflow="visible"
             id="textext-6cb0a891-1">
            <path
               style="stroke:none"
               d="M 4.40625,-6.953125 C 4.34375,-7.09375 4.3125,-7.140625 4.140625,-7.140625 C 3.984375,-7.140625 3.953125,-7.09375 3.890625,-6.953125 L 0.515625,-0.203125 C 0.46875,-0.109375 0.46875,-0.09375 0.46875,-0.078125 C 0.46875,0 0.53125,0 0.6875,0 L 7.609375,0 C 7.765625,0 7.828125,0 7.828125,-0.078125 C 7.828125,-0.09375 7.828125,-0.109375 7.78125,-0.203125 L 4.40625,-6.953125 z M 3.828125,-6.140625 L 6.515625,-0.75 L 1.140625,-0.75 L 3.828125,-6.140625 z"
               id="path25963" />
          </symbol>
          <symbol
             style="overflow:visible"
             overflow="visible"
             id="textext-6cb0a891-2">
            <path
               style="stroke:none"
               d=""
               id="path25966" />
          </symbol>
          <symbol
             style="overflow:visible"
             overflow="visible"
             id="textext-6cb0a891-3">
            <path
               style="stroke:none"
               d="M 2.03125,-3.296875 C 2.0625,-3.359375 2.078125,-3.421875 2.078125,-3.515625 C 2.078125,-3.734375 1.890625,-3.890625 1.671875,-3.890625 C 1.390625,-3.890625 1.328125,-3.671875 1.296875,-3.578125 L 0.375,-0.5625 C 0.359375,-0.53125 0.328125,-0.453125 0.328125,-0.4375 C 0.328125,-0.359375 0.546875,-0.28125 0.609375,-0.28125 C 0.65625,-0.28125 0.6875,-0.328125 0.703125,-0.390625 L 2.03125,-3.296875 z"
               id="path25969" />
          </symbol>
        </g>
      </defs>
      <g
         id="textext-6cb0a891-4">
        <g
           style="fill:#000000;fill-opacity:1"
           id="g25972">
          <use
             height="141.73228"
             width="372.04724"
             xlink:href="#textext-6cb0a891-1"
             x="223.43201"
             y="134.765"
             id="use25974" />
        </g>
        <g
           style="fill:#000000;fill-opacity:1"
           id="g25976">
          <use
             height="141.73228"
             width="372.04724"
             xlink:href="#textext-6cb0a891-3"
             x="231.73399"
             y="131.14999"
             id="use25978" />
        </g>
      </g>
    </g>
    <g
       id="g26254"
       ns0:preamble="/home/raghu/TIFR/Curves-on-rational-and-unirational-surfaces/figures/preample.tex"
       ns0:text="$-(q_{2}+1)$"
       transform="translate(-121.43811,-83.977532)">
      <defs
         id="defs26256">
        <g
           id="g26258">
          <symbol
             id="textext-530b6d8e-0"
             overflow="visible"
             style="overflow:visible">
            <path
               id="path26261"
               d=""
               style="stroke:none" />
          </symbol>
          <symbol
             id="textext-530b6d8e-1"
             overflow="visible"
             style="overflow:visible">
            <path
               id="path26264"
               d="M 6.59375,-2.296875 C 6.734375,-2.296875 6.921875,-2.296875 6.921875,-2.5 C 6.921875,-2.6875 6.734375,-2.6875 6.59375,-2.6875 L 1.15625,-2.6875 C 1.015625,-2.6875 0.828125,-2.6875 0.828125,-2.5 C 0.828125,-2.296875 1.015625,-2.296875 1.15625,-2.296875 L 6.59375,-2.296875 z"
               style="stroke:none" />
          </symbol>
          <symbol
             id="textext-530b6d8e-2"
             overflow="visible"
             style="overflow:visible">
            <path
               id="path26267"
               d=""
               style="stroke:none" />
          </symbol>
          <symbol
             id="textext-530b6d8e-3"
             overflow="visible"
             style="overflow:visible">
            <path
               id="path26270"
               d="M 3.296875,2.390625 C 3.296875,2.359375 3.296875,2.34375 3.125,2.171875 C 1.890625,0.921875 1.5625,-0.96875 1.5625,-2.5 C 1.5625,-4.234375 1.9375,-5.96875 3.171875,-7.203125 C 3.296875,-7.328125 3.296875,-7.34375 3.296875,-7.375 C 3.296875,-7.453125 3.265625,-7.484375 3.203125,-7.484375 C 3.09375,-7.484375 2.203125,-6.796875 1.609375,-5.53125 C 1.109375,-4.4375 0.984375,-3.328125 0.984375,-2.5 C 0.984375,-1.71875 1.09375,-0.515625 1.640625,0.625 C 2.25,1.84375 3.09375,2.5 3.203125,2.5 C 3.265625,2.5 3.296875,2.46875 3.296875,2.390625 z"
               style="stroke:none" />
          </symbol>
          <symbol
             id="textext-530b6d8e-4"
             overflow="visible"
             style="overflow:visible">
            <path
               id="path26273"
               d="M 4.078125,-2.296875 L 6.859375,-2.296875 C 7,-2.296875 7.1875,-2.296875 7.1875,-2.5 C 7.1875,-2.6875 7,-2.6875 6.859375,-2.6875 L 4.078125,-2.6875 L 4.078125,-5.484375 C 4.078125,-5.625 4.078125,-5.8125 3.875,-5.8125 C 3.671875,-5.8125 3.671875,-5.625 3.671875,-5.484375 L 3.671875,-2.6875 L 0.890625,-2.6875 C 0.75,-2.6875 0.5625,-2.6875 0.5625,-2.5 C 0.5625,-2.296875 0.75,-2.296875 0.890625,-2.296875 L 3.671875,-2.296875 L 3.671875,0.5 C 3.671875,0.640625 3.671875,0.828125 3.875,0.828125 C 4.078125,0.828125 4.078125,0.640625 4.078125,0.5 L 4.078125,-2.296875 z"
               style="stroke:none" />
          </symbol>
          <symbol
             id="textext-530b6d8e-5"
             overflow="visible"
             style="overflow:visible">
            <path
               id="path26276"
               d="M 2.9375,-6.375 C 2.9375,-6.625 2.9375,-6.640625 2.703125,-6.640625 C 2.078125,-6 1.203125,-6 0.890625,-6 L 0.890625,-5.6875 C 1.09375,-5.6875 1.671875,-5.6875 2.1875,-5.953125 L 2.1875,-0.78125 C 2.1875,-0.421875 2.15625,-0.3125 1.265625,-0.3125 L 0.953125,-0.3125 L 0.953125,0 C 1.296875,-0.03125 2.15625,-0.03125 2.5625,-0.03125 C 2.953125,-0.03125 3.828125,-0.03125 4.171875,0 L 4.171875,-0.3125 L 3.859375,-0.3125 C 2.953125,-0.3125 2.9375,-0.421875 2.9375,-0.78125 L 2.9375,-6.375 z"
               style="stroke:none" />
          </symbol>
          <symbol
             id="textext-530b6d8e-6"
             overflow="visible"
             style="overflow:visible">
            <path
               id="path26279"
               d="M 2.875,-2.5 C 2.875,-3.265625 2.765625,-4.46875 2.21875,-5.609375 C 1.625,-6.828125 0.765625,-7.484375 0.671875,-7.484375 C 0.609375,-7.484375 0.5625,-7.4375 0.5625,-7.375 C 0.5625,-7.34375 0.5625,-7.328125 0.75,-7.140625 C 1.734375,-6.15625 2.296875,-4.578125 2.296875,-2.5 C 2.296875,-0.78125 1.9375,0.96875 0.703125,2.21875 C 0.5625,2.34375 0.5625,2.359375 0.5625,2.390625 C 0.5625,2.453125 0.609375,2.5 0.671875,2.5 C 0.765625,2.5 1.671875,1.8125 2.25,0.546875 C 2.765625,-0.546875 2.875,-1.65625 2.875,-2.5 z"
               style="stroke:none" />
          </symbol>
          <symbol
             id="textext-530b6d8e-7"
             overflow="visible"
             style="overflow:visible">
            <path
               id="path26282"
               d=""
               style="stroke:none" />
          </symbol>
          <symbol
             id="textext-530b6d8e-8"
             overflow="visible"
             style="overflow:visible">
            <path
               id="path26285"
               d="M 4.5,-4.296875 C 4.5,-4.34375 4.46875,-4.390625 4.40625,-4.390625 C 4.296875,-4.390625 3.890625,-4 3.734375,-3.703125 C 3.515625,-4.25 3.125,-4.40625 2.796875,-4.40625 C 1.625,-4.40625 0.40625,-2.9375 0.40625,-1.484375 C 0.40625,-0.515625 0.984375,0.109375 1.71875,0.109375 C 2.140625,0.109375 2.53125,-0.125 2.890625,-0.484375 C 2.796875,-0.140625 2.46875,1.203125 2.4375,1.296875 C 2.359375,1.578125 2.28125,1.609375 1.71875,1.625 C 1.59375,1.625 1.5,1.625 1.5,1.828125 C 1.5,1.828125 1.5,1.9375 1.625,1.9375 C 1.9375,1.9375 2.296875,1.90625 2.625,1.90625 C 2.953125,1.90625 3.3125,1.9375 3.65625,1.9375 C 3.703125,1.9375 3.828125,1.9375 3.828125,1.734375 C 3.828125,1.625 3.734375,1.625 3.5625,1.625 C 3.09375,1.625 3.09375,1.5625 3.09375,1.46875 C 3.09375,1.390625 3.109375,1.328125 3.125,1.25 L 4.5,-4.296875 z M 1.75,-0.109375 C 1.140625,-0.109375 1.109375,-0.875 1.109375,-1.046875 C 1.109375,-1.53125 1.390625,-2.609375 1.5625,-3.03125 C 1.875,-3.765625 2.390625,-4.1875 2.796875,-4.1875 C 3.453125,-4.1875 3.59375,-3.375 3.59375,-3.3125 C 3.59375,-3.25 3.046875,-1.0625 3.015625,-1.03125 C 2.859375,-0.75 2.296875,-0.109375 1.75,-0.109375 z"
               style="stroke:none" />
          </symbol>
          <symbol
             id="textext-530b6d8e-9"
             overflow="visible"
             style="overflow:visible">
            <path
               id="path26288"
               d=""
               style="stroke:none" />
          </symbol>
          <symbol
             id="textext-530b6d8e-10"
             overflow="visible"
             style="overflow:visible">
            <path
               id="path26291"
               d="M 3.515625,-1.265625 L 3.28125,-1.265625 C 3.265625,-1.109375 3.1875,-0.703125 3.09375,-0.640625 C 3.046875,-0.59375 2.515625,-0.59375 2.40625,-0.59375 L 1.125,-0.59375 C 1.859375,-1.234375 2.109375,-1.4375 2.515625,-1.765625 C 3.03125,-2.171875 3.515625,-2.609375 3.515625,-3.265625 C 3.515625,-4.109375 2.78125,-4.625 1.890625,-4.625 C 1.03125,-4.625 0.4375,-4.015625 0.4375,-3.375 C 0.4375,-3.03125 0.734375,-2.984375 0.8125,-2.984375 C 0.96875,-2.984375 1.171875,-3.109375 1.171875,-3.359375 C 1.171875,-3.484375 1.125,-3.734375 0.765625,-3.734375 C 0.984375,-4.21875 1.453125,-4.375 1.78125,-4.375 C 2.484375,-4.375 2.84375,-3.828125 2.84375,-3.265625 C 2.84375,-2.65625 2.40625,-2.1875 2.1875,-1.9375 L 0.515625,-0.265625 C 0.4375,-0.203125 0.4375,-0.1875 0.4375,0 L 3.3125,0 L 3.515625,-1.265625 z"
               style="stroke:none" />
          </symbol>
        </g>
      </defs>
      <g
         id="textext-530b6d8e-11">
        <g
           id="g26294"
           style="fill:#000000;fill-opacity:1">
          <use
             id="use26296"
             y="134.765"
             x="223.43201"
             xlink:href="#textext-530b6d8e-1"
             width="372.04724"
             height="141.73228" />
        </g>
        <g
           id="g26298"
           style="fill:#000000;fill-opacity:1">
          <use
             id="use26300"
             y="134.765"
             x="231.181"
             xlink:href="#textext-530b6d8e-3"
             width="372.04724"
             height="141.73228" />
        </g>
        <g
           id="g26302"
           style="fill:#000000;fill-opacity:1">
          <use
             id="use26304"
             y="134.765"
             x="235.05499"
             xlink:href="#textext-530b6d8e-8"
             width="372.04724"
             height="141.73228" />
        </g>
        <g
           id="g26306"
           style="fill:#000000;fill-opacity:1">
          <use
             id="use26308"
             y="136.259"
             x="239.50301"
             xlink:href="#textext-530b6d8e-10"
             width="372.04724"
             height="141.73228" />
        </g>
        <g
           id="g26310"
           style="fill:#000000;fill-opacity:1">
          <use
             id="use26312"
             y="134.765"
             x="246.186"
             xlink:href="#textext-530b6d8e-4"
             width="372.04724"
             height="141.73228" />
        </g>
        <g
           id="g26314"
           style="fill:#000000;fill-opacity:1">
          <use
             id="use26316"
             y="134.765"
             x="256.14661"
             xlink:href="#textext-530b6d8e-5"
             width="372.04724"
             height="141.73228" />
          <use
             id="use26318"
             y="134.765"
             x="261.1279"
             xlink:href="#textext-530b6d8e-6"
             width="372.04724"
             height="141.73228" />
        </g>
      </g>
    </g>
    <g
       ns0:text="$-1$"
       ns0:preamble="/home/raghu/TIFR/Curves-on-rational-and-unirational-surfaces/figures/preample.tex"
       transform="translate(-65.473895,-82.330911)"
       id="g26495">
      <defs
         id="defs26497">
        <g
           id="g26499">
          <symbol
             overflow="visible"
             id="symbol26501"
             style="overflow:visible">
            <path
               style="stroke:none"
               d=""
               id="path26503" />
          </symbol>
          <symbol
             overflow="visible"
             id="symbol26505"
             style="overflow:visible">
            <path
               style="stroke:none"
               d="M 6.59375,-2.296875 C 6.734375,-2.296875 6.921875,-2.296875 6.921875,-2.5 C 6.921875,-2.6875 6.734375,-2.6875 6.59375,-2.6875 L 1.15625,-2.6875 C 1.015625,-2.6875 0.828125,-2.6875 0.828125,-2.5 C 0.828125,-2.296875 1.015625,-2.296875 1.15625,-2.296875 L 6.59375,-2.296875 z"
               id="path26507" />
          </symbol>
          <symbol
             overflow="visible"
             id="symbol26509"
             style="overflow:visible">
            <path
               style="stroke:none"
               d=""
               id="path26511" />
          </symbol>
          <symbol
             overflow="visible"
             id="symbol26513"
             style="overflow:visible">
            <path
               style="stroke:none"
               d="M 2.9375,-6.375 C 2.9375,-6.625 2.9375,-6.640625 2.703125,-6.640625 C 2.078125,-6 1.203125,-6 0.890625,-6 L 0.890625,-5.6875 C 1.09375,-5.6875 1.671875,-5.6875 2.1875,-5.953125 L 2.1875,-0.78125 C 2.1875,-0.421875 2.15625,-0.3125 1.265625,-0.3125 L 0.953125,-0.3125 L 0.953125,0 C 1.296875,-0.03125 2.15625,-0.03125 2.5625,-0.03125 C 2.953125,-0.03125 3.828125,-0.03125 4.171875,0 L 4.171875,-0.3125 L 3.859375,-0.3125 C 2.953125,-0.3125 2.9375,-0.421875 2.9375,-0.78125 L 2.9375,-6.375 z"
               id="path26515" />
          </symbol>
        </g>
      </defs>
      <g
         id="g26517">
        <g
           style="fill:#000000;fill-opacity:1"
           id="g26519">
          <use
             xlink:href="#textext-26a98741-1"
             x="223.43201"
             y="134.765"
             id="use26521"
             width="372.04724"
             height="141.73228" />
        </g>
        <g
           style="fill:#000000;fill-opacity:1"
           id="g26523">
          <use
             xlink:href="#textext-26a98741-3"
             x="231.181"
             y="134.765"
             id="use26525"
             width="372.04724"
             height="141.73228" />
        </g>
      </g>
    </g>
    <g
       ns0:text="$E_{0}$"
       ns0:preamble="/home/raghu/TIFR/Curves-on-rational-and-unirational-surfaces/figures/preample.tex"
       transform="translate(-107.06225,-56.330911)"
       id="g26752">
      <defs
         id="defs26754">
        <g
           id="g26756">
          <symbol
             overflow="visible"
             id="textext-a3493aea-0">
            <path
               style="stroke:none;"
               d=""
               id="path26759" />
          </symbol>
          <symbol
             overflow="visible"
             id="textext-a3493aea-1">
            <path
               style="stroke:none;"
               d="M 7.0625 -2.328125 C 7.078125 -2.375 7.109375 -2.4375 7.109375 -2.46875 C 7.109375 -2.46875 7.109375 -2.578125 6.984375 -2.578125 C 6.890625 -2.578125 6.875 -2.515625 6.859375 -2.453125 C 6.203125 -0.984375 5.84375 -0.3125 4.140625 -0.3125 L 2.6875 -0.3125 C 2.546875 -0.3125 2.515625 -0.3125 2.46875 -0.3125 C 2.359375 -0.328125 2.328125 -0.34375 2.328125 -0.421875 C 2.328125 -0.453125 2.328125 -0.46875 2.375 -0.640625 L 3.0625 -3.375 L 4.046875 -3.375 C 4.890625 -3.375 4.890625 -3.15625 4.890625 -2.90625 C 4.890625 -2.84375 4.890625 -2.71875 4.828125 -2.421875 C 4.8125 -2.375 4.796875 -2.34375 4.796875 -2.3125 C 4.796875 -2.265625 4.828125 -2.203125 4.921875 -2.203125 C 5 -2.203125 5.03125 -2.25 5.078125 -2.40625 L 5.640625 -4.734375 C 5.640625 -4.796875 5.59375 -4.84375 5.515625 -4.84375 C 5.4375 -4.84375 5.40625 -4.78125 5.390625 -4.671875 C 5.171875 -3.90625 5 -3.671875 4.078125 -3.671875 L 3.140625 -3.671875 L 3.734375 -6.078125 C 3.828125 -6.4375 3.84375 -6.46875 4.28125 -6.46875 L 5.6875 -6.46875 C 6.890625 -6.46875 7.203125 -6.1875 7.203125 -5.359375 C 7.203125 -5.125 7.203125 -5.109375 7.15625 -4.828125 C 7.15625 -4.78125 7.140625 -4.703125 7.140625 -4.65625 C 7.140625 -4.609375 7.171875 -4.53125 7.265625 -4.53125 C 7.375 -4.53125 7.390625 -4.59375 7.40625 -4.78125 L 7.609375 -6.515625 C 7.640625 -6.78125 7.59375 -6.78125 7.34375 -6.78125 L 2.296875 -6.78125 C 2.109375 -6.78125 2 -6.78125 2 -6.578125 C 2 -6.46875 2.09375 -6.46875 2.28125 -6.46875 C 2.65625 -6.46875 2.9375 -6.46875 2.9375 -6.296875 C 2.9375 -6.25 2.9375 -6.234375 2.875 -6.046875 L 1.5625 -0.78125 C 1.46875 -0.390625 1.453125 -0.3125 0.65625 -0.3125 C 0.484375 -0.3125 0.375 -0.3125 0.375 -0.125 C 0.375 0 0.46875 0 0.65625 0 L 5.828125 0 C 6.0625 0 6.078125 -0.015625 6.140625 -0.171875 L 7.0625 -2.328125 Z M 7.0625 -2.328125 "
               id="path26762" />
          </symbol>
          <symbol
             overflow="visible"
             id="textext-a3493aea-2">
            <path
               style="stroke:none;"
               d=""
               id="path26765" />
          </symbol>
          <symbol
             overflow="visible"
             id="textext-a3493aea-3">
            <path
               style="stroke:none;"
               d="M 3.59375 -2.21875 C 3.59375 -2.984375 3.5 -3.546875 3.1875 -4.03125 C 2.96875 -4.34375 2.53125 -4.625 1.984375 -4.625 C 0.359375 -4.625 0.359375 -2.71875 0.359375 -2.21875 C 0.359375 -1.71875 0.359375 0.140625 1.984375 0.140625 C 3.59375 0.140625 3.59375 -1.71875 3.59375 -2.21875 Z M 1.984375 -0.0625 C 1.65625 -0.0625 1.234375 -0.25 1.09375 -0.8125 C 1 -1.21875 1 -1.796875 1 -2.3125 C 1 -2.828125 1 -3.359375 1.09375 -3.734375 C 1.25 -4.28125 1.6875 -4.4375 1.984375 -4.4375 C 2.359375 -4.4375 2.71875 -4.203125 2.84375 -3.796875 C 2.953125 -3.421875 2.96875 -2.921875 2.96875 -2.3125 C 2.96875 -1.796875 2.96875 -1.28125 2.875 -0.84375 C 2.734375 -0.203125 2.265625 -0.0625 1.984375 -0.0625 Z M 1.984375 -0.0625 "
               id="path26768" />
          </symbol>
        </g>
      </defs>
      <g
         id="textext-a3493aea-4">
        <g
           style="fill:rgb(0%,0%,0%);fill-opacity:1;"
           id="g26771">
          <use
             xlink:href="#textext-a3493aea-1"
             x="223.432"
             y="134.765"
             id="use26773" />
        </g>
        <g
           style="fill:rgb(0%,0%,0%);fill-opacity:1;"
           id="g26775">
          <use
             xlink:href="#textext-a3493aea-3"
             x="230.786"
             y="136.259"
             id="use26777" />
        </g>
      </g>
    </g>
    <g
       id="g27227"
       transform="translate(-65.06225,-56.330911)"
       ns0:preamble="/home/raghu/TIFR/Curves-on-rational-and-unirational-surfaces/figures/preample.tex"
       ns0:text="$F_{0}$">
      <defs
         id="defs27229">
        <g
           id="g27231">
          <symbol
             id="textext-8e8dc960-0"
             overflow="visible">
            <path
               id="path27234"
               d=""
               style="stroke:none;" />
          </symbol>
          <symbol
             id="textext-8e8dc960-1"
             overflow="visible">
            <path
               id="path27237"
               d="M 3.015625 -3.234375 L 3.984375 -3.234375 C 4.734375 -3.234375 4.8125 -3.078125 4.8125 -2.796875 C 4.8125 -2.71875 4.8125 -2.609375 4.75 -2.296875 C 4.71875 -2.25 4.71875 -2.21875 4.71875 -2.1875 C 4.71875 -2.109375 4.78125 -2.078125 4.828125 -2.078125 C 4.9375 -2.078125 4.9375 -2.109375 4.984375 -2.28125 L 5.53125 -4.453125 C 5.5625 -4.5625 5.5625 -4.578125 5.5625 -4.609375 C 5.5625 -4.625 5.546875 -4.71875 5.4375 -4.71875 C 5.34375 -4.71875 5.328125 -4.671875 5.296875 -4.5 C 5.078125 -3.734375 4.859375 -3.546875 4 -3.546875 L 3.09375 -3.546875 L 3.734375 -6.078125 C 3.828125 -6.4375 3.84375 -6.46875 4.28125 -6.46875 L 5.59375 -6.46875 C 6.8125 -6.46875 7.046875 -6.140625 7.046875 -5.375 C 7.046875 -5.140625 7.046875 -5.109375 7.015625 -4.828125 C 7 -4.703125 7 -4.6875 7 -4.65625 C 7 -4.609375 7.03125 -4.53125 7.125 -4.53125 C 7.234375 -4.53125 7.234375 -4.59375 7.25 -4.78125 L 7.453125 -6.515625 C 7.484375 -6.78125 7.4375 -6.78125 7.1875 -6.78125 L 2.296875 -6.78125 C 2.109375 -6.78125 2 -6.78125 2 -6.578125 C 2 -6.46875 2.09375 -6.46875 2.28125 -6.46875 C 2.65625 -6.46875 2.9375 -6.46875 2.9375 -6.296875 C 2.9375 -6.25 2.9375 -6.234375 2.875 -6.046875 L 1.5625 -0.78125 C 1.46875 -0.390625 1.453125 -0.3125 0.65625 -0.3125 C 0.484375 -0.3125 0.375 -0.3125 0.375 -0.125 C 0.375 0 0.5 0 0.53125 0 C 0.8125 0 1.5625 -0.03125 1.84375 -0.03125 C 2.171875 -0.03125 3 0 3.328125 0 C 3.421875 0 3.53125 0 3.53125 -0.1875 C 3.53125 -0.265625 3.484375 -0.296875 3.484375 -0.296875 C 3.453125 -0.3125 3.421875 -0.3125 3.203125 -0.3125 C 2.984375 -0.3125 2.9375 -0.3125 2.6875 -0.328125 C 2.390625 -0.359375 2.359375 -0.40625 2.359375 -0.53125 C 2.359375 -0.546875 2.359375 -0.609375 2.40625 -0.75 L 3.015625 -3.234375 Z M 3.015625 -3.234375 "
               style="stroke:none;" />
          </symbol>
          <symbol
             id="textext-8e8dc960-2"
             overflow="visible">
            <path
               id="path27240"
               d=""
               style="stroke:none;" />
          </symbol>
          <symbol
             id="textext-8e8dc960-3"
             overflow="visible">
            <path
               id="path27243"
               d="M 3.59375 -2.21875 C 3.59375 -2.984375 3.5 -3.546875 3.1875 -4.03125 C 2.96875 -4.34375 2.53125 -4.625 1.984375 -4.625 C 0.359375 -4.625 0.359375 -2.71875 0.359375 -2.21875 C 0.359375 -1.71875 0.359375 0.140625 1.984375 0.140625 C 3.59375 0.140625 3.59375 -1.71875 3.59375 -2.21875 Z M 1.984375 -0.0625 C 1.65625 -0.0625 1.234375 -0.25 1.09375 -0.8125 C 1 -1.21875 1 -1.796875 1 -2.3125 C 1 -2.828125 1 -3.359375 1.09375 -3.734375 C 1.25 -4.28125 1.6875 -4.4375 1.984375 -4.4375 C 2.359375 -4.4375 2.71875 -4.203125 2.84375 -3.796875 C 2.953125 -3.421875 2.96875 -2.921875 2.96875 -2.3125 C 2.96875 -1.796875 2.96875 -1.28125 2.875 -0.84375 C 2.734375 -0.203125 2.265625 -0.0625 1.984375 -0.0625 Z M 1.984375 -0.0625 "
               style="stroke:none;" />
          </symbol>
        </g>
      </defs>
      <g
         id="textext-8e8dc960-4">
        <g
           id="g27246"
           style="fill:rgb(0%,0%,0%);fill-opacity:1;">
          <use
             id="use27248"
             y="134.765"
             x="223.432"
             xlink:href="#textext-8e8dc960-1" />
        </g>
        <g
           id="g27250"
           style="fill:rgb(0%,0%,0%);fill-opacity:1;">
          <use
             id="use27252"
             y="136.259"
             x="229.839"
             xlink:href="#textext-8e8dc960-3" />
        </g>
      </g>
    </g>
  </g>
</svg>
