<?xml version="1.0" encoding="UTF-8" standalone="no"?>
<!-- Created with Inkscape (http://www.inkscape.org/) -->
<svg
   xmlns:ns0="http://www.iki.fi/pav/software/textext/"
   xmlns:dc="http://purl.org/dc/elements/1.1/"
   xmlns:cc="http://creativecommons.org/ns#"
   xmlns:rdf="http://www.w3.org/1999/02/22-rdf-syntax-ns#"
   xmlns:svg="http://www.w3.org/2000/svg"
   xmlns="http://www.w3.org/2000/svg"
   xmlns:xlink="http://www.w3.org/1999/xlink"
   xmlns:sodipodi="http://sodipodi.sourceforge.net/DTD/sodipodi-0.dtd"
   xmlns:inkscape="http://www.inkscape.org/namespaces/inkscape"
   width="372.04724"
   height="212.59842"
   id="svg2"
   sodipodi:version="0.32"
   inkscape:version="0.46"
   version="1.0"
   sodipodi:docname="chap2-fig19.svg"
   inkscape:output_extension="org.inkscape.output.svg.inkscape">
  <sodipodi:namedview
     id="base"
     pagecolor="#ffffff"
     bordercolor="#666666"
     borderopacity="1.0"
     gridtolerance="10000"
     guidetolerance="10"
     objecttolerance="10"
     inkscape:pageopacity="0.0"
     inkscape:pageshadow="2"
     inkscape:zoom="2.5992668"
     inkscape:cx="129.73717"
     inkscape:cy="111.06491"
     inkscape:document-units="px"
     inkscape:current-layer="layer1"
     showgrid="false"
     units="cm"
     inkscape:window-width="1009"
     inkscape:window-height="726"
     inkscape:window-x="5"
     inkscape:window-y="27" />
  <defs
     id="defs4">
    <inkscape:perspective
       sodipodi:type="inkscape:persp3d"
       inkscape:vp_x="0 : 526.18109 : 1"
       inkscape:vp_y="0 : 1000 : 0"
       inkscape:vp_z="744.09448 : 526.18109 : 1"
       inkscape:persp3d-origin="372.04724 : 350.78739 : 1"
       id="perspective10" />
  </defs>
  <metadata
     id="metadata7">
    <rdf:RDF>
      <cc:Work
         rdf:about="">
        <dc:format>image/svg+xml</dc:format>
        <dc:type
           rdf:resource="http://purl.org/dc/dcmitype/StillImage" />
      </cc:Work>
    </rdf:RDF>
  </metadata>
  <g
     inkscape:label="Layer 1"
     inkscape:groupmode="layer"
     id="layer1">
    <path
       sodipodi:type="arc"
       style="fill:#ffffff;fill-opacity:1;fill-rule:evenodd;stroke:#000000;stroke-width:1.01099658;stroke-linecap:butt;stroke-linejoin:miter;marker:none;marker-start:none;marker-mid:none;marker-end:none;stroke-miterlimit:4;stroke-dasharray:none;stroke-dashoffset:0;stroke-opacity:1;visibility:visible;display:inline;overflow:visible;enable-background:accumulate"
       id="path32841"
       sodipodi:cx="43.858521"
       sodipodi:cy="38.318504"
       sodipodi:rx="2.3083432"
       sodipodi:ry="2.3083432"
       d="M 46.166864,38.318504 A 2.3083432,2.3083432 0 1 1 41.550177,38.318504 A 2.3083432,2.3083432 0 1 1 46.166864,38.318504 z"
       transform="matrix(0.989123,0,0,0.989123,86.209977,49.812857)" />
    <path
       style="fill:none;fill-rule:evenodd;stroke:#000000;stroke-width:1;stroke-linecap:butt;stroke-linejoin:miter;stroke-miterlimit:4;stroke-dasharray:none;stroke-opacity:1"
       d="M 131.95439,87.695242 L 181.46601,87.695242"
       id="path32843" />
    <path
       id="path33837"
       d="M 77.95439,87.695242 L 127.46601,87.695242"
       style="fill:none;fill-rule:evenodd;stroke:#000000;stroke-width:1;stroke-linecap:butt;stroke-linejoin:miter;stroke-miterlimit:4;stroke-dasharray:none;stroke-opacity:1" />
    <g
       id="g33878"
       ns0:preamble=""
       ns0:text="$q\'$"
       transform="translate(-96.565693,-55.784962)">
      <defs
         id="defs33880">
        <g
           id="g33882">
          <symbol
             id="textext-95c3dfce-0"
             overflow="visible"
             style="overflow:visible">
            <path
               id="path33885"
               d=""
               style="stroke:none" />
          </symbol>
          <symbol
             id="textext-95c3dfce-1"
             overflow="visible"
             style="overflow:visible">
            <path
               id="path33888"
               d="M 4.5,-4.296875 C 4.5,-4.34375 4.46875,-4.390625 4.40625,-4.390625 C 4.296875,-4.390625 3.890625,-4 3.734375,-3.703125 C 3.515625,-4.25 3.125,-4.40625 2.796875,-4.40625 C 1.625,-4.40625 0.40625,-2.9375 0.40625,-1.484375 C 0.40625,-0.515625 0.984375,0.109375 1.71875,0.109375 C 2.140625,0.109375 2.53125,-0.125 2.890625,-0.484375 C 2.796875,-0.140625 2.46875,1.203125 2.4375,1.296875 C 2.359375,1.578125 2.28125,1.609375 1.71875,1.625 C 1.59375,1.625 1.5,1.625 1.5,1.828125 C 1.5,1.828125 1.5,1.9375 1.625,1.9375 C 1.9375,1.9375 2.296875,1.90625 2.625,1.90625 C 2.953125,1.90625 3.3125,1.9375 3.65625,1.9375 C 3.703125,1.9375 3.828125,1.9375 3.828125,1.734375 C 3.828125,1.625 3.734375,1.625 3.5625,1.625 C 3.09375,1.625 3.09375,1.5625 3.09375,1.46875 C 3.09375,1.390625 3.109375,1.328125 3.125,1.25 L 4.5,-4.296875 z M 1.75,-0.109375 C 1.140625,-0.109375 1.109375,-0.875 1.109375,-1.046875 C 1.109375,-1.53125 1.390625,-2.609375 1.5625,-3.03125 C 1.875,-3.765625 2.390625,-4.1875 2.796875,-4.1875 C 3.453125,-4.1875 3.59375,-3.375 3.59375,-3.3125 C 3.59375,-3.25 3.046875,-1.0625 3.015625,-1.03125 C 2.859375,-0.75 2.296875,-0.109375 1.75,-0.109375 z"
               style="stroke:none" />
          </symbol>
          <symbol
             id="textext-95c3dfce-2"
             overflow="visible"
             style="overflow:visible">
            <path
               id="path33891"
               d=""
               style="stroke:none" />
          </symbol>
          <symbol
             id="textext-95c3dfce-3"
             overflow="visible"
             style="overflow:visible">
            <path
               id="path33894"
               d="M 2.03125,-3.296875 C 2.0625,-3.359375 2.078125,-3.421875 2.078125,-3.515625 C 2.078125,-3.734375 1.890625,-3.890625 1.671875,-3.890625 C 1.390625,-3.890625 1.328125,-3.671875 1.296875,-3.578125 L 0.375,-0.5625 C 0.359375,-0.53125 0.328125,-0.453125 0.328125,-0.4375 C 0.328125,-0.359375 0.546875,-0.28125 0.609375,-0.28125 C 0.65625,-0.28125 0.6875,-0.328125 0.703125,-0.390625 L 2.03125,-3.296875 z"
               style="stroke:none" />
          </symbol>
        </g>
      </defs>
      <g
         id="textext-95c3dfce-4">
        <g
           id="g33897"
           style="fill:#000000;fill-opacity:1">
          <use
             id="use33899"
             y="134.765"
             x="223.43201"
             xlink:href="#textext-95c3dfce-1"
             width="372.04724"
             height="212.59842" />
        </g>
        <g
           id="g33901"
           style="fill:#000000;fill-opacity:1">
          <use
             id="use33903"
             y="131.14999"
             x="228.237"
             xlink:href="#textext-95c3dfce-3"
             width="372.04724"
             height="212.59842" />
        </g>
      </g>
    </g>
    <g
       id="g34111"
       ns0:preamble=""
       ns0:text="$\\rho(D_{2})$"
       transform="translate(-105.79906,-30.77791)">
      <defs
         id="defs34113">
        <g
           id="g34115">
          <symbol
             id="textext-9ccb09a8-0"
             overflow="visible"
             style="overflow:visible">
            <path
               id="path34118"
               d=""
               style="stroke:none" />
          </symbol>
          <symbol
             id="textext-9ccb09a8-1"
             overflow="visible"
             style="overflow:visible">
            <path
               id="path34121"
               d="M 0.328125,1.71875 C 0.296875,1.84375 0.296875,1.859375 0.296875,1.890625 C 0.296875,2.03125 0.40625,2.15625 0.578125,2.15625 C 0.78125,2.15625 0.90625,1.96875 0.921875,1.9375 C 0.984375,1.859375 1.296875,0.515625 1.5625,-0.5625 C 1.765625,-0.15625 2.078125,0.109375 2.546875,0.109375 C 3.71875,0.109375 5,-1.296875 5,-2.78125 C 5,-3.84375 4.34375,-4.40625 3.625,-4.40625 C 2.65625,-4.40625 1.609375,-3.40625 1.3125,-2.1875 L 0.328125,1.71875 z M 2.546875,-0.109375 C 1.84375,-0.109375 1.6875,-0.90625 1.6875,-1 C 1.6875,-1.03125 1.734375,-1.234375 1.765625,-1.359375 C 2.046875,-2.484375 2.140625,-2.84375 2.359375,-3.234375 C 2.796875,-3.96875 3.296875,-4.1875 3.59375,-4.1875 C 3.96875,-4.1875 4.28125,-3.890625 4.28125,-3.203125 C 4.28125,-2.65625 4,-1.546875 3.734375,-1.0625 C 3.40625,-0.421875 2.921875,-0.109375 2.546875,-0.109375 z"
               style="stroke:none" />
          </symbol>
          <symbol
             id="textext-9ccb09a8-2"
             overflow="visible"
             style="overflow:visible">
            <path
               id="path34124"
               d="M 1.578125,-0.78125 C 1.484375,-0.390625 1.46875,-0.3125 0.671875,-0.3125 C 0.515625,-0.3125 0.40625,-0.3125 0.40625,-0.125 C 0.40625,0 0.484375,0 0.671875,0 L 3.984375,0 C 6.046875,0 8.015625,-2.109375 8.015625,-4.28125 C 8.015625,-5.6875 7.171875,-6.8125 5.671875,-6.8125 L 2.328125,-6.8125 C 2.140625,-6.8125 2.03125,-6.8125 2.03125,-6.625 C 2.03125,-6.5 2.109375,-6.5 2.3125,-6.5 C 2.4375,-6.5 2.625,-6.484375 2.734375,-6.484375 C 2.90625,-6.453125 2.953125,-6.4375 2.953125,-6.3125 C 2.953125,-6.28125 2.953125,-6.25 2.921875,-6.125 L 1.578125,-0.78125 z M 3.734375,-6.125 C 3.828125,-6.46875 3.84375,-6.5 4.28125,-6.5 L 5.34375,-6.5 C 6.3125,-6.5 7.140625,-5.96875 7.140625,-4.65625 C 7.140625,-4.171875 6.953125,-2.53125 6.09375,-1.4375 C 5.8125,-1.0625 5.03125,-0.3125 3.796875,-0.3125 L 2.671875,-0.3125 C 2.53125,-0.3125 2.515625,-0.3125 2.453125,-0.3125 C 2.359375,-0.328125 2.328125,-0.34375 2.328125,-0.421875 C 2.328125,-0.453125 2.328125,-0.46875 2.375,-0.640625 L 3.734375,-6.125 z"
               style="stroke:none" />
          </symbol>
          <symbol
             id="textext-9ccb09a8-3"
             overflow="visible"
             style="overflow:visible">
            <path
               id="path34127"
               d=""
               style="stroke:none" />
          </symbol>
          <symbol
             id="textext-9ccb09a8-4"
             overflow="visible"
             style="overflow:visible">
            <path
               id="path34130"
               d="M 3.296875,2.390625 C 3.296875,2.359375 3.296875,2.34375 3.125,2.171875 C 1.890625,0.921875 1.5625,-0.96875 1.5625,-2.5 C 1.5625,-4.234375 1.9375,-5.96875 3.171875,-7.203125 C 3.296875,-7.328125 3.296875,-7.34375 3.296875,-7.375 C 3.296875,-7.453125 3.265625,-7.484375 3.203125,-7.484375 C 3.09375,-7.484375 2.203125,-6.796875 1.609375,-5.53125 C 1.109375,-4.4375 0.984375,-3.328125 0.984375,-2.5 C 0.984375,-1.71875 1.09375,-0.515625 1.640625,0.625 C 2.25,1.84375 3.09375,2.5 3.203125,2.5 C 3.265625,2.5 3.296875,2.46875 3.296875,2.390625 z"
               style="stroke:none" />
          </symbol>
          <symbol
             id="textext-9ccb09a8-5"
             overflow="visible"
             style="overflow:visible">
            <path
               id="path34133"
               d="M 2.875,-2.5 C 2.875,-3.265625 2.765625,-4.46875 2.21875,-5.609375 C 1.625,-6.828125 0.765625,-7.484375 0.671875,-7.484375 C 0.609375,-7.484375 0.5625,-7.4375 0.5625,-7.375 C 0.5625,-7.34375 0.5625,-7.328125 0.75,-7.140625 C 1.734375,-6.15625 2.296875,-4.578125 2.296875,-2.5 C 2.296875,-0.78125 1.9375,0.96875 0.703125,2.21875 C 0.5625,2.34375 0.5625,2.359375 0.5625,2.390625 C 0.5625,2.453125 0.609375,2.5 0.671875,2.5 C 0.765625,2.5 1.671875,1.8125 2.25,0.546875 C 2.765625,-0.546875 2.875,-1.65625 2.875,-2.5 z"
               style="stroke:none" />
          </symbol>
          <symbol
             id="textext-9ccb09a8-6"
             overflow="visible"
             style="overflow:visible">
            <path
               id="path34136"
               d=""
               style="stroke:none" />
          </symbol>
          <symbol
             id="textext-9ccb09a8-7"
             overflow="visible"
             style="overflow:visible">
            <path
               id="path34139"
               d="M 3.515625,-1.265625 L 3.28125,-1.265625 C 3.265625,-1.109375 3.1875,-0.703125 3.09375,-0.640625 C 3.046875,-0.59375 2.515625,-0.59375 2.40625,-0.59375 L 1.125,-0.59375 C 1.859375,-1.234375 2.109375,-1.4375 2.515625,-1.765625 C 3.03125,-2.171875 3.515625,-2.609375 3.515625,-3.265625 C 3.515625,-4.109375 2.78125,-4.625 1.890625,-4.625 C 1.03125,-4.625 0.4375,-4.015625 0.4375,-3.375 C 0.4375,-3.03125 0.734375,-2.984375 0.8125,-2.984375 C 0.96875,-2.984375 1.171875,-3.109375 1.171875,-3.359375 C 1.171875,-3.484375 1.125,-3.734375 0.765625,-3.734375 C 0.984375,-4.21875 1.453125,-4.375 1.78125,-4.375 C 2.484375,-4.375 2.84375,-3.828125 2.84375,-3.265625 C 2.84375,-2.65625 2.40625,-2.1875 2.1875,-1.9375 L 0.515625,-0.265625 C 0.4375,-0.203125 0.4375,-0.1875 0.4375,0 L 3.3125,0 L 3.515625,-1.265625 z"
               style="stroke:none" />
          </symbol>
        </g>
      </defs>
      <g
         id="textext-9ccb09a8-8">
        <g
           id="g34142"
           style="fill:#000000;fill-opacity:1">
          <use
             id="use34144"
             y="134.765"
             x="223.43201"
             xlink:href="#textext-9ccb09a8-1"
             width="372.04724"
             height="212.59842" />
        </g>
        <g
           id="g34146"
           style="fill:#000000;fill-opacity:1">
          <use
             id="use34148"
             y="134.765"
             x="228.58299"
             xlink:href="#textext-9ccb09a8-4"
             width="372.04724"
             height="212.59842" />
        </g>
        <g
           id="g34150"
           style="fill:#000000;fill-opacity:1">
          <use
             id="use34152"
             y="134.765"
             x="232.457"
             xlink:href="#textext-9ccb09a8-2"
             width="372.04724"
             height="212.59842" />
        </g>
        <g
           id="g34154"
           style="fill:#000000;fill-opacity:1">
          <use
             id="use34156"
             y="136.259"
             x="240.70599"
             xlink:href="#textext-9ccb09a8-7"
             width="372.04724"
             height="212.59842" />
        </g>
        <g
           id="g34158"
           style="fill:#000000;fill-opacity:1">
          <use
             id="use34160"
             y="134.765"
             x="245.175"
             xlink:href="#textext-9ccb09a8-5"
             width="372.04724"
             height="212.59842" />
        </g>
      </g>
    </g>
    <g
       transform="translate(-39.241835,-43.858521)"
       ns0:text="$H,$"
       ns0:preamble=""
       id="g34270">
      <defs
         id="defs34272">
        <g
           id="g34274">
          <symbol
             style="overflow:visible"
             overflow="visible"
             id="textext-0948d73a-0">
            <path
               style="stroke:none"
               d=""
               id="path34277" />
          </symbol>
          <symbol
             style="overflow:visible"
             overflow="visible"
             id="textext-0948d73a-1">
            <path
               style="stroke:none"
               d="M 7.609375,-6.046875 C 7.703125,-6.40625 7.71875,-6.5 8.4375,-6.5 C 8.703125,-6.5 8.78125,-6.5 8.78125,-6.703125 C 8.78125,-6.8125 8.671875,-6.8125 8.640625,-6.8125 C 8.359375,-6.8125 7.640625,-6.78125 7.359375,-6.78125 C 7.078125,-6.78125 6.375,-6.8125 6.078125,-6.8125 C 6,-6.8125 5.890625,-6.8125 5.890625,-6.609375 C 5.890625,-6.5 5.984375,-6.5 6.171875,-6.5 C 6.1875,-6.5 6.375,-6.5 6.546875,-6.484375 C 6.734375,-6.453125 6.8125,-6.453125 6.8125,-6.3125 C 6.8125,-6.28125 6.8125,-6.265625 6.78125,-6.125 L 6.1875,-3.703125 L 3.140625,-3.703125 L 3.734375,-6.046875 C 3.8125,-6.40625 3.84375,-6.5 4.5625,-6.5 C 4.828125,-6.5 4.90625,-6.5 4.90625,-6.703125 C 4.90625,-6.8125 4.796875,-6.8125 4.765625,-6.8125 C 4.484375,-6.8125 3.765625,-6.78125 3.484375,-6.78125 C 3.203125,-6.78125 2.5,-6.8125 2.203125,-6.8125 C 2.125,-6.8125 2.015625,-6.8125 2.015625,-6.609375 C 2.015625,-6.5 2.109375,-6.5 2.296875,-6.5 C 2.3125,-6.5 2.5,-6.5 2.671875,-6.484375 C 2.84375,-6.453125 2.9375,-6.453125 2.9375,-6.3125 C 2.9375,-6.28125 2.9375,-6.25 2.90625,-6.125 L 1.5625,-0.78125 C 1.46875,-0.390625 1.453125,-0.3125 0.65625,-0.3125 C 0.484375,-0.3125 0.390625,-0.3125 0.390625,-0.109375 C 0.390625,0 0.515625,0 0.53125,0 C 0.8125,0 1.515625,-0.03125 1.796875,-0.03125 C 2,-0.03125 2.21875,-0.015625 2.4375,-0.015625 C 2.65625,-0.015625 2.875,0 3.078125,0 C 3.15625,0 3.28125,0 3.28125,-0.203125 C 3.28125,-0.3125 3.1875,-0.3125 3,-0.3125 C 2.625,-0.3125 2.359375,-0.3125 2.359375,-0.484375 C 2.359375,-0.546875 2.375,-0.59375 2.375,-0.65625 L 3.0625,-3.390625 L 6.09375,-3.390625 C 5.6875,-1.734375 5.453125,-0.78125 5.40625,-0.640625 C 5.3125,-0.3125 5.125,-0.3125 4.5,-0.3125 C 4.359375,-0.3125 4.265625,-0.3125 4.265625,-0.109375 C 4.265625,0 4.390625,0 4.40625,0 C 4.6875,0 5.390625,-0.03125 5.671875,-0.03125 C 5.875,-0.03125 6.09375,-0.015625 6.3125,-0.015625 C 6.53125,-0.015625 6.75,0 6.953125,0 C 7.03125,0 7.15625,0 7.15625,-0.203125 C 7.15625,-0.3125 7.0625,-0.3125 6.875,-0.3125 C 6.515625,-0.3125 6.234375,-0.3125 6.234375,-0.484375 C 6.234375,-0.546875 6.25,-0.59375 6.265625,-0.65625 L 7.609375,-6.046875 z"
               id="path34280" />
          </symbol>
          <symbol
             style="overflow:visible"
             overflow="visible"
             id="textext-0948d73a-2">
            <path
               style="stroke:none"
               d="M 2.03125,-0.015625 C 2.03125,-0.671875 1.78125,-1.0625 1.390625,-1.0625 C 1.0625,-1.0625 0.859375,-0.8125 0.859375,-0.53125 C 0.859375,-0.265625 1.0625,0 1.390625,0 C 1.5,0 1.640625,-0.046875 1.734375,-0.125 C 1.765625,-0.15625 1.78125,-0.15625 1.78125,-0.15625 C 1.796875,-0.15625 1.796875,-0.15625 1.796875,-0.015625 C 1.796875,0.734375 1.453125,1.328125 1.125,1.65625 C 1.015625,1.765625 1.015625,1.78125 1.015625,1.8125 C 1.015625,1.890625 1.0625,1.921875 1.109375,1.921875 C 1.21875,1.921875 2.03125,1.15625 2.03125,-0.015625 z"
               id="path34283" />
          </symbol>
        </g>
      </defs>
      <g
         id="textext-0948d73a-3">
        <g
           style="fill:#000000;fill-opacity:1"
           id="g34286">
          <use
             height="212.59842"
             width="372.04724"
             xlink:href="#textext-0948d73a-1"
             x="223.43201"
             y="134.765"
             id="use34288" />
        </g>
        <g
           style="fill:#000000;fill-opacity:1"
           id="g34290">
          <use
             height="212.59842"
             width="372.04724"
             xlink:href="#textext-0948d73a-2"
             x="231.97293"
             y="134.765"
             id="use34292" />
        </g>
      </g>
    </g>
    <g
       id="g34430"
       ns0:preamble=""
       ns0:text="$G\'$"
       transform="translate(-157.73679,-43.858521)">
      <defs
         id="defs34432">
        <g
           id="g34434">
          <symbol
             id="textext-907dffa6-0"
             overflow="visible"
             style="overflow:visible">
            <path
               id="path34437"
               d=""
               style="stroke:none" />
          </symbol>
          <symbol
             id="textext-907dffa6-1"
             overflow="visible"
             style="overflow:visible">
            <path
               id="path34440"
               d="M 7.578125,-6.921875 C 7.578125,-6.953125 7.5625,-7.03125 7.46875,-7.03125 C 7.4375,-7.03125 7.421875,-7.015625 7.3125,-6.90625 L 6.625,-6.140625 C 6.53125,-6.28125 6.078125,-7.03125 4.96875,-7.03125 C 2.734375,-7.03125 0.5,-4.828125 0.5,-2.515625 C 0.5,-0.921875 1.609375,0.21875 3.21875,0.21875 C 3.65625,0.21875 4.109375,0.125 4.46875,-0.015625 C 4.96875,-0.21875 5.15625,-0.421875 5.328125,-0.625 C 5.421875,-0.375 5.6875,-0.015625 5.78125,-0.015625 C 5.828125,-0.015625 5.859375,-0.046875 5.859375,-0.046875 C 5.875,-0.0625 5.96875,-0.453125 6.015625,-0.65625 L 6.203125,-1.421875 C 6.25,-1.59375 6.296875,-1.765625 6.34375,-1.9375 C 6.453125,-2.375 6.453125,-2.40625 7.03125,-2.40625 C 7.078125,-2.40625 7.1875,-2.421875 7.1875,-2.609375 C 7.1875,-2.6875 7.140625,-2.71875 7.0625,-2.71875 C 6.828125,-2.71875 6.234375,-2.6875 6.015625,-2.6875 C 5.703125,-2.6875 4.921875,-2.71875 4.609375,-2.71875 C 4.53125,-2.71875 4.40625,-2.71875 4.40625,-2.515625 C 4.40625,-2.40625 4.484375,-2.40625 4.703125,-2.40625 C 4.71875,-2.40625 5,-2.40625 5.234375,-2.390625 C 5.5,-2.359375 5.546875,-2.328125 5.546875,-2.203125 C 5.546875,-2.109375 5.4375,-1.671875 5.328125,-1.296875 C 5.046875,-0.203125 3.765625,-0.09375 3.40625,-0.09375 C 2.453125,-0.09375 1.40625,-0.65625 1.40625,-2.1875 C 1.40625,-2.5 1.5,-4.140625 2.546875,-5.4375 C 3.09375,-6.109375 4.0625,-6.71875 5.046875,-6.71875 C 6.0625,-6.71875 6.65625,-5.953125 6.65625,-4.796875 C 6.65625,-4.390625 6.625,-4.390625 6.625,-4.28125 C 6.625,-4.1875 6.734375,-4.1875 6.765625,-4.1875 C 6.890625,-4.1875 6.890625,-4.203125 6.953125,-4.390625 L 7.578125,-6.921875 z"
               style="stroke:none" />
          </symbol>
          <symbol
             id="textext-907dffa6-2"
             overflow="visible"
             style="overflow:visible">
            <path
               id="path34443"
               d=""
               style="stroke:none" />
          </symbol>
          <symbol
             id="textext-907dffa6-3"
             overflow="visible"
             style="overflow:visible">
            <path
               id="path34446"
               d="M 2.03125,-3.296875 C 2.0625,-3.359375 2.078125,-3.421875 2.078125,-3.515625 C 2.078125,-3.734375 1.890625,-3.890625 1.671875,-3.890625 C 1.390625,-3.890625 1.328125,-3.671875 1.296875,-3.578125 L 0.375,-0.5625 C 0.359375,-0.53125 0.328125,-0.453125 0.328125,-0.4375 C 0.328125,-0.359375 0.546875,-0.28125 0.609375,-0.28125 C 0.65625,-0.28125 0.6875,-0.328125 0.703125,-0.390625 L 2.03125,-3.296875 z"
               style="stroke:none" />
          </symbol>
        </g>
      </defs>
      <g
         id="textext-907dffa6-4">
        <g
           id="g34449"
           style="fill:#000000;fill-opacity:1">
          <use
             id="use34451"
             y="134.765"
             x="223.43201"
             xlink:href="#textext-907dffa6-1"
             width="372.04724"
             height="212.59842" />
        </g>
        <g
           id="g34453"
           style="fill:#000000;fill-opacity:1">
          <use
             id="use34455"
             y="131.14999"
             x="231.265"
             xlink:href="#textext-907dffa6-3"
             width="372.04724"
             height="212.59842" />
        </g>
      </g>
    </g>
  </g>
</svg>
