<?xml version="1.0" encoding="UTF-8" standalone="no"?>
<!-- Created with Inkscape (http://www.inkscape.org/) -->
<svg
   xmlns:ns0="http://www.iki.fi/pav/software/textext/"
   xmlns:dc="http://purl.org/dc/elements/1.1/"
   xmlns:cc="http://creativecommons.org/ns#"
   xmlns:rdf="http://www.w3.org/1999/02/22-rdf-syntax-ns#"
   xmlns:svg="http://www.w3.org/2000/svg"
   xmlns="http://www.w3.org/2000/svg"
   xmlns:xlink="http://www.w3.org/1999/xlink"
   xmlns:sodipodi="http://sodipodi.sourceforge.net/DTD/sodipodi-0.dtd"
   xmlns:inkscape="http://www.inkscape.org/namespaces/inkscape"
   width="354.33069"
   height="212.59842"
   id="svg2460"
   sodipodi:version="0.32"
   inkscape:version="0.46"
   version="1.0"
   sodipodi:docname="miyansi_fig7.svg"
   inkscape:output_extension="org.inkscape.output.svg.inkscape">
  <sodipodi:namedview
     id="base"
     pagecolor="#ffffff"
     bordercolor="#666666"
     borderopacity="1.0"
     gridtolerance="10000"
     guidetolerance="10"
     objecttolerance="10"
     inkscape:pageopacity="0.0"
     inkscape:pageshadow="2"
     inkscape:zoom="2.9722409"
     inkscape:cx="153.04227"
     inkscape:cy="158.18999"
     inkscape:document-units="px"
     inkscape:current-layer="layer1"
     showgrid="false"
     units="cm"
     inkscape:window-width="985"
     inkscape:window-height="723"
     inkscape:window-x="0"
     inkscape:window-y="25">
    <inkscape:grid
       enabled="true"
       visible="true"
       id="grid5053"
       type="xygrid" />
  </sodipodi:namedview>
  <defs
     id="defs2462">
    <inkscape:perspective
       id="perspective2468"
       inkscape:persp3d-origin="372.04724 : 350.78739 : 1"
       inkscape:vp_z="744.09448 : 526.18109 : 1"
       inkscape:vp_y="0 : 1000 : 0"
       inkscape:vp_x="0 : 526.18109 : 1"
       sodipodi:type="inkscape:persp3d" />
  </defs>
  <metadata
     id="metadata2465">
    <rdf:RDF>
      <cc:Work
         rdf:about="">
        <dc:format>image/svg+xml</dc:format>
        <dc:type
           rdf:resource="http://purl.org/dc/dcmitype/StillImage" />
      </cc:Work>
    </rdf:RDF>
  </metadata>
  <g
     id="layer1"
     inkscape:groupmode="layer"
     inkscape:label="Layer 1">
    <path
       style="fill:none;fill-rule:evenodd;stroke:#000000;stroke-width:1;stroke-linecap:butt;stroke-linejoin:miter;stroke-opacity:1;stroke-miterlimit:4;stroke-dasharray:4,1;stroke-dashoffset:0"
       d="M 2.6460258,124.56222 L 32.646026,54.562217"
       id="path6691" />
    <path
       style="fill:none;fill-rule:evenodd;stroke:#000000;stroke-width:1;stroke-linecap:butt;stroke-linejoin:miter;stroke-miterlimit:4;stroke-dasharray:4, 1;stroke-dashoffset:0;stroke-opacity:1"
       d="M 17.646026,54.562217 L 47.646021,124.56222"
       id="path6693" />
    <path
       id="path6695"
       d="M 37.646026,124.56222 L 67.646021,54.562217"
       style="fill:none;fill-rule:evenodd;stroke:#000000;stroke-width:1;stroke-linecap:butt;stroke-linejoin:miter;stroke-opacity:1;stroke-miterlimit:4;stroke-dasharray:3,1;stroke-dashoffset:0" />
    <text
       xml:space="preserve"
       style="font-size:10px;font-style:normal;font-variant:normal;font-weight:normal;font-stretch:normal;fill:#000000;fill-opacity:1;stroke:none;stroke-width:1px;stroke-linecap:butt;stroke-linejoin:miter;stroke-opacity:1;font-family:LMRoman10;-inkscape-font-specification:LMRoman10"
       x="13.118725"
       y="106.19278"
       id="text6697"><tspan
         sodipodi:role="line"
         id="tspan6699"
         x="13.118725"
         y="106.19278">-1</tspan></text>
    <path
       id="path7078"
       d="M 91.292102,87.95667 L 121.2921,87.95667"
       style="fill:none;fill-rule:evenodd;stroke:#000000;stroke-width:0.99999994;stroke-linecap:butt;stroke-linejoin:miter;stroke-miterlimit:4;stroke-dasharray:0.99999994, 2.99999982;stroke-dashoffset:0;stroke-opacity:1" />
    <path
       id="path9989"
       d="M 54.306121,54.562217 L 84.306111,124.56222"
       style="fill:none;fill-rule:evenodd;stroke:#000000;stroke-width:1;stroke-linecap:butt;stroke-linejoin:miter;stroke-miterlimit:4;stroke-dasharray:4, 1;stroke-dashoffset:0;stroke-opacity:1" />
    <path
       id="path10071"
       d="M 131.03911,124.18764 L 161.03911,54.187635"
       style="fill:none;fill-rule:evenodd;stroke:#000000;stroke-width:1;stroke-linecap:butt;stroke-linejoin:miter;stroke-opacity:1;stroke-miterlimit:4;stroke-dasharray:4,1;stroke-dashoffset:0" />
    <path
       id="path10073"
       d="M 146.03911,54.187635 L 176.03911,124.18764"
       style="fill:none;fill-rule:evenodd;stroke:#000000;stroke-width:1;stroke-linecap:butt;stroke-linejoin:miter;stroke-miterlimit:4;stroke-dasharray:4, 1;stroke-dashoffset:0;stroke-opacity:1" />
    <text
       id="text10077"
       y="78.225029"
       x="158.5143"
       style="font-size:10px;font-style:normal;font-variant:normal;font-weight:normal;font-stretch:normal;fill:#000000;fill-opacity:1;stroke:none;stroke-width:1px;stroke-linecap:butt;stroke-linejoin:miter;stroke-opacity:1;font-family:LMRoman10;-inkscape-font-specification:LMRoman10"
       xml:space="preserve"><tspan
         y="78.225029"
         x="158.5143"
         id="tspan10079"
         sodipodi:role="line">-3</tspan></text>
    <path
       style="fill:none;fill-rule:evenodd;stroke:#000000;stroke-width:0.99999994;stroke-linecap:butt;stroke-linejoin:miter;stroke-miterlimit:4;stroke-dasharray:3.99999992, 0.99999999;stroke-dashoffset:0;stroke-opacity:1"
       d="M 182.8853,54.613851 L 212.69919,124.18764"
       id="path10081" />
    <path
       id="path10085"
       d="M 222.25728,55.910384 L 251.84712,124.971"
       style="fill:none;fill-rule:evenodd;stroke:#000000;stroke-width:0.99999994;stroke-linecap:butt;stroke-linejoin:miter;stroke-miterlimit:4;stroke-dasharray:3.99999976,0.99999994;stroke-dashoffset:0;stroke-opacity:1" />
    <path
       style="fill:none;fill-rule:evenodd;stroke:#000000;stroke-width:1;stroke-linecap:butt;stroke-linejoin:miter;stroke-miterlimit:4;stroke-dasharray:none;stroke-dashoffset:0;stroke-opacity:1"
       d="M 231.25633,56.050965 L 202.06989,124.18764"
       id="path10089" />
    <text
       xml:space="preserve"
       style="font-size:10px;font-style:normal;font-variant:normal;font-weight:normal;font-stretch:normal;fill:#000000;fill-opacity:1;stroke:none;stroke-width:1px;stroke-linecap:butt;stroke-linejoin:miter;stroke-opacity:1;font-family:LMRoman10;-inkscape-font-specification:LMRoman10"
       x="193.38695"
       y="76.039246"
       id="text10115"><tspan
         sodipodi:role="line"
         id="tspan10117"
         x="193.38695"
         y="76.039246">-1</tspan></text>
    <text
       id="text10135"
       y="83.742233"
       x="9.3645487"
       style="font-size:10px;font-style:normal;font-variant:normal;font-weight:normal;font-stretch:normal;fill:#000000;fill-opacity:1;stroke:none;stroke-width:1px;stroke-linecap:butt;stroke-linejoin:miter;stroke-opacity:1;font-family:LMRoman10;-inkscape-font-specification:LMRoman10"
       xml:space="preserve"><tspan
         y="83.742233"
         x="9.3645487"
         id="tspan10137"
         sodipodi:role="line" /></text>
    <g
       id="g10186"
       ns0:preamble=""
       ns0:text="$L_o$"
       transform="matrix(1.1,0,0,1.1,-241.33726,-62.464295)">
      <defs
         id="defs10188">
        <g
           id="g10190">
          <symbol
             id="textext-3bc7139f-0"
             overflow="visible"
             style="overflow:visible">
            <path
               id="path10193"
               d=""
               style="stroke:none" />
          </symbol>
          <symbol
             id="textext-3bc7139f-1"
             overflow="visible"
             style="overflow:visible">
            <path
               id="path10196"
               d="M 3.734375,-6.03125 C 3.8125,-6.390625 3.84375,-6.5 4.78125,-6.5 C 5.078125,-6.5 5.15625,-6.5 5.15625,-6.6875 C 5.15625,-6.8125 5.046875,-6.8125 5,-6.8125 C 4.671875,-6.8125 3.859375,-6.78125 3.53125,-6.78125 C 3.234375,-6.78125 2.5,-6.8125 2.203125,-6.8125 C 2.140625,-6.8125 2.015625,-6.8125 2.015625,-6.609375 C 2.015625,-6.5 2.109375,-6.5 2.296875,-6.5 C 2.3125,-6.5 2.5,-6.5 2.671875,-6.484375 C 2.84375,-6.453125 2.9375,-6.453125 2.9375,-6.3125 C 2.9375,-6.28125 2.9375,-6.25 2.90625,-6.125 L 1.5625,-0.78125 C 1.46875,-0.390625 1.453125,-0.3125 0.65625,-0.3125 C 0.484375,-0.3125 0.390625,-0.3125 0.390625,-0.109375 C 0.390625,0 0.484375,0 0.65625,0 L 5.28125,0 C 5.515625,0 5.515625,0 5.578125,-0.171875 L 6.375,-2.328125 C 6.40625,-2.4375 6.40625,-2.453125 6.40625,-2.46875 C 6.40625,-2.5 6.375,-2.578125 6.296875,-2.578125 C 6.203125,-2.578125 6.1875,-2.515625 6.125,-2.359375 C 5.78125,-1.453125 5.34375,-0.3125 3.625,-0.3125 L 2.6875,-0.3125 C 2.546875,-0.3125 2.515625,-0.3125 2.46875,-0.3125 C 2.359375,-0.328125 2.328125,-0.34375 2.328125,-0.421875 C 2.328125,-0.453125 2.328125,-0.46875 2.375,-0.640625 L 3.734375,-6.03125 z"
               style="stroke:none" />
          </symbol>
          <symbol
             id="textext-3bc7139f-2"
             overflow="visible"
             style="overflow:visible">
            <path
               id="path10199"
               d=""
               style="stroke:none" />
          </symbol>
          <symbol
             id="textext-3bc7139f-3"
             overflow="visible"
             style="overflow:visible">
            <path
               id="path10202"
               d="M 3.703125,-1.859375 C 3.703125,-2.625 3.125,-3.078125 2.4375,-3.078125 C 1.40625,-3.078125 0.4375,-2.109375 0.4375,-1.15625 C 0.4375,-0.453125 0.9375,0.0625 1.703125,0.0625 C 2.703125,0.0625 3.703125,-0.84375 3.703125,-1.859375 z M 1.703125,-0.125 C 1.359375,-0.125 1.015625,-0.34375 1.015625,-0.90625 C 1.015625,-1.1875 1.140625,-1.875 1.421875,-2.265625 C 1.71875,-2.703125 2.125,-2.875 2.4375,-2.875 C 2.8125,-2.875 3.125,-2.625 3.125,-2.109375 C 3.125,-1.9375 3.046875,-1.25 2.734375,-0.765625 C 2.46875,-0.34375 2.0625,-0.125 1.703125,-0.125 z"
               style="stroke:none" />
          </symbol>
        </g>
      </defs>
      <g
         id="textext-3bc7139f-4">
        <g
           id="g10205"
           style="fill:#000000;fill-opacity:1">
          <use
             id="use10207"
             y="134.765"
             x="223.43201"
             xlink:href="#textext-3bc7139f-1"
             width="354.33069"
             height="212.59842" />
        </g>
        <g
           id="g10209"
           style="fill:#000000;fill-opacity:1">
          <use
             id="use10211"
             y="136.259"
             x="230.21201"
             xlink:href="#textext-3bc7139f-3"
             width="354.33069"
             height="212.59842" />
        </g>
      </g>
    </g>
    <text
       id="text10489"
       y="72.028969"
       x="29.099741"
       style="font-size:10px;font-style:normal;font-variant:normal;font-weight:normal;font-stretch:normal;fill:#000000;fill-opacity:1;stroke:none;stroke-width:1px;stroke-linecap:butt;stroke-linejoin:miter;stroke-opacity:1;font-family:LMRoman10;-inkscape-font-specification:LMRoman10"
       xml:space="preserve"><tspan
         y="72.028969"
         x="29.099741"
         id="tspan10491"
         sodipodi:role="line">-2</tspan></text>
    <g
       id="g10660"
       transform="matrix(1.1,0,0,1.1,-204.32597,-63.213459)"
       ns0:preamble=""
       ns0:text="$L_2$">
      <defs
         id="defs10662">
        <g
           id="g10664">
          <symbol
             style="overflow:visible"
             id="textext-2cce5e00-0"
             overflow="visible">
            <path
               id="path10667"
               d=""
               style="stroke:none" />
          </symbol>
          <symbol
             style="overflow:visible"
             id="textext-2cce5e00-1"
             overflow="visible">
            <path
               id="path10670"
               d="M 3.734375,-6.03125 C 3.8125,-6.390625 3.84375,-6.5 4.78125,-6.5 C 5.078125,-6.5 5.15625,-6.5 5.15625,-6.6875 C 5.15625,-6.8125 5.046875,-6.8125 5,-6.8125 C 4.671875,-6.8125 3.859375,-6.78125 3.53125,-6.78125 C 3.234375,-6.78125 2.5,-6.8125 2.203125,-6.8125 C 2.140625,-6.8125 2.015625,-6.8125 2.015625,-6.609375 C 2.015625,-6.5 2.109375,-6.5 2.296875,-6.5 C 2.3125,-6.5 2.5,-6.5 2.671875,-6.484375 C 2.84375,-6.453125 2.9375,-6.453125 2.9375,-6.3125 C 2.9375,-6.28125 2.9375,-6.25 2.90625,-6.125 L 1.5625,-0.78125 C 1.46875,-0.390625 1.453125,-0.3125 0.65625,-0.3125 C 0.484375,-0.3125 0.390625,-0.3125 0.390625,-0.109375 C 0.390625,0 0.484375,0 0.65625,0 L 5.28125,0 C 5.515625,0 5.515625,0 5.578125,-0.171875 L 6.375,-2.328125 C 6.40625,-2.4375 6.40625,-2.453125 6.40625,-2.46875 C 6.40625,-2.5 6.375,-2.578125 6.296875,-2.578125 C 6.203125,-2.578125 6.1875,-2.515625 6.125,-2.359375 C 5.78125,-1.453125 5.34375,-0.3125 3.625,-0.3125 L 2.6875,-0.3125 C 2.546875,-0.3125 2.515625,-0.3125 2.46875,-0.3125 C 2.359375,-0.328125 2.328125,-0.34375 2.328125,-0.421875 C 2.328125,-0.453125 2.328125,-0.46875 2.375,-0.640625 L 3.734375,-6.03125 z"
               style="stroke:none" />
          </symbol>
          <symbol
             style="overflow:visible"
             id="textext-2cce5e00-2"
             overflow="visible">
            <path
               id="path10673"
               d=""
               style="stroke:none" />
          </symbol>
          <symbol
             style="overflow:visible"
             id="textext-2cce5e00-3"
             overflow="visible">
            <path
               id="path10676"
               d="M 3.515625,-1.265625 L 3.28125,-1.265625 C 3.265625,-1.109375 3.1875,-0.703125 3.09375,-0.640625 C 3.046875,-0.59375 2.515625,-0.59375 2.40625,-0.59375 L 1.125,-0.59375 C 1.859375,-1.234375 2.109375,-1.4375 2.515625,-1.765625 C 3.03125,-2.171875 3.515625,-2.609375 3.515625,-3.265625 C 3.515625,-4.109375 2.78125,-4.625 1.890625,-4.625 C 1.03125,-4.625 0.4375,-4.015625 0.4375,-3.375 C 0.4375,-3.03125 0.734375,-2.984375 0.8125,-2.984375 C 0.96875,-2.984375 1.171875,-3.109375 1.171875,-3.359375 C 1.171875,-3.484375 1.125,-3.734375 0.765625,-3.734375 C 0.984375,-4.21875 1.453125,-4.375 1.78125,-4.375 C 2.484375,-4.375 2.84375,-3.828125 2.84375,-3.265625 C 2.84375,-2.65625 2.40625,-2.1875 2.1875,-1.9375 L 0.515625,-0.265625 C 0.4375,-0.203125 0.4375,-0.1875 0.4375,0 L 3.3125,0 L 3.515625,-1.265625 z"
               style="stroke:none" />
          </symbol>
        </g>
      </defs>
      <g
         id="textext-2cce5e00-4">
        <g
           id="g10679"
           style="fill:#000000;fill-opacity:1">
          <use
             height="212.59842"
             width="354.33069"
             id="use10681"
             y="134.765"
             x="223.43201"
             xlink:href="#textext-2cce5e00-1" />
        </g>
        <g
           id="g10683"
           style="fill:#000000;fill-opacity:1">
          <use
             height="212.59842"
             width="354.33069"
             id="use10685"
             y="136.259"
             x="230.21201"
             xlink:href="#textext-2cce5e00-3" />
        </g>
      </g>
    </g>
    <g
       ns0:text="$L_{n-1}$"
       ns0:preamble=""
       transform="matrix(1.1,0,0,1.1,-122.98625,-64.022639)"
       id="g11575">
      <defs
         id="defs11577">
        <g
           id="g11579">
          <symbol
             style="overflow:visible"
             overflow="visible"
             id="textext-fe0b3bcc-0">
            <path
               style="stroke:none"
               d=""
               id="path11582" />
          </symbol>
          <symbol
             style="overflow:visible"
             overflow="visible"
             id="textext-fe0b3bcc-1">
            <path
               style="stroke:none"
               d="M 3.734375,-6.03125 C 3.8125,-6.390625 3.84375,-6.5 4.78125,-6.5 C 5.078125,-6.5 5.15625,-6.5 5.15625,-6.6875 C 5.15625,-6.8125 5.046875,-6.8125 5,-6.8125 C 4.671875,-6.8125 3.859375,-6.78125 3.53125,-6.78125 C 3.234375,-6.78125 2.5,-6.8125 2.203125,-6.8125 C 2.140625,-6.8125 2.015625,-6.8125 2.015625,-6.609375 C 2.015625,-6.5 2.109375,-6.5 2.296875,-6.5 C 2.3125,-6.5 2.5,-6.5 2.671875,-6.484375 C 2.84375,-6.453125 2.9375,-6.453125 2.9375,-6.3125 C 2.9375,-6.28125 2.9375,-6.25 2.90625,-6.125 L 1.5625,-0.78125 C 1.46875,-0.390625 1.453125,-0.3125 0.65625,-0.3125 C 0.484375,-0.3125 0.390625,-0.3125 0.390625,-0.109375 C 0.390625,0 0.484375,0 0.65625,0 L 5.28125,0 C 5.515625,0 5.515625,0 5.578125,-0.171875 L 6.375,-2.328125 C 6.40625,-2.4375 6.40625,-2.453125 6.40625,-2.46875 C 6.40625,-2.5 6.375,-2.578125 6.296875,-2.578125 C 6.203125,-2.578125 6.1875,-2.515625 6.125,-2.359375 C 5.78125,-1.453125 5.34375,-0.3125 3.625,-0.3125 L 2.6875,-0.3125 C 2.546875,-0.3125 2.515625,-0.3125 2.46875,-0.3125 C 2.359375,-0.328125 2.328125,-0.34375 2.328125,-0.421875 C 2.328125,-0.453125 2.328125,-0.46875 2.375,-0.640625 L 3.734375,-6.03125 z"
               id="path11585" />
          </symbol>
          <symbol
             style="overflow:visible"
             overflow="visible"
             id="textext-fe0b3bcc-2">
            <path
               style="stroke:none"
               d=""
               id="path11588" />
          </symbol>
          <symbol
             style="overflow:visible"
             overflow="visible"
             id="textext-fe0b3bcc-3">
            <path
               style="stroke:none"
               d="M 0.84375,-0.4375 C 0.828125,-0.34375 0.78125,-0.171875 0.78125,-0.15625 C 0.78125,0 0.90625,0.0625 1.015625,0.0625 C 1.140625,0.0625 1.25,-0.015625 1.296875,-0.078125 C 1.328125,-0.140625 1.375,-0.375 1.421875,-0.515625 C 1.453125,-0.640625 1.53125,-0.96875 1.5625,-1.140625 C 1.609375,-1.296875 1.65625,-1.453125 1.6875,-1.609375 C 1.765625,-1.890625 1.78125,-1.953125 1.984375,-2.234375 C 2.171875,-2.515625 2.5,-2.875 3.03125,-2.875 C 3.421875,-2.875 3.4375,-2.515625 3.4375,-2.390625 C 3.4375,-1.96875 3.140625,-1.203125 3.03125,-0.90625 C 2.953125,-0.703125 2.921875,-0.640625 2.921875,-0.53125 C 2.921875,-0.15625 3.21875,0.0625 3.578125,0.0625 C 4.28125,0.0625 4.578125,-0.890625 4.578125,-1 C 4.578125,-1.09375 4.5,-1.09375 4.46875,-1.09375 C 4.375,-1.09375 4.375,-1.046875 4.34375,-0.96875 C 4.1875,-0.40625 3.875,-0.125 3.609375,-0.125 C 3.453125,-0.125 3.421875,-0.21875 3.421875,-0.375 C 3.421875,-0.53125 3.46875,-0.625 3.59375,-0.9375 C 3.671875,-1.15625 3.953125,-1.890625 3.953125,-2.28125 C 3.953125,-2.953125 3.421875,-3.078125 3.046875,-3.078125 C 2.46875,-3.078125 2.078125,-2.71875 1.875,-2.4375 C 1.828125,-2.921875 1.421875,-3.078125 1.125,-3.078125 C 0.828125,-3.078125 0.671875,-2.859375 0.578125,-2.703125 C 0.421875,-2.4375 0.328125,-2.046875 0.328125,-2 C 0.328125,-1.921875 0.421875,-1.921875 0.453125,-1.921875 C 0.546875,-1.921875 0.546875,-1.9375 0.59375,-2.125 C 0.703125,-2.53125 0.84375,-2.875 1.109375,-2.875 C 1.296875,-2.875 1.34375,-2.71875 1.34375,-2.53125 C 1.34375,-2.40625 1.28125,-2.140625 1.21875,-1.953125 C 1.171875,-1.765625 1.109375,-1.484375 1.078125,-1.328125 L 0.84375,-0.4375 z"
               id="path11591" />
          </symbol>
          <symbol
             style="overflow:visible"
             overflow="visible"
             id="textext-fe0b3bcc-4">
            <path
               style="stroke:none"
               d=""
               id="path11594" />
          </symbol>
          <symbol
             style="overflow:visible"
             overflow="visible"
             id="textext-fe0b3bcc-5">
            <path
               style="stroke:none"
               d="M 5.203125,-1.578125 C 5.296875,-1.578125 5.46875,-1.578125 5.46875,-1.734375 C 5.46875,-1.921875 5.296875,-1.921875 5.203125,-1.921875 L 1.015625,-1.921875 C 0.90625,-1.921875 0.75,-1.921875 0.75,-1.734375 C 0.75,-1.578125 0.921875,-1.578125 1.015625,-1.578125 L 5.203125,-1.578125 z"
               id="path11597" />
          </symbol>
          <symbol
             style="overflow:visible"
             overflow="visible"
             id="textext-fe0b3bcc-6">
            <path
               style="stroke:none"
               d=""
               id="path11600" />
          </symbol>
          <symbol
             style="overflow:visible"
             overflow="visible"
             id="textext-fe0b3bcc-7">
            <path
               style="stroke:none"
               d="M 2.328125,-4.4375 C 2.328125,-4.625 2.328125,-4.625 2.125,-4.625 C 1.671875,-4.1875 1.046875,-4.1875 0.765625,-4.1875 L 0.765625,-3.9375 C 0.921875,-3.9375 1.390625,-3.9375 1.765625,-4.125 L 1.765625,-0.578125 C 1.765625,-0.34375 1.765625,-0.25 1.078125,-0.25 L 0.8125,-0.25 L 0.8125,0 C 0.9375,0 1.796875,-0.03125 2.046875,-0.03125 C 2.265625,-0.03125 3.140625,0 3.296875,0 L 3.296875,-0.25 L 3.03125,-0.25 C 2.328125,-0.25 2.328125,-0.34375 2.328125,-0.578125 L 2.328125,-4.4375 z"
               id="path11603" />
          </symbol>
        </g>
      </defs>
      <g
         id="textext-fe0b3bcc-8">
        <g
           style="fill:#000000;fill-opacity:1"
           id="g11606">
          <use
             height="212.59842"
             width="354.33069"
             xlink:href="#textext-fe0b3bcc-1"
             x="223.43201"
             y="134.765"
             id="use11608" />
        </g>
        <g
           style="fill:#000000;fill-opacity:1"
           id="g11610">
          <use
             height="212.59842"
             width="354.33069"
             xlink:href="#textext-fe0b3bcc-3"
             x="230.21201"
             y="136.259"
             id="use11612" />
        </g>
        <g
           style="fill:#000000;fill-opacity:1"
           id="g11614">
          <use
             height="212.59842"
             width="354.33069"
             xlink:href="#textext-fe0b3bcc-5"
             x="235.13699"
             y="136.259"
             id="use11616" />
        </g>
        <g
           style="fill:#000000;fill-opacity:1"
           id="g11618">
          <use
             height="212.59842"
             width="354.33069"
             xlink:href="#textext-fe0b3bcc-7"
             x="241.364"
             y="136.259"
             id="use11620" />
        </g>
      </g>
    </g>
    <text
       xml:space="preserve"
       style="font-size:10px;font-style:normal;font-variant:normal;font-weight:normal;font-stretch:normal;fill:#000000;fill-opacity:1;stroke:none;stroke-width:1px;stroke-linecap:butt;stroke-linejoin:miter;stroke-opacity:1;font-family:LMRoman10;-inkscape-font-specification:LMRoman10"
       x="261.24982"
       y="28.169556"
       id="text11793"><tspan
         sodipodi:role="line"
         id="tspan11795"
         x="261.24982"
         y="28.169556">-4</tspan></text>
    <g
       id="g13045"
       ns0:preamble=""
       ns0:text="$\\sigma\' (\\overline{C})$"
       transform="matrix(1.1,0,0,1.1,-79.843586,-6.5648622)">
      <defs
         id="defs13047">
        <g
           id="g13049">
          <symbol
             id="textext-76d76f47-0"
             overflow="visible"
             style="overflow:visible">
            <path
               id="path13052"
               d=""
               style="stroke:none" />
          </symbol>
          <symbol
             id="textext-76d76f47-1"
             overflow="visible"
             style="overflow:visible">
            <path
               id="path13055"
               d="M 5.15625,-3.71875 C 5.296875,-3.71875 5.65625,-3.71875 5.65625,-4.0625 C 5.65625,-4.296875 5.4375,-4.296875 5.265625,-4.296875 L 2.984375,-4.296875 C 1.484375,-4.296875 0.375,-2.65625 0.375,-1.46875 C 0.375,-0.59375 0.96875,0.109375 1.875,0.109375 C 3.046875,0.109375 4.375,-1.09375 4.375,-2.625 C 4.375,-2.796875 4.375,-3.28125 4.0625,-3.71875 L 5.15625,-3.71875 z M 1.890625,-0.109375 C 1.390625,-0.109375 1,-0.46875 1,-1.1875 C 1,-1.484375 1.109375,-2.296875 1.46875,-2.890625 C 1.890625,-3.578125 2.484375,-3.71875 2.828125,-3.71875 C 3.65625,-3.71875 3.734375,-3.0625 3.734375,-2.75 C 3.734375,-2.28125 3.53125,-1.46875 3.203125,-0.953125 C 2.8125,-0.375 2.265625,-0.109375 1.890625,-0.109375 z"
               style="stroke:none" />
          </symbol>
          <symbol
             id="textext-76d76f47-2"
             overflow="visible"
             style="overflow:visible">
            <path
               id="path13058"
               d="M 7.578125,-6.921875 C 7.578125,-6.953125 7.5625,-7.03125 7.46875,-7.03125 C 7.4375,-7.03125 7.421875,-7.015625 7.3125,-6.90625 L 6.625,-6.140625 C 6.53125,-6.28125 6.078125,-7.03125 4.96875,-7.03125 C 2.734375,-7.03125 0.5,-4.828125 0.5,-2.515625 C 0.5,-0.875 1.671875,0.21875 3.203125,0.21875 C 4.0625,0.21875 4.828125,-0.171875 5.359375,-0.640625 C 6.28125,-1.453125 6.453125,-2.359375 6.453125,-2.390625 C 6.453125,-2.5 6.34375,-2.5 6.328125,-2.5 C 6.265625,-2.5 6.21875,-2.46875 6.203125,-2.390625 C 6.109375,-2.109375 5.875,-1.390625 5.1875,-0.8125 C 4.5,-0.265625 3.875,-0.09375 3.359375,-0.09375 C 2.46875,-0.09375 1.40625,-0.609375 1.40625,-2.15625 C 1.40625,-2.734375 1.609375,-4.34375 2.609375,-5.515625 C 3.21875,-6.21875 4.15625,-6.71875 5.046875,-6.71875 C 6.0625,-6.71875 6.65625,-5.953125 6.65625,-4.796875 C 6.65625,-4.390625 6.625,-4.390625 6.625,-4.28125 C 6.625,-4.1875 6.734375,-4.1875 6.765625,-4.1875 C 6.890625,-4.1875 6.890625,-4.203125 6.953125,-4.390625 L 7.578125,-6.921875 z"
               style="stroke:none" />
          </symbol>
          <symbol
             id="textext-76d76f47-3"
             overflow="visible"
             style="overflow:visible">
            <path
               id="path13061"
               d=""
               style="stroke:none" />
          </symbol>
          <symbol
             id="textext-76d76f47-4"
             overflow="visible"
             style="overflow:visible">
            <path
               id="path13064"
               d="M 2.03125,-3.296875 C 2.0625,-3.359375 2.078125,-3.421875 2.078125,-3.515625 C 2.078125,-3.734375 1.890625,-3.890625 1.671875,-3.890625 C 1.390625,-3.890625 1.328125,-3.671875 1.296875,-3.578125 L 0.375,-0.5625 C 0.359375,-0.53125 0.328125,-0.453125 0.328125,-0.4375 C 0.328125,-0.359375 0.546875,-0.28125 0.609375,-0.28125 C 0.65625,-0.28125 0.6875,-0.328125 0.703125,-0.390625 L 2.03125,-3.296875 z"
               style="stroke:none" />
          </symbol>
          <symbol
             id="textext-76d76f47-5"
             overflow="visible"
             style="overflow:visible">
            <path
               id="path13067"
               d=""
               style="stroke:none" />
          </symbol>
          <symbol
             id="textext-76d76f47-6"
             overflow="visible"
             style="overflow:visible">
            <path
               id="path13070"
               d="M 3.296875,2.390625 C 3.296875,2.359375 3.296875,2.34375 3.125,2.171875 C 1.890625,0.921875 1.5625,-0.96875 1.5625,-2.5 C 1.5625,-4.234375 1.9375,-5.96875 3.171875,-7.203125 C 3.296875,-7.328125 3.296875,-7.34375 3.296875,-7.375 C 3.296875,-7.453125 3.265625,-7.484375 3.203125,-7.484375 C 3.09375,-7.484375 2.203125,-6.796875 1.609375,-5.53125 C 1.109375,-4.4375 0.984375,-3.328125 0.984375,-2.5 C 0.984375,-1.71875 1.09375,-0.515625 1.640625,0.625 C 2.25,1.84375 3.09375,2.5 3.203125,2.5 C 3.265625,2.5 3.296875,2.46875 3.296875,2.390625 z"
               style="stroke:none" />
          </symbol>
          <symbol
             id="textext-76d76f47-7"
             overflow="visible"
             style="overflow:visible">
            <path
               id="path13073"
               d="M 2.875,-2.5 C 2.875,-3.265625 2.765625,-4.46875 2.21875,-5.609375 C 1.625,-6.828125 0.765625,-7.484375 0.671875,-7.484375 C 0.609375,-7.484375 0.5625,-7.4375 0.5625,-7.375 C 0.5625,-7.34375 0.5625,-7.328125 0.75,-7.140625 C 1.734375,-6.15625 2.296875,-4.578125 2.296875,-2.5 C 2.296875,-0.78125 1.9375,0.96875 0.703125,2.21875 C 0.5625,2.34375 0.5625,2.359375 0.5625,2.390625 C 0.5625,2.453125 0.609375,2.5 0.671875,2.5 C 0.765625,2.5 1.671875,1.8125 2.25,0.546875 C 2.765625,-0.546875 2.875,-1.65625 2.875,-2.5 z"
               style="stroke:none" />
          </symbol>
        </g>
      </defs>
      <g
         id="textext-76d76f47-8">
        <g
           id="g13076"
           style="fill:#000000;fill-opacity:1">
          <use
             id="use13078"
             y="134.765"
             x="223.43201"
             xlink:href="#textext-76d76f47-1"
             width="354.33069"
             height="212.59842" />
        </g>
        <g
           id="g13080"
           style="fill:#000000;fill-opacity:1">
          <use
             id="use13082"
             y="131.14999"
             x="229.48199"
             xlink:href="#textext-76d76f47-4"
             width="354.33069"
             height="212.59842" />
        </g>
        <g
           id="g13084"
           style="fill:#000000;fill-opacity:1">
          <use
             id="use13086"
             y="134.765"
             x="232.27699"
             xlink:href="#textext-76d76f47-6"
             width="354.33069"
             height="212.59842" />
        </g>
        <path
           id="path13088"
           transform="matrix(1,0,0,-1,236.152,126.562)"
           d="M 0.00034375,-0.0005 L 7.832375,-0.0005"
           style="fill:none;stroke:#000000;stroke-width:0.398;stroke-linecap:butt;stroke-linejoin:miter;stroke-miterlimit:10;stroke-opacity:1" />
        <g
           id="g13090"
           style="fill:#000000;fill-opacity:1">
          <use
             id="use13092"
             y="134.765"
             x="236.15199"
             xlink:href="#textext-76d76f47-2"
             width="354.33069"
             height="212.59842" />
        </g>
        <g
           id="g13094"
           style="fill:#000000;fill-opacity:1">
          <use
             id="use13096"
             y="134.765"
             x="243.985"
             xlink:href="#textext-76d76f47-7"
             width="354.33069"
             height="212.59842" />
        </g>
      </g>
    </g>
    <text
       id="text14037"
       y="78.81694"
       x="266.17868"
       style="font-size:10px;font-style:normal;font-variant:normal;font-weight:normal;font-stretch:normal;fill:#000000;fill-opacity:1;stroke:none;stroke-width:1px;stroke-linecap:butt;stroke-linejoin:miter;stroke-opacity:1;font-family:LMRoman10;-inkscape-font-specification:LMRoman10"
       xml:space="preserve"><tspan
         y="78.81694"
         x="266.17868"
         id="tspan14039"
         sodipodi:role="line">-(2m+2)</tspan></text>
    <g
       ns0:text="$L_n$"
       ns0:preamble=""
       transform="matrix(1.1,0,0,1.1,-91.133515,-41.458068)"
       id="g15019">
      <defs
         id="defs15021">
        <g
           id="g15023">
          <symbol
             style="overflow:visible"
             overflow="visible"
             id="textext-aa3ee9fe-0">
            <path
               style="stroke:none"
               d=""
               id="path15026" />
          </symbol>
          <symbol
             style="overflow:visible"
             overflow="visible"
             id="textext-aa3ee9fe-1">
            <path
               style="stroke:none"
               d="M 3.734375,-6.03125 C 3.8125,-6.390625 3.84375,-6.5 4.78125,-6.5 C 5.078125,-6.5 5.15625,-6.5 5.15625,-6.6875 C 5.15625,-6.8125 5.046875,-6.8125 5,-6.8125 C 4.671875,-6.8125 3.859375,-6.78125 3.53125,-6.78125 C 3.234375,-6.78125 2.5,-6.8125 2.203125,-6.8125 C 2.140625,-6.8125 2.015625,-6.8125 2.015625,-6.609375 C 2.015625,-6.5 2.109375,-6.5 2.296875,-6.5 C 2.3125,-6.5 2.5,-6.5 2.671875,-6.484375 C 2.84375,-6.453125 2.9375,-6.453125 2.9375,-6.3125 C 2.9375,-6.28125 2.9375,-6.25 2.90625,-6.125 L 1.5625,-0.78125 C 1.46875,-0.390625 1.453125,-0.3125 0.65625,-0.3125 C 0.484375,-0.3125 0.390625,-0.3125 0.390625,-0.109375 C 0.390625,0 0.484375,0 0.65625,0 L 5.28125,0 C 5.515625,0 5.515625,0 5.578125,-0.171875 L 6.375,-2.328125 C 6.40625,-2.4375 6.40625,-2.453125 6.40625,-2.46875 C 6.40625,-2.5 6.375,-2.578125 6.296875,-2.578125 C 6.203125,-2.578125 6.1875,-2.515625 6.125,-2.359375 C 5.78125,-1.453125 5.34375,-0.3125 3.625,-0.3125 L 2.6875,-0.3125 C 2.546875,-0.3125 2.515625,-0.3125 2.46875,-0.3125 C 2.359375,-0.328125 2.328125,-0.34375 2.328125,-0.421875 C 2.328125,-0.453125 2.328125,-0.46875 2.375,-0.640625 L 3.734375,-6.03125 z"
               id="path15029" />
          </symbol>
          <symbol
             style="overflow:visible"
             overflow="visible"
             id="textext-aa3ee9fe-2">
            <path
               style="stroke:none"
               d=""
               id="path15032" />
          </symbol>
          <symbol
             style="overflow:visible"
             overflow="visible"
             id="textext-aa3ee9fe-3">
            <path
               style="stroke:none"
               d="M 0.84375,-0.4375 C 0.828125,-0.34375 0.78125,-0.171875 0.78125,-0.15625 C 0.78125,0 0.90625,0.0625 1.015625,0.0625 C 1.140625,0.0625 1.25,-0.015625 1.296875,-0.078125 C 1.328125,-0.140625 1.375,-0.375 1.421875,-0.515625 C 1.453125,-0.640625 1.53125,-0.96875 1.5625,-1.140625 C 1.609375,-1.296875 1.65625,-1.453125 1.6875,-1.609375 C 1.765625,-1.890625 1.78125,-1.953125 1.984375,-2.234375 C 2.171875,-2.515625 2.5,-2.875 3.03125,-2.875 C 3.421875,-2.875 3.4375,-2.515625 3.4375,-2.390625 C 3.4375,-1.96875 3.140625,-1.203125 3.03125,-0.90625 C 2.953125,-0.703125 2.921875,-0.640625 2.921875,-0.53125 C 2.921875,-0.15625 3.21875,0.0625 3.578125,0.0625 C 4.28125,0.0625 4.578125,-0.890625 4.578125,-1 C 4.578125,-1.09375 4.5,-1.09375 4.46875,-1.09375 C 4.375,-1.09375 4.375,-1.046875 4.34375,-0.96875 C 4.1875,-0.40625 3.875,-0.125 3.609375,-0.125 C 3.453125,-0.125 3.421875,-0.21875 3.421875,-0.375 C 3.421875,-0.53125 3.46875,-0.625 3.59375,-0.9375 C 3.671875,-1.15625 3.953125,-1.890625 3.953125,-2.28125 C 3.953125,-2.953125 3.421875,-3.078125 3.046875,-3.078125 C 2.46875,-3.078125 2.078125,-2.71875 1.875,-2.4375 C 1.828125,-2.921875 1.421875,-3.078125 1.125,-3.078125 C 0.828125,-3.078125 0.671875,-2.859375 0.578125,-2.703125 C 0.421875,-2.4375 0.328125,-2.046875 0.328125,-2 C 0.328125,-1.921875 0.421875,-1.921875 0.453125,-1.921875 C 0.546875,-1.921875 0.546875,-1.9375 0.59375,-2.125 C 0.703125,-2.53125 0.84375,-2.875 1.109375,-2.875 C 1.296875,-2.875 1.34375,-2.71875 1.34375,-2.53125 C 1.34375,-2.40625 1.28125,-2.140625 1.21875,-1.953125 C 1.171875,-1.765625 1.109375,-1.484375 1.078125,-1.328125 L 0.84375,-0.4375 z"
               id="path15035" />
          </symbol>
        </g>
      </defs>
      <g
         id="textext-aa3ee9fe-4">
        <g
           style="fill:#000000;fill-opacity:1"
           id="g15038">
          <use
             height="212.59842"
             width="354.33069"
             xlink:href="#textext-aa3ee9fe-1"
             x="223.43201"
             y="134.765"
             id="use15040" />
        </g>
        <g
           style="fill:#000000;fill-opacity:1"
           id="g15042">
          <use
             height="212.59842"
             width="354.33069"
             xlink:href="#textext-aa3ee9fe-3"
             x="230.21201"
             y="136.259"
             id="use15044" />
        </g>
      </g>
    </g>
    <g
       id="g15523"
       transform="matrix(1.1,0,0,1.1,10.318126,-48.399603)"
       ns0:preamble=""
       ns0:text="$\\sigma\' (\\overline{S}_\\infty)$">
      <defs
         id="defs15525">
        <g
           id="g15527">
          <symbol
             style="overflow:visible"
             id="textext-d806e81c-0"
             overflow="visible">
            <path
               id="path15530"
               d=""
               style="stroke:none" />
          </symbol>
          <symbol
             style="overflow:visible"
             id="textext-d806e81c-1"
             overflow="visible">
            <path
               id="path15533"
               d="M 5.15625,-3.71875 C 5.296875,-3.71875 5.65625,-3.71875 5.65625,-4.0625 C 5.65625,-4.296875 5.4375,-4.296875 5.265625,-4.296875 L 2.984375,-4.296875 C 1.484375,-4.296875 0.375,-2.65625 0.375,-1.46875 C 0.375,-0.59375 0.96875,0.109375 1.875,0.109375 C 3.046875,0.109375 4.375,-1.09375 4.375,-2.625 C 4.375,-2.796875 4.375,-3.28125 4.0625,-3.71875 L 5.15625,-3.71875 z M 1.890625,-0.109375 C 1.390625,-0.109375 1,-0.46875 1,-1.1875 C 1,-1.484375 1.109375,-2.296875 1.46875,-2.890625 C 1.890625,-3.578125 2.484375,-3.71875 2.828125,-3.71875 C 3.65625,-3.71875 3.734375,-3.0625 3.734375,-2.75 C 3.734375,-2.28125 3.53125,-1.46875 3.203125,-0.953125 C 2.8125,-0.375 2.265625,-0.109375 1.890625,-0.109375 z"
               style="stroke:none" />
          </symbol>
          <symbol
             style="overflow:visible"
             id="textext-d806e81c-2"
             overflow="visible">
            <path
               id="path15536"
               d="M 6.4375,-6.921875 C 6.4375,-6.953125 6.40625,-7.03125 6.3125,-7.03125 C 6.265625,-7.03125 6.265625,-7.015625 6.140625,-6.875 L 5.65625,-6.3125 C 5.40625,-6.78125 4.890625,-7.03125 4.234375,-7.03125 C 2.96875,-7.03125 1.78125,-5.875 1.78125,-4.671875 C 1.78125,-3.875 2.296875,-3.40625 2.8125,-3.265625 L 3.875,-2.984375 C 4.25,-2.890625 4.796875,-2.734375 4.796875,-1.921875 C 4.796875,-1.03125 3.984375,-0.09375 3,-0.09375 C 2.359375,-0.09375 1.25,-0.3125 1.25,-1.546875 C 1.25,-1.78125 1.3125,-2.03125 1.3125,-2.078125 C 1.328125,-2.125 1.328125,-2.140625 1.328125,-2.15625 C 1.328125,-2.25 1.265625,-2.265625 1.21875,-2.265625 C 1.171875,-2.265625 1.140625,-2.25 1.109375,-2.21875 C 1.078125,-2.1875 0.515625,0.09375 0.515625,0.125 C 0.515625,0.171875 0.5625,0.21875 0.625,0.21875 C 0.671875,0.21875 0.6875,0.203125 0.8125,0.0625 L 1.296875,-0.5 C 1.71875,0.078125 2.40625,0.21875 2.984375,0.21875 C 4.34375,0.21875 5.515625,-1.109375 5.515625,-2.34375 C 5.515625,-3.03125 5.171875,-3.375 5.03125,-3.515625 C 4.796875,-3.734375 4.640625,-3.78125 3.765625,-4 C 3.53125,-4.0625 3.1875,-4.171875 3.09375,-4.1875 C 2.828125,-4.28125 2.484375,-4.5625 2.484375,-5.09375 C 2.484375,-5.90625 3.28125,-6.75 4.234375,-6.75 C 5.046875,-6.75 5.65625,-6.3125 5.65625,-5.203125 C 5.65625,-4.890625 5.625,-4.703125 5.625,-4.640625 C 5.625,-4.640625 5.625,-4.546875 5.734375,-4.546875 C 5.84375,-4.546875 5.859375,-4.578125 5.890625,-4.75 L 6.4375,-6.921875 z"
               style="stroke:none" />
          </symbol>
          <symbol
             style="overflow:visible"
             id="textext-d806e81c-3"
             overflow="visible">
            <path
               id="path15539"
               d=""
               style="stroke:none" />
          </symbol>
          <symbol
             style="overflow:visible"
             id="textext-d806e81c-4"
             overflow="visible">
            <path
               id="path15542"
               d="M 2.03125,-3.296875 C 2.0625,-3.359375 2.078125,-3.421875 2.078125,-3.515625 C 2.078125,-3.734375 1.890625,-3.890625 1.671875,-3.890625 C 1.390625,-3.890625 1.328125,-3.671875 1.296875,-3.578125 L 0.375,-0.5625 C 0.359375,-0.53125 0.328125,-0.453125 0.328125,-0.4375 C 0.328125,-0.359375 0.546875,-0.28125 0.609375,-0.28125 C 0.65625,-0.28125 0.6875,-0.328125 0.703125,-0.390625 L 2.03125,-3.296875 z"
               style="stroke:none" />
          </symbol>
          <symbol
             style="overflow:visible"
             id="textext-d806e81c-5"
             overflow="visible">
            <path
               id="path15545"
               d="M 4.015625,-1.90625 C 3.671875,-2.328125 3.0625,-3.078125 2.03125,-3.078125 C 1.15625,-3.078125 0.546875,-2.328125 0.546875,-1.5 C 0.546875,-0.6875 1.140625,0.0625 2,0.0625 C 3,0.0625 3.625,-0.71875 3.90625,-1.09375 C 4.25,-0.671875 4.859375,0.0625 5.890625,0.0625 C 6.78125,0.0625 7.390625,-0.671875 7.390625,-1.5 C 7.390625,-2.328125 6.78125,-3.078125 5.921875,-3.078125 C 4.921875,-3.078125 4.3125,-2.28125 4.015625,-1.90625 z M 4.25,-1.65625 C 4.671875,-2.328125 5.296875,-2.8125 5.984375,-2.8125 C 6.703125,-2.8125 7.1875,-2.1875 7.1875,-1.5 C 7.1875,-0.8125 6.625,-0.3125 6.015625,-0.3125 C 5.359375,-0.3125 4.90625,-0.875 4.25,-1.65625 z M 3.671875,-1.359375 C 3.25,-0.671875 2.640625,-0.1875 1.953125,-0.1875 C 1.234375,-0.1875 0.734375,-0.828125 0.734375,-1.5 C 0.734375,-2.1875 1.3125,-2.6875 1.921875,-2.6875 C 2.578125,-2.6875 3.03125,-2.125 3.671875,-1.359375 z"
               style="stroke:none" />
          </symbol>
          <symbol
             style="overflow:visible"
             id="textext-d806e81c-6"
             overflow="visible">
            <path
               id="path15548"
               d=""
               style="stroke:none" />
          </symbol>
          <symbol
             style="overflow:visible"
             id="textext-d806e81c-7"
             overflow="visible">
            <path
               id="path15551"
               d="M 3.296875,2.390625 C 3.296875,2.359375 3.296875,2.34375 3.125,2.171875 C 1.890625,0.921875 1.5625,-0.96875 1.5625,-2.5 C 1.5625,-4.234375 1.9375,-5.96875 3.171875,-7.203125 C 3.296875,-7.328125 3.296875,-7.34375 3.296875,-7.375 C 3.296875,-7.453125 3.265625,-7.484375 3.203125,-7.484375 C 3.09375,-7.484375 2.203125,-6.796875 1.609375,-5.53125 C 1.109375,-4.4375 0.984375,-3.328125 0.984375,-2.5 C 0.984375,-1.71875 1.09375,-0.515625 1.640625,0.625 C 2.25,1.84375 3.09375,2.5 3.203125,2.5 C 3.265625,2.5 3.296875,2.46875 3.296875,2.390625 z"
               style="stroke:none" />
          </symbol>
          <symbol
             style="overflow:visible"
             id="textext-d806e81c-8"
             overflow="visible">
            <path
               id="path15554"
               d="M 2.875,-2.5 C 2.875,-3.265625 2.765625,-4.46875 2.21875,-5.609375 C 1.625,-6.828125 0.765625,-7.484375 0.671875,-7.484375 C 0.609375,-7.484375 0.5625,-7.4375 0.5625,-7.375 C 0.5625,-7.34375 0.5625,-7.328125 0.75,-7.140625 C 1.734375,-6.15625 2.296875,-4.578125 2.296875,-2.5 C 2.296875,-0.78125 1.9375,0.96875 0.703125,2.21875 C 0.5625,2.34375 0.5625,2.359375 0.5625,2.390625 C 0.5625,2.453125 0.609375,2.5 0.671875,2.5 C 0.765625,2.5 1.671875,1.8125 2.25,0.546875 C 2.765625,-0.546875 2.875,-1.65625 2.875,-2.5 z"
               style="stroke:none" />
          </symbol>
        </g>
      </defs>
      <g
         id="textext-d806e81c-9">
        <g
           id="g15557"
           style="fill:#000000;fill-opacity:1">
          <use
             height="212.59842"
             width="354.33069"
             id="use15559"
             y="134.765"
             x="223.43201"
             xlink:href="#textext-d806e81c-1" />
        </g>
        <g
           id="g15561"
           style="fill:#000000;fill-opacity:1">
          <use
             height="212.59842"
             width="354.33069"
             id="use15563"
             y="131.14999"
             x="229.48199"
             xlink:href="#textext-d806e81c-4" />
        </g>
        <g
           id="g15565"
           style="fill:#000000;fill-opacity:1">
          <use
             height="212.59842"
             width="354.33069"
             id="use15567"
             y="134.765"
             x="232.27699"
             xlink:href="#textext-d806e81c-7" />
        </g>
        <path
           id="path15569"
           transform="matrix(1,0,0,-1,236.152,126.562)"
           d="M 0.00034375,-0.0005 L 6.683937,-0.0005"
           style="fill:none;stroke:#000000;stroke-width:0.398;stroke-linecap:butt;stroke-linejoin:miter;stroke-miterlimit:10;stroke-opacity:1" />
        <g
           id="g15571"
           style="fill:#000000;fill-opacity:1">
          <use
             height="212.59842"
             width="354.33069"
             id="use15573"
             y="134.765"
             x="236.15199"
             xlink:href="#textext-d806e81c-2" />
        </g>
        <g
           id="g15575"
           style="fill:#000000;fill-opacity:1">
          <use
             height="212.59842"
             width="354.33069"
             id="use15577"
             y="136.259"
             x="242.83501"
             xlink:href="#textext-d806e81c-5" />
        </g>
        <g
           id="g15579"
           style="fill:#000000;fill-opacity:1">
          <use
             height="212.59842"
             width="354.33069"
             id="use15581"
             y="134.765"
             x="251.276"
             xlink:href="#textext-d806e81c-8" />
        </g>
      </g>
    </g>
    <path
       style="fill:none;fill-rule:evenodd;stroke:#000000;stroke-width:1;stroke-linecap:butt;stroke-linejoin:miter;stroke-opacity:1;stroke-miterlimit:4;stroke-dasharray:4,1;stroke-dashoffset:0"
       d="M 166.68194,124.18764 L 196.68194,54.187635"
       id="path16399" />
    <text
       id="text16401"
       y="100.79652"
       x="216.2924"
       style="font-size:10px;font-style:normal;font-variant:normal;font-weight:normal;font-stretch:normal;fill:#000000;fill-opacity:1;stroke:none;stroke-width:1px;stroke-linecap:butt;stroke-linejoin:miter;stroke-opacity:1;font-family:LMRoman10;-inkscape-font-specification:LMRoman10"
       xml:space="preserve"><tspan
         y="100.79652"
         x="216.2924"
         id="tspan16403"
         sodipodi:role="line">-4</tspan></text>
    <path
       sodipodi:nodetypes="cc"
       id="path16405"
       d="M 177.71806,130.00793 C 203.61851,104.95756 193.09321,69.625239 224.12049,47.68126"
       style="fill:none;fill-rule:evenodd;stroke:#000000;stroke-width:1px;stroke-linecap:butt;stroke-linejoin:miter;stroke-opacity:1" />
    <g
       inkscape:transform-center-y="-11.025658"
       inkscape:transform-center-x="6.8359016"
       id="g16710"
       transform="matrix(0.7882093,0,0,0.7882093,26.762427,-26.245844)"
       ns0:preamble=""
       ns0:text="$L_{n+1}$">
      <defs
         id="defs16712">
        <g
           id="g16714">
          <symbol
             id="textext-c48b6904-0"
             overflow="visible"
             style="overflow:visible">
            <path
               id="path16717"
               d=""
               style="stroke:none" />
          </symbol>
          <symbol
             id="textext-c48b6904-1"
             overflow="visible"
             style="overflow:visible">
            <path
               id="path16720"
               d="M 3.734375,-6.03125 C 3.8125,-6.390625 3.84375,-6.5 4.78125,-6.5 C 5.078125,-6.5 5.15625,-6.5 5.15625,-6.6875 C 5.15625,-6.8125 5.046875,-6.8125 5,-6.8125 C 4.671875,-6.8125 3.859375,-6.78125 3.53125,-6.78125 C 3.234375,-6.78125 2.5,-6.8125 2.203125,-6.8125 C 2.140625,-6.8125 2.015625,-6.8125 2.015625,-6.609375 C 2.015625,-6.5 2.109375,-6.5 2.296875,-6.5 C 2.3125,-6.5 2.5,-6.5 2.671875,-6.484375 C 2.84375,-6.453125 2.9375,-6.453125 2.9375,-6.3125 C 2.9375,-6.28125 2.9375,-6.25 2.90625,-6.125 L 1.5625,-0.78125 C 1.46875,-0.390625 1.453125,-0.3125 0.65625,-0.3125 C 0.484375,-0.3125 0.390625,-0.3125 0.390625,-0.109375 C 0.390625,0 0.484375,0 0.65625,0 L 5.28125,0 C 5.515625,0 5.515625,0 5.578125,-0.171875 L 6.375,-2.328125 C 6.40625,-2.4375 6.40625,-2.453125 6.40625,-2.46875 C 6.40625,-2.5 6.375,-2.578125 6.296875,-2.578125 C 6.203125,-2.578125 6.1875,-2.515625 6.125,-2.359375 C 5.78125,-1.453125 5.34375,-0.3125 3.625,-0.3125 L 2.6875,-0.3125 C 2.546875,-0.3125 2.515625,-0.3125 2.46875,-0.3125 C 2.359375,-0.328125 2.328125,-0.34375 2.328125,-0.421875 C 2.328125,-0.453125 2.328125,-0.46875 2.375,-0.640625 L 3.734375,-6.03125 z"
               style="stroke:none" />
          </symbol>
          <symbol
             id="textext-c48b6904-2"
             overflow="visible"
             style="overflow:visible">
            <path
               id="path16723"
               d=""
               style="stroke:none" />
          </symbol>
          <symbol
             id="textext-c48b6904-3"
             overflow="visible"
             style="overflow:visible">
            <path
               id="path16726"
               d="M 0.84375,-0.4375 C 0.828125,-0.34375 0.78125,-0.171875 0.78125,-0.15625 C 0.78125,0 0.90625,0.0625 1.015625,0.0625 C 1.140625,0.0625 1.25,-0.015625 1.296875,-0.078125 C 1.328125,-0.140625 1.375,-0.375 1.421875,-0.515625 C 1.453125,-0.640625 1.53125,-0.96875 1.5625,-1.140625 C 1.609375,-1.296875 1.65625,-1.453125 1.6875,-1.609375 C 1.765625,-1.890625 1.78125,-1.953125 1.984375,-2.234375 C 2.171875,-2.515625 2.5,-2.875 3.03125,-2.875 C 3.421875,-2.875 3.4375,-2.515625 3.4375,-2.390625 C 3.4375,-1.96875 3.140625,-1.203125 3.03125,-0.90625 C 2.953125,-0.703125 2.921875,-0.640625 2.921875,-0.53125 C 2.921875,-0.15625 3.21875,0.0625 3.578125,0.0625 C 4.28125,0.0625 4.578125,-0.890625 4.578125,-1 C 4.578125,-1.09375 4.5,-1.09375 4.46875,-1.09375 C 4.375,-1.09375 4.375,-1.046875 4.34375,-0.96875 C 4.1875,-0.40625 3.875,-0.125 3.609375,-0.125 C 3.453125,-0.125 3.421875,-0.21875 3.421875,-0.375 C 3.421875,-0.53125 3.46875,-0.625 3.59375,-0.9375 C 3.671875,-1.15625 3.953125,-1.890625 3.953125,-2.28125 C 3.953125,-2.953125 3.421875,-3.078125 3.046875,-3.078125 C 2.46875,-3.078125 2.078125,-2.71875 1.875,-2.4375 C 1.828125,-2.921875 1.421875,-3.078125 1.125,-3.078125 C 0.828125,-3.078125 0.671875,-2.859375 0.578125,-2.703125 C 0.421875,-2.4375 0.328125,-2.046875 0.328125,-2 C 0.328125,-1.921875 0.421875,-1.921875 0.453125,-1.921875 C 0.546875,-1.921875 0.546875,-1.9375 0.59375,-2.125 C 0.703125,-2.53125 0.84375,-2.875 1.109375,-2.875 C 1.296875,-2.875 1.34375,-2.71875 1.34375,-2.53125 C 1.34375,-2.40625 1.28125,-2.140625 1.21875,-1.953125 C 1.171875,-1.765625 1.109375,-1.484375 1.078125,-1.328125 L 0.84375,-0.4375 z"
               style="stroke:none" />
          </symbol>
          <symbol
             id="textext-c48b6904-4"
             overflow="visible"
             style="overflow:visible">
            <path
               id="path16729"
               d=""
               style="stroke:none" />
          </symbol>
          <symbol
             id="textext-c48b6904-5"
             overflow="visible"
             style="overflow:visible">
            <path
               id="path16732"
               d="M 3.21875,-1.578125 L 5.359375,-1.578125 C 5.453125,-1.578125 5.609375,-1.578125 5.609375,-1.734375 C 5.609375,-1.921875 5.453125,-1.921875 5.359375,-1.921875 L 3.21875,-1.921875 L 3.21875,-4.0625 C 3.21875,-4.140625 3.21875,-4.3125 3.0625,-4.3125 C 2.890625,-4.3125 2.890625,-4.15625 2.890625,-4.0625 L 2.890625,-1.921875 L 0.75,-1.921875 C 0.65625,-1.921875 0.484375,-1.921875 0.484375,-1.75 C 0.484375,-1.578125 0.640625,-1.578125 0.75,-1.578125 L 2.890625,-1.578125 L 2.890625,0.5625 C 2.890625,0.65625 2.890625,0.828125 3.046875,0.828125 C 3.21875,0.828125 3.21875,0.65625 3.21875,0.5625 L 3.21875,-1.578125 z"
               style="stroke:none" />
          </symbol>
          <symbol
             id="textext-c48b6904-6"
             overflow="visible"
             style="overflow:visible">
            <path
               id="path16735"
               d="M 2.328125,-4.4375 C 2.328125,-4.625 2.328125,-4.625 2.125,-4.625 C 1.671875,-4.1875 1.046875,-4.1875 0.765625,-4.1875 L 0.765625,-3.9375 C 0.921875,-3.9375 1.390625,-3.9375 1.765625,-4.125 L 1.765625,-0.578125 C 1.765625,-0.34375 1.765625,-0.25 1.078125,-0.25 L 0.8125,-0.25 L 0.8125,0 C 0.9375,0 1.796875,-0.03125 2.046875,-0.03125 C 2.265625,-0.03125 3.140625,0 3.296875,0 L 3.296875,-0.25 L 3.03125,-0.25 C 2.328125,-0.25 2.328125,-0.34375 2.328125,-0.578125 L 2.328125,-4.4375 z"
               style="stroke:none" />
          </symbol>
        </g>
      </defs>
      <g
         id="textext-c48b6904-7">
        <g
           id="g16738"
           style="fill:#000000;fill-opacity:1">
          <use
             id="use16740"
             y="134.765"
             x="223.43201"
             xlink:href="#textext-c48b6904-1"
             width="354.33069"
             height="212.59842" />
        </g>
        <g
           id="g16742"
           style="fill:#000000;fill-opacity:1">
          <use
             id="use16744"
             y="136.259"
             x="230.21201"
             xlink:href="#textext-c48b6904-3"
             width="354.33069"
             height="212.59842" />
        </g>
        <g
           id="g16746"
           style="fill:#000000;fill-opacity:1">
          <use
             id="use16748"
             y="136.259"
             x="235.13699"
             xlink:href="#textext-c48b6904-5"
             width="354.33069"
             height="212.59842" />
          <use
             id="use16750"
             y="136.259"
             x="241.25302"
             xlink:href="#textext-c48b6904-6"
             width="354.33069"
             height="212.59842" />
        </g>
      </g>
    </g>
    <text
       xml:space="preserve"
       style="font-size:10px;font-style:normal;font-variant:normal;font-weight:normal;font-stretch:normal;fill:#000000;fill-opacity:1;stroke:none;stroke-width:1px;stroke-linecap:butt;stroke-linejoin:miter;stroke-opacity:1;font-family:LMRoman10;-inkscape-font-specification:LMRoman10"
       x="144.75528"
       y="98.892136"
       id="text17022"><tspan
         sodipodi:role="line"
         id="tspan17024"
         x="144.75528"
         y="98.892136">-2</tspan></text>
    <text
       xml:space="preserve"
       style="font-size:10px;font-style:normal;font-variant:normal;font-weight:normal;font-stretch:normal;fill:#000000;fill-opacity:1;stroke:none;stroke-width:1px;stroke-linecap:butt;stroke-linejoin:miter;stroke-opacity:1;font-family:LMRoman10;-inkscape-font-specification:LMRoman10"
       x="274.50534"
       y="25.491657"
       id="text17026"><tspan
         sodipodi:role="line"
         id="tspan17028"
         x="274.50534"
         y="25.491657">M</tspan></text>
    <text
       xml:space="preserve"
       style="font-size:10px;font-style:normal;font-variant:normal;font-weight:normal;font-stretch:normal;fill:#000000;fill-opacity:1;stroke:none;stroke-width:1px;stroke-linecap:butt;stroke-linejoin:miter;stroke-opacity:1;font-family:LMRoman10;-inkscape-font-specification:LMRoman10"
       x="64.489998"
       y="72.028969"
       id="text17070"><tspan
         sodipodi:role="line"
         id="tspan17072"
         x="64.489998"
         y="72.028969">-2</tspan></text>
    <text
       id="text17082"
       y="104.34181"
       x="49.718414"
       style="font-size:10px;font-style:normal;font-variant:normal;font-weight:normal;font-stretch:normal;fill:#000000;fill-opacity:1;stroke:none;stroke-width:1px;stroke-linecap:butt;stroke-linejoin:miter;stroke-opacity:1;font-family:LMRoman10;-inkscape-font-specification:LMRoman10"
       xml:space="preserve"><tspan
         y="104.34181"
         x="49.718414"
         id="tspan17084"
         sodipodi:role="line">-2</tspan></text>
    <g
       ns0:text="$L_3$"
       ns0:preamble=""
       transform="matrix(1.1,0,0,1.1,-181.60312,-35.525492)"
       id="g17318">
      <defs
         id="defs17320">
        <g
           id="g17322">
          <symbol
             style="overflow:visible"
             overflow="visible"
             id="textext-1032e54c-0">
            <path
               style="stroke:none"
               d=""
               id="path17325" />
          </symbol>
          <symbol
             style="overflow:visible"
             overflow="visible"
             id="textext-1032e54c-1">
            <path
               style="stroke:none"
               d="M 3.734375,-6.03125 C 3.8125,-6.390625 3.84375,-6.5 4.78125,-6.5 C 5.078125,-6.5 5.15625,-6.5 5.15625,-6.6875 C 5.15625,-6.8125 5.046875,-6.8125 5,-6.8125 C 4.671875,-6.8125 3.859375,-6.78125 3.53125,-6.78125 C 3.234375,-6.78125 2.5,-6.8125 2.203125,-6.8125 C 2.140625,-6.8125 2.015625,-6.8125 2.015625,-6.609375 C 2.015625,-6.5 2.109375,-6.5 2.296875,-6.5 C 2.3125,-6.5 2.5,-6.5 2.671875,-6.484375 C 2.84375,-6.453125 2.9375,-6.453125 2.9375,-6.3125 C 2.9375,-6.28125 2.9375,-6.25 2.90625,-6.125 L 1.5625,-0.78125 C 1.46875,-0.390625 1.453125,-0.3125 0.65625,-0.3125 C 0.484375,-0.3125 0.390625,-0.3125 0.390625,-0.109375 C 0.390625,0 0.484375,0 0.65625,0 L 5.28125,0 C 5.515625,0 5.515625,0 5.578125,-0.171875 L 6.375,-2.328125 C 6.40625,-2.4375 6.40625,-2.453125 6.40625,-2.46875 C 6.40625,-2.5 6.375,-2.578125 6.296875,-2.578125 C 6.203125,-2.578125 6.1875,-2.515625 6.125,-2.359375 C 5.78125,-1.453125 5.34375,-0.3125 3.625,-0.3125 L 2.6875,-0.3125 C 2.546875,-0.3125 2.515625,-0.3125 2.46875,-0.3125 C 2.359375,-0.328125 2.328125,-0.34375 2.328125,-0.421875 C 2.328125,-0.453125 2.328125,-0.46875 2.375,-0.640625 L 3.734375,-6.03125 z"
               id="path17328" />
          </symbol>
          <symbol
             style="overflow:visible"
             overflow="visible"
             id="textext-1032e54c-2">
            <path
               style="stroke:none"
               d=""
               id="path17331" />
          </symbol>
          <symbol
             style="overflow:visible"
             overflow="visible"
             id="textext-1032e54c-3">
            <path
               style="stroke:none"
               d="M 1.90625,-2.328125 C 2.453125,-2.328125 2.84375,-1.953125 2.84375,-1.203125 C 2.84375,-0.34375 2.328125,-0.078125 1.9375,-0.078125 C 1.65625,-0.078125 1.03125,-0.15625 0.75,-0.578125 C 1.078125,-0.578125 1.15625,-0.8125 1.15625,-0.96875 C 1.15625,-1.1875 0.984375,-1.34375 0.765625,-1.34375 C 0.578125,-1.34375 0.375,-1.21875 0.375,-0.9375 C 0.375,-0.28125 1.09375,0.140625 1.9375,0.140625 C 2.90625,0.140625 3.578125,-0.515625 3.578125,-1.203125 C 3.578125,-1.75 3.140625,-2.296875 2.375,-2.453125 C 3.09375,-2.71875 3.359375,-3.234375 3.359375,-3.671875 C 3.359375,-4.21875 2.734375,-4.625 1.953125,-4.625 C 1.1875,-4.625 0.59375,-4.25 0.59375,-3.6875 C 0.59375,-3.453125 0.75,-3.328125 0.953125,-3.328125 C 1.171875,-3.328125 1.3125,-3.484375 1.3125,-3.671875 C 1.3125,-3.875 1.171875,-4.03125 0.953125,-4.046875 C 1.203125,-4.34375 1.671875,-4.421875 1.9375,-4.421875 C 2.25,-4.421875 2.6875,-4.265625 2.6875,-3.671875 C 2.6875,-3.375 2.59375,-3.046875 2.40625,-2.84375 C 2.1875,-2.578125 1.984375,-2.5625 1.640625,-2.53125 C 1.46875,-2.515625 1.453125,-2.515625 1.421875,-2.515625 C 1.40625,-2.515625 1.34375,-2.5 1.34375,-2.421875 C 1.34375,-2.328125 1.40625,-2.328125 1.53125,-2.328125 L 1.90625,-2.328125 z"
               id="path17334" />
          </symbol>
        </g>
      </defs>
      <g
         id="textext-1032e54c-4">
        <g
           style="fill:#000000;fill-opacity:1"
           id="g17337">
          <use
             height="212.59842"
             width="354.33069"
             xlink:href="#textext-1032e54c-1"
             x="223.43201"
             y="134.765"
             id="use17339" />
        </g>
        <g
           style="fill:#000000;fill-opacity:1"
           id="g17341">
          <use
             height="212.59842"
             width="354.33069"
             xlink:href="#textext-1032e54c-3"
             x="230.21201"
             y="136.259"
             id="use17343" />
        </g>
      </g>
    </g>
    <path
       id="path17591"
       d="M 269.724,56.050965 L 240.53756,124.18764"
       style="fill:none;fill-rule:evenodd;stroke:#000000;stroke-width:1;stroke-linecap:butt;stroke-linejoin:miter;stroke-miterlimit:4;stroke-dasharray:none;stroke-dashoffset:0;stroke-opacity:1" />
    <text
       id="text17593"
       y="98.892136"
       x="180.45328"
       style="font-size:10px;font-style:normal;font-variant:normal;font-weight:normal;font-stretch:normal;fill:#000000;fill-opacity:1;stroke:none;stroke-width:1px;stroke-linecap:butt;stroke-linejoin:miter;stroke-opacity:1;font-family:LMRoman10;-inkscape-font-specification:LMRoman10"
       xml:space="preserve"><tspan
         y="98.892136"
         x="180.45328"
         id="tspan17595"
         sodipodi:role="line">-2</tspan></text>
    <g
       id="g17826"
       transform="matrix(1.1,0,0,1.1,-219.18563,-35.749295)"
       ns0:preamble=""
       ns0:text="$L_1$">
      <defs
         id="defs17828">
        <g
           id="g17830">
          <symbol
             id="textext-610d39f5-0"
             overflow="visible">
            <path
               id="path17833"
               d=""
               style="stroke:none;" />
          </symbol>
          <symbol
             id="textext-610d39f5-1"
             overflow="visible">
            <path
               id="path17836"
               d="M 3.734375 -6.03125 C 3.8125 -6.390625 3.84375 -6.5 4.78125 -6.5 C 5.078125 -6.5 5.15625 -6.5 5.15625 -6.6875 C 5.15625 -6.8125 5.046875 -6.8125 5 -6.8125 C 4.671875 -6.8125 3.859375 -6.78125 3.53125 -6.78125 C 3.234375 -6.78125 2.5 -6.8125 2.203125 -6.8125 C 2.140625 -6.8125 2.015625 -6.8125 2.015625 -6.609375 C 2.015625 -6.5 2.109375 -6.5 2.296875 -6.5 C 2.3125 -6.5 2.5 -6.5 2.671875 -6.484375 C 2.84375 -6.453125 2.9375 -6.453125 2.9375 -6.3125 C 2.9375 -6.28125 2.9375 -6.25 2.90625 -6.125 L 1.5625 -0.78125 C 1.46875 -0.390625 1.453125 -0.3125 0.65625 -0.3125 C 0.484375 -0.3125 0.390625 -0.3125 0.390625 -0.109375 C 0.390625 0 0.484375 0 0.65625 0 L 5.28125 0 C 5.515625 0 5.515625 0 5.578125 -0.171875 L 6.375 -2.328125 C 6.40625 -2.4375 6.40625 -2.453125 6.40625 -2.46875 C 6.40625 -2.5 6.375 -2.578125 6.296875 -2.578125 C 6.203125 -2.578125 6.1875 -2.515625 6.125 -2.359375 C 5.78125 -1.453125 5.34375 -0.3125 3.625 -0.3125 L 2.6875 -0.3125 C 2.546875 -0.3125 2.515625 -0.3125 2.46875 -0.3125 C 2.359375 -0.328125 2.328125 -0.34375 2.328125 -0.421875 C 2.328125 -0.453125 2.328125 -0.46875 2.375 -0.640625 L 3.734375 -6.03125 Z M 3.734375 -6.03125 "
               style="stroke:none;" />
          </symbol>
          <symbol
             id="textext-610d39f5-2"
             overflow="visible">
            <path
               id="path17839"
               d=""
               style="stroke:none;" />
          </symbol>
          <symbol
             id="textext-610d39f5-3"
             overflow="visible">
            <path
               id="path17842"
               d="M 2.328125 -4.4375 C 2.328125 -4.625 2.328125 -4.625 2.125 -4.625 C 1.671875 -4.1875 1.046875 -4.1875 0.765625 -4.1875 L 0.765625 -3.9375 C 0.921875 -3.9375 1.390625 -3.9375 1.765625 -4.125 L 1.765625 -0.578125 C 1.765625 -0.34375 1.765625 -0.25 1.078125 -0.25 L 0.8125 -0.25 L 0.8125 0 C 0.9375 0 1.796875 -0.03125 2.046875 -0.03125 C 2.265625 -0.03125 3.140625 0 3.296875 0 L 3.296875 -0.25 L 3.03125 -0.25 C 2.328125 -0.25 2.328125 -0.34375 2.328125 -0.578125 L 2.328125 -4.4375 Z M 2.328125 -4.4375 "
               style="stroke:none;" />
          </symbol>
        </g>
      </defs>
      <g
         id="textext-610d39f5-4">
        <g
           id="g17845"
           style="fill:rgb(0%,0%,0%);fill-opacity:1;">
          <use
             id="use17847"
             y="134.765"
             x="223.432"
             xlink:href="#textext-610d39f5-1" />
        </g>
        <g
           id="g17849"
           style="fill:rgb(0%,0%,0%);fill-opacity:1;">
          <use
             id="use17851"
             y="136.259"
             x="230.212"
             xlink:href="#textext-610d39f5-3" />
        </g>
      </g>
    </g>
    <text
       id="text18096"
       y="76.039246"
       x="232.75119"
       style="font-size:10px;font-style:normal;font-variant:normal;font-weight:normal;font-stretch:normal;fill:#000000;fill-opacity:1;stroke:none;stroke-width:1px;stroke-linecap:butt;stroke-linejoin:miter;stroke-opacity:1;font-family:LMRoman10;-inkscape-font-specification:LMRoman10"
       xml:space="preserve"><tspan
         y="76.039246"
         x="232.75119"
         id="tspan18098"
         sodipodi:role="line">-1</tspan></text>
  </g>
</svg>
