<?xml version="1.0" encoding="UTF-8" standalone="no"?>
<!-- Created with Inkscape (http://www.inkscape.org/) -->
<svg
   xmlns:ns0="http://www.iki.fi/pav/software/textext/"
   xmlns:dc="http://purl.org/dc/elements/1.1/"
   xmlns:cc="http://creativecommons.org/ns#"
   xmlns:rdf="http://www.w3.org/1999/02/22-rdf-syntax-ns#"
   xmlns:svg="http://www.w3.org/2000/svg"
   xmlns="http://www.w3.org/2000/svg"
   xmlns:xlink="http://www.w3.org/1999/xlink"
   xmlns:sodipodi="http://sodipodi.sourceforge.net/DTD/sodipodi-0.dtd"
   xmlns:inkscape="http://www.inkscape.org/namespaces/inkscape"
   width="354.33069"
   height="212.59842"
   id="svg2460"
   sodipodi:version="0.32"
   inkscape:version="0.46"
   version="1.0"
   sodipodi:docname="miyansi_fig9.svg"
   inkscape:output_extension="org.inkscape.output.svg.inkscape">
  <sodipodi:namedview
     id="base"
     pagecolor="#ffffff"
     bordercolor="#666666"
     borderopacity="1.0"
     gridtolerance="10000"
     guidetolerance="10"
     objecttolerance="10"
     inkscape:pageopacity="0.0"
     inkscape:pageshadow="2"
     inkscape:zoom="1.6143912"
     inkscape:cx="201.96909"
     inkscape:cy="157.03022"
     inkscape:document-units="px"
     inkscape:current-layer="layer1"
     showgrid="false"
     units="cm"
     inkscape:window-width="985"
     inkscape:window-height="723"
     inkscape:window-x="0"
     inkscape:window-y="25">
    <inkscape:grid
       enabled="true"
       visible="true"
       id="grid5053"
       type="xygrid" />
  </sodipodi:namedview>
  <defs
     id="defs2462">
    <marker
       style="overflow:visible"
       id="Arrow1Mstart"
       refX="0.0"
       refY="0.0"
       orient="auto"
       inkscape:stockid="Arrow1Mstart">
      <path
         transform="scale(0.4) translate(10,0)"
         style="fill-rule:evenodd;stroke:#000000;stroke-width:1.0pt;marker-start:none"
         d="M 0.0,0.0 L 5.0,-5.0 L -12.5,0.0 L 5.0,5.0 L 0.0,0.0 z "
         id="path22217" />
    </marker>
    <marker
       style="overflow:visible;"
       id="Arrow1Mend"
       refX="0.0"
       refY="0.0"
       orient="auto"
       inkscape:stockid="Arrow1Mend">
      <path
         transform="scale(0.4) rotate(180) translate(10,0)"
         style="fill-rule:evenodd;stroke:#000000;stroke-width:1.0pt;marker-start:none;"
         d="M 0.0,0.0 L 5.0,-5.0 L -12.5,0.0 L 5.0,5.0 L 0.0,0.0 z "
         id="path22220" />
    </marker>
    <inkscape:perspective
       id="perspective2468"
       inkscape:persp3d-origin="372.04724 : 350.78739 : 1"
       inkscape:vp_z="744.09448 : 526.18109 : 1"
       inkscape:vp_y="0 : 1000 : 0"
       inkscape:vp_x="0 : 526.18109 : 1"
       sodipodi:type="inkscape:persp3d" />
    <defs
       id="defs25328">
      <g
         id="g25330">
        <symbol
           overflow="visible"
           id="textext-d3dddb04-0">
          <path
             style="stroke:none;"
             d=""
             id="path25333" />
        </symbol>
        <symbol
           overflow="visible"
           id="textext-d3dddb04-1">
          <path
             style="stroke:none;"
             d="M 3.296875 2.390625 C 3.296875 2.359375 3.296875 2.34375 3.125 2.171875 C 1.890625 0.921875 1.5625 -0.96875 1.5625 -2.5 C 1.5625 -4.234375 1.9375 -5.96875 3.171875 -7.203125 C 3.296875 -7.328125 3.296875 -7.34375 3.296875 -7.375 C 3.296875 -7.453125 3.265625 -7.484375 3.203125 -7.484375 C 3.09375 -7.484375 2.203125 -6.796875 1.609375 -5.53125 C 1.109375 -4.4375 0.984375 -3.328125 0.984375 -2.5 C 0.984375 -1.71875 1.09375 -0.515625 1.640625 0.625 C 2.25 1.84375 3.09375 2.5 3.203125 2.5 C 3.265625 2.5 3.296875 2.46875 3.296875 2.390625 Z M 3.296875 2.390625 "
             id="path25336" />
        </symbol>
        <symbol
           overflow="visible"
           id="textext-d3dddb04-2">
          <path
             style="stroke:none;"
             d="M 2.5 -6.921875 L 1.15625 -5.5625 L 1.328125 -5.390625 L 2.5 -6.40625 L 3.640625 -5.390625 L 3.8125 -5.5625 L 2.5 -6.921875 Z M 2.5 -6.921875 "
             id="path25339" />
        </symbol>
        <symbol
           overflow="visible"
           id="textext-d3dddb04-3">
          <path
             style="stroke:none;"
             d="M 2.875 -2.5 C 2.875 -3.265625 2.765625 -4.46875 2.21875 -5.609375 C 1.625 -6.828125 0.765625 -7.484375 0.671875 -7.484375 C 0.609375 -7.484375 0.5625 -7.4375 0.5625 -7.375 C 0.5625 -7.34375 0.5625 -7.328125 0.75 -7.140625 C 1.734375 -6.15625 2.296875 -4.578125 2.296875 -2.5 C 2.296875 -0.78125 1.9375 0.96875 0.703125 2.21875 C 0.5625 2.34375 0.5625 2.359375 0.5625 2.390625 C 0.5625 2.453125 0.609375 2.5 0.671875 2.5 C 0.765625 2.5 1.671875 1.8125 2.25 0.546875 C 2.765625 -0.546875 2.875 -1.65625 2.875 -2.5 Z M 2.875 -2.5 "
             id="path25342" />
        </symbol>
        <symbol
           overflow="visible"
           id="textext-d3dddb04-4">
          <path
             style="stroke:none;"
             d=""
             id="path25345" />
        </symbol>
        <symbol
           overflow="visible"
           id="textext-d3dddb04-5">
          <path
             style="stroke:none;"
             d="M 5.15625 -3.71875 C 5.296875 -3.71875 5.65625 -3.71875 5.65625 -4.0625 C 5.65625 -4.296875 5.4375 -4.296875 5.265625 -4.296875 L 2.984375 -4.296875 C 1.484375 -4.296875 0.375 -2.65625 0.375 -1.46875 C 0.375 -0.59375 0.96875 0.109375 1.875 0.109375 C 3.046875 0.109375 4.375 -1.09375 4.375 -2.625 C 4.375 -2.796875 4.375 -3.28125 4.0625 -3.71875 L 5.15625 -3.71875 Z M 1.890625 -0.109375 C 1.390625 -0.109375 1 -0.46875 1 -1.1875 C 1 -1.484375 1.109375 -2.296875 1.46875 -2.890625 C 1.890625 -3.578125 2.484375 -3.71875 2.828125 -3.71875 C 3.65625 -3.71875 3.734375 -3.0625 3.734375 -2.75 C 3.734375 -2.28125 3.53125 -1.46875 3.203125 -0.953125 C 2.8125 -0.375 2.265625 -0.109375 1.890625 -0.109375 Z M 1.890625 -0.109375 "
             id="path25348" />
        </symbol>
        <symbol
           overflow="visible"
           id="textext-d3dddb04-6">
          <path
             style="stroke:none;"
             d="M 6.4375 -6.921875 C 6.4375 -6.953125 6.40625 -7.03125 6.3125 -7.03125 C 6.265625 -7.03125 6.265625 -7.015625 6.140625 -6.875 L 5.65625 -6.3125 C 5.40625 -6.78125 4.890625 -7.03125 4.234375 -7.03125 C 2.96875 -7.03125 1.78125 -5.875 1.78125 -4.671875 C 1.78125 -3.875 2.296875 -3.40625 2.8125 -3.265625 L 3.875 -2.984375 C 4.25 -2.890625 4.796875 -2.734375 4.796875 -1.921875 C 4.796875 -1.03125 3.984375 -0.09375 3 -0.09375 C 2.359375 -0.09375 1.25 -0.3125 1.25 -1.546875 C 1.25 -1.78125 1.3125 -2.03125 1.3125 -2.078125 C 1.328125 -2.125 1.328125 -2.140625 1.328125 -2.15625 C 1.328125 -2.25 1.265625 -2.265625 1.21875 -2.265625 C 1.171875 -2.265625 1.140625 -2.25 1.109375 -2.21875 C 1.078125 -2.1875 0.515625 0.09375 0.515625 0.125 C 0.515625 0.171875 0.5625 0.21875 0.625 0.21875 C 0.671875 0.21875 0.6875 0.203125 0.8125 0.0625 L 1.296875 -0.5 C 1.71875 0.078125 2.40625 0.21875 2.984375 0.21875 C 4.34375 0.21875 5.515625 -1.109375 5.515625 -2.34375 C 5.515625 -3.03125 5.171875 -3.375 5.03125 -3.515625 C 4.796875 -3.734375 4.640625 -3.78125 3.765625 -4 C 3.53125 -4.0625 3.1875 -4.171875 3.09375 -4.1875 C 2.828125 -4.28125 2.484375 -4.5625 2.484375 -5.09375 C 2.484375 -5.90625 3.28125 -6.75 4.234375 -6.75 C 5.046875 -6.75 5.65625 -6.3125 5.65625 -5.203125 C 5.65625 -4.890625 5.625 -4.703125 5.625 -4.640625 C 5.625 -4.640625 5.625 -4.546875 5.734375 -4.546875 C 5.84375 -4.546875 5.859375 -4.578125 5.890625 -4.75 L 6.4375 -6.921875 Z M 6.4375 -6.921875 "
             id="path25351" />
        </symbol>
        <symbol
           overflow="visible"
           id="textext-d3dddb04-7">
          <path
             style="stroke:none;"
             d=""
             id="path25354" />
        </symbol>
        <symbol
           overflow="visible"
           id="textext-d3dddb04-8">
          <path
             style="stroke:none;"
             d="M 2.03125 -3.296875 C 2.0625 -3.359375 2.078125 -3.421875 2.078125 -3.515625 C 2.078125 -3.734375 1.890625 -3.890625 1.671875 -3.890625 C 1.390625 -3.890625 1.328125 -3.671875 1.296875 -3.578125 L 0.375 -0.5625 C 0.359375 -0.53125 0.328125 -0.453125 0.328125 -0.4375 C 0.328125 -0.359375 0.546875 -0.28125 0.609375 -0.28125 C 0.65625 -0.28125 0.6875 -0.328125 0.703125 -0.390625 L 2.03125 -3.296875 Z M 2.03125 -3.296875 "
             id="path25357" />
        </symbol>
      </g>
    </defs>
  </defs>
  <metadata
     id="metadata2465">
    <rdf:RDF>
      <cc:Work
         rdf:about="">
        <dc:format>image/svg+xml</dc:format>
        <dc:type
           rdf:resource="http://purl.org/dc/dcmitype/StillImage" />
      </cc:Work>
    </rdf:RDF>
  </metadata>
  <g
     id="layer1"
     inkscape:groupmode="layer"
     inkscape:label="Layer 1">
    <path
       style="fill:none;fill-rule:evenodd;stroke:#000000;stroke-width:1;stroke-linecap:butt;stroke-linejoin:miter;stroke-miterlimit:4;stroke-dasharray:4, 1;stroke-dashoffset:0;stroke-opacity:1"
       d="M 63.757312,130.15692 L 93.757312,60.156912"
       id="path6691" />
    <path
       style="fill:none;fill-rule:evenodd;stroke:#000000;stroke-width:1;stroke-linecap:butt;stroke-linejoin:miter;stroke-miterlimit:4;stroke-dasharray:4, 1;stroke-dashoffset:0;stroke-opacity:1"
       d="M 78.757312,60.156912 L 108.75731,130.15692"
       id="path6693" />
    <path
       id="path6695"
       d="M 98.757312,130.15692 L 128.75731,60.156912"
       style="fill:none;fill-rule:evenodd;stroke:#000000;stroke-width:1;stroke-linecap:butt;stroke-linejoin:miter;stroke-miterlimit:4;stroke-dasharray:none;stroke-dashoffset:0;stroke-opacity:1" />
    <text
       xml:space="preserve"
       style="font-size:10px;font-style:normal;font-variant:normal;font-weight:normal;font-stretch:normal;fill:#000000;fill-opacity:1;stroke:none;stroke-width:1px;stroke-linecap:butt;stroke-linejoin:miter;stroke-opacity:1;font-family:LMRoman10;-inkscape-font-specification:LMRoman10"
       x="95.74807"
       y="91.13015"
       id="text6697"><tspan
         sodipodi:role="line"
         id="tspan6699"
         x="95.74807"
         y="91.13015">-1</tspan></text>
    <path
       id="path7078"
       d="M 152.40339,93.551365 L 182.40339,93.551365"
       style="fill:none;fill-rule:evenodd;stroke:#000000;stroke-width:0.99999994000000003;stroke-linecap:butt;stroke-linejoin:miter;stroke-miterlimit:4;stroke-dasharray:none;stroke-dashoffset:0;stroke-opacity:1;marker-end:none;marker-mid:none;marker-start:url(#Arrow1Mstart)" />
    <path
       id="path10071"
       d="M 192.1504,129.78234 L 222.1504,59.78233"
       style="fill:none;fill-rule:evenodd;stroke:#000000;stroke-width:1;stroke-linecap:butt;stroke-linejoin:miter;stroke-miterlimit:4;stroke-dasharray:4, 1;stroke-dashoffset:0;stroke-opacity:1" />
    <path
       id="path10073"
       d="M 197.58003,82.046508 L 269.09957,55.87482"
       style="fill:none;fill-rule:evenodd;stroke:#000000;stroke-width:1;stroke-linecap:butt;stroke-linejoin:miter;stroke-miterlimit:4;stroke-dasharray:4.00000016, 1.00000004;stroke-dashoffset:0;stroke-opacity:1" />
    <text
       xml:space="preserve"
       style="font-size:10px;font-style:normal;font-variant:normal;font-weight:normal;font-stretch:normal;fill:#000000;fill-opacity:1;stroke:none;stroke-width:1px;stroke-linecap:butt;stroke-linejoin:miter;stroke-opacity:1;font-family:LMRoman10;-inkscape-font-specification:LMRoman10"
       x="221.80821"
       y="67.783958"
       id="text10115"><tspan
         sodipodi:role="line"
         id="tspan10117"
         x="221.80821"
         y="67.783958">-1</tspan></text>
    <text
       id="text10135"
       y="83.742233"
       x="9.3645487"
       style="font-size:10px;font-style:normal;font-variant:normal;font-weight:normal;font-stretch:normal;fill:#000000;fill-opacity:1;stroke:none;stroke-width:1px;stroke-linecap:butt;stroke-linejoin:miter;stroke-opacity:1;font-family:LMRoman10;-inkscape-font-specification:LMRoman10"
       xml:space="preserve"><tspan
         y="83.742233"
         x="9.3645487"
         id="tspan10137"
         sodipodi:role="line" /></text>
    <text
       id="text10489"
       y="123.34275"
       x="70.639511"
       style="font-size:10px;font-style:normal;font-variant:normal;font-weight:normal;font-stretch:normal;fill:#000000;fill-opacity:1;stroke:none;stroke-width:1px;stroke-linecap:butt;stroke-linejoin:miter;stroke-opacity:1;font-family:LMRoman10;-inkscape-font-specification:LMRoman10"
       xml:space="preserve"><tspan
         y="123.34275"
         x="70.639511"
         id="tspan10491"
         sodipodi:role="line">-2</tspan></text>
    <path
       style="fill:none;fill-rule:evenodd;stroke:#000000;stroke-width:1;stroke-linecap:butt;stroke-linejoin:miter;stroke-miterlimit:4;stroke-dasharray:none;stroke-dashoffset:0;stroke-opacity:1"
       d="M 281.15802,129.78234 L 311.15802,59.78233"
       id="path16399" />
    <path
       sodipodi:nodetypes="cc"
       id="path16405"
       d="M 236.97541,132.3927 C 251.34001,100.80649 216.06371,69.550566 243.30317,43.370743"
       style="fill:none;fill-rule:evenodd;stroke:#000000;stroke-width:0.99999994px;stroke-linecap:butt;stroke-linejoin:miter;stroke-opacity:1" />
    <text
       xml:space="preserve"
       style="font-size:10px;font-style:normal;font-variant:normal;font-weight:normal;font-stretch:normal;fill:#000000;fill-opacity:1;stroke:none;stroke-width:1px;stroke-linecap:butt;stroke-linejoin:miter;stroke-opacity:1;font-family:LMRoman10;-inkscape-font-specification:LMRoman10"
       x="207.22058"
       y="103.9853"
       id="text17022"><tspan
         sodipodi:role="line"
         id="tspan17024"
         x="207.22058"
         y="103.9853">-4</tspan></text>
    <path
       id="path18220"
       d="M 273.30045,109.49533 L 250.34693,52.179392"
       style="fill:none;fill-rule:evenodd;stroke:#000000;stroke-width:0.99999988;stroke-linecap:butt;stroke-linejoin:miter;stroke-miterlimit:4;stroke-dasharray:none;stroke-dashoffset:0;stroke-opacity:1" />
    <path
       style="fill:none;fill-rule:evenodd;stroke:#000000;stroke-width:1;stroke-linecap:butt;stroke-linejoin:miter;stroke-miterlimit:4;stroke-dasharray:4.00000015, 1.00000003;stroke-dashoffset:0;stroke-opacity:1"
       d="M 254.54098,94.958446 L 313.57173,119.88599"
       id="path18222" />
    <text
       id="text18224"
       y="79.454712"
       x="248.10489"
       style="font-size:10px;font-style:normal;font-variant:normal;font-weight:normal;font-stretch:normal;fill:#000000;fill-opacity:1;stroke:none;stroke-width:1px;stroke-linecap:butt;stroke-linejoin:miter;stroke-opacity:1;font-family:LMRoman10;-inkscape-font-specification:LMRoman10"
       xml:space="preserve"><tspan
         y="79.454712"
         x="248.10489"
         id="tspan18226"
         sodipodi:role="line">-2</tspan></text>
    <text
       xml:space="preserve"
       style="font-size:10px;font-style:normal;font-variant:normal;font-weight:normal;font-stretch:normal;fill:#000000;fill-opacity:1;stroke:none;stroke-width:1px;stroke-linecap:butt;stroke-linejoin:miter;stroke-opacity:1;font-family:LMRoman10;-inkscape-font-specification:LMRoman10"
       x="279.52124"
       y="103.98529"
       id="text18228"><tspan
         sodipodi:role="line"
         id="tspan18230"
         x="279.52124"
         y="103.98529">-2</tspan></text>
    <g
       id="g19595"
       transform="matrix(1.1,0,0,1.1,-31.752203,-2.8505353)"
       ns0:preamble=""
       ns0:text="$(\\sigma\\hat{\\sigma})\' (\\overline{C})$">
      <defs
         id="defs19597">
        <g
           id="g19599">
          <symbol
             id="textext-43728899-0"
             overflow="visible"
             style="overflow:visible">
            <path
               id="path19602"
               d=""
               style="stroke:none" />
          </symbol>
          <symbol
             id="textext-43728899-1"
             overflow="visible"
             style="overflow:visible">
            <path
               id="path19605"
               d="M 3.296875,2.390625 C 3.296875,2.359375 3.296875,2.34375 3.125,2.171875 C 1.890625,0.921875 1.5625,-0.96875 1.5625,-2.5 C 1.5625,-4.234375 1.9375,-5.96875 3.171875,-7.203125 C 3.296875,-7.328125 3.296875,-7.34375 3.296875,-7.375 C 3.296875,-7.453125 3.265625,-7.484375 3.203125,-7.484375 C 3.09375,-7.484375 2.203125,-6.796875 1.609375,-5.53125 C 1.109375,-4.4375 0.984375,-3.328125 0.984375,-2.5 C 0.984375,-1.71875 1.09375,-0.515625 1.640625,0.625 C 2.25,1.84375 3.09375,2.5 3.203125,2.5 C 3.265625,2.5 3.296875,2.46875 3.296875,2.390625 z"
               style="stroke:none" />
          </symbol>
          <symbol
             id="textext-43728899-2"
             overflow="visible"
             style="overflow:visible">
            <path
               id="path19608"
               d="M 2.5,-6.921875 L 1.15625,-5.5625 L 1.328125,-5.390625 L 2.5,-6.40625 L 3.640625,-5.390625 L 3.8125,-5.5625 L 2.5,-6.921875 z"
               style="stroke:none" />
          </symbol>
          <symbol
             id="textext-43728899-3"
             overflow="visible"
             style="overflow:visible">
            <path
               id="path19611"
               d="M 2.875,-2.5 C 2.875,-3.265625 2.765625,-4.46875 2.21875,-5.609375 C 1.625,-6.828125 0.765625,-7.484375 0.671875,-7.484375 C 0.609375,-7.484375 0.5625,-7.4375 0.5625,-7.375 C 0.5625,-7.34375 0.5625,-7.328125 0.75,-7.140625 C 1.734375,-6.15625 2.296875,-4.578125 2.296875,-2.5 C 2.296875,-0.78125 1.9375,0.96875 0.703125,2.21875 C 0.5625,2.34375 0.5625,2.359375 0.5625,2.390625 C 0.5625,2.453125 0.609375,2.5 0.671875,2.5 C 0.765625,2.5 1.671875,1.8125 2.25,0.546875 C 2.765625,-0.546875 2.875,-1.65625 2.875,-2.5 z"
               style="stroke:none" />
          </symbol>
          <symbol
             id="textext-43728899-4"
             overflow="visible"
             style="overflow:visible">
            <path
               id="path19614"
               d=""
               style="stroke:none" />
          </symbol>
          <symbol
             id="textext-43728899-5"
             overflow="visible"
             style="overflow:visible">
            <path
               id="path19617"
               d="M 5.15625,-3.71875 C 5.296875,-3.71875 5.65625,-3.71875 5.65625,-4.0625 C 5.65625,-4.296875 5.4375,-4.296875 5.265625,-4.296875 L 2.984375,-4.296875 C 1.484375,-4.296875 0.375,-2.65625 0.375,-1.46875 C 0.375,-0.59375 0.96875,0.109375 1.875,0.109375 C 3.046875,0.109375 4.375,-1.09375 4.375,-2.625 C 4.375,-2.796875 4.375,-3.28125 4.0625,-3.71875 L 5.15625,-3.71875 z M 1.890625,-0.109375 C 1.390625,-0.109375 1,-0.46875 1,-1.1875 C 1,-1.484375 1.109375,-2.296875 1.46875,-2.890625 C 1.890625,-3.578125 2.484375,-3.71875 2.828125,-3.71875 C 3.65625,-3.71875 3.734375,-3.0625 3.734375,-2.75 C 3.734375,-2.28125 3.53125,-1.46875 3.203125,-0.953125 C 2.8125,-0.375 2.265625,-0.109375 1.890625,-0.109375 z"
               style="stroke:none" />
          </symbol>
          <symbol
             id="textext-43728899-6"
             overflow="visible"
             style="overflow:visible">
            <path
               id="path19620"
               d="M 7.578125,-6.921875 C 7.578125,-6.953125 7.5625,-7.03125 7.46875,-7.03125 C 7.4375,-7.03125 7.421875,-7.015625 7.3125,-6.90625 L 6.625,-6.140625 C 6.53125,-6.28125 6.078125,-7.03125 4.96875,-7.03125 C 2.734375,-7.03125 0.5,-4.828125 0.5,-2.515625 C 0.5,-0.875 1.671875,0.21875 3.203125,0.21875 C 4.0625,0.21875 4.828125,-0.171875 5.359375,-0.640625 C 6.28125,-1.453125 6.453125,-2.359375 6.453125,-2.390625 C 6.453125,-2.5 6.34375,-2.5 6.328125,-2.5 C 6.265625,-2.5 6.21875,-2.46875 6.203125,-2.390625 C 6.109375,-2.109375 5.875,-1.390625 5.1875,-0.8125 C 4.5,-0.265625 3.875,-0.09375 3.359375,-0.09375 C 2.46875,-0.09375 1.40625,-0.609375 1.40625,-2.15625 C 1.40625,-2.734375 1.609375,-4.34375 2.609375,-5.515625 C 3.21875,-6.21875 4.15625,-6.71875 5.046875,-6.71875 C 6.0625,-6.71875 6.65625,-5.953125 6.65625,-4.796875 C 6.65625,-4.390625 6.625,-4.390625 6.625,-4.28125 C 6.625,-4.1875 6.734375,-4.1875 6.765625,-4.1875 C 6.890625,-4.1875 6.890625,-4.203125 6.953125,-4.390625 L 7.578125,-6.921875 z"
               style="stroke:none" />
          </symbol>
          <symbol
             id="textext-43728899-7"
             overflow="visible"
             style="overflow:visible">
            <path
               id="path19623"
               d=""
               style="stroke:none" />
          </symbol>
          <symbol
             id="textext-43728899-8"
             overflow="visible"
             style="overflow:visible">
            <path
               id="path19626"
               d="M 2.03125,-3.296875 C 2.0625,-3.359375 2.078125,-3.421875 2.078125,-3.515625 C 2.078125,-3.734375 1.890625,-3.890625 1.671875,-3.890625 C 1.390625,-3.890625 1.328125,-3.671875 1.296875,-3.578125 L 0.375,-0.5625 C 0.359375,-0.53125 0.328125,-0.453125 0.328125,-0.4375 C 0.328125,-0.359375 0.546875,-0.28125 0.609375,-0.28125 C 0.65625,-0.28125 0.6875,-0.328125 0.703125,-0.390625 L 2.03125,-3.296875 z"
               style="stroke:none" />
          </symbol>
        </g>
      </defs>
      <g
         id="textext-43728899-9">
        <g
           id="g19629"
           style="fill:#000000;fill-opacity:1">
          <use
             id="use19631"
             y="134.765"
             x="223.43201"
             xlink:href="#textext-43728899-1"
             width="354.33069"
             height="212.59842" />
        </g>
        <g
           id="g19633"
           style="fill:#000000;fill-opacity:1">
          <use
             id="use19635"
             y="134.765"
             x="227.306"
             xlink:href="#textext-43728899-5"
             width="354.33069"
             height="212.59842" />
        </g>
        <g
           id="g19637"
           style="fill:#000000;fill-opacity:1">
          <use
             id="use19639"
             y="134.765"
             x="233.89101"
             xlink:href="#textext-43728899-2"
             width="354.33069"
             height="212.59842" />
        </g>
        <g
           id="g19641"
           style="fill:#000000;fill-opacity:1">
          <use
             id="use19643"
             y="134.765"
             x="233.35699"
             xlink:href="#textext-43728899-5"
             width="354.33069"
             height="212.59842" />
        </g>
        <g
           id="g19645"
           style="fill:#000000;fill-opacity:1">
          <use
             id="use19647"
             y="134.765"
             x="239.407"
             xlink:href="#textext-43728899-3"
             width="354.33069"
             height="212.59842" />
        </g>
        <g
           id="g19649"
           style="fill:#000000;fill-opacity:1">
          <use
             id="use19651"
             y="131.14999"
             x="243.28101"
             xlink:href="#textext-43728899-8"
             width="354.33069"
             height="212.59842" />
        </g>
        <g
           id="g19653"
           style="fill:#000000;fill-opacity:1">
          <use
             id="use19655"
             y="134.765"
             x="246.076"
             xlink:href="#textext-43728899-1"
             width="354.33069"
             height="212.59842" />
        </g>
        <path
           id="path19657"
           transform="matrix(1,0,0,-1,249.951,126.562)"
           d="M -0.00178125,-0.0005 L 7.834156,-0.0005"
           style="fill:none;stroke:#000000;stroke-width:0.398;stroke-linecap:butt;stroke-linejoin:miter;stroke-miterlimit:10;stroke-opacity:1" />
        <g
           id="g19659"
           style="fill:#000000;fill-opacity:1">
          <use
             id="use19661"
             y="134.765"
             x="249.951"
             xlink:href="#textext-43728899-6"
             width="354.33069"
             height="212.59842" />
        </g>
        <g
           id="g19663"
           style="fill:#000000;fill-opacity:1">
          <use
             id="use19665"
             y="134.765"
             x="257.784"
             xlink:href="#textext-43728899-3"
             width="354.33069"
             height="212.59842" />
        </g>
      </g>
    </g>
    <g
       id="g21377"
       transform="matrix(1.1,0,0,1.1,-81.922614,-30.079876)"
       ns0:preamble=""
       ns0:text="$\\hat{\\hat{\\sigma \'}} (L_n)$">
      <defs
         id="defs21379">
        <g
           id="g21381">
          <symbol
             id="textext-086987a6-0"
             overflow="visible"
             style="overflow:visible">
            <path
               id="path21384"
               d=""
               style="stroke:none" />
          </symbol>
          <symbol
             id="textext-086987a6-1"
             overflow="visible"
             style="overflow:visible">
            <path
               id="path21387"
               d="M 2.5,-6.921875 L 1.15625,-5.5625 L 1.328125,-5.390625 L 2.5,-6.40625 L 3.640625,-5.390625 L 3.8125,-5.5625 L 2.5,-6.921875 z"
               style="stroke:none" />
          </symbol>
          <symbol
             id="textext-086987a6-2"
             overflow="visible"
             style="overflow:visible">
            <path
               id="path21390"
               d="M 3.296875,2.390625 C 3.296875,2.359375 3.296875,2.34375 3.125,2.171875 C 1.890625,0.921875 1.5625,-0.96875 1.5625,-2.5 C 1.5625,-4.234375 1.9375,-5.96875 3.171875,-7.203125 C 3.296875,-7.328125 3.296875,-7.34375 3.296875,-7.375 C 3.296875,-7.453125 3.265625,-7.484375 3.203125,-7.484375 C 3.09375,-7.484375 2.203125,-6.796875 1.609375,-5.53125 C 1.109375,-4.4375 0.984375,-3.328125 0.984375,-2.5 C 0.984375,-1.71875 1.09375,-0.515625 1.640625,0.625 C 2.25,1.84375 3.09375,2.5 3.203125,2.5 C 3.265625,2.5 3.296875,2.46875 3.296875,2.390625 z"
               style="stroke:none" />
          </symbol>
          <symbol
             id="textext-086987a6-3"
             overflow="visible"
             style="overflow:visible">
            <path
               id="path21393"
               d="M 2.875,-2.5 C 2.875,-3.265625 2.765625,-4.46875 2.21875,-5.609375 C 1.625,-6.828125 0.765625,-7.484375 0.671875,-7.484375 C 0.609375,-7.484375 0.5625,-7.4375 0.5625,-7.375 C 0.5625,-7.34375 0.5625,-7.328125 0.75,-7.140625 C 1.734375,-6.15625 2.296875,-4.578125 2.296875,-2.5 C 2.296875,-0.78125 1.9375,0.96875 0.703125,2.21875 C 0.5625,2.34375 0.5625,2.359375 0.5625,2.390625 C 0.5625,2.453125 0.609375,2.5 0.671875,2.5 C 0.765625,2.5 1.671875,1.8125 2.25,0.546875 C 2.765625,-0.546875 2.875,-1.65625 2.875,-2.5 z"
               style="stroke:none" />
          </symbol>
          <symbol
             id="textext-086987a6-4"
             overflow="visible"
             style="overflow:visible">
            <path
               id="path21396"
               d=""
               style="stroke:none" />
          </symbol>
          <symbol
             id="textext-086987a6-5"
             overflow="visible"
             style="overflow:visible">
            <path
               id="path21399"
               d="M 5.15625,-3.71875 C 5.296875,-3.71875 5.65625,-3.71875 5.65625,-4.0625 C 5.65625,-4.296875 5.4375,-4.296875 5.265625,-4.296875 L 2.984375,-4.296875 C 1.484375,-4.296875 0.375,-2.65625 0.375,-1.46875 C 0.375,-0.59375 0.96875,0.109375 1.875,0.109375 C 3.046875,0.109375 4.375,-1.09375 4.375,-2.625 C 4.375,-2.796875 4.375,-3.28125 4.0625,-3.71875 L 5.15625,-3.71875 z M 1.890625,-0.109375 C 1.390625,-0.109375 1,-0.46875 1,-1.1875 C 1,-1.484375 1.109375,-2.296875 1.46875,-2.890625 C 1.890625,-3.578125 2.484375,-3.71875 2.828125,-3.71875 C 3.65625,-3.71875 3.734375,-3.0625 3.734375,-2.75 C 3.734375,-2.28125 3.53125,-1.46875 3.203125,-0.953125 C 2.8125,-0.375 2.265625,-0.109375 1.890625,-0.109375 z"
               style="stroke:none" />
          </symbol>
          <symbol
             id="textext-086987a6-6"
             overflow="visible"
             style="overflow:visible">
            <path
               id="path21402"
               d="M 3.734375,-6.03125 C 3.8125,-6.390625 3.84375,-6.5 4.78125,-6.5 C 5.078125,-6.5 5.15625,-6.5 5.15625,-6.6875 C 5.15625,-6.8125 5.046875,-6.8125 5,-6.8125 C 4.671875,-6.8125 3.859375,-6.78125 3.53125,-6.78125 C 3.234375,-6.78125 2.5,-6.8125 2.203125,-6.8125 C 2.140625,-6.8125 2.015625,-6.8125 2.015625,-6.609375 C 2.015625,-6.5 2.109375,-6.5 2.296875,-6.5 C 2.3125,-6.5 2.5,-6.5 2.671875,-6.484375 C 2.84375,-6.453125 2.9375,-6.453125 2.9375,-6.3125 C 2.9375,-6.28125 2.9375,-6.25 2.90625,-6.125 L 1.5625,-0.78125 C 1.46875,-0.390625 1.453125,-0.3125 0.65625,-0.3125 C 0.484375,-0.3125 0.390625,-0.3125 0.390625,-0.109375 C 0.390625,0 0.484375,0 0.65625,0 L 5.28125,0 C 5.515625,0 5.515625,0 5.578125,-0.171875 L 6.375,-2.328125 C 6.40625,-2.4375 6.40625,-2.453125 6.40625,-2.46875 C 6.40625,-2.5 6.375,-2.578125 6.296875,-2.578125 C 6.203125,-2.578125 6.1875,-2.515625 6.125,-2.359375 C 5.78125,-1.453125 5.34375,-0.3125 3.625,-0.3125 L 2.6875,-0.3125 C 2.546875,-0.3125 2.515625,-0.3125 2.46875,-0.3125 C 2.359375,-0.328125 2.328125,-0.34375 2.328125,-0.421875 C 2.328125,-0.453125 2.328125,-0.46875 2.375,-0.640625 L 3.734375,-6.03125 z"
               style="stroke:none" />
          </symbol>
          <symbol
             id="textext-086987a6-7"
             overflow="visible"
             style="overflow:visible">
            <path
               id="path21405"
               d=""
               style="stroke:none" />
          </symbol>
          <symbol
             id="textext-086987a6-8"
             overflow="visible"
             style="overflow:visible">
            <path
               id="path21408"
               d="M 2.03125,-3.296875 C 2.0625,-3.359375 2.078125,-3.421875 2.078125,-3.515625 C 2.078125,-3.734375 1.890625,-3.890625 1.671875,-3.890625 C 1.390625,-3.890625 1.328125,-3.671875 1.296875,-3.578125 L 0.375,-0.5625 C 0.359375,-0.53125 0.328125,-0.453125 0.328125,-0.4375 C 0.328125,-0.359375 0.546875,-0.28125 0.609375,-0.28125 C 0.65625,-0.28125 0.6875,-0.328125 0.703125,-0.390625 L 2.03125,-3.296875 z"
               style="stroke:none" />
          </symbol>
          <symbol
             id="textext-086987a6-9"
             overflow="visible"
             style="overflow:visible">
            <path
               id="path21411"
               d=""
               style="stroke:none" />
          </symbol>
          <symbol
             id="textext-086987a6-10"
             overflow="visible"
             style="overflow:visible">
            <path
               id="path21414"
               d="M 0.84375,-0.4375 C 0.828125,-0.34375 0.78125,-0.171875 0.78125,-0.15625 C 0.78125,0 0.90625,0.0625 1.015625,0.0625 C 1.140625,0.0625 1.25,-0.015625 1.296875,-0.078125 C 1.328125,-0.140625 1.375,-0.375 1.421875,-0.515625 C 1.453125,-0.640625 1.53125,-0.96875 1.5625,-1.140625 C 1.609375,-1.296875 1.65625,-1.453125 1.6875,-1.609375 C 1.765625,-1.890625 1.78125,-1.953125 1.984375,-2.234375 C 2.171875,-2.515625 2.5,-2.875 3.03125,-2.875 C 3.421875,-2.875 3.4375,-2.515625 3.4375,-2.390625 C 3.4375,-1.96875 3.140625,-1.203125 3.03125,-0.90625 C 2.953125,-0.703125 2.921875,-0.640625 2.921875,-0.53125 C 2.921875,-0.15625 3.21875,0.0625 3.578125,0.0625 C 4.28125,0.0625 4.578125,-0.890625 4.578125,-1 C 4.578125,-1.09375 4.5,-1.09375 4.46875,-1.09375 C 4.375,-1.09375 4.375,-1.046875 4.34375,-0.96875 C 4.1875,-0.40625 3.875,-0.125 3.609375,-0.125 C 3.453125,-0.125 3.421875,-0.21875 3.421875,-0.375 C 3.421875,-0.53125 3.46875,-0.625 3.59375,-0.9375 C 3.671875,-1.15625 3.953125,-1.890625 3.953125,-2.28125 C 3.953125,-2.953125 3.421875,-3.078125 3.046875,-3.078125 C 2.46875,-3.078125 2.078125,-2.71875 1.875,-2.4375 C 1.828125,-2.921875 1.421875,-3.078125 1.125,-3.078125 C 0.828125,-3.078125 0.671875,-2.859375 0.578125,-2.703125 C 0.421875,-2.4375 0.328125,-2.046875 0.328125,-2 C 0.328125,-1.921875 0.421875,-1.921875 0.453125,-1.921875 C 0.546875,-1.921875 0.546875,-1.9375 0.59375,-2.125 C 0.703125,-2.53125 0.84375,-2.875 1.109375,-2.875 C 1.296875,-2.875 1.34375,-2.71875 1.34375,-2.53125 C 1.34375,-2.40625 1.28125,-2.140625 1.21875,-1.953125 C 1.171875,-1.765625 1.109375,-1.484375 1.078125,-1.328125 L 0.84375,-0.4375 z"
               style="stroke:none" />
          </symbol>
        </g>
      </defs>
      <g
         id="textext-086987a6-11">
        <g
           id="g21417"
           style="fill:#000000;fill-opacity:1">
          <use
             id="use21419"
             y="131.72099"
             x="225.364"
             xlink:href="#textext-086987a6-1"
             width="354.33069"
             height="212.59842" />
        </g>
        <g
           id="g21421"
           style="fill:#000000;fill-opacity:1">
          <use
             id="use21423"
             y="134.35001"
             x="225.364"
             xlink:href="#textext-086987a6-1"
             width="354.33069"
             height="212.59842" />
        </g>
        <g
           id="g21425"
           style="fill:#000000;fill-opacity:1">
          <use
             id="use21427"
             y="136.813"
             x="223.43201"
             xlink:href="#textext-086987a6-5"
             width="354.33069"
             height="212.59842" />
        </g>
        <g
           id="g21429"
           style="fill:#000000;fill-opacity:1">
          <use
             id="use21431"
             y="133.935"
             x="229.48199"
             xlink:href="#textext-086987a6-8"
             width="354.33069"
             height="212.59842" />
        </g>
        <g
           id="g21433"
           style="fill:#000000;fill-opacity:1">
          <use
             id="use21435"
             y="136.813"
             x="232.27699"
             xlink:href="#textext-086987a6-2"
             width="354.33069"
             height="212.59842" />
        </g>
        <g
           id="g21437"
           style="fill:#000000;fill-opacity:1">
          <use
             id="use21439"
             y="136.813"
             x="236.15199"
             xlink:href="#textext-086987a6-6"
             width="354.33069"
             height="212.59842" />
        </g>
        <g
           id="g21441"
           style="fill:#000000;fill-opacity:1">
          <use
             id="use21443"
             y="138.30701"
             x="242.93201"
             xlink:href="#textext-086987a6-10"
             width="354.33069"
             height="212.59842" />
        </g>
        <g
           id="g21445"
           style="fill:#000000;fill-opacity:1">
          <use
             id="use21447"
             y="136.813"
             x="248.355"
             xlink:href="#textext-086987a6-3"
             width="354.33069"
             height="212.59842" />
        </g>
      </g>
    </g>
    <g
       ns0:text="$\\hat{\\sigma}$"
       ns0:preamble=""
       transform="matrix(1.1,0,0,1.1,-80.63153,-61.065881)"
       id="g21955">
      <defs
         id="defs21957">
        <g
           id="g21959">
          <symbol
             style="overflow:visible"
             overflow="visible"
             id="textext-3994a130-0">
            <path
               style="stroke:none"
               d=""
               id="path21962" />
          </symbol>
          <symbol
             style="overflow:visible"
             overflow="visible"
             id="textext-3994a130-1">
            <path
               style="stroke:none"
               d="M 2.5,-6.921875 L 1.15625,-5.5625 L 1.328125,-5.390625 L 2.5,-6.40625 L 3.640625,-5.390625 L 3.8125,-5.5625 L 2.5,-6.921875 z"
               id="path21965" />
          </symbol>
          <symbol
             style="overflow:visible"
             overflow="visible"
             id="textext-3994a130-2">
            <path
               style="stroke:none"
               d=""
               id="path21968" />
          </symbol>
          <symbol
             style="overflow:visible"
             overflow="visible"
             id="textext-3994a130-3">
            <path
               style="stroke:none"
               d="M 5.15625,-3.71875 C 5.296875,-3.71875 5.65625,-3.71875 5.65625,-4.0625 C 5.65625,-4.296875 5.4375,-4.296875 5.265625,-4.296875 L 2.984375,-4.296875 C 1.484375,-4.296875 0.375,-2.65625 0.375,-1.46875 C 0.375,-0.59375 0.96875,0.109375 1.875,0.109375 C 3.046875,0.109375 4.375,-1.09375 4.375,-2.625 C 4.375,-2.796875 4.375,-3.28125 4.0625,-3.71875 L 5.15625,-3.71875 z M 1.890625,-0.109375 C 1.390625,-0.109375 1,-0.46875 1,-1.1875 C 1,-1.484375 1.109375,-2.296875 1.46875,-2.890625 C 1.890625,-3.578125 2.484375,-3.71875 2.828125,-3.71875 C 3.65625,-3.71875 3.734375,-3.0625 3.734375,-2.75 C 3.734375,-2.28125 3.53125,-1.46875 3.203125,-0.953125 C 2.8125,-0.375 2.265625,-0.109375 1.890625,-0.109375 z"
               id="path21971" />
          </symbol>
        </g>
      </defs>
      <g
         id="textext-3994a130-4">
        <g
           style="fill:#000000;fill-opacity:1"
           id="g21974">
          <use
             height="212.59842"
             width="354.33069"
             xlink:href="#textext-3994a130-1"
             x="223.967"
             y="134.765"
             id="use21976" />
        </g>
        <g
           style="fill:#000000;fill-opacity:1"
           id="g21978">
          <use
             height="212.59842"
             width="354.33069"
             xlink:href="#textext-3994a130-3"
             x="223.43201"
             y="134.765"
             id="use21980" />
        </g>
      </g>
    </g>
    <g
       id="textext-d3dddb04-9"
       transform="matrix(1.1,0,0,1.1,55.611116,-50.620626)">
      <g
         style="fill:#000000;fill-opacity:1"
         id="g25360">
        <use
           height="212.59842"
           width="354.33069"
           xlink:href="#textext-d3dddb04-1"
           x="223.43201"
           y="134.765"
           id="use25362" />
      </g>
      <g
         style="fill:#000000;fill-opacity:1"
         id="g25364">
        <use
           height="212.59842"
           width="354.33069"
           xlink:href="#textext-d3dddb04-5"
           x="227.306"
           y="134.765"
           id="use25366" />
      </g>
      <g
         style="fill:#000000;fill-opacity:1"
         id="g25368">
        <use
           height="212.59842"
           width="354.33069"
           xlink:href="#textext-d3dddb04-2"
           x="233.89101"
           y="134.765"
           id="use25370" />
      </g>
      <g
         style="fill:#000000;fill-opacity:1"
         id="g25372">
        <use
           height="212.59842"
           width="354.33069"
           xlink:href="#textext-d3dddb04-5"
           x="233.35699"
           y="134.765"
           id="use25374" />
      </g>
      <g
         style="fill:#000000;fill-opacity:1"
         id="g25376">
        <use
           height="212.59842"
           width="354.33069"
           xlink:href="#textext-d3dddb04-3"
           x="239.407"
           y="134.765"
           id="use25378" />
      </g>
      <g
         style="fill:#000000;fill-opacity:1"
         id="g25380">
        <use
           height="212.59842"
           width="354.33069"
           xlink:href="#textext-d3dddb04-8"
           x="243.28101"
           y="131.14999"
           id="use25382" />
      </g>
      <g
         style="fill:#000000;fill-opacity:1"
         id="g25384">
        <use
           height="212.59842"
           width="354.33069"
           xlink:href="#textext-d3dddb04-1"
           x="246.076"
           y="134.765"
           id="use25386" />
      </g>
      <path
         style="fill:none;stroke:#000000;stroke-width:0.398;stroke-linecap:butt;stroke-linejoin:miter;stroke-miterlimit:10;stroke-opacity:1"
         d="M -0.00178125,-0.0005 L 6.681812,-0.0005"
         transform="matrix(1,0,0,-1,249.951,126.562)"
         id="path25388" />
      <g
         style="fill:#000000;fill-opacity:1"
         id="g25390">
        <use
           height="212.59842"
           width="354.33069"
           xlink:href="#textext-d3dddb04-6"
           x="249.951"
           y="134.765"
           id="use25392" />
      </g>
      <g
         style="fill:#000000;fill-opacity:1"
         id="g25394">
        <use
           height="212.59842"
           width="354.33069"
           xlink:href="#textext-d3dddb04-3"
           x="256.634"
           y="134.765"
           id="use25396" />
      </g>
    </g>
    <g
       transform="matrix(1.21,0,0,1.21,-157.39474,-58.919744)"
       ns0:text="$\\sigma\'(\\overline{S})$"
       ns0:preamble=""
       id="g28402">
      <defs
         id="defs28404">
        <g
           id="g28406">
          <symbol
             style="overflow:visible"
             overflow="visible"
             id="textext-752f1b7b-0">
            <path
               style="stroke:none"
               d=""
               id="path28409" />
          </symbol>
          <symbol
             style="overflow:visible"
             overflow="visible"
             id="textext-752f1b7b-1">
            <path
               style="stroke:none"
               d="M 5.15625,-3.71875 C 5.296875,-3.71875 5.65625,-3.71875 5.65625,-4.0625 C 5.65625,-4.296875 5.4375,-4.296875 5.265625,-4.296875 L 2.984375,-4.296875 C 1.484375,-4.296875 0.375,-2.65625 0.375,-1.46875 C 0.375,-0.59375 0.96875,0.109375 1.875,0.109375 C 3.046875,0.109375 4.375,-1.09375 4.375,-2.625 C 4.375,-2.796875 4.375,-3.28125 4.0625,-3.71875 L 5.15625,-3.71875 z M 1.890625,-0.109375 C 1.390625,-0.109375 1,-0.46875 1,-1.1875 C 1,-1.484375 1.109375,-2.296875 1.46875,-2.890625 C 1.890625,-3.578125 2.484375,-3.71875 2.828125,-3.71875 C 3.65625,-3.71875 3.734375,-3.0625 3.734375,-2.75 C 3.734375,-2.28125 3.53125,-1.46875 3.203125,-0.953125 C 2.8125,-0.375 2.265625,-0.109375 1.890625,-0.109375 z"
               id="path28412" />
          </symbol>
          <symbol
             style="overflow:visible"
             overflow="visible"
             id="textext-752f1b7b-2">
            <path
               style="stroke:none"
               d="M 6.4375,-6.921875 C 6.4375,-6.953125 6.40625,-7.03125 6.3125,-7.03125 C 6.265625,-7.03125 6.265625,-7.015625 6.140625,-6.875 L 5.65625,-6.3125 C 5.40625,-6.78125 4.890625,-7.03125 4.234375,-7.03125 C 2.96875,-7.03125 1.78125,-5.875 1.78125,-4.671875 C 1.78125,-3.875 2.296875,-3.40625 2.8125,-3.265625 L 3.875,-2.984375 C 4.25,-2.890625 4.796875,-2.734375 4.796875,-1.921875 C 4.796875,-1.03125 3.984375,-0.09375 3,-0.09375 C 2.359375,-0.09375 1.25,-0.3125 1.25,-1.546875 C 1.25,-1.78125 1.3125,-2.03125 1.3125,-2.078125 C 1.328125,-2.125 1.328125,-2.140625 1.328125,-2.15625 C 1.328125,-2.25 1.265625,-2.265625 1.21875,-2.265625 C 1.171875,-2.265625 1.140625,-2.25 1.109375,-2.21875 C 1.078125,-2.1875 0.515625,0.09375 0.515625,0.125 C 0.515625,0.171875 0.5625,0.21875 0.625,0.21875 C 0.671875,0.21875 0.6875,0.203125 0.8125,0.0625 L 1.296875,-0.5 C 1.71875,0.078125 2.40625,0.21875 2.984375,0.21875 C 4.34375,0.21875 5.515625,-1.109375 5.515625,-2.34375 C 5.515625,-3.03125 5.171875,-3.375 5.03125,-3.515625 C 4.796875,-3.734375 4.640625,-3.78125 3.765625,-4 C 3.53125,-4.0625 3.1875,-4.171875 3.09375,-4.1875 C 2.828125,-4.28125 2.484375,-4.5625 2.484375,-5.09375 C 2.484375,-5.90625 3.28125,-6.75 4.234375,-6.75 C 5.046875,-6.75 5.65625,-6.3125 5.65625,-5.203125 C 5.65625,-4.890625 5.625,-4.703125 5.625,-4.640625 C 5.625,-4.640625 5.625,-4.546875 5.734375,-4.546875 C 5.84375,-4.546875 5.859375,-4.578125 5.890625,-4.75 L 6.4375,-6.921875 z"
               id="path28415" />
          </symbol>
          <symbol
             style="overflow:visible"
             overflow="visible"
             id="textext-752f1b7b-3">
            <path
               style="stroke:none"
               d=""
               id="path28418" />
          </symbol>
          <symbol
             style="overflow:visible"
             overflow="visible"
             id="textext-752f1b7b-4">
            <path
               style="stroke:none"
               d="M 2.03125,-3.296875 C 2.0625,-3.359375 2.078125,-3.421875 2.078125,-3.515625 C 2.078125,-3.734375 1.890625,-3.890625 1.671875,-3.890625 C 1.390625,-3.890625 1.328125,-3.671875 1.296875,-3.578125 L 0.375,-0.5625 C 0.359375,-0.53125 0.328125,-0.453125 0.328125,-0.4375 C 0.328125,-0.359375 0.546875,-0.28125 0.609375,-0.28125 C 0.65625,-0.28125 0.6875,-0.328125 0.703125,-0.390625 L 2.03125,-3.296875 z"
               id="path28421" />
          </symbol>
          <symbol
             style="overflow:visible"
             overflow="visible"
             id="textext-752f1b7b-5">
            <path
               style="stroke:none"
               d=""
               id="path28424" />
          </symbol>
          <symbol
             style="overflow:visible"
             overflow="visible"
             id="textext-752f1b7b-6">
            <path
               style="stroke:none"
               d="M 3.296875,2.390625 C 3.296875,2.359375 3.296875,2.34375 3.125,2.171875 C 1.890625,0.921875 1.5625,-0.96875 1.5625,-2.5 C 1.5625,-4.234375 1.9375,-5.96875 3.171875,-7.203125 C 3.296875,-7.328125 3.296875,-7.34375 3.296875,-7.375 C 3.296875,-7.453125 3.265625,-7.484375 3.203125,-7.484375 C 3.09375,-7.484375 2.203125,-6.796875 1.609375,-5.53125 C 1.109375,-4.4375 0.984375,-3.328125 0.984375,-2.5 C 0.984375,-1.71875 1.09375,-0.515625 1.640625,0.625 C 2.25,1.84375 3.09375,2.5 3.203125,2.5 C 3.265625,2.5 3.296875,2.46875 3.296875,2.390625 z"
               id="path28427" />
          </symbol>
          <symbol
             style="overflow:visible"
             overflow="visible"
             id="textext-752f1b7b-7">
            <path
               style="stroke:none"
               d="M 2.875,-2.5 C 2.875,-3.265625 2.765625,-4.46875 2.21875,-5.609375 C 1.625,-6.828125 0.765625,-7.484375 0.671875,-7.484375 C 0.609375,-7.484375 0.5625,-7.4375 0.5625,-7.375 C 0.5625,-7.34375 0.5625,-7.328125 0.75,-7.140625 C 1.734375,-6.15625 2.296875,-4.578125 2.296875,-2.5 C 2.296875,-0.78125 1.9375,0.96875 0.703125,2.21875 C 0.5625,2.34375 0.5625,2.359375 0.5625,2.390625 C 0.5625,2.453125 0.609375,2.5 0.671875,2.5 C 0.765625,2.5 1.671875,1.8125 2.25,0.546875 C 2.765625,-0.546875 2.875,-1.65625 2.875,-2.5 z"
               id="path28430" />
          </symbol>
        </g>
      </defs>
      <g
         id="textext-752f1b7b-8">
        <g
           style="fill:#000000;fill-opacity:1"
           id="g28433">
          <use
             height="212.59842"
             width="354.33069"
             xlink:href="#textext-752f1b7b-1"
             x="223.43201"
             y="134.765"
             id="use28435" />
        </g>
        <g
           style="fill:#000000;fill-opacity:1"
           id="g28437">
          <use
             height="212.59842"
             width="354.33069"
             xlink:href="#textext-752f1b7b-4"
             x="229.48199"
             y="131.14999"
             id="use28439" />
        </g>
        <g
           style="fill:#000000;fill-opacity:1"
           id="g28441">
          <use
             height="212.59842"
             width="354.33069"
             xlink:href="#textext-752f1b7b-6"
             x="232.27699"
             y="134.765"
             id="use28443" />
        </g>
        <path
           style="fill:none;stroke:#000000;stroke-width:0.398;stroke-linecap:butt;stroke-linejoin:miter;stroke-miterlimit:10;stroke-opacity:1"
           d="M 0.00034375,-0.0005 L 6.683937,-0.0005"
           transform="matrix(1,0,0,-1,236.152,126.562)"
           id="path28445" />
        <g
           style="fill:#000000;fill-opacity:1"
           id="g28447">
          <use
             height="212.59842"
             width="354.33069"
             xlink:href="#textext-752f1b7b-2"
             x="236.15199"
             y="134.765"
             id="use28449" />
        </g>
        <g
           style="fill:#000000;fill-opacity:1"
           id="g28451">
          <use
             height="212.59842"
             width="354.33069"
             xlink:href="#textext-752f1b7b-7"
             x="242.83501"
             y="134.765"
             id="use28453" />
        </g>
      </g>
    </g>
    <path
       style="fill:none;fill-rule:evenodd;stroke:#000000;stroke-width:1px;stroke-linecap:butt;stroke-linejoin:miter;stroke-opacity:1"
       d="M 83.274887,130.82979 C 75.309224,84.468484 87.132008,63.932788 112.10908,60.896106"
       id="path28846"
       sodipodi:nodetypes="cc" />
    <g
       ns0:text="$\\sigma\'(\\overline{C})$"
       ns0:preamble=""
       transform="matrix(1.21,0,0,1.21,-204.23675,-20.320854)"
       id="g29132">
      <defs
         id="defs29134">
        <g
           id="g29136">
          <symbol
             style="overflow:visible"
             overflow="visible"
             id="textext-ccfb2ed4-0">
            <path
               style="stroke:none"
               d=""
               id="path29139" />
          </symbol>
          <symbol
             style="overflow:visible"
             overflow="visible"
             id="textext-ccfb2ed4-1">
            <path
               style="stroke:none"
               d="M 5.15625,-3.71875 C 5.296875,-3.71875 5.65625,-3.71875 5.65625,-4.0625 C 5.65625,-4.296875 5.4375,-4.296875 5.265625,-4.296875 L 2.984375,-4.296875 C 1.484375,-4.296875 0.375,-2.65625 0.375,-1.46875 C 0.375,-0.59375 0.96875,0.109375 1.875,0.109375 C 3.046875,0.109375 4.375,-1.09375 4.375,-2.625 C 4.375,-2.796875 4.375,-3.28125 4.0625,-3.71875 L 5.15625,-3.71875 z M 1.890625,-0.109375 C 1.390625,-0.109375 1,-0.46875 1,-1.1875 C 1,-1.484375 1.109375,-2.296875 1.46875,-2.890625 C 1.890625,-3.578125 2.484375,-3.71875 2.828125,-3.71875 C 3.65625,-3.71875 3.734375,-3.0625 3.734375,-2.75 C 3.734375,-2.28125 3.53125,-1.46875 3.203125,-0.953125 C 2.8125,-0.375 2.265625,-0.109375 1.890625,-0.109375 z"
               id="path29142" />
          </symbol>
          <symbol
             style="overflow:visible"
             overflow="visible"
             id="textext-ccfb2ed4-2">
            <path
               style="stroke:none"
               d="M 7.578125,-6.921875 C 7.578125,-6.953125 7.5625,-7.03125 7.46875,-7.03125 C 7.4375,-7.03125 7.421875,-7.015625 7.3125,-6.90625 L 6.625,-6.140625 C 6.53125,-6.28125 6.078125,-7.03125 4.96875,-7.03125 C 2.734375,-7.03125 0.5,-4.828125 0.5,-2.515625 C 0.5,-0.875 1.671875,0.21875 3.203125,0.21875 C 4.0625,0.21875 4.828125,-0.171875 5.359375,-0.640625 C 6.28125,-1.453125 6.453125,-2.359375 6.453125,-2.390625 C 6.453125,-2.5 6.34375,-2.5 6.328125,-2.5 C 6.265625,-2.5 6.21875,-2.46875 6.203125,-2.390625 C 6.109375,-2.109375 5.875,-1.390625 5.1875,-0.8125 C 4.5,-0.265625 3.875,-0.09375 3.359375,-0.09375 C 2.46875,-0.09375 1.40625,-0.609375 1.40625,-2.15625 C 1.40625,-2.734375 1.609375,-4.34375 2.609375,-5.515625 C 3.21875,-6.21875 4.15625,-6.71875 5.046875,-6.71875 C 6.0625,-6.71875 6.65625,-5.953125 6.65625,-4.796875 C 6.65625,-4.390625 6.625,-4.390625 6.625,-4.28125 C 6.625,-4.1875 6.734375,-4.1875 6.765625,-4.1875 C 6.890625,-4.1875 6.890625,-4.203125 6.953125,-4.390625 L 7.578125,-6.921875 z"
               id="path29145" />
          </symbol>
          <symbol
             style="overflow:visible"
             overflow="visible"
             id="textext-ccfb2ed4-3">
            <path
               style="stroke:none"
               d=""
               id="path29148" />
          </symbol>
          <symbol
             style="overflow:visible"
             overflow="visible"
             id="textext-ccfb2ed4-4">
            <path
               style="stroke:none"
               d="M 2.03125,-3.296875 C 2.0625,-3.359375 2.078125,-3.421875 2.078125,-3.515625 C 2.078125,-3.734375 1.890625,-3.890625 1.671875,-3.890625 C 1.390625,-3.890625 1.328125,-3.671875 1.296875,-3.578125 L 0.375,-0.5625 C 0.359375,-0.53125 0.328125,-0.453125 0.328125,-0.4375 C 0.328125,-0.359375 0.546875,-0.28125 0.609375,-0.28125 C 0.65625,-0.28125 0.6875,-0.328125 0.703125,-0.390625 L 2.03125,-3.296875 z"
               id="path29151" />
          </symbol>
          <symbol
             style="overflow:visible"
             overflow="visible"
             id="textext-ccfb2ed4-5">
            <path
               style="stroke:none"
               d=""
               id="path29154" />
          </symbol>
          <symbol
             style="overflow:visible"
             overflow="visible"
             id="textext-ccfb2ed4-6">
            <path
               style="stroke:none"
               d="M 3.296875,2.390625 C 3.296875,2.359375 3.296875,2.34375 3.125,2.171875 C 1.890625,0.921875 1.5625,-0.96875 1.5625,-2.5 C 1.5625,-4.234375 1.9375,-5.96875 3.171875,-7.203125 C 3.296875,-7.328125 3.296875,-7.34375 3.296875,-7.375 C 3.296875,-7.453125 3.265625,-7.484375 3.203125,-7.484375 C 3.09375,-7.484375 2.203125,-6.796875 1.609375,-5.53125 C 1.109375,-4.4375 0.984375,-3.328125 0.984375,-2.5 C 0.984375,-1.71875 1.09375,-0.515625 1.640625,0.625 C 2.25,1.84375 3.09375,2.5 3.203125,2.5 C 3.265625,2.5 3.296875,2.46875 3.296875,2.390625 z"
               id="path29157" />
          </symbol>
          <symbol
             style="overflow:visible"
             overflow="visible"
             id="textext-ccfb2ed4-7">
            <path
               style="stroke:none"
               d="M 2.875,-2.5 C 2.875,-3.265625 2.765625,-4.46875 2.21875,-5.609375 C 1.625,-6.828125 0.765625,-7.484375 0.671875,-7.484375 C 0.609375,-7.484375 0.5625,-7.4375 0.5625,-7.375 C 0.5625,-7.34375 0.5625,-7.328125 0.75,-7.140625 C 1.734375,-6.15625 2.296875,-4.578125 2.296875,-2.5 C 2.296875,-0.78125 1.9375,0.96875 0.703125,2.21875 C 0.5625,2.34375 0.5625,2.359375 0.5625,2.390625 C 0.5625,2.453125 0.609375,2.5 0.671875,2.5 C 0.765625,2.5 1.671875,1.8125 2.25,0.546875 C 2.765625,-0.546875 2.875,-1.65625 2.875,-2.5 z"
               id="path29160" />
          </symbol>
        </g>
      </defs>
      <g
         id="textext-ccfb2ed4-8">
        <g
           style="fill:#000000;fill-opacity:1"
           id="g29163">
          <use
             height="212.59842"
             width="354.33069"
             xlink:href="#textext-ccfb2ed4-1"
             x="223.43201"
             y="134.765"
             id="use29165" />
        </g>
        <g
           style="fill:#000000;fill-opacity:1"
           id="g29167">
          <use
             height="212.59842"
             width="354.33069"
             xlink:href="#textext-ccfb2ed4-4"
             x="229.48199"
             y="131.14999"
             id="use29169" />
        </g>
        <g
           style="fill:#000000;fill-opacity:1"
           id="g29171">
          <use
             height="212.59842"
             width="354.33069"
             xlink:href="#textext-ccfb2ed4-6"
             x="232.27699"
             y="134.765"
             id="use29173" />
        </g>
        <path
           style="fill:none;stroke:#000000;stroke-width:0.398;stroke-linecap:butt;stroke-linejoin:miter;stroke-miterlimit:10;stroke-opacity:1"
           d="M 0.00034375,-0.0005 L 7.832375,-0.0005"
           transform="matrix(1,0,0,-1,236.152,126.562)"
           id="path29175" />
        <g
           style="fill:#000000;fill-opacity:1"
           id="g29177">
          <use
             height="212.59842"
             width="354.33069"
             xlink:href="#textext-ccfb2ed4-2"
             x="236.15199"
             y="134.765"
             id="use29179" />
        </g>
        <g
           style="fill:#000000;fill-opacity:1"
           id="g29181">
          <use
             height="212.59842"
             width="354.33069"
             xlink:href="#textext-ccfb2ed4-7"
             x="243.985"
             y="134.765"
             id="use29183" />
        </g>
      </g>
    </g>
    <g
       id="g29673"
       transform="matrix(1.1,0,0,1.1,-180.22597,-56.8696)"
       ns0:preamble=""
       ns0:text="$L_n$">
      <defs
         id="defs29675">
        <g
           id="g29677">
          <symbol
             id="textext-aa3ee9fe-0"
             overflow="visible">
            <path
               id="path29680"
               d=""
               style="stroke:none;" />
          </symbol>
          <symbol
             id="textext-aa3ee9fe-1"
             overflow="visible">
            <path
               id="path29683"
               d="M 3.734375 -6.03125 C 3.8125 -6.390625 3.84375 -6.5 4.78125 -6.5 C 5.078125 -6.5 5.15625 -6.5 5.15625 -6.6875 C 5.15625 -6.8125 5.046875 -6.8125 5 -6.8125 C 4.671875 -6.8125 3.859375 -6.78125 3.53125 -6.78125 C 3.234375 -6.78125 2.5 -6.8125 2.203125 -6.8125 C 2.140625 -6.8125 2.015625 -6.8125 2.015625 -6.609375 C 2.015625 -6.5 2.109375 -6.5 2.296875 -6.5 C 2.3125 -6.5 2.5 -6.5 2.671875 -6.484375 C 2.84375 -6.453125 2.9375 -6.453125 2.9375 -6.3125 C 2.9375 -6.28125 2.9375 -6.25 2.90625 -6.125 L 1.5625 -0.78125 C 1.46875 -0.390625 1.453125 -0.3125 0.65625 -0.3125 C 0.484375 -0.3125 0.390625 -0.3125 0.390625 -0.109375 C 0.390625 0 0.484375 0 0.65625 0 L 5.28125 0 C 5.515625 0 5.515625 0 5.578125 -0.171875 L 6.375 -2.328125 C 6.40625 -2.4375 6.40625 -2.453125 6.40625 -2.46875 C 6.40625 -2.5 6.375 -2.578125 6.296875 -2.578125 C 6.203125 -2.578125 6.1875 -2.515625 6.125 -2.359375 C 5.78125 -1.453125 5.34375 -0.3125 3.625 -0.3125 L 2.6875 -0.3125 C 2.546875 -0.3125 2.515625 -0.3125 2.46875 -0.3125 C 2.359375 -0.328125 2.328125 -0.34375 2.328125 -0.421875 C 2.328125 -0.453125 2.328125 -0.46875 2.375 -0.640625 L 3.734375 -6.03125 Z M 3.734375 -6.03125 "
               style="stroke:none;" />
          </symbol>
          <symbol
             id="textext-aa3ee9fe-2"
             overflow="visible">
            <path
               id="path29686"
               d=""
               style="stroke:none;" />
          </symbol>
          <symbol
             id="textext-aa3ee9fe-3"
             overflow="visible">
            <path
               id="path29689"
               d="M 0.84375 -0.4375 C 0.828125 -0.34375 0.78125 -0.171875 0.78125 -0.15625 C 0.78125 0 0.90625 0.0625 1.015625 0.0625 C 1.140625 0.0625 1.25 -0.015625 1.296875 -0.078125 C 1.328125 -0.140625 1.375 -0.375 1.421875 -0.515625 C 1.453125 -0.640625 1.53125 -0.96875 1.5625 -1.140625 C 1.609375 -1.296875 1.65625 -1.453125 1.6875 -1.609375 C 1.765625 -1.890625 1.78125 -1.953125 1.984375 -2.234375 C 2.171875 -2.515625 2.5 -2.875 3.03125 -2.875 C 3.421875 -2.875 3.4375 -2.515625 3.4375 -2.390625 C 3.4375 -1.96875 3.140625 -1.203125 3.03125 -0.90625 C 2.953125 -0.703125 2.921875 -0.640625 2.921875 -0.53125 C 2.921875 -0.15625 3.21875 0.0625 3.578125 0.0625 C 4.28125 0.0625 4.578125 -0.890625 4.578125 -1 C 4.578125 -1.09375 4.5 -1.09375 4.46875 -1.09375 C 4.375 -1.09375 4.375 -1.046875 4.34375 -0.96875 C 4.1875 -0.40625 3.875 -0.125 3.609375 -0.125 C 3.453125 -0.125 3.421875 -0.21875 3.421875 -0.375 C 3.421875 -0.53125 3.46875 -0.625 3.59375 -0.9375 C 3.671875 -1.15625 3.953125 -1.890625 3.953125 -2.28125 C 3.953125 -2.953125 3.421875 -3.078125 3.046875 -3.078125 C 2.46875 -3.078125 2.078125 -2.71875 1.875 -2.4375 C 1.828125 -2.921875 1.421875 -3.078125 1.125 -3.078125 C 0.828125 -3.078125 0.671875 -2.859375 0.578125 -2.703125 C 0.421875 -2.4375 0.328125 -2.046875 0.328125 -2 C 0.328125 -1.921875 0.421875 -1.921875 0.453125 -1.921875 C 0.546875 -1.921875 0.546875 -1.9375 0.59375 -2.125 C 0.703125 -2.53125 0.84375 -2.875 1.109375 -2.875 C 1.296875 -2.875 1.34375 -2.71875 1.34375 -2.53125 C 1.34375 -2.40625 1.28125 -2.140625 1.21875 -1.953125 C 1.171875 -1.765625 1.109375 -1.484375 1.078125 -1.328125 L 0.84375 -0.4375 Z M 0.84375 -0.4375 "
               style="stroke:none;" />
          </symbol>
        </g>
      </defs>
      <g
         id="textext-aa3ee9fe-4">
        <g
           id="g29692"
           style="fill:rgb(0%,0%,0%);fill-opacity:1;">
          <use
             id="use29694"
             y="134.765"
             x="223.432"
             xlink:href="#textext-aa3ee9fe-1" />
        </g>
        <g
           id="g29696"
           style="fill:rgb(0%,0%,0%);fill-opacity:1;">
          <use
             id="use29698"
             y="136.259"
             x="230.212"
             xlink:href="#textext-aa3ee9fe-3" />
        </g>
      </g>
    </g>
  </g>
</svg>
