<?xml version="1.0" encoding="UTF-8" standalone="no"?>
<!-- Created with Inkscape (http://www.inkscape.org/) -->
<svg
   xmlns:ns0="http://www.iki.fi/pav/software/textext/"
   xmlns:dc="http://purl.org/dc/elements/1.1/"
   xmlns:cc="http://creativecommons.org/ns#"
   xmlns:rdf="http://www.w3.org/1999/02/22-rdf-syntax-ns#"
   xmlns:svg="http://www.w3.org/2000/svg"
   xmlns="http://www.w3.org/2000/svg"
   xmlns:xlink="http://www.w3.org/1999/xlink"
   xmlns:sodipodi="http://sodipodi.sourceforge.net/DTD/sodipodi-0.dtd"
   xmlns:inkscape="http://www.inkscape.org/namespaces/inkscape"
   width="354.33069"
   height="212.59842"
   id="svg2460"
   sodipodi:version="0.32"
   inkscape:version="0.46"
   version="1.0"
   sodipodi:docname="miyansi_fig21.svg"
   inkscape:output_extension="org.inkscape.output.svg.inkscape">
  <sodipodi:namedview
     id="base"
     pagecolor="#ffffff"
     bordercolor="#666666"
     borderopacity="1.0"
     gridtolerance="10000"
     guidetolerance="10"
     objecttolerance="10"
     inkscape:pageopacity="0.0"
     inkscape:pageshadow="2"
     inkscape:zoom="2.3236297"
     inkscape:cx="177.16534"
     inkscape:cy="106.29921"
     inkscape:document-units="px"
     inkscape:current-layer="layer1"
     showgrid="false"
     units="cm"
     inkscape:window-width="985"
     inkscape:window-height="723"
     inkscape:window-x="-2"
     inkscape:window-y="25"
     showguides="true"
     inkscape:guide-bbox="true">
    <inkscape:grid
       type="xygrid"
       id="grid5053"
       visible="true"
       enabled="true" />
  </sodipodi:namedview>
  <defs
     id="defs2462">
    <marker
       inkscape:stockid="Arrow1Mstart"
       orient="auto"
       refY="0"
       refX="0"
       id="Arrow1Mstart"
       style="overflow:visible">
      <path
         id="path22217"
         d="M 0,0 L 5,-5 L -12.5,0 L 5,5 L 0,0 z"
         style="fill-rule:evenodd;stroke:#000000;stroke-width:1pt;marker-start:none"
         transform="matrix(0.4,0,0,0.4,4,0)" />
    </marker>
    <marker
       inkscape:stockid="Arrow1Mend"
       orient="auto"
       refY="0"
       refX="0"
       id="Arrow1Mend"
       style="overflow:visible">
      <path
         id="path22220"
         d="M 0,0 L 5,-5 L -12.5,0 L 5,5 L 0,0 z"
         style="fill-rule:evenodd;stroke:#000000;stroke-width:1pt;marker-start:none"
         transform="matrix(-0.4,0,0,-0.4,-4,0)" />
    </marker>
    <inkscape:perspective
       sodipodi:type="inkscape:persp3d"
       inkscape:vp_x="0 : 526.18109 : 1"
       inkscape:vp_y="0 : 1000 : 0"
       inkscape:vp_z="744.09448 : 526.18109 : 1"
       inkscape:persp3d-origin="372.04724 : 350.78739 : 1"
       id="perspective2468" />
    <defs
       id="defs25328">
      <g
         id="g25330">
        <symbol
           style="overflow:visible"
           id="textext-d3dddb04-0"
           overflow="visible">
          <path
             id="path25333"
             d=""
             style="stroke:none" />
        </symbol>
        <symbol
           style="overflow:visible"
           id="textext-d3dddb04-1"
           overflow="visible">
          <path
             id="path25336"
             d="M 3.296875,2.390625 C 3.296875,2.359375 3.296875,2.34375 3.125,2.171875 C 1.890625,0.921875 1.5625,-0.96875 1.5625,-2.5 C 1.5625,-4.234375 1.9375,-5.96875 3.171875,-7.203125 C 3.296875,-7.328125 3.296875,-7.34375 3.296875,-7.375 C 3.296875,-7.453125 3.265625,-7.484375 3.203125,-7.484375 C 3.09375,-7.484375 2.203125,-6.796875 1.609375,-5.53125 C 1.109375,-4.4375 0.984375,-3.328125 0.984375,-2.5 C 0.984375,-1.71875 1.09375,-0.515625 1.640625,0.625 C 2.25,1.84375 3.09375,2.5 3.203125,2.5 C 3.265625,2.5 3.296875,2.46875 3.296875,2.390625 z"
             style="stroke:none" />
        </symbol>
        <symbol
           style="overflow:visible"
           id="textext-d3dddb04-2"
           overflow="visible">
          <path
             id="path25339"
             d="M 2.5,-6.921875 L 1.15625,-5.5625 L 1.328125,-5.390625 L 2.5,-6.40625 L 3.640625,-5.390625 L 3.8125,-5.5625 L 2.5,-6.921875 z"
             style="stroke:none" />
        </symbol>
        <symbol
           style="overflow:visible"
           id="textext-d3dddb04-3"
           overflow="visible">
          <path
             id="path25342"
             d="M 2.875,-2.5 C 2.875,-3.265625 2.765625,-4.46875 2.21875,-5.609375 C 1.625,-6.828125 0.765625,-7.484375 0.671875,-7.484375 C 0.609375,-7.484375 0.5625,-7.4375 0.5625,-7.375 C 0.5625,-7.34375 0.5625,-7.328125 0.75,-7.140625 C 1.734375,-6.15625 2.296875,-4.578125 2.296875,-2.5 C 2.296875,-0.78125 1.9375,0.96875 0.703125,2.21875 C 0.5625,2.34375 0.5625,2.359375 0.5625,2.390625 C 0.5625,2.453125 0.609375,2.5 0.671875,2.5 C 0.765625,2.5 1.671875,1.8125 2.25,0.546875 C 2.765625,-0.546875 2.875,-1.65625 2.875,-2.5 z"
             style="stroke:none" />
        </symbol>
        <symbol
           style="overflow:visible"
           id="textext-d3dddb04-4"
           overflow="visible">
          <path
             id="path25345"
             d=""
             style="stroke:none" />
        </symbol>
        <symbol
           style="overflow:visible"
           id="textext-d3dddb04-5"
           overflow="visible">
          <path
             id="path25348"
             d="M 5.15625,-3.71875 C 5.296875,-3.71875 5.65625,-3.71875 5.65625,-4.0625 C 5.65625,-4.296875 5.4375,-4.296875 5.265625,-4.296875 L 2.984375,-4.296875 C 1.484375,-4.296875 0.375,-2.65625 0.375,-1.46875 C 0.375,-0.59375 0.96875,0.109375 1.875,0.109375 C 3.046875,0.109375 4.375,-1.09375 4.375,-2.625 C 4.375,-2.796875 4.375,-3.28125 4.0625,-3.71875 L 5.15625,-3.71875 z M 1.890625,-0.109375 C 1.390625,-0.109375 1,-0.46875 1,-1.1875 C 1,-1.484375 1.109375,-2.296875 1.46875,-2.890625 C 1.890625,-3.578125 2.484375,-3.71875 2.828125,-3.71875 C 3.65625,-3.71875 3.734375,-3.0625 3.734375,-2.75 C 3.734375,-2.28125 3.53125,-1.46875 3.203125,-0.953125 C 2.8125,-0.375 2.265625,-0.109375 1.890625,-0.109375 z"
             style="stroke:none" />
        </symbol>
        <symbol
           style="overflow:visible"
           id="textext-d3dddb04-6"
           overflow="visible">
          <path
             id="path25351"
             d="M 6.4375,-6.921875 C 6.4375,-6.953125 6.40625,-7.03125 6.3125,-7.03125 C 6.265625,-7.03125 6.265625,-7.015625 6.140625,-6.875 L 5.65625,-6.3125 C 5.40625,-6.78125 4.890625,-7.03125 4.234375,-7.03125 C 2.96875,-7.03125 1.78125,-5.875 1.78125,-4.671875 C 1.78125,-3.875 2.296875,-3.40625 2.8125,-3.265625 L 3.875,-2.984375 C 4.25,-2.890625 4.796875,-2.734375 4.796875,-1.921875 C 4.796875,-1.03125 3.984375,-0.09375 3,-0.09375 C 2.359375,-0.09375 1.25,-0.3125 1.25,-1.546875 C 1.25,-1.78125 1.3125,-2.03125 1.3125,-2.078125 C 1.328125,-2.125 1.328125,-2.140625 1.328125,-2.15625 C 1.328125,-2.25 1.265625,-2.265625 1.21875,-2.265625 C 1.171875,-2.265625 1.140625,-2.25 1.109375,-2.21875 C 1.078125,-2.1875 0.515625,0.09375 0.515625,0.125 C 0.515625,0.171875 0.5625,0.21875 0.625,0.21875 C 0.671875,0.21875 0.6875,0.203125 0.8125,0.0625 L 1.296875,-0.5 C 1.71875,0.078125 2.40625,0.21875 2.984375,0.21875 C 4.34375,0.21875 5.515625,-1.109375 5.515625,-2.34375 C 5.515625,-3.03125 5.171875,-3.375 5.03125,-3.515625 C 4.796875,-3.734375 4.640625,-3.78125 3.765625,-4 C 3.53125,-4.0625 3.1875,-4.171875 3.09375,-4.1875 C 2.828125,-4.28125 2.484375,-4.5625 2.484375,-5.09375 C 2.484375,-5.90625 3.28125,-6.75 4.234375,-6.75 C 5.046875,-6.75 5.65625,-6.3125 5.65625,-5.203125 C 5.65625,-4.890625 5.625,-4.703125 5.625,-4.640625 C 5.625,-4.640625 5.625,-4.546875 5.734375,-4.546875 C 5.84375,-4.546875 5.859375,-4.578125 5.890625,-4.75 L 6.4375,-6.921875 z"
             style="stroke:none" />
        </symbol>
        <symbol
           style="overflow:visible"
           id="textext-d3dddb04-7"
           overflow="visible">
          <path
             id="path25354"
             d=""
             style="stroke:none" />
        </symbol>
        <symbol
           style="overflow:visible"
           id="textext-d3dddb04-8"
           overflow="visible">
          <path
             id="path25357"
             d="M 2.03125,-3.296875 C 2.0625,-3.359375 2.078125,-3.421875 2.078125,-3.515625 C 2.078125,-3.734375 1.890625,-3.890625 1.671875,-3.890625 C 1.390625,-3.890625 1.328125,-3.671875 1.296875,-3.578125 L 0.375,-0.5625 C 0.359375,-0.53125 0.328125,-0.453125 0.328125,-0.4375 C 0.328125,-0.359375 0.546875,-0.28125 0.609375,-0.28125 C 0.65625,-0.28125 0.6875,-0.328125 0.703125,-0.390625 L 2.03125,-3.296875 z"
             style="stroke:none" />
        </symbol>
      </g>
    </defs>
  </defs>
  <metadata
     id="metadata2465">
    <rdf:RDF>
      <cc:Work
         rdf:about="">
        <dc:format>image/svg+xml</dc:format>
        <dc:type
           rdf:resource="http://purl.org/dc/dcmitype/StillImage" />
      </cc:Work>
    </rdf:RDF>
  </metadata>
  <g
     inkscape:label="Layer 1"
     inkscape:groupmode="layer"
     id="layer1">
    <text
       xml:space="preserve"
       style="font-size:10px;font-style:normal;font-variant:normal;font-weight:normal;font-stretch:normal;fill:#000000;fill-opacity:1;stroke:none;stroke-width:1px;stroke-linecap:butt;stroke-linejoin:miter;stroke-opacity:1;font-family:LMRoman10;-inkscape-font-specification:LMRoman10"
       x="9.3645487"
       y="83.742233"
       id="text10135"><tspan
         sodipodi:role="line"
         id="tspan10137"
         x="9.3645487"
         y="83.742233" /></text>
    <text
       id="text30249"
       y="77.684647"
       x="146.2675"
       style="font-size:10px;font-style:normal;font-variant:normal;font-weight:normal;font-stretch:normal;fill:#000000;fill-opacity:1;stroke:none;stroke-width:1px;stroke-linecap:butt;stroke-linejoin:miter;stroke-opacity:1;font-family:LMRoman10;-inkscape-font-specification:LMRoman10"
       xml:space="preserve"><tspan
         y="77.684647"
         x="146.2675"
         id="tspan30251"
         sodipodi:role="line">-(m+1)</tspan></text>
    <g
       transform="matrix(1.1,0,0,1.1,-98.389853,-32.948257)"
       ns0:text="$\\Sigma_\\infty$"
       ns0:preamble=""
       id="g31324">
      <defs
         id="defs31326">
        <g
           id="g31328">
          <symbol
             style="overflow:visible"
             overflow="visible"
             id="textext-79d475af-0">
            <path
               style="stroke:none"
               d=""
               id="path31331" />
          </symbol>
          <symbol
             style="overflow:visible"
             overflow="visible"
             id="textext-79d475af-1">
            <path
               style="stroke:none"
               d="M 3.703125,-3.25 C 3.796875,-3.34375 3.796875,-3.390625 3.796875,-3.40625 C 3.796875,-3.453125 3.765625,-3.515625 3.734375,-3.546875 L 1.6875,-6.5 L 3.984375,-6.5 C 5.671875,-6.5 6.171875,-6.140625 6.375,-4.5625 L 6.625,-4.5625 L 6.34375,-6.8125 L 0.8125,-6.8125 C 0.578125,-6.8125 0.5625,-6.8125 0.5625,-6.578125 L 3.046875,-2.96875 L 0.671875,-0.265625 C 0.5625,-0.15625 0.5625,-0.140625 0.5625,-0.109375 C 0.5625,0 0.671875,0 0.8125,0 L 6.34375,0 L 6.625,-2.359375 L 6.375,-2.359375 C 6.203125,-0.6875 5.515625,-0.421875 3.953125,-0.421875 L 1.203125,-0.421875 L 3.703125,-3.25 z"
               id="path31334" />
          </symbol>
          <symbol
             style="overflow:visible"
             overflow="visible"
             id="textext-79d475af-2">
            <path
               style="stroke:none"
               d=""
               id="path31337" />
          </symbol>
          <symbol
             style="overflow:visible"
             overflow="visible"
             id="textext-79d475af-3">
            <path
               style="stroke:none"
               d="M 4.015625,-1.90625 C 3.671875,-2.328125 3.0625,-3.078125 2.03125,-3.078125 C 1.15625,-3.078125 0.546875,-2.328125 0.546875,-1.5 C 0.546875,-0.6875 1.140625,0.0625 2,0.0625 C 3,0.0625 3.625,-0.71875 3.90625,-1.09375 C 4.25,-0.671875 4.859375,0.0625 5.890625,0.0625 C 6.78125,0.0625 7.390625,-0.671875 7.390625,-1.5 C 7.390625,-2.328125 6.78125,-3.078125 5.921875,-3.078125 C 4.921875,-3.078125 4.3125,-2.28125 4.015625,-1.90625 z M 4.25,-1.65625 C 4.671875,-2.328125 5.296875,-2.8125 5.984375,-2.8125 C 6.703125,-2.8125 7.1875,-2.1875 7.1875,-1.5 C 7.1875,-0.8125 6.625,-0.3125 6.015625,-0.3125 C 5.359375,-0.3125 4.90625,-0.875 4.25,-1.65625 z M 3.671875,-1.359375 C 3.25,-0.671875 2.640625,-0.1875 1.953125,-0.1875 C 1.234375,-0.1875 0.734375,-0.828125 0.734375,-1.5 C 0.734375,-2.1875 1.3125,-2.6875 1.921875,-2.6875 C 2.578125,-2.6875 3.03125,-2.125 3.671875,-1.359375 z"
               id="path31340" />
          </symbol>
        </g>
      </defs>
      <g
         id="textext-79d475af-4">
        <g
           style="fill:#000000;fill-opacity:1"
           id="g31343">
          <use
             height="212.59842"
             width="354.33069"
             xlink:href="#textext-79d475af-1"
             x="223.43201"
             y="134.765"
             id="use31345" />
        </g>
        <g
           style="fill:#000000;fill-opacity:1"
           id="g31347">
          <use
             height="212.59842"
             width="354.33069"
             xlink:href="#textext-79d475af-3"
             x="230.627"
             y="136.259"
             id="use31349" />
        </g>
      </g>
    </g>
    <flowRoot
       xml:space="preserve"
       id="flowRoot3437"
       style="fill:black;stroke:none;stroke-opacity:1;stroke-width:1px;stroke-linejoin:miter;stroke-linecap:butt;fill-opacity:1;font-family:LMRoman10;font-style:normal;font-weight:normal;font-size:10;-inkscape-font-specification:LMRoman10;font-stretch:normal;font-variant:normal"><flowRegion
         id="flowRegion3439"><rect
           id="rect3441"
           width="22.809143"
           height="18.935892"
           x="253.05237"
           y="127.38691" /></flowRegion><flowPara
         id="flowPara3443" /></flowRoot>    <path
       sodipodi:nodetypes="ccc"
       id="path5137"
       d="M 115,46.573363 C 108.84335,59.77789 97.186511,77.828862 75,87.598419 C 97.903243,107.59842 96.009507,133.62348 87.151806,153.62348"
       style="fill:none;fill-rule:evenodd;stroke:#000000;stroke-width:1px;stroke-linecap:butt;stroke-linejoin:miter;stroke-opacity:1" />
    <path
       id="path5139"
       d="M 92.097295,50.782619 L 178.59989,109.7421"
       style="fill:none;fill-rule:evenodd;stroke:#000000;stroke-width:1px;stroke-linecap:butt;stroke-linejoin:miter;stroke-opacity:1" />
    <g
       id="g5198"
       transform="matrix(1.1,0,0,1.1,52.032291,-53.149825)"
       ns0:preamble=""
       ns0:text="$B_2$">
      <defs
         id="defs5200">
        <g
           id="g5202">
          <symbol
             id="textext-f384096c-0"
             overflow="visible">
            <path
               id="path5205"
               d=""
               style="stroke:none;" />
          </symbol>
          <symbol
             id="textext-f384096c-1"
             overflow="visible">
            <path
               id="path5208"
               d="M 1.59375 -0.78125 C 1.5 -0.390625 1.46875 -0.3125 0.6875 -0.3125 C 0.515625 -0.3125 0.421875 -0.3125 0.421875 -0.109375 C 0.421875 0 0.515625 0 0.6875 0 L 4.25 0 C 5.828125 0 7 -1.171875 7 -2.15625 C 7 -2.875 6.421875 -3.453125 5.453125 -3.5625 C 6.484375 -3.75 7.53125 -4.484375 7.53125 -5.4375 C 7.53125 -6.171875 6.875 -6.8125 5.6875 -6.8125 L 2.328125 -6.8125 C 2.140625 -6.8125 2.046875 -6.8125 2.046875 -6.609375 C 2.046875 -6.5 2.140625 -6.5 2.328125 -6.5 C 2.34375 -6.5 2.53125 -6.5 2.703125 -6.484375 C 2.875 -6.453125 2.96875 -6.453125 2.96875 -6.3125 C 2.96875 -6.28125 2.953125 -6.25 2.9375 -6.125 L 1.59375 -0.78125 Z M 3.09375 -3.65625 L 3.71875 -6.125 C 3.8125 -6.46875 3.828125 -6.5 4.25 -6.5 L 5.546875 -6.5 C 6.421875 -6.5 6.625 -5.90625 6.625 -5.46875 C 6.625 -4.59375 5.765625 -3.65625 4.5625 -3.65625 L 3.09375 -3.65625 Z M 2.65625 -0.3125 C 2.515625 -0.3125 2.5 -0.3125 2.4375 -0.3125 C 2.328125 -0.328125 2.296875 -0.34375 2.296875 -0.421875 C 2.296875 -0.453125 2.296875 -0.46875 2.359375 -0.640625 L 3.046875 -3.421875 L 4.921875 -3.421875 C 5.875 -3.421875 6.078125 -2.6875 6.078125 -2.265625 C 6.078125 -1.28125 5.1875 -0.3125 4 -0.3125 L 2.65625 -0.3125 Z M 2.65625 -0.3125 "
               style="stroke:none;" />
          </symbol>
          <symbol
             id="textext-f384096c-2"
             overflow="visible">
            <path
               id="path5211"
               d=""
               style="stroke:none;" />
          </symbol>
          <symbol
             id="textext-f384096c-3"
             overflow="visible">
            <path
               id="path5214"
               d="M 3.515625 -1.265625 L 3.28125 -1.265625 C 3.265625 -1.109375 3.1875 -0.703125 3.09375 -0.640625 C 3.046875 -0.59375 2.515625 -0.59375 2.40625 -0.59375 L 1.125 -0.59375 C 1.859375 -1.234375 2.109375 -1.4375 2.515625 -1.765625 C 3.03125 -2.171875 3.515625 -2.609375 3.515625 -3.265625 C 3.515625 -4.109375 2.78125 -4.625 1.890625 -4.625 C 1.03125 -4.625 0.4375 -4.015625 0.4375 -3.375 C 0.4375 -3.03125 0.734375 -2.984375 0.8125 -2.984375 C 0.96875 -2.984375 1.171875 -3.109375 1.171875 -3.359375 C 1.171875 -3.484375 1.125 -3.734375 0.765625 -3.734375 C 0.984375 -4.21875 1.453125 -4.375 1.78125 -4.375 C 2.484375 -4.375 2.84375 -3.828125 2.84375 -3.265625 C 2.84375 -2.65625 2.40625 -2.1875 2.1875 -1.9375 L 0.515625 -0.265625 C 0.4375 -0.203125 0.4375 -0.1875 0.4375 0 L 3.3125 0 L 3.515625 -1.265625 Z M 3.515625 -1.265625 "
               style="stroke:none;" />
          </symbol>
        </g>
      </defs>
      <g
         id="textext-f384096c-4">
        <g
           id="g5217"
           style="fill:rgb(0%,0%,0%);fill-opacity:1;">
          <use
             id="use5219"
             y="134.765"
             x="223.432"
             xlink:href="#textext-f384096c-1" />
        </g>
        <g
           id="g5221"
           style="fill:rgb(0%,0%,0%);fill-opacity:1;">
          <use
             id="use5223"
             y="136.259"
             x="230.989"
             xlink:href="#textext-f384096c-3" />
        </g>
      </g>
    </g>
  </g>
</svg>
