<?xml version="1.0" encoding="UTF-8" standalone="no"?>
<!-- Created with Inkscape (http://www.inkscape.org/) -->
<svg
   xmlns:ns0="http://www.iki.fi/pav/software/textext/"
   xmlns:dc="http://purl.org/dc/elements/1.1/"
   xmlns:cc="http://creativecommons.org/ns#"
   xmlns:rdf="http://www.w3.org/1999/02/22-rdf-syntax-ns#"
   xmlns:svg="http://www.w3.org/2000/svg"
   xmlns="http://www.w3.org/2000/svg"
   xmlns:xlink="http://www.w3.org/1999/xlink"
   xmlns:sodipodi="http://sodipodi.sourceforge.net/DTD/sodipodi-0.dtd"
   xmlns:inkscape="http://www.inkscape.org/namespaces/inkscape"
   width="354.33069"
   height="212.59842"
   id="svg2460"
   sodipodi:version="0.32"
   inkscape:version="0.46"
   version="1.0"
   sodipodi:docname="miyansi_fig14.svg"
   inkscape:output_extension="org.inkscape.output.svg.inkscape">
  <sodipodi:namedview
     id="base"
     pagecolor="#ffffff"
     bordercolor="#666666"
     borderopacity="1.0"
     gridtolerance="10000"
     guidetolerance="10"
     objecttolerance="10"
     inkscape:pageopacity="0.0"
     inkscape:pageshadow="2"
     inkscape:zoom="1.8546613"
     inkscape:cx="224.96447"
     inkscape:cy="131.44434"
     inkscape:document-units="px"
     inkscape:current-layer="layer1"
     showgrid="false"
     units="cm"
     inkscape:window-width="985"
     inkscape:window-height="723"
     inkscape:window-x="29"
     inkscape:window-y="25">
    <inkscape:grid
       enabled="true"
       visible="true"
       id="grid5053"
       type="xygrid" />
  </sodipodi:namedview>
  <defs
     id="defs2462">
    <marker
       style="overflow:visible"
       id="Arrow1Mstart"
       refX="0.0"
       refY="0.0"
       orient="auto"
       inkscape:stockid="Arrow1Mstart">
      <path
         transform="scale(0.4) translate(10,0)"
         style="fill-rule:evenodd;stroke:#000000;stroke-width:1.0pt;marker-start:none"
         d="M 0.0,0.0 L 5.0,-5.0 L -12.5,0.0 L 5.0,5.0 L 0.0,0.0 z "
         id="path22217" />
    </marker>
    <marker
       style="overflow:visible;"
       id="Arrow1Mend"
       refX="0.0"
       refY="0.0"
       orient="auto"
       inkscape:stockid="Arrow1Mend">
      <path
         transform="scale(0.4) rotate(180) translate(10,0)"
         style="fill-rule:evenodd;stroke:#000000;stroke-width:1.0pt;marker-start:none;"
         d="M 0.0,0.0 L 5.0,-5.0 L -12.5,0.0 L 5.0,5.0 L 0.0,0.0 z "
         id="path22220" />
    </marker>
    <inkscape:perspective
       id="perspective2468"
       inkscape:persp3d-origin="372.04724 : 350.78739 : 1"
       inkscape:vp_z="744.09448 : 526.18109 : 1"
       inkscape:vp_y="0 : 1000 : 0"
       inkscape:vp_x="0 : 526.18109 : 1"
       sodipodi:type="inkscape:persp3d" />
    <defs
       id="defs25328">
      <g
         id="g25330">
        <symbol
           overflow="visible"
           id="textext-d3dddb04-0">
          <path
             style="stroke:none;"
             d=""
             id="path25333" />
        </symbol>
        <symbol
           overflow="visible"
           id="textext-d3dddb04-1">
          <path
             style="stroke:none;"
             d="M 3.296875 2.390625 C 3.296875 2.359375 3.296875 2.34375 3.125 2.171875 C 1.890625 0.921875 1.5625 -0.96875 1.5625 -2.5 C 1.5625 -4.234375 1.9375 -5.96875 3.171875 -7.203125 C 3.296875 -7.328125 3.296875 -7.34375 3.296875 -7.375 C 3.296875 -7.453125 3.265625 -7.484375 3.203125 -7.484375 C 3.09375 -7.484375 2.203125 -6.796875 1.609375 -5.53125 C 1.109375 -4.4375 0.984375 -3.328125 0.984375 -2.5 C 0.984375 -1.71875 1.09375 -0.515625 1.640625 0.625 C 2.25 1.84375 3.09375 2.5 3.203125 2.5 C 3.265625 2.5 3.296875 2.46875 3.296875 2.390625 Z M 3.296875 2.390625 "
             id="path25336" />
        </symbol>
        <symbol
           overflow="visible"
           id="textext-d3dddb04-2">
          <path
             style="stroke:none;"
             d="M 2.5 -6.921875 L 1.15625 -5.5625 L 1.328125 -5.390625 L 2.5 -6.40625 L 3.640625 -5.390625 L 3.8125 -5.5625 L 2.5 -6.921875 Z M 2.5 -6.921875 "
             id="path25339" />
        </symbol>
        <symbol
           overflow="visible"
           id="textext-d3dddb04-3">
          <path
             style="stroke:none;"
             d="M 2.875 -2.5 C 2.875 -3.265625 2.765625 -4.46875 2.21875 -5.609375 C 1.625 -6.828125 0.765625 -7.484375 0.671875 -7.484375 C 0.609375 -7.484375 0.5625 -7.4375 0.5625 -7.375 C 0.5625 -7.34375 0.5625 -7.328125 0.75 -7.140625 C 1.734375 -6.15625 2.296875 -4.578125 2.296875 -2.5 C 2.296875 -0.78125 1.9375 0.96875 0.703125 2.21875 C 0.5625 2.34375 0.5625 2.359375 0.5625 2.390625 C 0.5625 2.453125 0.609375 2.5 0.671875 2.5 C 0.765625 2.5 1.671875 1.8125 2.25 0.546875 C 2.765625 -0.546875 2.875 -1.65625 2.875 -2.5 Z M 2.875 -2.5 "
             id="path25342" />
        </symbol>
        <symbol
           overflow="visible"
           id="textext-d3dddb04-4">
          <path
             style="stroke:none;"
             d=""
             id="path25345" />
        </symbol>
        <symbol
           overflow="visible"
           id="textext-d3dddb04-5">
          <path
             style="stroke:none;"
             d="M 5.15625 -3.71875 C 5.296875 -3.71875 5.65625 -3.71875 5.65625 -4.0625 C 5.65625 -4.296875 5.4375 -4.296875 5.265625 -4.296875 L 2.984375 -4.296875 C 1.484375 -4.296875 0.375 -2.65625 0.375 -1.46875 C 0.375 -0.59375 0.96875 0.109375 1.875 0.109375 C 3.046875 0.109375 4.375 -1.09375 4.375 -2.625 C 4.375 -2.796875 4.375 -3.28125 4.0625 -3.71875 L 5.15625 -3.71875 Z M 1.890625 -0.109375 C 1.390625 -0.109375 1 -0.46875 1 -1.1875 C 1 -1.484375 1.109375 -2.296875 1.46875 -2.890625 C 1.890625 -3.578125 2.484375 -3.71875 2.828125 -3.71875 C 3.65625 -3.71875 3.734375 -3.0625 3.734375 -2.75 C 3.734375 -2.28125 3.53125 -1.46875 3.203125 -0.953125 C 2.8125 -0.375 2.265625 -0.109375 1.890625 -0.109375 Z M 1.890625 -0.109375 "
             id="path25348" />
        </symbol>
        <symbol
           overflow="visible"
           id="textext-d3dddb04-6">
          <path
             style="stroke:none;"
             d="M 6.4375 -6.921875 C 6.4375 -6.953125 6.40625 -7.03125 6.3125 -7.03125 C 6.265625 -7.03125 6.265625 -7.015625 6.140625 -6.875 L 5.65625 -6.3125 C 5.40625 -6.78125 4.890625 -7.03125 4.234375 -7.03125 C 2.96875 -7.03125 1.78125 -5.875 1.78125 -4.671875 C 1.78125 -3.875 2.296875 -3.40625 2.8125 -3.265625 L 3.875 -2.984375 C 4.25 -2.890625 4.796875 -2.734375 4.796875 -1.921875 C 4.796875 -1.03125 3.984375 -0.09375 3 -0.09375 C 2.359375 -0.09375 1.25 -0.3125 1.25 -1.546875 C 1.25 -1.78125 1.3125 -2.03125 1.3125 -2.078125 C 1.328125 -2.125 1.328125 -2.140625 1.328125 -2.15625 C 1.328125 -2.25 1.265625 -2.265625 1.21875 -2.265625 C 1.171875 -2.265625 1.140625 -2.25 1.109375 -2.21875 C 1.078125 -2.1875 0.515625 0.09375 0.515625 0.125 C 0.515625 0.171875 0.5625 0.21875 0.625 0.21875 C 0.671875 0.21875 0.6875 0.203125 0.8125 0.0625 L 1.296875 -0.5 C 1.71875 0.078125 2.40625 0.21875 2.984375 0.21875 C 4.34375 0.21875 5.515625 -1.109375 5.515625 -2.34375 C 5.515625 -3.03125 5.171875 -3.375 5.03125 -3.515625 C 4.796875 -3.734375 4.640625 -3.78125 3.765625 -4 C 3.53125 -4.0625 3.1875 -4.171875 3.09375 -4.1875 C 2.828125 -4.28125 2.484375 -4.5625 2.484375 -5.09375 C 2.484375 -5.90625 3.28125 -6.75 4.234375 -6.75 C 5.046875 -6.75 5.65625 -6.3125 5.65625 -5.203125 C 5.65625 -4.890625 5.625 -4.703125 5.625 -4.640625 C 5.625 -4.640625 5.625 -4.546875 5.734375 -4.546875 C 5.84375 -4.546875 5.859375 -4.578125 5.890625 -4.75 L 6.4375 -6.921875 Z M 6.4375 -6.921875 "
             id="path25351" />
        </symbol>
        <symbol
           overflow="visible"
           id="textext-d3dddb04-7">
          <path
             style="stroke:none;"
             d=""
             id="path25354" />
        </symbol>
        <symbol
           overflow="visible"
           id="textext-d3dddb04-8">
          <path
             style="stroke:none;"
             d="M 2.03125 -3.296875 C 2.0625 -3.359375 2.078125 -3.421875 2.078125 -3.515625 C 2.078125 -3.734375 1.890625 -3.890625 1.671875 -3.890625 C 1.390625 -3.890625 1.328125 -3.671875 1.296875 -3.578125 L 0.375 -0.5625 C 0.359375 -0.53125 0.328125 -0.453125 0.328125 -0.4375 C 0.328125 -0.359375 0.546875 -0.28125 0.609375 -0.28125 C 0.65625 -0.28125 0.6875 -0.328125 0.703125 -0.390625 L 2.03125 -3.296875 Z M 2.03125 -3.296875 "
             id="path25357" />
        </symbol>
      </g>
    </defs>
  </defs>
  <metadata
     id="metadata2465">
    <rdf:RDF>
      <cc:Work
         rdf:about="">
        <dc:format>image/svg+xml</dc:format>
        <dc:type
           rdf:resource="http://purl.org/dc/dcmitype/StillImage" />
      </cc:Work>
    </rdf:RDF>
  </metadata>
  <g
     id="layer1"
     inkscape:groupmode="layer"
     inkscape:label="Layer 1">
    <text
       id="text10135"
       y="83.742233"
       x="9.3645487"
       style="font-size:10px;font-style:normal;font-variant:normal;font-weight:normal;font-stretch:normal;fill:#000000;fill-opacity:1;stroke:none;stroke-width:1px;stroke-linecap:butt;stroke-linejoin:miter;stroke-opacity:1;font-family:LMRoman10;-inkscape-font-specification:LMRoman10"
       xml:space="preserve"><tspan
         y="83.742233"
         x="9.3645487"
         id="tspan10137"
         sodipodi:role="line" /></text>
    <g
       transform="matrix(0.8328402,0,0,0.8176426,-18.105444,71.249344)"
       id="g30207">
      <path
         sodipodi:nodetypes="cc"
         id="use30203"
         d="M 61.504853,58.087568 C 73.639469,76.335418 118.06976,55.774238 130.14348,66.436898"
         style="fill:none;fill-rule:evenodd;stroke:#000000;stroke-width:0.99999994px;stroke-linecap:butt;stroke-linejoin:miter;stroke-opacity:1" />
      <path
         style="fill:none;fill-rule:evenodd;stroke:#000000;stroke-width:0.99999994px;stroke-linecap:butt;stroke-linejoin:miter;stroke-opacity:1"
         d="M 198.27254,58.119228 C 186.13793,76.367068 141.70764,55.805898 129.63391,66.468548"
         id="use30205"
         sodipodi:nodetypes="cc" />
    </g>
    <text
       xml:space="preserve"
       style="font-size:10px;font-style:normal;font-variant:normal;font-weight:normal;font-stretch:normal;fill:#000000;fill-opacity:1;stroke:none;stroke-width:1px;stroke-linecap:butt;stroke-linejoin:miter;stroke-opacity:1;font-family:LMRoman10;-inkscape-font-specification:LMRoman10"
       x="83.070396"
       y="138.17722"
       id="text30217"><tspan
         sodipodi:role="line"
         id="tspan30219"
         x="83.070396"
         y="138.17722">4m</tspan></text>
    <text
       xml:space="preserve"
       style="font-size:10px;font-style:normal;font-variant:normal;font-weight:normal;font-stretch:normal;fill:#000000;fill-opacity:1;stroke:none;stroke-width:1px;stroke-linecap:butt;stroke-linejoin:miter;stroke-opacity:1;font-family:LMRoman10;-inkscape-font-specification:LMRoman10"
       x="6.6428738"
       y="96.841568"
       id="text30221"><tspan
         sodipodi:role="line"
         id="tspan30223"
         x="6.6428738"
         y="96.841568">-1</tspan></text>
    <text
       xml:space="preserve"
       style="font-size:10px;font-style:normal;font-variant:normal;font-weight:normal;font-stretch:normal;fill:#000000;fill-opacity:1;stroke:none;stroke-width:1px;stroke-linecap:butt;stroke-linejoin:miter;stroke-opacity:1;font-family:LMRoman10;-inkscape-font-specification:LMRoman10"
       x="26.750898"
       y="98.318573"
       id="text30225"><tspan
         sodipodi:role="line"
         id="tspan30227"
         x="26.750898"
         y="98.318573">-2</tspan></text>
    <text
       id="text30229"
       y="98.675079"
       x="50.181709"
       style="font-size:10px;font-style:normal;font-variant:normal;font-weight:normal;font-stretch:normal;fill:#000000;fill-opacity:1;stroke:none;stroke-width:1px;stroke-linecap:butt;stroke-linejoin:miter;stroke-opacity:1;font-family:LMRoman10;-inkscape-font-specification:LMRoman10"
       xml:space="preserve"><tspan
         y="98.675079"
         x="50.181709"
         id="tspan30231"
         sodipodi:role="line">-2</tspan></text>
    <text
       xml:space="preserve"
       style="font-size:10px;font-style:normal;font-variant:normal;font-weight:normal;font-stretch:normal;fill:#000000;fill-opacity:1;stroke:none;stroke-width:1px;stroke-linecap:butt;stroke-linejoin:miter;stroke-opacity:1;font-family:LMRoman10;-inkscape-font-specification:LMRoman10"
       x="255.1212"
       y="98.103973"
       id="text30249"><tspan
         sodipodi:role="line"
         id="tspan30251"
         x="255.1212"
         y="98.103973">-(m+1)</tspan></text>
    <g
       transform="translate(-49.898653,65.000002)"
       id="g31039">
      <path
         transform="matrix(0.6929516,0,0,0.6929516,16.218131,15.044188)"
         sodipodi:type="arc"
         style="opacity:1;fill:#ffffff;fill-opacity:1;fill-rule:evenodd;stroke:#000000;stroke-width:1.44310224px;stroke-linecap:butt;stroke-linejoin:miter;marker:none;marker-start:none;marker-mid:none;marker-end:none;stroke-miterlimit:4;stroke-dasharray:none;stroke-dashoffset:0;stroke-opacity:1;visibility:visible;display:inline;overflow:visible;enable-background:accumulate"
         id="path31041"
         sodipodi:cx="63.181713"
         sodipodi:cy="39.777851"
         sodipodi:rx="3.7165713"
         sodipodi:ry="3.7165713"
         d="M 66.898284,39.777851 A 3.7165713,3.7165713 0 1 1 59.465142,39.777851 A 3.7165713,3.7165713 0 1 1 66.898284,39.777851 z" />
      <path
         style="fill:none;fill-rule:evenodd;stroke:#000000;stroke-width:1px;stroke-linecap:butt;stroke-linejoin:miter;stroke-opacity:1"
         d="M 61.898654,42.598417 L 79.898653,42.598417"
         id="path31043" />
    </g>
    <path
       transform="matrix(0.6929516,0,0,0.6929516,-10.984834,80.04419)"
       sodipodi:type="arc"
       style="fill:#ffffff;fill-opacity:1;fill-rule:evenodd;stroke:#000000;stroke-width:1.44310224px;stroke-linecap:butt;stroke-linejoin:miter;marker:none;marker-start:none;marker-mid:none;marker-end:none;stroke-miterlimit:4;stroke-dasharray:none;stroke-dashoffset:0;stroke-opacity:1;visibility:visible;display:inline;overflow:visible;enable-background:accumulate"
       id="path31047"
       sodipodi:cx="63.181713"
       sodipodi:cy="39.777851"
       sodipodi:rx="3.7165713"
       sodipodi:ry="3.7165713"
       d="M 66.898284,39.777851 A 3.7165713,3.7165713 0 1 1 59.465142,39.777851 A 3.7165713,3.7165713 0 1 1 66.898284,39.777851 z" />
    <path
       style="fill:none;fill-rule:evenodd;stroke:#000000;stroke-width:1px;stroke-linecap:butt;stroke-linejoin:miter;stroke-opacity:1"
       d="M 35.140143,107.59842 L 52.707699,107.59842"
       id="path31049" />
    <path
       d="M 66.898284,39.777851 A 3.7165713,3.7165713 0 1 1 59.465142,39.777851 A 3.7165713,3.7165713 0 1 1 66.898284,39.777851 z"
       sodipodi:ry="3.7165713"
       sodipodi:rx="3.7165713"
       sodipodi:cy="39.777851"
       sodipodi:cx="63.181713"
       id="path31053"
       style="fill:#ffffff;fill-opacity:1;fill-rule:evenodd;stroke:#000000;stroke-width:1.44310224px;stroke-linecap:butt;stroke-linejoin:miter;marker:none;marker-start:none;marker-mid:none;marker-end:none;stroke-miterlimit:4;stroke-dasharray:none;stroke-dashoffset:0;stroke-opacity:1;visibility:visible;display:inline;overflow:visible;enable-background:accumulate"
       sodipodi:type="arc"
       transform="matrix(0.6929516,0,0,0.6929516,11.319478,80.04419)" />
    <path
       id="path31055"
       d="M 57.186867,107.59842 L 78.040839,107.59842"
       style="fill:none;fill-rule:evenodd;stroke:#000000;stroke-width:0.99999994px;stroke-linecap:butt;stroke-linejoin:miter;stroke-opacity:1" />
    <path
       id="path31067"
       d="M 99.281479,107.59842 L 120.13544,107.59842"
       style="fill:none;fill-rule:evenodd;stroke:#000000;stroke-width:1px;stroke-linecap:butt;stroke-linejoin:miter;stroke-opacity:1" />
    <g
       id="g31069"
       transform="translate(62.530796,65.000002)">
      <path
         d="M 66.898284,39.777851 A 3.7165713,3.7165713 0 1 1 59.465142,39.777851 A 3.7165713,3.7165713 0 1 1 66.898284,39.777851 z"
         sodipodi:ry="3.7165713"
         sodipodi:rx="3.7165713"
         sodipodi:cy="39.777851"
         sodipodi:cx="63.181713"
         id="path31071"
         style="opacity:1;fill:#ffffff;fill-opacity:1;fill-rule:evenodd;stroke:#000000;stroke-width:1.44310224px;stroke-linecap:butt;stroke-linejoin:miter;marker:none;marker-start:none;marker-mid:none;marker-end:none;stroke-miterlimit:4;stroke-dasharray:none;stroke-dashoffset:0;stroke-opacity:1;visibility:visible;display:inline;overflow:visible;enable-background:accumulate"
         sodipodi:type="arc"
         transform="matrix(0.6929516,0,0,0.6929516,16.218131,15.044188)" />
      <path
         id="path31073"
         d="M 61.898654,42.598417 L 79.898653,42.598417"
         style="fill:none;fill-rule:evenodd;stroke:#000000;stroke-width:1px;stroke-linecap:butt;stroke-linejoin:miter;stroke-opacity:1" />
    </g>
    <g
       id="g31075"
       transform="translate(85.145955,65.000002)">
      <path
         d="M 66.898284,39.777851 A 3.7165713,3.7165713 0 1 1 59.465142,39.777851 A 3.7165713,3.7165713 0 1 1 66.898284,39.777851 z"
         sodipodi:ry="3.7165713"
         sodipodi:rx="3.7165713"
         sodipodi:cy="39.777851"
         sodipodi:cx="63.181713"
         id="path31077"
         style="opacity:1;fill:#ffffff;fill-opacity:1;fill-rule:evenodd;stroke:#000000;stroke-width:1.44310224px;stroke-linecap:butt;stroke-linejoin:miter;marker:none;marker-start:none;marker-mid:none;marker-end:none;stroke-miterlimit:4;stroke-dasharray:none;stroke-dashoffset:0;stroke-opacity:1;visibility:visible;display:inline;overflow:visible;enable-background:accumulate"
         sodipodi:type="arc"
         transform="matrix(0.6929516,0,0,0.6929516,16.218131,15.044188)" />
      <path
         id="path31079"
         d="M 62.279043,42.598417 L 80.279042,42.598417"
         style="fill:none;fill-rule:evenodd;stroke:#000000;stroke-width:1px;stroke-linecap:butt;stroke-linejoin:miter;stroke-opacity:1" />
    </g>
    <path
       d="M 66.898284,39.777851 A 3.7165713,3.7165713 0 1 1 59.465142,39.777851 A 3.7165713,3.7165713 0 1 1 66.898284,39.777851 z"
       sodipodi:ry="3.7165713"
       sodipodi:rx="3.7165713"
       sodipodi:cy="39.777851"
       sodipodi:cx="63.181713"
       id="path31083"
       style="fill:#ffffff;fill-opacity:1;fill-rule:evenodd;stroke:#000000;stroke-width:1.44310224px;stroke-linecap:butt;stroke-linejoin:miter;marker:none;marker-start:none;marker-mid:none;marker-end:none;stroke-miterlimit:4;stroke-dasharray:none;stroke-dashoffset:0;stroke-opacity:1;visibility:visible;display:inline;overflow:visible;enable-background:accumulate"
       sodipodi:type="arc"
       transform="matrix(0.6929516,0,0,0.6929516,124.36408,80.04419)" />
    <path
       id="path31085"
       d="M 170.19676,107.59842 L 188.19676,107.59842"
       style="fill:none;fill-rule:evenodd;stroke:#000000;stroke-width:1px;stroke-linecap:butt;stroke-linejoin:miter;stroke-opacity:1" />
    <path
       transform="matrix(0.6929516,0,0,0.6929516,146.36408,80.04419)"
       sodipodi:type="arc"
       style="fill:#ffffff;fill-opacity:1;fill-rule:evenodd;stroke:#000000;stroke-width:1.44310224px;stroke-linecap:butt;stroke-linejoin:miter;marker:none;marker-start:none;marker-mid:none;marker-end:none;stroke-miterlimit:4;stroke-dasharray:none;stroke-dashoffset:0;stroke-opacity:1;visibility:visible;display:inline;overflow:visible;enable-background:accumulate"
       id="path31089"
       sodipodi:cx="63.181713"
       sodipodi:cy="39.777851"
       sodipodi:rx="3.7165713"
       sodipodi:ry="3.7165713"
       d="M 66.898284,39.777851 A 3.7165713,3.7165713 0 1 1 59.465142,39.777851 A 3.7165713,3.7165713 0 1 1 66.898284,39.777851 z" />
    <path
       style="fill:none;fill-rule:evenodd;stroke:#000000;stroke-width:1px;stroke-linecap:butt;stroke-linejoin:miter;stroke-opacity:1"
       d="M 192.34891,107.59842 L 210.34891,107.59842"
       id="path31091" />
    <path
       d="M 66.898284,39.777851 A 3.7165713,3.7165713 0 1 1 59.465142,39.777851 A 3.7165713,3.7165713 0 1 1 66.898284,39.777851 z"
       sodipodi:ry="3.7165713"
       sodipodi:rx="3.7165713"
       sodipodi:cy="39.777851"
       sodipodi:cx="63.181713"
       id="path31095"
       style="fill:#ffffff;fill-opacity:1;fill-rule:evenodd;stroke:#000000;stroke-width:1.44310224px;stroke-linecap:butt;stroke-linejoin:miter;marker:none;marker-start:none;marker-mid:none;marker-end:none;stroke-miterlimit:4;stroke-dasharray:none;stroke-dashoffset:0;stroke-opacity:1;visibility:visible;display:inline;overflow:visible;enable-background:accumulate"
       sodipodi:type="arc"
       transform="matrix(0.6929516,0,0,0.6929516,169.36408,80.04419)" />
    <path
       id="path31097"
       d="M 239.40657,107.59842 L 257.40657,107.59842"
       style="fill:none;fill-rule:evenodd;stroke:#000000;stroke-width:1px;stroke-linecap:butt;stroke-linejoin:miter;stroke-opacity:1" />
    <path
       transform="matrix(0.6929516,0,0,0.6929516,215.63647,80.04419)"
       sodipodi:type="arc"
       style="fill:#ffffff;fill-opacity:1;fill-rule:evenodd;stroke:#000000;stroke-width:1.44310224px;stroke-linecap:butt;stroke-linejoin:miter;marker:none;marker-start:none;marker-mid:none;marker-end:none;stroke-miterlimit:4;stroke-dasharray:none;stroke-dashoffset:0;stroke-opacity:1;visibility:visible;display:inline;overflow:visible;enable-background:accumulate"
       id="path31101"
       sodipodi:cx="63.181713"
       sodipodi:cy="39.777851"
       sodipodi:rx="3.7165713"
       sodipodi:ry="3.7165713"
       d="M 66.898284,39.777851 A 3.7165713,3.7165713 0 1 1 59.465142,39.777851 A 3.7165713,3.7165713 0 1 1 66.898284,39.777851 z" />
    <path
       transform="matrix(0.6150476,0,0,0.6150476,-11.571777,81.256767)"
       d="M 151.6517,47.830421 A 1.75,1.75 0 1 1 148.1517,47.830421 A 1.75,1.75 0 1 1 151.6517,47.830421 z"
       sodipodi:ry="1.75"
       sodipodi:rx="1.75"
       sodipodi:cy="47.830421"
       sodipodi:cx="149.9017"
       style="fill:#000000;stroke:none"
       id="path31115"
       sodipodi:type="arc" />
    <path
       transform="matrix(0.6150476,0,0,0.6150476,-13.655212,81.256767)"
       d="M 181.53914,47.830421 A 1.75,1.75 0 1 1 178.03914,47.830421 A 1.75,1.75 0 1 1 181.53914,47.830421 z"
       sodipodi:ry="1.75"
       sodipodi:rx="1.75"
       sodipodi:cy="47.830421"
       sodipodi:cx="179.78914"
       style="fill:#000000;stroke:none"
       id="path31117"
       sodipodi:type="arc" />
    <path
       transform="matrix(0.6150476,0,0,0.6150476,-12.441992,81.352009)"
       d="M 166.51801,47.675568 A 1.75,1.75 0 1 1 163.01801,47.675568 A 1.75,1.75 0 1 1 166.51801,47.675568 z"
       sodipodi:ry="1.75"
       sodipodi:rx="1.75"
       sodipodi:cy="47.675568"
       sodipodi:cx="164.76801"
       style="fill:#000000;stroke:none"
       id="path31119"
       sodipodi:type="arc" />
    <path
       transform="matrix(0.91807,0,0,0.91807,-35.19461,8.9244509)"
       d="M 324.22235,107.53494 A 3.25,3.25 0 1 1 317.72235,107.53494 A 3.25,3.25 0 1 1 324.22235,107.53494 z"
       sodipodi:ry="3.25"
       sodipodi:rx="3.25"
       sodipodi:cy="107.53494"
       sodipodi:cx="320.97235"
       style="fill:#000000;stroke:none"
       id="path31159"
       sodipodi:type="arc" />
    <path
       sodipodi:type="arc"
       id="path31161"
       style="fill:#000000;stroke:none"
       sodipodi:cx="320.97235"
       sodipodi:cy="107.53494"
       sodipodi:rx="3.25"
       sodipodi:ry="3.25"
       d="M 324.22235,107.53494 A 3.25,3.25 0 1 1 317.72235,107.53494 A 3.25,3.25 0 1 1 324.22235,107.53494 z"
       transform="matrix(0.91807,0,0,0.91807,-104.59465,8.9244509)" />
    <path
       transform="matrix(0.91807,0,0,0.91807,-239.70887,8.9244509)"
       d="M 324.22235,107.53494 A 3.25,3.25 0 1 1 317.72235,107.53494 A 3.25,3.25 0 1 1 324.22235,107.53494 z"
       sodipodi:ry="3.25"
       sodipodi:rx="3.25"
       sodipodi:cy="107.53494"
       sodipodi:cx="320.97235"
       style="fill:#000000;stroke:none"
       id="path31163"
       sodipodi:type="arc" />
    <path
       sodipodi:type="arc"
       id="path31165"
       style="fill:#000000;stroke:none"
       sodipodi:cx="320.97235"
       sodipodi:cy="107.53494"
       sodipodi:rx="3.25"
       sodipodi:ry="3.25"
       d="M 324.22235,107.53494 A 3.25,3.25 0 1 1 317.72235,107.53494 A 3.25,3.25 0 1 1 324.22235,107.53494 z"
       transform="matrix(0.91807,0,0,0.91807,-284.59479,8.9244509)" />
    <text
       xml:space="preserve"
       style="font-size:10px;font-style:normal;font-variant:normal;font-weight:normal;font-stretch:normal;fill:#000000;fill-opacity:1;stroke:none;stroke-width:1px;stroke-linecap:butt;stroke-linejoin:miter;stroke-opacity:1;font-family:LMRoman10;-inkscape-font-specification:LMRoman10"
       x="117.20424"
       y="98.675079"
       id="text31173"><tspan
         sodipodi:role="line"
         id="tspan31175"
         x="117.20424"
         y="98.675079">-2</tspan></text>
    <text
       id="text31177"
       y="98.675079"
       x="162.1236"
       style="font-size:10px;font-style:normal;font-variant:normal;font-weight:normal;font-stretch:normal;fill:#000000;fill-opacity:1;stroke:none;stroke-width:1px;stroke-linecap:butt;stroke-linejoin:miter;stroke-opacity:1;font-family:LMRoman10;-inkscape-font-specification:LMRoman10"
       xml:space="preserve"><tspan
         y="98.675079"
         x="162.1236"
         id="tspan31179"
         sodipodi:role="line">-2</tspan></text>
    <text
       id="text31185"
       y="98.675079"
       x="206.68646"
       style="font-size:10px;font-style:normal;font-variant:normal;font-weight:normal;font-stretch:normal;fill:#000000;fill-opacity:1;stroke:none;stroke-width:1px;stroke-linecap:butt;stroke-linejoin:miter;stroke-opacity:1;font-family:LMRoman10;-inkscape-font-specification:LMRoman10"
       xml:space="preserve"><tspan
         y="98.675079"
         x="206.68646"
         id="tspan31187"
         sodipodi:role="line">-2</tspan></text>
    <g
       id="g31324"
       ns0:preamble=""
       ns0:text="$\\Sigma_\\infty$"
       transform="matrix(1.1,0,0,1.1,8.569425,-25.202762)">
      <defs
         id="defs31326">
        <g
           id="g31328">
          <symbol
             id="textext-79d475af-0"
             overflow="visible"
             style="overflow:visible">
            <path
               id="path31331"
               d=""
               style="stroke:none" />
          </symbol>
          <symbol
             id="textext-79d475af-1"
             overflow="visible"
             style="overflow:visible">
            <path
               id="path31334"
               d="M 3.703125,-3.25 C 3.796875,-3.34375 3.796875,-3.390625 3.796875,-3.40625 C 3.796875,-3.453125 3.765625,-3.515625 3.734375,-3.546875 L 1.6875,-6.5 L 3.984375,-6.5 C 5.671875,-6.5 6.171875,-6.140625 6.375,-4.5625 L 6.625,-4.5625 L 6.34375,-6.8125 L 0.8125,-6.8125 C 0.578125,-6.8125 0.5625,-6.8125 0.5625,-6.578125 L 3.046875,-2.96875 L 0.671875,-0.265625 C 0.5625,-0.15625 0.5625,-0.140625 0.5625,-0.109375 C 0.5625,0 0.671875,0 0.8125,0 L 6.34375,0 L 6.625,-2.359375 L 6.375,-2.359375 C 6.203125,-0.6875 5.515625,-0.421875 3.953125,-0.421875 L 1.203125,-0.421875 L 3.703125,-3.25 z"
               style="stroke:none" />
          </symbol>
          <symbol
             id="textext-79d475af-2"
             overflow="visible"
             style="overflow:visible">
            <path
               id="path31337"
               d=""
               style="stroke:none" />
          </symbol>
          <symbol
             id="textext-79d475af-3"
             overflow="visible"
             style="overflow:visible">
            <path
               id="path31340"
               d="M 4.015625,-1.90625 C 3.671875,-2.328125 3.0625,-3.078125 2.03125,-3.078125 C 1.15625,-3.078125 0.546875,-2.328125 0.546875,-1.5 C 0.546875,-0.6875 1.140625,0.0625 2,0.0625 C 3,0.0625 3.625,-0.71875 3.90625,-1.09375 C 4.25,-0.671875 4.859375,0.0625 5.890625,0.0625 C 6.78125,0.0625 7.390625,-0.671875 7.390625,-1.5 C 7.390625,-2.328125 6.78125,-3.078125 5.921875,-3.078125 C 4.921875,-3.078125 4.3125,-2.28125 4.015625,-1.90625 z M 4.25,-1.65625 C 4.671875,-2.328125 5.296875,-2.8125 5.984375,-2.8125 C 6.703125,-2.8125 7.1875,-2.1875 7.1875,-1.5 C 7.1875,-0.8125 6.625,-0.3125 6.015625,-0.3125 C 5.359375,-0.3125 4.90625,-0.875 4.25,-1.65625 z M 3.671875,-1.359375 C 3.25,-0.671875 2.640625,-0.1875 1.953125,-0.1875 C 1.234375,-0.1875 0.734375,-0.828125 0.734375,-1.5 C 0.734375,-2.1875 1.3125,-2.6875 1.921875,-2.6875 C 2.578125,-2.6875 3.03125,-2.125 3.671875,-1.359375 z"
               style="stroke:none" />
          </symbol>
        </g>
      </defs>
      <g
         id="textext-79d475af-4">
        <g
           id="g31343"
           style="fill:#000000;fill-opacity:1">
          <use
             id="use31345"
             y="134.765"
             x="223.43201"
             xlink:href="#textext-79d475af-1"
             width="354.33069"
             height="212.59842" />
        </g>
        <g
           id="g31347"
           style="fill:#000000;fill-opacity:1">
          <use
             id="use31349"
             y="136.259"
             x="230.627"
             xlink:href="#textext-79d475af-3"
             width="354.33069"
             height="212.59842" />
        </g>
      </g>
    </g>
    <text
       id="text31480"
       y="98.675079"
       x="184.47426"
       style="font-size:10px;font-style:normal;font-variant:normal;font-weight:normal;font-stretch:normal;fill:#000000;fill-opacity:1;stroke:none;stroke-width:1px;stroke-linecap:butt;stroke-linejoin:miter;stroke-opacity:1;font-family:LMRoman10;-inkscape-font-specification:LMRoman10"
       xml:space="preserve"><tspan
         y="98.675079"
         x="184.47426"
         sodipodi:role="line"
         id="tspan33215">-2</tspan></text>
    <path
       sodipodi:type="arc"
       id="path33129"
       style="fill:#000000;stroke:none"
       sodipodi:cx="320.97235"
       sodipodi:cy="107.53494"
       sodipodi:rx="3.25"
       sodipodi:ry="3.25"
       d="M 324.22235,107.53494 A 3.25,3.25 0 1 1 317.72235,107.53494 A 3.25,3.25 0 1 1 324.22235,107.53494 z"
       transform="matrix(0.91807,0,0,0.91807,-149.66042,8.9244509)" />
    <text
       xml:space="preserve"
       style="font-size:10px;font-style:normal;font-variant:normal;font-weight:normal;font-stretch:normal;fill:#000000;fill-opacity:1;stroke:none;stroke-width:1px;stroke-linecap:butt;stroke-linejoin:miter;stroke-opacity:1;font-family:LMRoman10;-inkscape-font-specification:LMRoman10"
       x="139.6293"
       y="98.675079"
       id="text33143"><tspan
         sodipodi:role="line"
         id="tspan33145"
         x="139.6293"
         y="98.675079">-2</tspan></text>
    <path
       id="path33199"
       d="M 192.34891,107.59842 L 210.34891,107.59842"
       style="fill:none;fill-rule:evenodd;stroke:#000000;stroke-width:1px;stroke-linecap:butt;stroke-linejoin:miter;stroke-opacity:1" />
    <path
       transform="matrix(0.6929516,0,0,0.6929516,192.81152,80.04419)"
       sodipodi:type="arc"
       style="fill:#ffffff;fill-opacity:1;fill-rule:evenodd;stroke:#000000;stroke-width:1.44310224px;stroke-linecap:butt;stroke-linejoin:miter;marker:none;marker-start:none;marker-mid:none;marker-end:none;stroke-miterlimit:4;stroke-dasharray:none;stroke-dashoffset:0;stroke-opacity:1;visibility:visible;display:inline;overflow:visible;enable-background:accumulate"
       id="path33203"
       sodipodi:cx="63.181713"
       sodipodi:cy="39.777851"
       sodipodi:rx="3.7165713"
       sodipodi:ry="3.7165713"
       d="M 66.898284,39.777851 A 3.7165713,3.7165713 0 1 1 59.465142,39.777851 A 3.7165713,3.7165713 0 1 1 66.898284,39.777851 z" />
    <path
       style="fill:none;fill-rule:evenodd;stroke:#000000;stroke-width:1px;stroke-linecap:butt;stroke-linejoin:miter;stroke-opacity:1"
       d="M 213.28432,110.17192 L 236.92796,110.17192"
       id="path33205" />
    <path
       id="path33209"
       d="M 213.28432,105.07258 L 236.92796,105.07258"
       style="fill:none;fill-rule:evenodd;stroke:#000000;stroke-width:1px;stroke-linecap:butt;stroke-linejoin:miter;stroke-opacity:1" />
    <text
       xml:space="preserve"
       style="font-size:10px;font-style:normal;font-variant:normal;font-weight:normal;font-stretch:normal;fill:#000000;fill-opacity:1;stroke:none;stroke-width:1px;stroke-linecap:butt;stroke-linejoin:miter;stroke-opacity:1;font-family:LMRoman10;-inkscape-font-specification:LMRoman10"
       x="234.00499"
       y="98.29184"
       id="text33211"><tspan
         sodipodi:role="line"
         id="tspan33213"
         x="234.00499"
         y="98.29184">-4</tspan></text>
  </g>
</svg>
