<?xml version="1.0" encoding="UTF-8" standalone="no"?>
<!-- Created with Inkscape (http://www.inkscape.org/) -->
<svg
   xmlns:ns0="http://www.iki.fi/pav/software/textext/"
   xmlns:dc="http://purl.org/dc/elements/1.1/"
   xmlns:cc="http://creativecommons.org/ns#"
   xmlns:rdf="http://www.w3.org/1999/02/22-rdf-syntax-ns#"
   xmlns:svg="http://www.w3.org/2000/svg"
   xmlns="http://www.w3.org/2000/svg"
   xmlns:xlink="http://www.w3.org/1999/xlink"
   xmlns:sodipodi="http://sodipodi.sourceforge.net/DTD/sodipodi-0.dtd"
   xmlns:inkscape="http://www.inkscape.org/namespaces/inkscape"
   width="354.33069"
   height="212.59842"
   id="svg2460"
   sodipodi:version="0.32"
   inkscape:version="0.46"
   version="1.0"
   sodipodi:docname="miyansi_fig31.svg"
   inkscape:output_extension="org.inkscape.output.svg.inkscape">
  <sodipodi:namedview
     id="base"
     pagecolor="#ffffff"
     bordercolor="#666666"
     borderopacity="1.0"
     gridtolerance="10000"
     guidetolerance="10"
     objecttolerance="10"
     inkscape:pageopacity="0.0"
     inkscape:pageshadow="2"
     inkscape:zoom="2.4940279"
     inkscape:cx="206.68126"
     inkscape:cy="120.08022"
     inkscape:document-units="px"
     inkscape:current-layer="layer1"
     showgrid="false"
     units="cm"
     inkscape:window-width="985"
     inkscape:window-height="723"
     inkscape:window-x="29"
     inkscape:window-y="25">
    <inkscape:grid
       type="xygrid"
       id="grid5053"
       visible="true"
       enabled="true" />
  </sodipodi:namedview>
  <defs
     id="defs2462">
    <marker
       inkscape:stockid="Arrow1Mstart"
       orient="auto"
       refY="0"
       refX="0"
       id="Arrow1Mstart"
       style="overflow:visible">
      <path
         id="path22217"
         d="M 0,0 L 5,-5 L -12.5,0 L 5,5 L 0,0 z"
         style="fill-rule:evenodd;stroke:#000000;stroke-width:1pt;marker-start:none"
         transform="matrix(0.4,0,0,0.4,4,0)" />
    </marker>
    <marker
       inkscape:stockid="Arrow1Mend"
       orient="auto"
       refY="0"
       refX="0"
       id="Arrow1Mend"
       style="overflow:visible">
      <path
         id="path22220"
         d="M 0,0 L 5,-5 L -12.5,0 L 5,5 L 0,0 z"
         style="fill-rule:evenodd;stroke:#000000;stroke-width:1pt;marker-start:none"
         transform="matrix(-0.4,0,0,-0.4,-4,0)" />
    </marker>
    <inkscape:perspective
       sodipodi:type="inkscape:persp3d"
       inkscape:vp_x="0 : 526.18109 : 1"
       inkscape:vp_y="0 : 1000 : 0"
       inkscape:vp_z="744.09448 : 526.18109 : 1"
       inkscape:persp3d-origin="372.04724 : 350.78739 : 1"
       id="perspective2468" />
    <defs
       id="defs25328">
      <g
         id="g25330">
        <symbol
           style="overflow:visible"
           id="textext-d3dddb04-0"
           overflow="visible">
          <path
             id="path25333"
             d=""
             style="stroke:none" />
        </symbol>
        <symbol
           style="overflow:visible"
           id="textext-d3dddb04-1"
           overflow="visible">
          <path
             id="path25336"
             d="M 3.296875,2.390625 C 3.296875,2.359375 3.296875,2.34375 3.125,2.171875 C 1.890625,0.921875 1.5625,-0.96875 1.5625,-2.5 C 1.5625,-4.234375 1.9375,-5.96875 3.171875,-7.203125 C 3.296875,-7.328125 3.296875,-7.34375 3.296875,-7.375 C 3.296875,-7.453125 3.265625,-7.484375 3.203125,-7.484375 C 3.09375,-7.484375 2.203125,-6.796875 1.609375,-5.53125 C 1.109375,-4.4375 0.984375,-3.328125 0.984375,-2.5 C 0.984375,-1.71875 1.09375,-0.515625 1.640625,0.625 C 2.25,1.84375 3.09375,2.5 3.203125,2.5 C 3.265625,2.5 3.296875,2.46875 3.296875,2.390625 z"
             style="stroke:none" />
        </symbol>
        <symbol
           style="overflow:visible"
           id="textext-d3dddb04-2"
           overflow="visible">
          <path
             id="path25339"
             d="M 2.5,-6.921875 L 1.15625,-5.5625 L 1.328125,-5.390625 L 2.5,-6.40625 L 3.640625,-5.390625 L 3.8125,-5.5625 L 2.5,-6.921875 z"
             style="stroke:none" />
        </symbol>
        <symbol
           style="overflow:visible"
           id="textext-d3dddb04-3"
           overflow="visible">
          <path
             id="path25342"
             d="M 2.875,-2.5 C 2.875,-3.265625 2.765625,-4.46875 2.21875,-5.609375 C 1.625,-6.828125 0.765625,-7.484375 0.671875,-7.484375 C 0.609375,-7.484375 0.5625,-7.4375 0.5625,-7.375 C 0.5625,-7.34375 0.5625,-7.328125 0.75,-7.140625 C 1.734375,-6.15625 2.296875,-4.578125 2.296875,-2.5 C 2.296875,-0.78125 1.9375,0.96875 0.703125,2.21875 C 0.5625,2.34375 0.5625,2.359375 0.5625,2.390625 C 0.5625,2.453125 0.609375,2.5 0.671875,2.5 C 0.765625,2.5 1.671875,1.8125 2.25,0.546875 C 2.765625,-0.546875 2.875,-1.65625 2.875,-2.5 z"
             style="stroke:none" />
        </symbol>
        <symbol
           style="overflow:visible"
           id="textext-d3dddb04-4"
           overflow="visible">
          <path
             id="path25345"
             d=""
             style="stroke:none" />
        </symbol>
        <symbol
           style="overflow:visible"
           id="textext-d3dddb04-5"
           overflow="visible">
          <path
             id="path25348"
             d="M 5.15625,-3.71875 C 5.296875,-3.71875 5.65625,-3.71875 5.65625,-4.0625 C 5.65625,-4.296875 5.4375,-4.296875 5.265625,-4.296875 L 2.984375,-4.296875 C 1.484375,-4.296875 0.375,-2.65625 0.375,-1.46875 C 0.375,-0.59375 0.96875,0.109375 1.875,0.109375 C 3.046875,0.109375 4.375,-1.09375 4.375,-2.625 C 4.375,-2.796875 4.375,-3.28125 4.0625,-3.71875 L 5.15625,-3.71875 z M 1.890625,-0.109375 C 1.390625,-0.109375 1,-0.46875 1,-1.1875 C 1,-1.484375 1.109375,-2.296875 1.46875,-2.890625 C 1.890625,-3.578125 2.484375,-3.71875 2.828125,-3.71875 C 3.65625,-3.71875 3.734375,-3.0625 3.734375,-2.75 C 3.734375,-2.28125 3.53125,-1.46875 3.203125,-0.953125 C 2.8125,-0.375 2.265625,-0.109375 1.890625,-0.109375 z"
             style="stroke:none" />
        </symbol>
        <symbol
           style="overflow:visible"
           id="textext-d3dddb04-6"
           overflow="visible">
          <path
             id="path25351"
             d="M 6.4375,-6.921875 C 6.4375,-6.953125 6.40625,-7.03125 6.3125,-7.03125 C 6.265625,-7.03125 6.265625,-7.015625 6.140625,-6.875 L 5.65625,-6.3125 C 5.40625,-6.78125 4.890625,-7.03125 4.234375,-7.03125 C 2.96875,-7.03125 1.78125,-5.875 1.78125,-4.671875 C 1.78125,-3.875 2.296875,-3.40625 2.8125,-3.265625 L 3.875,-2.984375 C 4.25,-2.890625 4.796875,-2.734375 4.796875,-1.921875 C 4.796875,-1.03125 3.984375,-0.09375 3,-0.09375 C 2.359375,-0.09375 1.25,-0.3125 1.25,-1.546875 C 1.25,-1.78125 1.3125,-2.03125 1.3125,-2.078125 C 1.328125,-2.125 1.328125,-2.140625 1.328125,-2.15625 C 1.328125,-2.25 1.265625,-2.265625 1.21875,-2.265625 C 1.171875,-2.265625 1.140625,-2.25 1.109375,-2.21875 C 1.078125,-2.1875 0.515625,0.09375 0.515625,0.125 C 0.515625,0.171875 0.5625,0.21875 0.625,0.21875 C 0.671875,0.21875 0.6875,0.203125 0.8125,0.0625 L 1.296875,-0.5 C 1.71875,0.078125 2.40625,0.21875 2.984375,0.21875 C 4.34375,0.21875 5.515625,-1.109375 5.515625,-2.34375 C 5.515625,-3.03125 5.171875,-3.375 5.03125,-3.515625 C 4.796875,-3.734375 4.640625,-3.78125 3.765625,-4 C 3.53125,-4.0625 3.1875,-4.171875 3.09375,-4.1875 C 2.828125,-4.28125 2.484375,-4.5625 2.484375,-5.09375 C 2.484375,-5.90625 3.28125,-6.75 4.234375,-6.75 C 5.046875,-6.75 5.65625,-6.3125 5.65625,-5.203125 C 5.65625,-4.890625 5.625,-4.703125 5.625,-4.640625 C 5.625,-4.640625 5.625,-4.546875 5.734375,-4.546875 C 5.84375,-4.546875 5.859375,-4.578125 5.890625,-4.75 L 6.4375,-6.921875 z"
             style="stroke:none" />
        </symbol>
        <symbol
           style="overflow:visible"
           id="textext-d3dddb04-7"
           overflow="visible">
          <path
             id="path25354"
             d=""
             style="stroke:none" />
        </symbol>
        <symbol
           style="overflow:visible"
           id="textext-d3dddb04-8"
           overflow="visible">
          <path
             id="path25357"
             d="M 2.03125,-3.296875 C 2.0625,-3.359375 2.078125,-3.421875 2.078125,-3.515625 C 2.078125,-3.734375 1.890625,-3.890625 1.671875,-3.890625 C 1.390625,-3.890625 1.328125,-3.671875 1.296875,-3.578125 L 0.375,-0.5625 C 0.359375,-0.53125 0.328125,-0.453125 0.328125,-0.4375 C 0.328125,-0.359375 0.546875,-0.28125 0.609375,-0.28125 C 0.65625,-0.28125 0.6875,-0.328125 0.703125,-0.390625 L 2.03125,-3.296875 z"
             style="stroke:none" />
        </symbol>
      </g>
    </defs>
  </defs>
  <metadata
     id="metadata2465">
    <rdf:RDF>
      <cc:Work
         rdf:about="">
        <dc:format>image/svg+xml</dc:format>
        <dc:type
           rdf:resource="http://purl.org/dc/dcmitype/StillImage" />
      </cc:Work>
    </rdf:RDF>
  </metadata>
  <g
     inkscape:label="Layer 1"
     inkscape:groupmode="layer"
     id="layer1">
    <text
       xml:space="preserve"
       style="font-size:10px;font-style:normal;font-variant:normal;font-weight:normal;font-stretch:normal;fill:#000000;fill-opacity:1;stroke:none;stroke-width:1px;stroke-linecap:butt;stroke-linejoin:miter;stroke-opacity:1;font-family:LMRoman10;-inkscape-font-specification:LMRoman10"
       x="9.3645487"
       y="83.742233"
       id="text10135"><tspan
         sodipodi:role="line"
         id="tspan10137"
         x="9.3645487"
         y="83.742233" /></text>
    <flowRoot
       xml:space="preserve"
       id="flowRoot3437"
       style="fill:black;stroke:none;stroke-opacity:1;stroke-width:1px;stroke-linejoin:miter;stroke-linecap:butt;fill-opacity:1;font-family:LMRoman10;font-style:normal;font-weight:normal;font-size:10;-inkscape-font-specification:LMRoman10;font-stretch:normal;font-variant:normal"><flowRegion
         id="flowRegion3439"><rect
           id="rect3441"
           width="22.809143"
           height="18.935892"
           x="253.05237"
           y="127.38691" /></flowRegion><flowPara
         id="flowPara3443" /></flowRoot>    <text
       xml:space="preserve"
       style="font-size:10px;font-style:normal;font-variant:normal;font-weight:normal;font-stretch:normal;fill:#000000;fill-opacity:1;stroke:none;stroke-width:1px;stroke-linecap:butt;stroke-linejoin:miter;stroke-opacity:1;font-family:LMRoman10;-inkscape-font-specification:LMRoman10"
       x="197.53578"
       y="50.352257"
       id="text8331"><tspan
         sodipodi:role="line"
         id="tspan8333"
         x="197.53578"
         y="50.352257" /></text>
    <path
       style="fill:none;fill-rule:evenodd;stroke:#000000;stroke-width:1;stroke-linecap:butt;stroke-linejoin:miter;stroke-opacity:1;stroke-miterlimit:4;stroke-dasharray:none;stroke-dashoffset:0"
       d="M 110,122.59842 L 155,52.598419"
       id="path11842" />
    <path
       id="path11844"
       d="M 180,122.59842 L 134.59423,52.860943"
       style="fill:none;fill-rule:evenodd;stroke:#000000;stroke-width:0.99999994;stroke-linecap:butt;stroke-linejoin:miter;stroke-miterlimit:4;stroke-dasharray:none;stroke-dashoffset:0;stroke-opacity:1" />
    <path
       style="fill:none;fill-rule:evenodd;stroke:#000000;stroke-width:1px;stroke-linecap:butt;stroke-linejoin:miter;stroke-opacity:1"
       d="M 98.147415,66.466101 C 148.76729,54.856794 151.32954,62.856598 155.72741,132.43798"
       id="path11846"
       sodipodi:nodetypes="cc" />
    <text
       xml:space="preserve"
       style="font-size:10px;font-style:normal;font-variant:normal;font-weight:normal;font-stretch:normal;fill:#000000;fill-opacity:1;stroke:none;stroke-width:1px;stroke-linecap:butt;stroke-linejoin:miter;stroke-opacity:1;font-family:LMRoman10;-inkscape-font-specification:LMRoman10"
       x="151.48714"
       y="72.731041"
       id="text11848"><tspan
         sodipodi:role="line"
         id="tspan11850"
         x="151.48714"
         y="72.731041">-1</tspan></text>
    <text
       xml:space="preserve"
       style="font-size:10px;font-style:normal;font-variant:normal;font-weight:normal;font-stretch:normal;fill:#000000;fill-opacity:1;stroke:none;stroke-width:1px;stroke-linecap:butt;stroke-linejoin:miter;stroke-opacity:1;font-family:LMRoman10;-inkscape-font-specification:LMRoman10"
       x="134.27269"
       y="91.666924"
       id="text11852"><tspan
         sodipodi:role="line"
         id="tspan11854"
         x="134.27269"
         y="91.666924">-2</tspan></text>
    <g
       transform="matrix(1.1,0,0,1.1,-86.502596,-26.682393)"
       ns0:text="$E_2$"
       ns0:preamble=""
       id="g11902">
      <defs
         id="defs11904">
        <g
           id="g11906">
          <symbol
             style="overflow:visible"
             overflow="visible"
             id="textext-b8080b96-0">
            <path
               style="stroke:none"
               d=""
               id="path11909" />
          </symbol>
          <symbol
             style="overflow:visible"
             overflow="visible"
             id="textext-b8080b96-1">
            <path
               style="stroke:none"
               d="M 7.0625,-2.328125 C 7.078125,-2.375 7.109375,-2.4375 7.109375,-2.46875 C 7.109375,-2.46875 7.109375,-2.578125 6.984375,-2.578125 C 6.890625,-2.578125 6.875,-2.515625 6.859375,-2.453125 C 6.203125,-0.984375 5.84375,-0.3125 4.140625,-0.3125 L 2.6875,-0.3125 C 2.546875,-0.3125 2.515625,-0.3125 2.46875,-0.3125 C 2.359375,-0.328125 2.328125,-0.34375 2.328125,-0.421875 C 2.328125,-0.453125 2.328125,-0.46875 2.375,-0.640625 L 3.0625,-3.375 L 4.046875,-3.375 C 4.890625,-3.375 4.890625,-3.15625 4.890625,-2.90625 C 4.890625,-2.84375 4.890625,-2.71875 4.828125,-2.421875 C 4.8125,-2.375 4.796875,-2.34375 4.796875,-2.3125 C 4.796875,-2.265625 4.828125,-2.203125 4.921875,-2.203125 C 5,-2.203125 5.03125,-2.25 5.078125,-2.40625 L 5.640625,-4.734375 C 5.640625,-4.796875 5.59375,-4.84375 5.515625,-4.84375 C 5.4375,-4.84375 5.40625,-4.78125 5.390625,-4.671875 C 5.171875,-3.90625 5,-3.671875 4.078125,-3.671875 L 3.140625,-3.671875 L 3.734375,-6.078125 C 3.828125,-6.4375 3.84375,-6.46875 4.28125,-6.46875 L 5.6875,-6.46875 C 6.890625,-6.46875 7.203125,-6.1875 7.203125,-5.359375 C 7.203125,-5.125 7.203125,-5.109375 7.15625,-4.828125 C 7.15625,-4.78125 7.140625,-4.703125 7.140625,-4.65625 C 7.140625,-4.609375 7.171875,-4.53125 7.265625,-4.53125 C 7.375,-4.53125 7.390625,-4.59375 7.40625,-4.78125 L 7.609375,-6.515625 C 7.640625,-6.78125 7.59375,-6.78125 7.34375,-6.78125 L 2.296875,-6.78125 C 2.109375,-6.78125 2,-6.78125 2,-6.578125 C 2,-6.46875 2.09375,-6.46875 2.28125,-6.46875 C 2.65625,-6.46875 2.9375,-6.46875 2.9375,-6.296875 C 2.9375,-6.25 2.9375,-6.234375 2.875,-6.046875 L 1.5625,-0.78125 C 1.46875,-0.390625 1.453125,-0.3125 0.65625,-0.3125 C 0.484375,-0.3125 0.375,-0.3125 0.375,-0.125 C 0.375,0 0.46875,0 0.65625,0 L 5.828125,0 C 6.0625,0 6.078125,-0.015625 6.140625,-0.171875 L 7.0625,-2.328125 z"
               id="path11912" />
          </symbol>
          <symbol
             style="overflow:visible"
             overflow="visible"
             id="textext-b8080b96-2">
            <path
               style="stroke:none"
               d=""
               id="path11915" />
          </symbol>
          <symbol
             style="overflow:visible"
             overflow="visible"
             id="textext-b8080b96-3">
            <path
               style="stroke:none"
               d="M 3.515625,-1.265625 L 3.28125,-1.265625 C 3.265625,-1.109375 3.1875,-0.703125 3.09375,-0.640625 C 3.046875,-0.59375 2.515625,-0.59375 2.40625,-0.59375 L 1.125,-0.59375 C 1.859375,-1.234375 2.109375,-1.4375 2.515625,-1.765625 C 3.03125,-2.171875 3.515625,-2.609375 3.515625,-3.265625 C 3.515625,-4.109375 2.78125,-4.625 1.890625,-4.625 C 1.03125,-4.625 0.4375,-4.015625 0.4375,-3.375 C 0.4375,-3.03125 0.734375,-2.984375 0.8125,-2.984375 C 0.96875,-2.984375 1.171875,-3.109375 1.171875,-3.359375 C 1.171875,-3.484375 1.125,-3.734375 0.765625,-3.734375 C 0.984375,-4.21875 1.453125,-4.375 1.78125,-4.375 C 2.484375,-4.375 2.84375,-3.828125 2.84375,-3.265625 C 2.84375,-2.65625 2.40625,-2.1875 2.1875,-1.9375 L 0.515625,-0.265625 C 0.4375,-0.203125 0.4375,-0.1875 0.4375,0 L 3.3125,0 L 3.515625,-1.265625 z"
               id="path11918" />
          </symbol>
        </g>
      </defs>
      <g
         id="textext-b8080b96-4">
        <g
           style="fill:#000000;fill-opacity:1"
           id="g11921">
          <use
             height="212.59842"
             width="354.33069"
             xlink:href="#textext-b8080b96-1"
             x="223.43201"
             y="134.765"
             id="use11923" />
        </g>
        <g
           style="fill:#000000;fill-opacity:1"
           id="g11925">
          <use
             height="212.59842"
             width="354.33069"
             xlink:href="#textext-b8080b96-3"
             x="230.786"
             y="136.259"
             id="use11927" />
        </g>
      </g>
    </g>
    <g
       id="g12083"
       transform="matrix(1.1,0,0,1.1,-126.95655,-26.682393)"
       ns0:preamble=""
       ns0:text="$E_1$">
      <defs
         id="defs12085">
        <g
           id="g12087">
          <symbol
             id="textext-cc82502e-0"
             overflow="visible">
            <path
               id="path12090"
               d=""
               style="stroke:none;" />
          </symbol>
          <symbol
             id="textext-cc82502e-1"
             overflow="visible">
            <path
               id="path12093"
               d="M 7.0625 -2.328125 C 7.078125 -2.375 7.109375 -2.4375 7.109375 -2.46875 C 7.109375 -2.46875 7.109375 -2.578125 6.984375 -2.578125 C 6.890625 -2.578125 6.875 -2.515625 6.859375 -2.453125 C 6.203125 -0.984375 5.84375 -0.3125 4.140625 -0.3125 L 2.6875 -0.3125 C 2.546875 -0.3125 2.515625 -0.3125 2.46875 -0.3125 C 2.359375 -0.328125 2.328125 -0.34375 2.328125 -0.421875 C 2.328125 -0.453125 2.328125 -0.46875 2.375 -0.640625 L 3.0625 -3.375 L 4.046875 -3.375 C 4.890625 -3.375 4.890625 -3.15625 4.890625 -2.90625 C 4.890625 -2.84375 4.890625 -2.71875 4.828125 -2.421875 C 4.8125 -2.375 4.796875 -2.34375 4.796875 -2.3125 C 4.796875 -2.265625 4.828125 -2.203125 4.921875 -2.203125 C 5 -2.203125 5.03125 -2.25 5.078125 -2.40625 L 5.640625 -4.734375 C 5.640625 -4.796875 5.59375 -4.84375 5.515625 -4.84375 C 5.4375 -4.84375 5.40625 -4.78125 5.390625 -4.671875 C 5.171875 -3.90625 5 -3.671875 4.078125 -3.671875 L 3.140625 -3.671875 L 3.734375 -6.078125 C 3.828125 -6.4375 3.84375 -6.46875 4.28125 -6.46875 L 5.6875 -6.46875 C 6.890625 -6.46875 7.203125 -6.1875 7.203125 -5.359375 C 7.203125 -5.125 7.203125 -5.109375 7.15625 -4.828125 C 7.15625 -4.78125 7.140625 -4.703125 7.140625 -4.65625 C 7.140625 -4.609375 7.171875 -4.53125 7.265625 -4.53125 C 7.375 -4.53125 7.390625 -4.59375 7.40625 -4.78125 L 7.609375 -6.515625 C 7.640625 -6.78125 7.59375 -6.78125 7.34375 -6.78125 L 2.296875 -6.78125 C 2.109375 -6.78125 2 -6.78125 2 -6.578125 C 2 -6.46875 2.09375 -6.46875 2.28125 -6.46875 C 2.65625 -6.46875 2.9375 -6.46875 2.9375 -6.296875 C 2.9375 -6.25 2.9375 -6.234375 2.875 -6.046875 L 1.5625 -0.78125 C 1.46875 -0.390625 1.453125 -0.3125 0.65625 -0.3125 C 0.484375 -0.3125 0.375 -0.3125 0.375 -0.125 C 0.375 0 0.46875 0 0.65625 0 L 5.828125 0 C 6.0625 0 6.078125 -0.015625 6.140625 -0.171875 L 7.0625 -2.328125 Z M 7.0625 -2.328125 "
               style="stroke:none;" />
          </symbol>
          <symbol
             id="textext-cc82502e-2"
             overflow="visible">
            <path
               id="path12096"
               d=""
               style="stroke:none;" />
          </symbol>
          <symbol
             id="textext-cc82502e-3"
             overflow="visible">
            <path
               id="path12099"
               d="M 2.328125 -4.4375 C 2.328125 -4.625 2.328125 -4.625 2.125 -4.625 C 1.671875 -4.1875 1.046875 -4.1875 0.765625 -4.1875 L 0.765625 -3.9375 C 0.921875 -3.9375 1.390625 -3.9375 1.765625 -4.125 L 1.765625 -0.578125 C 1.765625 -0.34375 1.765625 -0.25 1.078125 -0.25 L 0.8125 -0.25 L 0.8125 0 C 0.9375 0 1.796875 -0.03125 2.046875 -0.03125 C 2.265625 -0.03125 3.140625 0 3.296875 0 L 3.296875 -0.25 L 3.03125 -0.25 C 2.328125 -0.25 2.328125 -0.34375 2.328125 -0.578125 L 2.328125 -4.4375 Z M 2.328125 -4.4375 "
               style="stroke:none;" />
          </symbol>
        </g>
      </defs>
      <g
         id="textext-cc82502e-4">
        <g
           id="g12102"
           style="fill:rgb(0%,0%,0%);fill-opacity:1;">
          <use
             id="use12104"
             y="134.765"
             x="223.432"
             xlink:href="#textext-cc82502e-1" />
        </g>
        <g
           id="g12106"
           style="fill:rgb(0%,0%,0%);fill-opacity:1;">
          <use
             id="use12108"
             y="136.259"
             x="230.786"
             xlink:href="#textext-cc82502e-3" />
        </g>
      </g>
    </g>
    <g
       transform="matrix(1.1,0,0,1.1,-152.34786,-69.288149)"
       ns0:text="$\\overline{C}$"
       ns0:preamble=""
       id="g12264">
      <defs
         id="defs12266">
        <g
           id="g12268">
          <symbol
             style="overflow:visible"
             overflow="visible"
             id="textext-9eb92788-0">
            <path
               style="stroke:none"
               d=""
               id="path12271" />
          </symbol>
          <symbol
             style="overflow:visible"
             overflow="visible"
             id="textext-9eb92788-1">
            <path
               style="stroke:none"
               d="M 7.578125,-6.921875 C 7.578125,-6.953125 7.5625,-7.03125 7.46875,-7.03125 C 7.4375,-7.03125 7.421875,-7.015625 7.3125,-6.90625 L 6.625,-6.140625 C 6.53125,-6.28125 6.078125,-7.03125 4.96875,-7.03125 C 2.734375,-7.03125 0.5,-4.828125 0.5,-2.515625 C 0.5,-0.875 1.671875,0.21875 3.203125,0.21875 C 4.0625,0.21875 4.828125,-0.171875 5.359375,-0.640625 C 6.28125,-1.453125 6.453125,-2.359375 6.453125,-2.390625 C 6.453125,-2.5 6.34375,-2.5 6.328125,-2.5 C 6.265625,-2.5 6.21875,-2.46875 6.203125,-2.390625 C 6.109375,-2.109375 5.875,-1.390625 5.1875,-0.8125 C 4.5,-0.265625 3.875,-0.09375 3.359375,-0.09375 C 2.46875,-0.09375 1.40625,-0.609375 1.40625,-2.15625 C 1.40625,-2.734375 1.609375,-4.34375 2.609375,-5.515625 C 3.21875,-6.21875 4.15625,-6.71875 5.046875,-6.71875 C 6.0625,-6.71875 6.65625,-5.953125 6.65625,-4.796875 C 6.65625,-4.390625 6.625,-4.390625 6.625,-4.28125 C 6.625,-4.1875 6.734375,-4.1875 6.765625,-4.1875 C 6.890625,-4.1875 6.890625,-4.203125 6.953125,-4.390625 L 7.578125,-6.921875 z"
               id="path12274" />
          </symbol>
        </g>
      </defs>
      <g
         id="textext-9eb92788-2">
        <path
           style="fill:none;stroke:#000000;stroke-width:0.398;stroke-linecap:butt;stroke-linejoin:miter;stroke-miterlimit:10;stroke-opacity:1"
           d="M 0.00159375,-0.0005 L 7.833625,-0.0005"
           transform="matrix(1,0,0,-1,223.432,126.562)"
           id="path12277" />
        <g
           style="fill:#000000;fill-opacity:1"
           id="g12279">
          <use
             height="212.59842"
             width="354.33069"
             xlink:href="#textext-9eb92788-1"
             x="223.43201"
             y="134.765"
             id="use12281" />
        </g>
      </g>
    </g>
    <text
       id="text12370"
       y="92.527649"
       x="240.5719"
       style="font-size:10px;font-style:normal;font-variant:normal;font-weight:normal;font-stretch:normal;fill:#000000;fill-opacity:1;stroke:none;stroke-width:1px;stroke-linecap:butt;stroke-linejoin:miter;stroke-opacity:1;font-family:LMRoman10;-inkscape-font-specification:LMRoman10"
       xml:space="preserve"><tspan
         y="92.527649"
         x="240.5719"
         id="tspan12372"
         sodipodi:role="line">with</tspan></text>
    <g
       id="g13170"
       transform="matrix(1.1,0,0,1.1,16.784085,-55.946953)"
       ns0:preamble=""
       ns0:text="$(E_2 \\cdot \\overline{C})=2$.">
      <defs
         id="defs13172">
        <g
           id="g13174">
          <symbol
             id="textext-49c05c47-0"
             overflow="visible">
            <path
               id="path13177"
               d=""
               style="stroke:none;" />
          </symbol>
          <symbol
             id="textext-49c05c47-1"
             overflow="visible">
            <path
               id="path13180"
               d="M 3.296875 2.390625 C 3.296875 2.359375 3.296875 2.34375 3.125 2.171875 C 1.890625 0.921875 1.5625 -0.96875 1.5625 -2.5 C 1.5625 -4.234375 1.9375 -5.96875 3.171875 -7.203125 C 3.296875 -7.328125 3.296875 -7.34375 3.296875 -7.375 C 3.296875 -7.453125 3.265625 -7.484375 3.203125 -7.484375 C 3.09375 -7.484375 2.203125 -6.796875 1.609375 -5.53125 C 1.109375 -4.4375 0.984375 -3.328125 0.984375 -2.5 C 0.984375 -1.71875 1.09375 -0.515625 1.640625 0.625 C 2.25 1.84375 3.09375 2.5 3.203125 2.5 C 3.265625 2.5 3.296875 2.46875 3.296875 2.390625 Z M 3.296875 2.390625 "
               style="stroke:none;" />
          </symbol>
          <symbol
             id="textext-49c05c47-2"
             overflow="visible">
            <path
               id="path13183"
               d="M 2.875 -2.5 C 2.875 -3.265625 2.765625 -4.46875 2.21875 -5.609375 C 1.625 -6.828125 0.765625 -7.484375 0.671875 -7.484375 C 0.609375 -7.484375 0.5625 -7.4375 0.5625 -7.375 C 0.5625 -7.34375 0.5625 -7.328125 0.75 -7.140625 C 1.734375 -6.15625 2.296875 -4.578125 2.296875 -2.5 C 2.296875 -0.78125 1.9375 0.96875 0.703125 2.21875 C 0.5625 2.34375 0.5625 2.359375 0.5625 2.390625 C 0.5625 2.453125 0.609375 2.5 0.671875 2.5 C 0.765625 2.5 1.671875 1.8125 2.25 0.546875 C 2.765625 -0.546875 2.875 -1.65625 2.875 -2.5 Z M 2.875 -2.5 "
               style="stroke:none;" />
          </symbol>
          <symbol
             id="textext-49c05c47-3"
             overflow="visible">
            <path
               id="path13186"
               d="M 6.84375 -3.265625 C 7 -3.265625 7.1875 -3.265625 7.1875 -3.453125 C 7.1875 -3.65625 7 -3.65625 6.859375 -3.65625 L 0.890625 -3.65625 C 0.75 -3.65625 0.5625 -3.65625 0.5625 -3.453125 C 0.5625 -3.265625 0.75 -3.265625 0.890625 -3.265625 L 6.84375 -3.265625 Z M 6.859375 -1.328125 C 7 -1.328125 7.1875 -1.328125 7.1875 -1.53125 C 7.1875 -1.71875 7 -1.71875 6.84375 -1.71875 L 0.890625 -1.71875 C 0.75 -1.71875 0.5625 -1.71875 0.5625 -1.53125 C 0.5625 -1.328125 0.75 -1.328125 0.890625 -1.328125 L 6.859375 -1.328125 Z M 6.859375 -1.328125 "
               style="stroke:none;" />
          </symbol>
          <symbol
             id="textext-49c05c47-4"
             overflow="visible">
            <path
               id="path13189"
               d="M 4.46875 -1.734375 L 4.234375 -1.734375 C 4.171875 -1.4375 4.109375 -1 4 -0.84375 C 3.9375 -0.765625 3.28125 -0.765625 3.0625 -0.765625 L 1.265625 -0.765625 L 2.328125 -1.796875 C 3.875 -3.171875 4.46875 -3.703125 4.46875 -4.703125 C 4.46875 -5.84375 3.578125 -6.640625 2.359375 -6.640625 C 1.234375 -6.640625 0.5 -5.71875 0.5 -4.828125 C 0.5 -4.28125 1 -4.28125 1.03125 -4.28125 C 1.203125 -4.28125 1.546875 -4.390625 1.546875 -4.8125 C 1.546875 -5.0625 1.359375 -5.328125 1.015625 -5.328125 C 0.9375 -5.328125 0.921875 -5.328125 0.890625 -5.3125 C 1.109375 -5.96875 1.65625 -6.328125 2.234375 -6.328125 C 3.140625 -6.328125 3.5625 -5.515625 3.5625 -4.703125 C 3.5625 -3.90625 3.078125 -3.125 2.515625 -2.5 L 0.609375 -0.375 C 0.5 -0.265625 0.5 -0.234375 0.5 0 L 4.203125 0 L 4.46875 -1.734375 Z M 4.46875 -1.734375 "
               style="stroke:none;" />
          </symbol>
          <symbol
             id="textext-49c05c47-5"
             overflow="visible">
            <path
               id="path13192"
               d="M 1.90625 -0.53125 C 1.90625 -0.8125 1.671875 -1.0625 1.390625 -1.0625 C 1.09375 -1.0625 0.859375 -0.8125 0.859375 -0.53125 C 0.859375 -0.234375 1.09375 0 1.390625 0 C 1.671875 0 1.90625 -0.234375 1.90625 -0.53125 Z M 1.90625 -0.53125 "
               style="stroke:none;" />
          </symbol>
          <symbol
             id="textext-49c05c47-6"
             overflow="visible">
            <path
               id="path13195"
               d=""
               style="stroke:none;" />
          </symbol>
          <symbol
             id="textext-49c05c47-7"
             overflow="visible">
            <path
               id="path13198"
               d="M 7.0625 -2.328125 C 7.078125 -2.375 7.109375 -2.4375 7.109375 -2.46875 C 7.109375 -2.46875 7.109375 -2.578125 6.984375 -2.578125 C 6.890625 -2.578125 6.875 -2.515625 6.859375 -2.453125 C 6.203125 -0.984375 5.84375 -0.3125 4.140625 -0.3125 L 2.6875 -0.3125 C 2.546875 -0.3125 2.515625 -0.3125 2.46875 -0.3125 C 2.359375 -0.328125 2.328125 -0.34375 2.328125 -0.421875 C 2.328125 -0.453125 2.328125 -0.46875 2.375 -0.640625 L 3.0625 -3.375 L 4.046875 -3.375 C 4.890625 -3.375 4.890625 -3.15625 4.890625 -2.90625 C 4.890625 -2.84375 4.890625 -2.71875 4.828125 -2.421875 C 4.8125 -2.375 4.796875 -2.34375 4.796875 -2.3125 C 4.796875 -2.265625 4.828125 -2.203125 4.921875 -2.203125 C 5 -2.203125 5.03125 -2.25 5.078125 -2.40625 L 5.640625 -4.734375 C 5.640625 -4.796875 5.59375 -4.84375 5.515625 -4.84375 C 5.4375 -4.84375 5.40625 -4.78125 5.390625 -4.671875 C 5.171875 -3.90625 5 -3.671875 4.078125 -3.671875 L 3.140625 -3.671875 L 3.734375 -6.078125 C 3.828125 -6.4375 3.84375 -6.46875 4.28125 -6.46875 L 5.6875 -6.46875 C 6.890625 -6.46875 7.203125 -6.1875 7.203125 -5.359375 C 7.203125 -5.125 7.203125 -5.109375 7.15625 -4.828125 C 7.15625 -4.78125 7.140625 -4.703125 7.140625 -4.65625 C 7.140625 -4.609375 7.171875 -4.53125 7.265625 -4.53125 C 7.375 -4.53125 7.390625 -4.59375 7.40625 -4.78125 L 7.609375 -6.515625 C 7.640625 -6.78125 7.59375 -6.78125 7.34375 -6.78125 L 2.296875 -6.78125 C 2.109375 -6.78125 2 -6.78125 2 -6.578125 C 2 -6.46875 2.09375 -6.46875 2.28125 -6.46875 C 2.65625 -6.46875 2.9375 -6.46875 2.9375 -6.296875 C 2.9375 -6.25 2.9375 -6.234375 2.875 -6.046875 L 1.5625 -0.78125 C 1.46875 -0.390625 1.453125 -0.3125 0.65625 -0.3125 C 0.484375 -0.3125 0.375 -0.3125 0.375 -0.125 C 0.375 0 0.46875 0 0.65625 0 L 5.828125 0 C 6.0625 0 6.078125 -0.015625 6.140625 -0.171875 L 7.0625 -2.328125 Z M 7.0625 -2.328125 "
               style="stroke:none;" />
          </symbol>
          <symbol
             id="textext-49c05c47-8"
             overflow="visible">
            <path
               id="path13201"
               d="M 7.578125 -6.921875 C 7.578125 -6.953125 7.5625 -7.03125 7.46875 -7.03125 C 7.4375 -7.03125 7.421875 -7.015625 7.3125 -6.90625 L 6.625 -6.140625 C 6.53125 -6.28125 6.078125 -7.03125 4.96875 -7.03125 C 2.734375 -7.03125 0.5 -4.828125 0.5 -2.515625 C 0.5 -0.875 1.671875 0.21875 3.203125 0.21875 C 4.0625 0.21875 4.828125 -0.171875 5.359375 -0.640625 C 6.28125 -1.453125 6.453125 -2.359375 6.453125 -2.390625 C 6.453125 -2.5 6.34375 -2.5 6.328125 -2.5 C 6.265625 -2.5 6.21875 -2.46875 6.203125 -2.390625 C 6.109375 -2.109375 5.875 -1.390625 5.1875 -0.8125 C 4.5 -0.265625 3.875 -0.09375 3.359375 -0.09375 C 2.46875 -0.09375 1.40625 -0.609375 1.40625 -2.15625 C 1.40625 -2.734375 1.609375 -4.34375 2.609375 -5.515625 C 3.21875 -6.21875 4.15625 -6.71875 5.046875 -6.71875 C 6.0625 -6.71875 6.65625 -5.953125 6.65625 -4.796875 C 6.65625 -4.390625 6.625 -4.390625 6.625 -4.28125 C 6.625 -4.1875 6.734375 -4.1875 6.765625 -4.1875 C 6.890625 -4.1875 6.890625 -4.203125 6.953125 -4.390625 L 7.578125 -6.921875 Z M 7.578125 -6.921875 "
               style="stroke:none;" />
          </symbol>
          <symbol
             id="textext-49c05c47-9"
             overflow="visible">
            <path
               id="path13204"
               d=""
               style="stroke:none;" />
          </symbol>
          <symbol
             id="textext-49c05c47-10"
             overflow="visible">
            <path
               id="path13207"
               d="M 3.515625 -1.265625 L 3.28125 -1.265625 C 3.265625 -1.109375 3.1875 -0.703125 3.09375 -0.640625 C 3.046875 -0.59375 2.515625 -0.59375 2.40625 -0.59375 L 1.125 -0.59375 C 1.859375 -1.234375 2.109375 -1.4375 2.515625 -1.765625 C 3.03125 -2.171875 3.515625 -2.609375 3.515625 -3.265625 C 3.515625 -4.109375 2.78125 -4.625 1.890625 -4.625 C 1.03125 -4.625 0.4375 -4.015625 0.4375 -3.375 C 0.4375 -3.03125 0.734375 -2.984375 0.8125 -2.984375 C 0.96875 -2.984375 1.171875 -3.109375 1.171875 -3.359375 C 1.171875 -3.484375 1.125 -3.734375 0.765625 -3.734375 C 0.984375 -4.21875 1.453125 -4.375 1.78125 -4.375 C 2.484375 -4.375 2.84375 -3.828125 2.84375 -3.265625 C 2.84375 -2.65625 2.40625 -2.1875 2.1875 -1.9375 L 0.515625 -0.265625 C 0.4375 -0.203125 0.4375 -0.1875 0.4375 0 L 3.3125 0 L 3.515625 -1.265625 Z M 3.515625 -1.265625 "
               style="stroke:none;" />
          </symbol>
          <symbol
             id="textext-49c05c47-11"
             overflow="visible">
            <path
               id="path13210"
               d=""
               style="stroke:none;" />
          </symbol>
          <symbol
             id="textext-49c05c47-12"
             overflow="visible">
            <path
               id="path13213"
               d="M 1.90625 -2.5 C 1.90625 -2.78125 1.671875 -3.015625 1.390625 -3.015625 C 1.09375 -3.015625 0.859375 -2.78125 0.859375 -2.5 C 0.859375 -2.203125 1.09375 -1.96875 1.390625 -1.96875 C 1.671875 -1.96875 1.90625 -2.203125 1.90625 -2.5 Z M 1.90625 -2.5 "
               style="stroke:none;" />
          </symbol>
        </g>
      </defs>
      <g
         id="textext-49c05c47-13">
        <g
           id="g13216"
           style="fill:rgb(0%,0%,0%);fill-opacity:1;">
          <use
             id="use13218"
             y="134.765"
             x="223.432"
             xlink:href="#textext-49c05c47-1" />
        </g>
        <g
           id="g13220"
           style="fill:rgb(0%,0%,0%);fill-opacity:1;">
          <use
             id="use13222"
             y="134.765"
             x="227.306"
             xlink:href="#textext-49c05c47-7" />
        </g>
        <g
           id="g13224"
           style="fill:rgb(0%,0%,0%);fill-opacity:1;">
          <use
             id="use13226"
             y="136.259"
             x="234.661"
             xlink:href="#textext-49c05c47-10" />
        </g>
        <g
           id="g13228"
           style="fill:rgb(0%,0%,0%);fill-opacity:1;">
          <use
             id="use13230"
             y="134.765"
             x="241.344"
             xlink:href="#textext-49c05c47-12" />
        </g>
        <path
           id="path13232"
           transform="matrix(1,0,0,-1,246.325,126.562)"
           d="M -0.00078125 -0.0005 L 7.83125 -0.0005 "
           style="fill:none;stroke-width:0.398;stroke-linecap:butt;stroke-linejoin:miter;stroke:rgb(0%,0%,0%);stroke-opacity:1;stroke-miterlimit:10;" />
        <g
           id="g13234"
           style="fill:rgb(0%,0%,0%);fill-opacity:1;">
          <use
             id="use13236"
             y="134.765"
             x="246.325"
             xlink:href="#textext-49c05c47-8" />
        </g>
        <g
           id="g13238"
           style="fill:rgb(0%,0%,0%);fill-opacity:1;">
          <use
             id="use13240"
             y="134.765"
             x="254.158"
             xlink:href="#textext-49c05c47-2" />
        </g>
        <g
           id="g13242"
           style="fill:rgb(0%,0%,0%);fill-opacity:1;">
          <use
             id="use13244"
             y="134.765"
             x="260.802058"
             xlink:href="#textext-49c05c47-3" />
        </g>
        <g
           id="g13246"
           style="fill:rgb(0%,0%,0%);fill-opacity:1;">
          <use
             id="use13248"
             y="134.765"
             x="271.320571"
             xlink:href="#textext-49c05c47-4" />
          <use
             id="use13250"
             y="134.765"
             x="276.301871"
             xlink:href="#textext-49c05c47-5" />
        </g>
      </g>
    </g>
  </g>
</svg>
