<?xml version="1.0" encoding="UTF-8" standalone="no"?>
<!-- Created with Inkscape (http://www.inkscape.org/) -->

<svg
   xmlns:dc="http://purl.org/dc/elements/1.1/"
   xmlns:cc="http://creativecommons.org/ns#"
   xmlns:rdf="http://www.w3.org/1999/02/22-rdf-syntax-ns#"
   xmlns:svg="http://www.w3.org/2000/svg"
   xmlns="http://www.w3.org/2000/svg"
   xmlns:sodipodi="http://sodipodi.sourceforge.net/DTD/sodipodi-0.dtd"
   xmlns:inkscape="http://www.inkscape.org/namespaces/inkscape"
   inkscape:version="0.92.4 (unknown)"
   width="12cm"
   height="10cm"
   viewBox="0 0 120 99.999997"
   version="1.1"
   id="svg8"
   sodipodi:docname="fig2.svg">
  <defs
     id="defs2">
    <marker
       inkscape:stockid="Arrow1Mend"
       orient="auto"
       refY="0.0"
       refX="0.0"
       id="marker9304"
       style="overflow:visible;"
       inkscape:isstock="true">
      <path
         id="path9302"
         d="M 0.0,0.0 L 5.0,-5.0 L -12.5,0.0 L 5.0,5.0 L 0.0,0.0 z "
         style="fill-rule:evenodd;stroke:#808080;stroke-width:1pt;stroke-opacity:1;fill:#808080;fill-opacity:1"
         transform="scale(0.4) rotate(180) translate(10,0)" />
    </marker>
    <marker
       inkscape:isstock="true"
       style="overflow:visible;"
       id="marker8644"
       refX="0.0"
       refY="0.0"
       orient="auto"
       inkscape:stockid="Arrow1Mend"
       inkscape:collect="always">
      <path
         transform="scale(0.4) rotate(180) translate(10,0)"
         style="fill-rule:evenodd;stroke:#808080;stroke-width:1pt;stroke-opacity:1;fill:#808080;fill-opacity:1"
         d="M 0.0,0.0 L 5.0,-5.0 L -12.5,0.0 L 5.0,5.0 L 0.0,0.0 z "
         id="path8642" />
    </marker>
    <marker
       inkscape:isstock="true"
       style="overflow:visible;"
       id="marker7474"
       refX="0.0"
       refY="0.0"
       orient="auto"
       inkscape:stockid="Arrow1Mend">
      <path
         transform="scale(0.4) rotate(180) translate(10,0)"
         style="fill-rule:evenodd;stroke:#000000;stroke-width:1pt;stroke-opacity:1;fill:#000000;fill-opacity:1"
         d="M 0.0,0.0 L 5.0,-5.0 L -12.5,0.0 L 5.0,5.0 L 0.0,0.0 z "
         id="path7472" />
    </marker>
    <marker
       inkscape:stockid="Arrow1Mend"
       orient="auto"
       refY="0.0"
       refX="0.0"
       id="marker6618"
       style="overflow:visible;"
       inkscape:isstock="true">
      <path
         id="path6616"
         d="M 0.0,0.0 L 5.0,-5.0 L -12.5,0.0 L 5.0,5.0 L 0.0,0.0 z "
         style="fill-rule:evenodd;stroke:#000000;stroke-width:1pt;stroke-opacity:1;fill:#000000;fill-opacity:1"
         transform="scale(0.4) rotate(180) translate(10,0)" />
    </marker>
    <marker
       inkscape:isstock="true"
       style="overflow:visible;"
       id="marker1797"
       refX="0.0"
       refY="0.0"
       orient="auto"
       inkscape:stockid="Arrow1Mend">
      <path
         transform="scale(0.4) rotate(180) translate(10,0)"
         style="fill-rule:evenodd;stroke:#000000;stroke-width:1pt;stroke-opacity:1;fill:#000000;fill-opacity:1"
         d="M 0.0,0.0 L 5.0,-5.0 L -12.5,0.0 L 5.0,5.0 L 0.0,0.0 z "
         id="path1795" />
    </marker>
    <marker
       inkscape:stockid="Arrow1Mend"
       orient="auto"
       refY="0.0"
       refX="0.0"
       id="marker1317"
       style="overflow:visible;"
       inkscape:isstock="true"
       inkscape:collect="always">
      <path
         id="path1315"
         d="M 0.0,0.0 L 5.0,-5.0 L -12.5,0.0 L 5.0,5.0 L 0.0,0.0 z "
         style="fill-rule:evenodd;stroke:#000000;stroke-width:1pt;stroke-opacity:1;fill:#000000;fill-opacity:1"
         transform="scale(0.4) rotate(180) translate(10,0)" />
    </marker>
    <marker
       inkscape:isstock="true"
       style="overflow:visible;"
       id="marker22702"
       refX="0.0"
       refY="0.0"
       orient="auto"
       inkscape:stockid="Arrow1Mend"
       inkscape:collect="always">
      <path
         transform="scale(0.4) rotate(180) translate(10,0)"
         style="fill-rule:evenodd;stroke:#000000;stroke-width:1pt;stroke-opacity:1;fill:#000000;fill-opacity:1"
         d="M 0.0,0.0 L 5.0,-5.0 L -12.5,0.0 L 5.0,5.0 L 0.0,0.0 z "
         id="path22700" />
    </marker>
    <marker
       inkscape:isstock="true"
       style="overflow:visible;"
       id="marker22132"
       refX="0.0"
       refY="0.0"
       orient="auto"
       inkscape:stockid="Arrow1Mend">
      <path
         transform="scale(0.4) rotate(180) translate(10,0)"
         style="fill-rule:evenodd;stroke:#000000;stroke-width:1pt;stroke-opacity:1;fill:#000000;fill-opacity:1"
         d="M 0.0,0.0 L 5.0,-5.0 L -12.5,0.0 L 5.0,5.0 L 0.0,0.0 z "
         id="path22130" />
    </marker>
    <marker
       inkscape:isstock="true"
       style="overflow:visible;"
       id="marker21640"
       refX="0.0"
       refY="0.0"
       orient="auto"
       inkscape:stockid="Arrow1Mend">
      <path
         transform="scale(0.4) rotate(180) translate(10,0)"
         style="fill-rule:evenodd;stroke:#000000;stroke-width:1pt;stroke-opacity:1;fill:#000000;fill-opacity:1"
         d="M 0.0,0.0 L 5.0,-5.0 L -12.5,0.0 L 5.0,5.0 L 0.0,0.0 z "
         id="path21638" />
    </marker>
    <marker
       inkscape:stockid="Arrow1Mend"
       orient="auto"
       refY="0.0"
       refX="0.0"
       id="marker19078"
       style="overflow:visible;"
       inkscape:isstock="true">
      <path
         id="path19076"
         d="M 0.0,0.0 L 5.0,-5.0 L -12.5,0.0 L 5.0,5.0 L 0.0,0.0 z "
         style="fill-rule:evenodd;stroke:#000000;stroke-width:1pt;stroke-opacity:1;fill:#000000;fill-opacity:1"
         transform="scale(0.4) rotate(180) translate(10,0)" />
    </marker>
    <marker
       inkscape:isstock="true"
       style="overflow:visible;"
       id="marker17873"
       refX="0.0"
       refY="0.0"
       orient="auto"
       inkscape:stockid="Arrow1Mend">
      <path
         transform="scale(0.4) rotate(180) translate(10,0)"
         style="fill-rule:evenodd;stroke:#000000;stroke-width:1pt;stroke-opacity:1;fill:#000000;fill-opacity:1"
         d="M 0.0,0.0 L 5.0,-5.0 L -12.5,0.0 L 5.0,5.0 L 0.0,0.0 z "
         id="path17871" />
    </marker>
    <marker
       inkscape:isstock="true"
       style="overflow:visible;"
       id="marker12720"
       refX="0.0"
       refY="0.0"
       orient="auto"
       inkscape:stockid="Arrow1Mend">
      <path
         transform="scale(0.4) rotate(180) translate(10,0)"
         style="fill-rule:evenodd;stroke:#000000;stroke-width:1pt;stroke-opacity:1;fill:#000000;fill-opacity:1"
         d="M 0.0,0.0 L 5.0,-5.0 L -12.5,0.0 L 5.0,5.0 L 0.0,0.0 z "
         id="path12718" />
    </marker>
    <marker
       inkscape:isstock="true"
       style="overflow:visible;"
       id="marker9948"
       refX="0.0"
       refY="0.0"
       orient="auto"
       inkscape:stockid="Arrow1Mend">
      <path
         transform="scale(0.4) rotate(180) translate(10,0)"
         style="fill-rule:evenodd;stroke:#000000;stroke-width:1pt;stroke-opacity:1;fill:#000000;fill-opacity:1"
         d="M 0.0,0.0 L 5.0,-5.0 L -12.5,0.0 L 5.0,5.0 L 0.0,0.0 z "
         id="path9946" />
    </marker>
    <marker
       inkscape:isstock="true"
       style="overflow:visible;"
       id="marker9778"
       refX="0.0"
       refY="0.0"
       orient="auto"
       inkscape:stockid="Arrow1Mend">
      <path
         transform="scale(0.4) rotate(180) translate(10,0)"
         style="fill-rule:evenodd;stroke:#000000;stroke-width:1pt;stroke-opacity:1;fill:#000000;fill-opacity:1"
         d="M 0.0,0.0 L 5.0,-5.0 L -12.5,0.0 L 5.0,5.0 L 0.0,0.0 z "
         id="path9776" />
    </marker>
    <marker
       inkscape:stockid="Arrow1Mend"
       orient="auto"
       refY="0.0"
       refX="0.0"
       id="marker9624"
       style="overflow:visible;"
       inkscape:isstock="true">
      <path
         id="path9622"
         d="M 0.0,0.0 L 5.0,-5.0 L -12.5,0.0 L 5.0,5.0 L 0.0,0.0 z "
         style="fill-rule:evenodd;stroke:#000000;stroke-width:1pt;stroke-opacity:1;fill:#000000;fill-opacity:1"
         transform="scale(0.4) rotate(180) translate(10,0)" />
    </marker>
    <marker
       inkscape:isstock="true"
       style="overflow:visible;"
       id="marker7255"
       refX="0.0"
       refY="0.0"
       orient="auto"
       inkscape:stockid="Arrow1Mend">
      <path
         transform="scale(0.4) rotate(180) translate(10,0)"
         style="fill-rule:evenodd;stroke:#000000;stroke-width:1pt;stroke-opacity:1;fill:#000000;fill-opacity:1"
         d="M 0.0,0.0 L 5.0,-5.0 L -12.5,0.0 L 5.0,5.0 L 0.0,0.0 z "
         id="path7253" />
    </marker>
    <marker
       inkscape:stockid="Arrow1Mend"
       orient="auto"
       refY="0.0"
       refX="0.0"
       id="marker6565"
       style="overflow:visible;"
       inkscape:isstock="true">
      <path
         id="path6563"
         d="M 0.0,0.0 L 5.0,-5.0 L -12.5,0.0 L 5.0,5.0 L 0.0,0.0 z "
         style="fill-rule:evenodd;stroke:#000000;stroke-width:1pt;stroke-opacity:1;fill:#000000;fill-opacity:1"
         transform="scale(0.4) rotate(180) translate(10,0)" />
    </marker>
    <marker
       inkscape:stockid="Arrow1Mend"
       orient="auto"
       refY="0.0"
       refX="0.0"
       id="marker1770"
       style="overflow:visible;"
       inkscape:isstock="true">
      <path
         id="path1768"
         d="M 0.0,0.0 L 5.0,-5.0 L -12.5,0.0 L 5.0,5.0 L 0.0,0.0 z "
         style="fill-rule:evenodd;stroke:#000000;stroke-width:1pt;stroke-opacity:1;fill:#000000;fill-opacity:1"
         transform="scale(0.4) rotate(180) translate(10,0)" />
    </marker>
    <marker
       inkscape:stockid="Arrow1Mstart"
       orient="auto"
       refY="0.0"
       refX="0.0"
       id="marker21240"
       style="overflow:visible"
       inkscape:isstock="true">
      <path
         id="path21238"
         d="M 0.0,0.0 L 5.0,-5.0 L -12.5,0.0 L 5.0,5.0 L 0.0,0.0 z "
         style="fill-rule:evenodd;stroke:#000000;stroke-width:1pt;stroke-opacity:1;fill:#000000;fill-opacity:1"
         transform="scale(0.4) translate(10,0)" />
    </marker>
    <marker
       inkscape:stockid="Arrow1Mstart"
       orient="auto"
       refY="0.0"
       refX="0.0"
       id="marker17534"
       style="overflow:visible"
       inkscape:isstock="true">
      <path
         id="path17532"
         d="M 0.0,0.0 L 5.0,-5.0 L -12.5,0.0 L 5.0,5.0 L 0.0,0.0 z "
         style="fill-rule:evenodd;stroke:#000000;stroke-width:1pt;stroke-opacity:1;fill:#000000;fill-opacity:1"
         transform="scale(0.4) translate(10,0)" />
    </marker>
    <marker
       inkscape:stockid="Arrow1Mstart"
       orient="auto"
       refY="0.0"
       refX="0.0"
       id="marker16399"
       style="overflow:visible"
       inkscape:isstock="true">
      <path
         id="path16397"
         d="M 0.0,0.0 L 5.0,-5.0 L -12.5,0.0 L 5.0,5.0 L 0.0,0.0 z "
         style="fill-rule:evenodd;stroke:#666666;stroke-width:1pt;stroke-opacity:1;fill:#666666;fill-opacity:1"
         transform="scale(0.4) translate(10,0)" />
    </marker>
    <marker
       inkscape:stockid="Arrow1Mstart"
       orient="auto"
       refY="0.0"
       refX="0.0"
       id="marker13571"
       style="overflow:visible"
       inkscape:isstock="true">
      <path
         id="path13569"
         d="M 0.0,0.0 L 5.0,-5.0 L -12.5,0.0 L 5.0,5.0 L 0.0,0.0 z "
         style="fill-rule:evenodd;stroke:#000000;stroke-width:1pt;stroke-opacity:1;fill:#000000;fill-opacity:1"
         transform="scale(0.4) translate(10,0)" />
    </marker>
    <marker
       inkscape:isstock="true"
       style="overflow:visible"
       id="marker12137"
       refX="0.0"
       refY="0.0"
       orient="auto"
       inkscape:stockid="Arrow1Mstart">
      <path
         transform="scale(0.4) translate(10,0)"
         style="fill-rule:evenodd;stroke:#808080;stroke-width:1pt;stroke-opacity:1;fill:#808080;fill-opacity:1"
         d="M 0.0,0.0 L 5.0,-5.0 L -12.5,0.0 L 5.0,5.0 L 0.0,0.0 z "
         id="path12135" />
    </marker>
    <marker
       inkscape:stockid="Arrow1Mend"
       orient="auto"
       refY="0.0"
       refX="0.0"
       id="marker6990"
       style="overflow:visible;"
       inkscape:isstock="true">
      <path
         id="path6988"
         d="M 0.0,0.0 L 5.0,-5.0 L -12.5,0.0 L 5.0,5.0 L 0.0,0.0 z "
         style="fill-rule:evenodd;stroke:#000000;stroke-width:1pt;stroke-opacity:1;fill:#000000;fill-opacity:1"
         transform="scale(0.4) rotate(180) translate(10,0)" />
    </marker>
    <marker
       inkscape:stockid="Arrow1Mend"
       orient="auto"
       refY="0.0"
       refX="0.0"
       id="marker2742"
       style="overflow:visible;"
       inkscape:isstock="true">
      <path
         id="path2740"
         d="M 0.0,0.0 L 5.0,-5.0 L -12.5,0.0 L 5.0,5.0 L 0.0,0.0 z "
         style="fill-rule:evenodd;stroke:#000000;stroke-width:1pt;stroke-opacity:1;fill:#000000;fill-opacity:1"
         transform="scale(0.4) rotate(180) translate(10,0)" />
    </marker>
    <marker
       inkscape:stockid="Arrow1Mend"
       orient="auto"
       refY="0.0"
       refX="0.0"
       id="marker2118"
       style="overflow:visible;"
       inkscape:isstock="true">
      <path
         id="path2116"
         d="M 0.0,0.0 L 5.0,-5.0 L -12.5,0.0 L 5.0,5.0 L 0.0,0.0 z "
         style="fill-rule:evenodd;stroke:#000000;stroke-width:1pt;stroke-opacity:1;fill:#000000;fill-opacity:1"
         transform="scale(0.4) rotate(180) translate(10,0)" />
    </marker>
    <marker
       inkscape:isstock="true"
       style="overflow:visible;"
       id="marker18120"
       refX="0.0"
       refY="0.0"
       orient="auto"
       inkscape:stockid="Arrow1Mend">
      <path
         transform="scale(0.4) rotate(180) translate(10,0)"
         style="fill-rule:evenodd;stroke:#000000;stroke-width:1pt;stroke-opacity:1;fill:#000000;fill-opacity:1"
         d="M 0.0,0.0 L 5.0,-5.0 L -12.5,0.0 L 5.0,5.0 L 0.0,0.0 z "
         id="path18118" />
    </marker>
    <marker
       inkscape:stockid="Arrow1Mend"
       orient="auto"
       refY="0.0"
       refX="0.0"
       id="marker17533"
       style="overflow:visible;"
       inkscape:isstock="true">
      <path
         id="path17531"
         d="M 0.0,0.0 L 5.0,-5.0 L -12.5,0.0 L 5.0,5.0 L 0.0,0.0 z "
         style="fill-rule:evenodd;stroke:#000000;stroke-width:1pt;stroke-opacity:1;fill:#000000;fill-opacity:1"
         transform="scale(0.4) rotate(180) translate(10,0)" />
    </marker>
    <marker
       inkscape:isstock="true"
       style="overflow:visible;"
       id="marker10832"
       refX="0.0"
       refY="0.0"
       orient="auto"
       inkscape:stockid="Arrow1Mend">
      <path
         transform="scale(0.4) rotate(180) translate(10,0)"
         style="fill-rule:evenodd;stroke:#000000;stroke-width:1pt;stroke-opacity:1;fill:#000000;fill-opacity:1"
         d="M 0.0,0.0 L 5.0,-5.0 L -12.5,0.0 L 5.0,5.0 L 0.0,0.0 z "
         id="path10830" />
    </marker>
    <marker
       inkscape:isstock="true"
       style="overflow:visible;"
       id="marker8615"
       refX="0.0"
       refY="0.0"
       orient="auto"
       inkscape:stockid="Arrow1Mend">
      <path
         transform="scale(0.4) rotate(180) translate(10,0)"
         style="fill-rule:evenodd;stroke:#000000;stroke-width:1pt;stroke-opacity:1;fill:#000000;fill-opacity:1"
         d="M 0.0,0.0 L 5.0,-5.0 L -12.5,0.0 L 5.0,5.0 L 0.0,0.0 z "
         id="path8613" />
    </marker>
    <marker
       inkscape:isstock="true"
       style="overflow:visible;"
       id="marker1866"
       refX="0.0"
       refY="0.0"
       orient="auto"
       inkscape:stockid="Arrow1Mend">
      <path
         transform="scale(0.4) rotate(180) translate(10,0)"
         style="fill-rule:evenodd;stroke:#000000;stroke-width:1pt;stroke-opacity:1;fill:#000000;fill-opacity:1"
         d="M 0.0,0.0 L 5.0,-5.0 L -12.5,0.0 L 5.0,5.0 L 0.0,0.0 z "
         id="path1864" />
    </marker>
    <marker
       inkscape:isstock="true"
       style="overflow:visible;"
       id="marker4824"
       refX="0.0"
       refY="0.0"
       orient="auto"
       inkscape:stockid="Arrow1Mend">
      <path
         transform="scale(0.4) rotate(180) translate(10,0)"
         style="fill-rule:evenodd;stroke:#000000;stroke-width:1pt;stroke-opacity:1;fill:#000000;fill-opacity:1"
         d="M 0.0,0.0 L 5.0,-5.0 L -12.5,0.0 L 5.0,5.0 L 0.0,0.0 z "
         id="path4822" />
    </marker>
  </defs>
  <sodipodi:namedview
     id="base"
     pagecolor="#ffffff"
     bordercolor="#666666"
     borderopacity="1.0"
     inkscape:pageopacity="0.0"
     inkscape:pageshadow="2"
     inkscape:zoom="1.2501562"
     inkscape:cx="226.77165"
     inkscape:cy="188.97638"
     inkscape:document-units="cm"
     inkscape:current-layer="layer1"
     showgrid="false"
     units="cm"
     inkscape:window-width="773"
     inkscape:window-height="716"
     inkscape:window-x="10"
     inkscape:window-y="24"
     inkscape:window-maximized="0"
     inkscape:object-paths="false"
     inkscape:snap-intersection-paths="false"
     inkscape:snap-object-midpoints="false"
     inkscape:snap-center="false"
     inkscape:snap-midpoints="false"
     inkscape:snap-others="false"
     inkscape:object-nodes="true">
    <inkscape:grid
       type="xygrid"
       id="grid4518"
       dotted="false"
       empspacing="4" />
  </sodipodi:namedview>
  <metadata
     id="metadata5">
    <rdf:RDF>
      <cc:Work
         rdf:about="">
        <dc:format>image/svg+xml</dc:format>
        <dc:type
           rdf:resource="http://purl.org/dc/dcmitype/StillImage" />
        <dc:title></dc:title>
      </cc:Work>
    </rdf:RDF>
  </metadata>
  <g
     inkscape:label="Layer 1"
     inkscape:groupmode="layer"
     id="layer1"
     transform="translate(0,-197.00001)">
    <g
       id="g11316">
      <g
         style="stroke:#999999"
         id="g10811">
        <path
           style="color:#000000;clip-rule:nonzero;display:inline;overflow:visible;visibility:visible;opacity:1;isolation:auto;mix-blend-mode:normal;color-interpolation:sRGB;color-interpolation-filters:linearRGB;solid-color:#000000;solid-opacity:1;fill:none;fill-opacity:1;fill-rule:nonzero;stroke:#999999;stroke-width:0.18520833;stroke-linecap:round;stroke-linejoin:round;stroke-miterlimit:4;stroke-dasharray:0.37041666, 0.37041666000000001;stroke-dashoffset:0;stroke-opacity:0.93103451;color-rendering:auto;image-rendering:auto;shape-rendering:auto;text-rendering:auto;enable-background:accumulate"
           d="m 24.196583,254.28431 21.857249,-7.40651 v 23.40831 l -21.857249,7.40651 z"
           id="path10547"
           inkscape:connector-curvature="0" />
        <path
           d="M 24.196583,276.873376 l 0.611898,0.611898 M 25.702800,277.182226 l -1.506217,-1.506217 M 24.196583,274.478641 l 2.400537,2.400537 M 27.491440,276.576130 l -3.294857,-3.294857 M 24.196583,272.083906 l 4.189177,4.189177 M 29.280080,275.970035 l -5.083497,-5.083497 M 24.196583,269.689171 l 5.977817,5.977817 M 31.068719,275.363940 l -6.872136,-6.872136 M 24.196583,267.294436 l 7.766456,7.766456 M 32.857359,274.757844 l -8.660776,-8.660776 M 24.196583,264.899701 l 9.555096,9.555096 M 34.645999,274.151749 l -10.449416,-10.449416 M 24.196583,262.504966 l 11.343735,11.343735 M 36.434638,273.545654 l -12.238055,-12.238055 M 24.196583,260.110231 l 13.132375,13.132375 M 38.223278,272.939558 l -14.026695,-14.026695 M 24.196583,257.715496 l 14.921015,14.921015 M 40.011918,272.333463 l -15.815335,-15.815335 M 24.196583,255.320761 l 16.709654,16.709654 M 41.800557,271.727367 l -17.483785,-17.483785 M 25.211092,253.940535 l 17.483785,17.483785 M 43.589197,271.121272 l -17.483785,-17.483785 M 26.999732,253.334440 l 17.483785,17.483785 M 45.377837,270.515177 l -17.483785,-17.483785 M 28.788372,252.728344 l 17.265460,17.265460 M 46.053832,268.796437 l -16.371140,-16.371140 M 30.577011,252.122249 l 15.476821,15.476821 M 46.053832,266.401702 l -14.582501,-14.582501 M 32.365651,251.516154 l 13.688181,13.688181 M 46.053832,264.006967 l -12.793861,-12.793861 M 34.154291,250.910058 l 11.899541,11.899541 M 46.053832,261.612232 l -11.005221,-11.005221 M 35.942930,250.303963 l 10.110902,10.110902 M 46.053832,259.217497 l -9.216582,-9.216582 M 37.731570,249.697867 l 8.322262,8.322262 M 46.053832,256.822762 l -7.427942,-7.427942 M 39.520210,249.091772 l 6.533622,6.533622 M 46.053832,254.428027 l -5.639303,-5.639303 M 41.308849,248.485677 l 4.744983,4.744983 M 46.053832,252.033292 l -3.850663,-3.850663 M 43.097489,247.879581 l 2.956343,2.956343 M 46.053832,249.638557 l -2.062023,-2.062023 M 44.886129,247.273486 l 1.167703,1.167703 M 46.053832,247.243822 l -0.273384,-0.273384"
           style="stroke:#999999;stroke-width:0.18520833;fill:none"
           id="path10809" />
      </g>
      <path
         sodipodi:nodetypes="cc"
         inkscape:connector-curvature="0"
         id="path8640"
         d="m 32.58611,270.46442 9.131858,11.5236"
         style="color:#000000;clip-rule:nonzero;display:inline;overflow:visible;visibility:visible;opacity:1;isolation:auto;mix-blend-mode:normal;color-interpolation:sRGB;color-interpolation-filters:linearRGB;solid-color:#000000;solid-opacity:1;fill:#808080;fill-opacity:1;fill-rule:nonzero;stroke:#808080;stroke-width:0.26458332;stroke-linecap:round;stroke-linejoin:round;stroke-miterlimit:4;stroke-dasharray:none;stroke-dashoffset:0;stroke-opacity:1;marker-end:url(#marker8644);color-rendering:auto;image-rendering:auto;shape-rendering:auto;text-rendering:auto;enable-background:accumulate" />
      <path
         style="color:#000000;clip-rule:nonzero;display:inline;overflow:visible;visibility:visible;opacity:1;isolation:auto;mix-blend-mode:normal;color-interpolation:sRGB;color-interpolation-filters:linearRGB;solid-color:#000000;solid-opacity:1;fill:none;fill-opacity:1;fill-rule:nonzero;stroke:#000000;stroke-width:0.26458332;stroke-linecap:round;stroke-linejoin:round;stroke-miterlimit:4;stroke-dasharray:1.05833325, 1.05833325000000000;stroke-dashoffset:0;stroke-opacity:1;color-rendering:auto;image-rendering:auto;shape-rendering:auto;text-rendering:auto;enable-background:accumulate"
         d="M 40.924868,262.8796 V 239.47129"
         id="path5220"
         inkscape:connector-curvature="0"
         sodipodi:nodetypes="cc" />
      <path
         sodipodi:nodetypes="cc"
         inkscape:connector-curvature="0"
         id="path1274"
         d="M 26.60871,262.8796 V 239.47129"
         style="color:#000000;clip-rule:nonzero;display:inline;overflow:visible;visibility:visible;opacity:1;isolation:auto;mix-blend-mode:normal;color-interpolation:sRGB;color-interpolation-filters:linearRGB;solid-color:#000000;solid-opacity:1;fill:none;fill-opacity:1;fill-rule:nonzero;stroke:#000000;stroke-width:0.26458332;stroke-linecap:round;stroke-linejoin:round;stroke-miterlimit:4;stroke-dasharray:1.05833325, 1.05833325000000000;stroke-dashoffset:0;stroke-opacity:1;color-rendering:auto;image-rendering:auto;shape-rendering:auto;text-rendering:auto;enable-background:accumulate" />
      <path
         sodipodi:nodetypes="cc"
         inkscape:connector-curvature="0"
         id="path1299"
         d="M 32.642895,270.48738 18.656549,282.72514"
         style="color:#000000;clip-rule:nonzero;display:inline;overflow:visible;visibility:visible;opacity:1;isolation:auto;mix-blend-mode:normal;color-interpolation:sRGB;color-interpolation-filters:linearRGB;solid-color:#000000;solid-opacity:1;fill:#000000;fill-opacity:1;fill-rule:nonzero;stroke:#000000;stroke-width:0.26458332;stroke-linecap:round;stroke-linejoin:round;stroke-miterlimit:4;stroke-dasharray:none;stroke-dashoffset:0;stroke-opacity:1;marker-end:url(#marker22702);color-rendering:auto;image-rendering:auto;shape-rendering:auto;text-rendering:auto;enable-background:accumulate" />
      <path
         style="color:#000000;clip-rule:nonzero;display:inline;overflow:visible;visibility:visible;opacity:1;isolation:auto;mix-blend-mode:normal;color-interpolation:sRGB;color-interpolation-filters:linearRGB;solid-color:#000000;solid-opacity:1;fill:#000000;fill-opacity:1;fill-rule:nonzero;stroke:#000000;stroke-width:0.26458332;stroke-linecap:round;stroke-linejoin:round;stroke-miterlimit:4;stroke-dasharray:none;stroke-dashoffset:0;stroke-opacity:1;marker-end:url(#marker1317);color-rendering:auto;image-rendering:auto;shape-rendering:auto;text-rendering:auto;enable-background:accumulate"
         d="M 32.642895,270.48738 H 52.760772"
         id="path1313"
         inkscape:connector-curvature="0" />
      <path
         sodipodi:nodetypes="ccccccc"
         inkscape:connector-curvature="0"
         id="path5208"
         d="m 46.053833,246.8778 -7.541092,7.40651 H 24.196583 l -5.128965,-7.40651 7.541092,-7.40651 h 14.316157 z"
         style="color:#000000;clip-rule:nonzero;display:inline;overflow:visible;visibility:visible;opacity:1;isolation:auto;mix-blend-mode:normal;color-interpolation:sRGB;color-interpolation-filters:linearRGB;solid-color:#000000;solid-opacity:1;fill:none;fill-opacity:1;fill-rule:nonzero;stroke:#000000;stroke-width:0.26458332;stroke-linecap:round;stroke-linejoin:round;stroke-miterlimit:4;stroke-dasharray:none;stroke-dashoffset:0;stroke-opacity:1;color-rendering:auto;image-rendering:auto;shape-rendering:auto;text-rendering:auto;enable-background:accumulate" />
      <path
         inkscape:connector-curvature="0"
         id="path5212"
         d="M 19.067618,270.28611 V 246.8778"
         style="color:#000000;clip-rule:nonzero;display:inline;overflow:visible;visibility:visible;opacity:1;isolation:auto;mix-blend-mode:normal;color-interpolation:sRGB;color-interpolation-filters:linearRGB;solid-color:#000000;solid-opacity:1;fill:none;fill-opacity:1;fill-rule:nonzero;stroke:#808080;stroke-width:0.26458332;stroke-linecap:round;stroke-linejoin:round;stroke-miterlimit:4;stroke-dasharray:none;stroke-dashoffset:0;stroke-opacity:1;color-rendering:auto;image-rendering:auto;shape-rendering:auto;text-rendering:auto;enable-background:accumulate" />
      <path
         style="color:#000000;clip-rule:nonzero;display:inline;overflow:visible;visibility:visible;opacity:1;isolation:auto;mix-blend-mode:normal;color-interpolation:sRGB;color-interpolation-filters:linearRGB;solid-color:#000000;solid-opacity:1;fill:none;fill-opacity:1;fill-rule:nonzero;stroke:#000000;stroke-width:0.26458332;stroke-linecap:round;stroke-linejoin:round;stroke-miterlimit:4;stroke-dasharray:none;stroke-dashoffset:0;stroke-opacity:1;color-rendering:auto;image-rendering:auto;shape-rendering:auto;text-rendering:auto;enable-background:accumulate"
         d="M 24.196583,277.69262 V 254.28431"
         id="path5214"
         inkscape:connector-curvature="0" />
      <path
         inkscape:connector-curvature="0"
         id="path5216"
         d="M 38.512741,277.69262 V 254.28431"
         style="color:#000000;clip-rule:nonzero;display:inline;overflow:visible;visibility:visible;opacity:1;isolation:auto;mix-blend-mode:normal;color-interpolation:sRGB;color-interpolation-filters:linearRGB;solid-color:#000000;solid-opacity:1;fill:none;fill-opacity:1;fill-rule:nonzero;stroke:#000000;stroke-width:0.26458332;stroke-linecap:round;stroke-linejoin:round;stroke-miterlimit:4;stroke-dasharray:none;stroke-dashoffset:0;stroke-opacity:1;color-rendering:auto;image-rendering:auto;shape-rendering:auto;text-rendering:auto;enable-background:accumulate" />
      <path
         style="color:#000000;clip-rule:nonzero;display:inline;overflow:visible;visibility:visible;opacity:1;isolation:auto;mix-blend-mode:normal;color-interpolation:sRGB;color-interpolation-filters:linearRGB;solid-color:#000000;solid-opacity:1;fill:none;fill-opacity:1;fill-rule:nonzero;stroke:#808080;stroke-width:0.26458332;stroke-linecap:round;stroke-linejoin:round;stroke-miterlimit:4;stroke-dasharray:none;stroke-dashoffset:0;stroke-opacity:1;color-rendering:auto;image-rendering:auto;shape-rendering:auto;text-rendering:auto;enable-background:accumulate"
         d="M 46.053833,270.28611 V 246.8778"
         id="path5218"
         inkscape:connector-curvature="0" />
      <g
         id="g5232">
        <path
           style="color:#000000;clip-rule:nonzero;display:inline;overflow:visible;visibility:visible;opacity:1;isolation:auto;mix-blend-mode:normal;color-interpolation:sRGB;color-interpolation-filters:linearRGB;solid-color:#000000;solid-opacity:1;fill:none;fill-opacity:1;fill-rule:nonzero;stroke:#000000;stroke-width:0.26458332;stroke-linecap:round;stroke-linejoin:round;stroke-miterlimit:4;stroke-dasharray:1.05833325, 1.05833325;stroke-dashoffset:0;stroke-opacity:1;color-rendering:auto;image-rendering:auto;shape-rendering:auto;text-rendering:auto;enable-background:accumulate"
           d="m 19.067618,270.5 7.541092,-7.4065 h 14.316158 l 5.128965,7.4065"
           id="path1278"
           inkscape:connector-curvature="0"
           sodipodi:nodetypes="cccc" />
        <path
           sodipodi:nodetypes="cccc"
           inkscape:connector-curvature="0"
           id="path5228"
           d="m 46.053833,270.5 -7.541092,7.40651 H 24.196583 L 19.067618,270.5"
           style="color:#000000;clip-rule:nonzero;display:inline;overflow:visible;visibility:visible;opacity:1;isolation:auto;mix-blend-mode:normal;color-interpolation:sRGB;color-interpolation-filters:linearRGB;solid-color:#000000;solid-opacity:1;fill:none;fill-opacity:1;fill-rule:nonzero;stroke:#000000;stroke-width:0.26458332;stroke-linecap:round;stroke-linejoin:round;stroke-miterlimit:4;stroke-dasharray:none;stroke-dashoffset:0;stroke-opacity:1;color-rendering:auto;image-rendering:auto;shape-rendering:auto;text-rendering:auto;enable-background:accumulate" />
      </g>
      <circle
         r="0.75"
         cy="270.5"
         cx="32.560726"
         style="fill:#000000;stroke:none"
         id="path5234" />
      <path
         style="color:#000000;clip-rule:nonzero;display:inline;overflow:visible;visibility:visible;opacity:1;isolation:auto;mix-blend-mode:normal;color-interpolation:sRGB;color-interpolation-filters:linearRGB;solid-color:#000000;solid-opacity:1;fill:#000000;fill-opacity:1;fill-rule:nonzero;stroke:#000000;stroke-width:0.26458332;stroke-linecap:round;stroke-linejoin:round;stroke-miterlimit:4;stroke-dasharray:none;stroke-dashoffset:0;stroke-opacity:1;marker-end:url(#marker6618);color-rendering:auto;image-rendering:auto;shape-rendering:auto;text-rendering:auto;enable-background:accumulate"
         d="M 32.595677,270.44053 21.694469,256.80984"
         id="path6614"
         inkscape:connector-curvature="0"
         sodipodi:nodetypes="cc" />
      <path
         id="path9917"
         d="m 16.666832,282.32784 c -0.07937,-0.15875 -0.198438,-0.2712 -0.390261,-0.2712 -0.489478,0 -1.01203,0.62177 -1.01203,1.23693 0,0.39687 0.23151,0.67468 0.555625,0.67468 0.08599,0 0.297656,-0.0198 0.54901,-0.3175 0.03307,0.1786 0.185208,0.3175 0.383645,0.3175 0.152135,0 0.244739,-0.0992 0.3175,-0.23151 0.06615,-0.15213 0.125677,-0.4101 0.125677,-0.41672 0,-0.0463 -0.03969,-0.0463 -0.05292,-0.0463 -0.03969,0 -0.0463,0.0198 -0.05953,0.0794 -0.07276,0.27119 -0.145521,0.52255 -0.3175,0.52255 -0.119062,0 -0.125677,-0.11245 -0.125677,-0.19182 0,-0.0926 0.0066,-0.1323 0.05292,-0.3175 0.0463,-0.17198 0.05292,-0.21829 0.0926,-0.37704 l 0.152135,-0.58869 c 0.02646,-0.11907 0.02646,-0.12568 0.02646,-0.14552 0,-0.0728 -0.0463,-0.11245 -0.119063,-0.11245 -0.105833,0 -0.165364,0.0926 -0.178593,0.18521 z m -0.271198,1.0914 c -0.02646,0.0794 -0.02646,0.086 -0.08599,0.15875 -0.185208,0.23151 -0.357187,0.29766 -0.476249,0.29766 -0.211667,0 -0.271198,-0.23151 -0.271198,-0.39688 0,-0.21166 0.132292,-0.7276 0.23151,-0.92604 0.132292,-0.24474 0.3175,-0.40349 0.489479,-0.40349 0.271198,0 0.330729,0.34396 0.330729,0.37042 0,0.0265 -0.0066,0.0529 -0.01323,0.0728 z m 0,0"
         style="fill:#000000;fill-opacity:1;stroke:none;stroke-width:0"
         inkscape:connector-curvature="0" />
      <path
         id="path9919"
         d="m 55.149465,268.81552 c 0,0 0,-0.0463 -0.05292,-0.0463 -0.0926,0 -0.403489,0.0331 -0.515937,0.0463 -0.03307,0 -0.07938,0.007 -0.07938,0.0794 0,0.0529 0.03969,0.0529 0.105833,0.0529 0.198438,0 0.205052,0.0264 0.205052,0.0728 0,0.0265 -0.03307,0.17197 -0.05292,0.25796 l -0.350573,1.37584 c -0.0463,0.21166 -0.06615,0.28442 -0.06615,0.42994 0,0.39688 0.224896,0.66146 0.535781,0.66146 0.496094,0 1.018645,-0.62838 1.018645,-1.23692 0,-0.38365 -0.224895,-0.67469 -0.562239,-0.67469 -0.191823,0 -0.370416,0.12568 -0.496093,0.25135 z m -0.39026,1.59412 c 0.01984,-0.0926 0.01984,-0.0992 0.05953,-0.14552 0.205052,-0.2712 0.396875,-0.33735 0.509322,-0.33735 0.152136,0 0.264584,0.12568 0.264584,0.39688 0,0.25135 -0.138907,0.73422 -0.218281,0.89297 -0.138907,0.28442 -0.330729,0.43656 -0.496094,0.43656 -0.145521,0 -0.284427,-0.11245 -0.284427,-0.42334 0,-0.086 0,-0.16536 0.06615,-0.42994 z m 0,0"
         style="fill:#000000;fill-opacity:1;stroke:none;stroke-width:0"
         inkscape:connector-curvature="0" />
      <path
         id="path9921"
         d="m 21.632394,254.33576 c -0.07276,0 -0.125677,0 -0.185208,0.0529 -0.07276,0.0661 -0.07937,0.1389 -0.07937,0.16536 0,0.10584 0.07937,0.15214 0.15875,0.15214 0.119062,0 0.23151,-0.10583 0.23151,-0.2712 0,-0.20505 -0.198437,-0.3638 -0.496093,-0.3638 -0.568854,0 -1.131093,0.60193 -1.131093,1.19724 0,0.38364 0.244739,0.71437 0.687916,0.71437 0.601927,0 0.952499,-0.44979 0.952499,-0.49609 0,-0.0265 -0.01984,-0.0595 -0.0463,-0.0595 -0.02646,0 -0.03307,0.0132 -0.05953,0.0463 -0.330729,0.41672 -0.793749,0.41672 -0.840051,0.41672 -0.264583,0 -0.383646,-0.20505 -0.383646,-0.46302 0,-0.17198 0.08599,-0.58209 0.23151,-0.84005 0.132292,-0.24474 0.363802,-0.42334 0.595312,-0.42334 0.138907,0 0.304271,0.0529 0.363802,0.17198 z m 0,0"
         style="fill:#000000;fill-opacity:1;stroke:none;stroke-width:0"
         inkscape:connector-curvature="0" />
      <path
         id="path9937"
         d="m 43.873863,284.19315 c 0,-0.0132 0,-0.0198 -0.07276,-0.0926 -0.522552,-0.52917 -0.661458,-1.32953 -0.661458,-1.97776 0,-0.73422 0.15875,-1.46844 0.681301,-1.99099 0.05292,-0.0529 0.05292,-0.0595 0.05292,-0.0728 0,-0.0331 -0.01323,-0.0463 -0.03969,-0.0463 -0.0463,0 -0.423333,0.29104 -0.674687,0.82682 -0.211667,0.46302 -0.264584,0.93265 -0.264584,1.28323 0,0.33073 0.0463,0.84005 0.277813,1.32291 0.257968,0.51594 0.615155,0.79375 0.661458,0.79375 0.02646,0 0.03969,-0.0132 0.03969,-0.0463 z m 0,0"
         style="fill:#000000;fill-opacity:1;stroke:none;stroke-width:0"
         inkscape:connector-curvature="0" />
      <path
         id="path9939"
         d="m 45.361911,280.48237 c 0,-0.10583 0,-0.11245 -0.09922,-0.11245 -0.264583,0.2712 -0.634999,0.2712 -0.767291,0.2712 v 0.13229 c 0.08599,0 0.330729,0 0.54901,-0.11244 v 2.18942 c 0,0.15214 -0.01323,0.19844 -0.39026,0.19844 h -0.132292 v 0.13229 c 0.145521,-0.0132 0.509323,-0.0132 0.681302,-0.0132 0.165364,0 0.535781,0 0.681301,0.0132 v -0.13229 H 45.75217 c -0.383646,0 -0.39026,-0.0463 -0.39026,-0.19844 z m 0,0"
         style="fill:#000000;fill-opacity:1;stroke:none;stroke-width:0"
         inkscape:connector-curvature="0" />
      <path
         id="path9941"
         d="m 47.470659,280.48237 c 0,-0.10583 0,-0.11245 -0.09922,-0.11245 -0.264583,0.2712 -0.634999,0.2712 -0.767291,0.2712 v 0.13229 c 0.08599,0 0.330729,0 0.54901,-0.11244 v 2.18942 c 0,0.15214 -0.01323,0.19844 -0.39026,0.19844 h -0.132292 v 0.13229 c 0.145521,-0.0132 0.509323,-0.0132 0.681302,-0.0132 0.165364,0 0.535781,0 0.681301,0.0132 v -0.13229 h -0.132291 c -0.383646,0 -0.39026,-0.0463 -0.39026,-0.19844 z m 0,0"
         style="fill:#000000;fill-opacity:1;stroke:none;stroke-width:0"
         inkscape:connector-curvature="0" />
      <g
         transform="matrix(0.423333,0,0,0.423333,-38.056306,226.13065)"
         style="fill:#000000;fill-opacity:1"
         id="g9947">
        <path
           inkscape:connector-curvature="0"
           style="stroke:none;stroke-width:0"
           d="M 4.28125,-5.578125 V -5.875 H 0.6875 v 0.296875 z m 0,0"
           transform="translate(204.077,132.634)"
           id="path9945" />
      </g>
      <path
         id="path9949"
         d="m 48.872004,282.85701 0.449791,-0.43657 c 0.654843,-0.58208 0.906197,-0.80698 0.906197,-1.23031 0,-0.48286 -0.377031,-0.82021 -0.892968,-0.82021 -0.476249,0 -0.787134,0.39026 -0.787134,0.7673 0,0.23151 0.211666,0.23151 0.224895,0.23151 0.07276,0 0.218281,-0.0463 0.218281,-0.2249 0,-0.10583 -0.07938,-0.21828 -0.224895,-0.21828 -0.03307,0 -0.03969,0 -0.05292,0.007 0.0926,-0.27781 0.324114,-0.42994 0.568854,-0.42994 0.383645,0 0.562239,0.34395 0.562239,0.68791 0,0.33735 -0.205052,0.66807 -0.443177,0.93266 l -0.806978,0.89958 c -0.0463,0.0463 -0.0463,0.0595 -0.0463,0.15875 h 1.567655 l 0.112447,-0.73422 h -0.09922 c -0.02646,0.12568 -0.05292,0.31089 -0.09922,0.37703 -0.02646,0.0331 -0.304271,0.0331 -0.396875,0.0331 z m 0,0"
         style="fill:#000000;fill-opacity:1;stroke:none;stroke-width:0"
         inkscape:connector-curvature="0" />
      <path
         id="path9951"
         d="m 52.383042,281.83175 c 0,-0.33735 -0.01984,-0.67469 -0.165364,-0.98558 -0.191823,-0.4101 -0.542395,-0.47625 -0.714374,-0.47625 -0.257969,0 -0.56224,0.11245 -0.740833,0.50271 -0.132292,0.29104 -0.152136,0.62177 -0.152136,0.95912 0,0.3175 0.01323,0.69453 0.191823,1.01864 0.178594,0.33734 0.489479,0.42333 0.694531,0.42333 0.224896,0 0.54901,-0.086 0.734218,-0.48947 0.132292,-0.29105 0.152135,-0.62178 0.152135,-0.9525 z m -0.886353,1.34937 c -0.165365,0 -0.416718,-0.10583 -0.489479,-0.50932 -0.0463,-0.25136 -0.0463,-0.64162 -0.0463,-0.89297 0,-0.2712 0,-0.54901 0.03307,-0.77391 0.07938,-0.5027 0.396875,-0.54239 0.502708,-0.54239 0.138906,0 0.416718,0.0794 0.496093,0.49609 0.0463,0.23813 0.0463,0.55563 0.0463,0.82021 0,0.3175 0,0.60193 -0.0463,0.87312 -0.06614,0.40349 -0.30427,0.52917 -0.496093,0.52917 z m 0,0"
         style="fill:#000000;fill-opacity:1;stroke:none;stroke-width:0"
         inkscape:connector-curvature="0" />
      <path
         id="path9953"
         d="m 53.770802,282.12279 c 0,-0.32412 -0.0463,-0.83344 -0.277812,-1.3163 -0.251354,-0.51594 -0.615156,-0.79375 -0.654843,-0.79375 -0.02646,0 -0.0463,0.0198 -0.0463,0.0463 0,0.0132 0,0.0198 0.07937,0.0992 0.416718,0.41672 0.654843,1.08479 0.654843,1.96453 0,0.7276 -0.152135,1.46843 -0.674687,1.9976 -0.05953,0.0529 -0.05953,0.0595 -0.05953,0.0728 0,0.0265 0.01984,0.0463 0.0463,0.0463 0.03969,0 0.423333,-0.29104 0.668072,-0.82682 0.218281,-0.46302 0.264583,-0.93266 0.264583,-1.28984 z m 0,0"
         style="fill:#000000;fill-opacity:1;stroke:none;stroke-width:0"
         inkscape:connector-curvature="0" />
      <text
         id="text11139"
         y="282.68353"
         x="54.503742"
         style="font-style:normal;font-variant:normal;font-weight:normal;font-stretch:normal;font-size:4.23333311px;line-height:125%;font-family:LMRoman12;-inkscape-font-specification:'LMRoman12, Normal';font-variant-ligatures:normal;font-variant-caps:normal;font-variant-numeric:normal;font-feature-settings:normal;text-align:start;letter-spacing:0px;word-spacing:0px;writing-mode:lr-tb;text-anchor:start;fill:#000000;fill-opacity:1;stroke:none;stroke-width:0.26458332px;stroke-linecap:butt;stroke-linejoin:miter;stroke-opacity:1"
         xml:space="preserve"><tspan
           style="stroke-width:0.26458332px"
           y="282.68353"
           x="54.503742"
           id="tspan11137"
           sodipodi:role="line">plane</tspan></text>
    </g>
  </g>
</svg>
