<?xml version="1.0" encoding="UTF-8" standalone="no"?>
<!-- Created with Inkscape (http://www.inkscape.org/) -->

<svg
   xmlns:ns0="http://www.iki.fi/pav/software/textext/"
   xmlns:dc="http://purl.org/dc/elements/1.1/"
   xmlns:cc="http://creativecommons.org/ns#"
   xmlns:rdf="http://www.w3.org/1999/02/22-rdf-syntax-ns#"
   xmlns:svg="http://www.w3.org/2000/svg"
   xmlns="http://www.w3.org/2000/svg"
   xmlns:xlink="http://www.w3.org/1999/xlink"
   xmlns:sodipodi="http://sodipodi.sourceforge.net/DTD/sodipodi-0.dtd"
   xmlns:inkscape="http://www.inkscape.org/namespaces/inkscape"
   width="744.09448819"
   height="1052.3622047"
   id="svg2"
   version="1.1"
   inkscape:version="0.48.4 r9939"
   sodipodi:docname="New document 1">
  <sodipodi:namedview
     id="base"
     pagecolor="#ffffff"
     bordercolor="#666666"
     borderopacity="1.0"
     inkscape:pageopacity="0.0"
     inkscape:pageshadow="2"
     inkscape:zoom="1.979899"
     inkscape:cx="455.32414"
     inkscape:cy="853.49047"
     inkscape:document-units="px"
     inkscape:current-layer="textext-ed43645a-13"
     showgrid="false"
     inkscape:window-width="1366"
     inkscape:window-height="744"
     inkscape:window-x="0"
     inkscape:window-y="24"
     inkscape:window-maximized="1" />
  <defs
     id="defs4" />
  <metadata
     id="metadata7">
    <rdf:RDF>
      <cc:Work
         rdf:about="">
        <dc:format>image/svg+xml</dc:format>
        <dc:type
           rdf:resource="http://purl.org/dc/dcmitype/StillImage" />
        <dc:title></dc:title>
      </cc:Work>
    </rdf:RDF>
  </metadata>
  <g
     id="layer1"
     inkscape:groupmode="layer"
     inkscape:label="Layer 1">
    <g
       id="g2990"
       ns0:preamble="/home/sriranga/Desktop/Typesetting-Projects/TIFR/Physics/New-book/images/package.tex"
       ns0:text="$$\nAB =\n\\left(\n\\begin{array}{ccc}\n1 &amp; 2 &amp; 3\\\\\n2 &amp; 1 &amp; 3\n\\end{array}\n\\right)\n\\left(\n\\begin{array}{ccc}\n1 &amp; 2 &amp; 3\\\\\n1 &amp; 3 &amp; 2\n\\end{array}\n\\right)\n=\n=\n\\left(\n\\begin{array}{ccc}\n1 &amp; 2 &amp; 3\\\\\n3 &amp; 1 &amp; 2\n\\end{array}\n\\right)\n= D\n$$"
       transform="scale(0.900000,0.900000)">
      <defs
         id="defs2992">
        <g
           id="g2994">
          <symbol
             id="textext-ed43645a-0"
             overflow="visible">
            <path
               id="path2997"
               d=""
               style="stroke:none;" />
          </symbol>
          <symbol
             id="textext-ed43645a-1"
             overflow="visible">
            <path
               id="path3000"
               d="M 5.625 -0.15625 C 5.046875 -0.203125 5 -0.296875 4.859375 -1.015625 L 3.921875 -6.65625 L 3.671875 -6.65625 L 0.78125 -1.671875 C -0.015625 -0.34375 -0.109375 -0.234375 -0.515625 -0.15625 L -0.515625 0 L 1.359375 0 L 1.359375 -0.15625 C 0.84375 -0.203125 0.765625 -0.265625 0.765625 -0.515625 C 0.765625 -0.703125 0.796875 -0.78125 0.96875 -1.125 L 1.53125 -2.25 L 3.734375 -2.25 L 3.921875 -0.953125 C 3.9375 -0.859375 3.953125 -0.765625 3.953125 -0.6875 C 3.953125 -0.3125 3.8125 -0.21875 3.171875 -0.15625 L 3.171875 0 L 5.625 0 Z M 1.75 -2.609375 L 3.234375 -5.203125 L 3.671875 -2.609375 Z M 1.75 -2.609375 "
               style="stroke:none;" />
          </symbol>
          <symbol
             id="textext-ed43645a-2"
             overflow="visible">
            <path
               id="path3003"
               d="M -0.078125 0 L 2.734375 0 C 4.296875 0 5.375 -0.8125 5.375 -2 C 5.375 -2.359375 5.25 -2.71875 5.03125 -2.9375 C 4.828125 -3.15625 4.640625 -3.28125 4.109375 -3.5 C 4.828125 -3.671875 5.109375 -3.78125 5.4375 -4.0625 C 5.71875 -4.3125 5.859375 -4.640625 5.859375 -5.046875 C 5.859375 -5.984375 5.15625 -6.515625 3.875 -6.515625 L 1.296875 -6.515625 L 1.296875 -6.34375 C 1.90625 -6.296875 2.0625 -6.21875 2.0625 -5.9375 C 2.0625 -5.796875 2.03125 -5.546875 1.953125 -5.296875 L 0.734375 -0.890625 C 0.546875 -0.3125 0.484375 -0.265625 -0.078125 -0.15625 Z M 2.375 -3.296875 C 3.015625 -3.296875 3.4375 -3.265625 3.640625 -3.1875 C 4.046875 -3.015625 4.296875 -2.578125 4.296875 -2.03125 C 4.296875 -0.953125 3.5625 -0.296875 2.34375 -0.296875 C 1.921875 -0.296875 1.703125 -0.453125 1.703125 -0.71875 C 1.703125 -0.84375 1.828125 -1.3125 2.046875 -2.109375 C 2.1875 -2.5625 2.25 -2.796875 2.375 -3.296875 Z M 3.125 -5.9375 C 3.1875 -6.15625 3.296875 -6.203125 3.6875 -6.203125 C 4.484375 -6.203125 4.859375 -5.875 4.859375 -5.140625 C 4.859375 -4.5625 4.609375 -4.125 4.1875 -3.890625 C 3.84375 -3.6875 3.375 -3.625 2.46875 -3.625 Z M 3.125 -5.9375 "
               style="stroke:none;" />
          </symbol>
          <symbol
             id="textext-ed43645a-3"
             overflow="visible">
            <path
               id="path3006"
               d="M 1.296875 -6.34375 C 1.90625 -6.296875 2.0625 -6.203125 2.0625 -5.9375 C 2.0625 -5.796875 2.03125 -5.546875 1.953125 -5.296875 L 0.734375 -0.890625 C 0.546875 -0.3125 0.484375 -0.265625 -0.078125 -0.15625 L -0.078125 0 L 2.4375 0 C 3.609375 0 4.671875 -0.3125 5.4375 -0.875 C 6.40625 -1.578125 6.984375 -2.671875 6.984375 -3.828125 C 6.984375 -5.46875 5.84375 -6.515625 4.0625 -6.515625 L 1.296875 -6.515625 Z M 3.125 -5.921875 C 3.1875 -6.140625 3.328125 -6.203125 3.734375 -6.203125 C 4.296875 -6.203125 4.796875 -6.078125 5.109375 -5.84375 C 5.609375 -5.484375 5.875 -4.859375 5.875 -4.0625 C 5.875 -2.984375 5.453125 -1.875 4.78125 -1.203125 C 4.1875 -0.59375 3.375 -0.296875 2.34375 -0.296875 C 1.890625 -0.296875 1.6875 -0.40625 1.6875 -0.671875 C 1.6875 -0.796875 1.75 -1.015625 1.90625 -1.609375 Z M 3.125 -5.921875 "
               style="stroke:none;" />
          </symbol>
          <symbol
             id="textext-ed43645a-4"
             overflow="visible">
            <path
               id="path3009"
               d=""
               style="stroke:none;" />
          </symbol>
          <symbol
             id="textext-ed43645a-5"
             overflow="visible">
            <path
               id="path3012"
               d="M 5.71875 -3.296875 L 5.71875 -3.84375 L 0.625 -3.84375 L 0.625 -3.296875 Z M 5.71875 -1.265625 L 5.71875 -1.828125 L 0.625 -1.828125 L 0.625 -1.265625 Z M 5.71875 -1.265625 "
               style="stroke:none;" />
          </symbol>
          <symbol
             id="textext-ed43645a-6"
             overflow="visible">
            <path
               id="path3015"
               d=""
               style="stroke:none;" />
          </symbol>
          <symbol
             id="textext-ed43645a-7"
             overflow="visible">
            <path
               id="path3018"
               d="M 3.515625 23.09375 C 1.9375 20.25 1.5 16.125 1.5 11.53125 C 1.5 6.921875 1.9375 2.796875 3.515625 -0.046875 L 3.375 -0.5625 C 2.828125 0.421875 0.5 3.265625 0.5 11.53125 C 0.5 19.78125 2.828125 22.625 3.375 23.609375 Z M 3.515625 23.09375 "
               style="stroke:none;" />
          </symbol>
          <symbol
             id="textext-ed43645a-8"
             overflow="visible">
            <path
               id="path3021"
               d="M 3.3125 11.53125 C 3.3125 3.265625 0.984375 0.421875 0.4375 -0.5625 L 0.296875 -0.046875 C 1.875 2.796875 2.296875 6.921875 2.296875 11.53125 C 2.296875 16.125 1.875 20.25 0.296875 23.09375 L 0.4375 23.609375 C 0.984375 22.625 3.3125 19.78125 3.3125 11.53125 Z M 3.3125 11.53125 "
               style="stroke:none;" />
          </symbol>
          <symbol
             id="textext-ed43645a-9"
             overflow="visible">
            <path
               id="path3024"
               d=""
               style="stroke:none;" />
          </symbol>
          <symbol
             id="textext-ed43645a-10"
             overflow="visible">
            <path
               id="path3027"
               d="M 2.90625 -6.734375 L 1.109375 -5.828125 L 1.109375 -5.6875 C 1.21875 -5.734375 1.328125 -5.78125 1.375 -5.796875 C 1.5625 -5.875 1.71875 -5.90625 1.828125 -5.90625 C 2.03125 -5.90625 2.125 -5.765625 2.125 -5.4375 L 2.125 -0.921875 C 2.125 -0.59375 2.046875 -0.375 1.890625 -0.28125 C 1.734375 -0.1875 1.59375 -0.15625 1.171875 -0.15625 L 1.171875 0 L 3.921875 0 L 3.921875 -0.15625 C 3.140625 -0.15625 2.984375 -0.265625 2.984375 -0.734375 L 2.984375 -6.71875 Z M 2.90625 -6.734375 "
               style="stroke:none;" />
          </symbol>
          <symbol
             id="textext-ed43645a-11"
             overflow="visible">
            <path
               id="path3030"
               d="M 4.734375 -1.359375 L 4.609375 -1.421875 C 4.234375 -0.84375 4.109375 -0.75 3.65625 -0.75 L 1.28125 -0.75 L 2.953125 -2.515625 C 3.84375 -3.4375 4.234375 -4.203125 4.234375 -4.96875 C 4.234375 -5.96875 3.421875 -6.734375 2.375 -6.734375 C 1.828125 -6.734375 1.3125 -6.515625 0.953125 -6.125 C 0.625 -5.78125 0.484375 -5.46875 0.3125 -4.75 L 0.515625 -4.703125 C 0.921875 -5.6875 1.28125 -6 1.96875 -6 C 2.796875 -6 3.375 -5.4375 3.375 -4.59375 C 3.375 -3.8125 2.90625 -2.890625 2.078125 -2 L 0.296875 -0.125 L 0.296875 0 L 4.1875 0 Z M 4.734375 -1.359375 "
               style="stroke:none;" />
          </symbol>
          <symbol
             id="textext-ed43645a-12"
             overflow="visible">
            <path
               id="path3033"
               d="M 1.53125 -3.296875 C 2.109375 -3.296875 2.34375 -3.265625 2.578125 -3.1875 C 3.203125 -2.953125 3.59375 -2.390625 3.59375 -1.703125 C 3.59375 -0.875 3.015625 -0.21875 2.28125 -0.21875 C 2.015625 -0.21875 1.8125 -0.296875 1.453125 -0.53125 C 1.140625 -0.703125 0.984375 -0.78125 0.8125 -0.78125 C 0.578125 -0.78125 0.421875 -0.640625 0.421875 -0.421875 C 0.421875 -0.078125 0.859375 0.140625 1.5625 0.140625 C 2.328125 0.140625 3.109375 -0.125 3.578125 -0.53125 C 4.046875 -0.9375 4.3125 -1.515625 4.3125 -2.1875 C 4.3125 -2.6875 4.140625 -3.15625 3.859375 -3.46875 C 3.65625 -3.6875 3.46875 -3.8125 3.03125 -4 C 3.71875 -4.46875 3.96875 -4.828125 3.96875 -5.375 C 3.96875 -6.1875 3.328125 -6.734375 2.40625 -6.734375 C 1.90625 -6.734375 1.46875 -6.5625 1.109375 -6.25 C 0.8125 -5.984375 0.671875 -5.71875 0.453125 -5.125 L 0.59375 -5.078125 C 1 -5.8125 1.453125 -6.140625 2.078125 -6.140625 C 2.734375 -6.140625 3.1875 -5.703125 3.1875 -5.078125 C 3.1875 -4.71875 3.03125 -4.359375 2.78125 -4.109375 C 2.484375 -3.8125 2.203125 -3.65625 1.53125 -3.421875 Z M 1.53125 -3.296875 "
               style="stroke:none;" />
          </symbol>
        </g>
      </defs>
      <g
         id="textext-ed43645a-13">
        <g
           id="g3036"
           style="fill:#000000;fill-opacity:1"
           transform="translate(-33.333331,0)">
          <use
             id="use3038"
             y="139.41701"
             x="285.01001"
             xlink:href="#textext-ed43645a-1"
             width="744.09448"
             height="1052.3622" />
        </g>
        <g
           id="g3040"
           style="fill:#000000;fill-opacity:1"
           transform="translate(-33.333331,0)">
          <use
             id="use3042"
             y="139.41701"
             x="291.44583"
             xlink:href="#textext-ed43645a-2"
             width="744.09448"
             height="1052.3622" />
        </g>
        <g
           id="g3044"
           style="fill:rgb(0%,0%,0%);fill-opacity:1;">
          <use
             id="use3046"
             y="139.417"
             x="300.201"
             xlink:href="#textext-ed43645a-5" />
        </g>
        <g
           id="g3048"
           style="fill:rgb(0%,0%,0%);fill-opacity:1;">
          <use
             id="use3050"
             y="125.36"
             x="309.304"
             xlink:href="#textext-ed43645a-7" />
        </g>
        <g
           id="g3052"
           style="fill:rgb(0%,0%,0%);fill-opacity:1;">
          <use
             id="use3054"
             y="133.27"
             x="318.091"
             xlink:href="#textext-ed43645a-10" />
        </g>
        <g
           id="g3056"
           style="fill:rgb(0%,0%,0%);fill-opacity:1;">
          <use
             id="use3058"
             y="133.27"
             x="333.0349"
             xlink:href="#textext-ed43645a-11" />
        </g>
        <g
           id="g3060"
           style="fill:rgb(0%,0%,0%);fill-opacity:1;">
          <use
             id="use3062"
             y="133.27"
             x="347.9788"
             xlink:href="#textext-ed43645a-12" />
        </g>
        <g
           id="g3064"
           style="fill:rgb(0%,0%,0%);fill-opacity:1;">
          <use
             id="use3066"
             y="145.226"
             x="318.091"
             xlink:href="#textext-ed43645a-11" />
        </g>
        <g
           id="g3068"
           style="fill:rgb(0%,0%,0%);fill-opacity:1;">
          <use
             id="use3070"
             y="145.226"
             x="333.0349"
             xlink:href="#textext-ed43645a-10" />
        </g>
        <g
           id="g3072"
           style="fill:rgb(0%,0%,0%);fill-opacity:1;">
          <use
             id="use3074"
             y="145.226"
             x="347.9788"
             xlink:href="#textext-ed43645a-12" />
          <use
             xlink:href="#textext-ed43645a-12"
             x="347.97879"
             y="145.226"
             id="use3312"
             transform="translate(153.33327,0)"
             width="744.09448"
             height="1052.3622" />
        </g>
        <g
           id="g3076"
           style="fill:rgb(0%,0%,0%);fill-opacity:1;">
          <use
             id="use3078"
             y="125.36"
             x="357.942"
             xlink:href="#textext-ed43645a-8" />
        </g>
        <g
           id="g3080"
           style="fill:rgb(0%,0%,0%);fill-opacity:1;">
          <use
             id="use3082"
             y="125.36"
             x="363.411467"
             xlink:href="#textext-ed43645a-7" />
        </g>
        <g
           id="g3084"
           style="fill:rgb(0%,0%,0%);fill-opacity:1;">
          <use
             id="use3086"
             y="133.27"
             x="372.195"
             xlink:href="#textext-ed43645a-10" />
        </g>
        <g
           id="g3088"
           style="fill:rgb(0%,0%,0%);fill-opacity:1;">
          <use
             id="use3090"
             y="133.27"
             x="387.1389"
             xlink:href="#textext-ed43645a-11" />
        </g>
        <g
           id="g3092"
           style="fill:rgb(0%,0%,0%);fill-opacity:1;">
          <use
             id="use3094"
             y="133.27"
             x="402.0828"
             xlink:href="#textext-ed43645a-12" />
        </g>
        <g
           id="g3096"
           style="fill:rgb(0%,0%,0%);fill-opacity:1;">
          <use
             id="use3098"
             y="145.226"
             x="372.195"
             xlink:href="#textext-ed43645a-10" />
        </g>
        <g
           id="g3100"
           style="fill:rgb(0%,0%,0%);fill-opacity:1;">
          <use
             id="use3102"
             y="145.226"
             x="387.1389"
             xlink:href="#textext-ed43645a-12" />
        </g>
        <g
           id="g3104"
           style="fill:rgb(0%,0%,0%);fill-opacity:1;">
          <use
             id="use3106"
             y="145.226"
             x="402.0828"
             xlink:href="#textext-ed43645a-11" />
        </g>
        <g
           id="g3108"
           style="fill:rgb(0%,0%,0%);fill-opacity:1;">
          <use
             id="use3110"
             y="125.36"
             x="412.045"
             xlink:href="#textext-ed43645a-8" />
        </g>
        <g
           id="g3112"
           style="fill:#000000;fill-opacity:1"
           transform="translate(35.555553,0)">
          <use
             id="use3114"
             y="139.41701"
             x="418.61801"
             xlink:href="#textext-ed43645a-5"
             width="744.09448"
             height="1052.3622" />
          <use
             id="use3116"
             y="139.41701"
             x="424.95422"
             xlink:href="#textext-ed43645a-5"
             width="744.09448"
             height="1052.3622"
             transform="translate(133.33329,0)" />
          <use
             transform="translate(93.333322,0)"
             height="1052.3622"
             width="744.09448"
             xlink:href="#textext-ed43645a-5"
             x="424.95422"
             y="139.41701"
             id="use3336" />
        </g>
        <g
           id="g3118"
           style="fill:#000000;fill-opacity:1"
           transform="translate(97.777769,0)">
          <use
             id="use3120"
             y="125.36"
             x="434.05801"
             xlink:href="#textext-ed43645a-7"
             width="744.09448"
             height="1052.3622"
             transform="translate(73.333327,0)" />
        </g>
        <g
           id="g3122"
           style="fill:#000000;fill-opacity:1"
           transform="translate(171.11103,0)">
          <use
             id="use3124"
             y="133.27"
             x="442.845"
             xlink:href="#textext-ed43645a-10"
             width="744.09448"
             height="1052.3622" />
        </g>
        <g
           id="g3126"
           style="fill:#000000;fill-opacity:1"
           transform="translate(171.11103,0)">
          <use
             id="use3128"
             y="133.27"
             x="457.78891"
             xlink:href="#textext-ed43645a-11"
             width="744.09448"
             height="1052.3622" />
        </g>
        <g
           id="g3130"
           style="fill:#000000;fill-opacity:1"
           transform="translate(171.11103,0)">
          <use
             id="use3132"
             y="133.27"
             x="472.73279"
             xlink:href="#textext-ed43645a-12"
             width="744.09448"
             height="1052.3622" />
        </g>
        <g
           id="g3134"
           style="fill:#000000;fill-opacity:1"
           transform="translate(171.11103,0)">
          <use
             id="use3136"
             y="145.226"
             x="442.845"
             xlink:href="#textext-ed43645a-12"
             width="744.09448"
             height="1052.3622" />
        </g>
        <g
           id="g3138"
           style="fill:#000000;fill-opacity:1"
           transform="translate(171.11103,0)">
          <use
             id="use3140"
             y="145.226"
             x="457.78891"
             xlink:href="#textext-ed43645a-10"
             width="744.09448"
             height="1052.3622" />
        </g>
        <g
           id="g3142"
           style="fill:#000000;fill-opacity:1"
           transform="translate(171.11103,0)">
          <use
             id="use3144"
             y="145.226"
             x="472.73279"
             xlink:href="#textext-ed43645a-11"
             width="744.09448"
             height="1052.3622" />
        </g>
        <g
           id="g3146"
           style="fill:#000000;fill-opacity:1"
           transform="translate(171.11103,0)">
          <use
             id="use3148"
             y="125.36"
             x="482.69601"
             xlink:href="#textext-ed43645a-8"
             width="744.09448"
             height="1052.3622" />
        </g>
        <g
           id="g3150"
           style="fill:#000000;fill-opacity:1"
           transform="translate(171.11103,0)">
          <use
             id="use3152"
             y="139.41701"
             x="489.26901"
             xlink:href="#textext-ed43645a-5"
             width="744.09448"
             height="1052.3622" />
        </g>
        <path
           style="fill:none;stroke:#000000;stroke-width:1.11111116px;stroke-linecap:butt;stroke-linejoin:miter;stroke-opacity:1"
           d="m 282.64486,128.43824 -7.85324,13.66571 16.47412,0 z"
           id="path3252"
           inkscape:connector-curvature="0" />
        <text
           xml:space="preserve"
           style="font-size:13.33333302px;font-style:normal;font-variant:normal;font-weight:normal;font-stretch:normal;text-align:start;line-height:125%;letter-spacing:0px;word-spacing:0px;text-anchor:start;fill:#000000;fill-opacity:1;stroke:none;font-family:Nimbus Roman No9 L;-inkscape-font-specification:Sans"
           x="267.40982"
           y="151.56262"
           id="text3256"
           sodipodi:linespacing="125%"><tspan
             sodipodi:role="line"
             id="tspan3258"
             x="267.40982"
             y="151.56262">2</tspan></text>
        <text
           xml:space="preserve"
           style="font-size:13.33333302px;font-style:normal;font-variant:normal;font-weight:normal;font-stretch:normal;text-align:start;line-height:125%;letter-spacing:0px;word-spacing:0px;text-anchor:start;fill:#000000;fill-opacity:1;stroke:none;font-family:Nimbus Roman No9 L;-inkscape-font-specification:Sans"
           x="280.03671"
           y="125.74761"
           id="text3260"
           sodipodi:linespacing="125%"><tspan
             sodipodi:role="line"
             id="tspan3262"
             x="280.03671"
             y="125.74761">3</tspan></text>
        <text
           xml:space="preserve"
           style="font-size:13.33333302px;font-style:normal;font-variant:normal;font-weight:normal;font-stretch:normal;text-align:start;line-height:125%;letter-spacing:0px;word-spacing:0px;text-anchor:start;fill:#000000;fill-opacity:1;stroke:none;font-family:Nimbus Roman No9 L;-inkscape-font-specification:Sans"
           x="291.54126"
           y="148.47604"
           id="text3264"
           sodipodi:linespacing="125%"><tspan
             sodipodi:role="line"
             id="tspan3266"
             x="291.54126"
             y="148.47604">1</tspan></text>
        <path
           style="fill:none;stroke:#000000;stroke-width:1px;stroke-linecap:butt;stroke-linejoin:miter;stroke-opacity:1"
           d="m 244.70945,115.69823 17.1726,16.66752"
           id="path3270"
           inkscape:connector-curvature="0"
           transform="scale(1.1111111,1.1111111)" />
        <path
           inkscape:connector-curvature="0"
           id="path3272"
           d="m 433.75582,128.43824 -7.85324,13.66571 16.47412,0 z"
           style="fill:none;stroke:#000000;stroke-width:1.11111116px;stroke-linecap:butt;stroke-linejoin:miter;stroke-opacity:1" />
        <text
           sodipodi:linespacing="125%"
           id="text3274"
           y="146.55698"
           x="418.24078"
           style="font-size:13.33333302px;font-style:normal;font-variant:normal;font-weight:normal;font-stretch:normal;text-align:start;line-height:125%;letter-spacing:0px;word-spacing:0px;text-anchor:start;fill:#000000;fill-opacity:1;stroke:none;font-family:Nimbus Roman No9 L;-inkscape-font-specification:Sans"
           xml:space="preserve"><tspan
             y="146.55698"
             x="418.24078"
             id="tspan3276"
             sodipodi:role="line">2</tspan></text>
        <text
           sodipodi:linespacing="125%"
           id="text3278"
           y="125.74761"
           x="431.14828"
           style="font-size:13.33333302px;font-style:normal;font-variant:normal;font-weight:normal;font-stretch:normal;text-align:start;line-height:125%;letter-spacing:0px;word-spacing:0px;text-anchor:start;fill:#000000;fill-opacity:1;stroke:none;font-family:Nimbus Roman No9 L;-inkscape-font-specification:Sans"
           xml:space="preserve"><tspan
             y="125.74761"
             x="431.14828"
             id="tspan3280"
             sodipodi:role="line">3</tspan></text>
        <text
           sodipodi:linespacing="125%"
           id="text3282"
           y="146.79248"
           x="442.65283"
           style="font-size:13.33333302px;font-style:normal;font-variant:normal;font-weight:normal;font-stretch:normal;text-align:start;line-height:125%;letter-spacing:0px;word-spacing:0px;text-anchor:start;fill:#000000;fill-opacity:1;stroke:none;font-family:Nimbus Roman No9 L;-inkscape-font-specification:Sans"
           xml:space="preserve"><tspan
             y="146.79248"
             x="442.65283"
             id="tspan3284"
             sodipodi:role="line">1</tspan></text>
        <g
           style="fill:#000000;fill-opacity:1"
           id="g3288"
           transform="translate(153.33327,0)">
          <use
             xlink:href="#textext-ed43645a-7"
             x="309.30399"
             y="125.36"
             id="use3290"
             width="744.09448"
             height="1052.3622" />
        </g>
        <g
           style="fill:#000000;fill-opacity:1"
           id="g3292"
           transform="translate(153.33327,0)">
          <use
             xlink:href="#textext-ed43645a-10"
             x="318.091"
             y="133.27"
             id="use3294"
             width="744.09448"
             height="1052.3622" />
        </g>
        <g
           style="fill:#000000;fill-opacity:1"
           id="g3296"
           transform="translate(153.33327,0)">
          <use
             xlink:href="#textext-ed43645a-11"
             x="333.03491"
             y="133.27"
             id="use3298"
             width="744.09448"
             height="1052.3622" />
        </g>
        <g
           style="fill:#000000;fill-opacity:1"
           id="g3300"
           transform="translate(153.33327,0)">
          <use
             xlink:href="#textext-ed43645a-12"
             x="347.97879"
             y="133.27"
             id="use3302"
             width="744.09448"
             height="1052.3622" />
        </g>
        <g
           style="fill:#000000;fill-opacity:1"
           id="g3304"
           transform="translate(153.33327,0)">
          <use
             xlink:href="#textext-ed43645a-11"
             x="318.091"
             y="145.226"
             id="use3306"
             width="744.09448"
             height="1052.3622" />
        </g>
        <g
           style="fill:#000000;fill-opacity:1"
           id="g3308"
           transform="translate(153.33327,0)">
          <use
             xlink:href="#textext-ed43645a-10"
             x="333.03491"
             y="145.226"
             id="use3310"
             width="744.09448"
             height="1052.3622" />
        </g>
        <g
           style="fill:#000000;fill-opacity:1"
           id="g3314"
           transform="translate(153.33327,0)">
          <use
             xlink:href="#textext-ed43645a-8"
             x="357.94199"
             y="125.36"
             id="use3316"
             width="744.09448"
             height="1052.3622" />
        </g>
        <path
           style="fill:none;stroke:#000000;stroke-width:1.11111116px;stroke-linecap:butt;stroke-linejoin:miter;stroke-opacity:1"
           d="m 535.97794,128.43824 -7.85324,13.66571 16.47412,0 z"
           id="path3318"
           inkscape:connector-curvature="0" />
        <text
           xml:space="preserve"
           style="font-size:13.33333302px;font-style:normal;font-variant:normal;font-weight:normal;font-stretch:normal;text-align:start;line-height:125%;letter-spacing:0px;word-spacing:0px;text-anchor:start;fill:#000000;fill-opacity:1;stroke:none;font-family:Nimbus Roman No9 L;-inkscape-font-specification:Sans"
           x="533.2439"
           y="126.56262"
           id="text3320"
           sodipodi:linespacing="125%"><tspan
             sodipodi:role="line"
             id="tspan3322"
             x="533.2439"
             y="126.56262">2</tspan></text>
        <text
           xml:space="preserve"
           style="font-size:13.33333302px;font-style:normal;font-variant:normal;font-weight:normal;font-stretch:normal;text-align:start;line-height:125%;letter-spacing:0px;word-spacing:0px;text-anchor:start;fill:#000000;fill-opacity:1;stroke:none;font-family:Nimbus Roman No9 L;-inkscape-font-specification:Sans"
           x="519.57251"
           y="146.61499"
           id="text3324"
           sodipodi:linespacing="125%"><tspan
             sodipodi:role="line"
             id="tspan3326"
             x="519.57251"
             y="146.61499">3</tspan></text>
        <text
           xml:space="preserve"
           style="font-size:13.33333302px;font-style:normal;font-variant:normal;font-weight:normal;font-stretch:normal;text-align:start;line-height:125%;letter-spacing:0px;word-spacing:0px;text-anchor:start;fill:#000000;fill-opacity:1;stroke:none;font-family:Nimbus Roman No9 L;-inkscape-font-specification:Sans"
           x="545.99774"
           y="146.51186"
           id="text3328"
           sodipodi:linespacing="125%"><tspan
             sodipodi:role="line"
             id="tspan3330"
             x="545.99774"
             y="146.51186">1</tspan></text>
        <path
           style="fill:none;stroke:#000000;stroke-width:1px;stroke-linecap:butt;stroke-linejoin:miter;stroke-opacity:1"
           d="M 477.29708,126.30484 493.9646,115.95077"
           id="path3332"
           inkscape:connector-curvature="0"
           transform="scale(1.1111111,1.1111111)" />
        <path
           style="fill:none;stroke:#000000;stroke-width:1px;stroke-linecap:butt;stroke-linejoin:miter;stroke-opacity:1"
           d="m 482.60038,118.22362 -1.51523,18.68782"
           id="path3334"
           inkscape:connector-curvature="0"
           transform="scale(1.1111111,1.1111111)" />
        <path
           style="fill:none;stroke:#000000;stroke-width:1.11111116px;stroke-linecap:butt;stroke-linejoin:miter;stroke-opacity:1"
           d="m 577.9421,128.43824 -7.85324,13.66571 16.47412,0 z"
           id="path3338"
           inkscape:connector-curvature="0" />
        <text
           xml:space="preserve"
           style="font-size:13.33333302px;font-style:normal;font-variant:normal;font-weight:normal;font-stretch:normal;text-align:start;line-height:125%;letter-spacing:0px;word-spacing:0px;text-anchor:start;fill:#000000;fill-opacity:1;stroke:none;font-family:Nimbus Roman No9 L;-inkscape-font-specification:Sans"
           x="574.49316"
           y="126.07333"
           id="text3340"
           sodipodi:linespacing="125%"><tspan
             sodipodi:role="line"
             id="tspan3342"
             x="574.49316"
             y="126.07333">2</tspan></text>
        <text
           xml:space="preserve"
           style="font-size:13.33333302px;font-style:normal;font-variant:normal;font-weight:normal;font-stretch:normal;text-align:start;line-height:125%;letter-spacing:0px;word-spacing:0px;text-anchor:start;fill:#000000;fill-opacity:1;stroke:none;font-family:Nimbus Roman No9 L;-inkscape-font-specification:Sans"
           x="588.24249"
           y="146.79247"
           id="text3344"
           sodipodi:linespacing="125%"><tspan
             sodipodi:role="line"
             id="tspan3346"
             x="588.24249"
             y="146.79247">3</tspan></text>
        <text
           xml:space="preserve"
           style="font-size:13.33333302px;font-style:normal;font-variant:normal;font-weight:normal;font-stretch:normal;text-align:start;line-height:125%;letter-spacing:0px;word-spacing:0px;text-anchor:start;fill:#000000;fill-opacity:1;stroke:none;font-family:Nimbus Roman No9 L;-inkscape-font-specification:Sans"
           x="562.98871"
           y="146.51189"
           id="text3348"
           sodipodi:linespacing="125%"><tspan
             sodipodi:role="line"
             id="tspan3350"
             x="562.98871"
             y="146.51189">1</tspan></text>
        <g
           transform="translate(211.11099,0)"
           style="fill:#000000;fill-opacity:1"
           id="g3352">
          <use
             height="1052.3622"
             width="744.09448"
             xlink:href="#textext-ed43645a-5"
             x="489.26901"
             y="139.41701"
             id="use3354" />
        </g>
        <g
           transform="translate(211.11099,0)"
           style="fill:#000000;fill-opacity:1"
           id="g3356">
          <use
             height="1052.3622"
             width="744.09448"
             xlink:href="#textext-ed43645a-3"
             x="498.62201"
             y="139.41701"
             id="use3358" />
        </g>
        <path
           style="fill:none;stroke:#000000;stroke-width:1.11111116px;stroke-linecap:butt;stroke-linejoin:miter;stroke-opacity:1"
           d="m 682.64446,130.66046 -7.85324,13.66571 16.47412,0 z"
           id="path3360"
           inkscape:connector-curvature="0" />
        <text
           xml:space="preserve"
           style="font-size:13.33333302px;font-style:normal;font-variant:normal;font-weight:normal;font-stretch:normal;text-align:start;line-height:125%;letter-spacing:0px;word-spacing:0px;text-anchor:start;fill:#000000;fill-opacity:1;stroke:none;font-family:Nimbus Roman No9 L;-inkscape-font-specification:Sans"
           x="667.13043"
           y="148.77921"
           id="text3362"
           sodipodi:linespacing="125%"><tspan
             sodipodi:role="line"
             id="tspan3364"
             x="667.13043"
             y="148.77921">2</tspan></text>
        <text
           xml:space="preserve"
           style="font-size:13.33333302px;font-style:normal;font-variant:normal;font-weight:normal;font-stretch:normal;text-align:start;line-height:125%;letter-spacing:0px;word-spacing:0px;text-anchor:start;fill:#000000;fill-opacity:1;stroke:none;font-family:Nimbus Roman No9 L;-inkscape-font-specification:Sans"
           x="680.0379"
           y="127.96983"
           id="text3366"
           sodipodi:linespacing="125%"><tspan
             sodipodi:role="line"
             id="tspan3368"
             x="680.0379"
             y="127.96983">3</tspan></text>
        <text
           xml:space="preserve"
           style="font-size:13.33333302px;font-style:normal;font-variant:normal;font-weight:normal;font-stretch:normal;text-align:start;line-height:125%;letter-spacing:0px;word-spacing:0px;text-anchor:start;fill:#000000;fill-opacity:1;stroke:none;font-family:Nimbus Roman No9 L;-inkscape-font-specification:Sans"
           x="691.54248"
           y="149.01471"
           id="text3370"
           sodipodi:linespacing="125%"><tspan
             sodipodi:role="line"
             id="tspan3372"
             x="691.54248"
             y="149.01471">1</tspan></text>
        <path
           inkscape:connector-curvature="0"
           id="path3374"
           d="m 735.97774,130.66046 -7.85324,13.66571 16.47412,0 z"
           style="fill:none;stroke:#000000;stroke-width:1.11111116px;stroke-linecap:butt;stroke-linejoin:miter;stroke-opacity:1" />
        <text
           sodipodi:linespacing="125%"
           id="text3376"
           y="148.77921"
           x="720.46393"
           style="font-size:13.33333302px;font-style:normal;font-variant:normal;font-weight:normal;font-stretch:normal;text-align:start;line-height:125%;letter-spacing:0px;word-spacing:0px;text-anchor:start;fill:#000000;fill-opacity:1;stroke:none;font-family:Nimbus Roman No9 L;-inkscape-font-specification:Sans"
           xml:space="preserve"><tspan
             y="148.77921"
             x="720.46393"
             id="tspan3378"
             sodipodi:role="line">2</tspan></text>
        <text
           sodipodi:linespacing="125%"
           id="text3380"
           y="127.96983"
           x="733.3714"
           style="font-size:13.33333302px;font-style:normal;font-variant:normal;font-weight:normal;font-stretch:normal;text-align:start;line-height:125%;letter-spacing:0px;word-spacing:0px;text-anchor:start;fill:#000000;fill-opacity:1;stroke:none;font-family:Nimbus Roman No9 L;-inkscape-font-specification:Sans"
           xml:space="preserve"><tspan
             y="127.96983"
             x="733.3714"
             id="tspan3382"
             sodipodi:role="line">3</tspan></text>
        <text
           sodipodi:linespacing="125%"
           id="text3384"
           y="149.01471"
           x="744.87598"
           style="font-size:13.33333302px;font-style:normal;font-variant:normal;font-weight:normal;font-stretch:normal;text-align:start;line-height:125%;letter-spacing:0px;word-spacing:0px;text-anchor:start;fill:#000000;fill-opacity:1;stroke:none;font-family:Nimbus Roman No9 L;-inkscape-font-specification:Sans"
           xml:space="preserve"><tspan
             y="149.01471"
             x="744.87598"
             id="tspan3386"
             sodipodi:role="line">1</tspan></text>
      </g>
    </g>
  </g>
</svg>
