<?xml version="1.0" encoding="UTF-8" standalone="no"?>
<!-- Created with Inkscape (http://www.inkscape.org/) -->

<svg
   xmlns:ns0="http://www.iki.fi/pav/software/textext/"
   xmlns:dc="http://purl.org/dc/elements/1.1/"
   xmlns:cc="http://creativecommons.org/ns#"
   xmlns:rdf="http://www.w3.org/1999/02/22-rdf-syntax-ns#"
   xmlns:svg="http://www.w3.org/2000/svg"
   xmlns="http://www.w3.org/2000/svg"
   xmlns:xlink="http://www.w3.org/1999/xlink"
   xmlns:sodipodi="http://sodipodi.sourceforge.net/DTD/sodipodi-0.dtd"
   xmlns:inkscape="http://www.inkscape.org/namespaces/inkscape"
   width="354.33069"
   height="177.16534"
   id="svg2"
   version="1.1"
   inkscape:version="0.47 r22583"
   sodipodi:docname="New document 1">
  <sodipodi:namedview
     id="base"
     pagecolor="#ffffff"
     bordercolor="#666666"
     borderopacity="1.0"
     inkscape:pageopacity="0.0"
     inkscape:pageshadow="2"
     inkscape:zoom="1.2897556"
     inkscape:cx="177.16534"
     inkscape:cy="88.582672"
     inkscape:document-units="px"
     inkscape:current-layer="layer1"
     showgrid="false"
     units="cm"
     inkscape:window-width="1024"
     inkscape:window-height="697"
     inkscape:window-x="-4"
     inkscape:window-y="0"
     inkscape:window-maximized="1">
    <inkscape:grid
       snapvisiblegridlinesonly="true"
       enabled="true"
       visible="true"
       empspacing="5"
       id="grid2816"
       type="xygrid" />
  </sodipodi:namedview>
  <defs
     id="defs4">
    <marker
       style="overflow:visible;"
       id="Arrow1Mend"
       refX="0.0"
       refY="0.0"
       orient="auto"
       inkscape:stockid="Arrow1Mend">
      <path
         transform="scale(0.4) rotate(180) translate(10,0)"
         style="fill-rule:evenodd;stroke:#000000;stroke-width:1.0pt;marker-start:none;"
         d="M 0.0,0.0 L 5.0,-5.0 L -12.5,0.0 L 5.0,5.0 L 0.0,0.0 z "
         id="path3604" />
    </marker>
    <marker
       style="overflow:visible"
       id="Arrow1Mstart"
       refX="0.0"
       refY="0.0"
       orient="auto"
       inkscape:stockid="Arrow1Mstart">
      <path
         transform="scale(0.4) translate(10,0)"
         style="fill-rule:evenodd;stroke:#000000;stroke-width:1.0pt;marker-start:none"
         d="M 0.0,0.0 L 5.0,-5.0 L -12.5,0.0 L 5.0,5.0 L 0.0,0.0 z "
         id="path3601" />
    </marker>
    <inkscape:perspective
       id="perspective10"
       inkscape:persp3d-origin="372.04724 : 350.78739 : 1"
       inkscape:vp_z="744.09448 : 526.18109 : 1"
       inkscape:vp_y="0 : 1000 : 0"
       inkscape:vp_x="0 : 526.18109 : 1"
       sodipodi:type="inkscape:persp3d" />
    <inkscape:perspective
       sodipodi:type="inkscape:persp3d"
       inkscape:vp_x="0 : 0.5 : 1"
       inkscape:vp_y="0 : 1000 : 0"
       inkscape:vp_z="1 : 0.5 : 1"
       inkscape:persp3d-origin="0.5 : 0.33333333 : 1"
       id="perspective4244" />
    <inkscape:perspective
       id="perspective4327"
       inkscape:persp3d-origin="0.5 : 0.33333333 : 1"
       inkscape:vp_z="1 : 0.5 : 1"
       inkscape:vp_y="0 : 1000 : 0"
       inkscape:vp_x="0 : 0.5 : 1"
       sodipodi:type="inkscape:persp3d" />
    <inkscape:perspective
       sodipodi:type="inkscape:persp3d"
       inkscape:vp_x="0 : 0.5 : 1"
       inkscape:vp_y="0 : 1000 : 0"
       inkscape:vp_z="1 : 0.5 : 1"
       inkscape:persp3d-origin="0.5 : 0.33333333 : 1"
       id="perspective4625" />
    <inkscape:perspective
       id="perspective4779"
       inkscape:persp3d-origin="0.5 : 0.33333333 : 1"
       inkscape:vp_z="1 : 0.5 : 1"
       inkscape:vp_y="0 : 1000 : 0"
       inkscape:vp_x="0 : 0.5 : 1"
       sodipodi:type="inkscape:persp3d" />
    <inkscape:perspective
       sodipodi:type="inkscape:persp3d"
       inkscape:vp_x="0 : 0.5 : 1"
       inkscape:vp_y="0 : 1000 : 0"
       inkscape:vp_z="1 : 0.5 : 1"
       inkscape:persp3d-origin="0.5 : 0.33333333 : 1"
       id="perspective4779-4" />
  </defs>
  <metadata
     id="metadata7">
    <rdf:RDF>
      <cc:Work
         rdf:about="">
        <dc:format>image/svg+xml</dc:format>
        <dc:type
           rdf:resource="http://purl.org/dc/dcmitype/StillImage" />
        <dc:title></dc:title>
      </cc:Work>
    </rdf:RDF>
  </metadata>
  <g
     transform="translate(0,-875.19552)"
     id="layer1"
     inkscape:groupmode="layer"
     inkscape:label="Layer 1">
    <path
       sodipodi:nodetypes="ccc"
       transform="translate(0,875.19552)"
       id="path2818"
       d="m 85,17.165344 0,134.999996 145,0"
       style="color:#000000;fill:none;stroke:#000000;stroke-width:1.2;stroke-linecap:butt;stroke-linejoin:miter;stroke-miterlimit:4;stroke-opacity:1;stroke-dasharray:none;stroke-dashoffset:0;marker:none;visibility:visible;display:inline;overflow:visible;enable-background:accumulate;marker-start:url(#Arrow1Mstart);marker-end:url(#Arrow1Mend)" />
    <path
       id="path4228"
       d="m 185,1027.3609 0,-110.00012"
       style="color:#000000;fill:none;stroke:#000000;stroke-width:1.20000005;stroke-linecap:butt;stroke-linejoin:miter;stroke-miterlimit:4;stroke-opacity:1;stroke-dasharray:none;stroke-dashoffset:0;marker:none;visibility:visible;display:inline;overflow:visible;enable-background:accumulate" />
    <path
       sodipodi:nodetypes="cc"
       transform="translate(0,875.19552)"
       id="path4230"
       d="m 185,42.165344 c -15,94.999996 -65,99.999996 -100,40"
       style="color:#000000;fill:none;stroke:#000000;stroke-width:1.20000005;stroke-linecap:butt;stroke-linejoin:miter;stroke-miterlimit:4;stroke-opacity:1;stroke-dasharray:none;stroke-dashoffset:0;marker:none;visibility:visible;display:inline;overflow:visible;enable-background:accumulate" />
    <path
       sodipodi:nodetypes="cc"
       transform="translate(0,875.19552)"
       id="path4232"
       d="m 135,152.16534 0,-30"
       style="color:#000000;fill:none;stroke:#000000;stroke-width:1.20000005;stroke-linecap:butt;stroke-linejoin:miter;stroke-miterlimit:4;stroke-opacity:1;stroke-dasharray:2.4000001,2.4000001;stroke-dashoffset:0;marker:none;visibility:visible;display:inline;overflow:visible;enable-background:accumulate" />
    <path
       sodipodi:nodetypes="cc"
       id="path4234"
       d="m 135,996.97316 c 7.86781,0 0,15.19384 7.86781,15.19384"
       style="color:#000000;fill:none;stroke:#000000;stroke-width:1.20000005;stroke-linecap:butt;stroke-linejoin:miter;stroke-miterlimit:4;stroke-opacity:1;stroke-dasharray:none;stroke-dashoffset:0;marker:none;visibility:visible;display:inline;overflow:visible;enable-background:accumulate" />
    <path
       sodipodi:nodetypes="cc"
       id="path4234-0"
       d="m 135,1027.3609 c 7.86781,0 0,-15.1939 7.86781,-15.1939"
       style="color:#000000;fill:none;stroke:#000000;stroke-width:1.20000005;stroke-linecap:butt;stroke-linejoin:miter;stroke-miterlimit:4;stroke-opacity:1;stroke-dasharray:none;stroke-dashoffset:0;marker:none;visibility:visible;display:inline;overflow:visible;enable-background:accumulate" />
    <g
       id="g4276"
       ns0:preamble="/home/manju/Documents/ubm/preamble.tex"
       ns0:text="$\\lambda$"
       transform="matrix(1.2,0,0,1.2,-123.24513,854.56011)">
      <defs
         id="defs4278">
        <g
           id="g4280">
          <symbol
             id="textext-fa202f2c-0"
             overflow="visible"
             style="overflow:visible">
            <path
               id="path4283"
               d=""
               style="stroke:none" />
          </symbol>
          <symbol
             id="textext-fa202f2c-1"
             overflow="visible"
             style="overflow:visible">
            <path
               id="path4286"
               d="m 3.5625,-2.90625 c 0.40625,1.046875 0.890625,2.5625 1.046875,2.796875 0.15625,0.21875 0.25,0.21875 0.53125,0.21875 l 0.21875,0 c 0.09375,-0.015625 0.109375,-0.0625 0.109375,-0.09375 0,-0.03125 -0.03125,-0.0625 -0.0625,-0.09375 C 5.3125,-0.1875 5.25,-0.34375 5.1875,-0.53125 L 3.15625,-6.203125 c -0.21875,-0.578125 -0.75,-0.71875 -1.21875,-0.71875 -0.046875,0 -0.1875,0 -0.1875,0.109375 0,0.078125 0.078125,0.109375 0.09375,0.109375 C 2.171875,-6.65625 2.25,-6.59375 2.5,-5.90625 c 0.25,0.71875 0.796875,2.234375 0.953125,2.703125 l -2.75,2.734375 c -0.109375,0.125 -0.171875,0.171875 -0.171875,0.3125 0,0.171875 0.140625,0.28125 0.296875,0.28125 0.15625,0 0.25,-0.109375 0.328125,-0.203125 L 3.5625,-2.90625 z m 0,0"
               style="stroke:none" />
          </symbol>
        </g>
      </defs>
      <g
         id="textext-fa202f2c-2">
        <g
           id="g4289"
           style="fill:#000000;fill-opacity:1">
          <use
             id="use4291"
             y="134.76469"
             x="223.4321"
             xlink:href="#textext-fa202f2c-1"
             width="354.33069"
             height="177.16534" />
        </g>
      </g>
    </g>
    <g
       ns0:text="$i$"
       ns0:preamble="/home/manju/Documents/TIFR/preamble.tex"
       transform="matrix(1.2,0,0,1.2,-41.309311,877.98502)"
       id="g4563">
      <defs
         id="defs4565">
        <g
           id="g4567">
          <symbol
             overflow="visible"
             id="textext-a53f4a3c-0"
             style="overflow:visible">
            <path
               style="stroke:none"
               d=""
               id="path4570" />
          </symbol>
          <symbol
             overflow="visible"
             id="textext-a53f4a3c-1"
             style="overflow:visible">
            <path
               style="stroke:none"
               d="m 2.21875,-1.140625 c -0.25,0.328125 -0.3125,0.40625 -0.421875,0.515625 -0.15625,0.171875 -0.3125,0.265625 -0.40625,0.265625 -0.078125,0 -0.15625,-0.078125 -0.15625,-0.15625 0,-0.09375 0.03125,-0.234375 0.09375,-0.4375 0,-0.03125 0.03125,-0.09375 0.0625,-0.171875 l 0,-0.015625 0,-0.03125 L 2.265625,-4.375 2.25,-4.390625 c -1.015625,0.1875 -1.21875,0.21875 -1.609375,0.25 l 0,0.15625 c 0.53125,0 0.640625,0.03125 0.640625,0.234375 0,0.078125 -0.03125,0.234375 -0.09375,0.4375 l -0.484375,1.765625 c -0.15625,0.578125 -0.21875,0.890625 -0.21875,1.09375 0,0.359375 0.15625,0.5625 0.46875,0.5625 0.453125,0 0.828125,-0.296875 1.390625,-1.140625 l -0.125,-0.109375 z m -0.078125,-5.375 c -0.28125,0 -0.46875,0.21875 -0.46875,0.53125 0,0.3125 0.1875,0.515625 0.46875,0.515625 0.265625,0 0.484375,-0.21875 0.484375,-0.5 0,-0.296875 -0.21875,-0.546875 -0.484375,-0.546875 z m 0,0"
               id="path4573" />
          </symbol>
        </g>
      </defs>
      <g
         id="textext-a53f4a3c-2">
        <g
           style="fill:#000000;fill-opacity:1"
           id="g4576">
          <use
             xlink:href="#textext-a53f4a3c-1"
             x="223.4321"
             y="134.76469"
             id="use4578"
             width="354.33069"
             height="177.16534" />
        </g>
      </g>
    </g>
    <g
       id="g4706"
       transform="matrix(1.2,0,0,1.2,-86.320846,878.58777)"
       ns0:preamble="/home/manju/Documents/TIFR/preamble.tex"
       ns0:text="$I$">
      <defs
         id="defs4708">
        <g
           id="g4710">
          <symbol
             id="textext-6fffed61-0"
             overflow="visible"
             style="overflow:visible">
            <path
               id="path4713"
               d=""
               style="stroke:none" />
          </symbol>
          <symbol
             id="textext-6fffed61-1"
             overflow="visible"
             style="overflow:visible">
            <path
               id="path4716"
               d="m -0.078125,0 2.4375,0 0,-0.15625 c -0.578125,-0.078125 -0.6875,-0.140625 -0.6875,-0.40625 0,-0.1875 0.015625,-0.3125 0.109375,-0.640625 l 1.234375,-4.40625 C 3.1875,-6.1875 3.265625,-6.25 3.828125,-6.34375 l 0,-0.171875 -2.46875,0 0,0.171875 c 0.578125,0.0625 0.703125,0.140625 0.703125,0.421875 0,0.140625 -0.03125,0.375 -0.109375,0.625 l -1.21875,4.40625 c -0.1875,0.578125 -0.25,0.625 -0.8125,0.734375 l 0,0.15625 z m 0,0"
               style="stroke:none" />
          </symbol>
        </g>
      </defs>
      <g
         id="textext-6fffed61-2">
        <g
           id="g4719"
           style="fill:#000000;fill-opacity:1">
          <use
             id="use4721"
             y="134.76469"
             x="223.6812"
             xlink:href="#textext-6fffed61-1"
             width="354.33069"
             height="177.16534" />
        </g>
      </g>
    </g>
    <g
       ns0:text="$\\varphi$"
       ns0:preamble="/home/manju/Documents/TIFR/preamble.tex"
       transform="matrix(1.2,0,0,1.2,-195.55738,733.64162)"
       id="g4871">
      <defs
         id="defs4873">
        <g
           id="g4875">
          <symbol
             style="overflow:visible"
             overflow="visible"
             id="textext-0a8e93a0-0">
            <path
               style="stroke:none"
               d=""
               id="path4878" />
          </symbol>
          <symbol
             style="overflow:visible"
             overflow="visible"
             id="textext-0a8e93a0-1">
            <path
               style="stroke:none"
               d="m 5.421875,-3.046875 c 0,-0.609375 -0.140625,-1.34375 -1.125,-1.34375 -1,0 -1.359375,0.765625 -2.15625,3.671875 -0.46875,0 -1.265625,-0.125 -1.265625,-1.109375 0,-1.625 0.875,-2.28125 0.875,-2.40625 0,-0.015625 -0.015625,-0.03125 -0.0625,-0.03125 -0.109375,0 -1.46875,1.015625 -1.46875,2.78125 0,1.0625 1.0625,1.578125 1.6875,1.578125 C 1.5625,1.421875 1.21875,1.9375 1.125,2.0625 l 0.796875,0 0.5,-1.953125 c 1.8125,0 3,-1.53125 3,-3.15625 z m -0.28125,0.25 c 0,0.71875 -0.5625,2.078125 -2.484375,2.078125 l 0.1875,-0.84375 c 0.46875,-2.09375 1.25,-2.203125 1.53125,-2.203125 0.5625,0 0.765625,0.34375 0.765625,0.96875 z m 0,0"
               id="path4881" />
          </symbol>
        </g>
      </defs>
      <g
         id="textext-0a8e93a0-2">
        <g
           style="fill:#000000;fill-opacity:1"
           id="g4884">
          <use
             height="177.16534"
             width="354.33069"
             xlink:href="#textext-0a8e93a0-1"
             x="223.4321"
             y="134.76469"
             id="use4886" />
        </g>
      </g>
    </g>
    <g
       id="g5036"
       transform="matrix(1.2,0,0,1.2,-191.97036,875.94443)"
       ns0:preamble="/home/manju/Documents/TIFR/preamble.tex"
       ns0:text="$O$">
      <defs
         id="defs5038">
        <g
           id="g5040">
          <symbol
             id="textext-2aba537f-0"
             overflow="visible"
             style="overflow:visible">
            <path
               id="path5043"
               d=""
               style="stroke:none" />
          </symbol>
          <symbol
             id="textext-2aba537f-1"
             overflow="visible"
             style="overflow:visible">
            <path
               id="path5046"
               d="m 4.71875,-6.640625 c -0.828125,0 -1.734375,0.40625 -2.53125,1.125 -1,0.9375 -1.59375,2.140625 -1.59375,3.3125 0,1.390625 0.90625,2.375 2.171875,2.375 2.078125,0 4.09375,-2.078125 4.203125,-4.34375 0.0625,-1.40625 -0.90625,-2.46875 -2.25,-2.46875 z M 4.640625,-6.3125 c 0.78125,0 1.28125,0.578125 1.28125,1.515625 0,1.078125 -0.46875,2.53125 -1.109375,3.46875 -0.5625,0.796875 -1.171875,1.171875 -1.875,1.171875 -0.828125,0 -1.296875,-0.59375 -1.296875,-1.671875 0,-0.9375 0.5,-2.421875 1.09375,-3.296875 0.5625,-0.8125 1.171875,-1.1875 1.90625,-1.1875 z m 0,0"
               style="stroke:none" />
          </symbol>
        </g>
      </defs>
      <g
         id="textext-2aba537f-2">
        <g
           id="g5049"
           style="fill:#000000;fill-opacity:1">
          <use
             id="use5051"
             y="134.76469"
             x="223.4321"
             xlink:href="#textext-2aba537f-1"
             width="354.33069"
             height="177.16534" />
        </g>
      </g>
    </g>
  </g>
</svg>
