<?xml version="1.0" encoding="UTF-8" standalone="no"?>
<!-- Created with Inkscape (http://www.inkscape.org/) -->
<svg
   xmlns:ns0="http://www.iki.fi/pav/software/textext/"
   xmlns:dc="http://purl.org/dc/elements/1.1/"
   xmlns:cc="http://creativecommons.org/ns#"
   xmlns:rdf="http://www.w3.org/1999/02/22-rdf-syntax-ns#"
   xmlns:svg="http://www.w3.org/2000/svg"
   xmlns="http://www.w3.org/2000/svg"
   xmlns:xlink="http://www.w3.org/1999/xlink"
   xmlns:sodipodi="http://sodipodi.sourceforge.net/DTD/sodipodi-0.dtd"
   xmlns:inkscape="http://www.inkscape.org/namespaces/inkscape"
   width="177.16534"
   height="212.59842"
   id="svg2460"
   sodipodi:version="0.32"
   inkscape:version="0.46"
   version="1.0"
   sodipodi:docname="hayman_fig3.svg"
   inkscape:output_extension="org.inkscape.output.svg.inkscape">
  <sodipodi:namedview
     id="base"
     pagecolor="#ffffff"
     bordercolor="#666666"
     borderopacity="1.0"
     gridtolerance="10000"
     guidetolerance="10"
     objecttolerance="10"
     inkscape:pageopacity="0.0"
     inkscape:pageshadow="2"
     inkscape:zoom="1.6430543"
     inkscape:cx="130.74738"
     inkscape:cy="110.48039"
     inkscape:document-units="px"
     inkscape:current-layer="layer1"
     showgrid="false"
     units="cm"
     inkscape:window-width="985"
     inkscape:window-height="723"
     inkscape:window-x="0"
     inkscape:window-y="25">
    <inkscape:grid
       enabled="true"
       visible="true"
       id="grid5053"
       type="xygrid" />
  </sodipodi:namedview>
  <defs
     id="defs2462">
    <inkscape:perspective
       id="perspective2468"
       inkscape:persp3d-origin="372.04724 : 350.78739 : 1"
       inkscape:vp_z="744.09448 : 526.18109 : 1"
       inkscape:vp_y="0 : 1000 : 0"
       inkscape:vp_x="0 : 526.18109 : 1"
       sodipodi:type="inkscape:persp3d" />
  </defs>
  <metadata
     id="metadata2465">
    <rdf:RDF>
      <cc:Work
         rdf:about="">
        <dc:format>image/svg+xml</dc:format>
        <dc:type
           rdf:resource="http://purl.org/dc/dcmitype/StillImage" />
      </cc:Work>
    </rdf:RDF>
  </metadata>
  <g
     id="layer1"
     inkscape:groupmode="layer"
     inkscape:label="Layer 1">
    <path
       id="path4893"
       d="M 145,39.234099 L 145,167.71243"
       style="fill:none;fill-rule:evenodd;stroke:#000000;stroke-width:1px;stroke-linecap:butt;stroke-linejoin:miter;stroke-opacity:1" />
    <path
       sodipodi:nodetypes="ccc"
       id="path4895"
       d="M 45.024183,33.951273 L 144.99999,100.55545 L 44.999762,177.56774"
       style="fill:none;fill-opacity:1;fill-rule:evenodd;stroke:#000000;stroke-width:1px;stroke-linecap:butt;stroke-linejoin:round;stroke-opacity:1" />
    <path
       id="path5063"
       sodipodi:nodetypes="cc"
       d="M 120,119.62806 C 112.84181,107.60834 111.31398,95.887414 120,83.88988"
       style="fill-rule:evenodd;stroke:#000000;stroke-width:1;stroke-linecap:butt;stroke-linejoin:miter;stroke-opacity:1;fill-opacity:1;opacity:1;stroke-miterlimit:4;stroke-dasharray:none;fill:none" />
    <path
       sodipodi:nodetypes="cc"
       id="path5069"
       d="M 74.741708,53.631588 C 50.811103,86.971029 53.001946,120.2921 75.904022,153.63159"
       style="fill-rule:evenodd;stroke:#000000;stroke-width:1;stroke-linecap:butt;stroke-linejoin:miter;stroke-opacity:1;fill-opacity:1;opacity:1;stroke-miterlimit:4;stroke-dasharray:none;fill:none" />
    <path
       id="path5089"
       d="M 119.81192,119.81724 L 57.448286,103.11323"
       style="fill:none;fill-rule:evenodd;stroke:#000000;stroke-width:1px;stroke-linecap:butt;stroke-linejoin:miter;stroke-opacity:1" />
    <path
       style="fill:none;fill-rule:evenodd;stroke:#000000;stroke-width:1.00000012px;stroke-linecap:butt;stroke-linejoin:miter;stroke-opacity:1"
       d="M 115.79384,123.38412 L 57.996209,107.95586"
       id="path5091" />
    <path
       id="path5093"
       d="M 109.48769,128.03604 L 58.996039,114.6491"
       style="fill:none;fill-rule:evenodd;stroke:#000000;stroke-width:0.99999994px;stroke-linecap:butt;stroke-linejoin:miter;stroke-opacity:1" />
    <path
       style="fill:none;fill-rule:evenodd;stroke:#000000;stroke-width:0.99999988px;stroke-linecap:butt;stroke-linejoin:miter;stroke-opacity:1"
       d="M 102.87402,132.96731 L 60.880201,121.95471"
       id="path5095" />
    <path
       id="path5097"
       d="M 96.837132,137.22714 L 62.475952,128.34711"
       style="fill:none;fill-rule:evenodd;stroke:#000000;stroke-width:0.99999994px;stroke-linecap:butt;stroke-linejoin:miter;stroke-opacity:1" />
    <path
       style="fill:none;fill-rule:evenodd;stroke:#000000;stroke-width:1px;stroke-linecap:butt;stroke-linejoin:miter;stroke-opacity:1"
       d="M 92.126758,141.47757 L 65.119176,134.65216"
       id="path5099" />
    <path
       id="path5101"
       d="M 85.359311,146.34703 L 68.522566,142.36338"
       style="fill:none;fill-rule:evenodd;stroke:#000000;stroke-width:0.99999988px;stroke-linecap:butt;stroke-linejoin:miter;stroke-opacity:1" />
    <path
       style="fill:none;fill-rule:evenodd;stroke:#000000;stroke-width:1.00000012px;stroke-linecap:butt;stroke-linejoin:miter;stroke-opacity:1"
       d="M 80.726946,150.2432 L 72.424784,148.64415"
       id="path5103" />
    <path
       style="fill:none;fill-rule:evenodd;stroke:#000000;stroke-width:1px;stroke-linecap:butt;stroke-linejoin:miter;stroke-opacity:1"
       d="M 92.415897,65.242681 L 70.109321,59.674435"
       id="path5105" />
    <path
       id="path5107"
       d="M 104.10487,73.115222 L 67.801395,63.692508"
       style="fill:none;fill-rule:evenodd;stroke:#000000;stroke-width:0.99999988px;stroke-linecap:butt;stroke-linejoin:miter;stroke-opacity:1" />
    <path
       style="fill:none;fill-rule:evenodd;stroke:#000000;stroke-width:0.99999994px;stroke-linecap:butt;stroke-linejoin:miter;stroke-opacity:1"
       d="M 120.1772,84.019772 L 65.109795,69.354352"
       id="path5109" />
    <path
       id="path5111"
       d="M 116.83193,89.864253 L 62.418204,75.381474"
       style="fill:none;fill-rule:evenodd;stroke:#000000;stroke-width:1.00000012px;stroke-linecap:butt;stroke-linejoin:miter;stroke-opacity:1" />
    <path
       style="fill:none;fill-rule:evenodd;stroke:#000000;stroke-width:1px;stroke-linecap:butt;stroke-linejoin:miter;stroke-opacity:1"
       d="M 114.88065,95.265589 L 60.735812,80.857941"
       id="path5113" />
    <path
       id="path5115"
       d="M 114.15008,101.47535 L 59.092051,86.812552"
       style="fill:none;fill-rule:evenodd;stroke:#000000;stroke-width:1px;stroke-linecap:butt;stroke-linejoin:miter;stroke-opacity:1" />
    <path
       style="fill:none;fill-rule:evenodd;stroke:#000000;stroke-width:0.99999988px;stroke-linecap:butt;stroke-linejoin:miter;stroke-opacity:1"
       d="M 114.71713,107.3171 L 58.630765,92.366982"
       id="path5117" />
    <path
       id="path5119"
       d="M 116.5244,113.24216 L 57.44829,97.4567"
       style="fill:none;fill-rule:evenodd;stroke:#000000;stroke-width:1px;stroke-linecap:butt;stroke-linejoin:miter;stroke-opacity:1" />
    <path
       sodipodi:nodetypes="cc"
       id="path5121"
       d="M 100.11909,42.51306 C 169.53937,90.226547 147.70029,129.4789 100.11909,166.34457"
       style="fill:none;fill-rule:evenodd;stroke:#000000;stroke-width:1px;stroke-linecap:butt;stroke-linejoin:miter;stroke-opacity:1" />
    <text
       id="text5123"
       y="105.43849"
       x="148.90497"
       style="font-size:10px;font-style:normal;font-variant:normal;font-weight:normal;font-stretch:normal;fill:#000000;fill-opacity:1;stroke:none;stroke-width:1px;stroke-linecap:butt;stroke-linejoin:miter;stroke-opacity:1;font-family:LMRoman10;-inkscape-font-specification:LMRoman10"
       xml:space="preserve"><tspan
         y="105.43849"
         x="148.90497"
         id="tspan5125"
         sodipodi:role="line">A</tspan></text>
    <text
       id="text5127"
       y="109.31174"
       x="45.833466"
       style="font-size:10px;font-style:normal;font-variant:normal;font-weight:normal;font-stretch:normal;fill:#000000;fill-opacity:1;stroke:none;stroke-width:1px;stroke-linecap:butt;stroke-linejoin:miter;stroke-opacity:1;font-family:LMRoman10;-inkscape-font-specification:LMRoman10"
       xml:space="preserve"><tspan
         y="109.31174"
         x="45.833466"
         id="tspan5129"
         sodipodi:role="line">0</tspan></text>
    <g
       id="g6033"
       transform="matrix(1.1,0,0,1.1,-211.30733,-78.756094)"
       ns0:preamble=""
       ns0:text="$\\Delta_n(\\varepsilon)$">
      <defs
         id="defs6035">
        <g
           id="g6037">
          <symbol
             id="textext-ba359521-0"
             overflow="visible">
            <path
               id="path6040"
               d=""
               style="stroke:none;" />
          </symbol>
          <symbol
             id="textext-ba359521-1"
             overflow="visible">
            <path
               id="path6043"
               d="M 4.40625 -6.953125 C 4.34375 -7.09375 4.3125 -7.140625 4.140625 -7.140625 C 3.984375 -7.140625 3.953125 -7.09375 3.890625 -6.953125 L 0.515625 -0.203125 C 0.46875 -0.109375 0.46875 -0.09375 0.46875 -0.078125 C 0.46875 0 0.53125 0 0.6875 0 L 7.609375 0 C 7.765625 0 7.828125 0 7.828125 -0.078125 C 7.828125 -0.09375 7.828125 -0.109375 7.78125 -0.203125 L 4.40625 -6.953125 Z M 3.828125 -6.140625 L 6.515625 -0.75 L 1.140625 -0.75 L 3.828125 -6.140625 Z M 3.828125 -6.140625 "
               style="stroke:none;" />
          </symbol>
          <symbol
             id="textext-ba359521-2"
             overflow="visible">
            <path
               id="path6046"
               d="M 3.296875 2.390625 C 3.296875 2.359375 3.296875 2.34375 3.125 2.171875 C 1.890625 0.921875 1.5625 -0.96875 1.5625 -2.5 C 1.5625 -4.234375 1.9375 -5.96875 3.171875 -7.203125 C 3.296875 -7.328125 3.296875 -7.34375 3.296875 -7.375 C 3.296875 -7.453125 3.265625 -7.484375 3.203125 -7.484375 C 3.09375 -7.484375 2.203125 -6.796875 1.609375 -5.53125 C 1.109375 -4.4375 0.984375 -3.328125 0.984375 -2.5 C 0.984375 -1.71875 1.09375 -0.515625 1.640625 0.625 C 2.25 1.84375 3.09375 2.5 3.203125 2.5 C 3.265625 2.5 3.296875 2.46875 3.296875 2.390625 Z M 3.296875 2.390625 "
               style="stroke:none;" />
          </symbol>
          <symbol
             id="textext-ba359521-3"
             overflow="visible">
            <path
               id="path6049"
               d="M 2.875 -2.5 C 2.875 -3.265625 2.765625 -4.46875 2.21875 -5.609375 C 1.625 -6.828125 0.765625 -7.484375 0.671875 -7.484375 C 0.609375 -7.484375 0.5625 -7.4375 0.5625 -7.375 C 0.5625 -7.34375 0.5625 -7.328125 0.75 -7.140625 C 1.734375 -6.15625 2.296875 -4.578125 2.296875 -2.5 C 2.296875 -0.78125 1.9375 0.96875 0.703125 2.21875 C 0.5625 2.34375 0.5625 2.359375 0.5625 2.390625 C 0.5625 2.453125 0.609375 2.5 0.671875 2.5 C 0.765625 2.5 1.671875 1.8125 2.25 0.546875 C 2.765625 -0.546875 2.875 -1.65625 2.875 -2.5 Z M 2.875 -2.5 "
               style="stroke:none;" />
          </symbol>
          <symbol
             id="textext-ba359521-4"
             overflow="visible">
            <path
               id="path6052"
               d=""
               style="stroke:none;" />
          </symbol>
          <symbol
             id="textext-ba359521-5"
             overflow="visible">
            <path
               id="path6055"
               d="M 0.84375 -0.4375 C 0.828125 -0.34375 0.78125 -0.171875 0.78125 -0.15625 C 0.78125 0 0.90625 0.0625 1.015625 0.0625 C 1.140625 0.0625 1.25 -0.015625 1.296875 -0.078125 C 1.328125 -0.140625 1.375 -0.375 1.421875 -0.515625 C 1.453125 -0.640625 1.53125 -0.96875 1.5625 -1.140625 C 1.609375 -1.296875 1.65625 -1.453125 1.6875 -1.609375 C 1.765625 -1.890625 1.78125 -1.953125 1.984375 -2.234375 C 2.171875 -2.515625 2.5 -2.875 3.03125 -2.875 C 3.421875 -2.875 3.4375 -2.515625 3.4375 -2.390625 C 3.4375 -1.96875 3.140625 -1.203125 3.03125 -0.90625 C 2.953125 -0.703125 2.921875 -0.640625 2.921875 -0.53125 C 2.921875 -0.15625 3.21875 0.0625 3.578125 0.0625 C 4.28125 0.0625 4.578125 -0.890625 4.578125 -1 C 4.578125 -1.09375 4.5 -1.09375 4.46875 -1.09375 C 4.375 -1.09375 4.375 -1.046875 4.34375 -0.96875 C 4.1875 -0.40625 3.875 -0.125 3.609375 -0.125 C 3.453125 -0.125 3.421875 -0.21875 3.421875 -0.375 C 3.421875 -0.53125 3.46875 -0.625 3.59375 -0.9375 C 3.671875 -1.15625 3.953125 -1.890625 3.953125 -2.28125 C 3.953125 -2.953125 3.421875 -3.078125 3.046875 -3.078125 C 2.46875 -3.078125 2.078125 -2.71875 1.875 -2.4375 C 1.828125 -2.921875 1.421875 -3.078125 1.125 -3.078125 C 0.828125 -3.078125 0.671875 -2.859375 0.578125 -2.703125 C 0.421875 -2.4375 0.328125 -2.046875 0.328125 -2 C 0.328125 -1.921875 0.421875 -1.921875 0.453125 -1.921875 C 0.546875 -1.921875 0.546875 -1.9375 0.59375 -2.125 C 0.703125 -2.53125 0.84375 -2.875 1.109375 -2.875 C 1.296875 -2.875 1.34375 -2.71875 1.34375 -2.53125 C 1.34375 -2.40625 1.28125 -2.140625 1.21875 -1.953125 C 1.171875 -1.765625 1.109375 -1.484375 1.078125 -1.328125 L 0.84375 -0.4375 Z M 0.84375 -0.4375 "
               style="stroke:none;" />
          </symbol>
          <symbol
             id="textext-ba359521-6"
             overflow="visible">
            <path
               id="path6058"
               d=""
               style="stroke:none;" />
          </symbol>
          <symbol
             id="textext-ba359521-7"
             overflow="visible">
            <path
               id="path6061"
               d="M 1.40625 -2.265625 C 1.734375 -2.125 2.03125 -2.125 2.265625 -2.125 C 2.515625 -2.125 3.078125 -2.125 3.078125 -2.4375 C 3.078125 -2.671875 2.71875 -2.703125 2.34375 -2.703125 C 2.140625 -2.703125 1.78125 -2.6875 1.421875 -2.515625 C 1.1875 -2.625 1.015625 -2.828125 1.015625 -3.09375 C 1.015625 -3.703125 2 -4.0625 2.890625 -4.0625 C 3.046875 -4.0625 3.40625 -4.0625 3.8125 -3.78125 C 3.921875 -3.703125 3.9375 -3.671875 4 -3.671875 C 4.140625 -3.671875 4.28125 -3.8125 4.28125 -3.953125 C 4.28125 -4.140625 3.671875 -4.515625 2.984375 -4.515625 C 1.84375 -4.515625 0.765625 -3.84375 0.765625 -3.09375 C 0.765625 -2.65625 1.125 -2.40625 1.171875 -2.375 C 0.578125 -2.046875 0.265625 -1.5 0.265625 -1.03125 C 0.265625 -0.390625 0.828125 0.21875 1.890625 0.21875 C 3.203125 0.21875 3.765625 -0.65625 3.765625 -0.8125 C 3.765625 -0.875 3.703125 -0.90625 3.65625 -0.90625 C 3.59375 -0.90625 3.5625 -0.875 3.546875 -0.84375 C 3.40625 -0.609375 3.171875 -0.234375 1.96875 -0.234375 C 1.359375 -0.234375 0.515625 -0.390625 0.515625 -1.09375 C 0.515625 -1.4375 0.796875 -1.96875 1.40625 -2.265625 Z M 1.734375 -2.390625 C 1.96875 -2.46875 2.171875 -2.484375 2.34375 -2.484375 C 2.59375 -2.484375 2.625 -2.46875 2.8125 -2.421875 C 2.65625 -2.359375 2.640625 -2.34375 2.265625 -2.34375 C 2.046875 -2.34375 1.921875 -2.34375 1.734375 -2.390625 Z M 1.734375 -2.390625 "
               style="stroke:none;" />
          </symbol>
        </g>
      </defs>
      <g
         id="textext-ba359521-8">
        <g
           id="g6064"
           style="fill:rgb(0%,0%,0%);fill-opacity:1;">
          <use
             id="use6066"
             y="134.765"
             x="223.432"
             xlink:href="#textext-ba359521-1" />
        </g>
        <g
           id="g6068"
           style="fill:rgb(0%,0%,0%);fill-opacity:1;">
          <use
             id="use6070"
             y="136.259"
             x="231.734"
             xlink:href="#textext-ba359521-5" />
        </g>
        <g
           id="g6072"
           style="fill:rgb(0%,0%,0%);fill-opacity:1;">
          <use
             id="use6074"
             y="134.765"
             x="237.157"
             xlink:href="#textext-ba359521-2" />
        </g>
        <g
           id="g6076"
           style="fill:rgb(0%,0%,0%);fill-opacity:1;">
          <use
             id="use6078"
             y="134.765"
             x="241.032"
             xlink:href="#textext-ba359521-7" />
        </g>
        <g
           id="g6080"
           style="fill:rgb(0%,0%,0%);fill-opacity:1;">
          <use
             id="use6082"
             y="134.765"
             x="245.677"
             xlink:href="#textext-ba359521-3" />
        </g>
      </g>
    </g>
    <g
       ns0:text="$\\frac{1}{\\varepsilon n}$"
       ns0:preamble=""
       transform="matrix(1.1,0,0,1.1,-172.57483,19.366252)"
       id="g6226">
      <defs
         id="defs6228">
        <g
           id="g6230">
          <symbol
             overflow="visible"
             id="textext-19a98117-0">
            <path
               style="stroke:none;"
               d=""
               id="path6233" />
          </symbol>
          <symbol
             overflow="visible"
             id="textext-19a98117-1">
            <path
               style="stroke:none;"
               d="M 2.328125 -4.4375 C 2.328125 -4.625 2.328125 -4.625 2.125 -4.625 C 1.671875 -4.1875 1.046875 -4.1875 0.765625 -4.1875 L 0.765625 -3.9375 C 0.921875 -3.9375 1.390625 -3.9375 1.765625 -4.125 L 1.765625 -0.578125 C 1.765625 -0.34375 1.765625 -0.25 1.078125 -0.25 L 0.8125 -0.25 L 0.8125 0 C 0.9375 0 1.796875 -0.03125 2.046875 -0.03125 C 2.265625 -0.03125 3.140625 0 3.296875 0 L 3.296875 -0.25 L 3.03125 -0.25 C 2.328125 -0.25 2.328125 -0.34375 2.328125 -0.578125 L 2.328125 -4.4375 Z M 2.328125 -4.4375 "
               id="path6236" />
          </symbol>
          <symbol
             overflow="visible"
             id="textext-19a98117-2">
            <path
               style="stroke:none;"
               d=""
               id="path6239" />
          </symbol>
          <symbol
             overflow="visible"
             id="textext-19a98117-3">
            <path
               style="stroke:none;"
               d="M 1.15625 -1.546875 C 1.421875 -1.453125 1.625 -1.453125 1.828125 -1.453125 C 2.0625 -1.453125 2.46875 -1.453125 2.46875 -1.703125 C 2.46875 -1.890625 2.203125 -1.921875 1.90625 -1.921875 C 1.8125 -1.921875 1.5 -1.921875 1.15625 -1.78125 C 1 -1.859375 0.90625 -2 0.90625 -2.140625 C 0.90625 -2.515625 1.578125 -2.765625 2.28125 -2.765625 C 2.390625 -2.765625 2.6875 -2.765625 3 -2.5625 C 3.046875 -2.53125 3.09375 -2.5 3.140625 -2.5 C 3.234375 -2.5 3.359375 -2.609375 3.359375 -2.71875 C 3.359375 -2.859375 3.140625 -2.96875 3 -3.015625 C 2.703125 -3.140625 2.453125 -3.140625 2.359375 -3.140625 C 1.5 -3.140625 0.65625 -2.703125 0.65625 -2.140625 C 0.65625 -1.859375 0.921875 -1.671875 0.9375 -1.671875 C 0.671875 -1.515625 0.328125 -1.203125 0.328125 -0.765625 C 0.328125 -0.265625 0.828125 0.140625 1.609375 0.140625 C 2.65625 0.140625 3.03125 -0.484375 3.03125 -0.59375 C 3.03125 -0.640625 3 -0.6875 2.9375 -0.6875 C 2.90625 -0.6875 2.875 -0.65625 2.859375 -0.640625 C 2.6875 -0.359375 2.453125 -0.25 1.71875 -0.25 C 1.546875 -0.25 1.21875 -0.25 0.96875 -0.34375 C 0.6875 -0.453125 0.5625 -0.640625 0.5625 -0.8125 C 0.5625 -0.96875 0.6875 -1.3125 1.15625 -1.546875 Z M 1.46875 -1.671875 C 1.546875 -1.6875 1.671875 -1.734375 1.890625 -1.734375 C 2.046875 -1.734375 2.078125 -1.71875 2.21875 -1.6875 C 2.109375 -1.65625 2.09375 -1.640625 1.828125 -1.640625 C 1.734375 -1.640625 1.59375 -1.640625 1.46875 -1.671875 Z M 1.46875 -1.671875 "
               id="path6242" />
          </symbol>
          <symbol
             overflow="visible"
             id="textext-19a98117-4">
            <path
               style="stroke:none;"
               d="M 0.84375 -0.4375 C 0.828125 -0.34375 0.78125 -0.171875 0.78125 -0.15625 C 0.78125 0 0.90625 0.0625 1.015625 0.0625 C 1.140625 0.0625 1.25 -0.015625 1.296875 -0.078125 C 1.328125 -0.140625 1.375 -0.375 1.421875 -0.515625 C 1.453125 -0.640625 1.53125 -0.96875 1.5625 -1.140625 C 1.609375 -1.296875 1.65625 -1.453125 1.6875 -1.609375 C 1.765625 -1.890625 1.78125 -1.953125 1.984375 -2.234375 C 2.171875 -2.515625 2.5 -2.875 3.03125 -2.875 C 3.421875 -2.875 3.4375 -2.515625 3.4375 -2.390625 C 3.4375 -1.96875 3.140625 -1.203125 3.03125 -0.90625 C 2.953125 -0.703125 2.921875 -0.640625 2.921875 -0.53125 C 2.921875 -0.15625 3.21875 0.0625 3.578125 0.0625 C 4.28125 0.0625 4.578125 -0.890625 4.578125 -1 C 4.578125 -1.09375 4.5 -1.09375 4.46875 -1.09375 C 4.375 -1.09375 4.375 -1.046875 4.34375 -0.96875 C 4.1875 -0.40625 3.875 -0.125 3.609375 -0.125 C 3.453125 -0.125 3.421875 -0.21875 3.421875 -0.375 C 3.421875 -0.53125 3.46875 -0.625 3.59375 -0.9375 C 3.671875 -1.15625 3.953125 -1.890625 3.953125 -2.28125 C 3.953125 -2.953125 3.421875 -3.078125 3.046875 -3.078125 C 2.46875 -3.078125 2.078125 -2.71875 1.875 -2.4375 C 1.828125 -2.921875 1.421875 -3.078125 1.125 -3.078125 C 0.828125 -3.078125 0.671875 -2.859375 0.578125 -2.703125 C 0.421875 -2.4375 0.328125 -2.046875 0.328125 -2 C 0.328125 -1.921875 0.421875 -1.921875 0.453125 -1.921875 C 0.546875 -1.921875 0.546875 -1.9375 0.59375 -2.125 C 0.703125 -2.53125 0.84375 -2.875 1.109375 -2.875 C 1.296875 -2.875 1.34375 -2.71875 1.34375 -2.53125 C 1.34375 -2.40625 1.28125 -2.140625 1.21875 -1.953125 C 1.171875 -1.765625 1.109375 -1.484375 1.078125 -1.328125 L 0.84375 -0.4375 Z M 0.84375 -0.4375 "
               id="path6245" />
          </symbol>
        </g>
      </defs>
      <g
         id="textext-19a98117-5">
        <g
           style="fill:rgb(0%,0%,0%);fill-opacity:1;"
           id="g6248">
          <use
             xlink:href="#textext-19a98117-1"
             x="226.986"
             y="130.842"
             id="use6250" />
        </g>
        <path
           style="fill:none;stroke-width:0.398;stroke-linecap:butt;stroke-linejoin:miter;stroke:rgb(0%,0%,0%);stroke-opacity:1;stroke-miterlimit:10;"
           d="M 0.00090625 0.0005625 L 8.688406 0.0005625 "
           transform="matrix(1,0,0,-1,224.628,132.274)"
           id="path6252" />
        <g
           style="fill:rgb(0%,0%,0%);fill-opacity:1;"
           id="g6254">
          <use
             xlink:href="#textext-19a98117-3"
             x="224.628"
             y="138.2"
             id="use6256" />
          <use
             xlink:href="#textext-19a98117-4"
             x="228.39176"
             y="138.2"
             id="use6258" />
        </g>
      </g>
    </g>
    <g
       id="g6422"
       ns0:preamble=""
       ns0:text="$\\frac{\\varepsilon}{n}$"
       transform="matrix(1.1,0,0,1.1,-126.52618,-17.644808)">
      <defs
         id="defs6424">
        <g
           id="g6426">
          <symbol
             id="textext-619d7fc5-0"
             overflow="visible"
             style="overflow:visible">
            <path
               id="path6429"
               d=""
               style="stroke:none" />
          </symbol>
          <symbol
             id="textext-619d7fc5-1"
             overflow="visible"
             style="overflow:visible">
            <path
               id="path6432"
               d="M 1.15625,-1.546875 C 1.421875,-1.453125 1.625,-1.453125 1.828125,-1.453125 C 2.0625,-1.453125 2.46875,-1.453125 2.46875,-1.703125 C 2.46875,-1.890625 2.203125,-1.921875 1.90625,-1.921875 C 1.8125,-1.921875 1.5,-1.921875 1.15625,-1.78125 C 1,-1.859375 0.90625,-2 0.90625,-2.140625 C 0.90625,-2.515625 1.578125,-2.765625 2.28125,-2.765625 C 2.390625,-2.765625 2.6875,-2.765625 3,-2.5625 C 3.046875,-2.53125 3.09375,-2.5 3.140625,-2.5 C 3.234375,-2.5 3.359375,-2.609375 3.359375,-2.71875 C 3.359375,-2.859375 3.140625,-2.96875 3,-3.015625 C 2.703125,-3.140625 2.453125,-3.140625 2.359375,-3.140625 C 1.5,-3.140625 0.65625,-2.703125 0.65625,-2.140625 C 0.65625,-1.859375 0.921875,-1.671875 0.9375,-1.671875 C 0.671875,-1.515625 0.328125,-1.203125 0.328125,-0.765625 C 0.328125,-0.265625 0.828125,0.140625 1.609375,0.140625 C 2.65625,0.140625 3.03125,-0.484375 3.03125,-0.59375 C 3.03125,-0.640625 3,-0.6875 2.9375,-0.6875 C 2.90625,-0.6875 2.875,-0.65625 2.859375,-0.640625 C 2.6875,-0.359375 2.453125,-0.25 1.71875,-0.25 C 1.546875,-0.25 1.21875,-0.25 0.96875,-0.34375 C 0.6875,-0.453125 0.5625,-0.640625 0.5625,-0.8125 C 0.5625,-0.96875 0.6875,-1.3125 1.15625,-1.546875 z M 1.46875,-1.671875 C 1.546875,-1.6875 1.671875,-1.734375 1.890625,-1.734375 C 2.046875,-1.734375 2.078125,-1.71875 2.21875,-1.6875 C 2.109375,-1.65625 2.09375,-1.640625 1.828125,-1.640625 C 1.734375,-1.640625 1.59375,-1.640625 1.46875,-1.671875 z"
               style="stroke:none" />
          </symbol>
          <symbol
             id="textext-619d7fc5-2"
             overflow="visible"
             style="overflow:visible">
            <path
               id="path6435"
               d="M 0.84375,-0.4375 C 0.828125,-0.34375 0.78125,-0.171875 0.78125,-0.15625 C 0.78125,0 0.90625,0.0625 1.015625,0.0625 C 1.140625,0.0625 1.25,-0.015625 1.296875,-0.078125 C 1.328125,-0.140625 1.375,-0.375 1.421875,-0.515625 C 1.453125,-0.640625 1.53125,-0.96875 1.5625,-1.140625 C 1.609375,-1.296875 1.65625,-1.453125 1.6875,-1.609375 C 1.765625,-1.890625 1.78125,-1.953125 1.984375,-2.234375 C 2.171875,-2.515625 2.5,-2.875 3.03125,-2.875 C 3.421875,-2.875 3.4375,-2.515625 3.4375,-2.390625 C 3.4375,-1.96875 3.140625,-1.203125 3.03125,-0.90625 C 2.953125,-0.703125 2.921875,-0.640625 2.921875,-0.53125 C 2.921875,-0.15625 3.21875,0.0625 3.578125,0.0625 C 4.28125,0.0625 4.578125,-0.890625 4.578125,-1 C 4.578125,-1.09375 4.5,-1.09375 4.46875,-1.09375 C 4.375,-1.09375 4.375,-1.046875 4.34375,-0.96875 C 4.1875,-0.40625 3.875,-0.125 3.609375,-0.125 C 3.453125,-0.125 3.421875,-0.21875 3.421875,-0.375 C 3.421875,-0.53125 3.46875,-0.625 3.59375,-0.9375 C 3.671875,-1.15625 3.953125,-1.890625 3.953125,-2.28125 C 3.953125,-2.953125 3.421875,-3.078125 3.046875,-3.078125 C 2.46875,-3.078125 2.078125,-2.71875 1.875,-2.4375 C 1.828125,-2.921875 1.421875,-3.078125 1.125,-3.078125 C 0.828125,-3.078125 0.671875,-2.859375 0.578125,-2.703125 C 0.421875,-2.4375 0.328125,-2.046875 0.328125,-2 C 0.328125,-1.921875 0.421875,-1.921875 0.453125,-1.921875 C 0.546875,-1.921875 0.546875,-1.9375 0.59375,-2.125 C 0.703125,-2.53125 0.84375,-2.875 1.109375,-2.875 C 1.296875,-2.875 1.34375,-2.71875 1.34375,-2.53125 C 1.34375,-2.40625 1.28125,-2.140625 1.21875,-1.953125 C 1.171875,-1.765625 1.109375,-1.484375 1.078125,-1.328125 L 0.84375,-0.4375 z"
               style="stroke:none" />
          </symbol>
        </g>
      </defs>
      <g
         id="textext-619d7fc5-3">
        <g
           id="g6438"
           style="fill:#000000;fill-opacity:1">
          <use
             id="use6440"
             y="130.842"
             x="225.20799"
             xlink:href="#textext-619d7fc5-1"
             width="177.16534"
             height="212.59842" />
        </g>
        <path
           id="path6442"
           transform="matrix(1,0,0,-1,224.628,132.274)"
           d="M 0.00090625,0.0005625 L 4.926687,0.0005625"
           style="fill:none;stroke:#000000;stroke-width:0.398;stroke-linecap:butt;stroke-linejoin:miter;stroke-miterlimit:10;stroke-opacity:1" />
        <g
           id="g6444"
           style="fill:#000000;fill-opacity:1">
          <use
             id="use6446"
             y="138.2"
             x="224.62801"
             xlink:href="#textext-619d7fc5-2"
             width="177.16534"
             height="212.59842" />
        </g>
      </g>
    </g>
    <path
       style="fill:none;fill-rule:evenodd;stroke:#7f7f7f;stroke-width:1px;stroke-linecap:butt;stroke-linejoin:miter;stroke-opacity:1;fill-opacity:1"
       d="M 143.84822,100.59692 L 37.764193,100.59692"
       id="path6583" />
  </g>
</svg>
