<?xml version="1.0" encoding="UTF-8" standalone="no"?>
<!-- Created with Inkscape (http://www.inkscape.org/) -->

<svg
   xmlns:ns0="http://www.iki.fi/pav/software/textext/"
   xmlns:dc="http://purl.org/dc/elements/1.1/"
   xmlns:cc="http://creativecommons.org/ns#"
   xmlns:rdf="http://www.w3.org/1999/02/22-rdf-syntax-ns#"
   xmlns:svg="http://www.w3.org/2000/svg"
   xmlns="http://www.w3.org/2000/svg"
   xmlns:xlink="http://www.w3.org/1999/xlink"
   xmlns:sodipodi="http://sodipodi.sourceforge.net/DTD/sodipodi-0.dtd"
   xmlns:inkscape="http://www.inkscape.org/namespaces/inkscape"
   width="283.46457"
   height="283.46457"
   id="svg2"
   version="1.1"
   inkscape:version="0.47 r22583"
   sodipodi:docname="fig15-1.eps">
  <sodipodi:namedview
     id="base"
     pagecolor="#ffffff"
     bordercolor="#666666"
     borderopacity="1.0"
     inkscape:pageopacity="0.0"
     inkscape:pageshadow="2"
     inkscape:zoom="1.6756944"
     inkscape:cx="141.73228"
     inkscape:cy="141.73228"
     inkscape:document-units="cm"
     inkscape:current-layer="layer1"
     showgrid="false"
     units="cm"
     inkscape:snap-global="true"
     inkscape:window-width="645"
     inkscape:window-height="697"
     inkscape:window-x="0"
     inkscape:window-y="0"
     inkscape:window-maximized="0">
    <inkscape:grid
       type="xygrid"
       id="grid2816"
       empspacing="5"
       visible="true"
       enabled="true"
       snapvisiblegridlinesonly="true" />
  </sodipodi:namedview>
  <defs
     id="defs4">
    <inkscape:perspective
       sodipodi:type="inkscape:persp3d"
       inkscape:vp_x="0 : 526.18109 : 1"
       inkscape:vp_y="0 : 1000 : 0"
       inkscape:vp_z="744.09448 : 526.18109 : 1"
       inkscape:persp3d-origin="372.04724 : 350.78739 : 1"
       id="perspective10" />
    <inkscape:perspective
       id="perspective2832"
       inkscape:persp3d-origin="0.5 : 0.33333333 : 1"
       inkscape:vp_z="1 : 0.5 : 1"
       inkscape:vp_y="0 : 1000 : 0"
       inkscape:vp_x="0 : 0.5 : 1"
       sodipodi:type="inkscape:persp3d" />
    <inkscape:perspective
       id="perspective2860"
       inkscape:persp3d-origin="0.5 : 0.33333333 : 1"
       inkscape:vp_z="1 : 0.5 : 1"
       inkscape:vp_y="0 : 1000 : 0"
       inkscape:vp_x="0 : 0.5 : 1"
       sodipodi:type="inkscape:persp3d" />
    <inkscape:perspective
       id="perspective2860-3"
       inkscape:persp3d-origin="0.5 : 0.33333333 : 1"
       inkscape:vp_z="1 : 0.5 : 1"
       inkscape:vp_y="0 : 1000 : 0"
       inkscape:vp_x="0 : 0.5 : 1"
       sodipodi:type="inkscape:persp3d" />
    <inkscape:perspective
       id="perspective2860-0"
       inkscape:persp3d-origin="0.5 : 0.33333333 : 1"
       inkscape:vp_z="1 : 0.5 : 1"
       inkscape:vp_y="0 : 1000 : 0"
       inkscape:vp_x="0 : 0.5 : 1"
       sodipodi:type="inkscape:persp3d" />
    <inkscape:perspective
       id="perspective2860-6"
       inkscape:persp3d-origin="0.5 : 0.33333333 : 1"
       inkscape:vp_z="1 : 0.5 : 1"
       inkscape:vp_y="0 : 1000 : 0"
       inkscape:vp_x="0 : 0.5 : 1"
       sodipodi:type="inkscape:persp3d" />
    <inkscape:perspective
       id="perspective2860-8"
       inkscape:persp3d-origin="0.5 : 0.33333333 : 1"
       inkscape:vp_z="1 : 0.5 : 1"
       inkscape:vp_y="0 : 1000 : 0"
       inkscape:vp_x="0 : 0.5 : 1"
       sodipodi:type="inkscape:persp3d" />
    <inkscape:perspective
       id="perspective2918"
       inkscape:persp3d-origin="0.5 : 0.33333333 : 1"
       inkscape:vp_z="1 : 0.5 : 1"
       inkscape:vp_y="0 : 1000 : 0"
       inkscape:vp_x="0 : 0.5 : 1"
       sodipodi:type="inkscape:persp3d" />
    <inkscape:perspective
       id="perspective2918-9"
       inkscape:persp3d-origin="0.5 : 0.33333333 : 1"
       inkscape:vp_z="1 : 0.5 : 1"
       inkscape:vp_y="0 : 1000 : 0"
       inkscape:vp_x="0 : 0.5 : 1"
       sodipodi:type="inkscape:persp3d" />
    <inkscape:perspective
       id="perspective2918-1"
       inkscape:persp3d-origin="0.5 : 0.33333333 : 1"
       inkscape:vp_z="1 : 0.5 : 1"
       inkscape:vp_y="0 : 1000 : 0"
       inkscape:vp_x="0 : 0.5 : 1"
       sodipodi:type="inkscape:persp3d" />
    <inkscape:perspective
       id="perspective3058"
       inkscape:persp3d-origin="0.5 : 0.33333333 : 1"
       inkscape:vp_z="1 : 0.5 : 1"
       inkscape:vp_y="0 : 1000 : 0"
       inkscape:vp_x="0 : 0.5 : 1"
       sodipodi:type="inkscape:persp3d" />
    <inkscape:perspective
       id="perspective3180"
       inkscape:persp3d-origin="0.5 : 0.33333333 : 1"
       inkscape:vp_z="1 : 0.5 : 1"
       inkscape:vp_y="0 : 1000 : 0"
       inkscape:vp_x="0 : 0.5 : 1"
       sodipodi:type="inkscape:persp3d" />
    <inkscape:perspective
       id="perspective3180-4"
       inkscape:persp3d-origin="0.5 : 0.33333333 : 1"
       inkscape:vp_z="1 : 0.5 : 1"
       inkscape:vp_y="0 : 1000 : 0"
       inkscape:vp_x="0 : 0.5 : 1"
       sodipodi:type="inkscape:persp3d" />
    <inkscape:perspective
       sodipodi:type="inkscape:persp3d"
       inkscape:vp_x="0 : 0.5 : 1"
       inkscape:vp_y="0 : 1000 : 0"
       inkscape:vp_z="1 : 0.5 : 1"
       inkscape:persp3d-origin="0.5 : 0.33333333 : 1"
       id="perspective3390" />
    <inkscape:perspective
       id="perspective3390-4"
       inkscape:persp3d-origin="0.5 : 0.33333333 : 1"
       inkscape:vp_z="1 : 0.5 : 1"
       inkscape:vp_y="0 : 1000 : 0"
       inkscape:vp_x="0 : 0.5 : 1"
       sodipodi:type="inkscape:persp3d" />
    <inkscape:perspective
       sodipodi:type="inkscape:persp3d"
       inkscape:vp_x="0 : 0.5 : 1"
       inkscape:vp_y="0 : 1000 : 0"
       inkscape:vp_z="1 : 0.5 : 1"
       inkscape:persp3d-origin="0.5 : 0.33333333 : 1"
       id="perspective3928" />
  </defs>
  <metadata
     id="metadata7">
    <rdf:RDF>
      <cc:Work
         rdf:about="">
        <dc:format>image/svg+xml</dc:format>
        <dc:type
           rdf:resource="http://purl.org/dc/dcmitype/StillImage" />
        <dc:title></dc:title>
      </cc:Work>
    </rdf:RDF>
  </metadata>
  <g
     inkscape:label="Layer 1"
     inkscape:groupmode="layer"
     id="layer1"
     transform="translate(0,-768.89631)">
    <path
       style="fill:none;stroke:#000000;stroke-width:1px;stroke-linecap:butt;stroke-linejoin:miter;stroke-opacity:1"
       d="M 85,28.464569 85,233.46457"
       id="path2818"
       transform="translate(0,768.89631)" />
    <path
       style="fill:none;stroke:#000000;stroke-width:1px;stroke-linecap:butt;stroke-linejoin:miter;stroke-opacity:1"
       d="m 55,128.46457 150.9211,0"
       id="path2820"
       transform="translate(0,768.89631)"
       sodipodi:nodetypes="cc" />
    <path
       style="fill:none;stroke:#000000;stroke-width:1px;stroke-linecap:butt;stroke-linejoin:miter;stroke-opacity:1"
       d="M 156.74263,33.583299 85,128.46457 l 75,100"
       id="path2822"
       transform="translate(0,768.89631)"
       sodipodi:nodetypes="ccc" />
    <path
       style="fill:none;stroke:#000000;stroke-width:1px;stroke-linecap:butt;stroke-linejoin:miter;stroke-opacity:1"
       d="M 193.01991,840.61825 85,897.36088 l 115,60"
       id="path2822-0"
       sodipodi:nodetypes="ccc" />
    <path
       style="fill:none;stroke:#000000;stroke-width:1px;stroke-linecap:butt;stroke-linejoin:miter;stroke-opacity:1"
       d="m 170.349,83.929908 c 0,-15 -10.349,-30.465339 -25.349,-35.465339 l 0,0"
       id="path2846"
       transform="translate(0,768.89631)"
       sodipodi:nodetypes="ccc" />
    <g
       id="g2985">
      <path
         sodipodi:nodetypes="cc"
         transform="translate(0,768.89631)"
         id="path2848"
         d="M 130.98713,130.50317 105,223.46457"
         style="fill:none;stroke:#000000;stroke-width:1px;stroke-linecap:butt;stroke-linejoin:miter;stroke-opacity:1" />
      <path
         transform="translate(0,768.89631)"
         id="path2850"
         d="m 127.26433,143.32047 58.2656,15.33305"
         style="fill:none;stroke:#000000;stroke-width:1px;stroke-linecap:butt;stroke-linejoin:miter;stroke-opacity:1" />
      <path
         id="path2850-9"
         d="m 126.34435,915.43672 58.2656,15.33305"
         style="fill:none;stroke:#000000;stroke-width:1px;stroke-linecap:butt;stroke-linejoin:miter;stroke-opacity:1" />
      <path
         id="path2850-6"
         d="m 125.42437,918.35 58.2656,15.33305"
         style="fill:none;stroke:#000000;stroke-width:1px;stroke-linecap:butt;stroke-linejoin:miter;stroke-opacity:1" />
      <path
         id="path2850-62"
         d="m 124.96438,921.72328 58.2656,15.33305"
         style="fill:none;stroke:#000000;stroke-width:1px;stroke-linecap:butt;stroke-linejoin:miter;stroke-opacity:1" />
      <path
         id="path2850-1"
         d="M 123.5844,925.24987 181.85,940.58292"
         style="fill:none;stroke:#000000;stroke-width:1px;stroke-linecap:butt;stroke-linejoin:miter;stroke-opacity:1" />
      <path
         id="path2850-7"
         d="m 122.35776,928.62315 58.2656,15.33305"
         style="fill:none;stroke:#000000;stroke-width:1px;stroke-linecap:butt;stroke-linejoin:miter;stroke-opacity:1" />
      <path
         id="path2850-92"
         d="m 121.28444,932.22642 58.2656,15.33305"
         style="fill:none;stroke:#000000;stroke-width:1px;stroke-linecap:butt;stroke-linejoin:miter;stroke-opacity:1" />
      <path
         id="path2850-9-0"
         d="m 120.36446,935.44636 58.2656,15.33305"
         style="fill:none;stroke:#000000;stroke-width:1px;stroke-linecap:butt;stroke-linejoin:miter;stroke-opacity:1" />
      <path
         id="path2850-6-2"
         d="m 119.44448,938.35964 58.2656,15.33305"
         style="fill:none;stroke:#000000;stroke-width:1px;stroke-linecap:butt;stroke-linejoin:miter;stroke-opacity:1" />
      <path
         id="path2850-62-3"
         d="m 118.98449,941.73292 58.2656,15.33305"
         style="fill:none;stroke:#000000;stroke-width:1px;stroke-linecap:butt;stroke-linejoin:miter;stroke-opacity:1" />
      <path
         id="path2850-1-7"
         d="m 117.60451,945.25951 58.2656,15.33305"
         style="fill:none;stroke:#000000;stroke-width:1px;stroke-linecap:butt;stroke-linejoin:miter;stroke-opacity:1" />
      <path
         id="path2850-7-5"
         d="m 116.68453,948.78612 58.2656,15.33305"
         style="fill:none;stroke:#000000;stroke-width:1px;stroke-linecap:butt;stroke-linejoin:miter;stroke-opacity:1" />
      <path
         id="path2850-2"
         d="m 115.76454,952.00605 58.2656,15.33305"
         style="fill:none;stroke:#000000;stroke-width:1px;stroke-linecap:butt;stroke-linejoin:miter;stroke-opacity:1" />
      <path
         id="path2850-9-2"
         d="m 114.84456,955.22599 58.2656,15.33305"
         style="fill:none;stroke:#000000;stroke-width:1px;stroke-linecap:butt;stroke-linejoin:miter;stroke-opacity:1" />
      <path
         id="path2850-6-8"
         d="m 113.92458,958.13927 58.2656,15.33305"
         style="fill:none;stroke:#000000;stroke-width:1px;stroke-linecap:butt;stroke-linejoin:miter;stroke-opacity:1" />
      <path
         id="path2850-62-9"
         d="m 113.46459,961.51255 58.2656,15.33305"
         style="fill:none;stroke:#000000;stroke-width:1px;stroke-linecap:butt;stroke-linejoin:miter;stroke-opacity:1" />
      <path
         id="path2850-1-73"
         d="m 112.08461,965.03914 58.2656,15.33305"
         style="fill:none;stroke:#000000;stroke-width:1px;stroke-linecap:butt;stroke-linejoin:miter;stroke-opacity:1" />
      <path
         id="path2850-7-6"
         d="m 111.31796,968.87241 58.2656,15.33305"
         style="fill:none;stroke:#000000;stroke-width:1px;stroke-linecap:butt;stroke-linejoin:miter;stroke-opacity:1" />
      <path
         id="path2850-29"
         d="m 110.24465,972.09235 58.2656,15.33305"
         style="fill:none;stroke:#000000;stroke-width:1px;stroke-linecap:butt;stroke-linejoin:miter;stroke-opacity:1" />
      <path
         id="path2850-9-3"
         d="m 109.32467,975.31229 58.2656,15.33305"
         style="fill:none;stroke:#000000;stroke-width:1px;stroke-linecap:butt;stroke-linejoin:miter;stroke-opacity:1" />
      <path
         id="path2850-6-1"
         d="m 108.40469,978.22557 58.2656,15.33305"
         style="fill:none;stroke:#000000;stroke-width:1px;stroke-linecap:butt;stroke-linejoin:miter;stroke-opacity:1" />
      <path
         id="path2850-62-94"
         d="m 107.9447,981.59885 58.2656,15.33305"
         style="fill:none;stroke:#000000;stroke-width:1px;stroke-linecap:butt;stroke-linejoin:miter;stroke-opacity:1" />
      <path
         id="path2850-1-78"
         d="m 106.56472,985.12544 58.2656,15.33306"
         style="fill:none;stroke:#000000;stroke-width:1px;stroke-linecap:butt;stroke-linejoin:miter;stroke-opacity:1" />
      <path
         id="path2850-7-4"
         d="m 105.79807,988.80538 58.2656,15.33312"
         style="fill:none;stroke:#000000;stroke-width:1px;stroke-linecap:butt;stroke-linejoin:miter;stroke-opacity:1" />
    </g>
    <path
       sodipodi:nodetypes="cc"
       style="fill:none;stroke:#000000;stroke-width:1px;stroke-linecap:butt;stroke-linejoin:miter;stroke-opacity:1"
       d="M 154.53272,898.30329 88.022772,994.18701"
       id="path2848-0" />
    <path
       style="fill:none;stroke:#000000;stroke-width:1px;stroke-linecap:butt;stroke-linejoin:miter;stroke-opacity:1"
       d="m 142.18371,915.30543 50.20716,33.305"
       id="path2850-3" />
    <path
       style="fill:none;stroke:#000000;stroke-width:1px;stroke-linecap:butt;stroke-linejoin:miter;stroke-opacity:1"
       d="m 140.27442,918.05662 50.20717,33.305"
       id="path2850-9-6" />
    <path
       style="fill:none;stroke:#000000;stroke-width:1px;stroke-linecap:butt;stroke-linejoin:miter;stroke-opacity:1"
       d="m 138.46404,920.51752 50.20716,33.30501"
       id="path2850-6-10" />
    <path
       style="fill:none;stroke:#000000;stroke-width:1px;stroke-linecap:butt;stroke-linejoin:miter;stroke-opacity:1"
       d="m 136.94071,923.5622 50.20716,33.30501"
       id="path2850-62-6" />
    <path
       style="fill:none;stroke:#000000;stroke-width:1px;stroke-linecap:butt;stroke-linejoin:miter;stroke-opacity:1"
       d="m 134.49711,926.4553 50.20716,33.305"
       id="path2850-1-3" />
    <path
       style="fill:none;stroke:#000000;stroke-width:1px;stroke-linecap:butt;stroke-linejoin:miter;stroke-opacity:1"
       d="m 132.24809,929.25272 50.20717,33.30501"
       id="path2850-7-2" />
    <path
       style="fill:none;stroke:#000000;stroke-width:1px;stroke-linecap:butt;stroke-linejoin:miter;stroke-opacity:1"
       d="m 130.07003,932.3173 50.20717,33.305"
       id="path2850-92-0" />
    <path
       style="fill:none;stroke:#000000;stroke-width:1px;stroke-linecap:butt;stroke-linejoin:miter;stroke-opacity:1"
       d="m 128.16075,935.06848 50.20716,33.305"
       id="path2850-9-0-6" />
    <path
       style="fill:none;stroke:#000000;stroke-width:1px;stroke-linecap:butt;stroke-linejoin:miter;stroke-opacity:1"
       d="m 126.35036,937.52939 50.20717,33.305"
       id="path2850-6-2-1" />
    <path
       style="fill:none;stroke:#000000;stroke-width:1px;stroke-linecap:butt;stroke-linejoin:miter;stroke-opacity:1"
       d="m 124.82703,940.57407 50.20717,33.305"
       id="path2850-62-3-5" />
    <path
       style="fill:none;stroke:#000000;stroke-width:1px;stroke-linecap:butt;stroke-linejoin:miter;stroke-opacity:1"
       d="m 122.38343,943.46716 50.20716,33.30501"
       id="path2850-1-7-5" />
    <path
       style="fill:none;stroke:#000000;stroke-width:1px;stroke-linecap:butt;stroke-linejoin:miter;stroke-opacity:1"
       d="m 120.37524,946.50863 50.20716,33.305"
       id="path2850-7-5-4" />
    <path
       style="fill:none;stroke:#000000;stroke-width:1px;stroke-linecap:butt;stroke-linejoin:miter;stroke-opacity:1"
       d="m 118.46595,949.2598 50.20716,33.305"
       id="path2850-2-7" />
    <path
       style="fill:none;stroke:#000000;stroke-width:1px;stroke-linecap:butt;stroke-linejoin:miter;stroke-opacity:1"
       d="m 116.55666,952.01098 50.20717,33.305"
       id="path2850-9-2-6" />
    <path
       style="fill:none;stroke:#000000;stroke-width:1px;stroke-linecap:butt;stroke-linejoin:miter;stroke-opacity:1"
       d="m 114.74628,954.47189 50.20716,33.305"
       id="path2850-6-8-5" />
    <path
       style="fill:none;stroke:#000000;stroke-width:1px;stroke-linecap:butt;stroke-linejoin:miter;stroke-opacity:1"
       d="m 113.22295,957.51657 50.20716,33.305"
       id="path2850-62-9-6" />
    <path
       style="fill:none;stroke:#000000;stroke-width:1px;stroke-linecap:butt;stroke-linejoin:miter;stroke-opacity:1"
       d="m 110.77934,960.40966 50.20717,33.30501"
       id="path2850-1-73-9" />
    <path
       style="fill:none;stroke:#000000;stroke-width:1px;stroke-linecap:butt;stroke-linejoin:miter;stroke-opacity:1"
       d="m 108.81739,963.79085 50.20716,33.30501"
       id="path2850-7-6-3" />
    <path
       style="fill:none;stroke:#000000;stroke-width:1px;stroke-linecap:butt;stroke-linejoin:miter;stroke-opacity:1"
       d="m 106.76297,966.49258 50.20716,33.30501"
       id="path2850-29-7" />
    <path
       style="fill:none;stroke:#000000;stroke-width:1px;stroke-linecap:butt;stroke-linejoin:miter;stroke-opacity:1"
       d="m 104.85368,969.24377 50.20717,33.30503"
       id="path2850-9-3-4" />
    <path
       style="fill:none;stroke:#000000;stroke-width:1px;stroke-linecap:butt;stroke-linejoin:miter;stroke-opacity:1"
       d="m 103.0433,971.70468 50.20716,33.30502"
       id="path2850-6-1-5" />
    <path
       style="fill:none;stroke:#000000;stroke-width:1px;stroke-linecap:butt;stroke-linejoin:miter;stroke-opacity:1"
       d="m 101.51997,974.74936 50.20716,33.30504"
       id="path2850-62-94-2" />
    <path
       style="fill:none;stroke:#000000;stroke-width:1px;stroke-linecap:butt;stroke-linejoin:miter;stroke-opacity:1"
       d="m 99.076364,977.64245 50.207166,33.30505"
       id="path2850-1-78-5" />
    <path
       style="fill:none;stroke:#000000;stroke-width:1px;stroke-linecap:butt;stroke-linejoin:miter;stroke-opacity:1"
       d="M 97.163861,980.8785 147.371,1014.1836"
       id="path2850-7-4-4" />
    <path
       style="fill:none;stroke:#000000;stroke-width:1px;stroke-linecap:butt;stroke-linejoin:miter;stroke-opacity:1"
       d="m 144.17332,912.58396 50.20716,33.305"
       id="path2850-3-7" />
    <path
       style="fill:none;stroke:#000000;stroke-width:1px;stroke-linecap:butt;stroke-linejoin:miter;stroke-opacity:1"
       d="m 146.31995,909.97735 50.20716,33.305"
       id="path2850-3-4" />
    <g
       transform="matrix(1.2,0,0,1.2,-104.30405,640.3674)"
       ns0:text="$\\beta$"
       ns0:preamble="/home/manju/Documents/ubm/preamble.tex"
       id="g3280">
      <defs
         id="defs3282">
        <g
           id="g3284">
          <symbol
             style="overflow:visible"
             overflow="visible"
             id="textext-2059d29d-0">
            <path
               style="stroke:none"
               d=""
               id="path3287" />
          </symbol>
          <symbol
             style="overflow:visible"
             overflow="visible"
             id="textext-2059d29d-1">
            <path
               style="stroke:none"
               d="M 0.28125,1.6875 C 0.265625,1.71875 0.25,1.78125 0.25,1.828125 0.25,1.9375 0.34375,1.9375 0.375,1.9375 0.421875,1.9375 0.4375,1.921875 0.46875,1.890625 0.515625,1.84375 0.796875,0.5625 1.21875,-1.046875 1.375,-0.46875 1.890625,0.125 2.828125,0.125 c 1.3125,0 2.640625,-1.34375 2.640625,-2.75 0,-0.71875 -0.3125,-1.15625 -0.65625,-1.390625 C 5.5,-4.4375 5.875,-5.140625 5.875,-5.75 c 0,-0.65625 -0.453125,-1.28125 -1.328125,-1.28125 -1.296875,0 -2.421875,1.375 -2.75,2.671875 L 0.28125,1.6875 z M 3.265625,-4 C 3.375,-4.046875 3.4375,-4.078125 3.78125,-4.078125 c 0.140625,0 0.265625,0 0.390625,0.0625 C 4,-3.9375 3.78125,-3.9375 3.703125,-3.9375 c -0.25,0 -0.265625,0 -0.4375,-0.0625 z m 1.21875,-0.203125 c -0.28125,-0.09375 -0.59375,-0.09375 -0.6875,-0.09375 -0.234375,0 -0.78125,0 -0.78125,0.3125 0,0.265625 0.4375,0.265625 0.6875,0.265625 0.140625,0 0.421875,0 0.75,-0.125 C 4.671875,-3.625 4.75,-3.328125 4.75,-3.015625 c 0,0.40625 -0.203125,1.34375 -0.5,1.890625 -0.21875,0.421875 -0.734375,1.03125 -1.453125,1.03125 -0.890625,0 -1.390625,-0.65625 -1.390625,-1.46875 0,-0.234375 0.046875,-0.375 0.125,-0.734375 C 1.625,-2.671875 1.9375,-3.921875 2,-4.140625 2.46875,-5.984375 3.65625,-6.8125 4.53125,-6.8125 4.828125,-6.8125 5.25,-6.65625 5.25,-6 c 0,0.234375 -0.109375,1.3125 -0.765625,1.796875 z m 0,0"
               id="path3290" />
          </symbol>
        </g>
      </defs>
      <g
         id="textext-2059d29d-2">
        <g
           style="fill:#000000;fill-opacity:1"
           id="g3293">
          <use
             height="283.46457"
             width="283.46457"
             xlink:href="#textext-2059d29d-1"
             x="223.4321"
             y="134.76469"
             id="use3295" />
        </g>
      </g>
    </g>
    <g
       id="g3519"
       transform="matrix(1.2,0,0,1.2,-67.699029,682.4438)"
       ns0:preamble="/home/manju/Documents/ubm/preamble.tex"
       ns0:text="$\\alpha$">
      <defs
         id="defs3521">
        <g
           id="g3523">
          <symbol
             id="textext-f475e870-0"
             overflow="visible"
             style="overflow:visible">
            <path
               id="path3526"
               d=""
               style="stroke:none" />
          </symbol>
          <symbol
             id="textext-f475e870-1"
             overflow="visible"
             style="overflow:visible">
            <path
               id="path3529"
               d="m 4.75,-2.359375 c 0,-1.5625 -0.921875,-2.046875 -1.65625,-2.046875 -1.375,0 -2.6875,1.421875 -2.6875,2.828125 0,0.9375 0.59375,1.6875 1.625,1.6875 0.625,0 1.34375,-0.234375 2.09375,-0.84375 0.125,0.53125 0.453125,0.84375 0.90625,0.84375 0.53125,0 0.84375,-0.546875 0.84375,-0.703125 0,-0.078125 -0.0625,-0.109375 -0.125,-0.109375 -0.0625,0 -0.09375,0.03125 -0.125,0.109375 -0.1875,0.484375 -0.546875,0.484375 -0.5625,0.484375 -0.3125,0 -0.3125,-0.78125 -0.3125,-1.015625 0,-0.203125 0,-0.234375 0.109375,-0.34375 C 5.796875,-2.65625 6,-3.8125 6,-3.8125 6,-3.84375 5.984375,-3.921875 5.875,-3.921875 c -0.09375,0 -0.09375,0.03125 -0.140625,0.21875 -0.1875,0.625 -0.515625,1.375 -0.984375,1.96875 l 0,-0.625 z m -0.65625,1.375 c -0.890625,0.765625 -1.65625,0.875 -2.046875,0.875 -0.59375,0 -0.90625,-0.453125 -0.90625,-1.09375 0,-0.484375 0.265625,-1.5625 0.578125,-2.0625 C 2.1875,-4 2.734375,-4.1875 3.078125,-4.1875 c 0.984375,0 0.984375,1.3125 0.984375,2.078125 0,0.375 0,0.953125 0.03125,1.125 z m 0,0"
               style="stroke:none" />
          </symbol>
        </g>
      </defs>
      <g
         id="textext-f475e870-2">
        <g
           id="g3532"
           style="fill:#000000;fill-opacity:1">
          <use
             id="use3534"
             y="134.76469"
             x="223.4321"
             xlink:href="#textext-f475e870-1"
             width="283.46457"
             height="283.46457" />
        </g>
      </g>
    </g>
    <g
       ns0:text="$h(x)$"
       ns0:preamble="/home/manju/Documents/ubm/preamble.tex"
       transform="matrix(1.159111,0.31058285,-0.31058285,1.159111,-112.97177,680.09233)"
       id="g3758">
      <defs
         id="defs3760">
        <g
           id="g3762">
          <symbol
             style="overflow:visible"
             overflow="visible"
             id="textext-eecf1b2d-0">
            <path
               style="stroke:none"
               d=""
               id="path3765" />
          </symbol>
          <symbol
             style="overflow:visible"
             overflow="visible"
             id="textext-eecf1b2d-1">
            <path
               style="stroke:none"
               d="m 2.859375,-6.8125 c 0,0 0,-0.109375 -0.125,-0.109375 -0.234375,0 -0.953125,0.078125 -1.21875,0.109375 -0.078125,0 -0.1875,0.015625 -0.1875,0.1875 0,0.125 0.09375,0.125 0.234375,0.125 0.484375,0 0.5,0.0625 0.5,0.171875 L 2.03125,-6.125 0.59375,-0.390625 c -0.046875,0.140625 -0.046875,0.15625 -0.046875,0.21875 0,0.234375 0.203125,0.28125 0.296875,0.28125 0.15625,0 0.3125,-0.125 0.359375,-0.265625 l 0.1875,-0.75 C 1.46875,-1.203125 1.546875,-1.5 1.609375,-1.796875 1.671875,-2.03125 1.734375,-2.25 1.78125,-2.46875 1.796875,-2.53125 1.890625,-2.859375 1.890625,-2.921875 1.921875,-3.015625 2.234375,-3.5625 2.578125,-3.84375 2.796875,-4 3.09375,-4.1875 3.53125,-4.1875 c 0.421875,0 0.53125,0.34375 0.53125,0.703125 0,0.53125 -0.375,1.625 -0.609375,2.234375 C 3.375,-1.03125 3.3125,-0.90625 3.3125,-0.703125 c 0,0.46875 0.359375,0.8125 0.828125,0.8125 0.9375,0 1.296875,-1.453125 1.296875,-1.53125 0,-0.109375 -0.078125,-0.109375 -0.109375,-0.109375 -0.109375,0 -0.109375,0.03125 -0.15625,0.1875 -0.140625,0.53125 -0.46875,1.234375 -1.015625,1.234375 -0.171875,0 -0.234375,-0.09375 -0.234375,-0.328125 0,-0.25 0.078125,-0.484375 0.171875,-0.703125 0.15625,-0.4375 0.609375,-1.625 0.609375,-2.203125 0,-0.640625 -0.390625,-1.0625 -1.140625,-1.0625 -0.625,0 -1.109375,0.3125 -1.484375,0.765625 L 2.859375,-6.8125 z m 0,0"
               id="path3768" />
          </symbol>
          <symbol
             style="overflow:visible"
             overflow="visible"
             id="textext-eecf1b2d-2">
            <path
               style="stroke:none"
               d="M 3.328125,-3.015625 C 3.390625,-3.265625 3.625,-4.1875 4.3125,-4.1875 c 0.046875,0 0.296875,0 0.5,0.125 C 4.53125,-4 4.34375,-3.765625 4.34375,-3.515625 c 0,0.15625 0.109375,0.34375 0.375,0.34375 0.21875,0 0.53125,-0.171875 0.53125,-0.578125 0,-0.515625 -0.578125,-0.65625 -0.921875,-0.65625 -0.578125,0 -0.921875,0.53125 -1.046875,0.75 -0.25,-0.65625 -0.78125,-0.75 -1.078125,-0.75 -1.03125,0 -1.609375,1.28125 -1.609375,1.53125 0,0.109375 0.109375,0.109375 0.125,0.109375 0.078125,0 0.109375,-0.03125 0.125,-0.109375 0.34375,-1.0625 1,-1.3125 1.34375,-1.3125 0.1875,0 0.53125,0.09375 0.53125,0.671875 0,0.3125 -0.171875,0.96875 -0.53125,2.375 -0.15625,0.609375 -0.515625,1.03125 -0.953125,1.03125 -0.0625,0 -0.28125,0 -0.5,-0.125 0.25,-0.0625 0.46875,-0.265625 0.46875,-0.546875 0,-0.265625 -0.21875,-0.34375 -0.359375,-0.34375 -0.3125,0 -0.546875,0.25 -0.546875,0.578125 0,0.453125 0.484375,0.65625 0.921875,0.65625 0.671875,0 1.03125,-0.703125 1.046875,-0.75 0.125,0.359375 0.484375,0.75 1.078125,0.75 1.03125,0 1.59375,-1.28125 1.59375,-1.53125 0,-0.109375 -0.078125,-0.109375 -0.109375,-0.109375 -0.09375,0 -0.109375,0.046875 -0.140625,0.109375 -0.328125,1.078125 -1,1.3125 -1.3125,1.3125 -0.390625,0 -0.546875,-0.3125 -0.546875,-0.65625 0,-0.21875 0.046875,-0.4375 0.15625,-0.875 l 0.34375,-1.375 z m 0,0"
               id="path3771" />
          </symbol>
          <symbol
             style="overflow:visible"
             overflow="visible"
             id="textext-eecf1b2d-3">
            <path
               style="stroke:none"
               d=""
               id="path3774" />
          </symbol>
          <symbol
             style="overflow:visible"
             overflow="visible"
             id="textext-eecf1b2d-4">
            <path
               style="stroke:none"
               d="m 3.296875,2.390625 c 0,-0.03125 0,-0.046875 -0.171875,-0.21875 C 1.890625,0.921875 1.5625,-0.96875 1.5625,-2.5 c 0,-1.734375 0.375,-3.46875 1.609375,-4.703125 0.125,-0.125 0.125,-0.140625 0.125,-0.171875 0,-0.078125 -0.03125,-0.109375 -0.09375,-0.109375 -0.109375,0 -1,0.6875 -1.59375,1.953125 -0.5,1.09375 -0.625,2.203125 -0.625,3.03125 0,0.78125 0.109375,1.984375 0.65625,3.125 C 2.25,1.84375 3.09375,2.5 3.203125,2.5 c 0.0625,0 0.09375,-0.03125 0.09375,-0.109375 z m 0,0"
               id="path3777" />
          </symbol>
          <symbol
             style="overflow:visible"
             overflow="visible"
             id="textext-eecf1b2d-5">
            <path
               style="stroke:none"
               d="m 2.875,-2.5 c 0,-0.765625 -0.109375,-1.96875 -0.65625,-3.109375 -0.59375,-1.21875 -1.453125,-1.875 -1.546875,-1.875 -0.0625,0 -0.109375,0.046875 -0.109375,0.109375 0,0.03125 0,0.046875 0.1875,0.234375 0.984375,0.984375 1.546875,2.5625 1.546875,4.640625 0,1.71875 -0.359375,3.46875 -1.59375,4.71875 C 0.5625,2.34375 0.5625,2.359375 0.5625,2.390625 0.5625,2.453125 0.609375,2.5 0.671875,2.5 0.765625,2.5 1.671875,1.8125 2.25,0.546875 2.765625,-0.546875 2.875,-1.65625 2.875,-2.5 z m 0,0"
               id="path3780" />
          </symbol>
        </g>
      </defs>
      <g
         id="textext-eecf1b2d-6">
        <g
           style="fill:#000000;fill-opacity:1"
           id="g3783">
          <use
             height="283.46457"
             width="283.46457"
             xlink:href="#textext-eecf1b2d-1"
             x="223.4321"
             y="134.76469"
             id="use3785" />
        </g>
        <g
           style="fill:#000000;fill-opacity:1"
           id="g3787">
          <use
             height="283.46457"
             width="283.46457"
             xlink:href="#textext-eecf1b2d-4"
             x="229.1722"
             y="134.76469"
             id="use3789" />
        </g>
        <g
           style="fill:#000000;fill-opacity:1"
           id="g3791">
          <use
             height="283.46457"
             width="283.46457"
             xlink:href="#textext-eecf1b2d-2"
             x="233.0466"
             y="134.76469"
             id="use3793" />
        </g>
        <g
           style="fill:#000000;fill-opacity:1"
           id="g3795">
          <use
             height="283.46457"
             width="283.46457"
             xlink:href="#textext-eecf1b2d-5"
             x="238.74049"
             y="134.76469"
             id="use3797" />
        </g>
      </g>
    </g>
    <g
       id="g4135"
       transform="matrix(0.84852815,0.84852814,-0.84852814,0.84852815,14.376203,620.94288)"
       ns0:preamble="/home/manju/Documents/ubm/preamble.tex"
       ns0:text="$h(\\beta)$">
      <defs
         id="defs4137">
        <g
           id="g4139">
          <symbol
             id="textext-f22d226f-0"
             overflow="visible"
             style="overflow:visible">
            <path
               id="path4142"
               d=""
               style="stroke:none" />
          </symbol>
          <symbol
             id="textext-f22d226f-1"
             overflow="visible"
             style="overflow:visible">
            <path
               id="path4145"
               d="m 2.859375,-6.8125 c 0,0 0,-0.109375 -0.125,-0.109375 -0.234375,0 -0.953125,0.078125 -1.21875,0.109375 -0.078125,0 -0.1875,0.015625 -0.1875,0.1875 0,0.125 0.09375,0.125 0.234375,0.125 0.484375,0 0.5,0.0625 0.5,0.171875 L 2.03125,-6.125 0.59375,-0.390625 c -0.046875,0.140625 -0.046875,0.15625 -0.046875,0.21875 0,0.234375 0.203125,0.28125 0.296875,0.28125 0.15625,0 0.3125,-0.125 0.359375,-0.265625 l 0.1875,-0.75 C 1.46875,-1.203125 1.546875,-1.5 1.609375,-1.796875 1.671875,-2.03125 1.734375,-2.25 1.78125,-2.46875 1.796875,-2.53125 1.890625,-2.859375 1.890625,-2.921875 1.921875,-3.015625 2.234375,-3.5625 2.578125,-3.84375 2.796875,-4 3.09375,-4.1875 3.53125,-4.1875 c 0.421875,0 0.53125,0.34375 0.53125,0.703125 0,0.53125 -0.375,1.625 -0.609375,2.234375 C 3.375,-1.03125 3.3125,-0.90625 3.3125,-0.703125 c 0,0.46875 0.359375,0.8125 0.828125,0.8125 0.9375,0 1.296875,-1.453125 1.296875,-1.53125 0,-0.109375 -0.078125,-0.109375 -0.109375,-0.109375 -0.109375,0 -0.109375,0.03125 -0.15625,0.1875 -0.140625,0.53125 -0.46875,1.234375 -1.015625,1.234375 -0.171875,0 -0.234375,-0.09375 -0.234375,-0.328125 0,-0.25 0.078125,-0.484375 0.171875,-0.703125 0.15625,-0.4375 0.609375,-1.625 0.609375,-2.203125 0,-0.640625 -0.390625,-1.0625 -1.140625,-1.0625 -0.625,0 -1.109375,0.3125 -1.484375,0.765625 L 2.859375,-6.8125 z m 0,0"
               style="stroke:none" />
          </symbol>
          <symbol
             id="textext-f22d226f-2"
             overflow="visible"
             style="overflow:visible">
            <path
               id="path4148"
               d="M 0.28125,1.6875 C 0.265625,1.71875 0.25,1.78125 0.25,1.828125 0.25,1.9375 0.34375,1.9375 0.375,1.9375 0.421875,1.9375 0.4375,1.921875 0.46875,1.890625 0.515625,1.84375 0.796875,0.5625 1.21875,-1.046875 1.375,-0.46875 1.890625,0.125 2.828125,0.125 c 1.3125,0 2.640625,-1.34375 2.640625,-2.75 0,-0.71875 -0.3125,-1.15625 -0.65625,-1.390625 C 5.5,-4.4375 5.875,-5.140625 5.875,-5.75 c 0,-0.65625 -0.453125,-1.28125 -1.328125,-1.28125 -1.296875,0 -2.421875,1.375 -2.75,2.671875 L 0.28125,1.6875 z M 3.265625,-4 C 3.375,-4.046875 3.4375,-4.078125 3.78125,-4.078125 c 0.140625,0 0.265625,0 0.390625,0.0625 C 4,-3.9375 3.78125,-3.9375 3.703125,-3.9375 c -0.25,0 -0.265625,0 -0.4375,-0.0625 z m 1.21875,-0.203125 c -0.28125,-0.09375 -0.59375,-0.09375 -0.6875,-0.09375 -0.234375,0 -0.78125,0 -0.78125,0.3125 0,0.265625 0.4375,0.265625 0.6875,0.265625 0.140625,0 0.421875,0 0.75,-0.125 C 4.671875,-3.625 4.75,-3.328125 4.75,-3.015625 c 0,0.40625 -0.203125,1.34375 -0.5,1.890625 -0.21875,0.421875 -0.734375,1.03125 -1.453125,1.03125 -0.890625,0 -1.390625,-0.65625 -1.390625,-1.46875 0,-0.234375 0.046875,-0.375 0.125,-0.734375 C 1.625,-2.671875 1.9375,-3.921875 2,-4.140625 2.46875,-5.984375 3.65625,-6.8125 4.53125,-6.8125 4.828125,-6.8125 5.25,-6.65625 5.25,-6 c 0,0.234375 -0.109375,1.3125 -0.765625,1.796875 z m 0,0"
               style="stroke:none" />
          </symbol>
          <symbol
             id="textext-f22d226f-3"
             overflow="visible"
             style="overflow:visible">
            <path
               id="path4151"
               d=""
               style="stroke:none" />
          </symbol>
          <symbol
             id="textext-f22d226f-4"
             overflow="visible"
             style="overflow:visible">
            <path
               id="path4154"
               d="m 3.296875,2.390625 c 0,-0.03125 0,-0.046875 -0.171875,-0.21875 C 1.890625,0.921875 1.5625,-0.96875 1.5625,-2.5 c 0,-1.734375 0.375,-3.46875 1.609375,-4.703125 0.125,-0.125 0.125,-0.140625 0.125,-0.171875 0,-0.078125 -0.03125,-0.109375 -0.09375,-0.109375 -0.109375,0 -1,0.6875 -1.59375,1.953125 -0.5,1.09375 -0.625,2.203125 -0.625,3.03125 0,0.78125 0.109375,1.984375 0.65625,3.125 C 2.25,1.84375 3.09375,2.5 3.203125,2.5 c 0.0625,0 0.09375,-0.03125 0.09375,-0.109375 z m 0,0"
               style="stroke:none" />
          </symbol>
          <symbol
             id="textext-f22d226f-5"
             overflow="visible"
             style="overflow:visible">
            <path
               id="path4157"
               d="m 2.875,-2.5 c 0,-0.765625 -0.109375,-1.96875 -0.65625,-3.109375 -0.59375,-1.21875 -1.453125,-1.875 -1.546875,-1.875 -0.0625,0 -0.109375,0.046875 -0.109375,0.109375 0,0.03125 0,0.046875 0.1875,0.234375 0.984375,0.984375 1.546875,2.5625 1.546875,4.640625 0,1.71875 -0.359375,3.46875 -1.59375,4.71875 C 0.5625,2.34375 0.5625,2.359375 0.5625,2.390625 0.5625,2.453125 0.609375,2.5 0.671875,2.5 0.765625,2.5 1.671875,1.8125 2.25,0.546875 2.765625,-0.546875 2.875,-1.65625 2.875,-2.5 z m 0,0"
               style="stroke:none" />
          </symbol>
        </g>
      </defs>
      <g
         id="textext-f22d226f-6">
        <g
           id="g4160"
           style="fill:#000000;fill-opacity:1">
          <use
             id="use4162"
             y="134.76469"
             x="223.4321"
             xlink:href="#textext-f22d226f-1"
             width="283.46457"
             height="283.46457" />
        </g>
        <g
           id="g4164"
           style="fill:#000000;fill-opacity:1">
          <use
             id="use4166"
             y="134.76469"
             x="229.1722"
             xlink:href="#textext-f22d226f-4"
             width="283.46457"
             height="283.46457" />
        </g>
        <g
           id="g4168"
           style="fill:#000000;fill-opacity:1">
          <use
             id="use4170"
             y="134.76469"
             x="233.0466"
             xlink:href="#textext-f22d226f-2"
             width="283.46457"
             height="283.46457" />
        </g>
        <g
           id="g4172"
           style="fill:#000000;fill-opacity:1">
          <use
             id="use4174"
             y="134.76469"
             x="239.2075"
             xlink:href="#textext-f22d226f-5"
             width="283.46457"
             height="283.46457" />
        </g>
      </g>
    </g>
  </g>
</svg>
