<?xml version="1.0" encoding="UTF-8" standalone="no"?>
<!-- Created with Inkscape (http://www.inkscape.org/) -->

<svg
   xmlns:ns0="http://www.iki.fi/pav/software/textext/"
   xmlns:dc="http://purl.org/dc/elements/1.1/"
   xmlns:cc="http://creativecommons.org/ns#"
   xmlns:rdf="http://www.w3.org/1999/02/22-rdf-syntax-ns#"
   xmlns:svg="http://www.w3.org/2000/svg"
   xmlns="http://www.w3.org/2000/svg"
   xmlns:xlink="http://www.w3.org/1999/xlink"
   xmlns:sodipodi="http://sodipodi.sourceforge.net/DTD/sodipodi-0.dtd"
   xmlns:inkscape="http://www.inkscape.org/namespaces/inkscape"
   id="svg2"
   version="1.1"
   inkscape:version="0.48.4 r9939"
   width="389.76376"
   height="354.33069"
   sodipodi:docname="fig3.svg">
  <sodipodi:namedview
     pagecolor="#ffffff"
     bordercolor="#666666"
     borderopacity="1"
     objecttolerance="10"
     gridtolerance="10"
     guidetolerance="10"
     inkscape:pageopacity="0"
     inkscape:pageshadow="2"
     inkscape:window-width="1024"
     inkscape:window-height="744"
     id="namedview4"
     showgrid="false"
     units="cm"
     inkscape:zoom="1.5285674"
     inkscape:cx="285.98913"
     inkscape:cy="150.5038"
     inkscape:window-x="0"
     inkscape:window-y="24"
     inkscape:window-maximized="1"
     inkscape:current-layer="svg2" />
  <metadata
     id="metadata8">
    <rdf:RDF>
      <cc:Work
         rdf:about="">
        <dc:format>image/svg+xml</dc:format>
        <dc:type
           rdf:resource="http://purl.org/dc/dcmitype/StillImage" />
        <dc:title />
      </cc:Work>
    </rdf:RDF>
  </metadata>
  <defs
     id="defs6" />
  <path
     inkscape:connector-curvature="0"
     id="path2987"
     d="m 23.040784,281.83651 341.115996,0"
     style="fill:none;stroke:#000000;stroke-width:1px;stroke-linecap:butt;stroke-linejoin:miter;stroke-opacity:1" />
  <path
     sodipodi:nodetypes="cccc"
     inkscape:connector-curvature="0"
     id="path2989"
     d="m 34.280191,241.93662 c 41.781602,14.79822 85.132879,30.34271 129.815149,37.09004 20.93284,-2.22253 41.09527,-1.74862 60.97378,-0.28098 45.37696,-4.85047 91.27369,-24.85257 129.53416,-39.61891"
     style="fill:none;stroke:#000000;stroke-width:1px;stroke-linecap:butt;stroke-linejoin:miter;stroke-opacity:1" />
  <path
     sodipodi:nodetypes="cccc"
     inkscape:connector-curvature="0"
     id="path2991"
     d="m 23.602754,151.4594 c 27.876228,48.1697 60.823768,93.27739 140.914066,122.65002 21.82521,-2.62491 42.94951,-0.15011 60.27132,-0.70246 47.74285,-13.32816 106.79609,-62.88937 137.12076,-121.38559"
     style="fill:none;stroke:#000000;stroke-width:1px;stroke-linecap:butt;stroke-linejoin:miter;stroke-opacity:1" />
  <path
     sodipodi:nodetypes="cscscsc"
     inkscape:connector-curvature="0"
     id="path2993"
     d="m 166.10193,267.30599 c 7.73201,1.83115 17.31521,-0.23108 27.83018,-0.48767 10.55294,-0.25752 20.97553,1.87848 30.18628,0.48767 13.80709,-5.40363 31.11907,-21.57023 44.24321,-43.66765 C 305.02093,161.91417 306.43451,56.498058 192.78838,46.602239 88.334756,59.298093 77.496807,145.86959 114.45307,217.32843 c 8.43905,16.31781 26.0657,37.47985 51.64886,49.97756 z"
     style="fill:none;stroke:#000000;stroke-width:1px;stroke-linecap:butt;stroke-linejoin:miter;stroke-opacity:1" />
  <path
     sodipodi:nodetypes="cccccc"
     inkscape:connector-curvature="0"
     id="path2995"
     d="m 169.43406,257.67179 c 14.28474,2.15297 29.44113,3.48556 50.01536,-0.28099 11.65474,-9.12837 17.71005,-21.33643 21.91684,-34.56117 16.27717,-46.95289 -19.10266,-77.23335 -48.89142,-76.14698 -27.65764,1.75147 -66.08399,29.25184 -46.04748,77.6342 4.61888,11.29401 7.42214,23.20195 23.0067,33.35494 z"
     style="fill:none;stroke:#000000;stroke-width:1px;stroke-linecap:butt;stroke-linejoin:miter;stroke-opacity:1" />
  <path
     sodipodi:nodetypes="cssccccc"
     inkscape:connector-curvature="0"
     id="path2997"
     d="m 173.45333,249.82158 c 2.30368,0.70884 4.30525,2.74785 6.71682,2.91467 8.93334,0.61794 18.62027,0.29192 28.09726,-0.32812 2.64659,-0.17315 4.87056,-2.20883 7.50615,-2.98392 6.07975,-6.74547 11.17588,-14.59752 11.32513,-28.0148 3.03052,-30.03039 -22.07523,-40.92754 -33.77671,-40.33337 -20.44879,2.27124 -34.35312,15.07986 -32.78327,40.73074 1.02022,10.19513 3.37454,20.04224 12.91462,28.0148 z"
     style="fill:none;stroke:#000000;stroke-width:1px;stroke-linecap:butt;stroke-linejoin:miter;stroke-opacity:1" />
  <path
     transform="matrix(1.3474576,0,0,1.3539823,-68.430602,-78.278477)"
     d="m 203.01178,226.69318 a 8.2890625,7.9378309 0 1 1 -16.57813,0 8.2890625,7.9378309 0 1 1 16.57813,0 z"
     sodipodi:ry="7.9378309"
     sodipodi:rx="8.2890625"
     sodipodi:cy="226.69318"
     sodipodi:cx="194.72272"
     id="path2999"
     style="fill:none;stroke:#000000;stroke-width:0.92543507;stroke-miterlimit:4;stroke-opacity:1;stroke-dasharray:none;stroke-dashoffset:0"
     sodipodi:type="arc" />
  <path
     sodipodi:open="true"
     transform="matrix(-2.1310781,0,0,-2.1034483,456.94395,1002.2289)"
     sodipodi:end="3.1291709"
     sodipodi:start="0.014168152"
     d="m 166.49641,342.61898 a 28.809546,28.809546 0 0 1 -57.61397,-0.0503"
     sodipodi:ry="28.809546"
     sodipodi:rx="28.809546"
     sodipodi:cy="342.21082"
     sodipodi:cx="137.68976"
     id="path3773"
     style="fill:none;stroke:#000000;stroke-width:0.59039736;stroke-miterlimit:4;stroke-opacity:1;stroke-dasharray:2.36158945, 2.36158945;stroke-dashoffset:0"
     sodipodi:type="arc" />
  <path
     sodipodi:open="true"
     sodipodi:type="arc"
     style="fill:none;stroke:#000000;stroke-width:0.59039736;stroke-miterlimit:4;stroke-opacity:1;stroke-dasharray:2.36158945, 2.36158945;stroke-dashoffset:0"
     id="path3775"
     sodipodi:cx="137.68976"
     sodipodi:cy="342.21082"
     sodipodi:rx="28.250149"
     sodipodi:ry="28.809546"
     d="m 165.93707,342.61898 a 28.250149,28.809546 0 0 1 -56.49528,-0.0503"
     sodipodi:start="0.014168152"
     sodipodi:end="3.1291709"
     transform="matrix(2.1310781,0,0,-2.1034483,-69.101999,1002.2289)" />
  <path
     inkscape:connector-curvature="0"
     id="path3777"
     d="m 193.30138,276.13312 0,-239.399362"
     style="fill:none;stroke:#000000;stroke-width:1.25;stroke-linecap:butt;stroke-linejoin:miter;stroke-miterlimit:4;stroke-opacity:1;stroke-dasharray:3.75, 3.75;stroke-dashoffset:0;marker-end:none"
     sodipodi:nodetypes="cc" />
  <path
     inkscape:connector-curvature="0"
     id="path3959"
     d="m 40.461865,280.43159 0,-5.33872"
     style="fill:none;stroke:#000000;stroke-width:1px;stroke-linecap:butt;stroke-linejoin:miter;stroke-opacity:1" />
  <path
     inkscape:connector-curvature="0"
     id="path3961"
     d="m 347.74744,279.62456 -0.0655,-5.85934"
     style="fill:none;stroke:#000000;stroke-width:1px;stroke-linecap:butt;stroke-linejoin:miter;stroke-opacity:1"
     sodipodi:nodetypes="cc" />
  <text
     sodipodi:linespacing="125%"
     id="text3963"
     y="233.92665"
     x="402.14151"
     style="font-size:10px;font-style:normal;font-variant:normal;font-weight:normal;font-stretch:normal;line-height:125%;letter-spacing:0px;word-spacing:0px;fill:#000000;fill-opacity:1;stroke:none;font-family:Nimbus Roman No9 L;-inkscape-font-specification:Nimbus Roman No9 L"
     xml:space="preserve"><tspan
       y="233.92665"
       x="402.14151"
       id="tspan3965"
       sodipodi:role="line" /></text>
  <text
     sodipodi:linespacing="125%"
     id="text3967"
     y="264.12701"
     x="324.25638"
     style="font-size:10px;font-style:normal;font-variant:normal;font-weight:normal;font-stretch:normal;line-height:125%;letter-spacing:0px;word-spacing:0px;fill:#000000;fill-opacity:1;stroke:none;font-family:Nimbus Roman No9 L;-inkscape-font-specification:Nimbus Roman No9 L"
     xml:space="preserve"><tspan
       y="264.12701"
       x="324.25638"
       id="tspan3969"
       sodipodi:role="line">0.2</tspan></text>
  <text
     transform="matrix(0.99340927,-0.1146212,0.1146212,0.99340927,0,0)"
     sodipodi:linespacing="125%"
     id="text3971"
     y="247.99904"
     x="307.01657"
     style="font-size:10px;font-style:normal;font-variant:normal;font-weight:normal;font-stretch:normal;line-height:125%;letter-spacing:0px;word-spacing:0px;fill:#000000;fill-opacity:1;stroke:none;font-family:Nimbus Roman No9 L;-inkscape-font-specification:Nimbus Roman No9 L"
     xml:space="preserve"><tspan
       y="247.99904"
       x="307.01657"
       id="tspan3973"
       sodipodi:role="line">0.4</tspan></text>
  <text
     sodipodi:linespacing="125%"
     id="text3975"
     y="154.05467"
     x="295.64554"
     style="font-size:10px;font-style:normal;font-variant:normal;font-weight:normal;font-stretch:normal;line-height:125%;letter-spacing:0px;word-spacing:0px;fill:#000000;fill-opacity:1;stroke:none;font-family:Nimbus Roman No9 L;-inkscape-font-specification:Nimbus Roman No9 L"
     xml:space="preserve"><tspan
       y="154.05467"
       x="295.64554"
       id="tspan3977"
       sodipodi:role="line">0.6</tspan></text>
  <text
     sodipodi:linespacing="125%"
     id="text3979"
     y="160.01527"
     x="239.61595"
     style="font-size:10px;font-style:normal;font-variant:normal;font-weight:normal;font-stretch:normal;line-height:125%;letter-spacing:0px;word-spacing:0px;fill:#000000;fill-opacity:1;stroke:none;font-family:Nimbus Roman No9 L;-inkscape-font-specification:Nimbus Roman No9 L"
     xml:space="preserve"><tspan
       y="160.01527"
       x="239.61595"
       id="tspan3981"
       sodipodi:role="line">0.8</tspan></text>
  <text
     sodipodi:linespacing="125%"
     id="text3983"
     y="183.46028"
     x="216.5683"
     style="font-size:10px;font-style:normal;font-variant:normal;font-weight:normal;font-stretch:normal;line-height:125%;letter-spacing:0px;word-spacing:0px;fill:#000000;fill-opacity:1;stroke:none;font-family:Nimbus Roman No9 L;-inkscape-font-specification:Nimbus Roman No9 L"
     xml:space="preserve"><tspan
       y="183.46028"
       x="216.5683"
       id="tspan3985"
       sodipodi:role="line">0.9</tspan></text>
  <text
     sodipodi:linespacing="125%"
     id="text3987"
     y="214.85275"
     x="201.86549"
     style="font-size:10px;font-style:normal;font-variant:normal;font-weight:normal;font-stretch:normal;line-height:125%;letter-spacing:0px;word-spacing:0px;fill:#000000;fill-opacity:1;stroke:none;font-family:Nimbus Roman No9 L;-inkscape-font-specification:Nimbus Roman No9 L"
     xml:space="preserve"><tspan
       y="214.85275"
       x="201.86549"
       id="tspan3989"
       sodipodi:role="line">1.0</tspan></text>
  <text
     sodipodi:linespacing="125%"
     id="text3991"
     y="292.9335"
     x="161.73082"
     style="font-size:10px;font-style:normal;font-variant:normal;font-weight:normal;font-stretch:normal;line-height:125%;letter-spacing:0px;word-spacing:0px;fill:#000000;fill-opacity:1;stroke:none;font-family:Nimbus Roman No9 L;-inkscape-font-specification:Nimbus Roman No9 L"
     xml:space="preserve"><tspan
       y="292.9335"
       x="161.73082"
       id="tspan3993"
       sodipodi:role="line"
       style="font-size:11px">0</tspan></text>
  <text
     sodipodi:linespacing="125%"
     id="text3995"
     y="293.79346"
     x="222.5289"
     style="font-size:10px;font-style:normal;font-variant:normal;font-weight:normal;font-stretch:normal;line-height:125%;letter-spacing:0px;word-spacing:0px;fill:#000000;fill-opacity:1;stroke:none;font-family:Nimbus Roman No9 L;-inkscape-font-specification:Nimbus Roman No9 L"
     xml:space="preserve"><tspan
       y="293.79346"
       x="222.5289"
       id="tspan3997"
       sodipodi:role="line"
       style="font-size:11px">1</tspan></text>
  <text
     sodipodi:linespacing="125%"
     id="text3999"
     y="293.4613"
     x="282.13486"
     style="font-size:10px;font-style:normal;font-variant:normal;font-weight:normal;font-stretch:normal;line-height:125%;letter-spacing:0px;word-spacing:0px;fill:#000000;fill-opacity:1;stroke:none;font-family:Nimbus Roman No9 L;-inkscape-font-specification:Nimbus Roman No9 L"
     xml:space="preserve"><tspan
       y="293.4613"
       x="282.13486"
       id="tspan4001"
       sodipodi:role="line"
       style="font-size:11px">2</tspan></text>
  <text
     sodipodi:linespacing="125%"
     id="text4003"
     y="293.06393"
     x="344.98502"
     style="font-size:10px;font-style:normal;font-variant:normal;font-weight:normal;font-stretch:normal;line-height:125%;letter-spacing:0px;word-spacing:0px;fill:#000000;fill-opacity:1;stroke:none;font-family:Nimbus Roman No9 L;-inkscape-font-specification:Nimbus Roman No9 L"
     xml:space="preserve"><tspan
       y="293.06393"
       x="344.98502"
       id="tspan4005"
       sodipodi:role="line"
       style="font-size:11px">3</tspan></text>
  <g
     id="g4046"
     ns0:preamble="/home/sriranga/Desktop/TIFR/tifr96/article-02/figure/package.tex"
     ns0:text="$-2$"
     transform="matrix(1.2,0,0,1.2,-238.69873,131.37682)">
    <defs
       id="defs4048">
      <g
         id="g4050">
        <symbol
           id="textext-864504fb-0"
           overflow="visible"
           style="overflow:visible">
          <path
             id="path4053"
             d=""
             style="stroke:none"
             inkscape:connector-curvature="0" />
        </symbol>
        <symbol
           id="textext-864504fb-1"
           overflow="visible"
           style="overflow:visible">
          <path
             id="path4056"
             d="m 5.71875,-2.28125 0,-0.5625 -5.09375,0 0,0.5625 z m 0,0"
             style="stroke:none"
             inkscape:connector-curvature="0" />
        </symbol>
        <symbol
           id="textext-864504fb-2"
           overflow="visible"
           style="overflow:visible">
          <path
             id="path4059"
             d=""
             style="stroke:none"
             inkscape:connector-curvature="0" />
        </symbol>
        <symbol
           id="textext-864504fb-3"
           overflow="visible"
           style="overflow:visible">
          <path
             id="path4062"
             d="m 4.734375,-1.359375 -0.125,-0.0625 C 4.234375,-0.84375 4.109375,-0.75 3.65625,-0.75 l -2.375,0 1.671875,-1.765625 c 0.890625,-0.921875 1.28125,-1.6875 1.28125,-2.453125 0,-1 -0.8125,-1.765625 -1.859375,-1.765625 -0.546875,0 -1.0625,0.21875 -1.421875,0.609375 C 0.625,-5.78125 0.484375,-5.46875 0.3125,-4.75 l 0.203125,0.046875 C 0.921875,-5.6875 1.28125,-6 1.96875,-6 2.796875,-6 3.375,-5.4375 3.375,-4.59375 3.375,-3.8125 2.90625,-2.890625 2.078125,-2 l -1.78125,1.875 0,0.125 3.890625,0 z m 0,0"
             style="stroke:none"
             inkscape:connector-curvature="0" />
        </symbol>
      </g>
    </defs>
    <g
       id="textext-864504fb-4">
      <g
         id="g4065"
         style="fill:#000000;fill-opacity:1">
        <use
           id="use4067"
           y="134.765"
           x="223.43201"
           xlink:href="#textext-864504fb-1"
           width="389.76376"
           height="354.33069" />
      </g>
      <g
         id="g4069"
         style="fill:#000000;fill-opacity:1">
        <use
           id="use4071"
           y="134.765"
           x="229.76801"
           xlink:href="#textext-864504fb-3"
           width="389.76376"
           height="354.33069" />
      </g>
    </g>
  </g>
  <g
     ns0:text="$-1$"
     ns0:preamble="/home/sriranga/Desktop/TIFR/tifr96/article-02/figure/package.tex"
     transform="matrix(1.2,0,0,1.2,-176.69873,131.37682)"
     id="g4213">
    <defs
       id="defs4215">
      <g
         id="g4217">
        <symbol
           overflow="visible"
           id="textext-e26c34ec-0">
          <path
             style="stroke:none;"
             d=""
             id="path4220" />
        </symbol>
        <symbol
           overflow="visible"
           id="textext-e26c34ec-1">
          <path
             style="stroke:none;"
             d="M 5.71875 -2.28125 L 5.71875 -2.84375 L 0.625 -2.84375 L 0.625 -2.28125 Z M 5.71875 -2.28125 "
             id="path4223" />
        </symbol>
        <symbol
           overflow="visible"
           id="textext-e26c34ec-2">
          <path
             style="stroke:none;"
             d=""
             id="path4226" />
        </symbol>
        <symbol
           overflow="visible"
           id="textext-e26c34ec-3">
          <path
             style="stroke:none;"
             d="M 2.90625 -6.734375 L 1.109375 -5.828125 L 1.109375 -5.6875 C 1.21875 -5.734375 1.328125 -5.78125 1.375 -5.796875 C 1.5625 -5.875 1.71875 -5.90625 1.828125 -5.90625 C 2.03125 -5.90625 2.125 -5.765625 2.125 -5.4375 L 2.125 -0.921875 C 2.125 -0.59375 2.046875 -0.375 1.890625 -0.28125 C 1.734375 -0.1875 1.59375 -0.15625 1.171875 -0.15625 L 1.171875 0 L 3.921875 0 L 3.921875 -0.15625 C 3.140625 -0.15625 2.984375 -0.265625 2.984375 -0.734375 L 2.984375 -6.71875 Z M 2.90625 -6.734375 "
             id="path4229" />
        </symbol>
      </g>
    </defs>
    <g
       id="textext-e26c34ec-4">
      <g
         style="fill:rgb(0%,0%,0%);fill-opacity:1;"
         id="g4232">
        <use
           xlink:href="#textext-e26c34ec-1"
           x="223.432"
           y="134.765"
           id="use4234" />
      </g>
      <g
         style="fill:rgb(0%,0%,0%);fill-opacity:1;"
         id="g4236">
        <use
           xlink:href="#textext-e26c34ec-3"
           x="229.768"
           y="134.765"
           id="use4238" />
      </g>
    </g>
  </g>
  <text
     sodipodi:linespacing="125%"
     id="text4309"
     y="99.498352"
     x="294.39331"
     style="font-size:14.42804623px;font-style:normal;font-variant:normal;font-weight:normal;font-stretch:normal;line-height:125%;letter-spacing:0px;word-spacing:0px;fill:#000000;fill-opacity:1;stroke:none;font-family:Nimbus Roman No9 L;-inkscape-font-specification:Nimbus Roman No9 L"
     xml:space="preserve"><tspan
       y="99.498352"
       x="294.39331"
       id="tspan4311"
       sodipodi:role="line">Level Curves</tspan><tspan
       id="tspan4313"
       y="117.53342"
       x="294.39331"
       sodipodi:role="line">    of </tspan></text>
  <g
     id="g4421"
     transform="matrix(1.3202733,0,0,1.3202733,35.766097,-60.557431)"
     ns0:preamble="/home/sriranga/Desktop/TIFR/tifr96/article-02/figure/package.tex"
     ns0:text="$D(z)$">
    <defs
       id="defs4423">
      <g
         id="g4425">
        <symbol
           id="textext-00f69328-0"
           overflow="visible"
           style="overflow:visible">
          <path
             id="path4428"
             d=""
             style="stroke:none"
             inkscape:connector-curvature="0" />
        </symbol>
        <symbol
           id="textext-00f69328-1"
           overflow="visible"
           style="overflow:visible">
          <path
             id="path4431"
             d="M 1.296875,-6.34375 C 1.90625,-6.296875 2.0625,-6.203125 2.0625,-5.9375 c 0,0.140625 -0.03125,0.390625 -0.109375,0.640625 l -1.21875,4.40625 c -0.1875,0.578125 -0.25,0.625 -0.8125,0.734375 l 0,0.15625 2.515625,0 c 1.171875,0 2.234375,-0.3125 3,-0.875 0.96875,-0.703125 1.546875,-1.796875 1.546875,-2.953125 0,-1.640625 -1.140625,-2.6875 -2.921875,-2.6875 l -2.765625,0 z M 3.125,-5.921875 c 0.0625,-0.21875 0.203125,-0.28125 0.609375,-0.28125 0.5625,0 1.0625,0.125 1.375,0.359375 0.5,0.359375 0.765625,0.984375 0.765625,1.78125 0,1.078125 -0.421875,2.1875 -1.09375,2.859375 -0.59375,0.609375 -1.40625,0.90625 -2.4375,0.90625 -0.453125,0 -0.65625,-0.109375 -0.65625,-0.375 0,-0.125 0.0625,-0.34375 0.21875,-0.9375 z m 0,0"
             style="stroke:none"
             inkscape:connector-curvature="0" />
        </symbol>
        <symbol
           id="textext-00f69328-2"
           overflow="visible"
           style="overflow:visible">
          <path
             id="path4434"
             d="m 0.8125,-3.078125 c 0.203125,-0.5 0.328125,-0.59375 0.796875,-0.59375 l 1.46875,0 -3.09375,3.71875 L 0.0625,0.125 C 0.234375,0 0.359375,-0.046875 0.53125,-0.046875 c 0.234375,0 0.5625,0.125 1.03125,0.421875 0.5,0.296875 0.84375,0.4375 1.125,0.4375 0.5,0 0.9375,-0.359375 0.9375,-0.765625 C 3.625,-0.15625 3.484375,-0.3125 3.265625,-0.3125 3.078125,-0.3125 2.9375,-0.171875 2.9375,0 c 0,0.09375 0.015625,0.1875 0.078125,0.296875 0.03125,0.0625 0.0625,0.125 0.0625,0.15625 0,0.078125 -0.125,0.140625 -0.28125,0.140625 -0.25,0 -0.359375,-0.078125 -0.6875,-0.5 -0.4375,-0.5625 -0.640625,-0.6875 -1.21875,-0.828125 l 2.890625,-3.421875 0,-0.109375 -2.828125,0 -0.3125,1.140625 z m 0,0"
             style="stroke:none"
             inkscape:connector-curvature="0" />
        </symbol>
        <symbol
           id="textext-00f69328-3"
           overflow="visible"
           style="overflow:visible">
          <path
             id="path4437"
             d=""
             style="stroke:none"
             inkscape:connector-curvature="0" />
        </symbol>
        <symbol
           id="textext-00f69328-4"
           overflow="visible"
           style="overflow:visible">
          <path
             id="path4440"
             d="M 2.9375,-6.734375 C 2.203125,-6.265625 1.90625,-6 1.53125,-5.546875 c -0.703125,0.875 -1.046875,1.875 -1.046875,3.03125 0,1.265625 0.359375,2.25 1.234375,3.265625 0.421875,0.46875 0.671875,0.703125 1.1875,1.015625 l 0.125,-0.15625 C 2.234375,0.984375 1.953125,0.625 1.6875,-0.125 1.453125,-0.78125 1.328125,-1.546875 1.328125,-2.546875 1.328125,-3.59375 1.46875,-4.40625 1.734375,-5.03125 2.015625,-5.640625 2.3125,-6 3.03125,-6.578125 z m 0,0"
             style="stroke:none"
             inkscape:connector-curvature="0" />
        </symbol>
        <symbol
           id="textext-00f69328-5"
           overflow="visible"
           style="overflow:visible">
          <path
             id="path4443"
             d="M 0.375,1.765625 C 1.109375,1.28125 1.421875,1.03125 1.78125,0.5625 2.5,-0.296875 2.84375,-1.296875 2.84375,-2.46875 c 0,-1.265625 -0.375,-2.234375 -1.25,-3.25 C 1.1875,-6.203125 0.921875,-6.421875 0.40625,-6.734375 l -0.109375,0.15625 c 0.796875,0.625 1.0625,0.96875 1.34375,1.71875 0.234375,0.671875 0.34375,1.4375 0.34375,2.421875 0,1.046875 -0.125,1.875 -0.40625,2.484375 C 1.3125,0.671875 1,1.03125 0.296875,1.609375 z m 0,0"
             style="stroke:none"
             inkscape:connector-curvature="0" />
        </symbol>
      </g>
    </defs>
    <g
       id="textext-00f69328-6">
      <g
         id="g4446"
         style="fill:#000000;fill-opacity:1">
        <use
           id="use4448"
           y="134.765"
           x="223.681"
           xlink:href="#textext-00f69328-1"
           width="389.76376"
           height="354.33069" />
      </g>
      <g
         id="g4450"
         style="fill:#000000;fill-opacity:1">
        <use
           id="use4452"
           y="134.765"
           x="230.87399"
           xlink:href="#textext-00f69328-4"
           width="389.76376"
           height="354.33069" />
      </g>
      <g
         id="g4454"
         style="fill:#000000;fill-opacity:1">
        <use
           id="use4456"
           y="134.765"
           x="234.192"
           xlink:href="#textext-00f69328-2"
           width="389.76376"
           height="354.33069" />
      </g>
      <g
         id="g4458"
         style="fill:#000000;fill-opacity:1">
        <use
           id="use4460"
           y="134.765"
           x="238.067"
           xlink:href="#textext-00f69328-5"
           width="389.76376"
           height="354.33069" />
      </g>
    </g>
  </g>
</svg>
