<?xml version="1.0" encoding="UTF-8" standalone="no"?>
<!-- Created with Inkscape (http://www.inkscape.org/) -->

<svg
   xmlns:ns0="http://www.iki.fi/pav/software/textext/"
   xmlns:dc="http://purl.org/dc/elements/1.1/"
   xmlns:cc="http://creativecommons.org/ns#"
   xmlns:rdf="http://www.w3.org/1999/02/22-rdf-syntax-ns#"
   xmlns:svg="http://www.w3.org/2000/svg"
   xmlns="http://www.w3.org/2000/svg"
   xmlns:xlink="http://www.w3.org/1999/xlink"
   xmlns:sodipodi="http://sodipodi.sourceforge.net/DTD/sodipodi-0.dtd"
   xmlns:inkscape="http://www.inkscape.org/namespaces/inkscape"
   width="283.46457"
   height="177.16534"
   id="svg2"
   version="1.1"
   inkscape:version="0.48.0 r9654"
   sodipodi:docname="New document 1">
  <sodipodi:namedview
     id="base"
     pagecolor="#ffffff"
     bordercolor="#666666"
     borderopacity="1.0"
     inkscape:pageopacity="0.0"
     inkscape:pageshadow="2"
     inkscape:zoom="2.8"
     inkscape:cx="157.98142"
     inkscape:cy="88.424899"
     inkscape:document-units="px"
     inkscape:current-layer="layer1"
     showgrid="false"
     units="cm"
     inkscape:window-width="1024"
     inkscape:window-height="693"
     inkscape:window-x="0"
     inkscape:window-y="25"
     inkscape:window-maximized="1" />
  <defs
     id="defs4" />
  <metadata
     id="metadata7">
    <rdf:RDF>
      <cc:Work
         rdf:about="">
        <dc:format>image/svg+xml</dc:format>
        <dc:type
           rdf:resource="http://purl.org/dc/dcmitype/StillImage" />
        <dc:title></dc:title>
      </cc:Work>
    </rdf:RDF>
  </metadata>
  <g
     inkscape:label="Layer 1"
     inkscape:groupmode="layer"
     id="layer1"
     transform="translate(0,-875.19552)">
    <path
       sodipodi:type="arc"
       style="fill:none;stroke:#000000;stroke-width:1.29270279;stroke-miterlimit:4;stroke-opacity:1;stroke-dasharray:none;stroke-dashoffset:0"
       id="path2985"
       sodipodi:cx="188.39285"
       sodipodi:cy="99.486771"
       sodipodi:rx="46.964287"
       sodipodi:ry="46.964287"
       d="m 235.35714,99.486771 c 0,25.937659 -21.02663,46.964289 -46.96429,46.964289 -25.93766,0 -46.96428,-21.02663 -46.96428,-46.964289 0,-25.93766 21.02662,-46.964287 46.96428,-46.964287 25.93766,0 46.96429,21.026627 46.96429,46.964287 z"
       transform="matrix(0.9669663,0,0,0.9669663,12.223313,867.51982)" />
    <path
       style="fill:none;stroke:#000000;stroke-width:1.25;stroke-linecap:butt;stroke-linejoin:miter;stroke-miterlimit:4;stroke-opacity:1;stroke-dasharray:none"
       d="m 235.28571,905.71801 c -1.78571,0 -216.037745,57.88714 -216.037745,57.88714 l 215.267025,57.68065"
       id="path3755"
       inkscape:connector-curvature="0" />
    <path
       style="fill:none;stroke:#000000;stroke-width:1px;stroke-linecap:butt;stroke-linejoin:miter;stroke-opacity:1"
       d="m 177.07143,894.64656 0,134.99984"
       id="path3757"
       inkscape:connector-curvature="0" />
    <g
       transform="matrix(1.2,0,0,1.2,-88.214286,735.71429)"
       ns0:text="$D\'$"
       ns0:preamble=""
       id="g3767">
      <defs
         id="defs3769">
        <g
           id="g3771">
          <symbol
             style="overflow:visible"
             overflow="visible"
             id="textext-7ae817d0-0">
            <path
               inkscape:connector-curvature="0"
               style="stroke:none"
               d="m 1.578125,-0.78125 c -0.09375,0.390625 -0.109375,0.46875 -0.90625,0.46875 -0.15625,0 -0.265625,0 -0.265625,0.1875 C 0.40625,0 0.484375,0 0.671875,0 l 3.3125,0 c 2.0625,0 4.03125,-2.109375 4.03125,-4.28125 0,-1.40625 -0.84375,-2.53125 -2.34375,-2.53125 l -3.34375,0 c -0.1875,0 -0.296875,0 -0.296875,0.1875 0,0.125 0.078125,0.125 0.28125,0.125 0.125,0 0.3125,0.015625 0.421875,0.015625 0.171875,0.03125 0.21875,0.046875 0.21875,0.171875 0,0.03125 0,0.0625 -0.03125,0.1875 z M 3.734375,-6.125 C 3.828125,-6.46875 3.84375,-6.5 4.28125,-6.5 l 1.0625,0 c 0.96875,0 1.796875,0.53125 1.796875,1.84375 0,0.484375 -0.1875,2.125 -1.046875,3.21875 -0.28125,0.375 -1.0625,1.125 -2.296875,1.125 l -1.125,0 c -0.140625,0 -0.15625,0 -0.21875,0 -0.09375,-0.015625 -0.125,-0.03125 -0.125,-0.109375 0,-0.03125 0,-0.046875 0.046875,-0.21875 z m 0,0"
               id="path3774" />
          </symbol>
          <symbol
             style="overflow:visible"
             overflow="visible"
             id="textext-7ae817d0-1">
            <path
               inkscape:connector-curvature="0"
               style="stroke:none"
               d="m 2.015625,-3.296875 c 0.0625,-0.109375 0.0625,-0.171875 0.0625,-0.21875 0,-0.21875 -0.1875,-0.375 -0.40625,-0.375 -0.265625,0 -0.34375,0.21875 -0.375,0.328125 L 0.375,-0.546875 c -0.015625,0.015625 -0.046875,0.09375 -0.046875,0.109375 0,0.078125 0.21875,0.15625 0.28125,0.15625 0.046875,0 0.046875,-0.015625 0.09375,-0.125 z m 0,0"
               id="path3777" />
          </symbol>
        </g>
      </defs>
      <g
         id="textext-7ae817d0-2">
        <g
           style="fill:#000000;fill-opacity:1"
           id="g3780">
          <use
             height="177.16534"
             width="283.46457"
             xlink:href="#textext-7ae817d0-0"
             x="223.43201"
             y="134.765"
             id="use3782" />
        </g>
        <g
           style="fill:#000000;fill-opacity:1"
           id="g3784">
          <use
             height="177.16534"
             width="283.46457"
             xlink:href="#textext-7ae817d0-1"
             x="231.957"
             y="131.14999"
             id="use3786" />
        </g>
      </g>
    </g>
    <g
       id="g3850"
       transform="matrix(1.2,0,0,1.2,-30.214286,841.71429)"
       ns0:preamble=""
       ns0:text="$D$">
      <defs
         id="defs3852">
        <g
           id="g3854">
          <symbol
             id="textext-d7c66bf9-0"
             overflow="visible">
            <path
               id="path3857"
               d="M 1.578125 -0.78125 C 1.484375 -0.390625 1.46875 -0.3125 0.671875 -0.3125 C 0.515625 -0.3125 0.40625 -0.3125 0.40625 -0.125 C 0.40625 0 0.484375 0 0.671875 0 L 3.984375 0 C 6.046875 0 8.015625 -2.109375 8.015625 -4.28125 C 8.015625 -5.6875 7.171875 -6.8125 5.671875 -6.8125 L 2.328125 -6.8125 C 2.140625 -6.8125 2.03125 -6.8125 2.03125 -6.625 C 2.03125 -6.5 2.109375 -6.5 2.3125 -6.5 C 2.4375 -6.5 2.625 -6.484375 2.734375 -6.484375 C 2.90625 -6.453125 2.953125 -6.4375 2.953125 -6.3125 C 2.953125 -6.28125 2.953125 -6.25 2.921875 -6.125 Z M 3.734375 -6.125 C 3.828125 -6.46875 3.84375 -6.5 4.28125 -6.5 L 5.34375 -6.5 C 6.3125 -6.5 7.140625 -5.96875 7.140625 -4.65625 C 7.140625 -4.171875 6.953125 -2.53125 6.09375 -1.4375 C 5.8125 -1.0625 5.03125 -0.3125 3.796875 -0.3125 L 2.671875 -0.3125 C 2.53125 -0.3125 2.515625 -0.3125 2.453125 -0.3125 C 2.359375 -0.328125 2.328125 -0.34375 2.328125 -0.421875 C 2.328125 -0.453125 2.328125 -0.46875 2.375 -0.640625 Z M 3.734375 -6.125 "
               style="stroke:none;" />
          </symbol>
        </g>
      </defs>
      <g
         id="textext-d7c66bf9-1">
        <g
           id="g3860"
           style="fill:rgb(0%,0%,0%);fill-opacity:1;">
          <use
             id="use3862"
             y="134.765"
             x="223.432"
             xlink:href="#textext-d7c66bf9-0" />
        </g>
      </g>
    </g>
    <g
       id="g4010"
       transform="matrix(1.2,0,0,1.2,-263.92857,806)"
       ns0:preamble=""
       ns0:text="$O$">
      <defs
         id="defs4012">
        <g
           id="g4014">
          <symbol
             id="textext-e788bdae-0"
             overflow="visible"
             style="overflow:visible">
            <path
               id="path4017"
               d="m 7.375,-4.34375 c 0,-1.609375 -1.0625,-2.6875 -2.546875,-2.6875 -2.140625,0 -4.34375,2.265625 -4.34375,4.59375 0,1.65625 1.125,2.65625 2.5625,2.65625 2.109375,0 4.328125,-2.1875 4.328125,-4.5625 z m -4.28125,4.296875 c -0.984375,0 -1.671875,-0.796875 -1.671875,-2.109375 0,-0.453125 0.140625,-1.90625 0.90625,-3.0625 0.6875,-1.046875 1.65625,-1.5625 2.453125,-1.5625 0.8125,0 1.703125,0.5625 1.703125,2.046875 0,0.71875 -0.265625,2.265625 -1.25,3.5 C 4.75,-0.625 3.9375,-0.046875 3.09375,-0.046875 z m 0,0"
               style="stroke:none"
               inkscape:connector-curvature="0" />
          </symbol>
        </g>
      </defs>
      <g
         id="textext-e788bdae-1">
        <g
           id="g4020"
           style="fill:#000000;fill-opacity:1">
          <use
             id="use4022"
             y="134.765"
             x="223.43201"
             xlink:href="#textext-e788bdae-0"
             width="283.46457"
             height="177.16534" />
        </g>
      </g>
    </g>
  </g>
</svg>
