<?xml version="1.0" encoding="UTF-8" standalone="no"?>
<!-- Created with Inkscape (http://www.inkscape.org/) -->

<svg
   xmlns:ns1="http://www.iki.fi/pav/software/textext/"
   xmlns:dc="http://purl.org/dc/elements/1.1/"
   xmlns:cc="http://creativecommons.org/ns#"
   xmlns:rdf="http://www.w3.org/1999/02/22-rdf-syntax-ns#"
   xmlns:svg="http://www.w3.org/2000/svg"
   xmlns="http://www.w3.org/2000/svg"
   xmlns:sodipodi="http://sodipodi.sourceforge.net/DTD/sodipodi-0.dtd"
   xmlns:inkscape="http://www.inkscape.org/namespaces/inkscape"
   sodipodi:docname="fig2.svg"
   id="svg8"
   version="1.1"
   viewBox="0 0 120 99.999997"
   height="10cm"
   width="12cm"
   inkscape:version="0.92.4 (unknown)">
  <defs
     id="defs2">
    <marker
       inkscape:isstock="true"
       style="overflow:visible;"
       id="marker12720"
       refX="0.0"
       refY="0.0"
       orient="auto"
       inkscape:stockid="Arrow1Mend">
      <path
         transform="scale(0.4) rotate(180) translate(10,0)"
         style="fill-rule:evenodd;stroke:#000000;stroke-width:1pt;stroke-opacity:1;fill:#000000;fill-opacity:1"
         d="M 0.0,0.0 L 5.0,-5.0 L -12.5,0.0 L 5.0,5.0 L 0.0,0.0 z "
         id="path12718" />
    </marker>
    <marker
       inkscape:stockid="Arrow1Mend"
       orient="auto"
       refY="0.0"
       refX="0.0"
       id="marker12270"
       style="overflow:visible;"
       inkscape:isstock="true"
       inkscape:collect="always">
      <path
         id="path12268"
         d="M 0.0,0.0 L 5.0,-5.0 L -12.5,0.0 L 5.0,5.0 L 0.0,0.0 z "
         style="fill-rule:evenodd;stroke:#000000;stroke-width:1pt;stroke-opacity:1;fill:#000000;fill-opacity:1"
         transform="scale(0.4) rotate(180) translate(10,0)" />
    </marker>
    <marker
       inkscape:isstock="true"
       style="overflow:visible;"
       id="marker10986"
       refX="0.0"
       refY="0.0"
       orient="auto"
       inkscape:stockid="Arrow1Mend"
       inkscape:collect="always">
      <path
         transform="scale(0.4) rotate(180) translate(10,0)"
         style="fill-rule:evenodd;stroke:#000000;stroke-width:1pt;stroke-opacity:1;fill:#000000;fill-opacity:1"
         d="M 0.0,0.0 L 5.0,-5.0 L -12.5,0.0 L 5.0,5.0 L 0.0,0.0 z "
         id="path10984" />
    </marker>
    <marker
       inkscape:isstock="true"
       style="overflow:visible;"
       id="marker9948"
       refX="0.0"
       refY="0.0"
       orient="auto"
       inkscape:stockid="Arrow1Mend">
      <path
         transform="scale(0.4) rotate(180) translate(10,0)"
         style="fill-rule:evenodd;stroke:#000000;stroke-width:1pt;stroke-opacity:1;fill:#000000;fill-opacity:1"
         d="M 0.0,0.0 L 5.0,-5.0 L -12.5,0.0 L 5.0,5.0 L 0.0,0.0 z "
         id="path9946" />
    </marker>
    <marker
       inkscape:isstock="true"
       style="overflow:visible;"
       id="marker9778"
       refX="0.0"
       refY="0.0"
       orient="auto"
       inkscape:stockid="Arrow1Mend">
      <path
         transform="scale(0.4) rotate(180) translate(10,0)"
         style="fill-rule:evenodd;stroke:#000000;stroke-width:1pt;stroke-opacity:1;fill:#000000;fill-opacity:1"
         d="M 0.0,0.0 L 5.0,-5.0 L -12.5,0.0 L 5.0,5.0 L 0.0,0.0 z "
         id="path9776" />
    </marker>
    <marker
       inkscape:stockid="Arrow1Mend"
       orient="auto"
       refY="0.0"
       refX="0.0"
       id="marker9624"
       style="overflow:visible;"
       inkscape:isstock="true">
      <path
         id="path9622"
         d="M 0.0,0.0 L 5.0,-5.0 L -12.5,0.0 L 5.0,5.0 L 0.0,0.0 z "
         style="fill-rule:evenodd;stroke:#000000;stroke-width:1pt;stroke-opacity:1;fill:#000000;fill-opacity:1"
         transform="scale(0.4) rotate(180) translate(10,0)" />
    </marker>
    <marker
       inkscape:stockid="Arrow1Mend"
       orient="auto"
       refY="0.0"
       refX="0.0"
       id="marker9316"
       style="overflow:visible;"
       inkscape:isstock="true"
       inkscape:collect="always">
      <path
         id="path9314"
         d="M 0.0,0.0 L 5.0,-5.0 L -12.5,0.0 L 5.0,5.0 L 0.0,0.0 z "
         style="fill-rule:evenodd;stroke:#000000;stroke-width:1pt;stroke-opacity:1;fill:#000000;fill-opacity:1"
         transform="scale(0.4) rotate(180) translate(10,0)" />
    </marker>
    <marker
       inkscape:isstock="true"
       style="overflow:visible;"
       id="marker7255"
       refX="0.0"
       refY="0.0"
       orient="auto"
       inkscape:stockid="Arrow1Mend">
      <path
         transform="scale(0.4) rotate(180) translate(10,0)"
         style="fill-rule:evenodd;stroke:#000000;stroke-width:1pt;stroke-opacity:1;fill:#000000;fill-opacity:1"
         d="M 0.0,0.0 L 5.0,-5.0 L -12.5,0.0 L 5.0,5.0 L 0.0,0.0 z "
         id="path7253" />
    </marker>
    <marker
       inkscape:stockid="Arrow1Mend"
       orient="auto"
       refY="0.0"
       refX="0.0"
       id="marker6565"
       style="overflow:visible;"
       inkscape:isstock="true">
      <path
         id="path6563"
         d="M 0.0,0.0 L 5.0,-5.0 L -12.5,0.0 L 5.0,5.0 L 0.0,0.0 z "
         style="fill-rule:evenodd;stroke:#000000;stroke-width:1pt;stroke-opacity:1;fill:#000000;fill-opacity:1"
         transform="scale(0.4) rotate(180) translate(10,0)" />
    </marker>
    <marker
       inkscape:stockid="Arrow1Mend"
       orient="auto"
       refY="0.0"
       refX="0.0"
       id="marker1770"
       style="overflow:visible;"
       inkscape:isstock="true">
      <path
         id="path1768"
         d="M 0.0,0.0 L 5.0,-5.0 L -12.5,0.0 L 5.0,5.0 L 0.0,0.0 z "
         style="fill-rule:evenodd;stroke:#000000;stroke-width:1pt;stroke-opacity:1;fill:#000000;fill-opacity:1"
         transform="scale(0.4) rotate(180) translate(10,0)" />
    </marker>
    <marker
       inkscape:stockid="Arrow1Mstart"
       orient="auto"
       refY="0.0"
       refX="0.0"
       id="marker21240"
       style="overflow:visible"
       inkscape:isstock="true">
      <path
         id="path21238"
         d="M 0.0,0.0 L 5.0,-5.0 L -12.5,0.0 L 5.0,5.0 L 0.0,0.0 z "
         style="fill-rule:evenodd;stroke:#000000;stroke-width:1pt;stroke-opacity:1;fill:#000000;fill-opacity:1"
         transform="scale(0.4) translate(10,0)" />
    </marker>
    <marker
       inkscape:stockid="Arrow1Mstart"
       orient="auto"
       refY="0.0"
       refX="0.0"
       id="marker17534"
       style="overflow:visible"
       inkscape:isstock="true">
      <path
         id="path17532"
         d="M 0.0,0.0 L 5.0,-5.0 L -12.5,0.0 L 5.0,5.0 L 0.0,0.0 z "
         style="fill-rule:evenodd;stroke:#000000;stroke-width:1pt;stroke-opacity:1;fill:#000000;fill-opacity:1"
         transform="scale(0.4) translate(10,0)" />
    </marker>
    <marker
       inkscape:stockid="Arrow1Mstart"
       orient="auto"
       refY="0.0"
       refX="0.0"
       id="marker16399"
       style="overflow:visible"
       inkscape:isstock="true">
      <path
         id="path16397"
         d="M 0.0,0.0 L 5.0,-5.0 L -12.5,0.0 L 5.0,5.0 L 0.0,0.0 z "
         style="fill-rule:evenodd;stroke:#666666;stroke-width:1pt;stroke-opacity:1;fill:#666666;fill-opacity:1"
         transform="scale(0.4) translate(10,0)" />
    </marker>
    <marker
       inkscape:stockid="Arrow1Mstart"
       orient="auto"
       refY="0.0"
       refX="0.0"
       id="marker13571"
       style="overflow:visible"
       inkscape:isstock="true">
      <path
         id="path13569"
         d="M 0.0,0.0 L 5.0,-5.0 L -12.5,0.0 L 5.0,5.0 L 0.0,0.0 z "
         style="fill-rule:evenodd;stroke:#000000;stroke-width:1pt;stroke-opacity:1;fill:#000000;fill-opacity:1"
         transform="scale(0.4) translate(10,0)" />
    </marker>
    <marker
       inkscape:isstock="true"
       style="overflow:visible"
       id="marker12137"
       refX="0.0"
       refY="0.0"
       orient="auto"
       inkscape:stockid="Arrow1Mstart">
      <path
         transform="scale(0.4) translate(10,0)"
         style="fill-rule:evenodd;stroke:#808080;stroke-width:1pt;stroke-opacity:1;fill:#808080;fill-opacity:1"
         d="M 0.0,0.0 L 5.0,-5.0 L -12.5,0.0 L 5.0,5.0 L 0.0,0.0 z "
         id="path12135" />
    </marker>
    <marker
       inkscape:stockid="Arrow1Mend"
       orient="auto"
       refY="0.0"
       refX="0.0"
       id="marker6990"
       style="overflow:visible;"
       inkscape:isstock="true">
      <path
         id="path6988"
         d="M 0.0,0.0 L 5.0,-5.0 L -12.5,0.0 L 5.0,5.0 L 0.0,0.0 z "
         style="fill-rule:evenodd;stroke:#000000;stroke-width:1pt;stroke-opacity:1;fill:#000000;fill-opacity:1"
         transform="scale(0.4) rotate(180) translate(10,0)" />
    </marker>
    <marker
       inkscape:stockid="Arrow1Mend"
       orient="auto"
       refY="0.0"
       refX="0.0"
       id="marker2742"
       style="overflow:visible;"
       inkscape:isstock="true">
      <path
         id="path2740"
         d="M 0.0,0.0 L 5.0,-5.0 L -12.5,0.0 L 5.0,5.0 L 0.0,0.0 z "
         style="fill-rule:evenodd;stroke:#000000;stroke-width:1pt;stroke-opacity:1;fill:#000000;fill-opacity:1"
         transform="scale(0.4) rotate(180) translate(10,0)" />
    </marker>
    <marker
       inkscape:stockid="Arrow1Mend"
       orient="auto"
       refY="0.0"
       refX="0.0"
       id="marker2118"
       style="overflow:visible;"
       inkscape:isstock="true">
      <path
         id="path2116"
         d="M 0.0,0.0 L 5.0,-5.0 L -12.5,0.0 L 5.0,5.0 L 0.0,0.0 z "
         style="fill-rule:evenodd;stroke:#000000;stroke-width:1pt;stroke-opacity:1;fill:#000000;fill-opacity:1"
         transform="scale(0.4) rotate(180) translate(10,0)" />
    </marker>
    <marker
       inkscape:isstock="true"
       style="overflow:visible;"
       id="marker18120"
       refX="0.0"
       refY="0.0"
       orient="auto"
       inkscape:stockid="Arrow1Mend">
      <path
         transform="scale(0.4) rotate(180) translate(10,0)"
         style="fill-rule:evenodd;stroke:#000000;stroke-width:1pt;stroke-opacity:1;fill:#000000;fill-opacity:1"
         d="M 0.0,0.0 L 5.0,-5.0 L -12.5,0.0 L 5.0,5.0 L 0.0,0.0 z "
         id="path18118" />
    </marker>
    <marker
       inkscape:stockid="Arrow1Mend"
       orient="auto"
       refY="0.0"
       refX="0.0"
       id="marker17533"
       style="overflow:visible;"
       inkscape:isstock="true">
      <path
         id="path17531"
         d="M 0.0,0.0 L 5.0,-5.0 L -12.5,0.0 L 5.0,5.0 L 0.0,0.0 z "
         style="fill-rule:evenodd;stroke:#000000;stroke-width:1pt;stroke-opacity:1;fill:#000000;fill-opacity:1"
         transform="scale(0.4) rotate(180) translate(10,0)" />
    </marker>
    <marker
       inkscape:isstock="true"
       style="overflow:visible;"
       id="marker10832"
       refX="0.0"
       refY="0.0"
       orient="auto"
       inkscape:stockid="Arrow1Mend">
      <path
         transform="scale(0.4) rotate(180) translate(10,0)"
         style="fill-rule:evenodd;stroke:#000000;stroke-width:1pt;stroke-opacity:1;fill:#000000;fill-opacity:1"
         d="M 0.0,0.0 L 5.0,-5.0 L -12.5,0.0 L 5.0,5.0 L 0.0,0.0 z "
         id="path10830" />
    </marker>
    <marker
       inkscape:isstock="true"
       style="overflow:visible;"
       id="marker8615"
       refX="0.0"
       refY="0.0"
       orient="auto"
       inkscape:stockid="Arrow1Mend">
      <path
         transform="scale(0.4) rotate(180) translate(10,0)"
         style="fill-rule:evenodd;stroke:#000000;stroke-width:1pt;stroke-opacity:1;fill:#000000;fill-opacity:1"
         d="M 0.0,0.0 L 5.0,-5.0 L -12.5,0.0 L 5.0,5.0 L 0.0,0.0 z "
         id="path8613" />
    </marker>
    <marker
       inkscape:isstock="true"
       style="overflow:visible;"
       id="marker1866"
       refX="0.0"
       refY="0.0"
       orient="auto"
       inkscape:stockid="Arrow1Mend">
      <path
         transform="scale(0.4) rotate(180) translate(10,0)"
         style="fill-rule:evenodd;stroke:#000000;stroke-width:1pt;stroke-opacity:1;fill:#000000;fill-opacity:1"
         d="M 0.0,0.0 L 5.0,-5.0 L -12.5,0.0 L 5.0,5.0 L 0.0,0.0 z "
         id="path1864" />
    </marker>
    <marker
       inkscape:isstock="true"
       style="overflow:visible;"
       id="marker4824"
       refX="0.0"
       refY="0.0"
       orient="auto"
       inkscape:stockid="Arrow1Mend">
      <path
         transform="scale(0.4) rotate(180) translate(10,0)"
         style="fill-rule:evenodd;stroke:#000000;stroke-width:1pt;stroke-opacity:1;fill:#000000;fill-opacity:1"
         d="M 0.0,0.0 L 5.0,-5.0 L -12.5,0.0 L 5.0,5.0 L 0.0,0.0 z "
         id="path4822" />
    </marker>
  </defs>
  <sodipodi:namedview
     id="base"
     pagecolor="#ffffff"
     bordercolor="#666666"
     borderopacity="1.0"
     inkscape:pageopacity="0.0"
     inkscape:pageshadow="2"
     inkscape:zoom="1.2303125"
     inkscape:cx="226.77165"
     inkscape:cy="188.97638"
     inkscape:document-units="cm"
     inkscape:current-layer="layer1"
     showgrid="false"
     units="cm"
     inkscape:window-width="764"
     inkscape:window-height="716"
     inkscape:window-x="10"
     inkscape:window-y="24"
     inkscape:window-maximized="0"
     inkscape:object-paths="false"
     inkscape:snap-intersection-paths="false"
     inkscape:snap-object-midpoints="false"
     inkscape:snap-center="false"
     inkscape:snap-midpoints="false"
     inkscape:snap-others="false"
     inkscape:object-nodes="true">
    <inkscape:grid
       empspacing="4"
       dotted="false"
       id="grid4518"
       type="xygrid" />
  </sodipodi:namedview>
  <metadata
     id="metadata5">
    <rdf:RDF>
      <cc:Work
         rdf:about="">
        <dc:format>image/svg+xml</dc:format>
        <dc:type
           rdf:resource="http://purl.org/dc/dcmitype/StillImage" />
        <dc:title></dc:title>
      </cc:Work>
    </rdf:RDF>
  </metadata>
  <g
     inkscape:label="Layer 1"
     inkscape:groupmode="layer"
     id="layer1"
     transform="translate(0,-197.00001)">
    <g
       id="g14002">
      <path
         inkscape:connector-curvature="0"
         id="path9198"
         d="M 28.863386,271.62205 H 79.488327"
         style="color:#000000;clip-rule:nonzero;display:inline;overflow:visible;visibility:visible;opacity:1;isolation:auto;mix-blend-mode:normal;color-interpolation:sRGB;color-interpolation-filters:linearRGB;solid-color:#000000;solid-opacity:1;fill:none;fill-opacity:1;fill-rule:nonzero;stroke:#000000;stroke-width:0.26458335;stroke-linecap:round;stroke-linejoin:round;stroke-miterlimit:4;stroke-dasharray:none;stroke-dashoffset:0;stroke-opacity:1;marker-end:url(#marker9948);color-rendering:auto;image-rendering:auto;shape-rendering:auto;text-rendering:auto;enable-background:accumulate"
         sodipodi:nodetypes="cc" />
      <path
         sodipodi:nodetypes="cc"
         style="color:#000000;clip-rule:nonzero;display:inline;overflow:visible;visibility:visible;opacity:1;isolation:auto;mix-blend-mode:normal;color-interpolation:sRGB;color-interpolation-filters:linearRGB;solid-color:#000000;solid-opacity:1;fill:none;fill-opacity:1;fill-rule:nonzero;stroke:#000000;stroke-width:0.26458335;stroke-linecap:round;stroke-linejoin:round;stroke-miterlimit:4;stroke-dasharray:none;stroke-dashoffset:0;stroke-opacity:1;marker-end:url(#marker9316);color-rendering:auto;image-rendering:auto;shape-rendering:auto;text-rendering:auto;enable-background:accumulate"
         d="M 28.889255,271.60752 63.437393,237.09545"
         id="path9206"
         inkscape:connector-curvature="0" />
      <path
         inkscape:connector-curvature="0"
         id="path9208"
         d="m 28.874731,271.62204 30.047351,-8.05117"
         style="color:#000000;clip-rule:nonzero;display:inline;overflow:visible;visibility:visible;opacity:1;isolation:auto;mix-blend-mode:normal;color-interpolation:sRGB;color-interpolation-filters:linearRGB;solid-color:#000000;solid-opacity:1;fill:none;fill-opacity:1;fill-rule:nonzero;stroke:#000000;stroke-width:0.15875;stroke-linecap:round;stroke-linejoin:round;stroke-miterlimit:4;stroke-dasharray:0.47625001, 0.47625001;stroke-dashoffset:0;stroke-opacity:1;color-rendering:auto;image-rendering:auto;shape-rendering:auto;text-rendering:auto;enable-background:accumulate"
         sodipodi:nodetypes="cc" />
      <path
         sodipodi:nodetypes="cc"
         style="color:#000000;clip-rule:nonzero;display:inline;overflow:visible;visibility:visible;opacity:1;isolation:auto;mix-blend-mode:normal;color-interpolation:sRGB;color-interpolation-filters:linearRGB;solid-color:#000000;solid-opacity:1;fill:none;fill-opacity:1;fill-rule:nonzero;stroke:#000000;stroke-width:0.15875;stroke-linecap:round;stroke-linejoin:round;stroke-miterlimit:4;stroke-dasharray:none;stroke-dashoffset:0;stroke-opacity:1;color-rendering:auto;image-rendering:auto;shape-rendering:auto;text-rendering:auto;enable-background:accumulate"
         d="M 58.922082,279.41934 V 263.56218"
         id="path9210"
         inkscape:connector-curvature="0" />
      <path
         inkscape:connector-curvature="0"
         id="path9212"
         d="M 59.070698,263.59461 36.925896,241.57468"
         style="color:#000000;clip-rule:nonzero;display:inline;overflow:visible;visibility:visible;opacity:1;isolation:auto;mix-blend-mode:normal;color-interpolation:sRGB;color-interpolation-filters:linearRGB;solid-color:#000000;solid-opacity:1;fill:none;fill-opacity:1;fill-rule:nonzero;stroke:#000000;stroke-width:0.15875;stroke-linecap:round;stroke-linejoin:round;stroke-miterlimit:4;stroke-dasharray:none;stroke-dashoffset:0;stroke-opacity:1;color-rendering:auto;image-rendering:auto;shape-rendering:auto;text-rendering:auto;enable-background:accumulate"
         sodipodi:nodetypes="cc" />
      <path
         sodipodi:nodetypes="cc"
         inkscape:connector-curvature="0"
         id="path9218"
         d="m 41.140253,268.3717 c 1.135464,0.81707 1.293764,1.88754 0.626431,3.25182"
         style="color:#000000;clip-rule:nonzero;display:inline;overflow:visible;visibility:visible;opacity:1;isolation:auto;mix-blend-mode:normal;color-interpolation:sRGB;color-interpolation-filters:linearRGB;solid-color:#000000;solid-opacity:1;fill:none;fill-opacity:1;fill-rule:nonzero;stroke:#000000;stroke-width:0.18520834;stroke-linecap:round;stroke-linejoin:round;stroke-miterlimit:4;stroke-dasharray:none;stroke-dashoffset:0;stroke-opacity:1;color-rendering:auto;image-rendering:auto;shape-rendering:auto;text-rendering:auto;enable-background:accumulate" />
      <g
         id="g9268"
         ns1:jacobian_sqrt="0.423333"
         inkscapeversion="0.92.4"
         ns1:alignment="middle center"
         ns1:scale="1.2"
         ns1:preamble="/home/sriranga/Documents/package.tex"
         ns1:text="$P$"
         ns1:pdfconverter="pdf2svg"
         ns1:texconverter="pdflatex"
         ns1:version="0.8.1"
         transform="matrix(0.423333,0,0,0.423333,-3.3868906,225.2029)">
        <g
           id="g9266">
          <g
             id="g9264"
             style="fill:#000000;fill-opacity:1">
            <path
               id="path9262"
               transform="translate(148.712,134.765)"
               d="M 3.015625,-3.15625 H 4.71875 c 1.40625,0 2.796875,-1.03125 2.796875,-2.140625 0,-0.78125 -0.65625,-1.515625 -1.96875,-1.515625 h -3.21875 c -0.1875,0 -0.296875,0 -0.296875,0.1875 0,0.125 0.078125,0.125 0.28125,0.125 0.125,0 0.3125,0.015625 0.421875,0.015625 0.171875,0.03125 0.21875,0.046875 0.21875,0.171875 0,0.03125 0,0.0625 -0.03125,0.1875 l -1.34375,5.34375 c -0.09375,0.390625 -0.109375,0.46875 -0.90625,0.46875 -0.15625,0 -0.265625,0 -0.265625,0.1875 C 0.40625,0 0.515625,0 0.546875,0 0.828125,0 1.53125,-0.03125 1.8125,-0.03125 c 0.21875,0 0.4375,0.015625 0.640625,0.015625 0.21875,0 0.4375,0.015625 0.640625,0.015625 0.078125,0 0.203125,0 0.203125,-0.203125 0,-0.109375 -0.09375,-0.109375 -0.28125,-0.109375 -0.359375,0 -0.640625,0 -0.640625,-0.171875 0,-0.0625 0.015625,-0.109375 0.03125,-0.171875 z M 3.734375,-6.125 C 3.828125,-6.46875 3.84375,-6.5 4.28125,-6.5 h 0.953125 c 0.828125,0 1.359375,0.265625 1.359375,0.953125 0,0.390625 -0.203125,1.25 -0.59375,1.609375 -0.5,0.453125 -1.09375,0.53125 -1.53125,0.53125 H 3.0625 Z m 0,0"
               style="stroke:none;stroke-width:0"
               inkscape:connector-curvature="0" />
          </g>
        </g>
      </g>
      <text
         xml:space="preserve"
         style="font-style:normal;font-variant:normal;font-weight:normal;font-stretch:normal;font-size:4.23333311px;line-height:125%;font-family:LMRoman12;-inkscape-font-specification:'LMRoman12, Normal';font-variant-ligatures:normal;font-variant-caps:normal;font-variant-numeric:normal;font-feature-settings:normal;text-align:start;letter-spacing:0px;word-spacing:0px;writing-mode:lr-tb;text-anchor:start;fill:#000000;fill-opacity:1;stroke:none;stroke-width:0.26458332px;stroke-linecap:butt;stroke-linejoin:miter;stroke-opacity:1"
         x="25.664598"
         y="274.74493"
         id="text9272"><tspan
           sodipodi:role="line"
           id="tspan9270"
           x="25.664598"
           y="274.74493"
           style="stroke-width:0.26458332px">O</tspan></text>
      <path
         sodipodi:nodetypes="cc"
         style="color:#000000;clip-rule:nonzero;display:inline;overflow:visible;visibility:visible;opacity:1;isolation:auto;mix-blend-mode:normal;color-interpolation:sRGB;color-interpolation-filters:linearRGB;solid-color:#000000;solid-opacity:1;fill:none;fill-opacity:1;fill-rule:nonzero;stroke:#000000;stroke-width:0.15875;stroke-linecap:round;stroke-linejoin:round;stroke-miterlimit:4;stroke-dasharray:0.47625001, 0.47625001;stroke-dashoffset:0;stroke-opacity:1;color-rendering:auto;image-rendering:auto;shape-rendering:auto;text-rendering:auto;enable-background:accumulate"
         d="m 28.874731,271.62205 30.047356,8.05115"
         id="path9618"
         inkscape:connector-curvature="0" />
      <path
         inkscape:connector-curvature="0"
         id="path9620"
         d="m 58.922082,279.41934 c 3.553022,-5.59468 3.033383,-10.83521 0,-15.85716"
         style="color:#000000;clip-rule:nonzero;display:inline;overflow:visible;visibility:visible;opacity:1;isolation:auto;mix-blend-mode:normal;color-interpolation:sRGB;color-interpolation-filters:linearRGB;solid-color:#000000;solid-opacity:1;fill:none;fill-opacity:1;fill-rule:nonzero;stroke:#000000;stroke-width:0.15875;stroke-linecap:round;stroke-linejoin:round;stroke-miterlimit:4;stroke-dasharray:0.47625001, 0.47625001;stroke-dashoffset:0;stroke-opacity:1;color-rendering:auto;image-rendering:auto;shape-rendering:auto;text-rendering:auto;enable-background:accumulate"
         sodipodi:nodetypes="cc" />
      <path
         sodipodi:nodetypes="cc"
         style="color:#000000;clip-rule:nonzero;display:inline;overflow:visible;visibility:visible;opacity:1;isolation:auto;mix-blend-mode:normal;color-interpolation:sRGB;color-interpolation-filters:linearRGB;solid-color:#000000;solid-opacity:1;fill:none;fill-opacity:1;fill-rule:nonzero;stroke:#000000;stroke-width:0.15875;stroke-linecap:round;stroke-linejoin:round;stroke-miterlimit:4;stroke-dasharray:0.47625001, 0.47625001;stroke-dashoffset:0;stroke-opacity:1;color-rendering:auto;image-rendering:auto;shape-rendering:auto;text-rendering:auto;enable-background:accumulate"
         d="m 28.874731,271.62204 8.051163,-30.04735"
         id="path9930"
         inkscape:connector-curvature="0" />
      <path
         sodipodi:nodetypes="cc"
         style="color:#000000;clip-rule:nonzero;display:inline;overflow:visible;visibility:visible;opacity:1;isolation:auto;mix-blend-mode:normal;color-interpolation:sRGB;color-interpolation-filters:linearRGB;solid-color:#000000;solid-opacity:1;fill:none;fill-opacity:1;fill-rule:nonzero;stroke:#000000;stroke-width:0.15874998;stroke-linecap:round;stroke-linejoin:round;stroke-miterlimit:4;stroke-dasharray:0.47625001, 0.47625001;stroke-dashoffset:0;stroke-opacity:1;color-rendering:auto;image-rendering:auto;shape-rendering:auto;text-rendering:auto;enable-background:accumulate"
         d="M 59.071122,263.59419 C 56.21533,250.79874 48.158211,244.19529 36.890692,241.41375"
         id="path9932"
         inkscape:connector-curvature="0" />
      <circle
         r="0.75"
         cy="279.41934"
         cx="58.922081"
         style="fill:#000000;stroke:none"
         id="path9934" />
      <circle
         r="0.75"
         cy="263.5946"
         cx="59.070698"
         style="fill:#000000;stroke:none"
         id="path9936" />
      <circle
         r="0.75"
         cy="241.41376"
         cx="36.890694"
         style="fill:#000000;stroke:none"
         id="path9938" />
      <path
         style="color:#000000;clip-rule:nonzero;display:inline;overflow:visible;visibility:visible;opacity:1;isolation:auto;mix-blend-mode:normal;color-interpolation:sRGB;color-interpolation-filters:linearRGB;solid-color:#000000;solid-opacity:1;fill:none;fill-opacity:1;fill-rule:nonzero;stroke:#000000;stroke-width:0.18520834;stroke-linecap:round;stroke-linejoin:round;stroke-miterlimit:4;stroke-dasharray:none;stroke-dashoffset:0;stroke-opacity:1;color-rendering:auto;image-rendering:auto;shape-rendering:auto;text-rendering:auto;enable-background:accumulate"
         d="m 41.766684,271.62352 c 0.885301,1.08311 0.761149,2.15808 -0.236547,3.30315"
         id="path9940"
         inkscape:connector-curvature="0"
         sodipodi:nodetypes="cc" />
      <path
         style="color:#000000;clip-rule:nonzero;display:inline;overflow:visible;visibility:visible;opacity:1;isolation:auto;mix-blend-mode:normal;color-interpolation:sRGB;color-interpolation-filters:linearRGB;solid-color:#000000;solid-opacity:1;fill:none;fill-opacity:1;fill-rule:nonzero;stroke:#000000;stroke-width:0.18520834;stroke-linecap:round;stroke-linejoin:round;stroke-miterlimit:4;stroke-dasharray:none;stroke-dashoffset:0;stroke-opacity:1;color-rendering:auto;image-rendering:auto;shape-rendering:auto;text-rendering:auto;enable-background:accumulate"
         d="m 34.857529,265.59953 c 1.626146,0.62891 2.14218,1.93832 1.744355,3.9245"
         id="path9942"
         inkscape:connector-curvature="0"
         sodipodi:nodetypes="cc" />
      <path
         sodipodi:nodetypes="cc"
         inkscape:connector-curvature="0"
         id="path9944"
         d="m 31.115805,263.23427 c 1.722741,-0.26841 3.38886,0.50002 3.741724,2.36526"
         style="color:#000000;clip-rule:nonzero;display:inline;overflow:visible;visibility:visible;opacity:1;isolation:auto;mix-blend-mode:normal;color-interpolation:sRGB;color-interpolation-filters:linearRGB;solid-color:#000000;solid-opacity:1;fill:none;fill-opacity:1;fill-rule:nonzero;stroke:#000000;stroke-width:0.18520834;stroke-linecap:round;stroke-linejoin:round;stroke-miterlimit:4;stroke-dasharray:none;stroke-dashoffset:0;stroke-opacity:1;color-rendering:auto;image-rendering:auto;shape-rendering:auto;text-rendering:auto;enable-background:accumulate" />
      <path
         inkscape:connector-curvature="0"
         id="path10982"
         d="m 51.992162,237.86694 -6.261454,6.25449"
         style="color:#000000;clip-rule:nonzero;display:inline;overflow:visible;visibility:visible;opacity:1;isolation:auto;mix-blend-mode:normal;color-interpolation:sRGB;color-interpolation-filters:linearRGB;solid-color:#000000;solid-opacity:1;fill:none;fill-opacity:1;fill-rule:nonzero;stroke:#000000;stroke-width:0.26458335;stroke-linecap:round;stroke-linejoin:round;stroke-miterlimit:4;stroke-dasharray:none;stroke-dashoffset:0;stroke-opacity:1;marker-end:url(#marker10986);color-rendering:auto;image-rendering:auto;shape-rendering:auto;text-rendering:auto;enable-background:accumulate"
         sodipodi:nodetypes="cc" />
      <path
         sodipodi:nodetypes="cc"
         style="color:#000000;clip-rule:nonzero;display:inline;overflow:visible;visibility:visible;opacity:1;isolation:auto;mix-blend-mode:normal;color-interpolation:sRGB;color-interpolation-filters:linearRGB;solid-color:#000000;solid-opacity:1;fill:none;fill-opacity:1;fill-rule:nonzero;stroke:#000000;stroke-width:0.26458335;stroke-linecap:round;stroke-linejoin:round;stroke-miterlimit:4;stroke-dasharray:none;stroke-dashoffset:0;stroke-opacity:1;marker-end:url(#marker12270);color-rendering:auto;image-rendering:auto;shape-rendering:auto;text-rendering:auto;enable-background:accumulate"
         d="m 59.747527,251.40081 -6.261454,6.25449"
         id="path12266"
         inkscape:connector-curvature="0" />
      <path
         inkscape:connector-curvature="0"
         id="path12716"
         d="m 65.64341,265.53976 -6.341799,1.60019"
         style="color:#000000;clip-rule:nonzero;display:inline;overflow:visible;visibility:visible;opacity:1;isolation:auto;mix-blend-mode:normal;color-interpolation:sRGB;color-interpolation-filters:linearRGB;solid-color:#000000;solid-opacity:1;fill:none;fill-opacity:1;fill-rule:nonzero;stroke:#000000;stroke-width:0.26458335;stroke-linecap:round;stroke-linejoin:round;stroke-miterlimit:4;stroke-dasharray:none;stroke-dashoffset:0;stroke-opacity:1;marker-end:url(#marker12720);color-rendering:auto;image-rendering:auto;shape-rendering:auto;text-rendering:auto;enable-background:accumulate"
         sodipodi:nodetypes="cc" />
      <text
         transform="rotate(-45)"
         id="text13294"
         y="204.32391"
         x="-131.14438"
         style="font-style:normal;font-variant:normal;font-weight:normal;font-stretch:normal;font-size:4.23333311px;line-height:125%;font-family:LMRoman12;-inkscape-font-specification:'LMRoman12, Normal';font-variant-ligatures:normal;font-variant-caps:normal;font-variant-numeric:normal;font-feature-settings:normal;text-align:start;letter-spacing:0px;word-spacing:0px;writing-mode:lr-tb;text-anchor:start;fill:#000000;fill-opacity:1;stroke:none;stroke-width:0.26458332px;stroke-linecap:butt;stroke-linejoin:miter;stroke-opacity:1"
         xml:space="preserve"><tspan
           style="stroke-width:0.26458332px"
           y="204.32391"
           x="-131.14438"
           id="tspan13292"
           sodipodi:role="line">Rotation</tspan></text>
      <text
         xml:space="preserve"
         style="font-style:normal;font-variant:normal;font-weight:normal;font-stretch:normal;font-size:4.23333311px;line-height:125%;font-family:LMRoman12;-inkscape-font-specification:'LMRoman12, Normal';font-variant-ligatures:normal;font-variant-caps:normal;font-variant-numeric:normal;font-feature-settings:normal;text-align:start;letter-spacing:0px;word-spacing:0px;writing-mode:lr-tb;text-anchor:start;fill:#000000;fill-opacity:1;stroke:none;stroke-width:0.26458332px;stroke-linecap:butt;stroke-linejoin:miter;stroke-opacity:1"
         x="-135.10542"
         y="221.20279"
         id="text13298"
         transform="rotate(-45)"><tspan
           sodipodi:role="line"
           id="tspan13296"
           x="-135.10542"
           y="221.20279"
           style="stroke-width:0.26458332px">Reflection</tspan></text>
      <text
         id="text13302"
         y="267.12683"
         x="66.138954"
         style="font-style:normal;font-variant:normal;font-weight:normal;font-stretch:normal;font-size:4.23333311px;line-height:125%;font-family:LMRoman12;-inkscape-font-specification:'LMRoman12, Normal';font-variant-ligatures:normal;font-variant-caps:normal;font-variant-numeric:normal;font-feature-settings:normal;text-align:start;letter-spacing:0px;word-spacing:0px;writing-mode:lr-tb;text-anchor:start;fill:#000000;fill-opacity:1;stroke:none;stroke-width:0.26458332px;stroke-linecap:butt;stroke-linejoin:miter;stroke-opacity:1"
         xml:space="preserve"><tspan
           style="stroke-width:0.26458332px"
           y="267.12683"
           x="66.138954"
           id="tspan13300"
           sodipodi:role="line">Reflection</tspan></text>
      <g
         transform="rotate(-45,69.085432,209.90572)"
         id="g13582">
        <path
           inkscape:connector-curvature="0"
           style="fill:#000000;fill-opacity:1;stroke:none;stroke-width:0"
           d="m 38.157403,220.00158 v -1.33615 l -0.608542,0.0463 v 0.1323 c 0.297656,0 0.330729,0.0264 0.330729,0.23812 v 2.51354 h 0.105834 c 0,-0.007 0.03307,-0.0661 0.152135,-0.26458 0.05953,0.0992 0.238125,0.31088 0.54901,0.31088 0.502708,0 0.93927,-0.41672 0.93927,-0.95911 0,-0.53578 -0.410104,-0.9525 -0.892968,-0.9525 -0.330729,0 -0.509323,0.19844 -0.575468,0.2712 z m 0.01323,1.11125 v -0.86651 c 0,-0.0794 0,-0.086 0.0463,-0.15214 0.165364,-0.23812 0.396874,-0.2712 0.496093,-0.2712 0.191823,0 0.343958,0.11245 0.443177,0.2712 0.112448,0.17198 0.119062,0.4101 0.119062,0.5887 0,0.15213 -0.0066,0.40349 -0.125677,0.59531 -0.0926,0.13229 -0.251354,0.2712 -0.476249,0.2712 -0.191823,0 -0.343958,-0.0992 -0.443177,-0.25797 -0.05953,-0.086 -0.05953,-0.0992 -0.05953,-0.17859 z m 0,0"
           id="path13387" />
        <path
           inkscape:connector-curvature="0"
           style="fill:#000000;fill-opacity:1;stroke:none;stroke-width:0"
           d="m 41.407815,220.18017 c 0.105833,-0.2712 0.324115,-0.2712 0.39026,-0.2712 v -0.13229 c -0.09922,0.007 -0.218281,0.0132 -0.317499,0.0132 -0.07276,0 -0.271198,-0.007 -0.363802,-0.0132 v 0.13229 c 0.132291,0 0.198437,0.0728 0.198437,0.1786 0,0.0463 -0.0066,0.0529 -0.02646,0.10583 l -0.429948,1.03187 -0.46302,-1.13109 c -0.01984,-0.0463 -0.02646,-0.0595 -0.02646,-0.0794 0,-0.10584 0.152136,-0.10584 0.238125,-0.10584 v -0.13229 c -0.112448,0.007 -0.39026,0.0132 -0.46302,0.0132 -0.112448,0 -0.284427,-0.007 -0.410104,-0.0132 v 0.13229 c 0.205052,0 0.284427,0 0.343958,0.14552 l 0.634999,1.5412 c -0.02646,0.0529 -0.08599,0.19182 -0.105833,0.25135 -0.0926,0.23151 -0.211666,0.52256 -0.482864,0.52256 -0.01984,0 -0.119062,0 -0.198437,-0.0794 0.132291,-0.0132 0.165364,-0.10583 0.165364,-0.17859 0,-0.10584 -0.07937,-0.17198 -0.178593,-0.17198 -0.08599,0 -0.178594,0.0529 -0.178594,0.17859 0,0.19182 0.178594,0.34396 0.39026,0.34396 0.264583,0 0.436562,-0.24474 0.535781,-0.48286 z m 0,0"
           id="path13391" />
        <path
           inkscape:connector-curvature="0"
           style="fill:#000000;fill-opacity:1;stroke:none;stroke-width:0"
           d="m 43.723527,222.60772 c 0,-0.0132 0,-0.0198 -0.07276,-0.0926 -0.522552,-0.52917 -0.661458,-1.32953 -0.661458,-1.97776 0,-0.73422 0.15875,-1.46844 0.681301,-1.99099 0.05292,-0.0529 0.05292,-0.0595 0.05292,-0.0728 0,-0.0331 -0.01323,-0.0463 -0.03969,-0.0463 -0.0463,0 -0.423333,0.29104 -0.674687,0.82682 -0.211667,0.46302 -0.264584,0.93265 -0.264584,1.28323 0,0.33073 0.0463,0.84005 0.277813,1.32291 0.257968,0.51594 0.615155,0.79375 0.661458,0.79375 0.02646,0 0.03969,-0.0132 0.03969,-0.0463 z m 0,0"
           id="path13395" />
        <path
           inkscape:connector-curvature="0"
           style="fill:#000000;fill-opacity:1;stroke:none;stroke-width:0"
           d="m 44.503815,221.27158 0.449791,-0.43657 c 0.654843,-0.58208 0.906197,-0.80698 0.906197,-1.23031 0,-0.48286 -0.377031,-0.82021 -0.892968,-0.82021 -0.476249,0 -0.787134,0.39026 -0.787134,0.7673 0,0.23151 0.211666,0.23151 0.224895,0.23151 0.07276,0 0.218281,-0.0463 0.218281,-0.2249 0,-0.10583 -0.07937,-0.21828 -0.224895,-0.21828 -0.03307,0 -0.03969,0 -0.05292,0.007 0.0926,-0.27781 0.324114,-0.42994 0.568854,-0.42994 0.383645,0 0.562239,0.34395 0.562239,0.68791 0,0.33735 -0.205052,0.66807 -0.443177,0.93266 L 44.226,221.43733 c -0.0463,0.0463 -0.0463,0.0595 -0.0463,0.15875 h 1.567655 l 0.112447,-0.73422 h -0.09922 c -0.02646,0.12568 -0.05292,0.31089 -0.09922,0.37703 -0.02646,0.0331 -0.304271,0.0331 -0.396875,0.0331 z m 0,0"
           id="path13397" />
        <path
           inkscape:connector-curvature="0"
           style="fill:#000000;fill-opacity:1;stroke:none;stroke-width:0"
           d="m 48.085587,220.59689 c 0,-0.66146 -0.39026,-0.86651 -0.701146,-0.86651 -0.582082,0 -1.137707,0.60193 -1.137707,1.19724 0,0.39687 0.251354,0.71437 0.687916,0.71437 0.264583,0 0.568854,-0.0992 0.886354,-0.35719 0.05292,0.2249 0.191822,0.35719 0.383645,0.35719 0.224896,0 0.357187,-0.23151 0.357187,-0.29765 0,-0.0331 -0.02646,-0.0463 -0.05292,-0.0463 -0.02646,0 -0.03969,0.0132 -0.05292,0.0463 -0.07937,0.20505 -0.23151,0.20505 -0.238125,0.20505 -0.132291,0 -0.132291,-0.33073 -0.132291,-0.42995 0,-0.086 0,-0.0992 0.0463,-0.14552 0.396874,-0.50271 0.482864,-0.99219 0.482864,-0.99219 0,-0.0132 -0.0066,-0.0463 -0.05292,-0.0463 -0.03969,0 -0.03969,0.0132 -0.05953,0.0926 -0.07937,0.26459 -0.218281,0.58209 -0.416718,0.83344 z m -0.277813,0.58208 c -0.37703,0.32412 -0.701145,0.37042 -0.866509,0.37042 -0.251354,0 -0.383646,-0.19182 -0.383646,-0.46302 0,-0.20505 0.112448,-0.66146 0.24474,-0.87313 0.198437,-0.31088 0.429947,-0.39026 0.575468,-0.39026 0.416718,0 0.416718,0.55563 0.416718,0.87974 0,0.15875 0,0.40349 0.01323,0.47625 z m 0,0"
           id="path13401" />
        <path
           inkscape:connector-curvature="0"
           style="fill:#000000;fill-opacity:1;stroke:none;stroke-width:0"
           d="m 51.451984,220.62335 h 1.177395 c 0.05953,0 0.138906,0 0.138906,-0.086 0,-0.0794 -0.07937,-0.0794 -0.138906,-0.0794 h -1.177395 v -1.18401 c 0,-0.0595 0,-0.1389 -0.08599,-0.1389 -0.08599,0 -0.08599,0.0794 -0.08599,0.1389 v 1.18401 H 50.10261 c -0.05953,0 -0.138906,0 -0.138906,0.0794 0,0.086 0.07937,0.086 0.138906,0.086 h 1.177395 v 1.18401 c 0,0.0595 0,0.1389 0.08599,0.1389 0.08599,0 0.08599,-0.0794 0.08599,-0.1389 z m 0,0"
           id="path13405" />
        <path
           inkscape:connector-curvature="0"
           style="fill:#000000;fill-opacity:1;stroke:none;stroke-width:0"
           d="m 54.478015,221.27158 0.449791,-0.43657 c 0.654843,-0.58208 0.906197,-0.80698 0.906197,-1.23031 0,-0.48286 -0.377031,-0.82021 -0.892968,-0.82021 -0.476249,0 -0.787135,0.39026 -0.787135,0.7673 0,0.23151 0.211667,0.23151 0.224896,0.23151 0.07276,0 0.218281,-0.0463 0.218281,-0.2249 0,-0.10583 -0.07937,-0.21828 -0.224895,-0.21828 -0.03307,0 -0.03969,0 -0.05292,0.007 0.0926,-0.27781 0.324114,-0.42994 0.568854,-0.42994 0.383645,0 0.562239,0.34395 0.562239,0.68791 0,0.33735 -0.205052,0.66807 -0.443177,0.93266 l -0.806978,0.89958 c -0.0463,0.0463 -0.0463,0.0595 -0.0463,0.15875 h 1.567656 l 0.112447,-0.73422 h -0.09922 c -0.02646,0.12568 -0.05292,0.31089 -0.09922,0.37703 -0.02646,0.0331 -0.304271,0.0331 -0.396875,0.0331 z m 0,0"
           id="path13409" />
        <path
           inkscape:connector-curvature="0"
           style="fill:#000000;fill-opacity:1;stroke:none;stroke-width:0"
           d="m 58.479417,219.1946 c 0,-0.3175 -0.23151,-0.57547 -0.575468,-0.57547 -0.24474,0 -0.363802,0.0661 -0.509323,0.17198 -0.23151,0.17198 -0.46302,0.58208 -0.542395,0.89958 l -0.674687,2.67891 c 0,0.0198 0.01984,0.0463 0.05292,0.0463 0.03307,0 0.0463,-0.0132 0.0463,-0.0198 l 0.297656,-1.17078 c 0.07937,0.25797 0.264583,0.41011 0.575468,0.41011 0.304271,0 0.62177,-0.14552 0.813593,-0.33073 0.205052,-0.19182 0.337344,-0.46302 0.337344,-0.77391 0,-0.30427 -0.15875,-0.52916 -0.310886,-0.62838 0.24474,-0.14552 0.489479,-0.40349 0.489479,-0.70776 z m -0.760676,0.70114 c -0.05292,0.0199 -0.09922,0.0265 -0.205052,0.0265 -0.05953,0 -0.138906,0.007 -0.185208,-0.0132 0.01323,-0.0463 0.165364,-0.0331 0.211666,-0.0331 0.08599,0 0.125677,0 0.178594,0.0198 z m 0.522551,-0.80036 c 0,0.29766 -0.15875,0.60193 -0.377031,0.73422 -0.119062,-0.0463 -0.198437,-0.0529 -0.324114,-0.0529 -0.0926,0 -0.330729,-0.007 -0.330729,0.13229 0,0.11906 0.218281,0.10584 0.291042,0.10584 0.158749,0 0.224895,0 0.350572,-0.0529 0.15875,0.15213 0.178594,0.28443 0.185208,0.47625 0.0066,0.24474 -0.0926,0.56224 -0.211666,0.7276 -0.165365,0.2249 -0.449791,0.37703 -0.687916,0.37703 -0.324115,0 -0.482864,-0.24474 -0.482864,-0.54239 0,-0.0397 0,-0.10584 0.01984,-0.18521 l 0.271198,-1.06495 c 0.0926,-0.3638 0.396875,-1.03849 0.906197,-1.03849 0.24474,0 0.39026,0.1323 0.39026,0.38365 z m 0,0"
           id="path13413" />
        <path
           inkscape:connector-curvature="0"
           style="fill:#000000;fill-opacity:1;stroke:none;stroke-width:0"
           d="m 59.877104,220.53736 c 0,-0.32412 -0.0463,-0.83344 -0.277812,-1.3163 -0.251354,-0.51594 -0.615156,-0.79375 -0.654843,-0.79375 -0.02646,0 -0.0463,0.0198 -0.0463,0.0463 0,0.0132 0,0.0198 0.07937,0.0992 0.416718,0.41672 0.654843,1.08479 0.654843,1.96453 0,0.7276 -0.152135,1.46843 -0.674687,1.9976 -0.05953,0.0529 -0.05953,0.0595 -0.05953,0.0728 0,0.0265 0.01984,0.0463 0.0463,0.0463 0.03969,0 0.423333,-0.29104 0.668072,-0.82682 0.218281,-0.46302 0.264583,-0.93266 0.264583,-1.28984 z m 0,0"
           id="path13417" />
      </g>
      <path
         id="path13429"
         d="m 35.365176,259.68832 c 0,-0.3175 -0.23151,-0.57547 -0.575468,-0.57547 -0.24474,0 -0.363802,0.0661 -0.509323,0.17198 -0.23151,0.17198 -0.46302,0.58208 -0.542395,0.89958 l -0.674687,2.67891 c 0,0.0198 0.01984,0.0463 0.05292,0.0463 0.03307,0 0.0463,-0.0132 0.0463,-0.0198 l 0.297656,-1.17078 c 0.07937,0.25797 0.264583,0.41011 0.575468,0.41011 0.304271,0 0.62177,-0.14552 0.813593,-0.33073 0.205052,-0.19182 0.337344,-0.46302 0.337344,-0.77391 0,-0.30427 -0.15875,-0.52916 -0.310886,-0.62838 0.24474,-0.14552 0.489479,-0.40349 0.489479,-0.70776 z m -0.760676,0.70114 c -0.05292,0.0199 -0.09922,0.0265 -0.205052,0.0265 -0.05953,0 -0.138906,0.007 -0.185208,-0.0132 0.01323,-0.0463 0.165364,-0.0331 0.211666,-0.0331 0.08599,0 0.125677,0 0.178594,0.0198 z m 0.522551,-0.80036 c 0,0.29766 -0.15875,0.60193 -0.377031,0.73422 -0.119062,-0.0463 -0.198437,-0.0529 -0.324114,-0.0529 -0.0926,0 -0.330729,-0.007 -0.330729,0.13229 0,0.11906 0.218281,0.10584 0.291042,0.10584 0.158749,0 0.224895,0 0.350572,-0.0529 0.15875,0.15213 0.178594,0.28443 0.185208,0.47625 0.0066,0.24474 -0.0926,0.56224 -0.211666,0.7276 -0.165365,0.2249 -0.449791,0.37703 -0.687916,0.37703 -0.324115,0 -0.482864,-0.24474 -0.482864,-0.54239 0,-0.0397 0,-0.10584 0.01984,-0.18521 l 0.271198,-1.06495 c 0.0926,-0.3638 0.396875,-1.03849 0.906197,-1.03849 0.24474,0 0.39026,0.1323 0.39026,0.38365 z m 0,0"
         style="fill:#000000;fill-opacity:1;stroke:none;stroke-width:0"
         inkscape:connector-curvature="0" />
      <path
         id="path13433"
         d="m 44.546728,269.74407 c 0,-0.66146 -0.39026,-0.86651 -0.701146,-0.86651 -0.582082,0 -1.137707,0.60193 -1.137707,1.19724 0,0.39687 0.251354,0.71437 0.687916,0.71437 0.264583,0 0.568854,-0.0992 0.886354,-0.35719 0.05292,0.2249 0.191822,0.35719 0.383645,0.35719 0.224896,0 0.357187,-0.23151 0.357187,-0.29765 0,-0.0331 -0.02646,-0.0463 -0.05292,-0.0463 -0.02646,0 -0.03969,0.0132 -0.05292,0.0463 -0.07937,0.20505 -0.23151,0.20505 -0.238125,0.20505 -0.132291,0 -0.132291,-0.33073 -0.132291,-0.42995 0,-0.086 0,-0.0992 0.0463,-0.14552 0.396874,-0.50271 0.482864,-0.99219 0.482864,-0.99219 0,-0.0132 -0.0066,-0.0463 -0.05292,-0.0463 -0.03969,0 -0.03969,0.0132 -0.05953,0.0926 -0.07938,0.26459 -0.218281,0.58209 -0.416718,0.83344 z m -0.277813,0.58208 c -0.37703,0.32412 -0.701145,0.37042 -0.866509,0.37042 -0.251354,0 -0.383646,-0.19182 -0.383646,-0.46302 0,-0.20505 0.112448,-0.66146 0.24474,-0.87313 0.198437,-0.31088 0.429947,-0.39026 0.575468,-0.39026 0.416718,0 0.416718,0.55563 0.416718,0.87974 0,0.15875 0,0.40349 0.01323,0.47625 z m 0,0"
         style="fill:#000000;fill-opacity:1;stroke:none;stroke-width:0"
         inkscape:connector-curvature="0" />
      <path
         id="path13437"
         d="m 81.296219,272.70073 c -0.165365,0.27781 -0.330729,0.33734 -0.515937,0.35057 -0.05292,0.007 -0.0926,0.007 -0.0926,0.086 0,0.0265 0.02646,0.0463 0.05953,0.0463 0.112448,0 0.244739,-0.0132 0.357187,-0.0132 0.145521,0 0.291042,0.0132 0.423333,0.0132 0.02646,0 0.07937,0 0.07937,-0.0794 0,-0.0463 -0.03307,-0.0529 -0.06615,-0.0529 -0.0926,-0.007 -0.198437,-0.0397 -0.198437,-0.14552 0,-0.0529 0.02646,-0.0992 0.05953,-0.15875 l 0.324114,-0.53578 h 1.058333 c 0.0066,0.086 0.06615,0.66145 0.06615,0.70114 0,0.12568 -0.218281,0.13891 -0.304271,0.13891 -0.05953,0 -0.09922,0 -0.09922,0.086 0,0.0463 0.0463,0.0463 0.05953,0.0463 0.171979,0 0.350572,-0.0132 0.522551,-0.0132 0.105834,0 0.377031,0.0132 0.482865,0.0132 0.01984,0 0.07276,0 0.07276,-0.086 0,-0.0463 -0.03969,-0.0463 -0.09922,-0.0463 -0.257968,0 -0.257968,-0.0265 -0.271197,-0.15214 l -0.257969,-2.6326 c -0.0066,-0.086 -0.0066,-0.10583 -0.07937,-0.10583 -0.06615,0 -0.08599,0.0331 -0.112448,0.0728 z m 0.509322,-0.62177 0.826823,-1.39568 0.138906,1.39568 z m 0,0"
         style="fill:#000000;fill-opacity:1;stroke:none;stroke-width:0"
         inkscape:connector-curvature="0" />
      <path
         id="path13439"
         d="m 64.509409,237.79527 c -0.03969,0.16537 -0.05292,0.19844 -0.383646,0.19844 -0.07276,0 -0.112447,0 -0.112447,0.086 0,0.0463 0.03969,0.0463 0.112447,0.0463 h 1.508124 c 0.668073,0 1.164166,-0.49609 1.164166,-0.91281 0,-0.30427 -0.244739,-0.54901 -0.654843,-0.59531 0.436562,-0.0794 0.879739,-0.39026 0.879739,-0.79375 0,-0.31089 -0.277813,-0.58209 -0.780521,-0.58209 h -1.422134 c -0.07937,0 -0.119062,0 -0.119062,0.086 0,0.0463 0.03969,0.0463 0.119062,0.0463 0.0066,0 0.08599,0 0.15875,0.007 0.07276,0.0132 0.112448,0.0132 0.112448,0.0728 0,0.0132 -0.0066,0.0265 -0.01323,0.0794 z m 0.634999,-1.21708 0.264584,-1.0451 c 0.03969,-0.14553 0.0463,-0.15875 0.224895,-0.15875 h 0.54901 c 0.370417,0 0.456406,0.25135 0.456406,0.43656 0,0.37041 -0.363802,0.76729 -0.873124,0.76729 z m -0.185208,1.41552 c -0.05953,0 -0.06615,0 -0.0926,0 -0.0463,-0.007 -0.05953,-0.0132 -0.05953,-0.0463 0,-0.0132 0,-0.0198 0.02646,-0.0926 l 0.291042,-1.17739 h 0.793749 c 0.403489,0 0.489479,0.31088 0.489479,0.48948 0,0.41671 -0.377031,0.82682 -0.879739,0.82682 z m 0,0"
         style="fill:#000000;fill-opacity:1;stroke:none;stroke-width:0"
         inkscape:connector-curvature="0" />
      <path
         id="path13443"
         d="m 61.684397,262.81654 h 0.720989 c 0.595312,0 1.184009,-0.43657 1.184009,-0.9062 0,-0.33073 -0.277812,-0.64162 -0.833437,-0.64162 h -1.362603 c -0.07937,0 -0.125677,0 -0.125677,0.0794 0,0.0529 0.03307,0.0529 0.119063,0.0529 0.05292,0 0.132291,0.007 0.178593,0.007 0.07276,0.0132 0.0926,0.0198 0.0926,0.0728 0,0.0132 0,0.0265 -0.01323,0.0794 l -0.568854,2.26218 c -0.03969,0.16537 -0.0463,0.19844 -0.383645,0.19844 -0.06615,0 -0.112448,0 -0.112448,0.0794 0,0.0529 0.0463,0.0529 0.05953,0.0529 0.119063,0 0.416719,-0.0132 0.535781,-0.0132 0.0926,0 0.185208,0.007 0.271198,0.007 0.0926,0 0.185208,0.007 0.271197,0.007 0.03307,0 0.08599,0 0.08599,-0.086 0,-0.0463 -0.03969,-0.0463 -0.119062,-0.0463 -0.152136,0 -0.271198,0 -0.271198,-0.0728 0,-0.0265 0.0066,-0.0463 0.01323,-0.0728 z m 0.30427,-1.25677 c 0.03969,-0.14553 0.0463,-0.15875 0.23151,-0.15875 h 0.40349 c 0.350572,0 0.575468,0.11244 0.575468,0.40348 0,0.16537 -0.08599,0.52917 -0.251354,0.68131 -0.211667,0.19182 -0.46302,0.22489 -0.648229,0.22489 H 61.70424 Z m 0,0"
         style="fill:#000000;fill-opacity:1;stroke:none;stroke-width:0"
         inkscape:connector-curvature="0" />
      <path
         id="path13447"
         d="m 64.553536,261.22623 c 0.02646,-0.0463 0.02646,-0.0728 0.02646,-0.0926 0,-0.0926 -0.07937,-0.15875 -0.171979,-0.15875 -0.112448,0 -0.145521,0.0926 -0.15875,0.13891 l -0.39026,1.27661 c -0.0066,0.007 -0.01984,0.0397 -0.01984,0.0463 0,0.0331 0.0926,0.0662 0.119063,0.0662 0.01984,0 0.01984,-0.007 0.03969,-0.0529 z m 0,0"
         style="fill:#000000;fill-opacity:1;stroke:none;stroke-width:0"
         inkscape:connector-curvature="0" />
      <path
         inkscape:connector-curvature="0"
         style="fill:#000000;fill-opacity:1;stroke:none;stroke-width:0"
         d="m 34.312274,239.86476 h 0.720989 c 0.595312,0 1.184009,-0.43657 1.184009,-0.9062 0,-0.33073 -0.277812,-0.64162 -0.833437,-0.64162 h -1.362603 c -0.07937,0 -0.125677,0 -0.125677,0.0794 0,0.0529 0.03307,0.0529 0.119063,0.0529 0.05292,0 0.132291,0.007 0.178593,0.007 0.07276,0.0132 0.0926,0.0198 0.0926,0.0728 0,0.0132 0,0.0265 -0.01323,0.0794 l -0.568854,2.26218 c -0.03969,0.16537 -0.0463,0.19844 -0.383645,0.19844 -0.06615,0 -0.112448,0 -0.112448,0.0794 0,0.0529 0.0463,0.0529 0.05953,0.0529 0.119063,0 0.416719,-0.0132 0.535781,-0.0132 0.0926,0 0.185208,0.007 0.271198,0.007 0.0926,0 0.185208,0.007 0.271197,0.007 0.03307,0 0.08599,0 0.08599,-0.086 0,-0.0463 -0.03969,-0.0463 -0.119062,-0.0463 -0.152136,0 -0.271198,0 -0.271198,-0.0728 0,-0.0265 0.0066,-0.0463 0.01323,-0.0728 z m 0.30427,-1.25677 c 0.03969,-0.14553 0.0463,-0.15875 0.23151,-0.15875 h 0.40349 c 0.350572,0 0.575468,0.11244 0.575468,0.40348 0,0.16537 -0.08599,0.52917 -0.251354,0.68131 -0.211667,0.19182 -0.46302,0.22489 -0.648229,0.22489 h -0.595312 z m 0,0"
         id="path13586" />
      <path
         inkscape:connector-curvature="0"
         style="fill:#000000;fill-opacity:1;stroke:none;stroke-width:0"
         d="m 37.181413,238.27445 c 0.02646,-0.0463 0.02646,-0.0728 0.02646,-0.0926 0,-0.0926 -0.07937,-0.15875 -0.171979,-0.15875 -0.112448,0 -0.145521,0.0926 -0.15875,0.13891 l -0.39026,1.27661 c -0.0066,0.007 -0.01984,0.0397 -0.01984,0.0463 0,0.0331 0.0926,0.0662 0.119063,0.0662 0.01984,0 0.01984,-0.007 0.03969,-0.0529 z m 0,0"
         id="path13588" />
      <path
         id="path13590"
         d="m 38.239747,238.27445 c 0.02646,-0.0463 0.02646,-0.0728 0.02646,-0.0926 0,-0.0926 -0.07937,-0.15875 -0.171979,-0.15875 -0.112448,0 -0.145521,0.0926 -0.15875,0.13891 l -0.39026,1.27661 c -0.0066,0.007 -0.01984,0.0397 -0.01984,0.0463 0,0.0331 0.0926,0.0662 0.119063,0.0662 0.01984,0 0.01984,-0.007 0.03969,-0.0529 z m 0,0"
         style="fill:#000000;fill-opacity:1;stroke:none;stroke-width:0"
         inkscape:connector-curvature="0" />
      <path
         inkscape:connector-curvature="0"
         style="fill:#000000;fill-opacity:1;stroke:none;stroke-width:0"
         d="m 39.691903,264.34787 c 0,-0.3175 -0.23151,-0.57547 -0.575468,-0.57547 -0.24474,0 -0.363802,0.0661 -0.509323,0.17198 -0.23151,0.17198 -0.46302,0.58208 -0.542395,0.89958 l -0.674687,2.67891 c 0,0.0198 0.01984,0.0463 0.05292,0.0463 0.03307,0 0.0463,-0.0132 0.0463,-0.0198 l 0.297656,-1.17078 c 0.07937,0.25797 0.264583,0.41011 0.575468,0.41011 0.304271,0 0.62177,-0.14552 0.813593,-0.33073 0.205052,-0.19182 0.337344,-0.46302 0.337344,-0.77391 0,-0.30427 -0.15875,-0.52916 -0.310886,-0.62838 0.24474,-0.14552 0.489479,-0.40349 0.489479,-0.70776 z m -0.760676,0.70114 c -0.05292,0.0199 -0.09922,0.0265 -0.205052,0.0265 -0.05953,0 -0.138906,0.007 -0.185208,-0.0132 0.01323,-0.0463 0.165364,-0.0331 0.211666,-0.0331 0.08599,0 0.125677,0 0.178594,0.0198 z m 0.522551,-0.80036 c 0,0.29766 -0.15875,0.60193 -0.377031,0.73422 -0.119062,-0.0463 -0.198437,-0.0529 -0.324114,-0.0529 -0.0926,0 -0.330729,-0.007 -0.330729,0.13229 0,0.11906 0.218281,0.10584 0.291042,0.10584 0.158749,0 0.224895,0 0.350572,-0.0529 0.15875,0.15213 0.178594,0.28443 0.185208,0.47625 0.0066,0.24474 -0.0926,0.56224 -0.211666,0.7276 -0.165365,0.2249 -0.449791,0.37703 -0.687916,0.37703 -0.324115,0 -0.482864,-0.24474 -0.482864,-0.54239 0,-0.0397 0,-0.10584 0.01984,-0.18521 l 0.271198,-1.06495 c 0.0926,-0.3638 0.396875,-1.03849 0.906197,-1.03849 0.24474,0 0.39026,0.1323 0.39026,0.38365 z m 0,0"
         id="path13592" />
      <path
         inkscape:connector-curvature="0"
         style="fill:#000000;fill-opacity:1;stroke:none;stroke-width:0"
         d="m 44.768611,273.40515 c 0,-0.66146 -0.39026,-0.86651 -0.701146,-0.86651 -0.582082,0 -1.137707,0.60193 -1.137707,1.19724 0,0.39687 0.251354,0.71437 0.687916,0.71437 0.264583,0 0.568854,-0.0992 0.886354,-0.35719 0.05292,0.2249 0.191822,0.35719 0.383645,0.35719 0.224896,0 0.357187,-0.23151 0.357187,-0.29765 0,-0.0331 -0.02646,-0.0463 -0.05292,-0.0463 -0.02646,0 -0.03969,0.0132 -0.05292,0.0463 -0.07937,0.20505 -0.23151,0.20505 -0.238125,0.20505 -0.132291,0 -0.132291,-0.33073 -0.132291,-0.42995 0,-0.086 0,-0.0992 0.0463,-0.14552 0.396874,-0.50271 0.482864,-0.99219 0.482864,-0.99219 0,-0.0132 -0.0066,-0.0463 -0.05292,-0.0463 -0.03969,0 -0.03969,0.0132 -0.05953,0.0926 -0.07938,0.26459 -0.218281,0.58209 -0.416718,0.83344 z m -0.277813,0.58208 c -0.37703,0.32412 -0.701145,0.37042 -0.866509,0.37042 -0.251354,0 -0.383646,-0.19182 -0.383646,-0.46302 0,-0.20505 0.112448,-0.66146 0.24474,-0.87313 0.198437,-0.31088 0.429947,-0.39026 0.575468,-0.39026 0.416718,0 0.416718,0.55563 0.416718,0.87974 0,0.15875 0,0.40349 0.01323,0.47625 z m 0,0"
         id="path13594" />
    </g>
  </g>
</svg>
