<?xml version="1.0" encoding="UTF-8" standalone="no"?>
<!-- Created with Inkscape (http://www.inkscape.org/) -->

<svg
   xmlns:dc="http://purl.org/dc/elements/1.1/"
   xmlns:cc="http://creativecommons.org/ns#"
   xmlns:rdf="http://www.w3.org/1999/02/22-rdf-syntax-ns#"
   xmlns:svg="http://www.w3.org/2000/svg"
   xmlns="http://www.w3.org/2000/svg"
   xmlns:sodipodi="http://sodipodi.sourceforge.net/DTD/sodipodi-0.dtd"
   xmlns:inkscape="http://www.inkscape.org/namespaces/inkscape"
   sodipodi:docname="fig8.svg"
   id="svg8"
   version="1.1"
   viewBox="0 0 120 99.999997"
   height="10cm"
   width="12cm"
   inkscape:version="0.92.4 (unknown)">
  <defs
     id="defs2">
    <marker
       inkscape:isstock="true"
       style="overflow:visible;"
       id="marker22702"
       refX="0.0"
       refY="0.0"
       orient="auto"
       inkscape:stockid="Arrow1Mend">
      <path
         transform="scale(0.4) rotate(180) translate(10,0)"
         style="fill-rule:evenodd;stroke:#000000;stroke-width:1pt;stroke-opacity:1;fill:#000000;fill-opacity:1"
         d="M 0.0,0.0 L 5.0,-5.0 L -12.5,0.0 L 5.0,5.0 L 0.0,0.0 z "
         id="path22700" />
    </marker>
    <marker
       inkscape:isstock="true"
       style="overflow:visible;"
       id="marker22132"
       refX="0.0"
       refY="0.0"
       orient="auto"
       inkscape:stockid="Arrow1Mend">
      <path
         transform="scale(0.4) rotate(180) translate(10,0)"
         style="fill-rule:evenodd;stroke:#000000;stroke-width:1pt;stroke-opacity:1;fill:#000000;fill-opacity:1"
         d="M 0.0,0.0 L 5.0,-5.0 L -12.5,0.0 L 5.0,5.0 L 0.0,0.0 z "
         id="path22130" />
    </marker>
    <marker
       inkscape:isstock="true"
       style="overflow:visible;"
       id="marker21640"
       refX="0.0"
       refY="0.0"
       orient="auto"
       inkscape:stockid="Arrow1Mend">
      <path
         transform="scale(0.4) rotate(180) translate(10,0)"
         style="fill-rule:evenodd;stroke:#000000;stroke-width:1pt;stroke-opacity:1;fill:#000000;fill-opacity:1"
         d="M 0.0,0.0 L 5.0,-5.0 L -12.5,0.0 L 5.0,5.0 L 0.0,0.0 z "
         id="path21638" />
    </marker>
    <marker
       inkscape:stockid="Arrow1Mend"
       orient="auto"
       refY="0.0"
       refX="0.0"
       id="marker19078"
       style="overflow:visible;"
       inkscape:isstock="true">
      <path
         id="path19076"
         d="M 0.0,0.0 L 5.0,-5.0 L -12.5,0.0 L 5.0,5.0 L 0.0,0.0 z "
         style="fill-rule:evenodd;stroke:#000000;stroke-width:1pt;stroke-opacity:1;fill:#000000;fill-opacity:1"
         transform="scale(0.4) rotate(180) translate(10,0)" />
    </marker>
    <marker
       inkscape:isstock="true"
       style="overflow:visible;"
       id="marker17873"
       refX="0.0"
       refY="0.0"
       orient="auto"
       inkscape:stockid="Arrow1Mend">
      <path
         transform="scale(0.4) rotate(180) translate(10,0)"
         style="fill-rule:evenodd;stroke:#000000;stroke-width:1pt;stroke-opacity:1;fill:#000000;fill-opacity:1"
         d="M 0.0,0.0 L 5.0,-5.0 L -12.5,0.0 L 5.0,5.0 L 0.0,0.0 z "
         id="path17871" />
    </marker>
    <marker
       inkscape:isstock="true"
       style="overflow:visible;"
       id="marker12720"
       refX="0.0"
       refY="0.0"
       orient="auto"
       inkscape:stockid="Arrow1Mend">
      <path
         transform="scale(0.4) rotate(180) translate(10,0)"
         style="fill-rule:evenodd;stroke:#000000;stroke-width:1pt;stroke-opacity:1;fill:#000000;fill-opacity:1"
         d="M 0.0,0.0 L 5.0,-5.0 L -12.5,0.0 L 5.0,5.0 L 0.0,0.0 z "
         id="path12718" />
    </marker>
    <marker
       inkscape:isstock="true"
       style="overflow:visible;"
       id="marker9948"
       refX="0.0"
       refY="0.0"
       orient="auto"
       inkscape:stockid="Arrow1Mend">
      <path
         transform="scale(0.4) rotate(180) translate(10,0)"
         style="fill-rule:evenodd;stroke:#000000;stroke-width:1pt;stroke-opacity:1;fill:#000000;fill-opacity:1"
         d="M 0.0,0.0 L 5.0,-5.0 L -12.5,0.0 L 5.0,5.0 L 0.0,0.0 z "
         id="path9946" />
    </marker>
    <marker
       inkscape:isstock="true"
       style="overflow:visible;"
       id="marker9778"
       refX="0.0"
       refY="0.0"
       orient="auto"
       inkscape:stockid="Arrow1Mend">
      <path
         transform="scale(0.4) rotate(180) translate(10,0)"
         style="fill-rule:evenodd;stroke:#000000;stroke-width:1pt;stroke-opacity:1;fill:#000000;fill-opacity:1"
         d="M 0.0,0.0 L 5.0,-5.0 L -12.5,0.0 L 5.0,5.0 L 0.0,0.0 z "
         id="path9776" />
    </marker>
    <marker
       inkscape:stockid="Arrow1Mend"
       orient="auto"
       refY="0.0"
       refX="0.0"
       id="marker9624"
       style="overflow:visible;"
       inkscape:isstock="true">
      <path
         id="path9622"
         d="M 0.0,0.0 L 5.0,-5.0 L -12.5,0.0 L 5.0,5.0 L 0.0,0.0 z "
         style="fill-rule:evenodd;stroke:#000000;stroke-width:1pt;stroke-opacity:1;fill:#000000;fill-opacity:1"
         transform="scale(0.4) rotate(180) translate(10,0)" />
    </marker>
    <marker
       inkscape:isstock="true"
       style="overflow:visible;"
       id="marker7255"
       refX="0.0"
       refY="0.0"
       orient="auto"
       inkscape:stockid="Arrow1Mend">
      <path
         transform="scale(0.4) rotate(180) translate(10,0)"
         style="fill-rule:evenodd;stroke:#000000;stroke-width:1pt;stroke-opacity:1;fill:#000000;fill-opacity:1"
         d="M 0.0,0.0 L 5.0,-5.0 L -12.5,0.0 L 5.0,5.0 L 0.0,0.0 z "
         id="path7253" />
    </marker>
    <marker
       inkscape:stockid="Arrow1Mend"
       orient="auto"
       refY="0.0"
       refX="0.0"
       id="marker6565"
       style="overflow:visible;"
       inkscape:isstock="true">
      <path
         id="path6563"
         d="M 0.0,0.0 L 5.0,-5.0 L -12.5,0.0 L 5.0,5.0 L 0.0,0.0 z "
         style="fill-rule:evenodd;stroke:#000000;stroke-width:1pt;stroke-opacity:1;fill:#000000;fill-opacity:1"
         transform="scale(0.4) rotate(180) translate(10,0)" />
    </marker>
    <marker
       inkscape:stockid="Arrow1Mend"
       orient="auto"
       refY="0.0"
       refX="0.0"
       id="marker1770"
       style="overflow:visible;"
       inkscape:isstock="true">
      <path
         id="path1768"
         d="M 0.0,0.0 L 5.0,-5.0 L -12.5,0.0 L 5.0,5.0 L 0.0,0.0 z "
         style="fill-rule:evenodd;stroke:#000000;stroke-width:1pt;stroke-opacity:1;fill:#000000;fill-opacity:1"
         transform="scale(0.4) rotate(180) translate(10,0)" />
    </marker>
    <marker
       inkscape:stockid="Arrow1Mstart"
       orient="auto"
       refY="0.0"
       refX="0.0"
       id="marker21240"
       style="overflow:visible"
       inkscape:isstock="true">
      <path
         id="path21238"
         d="M 0.0,0.0 L 5.0,-5.0 L -12.5,0.0 L 5.0,5.0 L 0.0,0.0 z "
         style="fill-rule:evenodd;stroke:#000000;stroke-width:1pt;stroke-opacity:1;fill:#000000;fill-opacity:1"
         transform="scale(0.4) translate(10,0)" />
    </marker>
    <marker
       inkscape:stockid="Arrow1Mstart"
       orient="auto"
       refY="0.0"
       refX="0.0"
       id="marker17534"
       style="overflow:visible"
       inkscape:isstock="true">
      <path
         id="path17532"
         d="M 0.0,0.0 L 5.0,-5.0 L -12.5,0.0 L 5.0,5.0 L 0.0,0.0 z "
         style="fill-rule:evenodd;stroke:#000000;stroke-width:1pt;stroke-opacity:1;fill:#000000;fill-opacity:1"
         transform="scale(0.4) translate(10,0)" />
    </marker>
    <marker
       inkscape:stockid="Arrow1Mstart"
       orient="auto"
       refY="0.0"
       refX="0.0"
       id="marker16399"
       style="overflow:visible"
       inkscape:isstock="true">
      <path
         id="path16397"
         d="M 0.0,0.0 L 5.0,-5.0 L -12.5,0.0 L 5.0,5.0 L 0.0,0.0 z "
         style="fill-rule:evenodd;stroke:#666666;stroke-width:1pt;stroke-opacity:1;fill:#666666;fill-opacity:1"
         transform="scale(0.4) translate(10,0)" />
    </marker>
    <marker
       inkscape:stockid="Arrow1Mstart"
       orient="auto"
       refY="0.0"
       refX="0.0"
       id="marker13571"
       style="overflow:visible"
       inkscape:isstock="true">
      <path
         id="path13569"
         d="M 0.0,0.0 L 5.0,-5.0 L -12.5,0.0 L 5.0,5.0 L 0.0,0.0 z "
         style="fill-rule:evenodd;stroke:#000000;stroke-width:1pt;stroke-opacity:1;fill:#000000;fill-opacity:1"
         transform="scale(0.4) translate(10,0)" />
    </marker>
    <marker
       inkscape:isstock="true"
       style="overflow:visible"
       id="marker12137"
       refX="0.0"
       refY="0.0"
       orient="auto"
       inkscape:stockid="Arrow1Mstart">
      <path
         transform="scale(0.4) translate(10,0)"
         style="fill-rule:evenodd;stroke:#808080;stroke-width:1pt;stroke-opacity:1;fill:#808080;fill-opacity:1"
         d="M 0.0,0.0 L 5.0,-5.0 L -12.5,0.0 L 5.0,5.0 L 0.0,0.0 z "
         id="path12135" />
    </marker>
    <marker
       inkscape:stockid="Arrow1Mend"
       orient="auto"
       refY="0.0"
       refX="0.0"
       id="marker6990"
       style="overflow:visible;"
       inkscape:isstock="true">
      <path
         id="path6988"
         d="M 0.0,0.0 L 5.0,-5.0 L -12.5,0.0 L 5.0,5.0 L 0.0,0.0 z "
         style="fill-rule:evenodd;stroke:#000000;stroke-width:1pt;stroke-opacity:1;fill:#000000;fill-opacity:1"
         transform="scale(0.4) rotate(180) translate(10,0)" />
    </marker>
    <marker
       inkscape:stockid="Arrow1Mend"
       orient="auto"
       refY="0.0"
       refX="0.0"
       id="marker2742"
       style="overflow:visible;"
       inkscape:isstock="true">
      <path
         id="path2740"
         d="M 0.0,0.0 L 5.0,-5.0 L -12.5,0.0 L 5.0,5.0 L 0.0,0.0 z "
         style="fill-rule:evenodd;stroke:#000000;stroke-width:1pt;stroke-opacity:1;fill:#000000;fill-opacity:1"
         transform="scale(0.4) rotate(180) translate(10,0)" />
    </marker>
    <marker
       inkscape:stockid="Arrow1Mend"
       orient="auto"
       refY="0.0"
       refX="0.0"
       id="marker2118"
       style="overflow:visible;"
       inkscape:isstock="true">
      <path
         id="path2116"
         d="M 0.0,0.0 L 5.0,-5.0 L -12.5,0.0 L 5.0,5.0 L 0.0,0.0 z "
         style="fill-rule:evenodd;stroke:#000000;stroke-width:1pt;stroke-opacity:1;fill:#000000;fill-opacity:1"
         transform="scale(0.4) rotate(180) translate(10,0)" />
    </marker>
    <marker
       inkscape:isstock="true"
       style="overflow:visible;"
       id="marker18120"
       refX="0.0"
       refY="0.0"
       orient="auto"
       inkscape:stockid="Arrow1Mend">
      <path
         transform="scale(0.4) rotate(180) translate(10,0)"
         style="fill-rule:evenodd;stroke:#000000;stroke-width:1pt;stroke-opacity:1;fill:#000000;fill-opacity:1"
         d="M 0.0,0.0 L 5.0,-5.0 L -12.5,0.0 L 5.0,5.0 L 0.0,0.0 z "
         id="path18118" />
    </marker>
    <marker
       inkscape:stockid="Arrow1Mend"
       orient="auto"
       refY="0.0"
       refX="0.0"
       id="marker17533"
       style="overflow:visible;"
       inkscape:isstock="true">
      <path
         id="path17531"
         d="M 0.0,0.0 L 5.0,-5.0 L -12.5,0.0 L 5.0,5.0 L 0.0,0.0 z "
         style="fill-rule:evenodd;stroke:#000000;stroke-width:1pt;stroke-opacity:1;fill:#000000;fill-opacity:1"
         transform="scale(0.4) rotate(180) translate(10,0)" />
    </marker>
    <marker
       inkscape:isstock="true"
       style="overflow:visible;"
       id="marker10832"
       refX="0.0"
       refY="0.0"
       orient="auto"
       inkscape:stockid="Arrow1Mend">
      <path
         transform="scale(0.4) rotate(180) translate(10,0)"
         style="fill-rule:evenodd;stroke:#000000;stroke-width:1pt;stroke-opacity:1;fill:#000000;fill-opacity:1"
         d="M 0.0,0.0 L 5.0,-5.0 L -12.5,0.0 L 5.0,5.0 L 0.0,0.0 z "
         id="path10830" />
    </marker>
    <marker
       inkscape:isstock="true"
       style="overflow:visible;"
       id="marker8615"
       refX="0.0"
       refY="0.0"
       orient="auto"
       inkscape:stockid="Arrow1Mend">
      <path
         transform="scale(0.4) rotate(180) translate(10,0)"
         style="fill-rule:evenodd;stroke:#000000;stroke-width:1pt;stroke-opacity:1;fill:#000000;fill-opacity:1"
         d="M 0.0,0.0 L 5.0,-5.0 L -12.5,0.0 L 5.0,5.0 L 0.0,0.0 z "
         id="path8613" />
    </marker>
    <marker
       inkscape:isstock="true"
       style="overflow:visible;"
       id="marker1866"
       refX="0.0"
       refY="0.0"
       orient="auto"
       inkscape:stockid="Arrow1Mend">
      <path
         transform="scale(0.4) rotate(180) translate(10,0)"
         style="fill-rule:evenodd;stroke:#000000;stroke-width:1pt;stroke-opacity:1;fill:#000000;fill-opacity:1"
         d="M 0.0,0.0 L 5.0,-5.0 L -12.5,0.0 L 5.0,5.0 L 0.0,0.0 z "
         id="path1864" />
    </marker>
    <marker
       inkscape:isstock="true"
       style="overflow:visible;"
       id="marker4824"
       refX="0.0"
       refY="0.0"
       orient="auto"
       inkscape:stockid="Arrow1Mend">
      <path
         transform="scale(0.4) rotate(180) translate(10,0)"
         style="fill-rule:evenodd;stroke:#000000;stroke-width:1pt;stroke-opacity:1;fill:#000000;fill-opacity:1"
         d="M 0.0,0.0 L 5.0,-5.0 L -12.5,0.0 L 5.0,5.0 L 0.0,0.0 z "
         id="path4822" />
    </marker>
  </defs>
  <sodipodi:namedview
     id="base"
     pagecolor="#ffffff"
     bordercolor="#666666"
     borderopacity="1.0"
     inkscape:pageopacity="0.0"
     inkscape:pageshadow="2"
     inkscape:zoom="1.2303125"
     inkscape:cx="226.77165"
     inkscape:cy="188.97638"
     inkscape:document-units="cm"
     inkscape:current-layer="layer1"
     showgrid="false"
     units="cm"
     inkscape:window-width="764"
     inkscape:window-height="716"
     inkscape:window-x="10"
     inkscape:window-y="24"
     inkscape:window-maximized="0"
     inkscape:object-paths="false"
     inkscape:snap-intersection-paths="false"
     inkscape:snap-object-midpoints="false"
     inkscape:snap-center="false"
     inkscape:snap-midpoints="false"
     inkscape:snap-others="false"
     inkscape:object-nodes="true">
    <inkscape:grid
       empspacing="4"
       dotted="false"
       id="grid4518"
       type="xygrid" />
  </sodipodi:namedview>
  <metadata
     id="metadata5">
    <rdf:RDF>
      <cc:Work
         rdf:about="">
        <dc:format>image/svg+xml</dc:format>
        <dc:type
           rdf:resource="http://purl.org/dc/dcmitype/StillImage" />
        <dc:title></dc:title>
      </cc:Work>
    </rdf:RDF>
  </metadata>
  <g
     inkscape:label="Layer 1"
     inkscape:groupmode="layer"
     id="layer1"
     transform="translate(0,-197.00001)">
    <g
       id="g1223"
       transform="translate(89.177615,-26.813156)">
      <circle
         r="1.0583333"
         cy="236.675"
         cx="19.049999"
         id="circle1217"
         style="color:#000000;clip-rule:nonzero;display:inline;overflow:visible;visibility:visible;opacity:1;isolation:auto;mix-blend-mode:normal;color-interpolation:sRGB;color-interpolation-filters:linearRGB;solid-color:#000000;solid-opacity:1;fill:none;fill-opacity:1;fill-rule:nonzero;stroke:#000000;stroke-width:0.21166667;stroke-linecap:round;stroke-linejoin:round;stroke-miterlimit:4;stroke-dasharray:none;stroke-dashoffset:0;stroke-opacity:1;color-rendering:auto;image-rendering:auto;shape-rendering:auto;text-rendering:auto;enable-background:accumulate" />
      <path
         inkscape:connector-curvature="0"
         id="path1219"
         d="m 17.991666,236.67501 h 2.116667"
         style="color:#000000;clip-rule:nonzero;display:inline;overflow:visible;visibility:visible;opacity:1;isolation:auto;mix-blend-mode:normal;color-interpolation:sRGB;color-interpolation-filters:linearRGB;solid-color:#000000;solid-opacity:1;fill:none;fill-opacity:1;fill-rule:nonzero;stroke:#000000;stroke-width:0.18520834;stroke-linecap:round;stroke-linejoin:round;stroke-miterlimit:4;stroke-dasharray:none;stroke-dashoffset:0;stroke-opacity:1;color-rendering:auto;image-rendering:auto;shape-rendering:auto;text-rendering:auto;enable-background:accumulate" />
      <path
         inkscape:connector-curvature="0"
         id="path1221"
         d="m 19.05,235.61668 v 2.11666"
         style="color:#000000;clip-rule:nonzero;display:inline;overflow:visible;visibility:visible;opacity:1;isolation:auto;mix-blend-mode:normal;color-interpolation:sRGB;color-interpolation-filters:linearRGB;solid-color:#000000;solid-opacity:1;fill:none;fill-opacity:1;fill-rule:nonzero;stroke:#000000;stroke-width:0.18520834;stroke-linecap:round;stroke-linejoin:round;stroke-miterlimit:4;stroke-dasharray:none;stroke-dashoffset:0;stroke-opacity:1;color-rendering:auto;image-rendering:auto;shape-rendering:auto;text-rendering:auto;enable-background:accumulate" />
    </g>
    <g
       transform="translate(94.997112,-23.48317)"
       id="g1231">
      <circle
         style="color:#000000;clip-rule:nonzero;display:inline;overflow:visible;visibility:visible;opacity:1;isolation:auto;mix-blend-mode:normal;color-interpolation:sRGB;color-interpolation-filters:linearRGB;solid-color:#000000;solid-opacity:1;fill:none;fill-opacity:1;fill-rule:nonzero;stroke:#000000;stroke-width:0.21166667;stroke-linecap:round;stroke-linejoin:round;stroke-miterlimit:4;stroke-dasharray:none;stroke-dashoffset:0;stroke-opacity:1;color-rendering:auto;image-rendering:auto;shape-rendering:auto;text-rendering:auto;enable-background:accumulate"
         id="circle1225"
         cx="19.049999"
         cy="236.675"
         r="1.0583333" />
      <path
         style="color:#000000;clip-rule:nonzero;display:inline;overflow:visible;visibility:visible;opacity:1;isolation:auto;mix-blend-mode:normal;color-interpolation:sRGB;color-interpolation-filters:linearRGB;solid-color:#000000;solid-opacity:1;fill:none;fill-opacity:1;fill-rule:nonzero;stroke:#000000;stroke-width:0.18520834;stroke-linecap:round;stroke-linejoin:round;stroke-miterlimit:4;stroke-dasharray:none;stroke-dashoffset:0;stroke-opacity:1;color-rendering:auto;image-rendering:auto;shape-rendering:auto;text-rendering:auto;enable-background:accumulate"
         d="m 17.991666,236.67501 h 2.116667"
         id="path1227"
         inkscape:connector-curvature="0" />
      <path
         style="color:#000000;clip-rule:nonzero;display:inline;overflow:visible;visibility:visible;opacity:1;isolation:auto;mix-blend-mode:normal;color-interpolation:sRGB;color-interpolation-filters:linearRGB;solid-color:#000000;solid-opacity:1;fill:none;fill-opacity:1;fill-rule:nonzero;stroke:#000000;stroke-width:0.18520834;stroke-linecap:round;stroke-linejoin:round;stroke-miterlimit:4;stroke-dasharray:none;stroke-dashoffset:0;stroke-opacity:1;color-rendering:auto;image-rendering:auto;shape-rendering:auto;text-rendering:auto;enable-background:accumulate"
         d="m 19.05,235.61668 v 2.11666"
         id="path1229"
         inkscape:connector-curvature="0" />
    </g>
    <g
       id="g1239"
       transform="translate(95.023006,-16.77832)">
      <circle
         r="1.0583333"
         cy="236.675"
         cx="19.049999"
         id="circle1233"
         style="color:#000000;clip-rule:nonzero;display:inline;overflow:visible;visibility:visible;opacity:1;isolation:auto;mix-blend-mode:normal;color-interpolation:sRGB;color-interpolation-filters:linearRGB;solid-color:#000000;solid-opacity:1;fill:none;fill-opacity:1;fill-rule:nonzero;stroke:#000000;stroke-width:0.21166667;stroke-linecap:round;stroke-linejoin:round;stroke-miterlimit:4;stroke-dasharray:none;stroke-dashoffset:0;stroke-opacity:1;color-rendering:auto;image-rendering:auto;shape-rendering:auto;text-rendering:auto;enable-background:accumulate" />
      <path
         inkscape:connector-curvature="0"
         id="path1235"
         d="m 17.991666,236.67501 h 2.116667"
         style="color:#000000;clip-rule:nonzero;display:inline;overflow:visible;visibility:visible;opacity:1;isolation:auto;mix-blend-mode:normal;color-interpolation:sRGB;color-interpolation-filters:linearRGB;solid-color:#000000;solid-opacity:1;fill:none;fill-opacity:1;fill-rule:nonzero;stroke:#000000;stroke-width:0.18520834;stroke-linecap:round;stroke-linejoin:round;stroke-miterlimit:4;stroke-dasharray:none;stroke-dashoffset:0;stroke-opacity:1;color-rendering:auto;image-rendering:auto;shape-rendering:auto;text-rendering:auto;enable-background:accumulate" />
      <path
         inkscape:connector-curvature="0"
         id="path1237"
         d="m 19.05,235.61668 v 2.11666"
         style="color:#000000;clip-rule:nonzero;display:inline;overflow:visible;visibility:visible;opacity:1;isolation:auto;mix-blend-mode:normal;color-interpolation:sRGB;color-interpolation-filters:linearRGB;solid-color:#000000;solid-opacity:1;fill:none;fill-opacity:1;fill-rule:nonzero;stroke:#000000;stroke-width:0.18520834;stroke-linecap:round;stroke-linejoin:round;stroke-miterlimit:4;stroke-dasharray:none;stroke-dashoffset:0;stroke-opacity:1;color-rendering:auto;image-rendering:auto;shape-rendering:auto;text-rendering:auto;enable-background:accumulate" />
    </g>
    <g
       transform="translate(89.229396,-13.403488)"
       id="g1247">
      <circle
         style="color:#000000;clip-rule:nonzero;display:inline;overflow:visible;visibility:visible;opacity:1;isolation:auto;mix-blend-mode:normal;color-interpolation:sRGB;color-interpolation-filters:linearRGB;solid-color:#000000;solid-opacity:1;fill:none;fill-opacity:1;fill-rule:nonzero;stroke:#000000;stroke-width:0.21166667;stroke-linecap:round;stroke-linejoin:round;stroke-miterlimit:4;stroke-dasharray:none;stroke-dashoffset:0;stroke-opacity:1;color-rendering:auto;image-rendering:auto;shape-rendering:auto;text-rendering:auto;enable-background:accumulate"
         id="circle1241"
         cx="19.049999"
         cy="236.675"
         r="1.0583333" />
      <path
         style="color:#000000;clip-rule:nonzero;display:inline;overflow:visible;visibility:visible;opacity:1;isolation:auto;mix-blend-mode:normal;color-interpolation:sRGB;color-interpolation-filters:linearRGB;solid-color:#000000;solid-opacity:1;fill:none;fill-opacity:1;fill-rule:nonzero;stroke:#000000;stroke-width:0.18520834;stroke-linecap:round;stroke-linejoin:round;stroke-miterlimit:4;stroke-dasharray:none;stroke-dashoffset:0;stroke-opacity:1;color-rendering:auto;image-rendering:auto;shape-rendering:auto;text-rendering:auto;enable-background:accumulate"
         d="m 17.991666,236.67501 h 2.116667"
         id="path1243"
         inkscape:connector-curvature="0" />
      <path
         style="color:#000000;clip-rule:nonzero;display:inline;overflow:visible;visibility:visible;opacity:1;isolation:auto;mix-blend-mode:normal;color-interpolation:sRGB;color-interpolation-filters:linearRGB;solid-color:#000000;solid-opacity:1;fill:none;fill-opacity:1;fill-rule:nonzero;stroke:#000000;stroke-width:0.18520834;stroke-linecap:round;stroke-linejoin:round;stroke-miterlimit:4;stroke-dasharray:none;stroke-dashoffset:0;stroke-opacity:1;color-rendering:auto;image-rendering:auto;shape-rendering:auto;text-rendering:auto;enable-background:accumulate"
         d="m 19.05,235.61668 v 2.11666"
         id="path1245"
         inkscape:connector-curvature="0" />
    </g>
    <g
       id="g1255"
       transform="translate(83.409885,-16.73349)">
      <circle
         r="1.0583333"
         cy="236.675"
         cx="19.049999"
         id="circle1249"
         style="color:#000000;clip-rule:nonzero;display:inline;overflow:visible;visibility:visible;opacity:1;isolation:auto;mix-blend-mode:normal;color-interpolation:sRGB;color-interpolation-filters:linearRGB;solid-color:#000000;solid-opacity:1;fill:none;fill-opacity:1;fill-rule:nonzero;stroke:#000000;stroke-width:0.21166667;stroke-linecap:round;stroke-linejoin:round;stroke-miterlimit:4;stroke-dasharray:none;stroke-dashoffset:0;stroke-opacity:1;color-rendering:auto;image-rendering:auto;shape-rendering:auto;text-rendering:auto;enable-background:accumulate" />
      <path
         inkscape:connector-curvature="0"
         id="path1251"
         d="m 17.991666,236.67501 h 2.116667"
         style="color:#000000;clip-rule:nonzero;display:inline;overflow:visible;visibility:visible;opacity:1;isolation:auto;mix-blend-mode:normal;color-interpolation:sRGB;color-interpolation-filters:linearRGB;solid-color:#000000;solid-opacity:1;fill:none;fill-opacity:1;fill-rule:nonzero;stroke:#000000;stroke-width:0.18520834;stroke-linecap:round;stroke-linejoin:round;stroke-miterlimit:4;stroke-dasharray:none;stroke-dashoffset:0;stroke-opacity:1;color-rendering:auto;image-rendering:auto;shape-rendering:auto;text-rendering:auto;enable-background:accumulate" />
      <path
         inkscape:connector-curvature="0"
         id="path1253"
         d="m 19.05,235.61668 v 2.11666"
         style="color:#000000;clip-rule:nonzero;display:inline;overflow:visible;visibility:visible;opacity:1;isolation:auto;mix-blend-mode:normal;color-interpolation:sRGB;color-interpolation-filters:linearRGB;solid-color:#000000;solid-opacity:1;fill:none;fill-opacity:1;fill-rule:nonzero;stroke:#000000;stroke-width:0.18520834;stroke-linecap:round;stroke-linejoin:round;stroke-miterlimit:4;stroke-dasharray:none;stroke-dashoffset:0;stroke-opacity:1;color-rendering:auto;image-rendering:auto;shape-rendering:auto;text-rendering:auto;enable-background:accumulate" />
    </g>
    <g
       transform="translate(83.383998,-23.438324)"
       id="g1263">
      <circle
         style="color:#000000;clip-rule:nonzero;display:inline;overflow:visible;visibility:visible;opacity:1;isolation:auto;mix-blend-mode:normal;color-interpolation:sRGB;color-interpolation-filters:linearRGB;solid-color:#000000;solid-opacity:1;fill:none;fill-opacity:1;fill-rule:nonzero;stroke:#000000;stroke-width:0.21166667;stroke-linecap:round;stroke-linejoin:round;stroke-miterlimit:4;stroke-dasharray:none;stroke-dashoffset:0;stroke-opacity:1;color-rendering:auto;image-rendering:auto;shape-rendering:auto;text-rendering:auto;enable-background:accumulate"
         id="circle1257"
         cx="19.049999"
         cy="236.675"
         r="1.0583333" />
      <path
         style="color:#000000;clip-rule:nonzero;display:inline;overflow:visible;visibility:visible;opacity:1;isolation:auto;mix-blend-mode:normal;color-interpolation:sRGB;color-interpolation-filters:linearRGB;solid-color:#000000;solid-opacity:1;fill:none;fill-opacity:1;fill-rule:nonzero;stroke:#000000;stroke-width:0.18520834;stroke-linecap:round;stroke-linejoin:round;stroke-miterlimit:4;stroke-dasharray:none;stroke-dashoffset:0;stroke-opacity:1;color-rendering:auto;image-rendering:auto;shape-rendering:auto;text-rendering:auto;enable-background:accumulate"
         d="m 17.991666,236.67501 h 2.116667"
         id="path1259"
         inkscape:connector-curvature="0" />
      <path
         style="color:#000000;clip-rule:nonzero;display:inline;overflow:visible;visibility:visible;opacity:1;isolation:auto;mix-blend-mode:normal;color-interpolation:sRGB;color-interpolation-filters:linearRGB;solid-color:#000000;solid-opacity:1;fill:none;fill-opacity:1;fill-rule:nonzero;stroke:#000000;stroke-width:0.18520834;stroke-linecap:round;stroke-linejoin:round;stroke-miterlimit:4;stroke-dasharray:none;stroke-dashoffset:0;stroke-opacity:1;color-rendering:auto;image-rendering:auto;shape-rendering:auto;text-rendering:auto;enable-background:accumulate"
         d="m 19.05,235.61668 v 2.11666"
         id="path1261"
         inkscape:connector-curvature="0" />
    </g>
    <g
       id="g1191"
       transform="translate(62.818178,-25.228866)">
      <circle
         r="1.0583333"
         cy="236.675"
         cx="19.049999"
         id="circle1185"
         style="color:#000000;clip-rule:nonzero;display:inline;overflow:visible;visibility:visible;opacity:1;isolation:auto;mix-blend-mode:normal;color-interpolation:sRGB;color-interpolation-filters:linearRGB;solid-color:#000000;solid-opacity:1;fill:none;fill-opacity:1;fill-rule:nonzero;stroke:#000000;stroke-width:0.21166667;stroke-linecap:round;stroke-linejoin:round;stroke-miterlimit:4;stroke-dasharray:none;stroke-dashoffset:0;stroke-opacity:1;color-rendering:auto;image-rendering:auto;shape-rendering:auto;text-rendering:auto;enable-background:accumulate" />
      <path
         inkscape:connector-curvature="0"
         id="path1187"
         d="m 17.991666,236.67501 h 2.116667"
         style="color:#000000;clip-rule:nonzero;display:inline;overflow:visible;visibility:visible;opacity:1;isolation:auto;mix-blend-mode:normal;color-interpolation:sRGB;color-interpolation-filters:linearRGB;solid-color:#000000;solid-opacity:1;fill:none;fill-opacity:1;fill-rule:nonzero;stroke:#000000;stroke-width:0.18520834;stroke-linecap:round;stroke-linejoin:round;stroke-miterlimit:4;stroke-dasharray:none;stroke-dashoffset:0;stroke-opacity:1;color-rendering:auto;image-rendering:auto;shape-rendering:auto;text-rendering:auto;enable-background:accumulate" />
      <path
         inkscape:connector-curvature="0"
         id="path1189"
         d="m 19.05,235.61668 v 2.11666"
         style="color:#000000;clip-rule:nonzero;display:inline;overflow:visible;visibility:visible;opacity:1;isolation:auto;mix-blend-mode:normal;color-interpolation:sRGB;color-interpolation-filters:linearRGB;solid-color:#000000;solid-opacity:1;fill:none;fill-opacity:1;fill-rule:nonzero;stroke:#000000;stroke-width:0.18520834;stroke-linecap:round;stroke-linejoin:round;stroke-miterlimit:4;stroke-dasharray:none;stroke-dashoffset:0;stroke-opacity:1;color-rendering:auto;image-rendering:auto;shape-rendering:auto;text-rendering:auto;enable-background:accumulate" />
    </g>
    <g
       transform="translate(71.040702,-23.210314)"
       id="g1199">
      <circle
         style="color:#000000;clip-rule:nonzero;display:inline;overflow:visible;visibility:visible;opacity:1;isolation:auto;mix-blend-mode:normal;color-interpolation:sRGB;color-interpolation-filters:linearRGB;solid-color:#000000;solid-opacity:1;fill:none;fill-opacity:1;fill-rule:nonzero;stroke:#000000;stroke-width:0.21166667;stroke-linecap:round;stroke-linejoin:round;stroke-miterlimit:4;stroke-dasharray:none;stroke-dashoffset:0;stroke-opacity:1;color-rendering:auto;image-rendering:auto;shape-rendering:auto;text-rendering:auto;enable-background:accumulate"
         id="circle1193"
         cx="19.049999"
         cy="236.675"
         r="1.0583333" />
      <path
         style="color:#000000;clip-rule:nonzero;display:inline;overflow:visible;visibility:visible;opacity:1;isolation:auto;mix-blend-mode:normal;color-interpolation:sRGB;color-interpolation-filters:linearRGB;solid-color:#000000;solid-opacity:1;fill:none;fill-opacity:1;fill-rule:nonzero;stroke:#000000;stroke-width:0.18520834;stroke-linecap:round;stroke-linejoin:round;stroke-miterlimit:4;stroke-dasharray:none;stroke-dashoffset:0;stroke-opacity:1;color-rendering:auto;image-rendering:auto;shape-rendering:auto;text-rendering:auto;enable-background:accumulate"
         d="m 17.991666,236.67501 h 2.116667"
         id="path1195"
         inkscape:connector-curvature="0" />
      <path
         style="color:#000000;clip-rule:nonzero;display:inline;overflow:visible;visibility:visible;opacity:1;isolation:auto;mix-blend-mode:normal;color-interpolation:sRGB;color-interpolation-filters:linearRGB;solid-color:#000000;solid-opacity:1;fill:none;fill-opacity:1;fill-rule:nonzero;stroke:#000000;stroke-width:0.18520834;stroke-linecap:round;stroke-linejoin:round;stroke-miterlimit:4;stroke-dasharray:none;stroke-dashoffset:0;stroke-opacity:1;color-rendering:auto;image-rendering:auto;shape-rendering:auto;text-rendering:auto;enable-background:accumulate"
         d="m 19.05,235.61668 v 2.11666"
         id="path1197"
         inkscape:connector-curvature="0" />
    </g>
    <g
       id="g1207"
       transform="translate(69.022152,-14.987798)">
      <circle
         r="1.0583333"
         cy="236.675"
         cx="19.049999"
         id="circle1201"
         style="color:#000000;clip-rule:nonzero;display:inline;overflow:visible;visibility:visible;opacity:1;isolation:auto;mix-blend-mode:normal;color-interpolation:sRGB;color-interpolation-filters:linearRGB;solid-color:#000000;solid-opacity:1;fill:none;fill-opacity:1;fill-rule:nonzero;stroke:#000000;stroke-width:0.21166667;stroke-linecap:round;stroke-linejoin:round;stroke-miterlimit:4;stroke-dasharray:none;stroke-dashoffset:0;stroke-opacity:1;color-rendering:auto;image-rendering:auto;shape-rendering:auto;text-rendering:auto;enable-background:accumulate" />
      <path
         inkscape:connector-curvature="0"
         id="path1203"
         d="m 17.991666,236.67501 h 2.116667"
         style="color:#000000;clip-rule:nonzero;display:inline;overflow:visible;visibility:visible;opacity:1;isolation:auto;mix-blend-mode:normal;color-interpolation:sRGB;color-interpolation-filters:linearRGB;solid-color:#000000;solid-opacity:1;fill:none;fill-opacity:1;fill-rule:nonzero;stroke:#000000;stroke-width:0.18520834;stroke-linecap:round;stroke-linejoin:round;stroke-miterlimit:4;stroke-dasharray:none;stroke-dashoffset:0;stroke-opacity:1;color-rendering:auto;image-rendering:auto;shape-rendering:auto;text-rendering:auto;enable-background:accumulate" />
      <path
         inkscape:connector-curvature="0"
         id="path1205"
         d="m 19.05,235.61668 v 2.11666"
         style="color:#000000;clip-rule:nonzero;display:inline;overflow:visible;visibility:visible;opacity:1;isolation:auto;mix-blend-mode:normal;color-interpolation:sRGB;color-interpolation-filters:linearRGB;solid-color:#000000;solid-opacity:1;fill:none;fill-opacity:1;fill-rule:nonzero;stroke:#000000;stroke-width:0.18520834;stroke-linecap:round;stroke-linejoin:round;stroke-miterlimit:4;stroke-dasharray:none;stroke-dashoffset:0;stroke-opacity:1;color-rendering:auto;image-rendering:auto;shape-rendering:auto;text-rendering:auto;enable-background:accumulate" />
    </g>
    <g
       transform="translate(60.799628,-17.006349)"
       id="g1215">
      <circle
         style="color:#000000;clip-rule:nonzero;display:inline;overflow:visible;visibility:visible;opacity:1;isolation:auto;mix-blend-mode:normal;color-interpolation:sRGB;color-interpolation-filters:linearRGB;solid-color:#000000;solid-opacity:1;fill:none;fill-opacity:1;fill-rule:nonzero;stroke:#000000;stroke-width:0.21166667;stroke-linecap:round;stroke-linejoin:round;stroke-miterlimit:4;stroke-dasharray:none;stroke-dashoffset:0;stroke-opacity:1;color-rendering:auto;image-rendering:auto;shape-rendering:auto;text-rendering:auto;enable-background:accumulate"
         id="circle1209"
         cx="19.049999"
         cy="236.675"
         r="1.0583333" />
      <path
         style="color:#000000;clip-rule:nonzero;display:inline;overflow:visible;visibility:visible;opacity:1;isolation:auto;mix-blend-mode:normal;color-interpolation:sRGB;color-interpolation-filters:linearRGB;solid-color:#000000;solid-opacity:1;fill:none;fill-opacity:1;fill-rule:nonzero;stroke:#000000;stroke-width:0.18520834;stroke-linecap:round;stroke-linejoin:round;stroke-miterlimit:4;stroke-dasharray:none;stroke-dashoffset:0;stroke-opacity:1;color-rendering:auto;image-rendering:auto;shape-rendering:auto;text-rendering:auto;enable-background:accumulate"
         d="m 17.991666,236.67501 h 2.116667"
         id="path1211"
         inkscape:connector-curvature="0" />
      <path
         style="color:#000000;clip-rule:nonzero;display:inline;overflow:visible;visibility:visible;opacity:1;isolation:auto;mix-blend-mode:normal;color-interpolation:sRGB;color-interpolation-filters:linearRGB;solid-color:#000000;solid-opacity:1;fill:none;fill-opacity:1;fill-rule:nonzero;stroke:#000000;stroke-width:0.18520834;stroke-linecap:round;stroke-linejoin:round;stroke-miterlimit:4;stroke-dasharray:none;stroke-dashoffset:0;stroke-opacity:1;color-rendering:auto;image-rendering:auto;shape-rendering:auto;text-rendering:auto;enable-background:accumulate"
         d="m 19.05,235.61668 v 2.11666"
         id="path1213"
         inkscape:connector-curvature="0" />
    </g>
    <g
       transform="translate(38.403499,-24.34166)"
       id="g1167">
      <circle
         style="color:#000000;clip-rule:nonzero;display:inline;overflow:visible;visibility:visible;opacity:1;isolation:auto;mix-blend-mode:normal;color-interpolation:sRGB;color-interpolation-filters:linearRGB;solid-color:#000000;solid-opacity:1;fill:none;fill-opacity:1;fill-rule:nonzero;stroke:#000000;stroke-width:0.21166667;stroke-linecap:round;stroke-linejoin:round;stroke-miterlimit:4;stroke-dasharray:none;stroke-dashoffset:0;stroke-opacity:1;color-rendering:auto;image-rendering:auto;shape-rendering:auto;text-rendering:auto;enable-background:accumulate"
         id="circle1161"
         cx="19.049999"
         cy="236.675"
         r="1.0583333" />
      <path
         style="color:#000000;clip-rule:nonzero;display:inline;overflow:visible;visibility:visible;opacity:1;isolation:auto;mix-blend-mode:normal;color-interpolation:sRGB;color-interpolation-filters:linearRGB;solid-color:#000000;solid-opacity:1;fill:none;fill-opacity:1;fill-rule:nonzero;stroke:#000000;stroke-width:0.18520834;stroke-linecap:round;stroke-linejoin:round;stroke-miterlimit:4;stroke-dasharray:none;stroke-dashoffset:0;stroke-opacity:1;color-rendering:auto;image-rendering:auto;shape-rendering:auto;text-rendering:auto;enable-background:accumulate"
         d="m 17.991666,236.67501 h 2.116667"
         id="path1163"
         inkscape:connector-curvature="0" />
      <path
         style="color:#000000;clip-rule:nonzero;display:inline;overflow:visible;visibility:visible;opacity:1;isolation:auto;mix-blend-mode:normal;color-interpolation:sRGB;color-interpolation-filters:linearRGB;solid-color:#000000;solid-opacity:1;fill:none;fill-opacity:1;fill-rule:nonzero;stroke:#000000;stroke-width:0.18520834;stroke-linecap:round;stroke-linejoin:round;stroke-miterlimit:4;stroke-dasharray:none;stroke-dashoffset:0;stroke-opacity:1;color-rendering:auto;image-rendering:auto;shape-rendering:auto;text-rendering:auto;enable-background:accumulate"
         d="m 19.05,235.61668 v 2.11666"
         id="path1165"
         inkscape:connector-curvature="0" />
    </g>
    <g
       id="g1175"
       transform="translate(40.950275,-14.134659)">
      <circle
         r="1.0583333"
         cy="236.675"
         cx="19.049999"
         id="circle1169"
         style="color:#000000;clip-rule:nonzero;display:inline;overflow:visible;visibility:visible;opacity:1;isolation:auto;mix-blend-mode:normal;color-interpolation:sRGB;color-interpolation-filters:linearRGB;solid-color:#000000;solid-opacity:1;fill:none;fill-opacity:1;fill-rule:nonzero;stroke:#000000;stroke-width:0.21166667;stroke-linecap:round;stroke-linejoin:round;stroke-miterlimit:4;stroke-dasharray:none;stroke-dashoffset:0;stroke-opacity:1;color-rendering:auto;image-rendering:auto;shape-rendering:auto;text-rendering:auto;enable-background:accumulate" />
      <path
         inkscape:connector-curvature="0"
         id="path1171"
         d="m 17.991666,236.67501 h 2.116667"
         style="color:#000000;clip-rule:nonzero;display:inline;overflow:visible;visibility:visible;opacity:1;isolation:auto;mix-blend-mode:normal;color-interpolation:sRGB;color-interpolation-filters:linearRGB;solid-color:#000000;solid-opacity:1;fill:none;fill-opacity:1;fill-rule:nonzero;stroke:#000000;stroke-width:0.18520834;stroke-linecap:round;stroke-linejoin:round;stroke-miterlimit:4;stroke-dasharray:none;stroke-dashoffset:0;stroke-opacity:1;color-rendering:auto;image-rendering:auto;shape-rendering:auto;text-rendering:auto;enable-background:accumulate" />
      <path
         inkscape:connector-curvature="0"
         id="path1173"
         d="m 19.05,235.61668 v 2.11666"
         style="color:#000000;clip-rule:nonzero;display:inline;overflow:visible;visibility:visible;opacity:1;isolation:auto;mix-blend-mode:normal;color-interpolation:sRGB;color-interpolation-filters:linearRGB;solid-color:#000000;solid-opacity:1;fill:none;fill-opacity:1;fill-rule:nonzero;stroke:#000000;stroke-width:0.18520834;stroke-linecap:round;stroke-linejoin:round;stroke-miterlimit:4;stroke-dasharray:none;stroke-dashoffset:0;stroke-opacity:1;color-rendering:auto;image-rendering:auto;shape-rendering:auto;text-rendering:auto;enable-background:accumulate" />
    </g>
    <g
       transform="translate(48.798663,-21.875534)"
       id="g1183">
      <circle
         style="color:#000000;clip-rule:nonzero;display:inline;overflow:visible;visibility:visible;opacity:1;isolation:auto;mix-blend-mode:normal;color-interpolation:sRGB;color-interpolation-filters:linearRGB;solid-color:#000000;solid-opacity:1;fill:none;fill-opacity:1;fill-rule:nonzero;stroke:#000000;stroke-width:0.21166667;stroke-linecap:round;stroke-linejoin:round;stroke-miterlimit:4;stroke-dasharray:none;stroke-dashoffset:0;stroke-opacity:1;color-rendering:auto;image-rendering:auto;shape-rendering:auto;text-rendering:auto;enable-background:accumulate"
         id="circle1177"
         cx="19.049999"
         cy="236.675"
         r="1.0583333" />
      <path
         style="color:#000000;clip-rule:nonzero;display:inline;overflow:visible;visibility:visible;opacity:1;isolation:auto;mix-blend-mode:normal;color-interpolation:sRGB;color-interpolation-filters:linearRGB;solid-color:#000000;solid-opacity:1;fill:none;fill-opacity:1;fill-rule:nonzero;stroke:#000000;stroke-width:0.18520834;stroke-linecap:round;stroke-linejoin:round;stroke-miterlimit:4;stroke-dasharray:none;stroke-dashoffset:0;stroke-opacity:1;color-rendering:auto;image-rendering:auto;shape-rendering:auto;text-rendering:auto;enable-background:accumulate"
         d="m 17.991666,236.67501 h 2.116667"
         id="path1179"
         inkscape:connector-curvature="0" />
      <path
         style="color:#000000;clip-rule:nonzero;display:inline;overflow:visible;visibility:visible;opacity:1;isolation:auto;mix-blend-mode:normal;color-interpolation:sRGB;color-interpolation-filters:linearRGB;solid-color:#000000;solid-opacity:1;fill:none;fill-opacity:1;fill-rule:nonzero;stroke:#000000;stroke-width:0.18520834;stroke-linecap:round;stroke-linejoin:round;stroke-miterlimit:4;stroke-dasharray:none;stroke-dashoffset:0;stroke-opacity:1;color-rendering:auto;image-rendering:auto;shape-rendering:auto;text-rendering:auto;enable-background:accumulate"
         d="m 19.05,235.61668 v 2.11666"
         id="path1181"
         inkscape:connector-curvature="0" />
    </g>
    <g
       id="g1159"
       transform="translate(23.586833,-15.875)">
      <circle
         r="1.0583333"
         cy="236.675"
         cx="19.049999"
         id="circle1153"
         style="color:#000000;clip-rule:nonzero;display:inline;overflow:visible;visibility:visible;opacity:1;isolation:auto;mix-blend-mode:normal;color-interpolation:sRGB;color-interpolation-filters:linearRGB;solid-color:#000000;solid-opacity:1;fill:none;fill-opacity:1;fill-rule:nonzero;stroke:#000000;stroke-width:0.21166667;stroke-linecap:round;stroke-linejoin:round;stroke-miterlimit:4;stroke-dasharray:none;stroke-dashoffset:0;stroke-opacity:1;color-rendering:auto;image-rendering:auto;shape-rendering:auto;text-rendering:auto;enable-background:accumulate" />
      <path
         inkscape:connector-curvature="0"
         id="path1155"
         d="m 17.991666,236.67501 h 2.116667"
         style="color:#000000;clip-rule:nonzero;display:inline;overflow:visible;visibility:visible;opacity:1;isolation:auto;mix-blend-mode:normal;color-interpolation:sRGB;color-interpolation-filters:linearRGB;solid-color:#000000;solid-opacity:1;fill:none;fill-opacity:1;fill-rule:nonzero;stroke:#000000;stroke-width:0.18520834;stroke-linecap:round;stroke-linejoin:round;stroke-miterlimit:4;stroke-dasharray:none;stroke-dashoffset:0;stroke-opacity:1;color-rendering:auto;image-rendering:auto;shape-rendering:auto;text-rendering:auto;enable-background:accumulate" />
      <path
         inkscape:connector-curvature="0"
         id="path1157"
         d="m 19.05,235.61668 v 2.11666"
         style="color:#000000;clip-rule:nonzero;display:inline;overflow:visible;visibility:visible;opacity:1;isolation:auto;mix-blend-mode:normal;color-interpolation:sRGB;color-interpolation-filters:linearRGB;solid-color:#000000;solid-opacity:1;fill:none;fill-opacity:1;fill-rule:nonzero;stroke:#000000;stroke-width:0.18520834;stroke-linecap:round;stroke-linejoin:round;stroke-miterlimit:4;stroke-dasharray:none;stroke-dashoffset:0;stroke-opacity:1;color-rendering:auto;image-rendering:auto;shape-rendering:auto;text-rendering:auto;enable-background:accumulate" />
    </g>
    <g
       transform="translate(15.120168,-24.34166)"
       id="g1151">
      <circle
         style="color:#000000;clip-rule:nonzero;display:inline;overflow:visible;visibility:visible;opacity:1;isolation:auto;mix-blend-mode:normal;color-interpolation:sRGB;color-interpolation-filters:linearRGB;solid-color:#000000;solid-opacity:1;fill:none;fill-opacity:1;fill-rule:nonzero;stroke:#000000;stroke-width:0.21166667;stroke-linecap:round;stroke-linejoin:round;stroke-miterlimit:4;stroke-dasharray:none;stroke-dashoffset:0;stroke-opacity:1;color-rendering:auto;image-rendering:auto;shape-rendering:auto;text-rendering:auto;enable-background:accumulate"
         id="circle1145"
         cx="19.049999"
         cy="236.675"
         r="1.0583333" />
      <path
         style="color:#000000;clip-rule:nonzero;display:inline;overflow:visible;visibility:visible;opacity:1;isolation:auto;mix-blend-mode:normal;color-interpolation:sRGB;color-interpolation-filters:linearRGB;solid-color:#000000;solid-opacity:1;fill:none;fill-opacity:1;fill-rule:nonzero;stroke:#000000;stroke-width:0.18520834;stroke-linecap:round;stroke-linejoin:round;stroke-miterlimit:4;stroke-dasharray:none;stroke-dashoffset:0;stroke-opacity:1;color-rendering:auto;image-rendering:auto;shape-rendering:auto;text-rendering:auto;enable-background:accumulate"
         d="m 17.991666,236.67501 h 2.116667"
         id="path1147"
         inkscape:connector-curvature="0" />
      <path
         style="color:#000000;clip-rule:nonzero;display:inline;overflow:visible;visibility:visible;opacity:1;isolation:auto;mix-blend-mode:normal;color-interpolation:sRGB;color-interpolation-filters:linearRGB;solid-color:#000000;solid-opacity:1;fill:none;fill-opacity:1;fill-rule:nonzero;stroke:#000000;stroke-width:0.18520834;stroke-linecap:round;stroke-linejoin:round;stroke-miterlimit:4;stroke-dasharray:none;stroke-dashoffset:0;stroke-opacity:1;color-rendering:auto;image-rendering:auto;shape-rendering:auto;text-rendering:auto;enable-background:accumulate"
         d="m 19.05,235.61668 v 2.11666"
         id="path1149"
         inkscape:connector-curvature="0" />
    </g>
    <g
       id="g1143"
       transform="translate(-8.163165,-24.34166)">
      <circle
         r="1.0583333"
         cy="236.675"
         cx="19.049999"
         id="path1134"
         style="color:#000000;clip-rule:nonzero;display:inline;overflow:visible;visibility:visible;opacity:1;isolation:auto;mix-blend-mode:normal;color-interpolation:sRGB;color-interpolation-filters:linearRGB;solid-color:#000000;solid-opacity:1;fill:none;fill-opacity:1;fill-rule:nonzero;stroke:#000000;stroke-width:0.21166667;stroke-linecap:round;stroke-linejoin:round;stroke-miterlimit:4;stroke-dasharray:none;stroke-dashoffset:0;stroke-opacity:1;color-rendering:auto;image-rendering:auto;shape-rendering:auto;text-rendering:auto;enable-background:accumulate" />
      <path
         inkscape:connector-curvature="0"
         id="path1136"
         d="m 17.991666,236.67501 h 2.116667"
         style="color:#000000;clip-rule:nonzero;display:inline;overflow:visible;visibility:visible;opacity:1;isolation:auto;mix-blend-mode:normal;color-interpolation:sRGB;color-interpolation-filters:linearRGB;solid-color:#000000;solid-opacity:1;fill:none;fill-opacity:1;fill-rule:nonzero;stroke:#000000;stroke-width:0.18520834;stroke-linecap:round;stroke-linejoin:round;stroke-miterlimit:4;stroke-dasharray:none;stroke-dashoffset:0;stroke-opacity:1;color-rendering:auto;image-rendering:auto;shape-rendering:auto;text-rendering:auto;enable-background:accumulate" />
      <path
         inkscape:connector-curvature="0"
         id="path1138"
         d="m 19.05,235.61668 v 2.11666"
         style="color:#000000;clip-rule:nonzero;display:inline;overflow:visible;visibility:visible;opacity:1;isolation:auto;mix-blend-mode:normal;color-interpolation:sRGB;color-interpolation-filters:linearRGB;solid-color:#000000;solid-opacity:1;fill:none;fill-opacity:1;fill-rule:nonzero;stroke:#000000;stroke-width:0.18520834;stroke-linecap:round;stroke-linejoin:round;stroke-miterlimit:4;stroke-dasharray:none;stroke-dashoffset:0;stroke-opacity:1;color-rendering:auto;image-rendering:auto;shape-rendering:auto;text-rendering:auto;enable-background:accumulate" />
    </g>
    <circle
       style="color:#000000;clip-rule:nonzero;display:inline;overflow:visible;visibility:visible;opacity:1;isolation:auto;mix-blend-mode:normal;color-interpolation:sRGB;color-interpolation-filters:linearRGB;solid-color:#000000;solid-opacity:1;fill:none;fill-opacity:1;fill-rule:nonzero;stroke:#000000;stroke-width:0.25999999;stroke-linecap:round;stroke-linejoin:round;stroke-miterlimit:4;stroke-dasharray:none;stroke-dashoffset:0;stroke-opacity:1;color-rendering:auto;image-rendering:auto;shape-rendering:auto;text-rendering:auto;enable-background:accumulate"
       id="path27770"
       cx="15.120168"
       cy="216.56668"
       r="8.4666662" />
    <circle
       r="8.4666662"
       cy="216.56668"
       cx="38.345974"
       id="circle27772"
       style="color:#000000;clip-rule:nonzero;display:inline;overflow:visible;visibility:visible;opacity:1;isolation:auto;mix-blend-mode:normal;color-interpolation:sRGB;color-interpolation-filters:linearRGB;solid-color:#000000;solid-opacity:1;fill:none;fill-opacity:1;fill-rule:nonzero;stroke:#000000;stroke-width:0.25999999;stroke-linecap:round;stroke-linejoin:round;stroke-miterlimit:4;stroke-dasharray:none;stroke-dashoffset:0;stroke-opacity:1;color-rendering:auto;image-rendering:auto;shape-rendering:auto;text-rendering:auto;enable-background:accumulate" />
    <circle
       style="color:#000000;clip-rule:nonzero;display:inline;overflow:visible;visibility:visible;opacity:1;isolation:auto;mix-blend-mode:normal;color-interpolation:sRGB;color-interpolation-filters:linearRGB;solid-color:#000000;solid-opacity:1;fill:none;fill-opacity:1;fill-rule:nonzero;stroke:#000000;stroke-width:0.25999999;stroke-linecap:round;stroke-linejoin:round;stroke-miterlimit:4;stroke-dasharray:none;stroke-dashoffset:0;stroke-opacity:1;color-rendering:auto;image-rendering:auto;shape-rendering:auto;text-rendering:auto;enable-background:accumulate"
       id="circle27774"
       cx="61.723843"
       cy="216.56668"
       r="8.4666662" />
    <circle
       r="8.4666662"
       cy="216.56668"
       cx="84.923546"
       id="circle27776"
       style="color:#000000;clip-rule:nonzero;display:inline;overflow:visible;visibility:visible;opacity:1;isolation:auto;mix-blend-mode:normal;color-interpolation:sRGB;color-interpolation-filters:linearRGB;solid-color:#000000;solid-opacity:1;fill:none;fill-opacity:1;fill-rule:nonzero;stroke:#000000;stroke-width:0.25999999;stroke-linecap:round;stroke-linejoin:round;stroke-miterlimit:4;stroke-dasharray:none;stroke-dashoffset:0;stroke-opacity:1;color-rendering:auto;image-rendering:auto;shape-rendering:auto;text-rendering:auto;enable-background:accumulate" />
    <circle
       style="color:#000000;clip-rule:nonzero;display:inline;overflow:visible;visibility:visible;opacity:1;isolation:auto;mix-blend-mode:normal;color-interpolation:sRGB;color-interpolation-filters:linearRGB;solid-color:#000000;solid-opacity:1;fill:none;fill-opacity:1;fill-rule:nonzero;stroke:#000000;stroke-width:0.25999999;stroke-linecap:round;stroke-linejoin:round;stroke-miterlimit:4;stroke-dasharray:none;stroke-dashoffset:0;stroke-opacity:1;color-rendering:auto;image-rendering:auto;shape-rendering:auto;text-rendering:auto;enable-background:accumulate"
       id="circle27778"
       cx="108.21233"
       cy="216.56668"
       r="8.4666662" />
    <path
       sodipodi:type="star"
       style="color:#000000;clip-rule:nonzero;display:inline;overflow:visible;visibility:visible;opacity:1;isolation:auto;mix-blend-mode:normal;color-interpolation:sRGB;color-interpolation-filters:linearRGB;solid-color:#000000;solid-opacity:1;fill:#000000;fill-opacity:1;fill-rule:nonzero;stroke:#000000;stroke-width:1.29048038;stroke-linecap:round;stroke-linejoin:round;stroke-miterlimit:4;stroke-dasharray:none;stroke-dashoffset:0;stroke-opacity:1;color-rendering:auto;image-rendering:auto;shape-rendering:auto;text-rendering:auto;enable-background:accumulate"
       id="path27806"
       sodipodi:sides="6"
       sodipodi:cx="103.71667"
       sodipodi:cy="19.566668"
       sodipodi:r1="6.7048883"
       sodipodi:r2="5.3443217"
       sodipodi:arg1="0.51973757"
       sodipodi:arg2="1.0433364"
       inkscape:flatsided="true"
       inkscape:rounded="0"
       inkscape:randomized="2.08167e-17"
       d="m 109.53617,22.896666 -5.79361,3.37484 -5.819509,-3.329999 -0.02589,-6.704838 5.793618,-3.37484 5.8195,3.329999 z"
       transform="matrix(0.20386202,0,0,0.20619864,87.068444,212.53206)" />
    <path
       transform="matrix(0.19593717,0.0562881,-0.05693326,0.19818295,65.715597,206.85089)"
       d="m 109.53617,22.896666 -9.1495,2.489506 -2.489508,-9.149503 9.149508,-2.489506 z"
       inkscape:randomized="2.08167e-17"
       inkscape:rounded="0"
       inkscape:flatsided="true"
       sodipodi:arg2="1.3051357"
       sodipodi:arg1="0.51973757"
       sodipodi:r2="5.3443217"
       sodipodi:r1="6.7048883"
       sodipodi:cy="19.566668"
       sodipodi:cx="103.71667"
       sodipodi:sides="4"
       id="path27820"
       style="color:#000000;clip-rule:nonzero;display:inline;overflow:visible;visibility:visible;opacity:1;isolation:auto;mix-blend-mode:normal;color-interpolation:sRGB;color-interpolation-filters:linearRGB;solid-color:#000000;solid-opacity:1;fill:#000000;fill-opacity:1;fill-rule:nonzero;stroke:#000000;stroke-width:1.29048038;stroke-linecap:round;stroke-linejoin:round;stroke-miterlimit:4;stroke-dasharray:none;stroke-dashoffset:0;stroke-opacity:1;color-rendering:auto;image-rendering:auto;shape-rendering:auto;text-rendering:auto;enable-background:accumulate"
       sodipodi:type="star" />
    <path
       sodipodi:type="star"
       style="color:#000000;clip-rule:nonzero;display:inline;overflow:visible;visibility:visible;opacity:1;isolation:auto;mix-blend-mode:normal;color-interpolation:sRGB;color-interpolation-filters:linearRGB;solid-color:#000000;solid-opacity:1;fill:#000000;fill-opacity:1;fill-rule:nonzero;stroke:#000000;stroke-width:1.29048038;stroke-linecap:round;stroke-linejoin:round;stroke-miterlimit:4;stroke-dasharray:none;stroke-dashoffset:0;stroke-opacity:1;color-rendering:auto;image-rendering:auto;shape-rendering:auto;text-rendering:auto;enable-background:accumulate"
       id="path27822"
       sodipodi:sides="3"
       sodipodi:cx="103.71667"
       sodipodi:cy="19.566668"
       sodipodi:r1="6.7048883"
       sodipodi:r2="5.3443217"
       sodipodi:arg1="0.51973757"
       sodipodi:arg2="1.5669351"
       inkscape:flatsided="true"
       inkscape:rounded="0"
       inkscape:randomized="2.08167e-17"
       d="m 109.53617,22.896666 -11.613119,0.04484 5.767729,-10.079678 z"
       transform="matrix(0.20382921,0.00365786,-0.00369978,0.20616544,40.665513,212.49061)" />
    <rect
       style="color:#000000;clip-rule:nonzero;display:inline;overflow:visible;visibility:visible;opacity:1;isolation:auto;mix-blend-mode:normal;color-interpolation:sRGB;color-interpolation-filters:linearRGB;solid-color:#000000;solid-opacity:1;fill:#000000;fill-opacity:1;fill-rule:evenodd;stroke:#000000;stroke-width:0.26458332;stroke-linecap:butt;stroke-linejoin:round;stroke-miterlimit:4;stroke-dasharray:none;stroke-dashoffset:0;stroke-opacity:1;color-rendering:auto;image-rendering:auto;shape-rendering:auto;text-rendering:auto;enable-background:accumulate"
       id="rect27828"
       width="4.2333331"
       height="1.0583295"
       x="36.229305"
       y="216.03752"
       ry="0.26458099" />
    <path
       inkscape:connector-curvature="0"
       style="fill:#000000;fill-opacity:1;stroke:none;stroke-width:0"
       d="m 3.9850686,230.09721 c 0,-0.0132 -0.00661,-0.0463 -0.046302,-0.0463 -0.013229,0 -0.019844,0.007 -0.066146,0.0529 l -0.2910415,0.32411 c -0.039687,-0.0595 -0.2315102,-0.37703 -0.7011453,-0.37703 -0.9458846,0 -1.89176926,0.93266 -1.89176926,1.91161 0,0.69453 0.49609336,1.15755 1.14432196,1.15755 0.3638018,0 0.6879161,-0.16536 0.9128118,-0.3638 0.3902601,-0.34396 0.4630205,-0.7276 0.4630205,-0.74083 0,-0.0463 -0.046302,-0.0463 -0.052917,-0.0463 -0.026458,0 -0.046302,0.0132 -0.052917,0.0463 -0.039688,0.11906 -0.1389061,0.42333 -0.4299476,0.66807 -0.2910414,0.23151 -0.5556245,0.30427 -0.7739056,0.30427 -0.377031,0 -0.8268223,-0.21828 -0.8268223,-0.87312 0,-0.24474 0.08599,-0.92604 0.5093225,-1.42214 0.2579686,-0.29765 0.6548433,-0.50932 1.0318742,-0.50932 0.4299476,0 0.6813016,0.32412 0.6813016,0.81359 0,0.17198 -0.013229,0.17198 -0.013229,0.21829 0,0.0397 0.046302,0.0397 0.059531,0.0397 0.052917,0 0.052917,-0.007 0.079375,-0.086 z m 0,0"
       id="path1741" />
    <path
       inkscape:connector-curvature="0"
       style="fill:#000000;fill-opacity:1;stroke:none;stroke-width:0"
       d="m 4.7771246,231.78139 c 0,-0.0794 0,-0.0794 -0.08599,-0.0794 -0.1918227,0.18521 -0.4564059,0.18521 -0.5754683,0.18521 v 0.10584 c 0.066146,0 0.2645832,0 0.423333,-0.0794 v 1.50151 c 0,0.0992 0,0.13891 -0.2910414,0.13891 H 4.1355106 v 0.10583 c 0.052917,0 0.4167184,-0.0132 0.5225516,-0.0132 0.092604,0 0.4630205,0.0132 0.5291663,0.0132 v -0.10583 H 5.0747807 c -0.2976561,0 -0.2976561,-0.0397 -0.2976561,-0.13891 z m 0,0"
       id="path1745" />
    <path
       inkscape:connector-curvature="0"
       style="fill:#000000;fill-opacity:1;stroke:none;stroke-width:0"
       d="m 6.3986487,231.70201 c 0,-0.007 0.00661,-0.0463 0.00661,-0.0463 0,-0.0198 -0.00661,-0.0463 -0.046302,-0.0463 -0.059531,0 -0.3042706,0.0265 -0.377031,0.0331 -0.019844,0 -0.066146,0.007 -0.066146,0.0661 0,0.0397 0.046302,0.0397 0.079375,0.0397 0.1389061,0 0.1389061,0.0265 0.1389061,0.0463 0,0.0198 -0.00661,0.0397 -0.00661,0.0661 l -0.4167184,1.66688 c -0.019844,0.0529 -0.019844,0.0595 -0.019844,0.0661 0,0.0463 0.039687,0.0926 0.1058332,0.0926 0.033073,0 0.085989,-0.0132 0.1190624,-0.0728 0.00661,-0.0198 0.033073,-0.12568 0.046302,-0.18521 l 0.07276,-0.26458 c 0.00661,-0.0463 0.039687,-0.15875 0.046302,-0.19844 0.026458,-0.11245 0.026458,-0.11906 0.08599,-0.21167 0.099219,-0.14552 0.2447394,-0.31088 0.4762496,-0.31088 0.1653645,0 0.1719791,0.13229 0.1719791,0.20505 0,0.17859 -0.125677,0.50271 -0.1719791,0.62838 -0.033073,0.086 -0.046302,0.11245 -0.046302,0.15875 0,0.15875 0.1322915,0.25136 0.2778123,0.25136 0.2976552,0 0.4299472,-0.40349 0.4299472,-0.44979 0,-0.0397 -0.03969,-0.0397 -0.05292,-0.0397 -0.03969,0 -0.03969,0.0198 -0.05292,0.0529 -0.06615,0.23812 -0.198438,0.35718 -0.310886,0.35718 -0.066145,0 -0.079375,-0.0397 -0.079375,-0.10583 0,-0.0661 0.019844,-0.10583 0.07276,-0.23812 0.03307,-0.0926 0.152135,-0.40349 0.152135,-0.56886 0,-0.0463 0,-0.17198 -0.105833,-0.25797 -0.052917,-0.0331 -0.1389058,-0.0794 -0.2778119,-0.0794 -0.2116665,0 -0.3704164,0.11906 -0.4762496,0.24474 z m 0,0"
       id="path1749" />
    <path
       inkscape:connector-curvature="0"
       style="fill:#000000;fill-opacity:1;stroke:none;stroke-width:0"
       d="m 11.726823,231.23492 c 0.07276,0 0.152136,0 0.152136,-0.0794 0,-0.086 -0.07938,-0.086 -0.152136,-0.086 H 9.2066691 c -0.06615,0 -0.145521,0 -0.145521,0.086 0,0.0794 0.08599,0.0794 0.152136,0.0794 z m 0,1.64041 c 0.07276,0 0.152136,0 0.152136,-0.086 0,-0.0794 -0.07938,-0.0794 -0.152136,-0.0794 H 9.2132841 c -0.06615,0 -0.152136,0 -0.152136,0.0794 0,0.086 0.07938,0.086 0.145521,0.086 z m 0,-0.8202 c 0.07276,0 0.152136,0 0.152136,-0.086 0,-0.0794 -0.07938,-0.0794 -0.152136,-0.0794 H 9.2066691 c -0.06615,0 -0.145521,0 -0.145521,0.0794 0,0.086 0.07938,0.086 0.145521,0.086 z m 0,0"
       id="path1753" />
    <path
       inkscape:connector-curvature="0"
       style="fill:#000000;fill-opacity:1;stroke:none;stroke-width:0"
       d="m 16.489478,230.09721 c 0,-0.0132 -0.0066,-0.0463 -0.0463,-0.0463 -0.01323,0 -0.01984,0.007 -0.06614,0.0529 l -0.291042,0.32411 c -0.03969,-0.0595 -0.23151,-0.37703 -0.701145,-0.37703 -0.945885,0 -1.89177,0.93266 -1.89177,1.91161 0,0.69453 0.496094,1.15755 1.144323,1.15755 0.363801,0 0.687916,-0.16536 0.912811,-0.3638 0.39026,-0.34396 0.463021,-0.7276 0.463021,-0.74083 0,-0.0463 -0.0463,-0.0463 -0.05292,-0.0463 -0.02646,0 -0.0463,0.0132 -0.05292,0.0463 -0.03969,0.11906 -0.138907,0.42333 -0.429948,0.66807 -0.291041,0.23151 -0.555625,0.30427 -0.773906,0.30427 -0.377031,0 -0.826822,-0.21828 -0.826822,-0.87312 0,-0.24474 0.08599,-0.92604 0.509323,-1.42214 0.257968,-0.29765 0.654843,-0.50932 1.031874,-0.50932 0.429947,0 0.681301,0.32412 0.681301,0.81359 0,0.17198 -0.01323,0.17198 -0.01323,0.21829 0,0.0397 0.0463,0.0397 0.05953,0.0397 0.05292,0 0.05292,-0.007 0.07937,-0.086 z m 0,0"
       id="path1757" />
    <path
       inkscape:connector-curvature="0"
       style="fill:#000000;fill-opacity:1;stroke:none;stroke-width:0"
       d="m 17.783819,233.12415 h -0.09922 c -0.0066,0.0661 -0.03969,0.23812 -0.07938,0.26458 -0.01984,0.0198 -0.244739,0.0198 -0.291041,0.0198 h -0.542395 c 0.310885,-0.2712 0.416718,-0.35719 0.588697,-0.4961 0.218281,-0.17198 0.423333,-0.35718 0.423333,-0.635 0,-0.35718 -0.310885,-0.57547 -0.687916,-0.57547 -0.363802,0 -0.615156,0.25797 -0.615156,0.52917 0,0.14552 0.125677,0.16537 0.15875,0.16537 0.06615,0 0.152135,-0.0529 0.152135,-0.15875 0,-0.0529 -0.01984,-0.15875 -0.171979,-0.15875 0.0926,-0.20506 0.291042,-0.2712 0.429948,-0.2712 0.297656,0 0.449791,0.23151 0.449791,0.46963 0,0.25797 -0.185208,0.45641 -0.277812,0.56224 l -0.70776,0.70776 c -0.03307,0.0265 -0.03307,0.0331 -0.03307,0.11245 h 1.217083 z m 0,0"
       id="path1761" />
    <path
       inkscape:connector-curvature="0"
       style="fill:#000000;fill-opacity:1;stroke:none;stroke-width:0"
       d="m 18.936132,231.81446 c 0,-0.0463 -0.03969,-0.11245 -0.119063,-0.11245 -0.07937,0 -0.165364,0.0794 -0.165364,0.16537 0,0.0463 0.03307,0.11245 0.119062,0.11245 0.07937,0 0.165365,-0.086 0.165365,-0.16537 z m -0.601927,1.50151 c -0.01323,0.0397 -0.02646,0.0728 -0.02646,0.12568 0,0.13891 0.112448,0.24474 0.277812,0.24474 0.291042,0 0.423333,-0.40349 0.423333,-0.44979 0,-0.0397 -0.03969,-0.0397 -0.0463,-0.0397 -0.03969,0 -0.0463,0.0198 -0.05953,0.0529 -0.06615,0.23812 -0.191823,0.35718 -0.310885,0.35718 -0.05953,0 -0.07276,-0.0397 -0.07276,-0.10583 0,-0.0661 0.01984,-0.11906 0.0463,-0.18521 0.03307,-0.0794 0.06615,-0.15875 0.09261,-0.23812 0.02646,-0.0728 0.138906,-0.33735 0.14552,-0.37703 0.01323,-0.0265 0.01984,-0.0595 0.01984,-0.0926 0,-0.1389 -0.119062,-0.25135 -0.277812,-0.25135 -0.297656,0 -0.429948,0.40349 -0.429948,0.4564 0,0.0331 0.03969,0.0331 0.05292,0.0331 0.03969,0 0.03969,-0.0132 0.05292,-0.0463 0.07276,-0.25135 0.205052,-0.35718 0.310886,-0.35718 0.0463,0 0.07276,0.0198 0.07276,0.0992 0,0.0728 -0.01323,0.11244 -0.08599,0.29765 z m 0,0"
       id="path1765" />
    <path
       inkscape:connector-curvature="0"
       style="fill:#000000;fill-opacity:1;stroke:none;stroke-width:0"
       d="m 23.449761,231.23492 c 0.07276,0 0.152136,0 0.152136,-0.0794 0,-0.086 -0.07937,-0.086 -0.152136,-0.086 h -2.520154 c -0.06615,0 -0.145521,0 -0.145521,0.086 0,0.0794 0.08599,0.0794 0.152136,0.0794 z m 0,1.64041 c 0.07276,0 0.152136,0 0.152136,-0.086 0,-0.0794 -0.07937,-0.0794 -0.152136,-0.0794 h -2.513539 c -0.06615,0 -0.152136,0 -0.152136,0.0794 0,0.086 0.07937,0.086 0.145521,0.086 z m 0,-0.8202 c 0.07276,0 0.152136,0 0.152136,-0.086 0,-0.0794 -0.07937,-0.0794 -0.152136,-0.0794 h -2.520154 c -0.06615,0 -0.145521,0 -0.145521,0.0794 0,0.086 0.07937,0.086 0.145521,0.086 z m 0,0"
       id="path1769" />
    <path
       inkscape:connector-curvature="0"
       style="fill:#000000;fill-opacity:1;stroke:none;stroke-width:0"
       d="m 25.374762,232.77612 c -0.01323,0.0661 -0.03969,0.16536 -0.03969,0.1852 0,0.0728 0.05953,0.11245 0.125677,0.11245 0.05292,0 0.125677,-0.0331 0.15875,-0.11906 0,-0.007 0.05292,-0.20505 0.07938,-0.31089 l 0.0926,-0.37703 c 0.01984,-0.0992 0.0463,-0.19182 0.07276,-0.28442 0.01323,-0.0728 0.0463,-0.19844 0.05292,-0.21167 0.05953,-0.13229 0.284427,-0.51594 0.687916,-0.51594 0.191823,0 0.224896,0.15875 0.224896,0.29766 0,0.10583 -0.02646,0.22489 -0.05953,0.35057 l -0.119062,0.48948 -0.08599,0.3175 c -0.01323,0.086 -0.05292,0.23151 -0.05292,0.25135 0,0.0728 0.05953,0.11245 0.119062,0.11245 0.132292,0 0.15875,-0.10583 0.191823,-0.23812 0.05953,-0.23813 0.218281,-0.85328 0.251354,-1.01865 0.01323,-0.0529 0.238125,-0.56224 0.701145,-0.56224 0.178594,0 0.224896,0.14552 0.224896,0.29766 0,0.23812 -0.178594,0.72099 -0.264583,0.94588 -0.03307,0.0992 -0.05292,0.14552 -0.05292,0.23151 0,0.19844 0.145521,0.34396 0.343958,0.34396 0.396875,0 0.555625,-0.61515 0.555625,-0.64823 0,-0.0463 -0.03969,-0.0463 -0.05292,-0.0463 -0.03969,0 -0.03969,0.0132 -0.05953,0.0794 -0.06615,0.22489 -0.198437,0.52255 -0.429948,0.52255 -0.07276,0 -0.105833,-0.0397 -0.105833,-0.13891 0,-0.10583 0.03969,-0.20505 0.07938,-0.29765 0.07937,-0.2249 0.257969,-0.68792 0.257969,-0.93266 0,-0.2712 -0.171979,-0.44979 -0.489479,-0.44979 -0.310885,0 -0.529166,0.18521 -0.687916,0.4101 0,-0.0529 -0.01323,-0.19843 -0.132292,-0.29765 -0.105833,-0.0926 -0.238125,-0.11245 -0.343958,-0.11245 -0.383645,0 -0.588697,0.2712 -0.661458,0.37042 -0.01984,-0.24474 -0.198437,-0.37042 -0.39026,-0.37042 -0.191823,0 -0.271198,0.16536 -0.310885,0.23812 -0.07276,0.15214 -0.125677,0.39688 -0.125677,0.41011 0,0.0463 0.03969,0.0463 0.0463,0.0463 0.0463,0 0.0463,-0.007 0.07276,-0.0992 0.07276,-0.29766 0.15875,-0.50271 0.310886,-0.50271 0.06615,0 0.125677,0.0331 0.125677,0.19183 0,0.0926 -0.01323,0.1389 -0.06615,0.35718 z m 0,0"
       id="path1773" />
    <path
       inkscape:connector-curvature="0"
       style="fill:#000000;fill-opacity:1;stroke:none;stroke-width:0"
       d="m 33.966814,232.93904 0.449791,-0.43657 c 0.654843,-0.58208 0.906197,-0.80698 0.906197,-1.23031 0,-0.48286 -0.377031,-0.82021 -0.892968,-0.82021 -0.476249,0 -0.787135,0.39026 -0.787135,0.7673 0,0.23151 0.211667,0.23151 0.224896,0.23151 0.07276,0 0.218281,-0.0463 0.218281,-0.2249 0,-0.10583 -0.07937,-0.21828 -0.224895,-0.21828 -0.03307,0 -0.03969,0 -0.05292,0.007 0.0926,-0.27781 0.324114,-0.42994 0.568854,-0.42994 0.383645,0 0.562239,0.34395 0.562239,0.68791 0,0.33735 -0.205052,0.66807 -0.443177,0.93266 l -0.806978,0.89958 c -0.0463,0.0463 -0.0463,0.0595 -0.0463,0.15875 h 1.567656 l 0.112447,-0.73422 h -0.09922 c -0.02646,0.12568 -0.05292,0.31089 -0.09922,0.37703 -0.02646,0.0331 -0.304271,0.0331 -0.396875,0.0331 z m 0,0"
       id="path1777" />
    <path
       inkscape:connector-curvature="0"
       style="fill:#000000;fill-opacity:1;stroke:none;stroke-width:0"
       d="m 37.39216,230.26013 c 0.01984,-0.0595 0.01984,-0.0728 0.01984,-0.0794 0,-0.0463 -0.03307,-0.086 -0.07938,-0.086 -0.03307,0 -0.05953,0.0132 -0.07276,0.0397 l -1.468436,4.02167 c -0.01984,0.0595 -0.01984,0.0728 -0.01984,0.0794 0,0.0463 0.03969,0.086 0.08599,0.086 0.05292,0 0.06615,-0.0331 0.0926,-0.10583 z m 0,0"
       id="path1781" />
    <path
       inkscape:connector-curvature="0"
       style="fill:#000000;fill-opacity:1;stroke:none;stroke-width:0"
       d="m 38.019243,233.0118 c -0.01323,0.0661 -0.03969,0.16536 -0.03969,0.1852 0,0.0728 0.05953,0.11245 0.125677,0.11245 0.05292,0 0.125677,-0.0331 0.15875,-0.11906 0,-0.007 0.05292,-0.20505 0.07937,-0.31089 l 0.0926,-0.37703 c 0.01984,-0.0992 0.0463,-0.19182 0.07276,-0.28442 0.01323,-0.0728 0.0463,-0.19844 0.05292,-0.21167 0.05953,-0.13229 0.284427,-0.51594 0.687916,-0.51594 0.191823,0 0.224896,0.15875 0.224896,0.29766 0,0.10583 -0.02646,0.22489 -0.05953,0.35057 l -0.119062,0.48948 -0.08599,0.3175 c -0.01323,0.086 -0.05292,0.23151 -0.05292,0.25135 0,0.0728 0.05953,0.11245 0.119062,0.11245 0.132292,0 0.15875,-0.10583 0.191823,-0.23812 0.05953,-0.23813 0.218281,-0.85328 0.251354,-1.01865 0.01323,-0.0529 0.238125,-0.56224 0.701145,-0.56224 0.178594,0 0.224896,0.14552 0.224896,0.29766 0,0.23812 -0.178594,0.72099 -0.264583,0.94588 -0.03307,0.0992 -0.05292,0.14552 -0.05292,0.23151 0,0.19844 0.145521,0.34396 0.343958,0.34396 0.396875,0 0.555625,-0.61515 0.555625,-0.64823 0,-0.0463 -0.03969,-0.0463 -0.05292,-0.0463 -0.03969,0 -0.03969,0.0132 -0.05953,0.0794 -0.06615,0.22489 -0.198437,0.52255 -0.429948,0.52255 -0.07276,0 -0.105833,-0.0397 -0.105833,-0.13891 0,-0.10583 0.03969,-0.20505 0.07937,-0.29765 0.07937,-0.2249 0.257969,-0.68792 0.257969,-0.93266 0,-0.2712 -0.171979,-0.44979 -0.489479,-0.44979 -0.310885,0 -0.529166,0.18521 -0.687916,0.4101 0,-0.0529 -0.01323,-0.19843 -0.132292,-0.29765 -0.105833,-0.0926 -0.238125,-0.11245 -0.343958,-0.11245 -0.383645,0 -0.588697,0.2712 -0.661458,0.37042 -0.01984,-0.24474 -0.198437,-0.37042 -0.39026,-0.37042 -0.191823,0 -0.271198,0.16536 -0.310885,0.23812 -0.07276,0.15214 -0.125677,0.39688 -0.125677,0.41011 0,0.0463 0.03969,0.0463 0.0463,0.0463 0.0463,0 0.0463,-0.007 0.07276,-0.0992 0.07276,-0.29766 0.15875,-0.50271 0.310886,-0.50271 0.06615,0 0.125677,0.0331 0.125677,0.19183 0,0.0926 -0.01323,0.1389 -0.06615,0.35718 z m 0,0"
       id="path1783" />
    <path
       inkscape:connector-curvature="0"
       style="fill:#000000;fill-opacity:1;stroke:none;stroke-width:0"
       d="m 57.55767,229.63408 c 0,-0.0132 -0.0066,-0.0463 -0.0463,-0.0463 -0.01323,0 -0.01984,0.007 -0.06614,0.0529 l -0.291042,0.32411 c -0.03969,-0.0595 -0.23151,-0.37703 -0.701145,-0.37703 -0.945885,0 -1.89177,0.93266 -1.89177,1.91161 0,0.69453 0.496094,1.15755 1.144323,1.15755 0.363801,0 0.687916,-0.16536 0.912811,-0.3638 0.39026,-0.34396 0.463021,-0.7276 0.463021,-0.74083 0,-0.0463 -0.0463,-0.0463 -0.05292,-0.0463 -0.02646,0 -0.0463,0.0132 -0.05292,0.0463 -0.03969,0.11906 -0.138907,0.42333 -0.429948,0.66807 -0.291042,0.23151 -0.555625,0.30427 -0.773906,0.30427 -0.377031,0 -0.826822,-0.21828 -0.826822,-0.87312 0,-0.24474 0.08599,-0.92604 0.509323,-1.42214 0.257968,-0.29765 0.654843,-0.50932 1.031874,-0.50932 0.429947,0 0.681301,0.32412 0.681301,0.81359 0,0.17198 -0.01323,0.17198 -0.01323,0.21829 0,0.0397 0.0463,0.0397 0.05953,0.0397 0.05292,0 0.05292,-0.007 0.07937,-0.086 z m 0,0"
       id="path1785" />
    <path
       inkscape:connector-curvature="0"
       style="fill:#000000;fill-opacity:1;stroke:none;stroke-width:0"
       d="m 58.170938,232.21123 c 0.23151,0 0.396874,0.15875 0.396874,0.47625 0,0.3638 -0.218281,0.47625 -0.383645,0.47625 -0.119063,0 -0.383646,-0.0331 -0.502708,-0.21167 0.138906,0 0.171979,-0.0992 0.171979,-0.16536 0,-0.0926 -0.07276,-0.15875 -0.165365,-0.15875 -0.07937,0 -0.165364,0.0529 -0.165364,0.17198 0,0.27781 0.30427,0.4564 0.661458,0.4564 0.410104,0 0.69453,-0.27781 0.69453,-0.56885 0,-0.23151 -0.185208,-0.46302 -0.509322,-0.52917 0.30427,-0.11245 0.416718,-0.33073 0.416718,-0.51594 0,-0.23151 -0.264583,-0.40349 -0.595312,-0.40349 -0.324114,0 -0.575468,0.15875 -0.575468,0.39688 0,0.0992 0.06615,0.15213 0.152135,0.15213 0.0926,0 0.152136,-0.0661 0.152136,-0.14552 0,-0.086 -0.05953,-0.15213 -0.152136,-0.15875 0.105834,-0.12567 0.304271,-0.15875 0.416719,-0.15875 0.132291,0 0.317499,0.0661 0.317499,0.3175 0,0.12568 -0.03969,0.26459 -0.119062,0.35058 -0.0926,0.11244 -0.178594,0.11906 -0.324114,0.13229 -0.07276,0.007 -0.07937,0.007 -0.0926,0.007 -0.0066,0 -0.03307,0.007 -0.03307,0.0397 0,0.0397 0.02646,0.0397 0.07938,0.0397 z m 0,0"
       id="path1789" />
    <path
       inkscape:connector-curvature="0"
       style="fill:#000000;fill-opacity:1;stroke:none;stroke-width:0"
       d="m 59.971056,231.23888 c 0,-0.007 0.0066,-0.0463 0.0066,-0.0463 0,-0.0198 -0.0066,-0.0463 -0.0463,-0.0463 -0.05953,0 -0.30427,0.0265 -0.37703,0.0331 -0.01984,0 -0.06615,0.007 -0.06615,0.0661 0,0.0397 0.0463,0.0397 0.07937,0.0397 0.138906,0 0.138906,0.0265 0.138906,0.0463 0,0.0198 -0.0066,0.0397 -0.0066,0.0661 l -0.416718,1.66688 c -0.01984,0.0529 -0.01984,0.0595 -0.01984,0.0661 0,0.0463 0.03969,0.0926 0.105833,0.0926 0.03307,0 0.08599,-0.0132 0.119063,-0.0728 0.0066,-0.0198 0.03307,-0.12568 0.0463,-0.18521 l 0.07276,-0.26458 c 0.0066,-0.0463 0.03969,-0.15875 0.0463,-0.19844 0.02646,-0.11245 0.02646,-0.11906 0.08599,-0.21167 0.09922,-0.14552 0.244739,-0.31088 0.476249,-0.31088 0.165365,0 0.171979,0.13229 0.171979,0.20505 0,0.17859 -0.125677,0.50271 -0.171979,0.62838 -0.03307,0.086 -0.0463,0.11245 -0.0463,0.15875 0,0.15875 0.132292,0.25136 0.277813,0.25136 0.297656,0 0.429947,-0.40349 0.429947,-0.44979 0,-0.0397 -0.03969,-0.0397 -0.05292,-0.0397 -0.03969,0 -0.03969,0.0198 -0.05292,0.0529 -0.06615,0.23812 -0.198437,0.35718 -0.310885,0.35718 -0.06615,0 -0.07937,-0.0397 -0.07937,-0.10583 0,-0.0661 0.01984,-0.10583 0.07276,-0.23812 0.03307,-0.0926 0.152135,-0.40349 0.152135,-0.56886 0,-0.0463 0,-0.17198 -0.105833,-0.25797 -0.05292,-0.0331 -0.138906,-0.0794 -0.277812,-0.0794 -0.211667,0 -0.370416,0.11906 -0.47625,0.24474 z m 0,0"
       id="path1793" />
    <path
       inkscape:connector-curvature="0"
       style="fill:#000000;fill-opacity:1;stroke:none;stroke-width:0"
       d="m 65.29923,230.77179 c 0.07276,0 0.152136,0 0.152136,-0.0794 0,-0.086 -0.07937,-0.086 -0.152136,-0.086 h -2.520154 c -0.06615,0 -0.145521,0 -0.145521,0.086 0,0.0794 0.08599,0.0794 0.152136,0.0794 z m 0,1.64041 c 0.07276,0 0.152136,0 0.152136,-0.086 0,-0.0794 -0.07937,-0.0794 -0.152136,-0.0794 h -2.513539 c -0.06615,0 -0.152136,0 -0.152136,0.0794 0,0.086 0.07937,0.086 0.145521,0.086 z m 0,-0.8202 c 0.07276,0 0.152136,0 0.152136,-0.086 0,-0.0794 -0.07937,-0.0794 -0.152136,-0.0794 h -2.520154 c -0.06615,0 -0.145521,0 -0.145521,0.0794 0,0.086 0.07937,0.086 0.145521,0.086 z m 0,0"
       id="path1797" />
    <path
       inkscape:connector-curvature="0"
       style="fill:#000000;fill-opacity:1;stroke:none;stroke-width:0"
       d="m 68.666209,229.30082 v -0.12568 h -1.521353 v 0.12568 z m 0,0"
       id="path1801" />
    <path
       inkscape:connector-curvature="0"
       style="fill:#000000;fill-opacity:1;stroke:none;stroke-width:0"
       d="m 67.40944,231.18189 v -0.10583 c 0,-1.06495 0.522551,-1.21708 0.740832,-1.21708 0.09922,0 0.277813,0.0265 0.370417,0.17198 -0.06615,0 -0.231511,0 -0.231511,0.1852 0,0.1323 0.09922,0.19844 0.191823,0.19844 0.06615,0 0.198438,-0.0397 0.198438,-0.20505 0,-0.25135 -0.185209,-0.45641 -0.535781,-0.45641 -0.542396,0 -1.111249,0.5424 -1.111249,1.47506 0,1.13109 0.489478,1.42874 0.879738,1.42874 0.469636,0 0.873125,-0.39687 0.873125,-0.9525 0,-0.53578 -0.377031,-0.93927 -0.846666,-0.93927 -0.284427,0 -0.443177,0.21167 -0.529166,0.41672 z m 0.502707,1.35599 c -0.264583,0 -0.39026,-0.25135 -0.416718,-0.3175 -0.07938,-0.19844 -0.07938,-0.53578 -0.07938,-0.60854 0,-0.33073 0.138906,-0.75406 0.515937,-0.75406 0.07276,0 0.264583,0 0.396875,0.26458 0.07276,0.15214 0.07276,0.37042 0.07276,0.57547 0,0.20505 0,0.41672 -0.07276,0.56885 -0.125677,0.25136 -0.3175,0.2712 -0.416719,0.2712 z m 0,0"
       id="path1805" />
    <path
       inkscape:connector-curvature="0"
       style="fill:#000000;fill-opacity:1;stroke:none;stroke-width:0"
       d="m 69.794563,223.62434 c 0,-0.0132 -0.0066,-0.0463 -0.0463,-0.0463 -0.01323,0 -0.01984,0.007 -0.06614,0.0529 l -0.291042,0.32411 c -0.03969,-0.0595 -0.23151,-0.37703 -0.701145,-0.37703 -0.945885,0 -1.891769,0.93266 -1.891769,1.91161 0,0.69453 0.496093,1.15755 1.144322,1.15755 0.363801,0 0.687916,-0.16536 0.912811,-0.3638 0.39026,-0.34396 0.463021,-0.7276 0.463021,-0.74083 0,-0.0463 -0.0463,-0.0463 -0.05292,-0.0463 -0.02646,0 -0.0463,0.0132 -0.05292,0.0463 -0.03969,0.11906 -0.138907,0.42333 -0.429948,0.66807 -0.291042,0.23151 -0.555625,0.30427 -0.773906,0.30427 -0.377031,0 -0.826822,-0.21828 -0.826822,-0.87312 0,-0.24474 0.08599,-0.92604 0.509323,-1.42214 0.257968,-0.29765 0.654843,-0.50932 1.031874,-0.50932 0.429947,0 0.681301,0.32412 0.681301,0.81359 0,0.17198 -0.01323,0.17198 -0.01323,0.21829 0,0.0397 0.0463,0.0397 0.05953,0.0397 0.05292,0 0.05292,-0.007 0.07937,-0.086 z m 0,0"
       id="path1809" />
    <path
       inkscape:connector-curvature="0"
       style="fill:#000000;fill-opacity:1;stroke:none;stroke-width:0"
       d="m 70.408026,226.20149 c 0.23151,0 0.396874,0.15875 0.396874,0.47625 0,0.3638 -0.218281,0.47625 -0.383645,0.47625 -0.119063,0 -0.383646,-0.0331 -0.502708,-0.21167 0.138906,0 0.171979,-0.0992 0.171979,-0.16536 0,-0.0926 -0.07276,-0.15875 -0.165365,-0.15875 -0.07937,0 -0.165364,0.0529 -0.165364,0.17198 0,0.27781 0.30427,0.4564 0.661458,0.4564 0.410104,0 0.69453,-0.27781 0.69453,-0.56885 0,-0.23151 -0.185208,-0.46302 -0.509322,-0.52917 0.30427,-0.11245 0.416718,-0.33073 0.416718,-0.51594 0,-0.23151 -0.264583,-0.40349 -0.595312,-0.40349 -0.324114,0 -0.575468,0.15875 -0.575468,0.39688 0,0.0992 0.06615,0.15213 0.152135,0.15213 0.0926,0 0.152136,-0.0661 0.152136,-0.14552 0,-0.086 -0.05953,-0.15213 -0.152136,-0.15875 0.105834,-0.12567 0.304271,-0.15875 0.416719,-0.15875 0.132291,0 0.317499,0.0661 0.317499,0.3175 0,0.12568 -0.03969,0.26459 -0.119062,0.35058 -0.0926,0.11244 -0.178594,0.11906 -0.324114,0.13229 -0.07276,0.007 -0.07937,0.007 -0.0926,0.007 -0.0066,0 -0.03307,0.007 -0.03307,0.0397 0,0.0397 0.02646,0.0397 0.07937,0.0397 z m 0,0"
       id="path1813" />
    <path
       inkscape:connector-curvature="0"
       style="fill:#000000;fill-opacity:1;stroke:none;stroke-width:0"
       d="m 72.208143,225.22914 c 0,-0.007 0.0066,-0.0463 0.0066,-0.0463 0,-0.0198 -0.0066,-0.0463 -0.0463,-0.0463 -0.05953,0 -0.30427,0.0265 -0.37703,0.0331 -0.01984,0 -0.06615,0.007 -0.06615,0.0661 0,0.0397 0.0463,0.0397 0.07937,0.0397 0.138906,0 0.138906,0.0265 0.138906,0.0463 0,0.0198 -0.0066,0.0397 -0.0066,0.0661 l -0.416718,1.66688 c -0.01984,0.0529 -0.01984,0.0595 -0.01984,0.0661 0,0.0463 0.03969,0.0926 0.105833,0.0926 0.03307,0 0.08599,-0.0132 0.119063,-0.0728 0.0066,-0.0198 0.03307,-0.12568 0.0463,-0.18521 l 0.07276,-0.26458 c 0.0066,-0.0463 0.03969,-0.15875 0.0463,-0.19844 0.02646,-0.11245 0.02646,-0.11906 0.08599,-0.21167 0.09922,-0.14552 0.244739,-0.31088 0.476249,-0.31088 0.165365,0 0.171979,0.13229 0.171979,0.20505 0,0.17859 -0.125677,0.50271 -0.171979,0.62838 -0.03307,0.086 -0.0463,0.11245 -0.0463,0.15875 0,0.15875 0.132292,0.25136 0.277813,0.25136 0.297656,0 0.429947,-0.40349 0.429947,-0.44979 0,-0.0397 -0.03969,-0.0397 -0.05292,-0.0397 -0.03969,0 -0.03969,0.0198 -0.05292,0.0529 -0.06615,0.23812 -0.198437,0.35718 -0.310885,0.35718 -0.06615,0 -0.07937,-0.0397 -0.07937,-0.10583 0,-0.0661 0.01984,-0.10583 0.07276,-0.23812 0.03307,-0.0926 0.152135,-0.40349 0.152135,-0.56886 0,-0.0463 0,-0.17198 -0.105833,-0.25797 -0.05292,-0.0331 -0.138906,-0.0794 -0.277812,-0.0794 -0.211667,0 -0.370416,0.11906 -0.47625,0.24474 z m 0,0"
       id="path1817" />
    <path
       inkscape:connector-curvature="0"
       style="fill:#000000;fill-opacity:1;stroke:none;stroke-width:0"
       d="m 47.045999,223.48458 c 0,-0.0132 -0.0066,-0.0463 -0.0463,-0.0463 -0.01323,0 -0.01984,0.007 -0.06615,0.0529 l -0.291042,0.32411 c -0.03969,-0.0595 -0.23151,-0.37703 -0.701145,-0.37703 -0.945885,0 -1.891769,0.93266 -1.891769,1.91161 0,0.69453 0.496093,1.15755 1.144322,1.15755 0.363801,0 0.687916,-0.16536 0.912811,-0.3638 0.39026,-0.34396 0.463021,-0.7276 0.463021,-0.74083 0,-0.0463 -0.0463,-0.0463 -0.05292,-0.0463 -0.02646,0 -0.0463,0.0132 -0.05292,0.0463 -0.03969,0.11906 -0.138907,0.42333 -0.429948,0.66807 -0.291042,0.23151 -0.555625,0.30427 -0.773906,0.30427 -0.377031,0 -0.826822,-0.21828 -0.826822,-0.87312 0,-0.24474 0.08599,-0.92604 0.509323,-1.42214 0.257968,-0.29765 0.654843,-0.50932 1.031874,-0.50932 0.429947,0 0.681301,0.32412 0.681301,0.81359 0,0.17198 -0.01323,0.17198 -0.01323,0.21829 0,0.0397 0.0463,0.0397 0.05953,0.0397 0.05292,0 0.05292,-0.007 0.07937,-0.086 z m 0,0"
       id="path1821" />
    <path
       inkscape:connector-curvature="0"
       style="fill:#000000;fill-opacity:1;stroke:none;stroke-width:0"
       d="m 48.340764,226.51152 h -0.09922 c -0.0066,0.0661 -0.03969,0.23812 -0.07937,0.26458 -0.01984,0.0198 -0.244739,0.0198 -0.291041,0.0198 h -0.542395 c 0.310885,-0.2712 0.416718,-0.35719 0.588697,-0.4961 0.218281,-0.17198 0.423333,-0.35718 0.423333,-0.635 0,-0.35718 -0.310885,-0.57547 -0.687916,-0.57547 -0.363802,0 -0.615156,0.25797 -0.615156,0.52917 0,0.14552 0.125677,0.16537 0.15875,0.16537 0.06615,0 0.152135,-0.0529 0.152135,-0.15875 0,-0.0529 -0.01984,-0.15875 -0.171979,-0.15875 0.0926,-0.20506 0.291042,-0.2712 0.429948,-0.2712 0.297656,0 0.449791,0.23151 0.449791,0.46963 0,0.25797 -0.185208,0.45641 -0.277812,0.56224 l -0.70776,0.70776 c -0.03307,0.0265 -0.03307,0.0331 -0.03307,0.11245 h 1.217083 z m 0,0"
       id="path1825" />
    <path
       inkscape:connector-curvature="0"
       style="fill:#000000;fill-opacity:1;stroke:none;stroke-width:0"
       d="m 49.45958,225.08938 c 0,-0.007 0.0066,-0.0463 0.0066,-0.0463 0,-0.0198 -0.0066,-0.0463 -0.0463,-0.0463 -0.05953,0 -0.30427,0.0265 -0.37703,0.0331 -0.01984,0 -0.06615,0.007 -0.06615,0.0661 0,0.0397 0.0463,0.0397 0.07937,0.0397 0.138906,0 0.138906,0.0265 0.138906,0.0463 0,0.0198 -0.0066,0.0397 -0.0066,0.0661 l -0.416718,1.66688 c -0.01984,0.0529 -0.01984,0.0595 -0.01984,0.0661 0,0.0463 0.03969,0.0926 0.105833,0.0926 0.03307,0 0.08599,-0.0132 0.119063,-0.0728 0.0066,-0.0198 0.03307,-0.12568 0.0463,-0.18521 l 0.07276,-0.26458 c 0.0066,-0.0463 0.03969,-0.15875 0.0463,-0.19844 0.02646,-0.11245 0.02646,-0.11906 0.08599,-0.21167 0.09922,-0.14552 0.244739,-0.31088 0.476249,-0.31088 0.165365,0 0.171979,0.13229 0.171979,0.20505 0,0.17859 -0.125677,0.50271 -0.171979,0.62838 -0.03307,0.086 -0.0463,0.11245 -0.0463,0.15875 0,0.15875 0.132292,0.25136 0.277813,0.25136 0.297656,0 0.429947,-0.40349 0.429947,-0.44979 0,-0.0397 -0.03969,-0.0397 -0.05292,-0.0397 -0.03969,0 -0.03969,0.0198 -0.05292,0.0529 -0.06615,0.23812 -0.198437,0.35718 -0.310885,0.35718 -0.06615,0 -0.07937,-0.0397 -0.07937,-0.10583 0,-0.0661 0.01984,-0.10583 0.07276,-0.23812 0.03307,-0.0926 0.152135,-0.40349 0.152135,-0.56886 0,-0.0463 0,-0.17198 -0.105833,-0.25797 -0.05292,-0.0331 -0.138906,-0.0794 -0.277812,-0.0794 -0.211667,0 -0.370416,0.11906 -0.47625,0.24474 z m 0,0"
       id="path1829" />
    <path
       inkscape:connector-curvature="0"
       style="fill:#000000;fill-opacity:1;stroke:none;stroke-width:0"
       d="m 81.591743,232.00957 v 0.3638 c 0,0.15214 -0.01323,0.19844 -0.324115,0.19844 h -0.08599 v 0.13229 c 0.171979,-0.0132 0.39026,-0.0132 0.568854,-0.0132 0.178593,0 0.396874,0 0.575468,0.0132 v -0.13229 h -0.0926 c -0.310885,0 -0.3175,-0.0463 -0.3175,-0.19844 v -0.3638 h 0.416718 v -0.13229 H 81.91586 v -1.91823 c 0,-0.086 0,-0.11245 -0.07276,-0.11245 -0.03307,0 -0.0463,0 -0.07937,0.0529 l -1.296458,1.97776 v 0.13229 z m 0.01984,-0.13229 h -1.025259 l 1.025259,-1.57427 z m 0,0"
       id="path1833" />
    <path
       inkscape:connector-curvature="0"
       style="fill:#000000;fill-opacity:1;stroke:none;stroke-width:0"
       d="m 84.309329,229.70108 c 0.01984,-0.0595 0.01984,-0.0728 0.01984,-0.0794 0,-0.0463 -0.03307,-0.086 -0.07937,-0.086 -0.03307,0 -0.05953,0.0132 -0.07276,0.0397 l -1.468436,4.02167 c -0.01984,0.0595 -0.01984,0.0728 -0.01984,0.0794 0,0.0463 0.03969,0.086 0.08599,0.086 0.05292,0 0.06615,-0.0331 0.0926,-0.10583 z m 0,0"
       id="path1837" />
    <path
       inkscape:connector-curvature="0"
       style="fill:#000000;fill-opacity:1;stroke:none;stroke-width:0"
       d="m 84.936412,232.45275 c -0.01323,0.0661 -0.03969,0.16536 -0.03969,0.1852 0,0.0728 0.05953,0.11245 0.125677,0.11245 0.05292,0 0.125677,-0.0331 0.15875,-0.11906 0,-0.007 0.05292,-0.20505 0.07937,-0.31089 l 0.0926,-0.37703 c 0.01984,-0.0992 0.0463,-0.19182 0.07276,-0.28442 0.01323,-0.0728 0.0463,-0.19844 0.05292,-0.21167 0.05953,-0.13229 0.284427,-0.51594 0.687916,-0.51594 0.191823,0 0.224896,0.15875 0.224896,0.29766 0,0.10583 -0.02646,0.22489 -0.05953,0.35057 l -0.119062,0.48948 -0.08599,0.3175 c -0.01323,0.086 -0.05292,0.23151 -0.05292,0.25135 0,0.0728 0.05953,0.11245 0.119062,0.11245 0.132292,0 0.15875,-0.10583 0.191823,-0.23812 0.05953,-0.23813 0.218281,-0.85328 0.251354,-1.01865 0.01323,-0.0529 0.238125,-0.56224 0.701145,-0.56224 0.178594,0 0.224896,0.14552 0.224896,0.29766 0,0.23812 -0.178594,0.72099 -0.264583,0.94588 -0.03307,0.0992 -0.05292,0.14552 -0.05292,0.23151 0,0.19844 0.145521,0.34396 0.343958,0.34396 0.396875,0 0.555625,-0.61515 0.555625,-0.64823 0,-0.0463 -0.03969,-0.0463 -0.05292,-0.0463 -0.03969,0 -0.03969,0.0132 -0.05953,0.0794 -0.06615,0.22489 -0.198437,0.52255 -0.429948,0.52255 -0.07276,0 -0.105833,-0.0397 -0.105833,-0.13891 0,-0.10583 0.03969,-0.20505 0.07937,-0.29765 0.07937,-0.2249 0.257969,-0.68792 0.257969,-0.93266 0,-0.2712 -0.171979,-0.44979 -0.489479,-0.44979 -0.310885,0 -0.529166,0.18521 -0.687916,0.4101 0,-0.0529 -0.01323,-0.19843 -0.132292,-0.29765 -0.105833,-0.0926 -0.238125,-0.11245 -0.343958,-0.11245 -0.383645,0 -0.588697,0.2712 -0.661458,0.37042 -0.01984,-0.24474 -0.198437,-0.37042 -0.39026,-0.37042 -0.191823,0 -0.271198,0.16536 -0.310885,0.23812 -0.07276,0.15214 -0.125677,0.39688 -0.125677,0.41011 0,0.0463 0.03969,0.0463 0.0463,0.0463 0.0463,0 0.0463,-0.007 0.07276,-0.0992 0.07276,-0.29766 0.15875,-0.50271 0.310886,-0.50271 0.06615,0 0.125677,0.0331 0.125677,0.19183 0,0.0926 -0.01323,0.1389 -0.06615,0.35718 z m 0,0"
       id="path1839" />
    <path
       inkscape:connector-curvature="0"
       style="fill:#000000;fill-opacity:1;stroke:none;stroke-width:0"
       d="m 93.992733,222.78577 c 0,-0.0132 -0.0066,-0.0463 -0.0463,-0.0463 -0.01323,0 -0.01984,0.007 -0.06615,0.0529 l -0.291042,0.32411 c -0.03969,-0.0595 -0.23151,-0.37703 -0.701145,-0.37703 -0.945885,0 -1.891769,0.93266 -1.891769,1.91161 0,0.69453 0.496093,1.15755 1.144322,1.15755 0.363801,0 0.687916,-0.16536 0.912811,-0.3638 0.39026,-0.34396 0.463021,-0.7276 0.463021,-0.74083 0,-0.0463 -0.0463,-0.0463 -0.05292,-0.0463 -0.02646,0 -0.0463,0.0132 -0.05292,0.0463 -0.03969,0.11906 -0.138907,0.42333 -0.429948,0.66807 -0.291041,0.23151 -0.555625,0.30427 -0.773906,0.30427 -0.377031,0 -0.826822,-0.21828 -0.826822,-0.87312 0,-0.24474 0.08599,-0.92604 0.509323,-1.42214 0.257968,-0.29765 0.654843,-0.50932 1.031874,-0.50932 0.429947,0 0.681301,0.32412 0.681301,0.81359 0,0.17198 -0.01323,0.17198 -0.01323,0.21829 0,0.0397 0.0463,0.0397 0.05953,0.0397 0.05292,0 0.05292,-0.007 0.07937,-0.086 z m 0,0"
       id="path1841" />
    <path
       inkscape:connector-curvature="0"
       style="fill:#000000;fill-opacity:1;stroke:none;stroke-width:0"
       d="m 95.360063,225.86563 v -0.10584 h -0.330728 v -1.3163 c 0,-0.0595 0,-0.086 -0.05953,-0.086 -0.03969,0 -0.05292,0 -0.07937,0.0463 l -0.978957,1.35599 v 0.10584 h 0.873124 v 0.23812 c 0,0.10583 0,0.13891 -0.244739,0.13891 h -0.07937 v 0.10583 c 0.152135,-0.007 0.337343,-0.0132 0.443177,-0.0132 0.112447,0 0.297656,0.007 0.449791,0.0132 v -0.10583 h -0.07937 c -0.244739,0 -0.244739,-0.0331 -0.244739,-0.13891 v -0.23812 z m -0.555624,-1.18401 v 1.07817 h -0.78052 z m 0,0"
       id="path1845" />
    <path
       inkscape:connector-curvature="0"
       style="fill:#000000;fill-opacity:1;stroke:none;stroke-width:0"
       d="m 96.406119,224.39057 c 0,-0.007 0.0066,-0.0463 0.0066,-0.0463 0,-0.0198 -0.0066,-0.0463 -0.0463,-0.0463 -0.05953,0 -0.30427,0.0265 -0.37703,0.0331 -0.01984,0 -0.06615,0.007 -0.06615,0.0661 0,0.0397 0.0463,0.0397 0.07937,0.0397 0.138906,0 0.138906,0.0265 0.138906,0.0463 0,0.0198 -0.0066,0.0397 -0.0066,0.0661 l -0.416718,1.66688 c -0.01984,0.0529 -0.01984,0.0595 -0.01984,0.0661 0,0.0463 0.03969,0.0926 0.105833,0.0926 0.03307,0 0.08599,-0.0132 0.119063,-0.0728 0.0066,-0.0198 0.03307,-0.12568 0.0463,-0.18521 l 0.07276,-0.26458 c 0.0066,-0.0463 0.03969,-0.15875 0.0463,-0.19844 0.02646,-0.11245 0.02646,-0.11906 0.08599,-0.21167 0.09922,-0.14552 0.244739,-0.31088 0.476249,-0.31088 0.165365,0 0.171979,0.13229 0.171979,0.20505 0,0.17859 -0.125677,0.50271 -0.171979,0.62838 -0.03307,0.086 -0.0463,0.11245 -0.0463,0.15875 0,0.15875 0.132292,0.25136 0.277813,0.25136 0.297656,0 0.429947,-0.40349 0.429947,-0.44979 0,-0.0397 -0.03969,-0.0397 -0.05292,-0.0397 -0.03969,0 -0.03969,0.0198 -0.05292,0.0529 -0.06615,0.23812 -0.198437,0.35718 -0.310885,0.35718 -0.06615,0 -0.07937,-0.0397 -0.07937,-0.10583 0,-0.0661 0.01984,-0.10583 0.07276,-0.23812 0.03307,-0.0926 0.152135,-0.40349 0.152135,-0.56886 0,-0.0463 0,-0.17198 -0.105833,-0.25797 -0.05292,-0.0331 -0.138906,-0.0794 -0.277812,-0.0794 -0.211667,0 -0.370416,0.11906 -0.47625,0.24474 z m 0,0"
       id="path1849" />
    <path
       inkscape:connector-curvature="0"
       style="fill:#000000;fill-opacity:1;stroke:none;stroke-width:0"
       d="m 104.79016,231.32165 v -0.10583 c 0,-1.06495 0.52255,-1.21708 0.74083,-1.21708 0.0992,0 0.27782,0.0265 0.37042,0.17198 -0.0662,0 -0.23151,0 -0.23151,0.1852 0,0.1323 0.0992,0.19844 0.19182,0.19844 0.0662,0 0.19844,-0.0397 0.19844,-0.20505 0,-0.25135 -0.18521,-0.45641 -0.53578,-0.45641 -0.5424,0 -1.11125,0.5424 -1.11125,1.47506 0,1.13109 0.48948,1.42874 0.87974,1.42874 0.46964,0 0.87312,-0.39687 0.87312,-0.9525 0,-0.53578 -0.37703,-0.93927 -0.84666,-0.93927 -0.28443,0 -0.44318,0.21167 -0.52917,0.41672 z m 0.50271,1.35599 c -0.26458,0 -0.39026,-0.25135 -0.41672,-0.3175 -0.0794,-0.19844 -0.0794,-0.53578 -0.0794,-0.60854 0,-0.33073 0.13891,-0.75406 0.51594,-0.75406 0.0728,0 0.26458,0 0.39687,0.26458 0.0728,0.15214 0.0728,0.37042 0.0728,0.57547 0,0.20505 0,0.41672 -0.0728,0.56885 -0.12567,0.25136 -0.3175,0.2712 -0.41671,0.2712 z m 0,0"
       id="path1853" />
    <path
       inkscape:connector-curvature="0"
       style="fill:#000000;fill-opacity:1;stroke:none;stroke-width:0"
       d="m 108.19524,229.70108 c 0.0198,-0.0595 0.0198,-0.0728 0.0198,-0.0794 0,-0.0463 -0.0331,-0.086 -0.0794,-0.086 -0.0331,0 -0.0595,0.0132 -0.0728,0.0397 l -1.46843,4.02167 c -0.0198,0.0595 -0.0198,0.0728 -0.0198,0.0794 0,0.0463 0.0397,0.086 0.086,0.086 0.0529,0 0.0662,-0.0331 0.0926,-0.10583 z m 0,0"
       id="path1857" />
    <path
       inkscape:connector-curvature="0"
       style="fill:#000000;fill-opacity:1;stroke:none;stroke-width:0"
       d="m 108.82232,232.45275 c -0.0132,0.0661 -0.0397,0.16536 -0.0397,0.1852 0,0.0728 0.0595,0.11245 0.12568,0.11245 0.0529,0 0.12568,-0.0331 0.15875,-0.11906 0,-0.007 0.0529,-0.20505 0.0794,-0.31089 l 0.0926,-0.37703 c 0.0198,-0.0992 0.0463,-0.19182 0.0728,-0.28442 0.0132,-0.0728 0.0463,-0.19844 0.0529,-0.21167 0.0595,-0.13229 0.28443,-0.51594 0.68792,-0.51594 0.19182,0 0.22489,0.15875 0.22489,0.29766 0,0.10583 -0.0265,0.22489 -0.0595,0.35057 l -0.11906,0.48948 -0.086,0.3175 c -0.0132,0.086 -0.0529,0.23151 -0.0529,0.25135 0,0.0728 0.0595,0.11245 0.11906,0.11245 0.1323,0 0.15875,-0.10583 0.19183,-0.23812 0.0595,-0.23813 0.21828,-0.85328 0.25135,-1.01865 0.0132,-0.0529 0.23813,-0.56224 0.70115,-0.56224 0.17859,0 0.22489,0.14552 0.22489,0.29766 0,0.23812 -0.17859,0.72099 -0.26458,0.94588 -0.0331,0.0992 -0.0529,0.14552 -0.0529,0.23151 0,0.19844 0.14552,0.34396 0.34396,0.34396 0.39687,0 0.55562,-0.61515 0.55562,-0.64823 0,-0.0463 -0.0397,-0.0463 -0.0529,-0.0463 -0.0397,0 -0.0397,0.0132 -0.0595,0.0794 -0.0661,0.22489 -0.19844,0.52255 -0.42995,0.52255 -0.0728,0 -0.10583,-0.0397 -0.10583,-0.13891 0,-0.10583 0.0397,-0.20505 0.0794,-0.29765 0.0794,-0.2249 0.25797,-0.68792 0.25797,-0.93266 0,-0.2712 -0.17198,-0.44979 -0.48948,-0.44979 -0.31088,0 -0.52917,0.18521 -0.68792,0.4101 0,-0.0529 -0.0132,-0.19843 -0.13229,-0.29765 -0.10583,-0.0926 -0.23812,-0.11245 -0.34396,-0.11245 -0.38364,0 -0.58869,0.2712 -0.66145,0.37042 -0.0198,-0.24474 -0.19844,-0.37042 -0.39026,-0.37042 -0.19183,0 -0.2712,0.16536 -0.31089,0.23812 -0.0728,0.15214 -0.12568,0.39688 -0.12568,0.41011 0,0.0463 0.0397,0.0463 0.0463,0.0463 0.0463,0 0.0463,-0.007 0.0728,-0.0992 0.0728,-0.29766 0.15875,-0.50271 0.31089,-0.50271 0.0661,0 0.12568,0.0331 0.12568,0.19183 0,0.0926 -0.0132,0.1389 -0.0662,0.35718 z m 0,0"
       id="path1859" />
    <path
       inkscape:connector-curvature="0"
       style="fill:#000000;fill-opacity:1;stroke:none;stroke-width:0"
       d="m 115.78222,224.04362 c 0,-0.0132 -0.007,-0.0463 -0.0463,-0.0463 -0.0132,0 -0.0198,0.007 -0.0661,0.0529 l -0.29104,0.32411 c -0.0397,-0.0595 -0.23151,-0.37703 -0.70114,-0.37703 -0.94589,0 -1.89177,0.93266 -1.89177,1.91161 0,0.69453 0.49609,1.15755 1.14432,1.15755 0.3638,0 0.68792,-0.16536 0.91281,-0.3638 0.39026,-0.34396 0.46302,-0.7276 0.46302,-0.74083 0,-0.0463 -0.0463,-0.0463 -0.0529,-0.0463 -0.0265,0 -0.0463,0.0132 -0.0529,0.0463 -0.0397,0.11906 -0.13891,0.42333 -0.42995,0.66807 -0.29104,0.23151 -0.55562,0.30427 -0.7739,0.30427 -0.37703,0 -0.82682,-0.21828 -0.82682,-0.87312 0,-0.24474 0.086,-0.92604 0.50932,-1.42214 0.25797,-0.29765 0.65484,-0.50932 1.03187,-0.50932 0.42995,0 0.6813,0.32412 0.6813,0.81359 0,0.17198 -0.0132,0.17198 -0.0132,0.21829 0,0.0397 0.0463,0.0397 0.0595,0.0397 0.0529,0 0.0529,-0.007 0.0794,-0.086 z m 0,0"
       id="path1861" />
    <path
       inkscape:connector-curvature="0"
       style="fill:#000000;fill-opacity:1;stroke:none;stroke-width:0"
       d="m 116.03169,226.64061 c 0,-0.23812 0.0198,-0.4564 0.13229,-0.64161 0.0992,-0.15875 0.25797,-0.26459 0.44979,-0.26459 0.086,0 0.20506,0.0198 0.26459,0.0992 -0.0728,0.007 -0.13891,0.0595 -0.13891,0.14552 0,0.0728 0.0529,0.13891 0.13891,0.13891 0.0926,0 0.14552,-0.0595 0.14552,-0.14552 0,-0.17198 -0.12568,-0.32412 -0.41672,-0.32412 -0.42333,0 -0.8599,0.39026 -0.8599,1.02526 0,0.76068 0.35719,0.99219 0.68792,0.99219 0.35719,0 0.66807,-0.27781 0.66807,-0.66146 0,-0.37703 -0.29765,-0.65484 -0.64161,-0.65484 -0.23813,0 -0.3638,0.15875 -0.42995,0.29104 z m 0.40349,0.93266 c -0.15214,0 -0.26458,-0.086 -0.33073,-0.21828 -0.0397,-0.086 -0.0662,-0.23813 -0.0662,-0.41011 0,-0.29104 0.17198,-0.50932 0.4101,-0.50932 0.1323,0 0.2249,0.0529 0.29766,0.15875 0.0728,0.11245 0.0728,0.23812 0.0728,0.4101 0,0.16537 0,0.29104 -0.0794,0.41011 -0.0662,0.0992 -0.16536,0.15875 -0.30427,0.15875 z m 0,0"
       id="path1865" />
    <path
       inkscape:connector-curvature="0"
       style="fill:#000000;fill-opacity:1;stroke:none;stroke-width:0"
       d="m 118.19561,225.64842 c 0,-0.007 0.007,-0.0463 0.007,-0.0463 0,-0.0198 -0.007,-0.0463 -0.0463,-0.0463 -0.0595,0 -0.30427,0.0265 -0.37703,0.0331 -0.0198,0 -0.0662,0.007 -0.0662,0.0661 0,0.0397 0.0463,0.0397 0.0794,0.0397 0.13891,0 0.13891,0.0265 0.13891,0.0463 0,0.0198 -0.007,0.0397 -0.007,0.0661 l -0.41672,1.66688 c -0.0198,0.0529 -0.0198,0.0595 -0.0198,0.0661 0,0.0463 0.0397,0.0926 0.10583,0.0926 0.0331,0 0.086,-0.0132 0.11906,-0.0728 0.007,-0.0198 0.0331,-0.12568 0.0463,-0.18521 l 0.0728,-0.26458 c 0.007,-0.0463 0.0397,-0.15875 0.0463,-0.19844 0.0265,-0.11245 0.0265,-0.11906 0.086,-0.21167 0.0992,-0.14552 0.24474,-0.31088 0.47625,-0.31088 0.16537,0 0.17198,0.13229 0.17198,0.20505 0,0.17859 -0.12568,0.50271 -0.17198,0.62838 -0.0331,0.086 -0.0463,0.11245 -0.0463,0.15875 0,0.15875 0.13229,0.25136 0.27782,0.25136 0.29765,0 0.42994,-0.40349 0.42994,-0.44979 0,-0.0397 -0.0397,-0.0397 -0.0529,-0.0397 -0.0397,0 -0.0397,0.0198 -0.0529,0.0529 -0.0661,0.23812 -0.19843,0.35718 -0.31088,0.35718 -0.0662,0 -0.0794,-0.0397 -0.0794,-0.10583 0,-0.0661 0.0198,-0.10583 0.0728,-0.23812 0.0331,-0.0926 0.15213,-0.40349 0.15213,-0.56886 0,-0.0463 0,-0.17198 -0.10583,-0.25797 -0.0529,-0.0331 -0.13891,-0.0794 -0.27781,-0.0794 -0.21167,0 -0.37042,0.11906 -0.47625,0.24474 z m 0,0"
       id="path1869" />
    <path
       id="path2117"
       d="m 22.433574,224.22723 c 0,-0.0132 -0.0066,-0.0463 -0.0463,-0.0463 -0.01323,0 -0.01984,0.007 -0.06615,0.0529 l -0.291041,0.32411 c -0.03969,-0.0595 -0.23151,-0.37703 -0.701146,-0.37703 -0.945884,0 -1.891769,0.93266 -1.891769,1.91161 0,0.69453 0.496094,1.15755 1.144322,1.15755 0.363802,0 0.687916,-0.16536 0.912812,-0.3638 0.39026,-0.34396 0.46302,-0.7276 0.46302,-0.74083 0,-0.0463 -0.0463,-0.0463 -0.05292,-0.0463 -0.02646,0 -0.0463,0.0132 -0.05292,0.0463 -0.03969,0.11906 -0.138906,0.42333 -0.429947,0.66807 -0.291042,0.23151 -0.555625,0.30427 -0.773906,0.30427 -0.377031,0 -0.826822,-0.21828 -0.826822,-0.87312 0,-0.24474 0.08599,-0.92604 0.509322,-1.42214 0.257969,-0.29765 0.654844,-0.50932 1.031875,-0.50932 0.429947,0 0.681301,0.32412 0.681301,0.81359 0,0.17198 -0.01323,0.17198 -0.01323,0.21829 0,0.0397 0.0463,0.0397 0.05953,0.0397 0.05292,0 0.05292,-0.007 0.07937,-0.086 z m 0,0"
       style="fill:#000000;fill-opacity:1;stroke:none;stroke-width:0"
       inkscape:connector-curvature="0" />
    <path
       id="path2119"
       d="m 23.22563,225.91141 c 0,-0.0794 0,-0.0794 -0.08599,-0.0794 -0.191822,0.18521 -0.456406,0.18521 -0.575468,0.18521 v 0.10584 c 0.06615,0 0.264583,0 0.423333,-0.0794 v 1.50151 c 0,0.0992 0,0.13891 -0.291041,0.13891 h -0.112448 v 0.10583 c 0.05292,0 0.416719,-0.0132 0.522552,-0.0132 0.0926,0 0.46302,0.0132 0.529166,0.0132 v -0.10583 h -0.112448 c -0.297656,0 -0.297656,-0.0397 -0.297656,-0.13891 z m 0,0"
       style="fill:#000000;fill-opacity:1;stroke:none;stroke-width:0"
       inkscape:connector-curvature="0" />
    <path
       id="path2121"
       d="m 24.847154,225.83203 c 0,-0.007 0.0066,-0.0463 0.0066,-0.0463 0,-0.0198 -0.0066,-0.0463 -0.0463,-0.0463 -0.05953,0 -0.30427,0.0265 -0.377031,0.0331 -0.01984,0 -0.06615,0.007 -0.06615,0.0661 0,0.0397 0.0463,0.0397 0.07937,0.0397 0.138906,0 0.138906,0.0265 0.138906,0.0463 0,0.0198 -0.0066,0.0397 -0.0066,0.0661 l -0.416718,1.66688 c -0.01984,0.0529 -0.01984,0.0595 -0.01984,0.0661 0,0.0463 0.03969,0.0926 0.105833,0.0926 0.03307,0 0.08599,-0.0132 0.119063,-0.0728 0.0066,-0.0198 0.03307,-0.12568 0.0463,-0.18521 l 0.07276,-0.26458 c 0.0066,-0.0463 0.03969,-0.15875 0.0463,-0.19844 0.02646,-0.11245 0.02646,-0.11906 0.08599,-0.21167 0.09922,-0.14552 0.244739,-0.31088 0.476249,-0.31088 0.165365,0 0.171979,0.13229 0.171979,0.20505 0,0.17859 -0.125677,0.50271 -0.171979,0.62838 -0.03307,0.086 -0.0463,0.11245 -0.0463,0.15875 0,0.15875 0.132292,0.25136 0.277813,0.25136 0.297655,0 0.429947,-0.40349 0.429947,-0.44979 0,-0.0397 -0.03969,-0.0397 -0.05292,-0.0397 -0.03969,0 -0.03969,0.0198 -0.05292,0.0529 -0.06615,0.23812 -0.198438,0.35718 -0.310886,0.35718 -0.06614,0 -0.07937,-0.0397 -0.07937,-0.10583 0,-0.0661 0.01984,-0.10583 0.07276,-0.23812 0.03307,-0.0926 0.152135,-0.40349 0.152135,-0.56886 0,-0.0463 0,-0.17198 -0.105833,-0.25797 -0.05292,-0.0331 -0.138906,-0.0794 -0.277812,-0.0794 -0.211667,0 -0.370417,0.11906 -0.47625,0.24474 z m 0,0"
       style="fill:#000000;fill-opacity:1;stroke:none;stroke-width:0"
       inkscape:connector-curvature="0" />
  </g>
</svg>
