<?xml version="1.0" encoding="UTF-8" standalone="no"?>
<!-- Created with Inkscape (http://www.inkscape.org/) -->

<svg
   xmlns:ns0="http://www.iki.fi/pav/software/textext/"
   xmlns:dc="http://purl.org/dc/elements/1.1/"
   xmlns:cc="http://creativecommons.org/ns#"
   xmlns:rdf="http://www.w3.org/1999/02/22-rdf-syntax-ns#"
   xmlns:svg="http://www.w3.org/2000/svg"
   xmlns="http://www.w3.org/2000/svg"
   xmlns:xlink="http://www.w3.org/1999/xlink"
   xmlns:sodipodi="http://sodipodi.sourceforge.net/DTD/sodipodi-0.dtd"
   xmlns:inkscape="http://www.inkscape.org/namespaces/inkscape"
   width="283.46457"
   height="177.16534"
   id="svg2"
   version="1.1"
   inkscape:version="0.47 r22583"
   sodipodi:docname="fig2.2.eps">
  <sodipodi:namedview
     id="base"
     pagecolor="#ffffff"
     bordercolor="#666666"
     borderopacity="1.0"
     inkscape:pageopacity="0.0"
     inkscape:pageshadow="2"
     inkscape:zoom="2.602089"
     inkscape:cx="141.73228"
     inkscape:cy="88.582672"
     inkscape:document-units="cm"
     inkscape:current-layer="layer1"
     showgrid="false"
     units="cm"
     inkscape:window-width="1024"
     inkscape:window-height="701"
     inkscape:window-x="-4"
     inkscape:window-y="0"
     inkscape:window-maximized="1">
    <inkscape:grid
       type="xygrid"
       id="grid2816"
       empspacing="5"
       visible="true"
       enabled="true"
       snapvisiblegridlinesonly="true" />
  </sodipodi:namedview>
  <defs
     id="defs4">
    <marker
       inkscape:stockid="Arrow1Mend"
       orient="auto"
       refY="0.0"
       refX="0.0"
       id="Arrow1Mend"
       style="overflow:visible;">
      <path
         id="path3845"
         d="M 0.0,0.0 L 5.0,-5.0 L -12.5,0.0 L 5.0,5.0 L 0.0,0.0 z "
         style="fill-rule:evenodd;stroke:#000000;stroke-width:1.0pt;marker-start:none;"
         transform="scale(0.4) rotate(180) translate(10,0)" />
    </marker>
    <marker
       inkscape:stockid="Arrow1Mstart"
       orient="auto"
       refY="0.0"
       refX="0.0"
       id="Arrow1Mstart"
       style="overflow:visible">
      <path
         id="path3842"
         d="M 0.0,0.0 L 5.0,-5.0 L -12.5,0.0 L 5.0,5.0 L 0.0,0.0 z "
         style="fill-rule:evenodd;stroke:#000000;stroke-width:1.0pt;marker-start:none"
         transform="scale(0.4) translate(10,0)" />
    </marker>
    <inkscape:perspective
       sodipodi:type="inkscape:persp3d"
       inkscape:vp_x="0 : 526.18109 : 1"
       inkscape:vp_y="0 : 1000 : 0"
       inkscape:vp_z="744.09448 : 526.18109 : 1"
       inkscape:persp3d-origin="372.04724 : 350.78739 : 1"
       id="perspective10" />
    <inkscape:perspective
       id="perspective3604"
       inkscape:persp3d-origin="0.5 : 0.33333333 : 1"
       inkscape:vp_z="1 : 0.5 : 1"
       inkscape:vp_y="0 : 1000 : 0"
       inkscape:vp_x="0 : 0.5 : 1"
       sodipodi:type="inkscape:persp3d" />
    <inkscape:perspective
       id="perspective3626"
       inkscape:persp3d-origin="0.5 : 0.33333333 : 1"
       inkscape:vp_z="1 : 0.5 : 1"
       inkscape:vp_y="0 : 1000 : 0"
       inkscape:vp_x="0 : 0.5 : 1"
       sodipodi:type="inkscape:persp3d" />
    <inkscape:perspective
       id="perspective3626-3"
       inkscape:persp3d-origin="0.5 : 0.33333333 : 1"
       inkscape:vp_z="1 : 0.5 : 1"
       inkscape:vp_y="0 : 1000 : 0"
       inkscape:vp_x="0 : 0.5 : 1"
       sodipodi:type="inkscape:persp3d" />
    <inkscape:perspective
       id="perspective3659"
       inkscape:persp3d-origin="0.5 : 0.33333333 : 1"
       inkscape:vp_z="1 : 0.5 : 1"
       inkscape:vp_y="0 : 1000 : 0"
       inkscape:vp_x="0 : 0.5 : 1"
       sodipodi:type="inkscape:persp3d" />
    <inkscape:perspective
       id="perspective3681"
       inkscape:persp3d-origin="0.5 : 0.33333333 : 1"
       inkscape:vp_z="1 : 0.5 : 1"
       inkscape:vp_y="0 : 1000 : 0"
       inkscape:vp_x="0 : 0.5 : 1"
       sodipodi:type="inkscape:persp3d" />
    <inkscape:perspective
       id="perspective3707"
       inkscape:persp3d-origin="0.5 : 0.33333333 : 1"
       inkscape:vp_z="1 : 0.5 : 1"
       inkscape:vp_y="0 : 1000 : 0"
       inkscape:vp_x="0 : 0.5 : 1"
       sodipodi:type="inkscape:persp3d" />
    <inkscape:perspective
       id="perspective3729"
       inkscape:persp3d-origin="0.5 : 0.33333333 : 1"
       inkscape:vp_z="1 : 0.5 : 1"
       inkscape:vp_y="0 : 1000 : 0"
       inkscape:vp_x="0 : 0.5 : 1"
       sodipodi:type="inkscape:persp3d" />
    <inkscape:perspective
       sodipodi:type="inkscape:persp3d"
       inkscape:vp_x="0 : 0.5 : 1"
       inkscape:vp_y="0 : 1000 : 0"
       inkscape:vp_z="1 : 0.5 : 1"
       inkscape:persp3d-origin="0.5 : 0.33333333 : 1"
       id="perspective4546" />
    <inkscape:perspective
       id="perspective4546-2"
       inkscape:persp3d-origin="0.5 : 0.33333333 : 1"
       inkscape:vp_z="1 : 0.5 : 1"
       inkscape:vp_y="0 : 1000 : 0"
       inkscape:vp_x="0 : 0.5 : 1"
       sodipodi:type="inkscape:persp3d" />
    <inkscape:perspective
       sodipodi:type="inkscape:persp3d"
       inkscape:vp_x="0 : 0.5 : 1"
       inkscape:vp_y="0 : 1000 : 0"
       inkscape:vp_z="1 : 0.5 : 1"
       inkscape:persp3d-origin="0.5 : 0.33333333 : 1"
       id="perspective4822" />
    <inkscape:perspective
       id="perspective5436"
       inkscape:persp3d-origin="0.5 : 0.33333333 : 1"
       inkscape:vp_z="1 : 0.5 : 1"
       inkscape:vp_y="0 : 1000 : 0"
       inkscape:vp_x="0 : 0.5 : 1"
       sodipodi:type="inkscape:persp3d" />
    <inkscape:perspective
       id="perspective5458"
       inkscape:persp3d-origin="0.5 : 0.33333333 : 1"
       inkscape:vp_z="1 : 0.5 : 1"
       inkscape:vp_y="0 : 1000 : 0"
       inkscape:vp_x="0 : 0.5 : 1"
       sodipodi:type="inkscape:persp3d" />
    <inkscape:perspective
       id="perspective5480"
       inkscape:persp3d-origin="0.5 : 0.33333333 : 1"
       inkscape:vp_z="1 : 0.5 : 1"
       inkscape:vp_y="0 : 1000 : 0"
       inkscape:vp_x="0 : 0.5 : 1"
       sodipodi:type="inkscape:persp3d" />
    <inkscape:perspective
       id="perspective5502"
       inkscape:persp3d-origin="0.5 : 0.33333333 : 1"
       inkscape:vp_z="1 : 0.5 : 1"
       inkscape:vp_y="0 : 1000 : 0"
       inkscape:vp_x="0 : 0.5 : 1"
       sodipodi:type="inkscape:persp3d" />
    <inkscape:perspective
       id="perspective5524"
       inkscape:persp3d-origin="0.5 : 0.33333333 : 1"
       inkscape:vp_z="1 : 0.5 : 1"
       inkscape:vp_y="0 : 1000 : 0"
       inkscape:vp_x="0 : 0.5 : 1"
       sodipodi:type="inkscape:persp3d" />
    <inkscape:perspective
       id="perspective5546"
       inkscape:persp3d-origin="0.5 : 0.33333333 : 1"
       inkscape:vp_z="1 : 0.5 : 1"
       inkscape:vp_y="0 : 1000 : 0"
       inkscape:vp_x="0 : 0.5 : 1"
       sodipodi:type="inkscape:persp3d" />
    <inkscape:perspective
       id="perspective5646"
       inkscape:persp3d-origin="0.5 : 0.33333333 : 1"
       inkscape:vp_z="1 : 0.5 : 1"
       inkscape:vp_y="0 : 1000 : 0"
       inkscape:vp_x="0 : 0.5 : 1"
       sodipodi:type="inkscape:persp3d" />
    <inkscape:perspective
       id="perspective5668"
       inkscape:persp3d-origin="0.5 : 0.33333333 : 1"
       inkscape:vp_z="1 : 0.5 : 1"
       inkscape:vp_y="0 : 1000 : 0"
       inkscape:vp_x="0 : 0.5 : 1"
       sodipodi:type="inkscape:persp3d" />
    <inkscape:perspective
       id="perspective5690"
       inkscape:persp3d-origin="0.5 : 0.33333333 : 1"
       inkscape:vp_z="1 : 0.5 : 1"
       inkscape:vp_y="0 : 1000 : 0"
       inkscape:vp_x="0 : 0.5 : 1"
       sodipodi:type="inkscape:persp3d" />
    <inkscape:perspective
       id="perspective6092"
       inkscape:persp3d-origin="0.5 : 0.33333333 : 1"
       inkscape:vp_z="1 : 0.5 : 1"
       inkscape:vp_y="0 : 1000 : 0"
       inkscape:vp_x="0 : 0.5 : 1"
       sodipodi:type="inkscape:persp3d" />
    <marker
       inkscape:stockid="Arrow1Mstart"
       orient="auto"
       refY="0"
       refX="0"
       id="Arrow1Mstart-3"
       style="overflow:visible">
      <path
         id="path3842-1"
         d="M 0,0 5,-5 -12.5,0 5,5 0,0 z"
         style="fill-rule:evenodd;stroke:#000000;stroke-width:1pt;marker-start:none"
         transform="matrix(0.4,0,0,0.4,4,0)" />
    </marker>
    <inkscape:perspective
       id="perspective6092-9"
       inkscape:persp3d-origin="0.5 : 0.33333333 : 1"
       inkscape:vp_z="1 : 0.5 : 1"
       inkscape:vp_y="0 : 1000 : 0"
       inkscape:vp_x="0 : 0.5 : 1"
       sodipodi:type="inkscape:persp3d" />
    <marker
       inkscape:stockid="Arrow1Mstart"
       orient="auto"
       refY="0"
       refX="0"
       id="Arrow1Mstart-2"
       style="overflow:visible">
      <path
         id="path3842-0"
         d="M 0,0 5,-5 -12.5,0 5,5 0,0 z"
         style="fill-rule:evenodd;stroke:#000000;stroke-width:1pt;marker-start:none"
         transform="matrix(0.4,0,0,0.4,4,0)" />
    </marker>
    <inkscape:perspective
       id="perspective6092-8"
       inkscape:persp3d-origin="0.5 : 0.33333333 : 1"
       inkscape:vp_z="1 : 0.5 : 1"
       inkscape:vp_y="0 : 1000 : 0"
       inkscape:vp_x="0 : 0.5 : 1"
       sodipodi:type="inkscape:persp3d" />
    <marker
       inkscape:stockid="Arrow1Mstart"
       orient="auto"
       refY="0"
       refX="0"
       id="Arrow1Mstart-9"
       style="overflow:visible">
      <path
         id="path3842-2"
         d="M 0,0 5,-5 -12.5,0 5,5 0,0 z"
         style="fill-rule:evenodd;stroke:#000000;stroke-width:1pt;marker-start:none"
         transform="matrix(0.4,0,0,0.4,4,0)" />
    </marker>
    <inkscape:perspective
       id="perspective6146"
       inkscape:persp3d-origin="0.5 : 0.33333333 : 1"
       inkscape:vp_z="1 : 0.5 : 1"
       inkscape:vp_y="0 : 1000 : 0"
       inkscape:vp_x="0 : 0.5 : 1"
       sodipodi:type="inkscape:persp3d" />
    <marker
       inkscape:stockid="Arrow1Mstart"
       orient="auto"
       refY="0"
       refX="0"
       id="Arrow1Mstart-4"
       style="overflow:visible">
      <path
         id="path3842-9"
         d="M 0,0 5,-5 -12.5,0 5,5 0,0 z"
         style="fill-rule:evenodd;stroke:#000000;stroke-width:1pt;marker-start:none"
         transform="matrix(0.4,0,0,0.4,4,0)" />
    </marker>
    <inkscape:perspective
       id="perspective6174"
       inkscape:persp3d-origin="0.5 : 0.33333333 : 1"
       inkscape:vp_z="1 : 0.5 : 1"
       inkscape:vp_y="0 : 1000 : 0"
       inkscape:vp_x="0 : 0.5 : 1"
       sodipodi:type="inkscape:persp3d" />
    <marker
       inkscape:stockid="Arrow1Mstart"
       orient="auto"
       refY="0"
       refX="0"
       id="Arrow1Mstart-0"
       style="overflow:visible">
      <path
         id="path3842-4"
         d="M 0,0 5,-5 -12.5,0 5,5 0,0 z"
         style="fill-rule:evenodd;stroke:#000000;stroke-width:1pt;marker-start:none"
         transform="matrix(0.4,0,0,0.4,4,0)" />
    </marker>
    <inkscape:perspective
       id="perspective6174-7"
       inkscape:persp3d-origin="0.5 : 0.33333333 : 1"
       inkscape:vp_z="1 : 0.5 : 1"
       inkscape:vp_y="0 : 1000 : 0"
       inkscape:vp_x="0 : 0.5 : 1"
       sodipodi:type="inkscape:persp3d" />
    <marker
       inkscape:stockid="Arrow1Mstart"
       orient="auto"
       refY="0"
       refX="0"
       id="Arrow1Mstart-1"
       style="overflow:visible">
      <path
         id="path3842-7"
         d="M 0,0 5,-5 -12.5,0 5,5 0,0 z"
         style="fill-rule:evenodd;stroke:#000000;stroke-width:1pt;marker-start:none"
         transform="matrix(0.4,0,0,0.4,4,0)" />
    </marker>
    <inkscape:perspective
       id="perspective6215"
       inkscape:persp3d-origin="0.5 : 0.33333333 : 1"
       inkscape:vp_z="1 : 0.5 : 1"
       inkscape:vp_y="0 : 1000 : 0"
       inkscape:vp_x="0 : 0.5 : 1"
       sodipodi:type="inkscape:persp3d" />
    <marker
       inkscape:stockid="Arrow1Mstart"
       orient="auto"
       refY="0"
       refX="0"
       id="Arrow1Mstart-7"
       style="overflow:visible">
      <path
         id="path3842-22"
         d="M 0,0 5,-5 -12.5,0 5,5 0,0 z"
         style="fill-rule:evenodd;stroke:#000000;stroke-width:1pt;marker-start:none"
         transform="matrix(0.4,0,0,0.4,4,0)" />
    </marker>
    <inkscape:perspective
       sodipodi:type="inkscape:persp3d"
       inkscape:vp_x="0 : 0.5 : 1"
       inkscape:vp_y="0 : 1000 : 0"
       inkscape:vp_z="1 : 0.5 : 1"
       inkscape:persp3d-origin="0.5 : 0.33333333 : 1"
       id="perspective6422" />
    <inkscape:perspective
       sodipodi:type="inkscape:persp3d"
       inkscape:vp_x="0 : 0.5 : 1"
       inkscape:vp_y="0 : 1000 : 0"
       inkscape:vp_z="1 : 0.5 : 1"
       inkscape:persp3d-origin="0.5 : 0.33333333 : 1"
       id="perspective6931" />
    <inkscape:perspective
       id="perspective6931-9"
       inkscape:persp3d-origin="0.5 : 0.33333333 : 1"
       inkscape:vp_z="1 : 0.5 : 1"
       inkscape:vp_y="0 : 1000 : 0"
       inkscape:vp_x="0 : 0.5 : 1"
       sodipodi:type="inkscape:persp3d" />
    <inkscape:perspective
       sodipodi:type="inkscape:persp3d"
       inkscape:vp_x="0 : 0.5 : 1"
       inkscape:vp_y="0 : 1000 : 0"
       inkscape:vp_z="1 : 0.5 : 1"
       inkscape:persp3d-origin="0.5 : 0.33333333 : 1"
       id="perspective6931-4" />
  </defs>
  <metadata
     id="metadata7">
    <rdf:RDF>
      <cc:Work
         rdf:about="">
        <dc:format>image/svg+xml</dc:format>
        <dc:type
           rdf:resource="http://purl.org/dc/dcmitype/StillImage" />
        <dc:title></dc:title>
      </cc:Work>
    </rdf:RDF>
  </metadata>
  <g
     inkscape:label="Layer 1"
     inkscape:groupmode="layer"
     id="layer1"
     transform="translate(0,-875.19552)">
    <path
       style="fill:none;stroke:#000000;stroke-width:1;stroke-linecap:butt;stroke-linejoin:miter;stroke-miterlimit:4;stroke-opacity:1;stroke-dasharray:4, 1;stroke-dashoffset:0"
       d="m 190,897.36086 c -9.67575,21.33511 -39.66984,54.26648 -65.35534,65.35534"
       id="path3649-3-7-6"
       sodipodi:nodetypes="cc" />
    <rect
       style="fill:none;stroke:#000000;stroke-width:1px;stroke-linecap:butt;stroke-linejoin:miter;stroke-opacity:1"
       id="rect5622"
       width="130"
       height="130"
       x="60"
       y="22.165344"
       transform="translate(0,875.19552)" />
    <path
       style="fill:none;stroke:#000000;stroke-width:1px;stroke-linecap:butt;stroke-linejoin:miter;stroke-opacity:1"
       d="M 60,22.165344 190,152.16534"
       id="path5628"
       transform="translate(0,875.19552)"
       sodipodi:nodetypes="cc" />
    <path
       style="fill:none;stroke:#000000;stroke-width:1px;stroke-linecap:butt;stroke-linejoin:miter;stroke-opacity:1"
       d="m 125,962.36086 65,0"
       id="path5630"
       sodipodi:nodetypes="cc" />
    <path
       style="fill:none;stroke:#000000;stroke-width:1px;stroke-linecap:butt;stroke-linejoin:miter;stroke-opacity:1"
       d="m 155,992.36086 35,0"
       id="path5632"
       sodipodi:nodetypes="cc" />
    <path
       style="fill:none;stroke:#000000;stroke-width:1px;stroke-linecap:butt;stroke-linejoin:miter;stroke-opacity:1"
       d="m 172.62907,1009.7058 17.12039,0"
       id="path5634"
       sodipodi:nodetypes="cc" />
    <path
       style="fill:none;stroke:#000000;stroke-width:1px;stroke-linecap:butt;stroke-linejoin:miter;stroke-opacity:1"
       d="m 182.18655,1019.5475 7.84707,0"
       id="path5636"
       sodipodi:nodetypes="cc" />
    <path
       style="fill:none;stroke:#000000;stroke-width:1;stroke-linecap:butt;stroke-linejoin:miter;stroke-miterlimit:4;stroke-opacity:1;stroke-dasharray:4, 1;stroke-dashoffset:0"
       d="m 189.60738,962.75999 c -3,9 -23.38286,26.39371 -34.73278,29.7599"
       id="path3649-3-7-6-8"
       sodipodi:nodetypes="cc" />
    <path
       style="fill:none;stroke:#000000;stroke-width:1;stroke-linecap:butt;stroke-linejoin:miter;stroke-miterlimit:4;stroke-opacity:1;stroke-dasharray:4, 1;stroke-dashoffset:0"
       d="m 189.6616,992.50294 c -2,3.99997 -13.12039,14.97296 -17.12039,16.97296"
       id="path3649-3-7-6-8-8"
       sodipodi:nodetypes="cc" />
    <path
       style="fill:none;stroke:#000000;stroke-width:1;stroke-linecap:butt;stroke-linejoin:miter;stroke-miterlimit:4;stroke-opacity:1;stroke-dasharray:4, 1;stroke-dashoffset:0"
       d="m 189.83081,1010.0875 c -1,3 -6.13124,8.6996 -8.13124,9.6996"
       id="path3649-3-7-6-8-8-4"
       sodipodi:nodetypes="cc" />
    <path
       style="fill:none;stroke:#000000;stroke-width:1px;stroke-linecap:butt;stroke-linejoin:miter;stroke-opacity:1;marker-start:url(#Arrow1Mstart)"
       d="m 130,897.36086 -10.76059,0"
       id="path5896" />
    <path
       style="fill:none;stroke:#000000;stroke-width:1px;stroke-linecap:butt;stroke-linejoin:miter;stroke-opacity:1;marker-start:url(#Arrow1Mstart)"
       d="m 60,922.36086 0,10.76059"
       id="path5896-4" />
    <path
       style="fill:none;stroke:#000000;stroke-width:1px;stroke-linecap:butt;stroke-linejoin:miter;stroke-opacity:1;marker-start:url(#Arrow1Mstart)"
       d="m 130,1027.3609 -10.76059,0"
       id="path5896-6" />
    <path
       style="fill:none;stroke:#000000;stroke-width:1px;stroke-linecap:butt;stroke-linejoin:miter;stroke-opacity:1;marker-start:url(#Arrow1Mstart)"
       d="m 159.47556,937.70054 4,-4"
       id="path5896-66"
       sodipodi:nodetypes="cc" />
    <path
       style="fill:none;stroke:#000000;stroke-width:1px;stroke-linecap:butt;stroke-linejoin:miter;stroke-opacity:1;marker-start:url(#Arrow1Mstart)"
       d="m 172.54551,982.09488 4.32155,-3.65029"
       id="path5896-66-5"
       sodipodi:nodetypes="cc" />
    <path
       style="fill:none;stroke:#000000;stroke-width:1px;stroke-linecap:butt;stroke-linejoin:miter;stroke-opacity:1;marker-start:url(#Arrow1Mstart)"
       d="m 178.9377,1004.5047 4.05537,-3.9438"
       id="path5896-66-5-8"
       sodipodi:nodetypes="cc" />
    <path
       style="fill:none;stroke:#000000;stroke-width:1px;stroke-linecap:butt;stroke-linejoin:miter;stroke-opacity:1;marker-start:url(#Arrow1Mstart)"
       d="m 184.51226,1017.2108 3.82833,-4.1647"
       id="path5896-66-5-2"
       sodipodi:nodetypes="cc" />
    <path
       style="fill:none;stroke:#000000;stroke-width:1px;stroke-linecap:butt;stroke-linejoin:miter;stroke-opacity:1;marker-start:url(#Arrow1Mstart)"
       d="M 191.34413,913.81532 209.11782,901.5175"
       id="path5896-61"
       sodipodi:nodetypes="cc" />
    <g
       transform="matrix(1.2,0,0,1.2,-55.11647,742.86664)"
       ns0:text="$\\Gamma x$"
       ns0:preamble="/home/manju/Documents/ubm/preamble.tex"
       id="g6304">
      <defs
         id="defs6306">
        <g
           id="g6308">
          <symbol
             style="overflow:visible"
             overflow="visible"
             id="textext-d09c11b7-0">
            <path
               style="stroke:none"
               d=""
               id="path6311" />
          </symbol>
          <symbol
             style="overflow:visible"
             overflow="visible"
             id="textext-d09c11b7-1">
            <path
               style="stroke:none"
               d="m 5.515625,-6.78125 -5.1875,0 0,0.3125 0.234375,0 c 0.765625,0 0.796875,0.109375 0.796875,0.46875 l 0,5.21875 c 0,0.359375 -0.03125,0.46875 -0.796875,0.46875 l -0.234375,0 0,0.3125 c 0.34375,-0.03125 1.125,-0.03125 1.515625,-0.03125 0.40625,0 1.3125,0 1.671875,0.03125 l 0,-0.3125 -0.328125,0 C 2.25,-0.3125 2.25,-0.4375 2.25,-0.78125 l 0,-5.296875 c 0,-0.328125 0.015625,-0.390625 0.484375,-0.390625 l 1.03125,0 c 1.421875,0 1.625,0.59375 1.78125,1.9375 l 0.25,0 -0.28125,-2.25 z m 0,0"
               id="path6314" />
          </symbol>
          <symbol
             style="overflow:visible"
             overflow="visible"
             id="textext-d09c11b7-2">
            <path
               style="stroke:none"
               d=""
               id="path6317" />
          </symbol>
          <symbol
             style="overflow:visible"
             overflow="visible"
             id="textext-d09c11b7-3">
            <path
               style="stroke:none"
               d="M 3.328125,-3.015625 C 3.390625,-3.265625 3.625,-4.1875 4.3125,-4.1875 c 0.046875,0 0.296875,0 0.5,0.125 C 4.53125,-4 4.34375,-3.765625 4.34375,-3.515625 c 0,0.15625 0.109375,0.34375 0.375,0.34375 0.21875,0 0.53125,-0.171875 0.53125,-0.578125 0,-0.515625 -0.578125,-0.65625 -0.921875,-0.65625 -0.578125,0 -0.921875,0.53125 -1.046875,0.75 -0.25,-0.65625 -0.78125,-0.75 -1.078125,-0.75 -1.03125,0 -1.609375,1.28125 -1.609375,1.53125 0,0.109375 0.109375,0.109375 0.125,0.109375 0.078125,0 0.109375,-0.03125 0.125,-0.109375 0.34375,-1.0625 1,-1.3125 1.34375,-1.3125 0.1875,0 0.53125,0.09375 0.53125,0.671875 0,0.3125 -0.171875,0.96875 -0.53125,2.375 -0.15625,0.609375 -0.515625,1.03125 -0.953125,1.03125 -0.0625,0 -0.28125,0 -0.5,-0.125 0.25,-0.0625 0.46875,-0.265625 0.46875,-0.546875 0,-0.265625 -0.21875,-0.34375 -0.359375,-0.34375 -0.3125,0 -0.546875,0.25 -0.546875,0.578125 0,0.453125 0.484375,0.65625 0.921875,0.65625 0.671875,0 1.03125,-0.703125 1.046875,-0.75 0.125,0.359375 0.484375,0.75 1.078125,0.75 1.03125,0 1.59375,-1.28125 1.59375,-1.53125 0,-0.109375 -0.078125,-0.109375 -0.109375,-0.109375 -0.09375,0 -0.109375,0.046875 -0.140625,0.109375 -0.328125,1.078125 -1,1.3125 -1.3125,1.3125 -0.390625,0 -0.546875,-0.3125 -0.546875,-0.65625 0,-0.21875 0.046875,-0.4375 0.15625,-0.875 l 0.34375,-1.375 z m 0,0"
               id="path6320" />
          </symbol>
        </g>
      </defs>
      <g
         id="textext-d09c11b7-4">
        <g
           style="fill:#000000;fill-opacity:1"
           id="g6323">
          <use
             height="177.16534"
             width="283.46457"
             xlink:href="#textext-d09c11b7-1"
             x="223.4321"
             y="134.76469"
             id="use6325" />
        </g>
        <g
           style="fill:#000000;fill-opacity:1"
           id="g6327">
          <use
             height="177.16534"
             width="283.46457"
             xlink:href="#textext-d09c11b7-3"
             x="229.6588"
             y="134.76469"
             id="use6329" />
        </g>
      </g>
    </g>
    <g
       ns0:text="$\\xi_2$"
       ns0:preamble="/home/manju/Documents/ubm/preamble.tex"
       transform="matrix(1.2,0,0,1.2,-226.61846,776.40832)"
       id="g6796">
      <defs
         id="defs6798">
        <g
           id="g6800">
          <symbol
             style="overflow:visible"
             overflow="visible"
             id="textext-c1a3ef6b-0">
            <path
               style="stroke:none"
               d=""
               id="path6803" />
          </symbol>
          <symbol
             style="overflow:visible"
             overflow="visible"
             id="textext-c1a3ef6b-1">
            <path
               style="stroke:none"
               d="m 1.53125,-3.046875 c -1.078125,0.71875 -1.296875,1.65625 -1.296875,2.015625 0,0.46875 0.265625,0.75 0.28125,0.78125 0.328125,0.328125 0.40625,0.375 1.15625,0.65625 C 2.265625,0.640625 2.296875,0.640625 2.875,0.875 3.03125,0.9375 3.234375,1 3.234375,1.296875 c 0,0.234375 -0.1875,0.53125 -0.5,0.53125 -0.4375,0 -0.765625,-0.25 -0.875,-0.328125 C 1.796875,1.46875 1.796875,1.453125 1.75,1.453125 c -0.078125,0 -0.09375,0.078125 -0.09375,0.109375 0,0.125 0.53125,0.484375 1.078125,0.484375 0.625,0 1.046875,-0.578125 1.046875,-1.0625 C 3.78125,0.5 3.40625,0.3125 3.296875,0.265625 3.15625,0.21875 2.828125,0.09375 2.6875,0.046875 2.5,-0.046875 2.296875,-0.125 2.078125,-0.1875 l -0.59375,-0.234375 c -0.453125,-0.1875 -0.75,-0.46875 -0.75,-0.890625 0,-0.40625 0.390625,-1.28125 1.234375,-1.703125 C 2.328125,-2.875 2.625,-2.875 2.84375,-2.875 c 0.296875,0 0.921875,0 0.921875,-0.3125 0,-0.25 -0.421875,-0.265625 -0.8125,-0.265625 -0.1875,0 -0.46875,0 -0.84375,0.109375 -0.25,-0.25 -0.296875,-0.578125 -0.296875,-0.765625 0,-0.5625 0.359375,-1.328125 1.109375,-1.703125 0.171875,0.21875 0.40625,0.21875 0.640625,0.21875 0.25,0 0.890625,0 0.890625,-0.3125 0,-0.25 -0.453125,-0.265625 -0.828125,-0.265625 -0.140625,0 -0.375,0 -0.640625,0.046875 C 2.953125,-6.203125 2.9375,-6.28125 2.9375,-6.453125 c 0,-0.140625 0.046875,-0.34375 0.046875,-0.359375 0,-0.078125 -0.046875,-0.140625 -0.109375,-0.140625 -0.1875,0 -0.1875,0.46875 -0.1875,0.5 0,0.1875 0.0625,0.34375 0.078125,0.375 -1.078125,0.3125 -1.75,1.109375 -1.75,1.875 0,0.359375 0.1875,0.78125 0.65625,1.046875 L 1.53125,-3.046875 z m 1.625,-2.859375 C 3.3125,-5.953125 3.515625,-5.953125 3.625,-5.953125 c 0.34375,0 0.375,0.015625 0.5625,0.0625 C 4.109375,-5.859375 4,-5.8125 3.5625,-5.8125 c -0.1875,0 -0.296875,0 -0.40625,-0.09375 z M 2.375,-3.1875 c 0.234375,-0.046875 0.453125,-0.046875 0.5625,-0.046875 0.359375,0 0.390625,0 0.578125,0.046875 -0.09375,0.046875 -0.1875,0.09375 -0.640625,0.09375 -0.234375,0 -0.328125,0 -0.5,-0.09375 z m 0,0"
               id="path6806" />
          </symbol>
          <symbol
             style="overflow:visible"
             overflow="visible"
             id="textext-c1a3ef6b-2">
            <path
               style="stroke:none"
               d=""
               id="path6809" />
          </symbol>
          <symbol
             style="overflow:visible"
             overflow="visible"
             id="textext-c1a3ef6b-3">
            <path
               style="stroke:none"
               d="m 3.515625,-1.265625 -0.234375,0 c -0.015625,0.15625 -0.09375,0.5625 -0.1875,0.625 -0.046875,0.046875 -0.578125,0.046875 -0.6875,0.046875 l -1.28125,0 c 0.734375,-0.640625 0.984375,-0.84375 1.390625,-1.171875 0.515625,-0.40625 1,-0.84375 1,-1.5 0,-0.84375 -0.734375,-1.359375 -1.625,-1.359375 -0.859375,0 -1.453125,0.609375 -1.453125,1.25 0,0.34375 0.296875,0.390625 0.375,0.390625 0.15625,0 0.359375,-0.125 0.359375,-0.375 0,-0.125 -0.046875,-0.375 -0.40625,-0.375 C 0.984375,-4.21875 1.453125,-4.375 1.78125,-4.375 c 0.703125,0 1.0625,0.546875 1.0625,1.109375 0,0.609375 -0.4375,1.078125 -0.65625,1.328125 L 0.515625,-0.265625 C 0.4375,-0.203125 0.4375,-0.1875 0.4375,0 l 2.875,0 0.203125,-1.265625 z m 0,0"
               id="path6812" />
          </symbol>
        </g>
      </defs>
      <g
         id="textext-c1a3ef6b-4">
        <g
           style="fill:#000000;fill-opacity:1"
           id="g6815">
          <use
             height="177.16534"
             width="283.46457"
             xlink:href="#textext-c1a3ef6b-1"
             x="223.4321"
             y="134.76469"
             id="use6817" />
        </g>
        <g
           style="fill:#000000;fill-opacity:1"
           id="g6819">
          <use
             height="177.16534"
             width="283.46457"
             xlink:href="#textext-c1a3ef6b-3"
             x="227.7908"
             y="136.25909"
             id="use6821" />
        </g>
      </g>
    </g>
    <g
       id="g7093"
       transform="matrix(1.2,0,0,1.2,-119.04016,877.78289)"
       ns0:preamble="/home/manju/Documents/ubm/preamble.tex"
       ns0:text="$\\xi_1$">
      <defs
         id="defs7095">
        <g
           id="g7097">
          <symbol
             id="textext-53e71648-0"
             overflow="visible">
            <path
               id="path7100"
               d=""
               style="stroke:none;" />
          </symbol>
          <symbol
             id="textext-53e71648-1"
             overflow="visible">
            <path
               id="path7103"
               d="M 1.53125 -3.046875 C 0.453125 -2.328125 0.234375 -1.390625 0.234375 -1.03125 C 0.234375 -0.5625 0.5 -0.28125 0.515625 -0.25 C 0.84375 0.078125 0.921875 0.125 1.671875 0.40625 C 2.265625 0.640625 2.296875 0.640625 2.875 0.875 C 3.03125 0.9375 3.234375 1 3.234375 1.296875 C 3.234375 1.53125 3.046875 1.828125 2.734375 1.828125 C 2.296875 1.828125 1.96875 1.578125 1.859375 1.5 C 1.796875 1.46875 1.796875 1.453125 1.75 1.453125 C 1.671875 1.453125 1.65625 1.53125 1.65625 1.5625 C 1.65625 1.6875 2.1875 2.046875 2.734375 2.046875 C 3.359375 2.046875 3.78125 1.46875 3.78125 0.984375 C 3.78125 0.5 3.40625 0.3125 3.296875 0.265625 C 3.15625 0.21875 2.828125 0.09375 2.6875 0.046875 C 2.5 -0.046875 2.296875 -0.125 2.078125 -0.1875 L 1.484375 -0.421875 C 1.03125 -0.609375 0.734375 -0.890625 0.734375 -1.3125 C 0.734375 -1.71875 1.125 -2.59375 1.96875 -3.015625 C 2.328125 -2.875 2.625 -2.875 2.84375 -2.875 C 3.140625 -2.875 3.765625 -2.875 3.765625 -3.1875 C 3.765625 -3.4375 3.34375 -3.453125 2.953125 -3.453125 C 2.765625 -3.453125 2.484375 -3.453125 2.109375 -3.34375 C 1.859375 -3.59375 1.8125 -3.921875 1.8125 -4.109375 C 1.8125 -4.671875 2.171875 -5.4375 2.921875 -5.8125 C 3.09375 -5.59375 3.328125 -5.59375 3.5625 -5.59375 C 3.8125 -5.59375 4.453125 -5.59375 4.453125 -5.90625 C 4.453125 -6.15625 4 -6.171875 3.625 -6.171875 C 3.484375 -6.171875 3.25 -6.171875 2.984375 -6.125 C 2.953125 -6.203125 2.9375 -6.28125 2.9375 -6.453125 C 2.9375 -6.59375 2.984375 -6.796875 2.984375 -6.8125 C 2.984375 -6.890625 2.9375 -6.953125 2.875 -6.953125 C 2.6875 -6.953125 2.6875 -6.484375 2.6875 -6.453125 C 2.6875 -6.265625 2.75 -6.109375 2.765625 -6.078125 C 1.6875 -5.765625 1.015625 -4.96875 1.015625 -4.203125 C 1.015625 -3.84375 1.203125 -3.421875 1.671875 -3.15625 L 1.53125 -3.046875 Z M 3.15625 -5.90625 C 3.3125 -5.953125 3.515625 -5.953125 3.625 -5.953125 C 3.96875 -5.953125 4 -5.9375 4.1875 -5.890625 C 4.109375 -5.859375 4 -5.8125 3.5625 -5.8125 C 3.375 -5.8125 3.265625 -5.8125 3.15625 -5.90625 Z M 2.375 -3.1875 C 2.609375 -3.234375 2.828125 -3.234375 2.9375 -3.234375 C 3.296875 -3.234375 3.328125 -3.234375 3.515625 -3.1875 C 3.421875 -3.140625 3.328125 -3.09375 2.875 -3.09375 C 2.640625 -3.09375 2.546875 -3.09375 2.375 -3.1875 Z M 2.375 -3.1875 "
               style="stroke:none;" />
          </symbol>
          <symbol
             id="textext-53e71648-2"
             overflow="visible">
            <path
               id="path7106"
               d=""
               style="stroke:none;" />
          </symbol>
          <symbol
             id="textext-53e71648-3"
             overflow="visible">
            <path
               id="path7109"
               d="M 2.328125 -4.4375 C 2.328125 -4.625 2.328125 -4.625 2.125 -4.625 C 1.671875 -4.1875 1.046875 -4.1875 0.765625 -4.1875 L 0.765625 -3.9375 C 0.921875 -3.9375 1.390625 -3.9375 1.765625 -4.125 L 1.765625 -0.578125 C 1.765625 -0.34375 1.765625 -0.25 1.078125 -0.25 L 0.8125 -0.25 L 0.8125 0 C 0.9375 0 1.796875 -0.03125 2.046875 -0.03125 C 2.265625 -0.03125 3.140625 0 3.296875 0 L 3.296875 -0.25 L 3.03125 -0.25 C 2.328125 -0.25 2.328125 -0.34375 2.328125 -0.578125 L 2.328125 -4.4375 Z M 2.328125 -4.4375 "
               style="stroke:none;" />
          </symbol>
        </g>
      </defs>
      <g
         id="textext-53e71648-4">
        <g
           id="g7112"
           style="fill:rgb(0%,0%,0%);fill-opacity:1;">
          <use
             id="use7114"
             y="134.7647"
             x="223.4321"
             xlink:href="#textext-53e71648-1" />
        </g>
        <g
           id="g7116"
           style="fill:rgb(0%,0%,0%);fill-opacity:1;">
          <use
             id="use7118"
             y="136.2591"
             x="227.7908"
             xlink:href="#textext-53e71648-3" />
        </g>
      </g>
    </g>
    <text
       xml:space="preserve"
       style="font-size:12px;font-style:normal;font-weight:normal;text-align:start;writing-mode:lr-tb;text-anchor:start;fill:#000000;fill-opacity:1;stroke:none;font-family:LMRoman10;-inkscape-font-specification:LMRoman10"
       x="51.88139"
       y="162.946"
       id="text7237"
       transform="translate(0,875.19552)"><tspan
         sodipodi:role="line"
         id="tspan7239"
         x="51.88139"
         y="162.946" /></text>
    <g
       ns0:text="$O$"
       ns0:preamble="/home/manju/Documents/ubm/preamble.tex"
       transform="matrix(1.2,0,0,1.2,-221.10235,875.14026)"
       id="g7402">
      <defs
         id="defs7404">
        <g
           id="g7406">
          <symbol
             style="overflow:visible"
             overflow="visible"
             id="textext-4974a5dd-0">
            <path
               style="stroke:none"
               d=""
               id="path7409" />
          </symbol>
          <symbol
             style="overflow:visible"
             overflow="visible"
             id="textext-4974a5dd-1">
            <path
               style="stroke:none"
               d="m 7.375,-4.34375 c 0,-1.609375 -1.0625,-2.6875 -2.546875,-2.6875 -2.140625,0 -4.34375,2.265625 -4.34375,4.59375 0,1.65625 1.125,2.65625 2.5625,2.65625 2.109375,0 4.328125,-2.1875 4.328125,-4.5625 z m -4.28125,4.296875 c -0.984375,0 -1.671875,-0.796875 -1.671875,-2.109375 0,-0.453125 0.140625,-1.90625 0.90625,-3.0625 0.6875,-1.046875 1.65625,-1.5625 2.453125,-1.5625 0.8125,0 1.703125,0.5625 1.703125,2.046875 0,0.71875 -0.265625,2.265625 -1.25,3.5 C 4.75,-0.625 3.9375,-0.046875 3.09375,-0.046875 z m 0,0"
               id="path7412" />
          </symbol>
        </g>
      </defs>
      <g
         id="textext-4974a5dd-2">
        <g
           style="fill:#000000;fill-opacity:1"
           id="g7415">
          <use
             height="177.16534"
             width="283.46457"
             xlink:href="#textext-4974a5dd-1"
             x="223.4321"
             y="134.76469"
             id="use7417" />
        </g>
      </g>
    </g>
    <g
       id="g7721"
       transform="matrix(1.2,0,0,1.2,-76.21876,875.14026)"
       ns0:preamble="/home/manju/Documents/ubm/preamble.tex"
       ns0:text="$t$">
      <defs
         id="defs7723">
        <g
           id="g7725">
          <symbol
             id="textext-8cb842f0-0"
             overflow="visible"
             style="overflow:visible">
            <path
               id="path7728"
               d=""
               style="stroke:none" />
          </symbol>
          <symbol
             id="textext-8cb842f0-1"
             overflow="visible"
             style="overflow:visible">
            <path
               id="path7731"
               d="m 2.046875,-3.984375 0.9375,0 c 0.203125,0 0.3125,0 0.3125,-0.203125 0,-0.109375 -0.109375,-0.109375 -0.28125,-0.109375 l -0.875,0 C 2.5,-5.71875 2.546875,-5.90625 2.546875,-5.96875 c 0,-0.171875 -0.125,-0.265625 -0.296875,-0.265625 -0.03125,0 -0.3125,0 -0.390625,0.359375 l -0.390625,1.578125 -0.9375,0 c -0.203125,0 -0.296875,0 -0.296875,0.1875 0,0.125 0.078125,0.125 0.28125,0.125 l 0.875,0 C 0.671875,-1.15625 0.625,-0.984375 0.625,-0.8125 0.625,-0.265625 1,0.109375 1.546875,0.109375 2.5625,0.109375 3.125,-1.34375 3.125,-1.421875 3.125,-1.53125 3.046875,-1.53125 3.015625,-1.53125 2.921875,-1.53125 2.90625,-1.5 2.859375,-1.390625 2.4375,-0.34375 1.90625,-0.109375 1.5625,-0.109375 c -0.203125,0 -0.3125,-0.125 -0.3125,-0.453125 0,-0.25 0.03125,-0.3125 0.0625,-0.484375 l 0.734375,-2.9375 z m 0,0"
               style="stroke:none" />
          </symbol>
        </g>
      </defs>
      <g
         id="textext-8cb842f0-2">
        <g
           id="g7734"
           style="fill:#000000;fill-opacity:1">
          <use
             id="use7736"
             y="134.76469"
             x="223.4321"
             xlink:href="#textext-8cb842f0-1"
             width="283.46457"
             height="177.16534" />
        </g>
      </g>
    </g>
  </g>
</svg>
