<?xml version="1.0" encoding="UTF-8" standalone="no"?>
<!-- Created with Inkscape (http://www.inkscape.org/) -->

<svg
   xmlns:ns0="http://www.iki.fi/pav/software/textext/"
   xmlns:dc="http://purl.org/dc/elements/1.1/"
   xmlns:cc="http://creativecommons.org/ns#"
   xmlns:rdf="http://www.w3.org/1999/02/22-rdf-syntax-ns#"
   xmlns:svg="http://www.w3.org/2000/svg"
   xmlns="http://www.w3.org/2000/svg"
   xmlns:xlink="http://www.w3.org/1999/xlink"
   xmlns:sodipodi="http://sodipodi.sourceforge.net/DTD/sodipodi-0.dtd"
   xmlns:inkscape="http://www.inkscape.org/namespaces/inkscape"
   width="283.46457"
   height="177.16534"
   id="svg2"
   version="1.1"
   inkscape:version="0.47 r22583"
   sodipodi:docname="New document 1">
  <sodipodi:namedview
     id="base"
     pagecolor="#ffffff"
     bordercolor="#666666"
     borderopacity="1.0"
     inkscape:pageopacity="0.0"
     inkscape:pageshadow="2"
     inkscape:zoom="1.332089"
     inkscape:cx="141.73228"
     inkscape:cy="88.582672"
     inkscape:document-units="cm"
     inkscape:current-layer="layer1"
     showgrid="false"
     units="cm"
     inkscape:window-width="972"
     inkscape:window-height="491"
     inkscape:window-x="44"
     inkscape:window-y="224"
     inkscape:window-maximized="0">
    <inkscape:grid
       type="xygrid"
       id="grid2816"
       empspacing="5"
       visible="true"
       enabled="true"
       snapvisiblegridlinesonly="true" />
  </sodipodi:namedview>
  <defs
     id="defs4">
    <inkscape:perspective
       sodipodi:type="inkscape:persp3d"
       inkscape:vp_x="0 : 526.18109 : 1"
       inkscape:vp_y="0 : 1000 : 0"
       inkscape:vp_z="744.09448 : 526.18109 : 1"
       inkscape:persp3d-origin="372.04724 : 350.78739 : 1"
       id="perspective10" />
    <inkscape:perspective
       id="perspective2828"
       inkscape:persp3d-origin="0.5 : 0.33333333 : 1"
       inkscape:vp_z="1 : 0.5 : 1"
       inkscape:vp_y="0 : 1000 : 0"
       inkscape:vp_x="0 : 0.5 : 1"
       sodipodi:type="inkscape:persp3d" />
    <inkscape:perspective
       sodipodi:type="inkscape:persp3d"
       inkscape:vp_x="0 : 0.5 : 1"
       inkscape:vp_y="0 : 1000 : 0"
       inkscape:vp_z="1 : 0.5 : 1"
       inkscape:persp3d-origin="0.5 : 0.33333333 : 1"
       id="perspective2911" />
  </defs>
  <metadata
     id="metadata7">
    <rdf:RDF>
      <cc:Work
         rdf:about="">
        <dc:format>image/svg+xml</dc:format>
        <dc:type
           rdf:resource="http://purl.org/dc/dcmitype/StillImage" />
        <dc:title></dc:title>
      </cc:Work>
    </rdf:RDF>
  </metadata>
  <g
     inkscape:label="Layer 1"
     inkscape:groupmode="layer"
     id="layer1"
     transform="translate(0,-875.19552)">
    <path
       sodipodi:type="arc"
       style="fill:#ffffff;fill-opacity:1;fill-rule:nonzero;stroke:#000000;stroke-width:0.99212599;stroke-linecap:square;stroke-linejoin:miter;stroke-miterlimit:4;stroke-opacity:1;stroke-dasharray:none;stroke-dashoffset:0"
       id="path2818"
       sodipodi:cx="90"
       sodipodi:cy="47.165344"
       sodipodi:rx="20"
       sodipodi:ry="20"
       d="m 110,47.165344 c 0,11.045695 -8.95431,20 -20,20 -11.045695,0 -20,-8.954305 -20,-20 0,-11.045695 8.954305,-20 20,-20 11.04569,0 20,8.954305 20,20 z"
       transform="translate(0,875.19552)" />
    <path
       transform="translate(100,875.19552)"
       sodipodi:type="arc"
       style="fill:#ffffff;fill-opacity:1;fill-rule:nonzero;stroke:#000000;stroke-width:0.99212599;stroke-linecap:square;stroke-linejoin:miter;stroke-miterlimit:4;stroke-opacity:1;stroke-dasharray:none;stroke-dashoffset:0"
       id="path2818-9"
       sodipodi:cx="90"
       sodipodi:cy="47.165344"
       sodipodi:rx="20"
       sodipodi:ry="20"
       d="m 110,47.165344 c 0,11.045695 -8.95431,20 -20,20 -11.045695,0 -20,-8.954305 -20,-20 0,-11.045695 8.954305,-20 20,-20 11.04569,0 20,8.954305 20,20 z" />
    <path
       style="fill:none;stroke:#000000;stroke-width:1px;stroke-linecap:butt;stroke-linejoin:miter;stroke-opacity:1"
       d="m 210,47.165344 20,0"
       id="path2842"
       transform="translate(0,875.19552)" />
    <rect
       style="fill:#ffffff;fill-opacity:1;fill-rule:nonzero;stroke:#000000;stroke-width:0.99212599;stroke-linecap:square;stroke-linejoin:miter;stroke-miterlimit:4;stroke-opacity:1;stroke-dasharray:none;stroke-dashoffset:0"
       id="rect2844"
       width="80"
       height="50"
       x="43.593754"
       y="972.36084" />
    <path
       style="fill:none;stroke:#000000;stroke-width:1px;stroke-linecap:butt;stroke-linejoin:miter;stroke-opacity:1"
       d="m 83.593755,972.36086 0,50.00004"
       id="path2846" />
    <path
       style="fill:none;stroke:#000000;stroke-width:1px;stroke-linecap:butt;stroke-linejoin:miter;stroke-opacity:1"
       d="m 199.82886,993.2648 c 5.45048,-10.0788 17.74527,-21.12381 38.63305,-19.62464 20.12215,1.28396 30.18891,9.95277 30,19.99999 -0.7507,11.87675 -17.98642,17.86385 -30,20.00005 -35.531,1.7138 -42.51785,-35.80229 -64.87955,-38.12329 -17.38795,-0.75162 -25.76754,7.31438 -25.12045,18.12324 0.0465,10.27925 8.81428,22.39105 30,20.00005 9.68662,-2.7583 13.76892,-7.7038 21.36695,-20.3754 z"
       id="path2848"
       sodipodi:nodetypes="cccccccc" />
    <g
       transform="matrix(1.2,0,0,1.2,-181.91779,734.72318)"
       ns0:text="$X$"
       ns0:preamble="/home/sriranga/Documents/TIFR/preamble.tex"
       id="g2864">
      <defs
         id="defs2866">
        <g
           id="g2868">
          <symbol
             style="overflow:visible"
             overflow="visible"
             id="textext-36fbe974-0">
            <path
               style="stroke:none"
               d=""
               id="path2871" />
          </symbol>
          <symbol
             style="overflow:visible"
             overflow="visible"
             id="textext-36fbe974-1">
            <path
               style="stroke:none"
               d="m 6.53125,-6.515625 -2.078125,0 0,0.171875 c 0.484375,0.046875 0.609375,0.125 0.609375,0.359375 0,0.125 -0.0625,0.25 -0.203125,0.40625 l -1.4375,1.65625 -0.59375,-1.46875 C 2.71875,-5.640625 2.6875,-5.8125 2.6875,-5.9375 c 0,-0.25 0.15625,-0.34375 0.703125,-0.40625 l 0,-0.171875 -2.640625,0 0,0.171875 c 0.578125,0.046875 0.734375,0.140625 0.921875,0.609375 l 1.0625,2.609375 c -0.375,0.421875 -0.703125,0.8125 -0.828125,0.96875 -1.390625,1.640625 -1.671875,1.890625 -2.203125,2 l 0,0.15625 2.140625,0 0,-0.15625 C 1.359375,-0.15625 1.203125,-0.25 1.203125,-0.5 c 0,-0.140625 0.078125,-0.3125 0.203125,-0.46875 l 1.5,-1.71875 0.671875,1.65625 c 0.078125,0.171875 0.109375,0.328125 0.109375,0.484375 0,0.28125 -0.09375,0.34375 -0.75,0.390625 l 0,0.15625 2.71875,0 0,-0.15625 C 4.953125,-0.234375 4.859375,-0.296875 4.609375,-0.890625 L 3.59375,-3.46875 l 1.6875,-1.9375 c 0.515625,-0.578125 0.8125,-0.796875 1.25,-0.9375 l 0,-0.171875 z m 0,0"
               id="path2874" />
          </symbol>
        </g>
      </defs>
      <g
         id="textext-36fbe974-2">
        <g
           style="fill:#000000;fill-opacity:1"
           id="g2877">
          <use
             height="177.16534"
             width="283.46457"
             xlink:href="#textext-36fbe974-1"
             x="223.681"
             y="134.765"
             id="use2879" />
        </g>
      </g>
    </g>
    <g
       id="g2977"
       transform="matrix(1.2,0,0,1.2,-84.560964,735.03874)"
       ns0:preamble="/home/sriranga/Documents/TIFR/preamble.tex"
       ns0:text="$Y$">
      <defs
         id="defs2979">
        <g
           id="g2981">
          <symbol
             id="textext-2ea5ef60-0"
             overflow="visible">
            <path
               id="path2984"
               d=""
               style="stroke:none;" />
          </symbol>
          <symbol
             id="textext-2ea5ef60-1"
             overflow="visible">
            <path
               id="path2987"
               d="M 0.90625 -6.34375 C 1.46875 -6.265625 1.5 -6.234375 1.671875 -5.6875 L 2.4375 -3.015625 L 1.828125 -0.890625 C 1.65625 -0.359375 1.4375 -0.203125 0.78125 -0.15625 L 0.78125 0 L 3.65625 0 L 3.65625 -0.15625 C 3.5 -0.171875 3.359375 -0.171875 3.296875 -0.1875 C 2.90625 -0.203125 2.765625 -0.3125 2.765625 -0.5625 C 2.765625 -0.765625 2.84375 -1.0625 3.078125 -1.84375 C 3.109375 -1.9375 3.125 -2 3.140625 -2.046875 L 3.421875 -3.046875 L 5.609375 -5.734375 C 5.9375 -6.140625 6.015625 -6.203125 6.3125 -6.34375 L 6.3125 -6.515625 L 4.421875 -6.515625 L 4.421875 -6.34375 C 4.546875 -6.34375 4.65625 -6.328125 4.6875 -6.3125 C 4.984375 -6.296875 5.109375 -6.203125 5.109375 -6.046875 C 5.109375 -5.765625 4.65625 -5.125 3.625 -3.921875 C 3.453125 -3.71875 3.390625 -3.640625 3.234375 -3.453125 C 3.125 -3.890625 3.09375 -4.03125 2.9375 -4.5625 C 2.6875 -5.40625 2.578125 -5.84375 2.578125 -5.984375 C 2.578125 -6.234375 2.6875 -6.296875 3.296875 -6.34375 L 3.296875 -6.515625 L 0.90625 -6.515625 L 0.90625 -6.34375 Z M 0.90625 -6.34375 "
               style="stroke:none;" />
          </symbol>
        </g>
      </defs>
      <g
         id="textext-2ea5ef60-2">
        <g
           id="g2990"
           style="fill:rgb(0%,0%,0%);fill-opacity:1;">
          <use
             id="use2992"
             y="134.765"
             x="223.432"
             xlink:href="#textext-2ea5ef60-1" />
        </g>
      </g>
    </g>
  </g>
</svg>
