<?xml version="1.0" encoding="UTF-8" standalone="no"?>
<!-- Created with Inkscape (http://www.inkscape.org/) -->

<svg
   xmlns:ns0="http://www.iki.fi/pav/software/textext/"
   xmlns:dc="http://purl.org/dc/elements/1.1/"
   xmlns:cc="http://creativecommons.org/ns#"
   xmlns:rdf="http://www.w3.org/1999/02/22-rdf-syntax-ns#"
   xmlns:svg="http://www.w3.org/2000/svg"
   xmlns="http://www.w3.org/2000/svg"
   xmlns:xlink="http://www.w3.org/1999/xlink"
   xmlns:sodipodi="http://sodipodi.sourceforge.net/DTD/sodipodi-0.dtd"
   xmlns:inkscape="http://www.inkscape.org/namespaces/inkscape"
   width="283.46457"
   height="177.16534"
   id="svg2"
   version="1.1"
   inkscape:version="0.47 r22583"
   sodipodi:docname="fig2.eps">
  <sodipodi:namedview
     id="base"
     pagecolor="#ffffff"
     bordercolor="#666666"
     borderopacity="1.0"
     inkscape:pageopacity="0.0"
     inkscape:pageshadow="2"
     inkscape:zoom="1.3546667"
     inkscape:cx="141.73228"
     inkscape:cy="88.582672"
     inkscape:document-units="cm"
     inkscape:current-layer="layer1"
     showgrid="false"
     units="cm"
     inkscape:window-width="972"
     inkscape:window-height="495"
     inkscape:window-x="44"
     inkscape:window-y="220"
     inkscape:window-maximized="0">
    <inkscape:grid
       type="xygrid"
       id="grid2816"
       empspacing="5"
       visible="true"
       enabled="true"
       snapvisiblegridlinesonly="true" />
  </sodipodi:namedview>
  <defs
     id="defs4">
    <inkscape:perspective
       sodipodi:type="inkscape:persp3d"
       inkscape:vp_x="0 : 526.18109 : 1"
       inkscape:vp_y="0 : 1000 : 0"
       inkscape:vp_z="744.09448 : 526.18109 : 1"
       inkscape:persp3d-origin="372.04724 : 350.78739 : 1"
       id="perspective10" />
    <inkscape:perspective
       id="perspective2828"
       inkscape:persp3d-origin="0.5 : 0.33333333 : 1"
       inkscape:vp_z="1 : 0.5 : 1"
       inkscape:vp_y="0 : 1000 : 0"
       inkscape:vp_x="0 : 0.5 : 1"
       sodipodi:type="inkscape:persp3d" />
    <inkscape:perspective
       sodipodi:type="inkscape:persp3d"
       inkscape:vp_x="0 : 0.5 : 1"
       inkscape:vp_y="0 : 1000 : 0"
       inkscape:vp_z="1 : 0.5 : 1"
       inkscape:persp3d-origin="0.5 : 0.33333333 : 1"
       id="perspective2911" />
    <inkscape:perspective
       sodipodi:type="inkscape:persp3d"
       inkscape:vp_x="0 : 0.5 : 1"
       inkscape:vp_y="0 : 1000 : 0"
       inkscape:vp_z="1 : 0.5 : 1"
       inkscape:persp3d-origin="0.5 : 0.33333333 : 1"
       id="perspective3779" />
  </defs>
  <metadata
     id="metadata7">
    <rdf:RDF>
      <cc:Work
         rdf:about="">
        <dc:format>image/svg+xml</dc:format>
        <dc:type
           rdf:resource="http://purl.org/dc/dcmitype/StillImage" />
        <dc:title></dc:title>
      </cc:Work>
    </rdf:RDF>
  </metadata>
  <g
     inkscape:label="Layer 1"
     inkscape:groupmode="layer"
     id="layer1"
     transform="translate(0,-875.19552)">
    <path
       style="fill:none;stroke:#000000;stroke-width:1px;stroke-linecap:butt;stroke-linejoin:miter;stroke-opacity:1"
       d="m 36.309055,985.24472 60,0 -30,-50 -30,50 z"
       id="path2932"
       sodipodi:nodetypes="cccc" />
    <path
       style="fill:none;stroke:#000000;stroke-width:1px;stroke-linecap:butt;stroke-linejoin:miter;stroke-opacity:1"
       d="M 200,7.1653442 170,57.165344 220,147.16534 250,87.165344 200,7.1653442"
       id="path2934"
       transform="translate(0,875.19552)"
       sodipodi:nodetypes="ccccc" />
    <path
       style="fill:none;stroke:#000000;stroke-width:1px;stroke-linecap:butt;stroke-linejoin:miter;stroke-opacity:1"
       d="m 170,57.165344 40,49.999996 40,-19.999996"
       id="path2936"
       transform="translate(0,875.19552)" />
    <path
       style="fill:none;stroke:#000000;stroke-width:0.99212598;stroke-linecap:butt;stroke-linejoin:miter;stroke-opacity:1;stroke-miterlimit:4;stroke-dasharray:3.96850394,3.96850394;stroke-dashoffset:0"
       d="m 170,57.165344 40,-20 40,50"
       id="path2938"
       transform="translate(0,875.19552)" />
    <path
       style="fill:none;stroke:#000000;stroke-width:0.99212598;stroke-linecap:butt;stroke-linejoin:miter;stroke-opacity:1;stroke-miterlimit:4;stroke-dasharray:3.96850394,3.96850394;stroke-dashoffset:0"
       d="M 200,7.1653442 210,37.165344 220,147.16534"
       id="path2940"
       transform="translate(0,875.19552)" />
    <path
       style="fill:none;stroke:#000000;stroke-width:1px;stroke-linecap:butt;stroke-linejoin:miter;stroke-opacity:1"
       d="m 200,7.1653442 10,99.9999958 10,40"
       id="path2942"
       transform="translate(0,875.19552)" />
    <g
       ns0:text="$K$"
       ns0:preamble="/home/sriranga/Documents/TIFR/preamble.tex"
       transform="matrix(1.2,0,0,1.2,-206.46223,836.92132)"
       id="g3731">
      <defs
         id="defs3733">
        <g
           id="g3735">
          <symbol
             overflow="visible"
             id="textext-3ac72902-0"
             style="overflow:visible">
            <path
               style="stroke:none"
               d=""
               id="path3738" />
          </symbol>
          <symbol
             overflow="visible"
             id="textext-3ac72902-1"
             style="overflow:visible">
            <path
               style="stroke:none"
               d="m 7.203125,-6.515625 -2.21875,0 0,0.171875 c 0.125,0 0.234375,0.03125 0.265625,0.03125 0.25,0.015625 0.34375,0.078125 0.34375,0.1875 0,0.234375 -0.546875,0.765625 -1.4375,1.390625 l -1.515625,1.0625 0.53125,-1.9375 c 0.140625,-0.5 0.421875,-0.703125 1,-0.734375 l 0,-0.171875 -2.71875,0 0,0.171875 c 0.625,0.046875 0.765625,0.140625 0.765625,0.421875 0,0.140625 -0.03125,0.375 -0.109375,0.625 l -1.21875,4.40625 C 0.703125,-0.296875 0.65625,-0.25 0.0625,-0.15625 l 0,0.15625 2.484375,0 0,-0.15625 c -0.640625,-0.078125 -0.71875,-0.140625 -0.71875,-0.4375 0,-0.109375 0.015625,-0.1875 0.078125,-0.390625 l 0.0625,-0.21875 0.609375,-2.265625 1.203125,2.078125 c 0.25,0.40625 0.390625,0.75 0.390625,0.9375 0,0.15625 -0.140625,0.234375 -0.46875,0.265625 -0.046875,0 -0.15625,0.015625 -0.28125,0.03125 l 0,0.15625 2.734375,0 0,-0.15625 C 5.53125,-0.21875 5.46875,-0.25 5.1875,-0.71875 l -1.734375,-3.015625 3,-2.25 c 0.28125,-0.21875 0.5,-0.328125 0.75,-0.359375 l 0,-0.171875 z m 0,0"
               id="path3741" />
          </symbol>
        </g>
      </defs>
      <g
         id="textext-3ac72902-2">
        <g
           style="fill:#000000;fill-opacity:1"
           id="g3744">
          <use
             xlink:href="#textext-3ac72902-1"
             x="223.681"
             y="134.765"
             id="use3746"
             width="283.46457"
             height="177.16534" />
        </g>
      </g>
    </g>
    <g
       id="g3846"
       transform="matrix(1.2,0,0,1.2,-56.487215,873.88295)"
       ns0:preamble="/home/sriranga/Documents/TIFR/preamble.tex"
       ns0:text="$\\mathcal{M}$">
      <defs
         id="defs3848">
        <g
           id="g3850">
          <symbol
             id="textext-1a07e352-0"
             overflow="visible"
             style="overflow:visible">
            <path
               id="path3853"
               d=""
               style="stroke:none" />
          </symbol>
          <symbol
             id="textext-1a07e352-1"
             overflow="visible"
             style="overflow:visible">
            <path
               id="path3856"
               d="m 10.703125,-0.53125 c -0.0625,0.046875 -0.125,0.078125 -0.203125,0.078125 -0.578125,0 -0.578125,-1.625 -0.578125,-2.03125 0,-1.296875 0.0625,-3.21875 0.640625,-4.390625 L 10.5,-6.9375 C 10.0625,-6.84375 9.65625,-6.671875 9.265625,-6.453125 8.75,-4.5625 7.140625,-3.296875 5.859375,-1.9375 5.625,-2.828125 5.375,-3.703125 5.078125,-4.5625 4.8125,-5.375 4.5,-6.171875 4.40625,-7.015625 4.015625,-6.921875 3.640625,-6.734375 3.3125,-6.5 c 0.28125,1.34375 -1.71875,6.6875 -3.25,6.8125 0.109375,0.09375 0.25,0.125 0.390625,0.125 0.484375,0 0.90625,-0.21875 1.265625,-0.5625 0.59375,-0.578125 1.6875,-4.078125 1.9375,-5.03125 0.453125,1.265625 1.3125,3.234375 1.3125,4.53125 0,0.25 -0.0625,0.5 -0.15625,0.71875 0.40625,-0.0625 0.765625,-0.28125 1.078125,-0.546875 0.453125,-1.9375 2.21875,-3.078125 3.265625,-4.65625 -0.109375,0.9375 -0.25,1.875 -0.25,2.828125 0,0.90625 0.015625,1.765625 0.546875,2.546875 l 0.0625,0.046875 c 0.484375,0 1.078125,-0.34375 1.1875,-0.84375 z m 0,0"
               style="stroke:none" />
          </symbol>
        </g>
      </defs>
      <g
         id="textext-1a07e352-2">
        <g
           id="g3859"
           style="fill:#000000;fill-opacity:1">
          <use
             id="use3861"
             y="134.765"
             x="223.43201"
             xlink:href="#textext-1a07e352-1"
             width="283.46457"
             height="177.16534" />
        </g>
      </g>
    </g>
  </g>
</svg>
