<?xml version="1.0" encoding="UTF-8" standalone="no"?>
<!-- Created with Inkscape (http://www.inkscape.org/) -->

<svg
   xmlns:ns0="http://www.iki.fi/pav/software/textext/"
   xmlns:dc="http://purl.org/dc/elements/1.1/"
   xmlns:cc="http://creativecommons.org/ns#"
   xmlns:rdf="http://www.w3.org/1999/02/22-rdf-syntax-ns#"
   xmlns:svg="http://www.w3.org/2000/svg"
   xmlns="http://www.w3.org/2000/svg"
   xmlns:xlink="http://www.w3.org/1999/xlink"
   xmlns:sodipodi="http://sodipodi.sourceforge.net/DTD/sodipodi-0.dtd"
   xmlns:inkscape="http://www.inkscape.org/namespaces/inkscape"
   sodipodi:docname="fig3.svg"
   inkscape:version="0.47 r22583"
   version="1.1"
   id="svg2"
   height="177.16534"
   width="283.46457">
  <sodipodi:namedview
     id="base"
     pagecolor="#ffffff"
     bordercolor="#666666"
     borderopacity="1.0"
     inkscape:pageopacity="0.0"
     inkscape:pageshadow="2"
     inkscape:zoom="1.3546667"
     inkscape:cx="141.73228"
     inkscape:cy="88.582672"
     inkscape:document-units="cm"
     inkscape:current-layer="layer1"
     showgrid="false"
     units="cm"
     inkscape:window-width="972"
     inkscape:window-height="495"
     inkscape:window-x="44"
     inkscape:window-y="220"
     inkscape:window-maximized="0">
    <inkscape:grid
       type="xygrid"
       id="grid2816"
       empspacing="5"
       visible="true"
       enabled="true"
       snapvisiblegridlinesonly="true" />
  </sodipodi:namedview>
  <defs
     id="defs4">
    <marker
       inkscape:stockid="Arrow1Mend"
       orient="auto"
       refY="0.0"
       refX="0.0"
       id="Arrow1Mend"
       style="overflow:visible;">
      <path
         id="path3741"
         d="M 0.0,0.0 L 5.0,-5.0 L -12.5,0.0 L 5.0,5.0 L 0.0,0.0 z "
         style="fill-rule:evenodd;stroke:#000000;stroke-width:1.0pt;marker-start:none;"
         transform="scale(0.4) rotate(180) translate(10,0)" />
    </marker>
    <inkscape:perspective
       sodipodi:type="inkscape:persp3d"
       inkscape:vp_x="0 : 526.18109 : 1"
       inkscape:vp_y="0 : 1000 : 0"
       inkscape:vp_z="744.09448 : 526.18109 : 1"
       inkscape:persp3d-origin="372.04724 : 350.78739 : 1"
       id="perspective10" />
    <inkscape:perspective
       id="perspective2828"
       inkscape:persp3d-origin="0.5 : 0.33333333 : 1"
       inkscape:vp_z="1 : 0.5 : 1"
       inkscape:vp_y="0 : 1000 : 0"
       inkscape:vp_x="0 : 0.5 : 1"
       sodipodi:type="inkscape:persp3d" />
    <inkscape:perspective
       sodipodi:type="inkscape:persp3d"
       inkscape:vp_x="0 : 0.5 : 1"
       inkscape:vp_y="0 : 1000 : 0"
       inkscape:vp_z="1 : 0.5 : 1"
       inkscape:persp3d-origin="0.5 : 0.33333333 : 1"
       id="perspective2911" />
    <inkscape:perspective
       sodipodi:type="inkscape:persp3d"
       inkscape:vp_x="0 : 0.5 : 1"
       inkscape:vp_y="0 : 1000 : 0"
       inkscape:vp_z="1 : 0.5 : 1"
       inkscape:persp3d-origin="0.5 : 0.33333333 : 1"
       id="perspective3779" />
    <inkscape:perspective
       sodipodi:type="inkscape:persp3d"
       inkscape:vp_x="0 : 0.5 : 1"
       inkscape:vp_y="0 : 1000 : 0"
       inkscape:vp_z="1 : 0.5 : 1"
       inkscape:persp3d-origin="0.5 : 0.33333333 : 1"
       id="perspective4244" />
    <inkscape:perspective
       id="perspective4390"
       inkscape:persp3d-origin="0.5 : 0.33333333 : 1"
       inkscape:vp_z="1 : 0.5 : 1"
       inkscape:vp_y="0 : 1000 : 0"
       inkscape:vp_x="0 : 0.5 : 1"
       sodipodi:type="inkscape:persp3d" />
    <inkscape:perspective
       id="perspective4854"
       inkscape:persp3d-origin="0.5 : 0.33333333 : 1"
       inkscape:vp_z="1 : 0.5 : 1"
       inkscape:vp_y="0 : 1000 : 0"
       inkscape:vp_x="0 : 0.5 : 1"
       sodipodi:type="inkscape:persp3d" />
    <inkscape:perspective
       sodipodi:type="inkscape:persp3d"
       inkscape:vp_x="0 : 0.5 : 1"
       inkscape:vp_y="0 : 1000 : 0"
       inkscape:vp_z="1 : 0.5 : 1"
       inkscape:persp3d-origin="0.5 : 0.33333333 : 1"
       id="perspective5056" />
    <inkscape:perspective
       id="perspective5056-0"
       inkscape:persp3d-origin="0.5 : 0.33333333 : 1"
       inkscape:vp_z="1 : 0.5 : 1"
       inkscape:vp_y="0 : 1000 : 0"
       inkscape:vp_x="0 : 0.5 : 1"
       sodipodi:type="inkscape:persp3d" />
    <inkscape:perspective
       id="perspective5056-1"
       inkscape:persp3d-origin="0.5 : 0.33333333 : 1"
       inkscape:vp_z="1 : 0.5 : 1"
       inkscape:vp_y="0 : 1000 : 0"
       inkscape:vp_x="0 : 0.5 : 1"
       sodipodi:type="inkscape:persp3d" />
    <inkscape:perspective
       sodipodi:type="inkscape:persp3d"
       inkscape:vp_x="0 : 0.5 : 1"
       inkscape:vp_y="0 : 1000 : 0"
       inkscape:vp_z="1 : 0.5 : 1"
       inkscape:persp3d-origin="0.5 : 0.33333333 : 1"
       id="perspective3311" />
    <inkscape:perspective
       id="perspective3311-8"
       inkscape:persp3d-origin="0.5 : 0.33333333 : 1"
       inkscape:vp_z="1 : 0.5 : 1"
       inkscape:vp_y="0 : 1000 : 0"
       inkscape:vp_x="0 : 0.5 : 1"
       sodipodi:type="inkscape:persp3d" />
    <inkscape:perspective
       id="perspective3311-1"
       inkscape:persp3d-origin="0.5 : 0.33333333 : 1"
       inkscape:vp_z="1 : 0.5 : 1"
       inkscape:vp_y="0 : 1000 : 0"
       inkscape:vp_x="0 : 0.5 : 1"
       sodipodi:type="inkscape:persp3d" />
    <inkscape:perspective
       sodipodi:type="inkscape:persp3d"
       inkscape:vp_x="0 : 0.5 : 1"
       inkscape:vp_y="0 : 1000 : 0"
       inkscape:vp_z="1 : 0.5 : 1"
       inkscape:persp3d-origin="0.5 : 0.33333333 : 1"
       id="perspective3311-84" />
    <inkscape:perspective
       id="perspective4865"
       inkscape:persp3d-origin="0.5 : 0.33333333 : 1"
       inkscape:vp_z="1 : 0.5 : 1"
       inkscape:vp_y="0 : 1000 : 0"
       inkscape:vp_x="0 : 0.5 : 1"
       sodipodi:type="inkscape:persp3d" />
    <inkscape:perspective
       sodipodi:type="inkscape:persp3d"
       inkscape:vp_x="0 : 0.5 : 1"
       inkscape:vp_y="0 : 1000 : 0"
       inkscape:vp_z="1 : 0.5 : 1"
       inkscape:persp3d-origin="0.5 : 0.33333333 : 1"
       id="perspective5225" />
  </defs>
  <metadata
     id="metadata7">
    <rdf:RDF>
      <cc:Work
         rdf:about="">
        <dc:format>image/svg+xml</dc:format>
        <dc:type
           rdf:resource="http://purl.org/dc/dcmitype/StillImage" />
        <dc:title></dc:title>
      </cc:Work>
    </rdf:RDF>
  </metadata>
  <g
     inkscape:label="Layer 1"
     inkscape:groupmode="layer"
     id="layer1"
     transform="translate(0,-875.19552)">
    <text
       xml:space="preserve"
       style="font-size:12px;font-style:normal;font-variant:normal;font-weight:normal;font-stretch:normal;text-align:center;line-height:125%;letter-spacing:0px;word-spacing:0px;text-anchor:middle;fill:#000000;fill-opacity:1;stroke:none;font-family:LMRoman10;-inkscape-font-specification:LMRoman10"
       x="14.394684"
       y="78.617119"
       id="text4842"
       sodipodi:linespacing="125%"
       transform="translate(0,875.19552)"><tspan
         sodipodi:role="line"
         id="tspan4844"
         x="14.394684"
         y="78.617119" /></text>
    <path
       sodipodi:type="arc"
       style="fill:#ffffff;fill-opacity:1;fill-rule:nonzero;stroke:#000000;stroke-width:0.99212599;stroke-linecap:square;stroke-linejoin:miter;stroke-miterlimit:4;stroke-opacity:1;stroke-dasharray:none;stroke-dashoffset:0"
       id="path3164"
       sodipodi:cx="140"
       sodipodi:cy="97.165344"
       sodipodi:rx="60"
       sodipodi:ry="60"
       d="m 200,97.165344 c 0,33.137086 -26.86292,59.999996 -60,59.999996 -33.13708,0 -60,-26.86291 -60,-59.999996 0,-33.137085 26.86292,-60 60,-60 33.13708,0 60,26.862915 60,60 z"
       transform="translate(0,875.19552)" />
    <path
       style="fill:none;stroke:#000000;stroke-width:1px;stroke-linecap:butt;stroke-linejoin:miter;stroke-opacity:1"
       d="m 80,97.165344 120,0"
       id="path3166"
       transform="translate(0,875.19552)" />
    <path
       style="fill:none;stroke:#000000;stroke-width:1px;stroke-linecap:butt;stroke-linejoin:miter;stroke-opacity:1"
       d="m 140,37.165344 0,119.999996"
       id="path3168"
       transform="translate(0,875.19552)" />
    <path
       style="fill:none;stroke:#000000;stroke-width:1px;stroke-linecap:butt;stroke-linejoin:miter;stroke-opacity:1"
       d="m 100,52.367116 0,89.446354"
       id="path3170"
       transform="translate(0,875.19552)"
       sodipodi:nodetypes="cc" />
    <path
       sodipodi:type="arc"
       id="path3174"
       style="fill:#000000;stroke:none"
       sodipodi:cx="139.93776"
       sodipodi:cy="972.3559"
       sodipodi:rx="2"
       sodipodi:ry="2"
       d="m 141.93776,972.3559 c 0,1.10457 -0.89543,2 -2,2 -1.10457,0 -2,-0.89543 -2,-2 0,-1.10457 0.89543,-2 2,-2 1.10457,0 2,0.89543 2,2 z" />
    <path
       sodipodi:type="arc"
       id="path3176"
       style="fill:#000000;stroke:none"
       sodipodi:cx="99.951042"
       sodipodi:cy="972.3244"
       sodipodi:rx="2"
       sodipodi:ry="2"
       d="m 101.95104,972.3244 c 0,1.10457 -0.89543,2 -1.999998,2 -1.104569,0 -2,-0.89543 -2,-2 0,-1.10457 0.895431,-2 2,-2 1.104568,0 1.999998,0.89543 1.999998,2 z" />
    <g
       ns0:text="$\\mathbb{D}^{m+1}$"
       ns0:preamble="/home/sriranga/Documents/TIFR/preamble.tex"
       transform="matrix(1.2,0,0,1.2,-63.061438,777.62524)"
       id="g3204">
      <defs
         id="defs3206">
        <g
           id="g3208">
          <symbol
             style="overflow:visible"
             overflow="visible"
             id="textext-6d144ffb-0">
            <path
               style="stroke:none"
               d=""
               id="path3211" />
          </symbol>
          <symbol
             style="overflow:visible"
             overflow="visible"
             id="textext-6d144ffb-1">
            <path
               style="stroke:none"
               d="m 0.5,-6.828125 c -0.1875,0 -0.34375,0 -0.34375,0.171875 0,0.171875 0.1875,0.171875 0.265625,0.171875 0.53125,0 0.5625,0.078125 0.5625,0.578125 l 0,4.984375 c 0,0.5 -0.03125,0.578125 -0.546875,0.578125 -0.09375,0 -0.28125,0 -0.28125,0.171875 C 0.15625,0 0.3125,0 0.5,0 L 3.375,0 C 5.109375,0 6.890625,-1.09375 6.890625,-3.53125 6.890625,-5.921875 5,-6.828125 3.375,-6.828125 l -2.875,0 z m 4.09375,0.546875 c 1.421875,0.453125 1.953125,1.5625 1.953125,2.75 0,1.6875 -0.921875,2.609375 -1.90625,2.953125 0.640625,-0.671875 0.84375,-1.78125 0.84375,-2.9375 0,-1.4375 -0.390625,-2.21875 -0.90625,-2.765625 l 0.015625,0 z M 1.25,-0.34375 c 0.078125,-0.1875 0.078125,-0.421875 0.078125,-0.546875 l 0,-5.046875 c 0,-0.125 0,-0.359375 -0.078125,-0.546875 l 1.140625,0 c -0.125,0.15625 -0.125,0.375 -0.125,0.515625 l 0,5.109375 c 0,0.15625 0,0.34375 0.125,0.515625 l -1.140625,0 z M 2.609375,-5.9375 c 0,-0.21875 0,-0.3125 0.1875,-0.421875 0.078125,-0.078125 0.265625,-0.125 0.46875,-0.125 0.84375,0 1.875,0.75 1.875,2.96875 0,1.265625 -0.265625,3.171875 -1.9375,3.171875 -0.59375,0 -0.59375,-0.359375 -0.59375,-0.546875 l 0,-5.046875 z m 0,0"
               id="path3214" />
          </symbol>
          <symbol
             style="overflow:visible"
             overflow="visible"
             id="textext-6d144ffb-2">
            <path
               style="stroke:none"
               d=""
               id="path3217" />
          </symbol>
          <symbol
             style="overflow:visible"
             overflow="visible"
             id="textext-6d144ffb-3">
            <path
               style="stroke:none"
               d="m 4.796875,-0.8125 c -0.0625,0.078125 -0.125,0.15625 -0.140625,0.171875 -0.203125,0.25 -0.34375,0.375 -0.453125,0.375 C 4.15625,-0.265625 4.125,-0.3125 4.125,-0.375 c 0,-0.03125 0.015625,-0.140625 0.0625,-0.3125 l 0.46875,-1.75 c 0.015625,-0.03125 0.03125,-0.15625 0.03125,-0.203125 0,-0.25 -0.171875,-0.4375 -0.421875,-0.4375 -0.125,0 -0.265625,0.046875 -0.4375,0.15625 -0.34375,0.21875 -0.625,0.5625 -1.109375,1.328125 C 2.90625,-2.125 3,-2.515625 3,-2.65625 c 0,-0.25 -0.15625,-0.421875 -0.390625,-0.421875 -0.421875,0 -0.921875,0.46875 -1.5625,1.46875 L 1.453125,-3.0625 1.4375,-3.078125 c -0.390625,0.09375 -0.53125,0.109375 -1.109375,0.21875 l 0,0.109375 0.171875,0 c 0.171875,0 0.265625,0.046875 0.265625,0.15625 0,0.078125 -0.15625,0.71875 -0.40625,1.59375 -0.171875,0.578125 -0.1875,0.640625 -0.28125,1 l 0.53125,0 c 0.328125,-1.109375 0.4375,-1.359375 0.671875,-1.734375 0.390625,-0.59375 0.8125,-0.96875 1.046875,-0.96875 0.09375,0 0.140625,0.0625 0.140625,0.171875 C 2.46875,-2.46875 2.25,-1.625 1.8125,0 L 2.328125,0 C 2.609375,-1.09375 2.75,-1.4375 3.09375,-1.9375 3.4375,-2.40625 3.796875,-2.703125 4,-2.703125 c 0.0625,0 0.125,0.0625 0.125,0.140625 0,0.03125 0,0.109375 -0.046875,0.234375 l -0.40625,1.609375 c -0.0625,0.265625 -0.078125,0.390625 -0.078125,0.453125 0,0.21875 0.09375,0.328125 0.28125,0.328125 0.3125,0 0.625,-0.234375 1,-0.75 L 4.90625,-0.734375 4.796875,-0.8125 z m 0,0"
               id="path3220" />
          </symbol>
          <symbol
             style="overflow:visible"
             overflow="visible"
             id="textext-6d144ffb-4">
            <path
               style="stroke:none"
               d=""
               id="path3223" />
          </symbol>
          <symbol
             style="overflow:visible"
             overflow="visible"
             id="textext-6d144ffb-5">
            <path
               style="stroke:none"
               d="m 4,-1.59375 0,-0.390625 -1.59375,0 0,-1.578125 -0.390625,0 0,1.578125 -1.578125,0 0,0.390625 1.578125,0 0,1.59375 0.390625,0 0,-1.59375 1.59375,0 z m 0,0"
               id="path3226" />
          </symbol>
          <symbol
             style="overflow:visible"
             overflow="visible"
             id="textext-6d144ffb-6">
            <path
               style="stroke:none"
               d=""
               id="path3229" />
          </symbol>
          <symbol
             style="overflow:visible"
             overflow="visible"
             id="textext-6d144ffb-7">
            <path
               style="stroke:none"
               d="m 2.03125,-4.703125 -1.25,0.625 0,0.09375 c 0.078125,-0.03125 0.15625,-0.0625 0.1875,-0.078125 0.125,-0.046875 0.234375,-0.0625 0.3125,-0.0625 0.140625,0 0.203125,0.09375 0.203125,0.3125 l 0,3.171875 c 0,0.21875 -0.0625,0.375 -0.171875,0.453125 -0.09375,0.0625 -0.203125,0.078125 -0.484375,0.078125 L 0.828125,0 2.75,0 l 0,-0.109375 c -0.5625,0 -0.671875,-0.078125 -0.671875,-0.40625 l 0,-4.1875 -0.046875,0 z m 0,0"
               id="path3232" />
          </symbol>
        </g>
      </defs>
      <g
         id="textext-6d144ffb-8">
        <g
           style="fill:#000000;fill-opacity:1"
           id="g3235">
          <use
             height="177.16534"
             width="283.46457"
             xlink:href="#textext-6d144ffb-1"
             x="223.43201"
             y="134.765"
             id="use3237" />
        </g>
        <g
           style="fill:#000000;fill-opacity:1"
           id="g3239">
          <use
             height="177.16534"
             width="283.46457"
             xlink:href="#textext-6d144ffb-3"
             x="230.627"
             y="131.14799"
             id="use3241" />
        </g>
        <g
           style="fill:#000000;fill-opacity:1"
           id="g3243">
          <use
             height="177.16534"
             width="283.46457"
             xlink:href="#textext-6d144ffb-5"
             x="235.662"
             y="131.14799"
             id="use3245" />
        </g>
        <g
           style="fill:#000000;fill-opacity:1"
           id="g3247">
          <use
             height="177.16534"
             width="283.46457"
             xlink:href="#textext-6d144ffb-7"
             x="240.09801"
             y="131.14799"
             id="use3249" />
        </g>
      </g>
    </g>
    <g
       id="g3461"
       transform="matrix(1.2,0,0,1.2,-64.078433,811.94328)"
       ns0:preamble="/home/sriranga/Documents/TIFR/preamble.tex"
       ns0:text="$\\leftarrow \\partial\\mathbb{D}^{m}$">
      <defs
         id="defs3463">
        <g
           id="g3465">
          <symbol
             id="textext-6e16e79d-0"
             overflow="visible"
             style="overflow:visible">
            <path
               id="path3468"
               d=""
               style="stroke:none" />
          </symbol>
          <symbol
             id="textext-6e16e79d-1"
             overflow="visible"
             style="overflow:visible">
            <path
               id="path3471"
               d="m 8.984375,-2.28125 0,-0.5625 -7.296875,0 1.1875,-1.4375 -0.296875,-0.328125 -1.953125,2.0625 1.953125,2.03125 0.296875,-0.328125 -1.1875,-1.4375 7.296875,0 z m 0,0"
               style="stroke:none" />
          </symbol>
          <symbol
             id="textext-6e16e79d-2"
             overflow="visible"
             style="overflow:visible">
            <path
               id="path3474"
               d=""
               style="stroke:none" />
          </symbol>
          <symbol
             id="textext-6e16e79d-3"
             overflow="visible"
             style="overflow:visible">
            <path
               id="path3477"
               d="m 4.90625,-4.296875 c 0,-1.4375 -0.4375,-2.59375 -1.515625,-2.59375 -0.84375,0 -1.75,0.796875 -1.75,1.234375 0,0.328125 0.265625,0.46875 0.46875,0.46875 0.203125,0 0.328125,-0.171875 0.359375,-0.203125 C 2.4375,-5.40625 2.375,-5.5 2.375,-5.640625 c 0,-0.09375 0.171875,-0.953125 1.03125,-0.953125 0.71875,0 0.875,0.921875 0.875,1.734375 0,0.609375 -0.078125,1.140625 -0.078125,1.15625 l -0.015625,0 c 0,-0.015625 -0.390625,-0.625 -1.171875,-0.625 -2,0 -2.828125,1.9375 -2.828125,2.96875 0,0.921875 0.546875,1.515625 1.65625,1.515625 1.71875,0 3.0625,-1.734375 3.0625,-4.453125 z m -1.140625,1.125 c 0,0.265625 -0.25,3.09375 -1.859375,3.09375 -0.5625,0 -0.8125,-0.328125 -0.8125,-0.953125 0,-0.640625 0.40625,-3.0625 1.84375,-3.0625 0.5625,0 0.828125,0.328125 0.828125,0.921875 z m 0,0"
               style="stroke:none" />
          </symbol>
          <symbol
             id="textext-6e16e79d-4"
             overflow="visible"
             style="overflow:visible">
            <path
               id="path3480"
               d=""
               style="stroke:none" />
          </symbol>
          <symbol
             id="textext-6e16e79d-5"
             overflow="visible"
             style="overflow:visible">
            <path
               id="path3483"
               d="m 0.5,-6.828125 c -0.1875,0 -0.34375,0 -0.34375,0.171875 0,0.171875 0.1875,0.171875 0.265625,0.171875 0.53125,0 0.5625,0.078125 0.5625,0.578125 l 0,4.984375 c 0,0.5 -0.03125,0.578125 -0.546875,0.578125 -0.09375,0 -0.28125,0 -0.28125,0.171875 C 0.15625,0 0.3125,0 0.5,0 L 3.375,0 C 5.109375,0 6.890625,-1.09375 6.890625,-3.53125 6.890625,-5.921875 5,-6.828125 3.375,-6.828125 l -2.875,0 z m 4.09375,0.546875 c 1.421875,0.453125 1.953125,1.5625 1.953125,2.75 0,1.6875 -0.921875,2.609375 -1.90625,2.953125 0.640625,-0.671875 0.84375,-1.78125 0.84375,-2.9375 0,-1.4375 -0.390625,-2.21875 -0.90625,-2.765625 l 0.015625,0 z M 1.25,-0.34375 c 0.078125,-0.1875 0.078125,-0.421875 0.078125,-0.546875 l 0,-5.046875 c 0,-0.125 0,-0.359375 -0.078125,-0.546875 l 1.140625,0 c -0.125,0.15625 -0.125,0.375 -0.125,0.515625 l 0,5.109375 c 0,0.15625 0,0.34375 0.125,0.515625 l -1.140625,0 z M 2.609375,-5.9375 c 0,-0.21875 0,-0.3125 0.1875,-0.421875 0.078125,-0.078125 0.265625,-0.125 0.46875,-0.125 0.84375,0 1.875,0.75 1.875,2.96875 0,1.265625 -0.265625,3.171875 -1.9375,3.171875 -0.59375,0 -0.59375,-0.359375 -0.59375,-0.546875 l 0,-5.046875 z m 0,0"
               style="stroke:none" />
          </symbol>
          <symbol
             id="textext-6e16e79d-6"
             overflow="visible"
             style="overflow:visible">
            <path
               id="path3486"
               d=""
               style="stroke:none" />
          </symbol>
          <symbol
             id="textext-6e16e79d-7"
             overflow="visible"
             style="overflow:visible">
            <path
               id="path3489"
               d="m 4.796875,-0.8125 c -0.0625,0.078125 -0.125,0.15625 -0.140625,0.171875 -0.203125,0.25 -0.34375,0.375 -0.453125,0.375 C 4.15625,-0.265625 4.125,-0.3125 4.125,-0.375 c 0,-0.03125 0.015625,-0.140625 0.0625,-0.3125 l 0.46875,-1.75 c 0.015625,-0.03125 0.03125,-0.15625 0.03125,-0.203125 0,-0.25 -0.171875,-0.4375 -0.421875,-0.4375 -0.125,0 -0.265625,0.046875 -0.4375,0.15625 -0.34375,0.21875 -0.625,0.5625 -1.109375,1.328125 C 2.90625,-2.125 3,-2.515625 3,-2.65625 c 0,-0.25 -0.15625,-0.421875 -0.390625,-0.421875 -0.421875,0 -0.921875,0.46875 -1.5625,1.46875 L 1.453125,-3.0625 1.4375,-3.078125 c -0.390625,0.09375 -0.53125,0.109375 -1.109375,0.21875 l 0,0.109375 0.171875,0 c 0.171875,0 0.265625,0.046875 0.265625,0.15625 0,0.078125 -0.15625,0.71875 -0.40625,1.59375 -0.171875,0.578125 -0.1875,0.640625 -0.28125,1 l 0.53125,0 c 0.328125,-1.109375 0.4375,-1.359375 0.671875,-1.734375 0.390625,-0.59375 0.8125,-0.96875 1.046875,-0.96875 0.09375,0 0.140625,0.0625 0.140625,0.171875 C 2.46875,-2.46875 2.25,-1.625 1.8125,0 L 2.328125,0 C 2.609375,-1.09375 2.75,-1.4375 3.09375,-1.9375 3.4375,-2.40625 3.796875,-2.703125 4,-2.703125 c 0.0625,0 0.125,0.0625 0.125,0.140625 0,0.03125 0,0.109375 -0.046875,0.234375 l -0.40625,1.609375 c -0.0625,0.265625 -0.078125,0.390625 -0.078125,0.453125 0,0.21875 0.09375,0.328125 0.28125,0.328125 0.3125,0 0.625,-0.234375 1,-0.75 L 4.90625,-0.734375 4.796875,-0.8125 z m 0,0"
               style="stroke:none" />
          </symbol>
        </g>
      </defs>
      <g
         id="textext-6e16e79d-8">
        <g
           id="g3492"
           style="fill:#000000;fill-opacity:1">
          <use
             id="use3494"
             y="134.765"
             x="223.43201"
             xlink:href="#textext-6e16e79d-1"
             width="283.46457"
             height="177.16534" />
        </g>
        <g
           id="g3496"
           style="fill:#000000;fill-opacity:1">
          <use
             id="use3498"
             y="134.765"
             x="235.80299"
             xlink:href="#textext-6e16e79d-3"
             width="283.46457"
             height="177.16534" />
        </g>
        <g
           id="g3500"
           style="fill:#000000;fill-opacity:1">
          <use
             id="use3502"
             y="134.765"
             x="240.90401"
             xlink:href="#textext-6e16e79d-5"
             width="283.46457"
             height="177.16534" />
        </g>
        <g
           id="g3504"
           style="fill:#000000;fill-opacity:1">
          <use
             id="use3506"
             y="131.14799"
             x="248.10001"
             xlink:href="#textext-6e16e79d-7"
             width="283.46457"
             height="177.16534" />
        </g>
      </g>
    </g>
    <g
       id="g3961"
       transform="matrix(1.2,0,0,1.2,-97.353434,820.51411)"
       ns0:preamble="/home/sriranga/Documents/TIFR/preamble.tex"
       ns0:text="$\\uparrow\\\\ \n\\mathbb{D}^{m}$">
      <defs
         id="defs3963">
        <g
           id="g3965">
          <symbol
             id="textext-9bfe0b11-0"
             overflow="visible"
             style="overflow:visible">
            <path
               id="path3968"
               d=""
               style="stroke:none" />
          </symbol>
          <symbol
             id="textext-9bfe0b11-1"
             overflow="visible"
             style="overflow:visible">
            <path
               id="path3971"
               d="M 4.53125,-4.796875 2.484375,-6.75 l -2.03125,1.953125 0.3125,0.3125 1.4375,-1.1875 0,7.296875 0.5625,0 0,-7.296875 1.4375,1.1875 0.328125,-0.3125 z m 0,0"
               style="stroke:none" />
          </symbol>
          <symbol
             id="textext-9bfe0b11-2"
             overflow="visible"
             style="overflow:visible">
            <path
               id="path3974"
               d=""
               style="stroke:none" />
          </symbol>
          <symbol
             id="textext-9bfe0b11-3"
             overflow="visible"
             style="overflow:visible">
            <path
               id="path3977"
               d="m 0.5,-6.828125 c -0.1875,0 -0.34375,0 -0.34375,0.171875 0,0.171875 0.1875,0.171875 0.265625,0.171875 0.53125,0 0.5625,0.078125 0.5625,0.578125 l 0,4.984375 c 0,0.5 -0.03125,0.578125 -0.546875,0.578125 -0.09375,0 -0.28125,0 -0.28125,0.171875 C 0.15625,0 0.3125,0 0.5,0 L 3.375,0 C 5.109375,0 6.890625,-1.09375 6.890625,-3.53125 6.890625,-5.921875 5,-6.828125 3.375,-6.828125 l -2.875,0 z m 4.09375,0.546875 c 1.421875,0.453125 1.953125,1.5625 1.953125,2.75 0,1.6875 -0.921875,2.609375 -1.90625,2.953125 0.640625,-0.671875 0.84375,-1.78125 0.84375,-2.9375 0,-1.4375 -0.390625,-2.21875 -0.90625,-2.765625 l 0.015625,0 z M 1.25,-0.34375 c 0.078125,-0.1875 0.078125,-0.421875 0.078125,-0.546875 l 0,-5.046875 c 0,-0.125 0,-0.359375 -0.078125,-0.546875 l 1.140625,0 c -0.125,0.15625 -0.125,0.375 -0.125,0.515625 l 0,5.109375 c 0,0.15625 0,0.34375 0.125,0.515625 l -1.140625,0 z M 2.609375,-5.9375 c 0,-0.21875 0,-0.3125 0.1875,-0.421875 0.078125,-0.078125 0.265625,-0.125 0.46875,-0.125 0.84375,0 1.875,0.75 1.875,2.96875 0,1.265625 -0.265625,3.171875 -1.9375,3.171875 -0.59375,0 -0.59375,-0.359375 -0.59375,-0.546875 l 0,-5.046875 z m 0,0"
               style="stroke:none" />
          </symbol>
          <symbol
             id="textext-9bfe0b11-4"
             overflow="visible"
             style="overflow:visible">
            <path
               id="path3980"
               d=""
               style="stroke:none" />
          </symbol>
          <symbol
             id="textext-9bfe0b11-5"
             overflow="visible"
             style="overflow:visible">
            <path
               id="path3983"
               d="m 4.796875,-0.8125 c -0.0625,0.078125 -0.125,0.15625 -0.140625,0.171875 -0.203125,0.25 -0.34375,0.375 -0.453125,0.375 C 4.15625,-0.265625 4.125,-0.3125 4.125,-0.375 c 0,-0.03125 0.015625,-0.140625 0.0625,-0.3125 l 0.46875,-1.75 c 0.015625,-0.03125 0.03125,-0.15625 0.03125,-0.203125 0,-0.25 -0.171875,-0.4375 -0.421875,-0.4375 -0.125,0 -0.265625,0.046875 -0.4375,0.15625 -0.34375,0.21875 -0.625,0.5625 -1.109375,1.328125 C 2.90625,-2.125 3,-2.515625 3,-2.65625 c 0,-0.25 -0.15625,-0.421875 -0.390625,-0.421875 -0.421875,0 -0.921875,0.46875 -1.5625,1.46875 L 1.453125,-3.0625 1.4375,-3.078125 c -0.390625,0.09375 -0.53125,0.109375 -1.109375,0.21875 l 0,0.109375 0.171875,0 c 0.171875,0 0.265625,0.046875 0.265625,0.15625 0,0.078125 -0.15625,0.71875 -0.40625,1.59375 -0.171875,0.578125 -0.1875,0.640625 -0.28125,1 l 0.53125,0 c 0.328125,-1.109375 0.4375,-1.359375 0.671875,-1.734375 0.390625,-0.59375 0.8125,-0.96875 1.046875,-0.96875 0.09375,0 0.140625,0.0625 0.140625,0.171875 C 2.46875,-2.46875 2.25,-1.625 1.8125,0 L 2.328125,0 C 2.609375,-1.09375 2.75,-1.4375 3.09375,-1.9375 3.4375,-2.40625 3.796875,-2.703125 4,-2.703125 c 0.0625,0 0.125,0.0625 0.125,0.140625 0,0.03125 0,0.109375 -0.046875,0.234375 l -0.40625,1.609375 c -0.0625,0.265625 -0.078125,0.390625 -0.078125,0.453125 0,0.21875 0.09375,0.328125 0.28125,0.328125 0.3125,0 0.625,-0.234375 1,-0.75 L 4.90625,-0.734375 4.796875,-0.8125 z m 0,0"
               style="stroke:none" />
          </symbol>
        </g>
      </defs>
      <g
         id="textext-9bfe0b11-6">
        <g
           id="g3986"
           style="fill:#000000;fill-opacity:1">
          <use
             id="use3988"
             y="134.765"
             x="223.43201"
             xlink:href="#textext-9bfe0b11-1"
             width="283.46457"
             height="177.16534" />
        </g>
        <g
           id="g3990"
           style="fill:#000000;fill-opacity:1">
          <use
             id="use3992"
             y="146.72"
             x="223.43201"
             xlink:href="#textext-9bfe0b11-3"
             width="283.46457"
             height="177.16534" />
        </g>
        <g
           id="g3994"
           style="fill:#000000;fill-opacity:1">
          <use
             id="use3996"
             y="143.104"
             x="230.627"
             xlink:href="#textext-9bfe0b11-5"
             width="283.46457"
             height="177.16534" />
        </g>
      </g>
    </g>
    <g
       ns0:text="$\\gamma (\\alpha)$"
       ns0:preamble="/home/sriranga/Documents/TIFR/preamble.tex"
       transform="matrix(1.2,0,0,1.2,-123.57009,804.38078)"
       id="g4272">
      <defs
         id="defs4274">
        <g
           id="g4276">
          <symbol
             style="overflow:visible"
             overflow="visible"
             id="textext-24a3b203-0">
            <path
               style="stroke:none"
               d=""
               id="path4279" />
          </symbol>
          <symbol
             style="overflow:visible"
             overflow="visible"
             id="textext-24a3b203-1">
            <path
               style="stroke:none"
               d="M 5.296875,-4.375 4.5625,-4.234375 c -0.453125,1.078125 -1,2.125 -1.6875,3.078125 0.03125,-0.984375 0.109375,-3.234375 -1.3125,-3.234375 -0.671875,0 -1.53125,0.890625 -1.53125,1.484375 0,0.03125 0.015625,0.0625 0.046875,0.0625 0.21875,0 0.203125,-0.84375 1.171875,-0.84375 1.046875,0 1.09375,2.03125 1.09375,2.765625 0,0.25 -0.015625,0.484375 -0.015625,0.734375 C 2,0.25 1.1875,1.25 1.1875,1.796875 c 0,0.1875 0.078125,0.265625 0.265625,0.265625 0.828125,0 0.984375,-1.6875 1.25,-2.265625 0.171875,-0.34375 0.59375,-0.84375 0.8125,-1.171875 0.65625,-0.9375 1.375,-1.921875 1.78125,-3 z m 0,0"
               id="path4282" />
          </symbol>
          <symbol
             style="overflow:visible"
             overflow="visible"
             id="textext-24a3b203-2">
            <path
               style="stroke:none"
               d="M 5.828125,-4.09375 5.140625,-4 c -0.28125,0.765625 -1.0625,1.953125 -1.0625,1.953125 l -0.015625,0 c 0,0 0.171875,-0.4375 0.171875,-0.96875 0,-0.65625 -0.234375,-1.375 -1.296875,-1.375 -1.671875,0 -2.703125,1.765625 -2.703125,2.96875 0,0.84375 0.453125,1.53125 1.484375,1.53125 0.796875,0 1.390625,-0.609375 1.390625,-0.625 l 0.015625,0 c 0,0.09375 0.015625,0.609375 0.75,0.609375 0.796875,0 1.265625,-0.90625 1.265625,-1.125 0,-0.03125 -0.015625,-0.0625 -0.03125,-0.0625 -0.140625,0 -0.375,0.828125 -0.953125,0.828125 -0.21875,0 -0.28125,-0.25 -0.28125,-0.515625 0,-0.21875 0.046875,-0.4375 0.078125,-0.546875 0.140625,-0.1875 1.875,-2.765625 1.875,-2.765625 z m -2.3125,1.15625 c 0,0.9375 -0.375,2.03125 -0.375,2.046875 0,0 -0.515625,0.75 -1.265625,0.75 -0.21875,0 -0.765625,-0.0625 -0.765625,-1.34375 0,-0.515625 0.265625,-2.65625 1.65625,-2.65625 0.6875,0 0.75,0.84375 0.75,1.203125 z m 0,0"
               id="path4285" />
          </symbol>
          <symbol
             style="overflow:visible"
             overflow="visible"
             id="textext-24a3b203-3">
            <path
               style="stroke:none"
               d=""
               id="path4288" />
          </symbol>
          <symbol
             style="overflow:visible"
             overflow="visible"
             id="textext-24a3b203-4">
            <path
               style="stroke:none"
               d="M 2.9375,-6.734375 C 2.203125,-6.265625 1.90625,-6 1.53125,-5.546875 c -0.703125,0.875 -1.046875,1.875 -1.046875,3.03125 0,1.265625 0.359375,2.25 1.234375,3.265625 0.421875,0.46875 0.671875,0.703125 1.1875,1.015625 l 0.125,-0.15625 C 2.234375,0.984375 1.953125,0.625 1.6875,-0.125 1.453125,-0.78125 1.328125,-1.546875 1.328125,-2.546875 1.328125,-3.59375 1.46875,-4.40625 1.734375,-5.03125 2.015625,-5.640625 2.3125,-6 3.03125,-6.578125 L 2.9375,-6.734375 z m 0,0"
               id="path4291" />
          </symbol>
          <symbol
             style="overflow:visible"
             overflow="visible"
             id="textext-24a3b203-5">
            <path
               style="stroke:none"
               d="M 0.375,1.765625 C 1.109375,1.28125 1.421875,1.03125 1.78125,0.5625 2.5,-0.296875 2.84375,-1.296875 2.84375,-2.46875 c 0,-1.265625 -0.375,-2.234375 -1.25,-3.25 C 1.1875,-6.203125 0.921875,-6.421875 0.40625,-6.734375 l -0.109375,0.15625 c 0.796875,0.625 1.0625,0.96875 1.34375,1.71875 0.234375,0.671875 0.34375,1.4375 0.34375,2.421875 0,1.046875 -0.125,1.875 -0.40625,2.484375 C 1.3125,0.671875 1,1.03125 0.296875,1.609375 L 0.375,1.765625 z m 0,0"
               id="path4294" />
          </symbol>
        </g>
      </defs>
      <g
         id="textext-24a3b203-6">
        <g
           style="fill:#000000;fill-opacity:1"
           id="g4297">
          <use
             height="177.16534"
             width="283.46457"
             xlink:href="#textext-24a3b203-1"
             x="223.43201"
             y="134.765"
             id="use4299" />
        </g>
        <g
           style="fill:#000000;fill-opacity:1"
           id="g4301">
          <use
             height="177.16534"
             width="283.46457"
             xlink:href="#textext-24a3b203-4"
             x="228.722"
             y="134.765"
             id="use4303" />
        </g>
        <g
           style="fill:#000000;fill-opacity:1"
           id="g4305">
          <use
             height="177.16534"
             width="283.46457"
             xlink:href="#textext-24a3b203-2"
             x="232.03999"
             y="134.765"
             id="use4307" />
        </g>
        <g
           style="fill:#000000;fill-opacity:1"
           id="g4309">
          <use
             height="177.16534"
             width="283.46457"
             xlink:href="#textext-24a3b203-5"
             x="237.948"
             y="134.765"
             id="use4311" />
        </g>
      </g>
    </g>
    <g
       id="g4637"
       transform="matrix(1.2,0,0,1.2,-164.91176,806.90161)"
       ns0:preamble="/home/sriranga/Documents/TIFR/preamble.tex"
       ns0:text="$\\alpha$">
      <defs
         id="defs4639">
        <g
           id="g4641">
          <symbol
             id="textext-32928f9a-0"
             overflow="visible"
             style="overflow:visible">
            <path
               id="path4644"
               d=""
               style="stroke:none" />
          </symbol>
          <symbol
             id="textext-32928f9a-1"
             overflow="visible"
             style="overflow:visible">
            <path
               id="path4647"
               d="M 5.828125,-4.09375 5.140625,-4 c -0.28125,0.765625 -1.0625,1.953125 -1.0625,1.953125 l -0.015625,0 c 0,0 0.171875,-0.4375 0.171875,-0.96875 0,-0.65625 -0.234375,-1.375 -1.296875,-1.375 -1.671875,0 -2.703125,1.765625 -2.703125,2.96875 0,0.84375 0.453125,1.53125 1.484375,1.53125 0.796875,0 1.390625,-0.609375 1.390625,-0.625 l 0.015625,0 c 0,0.09375 0.015625,0.609375 0.75,0.609375 0.796875,0 1.265625,-0.90625 1.265625,-1.125 0,-0.03125 -0.015625,-0.0625 -0.03125,-0.0625 -0.140625,0 -0.375,0.828125 -0.953125,0.828125 -0.21875,0 -0.28125,-0.25 -0.28125,-0.515625 0,-0.21875 0.046875,-0.4375 0.078125,-0.546875 0.140625,-0.1875 1.875,-2.765625 1.875,-2.765625 z m -2.3125,1.15625 c 0,0.9375 -0.375,2.03125 -0.375,2.046875 0,0 -0.515625,0.75 -1.265625,0.75 -0.21875,0 -0.765625,-0.0625 -0.765625,-1.34375 0,-0.515625 0.265625,-2.65625 1.65625,-2.65625 0.6875,0 0.75,0.84375 0.75,1.203125 z m 0,0"
               style="stroke:none" />
          </symbol>
        </g>
      </defs>
      <g
         id="textext-32928f9a-2">
        <g
           id="g4650"
           style="fill:#000000;fill-opacity:1">
          <use
             id="use4652"
             y="134.765"
             x="223.43201"
             xlink:href="#textext-32928f9a-1"
             width="283.46457"
             height="177.16534" />
        </g>
      </g>
    </g>
    <g
       ns0:text="$L$"
       ns0:preamble="/home/sriranga/Documents/TIFR/preamble.tex"
       transform="matrix(1.2,0,0,1.2,-163.86424,784.31162)"
       id="g5049">
      <defs
         id="defs5051">
        <g
           id="g5053">
          <symbol
             style="overflow:visible"
             overflow="visible"
             id="textext-cef33b95-0">
            <path
               style="stroke:none"
               d=""
               id="path5056" />
          </symbol>
          <symbol
             style="overflow:visible"
             overflow="visible"
             id="textext-cef33b95-1">
            <path
               style="stroke:none"
               d="m 4.015625,-6.515625 -2.71875,0 0,0.171875 c 0.609375,0.046875 0.765625,0.140625 0.765625,0.421875 0,0.140625 -0.03125,0.375 -0.109375,0.625 l -1.21875,4.40625 c -0.1875,0.578125 -0.25,0.625 -0.8125,0.734375 L -0.078125,0 5,0 5.578125,-1.78125 5.375,-1.84375 c -0.34375,0.71875 -0.625,1.03125 -1.0625,1.25 -0.34375,0.171875 -0.75,0.234375 -1.625,0.234375 -0.75,0 -1,-0.078125 -1,-0.34375 0,-0.0625 0.046875,-0.296875 0.09375,-0.5 l 1.234375,-4.40625 c 0.140625,-0.515625 0.40625,-0.703125 1,-0.734375 l 0,-0.171875 z m 0,0"
               id="path5059" />
          </symbol>
        </g>
      </defs>
      <g
         id="textext-cef33b95-2">
        <g
           style="fill:#000000;fill-opacity:1"
           id="g5062">
          <use
             height="177.16534"
             width="283.46457"
             xlink:href="#textext-cef33b95-1"
             x="223.681"
             y="134.765"
             id="use5064" />
        </g>
      </g>
    </g>
    <g
       id="g5420"
       transform="matrix(1.2,0,0,1.2,-123.99637,776.57724)"
       ns0:preamble="/home/sriranga/Documents/TIFR/preamble.tex"
       ns0:text="$L\'$">
      <defs
         id="defs5422">
        <g
           id="g5424">
          <symbol
             id="textext-3aea6e51-0"
             overflow="visible">
            <path
               id="path5427"
               d=""
               style="stroke:none;" />
          </symbol>
          <symbol
             id="textext-3aea6e51-1"
             overflow="visible">
            <path
               id="path5430"
               d="M 4.015625 -6.515625 L 1.296875 -6.515625 L 1.296875 -6.34375 C 1.90625 -6.296875 2.0625 -6.203125 2.0625 -5.921875 C 2.0625 -5.78125 2.03125 -5.546875 1.953125 -5.296875 L 0.734375 -0.890625 C 0.546875 -0.3125 0.484375 -0.265625 -0.078125 -0.15625 L -0.078125 0 L 5 0 L 5.578125 -1.78125 L 5.375 -1.84375 C 5.03125 -1.125 4.75 -0.8125 4.3125 -0.59375 C 3.96875 -0.421875 3.5625 -0.359375 2.6875 -0.359375 C 1.9375 -0.359375 1.6875 -0.4375 1.6875 -0.703125 C 1.6875 -0.765625 1.734375 -1 1.78125 -1.203125 L 3.015625 -5.609375 C 3.15625 -6.125 3.421875 -6.3125 4.015625 -6.34375 L 4.015625 -6.515625 Z M 4.015625 -6.515625 "
               style="stroke:none;" />
          </symbol>
          <symbol
             id="textext-3aea6e51-2"
             overflow="visible">
            <path
               id="path5433"
               d=""
               style="stroke:none;" />
          </symbol>
          <symbol
             id="textext-3aea6e51-3"
             overflow="visible">
            <path
               id="path5436"
               d="M 2.0625 -2.859375 C 2.0625 -3.109375 1.8125 -3.28125 1.59375 -3.28125 C 1.34375 -3.28125 1.21875 -3.03125 1.140625 -2.8125 L 0.421875 -0.703125 C 0.390625 -0.640625 0.34375 -0.515625 0.34375 -0.453125 C 0.34375 -0.390625 0.390625 -0.3125 0.453125 -0.3125 C 0.5625 -0.3125 0.6875 -0.453125 0.734375 -0.53125 L 1.875 -2.34375 C 1.96875 -2.484375 2.0625 -2.6875 2.0625 -2.859375 Z M 2.0625 -2.859375 "
               style="stroke:none;" />
          </symbol>
        </g>
      </defs>
      <g
         id="textext-3aea6e51-4">
        <g
           id="g5439"
           style="fill:rgb(0%,0%,0%);fill-opacity:1;">
          <use
             id="use5441"
             y="134.765"
             x="223.681"
             xlink:href="#textext-3aea6e51-1" />
        </g>
        <g
           id="g5443"
           style="fill:rgb(0%,0%,0%);fill-opacity:1;">
          <use
             id="use5445"
             y="131.148"
             x="229.25"
             xlink:href="#textext-3aea6e51-3" />
        </g>
      </g>
    </g>
  </g>
</svg>
