<?xml version="1.0" encoding="UTF-8" standalone="no"?>
<!-- Created with Inkscape (http://www.inkscape.org/) -->

<svg
   xmlns:ns0="http://www.iki.fi/pav/software/textext/"
   xmlns:dc="http://purl.org/dc/elements/1.1/"
   xmlns:cc="http://creativecommons.org/ns#"
   xmlns:rdf="http://www.w3.org/1999/02/22-rdf-syntax-ns#"
   xmlns:svg="http://www.w3.org/2000/svg"
   xmlns="http://www.w3.org/2000/svg"
   xmlns:xlink="http://www.w3.org/1999/xlink"
   xmlns:sodipodi="http://sodipodi.sourceforge.net/DTD/sodipodi-0.dtd"
   xmlns:inkscape="http://www.inkscape.org/namespaces/inkscape"
   sodipodi:docname="fig5.eps"
   inkscape:version="0.47 r22583"
   version="1.1"
   id="svg2"
   height="177.16534"
   width="283.46457">
  <sodipodi:namedview
     id="base"
     pagecolor="#ffffff"
     bordercolor="#666666"
     borderopacity="1.0"
     inkscape:pageopacity="0.0"
     inkscape:pageshadow="2"
     inkscape:zoom="1.3546667"
     inkscape:cx="141.73228"
     inkscape:cy="88.582672"
     inkscape:document-units="cm"
     inkscape:current-layer="layer1"
     showgrid="false"
     units="cm"
     inkscape:window-width="972"
     inkscape:window-height="495"
     inkscape:window-x="44"
     inkscape:window-y="220"
     inkscape:window-maximized="0">
    <inkscape:grid
       snapvisiblegridlinesonly="true"
       enabled="true"
       visible="true"
       empspacing="5"
       id="grid2816"
       type="xygrid" />
  </sodipodi:namedview>
  <defs
     id="defs4">
    <marker
       style="overflow:visible;"
       id="Arrow1Mend"
       refX="0.0"
       refY="0.0"
       orient="auto"
       inkscape:stockid="Arrow1Mend">
      <path
         transform="scale(0.4) rotate(180) translate(10,0)"
         style="fill-rule:evenodd;stroke:#000000;stroke-width:1.0pt;marker-start:none;"
         d="M 0.0,0.0 L 5.0,-5.0 L -12.5,0.0 L 5.0,5.0 L 0.0,0.0 z "
         id="path3741" />
    </marker>
    <inkscape:perspective
       id="perspective10"
       inkscape:persp3d-origin="372.04724 : 350.78739 : 1"
       inkscape:vp_z="744.09448 : 526.18109 : 1"
       inkscape:vp_y="0 : 1000 : 0"
       inkscape:vp_x="0 : 526.18109 : 1"
       sodipodi:type="inkscape:persp3d" />
    <inkscape:perspective
       sodipodi:type="inkscape:persp3d"
       inkscape:vp_x="0 : 0.5 : 1"
       inkscape:vp_y="0 : 1000 : 0"
       inkscape:vp_z="1 : 0.5 : 1"
       inkscape:persp3d-origin="0.5 : 0.33333333 : 1"
       id="perspective2828" />
    <inkscape:perspective
       id="perspective2911"
       inkscape:persp3d-origin="0.5 : 0.33333333 : 1"
       inkscape:vp_z="1 : 0.5 : 1"
       inkscape:vp_y="0 : 1000 : 0"
       inkscape:vp_x="0 : 0.5 : 1"
       sodipodi:type="inkscape:persp3d" />
    <inkscape:perspective
       id="perspective3779"
       inkscape:persp3d-origin="0.5 : 0.33333333 : 1"
       inkscape:vp_z="1 : 0.5 : 1"
       inkscape:vp_y="0 : 1000 : 0"
       inkscape:vp_x="0 : 0.5 : 1"
       sodipodi:type="inkscape:persp3d" />
    <inkscape:perspective
       id="perspective4244"
       inkscape:persp3d-origin="0.5 : 0.33333333 : 1"
       inkscape:vp_z="1 : 0.5 : 1"
       inkscape:vp_y="0 : 1000 : 0"
       inkscape:vp_x="0 : 0.5 : 1"
       sodipodi:type="inkscape:persp3d" />
    <inkscape:perspective
       sodipodi:type="inkscape:persp3d"
       inkscape:vp_x="0 : 0.5 : 1"
       inkscape:vp_y="0 : 1000 : 0"
       inkscape:vp_z="1 : 0.5 : 1"
       inkscape:persp3d-origin="0.5 : 0.33333333 : 1"
       id="perspective4390" />
    <inkscape:perspective
       sodipodi:type="inkscape:persp3d"
       inkscape:vp_x="0 : 0.5 : 1"
       inkscape:vp_y="0 : 1000 : 0"
       inkscape:vp_z="1 : 0.5 : 1"
       inkscape:persp3d-origin="0.5 : 0.33333333 : 1"
       id="perspective4854" />
    <inkscape:perspective
       id="perspective5056"
       inkscape:persp3d-origin="0.5 : 0.33333333 : 1"
       inkscape:vp_z="1 : 0.5 : 1"
       inkscape:vp_y="0 : 1000 : 0"
       inkscape:vp_x="0 : 0.5 : 1"
       sodipodi:type="inkscape:persp3d" />
    <inkscape:perspective
       sodipodi:type="inkscape:persp3d"
       inkscape:vp_x="0 : 0.5 : 1"
       inkscape:vp_y="0 : 1000 : 0"
       inkscape:vp_z="1 : 0.5 : 1"
       inkscape:persp3d-origin="0.5 : 0.33333333 : 1"
       id="perspective5056-0" />
    <inkscape:perspective
       sodipodi:type="inkscape:persp3d"
       inkscape:vp_x="0 : 0.5 : 1"
       inkscape:vp_y="0 : 1000 : 0"
       inkscape:vp_z="1 : 0.5 : 1"
       inkscape:persp3d-origin="0.5 : 0.33333333 : 1"
       id="perspective5056-1" />
    <inkscape:perspective
       id="perspective3311"
       inkscape:persp3d-origin="0.5 : 0.33333333 : 1"
       inkscape:vp_z="1 : 0.5 : 1"
       inkscape:vp_y="0 : 1000 : 0"
       inkscape:vp_x="0 : 0.5 : 1"
       sodipodi:type="inkscape:persp3d" />
    <inkscape:perspective
       sodipodi:type="inkscape:persp3d"
       inkscape:vp_x="0 : 0.5 : 1"
       inkscape:vp_y="0 : 1000 : 0"
       inkscape:vp_z="1 : 0.5 : 1"
       inkscape:persp3d-origin="0.5 : 0.33333333 : 1"
       id="perspective3311-8" />
    <inkscape:perspective
       sodipodi:type="inkscape:persp3d"
       inkscape:vp_x="0 : 0.5 : 1"
       inkscape:vp_y="0 : 1000 : 0"
       inkscape:vp_z="1 : 0.5 : 1"
       inkscape:persp3d-origin="0.5 : 0.33333333 : 1"
       id="perspective3311-1" />
    <inkscape:perspective
       id="perspective3311-84"
       inkscape:persp3d-origin="0.5 : 0.33333333 : 1"
       inkscape:vp_z="1 : 0.5 : 1"
       inkscape:vp_y="0 : 1000 : 0"
       inkscape:vp_x="0 : 0.5 : 1"
       sodipodi:type="inkscape:persp3d" />
    <inkscape:perspective
       sodipodi:type="inkscape:persp3d"
       inkscape:vp_x="0 : 0.5 : 1"
       inkscape:vp_y="0 : 1000 : 0"
       inkscape:vp_z="1 : 0.5 : 1"
       inkscape:persp3d-origin="0.5 : 0.33333333 : 1"
       id="perspective4865" />
    <inkscape:perspective
       id="perspective5225"
       inkscape:persp3d-origin="0.5 : 0.33333333 : 1"
       inkscape:vp_z="1 : 0.5 : 1"
       inkscape:vp_y="0 : 1000 : 0"
       inkscape:vp_x="0 : 0.5 : 1"
       sodipodi:type="inkscape:persp3d" />
    <inkscape:perspective
       id="perspective4274"
       inkscape:persp3d-origin="0.5 : 0.33333333 : 1"
       inkscape:vp_z="1 : 0.5 : 1"
       inkscape:vp_y="0 : 1000 : 0"
       inkscape:vp_x="0 : 0.5 : 1"
       sodipodi:type="inkscape:persp3d" />
    <inkscape:perspective
       sodipodi:type="inkscape:persp3d"
       inkscape:vp_x="0 : 0.5 : 1"
       inkscape:vp_y="0 : 1000 : 0"
       inkscape:vp_z="1 : 0.5 : 1"
       inkscape:persp3d-origin="0.5 : 0.33333333 : 1"
       id="perspective4692" />
  </defs>
  <metadata
     id="metadata7">
    <rdf:RDF>
      <cc:Work
         rdf:about="">
        <dc:format>image/svg+xml</dc:format>
        <dc:type
           rdf:resource="http://purl.org/dc/dcmitype/StillImage" />
        <dc:title></dc:title>
      </cc:Work>
    </rdf:RDF>
  </metadata>
  <g
     transform="translate(0,-875.19552)"
     id="layer1"
     inkscape:groupmode="layer"
     inkscape:label="Layer 1">
    <text
       transform="translate(0,875.19552)"
       sodipodi:linespacing="125%"
       id="text4842"
       y="78.617119"
       x="14.394684"
       style="font-size:12px;font-style:normal;font-variant:normal;font-weight:normal;font-stretch:normal;text-align:center;line-height:125%;letter-spacing:0px;word-spacing:0px;text-anchor:middle;fill:#000000;fill-opacity:1;stroke:none;font-family:LMRoman10;-inkscape-font-specification:LMRoman10"
       xml:space="preserve"><tspan
         y="78.617119"
         x="14.394684"
         id="tspan4844"
         sodipodi:role="line" /></text>
    <path
       transform="translate(0,875.19552)"
       d="m 200,97.165344 c 0,33.137086 -26.86292,59.999996 -60,59.999996 -33.13708,0 -60,-26.86291 -60,-59.999996 0,-33.137085 26.86292,-60 60,-60 33.13708,0 60,26.862915 60,60 z"
       sodipodi:ry="60"
       sodipodi:rx="60"
       sodipodi:cy="97.165344"
       sodipodi:cx="140"
       id="path3164"
       style="fill:#ffffff;fill-opacity:1;fill-rule:nonzero;stroke:#000000;stroke-width:0.99212599;stroke-linecap:square;stroke-linejoin:miter;stroke-miterlimit:4;stroke-opacity:1;stroke-dasharray:none;stroke-dashoffset:0"
       sodipodi:type="arc" />
    <g
       id="g3204"
       transform="matrix(1.2,0,0,1.2,-142.71459,777.12111)"
       ns0:preamble="/home/sriranga/Documents/TIFR/preamble.tex"
       ns0:text="$\\mathbb{D}^{m+1}$">
      <defs
         id="defs3206">
        <g
           id="g3208">
          <symbol
             id="textext-6d144ffb-0"
             overflow="visible"
             style="overflow:visible">
            <path
               id="path3211"
               d=""
               style="stroke:none" />
          </symbol>
          <symbol
             id="textext-6d144ffb-1"
             overflow="visible"
             style="overflow:visible">
            <path
               id="path3214"
               d="m 0.5,-6.828125 c -0.1875,0 -0.34375,0 -0.34375,0.171875 0,0.171875 0.1875,0.171875 0.265625,0.171875 0.53125,0 0.5625,0.078125 0.5625,0.578125 l 0,4.984375 c 0,0.5 -0.03125,0.578125 -0.546875,0.578125 -0.09375,0 -0.28125,0 -0.28125,0.171875 C 0.15625,0 0.3125,0 0.5,0 L 3.375,0 C 5.109375,0 6.890625,-1.09375 6.890625,-3.53125 6.890625,-5.921875 5,-6.828125 3.375,-6.828125 l -2.875,0 z m 4.09375,0.546875 c 1.421875,0.453125 1.953125,1.5625 1.953125,2.75 0,1.6875 -0.921875,2.609375 -1.90625,2.953125 0.640625,-0.671875 0.84375,-1.78125 0.84375,-2.9375 0,-1.4375 -0.390625,-2.21875 -0.90625,-2.765625 l 0.015625,0 z M 1.25,-0.34375 c 0.078125,-0.1875 0.078125,-0.421875 0.078125,-0.546875 l 0,-5.046875 c 0,-0.125 0,-0.359375 -0.078125,-0.546875 l 1.140625,0 c -0.125,0.15625 -0.125,0.375 -0.125,0.515625 l 0,5.109375 c 0,0.15625 0,0.34375 0.125,0.515625 l -1.140625,0 z M 2.609375,-5.9375 c 0,-0.21875 0,-0.3125 0.1875,-0.421875 0.078125,-0.078125 0.265625,-0.125 0.46875,-0.125 0.84375,0 1.875,0.75 1.875,2.96875 0,1.265625 -0.265625,3.171875 -1.9375,3.171875 -0.59375,0 -0.59375,-0.359375 -0.59375,-0.546875 l 0,-5.046875 z m 0,0"
               style="stroke:none" />
          </symbol>
          <symbol
             id="textext-6d144ffb-2"
             overflow="visible"
             style="overflow:visible">
            <path
               id="path3217"
               d=""
               style="stroke:none" />
          </symbol>
          <symbol
             id="textext-6d144ffb-3"
             overflow="visible"
             style="overflow:visible">
            <path
               id="path3220"
               d="m 4.796875,-0.8125 c -0.0625,0.078125 -0.125,0.15625 -0.140625,0.171875 -0.203125,0.25 -0.34375,0.375 -0.453125,0.375 C 4.15625,-0.265625 4.125,-0.3125 4.125,-0.375 c 0,-0.03125 0.015625,-0.140625 0.0625,-0.3125 l 0.46875,-1.75 c 0.015625,-0.03125 0.03125,-0.15625 0.03125,-0.203125 0,-0.25 -0.171875,-0.4375 -0.421875,-0.4375 -0.125,0 -0.265625,0.046875 -0.4375,0.15625 -0.34375,0.21875 -0.625,0.5625 -1.109375,1.328125 C 2.90625,-2.125 3,-2.515625 3,-2.65625 c 0,-0.25 -0.15625,-0.421875 -0.390625,-0.421875 -0.421875,0 -0.921875,0.46875 -1.5625,1.46875 L 1.453125,-3.0625 1.4375,-3.078125 c -0.390625,0.09375 -0.53125,0.109375 -1.109375,0.21875 l 0,0.109375 0.171875,0 c 0.171875,0 0.265625,0.046875 0.265625,0.15625 0,0.078125 -0.15625,0.71875 -0.40625,1.59375 -0.171875,0.578125 -0.1875,0.640625 -0.28125,1 l 0.53125,0 c 0.328125,-1.109375 0.4375,-1.359375 0.671875,-1.734375 0.390625,-0.59375 0.8125,-0.96875 1.046875,-0.96875 0.09375,0 0.140625,0.0625 0.140625,0.171875 C 2.46875,-2.46875 2.25,-1.625 1.8125,0 L 2.328125,0 C 2.609375,-1.09375 2.75,-1.4375 3.09375,-1.9375 3.4375,-2.40625 3.796875,-2.703125 4,-2.703125 c 0.0625,0 0.125,0.0625 0.125,0.140625 0,0.03125 0,0.109375 -0.046875,0.234375 l -0.40625,1.609375 c -0.0625,0.265625 -0.078125,0.390625 -0.078125,0.453125 0,0.21875 0.09375,0.328125 0.28125,0.328125 0.3125,0 0.625,-0.234375 1,-0.75 L 4.90625,-0.734375 4.796875,-0.8125 z m 0,0"
               style="stroke:none" />
          </symbol>
          <symbol
             id="textext-6d144ffb-4"
             overflow="visible"
             style="overflow:visible">
            <path
               id="path3223"
               d=""
               style="stroke:none" />
          </symbol>
          <symbol
             id="textext-6d144ffb-5"
             overflow="visible"
             style="overflow:visible">
            <path
               id="path3226"
               d="m 4,-1.59375 0,-0.390625 -1.59375,0 0,-1.578125 -0.390625,0 0,1.578125 -1.578125,0 0,0.390625 1.578125,0 0,1.59375 0.390625,0 0,-1.59375 1.59375,0 z m 0,0"
               style="stroke:none" />
          </symbol>
          <symbol
             id="textext-6d144ffb-6"
             overflow="visible"
             style="overflow:visible">
            <path
               id="path3229"
               d=""
               style="stroke:none" />
          </symbol>
          <symbol
             id="textext-6d144ffb-7"
             overflow="visible"
             style="overflow:visible">
            <path
               id="path3232"
               d="m 2.03125,-4.703125 -1.25,0.625 0,0.09375 c 0.078125,-0.03125 0.15625,-0.0625 0.1875,-0.078125 0.125,-0.046875 0.234375,-0.0625 0.3125,-0.0625 0.140625,0 0.203125,0.09375 0.203125,0.3125 l 0,3.171875 c 0,0.21875 -0.0625,0.375 -0.171875,0.453125 -0.09375,0.0625 -0.203125,0.078125 -0.484375,0.078125 L 0.828125,0 2.75,0 l 0,-0.109375 c -0.5625,0 -0.671875,-0.078125 -0.671875,-0.40625 l 0,-4.1875 -0.046875,0 z m 0,0"
               style="stroke:none" />
          </symbol>
        </g>
      </defs>
      <g
         id="textext-6d144ffb-8">
        <g
           id="g3235"
           style="fill:#000000;fill-opacity:1">
          <use
             id="use3237"
             y="134.765"
             x="223.43201"
             xlink:href="#textext-6d144ffb-1"
             width="283.46457"
             height="177.16534" />
        </g>
        <g
           id="g3239"
           style="fill:#000000;fill-opacity:1">
          <use
             id="use3241"
             y="131.14799"
             x="230.627"
             xlink:href="#textext-6d144ffb-3"
             width="283.46457"
             height="177.16534" />
        </g>
        <g
           id="g3243"
           style="fill:#000000;fill-opacity:1">
          <use
             id="use3245"
             y="131.14799"
             x="235.662"
             xlink:href="#textext-6d144ffb-5"
             width="283.46457"
             height="177.16534" />
        </g>
        <g
           id="g3247"
           style="fill:#000000;fill-opacity:1">
          <use
             id="use3249"
             y="131.14799"
             x="240.09801"
             xlink:href="#textext-6d144ffb-7"
             width="283.46457"
             height="177.16534" />
        </g>
      </g>
    </g>
    <g
       ns0:text="$\\leftarrow \\partial\\mathbb{D}^{m}$"
       ns0:preamble="/home/sriranga/Documents/TIFR/preamble.tex"
       transform="matrix(1.2,0,0,1.2,-64.078433,813.95982)"
       id="g3461">
      <defs
         id="defs3463">
        <g
           id="g3465">
          <symbol
             style="overflow:visible"
             overflow="visible"
             id="textext-6e16e79d-0">
            <path
               style="stroke:none"
               d=""
               id="path3468" />
          </symbol>
          <symbol
             style="overflow:visible"
             overflow="visible"
             id="textext-6e16e79d-1">
            <path
               style="stroke:none"
               d="m 8.984375,-2.28125 0,-0.5625 -7.296875,0 1.1875,-1.4375 -0.296875,-0.328125 -1.953125,2.0625 1.953125,2.03125 0.296875,-0.328125 -1.1875,-1.4375 7.296875,0 z m 0,0"
               id="path3471" />
          </symbol>
          <symbol
             style="overflow:visible"
             overflow="visible"
             id="textext-6e16e79d-2">
            <path
               style="stroke:none"
               d=""
               id="path3474" />
          </symbol>
          <symbol
             style="overflow:visible"
             overflow="visible"
             id="textext-6e16e79d-3">
            <path
               style="stroke:none"
               d="m 4.90625,-4.296875 c 0,-1.4375 -0.4375,-2.59375 -1.515625,-2.59375 -0.84375,0 -1.75,0.796875 -1.75,1.234375 0,0.328125 0.265625,0.46875 0.46875,0.46875 0.203125,0 0.328125,-0.171875 0.359375,-0.203125 C 2.4375,-5.40625 2.375,-5.5 2.375,-5.640625 c 0,-0.09375 0.171875,-0.953125 1.03125,-0.953125 0.71875,0 0.875,0.921875 0.875,1.734375 0,0.609375 -0.078125,1.140625 -0.078125,1.15625 l -0.015625,0 c 0,-0.015625 -0.390625,-0.625 -1.171875,-0.625 -2,0 -2.828125,1.9375 -2.828125,2.96875 0,0.921875 0.546875,1.515625 1.65625,1.515625 1.71875,0 3.0625,-1.734375 3.0625,-4.453125 z m -1.140625,1.125 c 0,0.265625 -0.25,3.09375 -1.859375,3.09375 -0.5625,0 -0.8125,-0.328125 -0.8125,-0.953125 0,-0.640625 0.40625,-3.0625 1.84375,-3.0625 0.5625,0 0.828125,0.328125 0.828125,0.921875 z m 0,0"
               id="path3477" />
          </symbol>
          <symbol
             style="overflow:visible"
             overflow="visible"
             id="textext-6e16e79d-4">
            <path
               style="stroke:none"
               d=""
               id="path3480" />
          </symbol>
          <symbol
             style="overflow:visible"
             overflow="visible"
             id="textext-6e16e79d-5">
            <path
               style="stroke:none"
               d="m 0.5,-6.828125 c -0.1875,0 -0.34375,0 -0.34375,0.171875 0,0.171875 0.1875,0.171875 0.265625,0.171875 0.53125,0 0.5625,0.078125 0.5625,0.578125 l 0,4.984375 c 0,0.5 -0.03125,0.578125 -0.546875,0.578125 -0.09375,0 -0.28125,0 -0.28125,0.171875 C 0.15625,0 0.3125,0 0.5,0 L 3.375,0 C 5.109375,0 6.890625,-1.09375 6.890625,-3.53125 6.890625,-5.921875 5,-6.828125 3.375,-6.828125 l -2.875,0 z m 4.09375,0.546875 c 1.421875,0.453125 1.953125,1.5625 1.953125,2.75 0,1.6875 -0.921875,2.609375 -1.90625,2.953125 0.640625,-0.671875 0.84375,-1.78125 0.84375,-2.9375 0,-1.4375 -0.390625,-2.21875 -0.90625,-2.765625 l 0.015625,0 z M 1.25,-0.34375 c 0.078125,-0.1875 0.078125,-0.421875 0.078125,-0.546875 l 0,-5.046875 c 0,-0.125 0,-0.359375 -0.078125,-0.546875 l 1.140625,0 c -0.125,0.15625 -0.125,0.375 -0.125,0.515625 l 0,5.109375 c 0,0.15625 0,0.34375 0.125,0.515625 l -1.140625,0 z M 2.609375,-5.9375 c 0,-0.21875 0,-0.3125 0.1875,-0.421875 0.078125,-0.078125 0.265625,-0.125 0.46875,-0.125 0.84375,0 1.875,0.75 1.875,2.96875 0,1.265625 -0.265625,3.171875 -1.9375,3.171875 -0.59375,0 -0.59375,-0.359375 -0.59375,-0.546875 l 0,-5.046875 z m 0,0"
               id="path3483" />
          </symbol>
          <symbol
             style="overflow:visible"
             overflow="visible"
             id="textext-6e16e79d-6">
            <path
               style="stroke:none"
               d=""
               id="path3486" />
          </symbol>
          <symbol
             style="overflow:visible"
             overflow="visible"
             id="textext-6e16e79d-7">
            <path
               style="stroke:none"
               d="m 4.796875,-0.8125 c -0.0625,0.078125 -0.125,0.15625 -0.140625,0.171875 -0.203125,0.25 -0.34375,0.375 -0.453125,0.375 C 4.15625,-0.265625 4.125,-0.3125 4.125,-0.375 c 0,-0.03125 0.015625,-0.140625 0.0625,-0.3125 l 0.46875,-1.75 c 0.015625,-0.03125 0.03125,-0.15625 0.03125,-0.203125 0,-0.25 -0.171875,-0.4375 -0.421875,-0.4375 -0.125,0 -0.265625,0.046875 -0.4375,0.15625 -0.34375,0.21875 -0.625,0.5625 -1.109375,1.328125 C 2.90625,-2.125 3,-2.515625 3,-2.65625 c 0,-0.25 -0.15625,-0.421875 -0.390625,-0.421875 -0.421875,0 -0.921875,0.46875 -1.5625,1.46875 L 1.453125,-3.0625 1.4375,-3.078125 c -0.390625,0.09375 -0.53125,0.109375 -1.109375,0.21875 l 0,0.109375 0.171875,0 c 0.171875,0 0.265625,0.046875 0.265625,0.15625 0,0.078125 -0.15625,0.71875 -0.40625,1.59375 -0.171875,0.578125 -0.1875,0.640625 -0.28125,1 l 0.53125,0 c 0.328125,-1.109375 0.4375,-1.359375 0.671875,-1.734375 0.390625,-0.59375 0.8125,-0.96875 1.046875,-0.96875 0.09375,0 0.140625,0.0625 0.140625,0.171875 C 2.46875,-2.46875 2.25,-1.625 1.8125,0 L 2.328125,0 C 2.609375,-1.09375 2.75,-1.4375 3.09375,-1.9375 3.4375,-2.40625 3.796875,-2.703125 4,-2.703125 c 0.0625,0 0.125,0.0625 0.125,0.140625 0,0.03125 0,0.109375 -0.046875,0.234375 l -0.40625,1.609375 c -0.0625,0.265625 -0.078125,0.390625 -0.078125,0.453125 0,0.21875 0.09375,0.328125 0.28125,0.328125 0.3125,0 0.625,-0.234375 1,-0.75 L 4.90625,-0.734375 4.796875,-0.8125 z m 0,0"
               id="path3489" />
          </symbol>
        </g>
      </defs>
      <g
         id="textext-6e16e79d-8">
        <g
           style="fill:#000000;fill-opacity:1"
           id="g3492">
          <use
             height="177.16534"
             width="283.46457"
             xlink:href="#textext-6e16e79d-1"
             x="223.43201"
             y="134.765"
             id="use3494" />
        </g>
        <g
           style="fill:#000000;fill-opacity:1"
           id="g3496">
          <use
             height="177.16534"
             width="283.46457"
             xlink:href="#textext-6e16e79d-3"
             x="235.80299"
             y="134.765"
             id="use3498" />
        </g>
        <g
           style="fill:#000000;fill-opacity:1"
           id="g3500">
          <use
             height="177.16534"
             width="283.46457"
             xlink:href="#textext-6e16e79d-5"
             x="240.90401"
             y="134.765"
             id="use3502" />
        </g>
        <g
           style="fill:#000000;fill-opacity:1"
           id="g3504">
          <use
             height="177.16534"
             width="283.46457"
             xlink:href="#textext-6e16e79d-7"
             x="248.10001"
             y="131.14799"
             id="use3506" />
        </g>
      </g>
    </g>
    <path
       sodipodi:nodetypes="cc"
       transform="translate(0,875.19552)"
       id="path3233"
       d="m 80,97.165344 c 40,-20 80,-20 120,0"
       style="fill:none;stroke:#000000;stroke-width:0.99212598;stroke-linecap:butt;stroke-linejoin:miter;stroke-opacity:1;stroke-miterlimit:4;stroke-dasharray:2.97637795,2.97637795;stroke-dashoffset:0" />
    <path
       style="fill:none;stroke:#000000;stroke-width:1px;stroke-linecap:butt;stroke-linejoin:miter;stroke-opacity:1"
       d="m 80,972.36086 c 40,20 80,20 120,0"
       id="path3235"
       sodipodi:nodetypes="cc" />
    <g
       id="g4100"
       transform="matrix(1.2,0,0,1.2,-133.97588,815.05919)"
       ns0:preamble="/home/sriranga/Documents/TIFR/preamble.tex"
       ns0:text="$\\mathbb{D}^{m}$">
      <defs
         id="defs4102">
        <g
           id="g4104">
          <symbol
             id="textext-1f294feb-0"
             overflow="visible"
             style="overflow:visible">
            <path
               id="path4107"
               d=""
               style="stroke:none" />
          </symbol>
          <symbol
             id="textext-1f294feb-1"
             overflow="visible"
             style="overflow:visible">
            <path
               id="path4110"
               d="m 0.5,-6.828125 c -0.1875,0 -0.34375,0 -0.34375,0.171875 0,0.171875 0.1875,0.171875 0.265625,0.171875 0.53125,0 0.5625,0.078125 0.5625,0.578125 l 0,4.984375 c 0,0.5 -0.03125,0.578125 -0.546875,0.578125 -0.09375,0 -0.28125,0 -0.28125,0.171875 C 0.15625,0 0.3125,0 0.5,0 L 3.375,0 C 5.109375,0 6.890625,-1.09375 6.890625,-3.53125 6.890625,-5.921875 5,-6.828125 3.375,-6.828125 l -2.875,0 z m 4.09375,0.546875 c 1.421875,0.453125 1.953125,1.5625 1.953125,2.75 0,1.6875 -0.921875,2.609375 -1.90625,2.953125 0.640625,-0.671875 0.84375,-1.78125 0.84375,-2.9375 0,-1.4375 -0.390625,-2.21875 -0.90625,-2.765625 l 0.015625,0 z M 1.25,-0.34375 c 0.078125,-0.1875 0.078125,-0.421875 0.078125,-0.546875 l 0,-5.046875 c 0,-0.125 0,-0.359375 -0.078125,-0.546875 l 1.140625,0 c -0.125,0.15625 -0.125,0.375 -0.125,0.515625 l 0,5.109375 c 0,0.15625 0,0.34375 0.125,0.515625 l -1.140625,0 z M 2.609375,-5.9375 c 0,-0.21875 0,-0.3125 0.1875,-0.421875 0.078125,-0.078125 0.265625,-0.125 0.46875,-0.125 0.84375,0 1.875,0.75 1.875,2.96875 0,1.265625 -0.265625,3.171875 -1.9375,3.171875 -0.59375,0 -0.59375,-0.359375 -0.59375,-0.546875 l 0,-5.046875 z m 0,0"
               style="stroke:none" />
          </symbol>
          <symbol
             id="textext-1f294feb-2"
             overflow="visible"
             style="overflow:visible">
            <path
               id="path4113"
               d=""
               style="stroke:none" />
          </symbol>
          <symbol
             id="textext-1f294feb-3"
             overflow="visible"
             style="overflow:visible">
            <path
               id="path4116"
               d="m 4.796875,-0.8125 c -0.0625,0.078125 -0.125,0.15625 -0.140625,0.171875 -0.203125,0.25 -0.34375,0.375 -0.453125,0.375 C 4.15625,-0.265625 4.125,-0.3125 4.125,-0.375 c 0,-0.03125 0.015625,-0.140625 0.0625,-0.3125 l 0.46875,-1.75 c 0.015625,-0.03125 0.03125,-0.15625 0.03125,-0.203125 0,-0.25 -0.171875,-0.4375 -0.421875,-0.4375 -0.125,0 -0.265625,0.046875 -0.4375,0.15625 -0.34375,0.21875 -0.625,0.5625 -1.109375,1.328125 C 2.90625,-2.125 3,-2.515625 3,-2.65625 c 0,-0.25 -0.15625,-0.421875 -0.390625,-0.421875 -0.421875,0 -0.921875,0.46875 -1.5625,1.46875 L 1.453125,-3.0625 1.4375,-3.078125 c -0.390625,0.09375 -0.53125,0.109375 -1.109375,0.21875 l 0,0.109375 0.171875,0 c 0.171875,0 0.265625,0.046875 0.265625,0.15625 0,0.078125 -0.15625,0.71875 -0.40625,1.59375 -0.171875,0.578125 -0.1875,0.640625 -0.28125,1 l 0.53125,0 c 0.328125,-1.109375 0.4375,-1.359375 0.671875,-1.734375 0.390625,-0.59375 0.8125,-0.96875 1.046875,-0.96875 0.09375,0 0.140625,0.0625 0.140625,0.171875 C 2.46875,-2.46875 2.25,-1.625 1.8125,0 L 2.328125,0 C 2.609375,-1.09375 2.75,-1.4375 3.09375,-1.9375 3.4375,-2.40625 3.796875,-2.703125 4,-2.703125 c 0.0625,0 0.125,0.0625 0.125,0.140625 0,0.03125 0,0.109375 -0.046875,0.234375 l -0.40625,1.609375 c -0.0625,0.265625 -0.078125,0.390625 -0.078125,0.453125 0,0.21875 0.09375,0.328125 0.28125,0.328125 0.3125,0 0.625,-0.234375 1,-0.75 L 4.90625,-0.734375 4.796875,-0.8125 z m 0,0"
               style="stroke:none" />
          </symbol>
        </g>
      </defs>
      <g
         id="textext-1f294feb-4">
        <g
           id="g4119"
           style="fill:#000000;fill-opacity:1">
          <use
             id="use4121"
             y="134.765"
             x="223.43201"
             xlink:href="#textext-1f294feb-1"
             width="283.46457"
             height="177.16534" />
        </g>
        <g
           id="g4123"
           style="fill:#000000;fill-opacity:1">
          <use
             id="use4125"
             y="131.14799"
             x="230.627"
             xlink:href="#textext-1f294feb-3"
             width="283.46457"
             height="177.16534" />
        </g>
      </g>
    </g>
    <g
       ns0:text="$\\leftarrow \\partial_+ \\mathbb{D}^{m+1}$"
       ns0:preamble="/home/sriranga/Documents/TIFR/preamble.tex"
       transform="matrix(1.2,0,0,1.2,-72.485202,777.2203)"
       id="g4471">
      <defs
         id="defs4473">
        <g
           id="g4475">
          <symbol
             overflow="visible"
             id="textext-18b51cf8-0">
            <path
               style="stroke:none;"
               d=""
               id="path4478" />
          </symbol>
          <symbol
             overflow="visible"
             id="textext-18b51cf8-1">
            <path
               style="stroke:none;"
               d="M 8.984375 -2.28125 L 8.984375 -2.84375 L 1.6875 -2.84375 L 2.875 -4.28125 L 2.578125 -4.609375 L 0.625 -2.546875 L 2.578125 -0.515625 L 2.875 -0.84375 L 1.6875 -2.28125 L 8.984375 -2.28125 Z M 8.984375 -2.28125 "
               id="path4481" />
          </symbol>
          <symbol
             overflow="visible"
             id="textext-18b51cf8-2">
            <path
               style="stroke:none;"
               d=""
               id="path4484" />
          </symbol>
          <symbol
             overflow="visible"
             id="textext-18b51cf8-3">
            <path
               style="stroke:none;"
               d="M 4.90625 -4.296875 C 4.90625 -5.734375 4.46875 -6.890625 3.390625 -6.890625 C 2.546875 -6.890625 1.640625 -6.09375 1.640625 -5.65625 C 1.640625 -5.328125 1.90625 -5.1875 2.109375 -5.1875 C 2.3125 -5.1875 2.4375 -5.359375 2.46875 -5.390625 C 2.4375 -5.40625 2.375 -5.5 2.375 -5.640625 C 2.375 -5.734375 2.546875 -6.59375 3.40625 -6.59375 C 4.125 -6.59375 4.28125 -5.671875 4.28125 -4.859375 C 4.28125 -4.25 4.203125 -3.71875 4.203125 -3.703125 L 4.1875 -3.703125 C 4.1875 -3.71875 3.796875 -4.328125 3.015625 -4.328125 C 1.015625 -4.328125 0.1875 -2.390625 0.1875 -1.359375 C 0.1875 -0.4375 0.734375 0.15625 1.84375 0.15625 C 3.5625 0.15625 4.90625 -1.578125 4.90625 -4.296875 Z M 3.765625 -3.171875 C 3.765625 -2.90625 3.515625 -0.078125 1.90625 -0.078125 C 1.34375 -0.078125 1.09375 -0.40625 1.09375 -1.03125 C 1.09375 -1.671875 1.5 -4.09375 2.9375 -4.09375 C 3.5 -4.09375 3.765625 -3.765625 3.765625 -3.171875 Z M 3.765625 -3.171875 "
               id="path4487" />
          </symbol>
          <symbol
             overflow="visible"
             id="textext-18b51cf8-4">
            <path
               style="stroke:none;"
               d=""
               id="path4490" />
          </symbol>
          <symbol
             overflow="visible"
             id="textext-18b51cf8-5">
            <path
               style="stroke:none;"
               d="M 4 -1.59375 L 4 -1.984375 L 2.40625 -1.984375 L 2.40625 -3.5625 L 2.015625 -3.5625 L 2.015625 -1.984375 L 0.4375 -1.984375 L 0.4375 -1.59375 L 2.015625 -1.59375 L 2.015625 0 L 2.40625 0 L 2.40625 -1.59375 L 4 -1.59375 Z M 4 -1.59375 "
               id="path4493" />
          </symbol>
          <symbol
             overflow="visible"
             id="textext-18b51cf8-6">
            <path
               style="stroke:none;"
               d=""
               id="path4496" />
          </symbol>
          <symbol
             overflow="visible"
             id="textext-18b51cf8-7">
            <path
               style="stroke:none;"
               d="M 0.5 -6.828125 C 0.3125 -6.828125 0.15625 -6.828125 0.15625 -6.65625 C 0.15625 -6.484375 0.34375 -6.484375 0.421875 -6.484375 C 0.953125 -6.484375 0.984375 -6.40625 0.984375 -5.90625 L 0.984375 -0.921875 C 0.984375 -0.421875 0.953125 -0.34375 0.4375 -0.34375 C 0.34375 -0.34375 0.15625 -0.34375 0.15625 -0.171875 C 0.15625 0 0.3125 0 0.5 0 L 3.375 0 C 5.109375 0 6.890625 -1.09375 6.890625 -3.53125 C 6.890625 -5.921875 5 -6.828125 3.375 -6.828125 L 0.5 -6.828125 Z M 4.59375 -6.28125 C 6.015625 -5.828125 6.546875 -4.71875 6.546875 -3.53125 C 6.546875 -1.84375 5.625 -0.921875 4.640625 -0.578125 C 5.28125 -1.25 5.484375 -2.359375 5.484375 -3.515625 C 5.484375 -4.953125 5.09375 -5.734375 4.578125 -6.28125 L 4.59375 -6.28125 Z M 1.25 -0.34375 C 1.328125 -0.53125 1.328125 -0.765625 1.328125 -0.890625 L 1.328125 -5.9375 C 1.328125 -6.0625 1.328125 -6.296875 1.25 -6.484375 L 2.390625 -6.484375 C 2.265625 -6.328125 2.265625 -6.109375 2.265625 -5.96875 L 2.265625 -0.859375 C 2.265625 -0.703125 2.265625 -0.515625 2.390625 -0.34375 L 1.25 -0.34375 Z M 2.609375 -5.9375 C 2.609375 -6.15625 2.609375 -6.25 2.796875 -6.359375 C 2.875 -6.4375 3.0625 -6.484375 3.265625 -6.484375 C 4.109375 -6.484375 5.140625 -5.734375 5.140625 -3.515625 C 5.140625 -2.25 4.875 -0.34375 3.203125 -0.34375 C 2.609375 -0.34375 2.609375 -0.703125 2.609375 -0.890625 L 2.609375 -5.9375 Z M 2.609375 -5.9375 "
               id="path4499" />
          </symbol>
          <symbol
             overflow="visible"
             id="textext-18b51cf8-8">
            <path
               style="stroke:none;"
               d=""
               id="path4502" />
          </symbol>
          <symbol
             overflow="visible"
             id="textext-18b51cf8-9">
            <path
               style="stroke:none;"
               d="M 4.796875 -0.8125 C 4.734375 -0.734375 4.671875 -0.65625 4.65625 -0.640625 C 4.453125 -0.390625 4.3125 -0.265625 4.203125 -0.265625 C 4.15625 -0.265625 4.125 -0.3125 4.125 -0.375 C 4.125 -0.40625 4.140625 -0.515625 4.1875 -0.6875 L 4.65625 -2.4375 C 4.671875 -2.46875 4.6875 -2.59375 4.6875 -2.640625 C 4.6875 -2.890625 4.515625 -3.078125 4.265625 -3.078125 C 4.140625 -3.078125 4 -3.03125 3.828125 -2.921875 C 3.484375 -2.703125 3.203125 -2.359375 2.71875 -1.59375 C 2.90625 -2.125 3 -2.515625 3 -2.65625 C 3 -2.90625 2.84375 -3.078125 2.609375 -3.078125 C 2.1875 -3.078125 1.6875 -2.609375 1.046875 -1.609375 L 1.453125 -3.0625 L 1.4375 -3.078125 C 1.046875 -2.984375 0.90625 -2.96875 0.328125 -2.859375 L 0.328125 -2.75 L 0.5 -2.75 C 0.671875 -2.75 0.765625 -2.703125 0.765625 -2.59375 C 0.765625 -2.515625 0.609375 -1.875 0.359375 -1 C 0.1875 -0.421875 0.171875 -0.359375 0.078125 0 L 0.609375 0 C 0.9375 -1.109375 1.046875 -1.359375 1.28125 -1.734375 C 1.671875 -2.328125 2.09375 -2.703125 2.328125 -2.703125 C 2.421875 -2.703125 2.46875 -2.640625 2.46875 -2.53125 C 2.46875 -2.46875 2.25 -1.625 1.8125 0 L 2.328125 0 C 2.609375 -1.09375 2.75 -1.4375 3.09375 -1.9375 C 3.4375 -2.40625 3.796875 -2.703125 4 -2.703125 C 4.0625 -2.703125 4.125 -2.640625 4.125 -2.5625 C 4.125 -2.53125 4.125 -2.453125 4.078125 -2.328125 L 3.671875 -0.71875 C 3.609375 -0.453125 3.59375 -0.328125 3.59375 -0.265625 C 3.59375 -0.046875 3.6875 0.0625 3.875 0.0625 C 4.1875 0.0625 4.5 -0.171875 4.875 -0.6875 L 4.90625 -0.734375 L 4.796875 -0.8125 Z M 4.796875 -0.8125 "
               id="path4505" />
          </symbol>
          <symbol
             overflow="visible"
             id="textext-18b51cf8-10">
            <path
               style="stroke:none;"
               d=""
               id="path4508" />
          </symbol>
          <symbol
             overflow="visible"
             id="textext-18b51cf8-11">
            <path
               style="stroke:none;"
               d="M 2.03125 -4.703125 L 0.78125 -4.078125 L 0.78125 -3.984375 C 0.859375 -4.015625 0.9375 -4.046875 0.96875 -4.0625 C 1.09375 -4.109375 1.203125 -4.125 1.28125 -4.125 C 1.421875 -4.125 1.484375 -4.03125 1.484375 -3.8125 L 1.484375 -0.640625 C 1.484375 -0.421875 1.421875 -0.265625 1.3125 -0.1875 C 1.21875 -0.125 1.109375 -0.109375 0.828125 -0.109375 L 0.828125 0 L 2.75 0 L 2.75 -0.109375 C 2.1875 -0.109375 2.078125 -0.1875 2.078125 -0.515625 L 2.078125 -4.703125 L 2.03125 -4.703125 Z M 2.03125 -4.703125 "
               id="path4511" />
          </symbol>
        </g>
      </defs>
      <g
         id="textext-18b51cf8-12">
        <g
           style="fill:rgb(0%,0%,0%);fill-opacity:1;"
           id="g4514">
          <use
             xlink:href="#textext-18b51cf8-1"
             x="223.432"
             y="134.765"
             id="use4516" />
        </g>
        <g
           style="fill:rgb(0%,0%,0%);fill-opacity:1;"
           id="g4518">
          <use
             xlink:href="#textext-18b51cf8-3"
             x="235.803"
             y="134.765"
             id="use4520" />
        </g>
        <g
           style="fill:rgb(0%,0%,0%);fill-opacity:1;"
           id="g4522">
          <use
             xlink:href="#textext-18b51cf8-5"
             x="240.904"
             y="136.259"
             id="use4524" />
        </g>
        <g
           style="fill:rgb(0%,0%,0%);fill-opacity:1;"
           id="g4526">
          <use
             xlink:href="#textext-18b51cf8-7"
             x="245.838"
             y="134.765"
             id="use4528" />
        </g>
        <g
           style="fill:rgb(0%,0%,0%);fill-opacity:1;"
           id="g4530">
          <use
             xlink:href="#textext-18b51cf8-9"
             x="253.033"
             y="131.148"
             id="use4532" />
        </g>
        <g
           style="fill:rgb(0%,0%,0%);fill-opacity:1;"
           id="g4534">
          <use
             xlink:href="#textext-18b51cf8-5"
             x="258.068"
             y="131.148"
             id="use4536" />
        </g>
        <g
           style="fill:rgb(0%,0%,0%);fill-opacity:1;"
           id="g4538">
          <use
             xlink:href="#textext-18b51cf8-11"
             x="262.503"
             y="131.148"
             id="use4540" />
        </g>
      </g>
    </g>
    <g
       id="g4974"
       transform="matrix(1.2,0,0,1.2,-72.775368,850.37476)"
       ns0:preamble="/home/sriranga/Documents/TIFR/preamble.tex"
       ns0:text="$\\leftarrow \\partial_- \\mathbb{D}^{m+1}$">
      <defs
         id="defs4976">
        <g
           id="g4978">
          <symbol
             id="textext-6f65a982-0"
             overflow="visible"
             style="overflow:visible">
            <path
               id="path4981"
               d=""
               style="stroke:none" />
          </symbol>
          <symbol
             id="textext-6f65a982-1"
             overflow="visible"
             style="overflow:visible">
            <path
               id="path4984"
               d="m 8.984375,-2.28125 0,-0.5625 -7.296875,0 1.1875,-1.4375 -0.296875,-0.328125 -1.953125,2.0625 1.953125,2.03125 0.296875,-0.328125 -1.1875,-1.4375 7.296875,0 z m 0,0"
               style="stroke:none" />
          </symbol>
          <symbol
             id="textext-6f65a982-2"
             overflow="visible"
             style="overflow:visible">
            <path
               id="path4987"
               d=""
               style="stroke:none" />
          </symbol>
          <symbol
             id="textext-6f65a982-3"
             overflow="visible"
             style="overflow:visible">
            <path
               id="path4990"
               d="m 4.90625,-4.296875 c 0,-1.4375 -0.4375,-2.59375 -1.515625,-2.59375 -0.84375,0 -1.75,0.796875 -1.75,1.234375 0,0.328125 0.265625,0.46875 0.46875,0.46875 0.203125,0 0.328125,-0.171875 0.359375,-0.203125 C 2.4375,-5.40625 2.375,-5.5 2.375,-5.640625 c 0,-0.09375 0.171875,-0.953125 1.03125,-0.953125 0.71875,0 0.875,0.921875 0.875,1.734375 0,0.609375 -0.078125,1.140625 -0.078125,1.15625 l -0.015625,0 c 0,-0.015625 -0.390625,-0.625 -1.171875,-0.625 -2,0 -2.828125,1.9375 -2.828125,2.96875 0,0.921875 0.546875,1.515625 1.65625,1.515625 1.71875,0 3.0625,-1.734375 3.0625,-4.453125 z m -1.140625,1.125 c 0,0.265625 -0.25,3.09375 -1.859375,3.09375 -0.5625,0 -0.8125,-0.328125 -0.8125,-0.953125 0,-0.640625 0.40625,-3.0625 1.84375,-3.0625 0.5625,0 0.828125,0.328125 0.828125,0.921875 z m 0,0"
               style="stroke:none" />
          </symbol>
          <symbol
             id="textext-6f65a982-4"
             overflow="visible"
             style="overflow:visible">
            <path
               id="path4993"
               d=""
               style="stroke:none" />
          </symbol>
          <symbol
             id="textext-6f65a982-5"
             overflow="visible"
             style="overflow:visible">
            <path
               id="path4996"
               d="m 4,-1.59375 0,-0.390625 -3.5625,0 0,0.390625 3.5625,0 z m 0,0"
               style="stroke:none" />
          </symbol>
          <symbol
             id="textext-6f65a982-6"
             overflow="visible"
             style="overflow:visible">
            <path
               id="path4999"
               d=""
               style="stroke:none" />
          </symbol>
          <symbol
             id="textext-6f65a982-7"
             overflow="visible"
             style="overflow:visible">
            <path
               id="path5002"
               d="m 0.5,-6.828125 c -0.1875,0 -0.34375,0 -0.34375,0.171875 0,0.171875 0.1875,0.171875 0.265625,0.171875 0.53125,0 0.5625,0.078125 0.5625,0.578125 l 0,4.984375 c 0,0.5 -0.03125,0.578125 -0.546875,0.578125 -0.09375,0 -0.28125,0 -0.28125,0.171875 C 0.15625,0 0.3125,0 0.5,0 L 3.375,0 C 5.109375,0 6.890625,-1.09375 6.890625,-3.53125 6.890625,-5.921875 5,-6.828125 3.375,-6.828125 l -2.875,0 z m 4.09375,0.546875 c 1.421875,0.453125 1.953125,1.5625 1.953125,2.75 0,1.6875 -0.921875,2.609375 -1.90625,2.953125 0.640625,-0.671875 0.84375,-1.78125 0.84375,-2.9375 0,-1.4375 -0.390625,-2.21875 -0.90625,-2.765625 l 0.015625,0 z M 1.25,-0.34375 c 0.078125,-0.1875 0.078125,-0.421875 0.078125,-0.546875 l 0,-5.046875 c 0,-0.125 0,-0.359375 -0.078125,-0.546875 l 1.140625,0 c -0.125,0.15625 -0.125,0.375 -0.125,0.515625 l 0,5.109375 c 0,0.15625 0,0.34375 0.125,0.515625 l -1.140625,0 z M 2.609375,-5.9375 c 0,-0.21875 0,-0.3125 0.1875,-0.421875 0.078125,-0.078125 0.265625,-0.125 0.46875,-0.125 0.84375,0 1.875,0.75 1.875,2.96875 0,1.265625 -0.265625,3.171875 -1.9375,3.171875 -0.59375,0 -0.59375,-0.359375 -0.59375,-0.546875 l 0,-5.046875 z m 0,0"
               style="stroke:none" />
          </symbol>
          <symbol
             id="textext-6f65a982-8"
             overflow="visible"
             style="overflow:visible">
            <path
               id="path5005"
               d=""
               style="stroke:none" />
          </symbol>
          <symbol
             id="textext-6f65a982-9"
             overflow="visible"
             style="overflow:visible">
            <path
               id="path5008"
               d="m 4.796875,-0.8125 c -0.0625,0.078125 -0.125,0.15625 -0.140625,0.171875 -0.203125,0.25 -0.34375,0.375 -0.453125,0.375 C 4.15625,-0.265625 4.125,-0.3125 4.125,-0.375 c 0,-0.03125 0.015625,-0.140625 0.0625,-0.3125 l 0.46875,-1.75 c 0.015625,-0.03125 0.03125,-0.15625 0.03125,-0.203125 0,-0.25 -0.171875,-0.4375 -0.421875,-0.4375 -0.125,0 -0.265625,0.046875 -0.4375,0.15625 -0.34375,0.21875 -0.625,0.5625 -1.109375,1.328125 C 2.90625,-2.125 3,-2.515625 3,-2.65625 c 0,-0.25 -0.15625,-0.421875 -0.390625,-0.421875 -0.421875,0 -0.921875,0.46875 -1.5625,1.46875 L 1.453125,-3.0625 1.4375,-3.078125 c -0.390625,0.09375 -0.53125,0.109375 -1.109375,0.21875 l 0,0.109375 0.171875,0 c 0.171875,0 0.265625,0.046875 0.265625,0.15625 0,0.078125 -0.15625,0.71875 -0.40625,1.59375 -0.171875,0.578125 -0.1875,0.640625 -0.28125,1 l 0.53125,0 c 0.328125,-1.109375 0.4375,-1.359375 0.671875,-1.734375 0.390625,-0.59375 0.8125,-0.96875 1.046875,-0.96875 0.09375,0 0.140625,0.0625 0.140625,0.171875 C 2.46875,-2.46875 2.25,-1.625 1.8125,0 L 2.328125,0 C 2.609375,-1.09375 2.75,-1.4375 3.09375,-1.9375 3.4375,-2.40625 3.796875,-2.703125 4,-2.703125 c 0.0625,0 0.125,0.0625 0.125,0.140625 0,0.03125 0,0.109375 -0.046875,0.234375 l -0.40625,1.609375 c -0.0625,0.265625 -0.078125,0.390625 -0.078125,0.453125 0,0.21875 0.09375,0.328125 0.28125,0.328125 0.3125,0 0.625,-0.234375 1,-0.75 L 4.90625,-0.734375 4.796875,-0.8125 z m 0,0"
               style="stroke:none" />
          </symbol>
          <symbol
             id="textext-6f65a982-10"
             overflow="visible"
             style="overflow:visible">
            <path
               id="path5011"
               d=""
               style="stroke:none" />
          </symbol>
          <symbol
             id="textext-6f65a982-11"
             overflow="visible"
             style="overflow:visible">
            <path
               id="path5014"
               d="m 4,-1.59375 0,-0.390625 -1.59375,0 0,-1.578125 -0.390625,0 0,1.578125 -1.578125,0 0,0.390625 1.578125,0 0,1.59375 0.390625,0 0,-1.59375 1.59375,0 z m 0,0"
               style="stroke:none" />
          </symbol>
          <symbol
             id="textext-6f65a982-12"
             overflow="visible"
             style="overflow:visible">
            <path
               id="path5017"
               d=""
               style="stroke:none" />
          </symbol>
          <symbol
             id="textext-6f65a982-13"
             overflow="visible"
             style="overflow:visible">
            <path
               id="path5020"
               d="m 2.03125,-4.703125 -1.25,0.625 0,0.09375 c 0.078125,-0.03125 0.15625,-0.0625 0.1875,-0.078125 0.125,-0.046875 0.234375,-0.0625 0.3125,-0.0625 0.140625,0 0.203125,0.09375 0.203125,0.3125 l 0,3.171875 c 0,0.21875 -0.0625,0.375 -0.171875,0.453125 -0.09375,0.0625 -0.203125,0.078125 -0.484375,0.078125 L 0.828125,0 2.75,0 l 0,-0.109375 c -0.5625,0 -0.671875,-0.078125 -0.671875,-0.40625 l 0,-4.1875 -0.046875,0 z m 0,0"
               style="stroke:none" />
          </symbol>
        </g>
      </defs>
      <g
         id="textext-6f65a982-14">
        <g
           id="g5023"
           style="fill:#000000;fill-opacity:1">
          <use
             id="use5025"
             y="134.765"
             x="223.43201"
             xlink:href="#textext-6f65a982-1"
             width="283.46457"
             height="177.16534" />
        </g>
        <g
           id="g5027"
           style="fill:#000000;fill-opacity:1">
          <use
             id="use5029"
             y="134.765"
             x="235.80299"
             xlink:href="#textext-6f65a982-3"
             width="283.46457"
             height="177.16534" />
        </g>
        <g
           id="g5031"
           style="fill:#000000;fill-opacity:1">
          <use
             id="use5033"
             y="136.259"
             x="240.90401"
             xlink:href="#textext-6f65a982-5"
             width="283.46457"
             height="177.16534" />
        </g>
        <g
           id="g5035"
           style="fill:#000000;fill-opacity:1">
          <use
             id="use5037"
             y="134.765"
             x="245.838"
             xlink:href="#textext-6f65a982-7"
             width="283.46457"
             height="177.16534" />
        </g>
        <g
           id="g5039"
           style="fill:#000000;fill-opacity:1">
          <use
             id="use5041"
             y="131.14799"
             x="253.033"
             xlink:href="#textext-6f65a982-9"
             width="283.46457"
             height="177.16534" />
        </g>
        <g
           id="g5043"
           style="fill:#000000;fill-opacity:1">
          <use
             id="use5045"
             y="131.14799"
             x="258.06799"
             xlink:href="#textext-6f65a982-11"
             width="283.46457"
             height="177.16534" />
        </g>
        <g
           id="g5047"
           style="fill:#000000;fill-opacity:1">
          <use
             id="use5049"
             y="131.14799"
             x="262.50299"
             xlink:href="#textext-6f65a982-13"
             width="283.46457"
             height="177.16534" />
        </g>
      </g>
    </g>
  </g>
</svg>
