<?xml version="1.0" encoding="UTF-8" standalone="no"?>
<!-- Created with Inkscape (http://www.inkscape.org/) -->

<svg
   xmlns:dc="http://purl.org/dc/elements/1.1/"
   xmlns:cc="http://creativecommons.org/ns#"
   xmlns:rdf="http://www.w3.org/1999/02/22-rdf-syntax-ns#"
   xmlns:svg="http://www.w3.org/2000/svg"
   xmlns="http://www.w3.org/2000/svg"
   xmlns:sodipodi="http://sodipodi.sourceforge.net/DTD/sodipodi-0.dtd"
   xmlns:inkscape="http://www.inkscape.org/namespaces/inkscape"
   width="177.16534"
   height="70.866142"
   id="svg2"
   version="1.1"
   inkscape:version="0.47 r22583"
   sodipodi:docname="fig48-11.svg">
  <sodipodi:namedview
     id="base"
     pagecolor="#ffffff"
     bordercolor="#666666"
     borderopacity="1.0"
     inkscape:pageopacity="0.0"
     inkscape:pageshadow="2"
     inkscape:zoom="2.3548227"
     inkscape:cx="88.582672"
     inkscape:cy="35.433071"
     inkscape:document-units="px"
     inkscape:current-layer="layer1"
     showgrid="false"
     units="cm"
     inkscape:window-width="694"
     inkscape:window-height="476"
     inkscape:window-x="0"
     inkscape:window-y="217"
     inkscape:window-maximized="0">
    <inkscape:grid
       snapvisiblegridlinesonly="true"
       enabled="true"
       visible="true"
       empspacing="5"
       id="grid2816"
       type="xygrid" />
  </sodipodi:namedview>
  <defs
     id="defs4">
    <marker
       inkscape:stockid="Arrow1Send"
       orient="auto"
       refY="0.0"
       refX="0.0"
       id="Arrow1Send"
       style="overflow:visible;">
      <path
         id="path4376"
         d="M 0.0,0.0 L 5.0,-5.0 L -12.5,0.0 L 5.0,5.0 L 0.0,0.0 z "
         style="fill-rule:evenodd;stroke:#000000;stroke-width:1.0pt;marker-start:none;"
         transform="scale(0.2) rotate(180) translate(6,0)" />
    </marker>
    <marker
       inkscape:stockid="Arrow1Sstart"
       orient="auto"
       refY="0.0"
       refX="0.0"
       id="Arrow1Sstart"
       style="overflow:visible">
      <path
         id="path4373"
         d="M 0.0,0.0 L 5.0,-5.0 L -12.5,0.0 L 5.0,5.0 L 0.0,0.0 z "
         style="fill-rule:evenodd;stroke:#000000;stroke-width:1.0pt;marker-start:none"
         transform="scale(0.2) translate(6,0)" />
    </marker>
    <inkscape:perspective
       id="perspective10"
       inkscape:persp3d-origin="372.04724 : 350.78739 : 1"
       inkscape:vp_z="744.09448 : 526.18109 : 1"
       inkscape:vp_y="0 : 1000 : 0"
       inkscape:vp_x="0 : 526.18109 : 1"
       sodipodi:type="inkscape:persp3d" />
  </defs>
  <metadata
     id="metadata7">
    <rdf:RDF>
      <cc:Work
         rdf:about="">
        <dc:format>image/svg+xml</dc:format>
        <dc:type
           rdf:resource="http://purl.org/dc/dcmitype/StillImage" />
        <dc:title></dc:title>
      </cc:Work>
    </rdf:RDF>
  </metadata>
  <g
     transform="translate(0,-981.49473)"
     id="layer1"
     inkscape:groupmode="layer"
     inkscape:label="Layer 1">
    <text
       id="text2818"
       y="1023.1332"
       x="12.527491"
       style="font-size:12px;font-style:normal;font-weight:normal;text-align:start;writing-mode:lr-tb;text-anchor:start;fill:#000000;fill-opacity:1;stroke:none;font-family:LMRoman10;-inkscape-font-specification:LMRoman10"
       xml:space="preserve"><tspan
         y="1023.1332"
         x="12.527491"
         id="tspan2820"
         sodipodi:role="line">0-0-0-...-0-0-</tspan></text>
    <path
       style="color:#000000;fill:none;stroke:#000000;stroke-width:1;stroke-linecap:butt;stroke-linejoin:miter;stroke-miterlimit:4;stroke-opacity:1;stroke-dasharray:none;stroke-dashoffset:0;marker:none;visibility:visible;display:inline;overflow:visible;enable-background:accumulate"
       d="m 100.8476,1009.7491 -17.115981,10.2095 16.659971,9.6186"
       id="path3466" />
    <text
       xml:space="preserve"
       style="font-size:12px;font-style:normal;font-weight:normal;text-align:start;writing-mode:lr-tb;text-anchor:start;fill:#000000;fill-opacity:1;stroke:none;font-family:LMRoman10;-inkscape-font-specification:LMRoman10"
       x="101.33575"
       y="1011.7418"
       id="text3530"><tspan
         sodipodi:role="line"
         id="tspan3532"
         x="101.33575"
         y="1011.7418">0</tspan></text>
    <text
       xml:space="preserve"
       style="font-size:12px;font-style:normal;font-weight:normal;text-align:start;writing-mode:lr-tb;text-anchor:start;fill:#000000;fill-opacity:1;stroke:none;font-family:LMRoman10;-inkscape-font-specification:LMRoman10"
       x="101.09452"
       y="1034.0009"
       id="text3534"><tspan
         sodipodi:role="line"
         id="tspan3536"
         x="101.09452"
         y="1034.0009">0</tspan></text>
    <text
       xml:space="preserve"
       style="font-size:12px;font-style:normal;font-weight:normal;text-align:start;writing-mode:lr-tb;text-anchor:start;fill:#000000;fill-opacity:1;stroke:none;font-family:LMRoman10;-inkscape-font-specification:LMRoman10"
       x="77.090645"
       y="1023.3831"
       id="text3538"><tspan
         sodipodi:role="line"
         id="tspan3540"
         x="77.090645"
         y="1023.3831">0</tspan></text>
    <path
       style="color:#000000;fill:none;stroke:#000000;stroke-width:1.20000005;stroke-linecap:butt;stroke-linejoin:miter;stroke-miterlimit:4;stroke-opacity:1;stroke-dasharray:none;stroke-dashoffset:0;marker:none;marker-start:url(#Arrow1Sstart);marker-end:url(#Arrow1Send);visibility:visible;display:inline;overflow:visible;enable-background:accumulate"
       d="m 104.14475,1014.9053 0,8.4079"
       id="path4356" />
    <path
       style="fill:#000000;fill-opacity:1;stroke:none"
       d="m 59.013686,1023.0238 c -0.760437,-0.333 -1.070882,-1.1565 -1.183275,-3.1387 -0.139146,-2.4541 0.106436,-3.7099 0.840206,-4.2965 0.814189,-0.6509 1.644889,-0.4332 2.265916,0.594 0.376359,0.6224 0.431605,4.8988 0.07492,5.7996 -0.381612,0.9638 -1.200428,1.3907 -1.997773,1.0416 z"
       id="path5042" />
    <path
       id="path5044"
       d="m 35.013686,1023.0238 c -0.760437,-0.333 -1.070882,-1.1565 -1.183275,-3.1387 -0.139146,-2.4541 0.106436,-3.7099 0.840206,-4.2965 0.814189,-0.6509 1.644889,-0.4332 2.265916,0.594 0.376359,0.6224 0.431605,4.8988 0.07492,5.7996 -0.381612,0.9638 -1.200428,1.3907 -1.997773,1.0416 z"
       style="fill:#000000;fill-opacity:1;stroke:none" />
    <path
       id="path5046"
       d="m 15.013686,1023.0238 c -0.760437,-0.333 -1.070882,-1.1565 -1.183275,-3.1387 -0.139146,-2.4541 0.106436,-3.7099 0.840206,-4.2965 0.814189,-0.6509 1.644889,-0.4332 2.265916,0.594 0.376359,0.6224 0.431605,4.8988 0.07492,5.7996 -0.381612,0.9638 -1.200428,1.3907 -1.997773,1.0416 z"
       style="fill:#000000;fill-opacity:1;stroke:none" />
    <path
       id="path5048"
       d="m 79.511795,1023.419 c -0.760437,-0.333 -1.070882,-1.1565 -1.183275,-3.1387 -0.139146,-2.4541 0.106436,-3.7099 0.840206,-4.2965 0.814189,-0.6509 1.644889,-0.4332 2.265916,0.594 0.376359,0.6224 0.431605,4.8988 0.07492,5.7996 -0.381612,0.9638 -1.200428,1.3907 -1.997773,1.0416 z"
       style="fill:#000000;fill-opacity:1;stroke:none" />
  </g>
</svg>
