<?xml version="1.0" encoding="UTF-8" standalone="no"?>
<!-- Created with Inkscape (http://www.inkscape.org/) -->

<svg
   xmlns:ns0="http://www.iki.fi/pav/software/textext/"
   xmlns:osb="http://www.openswatchbook.org/uri/2009/osb"
   xmlns:dc="http://purl.org/dc/elements/1.1/"
   xmlns:cc="http://creativecommons.org/ns#"
   xmlns:rdf="http://www.w3.org/1999/02/22-rdf-syntax-ns#"
   xmlns:svg="http://www.w3.org/2000/svg"
   xmlns="http://www.w3.org/2000/svg"
   xmlns:xlink="http://www.w3.org/1999/xlink"
   xmlns:sodipodi="http://sodipodi.sourceforge.net/DTD/sodipodi-0.dtd"
   xmlns:inkscape="http://www.inkscape.org/namespaces/inkscape"
   sodipodi:docname="fig61-7.1.svg"
   inkscape:version="0.48.0 r9654"
   version="1.1"
   id="svg2"
   height="212.59842"
   width="389.76376">
  <sodipodi:namedview
     id="base"
     pagecolor="#ffffff"
     bordercolor="#666666"
     borderopacity="1.0"
     inkscape:pageopacity="0.0"
     inkscape:pageshadow="2"
     inkscape:zoom="0.97494954"
     inkscape:cx="194.88188"
     inkscape:cy="24.243681"
     inkscape:document-units="cm"
     inkscape:current-layer="layer1"
     showgrid="false"
     units="cm"
     inkscape:window-width="1024"
     inkscape:window-height="693"
     inkscape:window-x="0"
     inkscape:window-y="25"
     inkscape:window-maximized="1"
     inkscape:snap-center="false"
     inkscape:snap-page="false"
     showguides="true"
     inkscape:guide-bbox="true">
    <inkscape:grid
       type="xygrid"
       id="grid2985"
       empspacing="5"
       visible="true"
       enabled="true"
       snapvisiblegridlinesonly="true" />
  </sodipodi:namedview>
  <defs
     id="defs4">
    <inkscape:path-effect
       scale_y_rel="false"
       prop_scale="1"
       strokepath="m 277.57554,805.40382 129.58637,0"
       endpoint_spacing_variation="0;1"
       endpoint_edge_variation="0;1"
       startpoint_spacing_variation="0;1"
       startpoint_edge_variation="0;1"
       count="26"
       is_visible="true"
       id="path-effect51356"
       effect="curvestitching" />
    <inkscape:path-effect
       scale_y_rel="false"
       prop_scale="1"
       strokepath="m 170.93253,837.65994 68,0"
       endpoint_spacing_variation="0;1"
       endpoint_edge_variation="0;1"
       startpoint_spacing_variation="0;1"
       startpoint_edge_variation="0;1"
       count="20"
       is_visible="true"
       id="path-effect51349"
       effect="curvestitching" />
    <inkscape:path-effect
       scale_y_rel="false"
       prop_scale="1"
       strokepath="m 180.00001,-24.901552 140,0"
       endpoint_spacing_variation="0;1"
       endpoint_edge_variation="0;1"
       startpoint_spacing_variation="0;1"
       startpoint_edge_variation="0;1"
       count="5"
       is_visible="true"
       id="path-effect47225"
       effect="curvestitching" />
    <linearGradient
       id="linearGradient18825"
       osb:paint="solid">
      <stop
         style="stop-color:#000000;stop-opacity:1;"
         offset="0"
         id="stop18827" />
    </linearGradient>
    <marker
       style="overflow:visible"
       id="Arrow1Mend"
       refX="0"
       refY="0"
       orient="auto"
       inkscape:stockid="Arrow1Mend">
      <path
         transform="matrix(-0.4,0,0,-0.4,-4,0)"
         style="fill-rule:evenodd;stroke:#000000;stroke-width:1pt;marker-start:none"
         d="M 0,0 5,-5 -12.5,0 5,5 0,0 z"
         id="path7185"
         inkscape:connector-curvature="0" />
    </marker>
    <marker
       inkscape:stockid="Arrow1Mstart"
       orient="auto"
       refY="0"
       refX="0"
       id="Arrow1Mstart"
       style="overflow:visible">
      <path
         id="path3768"
         d="M 0,0 5,-5 -12.5,0 5,5 0,0 z"
         style="fill-rule:evenodd;stroke:#000000;stroke-width:1pt;marker-start:none"
         transform="matrix(0.4,0,0,0.4,4,0)"
         inkscape:connector-curvature="0" />
    </marker>
    <defs
       id="defs7642">
      <g
         id="g7644">
        <symbol
           overflow="visible"
           id="symbol7646"
           style="overflow:visible">
          <path
             style="stroke:none"
             d="M 3.328125,-3.015625 C 3.390625,-3.265625 3.625,-4.1875 4.3125,-4.1875 c 0.046875,0 0.296875,0 0.5,0.125 C 4.53125,-4 4.34375,-3.765625 4.34375,-3.515625 c 0,0.15625 0.109375,0.34375 0.375,0.34375 0.21875,0 0.53125,-0.171875 0.53125,-0.578125 0,-0.515625 -0.578125,-0.65625 -0.921875,-0.65625 -0.578125,0 -0.921875,0.53125 -1.046875,0.75 -0.25,-0.65625 -0.78125,-0.75 -1.078125,-0.75 -1.03125,0 -1.609375,1.28125 -1.609375,1.53125 0,0.109375 0.109375,0.109375 0.125,0.109375 0.078125,0 0.109375,-0.03125 0.125,-0.109375 0.34375,-1.0625 1,-1.3125 1.34375,-1.3125 0.1875,0 0.53125,0.09375 0.53125,0.671875 0,0.3125 -0.171875,0.96875 -0.53125,2.375 -0.15625,0.609375 -0.515625,1.03125 -0.953125,1.03125 -0.0625,0 -0.28125,0 -0.5,-0.125 0.25,-0.0625 0.46875,-0.265625 0.46875,-0.546875 0,-0.265625 -0.21875,-0.34375 -0.359375,-0.34375 -0.3125,0 -0.546875,0.25 -0.546875,0.578125 0,0.453125 0.484375,0.65625 0.921875,0.65625 0.671875,0 1.03125,-0.703125 1.046875,-0.75 0.125,0.359375 0.484375,0.75 1.078125,0.75 1.03125,0 1.59375,-1.28125 1.59375,-1.53125 0,-0.109375 -0.078125,-0.109375 -0.109375,-0.109375 -0.09375,0 -0.109375,0.046875 -0.140625,0.109375 -0.328125,1.078125 -1,1.3125 -1.3125,1.3125 -0.390625,0 -0.546875,-0.3125 -0.546875,-0.65625 0,-0.21875 0.046875,-0.4375 0.15625,-0.875 z m 0,0"
             id="path7648"
             inkscape:connector-curvature="0" />
        </symbol>
        <symbol
           overflow="visible"
           id="symbol7650"
           style="overflow:visible">
          <path
             style="stroke:none"
             d="m 1.90625,-2.328125 c 0.546875,0 0.9375,0.375 0.9375,1.125 0,0.859375 -0.515625,1.125 -0.90625,1.125 -0.28125,0 -0.90625,-0.078125 -1.1875,-0.5 0.328125,0 0.40625,-0.234375 0.40625,-0.390625 0,-0.21875 -0.171875,-0.375 -0.390625,-0.375 -0.1875,0 -0.390625,0.125 -0.390625,0.40625 0,0.65625 0.71875,1.078125 1.5625,1.078125 0.96875,0 1.640625,-0.65625 1.640625,-1.34375 0,-0.546875 -0.4375,-1.09375 -1.203125,-1.25 0.71875,-0.265625 0.984375,-0.78125 0.984375,-1.21875 0,-0.546875 -0.625,-0.953125 -1.40625,-0.953125 -0.765625,0 -1.359375,0.375 -1.359375,0.9375 0,0.234375 0.15625,0.359375 0.359375,0.359375 0.21875,0 0.359375,-0.15625 0.359375,-0.34375 0,-0.203125 -0.140625,-0.359375 -0.359375,-0.375 0.25,-0.296875 0.71875,-0.375 0.984375,-0.375 0.3125,0 0.75,0.15625 0.75,0.75 0,0.296875 -0.09375,0.625 -0.28125,0.828125 -0.21875,0.265625 -0.421875,0.28125 -0.765625,0.3125 -0.171875,0.015625 -0.1875,0.015625 -0.21875,0.015625 -0.015625,0 -0.078125,0.015625 -0.078125,0.09375 0,0.09375 0.0625,0.09375 0.1875,0.09375 z m 0,0"
             id="path7652"
             inkscape:connector-curvature="0" />
        </symbol>
      </g>
    </defs>
    <defs
       id="defs13651">
      <g
         id="g13653">
        <symbol
           id="textext-ba034657-0"
           overflow="visible"
           style="overflow:visible">
          <path
             id="path13656"
             d="m 2.046875,-3.984375 0.9375,0 c 0.203125,0 0.3125,0 0.3125,-0.203125 0,-0.109375 -0.109375,-0.109375 -0.28125,-0.109375 l -0.875,0 C 2.5,-5.71875 2.546875,-5.90625 2.546875,-5.96875 c 0,-0.171875 -0.125,-0.265625 -0.296875,-0.265625 -0.03125,0 -0.3125,0 -0.390625,0.359375 l -0.390625,1.578125 -0.9375,0 c -0.203125,0 -0.296875,0 -0.296875,0.1875 0,0.125 0.078125,0.125 0.28125,0.125 l 0.875,0 C 0.671875,-1.15625 0.625,-0.984375 0.625,-0.8125 0.625,-0.265625 1,0.109375 1.546875,0.109375 2.5625,0.109375 3.125,-1.34375 3.125,-1.421875 3.125,-1.53125 3.046875,-1.53125 3.015625,-1.53125 2.921875,-1.53125 2.90625,-1.5 2.859375,-1.390625 2.4375,-0.34375 1.90625,-0.109375 1.5625,-0.109375 c -0.203125,0 -0.3125,-0.125 -0.3125,-0.453125 0,-0.25 0.03125,-0.3125 0.0625,-0.484375 z m 0,0"
             style="stroke:none"
             inkscape:connector-curvature="0" />
        </symbol>
      </g>
    </defs>
    <defs
       id="defs15731">
      <g
         id="g15733">
        <symbol
           overflow="visible"
           id="textext-e858bbf4-0"
           style="overflow:visible">
          <path
             style="stroke:none"
             d="m 3.015625,-3.15625 1.703125,0 c 1.40625,0 2.796875,-1.03125 2.796875,-2.140625 0,-0.78125 -0.65625,-1.515625 -1.96875,-1.515625 l -3.21875,0 c -0.1875,0 -0.296875,0 -0.296875,0.1875 0,0.125 0.078125,0.125 0.28125,0.125 0.125,0 0.3125,0.015625 0.421875,0.015625 0.171875,0.03125 0.21875,0.046875 0.21875,0.171875 0,0.03125 0,0.0625 -0.03125,0.1875 l -1.34375,5.34375 c -0.09375,0.390625 -0.109375,0.46875 -0.90625,0.46875 -0.15625,0 -0.265625,0 -0.265625,0.1875 C 0.40625,0 0.515625,0 0.546875,0 0.828125,0 1.53125,-0.03125 1.8125,-0.03125 c 0.21875,0 0.4375,0.015625 0.640625,0.015625 0.21875,0 0.4375,0.015625 0.640625,0.015625 0.078125,0 0.203125,0 0.203125,-0.203125 0,-0.109375 -0.09375,-0.109375 -0.28125,-0.109375 -0.359375,0 -0.640625,0 -0.640625,-0.171875 0,-0.0625 0.015625,-0.109375 0.03125,-0.171875 z M 3.734375,-6.125 C 3.828125,-6.46875 3.84375,-6.5 4.28125,-6.5 l 0.953125,0 c 0.828125,0 1.359375,0.265625 1.359375,0.953125 0,0.390625 -0.203125,1.25 -0.59375,1.609375 -0.5,0.453125 -1.09375,0.53125 -1.53125,0.53125 l -1.40625,0 z m 0,0"
             id="path15736"
             inkscape:connector-curvature="0" />
        </symbol>
      </g>
    </defs>
    <defs
       id="defs16039">
      <g
         id="g16041">
        <symbol
           id="textext-47648e7a-0"
           overflow="visible"
           style="overflow:visible">
          <path
             id="path16044"
             d="m 3.015625,-3.15625 1.703125,0 c 1.40625,0 2.796875,-1.03125 2.796875,-2.140625 0,-0.78125 -0.65625,-1.515625 -1.96875,-1.515625 l -3.21875,0 c -0.1875,0 -0.296875,0 -0.296875,0.1875 0,0.125 0.078125,0.125 0.28125,0.125 0.125,0 0.3125,0.015625 0.421875,0.015625 0.171875,0.03125 0.21875,0.046875 0.21875,0.171875 0,0.03125 0,0.0625 -0.03125,0.1875 l -1.34375,5.34375 c -0.09375,0.390625 -0.109375,0.46875 -0.90625,0.46875 -0.15625,0 -0.265625,0 -0.265625,0.1875 C 0.40625,0 0.515625,0 0.546875,0 0.828125,0 1.53125,-0.03125 1.8125,-0.03125 c 0.21875,0 0.4375,0.015625 0.640625,0.015625 0.21875,0 0.4375,0.015625 0.640625,0.015625 0.078125,0 0.203125,0 0.203125,-0.203125 0,-0.109375 -0.09375,-0.109375 -0.28125,-0.109375 -0.359375,0 -0.640625,0 -0.640625,-0.171875 0,-0.0625 0.015625,-0.109375 0.03125,-0.171875 z M 3.734375,-6.125 C 3.828125,-6.46875 3.84375,-6.5 4.28125,-6.5 l 0.953125,0 c 0.828125,0 1.359375,0.265625 1.359375,0.953125 0,0.390625 -0.203125,1.25 -0.59375,1.609375 -0.5,0.453125 -1.09375,0.53125 -1.53125,0.53125 l -1.40625,0 z m 0,0"
             style="stroke:none"
             inkscape:connector-curvature="0" />
        </symbol>
        <symbol
           id="textext-47648e7a-1"
           overflow="visible"
           style="overflow:visible">
          <path
             id="path16047"
             d="m 2.015625,-3.296875 c 0.0625,-0.109375 0.0625,-0.171875 0.0625,-0.21875 0,-0.21875 -0.1875,-0.375 -0.40625,-0.375 -0.265625,0 -0.34375,0.21875 -0.375,0.328125 L 0.375,-0.546875 c -0.015625,0.015625 -0.046875,0.09375 -0.046875,0.109375 0,0.078125 0.21875,0.15625 0.28125,0.15625 0.046875,0 0.046875,-0.015625 0.09375,-0.125 z m 0,0"
             style="stroke:none"
             inkscape:connector-curvature="0" />
        </symbol>
      </g>
    </defs>
    <defs
       id="defs16353">
      <g
         id="g16355">
        <symbol
           overflow="visible"
           id="textext-96ccffc0-0"
           style="overflow:visible">
          <path
             style="stroke:none"
             d="M 3.328125,-3.015625 C 3.390625,-3.265625 3.625,-4.1875 4.3125,-4.1875 c 0.046875,0 0.296875,0 0.5,0.125 C 4.53125,-4 4.34375,-3.765625 4.34375,-3.515625 c 0,0.15625 0.109375,0.34375 0.375,0.34375 0.21875,0 0.53125,-0.171875 0.53125,-0.578125 0,-0.515625 -0.578125,-0.65625 -0.921875,-0.65625 -0.578125,0 -0.921875,0.53125 -1.046875,0.75 -0.25,-0.65625 -0.78125,-0.75 -1.078125,-0.75 -1.03125,0 -1.609375,1.28125 -1.609375,1.53125 0,0.109375 0.109375,0.109375 0.125,0.109375 0.078125,0 0.109375,-0.03125 0.125,-0.109375 0.34375,-1.0625 1,-1.3125 1.34375,-1.3125 0.1875,0 0.53125,0.09375 0.53125,0.671875 0,0.3125 -0.171875,0.96875 -0.53125,2.375 -0.15625,0.609375 -0.515625,1.03125 -0.953125,1.03125 -0.0625,0 -0.28125,0 -0.5,-0.125 0.25,-0.0625 0.46875,-0.265625 0.46875,-0.546875 0,-0.265625 -0.21875,-0.34375 -0.359375,-0.34375 -0.3125,0 -0.546875,0.25 -0.546875,0.578125 0,0.453125 0.484375,0.65625 0.921875,0.65625 0.671875,0 1.03125,-0.703125 1.046875,-0.75 0.125,0.359375 0.484375,0.75 1.078125,0.75 1.03125,0 1.59375,-1.28125 1.59375,-1.53125 0,-0.109375 -0.078125,-0.109375 -0.109375,-0.109375 -0.09375,0 -0.109375,0.046875 -0.140625,0.109375 -0.328125,1.078125 -1,1.3125 -1.3125,1.3125 -0.390625,0 -0.546875,-0.3125 -0.546875,-0.65625 0,-0.21875 0.046875,-0.4375 0.15625,-0.875 z m 0,0"
             id="path16358"
             inkscape:connector-curvature="0" />
        </symbol>
        <symbol
           overflow="visible"
           id="textext-96ccffc0-1"
           style="overflow:visible">
          <path
             style="stroke:none"
             d="m 6.84375,-3.265625 c 0.15625,0 0.34375,0 0.34375,-0.1875 C 7.1875,-3.65625 7,-3.65625 6.859375,-3.65625 l -5.96875,0 c -0.140625,0 -0.328125,0 -0.328125,0.203125 0,0.1875 0.1875,0.1875 0.328125,0.1875 z m 0.015625,1.9375 c 0.140625,0 0.328125,0 0.328125,-0.203125 0,-0.1875 -0.1875,-0.1875 -0.34375,-0.1875 l -5.953125,0 c -0.140625,0 -0.328125,0 -0.328125,0.1875 0,0.203125 0.1875,0.203125 0.328125,0.203125 z m 0,0"
             id="path16361"
             inkscape:connector-curvature="0" />
        </symbol>
        <symbol
           overflow="visible"
           id="textext-96ccffc0-2"
           style="overflow:visible">
          <path
             style="stroke:none"
             d="m 2.9375,-6.375 c 0,-0.25 0,-0.265625 -0.234375,-0.265625 C 2.078125,-6 1.203125,-6 0.890625,-6 l 0,0.3125 c 0.203125,0 0.78125,0 1.296875,-0.265625 l 0,5.171875 c 0,0.359375 -0.03125,0.46875 -0.921875,0.46875 l -0.3125,0 0,0.3125 c 0.34375,-0.03125 1.203125,-0.03125 1.609375,-0.03125 0.390625,0 1.265625,0 1.609375,0.03125 l 0,-0.3125 -0.3125,0 c -0.90625,0 -0.921875,-0.109375 -0.921875,-0.46875 z m 0,0"
             id="path16364"
             inkscape:connector-curvature="0" />
        </symbol>
      </g>
    </defs>
    <defs
       id="defs34296">
      <g
         id="g34298">
        <symbol
           style="overflow:visible"
           overflow="visible"
           id="textext-703fde2e-0">
          <path
             inkscape:connector-curvature="0"
             style="stroke:none"
             d="m 0.875,-0.59375 c -0.03125,0.15625 -0.09375,0.390625 -0.09375,0.4375 0,0.171875 0.140625,0.265625 0.296875,0.265625 0.125,0 0.296875,-0.078125 0.375,-0.28125 0,-0.015625 0.125,-0.484375 0.1875,-0.734375 l 0.21875,-0.890625 C 1.90625,-2.03125 1.96875,-2.25 2.03125,-2.46875 c 0.03125,-0.171875 0.109375,-0.46875 0.125,-0.5 0.140625,-0.3125 0.671875,-1.21875 1.625,-1.21875 0.453125,0 0.53125,0.375 0.53125,0.703125 0,0.609375 -0.484375,1.890625 -0.640625,2.3125 C 3.578125,-0.9375 3.5625,-0.8125 3.5625,-0.703125 c 0,0.46875 0.359375,0.8125 0.828125,0.8125 0.9375,0 1.296875,-1.453125 1.296875,-1.53125 0,-0.109375 -0.078125,-0.109375 -0.109375,-0.109375 -0.109375,0 -0.109375,0.03125 -0.15625,0.1875 -0.203125,0.671875 -0.53125,1.234375 -1.015625,1.234375 -0.171875,0 -0.234375,-0.09375 -0.234375,-0.328125 0,-0.25 0.078125,-0.484375 0.171875,-0.703125 0.1875,-0.53125 0.609375,-1.625 0.609375,-2.203125 0,-0.65625 -0.421875,-1.0625 -1.140625,-1.0625 -0.90625,0 -1.390625,0.640625 -1.5625,0.875 -0.046875,-0.5625 -0.453125,-0.875 -0.921875,-0.875 -0.453125,0 -0.640625,0.390625 -0.734375,0.5625 C 0.421875,-3.5 0.296875,-2.90625 0.296875,-2.875 c 0,0.109375 0.09375,0.109375 0.109375,0.109375 0.109375,0 0.109375,-0.015625 0.171875,-0.234375 0.171875,-0.703125 0.375,-1.1875 0.734375,-1.1875 0.1875,0 0.296875,0.125 0.296875,0.453125 0,0.21875 -0.03125,0.328125 -0.15625,0.84375 z m 0,0"
             id="path34301" />
        </symbol>
        <symbol
           style="overflow:visible"
           overflow="visible"
           id="textext-703fde2e-1">
          <path
             inkscape:connector-curvature="0"
             style="stroke:none"
             d="m 2.046875,-3.984375 0.9375,0 c 0.203125,0 0.3125,0 0.3125,-0.203125 0,-0.109375 -0.109375,-0.109375 -0.28125,-0.109375 l -0.875,0 C 2.5,-5.71875 2.546875,-5.90625 2.546875,-5.96875 c 0,-0.171875 -0.125,-0.265625 -0.296875,-0.265625 -0.03125,0 -0.3125,0 -0.390625,0.359375 l -0.390625,1.578125 -0.9375,0 c -0.203125,0 -0.296875,0 -0.296875,0.1875 0,0.125 0.078125,0.125 0.28125,0.125 l 0.875,0 C 0.671875,-1.15625 0.625,-0.984375 0.625,-0.8125 0.625,-0.265625 1,0.109375 1.546875,0.109375 2.5625,0.109375 3.125,-1.34375 3.125,-1.421875 3.125,-1.53125 3.046875,-1.53125 3.015625,-1.53125 2.921875,-1.53125 2.90625,-1.5 2.859375,-1.390625 2.4375,-0.34375 1.90625,-0.109375 1.5625,-0.109375 c -0.203125,0 -0.3125,-0.125 -0.3125,-0.453125 0,-0.25 0.03125,-0.3125 0.0625,-0.484375 z m 0,0"
             id="path34304" />
        </symbol>
        <symbol
           style="overflow:visible"
           overflow="visible"
           id="textext-703fde2e-2">
          <path
             inkscape:connector-curvature="0"
             style="stroke:none"
             d="m 4.640625,-6.953125 c -0.0625,-0.109375 -0.09375,-0.1875 -0.21875,-0.1875 -0.109375,0 -0.140625,0.046875 -0.21875,0.203125 l -3.53125,6.546875 c -0.078125,0.125 -0.078125,0.15625 -0.078125,0.1875 C 0.59375,0 0.796875,0 0.953125,0 l 6.96875,0 c 0.15625,0 0.34375,0 0.34375,-0.203125 0,-0.046875 -0.015625,-0.078125 -0.0625,-0.15625 z m -0.21875,0.4375 3.3125,6.109375 -6.625,0 z m 0,0"
             id="path34307" />
        </symbol>
      </g>
    </defs>
    <defs
       id="defs63717">
      <g
         id="g63719">
        <symbol
           style="overflow:visible"
           overflow="visible"
           id="symbol63721">
          <path
             inkscape:connector-curvature="0"
             style="stroke:none"
             d="M 3.875,-2.765625 1.890625,-4.75 C 1.765625,-4.875 1.75,-4.890625 1.671875,-4.890625 1.5625,-4.890625 1.46875,-4.8125 1.46875,-4.6875 c 0,0.0625 0.015625,0.078125 0.125,0.1875 l 2,2 -2,2.015625 c -0.109375,0.109375 -0.125,0.125 -0.125,0.1875 0,0.125 0.09375,0.203125 0.203125,0.203125 0.078125,0 0.09375,-0.015625 0.21875,-0.140625 L 3.875,-2.21875 l 2.0625,2.0625 c 0.015625,0.015625 0.078125,0.0625 0.140625,0.0625 0.125,0 0.203125,-0.078125 0.203125,-0.203125 0,-0.015625 0,-0.046875 -0.03125,-0.109375 C 6.234375,-0.421875 4.65625,-1.984375 4.15625,-2.5 l 1.828125,-1.8125 c 0.046875,-0.0625 0.203125,-0.1875 0.25,-0.25 0,-0.015625 0.046875,-0.0625 0.046875,-0.125 0,-0.125 -0.078125,-0.203125 -0.203125,-0.203125 C 6,-4.890625 5.96875,-4.859375 5.859375,-4.75 z m 0,0"
             id="path63723" />
        </symbol>
      </g>
    </defs>
    <pattern
       id="pattern10107"
       patternTransform="matrix(1.1670307,0,0,1.0551727,60.973821,803.70609)"
       height="21"
       width="21"
       patternUnits="userSpaceOnUse">
      <rect
         style="fill:none;stroke:#000000;stroke-width:0.99212599;stroke-miterlimit:4;stroke-opacity:1;stroke-dasharray:none;stroke-dashoffset:0"
         id="rect8664"
         width="20"
         height="20"
         x="0.5"
         y="0.49581909" />
    </pattern>
    <marker
       inkscape:stockid="Arrow1Mend"
       orient="auto"
       refY="0"
       refX="0"
       id="Arrow1Mend-4"
       style="overflow:visible">
      <path
         inkscape:connector-curvature="0"
         id="path7185-9"
         d="M 0,0 5,-5 -12.5,0 5,5 0,0 z"
         style="fill-rule:evenodd;stroke:#000000;stroke-width:1pt;marker-start:none"
         transform="matrix(-0.4,0,0,-0.4,-4,0)" />
    </marker>
    <marker
       inkscape:stockid="Arrow1Mend"
       orient="auto"
       refY="0"
       refX="0"
       id="marker24476"
       style="overflow:visible">
      <path
         inkscape:connector-curvature="0"
         id="path24478"
         d="M 0,0 5,-5 -12.5,0 5,5 0,0 z"
         style="fill-rule:evenodd;stroke:#000000;stroke-width:1pt;marker-start:none"
         transform="matrix(-0.4,0,0,-0.4,-4,0)" />
    </marker>
    <pattern
       patternUnits="userSpaceOnUse"
       width="9.71875"
       height="1"
       patternTransform="matrix(1.1091053,0,0,6.1822039,286.40625,874.10458)"
       id="pattern18088">
      <path
         inkscape:connector-curvature="0"
         id="path18086"
         d="m -0.00587,0.509909 9.73943,0"
         style="fill:none;stroke:#000000;stroke-width:1px;stroke-linecap:butt;stroke-linejoin:miter;stroke-opacity:1" />
    </pattern>
    <pattern
       patternUnits="userSpaceOnUse"
       width="10.65625"
       height="4.98917"
       patternTransform="translate(290.0625,873.82333)"
       id="pattern18817">
      <path
         inkscape:connector-curvature="0"
         id="path18813"
         d="m -0.00984,0.486802 10.65252,0"
         style="fill:none;stroke:#000000;stroke-width:1px;stroke-linecap:butt;stroke-linejoin:miter;stroke-opacity:1" />
      <path
         style="fill:none;stroke:#000000;stroke-width:1px;stroke-linecap:butt;stroke-linejoin:miter;stroke-opacity:1"
         d="m -0.00984,4.4868 10.65252,0"
         id="path18815"
         inkscape:connector-curvature="0" />
    </pattern>
    <pattern
       patternUnits="userSpaceOnUse"
       width="10"
       height="2.5"
       patternTransform="translate(260,871.09375)"
       id="pattern18858">
      <path
         inkscape:connector-curvature="0"
         id="path18854"
         d="m 0,0.2655 10,0"
         style="fill:none;stroke:#000000;stroke-width:0.5;stroke-linecap:butt;stroke-linejoin:miter;stroke-miterlimit:4;stroke-opacity:1;stroke-dasharray:none" />
      <path
         style="fill:none;stroke:#000000;stroke-width:0.5;stroke-linecap:butt;stroke-linejoin:miter;stroke-miterlimit:4;stroke-opacity:1;stroke-dasharray:none"
         d="m 0,2.2655 10,0"
         id="path18856"
         inkscape:connector-curvature="0" />
    </pattern>
    <marker
       style="overflow:visible"
       id="Arrow1Mend-1"
       refX="0"
       refY="0"
       orient="auto"
       inkscape:stockid="Arrow1Mend">
      <path
         transform="matrix(-0.4,0,0,-0.4,-4,0)"
         style="fill-rule:evenodd;stroke:#000000;stroke-width:1pt;marker-start:none"
         d="M 0,0 5,-5 -12.5,0 5,5 0,0 z"
         id="path7185-5"
         inkscape:connector-curvature="0" />
    </marker>
    <marker
       style="overflow:visible"
       id="marker20021"
       refX="0"
       refY="0"
       orient="auto"
       inkscape:stockid="Arrow1Mend">
      <path
         transform="matrix(-0.4,0,0,-0.4,-4,0)"
         style="fill-rule:evenodd;stroke:#000000;stroke-width:1pt;marker-start:none"
         d="M 0,0 5,-5 -12.5,0 5,5 0,0 z"
         id="path20023"
         inkscape:connector-curvature="0" />
    </marker>
    <pattern
       patternUnits="userSpaceOnUse"
       width="10"
       height="2.5"
       patternTransform="translate(260,871.09375)"
       id="pattern18858-0">
      <path
         inkscape:connector-curvature="0"
         id="path18854-5"
         d="m 0,0.2655 10,0"
         style="fill:none;stroke:#000000;stroke-width:0.5;stroke-linecap:butt;stroke-linejoin:miter;stroke-miterlimit:4;stroke-opacity:1;stroke-dasharray:none" />
      <path
         style="fill:none;stroke:#000000;stroke-width:0.5;stroke-linecap:butt;stroke-linejoin:miter;stroke-miterlimit:4;stroke-opacity:1;stroke-dasharray:none"
         d="m 0,2.2655 10,0"
         id="path18856-9"
         inkscape:connector-curvature="0" />
    </pattern>
    <marker
       style="overflow:visible"
       id="marker20029"
       refX="0"
       refY="0"
       orient="auto"
       inkscape:stockid="Arrow1Mend">
      <path
         transform="matrix(-0.4,0,0,-0.4,-4,0)"
         style="fill-rule:evenodd;stroke:#000000;stroke-width:1pt;marker-start:none"
         d="M 0,0 5,-5 -12.5,0 5,5 0,0 z"
         id="path20031"
         inkscape:connector-curvature="0" />
    </marker>
    <marker
       style="overflow:visible"
       id="marker20033"
       refX="0"
       refY="0"
       orient="auto"
       inkscape:stockid="Arrow1Mend">
      <path
         transform="matrix(-0.4,0,0,-0.4,-4,0)"
         style="fill-rule:evenodd;stroke:#000000;stroke-width:1pt;marker-start:none"
         d="M 0,0 5,-5 -12.5,0 5,5 0,0 z"
         id="path20035"
         inkscape:connector-curvature="0" />
    </marker>
    <pattern
       patternUnits="userSpaceOnUse"
       width="10"
       height="2.5"
       patternTransform="translate(260,871.09375)"
       id="pattern20038">
      <path
         inkscape:connector-curvature="0"
         id="path20040"
         d="m 0,0.2655 10,0"
         style="fill:none;stroke:#000000;stroke-width:0.5;stroke-linecap:butt;stroke-linejoin:miter;stroke-miterlimit:4;stroke-opacity:1;stroke-dasharray:none" />
      <path
         style="fill:none;stroke:#000000;stroke-width:0.5;stroke-linecap:butt;stroke-linejoin:miter;stroke-miterlimit:4;stroke-opacity:1;stroke-dasharray:none"
         d="m 0,2.2655 10,0"
         id="path20042"
         inkscape:connector-curvature="0" />
    </pattern>
    <marker
       style="overflow:visible"
       id="marker20033-7"
       refX="0"
       refY="0"
       orient="auto"
       inkscape:stockid="Arrow1Mend">
      <path
         transform="matrix(-0.4,0,0,-0.4,-4,0)"
         style="fill-rule:evenodd;stroke:#000000;stroke-width:1pt;marker-start:none"
         d="M 0,0 5,-5 -12.5,0 5,5 0,0 z"
         id="path20035-6"
         inkscape:connector-curvature="0" />
    </marker>
    <marker
       inkscape:stockid="Arrow1Mend"
       orient="auto"
       refY="0"
       refX="0"
       id="marker20033-5"
       style="overflow:visible">
      <path
         inkscape:connector-curvature="0"
         id="path20035-8"
         d="M 0,0 5,-5 -12.5,0 5,5 0,0 z"
         style="fill-rule:evenodd;stroke:#000000;stroke-width:1pt;marker-start:none"
         transform="matrix(-0.4,0,0,-0.4,-4,0)" />
    </marker>
  </defs>
  <metadata
     id="metadata7">
    <rdf:RDF>
      <cc:Work
         rdf:about="">
        <dc:format>image/svg+xml</dc:format>
        <dc:type
           rdf:resource="http://purl.org/dc/dcmitype/StillImage" />
        <dc:title />
      </cc:Work>
    </rdf:RDF>
  </metadata>
  <g
     inkscape:label="Layer 1"
     inkscape:groupmode="layer"
     id="layer1"
     transform="translate(0,-839.76083)">
    <path
       style="fill:none;stroke:#000000;stroke-width:1px;stroke-linecap:butt;stroke-linejoin:miter;stroke-opacity:1"
       d="m 98,958.35925 180,60.00005"
       id="path11536"
       inkscape:connector-curvature="0"
       sodipodi:nodetypes="cc" />
    <path
       style="fill:none;stroke:#000000;stroke-width:1px;stroke-linecap:butt;stroke-linejoin:miter;stroke-opacity:1;marker-start:url(#Arrow1Mstart);marker-end:url(#marker20033-5)"
       d="m 98,868.35925 0,90 185,0"
       id="path11692"
       inkscape:connector-curvature="0" />
    <g
       transform="matrix(1.2,0,0,1.2,18.9487,798.98633)"
       ns0:text="$x$"
       ns0:preamble="/home/sriranga/Documents/TIFR/vol61-figures/package.tex"
       id="g12183">
      <defs
         id="defs12185">
        <g
           id="g12187">
          <symbol
             style="overflow:visible"
             overflow="visible"
             id="textext-e40a7f9c-0">
            <path
               inkscape:connector-curvature="0"
               style="stroke:none"
               d="M 3.328125,-3.015625 C 3.390625,-3.265625 3.625,-4.1875 4.3125,-4.1875 c 0.046875,0 0.296875,0 0.5,0.125 C 4.53125,-4 4.34375,-3.765625 4.34375,-3.515625 c 0,0.15625 0.109375,0.34375 0.375,0.34375 0.21875,0 0.53125,-0.171875 0.53125,-0.578125 0,-0.515625 -0.578125,-0.65625 -0.921875,-0.65625 -0.578125,0 -0.921875,0.53125 -1.046875,0.75 -0.25,-0.65625 -0.78125,-0.75 -1.078125,-0.75 -1.03125,0 -1.609375,1.28125 -1.609375,1.53125 0,0.109375 0.109375,0.109375 0.125,0.109375 0.078125,0 0.109375,-0.03125 0.125,-0.109375 0.34375,-1.0625 1,-1.3125 1.34375,-1.3125 0.1875,0 0.53125,0.09375 0.53125,0.671875 0,0.3125 -0.171875,0.96875 -0.53125,2.375 -0.15625,0.609375 -0.515625,1.03125 -0.953125,1.03125 -0.0625,0 -0.28125,0 -0.5,-0.125 0.25,-0.0625 0.46875,-0.265625 0.46875,-0.546875 0,-0.265625 -0.21875,-0.34375 -0.359375,-0.34375 -0.3125,0 -0.546875,0.25 -0.546875,0.578125 0,0.453125 0.484375,0.65625 0.921875,0.65625 0.671875,0 1.03125,-0.703125 1.046875,-0.75 0.125,0.359375 0.484375,0.75 1.078125,0.75 1.03125,0 1.59375,-1.28125 1.59375,-1.53125 0,-0.109375 -0.078125,-0.109375 -0.109375,-0.109375 -0.09375,0 -0.109375,0.046875 -0.140625,0.109375 -0.328125,1.078125 -1,1.3125 -1.3125,1.3125 -0.390625,0 -0.546875,-0.3125 -0.546875,-0.65625 0,-0.21875 0.046875,-0.4375 0.15625,-0.875 z m 0,0"
               id="path12190" />
          </symbol>
        </g>
      </defs>
      <g
         id="textext-e40a7f9c-1">
        <g
           style="fill:#000000;fill-opacity:1"
           id="g12193">
          <use
             height="212.59842"
             width="389.76376"
             xlink:href="#textext-e40a7f9c-0"
             x="223.43201"
             y="134.765"
             id="use12195" />
        </g>
      </g>
    </g>
    <g
       id="g12428"
       transform="matrix(1.2,0,0,1.2,-180.18864,707.08911)"
       ns0:preamble="/home/sriranga/Documents/TIFR/vol61-figures/package.tex"
       ns0:text="$y$">
      <defs
         id="defs12430">
        <g
           id="g12432">
          <symbol
             id="textext-2ada3a7a-0"
             overflow="visible"
             style="overflow:visible">
            <path
               id="path12435"
               d="m 4.84375,-3.796875 c 0.046875,-0.140625 0.046875,-0.15625 0.046875,-0.234375 0,-0.171875 -0.140625,-0.265625 -0.296875,-0.265625 -0.09375,0 -0.25,0.0625 -0.34375,0.203125 -0.015625,0.0625 -0.109375,0.359375 -0.140625,0.546875 -0.078125,0.25 -0.140625,0.53125 -0.203125,0.796875 l -0.453125,1.796875 c -0.03125,0.140625 -0.46875,0.84375 -1.125,0.84375 -0.5,0 -0.609375,-0.4375 -0.609375,-0.8125 C 1.71875,-1.375 1.890625,-2 2.21875,-2.875 2.375,-3.28125 2.421875,-3.390625 2.421875,-3.59375 c 0,-0.4375 -0.3125,-0.8125 -0.8125,-0.8125 -0.953125,0 -1.3125,1.453125 -1.3125,1.53125 0,0.109375 0.09375,0.109375 0.109375,0.109375 0.109375,0 0.109375,-0.03125 0.15625,-0.1875 0.28125,-0.9375 0.671875,-1.234375 1.015625,-1.234375 0.078125,0 0.25,0 0.25,0.3125 0,0.25 -0.109375,0.515625 -0.171875,0.703125 -0.40625,1.0625 -0.578125,1.625 -0.578125,2.09375 0,0.890625 0.625,1.1875 1.21875,1.1875 0.390625,0 0.71875,-0.171875 1,-0.453125 -0.125,0.515625 -0.25,1.015625 -0.640625,1.546875 -0.265625,0.328125 -0.640625,0.625 -1.09375,0.625 -0.140625,0 -0.59375,-0.03125 -0.765625,-0.421875 0.15625,0 0.296875,0 0.421875,-0.125 C 1.328125,1.203125 1.421875,1.0625 1.421875,0.875 1.421875,0.5625 1.15625,0.53125 1.0625,0.53125 0.828125,0.53125 0.5,0.6875 0.5,1.171875 c 0,0.5 0.4375,0.875 1.0625,0.875 1.015625,0 2.046875,-0.90625 2.328125,-2.03125 z m 0,0"
               style="stroke:none"
               inkscape:connector-curvature="0" />
          </symbol>
        </g>
      </defs>
      <g
         id="textext-2ada3a7a-1">
        <g
           id="g12438"
           style="fill:#000000;fill-opacity:1">
          <use
             id="use12440"
             y="134.765"
             x="223.43201"
             xlink:href="#textext-2ada3a7a-0"
             width="389.76376"
             height="212.59842" />
        </g>
      </g>
    </g>
    <g
       ns0:text="$\\beta$"
       ns0:preamble="/home/sriranga/Documents/TIFR/vol61-figures/package.tex"
       transform="matrix(1.2,0,0,1.2,-124.87877,807.53977)"
       id="g12671">
      <defs
         id="defs12673">
        <g
           id="g12675">
          <symbol
             style="overflow:visible"
             overflow="visible"
             id="textext-73a6ca92-0">
            <path
               inkscape:connector-curvature="0"
               style="stroke:none"
               d="m 5.734375,-5.671875 c 0,-0.75 -0.546875,-1.359375 -1.359375,-1.359375 -0.578125,0 -0.859375,0.15625 -1.203125,0.40625 C 2.625,-6.21875 2.078125,-5.25 1.890625,-4.5 L 0.296875,1.828125 C 0.296875,1.875 0.34375,1.9375 0.421875,1.9375 0.5,1.9375 0.53125,1.90625 0.53125,1.890625 L 1.234375,-0.875 c 0.1875,0.609375 0.625,0.96875 1.359375,0.96875 C 3.3125,0.09375 4.0625,-0.25 4.515625,-0.6875 5,-1.140625 5.3125,-1.78125 5.3125,-2.515625 c 0,-0.71875 -0.375,-1.25 -0.734375,-1.484375 0.578125,-0.34375 1.15625,-0.953125 1.15625,-1.671875 z M 3.9375,-4.015625 c -0.125,0.046875 -0.234375,0.0625 -0.484375,0.0625 -0.140625,0 -0.328125,0.015625 -0.4375,-0.03125 0.03125,-0.109375 0.390625,-0.078125 0.5,-0.078125 0.203125,0 0.296875,0 0.421875,0.046875 z M 5.171875,-5.90625 c 0,0.703125 -0.375,1.421875 -0.890625,1.734375 C 4,-4.28125 3.8125,-4.296875 3.515625,-4.296875 c -0.21875,0 -0.78125,-0.015625 -0.78125,0.3125 0,0.28125 0.515625,0.25 0.6875,0.25 0.375,0 0.53125,0 0.828125,-0.125 0.375,0.359375 0.421875,0.671875 0.4375,1.125 0.015625,0.578125 -0.21875,1.328125 -0.5,1.71875 C 3.796875,-0.484375 3.125,-0.125 2.5625,-0.125 c -0.765625,0 -1.140625,-0.578125 -1.140625,-1.28125 0,-0.09375 0,-0.25 0.046875,-0.4375 L 2.109375,-4.359375 C 2.328125,-5.21875 3.046875,-6.8125 4.25,-6.8125 c 0.578125,0 0.921875,0.3125 0.921875,0.90625 z m 0,0"
               id="path12678" />
          </symbol>
        </g>
      </defs>
      <g
         id="textext-73a6ca92-1">
        <g
           style="fill:#000000;fill-opacity:1"
           id="g12681">
          <use
             height="212.59842"
             width="389.76376"
             xlink:href="#textext-73a6ca92-0"
             x="223.43201"
             y="134.765"
             id="use12683" />
        </g>
      </g>
    </g>
    <path
       sodipodi:nodetypes="cc"
       inkscape:connector-curvature="0"
       id="path12796"
       d="m 139.62303,958.24675 c 1.93324,4.52579 3.42517,9.02006 -3.7204,12.89737"
       style="fill:none;stroke:#000000;stroke-width:1px;stroke-linecap:butt;stroke-linejoin:miter;stroke-opacity:1" />
    <g
       id="g13719"
       transform="matrix(1.2,0,0,1.2,-114.33698,842.16494)"
       ns0:preamble="/home/sriranga/Documents/TIFR/vol61-figures/package.tex"
       ns0:text="$\\frac{\\partial S}{\\partial n}=0$">
      <defs
         id="defs13721">
        <g
           id="g13723">
          <symbol
             id="textext-7c01356c-0"
             overflow="visible"
             style="overflow:visible">
            <path
               id="path13726"
               d="m 3.65625,-2.359375 c -0.09375,-0.40625 -0.40625,-0.8125 -1.0625,-0.8125 -0.984375,0 -1.78125,0.71875 -2.03125,1.359375 -0.046875,0.109375 -0.140625,0.390625 -0.140625,0.671875 0,0.484375 0.375,1.28125 1.453125,1.28125 1.8125,0 2.546875,-2.25 2.546875,-3.234375 0,-1.203125 -0.78125,-1.875 -1.71875,-1.875 C 1.5625,-4.96875 1.25,-4.0625 1.25,-3.859375 c 0,0.0625 0.046875,0.25 0.28125,0.25 0.25,0 0.390625,-0.203125 0.390625,-0.375 0,-0.1875 -0.140625,-0.25 -0.265625,-0.265625 C 2,-4.78125 2.578125,-4.78125 2.6875,-4.78125 c 0.53125,0 1.140625,0.328125 1.140625,1.328125 0,0.296875 -0.03125,0.546875 -0.15625,1.09375 z m -1.765625,2.28125 c -0.78125,0 -0.875,-0.59375 -0.875,-0.8125 0,-0.265625 0.1875,-0.953125 0.265625,-1.125 0.125,-0.328125 0.546875,-0.96875 1.34375,-0.96875 0.671875,0 0.890625,0.53125 0.890625,0.953125 0,0.46875 -0.453125,1.953125 -1.625,1.953125 z m 0,0"
               style="stroke:none"
               inkscape:connector-curvature="0" />
          </symbol>
          <symbol
             id="textext-7c01356c-1"
             overflow="visible"
             style="overflow:visible">
            <path
               id="path13729"
               d="m 4.953125,-4.8125 c 0,-0.03125 -0.03125,-0.09375 -0.09375,-0.09375 -0.046875,0 -0.046875,0.015625 -0.140625,0.109375 L 4.375,-4.40625 c -0.265625,-0.375 -0.703125,-0.5 -1.125,-0.5 -0.984375,0 -1.859375,0.796875 -1.859375,1.609375 0,0.09375 0.03125,0.375 0.234375,0.640625 0.234375,0.265625 0.5,0.328125 0.96875,0.453125 0.140625,0.03125 0.484375,0.109375 0.59375,0.140625 0.21875,0.046875 0.640625,0.203125 0.640625,0.71875 0,0.5625 -0.59375,1.234375 -1.375,1.234375 -0.625,0 -1.359375,-0.21875 -1.359375,-0.984375 0,-0.078125 0.015625,-0.234375 0.046875,-0.359375 0,-0.03125 0,-0.03125 0,-0.03125 0,-0.09375 -0.078125,-0.09375 -0.109375,-0.09375 -0.09375,0 -0.109375,0.015625 -0.125,0.140625 l -0.359375,1.390625 c -0.015625,0.03125 -0.03125,0.0625 -0.03125,0.109375 0,0.03125 0.03125,0.078125 0.109375,0.078125 0.03125,0 0.046875,-0.015625 0.140625,-0.09375 0.078125,-0.09375 0.25,-0.3125 0.328125,-0.390625 C 1.46875,0.0625 2,0.140625 2.421875,0.140625 c 1.0625,0 1.90625,-0.90625 1.90625,-1.734375 0,-0.296875 -0.125,-0.578125 -0.28125,-0.734375 -0.234375,-0.25 -0.34375,-0.28125 -1.25,-0.5 C 2.65625,-2.859375 2.421875,-2.90625 2.359375,-2.9375 2.1875,-3 1.890625,-3.171875 1.890625,-3.5625 c 0,-0.5625 0.625,-1.109375 1.34375,-1.109375 0.765625,0 1.125,0.421875 1.125,1.078125 0,0.09375 -0.03125,0.25 -0.03125,0.3125 0,0.109375 0.078125,0.109375 0.125,0.109375 0.09375,0 0.109375,-0.046875 0.125,-0.15625 z m 0,0"
               style="stroke:none"
               inkscape:connector-curvature="0" />
          </symbol>
          <symbol
             id="textext-7c01356c-2"
             overflow="visible"
             style="overflow:visible">
            <path
               id="path13732"
               d="m 0.84375,-0.4375 c -0.015625,0.09375 -0.0625,0.265625 -0.0625,0.28125 0,0.15625 0.125,0.21875 0.234375,0.21875 0.125,0 0.234375,-0.078125 0.28125,-0.140625 0.03125,-0.0625 0.078125,-0.296875 0.125,-0.4375 0.03125,-0.125 0.109375,-0.453125 0.140625,-0.625 0.046875,-0.15625 0.09375,-0.3125 0.125,-0.46875 0.078125,-0.28125 0.09375,-0.34375 0.296875,-0.625 C 2.171875,-2.515625 2.5,-2.875 3.03125,-2.875 c 0.390625,0 0.40625,0.359375 0.40625,0.484375 0,0.421875 -0.296875,1.1875 -0.40625,1.484375 -0.078125,0.203125 -0.109375,0.265625 -0.109375,0.375 0,0.375 0.296875,0.59375 0.65625,0.59375 0.703125,0 1,-0.953125 1,-1.0625 0,-0.09375 -0.078125,-0.09375 -0.109375,-0.09375 -0.09375,0 -0.09375,0.046875 -0.125,0.125 C 4.1875,-0.40625 3.875,-0.125 3.609375,-0.125 c -0.15625,0 -0.1875,-0.09375 -0.1875,-0.25 0,-0.15625 0.046875,-0.25 0.171875,-0.5625 0.078125,-0.21875 0.359375,-0.953125 0.359375,-1.34375 0,-0.671875 -0.53125,-0.796875 -0.90625,-0.796875 -0.578125,0 -0.96875,0.359375 -1.171875,0.640625 -0.046875,-0.484375 -0.453125,-0.640625 -0.75,-0.640625 -0.296875,0 -0.453125,0.21875 -0.546875,0.375 -0.15625,0.265625 -0.25,0.65625 -0.25,0.703125 0,0.078125 0.09375,0.078125 0.125,0.078125 0.09375,0 0.09375,-0.015625 0.140625,-0.203125 0.109375,-0.40625 0.25,-0.75 0.515625,-0.75 0.1875,0 0.234375,0.15625 0.234375,0.34375 0,0.125 -0.0625,0.390625 -0.125,0.578125 -0.046875,0.1875 -0.109375,0.46875 -0.140625,0.625 z m 0,0"
               style="stroke:none"
               inkscape:connector-curvature="0" />
          </symbol>
          <symbol
             id="textext-7c01356c-3"
             overflow="visible"
             style="overflow:visible">
            <path
               id="path13735"
               d="m 6.84375,-3.265625 c 0.15625,0 0.34375,0 0.34375,-0.1875 C 7.1875,-3.65625 7,-3.65625 6.859375,-3.65625 l -5.96875,0 c -0.140625,0 -0.328125,0 -0.328125,0.203125 0,0.1875 0.1875,0.1875 0.328125,0.1875 z m 0.015625,1.9375 c 0.140625,0 0.328125,0 0.328125,-0.203125 0,-0.1875 -0.1875,-0.1875 -0.34375,-0.1875 l -5.953125,0 c -0.140625,0 -0.328125,0 -0.328125,0.1875 0,0.203125 0.1875,0.203125 0.328125,0.203125 z m 0,0"
               style="stroke:none"
               inkscape:connector-curvature="0" />
          </symbol>
          <symbol
             id="textext-7c01356c-4"
             overflow="visible"
             style="overflow:visible">
            <path
               id="path13738"
               d="m 4.578125,-3.1875 c 0,-0.796875 -0.046875,-1.59375 -0.390625,-2.328125 -0.453125,-0.96875 -1.28125,-1.125 -1.6875,-1.125 -0.609375,0 -1.328125,0.265625 -1.75,1.1875 -0.3125,0.6875 -0.359375,1.46875 -0.359375,2.265625 0,0.75 0.03125,1.640625 0.453125,2.40625 0.421875,0.796875 1.15625,1 1.640625,1 0.53125,0 1.296875,-0.203125 1.734375,-1.15625 0.3125,-0.6875 0.359375,-1.46875 0.359375,-2.25 z M 2.484375,0 C 2.09375,0 1.5,-0.25 1.328125,-1.203125 1.21875,-1.796875 1.21875,-2.71875 1.21875,-3.3125 c 0,-0.640625 0,-1.296875 0.078125,-1.828125 0.1875,-1.1875 0.9375,-1.28125 1.1875,-1.28125 0.328125,0 0.984375,0.1875 1.171875,1.171875 0.109375,0.5625 0.109375,1.3125 0.109375,1.9375 0,0.75 0,1.421875 -0.109375,2.0625 C 3.5,-0.296875 2.9375,0 2.484375,0 z m 0,0"
               style="stroke:none"
               inkscape:connector-curvature="0" />
          </symbol>
        </g>
      </defs>
      <g
         id="textext-7c01356c-5">
        <g
           id="g13741"
           style="fill:#000000;fill-opacity:1">
          <use
             id="use13743"
             y="130.842"
             x="224.62801"
             xlink:href="#textext-7c01356c-0"
             width="389.76376"
             height="212.59842" />
        </g>
        <g
           id="g13745"
           style="fill:#000000;fill-opacity:1">
          <use
             id="use13747"
             y="130.842"
             x="229.30812"
             xlink:href="#textext-7c01356c-1"
             width="389.76376"
             height="212.59842" />
        </g>
        <path
           id="path13749"
           transform="matrix(1,0,0,-1,224.628,132.274)"
           d="m 9.0625e-4,5.625e-4 9.95703075,0"
           style="fill:none;stroke:#000000;stroke-width:0.398;stroke-linecap:butt;stroke-linejoin:miter;stroke-miterlimit:10;stroke-opacity:1"
           inkscape:connector-curvature="0" />
        <g
           id="g13751"
           style="fill:#000000;fill-opacity:1">
          <use
             id="use13753"
             y="138.2"
             x="224.802"
             xlink:href="#textext-7c01356c-0"
             width="389.76376"
             height="212.59842" />
        </g>
        <g
           id="g13755"
           style="fill:#000000;fill-opacity:1">
          <use
             id="use13757"
             y="138.2"
             x="229.48212"
             xlink:href="#textext-7c01356c-2"
             width="389.76376"
             height="212.59842" />
        </g>
        <g
           id="g13759"
           style="fill:#000000;fill-opacity:1">
          <use
             id="use13761"
             y="134.765"
             x="238.547"
             xlink:href="#textext-7c01356c-3"
             width="389.76376"
             height="212.59842" />
        </g>
        <g
           id="g13763"
           style="fill:#000000;fill-opacity:1">
          <use
             id="use13765"
             y="134.765"
             x="249.06551"
             xlink:href="#textext-7c01356c-4"
             width="389.76376"
             height="212.59842" />
        </g>
      </g>
    </g>
    <g
       ns0:text="$S_y-\\ell S=0$"
       ns0:preamble="/home/sriranga/Documents/TIFR/vol61-figures/package.tex"
       transform="matrix(1.2,0,0,1.2,-103.4451,785.31383)"
       id="g14142">
      <defs
         id="defs14144">
        <g
           id="g14146">
          <symbol
             overflow="visible"
             id="textext-8deb2738-0"
             style="overflow:visible">
            <path
               style="stroke:none"
               d="m 6.4375,-6.921875 c 0,-0.03125 -0.03125,-0.109375 -0.125,-0.109375 -0.046875,0 -0.046875,0.015625 -0.171875,0.15625 L 5.65625,-6.3125 c -0.25,-0.46875 -0.765625,-0.71875 -1.421875,-0.71875 -1.265625,0 -2.453125,1.15625 -2.453125,2.359375 0,0.796875 0.515625,1.265625 1.03125,1.40625 l 1.0625,0.28125 c 0.375,0.09375 0.921875,0.25 0.921875,1.0625 0,0.890625 -0.8125,1.828125 -1.796875,1.828125 -0.640625,0 -1.75,-0.21875 -1.75,-1.453125 0,-0.234375 0.0625,-0.484375 0.0625,-0.53125 0.015625,-0.046875 0.015625,-0.0625 0.015625,-0.078125 0,-0.09375 -0.0625,-0.109375 -0.109375,-0.109375 -0.046875,0 -0.078125,0.015625 -0.109375,0.046875 -0.03125,0.03125 -0.59375,2.3125 -0.59375,2.34375 0,0.046875 0.046875,0.09375 0.109375,0.09375 0.046875,0 0.0625,-0.015625 0.1875,-0.15625 L 1.296875,-0.5 c 0.421875,0.578125 1.109375,0.71875 1.6875,0.71875 1.359375,0 2.53125,-1.328125 2.53125,-2.5625 0,-0.6875 -0.34375,-1.03125 -0.484375,-1.171875 C 4.796875,-3.734375 4.640625,-3.78125 3.765625,-4 3.53125,-4.0625 3.1875,-4.171875 3.09375,-4.1875 2.828125,-4.28125 2.484375,-4.5625 2.484375,-5.09375 c 0,-0.8125 0.796875,-1.65625 1.75,-1.65625 0.8125,0 1.421875,0.4375 1.421875,1.546875 0,0.3125 -0.03125,0.5 -0.03125,0.5625 0,0 0,0.09375 0.109375,0.09375 0.109375,0 0.125,-0.03125 0.15625,-0.203125 z m 0,0"
               id="path14149"
               inkscape:connector-curvature="0" />
          </symbol>
          <symbol
             overflow="visible"
             id="textext-8deb2738-1"
             style="overflow:visible">
            <path
               style="stroke:none"
               d="m 0.15625,-0.984375 c -0.015625,0.03125 -0.046875,0.0625 -0.046875,0.09375 0,0.046875 0.0625,0.140625 0.125,0.140625 C 0.28125,-0.75 0.3125,-0.78125 0.59375,-1.0625 0.671875,-1.140625 0.875,-1.328125 0.953125,-1.40625 1.046875,-0.625 1.328125,0.125 2.0625,0.125 c 0.40625,0 0.75,-0.234375 0.953125,-0.390625 C 3.15625,-0.359375 3.625,-0.75 3.625,-0.84375 c 0,-0.03125 -0.03125,-0.125 -0.109375,-0.125 -0.03125,0 -0.046875,0.015625 -0.140625,0.09375 -0.640625,0.625 -1,0.78125 -1.296875,0.78125 -0.4375,0 -0.609375,-0.53125 -0.609375,-1.296875 0,-0.0625 0.03125,-0.515625 0.0625,-0.578125 C 1.546875,-2 1.546875,-2.015625 1.75,-2.21875 2.546875,-3.015625 3.96875,-4.703125 3.96875,-6.25 c 0,-0.171875 0,-0.78125 -0.59375,-0.78125 -0.828125,0 -1.5625,1.640625 -1.65625,1.875 -0.484375,1.09375 -0.796875,2.25 -0.796875,3.4375 z M 1.578125,-2.375 C 1.59375,-2.5 2.03125,-4.703125 2.59375,-5.875 c 0.265625,-0.53125 0.484375,-0.9375 0.796875,-0.9375 0.34375,0 0.34375,0.359375 0.34375,0.515625 0,1.671875 -1.6875,3.421875 -2.15625,3.921875 z m 0,0"
               id="path14152"
               inkscape:connector-curvature="0" />
          </symbol>
          <symbol
             overflow="visible"
             id="textext-8deb2738-2"
             style="overflow:visible">
            <path
               style="stroke:none"
               d="M 3.875,-2.625 C 3.90625,-2.71875 3.90625,-2.734375 3.90625,-2.78125 3.90625,-2.921875 3.796875,-3 3.671875,-3 3.59375,-3 3.46875,-2.96875 3.390625,-2.84375 3.359375,-2.796875 3.3125,-2.578125 3.28125,-2.4375 L 3.125,-1.859375 c -0.03125,0.171875 -0.25,1.046875 -0.28125,1.125 0,0 -0.3125,0.609375 -0.84375,0.609375 -0.484375,0 -0.484375,-0.453125 -0.484375,-0.578125 0,-0.375 0.15625,-0.8125 0.375,-1.359375 C 1.96875,-2.28125 2,-2.359375 2,-2.484375 2,-2.8125 1.71875,-3.078125 1.34375,-3.078125 0.640625,-3.078125 0.328125,-2.125 0.328125,-2 c 0,0.078125 0.09375,0.078125 0.125,0.078125 0.09375,0 0.09375,-0.03125 0.125,-0.109375 C 0.75,-2.609375 1.046875,-2.875 1.328125,-2.875 1.4375,-2.875 1.5,-2.796875 1.5,-2.640625 c 0,0.171875 -0.0625,0.3125 -0.09375,0.40625 C 1.0625,-1.375 1,-1.125 1,-0.8125 1,-0.703125 1,-0.375 1.265625,-0.140625 1.484375,0.03125 1.78125,0.0625 1.96875,0.0625 2.25,0.0625 2.5,-0.03125 2.71875,-0.25 2.640625,0.140625 2.5625,0.4375 2.265625,0.78125 2.078125,1 1.796875,1.21875 1.421875,1.21875 c -0.046875,0 -0.375,0 -0.515625,-0.21875 0.375,-0.046875 0.375,-0.375 0.375,-0.390625 0,-0.21875 -0.203125,-0.265625 -0.265625,-0.265625 -0.171875,0 -0.40625,0.140625 -0.40625,0.46875 0,0.34375 0.328125,0.609375 0.828125,0.609375 C 2.140625,1.421875 3,0.875 3.21875,0 z m 0,0"
               id="path14155"
               inkscape:connector-curvature="0" />
          </symbol>
          <symbol
             overflow="visible"
             id="textext-8deb2738-3"
             style="overflow:visible">
            <path
               style="stroke:none"
               d="m 6.5625,-2.296875 c 0.171875,0 0.359375,0 0.359375,-0.203125 0,-0.1875 -0.1875,-0.1875 -0.359375,-0.1875 l -5.390625,0 c -0.171875,0 -0.34375,0 -0.34375,0.1875 0,0.203125 0.171875,0.203125 0.34375,0.203125 z m 0,0"
               id="path14158"
               inkscape:connector-curvature="0" />
          </symbol>
          <symbol
             overflow="visible"
             id="textext-8deb2738-4"
             style="overflow:visible">
            <path
               style="stroke:none"
               d="m 6.84375,-3.265625 c 0.15625,0 0.34375,0 0.34375,-0.1875 C 7.1875,-3.65625 7,-3.65625 6.859375,-3.65625 l -5.96875,0 c -0.140625,0 -0.328125,0 -0.328125,0.203125 0,0.1875 0.1875,0.1875 0.328125,0.1875 z m 0.015625,1.9375 c 0.140625,0 0.328125,0 0.328125,-0.203125 0,-0.1875 -0.1875,-0.1875 -0.34375,-0.1875 l -5.953125,0 c -0.140625,0 -0.328125,0 -0.328125,0.1875 0,0.203125 0.1875,0.203125 0.328125,0.203125 z m 0,0"
               id="path14161"
               inkscape:connector-curvature="0" />
          </symbol>
          <symbol
             overflow="visible"
             id="textext-8deb2738-5"
             style="overflow:visible">
            <path
               style="stroke:none"
               d="m 4.578125,-3.1875 c 0,-0.796875 -0.046875,-1.59375 -0.390625,-2.328125 -0.453125,-0.96875 -1.28125,-1.125 -1.6875,-1.125 -0.609375,0 -1.328125,0.265625 -1.75,1.1875 -0.3125,0.6875 -0.359375,1.46875 -0.359375,2.265625 0,0.75 0.03125,1.640625 0.453125,2.40625 0.421875,0.796875 1.15625,1 1.640625,1 0.53125,0 1.296875,-0.203125 1.734375,-1.15625 0.3125,-0.6875 0.359375,-1.46875 0.359375,-2.25 z M 2.484375,0 C 2.09375,0 1.5,-0.25 1.328125,-1.203125 1.21875,-1.796875 1.21875,-2.71875 1.21875,-3.3125 c 0,-0.640625 0,-1.296875 0.078125,-1.828125 0.1875,-1.1875 0.9375,-1.28125 1.1875,-1.28125 0.328125,0 0.984375,0.1875 1.171875,1.171875 0.109375,0.5625 0.109375,1.3125 0.109375,1.9375 0,0.75 0,1.421875 -0.109375,2.0625 C 3.5,-0.296875 2.9375,0 2.484375,0 z m 0,0"
               id="path14164"
               inkscape:connector-curvature="0" />
          </symbol>
        </g>
      </defs>
      <g
         id="textext-8deb2738-6">
        <g
           style="fill:#000000;fill-opacity:1"
           id="g14167">
          <use
             xlink:href="#textext-8deb2738-0"
             x="223.43201"
             y="134.765"
             id="use14169"
             width="389.76376"
             height="212.59842" />
        </g>
        <g
           style="fill:#000000;fill-opacity:1"
           id="g14171">
          <use
             xlink:href="#textext-8deb2738-2"
             x="229.541"
             y="136.259"
             id="use14173"
             width="389.76376"
             height="212.59842" />
        </g>
        <g
           style="fill:#000000;fill-opacity:1"
           id="g14175">
          <use
             xlink:href="#textext-8deb2738-3"
             x="236.54401"
             y="134.765"
             id="use14177"
             width="389.76376"
             height="212.59842" />
        </g>
        <g
           style="fill:#000000;fill-opacity:1"
           id="g14179">
          <use
             xlink:href="#textext-8deb2738-1"
             x="246.506"
             y="134.765"
             id="use14181"
             width="389.76376"
             height="212.59842" />
          <use
             xlink:href="#textext-8deb2738-0"
             x="250.65741"
             y="134.765"
             id="use14183"
             width="389.76376"
             height="212.59842" />
        </g>
        <g
           style="fill:#000000;fill-opacity:1"
           id="g14185">
          <use
             xlink:href="#textext-8deb2738-4"
             x="260.108"
             y="134.765"
             id="use14187"
             width="389.76376"
             height="212.59842" />
        </g>
        <g
           style="fill:#000000;fill-opacity:1"
           id="g14189">
          <use
             xlink:href="#textext-8deb2738-5"
             x="270.62653"
             y="134.765"
             id="use14191"
             width="389.76376"
             height="212.59842" />
        </g>
      </g>
    </g>
    <g
       id="g14564"
       transform="matrix(1.2,0,0,1.2,-45.698586,822.86057)"
       ns0:preamble="/home/sriranga/Documents/TIFR/vol61-figures/package.tex"
       ns0:text="$S_{xx}+ S_{yy}=0$">
      <defs
         id="defs14566">
        <g
           id="g14568">
          <symbol
             id="textext-c2561343-0"
             overflow="visible"
             style="overflow:visible">
            <path
               id="path14571"
               d="m 6.4375,-6.921875 c 0,-0.03125 -0.03125,-0.109375 -0.125,-0.109375 -0.046875,0 -0.046875,0.015625 -0.171875,0.15625 L 5.65625,-6.3125 c -0.25,-0.46875 -0.765625,-0.71875 -1.421875,-0.71875 -1.265625,0 -2.453125,1.15625 -2.453125,2.359375 0,0.796875 0.515625,1.265625 1.03125,1.40625 l 1.0625,0.28125 c 0.375,0.09375 0.921875,0.25 0.921875,1.0625 0,0.890625 -0.8125,1.828125 -1.796875,1.828125 -0.640625,0 -1.75,-0.21875 -1.75,-1.453125 0,-0.234375 0.0625,-0.484375 0.0625,-0.53125 0.015625,-0.046875 0.015625,-0.0625 0.015625,-0.078125 0,-0.09375 -0.0625,-0.109375 -0.109375,-0.109375 -0.046875,0 -0.078125,0.015625 -0.109375,0.046875 -0.03125,0.03125 -0.59375,2.3125 -0.59375,2.34375 0,0.046875 0.046875,0.09375 0.109375,0.09375 0.046875,0 0.0625,-0.015625 0.1875,-0.15625 L 1.296875,-0.5 c 0.421875,0.578125 1.109375,0.71875 1.6875,0.71875 1.359375,0 2.53125,-1.328125 2.53125,-2.5625 0,-0.6875 -0.34375,-1.03125 -0.484375,-1.171875 C 4.796875,-3.734375 4.640625,-3.78125 3.765625,-4 3.53125,-4.0625 3.1875,-4.171875 3.09375,-4.1875 2.828125,-4.28125 2.484375,-4.5625 2.484375,-5.09375 c 0,-0.8125 0.796875,-1.65625 1.75,-1.65625 0.8125,0 1.421875,0.4375 1.421875,1.546875 0,0.3125 -0.03125,0.5 -0.03125,0.5625 0,0 0,0.09375 0.109375,0.09375 0.109375,0 0.125,-0.03125 0.15625,-0.203125 z m 0,0"
               style="stroke:none"
               inkscape:connector-curvature="0" />
          </symbol>
          <symbol
             id="textext-c2561343-1"
             overflow="visible"
             style="overflow:visible">
            <path
               id="path14574"
               d="M 1.734375,-0.734375 C 1.671875,-0.5 1.4375,-0.125 1.078125,-0.125 c -0.015625,0 -0.234375,0 -0.375,-0.09375 0.28125,-0.09375 0.3125,-0.34375 0.3125,-0.390625 0,-0.15625 -0.125,-0.25 -0.28125,-0.25 -0.203125,0 -0.40625,0.15625 -0.40625,0.421875 0,0.34375 0.390625,0.5 0.734375,0.5 0.328125,0 0.609375,-0.1875 0.78125,-0.484375 C 2.015625,-0.0625 2.390625,0.0625 2.671875,0.0625 c 0.8125,0 1.234375,-0.859375 1.234375,-1.0625 0,-0.09375 -0.09375,-0.09375 -0.109375,-0.09375 -0.109375,0 -0.109375,0.046875 -0.140625,0.125 -0.140625,0.484375 -0.5625,0.84375 -0.953125,0.84375 -0.28125,0 -0.421875,-0.1875 -0.421875,-0.453125 0,-0.1875 0.171875,-0.8125 0.359375,-1.59375 C 2.78125,-2.703125 3.09375,-2.875 3.328125,-2.875 c 0.015625,0 0.21875,0 0.375,0.09375 -0.21875,0.0625 -0.3125,0.265625 -0.3125,0.390625 0,0.140625 0.125,0.25 0.28125,0.25 0.15625,0 0.390625,-0.125 0.390625,-0.421875 0,-0.390625 -0.453125,-0.515625 -0.71875,-0.515625 -0.359375,0 -0.640625,0.234375 -0.78125,0.5 -0.125,-0.28125 -0.453125,-0.5 -0.84375,-0.5 C 0.9375,-3.078125 0.5,-2.21875 0.5,-2 c 0,0.078125 0.09375,0.078125 0.109375,0.078125 0.09375,0 0.09375,-0.015625 0.140625,-0.109375 C 0.921875,-2.578125 1.359375,-2.875 1.703125,-2.875 1.9375,-2.875 2.125,-2.75 2.125,-2.421875 2.125,-2.28125 2.03125,-1.9375 1.96875,-1.6875 z m 0,0"
               style="stroke:none"
               inkscape:connector-curvature="0" />
          </symbol>
          <symbol
             id="textext-c2561343-2"
             overflow="visible"
             style="overflow:visible">
            <path
               id="path14577"
               d="M 3.875,-2.625 C 3.90625,-2.71875 3.90625,-2.734375 3.90625,-2.78125 3.90625,-2.921875 3.796875,-3 3.671875,-3 3.59375,-3 3.46875,-2.96875 3.390625,-2.84375 3.359375,-2.796875 3.3125,-2.578125 3.28125,-2.4375 L 3.125,-1.859375 c -0.03125,0.171875 -0.25,1.046875 -0.28125,1.125 0,0 -0.3125,0.609375 -0.84375,0.609375 -0.484375,0 -0.484375,-0.453125 -0.484375,-0.578125 0,-0.375 0.15625,-0.8125 0.375,-1.359375 C 1.96875,-2.28125 2,-2.359375 2,-2.484375 2,-2.8125 1.71875,-3.078125 1.34375,-3.078125 0.640625,-3.078125 0.328125,-2.125 0.328125,-2 c 0,0.078125 0.09375,0.078125 0.125,0.078125 0.09375,0 0.09375,-0.03125 0.125,-0.109375 C 0.75,-2.609375 1.046875,-2.875 1.328125,-2.875 1.4375,-2.875 1.5,-2.796875 1.5,-2.640625 c 0,0.171875 -0.0625,0.3125 -0.09375,0.40625 C 1.0625,-1.375 1,-1.125 1,-0.8125 1,-0.703125 1,-0.375 1.265625,-0.140625 1.484375,0.03125 1.78125,0.0625 1.96875,0.0625 2.25,0.0625 2.5,-0.03125 2.71875,-0.25 2.640625,0.140625 2.5625,0.4375 2.265625,0.78125 2.078125,1 1.796875,1.21875 1.421875,1.21875 c -0.046875,0 -0.375,0 -0.515625,-0.21875 0.375,-0.046875 0.375,-0.375 0.375,-0.390625 0,-0.21875 -0.203125,-0.265625 -0.265625,-0.265625 -0.171875,0 -0.40625,0.140625 -0.40625,0.46875 0,0.34375 0.328125,0.609375 0.828125,0.609375 C 2.140625,1.421875 3,0.875 3.21875,0 z m 0,0"
               style="stroke:none"
               inkscape:connector-curvature="0" />
          </symbol>
          <symbol
             id="textext-c2561343-3"
             overflow="visible"
             style="overflow:visible">
            <path
               id="path14580"
               d="m 4.078125,-2.296875 2.78125,0 C 7,-2.296875 7.1875,-2.296875 7.1875,-2.5 7.1875,-2.6875 7,-2.6875 6.859375,-2.6875 l -2.78125,0 0,-2.796875 c 0,-0.140625 0,-0.328125 -0.203125,-0.328125 -0.203125,0 -0.203125,0.1875 -0.203125,0.328125 l 0,2.796875 -2.78125,0 c -0.140625,0 -0.328125,0 -0.328125,0.1875 0,0.203125 0.1875,0.203125 0.328125,0.203125 l 2.78125,0 0,2.796875 c 0,0.140625 0,0.328125 0.203125,0.328125 0.203125,0 0.203125,-0.1875 0.203125,-0.328125 z m 0,0"
               style="stroke:none"
               inkscape:connector-curvature="0" />
          </symbol>
          <symbol
             id="textext-c2561343-4"
             overflow="visible"
             style="overflow:visible">
            <path
               id="path14583"
               d="m 6.84375,-3.265625 c 0.15625,0 0.34375,0 0.34375,-0.1875 C 7.1875,-3.65625 7,-3.65625 6.859375,-3.65625 l -5.96875,0 c -0.140625,0 -0.328125,0 -0.328125,0.203125 0,0.1875 0.1875,0.1875 0.328125,0.1875 z m 0.015625,1.9375 c 0.140625,0 0.328125,0 0.328125,-0.203125 0,-0.1875 -0.1875,-0.1875 -0.34375,-0.1875 l -5.953125,0 c -0.140625,0 -0.328125,0 -0.328125,0.1875 0,0.203125 0.1875,0.203125 0.328125,0.203125 z m 0,0"
               style="stroke:none"
               inkscape:connector-curvature="0" />
          </symbol>
          <symbol
             id="textext-c2561343-5"
             overflow="visible"
             style="overflow:visible">
            <path
               id="path14586"
               d="m 4.578125,-3.1875 c 0,-0.796875 -0.046875,-1.59375 -0.390625,-2.328125 -0.453125,-0.96875 -1.28125,-1.125 -1.6875,-1.125 -0.609375,0 -1.328125,0.265625 -1.75,1.1875 -0.3125,0.6875 -0.359375,1.46875 -0.359375,2.265625 0,0.75 0.03125,1.640625 0.453125,2.40625 0.421875,0.796875 1.15625,1 1.640625,1 0.53125,0 1.296875,-0.203125 1.734375,-1.15625 0.3125,-0.6875 0.359375,-1.46875 0.359375,-2.25 z M 2.484375,0 C 2.09375,0 1.5,-0.25 1.328125,-1.203125 1.21875,-1.796875 1.21875,-2.71875 1.21875,-3.3125 c 0,-0.640625 0,-1.296875 0.078125,-1.828125 0.1875,-1.1875 0.9375,-1.28125 1.1875,-1.28125 0.328125,0 0.984375,0.1875 1.171875,1.171875 0.109375,0.5625 0.109375,1.3125 0.109375,1.9375 0,0.75 0,1.421875 -0.109375,2.0625 C 3.5,-0.296875 2.9375,0 2.484375,0 z m 0,0"
               style="stroke:none"
               inkscape:connector-curvature="0" />
          </symbol>
        </g>
      </defs>
      <g
         id="textext-c2561343-6">
        <g
           id="g14589"
           style="fill:#000000;fill-opacity:1">
          <use
             id="use14591"
             y="134.765"
             x="223.43201"
             xlink:href="#textext-c2561343-0"
             width="389.76376"
             height="212.59842" />
        </g>
        <g
           id="g14593"
           style="fill:#000000;fill-opacity:1">
          <use
             id="use14595"
             y="136.259"
             x="229.541"
             xlink:href="#textext-c2561343-1"
             width="389.76376"
             height="212.59842" />
          <use
             id="use14597"
             y="136.259"
             x="234.05862"
             xlink:href="#textext-c2561343-1"
             width="389.76376"
             height="212.59842" />
        </g>
        <g
           id="g14599"
           style="fill:#000000;fill-opacity:1">
          <use
             id="use14601"
             y="134.765"
             x="241.289"
             xlink:href="#textext-c2561343-3"
             width="389.76376"
             height="212.59842" />
        </g>
        <g
           id="g14603"
           style="fill:#000000;fill-opacity:1">
          <use
             id="use14605"
             y="134.765"
             x="251.25101"
             xlink:href="#textext-c2561343-0"
             width="389.76376"
             height="212.59842" />
        </g>
        <g
           id="g14607"
           style="fill:#000000;fill-opacity:1">
          <use
             id="use14609"
             y="136.259"
             x="257.35999"
             xlink:href="#textext-c2561343-2"
             width="389.76376"
             height="212.59842" />
        </g>
        <g
           id="g14611"
           style="fill:#000000;fill-opacity:1">
          <use
             id="use14613"
             y="136.259"
             x="261.65167"
             xlink:href="#textext-c2561343-2"
             width="389.76376"
             height="212.59842" />
        </g>
        <g
           id="g14615"
           style="fill:#000000;fill-opacity:1">
          <use
             id="use14617"
             y="134.765"
             x="269.207"
             xlink:href="#textext-c2561343-4"
             width="389.76376"
             height="212.59842" />
        </g>
        <g
           id="g14619"
           style="fill:#000000;fill-opacity:1">
          <use
             id="use14621"
             y="134.765"
             x="279.72552"
             xlink:href="#textext-c2561343-5"
             width="389.76376"
             height="212.59842" />
        </g>
      </g>
    </g>
  </g>
</svg>
