<?xml version="1.0" encoding="UTF-8" standalone="no"?>
<!-- Created with Inkscape (http://www.inkscape.org/) -->

<svg
   xmlns:dc="http://purl.org/dc/elements/1.1/"
   xmlns:cc="http://creativecommons.org/ns#"
   xmlns:rdf="http://www.w3.org/1999/02/22-rdf-syntax-ns#"
   xmlns:svg="http://www.w3.org/2000/svg"
   xmlns="http://www.w3.org/2000/svg"
   xmlns:sodipodi="http://sodipodi.sourceforge.net/DTD/sodipodi-0.dtd"
   xmlns:inkscape="http://www.inkscape.org/namespaces/inkscape"
   width="354.33069"
   height="566.92914"
   id="svg2"
   version="1.1"
   inkscape:version="0.48.4 r9939"
   sodipodi:docname="fig_20.eps">
  <sodipodi:namedview
     id="base"
     pagecolor="#ffffff"
     bordercolor="#666666"
     borderopacity="1.0"
     inkscape:pageopacity="0.0"
     inkscape:pageshadow="2"
     inkscape:zoom="1.0530417"
     inkscape:cx="177.16534"
     inkscape:cy="283.46457"
     inkscape:document-units="cm"
     inkscape:current-layer="layer1"
     showgrid="false"
     units="cm"
     inkscape:object-nodes="true"
     inkscape:window-width="1366"
     inkscape:window-height="744"
     inkscape:window-x="0"
     inkscape:window-y="24"
     inkscape:window-maximized="1">
    <inkscape:grid
       snapvisiblegridlinesonly="true"
       enabled="true"
       visible="true"
       empspacing="5"
       id="grid2985"
       type="xygrid" />
  </sodipodi:namedview>
  <defs
     id="defs4" />
  <metadata
     id="metadata7">
    <rdf:RDF>
      <cc:Work
         rdf:about="">
        <dc:format>image/svg+xml</dc:format>
        <dc:type
           rdf:resource="http://purl.org/dc/dcmitype/StillImage" />
        <dc:title></dc:title>
      </cc:Work>
    </rdf:RDF>
  </metadata>
  <g
     transform="translate(0,-485.43175)"
     id="layer1"
     inkscape:groupmode="layer"
     inkscape:label="Layer 1">
    <path
       inkscape:transform-center-y="-15.414516"
       sodipodi:nodetypes="ccccccc"
       inkscape:connector-curvature="0"
       id="path2995"
       d="M 66.100426,667.36088 75,651.94638 l 8.899576,15.4145 0,0 L 75,682.7754 66.100426,667.36088 z"
       style="fill:none;stroke:#000000;stroke-width:1;stroke-linecap:round;stroke-linejoin:round;stroke-miterlimit:4;stroke-opacity:1;stroke-dasharray:none;stroke-dashoffset:0" />
    <path
       inkscape:transform-center-y="15.414503"
       style="fill:#b3b3b3;stroke:#000000;stroke-width:1;stroke-linecap:round;stroke-linejoin:round;stroke-miterlimit:4;stroke-opacity:1;stroke-dasharray:none;stroke-dashoffset:0"
       d="M 83.899576,698.18991 75,713.60442 l -8.899574,-15.41451 0,0 L 75,682.7754 l 8.899576,15.41451 z"
       id="path2999"
       inkscape:connector-curvature="0"
       sodipodi:nodetypes="ccccccc" />
    <path
       inkscape:transform-center-x="-13.34936"
       style="fill:none;stroke:#000000;stroke-width:1;stroke-linecap:round;stroke-linejoin:round;stroke-miterlimit:4;stroke-opacity:1;stroke-dasharray:none;stroke-dashoffset:0"
       d="m 83.899576,667.36088 17.799144,0 -8.899576,15.41452 0,0 -17.799144,0 8.899576,-15.41452 z"
       id="path3001"
       inkscape:connector-curvature="0"
       sodipodi:nodetypes="ccccccc"
       inkscape:transform-center-y="-7.707266" />
    <path
       inkscape:transform-center-x="13.34936"
       sodipodi:nodetypes="ccccccc"
       inkscape:connector-curvature="0"
       id="path3003"
       d="m 66.100426,698.18991 -17.799146,0 8.899574,-15.41451 0,0 17.799146,0 -8.899574,15.41451 z"
       style="fill:none;stroke:#000000;stroke-width:1;stroke-linecap:round;stroke-linejoin:round;stroke-miterlimit:4;stroke-opacity:1;stroke-dasharray:none;stroke-dashoffset:0"
       inkscape:transform-center-y="7.7072482" />
    <path
       inkscape:transform-center-y="7.7072482"
       sodipodi:nodetypes="ccccccc"
       inkscape:connector-curvature="0"
       id="path3005"
       d="m 92.799144,682.7754 8.899576,15.41451 -17.799144,0 0,0 L 75,682.7754 l 17.799144,0 z"
       style="fill:none;stroke:#000000;stroke-width:1;stroke-linecap:round;stroke-linejoin:round;stroke-miterlimit:4;stroke-opacity:1;stroke-dasharray:none;stroke-dashoffset:0"
       inkscape:transform-center-x="-13.34936" />
    <path
       style="fill:none;stroke:#000000;stroke-width:1;stroke-linecap:round;stroke-linejoin:round;stroke-miterlimit:4;stroke-opacity:1;stroke-dasharray:none;stroke-dashoffset:0"
       d="m 92.799168,651.94637 8.899552,15.41451 -17.79913,1e-5 0,0 -8.899571,-15.41452 17.799149,0 z"
       id="path3114"
       inkscape:connector-curvature="0"
       sodipodi:nodetypes="ccccccc" />
    <path
       style="fill:none;stroke:#000000;stroke-width:1;stroke-linecap:round;stroke-linejoin:round;stroke-miterlimit:4;stroke-opacity:1;stroke-dasharray:none;stroke-dashoffset:0"
       d="m 92.79915,682.77538 8.89957,-15.4145 8.89958,15.4145 0,0 -8.89958,15.41452 -8.89957,-15.41452 z"
       id="path3116"
       inkscape:connector-curvature="0"
       sodipodi:nodetypes="ccccccc"
       inkscape:transform-center-y="-15.414516" />
    <path
       style="fill:none;stroke:#000000;stroke-width:1;stroke-linecap:round;stroke-linejoin:round;stroke-miterlimit:4;stroke-opacity:1;stroke-dasharray:none;stroke-dashoffset:0"
       d="m 92.799168,651.94637 8.899572,-15.4145 8.89958,15.4145 0,0 -8.89958,15.41452 -8.899572,-15.41452 z"
       id="path3118"
       inkscape:connector-curvature="0"
       sodipodi:nodetypes="ccccccc"
       inkscape:transform-center-y="-15.414516" />
    <path
       inkscape:transform-center-x="-13.34936"
       style="fill:none;stroke:#000000;stroke-width:1;stroke-linecap:round;stroke-linejoin:round;stroke-miterlimit:4;stroke-opacity:1;stroke-dasharray:none;stroke-dashoffset:0"
       d="m 119.49789,667.36089 8.89957,15.41451 -17.79914,0 0,0 -8.89958,-15.41451 17.79915,0 z"
       id="path3120"
       inkscape:connector-curvature="0"
       sodipodi:nodetypes="ccccccc"
       inkscape:transform-center-y="7.7072482" />
    <path
       sodipodi:nodetypes="ccccccc"
       inkscape:connector-curvature="0"
       id="path3122"
       d="m 119.49791,636.53186 8.89955,15.41451 -17.79913,10e-6 0,0 -8.89957,-15.41452 17.79915,0 z"
       style="fill:none;stroke:#000000;stroke-width:1;stroke-linecap:round;stroke-linejoin:round;stroke-miterlimit:4;stroke-opacity:1;stroke-dasharray:none;stroke-dashoffset:0" />
    <path
       inkscape:transform-center-y="-15.414516"
       sodipodi:nodetypes="ccccccc"
       inkscape:connector-curvature="0"
       id="path3124"
       d="m 119.49789,667.36087 8.89957,-15.4145 8.89958,15.4145 0,0 -8.89958,15.41452 -8.89957,-15.41452 z"
       style="fill:none;stroke:#000000;stroke-width:1;stroke-linecap:round;stroke-linejoin:round;stroke-miterlimit:4;stroke-opacity:1;stroke-dasharray:none;stroke-dashoffset:0" />
    <path
       sodipodi:nodetypes="ccccccc"
       inkscape:connector-curvature="0"
       id="path3126"
       d="m 137.29704,698.18991 -8.89957,15.41451 -8.89958,-15.41451 0,0 8.89958,-15.41451 8.89957,15.41451 z"
       style="fill:none;stroke:#000000;stroke-width:1;stroke-linecap:round;stroke-linejoin:round;stroke-miterlimit:4;stroke-opacity:1;stroke-dasharray:none;stroke-dashoffset:0"
       inkscape:transform-center-y="15.414503" />
    <path
       inkscape:transform-center-y="7.7072482"
       style="fill:none;stroke:#000000;stroke-width:1;stroke-linecap:round;stroke-linejoin:round;stroke-miterlimit:4;stroke-opacity:1;stroke-dasharray:none;stroke-dashoffset:0"
       d="m 119.49789,698.18991 -17.79914,0 8.89957,-15.41451 0,0 17.79915,0 -8.89958,15.41451 z"
       id="path3128"
       inkscape:connector-curvature="0"
       sodipodi:nodetypes="ccccccc"
       inkscape:transform-center-x="13.34936" />
    <path
       inkscape:transform-center-x="-13.34936"
       style="fill:none;stroke:#000000;stroke-width:1;stroke-linecap:round;stroke-linejoin:round;stroke-miterlimit:4;stroke-opacity:1;stroke-dasharray:none;stroke-dashoffset:0"
       d="m 146.19661,682.7754 8.89958,15.41451 -17.79915,0 0,0 -8.89957,-15.41451 17.79914,0 z"
       id="path3130"
       inkscape:connector-curvature="0"
       sodipodi:nodetypes="ccccccc"
       inkscape:transform-center-y="7.7072482" />
    <path
       inkscape:transform-center-x="13.34936"
       sodipodi:nodetypes="ccccccc"
       inkscape:connector-curvature="0"
       id="path3132"
       d="m 146.19661,682.7754 -17.79914,0 8.89957,-15.41451 0,0 17.79915,0 -8.89958,15.41451 z"
       style="fill:none;stroke:#000000;stroke-width:1;stroke-linecap:round;stroke-linejoin:round;stroke-miterlimit:4;stroke-opacity:1;stroke-dasharray:none;stroke-dashoffset:0"
       inkscape:transform-center-y="7.7072482" />
    <path
       inkscape:transform-center-y="15.414503"
       style="fill:none;stroke:#000000;stroke-width:1;stroke-linecap:round;stroke-linejoin:round;stroke-miterlimit:4;stroke-opacity:1;stroke-dasharray:none;stroke-dashoffset:0"
       d="m 110.59829,713.60442 -8.89957,15.41451 -8.89958,-15.41451 0,0 8.89958,-15.41451 8.89957,15.41451 z"
       id="path3134"
       inkscape:connector-curvature="0"
       sodipodi:nodetypes="ccccccc" />
    <path
       inkscape:transform-center-x="13.34936"
       sodipodi:nodetypes="ccccccc"
       inkscape:connector-curvature="0"
       id="path3136"
       d="m 92.79914,713.60442 -17.79914,0 8.89957,-15.41451 0,0 17.79915,0 -8.89958,15.41451 z"
       style="fill:none;stroke:#000000;stroke-width:1;stroke-linecap:round;stroke-linejoin:round;stroke-miterlimit:4;stroke-opacity:1;stroke-dasharray:none;stroke-dashoffset:0"
       inkscape:transform-center-y="7.7072482" />
    <path
       inkscape:transform-center-y="7.7072482"
       sodipodi:nodetypes="ccccccc"
       inkscape:connector-curvature="0"
       id="path3138"
       d="m 119.49786,698.18991 8.89958,15.41451 -17.79915,0 0,0 -8.89957,-15.41451 17.79914,0 z"
       style="fill:none;stroke:#000000;stroke-width:1;stroke-linecap:round;stroke-linejoin:round;stroke-miterlimit:4;stroke-opacity:1;stroke-dasharray:none;stroke-dashoffset:0"
       inkscape:transform-center-x="-13.34936" />
    <path
       sodipodi:nodetypes="ccccccc"
       inkscape:connector-curvature="0"
       id="path3140"
       d="m 57.200856,651.94637 -8.899576,15.41451 -8.899574,-15.41451 0,0 8.899574,-15.41451 8.899576,15.41451 z"
       style="fill:#b3b3b3;stroke:#000000;stroke-width:1;stroke-linecap:round;stroke-linejoin:round;stroke-miterlimit:4;stroke-opacity:1;stroke-dasharray:none;stroke-dashoffset:0"
       inkscape:transform-center-y="15.414503" />
    <path
       inkscape:transform-center-y="7.7072482"
       style="fill:none;stroke:#000000;stroke-width:1;stroke-linecap:round;stroke-linejoin:round;stroke-miterlimit:4;stroke-opacity:1;stroke-dasharray:none;stroke-dashoffset:0"
       d="m 92.799168,651.94637 -17.79914,0 8.89957,-15.41451 0,0 17.799152,0 -8.899582,15.41451 z"
       id="path3142"
       inkscape:connector-curvature="0"
       sodipodi:nodetypes="ccccccc"
       inkscape:transform-center-x="13.34936" />
    <path
       inkscape:transform-center-y="-15.414503"
       style="fill:#b3b3b3;stroke:#000000;stroke-width:1;stroke-linecap:round;stroke-linejoin:round;stroke-miterlimit:4;stroke-opacity:1;stroke-dasharray:none;stroke-dashoffset:0"
       d="m 196.10043,652.7754 17.79915,0 L 205,637.36089 196.10043,652.7754 z"
       id="path3144"
       inkscape:connector-curvature="0"
       sodipodi:nodetypes="ccccc" />
    <path
       inkscape:transform-center-x="13.34936"
       sodipodi:nodetypes="ccccccc"
       inkscape:connector-curvature="0"
       id="path3146"
       d="m 57.200876,651.94638 -8.899574,-15.41452 17.799146,0 0,0 8.899574,15.41452 -17.799146,0 z"
       style="fill:none;stroke:#000000;stroke-width:1;stroke-linecap:round;stroke-linejoin:round;stroke-miterlimit:4;stroke-opacity:1;stroke-dasharray:none;stroke-dashoffset:0"
       inkscape:transform-center-y="-7.7072668" />
    <path
       inkscape:transform-center-x="13.34936"
       sodipodi:nodetypes="ccccccc"
       inkscape:connector-curvature="0"
       id="path3148"
       d="m 137.29706,667.3609 -8.89958,-15.41452 17.79915,0 0,0 8.89957,15.41452 -17.79914,0 z"
       style="fill:none;stroke:#000000;stroke-width:1;stroke-linecap:round;stroke-linejoin:round;stroke-miterlimit:4;stroke-opacity:1;stroke-dasharray:none;stroke-dashoffset:0"
       inkscape:transform-center-y="-7.7072668" />
    <path
       inkscape:transform-center-y="-7.7072668"
       style="fill:none;stroke:#000000;stroke-width:1;stroke-linecap:round;stroke-linejoin:round;stroke-miterlimit:4;stroke-opacity:1;stroke-dasharray:none;stroke-dashoffset:0"
       d="m 146.19663,651.94637 8.89957,-15.41452 -17.79915,0 0,0 -8.89957,15.41452 17.79915,0 z"
       id="path3150"
       inkscape:connector-curvature="0"
       sodipodi:nodetypes="ccccccc"
       inkscape:transform-center-x="-13.34936" />
    <g
       id="g3184">
      <path
         inkscape:transform-center-y="-7.7072668"
         style="fill:none;stroke:#000000;stroke-width:1;stroke-linecap:round;stroke-linejoin:round;stroke-miterlimit:4;stroke-opacity:1;stroke-dasharray:none;stroke-dashoffset:0"
         d="m 57.200854,682.7754 -8.899574,-15.41452 17.799146,0 0,0 L 75,682.7754 l -17.799146,0 z"
         id="path3007"
         inkscape:connector-curvature="0"
         sodipodi:nodetypes="ccccccc"
         inkscape:transform-center-x="13.34936" />
      <path
         id="path3187"
         style="stroke:#000000;stroke-width:1.000000;fill:none"
         d="M 50.170976,667.360880 l -1.402272,0.809602 M 50.268703,670.768559 l 5.902273,-3.407679 M 62.170976,667.360880 l -10.402273,6.005755 M 53.268703,675.964712 l 13.349361,-7.707257 M 68.118063,670.855531 l -13.349361,7.707257 M 56.268702,681.160865 l 13.349361,-7.707257 M 71.118062,676.051684 l -11.645818,6.723716 M 65.472244,682.775400 l 7.145817,-4.125640 M 74.118061,681.247837 l -2.645817,1.527563" />
    </g>
    <g
       id="g3220"
       transform="translate(26.69872,15.41452)">
      <path
         inkscape:transform-center-x="13.34936"
         sodipodi:nodetypes="ccccccc"
         inkscape:connector-curvature="0"
         id="path3222"
         d="m 57.200854,682.7754 -8.899574,-15.41452 17.799146,0 0,0 L 75,682.7754 l -17.799146,0 z"
         style="fill:none;stroke:#000000;stroke-width:1;stroke-linecap:round;stroke-linejoin:round;stroke-miterlimit:4;stroke-opacity:1;stroke-dasharray:none;stroke-dashoffset:0"
         inkscape:transform-center-y="-7.7072668" />
      <path
         d="m 50.170976,667.36088 -1.402272,0.8096 m 1.499999,2.59808 5.902273,-3.40768 m 6,0 -10.402273,6.00575 m 1.5,2.59808 13.349361,-7.70726 m 1.499999,2.59808 -13.349361,7.70726 m 1.5,2.59807 13.349361,-7.70725 m 1.499999,2.59807 -11.645818,6.72372 m 6,0 7.145817,-4.12564 m 1.5,2.59808 -2.645817,1.52756"
         style="fill:none;stroke:#000000;stroke-width:1"
         id="path3224"
         inkscape:connector-curvature="0" />
    </g>
    <g
       transform="translate(26.698742,-15.41451)"
       id="g3226">
      <path
         inkscape:transform-center-y="-7.7072668"
         style="fill:none;stroke:#000000;stroke-width:1;stroke-linecap:round;stroke-linejoin:round;stroke-miterlimit:4;stroke-opacity:1;stroke-dasharray:none;stroke-dashoffset:0"
         d="m 57.200854,682.7754 -8.899574,-15.41452 17.799146,0 0,0 L 75,682.7754 l -17.799146,0 z"
         id="path3228"
         inkscape:connector-curvature="0"
         sodipodi:nodetypes="ccccccc"
         inkscape:transform-center-x="13.34936" />
      <path
         inkscape:connector-curvature="0"
         id="path3230"
         style="fill:none;stroke:#000000;stroke-width:1"
         d="m 50.170976,667.36088 -1.402272,0.8096 m 1.499999,2.59808 5.902273,-3.40768 m 6,0 -10.402273,6.00575 m 1.5,2.59808 13.349361,-7.70726 m 1.499999,2.59808 -13.349361,7.70726 m 1.5,2.59807 13.349361,-7.70725 m 1.499999,2.59807 -11.645818,6.72372 m 6,0 7.145817,-4.12564 m 1.5,2.59808 -2.645817,1.52756" />
    </g>
    <g
       id="g3232"
       transform="translate(53.39744,30.82902)">
      <path
         inkscape:transform-center-x="13.34936"
         sodipodi:nodetypes="ccccccc"
         inkscape:connector-curvature="0"
         id="path3234"
         d="m 57.200854,682.7754 -8.899574,-15.41452 17.799146,0 0,0 L 75,682.7754 l -17.799146,0 z"
         style="fill:none;stroke:#000000;stroke-width:1;stroke-linecap:round;stroke-linejoin:round;stroke-miterlimit:4;stroke-opacity:1;stroke-dasharray:none;stroke-dashoffset:0"
         inkscape:transform-center-y="-7.7072668" />
      <path
         d="m 50.170976,667.36088 -1.402272,0.8096 m 1.499999,2.59808 5.902273,-3.40768 m 6,0 -10.402273,6.00575 m 1.5,2.59808 13.349361,-7.70726 m 1.499999,2.59808 -13.349361,7.70726 m 1.5,2.59807 13.349361,-7.70725 m 1.499999,2.59807 -11.645818,6.72372 m 6,0 7.145817,-4.12564 m 1.5,2.59808 -2.645817,1.52756"
         style="fill:none;stroke:#000000;stroke-width:1"
         id="path3236"
         inkscape:connector-curvature="0" />
    </g>
    <g
       id="g3238"
       transform="translate(53.39747,0)">
      <path
         inkscape:transform-center-x="13.34936"
         sodipodi:nodetypes="ccccccc"
         inkscape:connector-curvature="0"
         id="path3240"
         d="m 57.200854,682.7754 -8.899574,-15.41452 17.799146,0 0,0 L 75,682.7754 l -17.799146,0 z"
         style="fill:none;stroke:#000000;stroke-width:1;stroke-linecap:round;stroke-linejoin:round;stroke-miterlimit:4;stroke-opacity:1;stroke-dasharray:none;stroke-dashoffset:0"
         inkscape:transform-center-y="-7.7072668" />
      <path
         d="m 50.170976,667.36088 -1.402272,0.8096 m 1.499999,2.59808 5.902273,-3.40768 m 6,0 -10.402273,6.00575 m 1.5,2.59808 13.349361,-7.70726 m 1.499999,2.59808 -13.349361,7.70726 m 1.5,2.59807 13.349361,-7.70725 m 1.499999,2.59807 -11.645818,6.72372 m 6,0 7.145817,-4.12564 m 1.5,2.59808 -2.645817,1.52756"
         style="fill:none;stroke:#000000;stroke-width:1"
         id="path3242"
         inkscape:connector-curvature="0" />
    </g>
    <g
       transform="translate(80.09619,15.41452)"
       id="g3244">
      <path
         inkscape:transform-center-y="-7.7072668"
         style="fill:none;stroke:#000000;stroke-width:1;stroke-linecap:round;stroke-linejoin:round;stroke-miterlimit:4;stroke-opacity:1;stroke-dasharray:none;stroke-dashoffset:0"
         d="m 57.200854,682.7754 -8.899574,-15.41452 17.799146,0 0,0 L 75,682.7754 l -17.799146,0 z"
         id="path3246"
         inkscape:connector-curvature="0"
         sodipodi:nodetypes="ccccccc"
         inkscape:transform-center-x="13.34936" />
      <path
         inkscape:connector-curvature="0"
         id="path3248"
         style="fill:none;stroke:#000000;stroke-width:1"
         d="m 50.170976,667.36088 -1.402272,0.8096 m 1.499999,2.59808 5.902273,-3.40768 m 6,0 -10.402273,6.00575 m 1.5,2.59808 13.349361,-7.70726 m 1.499999,2.59808 -13.349361,7.70726 m 1.5,2.59807 13.349361,-7.70725 m 1.499999,2.59807 -11.645818,6.72372 m 6,0 7.145817,-4.12564 m 1.5,2.59808 -2.645817,1.52756" />
    </g>
    <g
       id="g3250"
       transform="translate(53.39748,-30.82902)">
      <path
         inkscape:transform-center-x="13.34936"
         sodipodi:nodetypes="ccccccc"
         inkscape:connector-curvature="0"
         id="path3252"
         d="m 57.200854,682.7754 -8.899574,-15.41452 17.799146,0 0,0 L 75,682.7754 l -17.799146,0 z"
         style="fill:none;stroke:#000000;stroke-width:1;stroke-linecap:round;stroke-linejoin:round;stroke-miterlimit:4;stroke-opacity:1;stroke-dasharray:none;stroke-dashoffset:0"
         inkscape:transform-center-y="-7.7072668" />
      <path
         d="m 50.170976,667.36088 -1.402272,0.8096 m 1.499999,2.59808 5.902273,-3.40768 m 6,0 -10.402273,6.00575 m 1.5,2.59808 13.349361,-7.70726 m 1.499999,2.59808 -13.349361,7.70726 m 1.5,2.59807 13.349361,-7.70725 m 1.499999,2.59807 -11.645818,6.72372 m 6,0 7.145817,-4.12564 m 1.5,2.59808 -2.645817,1.52756"
         style="fill:none;stroke:#000000;stroke-width:1"
         id="path3254"
         inkscape:connector-curvature="0" />
    </g>
    <g
       transform="translate(80.0962,-15.4145)"
       id="g3256">
      <path
         inkscape:transform-center-y="-7.7072668"
         style="fill:none;stroke:#000000;stroke-width:1;stroke-linecap:round;stroke-linejoin:round;stroke-miterlimit:4;stroke-opacity:1;stroke-dasharray:none;stroke-dashoffset:0"
         d="m 57.200854,682.7754 -8.899574,-15.41452 17.799146,0 0,0 L 75,682.7754 l -17.799146,0 z"
         id="path3258"
         inkscape:connector-curvature="0"
         sodipodi:nodetypes="ccccccc"
         inkscape:transform-center-x="13.34936" />
      <path
         inkscape:connector-curvature="0"
         id="path3260"
         style="fill:none;stroke:#000000;stroke-width:1"
         d="m 50.170976,667.36088 -1.402272,0.8096 m 1.499999,2.59808 5.902273,-3.40768 m 6,0 -10.402273,6.00575 m 1.5,2.59808 13.349361,-7.70726 m 1.499999,2.59808 -13.349361,7.70726 m 1.5,2.59807 13.349361,-7.70725 m 1.499999,2.59807 -11.645818,6.72372 m 6,0 7.145817,-4.12564 m 1.5,2.59808 -2.645817,1.52756" />
    </g>
    <path
       sodipodi:nodetypes="ccccccc"
       inkscape:connector-curvature="0"
       id="path3262"
       d="M 83.899576,667.36089 75,682.7754 l -8.899574,-15.41451 0,0 L 75,651.94638 l 8.899576,15.41451 z"
       style="fill:#b3b3b3;stroke:#000000;stroke-width:1;stroke-linecap:round;stroke-linejoin:round;stroke-miterlimit:4;stroke-opacity:1;stroke-dasharray:none;stroke-dashoffset:0"
       inkscape:transform-center-y="15.414503" />
    <path
       sodipodi:nodetypes="ccccccc"
       inkscape:connector-curvature="0"
       id="path3264"
       d="m 110.5983,713.60442 -8.89958,15.41451 -8.899574,-15.41451 0,0 8.899574,-15.41451 8.89958,15.41451 z"
       style="fill:#b3b3b3;stroke:#000000;stroke-width:1;stroke-linecap:round;stroke-linejoin:round;stroke-miterlimit:4;stroke-opacity:1;stroke-dasharray:none;stroke-dashoffset:0"
       inkscape:transform-center-y="15.414503" />
    <path
       inkscape:transform-center-y="15.414503"
       style="fill:#b3b3b3;stroke:#000000;stroke-width:1;stroke-linecap:round;stroke-linejoin:round;stroke-miterlimit:4;stroke-opacity:1;stroke-dasharray:none;stroke-dashoffset:0"
       d="m 110.5983,682.7754 -8.89958,15.41451 -8.899574,-15.41451 0,0 8.899574,-15.41451 8.89958,15.41451 z"
       id="path3266"
       inkscape:connector-curvature="0"
       sodipodi:nodetypes="ccccccc" />
    <path
       inkscape:transform-center-y="15.414503"
       style="fill:#b3b3b3;stroke:#000000;stroke-width:1;stroke-linecap:round;stroke-linejoin:round;stroke-miterlimit:4;stroke-opacity:1;stroke-dasharray:none;stroke-dashoffset:0"
       d="m 110.59834,651.94637 -8.89958,15.41451 -8.899574,-15.41451 0,0 8.899574,-15.41451 8.89958,15.41451 z"
       id="path3268"
       inkscape:connector-curvature="0"
       sodipodi:nodetypes="ccccccc" />
    <path
       sodipodi:nodetypes="ccccccc"
       inkscape:connector-curvature="0"
       id="path3270"
       d="m 137.297,698.18991 -8.89958,15.41451 -8.89957,-15.41451 0,0 8.89957,-15.41451 8.89958,15.41451 z"
       style="fill:#b3b3b3;stroke:#000000;stroke-width:1;stroke-linecap:round;stroke-linejoin:round;stroke-miterlimit:4;stroke-opacity:1;stroke-dasharray:none;stroke-dashoffset:0"
       inkscape:transform-center-y="15.414503" />
    <path
       sodipodi:nodetypes="ccccccc"
       inkscape:connector-curvature="0"
       id="path3272"
       d="m 137.29704,667.36088 -8.89958,15.41451 -8.89957,-15.41451 0,0 8.89957,-15.41451 8.89958,15.41451 z"
       style="fill:#b3b3b3;stroke:#000000;stroke-width:1;stroke-linecap:round;stroke-linejoin:round;stroke-miterlimit:4;stroke-opacity:1;stroke-dasharray:none;stroke-dashoffset:0"
       inkscape:transform-center-y="15.414503" />
    <g
       id="g3274"
       transform="translate(0,30.82903)">
      <path
         inkscape:transform-center-x="13.34936"
         sodipodi:nodetypes="ccccccc"
         inkscape:connector-curvature="0"
         id="path3276"
         d="m 57.200854,682.7754 -8.899574,-15.41452 17.799146,0 0,0 L 75,682.7754 l -17.799146,0 z"
         style="fill:none;stroke:#000000;stroke-width:1;stroke-linecap:round;stroke-linejoin:round;stroke-miterlimit:4;stroke-opacity:1;stroke-dasharray:none;stroke-dashoffset:0"
         inkscape:transform-center-y="-7.7072668" />
      <path
         d="m 50.170976,667.36088 -1.402272,0.8096 m 1.499999,2.59808 5.902273,-3.40768 m 6,0 -10.402273,6.00575 m 1.5,2.59808 13.349361,-7.70726 m 1.499999,2.59808 -13.349361,7.70726 m 1.5,2.59807 13.349361,-7.70725 m 1.499999,2.59807 -11.645818,6.72372 m 6,0 7.145817,-4.12564 m 1.5,2.59808 -2.645817,1.52756"
         style="fill:none;stroke:#000000;stroke-width:1"
         id="path3278"
         inkscape:connector-curvature="0" />
    </g>
    <path
       inkscape:transform-center-y="7.7072482"
       style="fill:none;stroke:#000000;stroke-width:1;stroke-linecap:round;stroke-linejoin:round;stroke-miterlimit:4;stroke-opacity:1;stroke-dasharray:none;stroke-dashoffset:0"
       d="m 146.19661,713.60443 -17.79914,0 8.89957,-15.41451 0,0 17.79915,0 -8.89958,15.41451 z"
       id="path3286"
       inkscape:connector-curvature="0"
       sodipodi:nodetypes="ccccccc"
       inkscape:transform-center-x="13.34936" />
    <path
       inkscape:transform-center-y="15.414503"
       style="fill:#b3b3b3;stroke:#000000;stroke-width:1;stroke-linecap:round;stroke-linejoin:round;stroke-miterlimit:4;stroke-opacity:1;stroke-dasharray:none;stroke-dashoffset:0"
       d="m 57.200856,682.77539 -8.899576,15.41451 -8.899574,-15.41451 0,0 8.899574,-15.41451 8.899576,15.41451 z"
       id="path3288"
       inkscape:connector-curvature="0"
       sodipodi:nodetypes="ccccccc" />
    <path
       inkscape:transform-center-y="15.414503"
       style="fill:#b3b3b3;stroke:#000000;stroke-width:1;stroke-linecap:round;stroke-linejoin:round;stroke-miterlimit:4;stroke-opacity:1;stroke-dasharray:none;stroke-dashoffset:0"
       d="m 83.899595,636.53186 -8.899576,15.41451 -8.899574,-15.41451 0,0 8.899574,-15.41451 8.899576,15.41451 z"
       id="path3296"
       inkscape:connector-curvature="0"
       sodipodi:nodetypes="ccccccc" />
    <path
       inkscape:transform-center-y="15.414503"
       style="fill:#b3b3b3;stroke:#000000;stroke-width:1;stroke-linecap:round;stroke-linejoin:round;stroke-miterlimit:4;stroke-opacity:1;stroke-dasharray:none;stroke-dashoffset:0"
       d="m 137.29706,636.53186 -8.89958,15.41451 -8.89957,-15.41451 0,0 8.89957,-15.41451 8.89958,15.41451 z"
       id="path3298"
       inkscape:connector-curvature="0"
       sodipodi:nodetypes="ccccccc" />
    <path
       sodipodi:nodetypes="ccccc"
       inkscape:connector-curvature="0"
       id="path3300"
       d="m 222.79915,637.36089 -17.79915,0 8.89958,15.41451 8.89957,-15.41451 z"
       style="fill:none;stroke:#000000;stroke-width:1;stroke-linecap:round;stroke-linejoin:round;stroke-miterlimit:4;stroke-opacity:1;stroke-dasharray:none;stroke-dashoffset:0"
       inkscape:transform-center-y="15.414503" />
    <path
       sodipodi:nodetypes="ccccc"
       inkscape:connector-curvature="0"
       id="path3302"
       d="m 214.10043,652.7754 17.79915,0 L 223,637.36089 214.10043,652.7754 z"
       style="fill:#b3b3b3;stroke:#000000;stroke-width:1;stroke-linecap:round;stroke-linejoin:round;stroke-miterlimit:4;stroke-opacity:1;stroke-dasharray:none;stroke-dashoffset:0"
       inkscape:transform-center-y="-15.414503" />
    <path
       inkscape:transform-center-y="15.414503"
       style="fill:none;stroke:#000000;stroke-width:1;stroke-linecap:round;stroke-linejoin:round;stroke-miterlimit:4;stroke-opacity:1;stroke-dasharray:none;stroke-dashoffset:0"
       d="m 240.79915,637.36089 -17.79915,0 8.89958,15.41451 8.89957,-15.41451 z"
       id="path3304"
       inkscape:connector-curvature="0"
       sodipodi:nodetypes="ccccc" />
    <path
       sodipodi:nodetypes="ccccc"
       inkscape:connector-curvature="0"
       id="path3306"
       d="m 231.89958,652.7754 17.79915,0 -8.89958,-15.41451 -8.89957,15.41451 z"
       style="fill:#b3b3b3;stroke:#000000;stroke-width:1;stroke-linecap:round;stroke-linejoin:round;stroke-miterlimit:4;stroke-opacity:1;stroke-dasharray:none;stroke-dashoffset:0"
       inkscape:transform-center-y="-15.414503" />
    <path
       inkscape:transform-center-y="15.414503"
       style="fill:none;stroke:#000000;stroke-width:1;stroke-linecap:round;stroke-linejoin:round;stroke-miterlimit:4;stroke-opacity:1;stroke-dasharray:none;stroke-dashoffset:0"
       d="m 258.5983,637.36089 -17.79915,0 8.89958,15.41451 8.89957,-15.41451 z"
       id="path3308"
       inkscape:connector-curvature="0"
       sodipodi:nodetypes="ccccc" />
    <path
       inkscape:transform-center-y="-15.414503"
       style="fill:#b3b3b3;stroke:#000000;stroke-width:1;stroke-linecap:round;stroke-linejoin:round;stroke-miterlimit:4;stroke-opacity:1;stroke-dasharray:none;stroke-dashoffset:0"
       d="m 249.89958,652.7754 17.79915,0 -8.89958,-15.41451 -8.89957,15.41451 z"
       id="path3310"
       inkscape:connector-curvature="0"
       sodipodi:nodetypes="ccccc" />
    <path
       sodipodi:nodetypes="ccccc"
       inkscape:connector-curvature="0"
       id="path3314"
       d="m 187.20086,668.18991 17.79915,0 -8.89958,-15.41451 -8.89957,15.41451 z"
       style="fill:#b3b3b3;stroke:#000000;stroke-width:1;stroke-linecap:round;stroke-linejoin:round;stroke-miterlimit:4;stroke-opacity:1;stroke-dasharray:none;stroke-dashoffset:0"
       inkscape:transform-center-y="-15.414503" />
    <path
       inkscape:transform-center-y="15.414503"
       style="fill:none;stroke:#000000;stroke-width:1;stroke-linecap:round;stroke-linejoin:round;stroke-miterlimit:4;stroke-opacity:1;stroke-dasharray:none;stroke-dashoffset:0"
       d="m 213.89958,652.7754 -17.79915,0 8.89958,15.41451 8.89957,-15.41451 z"
       id="path3316"
       inkscape:connector-curvature="0"
       sodipodi:nodetypes="ccccc" />
    <path
       inkscape:transform-center-y="-15.414503"
       style="fill:#b3b3b3;stroke:#000000;stroke-width:1;stroke-linecap:round;stroke-linejoin:round;stroke-miterlimit:4;stroke-opacity:1;stroke-dasharray:none;stroke-dashoffset:0"
       d="m 205.20086,668.18991 17.79915,0 -8.89958,-15.41451 -8.89957,15.41451 z"
       id="path3318"
       inkscape:connector-curvature="0"
       sodipodi:nodetypes="ccccc" />
    <path
       sodipodi:nodetypes="ccccc"
       inkscape:connector-curvature="0"
       id="path3320"
       d="m 231.89958,652.7754 -17.79915,0 8.89958,15.41451 8.89957,-15.41451 z"
       style="fill:none;stroke:#000000;stroke-width:1;stroke-linecap:round;stroke-linejoin:round;stroke-miterlimit:4;stroke-opacity:1;stroke-dasharray:none;stroke-dashoffset:0"
       inkscape:transform-center-y="15.414503" />
    <path
       inkscape:transform-center-y="-15.414503"
       style="fill:#b3b3b3;stroke:#000000;stroke-width:1;stroke-linecap:round;stroke-linejoin:round;stroke-miterlimit:4;stroke-opacity:1;stroke-dasharray:none;stroke-dashoffset:0"
       d="m 223.00001,668.18991 17.79915,0 -8.89958,-15.41451 -8.89957,15.41451 z"
       id="path3322"
       inkscape:connector-curvature="0"
       sodipodi:nodetypes="ccccc" />
    <path
       sodipodi:nodetypes="ccccc"
       inkscape:connector-curvature="0"
       id="path3324"
       d="m 249.69873,652.7754 -17.79915,0 8.89958,15.41451 8.89957,-15.41451 z"
       style="fill:none;stroke:#000000;stroke-width:1;stroke-linecap:round;stroke-linejoin:round;stroke-miterlimit:4;stroke-opacity:1;stroke-dasharray:none;stroke-dashoffset:0"
       inkscape:transform-center-y="15.414503" />
    <path
       sodipodi:nodetypes="ccccc"
       inkscape:connector-curvature="0"
       id="path3326"
       d="m 241.00001,668.18991 17.79915,0 -8.89958,-15.41451 -8.89957,15.41451 z"
       style="fill:#b3b3b3;stroke:#000000;stroke-width:1;stroke-linecap:round;stroke-linejoin:round;stroke-miterlimit:4;stroke-opacity:1;stroke-dasharray:none;stroke-dashoffset:0"
       inkscape:transform-center-y="-15.414503" />
    <path
       inkscape:transform-center-y="-15.414503"
       style="fill:#b3b3b3;stroke:#000000;stroke-width:1;stroke-linecap:round;stroke-linejoin:round;stroke-miterlimit:4;stroke-opacity:1;stroke-dasharray:none;stroke-dashoffset:0"
       d="m 240.79916,668.18991 17.79915,0 -8.89958,-15.41451 -8.89957,15.41451 z"
       id="path3328"
       inkscape:connector-curvature="0"
       sodipodi:nodetypes="ccccc" />
    <path
       sodipodi:nodetypes="ccccc"
       inkscape:connector-curvature="0"
       id="path3330"
       d="m 267.49788,652.7754 -17.79915,0 8.89958,15.41451 8.89957,-15.41451 z"
       style="fill:none;stroke:#000000;stroke-width:1;stroke-linecap:round;stroke-linejoin:round;stroke-miterlimit:4;stroke-opacity:1;stroke-dasharray:none;stroke-dashoffset:0"
       inkscape:transform-center-y="15.414503" />
    <path
       sodipodi:nodetypes="ccccc"
       inkscape:connector-curvature="0"
       id="path3332"
       d="m 258.79916,668.18991 17.79915,0 -8.89958,-15.41451 -8.89957,15.41451 z"
       style="fill:#b3b3b3;stroke:#000000;stroke-width:1;stroke-linecap:round;stroke-linejoin:round;stroke-miterlimit:4;stroke-opacity:1;stroke-dasharray:none;stroke-dashoffset:0"
       inkscape:transform-center-y="-15.414503" />
    <path
       sodipodi:nodetypes="ccccc"
       inkscape:connector-curvature="0"
       id="path3384"
       d="m 213.89958,652.7754 -17.79915,0 8.89958,15.41451 8.89957,-15.41451 z"
       style="fill:none;stroke:#000000;stroke-width:1;stroke-linecap:round;stroke-linejoin:round;stroke-miterlimit:4;stroke-opacity:1;stroke-dasharray:none;stroke-dashoffset:0"
       inkscape:transform-center-y="15.414503" />
    <path
       sodipodi:nodetypes="ccccc"
       inkscape:connector-curvature="0"
       id="path3386"
       d="m 205.20086,668.18991 17.79915,0 -8.89958,-15.41451 -8.89957,15.41451 z"
       style="fill:#b3b3b3;stroke:#000000;stroke-width:1;stroke-linecap:round;stroke-linejoin:round;stroke-miterlimit:4;stroke-opacity:1;stroke-dasharray:none;stroke-dashoffset:0"
       inkscape:transform-center-y="-15.414503" />
    <path
       inkscape:transform-center-y="15.414503"
       style="fill:none;stroke:#000000;stroke-width:1;stroke-linecap:round;stroke-linejoin:round;stroke-miterlimit:4;stroke-opacity:1;stroke-dasharray:none;stroke-dashoffset:0"
       d="m 231.89958,652.7754 -17.79915,0 8.89958,15.41451 8.89957,-15.41451 z"
       id="path3388"
       inkscape:connector-curvature="0"
       sodipodi:nodetypes="ccccc" />
    <path
       sodipodi:nodetypes="ccccc"
       inkscape:connector-curvature="0"
       id="path3390"
       d="m 223.00001,668.18991 17.79915,0 -8.89958,-15.41451 -8.89957,15.41451 z"
       style="fill:#b3b3b3;stroke:#000000;stroke-width:1;stroke-linecap:round;stroke-linejoin:round;stroke-miterlimit:4;stroke-opacity:1;stroke-dasharray:none;stroke-dashoffset:0"
       inkscape:transform-center-y="-15.414503" />
    <path
       inkscape:transform-center-y="15.414503"
       style="fill:none;stroke:#000000;stroke-width:1;stroke-linecap:round;stroke-linejoin:round;stroke-miterlimit:4;stroke-opacity:1;stroke-dasharray:none;stroke-dashoffset:0"
       d="m 249.69873,652.7754 -17.79915,0 8.89958,15.41451 8.89957,-15.41451 z"
       id="path3392"
       inkscape:connector-curvature="0"
       sodipodi:nodetypes="ccccc" />
    <path
       sodipodi:nodetypes="ccccc"
       inkscape:connector-curvature="0"
       id="path3394"
       d="m 240.79916,668.18991 17.79915,0 -8.89958,-15.41451 -8.89957,15.41451 z"
       style="fill:#b3b3b3;stroke:#000000;stroke-width:1;stroke-linecap:round;stroke-linejoin:round;stroke-miterlimit:4;stroke-opacity:1;stroke-dasharray:none;stroke-dashoffset:0"
       inkscape:transform-center-y="-15.414503" />
    <path
       sodipodi:nodetypes="ccccc"
       inkscape:connector-curvature="0"
       id="path3396"
       d="m 223.00001,668.18991 -17.79915,0 8.89958,15.41451 8.89957,-15.41451 z"
       style="fill:none;stroke:#000000;stroke-width:1;stroke-linecap:round;stroke-linejoin:round;stroke-miterlimit:4;stroke-opacity:1;stroke-dasharray:none;stroke-dashoffset:0"
       inkscape:transform-center-y="15.414503" />
    <path
       sodipodi:nodetypes="ccccc"
       inkscape:connector-curvature="0"
       id="path3398"
       d="m 214.30129,683.60442 17.79915,0 -8.89958,-15.41451 -8.89957,15.41451 z"
       style="fill:#b3b3b3;stroke:#000000;stroke-width:1;stroke-linecap:round;stroke-linejoin:round;stroke-miterlimit:4;stroke-opacity:1;stroke-dasharray:none;stroke-dashoffset:0"
       inkscape:transform-center-y="-15.414503" />
    <path
       inkscape:transform-center-y="15.414503"
       style="fill:none;stroke:#000000;stroke-width:1;stroke-linecap:round;stroke-linejoin:round;stroke-miterlimit:4;stroke-opacity:1;stroke-dasharray:none;stroke-dashoffset:0"
       d="m 241.00001,668.18991 -17.79915,0 8.89958,15.41451 8.89957,-15.41451 z"
       id="path3400"
       inkscape:connector-curvature="0"
       sodipodi:nodetypes="ccccc" />
    <path
       sodipodi:nodetypes="ccccc"
       inkscape:connector-curvature="0"
       id="path3402"
       d="m 232.10044,683.60442 17.79915,0 -8.89958,-15.41451 -8.89957,15.41451 z"
       style="fill:#b3b3b3;stroke:#000000;stroke-width:1;stroke-linecap:round;stroke-linejoin:round;stroke-miterlimit:4;stroke-opacity:1;stroke-dasharray:none;stroke-dashoffset:0"
       inkscape:transform-center-y="-15.414503" />
    <path
       inkscape:transform-center-y="15.414503"
       style="fill:none;stroke:#000000;stroke-width:1;stroke-linecap:round;stroke-linejoin:round;stroke-miterlimit:4;stroke-opacity:1;stroke-dasharray:none;stroke-dashoffset:0"
       d="m 258.79916,668.18991 -17.79915,0 8.89958,15.41451 8.89957,-15.41451 z"
       id="path3404"
       inkscape:connector-curvature="0"
       sodipodi:nodetypes="ccccc" />
    <path
       inkscape:transform-center-y="-15.414503"
       style="fill:#b3b3b3;stroke:#000000;stroke-width:1;stroke-linecap:round;stroke-linejoin:round;stroke-miterlimit:4;stroke-opacity:1;stroke-dasharray:none;stroke-dashoffset:0"
       d="m 249.89959,683.60442 17.79915,0 -8.89958,-15.41451 -8.89957,15.41451 z"
       id="path3406"
       inkscape:connector-curvature="0"
       sodipodi:nodetypes="ccccc" />
    <path
       inkscape:transform-center-y="15.414503"
       style="fill:none;stroke:#000000;stroke-width:1;stroke-linecap:round;stroke-linejoin:round;stroke-miterlimit:4;stroke-opacity:1;stroke-dasharray:none;stroke-dashoffset:0"
       d="m 276.59831,668.18991 -17.79915,0 8.89958,15.41451 8.89957,-15.41451 z"
       id="path3410"
       inkscape:connector-curvature="0"
       sodipodi:nodetypes="ccccc" />
    <path
       inkscape:transform-center-y="15.414503"
       style="fill:none;stroke:#000000;stroke-width:1;stroke-linecap:round;stroke-linejoin:round;stroke-miterlimit:4;stroke-opacity:1;stroke-dasharray:none;stroke-dashoffset:0"
       d="m 223.00001,668.18991 -17.79915,0 8.89958,15.41451 8.89957,-15.41451 z"
       id="path3412"
       inkscape:connector-curvature="0"
       sodipodi:nodetypes="ccccc" />
    <path
       inkscape:transform-center-y="-15.414503"
       style="fill:#b3b3b3;stroke:#000000;stroke-width:1;stroke-linecap:round;stroke-linejoin:round;stroke-miterlimit:4;stroke-opacity:1;stroke-dasharray:none;stroke-dashoffset:0"
       d="m 214.30129,683.60442 17.79915,0 -8.89958,-15.41451 -8.89957,15.41451 z"
       id="path3414"
       inkscape:connector-curvature="0"
       sodipodi:nodetypes="ccccc" />
    <path
       sodipodi:nodetypes="ccccc"
       inkscape:connector-curvature="0"
       id="path3416"
       d="m 241.00001,668.18991 -17.79915,0 8.89958,15.41451 8.89957,-15.41451 z"
       style="fill:none;stroke:#000000;stroke-width:1;stroke-linecap:round;stroke-linejoin:round;stroke-miterlimit:4;stroke-opacity:1;stroke-dasharray:none;stroke-dashoffset:0"
       inkscape:transform-center-y="15.414503" />
    <path
       inkscape:transform-center-y="-15.414503"
       style="fill:#b3b3b3;stroke:#000000;stroke-width:1;stroke-linecap:round;stroke-linejoin:round;stroke-miterlimit:4;stroke-opacity:1;stroke-dasharray:none;stroke-dashoffset:0"
       d="m 232.10044,683.60442 17.79915,0 -8.89958,-15.41451 -8.89957,15.41451 z"
       id="path3418"
       inkscape:connector-curvature="0"
       sodipodi:nodetypes="ccccc" />
    <path
       sodipodi:nodetypes="ccccc"
       inkscape:connector-curvature="0"
       id="path3420"
       d="m 258.79916,668.18991 -17.79915,0 8.89958,15.41451 8.89957,-15.41451 z"
       style="fill:none;stroke:#000000;stroke-width:1;stroke-linecap:round;stroke-linejoin:round;stroke-miterlimit:4;stroke-opacity:1;stroke-dasharray:none;stroke-dashoffset:0"
       inkscape:transform-center-y="15.414503" />
    <path
       inkscape:transform-center-y="15.414503"
       style="fill:none;stroke:#000000;stroke-width:1;stroke-linecap:round;stroke-linejoin:round;stroke-miterlimit:4;stroke-opacity:1;stroke-dasharray:none;stroke-dashoffset:0"
       d="m 205.00001,668.18991 -17.79915,0 8.89958,15.41451 8.89957,-15.41451 z"
       id="path3424"
       inkscape:connector-curvature="0"
       sodipodi:nodetypes="ccccc" />
    <path
       inkscape:transform-center-y="-15.414503"
       style="fill:#b3b3b3;stroke:#000000;stroke-width:1;stroke-linecap:round;stroke-linejoin:round;stroke-miterlimit:4;stroke-opacity:1;stroke-dasharray:none;stroke-dashoffset:0"
       d="m 196.30129,683.60442 17.79915,0 -8.89958,-15.41451 -8.89957,15.41451 z"
       id="path3426"
       inkscape:connector-curvature="0"
       sodipodi:nodetypes="ccccc" />
    <path
       sodipodi:nodetypes="ccccc"
       inkscape:connector-curvature="0"
       id="path3428"
       d="m 223.00001,668.18991 -17.79915,0 8.89958,15.41451 8.89957,-15.41451 z"
       style="fill:none;stroke:#000000;stroke-width:1;stroke-linecap:round;stroke-linejoin:round;stroke-miterlimit:4;stroke-opacity:1;stroke-dasharray:none;stroke-dashoffset:0"
       inkscape:transform-center-y="15.414503" />
    <path
       sodipodi:nodetypes="ccccc"
       inkscape:connector-curvature="0"
       id="path3430"
       d="m 205.00001,668.18991 -17.79915,0 8.89958,15.41451 8.89957,-15.41451 z"
       style="fill:none;stroke:#000000;stroke-width:1;stroke-linecap:round;stroke-linejoin:round;stroke-miterlimit:4;stroke-opacity:1;stroke-dasharray:none;stroke-dashoffset:0"
       inkscape:transform-center-y="15.414503" />
    <path
       sodipodi:nodetypes="ccccc"
       inkscape:connector-curvature="0"
       id="path3432"
       d="m 196.30129,683.60442 17.79915,0 -8.89958,-15.41451 -8.89957,15.41451 z"
       style="fill:#b3b3b3;stroke:#000000;stroke-width:1;stroke-linecap:round;stroke-linejoin:round;stroke-miterlimit:4;stroke-opacity:1;stroke-dasharray:none;stroke-dashoffset:0"
       inkscape:transform-center-y="-15.414503" />
    <path
       inkscape:transform-center-y="15.414503"
       style="fill:none;stroke:#000000;stroke-width:1;stroke-linecap:round;stroke-linejoin:round;stroke-miterlimit:4;stroke-opacity:1;stroke-dasharray:none;stroke-dashoffset:0"
       d="m 223.00001,668.18991 -17.79915,0 8.89958,15.41451 8.89957,-15.41451 z"
       id="path3434"
       inkscape:connector-curvature="0"
       sodipodi:nodetypes="ccccc" />
    <path
       inkscape:transform-center-y="15.414503"
       style="fill:none;stroke:#000000;stroke-width:1;stroke-linecap:round;stroke-linejoin:round;stroke-miterlimit:4;stroke-opacity:1;stroke-dasharray:none;stroke-dashoffset:0"
       d="m 231.89959,683.60442 -17.79915,0 8.89958,15.41451 8.89957,-15.41451 z"
       id="path3436"
       inkscape:connector-curvature="0"
       sodipodi:nodetypes="ccccc" />
    <path
       inkscape:transform-center-y="-15.414503"
       style="fill:#b3b3b3;stroke:#000000;stroke-width:1;stroke-linecap:round;stroke-linejoin:round;stroke-miterlimit:4;stroke-opacity:1;stroke-dasharray:none;stroke-dashoffset:0"
       d="m 223.20087,699.01893 17.79915,0 -8.89958,-15.41451 -8.89957,15.41451 z"
       id="path3438"
       inkscape:connector-curvature="0"
       sodipodi:nodetypes="ccccc" />
    <path
       sodipodi:nodetypes="ccccc"
       inkscape:connector-curvature="0"
       id="path3440"
       d="m 249.89959,683.60442 -17.79915,0 8.89958,15.41451 8.89957,-15.41451 z"
       style="fill:none;stroke:#000000;stroke-width:1;stroke-linecap:round;stroke-linejoin:round;stroke-miterlimit:4;stroke-opacity:1;stroke-dasharray:none;stroke-dashoffset:0"
       inkscape:transform-center-y="15.414503" />
    <path
       inkscape:transform-center-y="-15.414503"
       style="fill:#b3b3b3;stroke:#000000;stroke-width:1;stroke-linecap:round;stroke-linejoin:round;stroke-miterlimit:4;stroke-opacity:1;stroke-dasharray:none;stroke-dashoffset:0"
       d="m 241.00002,699.01893 17.79915,0 -8.89958,-15.41451 -8.89957,15.41451 z"
       id="path3442"
       inkscape:connector-curvature="0"
       sodipodi:nodetypes="ccccc" />
    <path
       sodipodi:nodetypes="ccccc"
       inkscape:connector-curvature="0"
       id="path3444"
       d="m 231.89959,683.60442 -17.79915,0 8.89958,15.41451 8.89957,-15.41451 z"
       style="fill:none;stroke:#000000;stroke-width:1;stroke-linecap:round;stroke-linejoin:round;stroke-miterlimit:4;stroke-opacity:1;stroke-dasharray:none;stroke-dashoffset:0"
       inkscape:transform-center-y="15.414503" />
    <path
       sodipodi:nodetypes="ccccc"
       inkscape:connector-curvature="0"
       id="path3446"
       d="m 223.20087,699.01893 17.79915,0 -8.89958,-15.41451 -8.89957,15.41451 z"
       style="fill:#b3b3b3;stroke:#000000;stroke-width:1;stroke-linecap:round;stroke-linejoin:round;stroke-miterlimit:4;stroke-opacity:1;stroke-dasharray:none;stroke-dashoffset:0"
       inkscape:transform-center-y="-15.414503" />
    <path
       inkscape:transform-center-y="15.414503"
       style="fill:none;stroke:#000000;stroke-width:1;stroke-linecap:round;stroke-linejoin:round;stroke-miterlimit:4;stroke-opacity:1;stroke-dasharray:none;stroke-dashoffset:0"
       d="m 249.89959,683.60442 -17.79915,0 8.89958,15.41451 8.89957,-15.41451 z"
       id="path3448"
       inkscape:connector-curvature="0"
       sodipodi:nodetypes="ccccc" />
    <path
       sodipodi:nodetypes="ccccc"
       inkscape:connector-curvature="0"
       id="path3450"
       d="m 241.00002,699.01893 17.79915,0 -8.89958,-15.41451 -8.89957,15.41451 z"
       style="fill:#b3b3b3;stroke:#000000;stroke-width:1;stroke-linecap:round;stroke-linejoin:round;stroke-miterlimit:4;stroke-opacity:1;stroke-dasharray:none;stroke-dashoffset:0"
       inkscape:transform-center-y="-15.414503" />
    <path
       sodipodi:nodetypes="ccccc"
       inkscape:connector-curvature="0"
       id="path3452"
       d="m 213.89959,683.60442 -17.79915,0 8.89958,15.41451 8.89957,-15.41451 z"
       style="fill:none;stroke:#000000;stroke-width:1;stroke-linecap:round;stroke-linejoin:round;stroke-miterlimit:4;stroke-opacity:1;stroke-dasharray:none;stroke-dashoffset:0"
       inkscape:transform-center-y="15.414503" />
    <path
       sodipodi:nodetypes="ccccc"
       inkscape:connector-curvature="0"
       id="path3454"
       d="m 205.20087,699.01893 17.79915,0 -8.89958,-15.41451 -8.89957,15.41451 z"
       style="fill:#b3b3b3;stroke:#000000;stroke-width:1;stroke-linecap:round;stroke-linejoin:round;stroke-miterlimit:4;stroke-opacity:1;stroke-dasharray:none;stroke-dashoffset:0"
       inkscape:transform-center-y="-15.414503" />
    <path
       inkscape:transform-center-y="15.414503"
       style="fill:none;stroke:#000000;stroke-width:1;stroke-linecap:round;stroke-linejoin:round;stroke-miterlimit:4;stroke-opacity:1;stroke-dasharray:none;stroke-dashoffset:0"
       d="m 231.89959,683.60442 -17.79915,0 8.89958,15.41451 8.89957,-15.41451 z"
       id="path3456"
       inkscape:connector-curvature="0"
       sodipodi:nodetypes="ccccc" />
    <path
       inkscape:transform-center-y="15.414503"
       style="fill:none;stroke:#000000;stroke-width:1;stroke-linecap:round;stroke-linejoin:round;stroke-miterlimit:4;stroke-opacity:1;stroke-dasharray:none;stroke-dashoffset:0"
       d="m 213.89959,683.60442 -17.79915,0 8.89958,15.41451 8.89957,-15.41451 z"
       id="path3458"
       inkscape:connector-curvature="0"
       sodipodi:nodetypes="ccccc" />
    <path
       inkscape:transform-center-y="-15.414503"
       style="fill:#b3b3b3;stroke:#000000;stroke-width:1;stroke-linecap:round;stroke-linejoin:round;stroke-miterlimit:4;stroke-opacity:1;stroke-dasharray:none;stroke-dashoffset:0"
       d="m 205.20087,699.01893 17.79915,0 -8.89958,-15.41451 -8.89957,15.41451 z"
       id="path3460"
       inkscape:connector-curvature="0"
       sodipodi:nodetypes="ccccc" />
    <path
       sodipodi:nodetypes="ccccc"
       inkscape:connector-curvature="0"
       id="path3462"
       d="m 231.89959,683.60442 -17.79915,0 8.89958,15.41451 8.89957,-15.41451 z"
       style="fill:none;stroke:#000000;stroke-width:1;stroke-linecap:round;stroke-linejoin:round;stroke-miterlimit:4;stroke-opacity:1;stroke-dasharray:none;stroke-dashoffset:0"
       inkscape:transform-center-y="15.414503" />
    <path
       inkscape:transform-center-y="15.414503"
       style="fill:none;stroke:#000000;stroke-width:1;stroke-linecap:round;stroke-linejoin:round;stroke-miterlimit:4;stroke-opacity:1;stroke-dasharray:none;stroke-dashoffset:0"
       d="m 267.69874,683.60442 -17.79915,0 8.89958,15.41451 8.89957,-15.41451 z"
       id="path3464"
       inkscape:connector-curvature="0"
       sodipodi:nodetypes="ccccc" />
  </g>
</svg>
