<?xml version="1.0" encoding="UTF-8" standalone="no"?>
<!-- Created with Inkscape (http://www.inkscape.org/) -->

<svg
   xmlns:dc="http://purl.org/dc/elements/1.1/"
   xmlns:cc="http://creativecommons.org/ns#"
   xmlns:rdf="http://www.w3.org/1999/02/22-rdf-syntax-ns#"
   xmlns:svg="http://www.w3.org/2000/svg"
   xmlns="http://www.w3.org/2000/svg"
   xmlns:xlink="http://www.w3.org/1999/xlink"
   xmlns:sodipodi="http://sodipodi.sourceforge.net/DTD/sodipodi-0.dtd"
   xmlns:inkscape="http://www.inkscape.org/namespaces/inkscape"
   id="svg2"
   version="1.1"
   inkscape:version="0.48.4 r9939"
   width="261.25"
   height="261.25"
   xml:space="preserve"
   sodipodi:docname="fig_13.eps"><metadata
     id="metadata8"><rdf:RDF><cc:Work
         rdf:about=""><dc:format>image/svg+xml</dc:format><dc:type
           rdf:resource="http://purl.org/dc/dcmitype/StillImage" /><dc:title></dc:title></cc:Work></rdf:RDF></metadata><defs
     id="defs6"><linearGradient
       id="linearGradient3005"><stop
         style="stop-color:#cccccc;stop-opacity:1;"
         offset="0"
         id="stop3007" /><stop
         style="stop-color:#cccccc;stop-opacity:0;"
         offset="1"
         id="stop3009" /></linearGradient><linearGradient
       inkscape:collect="always"
       xlink:href="#linearGradient3005"
       id="linearGradient3011"
       x1="143.87582"
       y1="104.05836"
       x2="101.97971"
       y2="73.529396"
       gradientUnits="userSpaceOnUse"
       gradientTransform="matrix(0.8,0,0,-0.8,-10.160108,209.73488)" /><filter
       inkscape:collect="always"
       id="filter3863"
       x="-0.1175122"
       width="1.2350244"
       y="-0.1505625"
       height="1.301125"><feGaussianBlur
         inkscape:collect="always"
         stdDeviation="2.7661511"
         id="feGaussianBlur3865" /></filter><filter
       inkscape:collect="always"
       id="filter3901"
       x="-0.19367635"
       width="1.3873527"
       y="-0.24814782"
       height="1.4962956"><feGaussianBlur
         inkscape:collect="always"
         stdDeviation="4.5589997"
         id="feGaussianBlur3903" /></filter></defs><sodipodi:namedview
     pagecolor="#ffffff"
     bordercolor="#666666"
     borderopacity="1"
     objecttolerance="10"
     gridtolerance="10"
     guidetolerance="10"
     inkscape:pageopacity="0"
     inkscape:pageshadow="2"
     inkscape:window-width="1366"
     inkscape:window-height="744"
     id="namedview4"
     showgrid="false"
     inkscape:object-nodes="true"
     inkscape:zoom="0.80792871"
     inkscape:cx="69.674406"
     inkscape:cy="86.501726"
     inkscape:window-x="0"
     inkscape:window-y="24"
     inkscape:window-maximized="1"
     inkscape:current-layer="g10" /><g
     id="g10"
     inkscape:groupmode="layer"
     inkscape:label="ink_ext_XXXXXX"
     transform="matrix(1.25,0,0,-1.25,0,261.25)"><path
       inkscape:connector-curvature="0"
       id="path3021"
       d="m 64.761696,201.08133 30.313985,31.6919 26.180259,12.40117 -16.07196,-40.72438 z"
       style="opacity:0.88477340000000004;fill:#000000;fill-opacity:1;stroke:#000000;stroke-width:1.08026767000000001;stroke-linecap:round;stroke-linejoin:round;stroke-miterlimit:4;stroke-opacity:1;stroke-dasharray:none;stroke-dashoffset:0;filter:url(#filter3901)"
       transform="matrix(0.98716527,0,0,-0.8,-33.221146,209)"
       sodipodi:nodetypes="ccccc" /><path
       sodipodi:nodetypes="ccccc"
       transform="matrix(0.8,0,0,-0.8,-9.0577818,209)"
       style="opacity:0.88477334;fill:#000000;fill-opacity:1;stroke:#000000;stroke-width:1.20000017;stroke-linecap:round;stroke-linejoin:round;stroke-miterlimit:4;stroke-opacity:1;stroke-dasharray:none;stroke-dashoffset:0;filter:url(#filter3863)"
       d="m 47.308189,232.77322 43.545402,-2.5982 36.931059,14.68849 -48.427155,-3.63259 z"
       id="path3867"
       inkscape:connector-curvature="0" /><path
       inkscape:connector-curvature="0"
       id="path3015"
       d="m 67.002763,91.49312 58.790747,1.469768 11.75816,67.241932 -66.139609,-0.73489 z"
       style="fill:#1a1a1a;fill-opacity:1;stroke:#1a1a1a;stroke-width:0.96000016;stroke-linecap:round;stroke-linejoin:round;stroke-miterlimit:4;stroke-opacity:1;stroke-dasharray:none;stroke-dashoffset:0"
       sodipodi:nodetypes="ccccc" /><path
       style="fill:#000000;fill-opacity:1;stroke:#000000;stroke-width:0.96000016;stroke-linecap:round;stroke-linejoin:round;stroke-miterlimit:4;stroke-opacity:1;stroke-dasharray:none;stroke-dashoffset:0"
       d="m 67.002763,91.49312 0,-68.711704 20.944207,-9.920936 1.837208,72.38612 z"
       id="path2993"
       inkscape:connector-curvature="0" /><path
       inkscape:connector-curvature="0"
       id="path2995"
       d="m 155.92379,85.981488 0,-68.711704 -67.97682,-4.409304 1.837208,72.38612 z"
       style="fill:#808080;fill-opacity:1;stroke:#808080;stroke-width:0.96000016;stroke-linecap:round;stroke-linejoin:round;stroke-miterlimit:4;stroke-opacity:1;stroke-dasharray:none;stroke-dashoffset:0"
       sodipodi:nodetypes="ccccc" /><path
       style="fill:#4d4d4d;fill-opacity:1;stroke:#4d4d4d;stroke-width:0.96000016;stroke-linecap:round;stroke-linejoin:round;stroke-miterlimit:4;stroke-opacity:1;stroke-dasharray:none;stroke-dashoffset:0"
       d="m 67.002763,91.49312 58.790747,1.469768 30.13027,-6.9814 L 89.784173,85.2466 z"
       id="path2997"
       inkscape:connector-curvature="0" /><path
       style="fill:#4d4d4d;fill-opacity:1;stroke:#4d4d4d;stroke-width:0.96000016;stroke-linecap:round;stroke-linejoin:round;stroke-miterlimit:4;stroke-opacity:1;stroke-dasharray:none;stroke-dashoffset:0"
       d="m 93.051834,86.780184 c 1.818744,0 31.438326,3.117848 32.217796,5.97588 0.77946,2.858032 25.46244,61.837376 25.46244,61.837376 l -83.142685,-0.77947 z"
       id="path2999"
       inkscape:connector-curvature="0" /><path
       style="fill:#cccccc;stroke:#cccccc;stroke-width:0.96000016;stroke-linecap:round;stroke-linejoin:round;stroke-miterlimit:4;stroke-opacity:1;stroke-dasharray:none;stroke-dashoffset:0"
       d="M 93.051838,86.780186 150.73208,154.59344 125.39955,91.976602 z"
       id="path3001"
       inkscape:connector-curvature="0" /><path
       style="fill:url(#linearGradient3011);fill-opacity:1;stroke:#cccccc;stroke-width:0.96000016;stroke-linecap:round;stroke-linejoin:round;stroke-miterlimit:4;stroke-opacity:1;stroke-dasharray:none;stroke-dashoffset:0"
       d="m 96.765588,95.16754 -22.046536,54.01401 66.507058,-2.93954 z"
       id="path3003"
       inkscape:connector-curvature="0" /><path
       style="fill:#1a1a1a;fill-opacity:1;stroke:#1a1a1a;stroke-width:0.96000016;stroke-linecap:round;stroke-linejoin:round;stroke-miterlimit:4;stroke-opacity:1;stroke-dasharray:none;stroke-dashoffset:0"
       d="m 50.181384,207.12653 c 1.688836,-8.83391 2.078567,-20.83494 2.078567,-20.83494 l -0.909373,-6.36561 0.519642,-5.32633 2.858029,-6.49553 2.338389,-5.71606 0.389731,-1.94865 -0.389731,-7.27499 0.779463,-4.15713 3.117851,-3.63749 5.196417,0.25982 2.078568,2.20847 3.897313,8.44418 1.371384,6.83145 -0.258352,8.29809 1.286048,11.11512 c 0.764536,7.80232 -1.4026,14.91701 -2.112792,22.32212 l 45.838412,0.18372 c 0,0 2.5721,-2.29651 3.67443,-4.50117 1.10233,-2.20465 4.96047,-8.17558 4.96047,-8.17558 l 3.85814,-3.49071 2.66396,-3.67442 c 0,0 2.29652,-7.16512 3.85814,-10.10466 1.56163,-2.93954 5.14419,-8.81861 5.14419,-8.81861 0,0 3.16365,-9.2223 4.96047,-14.51397 1.80378,-5.31215 3.69691,-7.43368 4.73217,-8.69985 2.00992,-2.4582 3.69408,-3.19219 4.3161,-3.0583 0,0 0.61285,0.63581 0.87267,0.89564 1.01046,1.01046 1.5157,-0.29855 1.975,-1.5846 0.4593,-1.28605 2.89362,-4.50117 2.89362,-4.50117 0,0 2.15872,-2.02093 4.13372,-2.25058 3.19881,-0.37196 4.50116,0.82674 4.50116,2.29651 0,1.46977 1.1942,18.73956 1.1942,18.73956 l 1.01046,1.74535 c 0,0 0,-3.12326 0.27558,-5.51163 0.27558,-2.38838 2.02093,-5.51164 3.30698,-6.88955 1.28605,-1.37791 3.95001,-3.39884 6.0628,-3.30698 2.11279,0.0919 4.68489,1.01047 5.23605,2.75582 0.55117,1.74535 0.0919,11.94187 -0.18372,13.41164 -0.27558,1.46977 0.36744,8.08373 0.91861,10.10466 0.55116,2.02094 -1.46977,14.33025 -1.10233,17.63723 0.36744,3.30698 -1.28605,15.43258 -0.36744,12.30932 0.9186,-3.12326 1.83721,-11.75816 3.67442,-15.6163 1.83721,-3.85814 4.04187,-8.26745 6.43023,-8.26745 2.38838,0 2.5721,3.30698 2.5721,3.30698 l -0.55116,31.60003 z"
       id="path3019"
       inkscape:connector-curvature="0"
       sodipodi:nodetypes="ccccccccccccccccccscccscsscsscssccssssssssssccc" /></g></svg>