<?xml version="1.0" encoding="UTF-8" standalone="no"?>
<!-- Created with Inkscape (http://www.inkscape.org/) -->
<svg
   xmlns:ns0="http://www.iki.fi/pav/software/textext/"
   xmlns:dc="http://purl.org/dc/elements/1.1/"
   xmlns:cc="http://creativecommons.org/ns#"
   xmlns:rdf="http://www.w3.org/1999/02/22-rdf-syntax-ns#"
   xmlns:svg="http://www.w3.org/2000/svg"
   xmlns="http://www.w3.org/2000/svg"
   xmlns:xlink="http://www.w3.org/1999/xlink"
   xmlns:sodipodi="http://sodipodi.sourceforge.net/DTD/sodipodi-0.dtd"
   xmlns:inkscape="http://www.inkscape.org/namespaces/inkscape"
   width="425.19684"
   height="425.19684"
   id="svg2"
   sodipodi:version="0.32"
   inkscape:version="0.46"
   version="1.0"
   sodipodi:docname="chap1-fig1.svg"
   inkscape:output_extension="org.inkscape.output.svg.inkscape">
  <sodipodi:namedview
     id="base"
     pagecolor="#ffffff"
     bordercolor="#666666"
     borderopacity="1.0"
     gridtolerance="10000"
     guidetolerance="10"
     objecttolerance="10"
     inkscape:pageopacity="0.0"
     inkscape:pageshadow="2"
     inkscape:zoom="1.979899"
     inkscape:cx="242.84221"
     inkscape:cy="127.44895"
     inkscape:document-units="px"
     inkscape:current-layer="layer1"
     showgrid="false"
     units="cm"
     inkscape:snap-intersection-line-segments="true"
     inkscape:snap-center="true"
     inkscape:window-width="962"
     inkscape:window-height="726"
     inkscape:window-x="25"
     inkscape:window-y="27">
    <inkscape:grid
       enabled="true"
       visible="true"
       id="grid9236"
       type="xygrid" />
  </sodipodi:namedview>
  <defs
     id="defs4">
    <marker
       style="overflow:visible"
       id="CurvyCross"
       refX="0.0"
       refY="0.0"
       orient="auto"
       inkscape:stockid="CurvyCross">
      <g
         transform="scale(0.6)"
         id="g3357">
        <path
           style="fill:none;fill-rule:evenodd;stroke:#000000;stroke-width:1.0pt;marker-start:none;marker-end:none"
           d="M 4.6254930,-5.0456926 C 1.8654930,-5.0456926 -0.37450702,-2.8056926 -0.37450702,-0.045692580 C -0.37450702,2.7143074 1.8654930,4.9543074 4.6254930,4.9543074"
           id="path3359" />
        <path
           style="fill:none;fill-rule:evenodd;stroke:#000000;stroke-width:1.0pt;marker-start:none;marker-end:none"
           d="M -5.4129913,-5.0456926 C -2.6529913,-5.0456926 -0.41299131,-2.8056926 -0.41299131,-0.045692580 C -0.41299131,2.7143074 -2.6529913,4.9543074 -5.4129913,4.9543074"
           id="path3361" />
      </g>
    </marker>
    <marker
       style="overflow:visible;"
       id="Arrow1Lend"
       refX="0.0"
       refY="0.0"
       orient="auto"
       inkscape:stockid="Arrow1Lend">
      <path
         transform="scale(0.8) rotate(180) translate(12.5,0)"
         style="fill-rule:evenodd;stroke:#000000;stroke-width:1.0pt;marker-start:none;"
         d="M 0.0,0.0 L 5.0,-5.0 L -12.5,0.0 L 5.0,5.0 L 0.0,0.0 z "
         id="path3169" />
    </marker>
    <marker
       style="overflow:visible;"
       id="Arrow1Mend"
       refX="0.0"
       refY="0.0"
       orient="auto"
       inkscape:stockid="Arrow1Mend">
      <path
         transform="scale(0.4) rotate(180) translate(10,0)"
         style="fill-rule:evenodd;stroke:#000000;stroke-width:1.0pt;marker-start:none;"
         d="M 0.0,0.0 L 5.0,-5.0 L -12.5,0.0 L 5.0,5.0 L 0.0,0.0 z "
         id="path3175" />
    </marker>
    <inkscape:perspective
       id="perspective10"
       inkscape:persp3d-origin="372.04724 : 350.78739 : 1"
       inkscape:vp_z="744.09448 : 526.18109 : 1"
       inkscape:vp_y="0 : 1000 : 0"
       inkscape:vp_x="0 : 526.18109 : 1"
       sodipodi:type="inkscape:persp3d" />
  </defs>
  <metadata
     id="metadata7">
    <rdf:RDF>
      <cc:Work
         rdf:about="">
        <dc:format>image/svg+xml</dc:format>
        <dc:type
           rdf:resource="http://purl.org/dc/dcmitype/StillImage" />
      </cc:Work>
    </rdf:RDF>
  </metadata>
  <g
     id="layer1"
     inkscape:groupmode="layer"
     inkscape:label="Layer 1">
    <path
       id="path2383"
       d="M 341.42857,46.625409 C 341.42857,344.38463 341.22851,344.38463 341.22851,344.38463"
       style="fill:none;fill-rule:evenodd;stroke:#000000;stroke-width:1;stroke-linecap:butt;stroke-linejoin:miter;stroke-miterlimit:4;stroke-dasharray:6, 6;stroke-dashoffset:0;stroke-opacity:1" />
    <path
       style="fill:none;fill-rule:evenodd;stroke:#000000;stroke-width:1;stroke-linecap:butt;stroke-linejoin:miter;stroke-miterlimit:4;stroke-dasharray:6, 6;stroke-dashoffset:0;stroke-opacity:1"
       d="M 261.39411,124.9741 C 261.39411,342.29117 261.2481,342.29117 261.2481,342.29117"
       id="path3155" />
    <path
       id="path3157"
       d="M 125.02595,167.11261 C 125.02595,344.61171 124.9067,344.61171 124.9067,344.61171"
       style="fill:none;fill-rule:evenodd;stroke:#000000;stroke-width:1;stroke-linecap:butt;stroke-linejoin:miter;stroke-miterlimit:4;stroke-dasharray:6, 6;stroke-dashoffset:0;stroke-opacity:1" />
    <path
       id="path3159"
       d="M 124.99999,158.19684 C 124.99999,75.339699 124.99999,75.339699 124.99999,75.339699"
       style="fill:none;fill-rule:evenodd;stroke:#000000;stroke-width:1px;stroke-linecap:butt;stroke-linejoin:miter;marker-end:url(#Arrow1Lend);stroke-opacity:1" />
    <path
       style="fill:none;fill-rule:evenodd;stroke:#000000;stroke-width:1;stroke-linecap:butt;stroke-linejoin:miter;stroke-miterlimit:4;stroke-dasharray:none;stroke-opacity:1;marker-end:url(#Arrow1Lend)"
       d="M 125.17229,125.91112 C 260.25625,125.91112 260.25625,125.91112 260.25625,125.91112"
       id="path3161" />
    <path
       style="fill:none;fill-rule:evenodd;stroke:#000000;stroke-width:1;stroke-linecap:butt;stroke-linejoin:miter;marker-end:url(#Arrow1Lend);stroke-opacity:1;stroke-miterlimit:4;stroke-dasharray:none"
       d="M 124.99999,181.08148 C 124.99999,126.45505 124.99999,126.45505 124.99999,126.45505"
       id="path4987" />
    <path
       id="path4989"
       d="M 124.28571,74.482552 C 340.71429,48.053981 340.71429,48.053981 340.71429,48.053981"
       style="fill:none;fill-rule:evenodd;stroke:#000000;stroke-width:1px;stroke-linecap:butt;stroke-linejoin:miter;stroke-opacity:1;marker-end:url(#Arrow1Lend)" />
    <path
       id="path7612"
       d="M 124.75384,341.85925 C 340.92648,341.85925 340.92648,341.85925 340.92648,341.85925"
       style="fill:none;fill-rule:evenodd;stroke:#000000;stroke-width:1px;stroke-linecap:butt;stroke-linejoin:miter;marker-end:url(#Arrow1Lend);stroke-opacity:1" />
    <path
       id="path8135"
       d="M 125.17229,341.91112 C 260.25625,341.91112 260.25625,341.91112 260.25625,341.91112"
       style="fill:none;fill-rule:evenodd;stroke:#000000;stroke-width:1;stroke-linecap:butt;stroke-linejoin:miter;marker-end:url(#Arrow1Lend);stroke-miterlimit:4;stroke-dasharray:none;stroke-opacity:1" />
    <g
       id="g9222"
       transform="matrix(0.8699482,0,0,0.7997298,-50.60418,218.18766)">
      <g
         id="g9224">
        <path
           style="fill:none;fill-rule:evenodd;stroke:#000000;stroke-width:1px;stroke-linecap:butt;stroke-linejoin:miter;stroke-opacity:1"
           d="M 204.55589,151.4455 L 198.49498,158.01149"
           id="path9226" />
        <path
           id="path9228"
           d="M 198.7272,151.69804 L 205.29319,157.75895"
           style="fill:none;fill-rule:evenodd;stroke:#000000;stroke-width:1px;stroke-linecap:butt;stroke-linejoin:miter;stroke-opacity:1" />
      </g>
    </g>
    <path
       sodipodi:open="true"
       transform="matrix(1.9984091,-5.2597195e-2,5.1835404e-2,1.3136262,-111.60223,-130.1662)"
       sodipodi:end="6.3193072"
       sodipodi:start="3.1946299"
       d="M 55.073823,407.74018 A 52.5,46.341217 0 0 1 159.96575,411.87041"
       sodipodi:ry="46.341217"
       sodipodi:rx="52.5"
       sodipodi:cy="410.19684"
       sodipodi:cx="107.5"
       id="path9238"
       style="opacity:1;fill:none;fill-opacity:1;fill-rule:evenodd;stroke:#000000;stroke-width:0.61687404;stroke-linecap:butt;stroke-linejoin:miter;marker:none;marker-start:none;marker-mid:none;marker-end:none;stroke-miterlimit:4;stroke-dasharray:none;stroke-dashoffset:0;stroke-opacity:1;visibility:visible;display:inline;overflow:visible;enable-background:accumulate"
       sodipodi:type="arc" />
    <g
       id="g9273"
       ns0:preamble=""
       ns0:text="$\\theta\\cdot x$"
       transform="matrix(1.4760068,0,0,1.3536639,-231.30981,-107.2992)">
      <defs
         id="defs9275">
        <g
           id="g9277">
          <symbol
             id="textext-e0450f94-0"
             overflow="visible"
             style="overflow:visible">
            <path
               id="path9280"
               d=""
               style="stroke:none" />
          </symbol>
          <symbol
             id="textext-e0450f94-1"
             overflow="visible"
             style="overflow:visible">
            <path
               id="path9283"
               d="M 4.53125,-4.984375 C 4.53125,-5.640625 4.359375,-7.03125 3.34375,-7.03125 C 1.953125,-7.03125 0.421875,-4.21875 0.421875,-1.9375 C 0.421875,-1 0.703125,0.109375 1.609375,0.109375 C 3.015625,0.109375 4.53125,-2.75 4.53125,-4.984375 z M 1.46875,-3.625 C 1.640625,-4.25 1.84375,-5.046875 2.25,-5.765625 C 2.515625,-6.25 2.875,-6.8125 3.328125,-6.8125 C 3.8125,-6.8125 3.875,-6.171875 3.875,-5.609375 C 3.875,-5.109375 3.796875,-4.609375 3.5625,-3.625 L 1.46875,-3.625 z M 3.46875,-3.296875 C 3.359375,-2.84375 3.15625,-2 2.765625,-1.28125 C 2.421875,-0.59375 2.046875,-0.109375 1.609375,-0.109375 C 1.28125,-0.109375 1.078125,-0.40625 1.078125,-1.328125 C 1.078125,-1.75 1.140625,-2.328125 1.390625,-3.296875 L 3.46875,-3.296875 z"
               style="stroke:none" />
          </symbol>
          <symbol
             id="textext-e0450f94-2"
             overflow="visible"
             style="overflow:visible">
            <path
               id="path9286"
               d="M 3.328125,-3.015625 C 3.390625,-3.265625 3.625,-4.1875 4.3125,-4.1875 C 4.359375,-4.1875 4.609375,-4.1875 4.8125,-4.0625 C 4.53125,-4 4.34375,-3.765625 4.34375,-3.515625 C 4.34375,-3.359375 4.453125,-3.171875 4.71875,-3.171875 C 4.9375,-3.171875 5.25,-3.34375 5.25,-3.75 C 5.25,-4.265625 4.671875,-4.40625 4.328125,-4.40625 C 3.75,-4.40625 3.40625,-3.875 3.28125,-3.65625 C 3.03125,-4.3125 2.5,-4.40625 2.203125,-4.40625 C 1.171875,-4.40625 0.59375,-3.125 0.59375,-2.875 C 0.59375,-2.765625 0.703125,-2.765625 0.71875,-2.765625 C 0.796875,-2.765625 0.828125,-2.796875 0.84375,-2.875 C 1.1875,-3.9375 1.84375,-4.1875 2.1875,-4.1875 C 2.375,-4.1875 2.71875,-4.09375 2.71875,-3.515625 C 2.71875,-3.203125 2.546875,-2.546875 2.1875,-1.140625 C 2.03125,-0.53125 1.671875,-0.109375 1.234375,-0.109375 C 1.171875,-0.109375 0.953125,-0.109375 0.734375,-0.234375 C 0.984375,-0.296875 1.203125,-0.5 1.203125,-0.78125 C 1.203125,-1.046875 0.984375,-1.125 0.84375,-1.125 C 0.53125,-1.125 0.296875,-0.875 0.296875,-0.546875 C 0.296875,-0.09375 0.78125,0.109375 1.21875,0.109375 C 1.890625,0.109375 2.25,-0.59375 2.265625,-0.640625 C 2.390625,-0.28125 2.75,0.109375 3.34375,0.109375 C 4.375,0.109375 4.9375,-1.171875 4.9375,-1.421875 C 4.9375,-1.53125 4.859375,-1.53125 4.828125,-1.53125 C 4.734375,-1.53125 4.71875,-1.484375 4.6875,-1.421875 C 4.359375,-0.34375 3.6875,-0.109375 3.375,-0.109375 C 2.984375,-0.109375 2.828125,-0.421875 2.828125,-0.765625 C 2.828125,-0.984375 2.875,-1.203125 2.984375,-1.640625 L 3.328125,-3.015625 z"
               style="stroke:none" />
          </symbol>
          <symbol
             id="textext-e0450f94-3"
             overflow="visible"
             style="overflow:visible">
            <path
               id="path9289"
               d=""
               style="stroke:none" />
          </symbol>
          <symbol
             id="textext-e0450f94-4"
             overflow="visible"
             style="overflow:visible">
            <path
               id="path9292"
               d="M 1.90625,-2.5 C 1.90625,-2.78125 1.671875,-3.015625 1.390625,-3.015625 C 1.09375,-3.015625 0.859375,-2.78125 0.859375,-2.5 C 0.859375,-2.203125 1.09375,-1.96875 1.390625,-1.96875 C 1.671875,-1.96875 1.90625,-2.203125 1.90625,-2.5 z"
               style="stroke:none" />
          </symbol>
        </g>
      </defs>
      <g
         id="textext-e0450f94-5">
        <g
           id="g9295"
           style="fill:#000000;fill-opacity:1">
          <use
             id="use9297"
             y="134.765"
             x="223.43201"
             xlink:href="#textext-e0450f94-1"
             width="425.19684"
             height="425.19684" />
        </g>
        <g
           id="g9299"
           style="fill:#000000;fill-opacity:1">
          <use
             id="use9301"
             y="134.765"
             x="230.60001"
             xlink:href="#textext-e0450f94-4"
             width="425.19684"
             height="425.19684" />
        </g>
        <g
           id="g9303"
           style="fill:#000000;fill-opacity:1">
          <use
             id="use9305"
             y="134.765"
             x="235.58099"
             xlink:href="#textext-e0450f94-2"
             width="425.19684"
             height="425.19684" />
        </g>
      </g>
    </g>
    <g
       id="g9671"
       transform="matrix(1.1148027,0,0,1.3028752,97.530612,-129.45744)"
       ns0:preamble=""
       ns0:text="$G(\\theta\\cdot x)=(f\\circ k)\'\'$">
      <defs
         id="defs9673">
        <g
           id="g9675">
          <symbol
             id="textext-31da9301-0"
             overflow="visible"
             style="overflow:visible">
            <path
               id="path9678"
               d=""
               style="stroke:none" />
          </symbol>
          <symbol
             id="textext-31da9301-1"
             overflow="visible"
             style="overflow:visible">
            <path
               id="path9681"
               d="M 7.578125,-6.921875 C 7.578125,-6.953125 7.5625,-7.03125 7.46875,-7.03125 C 7.4375,-7.03125 7.421875,-7.015625 7.3125,-6.90625 L 6.625,-6.140625 C 6.53125,-6.28125 6.078125,-7.03125 4.96875,-7.03125 C 2.734375,-7.03125 0.5,-4.828125 0.5,-2.515625 C 0.5,-0.921875 1.609375,0.21875 3.21875,0.21875 C 3.65625,0.21875 4.109375,0.125 4.46875,-0.015625 C 4.96875,-0.21875 5.15625,-0.421875 5.328125,-0.625 C 5.421875,-0.375 5.6875,-0.015625 5.78125,-0.015625 C 5.828125,-0.015625 5.859375,-0.046875 5.859375,-0.046875 C 5.875,-0.0625 5.96875,-0.453125 6.015625,-0.65625 L 6.203125,-1.421875 C 6.25,-1.59375 6.296875,-1.765625 6.34375,-1.9375 C 6.453125,-2.375 6.453125,-2.40625 7.03125,-2.40625 C 7.078125,-2.40625 7.1875,-2.421875 7.1875,-2.609375 C 7.1875,-2.6875 7.140625,-2.71875 7.0625,-2.71875 C 6.828125,-2.71875 6.234375,-2.6875 6.015625,-2.6875 C 5.703125,-2.6875 4.921875,-2.71875 4.609375,-2.71875 C 4.53125,-2.71875 4.40625,-2.71875 4.40625,-2.515625 C 4.40625,-2.40625 4.484375,-2.40625 4.703125,-2.40625 C 4.71875,-2.40625 5,-2.40625 5.234375,-2.390625 C 5.5,-2.359375 5.546875,-2.328125 5.546875,-2.203125 C 5.546875,-2.109375 5.4375,-1.671875 5.328125,-1.296875 C 5.046875,-0.203125 3.765625,-0.09375 3.40625,-0.09375 C 2.453125,-0.09375 1.40625,-0.65625 1.40625,-2.1875 C 1.40625,-2.5 1.5,-4.140625 2.546875,-5.4375 C 3.09375,-6.109375 4.0625,-6.71875 5.046875,-6.71875 C 6.0625,-6.71875 6.65625,-5.953125 6.65625,-4.796875 C 6.65625,-4.390625 6.625,-4.390625 6.625,-4.28125 C 6.625,-4.1875 6.734375,-4.1875 6.765625,-4.1875 C 6.890625,-4.1875 6.890625,-4.203125 6.953125,-4.390625 L 7.578125,-6.921875 z"
               style="stroke:none" />
          </symbol>
          <symbol
             id="textext-31da9301-2"
             overflow="visible"
             style="overflow:visible">
            <path
               id="path9684"
               d="M 4.53125,-4.984375 C 4.53125,-5.640625 4.359375,-7.03125 3.34375,-7.03125 C 1.953125,-7.03125 0.421875,-4.21875 0.421875,-1.9375 C 0.421875,-1 0.703125,0.109375 1.609375,0.109375 C 3.015625,0.109375 4.53125,-2.75 4.53125,-4.984375 z M 1.46875,-3.625 C 1.640625,-4.25 1.84375,-5.046875 2.25,-5.765625 C 2.515625,-6.25 2.875,-6.8125 3.328125,-6.8125 C 3.8125,-6.8125 3.875,-6.171875 3.875,-5.609375 C 3.875,-5.109375 3.796875,-4.609375 3.5625,-3.625 L 1.46875,-3.625 z M 3.46875,-3.296875 C 3.359375,-2.84375 3.15625,-2 2.765625,-1.28125 C 2.421875,-0.59375 2.046875,-0.109375 1.609375,-0.109375 C 1.28125,-0.109375 1.078125,-0.40625 1.078125,-1.328125 C 1.078125,-1.75 1.140625,-2.328125 1.390625,-3.296875 L 3.46875,-3.296875 z"
               style="stroke:none" />
          </symbol>
          <symbol
             id="textext-31da9301-3"
             overflow="visible"
             style="overflow:visible">
            <path
               id="path9687"
               d="M 3.328125,-3.015625 C 3.390625,-3.265625 3.625,-4.1875 4.3125,-4.1875 C 4.359375,-4.1875 4.609375,-4.1875 4.8125,-4.0625 C 4.53125,-4 4.34375,-3.765625 4.34375,-3.515625 C 4.34375,-3.359375 4.453125,-3.171875 4.71875,-3.171875 C 4.9375,-3.171875 5.25,-3.34375 5.25,-3.75 C 5.25,-4.265625 4.671875,-4.40625 4.328125,-4.40625 C 3.75,-4.40625 3.40625,-3.875 3.28125,-3.65625 C 3.03125,-4.3125 2.5,-4.40625 2.203125,-4.40625 C 1.171875,-4.40625 0.59375,-3.125 0.59375,-2.875 C 0.59375,-2.765625 0.703125,-2.765625 0.71875,-2.765625 C 0.796875,-2.765625 0.828125,-2.796875 0.84375,-2.875 C 1.1875,-3.9375 1.84375,-4.1875 2.1875,-4.1875 C 2.375,-4.1875 2.71875,-4.09375 2.71875,-3.515625 C 2.71875,-3.203125 2.546875,-2.546875 2.1875,-1.140625 C 2.03125,-0.53125 1.671875,-0.109375 1.234375,-0.109375 C 1.171875,-0.109375 0.953125,-0.109375 0.734375,-0.234375 C 0.984375,-0.296875 1.203125,-0.5 1.203125,-0.78125 C 1.203125,-1.046875 0.984375,-1.125 0.84375,-1.125 C 0.53125,-1.125 0.296875,-0.875 0.296875,-0.546875 C 0.296875,-0.09375 0.78125,0.109375 1.21875,0.109375 C 1.890625,0.109375 2.25,-0.59375 2.265625,-0.640625 C 2.390625,-0.28125 2.75,0.109375 3.34375,0.109375 C 4.375,0.109375 4.9375,-1.171875 4.9375,-1.421875 C 4.9375,-1.53125 4.859375,-1.53125 4.828125,-1.53125 C 4.734375,-1.53125 4.71875,-1.484375 4.6875,-1.421875 C 4.359375,-0.34375 3.6875,-0.109375 3.375,-0.109375 C 2.984375,-0.109375 2.828125,-0.421875 2.828125,-0.765625 C 2.828125,-0.984375 2.875,-1.203125 2.984375,-1.640625 L 3.328125,-3.015625 z"
               style="stroke:none" />
          </symbol>
          <symbol
             id="textext-31da9301-4"
             overflow="visible"
             style="overflow:visible">
            <path
               id="path9690"
               d="M 3.65625,-3.984375 L 4.515625,-3.984375 C 4.71875,-3.984375 4.8125,-3.984375 4.8125,-4.1875 C 4.8125,-4.296875 4.71875,-4.296875 4.546875,-4.296875 L 3.71875,-4.296875 C 3.828125,-4.875 3.8125,-4.859375 3.921875,-5.4375 C 3.96875,-5.640625 4.109375,-6.34375 4.171875,-6.46875 C 4.25,-6.65625 4.421875,-6.8125 4.640625,-6.8125 C 4.671875,-6.8125 4.9375,-6.8125 5.125,-6.625 C 4.6875,-6.59375 4.578125,-6.234375 4.578125,-6.09375 C 4.578125,-5.859375 4.765625,-5.734375 4.953125,-5.734375 C 5.21875,-5.734375 5.5,-5.96875 5.5,-6.34375 C 5.5,-6.796875 5.046875,-7.03125 4.640625,-7.03125 C 4.296875,-7.03125 3.671875,-6.84375 3.375,-5.859375 C 3.3125,-5.65625 3.28125,-5.546875 3.046875,-4.296875 L 2.359375,-4.296875 C 2.15625,-4.296875 2.046875,-4.296875 2.046875,-4.109375 C 2.046875,-3.984375 2.140625,-3.984375 2.328125,-3.984375 L 2.984375,-3.984375 L 2.25,-0.046875 C 2.0625,0.921875 1.890625,1.828125 1.375,1.828125 C 1.328125,1.828125 1.09375,1.828125 0.890625,1.640625 C 1.359375,1.609375 1.453125,1.25 1.453125,1.109375 C 1.453125,0.875 1.265625,0.75 1.078125,0.75 C 0.8125,0.75 0.53125,0.984375 0.53125,1.359375 C 0.53125,1.796875 0.96875,2.046875 1.375,2.046875 C 1.921875,2.046875 2.328125,1.453125 2.5,1.078125 C 2.828125,0.453125 3.046875,-0.75 3.0625,-0.828125 L 3.65625,-3.984375 z"
               style="stroke:none" />
          </symbol>
          <symbol
             id="textext-31da9301-5"
             overflow="visible"
             style="overflow:visible">
            <path
               id="path9693"
               d="M 2.859375,-6.8125 C 2.859375,-6.8125 2.859375,-6.921875 2.734375,-6.921875 C 2.5,-6.921875 1.78125,-6.84375 1.515625,-6.8125 C 1.4375,-6.8125 1.328125,-6.796875 1.328125,-6.625 C 1.328125,-6.5 1.421875,-6.5 1.5625,-6.5 C 2.046875,-6.5 2.0625,-6.4375 2.0625,-6.328125 L 2.03125,-6.125 L 0.59375,-0.390625 C 0.546875,-0.25 0.546875,-0.234375 0.546875,-0.171875 C 0.546875,0.0625 0.75,0.109375 0.84375,0.109375 C 0.96875,0.109375 1.109375,0.015625 1.171875,-0.09375 C 1.21875,-0.1875 1.671875,-2.03125 1.734375,-2.28125 C 2.078125,-2.25 2.890625,-2.09375 2.890625,-1.4375 C 2.890625,-1.359375 2.890625,-1.328125 2.859375,-1.21875 C 2.84375,-1.109375 2.828125,-0.984375 2.828125,-0.875 C 2.828125,-0.296875 3.21875,0.109375 3.734375,0.109375 C 4.03125,0.109375 4.3125,-0.046875 4.53125,-0.421875 C 4.78125,-0.859375 4.890625,-1.40625 4.890625,-1.421875 C 4.890625,-1.53125 4.796875,-1.53125 4.765625,-1.53125 C 4.671875,-1.53125 4.65625,-1.484375 4.625,-1.34375 C 4.421875,-0.625 4.203125,-0.109375 3.765625,-0.109375 C 3.5625,-0.109375 3.4375,-0.21875 3.4375,-0.578125 C 3.4375,-0.75 3.484375,-0.984375 3.515625,-1.140625 C 3.5625,-1.3125 3.5625,-1.34375 3.5625,-1.453125 C 3.5625,-2.09375 2.9375,-2.375 2.078125,-2.5 C 2.390625,-2.671875 2.71875,-2.984375 2.9375,-3.234375 C 3.421875,-3.765625 3.875,-4.1875 4.359375,-4.1875 C 4.421875,-4.1875 4.4375,-4.1875 4.453125,-4.171875 C 4.578125,-4.15625 4.578125,-4.15625 4.671875,-4.09375 C 4.6875,-4.09375 4.6875,-4.078125 4.703125,-4.0625 C 4.234375,-4.03125 4.140625,-3.640625 4.140625,-3.515625 C 4.140625,-3.359375 4.25,-3.171875 4.515625,-3.171875 C 4.78125,-3.171875 5.0625,-3.390625 5.0625,-3.78125 C 5.0625,-4.078125 4.828125,-4.40625 4.390625,-4.40625 C 4.109375,-4.40625 3.65625,-4.328125 2.9375,-3.53125 C 2.59375,-3.15625 2.203125,-2.75 1.828125,-2.609375 L 2.859375,-6.8125 z"
               style="stroke:none" />
          </symbol>
          <symbol
             id="textext-31da9301-6"
             overflow="visible"
             style="overflow:visible">
            <path
               id="path9696"
               d=""
               style="stroke:none" />
          </symbol>
          <symbol
             id="textext-31da9301-7"
             overflow="visible"
             style="overflow:visible">
            <path
               id="path9699"
               d="M 3.296875,2.390625 C 3.296875,2.359375 3.296875,2.34375 3.125,2.171875 C 1.890625,0.921875 1.5625,-0.96875 1.5625,-2.5 C 1.5625,-4.234375 1.9375,-5.96875 3.171875,-7.203125 C 3.296875,-7.328125 3.296875,-7.34375 3.296875,-7.375 C 3.296875,-7.453125 3.265625,-7.484375 3.203125,-7.484375 C 3.09375,-7.484375 2.203125,-6.796875 1.609375,-5.53125 C 1.109375,-4.4375 0.984375,-3.328125 0.984375,-2.5 C 0.984375,-1.71875 1.09375,-0.515625 1.640625,0.625 C 2.25,1.84375 3.09375,2.5 3.203125,2.5 C 3.265625,2.5 3.296875,2.46875 3.296875,2.390625 z"
               style="stroke:none" />
          </symbol>
          <symbol
             id="textext-31da9301-8"
             overflow="visible"
             style="overflow:visible">
            <path
               id="path9702"
               d="M 2.875,-2.5 C 2.875,-3.265625 2.765625,-4.46875 2.21875,-5.609375 C 1.625,-6.828125 0.765625,-7.484375 0.671875,-7.484375 C 0.609375,-7.484375 0.5625,-7.4375 0.5625,-7.375 C 0.5625,-7.34375 0.5625,-7.328125 0.75,-7.140625 C 1.734375,-6.15625 2.296875,-4.578125 2.296875,-2.5 C 2.296875,-0.78125 1.9375,0.96875 0.703125,2.21875 C 0.5625,2.34375 0.5625,2.359375 0.5625,2.390625 C 0.5625,2.453125 0.609375,2.5 0.671875,2.5 C 0.765625,2.5 1.671875,1.8125 2.25,0.546875 C 2.765625,-0.546875 2.875,-1.65625 2.875,-2.5 z"
               style="stroke:none" />
          </symbol>
          <symbol
             id="textext-31da9301-9"
             overflow="visible"
             style="overflow:visible">
            <path
               id="path9705"
               d="M 6.84375,-3.265625 C 7,-3.265625 7.1875,-3.265625 7.1875,-3.453125 C 7.1875,-3.65625 7,-3.65625 6.859375,-3.65625 L 0.890625,-3.65625 C 0.75,-3.65625 0.5625,-3.65625 0.5625,-3.453125 C 0.5625,-3.265625 0.75,-3.265625 0.890625,-3.265625 L 6.84375,-3.265625 z M 6.859375,-1.328125 C 7,-1.328125 7.1875,-1.328125 7.1875,-1.53125 C 7.1875,-1.71875 7,-1.71875 6.84375,-1.71875 L 0.890625,-1.71875 C 0.75,-1.71875 0.5625,-1.71875 0.5625,-1.53125 C 0.5625,-1.328125 0.75,-1.328125 0.890625,-1.328125 L 6.859375,-1.328125 z"
               style="stroke:none" />
          </symbol>
          <symbol
             id="textext-31da9301-10"
             overflow="visible"
             style="overflow:visible">
            <path
               id="path9708"
               d=""
               style="stroke:none" />
          </symbol>
          <symbol
             id="textext-31da9301-11"
             overflow="visible"
             style="overflow:visible">
            <path
               id="path9711"
               d="M 1.90625,-2.5 C 1.90625,-2.78125 1.671875,-3.015625 1.390625,-3.015625 C 1.09375,-3.015625 0.859375,-2.78125 0.859375,-2.5 C 0.859375,-2.203125 1.09375,-1.96875 1.390625,-1.96875 C 1.671875,-1.96875 1.90625,-2.203125 1.90625,-2.5 z"
               style="stroke:none" />
          </symbol>
          <symbol
             id="textext-31da9301-12"
             overflow="visible"
             style="overflow:visible">
            <path
               id="path9714"
               d="M 4.421875,-2.5 C 4.421875,-3.5625 3.53125,-4.421875 2.5,-4.421875 C 1.40625,-4.421875 0.5625,-3.53125 0.5625,-2.5 C 0.5625,-1.421875 1.4375,-0.5625 2.484375,-0.5625 C 3.5625,-0.5625 4.421875,-1.453125 4.421875,-2.5 z M 2.5,-0.953125 C 1.625,-0.953125 0.953125,-1.671875 0.953125,-2.5 C 0.953125,-3.3125 1.625,-4.03125 2.5,-4.03125 C 3.328125,-4.03125 4.015625,-3.34375 4.015625,-2.5 C 4.015625,-1.640625 3.328125,-0.953125 2.5,-0.953125 z"
               style="stroke:none" />
          </symbol>
          <symbol
             id="textext-31da9301-13"
             overflow="visible"
             style="overflow:visible">
            <path
               id="path9717"
               d=""
               style="stroke:none" />
          </symbol>
          <symbol
             id="textext-31da9301-14"
             overflow="visible"
             style="overflow:visible">
            <path
               id="path9720"
               d="M 2.03125,-3.296875 C 2.0625,-3.359375 2.078125,-3.421875 2.078125,-3.515625 C 2.078125,-3.734375 1.890625,-3.890625 1.671875,-3.890625 C 1.390625,-3.890625 1.328125,-3.671875 1.296875,-3.578125 L 0.375,-0.5625 C 0.359375,-0.53125 0.328125,-0.453125 0.328125,-0.4375 C 0.328125,-0.359375 0.546875,-0.28125 0.609375,-0.28125 C 0.65625,-0.28125 0.6875,-0.328125 0.703125,-0.390625 L 2.03125,-3.296875 z"
               style="stroke:none" />
          </symbol>
        </g>
      </defs>
      <g
         id="textext-31da9301-15">
        <g
           id="g9723"
           style="fill:#000000;fill-opacity:1">
          <use
             id="use9725"
             y="134.765"
             x="223.43201"
             xlink:href="#textext-31da9301-1"
             width="425.19684"
             height="425.19684" />
        </g>
        <g
           id="g9727"
           style="fill:#000000;fill-opacity:1">
          <use
             id="use9729"
             y="134.765"
             x="231.265"
             xlink:href="#textext-31da9301-7"
             width="425.19684"
             height="425.19684" />
        </g>
        <g
           id="g9731"
           style="fill:#000000;fill-opacity:1">
          <use
             id="use9733"
             y="134.765"
             x="235.14"
             xlink:href="#textext-31da9301-2"
             width="425.19684"
             height="425.19684" />
        </g>
        <g
           id="g9735"
           style="fill:#000000;fill-opacity:1">
          <use
             id="use9737"
             y="134.765"
             x="242.30701"
             xlink:href="#textext-31da9301-11"
             width="425.19684"
             height="425.19684" />
        </g>
        <g
           id="g9739"
           style="fill:#000000;fill-opacity:1">
          <use
             id="use9741"
             y="134.765"
             x="247.28799"
             xlink:href="#textext-31da9301-3"
             width="425.19684"
             height="425.19684" />
        </g>
        <g
           id="g9743"
           style="fill:#000000;fill-opacity:1">
          <use
             id="use9745"
             y="134.765"
             x="252.98199"
             xlink:href="#textext-31da9301-8"
             width="425.19684"
             height="425.19684" />
        </g>
        <g
           id="g9747"
           style="fill:#000000;fill-opacity:1">
          <use
             id="use9749"
             y="134.765"
             x="259.62607"
             xlink:href="#textext-31da9301-9"
             width="425.19684"
             height="425.19684" />
        </g>
        <g
           id="g9751"
           style="fill:#000000;fill-opacity:1">
          <use
             id="use9753"
             y="134.765"
             x="270.14456"
             xlink:href="#textext-31da9301-7"
             width="425.19684"
             height="425.19684" />
        </g>
        <g
           id="g9755"
           style="fill:#000000;fill-opacity:1">
          <use
             id="use9757"
             y="134.765"
             x="274.01401"
             xlink:href="#textext-31da9301-4"
             width="425.19684"
             height="425.19684" />
        </g>
        <g
           id="g9759"
           style="fill:#000000;fill-opacity:1">
          <use
             id="use9761"
             y="134.765"
             x="282.17801"
             xlink:href="#textext-31da9301-12"
             width="425.19684"
             height="425.19684" />
        </g>
        <g
           id="g9763"
           style="fill:#000000;fill-opacity:1">
          <use
             id="use9765"
             y="134.765"
             x="289.37299"
             xlink:href="#textext-31da9301-5"
             width="425.19684"
             height="425.19684" />
        </g>
        <g
           id="g9767"
           style="fill:#000000;fill-opacity:1">
          <use
             id="use9769"
             y="134.765"
             x="294.87399"
             xlink:href="#textext-31da9301-8"
             width="425.19684"
             height="425.19684" />
        </g>
        <g
           id="g9771"
           style="fill:#000000;fill-opacity:1">
          <use
             id="use9773"
             y="131.14999"
             x="298.74799"
             xlink:href="#textext-31da9301-14"
             width="425.19684"
             height="425.19684" />
          <use
             id="use9775"
             y="131.14999"
             x="301.04517"
             xlink:href="#textext-31da9301-14"
             width="425.19684"
             height="425.19684" />
        </g>
      </g>
    </g>
    <g
       transform="matrix(1.1820739,0,0,1.3028752,4.1796049,-46.624931)"
       ns0:text="$G(x)=f\'\'$"
       ns0:preamble=""
       id="g10003">
      <defs
         id="defs10005">
        <g
           id="g10007">
          <symbol
             style="overflow:visible"
             overflow="visible"
             id="textext-4fee34bd-0">
            <path
               style="stroke:none"
               d=""
               id="path10010" />
          </symbol>
          <symbol
             style="overflow:visible"
             overflow="visible"
             id="textext-4fee34bd-1">
            <path
               style="stroke:none"
               d="M 7.578125,-6.921875 C 7.578125,-6.953125 7.5625,-7.03125 7.46875,-7.03125 C 7.4375,-7.03125 7.421875,-7.015625 7.3125,-6.90625 L 6.625,-6.140625 C 6.53125,-6.28125 6.078125,-7.03125 4.96875,-7.03125 C 2.734375,-7.03125 0.5,-4.828125 0.5,-2.515625 C 0.5,-0.921875 1.609375,0.21875 3.21875,0.21875 C 3.65625,0.21875 4.109375,0.125 4.46875,-0.015625 C 4.96875,-0.21875 5.15625,-0.421875 5.328125,-0.625 C 5.421875,-0.375 5.6875,-0.015625 5.78125,-0.015625 C 5.828125,-0.015625 5.859375,-0.046875 5.859375,-0.046875 C 5.875,-0.0625 5.96875,-0.453125 6.015625,-0.65625 L 6.203125,-1.421875 C 6.25,-1.59375 6.296875,-1.765625 6.34375,-1.9375 C 6.453125,-2.375 6.453125,-2.40625 7.03125,-2.40625 C 7.078125,-2.40625 7.1875,-2.421875 7.1875,-2.609375 C 7.1875,-2.6875 7.140625,-2.71875 7.0625,-2.71875 C 6.828125,-2.71875 6.234375,-2.6875 6.015625,-2.6875 C 5.703125,-2.6875 4.921875,-2.71875 4.609375,-2.71875 C 4.53125,-2.71875 4.40625,-2.71875 4.40625,-2.515625 C 4.40625,-2.40625 4.484375,-2.40625 4.703125,-2.40625 C 4.71875,-2.40625 5,-2.40625 5.234375,-2.390625 C 5.5,-2.359375 5.546875,-2.328125 5.546875,-2.203125 C 5.546875,-2.109375 5.4375,-1.671875 5.328125,-1.296875 C 5.046875,-0.203125 3.765625,-0.09375 3.40625,-0.09375 C 2.453125,-0.09375 1.40625,-0.65625 1.40625,-2.1875 C 1.40625,-2.5 1.5,-4.140625 2.546875,-5.4375 C 3.09375,-6.109375 4.0625,-6.71875 5.046875,-6.71875 C 6.0625,-6.71875 6.65625,-5.953125 6.65625,-4.796875 C 6.65625,-4.390625 6.625,-4.390625 6.625,-4.28125 C 6.625,-4.1875 6.734375,-4.1875 6.765625,-4.1875 C 6.890625,-4.1875 6.890625,-4.203125 6.953125,-4.390625 L 7.578125,-6.921875 z"
               id="path10013" />
          </symbol>
          <symbol
             style="overflow:visible"
             overflow="visible"
             id="textext-4fee34bd-2">
            <path
               style="stroke:none"
               d="M 3.328125,-3.015625 C 3.390625,-3.265625 3.625,-4.1875 4.3125,-4.1875 C 4.359375,-4.1875 4.609375,-4.1875 4.8125,-4.0625 C 4.53125,-4 4.34375,-3.765625 4.34375,-3.515625 C 4.34375,-3.359375 4.453125,-3.171875 4.71875,-3.171875 C 4.9375,-3.171875 5.25,-3.34375 5.25,-3.75 C 5.25,-4.265625 4.671875,-4.40625 4.328125,-4.40625 C 3.75,-4.40625 3.40625,-3.875 3.28125,-3.65625 C 3.03125,-4.3125 2.5,-4.40625 2.203125,-4.40625 C 1.171875,-4.40625 0.59375,-3.125 0.59375,-2.875 C 0.59375,-2.765625 0.703125,-2.765625 0.71875,-2.765625 C 0.796875,-2.765625 0.828125,-2.796875 0.84375,-2.875 C 1.1875,-3.9375 1.84375,-4.1875 2.1875,-4.1875 C 2.375,-4.1875 2.71875,-4.09375 2.71875,-3.515625 C 2.71875,-3.203125 2.546875,-2.546875 2.1875,-1.140625 C 2.03125,-0.53125 1.671875,-0.109375 1.234375,-0.109375 C 1.171875,-0.109375 0.953125,-0.109375 0.734375,-0.234375 C 0.984375,-0.296875 1.203125,-0.5 1.203125,-0.78125 C 1.203125,-1.046875 0.984375,-1.125 0.84375,-1.125 C 0.53125,-1.125 0.296875,-0.875 0.296875,-0.546875 C 0.296875,-0.09375 0.78125,0.109375 1.21875,0.109375 C 1.890625,0.109375 2.25,-0.59375 2.265625,-0.640625 C 2.390625,-0.28125 2.75,0.109375 3.34375,0.109375 C 4.375,0.109375 4.9375,-1.171875 4.9375,-1.421875 C 4.9375,-1.53125 4.859375,-1.53125 4.828125,-1.53125 C 4.734375,-1.53125 4.71875,-1.484375 4.6875,-1.421875 C 4.359375,-0.34375 3.6875,-0.109375 3.375,-0.109375 C 2.984375,-0.109375 2.828125,-0.421875 2.828125,-0.765625 C 2.828125,-0.984375 2.875,-1.203125 2.984375,-1.640625 L 3.328125,-3.015625 z"
               id="path10016" />
          </symbol>
          <symbol
             style="overflow:visible"
             overflow="visible"
             id="textext-4fee34bd-3">
            <path
               style="stroke:none"
               d="M 3.65625,-3.984375 L 4.515625,-3.984375 C 4.71875,-3.984375 4.8125,-3.984375 4.8125,-4.1875 C 4.8125,-4.296875 4.71875,-4.296875 4.546875,-4.296875 L 3.71875,-4.296875 C 3.828125,-4.875 3.8125,-4.859375 3.921875,-5.4375 C 3.96875,-5.640625 4.109375,-6.34375 4.171875,-6.46875 C 4.25,-6.65625 4.421875,-6.8125 4.640625,-6.8125 C 4.671875,-6.8125 4.9375,-6.8125 5.125,-6.625 C 4.6875,-6.59375 4.578125,-6.234375 4.578125,-6.09375 C 4.578125,-5.859375 4.765625,-5.734375 4.953125,-5.734375 C 5.21875,-5.734375 5.5,-5.96875 5.5,-6.34375 C 5.5,-6.796875 5.046875,-7.03125 4.640625,-7.03125 C 4.296875,-7.03125 3.671875,-6.84375 3.375,-5.859375 C 3.3125,-5.65625 3.28125,-5.546875 3.046875,-4.296875 L 2.359375,-4.296875 C 2.15625,-4.296875 2.046875,-4.296875 2.046875,-4.109375 C 2.046875,-3.984375 2.140625,-3.984375 2.328125,-3.984375 L 2.984375,-3.984375 L 2.25,-0.046875 C 2.0625,0.921875 1.890625,1.828125 1.375,1.828125 C 1.328125,1.828125 1.09375,1.828125 0.890625,1.640625 C 1.359375,1.609375 1.453125,1.25 1.453125,1.109375 C 1.453125,0.875 1.265625,0.75 1.078125,0.75 C 0.8125,0.75 0.53125,0.984375 0.53125,1.359375 C 0.53125,1.796875 0.96875,2.046875 1.375,2.046875 C 1.921875,2.046875 2.328125,1.453125 2.5,1.078125 C 2.828125,0.453125 3.046875,-0.75 3.0625,-0.828125 L 3.65625,-3.984375 z"
               id="path10019" />
          </symbol>
          <symbol
             style="overflow:visible"
             overflow="visible"
             id="textext-4fee34bd-4">
            <path
               style="stroke:none"
               d=""
               id="path10022" />
          </symbol>
          <symbol
             style="overflow:visible"
             overflow="visible"
             id="textext-4fee34bd-5">
            <path
               style="stroke:none"
               d="M 3.296875,2.390625 C 3.296875,2.359375 3.296875,2.34375 3.125,2.171875 C 1.890625,0.921875 1.5625,-0.96875 1.5625,-2.5 C 1.5625,-4.234375 1.9375,-5.96875 3.171875,-7.203125 C 3.296875,-7.328125 3.296875,-7.34375 3.296875,-7.375 C 3.296875,-7.453125 3.265625,-7.484375 3.203125,-7.484375 C 3.09375,-7.484375 2.203125,-6.796875 1.609375,-5.53125 C 1.109375,-4.4375 0.984375,-3.328125 0.984375,-2.5 C 0.984375,-1.71875 1.09375,-0.515625 1.640625,0.625 C 2.25,1.84375 3.09375,2.5 3.203125,2.5 C 3.265625,2.5 3.296875,2.46875 3.296875,2.390625 z"
               id="path10025" />
          </symbol>
          <symbol
             style="overflow:visible"
             overflow="visible"
             id="textext-4fee34bd-6">
            <path
               style="stroke:none"
               d="M 2.875,-2.5 C 2.875,-3.265625 2.765625,-4.46875 2.21875,-5.609375 C 1.625,-6.828125 0.765625,-7.484375 0.671875,-7.484375 C 0.609375,-7.484375 0.5625,-7.4375 0.5625,-7.375 C 0.5625,-7.34375 0.5625,-7.328125 0.75,-7.140625 C 1.734375,-6.15625 2.296875,-4.578125 2.296875,-2.5 C 2.296875,-0.78125 1.9375,0.96875 0.703125,2.21875 C 0.5625,2.34375 0.5625,2.359375 0.5625,2.390625 C 0.5625,2.453125 0.609375,2.5 0.671875,2.5 C 0.765625,2.5 1.671875,1.8125 2.25,0.546875 C 2.765625,-0.546875 2.875,-1.65625 2.875,-2.5 z"
               id="path10028" />
          </symbol>
          <symbol
             style="overflow:visible"
             overflow="visible"
             id="textext-4fee34bd-7">
            <path
               style="stroke:none"
               d="M 6.84375,-3.265625 C 7,-3.265625 7.1875,-3.265625 7.1875,-3.453125 C 7.1875,-3.65625 7,-3.65625 6.859375,-3.65625 L 0.890625,-3.65625 C 0.75,-3.65625 0.5625,-3.65625 0.5625,-3.453125 C 0.5625,-3.265625 0.75,-3.265625 0.890625,-3.265625 L 6.84375,-3.265625 z M 6.859375,-1.328125 C 7,-1.328125 7.1875,-1.328125 7.1875,-1.53125 C 7.1875,-1.71875 7,-1.71875 6.84375,-1.71875 L 0.890625,-1.71875 C 0.75,-1.71875 0.5625,-1.71875 0.5625,-1.53125 C 0.5625,-1.328125 0.75,-1.328125 0.890625,-1.328125 L 6.859375,-1.328125 z"
               id="path10031" />
          </symbol>
          <symbol
             style="overflow:visible"
             overflow="visible"
             id="textext-4fee34bd-8">
            <path
               style="stroke:none"
               d=""
               id="path10034" />
          </symbol>
          <symbol
             style="overflow:visible"
             overflow="visible"
             id="textext-4fee34bd-9">
            <path
               style="stroke:none"
               d="M 2.03125,-3.296875 C 2.0625,-3.359375 2.078125,-3.421875 2.078125,-3.515625 C 2.078125,-3.734375 1.890625,-3.890625 1.671875,-3.890625 C 1.390625,-3.890625 1.328125,-3.671875 1.296875,-3.578125 L 0.375,-0.5625 C 0.359375,-0.53125 0.328125,-0.453125 0.328125,-0.4375 C 0.328125,-0.359375 0.546875,-0.28125 0.609375,-0.28125 C 0.65625,-0.28125 0.6875,-0.328125 0.703125,-0.390625 L 2.03125,-3.296875 z"
               id="path10037" />
          </symbol>
        </g>
      </defs>
      <g
         id="textext-4fee34bd-10">
        <g
           style="fill:#000000;fill-opacity:1"
           id="g10040">
          <use
             height="425.19684"
             width="425.19684"
             xlink:href="#textext-4fee34bd-1"
             x="223.43201"
             y="134.765"
             id="use10042" />
        </g>
        <g
           style="fill:#000000;fill-opacity:1"
           id="g10044">
          <use
             height="425.19684"
             width="425.19684"
             xlink:href="#textext-4fee34bd-5"
             x="231.265"
             y="134.765"
             id="use10046" />
        </g>
        <g
           style="fill:#000000;fill-opacity:1"
           id="g10048">
          <use
             height="425.19684"
             width="425.19684"
             xlink:href="#textext-4fee34bd-2"
             x="235.14"
             y="134.765"
             id="use10050" />
        </g>
        <g
           style="fill:#000000;fill-opacity:1"
           id="g10052">
          <use
             height="425.19684"
             width="425.19684"
             xlink:href="#textext-4fee34bd-6"
             x="240.834"
             y="134.765"
             id="use10054" />
        </g>
        <g
           style="fill:#000000;fill-opacity:1"
           id="g10056">
          <use
             height="425.19684"
             width="425.19684"
             xlink:href="#textext-4fee34bd-7"
             x="247.47806"
             y="134.765"
             id="use10058" />
        </g>
        <g
           style="fill:#000000;fill-opacity:1"
           id="g10060">
          <use
             height="425.19684"
             width="425.19684"
             xlink:href="#textext-4fee34bd-3"
             x="257.991"
             y="134.765"
             id="use10062" />
        </g>
        <g
           style="fill:#000000;fill-opacity:1"
           id="g10064">
          <use
             height="425.19684"
             width="425.19684"
             xlink:href="#textext-4fee34bd-9"
             x="263.94101"
             y="131.14999"
             id="use10066" />
          <use
             height="425.19684"
             width="425.19684"
             xlink:href="#textext-4fee34bd-9"
             x="266.23816"
             y="131.14999"
             id="use10068" />
        </g>
      </g>
    </g>
    <g
       id="g10374"
       ns0:preamble=""
       ns0:text="$0_{m}$"
       transform="matrix(1.401949,0,0,1.49293,-183.90947,-16.184249)">
      <defs
         id="defs10376">
        <g
           id="g10378">
          <symbol
             id="textext-420633bd-0"
             overflow="visible"
             style="overflow:visible">
            <path
               id="path10381"
               d=""
               style="stroke:none" />
          </symbol>
          <symbol
             id="textext-420633bd-1"
             overflow="visible"
             style="overflow:visible">
            <path
               id="path10384"
               d="M 4.578125,-3.1875 C 4.578125,-3.984375 4.53125,-4.78125 4.1875,-5.515625 C 3.734375,-6.484375 2.90625,-6.640625 2.5,-6.640625 C 1.890625,-6.640625 1.171875,-6.375 0.75,-5.453125 C 0.4375,-4.765625 0.390625,-3.984375 0.390625,-3.1875 C 0.390625,-2.4375 0.421875,-1.546875 0.84375,-0.78125 C 1.265625,0.015625 2,0.21875 2.484375,0.21875 C 3.015625,0.21875 3.78125,0.015625 4.21875,-0.9375 C 4.53125,-1.625 4.578125,-2.40625 4.578125,-3.1875 z M 2.484375,0 C 2.09375,0 1.5,-0.25 1.328125,-1.203125 C 1.21875,-1.796875 1.21875,-2.71875 1.21875,-3.3125 C 1.21875,-3.953125 1.21875,-4.609375 1.296875,-5.140625 C 1.484375,-6.328125 2.234375,-6.421875 2.484375,-6.421875 C 2.8125,-6.421875 3.46875,-6.234375 3.65625,-5.25 C 3.765625,-4.6875 3.765625,-3.9375 3.765625,-3.3125 C 3.765625,-2.5625 3.765625,-1.890625 3.65625,-1.25 C 3.5,-0.296875 2.9375,0 2.484375,0 z"
               style="stroke:none" />
          </symbol>
          <symbol
             id="textext-420633bd-2"
             overflow="visible"
             style="overflow:visible">
            <path
               id="path10387"
               d=""
               style="stroke:none" />
          </symbol>
          <symbol
             id="textext-420633bd-3"
             overflow="visible"
             style="overflow:visible">
            <path
               id="path10390"
               d="M 3.03125,-0.5625 C 2.984375,-0.421875 2.921875,-0.1875 2.921875,-0.15625 C 2.921875,0 3.046875,0.0625 3.15625,0.0625 C 3.296875,0.0625 3.40625,-0.015625 3.4375,-0.078125 C 3.46875,-0.140625 3.53125,-0.375 3.5625,-0.515625 C 3.59375,-0.640625 3.671875,-0.96875 3.71875,-1.140625 C 3.75,-1.296875 3.796875,-1.453125 3.828125,-1.609375 C 3.90625,-1.90625 3.90625,-1.921875 4.046875,-2.140625 C 4.265625,-2.484375 4.625,-2.875 5.15625,-2.875 C 5.546875,-2.875 5.578125,-2.5625 5.578125,-2.390625 C 5.578125,-1.96875 5.28125,-1.203125 5.15625,-0.90625 C 5.09375,-0.703125 5.0625,-0.640625 5.0625,-0.53125 C 5.0625,-0.15625 5.359375,0.0625 5.71875,0.0625 C 6.421875,0.0625 6.71875,-0.890625 6.71875,-1 C 6.71875,-1.09375 6.640625,-1.09375 6.609375,-1.09375 C 6.515625,-1.09375 6.515625,-1.046875 6.484375,-0.96875 C 6.328125,-0.40625 6.015625,-0.125 5.75,-0.125 C 5.59375,-0.125 5.5625,-0.21875 5.5625,-0.375 C 5.5625,-0.53125 5.609375,-0.625 5.734375,-0.9375 C 5.8125,-1.15625 6.09375,-1.890625 6.09375,-2.28125 C 6.09375,-2.390625 6.09375,-2.6875 5.84375,-2.890625 C 5.71875,-2.96875 5.515625,-3.078125 5.1875,-3.078125 C 4.5625,-3.078125 4.1875,-2.65625 3.953125,-2.375 C 3.90625,-2.96875 3.40625,-3.078125 3.046875,-3.078125 C 2.46875,-3.078125 2.078125,-2.71875 1.875,-2.4375 C 1.828125,-2.921875 1.421875,-3.078125 1.125,-3.078125 C 0.828125,-3.078125 0.671875,-2.859375 0.578125,-2.703125 C 0.421875,-2.4375 0.328125,-2.046875 0.328125,-2 C 0.328125,-1.921875 0.421875,-1.921875 0.453125,-1.921875 C 0.546875,-1.921875 0.546875,-1.9375 0.59375,-2.125 C 0.703125,-2.53125 0.84375,-2.875 1.109375,-2.875 C 1.296875,-2.875 1.34375,-2.71875 1.34375,-2.53125 C 1.34375,-2.40625 1.28125,-2.140625 1.21875,-1.953125 C 1.171875,-1.765625 1.109375,-1.484375 1.078125,-1.328125 L 0.84375,-0.4375 C 0.828125,-0.34375 0.78125,-0.171875 0.78125,-0.15625 C 0.78125,0 0.90625,0.0625 1.015625,0.0625 C 1.140625,0.0625 1.25,-0.015625 1.296875,-0.078125 C 1.328125,-0.140625 1.375,-0.375 1.421875,-0.515625 C 1.453125,-0.640625 1.53125,-0.96875 1.5625,-1.140625 C 1.609375,-1.296875 1.65625,-1.453125 1.6875,-1.609375 C 1.765625,-1.890625 1.78125,-1.953125 1.984375,-2.234375 C 2.171875,-2.515625 2.5,-2.875 3.03125,-2.875 C 3.421875,-2.875 3.4375,-2.515625 3.4375,-2.390625 C 3.4375,-2.21875 3.421875,-2.125 3.3125,-1.734375 L 3.03125,-0.5625 z"
               style="stroke:none" />
          </symbol>
        </g>
      </defs>
      <g
         id="textext-420633bd-4">
        <g
           id="g10393"
           style="fill:#000000;fill-opacity:1">
          <use
             id="use10395"
             y="134.765"
             x="223.43201"
             xlink:href="#textext-420633bd-1"
             width="425.19684"
             height="425.19684" />
        </g>
        <g
           id="g10397"
           style="fill:#000000;fill-opacity:1">
          <use
             id="use10399"
             y="136.259"
             x="228.41299"
             xlink:href="#textext-420633bd-3"
             width="425.19684"
             height="425.19684" />
        </g>
      </g>
    </g>
    <g
       transform="matrix(1.3715504,0,0,1.3355524,-184.64687,174.95584)"
       ns0:text="$m$"
       ns0:preamble=""
       id="g10737">
      <defs
         id="defs10739">
        <g
           id="g10741">
          <symbol
             style="overflow:visible"
             overflow="visible"
             id="textext-08e211e0-0">
            <path
               style="stroke:none"
               d=""
               id="path10744" />
          </symbol>
          <symbol
             style="overflow:visible"
             overflow="visible"
             id="textext-08e211e0-1">
            <path
               style="stroke:none"
               d="M 0.875,-0.59375 C 0.84375,-0.4375 0.78125,-0.203125 0.78125,-0.15625 C 0.78125,0.015625 0.921875,0.109375 1.078125,0.109375 C 1.203125,0.109375 1.375,0.03125 1.453125,-0.171875 C 1.453125,-0.1875 1.578125,-0.65625 1.640625,-0.90625 C 1.703125,-1.203125 1.78125,-1.5 1.859375,-1.796875 C 1.90625,-2.03125 1.96875,-2.25 2.03125,-2.46875 C 2.0625,-2.640625 2.140625,-2.9375 2.15625,-2.96875 C 2.296875,-3.28125 2.828125,-4.1875 3.78125,-4.1875 C 4.234375,-4.1875 4.3125,-3.8125 4.3125,-3.484375 C 4.3125,-3.234375 4.25,-2.953125 4.171875,-2.65625 C 4.046875,-2.15625 4,-1.953125 3.890625,-1.5 C 3.78125,-1.140625 3.78125,-1.078125 3.6875,-0.75 C 3.65625,-0.546875 3.5625,-0.203125 3.5625,-0.15625 C 3.5625,0.015625 3.703125,0.109375 3.84375,0.109375 C 4.15625,0.109375 4.21875,-0.140625 4.296875,-0.453125 C 4.4375,-1.015625 4.8125,-2.46875 4.890625,-2.859375 C 4.921875,-2.984375 5.453125,-4.1875 6.546875,-4.1875 C 6.96875,-4.1875 7.078125,-3.84375 7.078125,-3.484375 C 7.078125,-2.921875 6.65625,-1.78125 6.453125,-1.25 C 6.375,-1.015625 6.328125,-0.90625 6.328125,-0.703125 C 6.328125,-0.234375 6.671875,0.109375 7.140625,0.109375 C 8.078125,0.109375 8.453125,-1.34375 8.453125,-1.421875 C 8.453125,-1.53125 8.359375,-1.53125 8.328125,-1.53125 C 8.234375,-1.53125 8.234375,-1.5 8.1875,-1.34375 C 8.03125,-0.8125 7.71875,-0.109375 7.171875,-0.109375 C 7,-0.109375 6.921875,-0.203125 6.921875,-0.4375 C 6.921875,-0.6875 7.015625,-0.921875 7.109375,-1.140625 C 7.296875,-1.671875 7.71875,-2.765625 7.71875,-3.34375 C 7.71875,-3.984375 7.3125,-4.40625 6.5625,-4.40625 C 5.828125,-4.40625 5.3125,-3.96875 4.9375,-3.4375 C 4.9375,-3.5625 4.90625,-3.90625 4.625,-4.140625 C 4.375,-4.359375 4.0625,-4.40625 3.8125,-4.40625 C 2.90625,-4.40625 2.421875,-3.765625 2.25,-3.53125 C 2.203125,-4.109375 1.78125,-4.40625 1.328125,-4.40625 C 0.875,-4.40625 0.6875,-4.015625 0.59375,-3.84375 C 0.421875,-3.484375 0.296875,-2.90625 0.296875,-2.875 C 0.296875,-2.765625 0.390625,-2.765625 0.40625,-2.765625 C 0.515625,-2.765625 0.515625,-2.78125 0.578125,-3 C 0.75,-3.703125 0.953125,-4.1875 1.3125,-4.1875 C 1.46875,-4.1875 1.609375,-4.109375 1.609375,-3.734375 C 1.609375,-3.515625 1.578125,-3.40625 1.453125,-2.890625 L 0.875,-0.59375 z"
               id="path10747" />
          </symbol>
        </g>
      </defs>
      <g
         id="textext-08e211e0-2">
        <g
           style="fill:#000000;fill-opacity:1"
           id="g10750">
          <use
             height="425.19684"
             width="425.19684"
             xlink:href="#textext-08e211e0-1"
             x="223.43201"
             y="134.765"
             id="use10752" />
        </g>
      </g>
    </g>
    <g
       id="g11110"
       ns0:preamble=""
       ns0:text="$x=f\'$"
       transform="matrix(1.2080197,0,0,1.4229896,-13.710054,164.86864)">
      <defs
         id="defs11112">
        <g
           id="g11114">
          <symbol
             id="textext-603a5492-0"
             overflow="visible"
             style="overflow:visible">
            <path
               id="path11117"
               d=""
               style="stroke:none" />
          </symbol>
          <symbol
             id="textext-603a5492-1"
             overflow="visible"
             style="overflow:visible">
            <path
               id="path11120"
               d="M 3.328125,-3.015625 C 3.390625,-3.265625 3.625,-4.1875 4.3125,-4.1875 C 4.359375,-4.1875 4.609375,-4.1875 4.8125,-4.0625 C 4.53125,-4 4.34375,-3.765625 4.34375,-3.515625 C 4.34375,-3.359375 4.453125,-3.171875 4.71875,-3.171875 C 4.9375,-3.171875 5.25,-3.34375 5.25,-3.75 C 5.25,-4.265625 4.671875,-4.40625 4.328125,-4.40625 C 3.75,-4.40625 3.40625,-3.875 3.28125,-3.65625 C 3.03125,-4.3125 2.5,-4.40625 2.203125,-4.40625 C 1.171875,-4.40625 0.59375,-3.125 0.59375,-2.875 C 0.59375,-2.765625 0.703125,-2.765625 0.71875,-2.765625 C 0.796875,-2.765625 0.828125,-2.796875 0.84375,-2.875 C 1.1875,-3.9375 1.84375,-4.1875 2.1875,-4.1875 C 2.375,-4.1875 2.71875,-4.09375 2.71875,-3.515625 C 2.71875,-3.203125 2.546875,-2.546875 2.1875,-1.140625 C 2.03125,-0.53125 1.671875,-0.109375 1.234375,-0.109375 C 1.171875,-0.109375 0.953125,-0.109375 0.734375,-0.234375 C 0.984375,-0.296875 1.203125,-0.5 1.203125,-0.78125 C 1.203125,-1.046875 0.984375,-1.125 0.84375,-1.125 C 0.53125,-1.125 0.296875,-0.875 0.296875,-0.546875 C 0.296875,-0.09375 0.78125,0.109375 1.21875,0.109375 C 1.890625,0.109375 2.25,-0.59375 2.265625,-0.640625 C 2.390625,-0.28125 2.75,0.109375 3.34375,0.109375 C 4.375,0.109375 4.9375,-1.171875 4.9375,-1.421875 C 4.9375,-1.53125 4.859375,-1.53125 4.828125,-1.53125 C 4.734375,-1.53125 4.71875,-1.484375 4.6875,-1.421875 C 4.359375,-0.34375 3.6875,-0.109375 3.375,-0.109375 C 2.984375,-0.109375 2.828125,-0.421875 2.828125,-0.765625 C 2.828125,-0.984375 2.875,-1.203125 2.984375,-1.640625 L 3.328125,-3.015625 z"
               style="stroke:none" />
          </symbol>
          <symbol
             id="textext-603a5492-2"
             overflow="visible"
             style="overflow:visible">
            <path
               id="path11123"
               d="M 3.65625,-3.984375 L 4.515625,-3.984375 C 4.71875,-3.984375 4.8125,-3.984375 4.8125,-4.1875 C 4.8125,-4.296875 4.71875,-4.296875 4.546875,-4.296875 L 3.71875,-4.296875 C 3.828125,-4.875 3.8125,-4.859375 3.921875,-5.4375 C 3.96875,-5.640625 4.109375,-6.34375 4.171875,-6.46875 C 4.25,-6.65625 4.421875,-6.8125 4.640625,-6.8125 C 4.671875,-6.8125 4.9375,-6.8125 5.125,-6.625 C 4.6875,-6.59375 4.578125,-6.234375 4.578125,-6.09375 C 4.578125,-5.859375 4.765625,-5.734375 4.953125,-5.734375 C 5.21875,-5.734375 5.5,-5.96875 5.5,-6.34375 C 5.5,-6.796875 5.046875,-7.03125 4.640625,-7.03125 C 4.296875,-7.03125 3.671875,-6.84375 3.375,-5.859375 C 3.3125,-5.65625 3.28125,-5.546875 3.046875,-4.296875 L 2.359375,-4.296875 C 2.15625,-4.296875 2.046875,-4.296875 2.046875,-4.109375 C 2.046875,-3.984375 2.140625,-3.984375 2.328125,-3.984375 L 2.984375,-3.984375 L 2.25,-0.046875 C 2.0625,0.921875 1.890625,1.828125 1.375,1.828125 C 1.328125,1.828125 1.09375,1.828125 0.890625,1.640625 C 1.359375,1.609375 1.453125,1.25 1.453125,1.109375 C 1.453125,0.875 1.265625,0.75 1.078125,0.75 C 0.8125,0.75 0.53125,0.984375 0.53125,1.359375 C 0.53125,1.796875 0.96875,2.046875 1.375,2.046875 C 1.921875,2.046875 2.328125,1.453125 2.5,1.078125 C 2.828125,0.453125 3.046875,-0.75 3.0625,-0.828125 L 3.65625,-3.984375 z"
               style="stroke:none" />
          </symbol>
          <symbol
             id="textext-603a5492-3"
             overflow="visible"
             style="overflow:visible">
            <path
               id="path11126"
               d=""
               style="stroke:none" />
          </symbol>
          <symbol
             id="textext-603a5492-4"
             overflow="visible"
             style="overflow:visible">
            <path
               id="path11129"
               d="M 6.84375,-3.265625 C 7,-3.265625 7.1875,-3.265625 7.1875,-3.453125 C 7.1875,-3.65625 7,-3.65625 6.859375,-3.65625 L 0.890625,-3.65625 C 0.75,-3.65625 0.5625,-3.65625 0.5625,-3.453125 C 0.5625,-3.265625 0.75,-3.265625 0.890625,-3.265625 L 6.84375,-3.265625 z M 6.859375,-1.328125 C 7,-1.328125 7.1875,-1.328125 7.1875,-1.53125 C 7.1875,-1.71875 7,-1.71875 6.84375,-1.71875 L 0.890625,-1.71875 C 0.75,-1.71875 0.5625,-1.71875 0.5625,-1.53125 C 0.5625,-1.328125 0.75,-1.328125 0.890625,-1.328125 L 6.859375,-1.328125 z"
               style="stroke:none" />
          </symbol>
          <symbol
             id="textext-603a5492-5"
             overflow="visible"
             style="overflow:visible">
            <path
               id="path11132"
               d=""
               style="stroke:none" />
          </symbol>
          <symbol
             id="textext-603a5492-6"
             overflow="visible"
             style="overflow:visible">
            <path
               id="path11135"
               d="M 2.03125,-3.296875 C 2.0625,-3.359375 2.078125,-3.421875 2.078125,-3.515625 C 2.078125,-3.734375 1.890625,-3.890625 1.671875,-3.890625 C 1.390625,-3.890625 1.328125,-3.671875 1.296875,-3.578125 L 0.375,-0.5625 C 0.359375,-0.53125 0.328125,-0.453125 0.328125,-0.4375 C 0.328125,-0.359375 0.546875,-0.28125 0.609375,-0.28125 C 0.65625,-0.28125 0.6875,-0.328125 0.703125,-0.390625 L 2.03125,-3.296875 z"
               style="stroke:none" />
          </symbol>
        </g>
      </defs>
      <g
         id="textext-603a5492-7">
        <g
           id="g11138"
           style="fill:#000000;fill-opacity:1">
          <use
             id="use11140"
             y="134.765"
             x="223.43201"
             xlink:href="#textext-603a5492-1"
             width="425.19684"
             height="425.19684" />
        </g>
        <g
           id="g11142"
           style="fill:#000000;fill-opacity:1">
          <use
             id="use11144"
             y="134.765"
             x="231.89301"
             xlink:href="#textext-603a5492-4"
             width="425.19684"
             height="425.19684" />
        </g>
        <g
           id="g11146"
           style="fill:#000000;fill-opacity:1">
          <use
             id="use11148"
             y="134.765"
             x="242.409"
             xlink:href="#textext-603a5492-2"
             width="425.19684"
             height="425.19684" />
        </g>
        <g
           id="g11150"
           style="fill:#000000;fill-opacity:1">
          <use
             id="use11152"
             y="131.14999"
             x="248.35899"
             xlink:href="#textext-603a5492-6"
             width="425.19684"
             height="425.19684" />
        </g>
      </g>
    </g>
    <g
       transform="matrix(1.1463225,0,0,1.6562297,80.887297,134.68158)"
       ns0:text="$\\theta\\cdot x=(f\\circ k_{\\theta})\'$"
       ns0:preamble=""
       id="g11562">
      <defs
         id="defs11564">
        <g
           id="g11566">
          <symbol
             style="overflow:visible"
             overflow="visible"
             id="textext-d3ce329d-0">
            <path
               style="stroke:none"
               d=""
               id="path11569" />
          </symbol>
          <symbol
             style="overflow:visible"
             overflow="visible"
             id="textext-d3ce329d-1">
            <path
               style="stroke:none"
               d="M 4.53125,-4.984375 C 4.53125,-5.640625 4.359375,-7.03125 3.34375,-7.03125 C 1.953125,-7.03125 0.421875,-4.21875 0.421875,-1.9375 C 0.421875,-1 0.703125,0.109375 1.609375,0.109375 C 3.015625,0.109375 4.53125,-2.75 4.53125,-4.984375 z M 1.46875,-3.625 C 1.640625,-4.25 1.84375,-5.046875 2.25,-5.765625 C 2.515625,-6.25 2.875,-6.8125 3.328125,-6.8125 C 3.8125,-6.8125 3.875,-6.171875 3.875,-5.609375 C 3.875,-5.109375 3.796875,-4.609375 3.5625,-3.625 L 1.46875,-3.625 z M 3.46875,-3.296875 C 3.359375,-2.84375 3.15625,-2 2.765625,-1.28125 C 2.421875,-0.59375 2.046875,-0.109375 1.609375,-0.109375 C 1.28125,-0.109375 1.078125,-0.40625 1.078125,-1.328125 C 1.078125,-1.75 1.140625,-2.328125 1.390625,-3.296875 L 3.46875,-3.296875 z"
               id="path11572" />
          </symbol>
          <symbol
             style="overflow:visible"
             overflow="visible"
             id="textext-d3ce329d-2">
            <path
               style="stroke:none"
               d="M 3.328125,-3.015625 C 3.390625,-3.265625 3.625,-4.1875 4.3125,-4.1875 C 4.359375,-4.1875 4.609375,-4.1875 4.8125,-4.0625 C 4.53125,-4 4.34375,-3.765625 4.34375,-3.515625 C 4.34375,-3.359375 4.453125,-3.171875 4.71875,-3.171875 C 4.9375,-3.171875 5.25,-3.34375 5.25,-3.75 C 5.25,-4.265625 4.671875,-4.40625 4.328125,-4.40625 C 3.75,-4.40625 3.40625,-3.875 3.28125,-3.65625 C 3.03125,-4.3125 2.5,-4.40625 2.203125,-4.40625 C 1.171875,-4.40625 0.59375,-3.125 0.59375,-2.875 C 0.59375,-2.765625 0.703125,-2.765625 0.71875,-2.765625 C 0.796875,-2.765625 0.828125,-2.796875 0.84375,-2.875 C 1.1875,-3.9375 1.84375,-4.1875 2.1875,-4.1875 C 2.375,-4.1875 2.71875,-4.09375 2.71875,-3.515625 C 2.71875,-3.203125 2.546875,-2.546875 2.1875,-1.140625 C 2.03125,-0.53125 1.671875,-0.109375 1.234375,-0.109375 C 1.171875,-0.109375 0.953125,-0.109375 0.734375,-0.234375 C 0.984375,-0.296875 1.203125,-0.5 1.203125,-0.78125 C 1.203125,-1.046875 0.984375,-1.125 0.84375,-1.125 C 0.53125,-1.125 0.296875,-0.875 0.296875,-0.546875 C 0.296875,-0.09375 0.78125,0.109375 1.21875,0.109375 C 1.890625,0.109375 2.25,-0.59375 2.265625,-0.640625 C 2.390625,-0.28125 2.75,0.109375 3.34375,0.109375 C 4.375,0.109375 4.9375,-1.171875 4.9375,-1.421875 C 4.9375,-1.53125 4.859375,-1.53125 4.828125,-1.53125 C 4.734375,-1.53125 4.71875,-1.484375 4.6875,-1.421875 C 4.359375,-0.34375 3.6875,-0.109375 3.375,-0.109375 C 2.984375,-0.109375 2.828125,-0.421875 2.828125,-0.765625 C 2.828125,-0.984375 2.875,-1.203125 2.984375,-1.640625 L 3.328125,-3.015625 z"
               id="path11575" />
          </symbol>
          <symbol
             style="overflow:visible"
             overflow="visible"
             id="textext-d3ce329d-3">
            <path
               style="stroke:none"
               d="M 3.65625,-3.984375 L 4.515625,-3.984375 C 4.71875,-3.984375 4.8125,-3.984375 4.8125,-4.1875 C 4.8125,-4.296875 4.71875,-4.296875 4.546875,-4.296875 L 3.71875,-4.296875 C 3.828125,-4.875 3.8125,-4.859375 3.921875,-5.4375 C 3.96875,-5.640625 4.109375,-6.34375 4.171875,-6.46875 C 4.25,-6.65625 4.421875,-6.8125 4.640625,-6.8125 C 4.671875,-6.8125 4.9375,-6.8125 5.125,-6.625 C 4.6875,-6.59375 4.578125,-6.234375 4.578125,-6.09375 C 4.578125,-5.859375 4.765625,-5.734375 4.953125,-5.734375 C 5.21875,-5.734375 5.5,-5.96875 5.5,-6.34375 C 5.5,-6.796875 5.046875,-7.03125 4.640625,-7.03125 C 4.296875,-7.03125 3.671875,-6.84375 3.375,-5.859375 C 3.3125,-5.65625 3.28125,-5.546875 3.046875,-4.296875 L 2.359375,-4.296875 C 2.15625,-4.296875 2.046875,-4.296875 2.046875,-4.109375 C 2.046875,-3.984375 2.140625,-3.984375 2.328125,-3.984375 L 2.984375,-3.984375 L 2.25,-0.046875 C 2.0625,0.921875 1.890625,1.828125 1.375,1.828125 C 1.328125,1.828125 1.09375,1.828125 0.890625,1.640625 C 1.359375,1.609375 1.453125,1.25 1.453125,1.109375 C 1.453125,0.875 1.265625,0.75 1.078125,0.75 C 0.8125,0.75 0.53125,0.984375 0.53125,1.359375 C 0.53125,1.796875 0.96875,2.046875 1.375,2.046875 C 1.921875,2.046875 2.328125,1.453125 2.5,1.078125 C 2.828125,0.453125 3.046875,-0.75 3.0625,-0.828125 L 3.65625,-3.984375 z"
               id="path11578" />
          </symbol>
          <symbol
             style="overflow:visible"
             overflow="visible"
             id="textext-d3ce329d-4">
            <path
               style="stroke:none"
               d="M 2.859375,-6.8125 C 2.859375,-6.8125 2.859375,-6.921875 2.734375,-6.921875 C 2.5,-6.921875 1.78125,-6.84375 1.515625,-6.8125 C 1.4375,-6.8125 1.328125,-6.796875 1.328125,-6.625 C 1.328125,-6.5 1.421875,-6.5 1.5625,-6.5 C 2.046875,-6.5 2.0625,-6.4375 2.0625,-6.328125 L 2.03125,-6.125 L 0.59375,-0.390625 C 0.546875,-0.25 0.546875,-0.234375 0.546875,-0.171875 C 0.546875,0.0625 0.75,0.109375 0.84375,0.109375 C 0.96875,0.109375 1.109375,0.015625 1.171875,-0.09375 C 1.21875,-0.1875 1.671875,-2.03125 1.734375,-2.28125 C 2.078125,-2.25 2.890625,-2.09375 2.890625,-1.4375 C 2.890625,-1.359375 2.890625,-1.328125 2.859375,-1.21875 C 2.84375,-1.109375 2.828125,-0.984375 2.828125,-0.875 C 2.828125,-0.296875 3.21875,0.109375 3.734375,0.109375 C 4.03125,0.109375 4.3125,-0.046875 4.53125,-0.421875 C 4.78125,-0.859375 4.890625,-1.40625 4.890625,-1.421875 C 4.890625,-1.53125 4.796875,-1.53125 4.765625,-1.53125 C 4.671875,-1.53125 4.65625,-1.484375 4.625,-1.34375 C 4.421875,-0.625 4.203125,-0.109375 3.765625,-0.109375 C 3.5625,-0.109375 3.4375,-0.21875 3.4375,-0.578125 C 3.4375,-0.75 3.484375,-0.984375 3.515625,-1.140625 C 3.5625,-1.3125 3.5625,-1.34375 3.5625,-1.453125 C 3.5625,-2.09375 2.9375,-2.375 2.078125,-2.5 C 2.390625,-2.671875 2.71875,-2.984375 2.9375,-3.234375 C 3.421875,-3.765625 3.875,-4.1875 4.359375,-4.1875 C 4.421875,-4.1875 4.4375,-4.1875 4.453125,-4.171875 C 4.578125,-4.15625 4.578125,-4.15625 4.671875,-4.09375 C 4.6875,-4.09375 4.6875,-4.078125 4.703125,-4.0625 C 4.234375,-4.03125 4.140625,-3.640625 4.140625,-3.515625 C 4.140625,-3.359375 4.25,-3.171875 4.515625,-3.171875 C 4.78125,-3.171875 5.0625,-3.390625 5.0625,-3.78125 C 5.0625,-4.078125 4.828125,-4.40625 4.390625,-4.40625 C 4.109375,-4.40625 3.65625,-4.328125 2.9375,-3.53125 C 2.59375,-3.15625 2.203125,-2.75 1.828125,-2.609375 L 2.859375,-6.8125 z"
               id="path11581" />
          </symbol>
          <symbol
             style="overflow:visible"
             overflow="visible"
             id="textext-d3ce329d-5">
            <path
               style="stroke:none"
               d=""
               id="path11584" />
          </symbol>
          <symbol
             style="overflow:visible"
             overflow="visible"
             id="textext-d3ce329d-6">
            <path
               style="stroke:none"
               d="M 1.90625,-2.5 C 1.90625,-2.78125 1.671875,-3.015625 1.390625,-3.015625 C 1.09375,-3.015625 0.859375,-2.78125 0.859375,-2.5 C 0.859375,-2.203125 1.09375,-1.96875 1.390625,-1.96875 C 1.671875,-1.96875 1.90625,-2.203125 1.90625,-2.5 z"
               id="path11587" />
          </symbol>
          <symbol
             style="overflow:visible"
             overflow="visible"
             id="textext-d3ce329d-7">
            <path
               style="stroke:none"
               d="M 4.421875,-2.5 C 4.421875,-3.5625 3.53125,-4.421875 2.5,-4.421875 C 1.40625,-4.421875 0.5625,-3.53125 0.5625,-2.5 C 0.5625,-1.421875 1.4375,-0.5625 2.484375,-0.5625 C 3.5625,-0.5625 4.421875,-1.453125 4.421875,-2.5 z M 2.5,-0.953125 C 1.625,-0.953125 0.953125,-1.671875 0.953125,-2.5 C 0.953125,-3.3125 1.625,-4.03125 2.5,-4.03125 C 3.328125,-4.03125 4.015625,-3.34375 4.015625,-2.5 C 4.015625,-1.640625 3.328125,-0.953125 2.5,-0.953125 z"
               id="path11590" />
          </symbol>
          <symbol
             style="overflow:visible"
             overflow="visible"
             id="textext-d3ce329d-8">
            <path
               style="stroke:none"
               d=""
               id="path11593" />
          </symbol>
          <symbol
             style="overflow:visible"
             overflow="visible"
             id="textext-d3ce329d-9">
            <path
               style="stroke:none"
               d="M 6.84375,-3.265625 C 7,-3.265625 7.1875,-3.265625 7.1875,-3.453125 C 7.1875,-3.65625 7,-3.65625 6.859375,-3.65625 L 0.890625,-3.65625 C 0.75,-3.65625 0.5625,-3.65625 0.5625,-3.453125 C 0.5625,-3.265625 0.75,-3.265625 0.890625,-3.265625 L 6.84375,-3.265625 z M 6.859375,-1.328125 C 7,-1.328125 7.1875,-1.328125 7.1875,-1.53125 C 7.1875,-1.71875 7,-1.71875 6.84375,-1.71875 L 0.890625,-1.71875 C 0.75,-1.71875 0.5625,-1.71875 0.5625,-1.53125 C 0.5625,-1.328125 0.75,-1.328125 0.890625,-1.328125 L 6.859375,-1.328125 z"
               id="path11596" />
          </symbol>
          <symbol
             style="overflow:visible"
             overflow="visible"
             id="textext-d3ce329d-10">
            <path
               style="stroke:none"
               d="M 3.296875,2.390625 C 3.296875,2.359375 3.296875,2.34375 3.125,2.171875 C 1.890625,0.921875 1.5625,-0.96875 1.5625,-2.5 C 1.5625,-4.234375 1.9375,-5.96875 3.171875,-7.203125 C 3.296875,-7.328125 3.296875,-7.34375 3.296875,-7.375 C 3.296875,-7.453125 3.265625,-7.484375 3.203125,-7.484375 C 3.09375,-7.484375 2.203125,-6.796875 1.609375,-5.53125 C 1.109375,-4.4375 0.984375,-3.328125 0.984375,-2.5 C 0.984375,-1.71875 1.09375,-0.515625 1.640625,0.625 C 2.25,1.84375 3.09375,2.5 3.203125,2.5 C 3.265625,2.5 3.296875,2.46875 3.296875,2.390625 z"
               id="path11599" />
          </symbol>
          <symbol
             style="overflow:visible"
             overflow="visible"
             id="textext-d3ce329d-11">
            <path
               style="stroke:none"
               d="M 2.875,-2.5 C 2.875,-3.265625 2.765625,-4.46875 2.21875,-5.609375 C 1.625,-6.828125 0.765625,-7.484375 0.671875,-7.484375 C 0.609375,-7.484375 0.5625,-7.4375 0.5625,-7.375 C 0.5625,-7.34375 0.5625,-7.328125 0.75,-7.140625 C 1.734375,-6.15625 2.296875,-4.578125 2.296875,-2.5 C 2.296875,-0.78125 1.9375,0.96875 0.703125,2.21875 C 0.5625,2.34375 0.5625,2.359375 0.5625,2.390625 C 0.5625,2.453125 0.609375,2.5 0.671875,2.5 C 0.765625,2.5 1.671875,1.8125 2.25,0.546875 C 2.765625,-0.546875 2.875,-1.65625 2.875,-2.5 z"
               id="path11602" />
          </symbol>
          <symbol
             style="overflow:visible"
             overflow="visible"
             id="textext-d3ce329d-12">
            <path
               style="stroke:none"
               d=""
               id="path11605" />
          </symbol>
          <symbol
             style="overflow:visible"
             overflow="visible"
             id="textext-d3ce329d-13">
            <path
               style="stroke:none"
               d="M 3.5625,-3.390625 C 3.5625,-4.125 3.28125,-4.90625 2.59375,-4.90625 C 1.546875,-4.90625 0.4375,-3.03125 0.4375,-1.4375 C 0.4375,-0.609375 0.765625,0.0625 1.40625,0.0625 C 2.453125,0.0625 3.5625,-1.828125 3.5625,-3.390625 z M 1.21875,-2.546875 C 1.578125,-4.046875 2.1875,-4.703125 2.59375,-4.703125 C 3.03125,-4.703125 3.03125,-3.9375 3.03125,-3.8125 C 3.03125,-3.53125 2.984375,-3.125 2.84375,-2.546875 L 1.21875,-2.546875 z M 2.78125,-2.296875 C 2.578125,-1.53125 2.421875,-1.15625 2.203125,-0.8125 C 2,-0.453125 1.71875,-0.125 1.40625,-0.125 C 1.03125,-0.125 0.96875,-0.65625 0.96875,-1.03125 C 0.96875,-1.484375 1.09375,-2.03125 1.15625,-2.296875 L 2.78125,-2.296875 z"
               id="path11608" />
          </symbol>
          <symbol
             style="overflow:visible"
             overflow="visible"
             id="textext-d3ce329d-14">
            <path
               style="stroke:none"
               d=""
               id="path11611" />
          </symbol>
          <symbol
             style="overflow:visible"
             overflow="visible"
             id="textext-d3ce329d-15">
            <path
               style="stroke:none"
               d="M 2.03125,-3.296875 C 2.0625,-3.359375 2.078125,-3.421875 2.078125,-3.515625 C 2.078125,-3.734375 1.890625,-3.890625 1.671875,-3.890625 C 1.390625,-3.890625 1.328125,-3.671875 1.296875,-3.578125 L 0.375,-0.5625 C 0.359375,-0.53125 0.328125,-0.453125 0.328125,-0.4375 C 0.328125,-0.359375 0.546875,-0.28125 0.609375,-0.28125 C 0.65625,-0.28125 0.6875,-0.328125 0.703125,-0.390625 L 2.03125,-3.296875 z"
               id="path11614" />
          </symbol>
        </g>
      </defs>
      <g
         id="textext-d3ce329d-16">
        <g
           style="fill:#000000;fill-opacity:1"
           id="g11617">
          <use
             height="425.19684"
             width="425.19684"
             xlink:href="#textext-d3ce329d-1"
             x="223.43201"
             y="134.765"
             id="use11619" />
        </g>
        <g
           style="fill:#000000;fill-opacity:1"
           id="g11621">
          <use
             height="425.19684"
             width="425.19684"
             xlink:href="#textext-d3ce329d-6"
             x="230.60001"
             y="134.765"
             id="use11623" />
        </g>
        <g
           style="fill:#000000;fill-opacity:1"
           id="g11625">
          <use
             height="425.19684"
             width="425.19684"
             xlink:href="#textext-d3ce329d-2"
             x="235.58099"
             y="134.765"
             id="use11627" />
        </g>
        <g
           style="fill:#000000;fill-opacity:1"
           id="g11629">
          <use
             height="425.19684"
             width="425.19684"
             xlink:href="#textext-d3ce329d-9"
             x="244.04201"
             y="134.765"
             id="use11631" />
        </g>
        <g
           style="fill:#000000;fill-opacity:1"
           id="g11633">
          <use
             height="425.19684"
             width="425.19684"
             xlink:href="#textext-d3ce329d-10"
             x="254.56052"
             y="134.765"
             id="use11635" />
        </g>
        <g
           style="fill:#000000;fill-opacity:1"
           id="g11637">
          <use
             height="425.19684"
             width="425.19684"
             xlink:href="#textext-d3ce329d-3"
             x="258.43301"
             y="134.765"
             id="use11639" />
        </g>
        <g
           style="fill:#000000;fill-opacity:1"
           id="g11641">
          <use
             height="425.19684"
             width="425.19684"
             xlink:href="#textext-d3ce329d-7"
             x="266.59601"
             y="134.765"
             id="use11643" />
        </g>
        <g
           style="fill:#000000;fill-opacity:1"
           id="g11645">
          <use
             height="425.19684"
             width="425.19684"
             xlink:href="#textext-d3ce329d-4"
             x="273.79199"
             y="134.765"
             id="use11647" />
        </g>
        <g
           style="fill:#000000;fill-opacity:1"
           id="g11649">
          <use
             height="425.19684"
             width="425.19684"
             xlink:href="#textext-d3ce329d-13"
             x="278.978"
             y="136.259"
             id="use11651" />
        </g>
        <g
           style="fill:#000000;fill-opacity:1"
           id="g11653">
          <use
             height="425.19684"
             width="425.19684"
             xlink:href="#textext-d3ce329d-11"
             x="283.48599"
             y="134.765"
             id="use11655" />
        </g>
        <g
           style="fill:#000000;fill-opacity:1"
           id="g11657">
          <use
             height="425.19684"
             width="425.19684"
             xlink:href="#textext-d3ce329d-15"
             x="287.35999"
             y="131.14999"
             id="use11659" />
        </g>
      </g>
    </g>
    <g
       id="g12185"
       ns0:preamble=""
       ns0:text="$f$"
       transform="matrix(1.5082528,0,0,1.3894564,-120.37565,214.91324)">
      <defs
         id="defs12187">
        <g
           id="g12189">
          <symbol
             id="textext-75ac2183-0"
             overflow="visible"
             style="overflow:visible">
            <path
               id="path12192"
               d=""
               style="stroke:none" />
          </symbol>
          <symbol
             id="textext-75ac2183-1"
             overflow="visible"
             style="overflow:visible">
            <path
               id="path12195"
               d="M 3.65625,-3.984375 L 4.515625,-3.984375 C 4.71875,-3.984375 4.8125,-3.984375 4.8125,-4.1875 C 4.8125,-4.296875 4.71875,-4.296875 4.546875,-4.296875 L 3.71875,-4.296875 C 3.828125,-4.875 3.8125,-4.859375 3.921875,-5.4375 C 3.96875,-5.640625 4.109375,-6.34375 4.171875,-6.46875 C 4.25,-6.65625 4.421875,-6.8125 4.640625,-6.8125 C 4.671875,-6.8125 4.9375,-6.8125 5.125,-6.625 C 4.6875,-6.59375 4.578125,-6.234375 4.578125,-6.09375 C 4.578125,-5.859375 4.765625,-5.734375 4.953125,-5.734375 C 5.21875,-5.734375 5.5,-5.96875 5.5,-6.34375 C 5.5,-6.796875 5.046875,-7.03125 4.640625,-7.03125 C 4.296875,-7.03125 3.671875,-6.84375 3.375,-5.859375 C 3.3125,-5.65625 3.28125,-5.546875 3.046875,-4.296875 L 2.359375,-4.296875 C 2.15625,-4.296875 2.046875,-4.296875 2.046875,-4.109375 C 2.046875,-3.984375 2.140625,-3.984375 2.328125,-3.984375 L 2.984375,-3.984375 L 2.25,-0.046875 C 2.0625,0.921875 1.890625,1.828125 1.375,1.828125 C 1.328125,1.828125 1.09375,1.828125 0.890625,1.640625 C 1.359375,1.609375 1.453125,1.25 1.453125,1.109375 C 1.453125,0.875 1.265625,0.75 1.078125,0.75 C 0.8125,0.75 0.53125,0.984375 0.53125,1.359375 C 0.53125,1.796875 0.96875,2.046875 1.375,2.046875 C 1.921875,2.046875 2.328125,1.453125 2.5,1.078125 C 2.828125,0.453125 3.046875,-0.75 3.0625,-0.828125 L 3.65625,-3.984375 z"
               style="stroke:none" />
          </symbol>
        </g>
      </defs>
      <g
         id="textext-75ac2183-2">
        <g
           id="g12198"
           style="fill:#000000;fill-opacity:1">
          <use
             id="use12200"
             y="134.765"
             x="223.43201"
             xlink:href="#textext-75ac2183-1"
             width="425.19684"
             height="425.19684" />
        </g>
      </g>
    </g>
    <g
       transform="matrix(0.8699482,0,0,0.7997298,-50.60418,61.830518)"
       id="g12473">
      <g
         id="g12475">
        <path
           id="path12477"
           d="M 204.55589,151.4455 L 198.49498,158.01149"
           style="fill:none;fill-rule:evenodd;stroke:#000000;stroke-width:1px;stroke-linecap:butt;stroke-linejoin:miter;stroke-opacity:1" />
        <path
           style="fill:none;fill-rule:evenodd;stroke:#000000;stroke-width:1px;stroke-linecap:butt;stroke-linejoin:miter;stroke-opacity:1"
           d="M 198.7272,151.69804 L 205.29319,157.75895"
           id="path12479" />
      </g>
    </g>
  </g>
</svg>
