<?xml version="1.0" encoding="UTF-8" standalone="no"?>
<!-- Created with Inkscape (http://www.inkscape.org/) -->

<svg
   xmlns:ns0="http://www.iki.fi/pav/software/textext/"
   xmlns:dc="http://purl.org/dc/elements/1.1/"
   xmlns:cc="http://creativecommons.org/ns#"
   xmlns:rdf="http://www.w3.org/1999/02/22-rdf-syntax-ns#"
   xmlns:svg="http://www.w3.org/2000/svg"
   xmlns="http://www.w3.org/2000/svg"
   xmlns:xlink="http://www.w3.org/1999/xlink"
   xmlns:sodipodi="http://sodipodi.sourceforge.net/DTD/sodipodi-0.dtd"
   xmlns:inkscape="http://www.inkscape.org/namespaces/inkscape"
   width="389.76376"
   height="212.59842"
   id="svg2"
   version="1.1"
   inkscape:version="0.48.4 r9939"
   sodipodi:docname="New document 1">
  <sodipodi:namedview
     id="base"
     pagecolor="#ffffff"
     bordercolor="#666666"
     borderopacity="1.0"
     inkscape:pageopacity="0.0"
     inkscape:pageshadow="2"
     inkscape:zoom="1.4097243"
     inkscape:cx="170.89364"
     inkscape:cy="153.98793"
     inkscape:document-units="px"
     inkscape:current-layer="layer1"
     showgrid="false"
     units="cm"
     inkscape:window-width="1024"
     inkscape:window-height="744"
     inkscape:window-x="0"
     inkscape:window-y="24"
     inkscape:window-maximized="1" />
  <defs
     id="defs4">
    <marker
       inkscape:stockid="Arrow1Mend"
       orient="auto"
       refY="0.0"
       refX="0.0"
       id="Arrow1Mend"
       style="overflow:visible;">
      <path
         id="path3768"
         d="M 0.0,0.0 L 5.0,-5.0 L -12.5,0.0 L 5.0,5.0 L 0.0,0.0 z "
         style="fill-rule:evenodd;stroke:#000000;stroke-width:1.0pt;"
         transform="scale(0.4) rotate(180) translate(10,0)" />
    </marker>
  </defs>
  <metadata
     id="metadata7">
    <rdf:RDF>
      <cc:Work
         rdf:about="">
        <dc:format>image/svg+xml</dc:format>
        <dc:type
           rdf:resource="http://purl.org/dc/dcmitype/StillImage" />
        <dc:title></dc:title>
      </cc:Work>
    </rdf:RDF>
  </metadata>
  <g
     inkscape:label="Layer 1"
     inkscape:groupmode="layer"
     id="layer1"
     transform="translate(0,-839.76245)">
    <path
       style="fill:none;stroke:#000000;stroke-width:1.125;stroke-linecap:butt;stroke-linejoin:miter;stroke-miterlimit:4;stroke-opacity:1;stroke-dasharray:none;marker-end:url(#Arrow1Mend)"
       d="m 305.54796,911.44459 34.87346,0 0,23.35446 -271.061903,0 0,27.10785 38.572163,0"
       id="path2985"
       inkscape:connector-curvature="0" />
    <g
       transform="matrix(1.2,0,0,1.2,-152.51209,751.56541)"
       ns0:text="$0\\to (H^{1}_{\\rm et}(C\\otimes \\overline{k},Z_{p})\\otimes W(\\overline{k}))^{{\\rm Gal}(\\overline{k}/k)}\\xrightarrow{\\alpha}$"
       ns0:preamble="/home/sriranga/Desktop/TIFR/Studies-in-Mathematics/SM_05/chap2/package.tex"
       id="g4393">
      <defs
         id="defs4395">
        <g
           id="g4397">
          <symbol
             style="overflow:visible"
             overflow="visible"
             id="textext-9478b378-0">
            <path
               inkscape:connector-curvature="0"
               style="stroke:none"
               d=""
               id="path4400" />
          </symbol>
          <symbol
             style="overflow:visible"
             overflow="visible"
             id="textext-9478b378-1">
            <path
               inkscape:connector-curvature="0"
               style="stroke:none"
               d="m 2.53125,-6.734375 c -0.546875,0 -0.96875,0.171875 -1.328125,0.515625 -0.578125,0.5625 -0.96875,1.703125 -0.96875,2.875 0,1.078125 0.328125,2.25 0.796875,2.8125 0.375,0.4375 0.875,0.671875 1.46875,0.671875 0.5,0 0.921875,-0.171875 1.28125,-0.515625 C 4.359375,-0.921875 4.75,-2.078125 4.75,-3.296875 c 0,-2.03125 -0.90625,-3.4375 -2.21875,-3.4375 z m -0.03125,0.25 c 0.84375,0 1.28125,1.125 1.28125,3.21875 0,2.078125 -0.4375,3.140625 -1.28125,3.140625 -0.859375,0 -1.296875,-1.0625 -1.296875,-3.140625 0,-2.109375 0.4375,-3.21875 1.296875,-3.21875 z m 0,0"
               id="path4403" />
          </symbol>
          <symbol
             style="overflow:visible"
             overflow="visible"
             id="textext-9478b378-2">
            <path
               inkscape:connector-curvature="0"
               style="stroke:none"
               d="M 2.9375,-6.734375 C 2.203125,-6.265625 1.90625,-6 1.53125,-5.546875 c -0.703125,0.875 -1.046875,1.875 -1.046875,3.03125 0,1.265625 0.359375,2.25 1.234375,3.265625 0.421875,0.46875 0.671875,0.703125 1.1875,1.015625 l 0.125,-0.15625 C 2.234375,0.984375 1.953125,0.625 1.6875,-0.125 1.453125,-0.78125 1.328125,-1.546875 1.328125,-2.546875 1.328125,-3.59375 1.46875,-4.40625 1.734375,-5.03125 2.015625,-5.640625 2.3125,-6 3.03125,-6.578125 z m 0,0"
               id="path4406" />
          </symbol>
          <symbol
             style="overflow:visible"
             overflow="visible"
             id="textext-9478b378-3">
            <path
               inkscape:connector-curvature="0"
               style="stroke:none"
               d="M 0.375,1.765625 C 1.109375,1.28125 1.421875,1.03125 1.78125,0.5625 2.5,-0.296875 2.84375,-1.296875 2.84375,-2.46875 c 0,-1.265625 -0.375,-2.234375 -1.25,-3.25 C 1.1875,-6.203125 0.921875,-6.421875 0.40625,-6.734375 l -0.109375,0.15625 c 0.796875,0.625 1.0625,0.96875 1.34375,1.71875 0.234375,0.671875 0.34375,1.4375 0.34375,2.421875 0,1.046875 -0.125,1.875 -0.40625,2.484375 C 1.3125,0.671875 1,1.03125 0.296875,1.609375 z m 0,0"
               id="path4409" />
          </symbol>
          <symbol
             style="overflow:visible"
             overflow="visible"
             id="textext-9478b378-4">
            <path
               inkscape:connector-curvature="0"
               style="stroke:none"
               d=""
               id="path4412" />
          </symbol>
          <symbol
             style="overflow:visible"
             overflow="visible"
             id="textext-9478b378-5">
            <path
               inkscape:connector-curvature="0"
               style="stroke:none"
               d="m 8.984375,-2.578125 -1.953125,-2.03125 -0.296875,0.328125 1.1875,1.4375 -7.296875,0 0,0.5625 7.296875,0 -1.1875,1.4375 0.296875,0.328125 z m 0,0"
               id="path4415" />
          </symbol>
          <symbol
             style="overflow:visible"
             overflow="visible"
             id="textext-9478b378-6">
            <path
               inkscape:connector-curvature="0"
               style="stroke:none"
               d="m 6.171875,-2.5625 c 0,-1.65625 -1.34375,-3 -3,-3 -1.65625,0 -3,1.34375 -3,3 0,1.65625 1.34375,3 3,3 1.65625,0 3,-1.34375 3,-3 z M 4.8125,-4.515625 3.171875,-2.875 1.53125,-4.515625 c 0.4375,-0.375 1.015625,-0.59375 1.640625,-0.59375 0.609375,0 1.1875,0.21875 1.640625,0.59375 z M 5.71875,-2.5625 c 0,0.625 -0.21875,1.203125 -0.59375,1.640625 L 3.484375,-2.5625 5.125,-4.203125 C 5.5,-3.765625 5.71875,-3.1875 5.71875,-2.5625 z m -2.875,0 -1.625,1.640625 C 0.84375,-1.359375 0.625,-1.9375 0.625,-2.5625 c 0,-0.625 0.21875,-1.203125 0.59375,-1.640625 z m 1.96875,1.953125 c -0.453125,0.375 -1.03125,0.59375 -1.640625,0.59375 -0.625,0 -1.203125,-0.21875 -1.640625,-0.59375 L 3.171875,-2.25 z m 0,0"
               id="path4418" />
          </symbol>
          <symbol
             style="overflow:visible"
             overflow="visible"
             id="textext-9478b378-7">
            <path
               inkscape:connector-curvature="0"
               style="stroke:none"
               d="m 5.71875,-2.28125 0,-0.5625 -5.09375,0 0,0.5625 z m 0,0"
               id="path4421" />
          </symbol>
          <symbol
             style="overflow:visible"
             overflow="visible"
             id="textext-9478b378-8">
            <path
               inkscape:connector-curvature="0"
               style="stroke:none"
               d=""
               id="path4424" />
          </symbol>
          <symbol
             style="overflow:visible"
             overflow="visible"
             id="textext-9478b378-9">
            <path
               inkscape:connector-curvature="0"
               style="stroke:none"
               d="m 7.640625,-6.515625 -2.453125,0 0,0.171875 c 0.578125,0.0625 0.6875,0.140625 0.6875,0.421875 0,0.140625 -0.03125,0.375 -0.109375,0.625 l -0.453125,1.625 -2.84375,0 0.546875,-1.9375 c 0.140625,-0.515625 0.40625,-0.703125 1,-0.734375 l 0,-0.171875 -2.71875,0 0,0.171875 c 0.609375,0.046875 0.765625,0.140625 0.765625,0.421875 0,0.140625 -0.03125,0.375 -0.109375,0.625 l -1.21875,4.40625 c -0.1875,0.578125 -0.25,0.625 -0.8125,0.734375 l 0,0.15625 2.453125,0 0,-0.15625 C 1.78125,-0.234375 1.671875,-0.3125 1.671875,-0.59375 c 0,-0.078125 0,-0.15625 0.015625,-0.21875 L 2.359375,-3.25 5.1875,-3.25 4.546875,-0.890625 C 4.390625,-0.375 4.1875,-0.234375 3.53125,-0.15625 l 0,0.15625 2.734375,0 0,-0.15625 C 5.625,-0.21875 5.484375,-0.296875 5.484375,-0.578125 c 0,-0.09375 0.015625,-0.15625 0.03125,-0.234375 l 1.3125,-4.796875 C 7,-6.1875 7.078125,-6.25 7.640625,-6.34375 z m 0,0"
               id="path4427" />
          </symbol>
          <symbol
             style="overflow:visible"
             overflow="visible"
             id="textext-9478b378-10">
            <path
               inkscape:connector-curvature="0"
               style="stroke:none"
               d="M 6.5,-4.640625 6.875,-6.625 l -0.21875,0 c -0.078125,0.171875 -0.171875,0.21875 -0.375,0.21875 -0.078125,0 -0.203125,-0.015625 -0.40625,-0.0625 -0.453125,-0.109375 -0.84375,-0.171875 -1.171875,-0.171875 -2.125,0 -4.046875,2 -4.046875,4.21875 0,1.53125 1.078125,2.59375 2.609375,2.59375 1.015625,0 1.8125,-0.4375 2.71875,-1.484375 L 5.8125,-1.453125 c -0.890625,0.890625 -1.46875,1.1875 -2.296875,1.1875 -1.109375,0 -1.734375,-0.765625 -1.734375,-2.046875 0,-1.1875 0.46875,-2.390625 1.25,-3.203125 C 3.515625,-6 4.140625,-6.28125 4.796875,-6.28125 c 0.921875,0 1.421875,0.546875 1.515625,1.609375 z m 0,0"
               id="path4430" />
          </symbol>
          <symbol
             style="overflow:visible"
             overflow="visible"
             id="textext-9478b378-11">
            <path
               inkscape:connector-curvature="0"
               style="stroke:none"
               d="m 4.125,-1.09375 -0.140625,0.265625 c -0.1875,0.3125 -0.3125,0.421875 -0.453125,0.421875 -0.21875,0 -0.421875,-0.328125 -0.8125,-1.28125 C 2.671875,-1.828125 2.515625,-2.1875 2.359375,-2.578125 3.8125,-3.875 4.125,-4.078125 4.59375,-4.109375 l 0,-0.15625 -1.828125,0 0,0.15625 0.171875,0 c 0.25,0 0.375,0.078125 0.375,0.1875 0,0.1875 -0.484375,0.6875 -1.421875,1.390625 -0.140625,0.109375 -0.25,0.203125 -0.421875,0.328125 l 1.1875,-4.5625 L 2.609375,-6.8125 C 2.03125,-6.671875 1.640625,-6.609375 1.0625,-6.546875 l 0,0.171875 c 0.46875,-0.015625 0.65625,0.0625 0.671875,0.25 -0.015625,0.15625 -0.09375,0.4375 -0.21875,0.890625 -0.046875,0.140625 -0.0625,0.25 -0.09375,0.328125 L 1.40625,-4.8125 0.140625,0 l 0.75,0 0.46875,-1.796875 0.421875,-0.3125 c 0.15625,0.4375 0.421875,1.046875 0.59375,1.40625 0.328125,0.625 0.5,0.8125 0.796875,0.8125 0.390625,0 0.65625,-0.25 1.109375,-1.09375 z m 0,0"
               id="path4433" />
          </symbol>
          <symbol
             style="overflow:visible"
             overflow="visible"
             id="textext-9478b378-12">
            <path
               inkscape:connector-curvature="0"
               style="stroke:none"
               d="m 6.046875,-6.515625 -4.84375,0 -0.46875,1.46875 L 0.921875,-5 c 0.21875,-0.4375 0.328125,-0.609375 0.53125,-0.78125 0.28125,-0.234375 0.8125,-0.375 1.5625,-0.375 l 1.703125,0 -4.78125,6.015625 0,0.140625 5.03125,0 0.546875,-1.671875 -0.1875,-0.03125 c -0.328125,0.640625 -0.5,0.875 -0.84375,1.0625 -0.34375,0.203125 -0.828125,0.28125 -1.65625,0.28125 l -1.609375,0 L 6.046875,-6.375 z m 0,0"
               id="path4436" />
          </symbol>
          <symbol
             style="overflow:visible"
             overflow="visible"
             id="textext-9478b378-13">
            <path
               inkscape:connector-curvature="0"
               style="stroke:none"
               d="m 9.03125,-6.515625 -1.84375,0 0,0.171875 c 0.53125,0.046875 0.640625,0.109375 0.640625,0.390625 0,0.15625 -0.078125,0.40625 -0.203125,0.671875 L 5.765625,-1.609375 5.359375,-5.625 l 0,-0.140625 c 0,-0.40625 0.140625,-0.53125 0.671875,-0.578125 l 0,-0.171875 -2.375,0 0,0.171875 c 0.578125,0.015625 0.6875,0.078125 0.75,0.578125 L 4.5,-5.078125 2.78125,-1.609375 2.34375,-5.65625 c -0.015625,-0.0625 -0.015625,-0.125 -0.015625,-0.140625 0,-0.390625 0.125,-0.484375 0.734375,-0.546875 l 0,-0.171875 -2.359375,0 0,0.171875 C 1.03125,-6.3125 1.125,-6.28125 1.21875,-6.1875 1.328125,-6.078125 1.375,-5.890625 1.5,-4.96875 l 0.609375,5.140625 0.1875,0 2.21875,-4.515625 0.046875,0 0.5,4.515625 0.203125,0 L 8.28125,-5.625 c 0.265625,-0.515625 0.375,-0.609375 0.75,-0.71875 z m 0,0"
               id="path4439" />
          </symbol>
          <symbol
             style="overflow:visible"
             overflow="visible"
             id="textext-9478b378-14">
            <path
               inkscape:connector-curvature="0"
               style="stroke:none"
               d=""
               id="path4442" />
          </symbol>
          <symbol
             style="overflow:visible"
             overflow="visible"
             id="textext-9478b378-15">
            <path
               inkscape:connector-curvature="0"
               style="stroke:none"
               d="m 2.03125,-4.703125 -1.25,0.625 0,0.09375 c 0.078125,-0.03125 0.15625,-0.0625 0.1875,-0.078125 0.125,-0.046875 0.234375,-0.0625 0.3125,-0.0625 0.140625,0 0.203125,0.09375 0.203125,0.3125 l 0,3.171875 c 0,0.21875 -0.0625,0.375 -0.171875,0.453125 -0.09375,0.0625 -0.203125,0.078125 -0.484375,0.078125 L 0.828125,0 2.75,0 l 0,-0.109375 c -0.5625,0 -0.671875,-0.078125 -0.671875,-0.40625 l 0,-4.1875 z m 0,0"
               id="path4445" />
          </symbol>
          <symbol
             style="overflow:visible"
             overflow="visible"
             id="textext-9478b378-16">
            <path
               inkscape:connector-curvature="0"
               style="stroke:none"
               d="m 2.84375,-1.140625 c -0.328125,0.53125 -0.640625,0.734375 -1.078125,0.734375 -0.40625,0 -0.703125,-0.203125 -0.90625,-0.609375 C 0.734375,-1.28125 0.6875,-1.5 0.671875,-1.9375 l 2.15625,0 c -0.0625,-0.453125 -0.125,-0.640625 -0.3125,-0.875 C 2.3125,-3.0625 2,-3.203125 1.625,-3.203125 c -0.34375,0 -0.671875,0.125 -0.9375,0.359375 -0.328125,0.28125 -0.515625,0.78125 -0.515625,1.359375 0,0.953125 0.5,1.546875 1.3125,1.546875 0.65625,0 1.171875,-0.40625 1.46875,-1.15625 z M 0.6875,-2.15625 C 0.765625,-2.703125 1,-2.953125 1.421875,-2.953125 c 0.4375,0 0.59375,0.1875 0.6875,0.796875 z m 0,0"
               id="path4448" />
          </symbol>
          <symbol
             style="overflow:visible"
             overflow="visible"
             id="textext-9478b378-17">
            <path
               inkscape:connector-curvature="0"
               style="stroke:none"
               d="m 1.78125,-3.140625 -0.703125,0 0,-0.796875 c 0,-0.078125 -0.015625,-0.09375 -0.046875,-0.09375 -0.0625,0.0625 -0.09375,0.125 -0.140625,0.1875 -0.265625,0.390625 -0.5625,0.71875 -0.6875,0.75 C 0.125,-3.046875 0.09375,-3 0.09375,-2.96875 c 0,0.03125 0,0.046875 0.03125,0.0625 l 0.359375,0 0,2.09375 c 0,0.578125 0.21875,0.875 0.625,0.875 0.34375,0 0.609375,-0.15625 0.828125,-0.515625 L 1.859375,-0.53125 c -0.15625,0.171875 -0.265625,0.234375 -0.421875,0.234375 -0.265625,0 -0.359375,-0.1875 -0.359375,-0.625 l 0,-1.984375 0.703125,0 z m 0,0"
               id="path4451" />
          </symbol>
          <symbol
             style="overflow:visible"
             overflow="visible"
             id="textext-9478b378-18">
            <path
               inkscape:connector-curvature="0"
               style="stroke:none"
               d="m 4.9375,-2.46875 -1.78125,0 0,0.125 c 0.3125,0.015625 0.390625,0.046875 0.46875,0.09375 0.109375,0.0625 0.15625,0.234375 0.15625,0.53125 l 0,1.125 c 0,0.21875 -0.421875,0.40625 -0.9375,0.40625 -1.125,0 -1.828125,-0.78125 -1.828125,-2.078125 0,-0.65625 0.203125,-1.296875 0.5,-1.640625 0.3125,-0.34375 0.75,-0.53125 1.21875,-0.53125 0.390625,0 0.734375,0.140625 1,0.390625 0.203125,0.1875 0.328125,0.375 0.5,0.8125 l 0.15625,0 -0.0625,-1.46875 -0.140625,0 c -0.046875,0.125 -0.171875,0.21875 -0.3125,0.21875 -0.078125,0 -0.1875,-0.015625 -0.3125,-0.0625 -0.3125,-0.109375 -0.640625,-0.15625 -0.953125,-0.15625 -1.390625,0 -2.390625,1.015625 -2.390625,2.4375 0,0.6875 0.1875,1.203125 0.578125,1.625 0.46875,0.46875 1.140625,0.734375 1.90625,0.734375 0.59375,0 1.46875,-0.234375 1.75,-0.484375 l 0,-1.421875 c 0,-0.40625 0.078125,-0.5 0.484375,-0.53125 z m 0,0"
               id="path4454" />
          </symbol>
          <symbol
             style="overflow:visible"
             overflow="visible"
             id="textext-9478b378-19">
            <path
               inkscape:connector-curvature="0"
               style="stroke:none"
               d="m 3.078125,-0.453125 c -0.109375,0.09375 -0.203125,0.125 -0.296875,0.125 -0.171875,0 -0.21875,-0.09375 -0.21875,-0.40625 l 0,-1.359375 c 0,-0.359375 -0.03125,-0.5625 -0.140625,-0.734375 -0.15625,-0.25 -0.453125,-0.375 -0.859375,-0.375 -0.65625,0 -1.171875,0.34375 -1.171875,0.78125 0,0.15625 0.140625,0.296875 0.296875,0.296875 C 0.859375,-2.125 1,-2.265625 1,-2.421875 1,-2.453125 1,-2.484375 0.984375,-2.53125 0.96875,-2.59375 0.96875,-2.640625 0.96875,-2.703125 c 0,-0.1875 0.21875,-0.328125 0.5,-0.328125 C 1.8125,-3.03125 2,-2.84375 2,-2.453125 l 0,0.421875 c -1.078125,0.421875 -1.1875,0.484375 -1.484375,0.75 -0.15625,0.140625 -0.25,0.375 -0.25,0.609375 0,0.4375 0.296875,0.734375 0.71875,0.734375 0.3125,0 0.59375,-0.140625 1.015625,-0.5 0.046875,0.359375 0.171875,0.5 0.453125,0.5 0.234375,0 0.390625,-0.078125 0.625,-0.34375 z M 2,-0.859375 c 0,0.21875 -0.03125,0.28125 -0.1875,0.359375 -0.15625,0.109375 -0.359375,0.171875 -0.5,0.171875 -0.25,0 -0.4375,-0.25 -0.4375,-0.546875 l 0,-0.03125 C 0.875,-1.3125 1.15625,-1.5625 2,-1.875 z m 0,0"
               id="path4457" />
          </symbol>
          <symbol
             style="overflow:visible"
             overflow="visible"
             id="textext-9478b378-20">
            <path
               inkscape:connector-curvature="0"
               style="stroke:none"
               d="m 0.125,-4.34375 0.046875,0 c 0.078125,0 0.15625,-0.015625 0.21875,-0.015625 0.21875,0 0.296875,0.09375 0.296875,0.421875 l 0,3.328125 c 0,0.375 -0.109375,0.46875 -0.546875,0.5 l 0,0.109375 1.65625,0 0,-0.109375 c -0.4375,-0.015625 -0.53125,-0.09375 -0.53125,-0.46875 l 0,-4.171875 -0.03125,-0.015625 c -0.359375,0.125 -0.625,0.1875 -1.109375,0.3125 z m 0,0"
               id="path4460" />
          </symbol>
          <symbol
             style="overflow:visible"
             overflow="visible"
             id="textext-9478b378-21">
            <path
               inkscape:connector-curvature="0"
               style="stroke:none"
               d="M 2.0625,-4.703125 C 1.546875,-4.375 1.328125,-4.1875 1.078125,-3.875 c -0.5,0.609375 -0.75,1.296875 -0.75,2.125 0,0.875 0.265625,1.5625 0.875,2.265625 0.28125,0.34375 0.46875,0.5 0.828125,0.71875 L 2.125,1.125 C 1.5625,0.6875 1.359375,0.4375 1.171875,-0.078125 c -0.15625,-0.46875 -0.234375,-1 -0.234375,-1.703125 0,-0.734375 0.09375,-1.296875 0.28125,-1.734375 C 1.40625,-3.9375 1.609375,-4.1875 2.125,-4.59375 z m 0,0"
               id="path4463" />
          </symbol>
          <symbol
             style="overflow:visible"
             overflow="visible"
             id="textext-9478b378-22">
            <path
               inkscape:connector-curvature="0"
               style="stroke:none"
               d="M 0.265625,1.234375 C 0.78125,0.90625 0.984375,0.71875 1.25,0.390625 1.734375,-0.203125 1.984375,-0.90625 1.984375,-1.71875 c 0,-0.890625 -0.25,-1.578125 -0.875,-2.28125 C 0.828125,-4.328125 0.640625,-4.484375 0.28125,-4.703125 L 0.203125,-4.59375 c 0.5625,0.4375 0.75,0.671875 0.9375,1.203125 0.171875,0.46875 0.25,1 0.25,1.6875 0,0.734375 -0.09375,1.3125 -0.28125,1.734375 -0.203125,0.4375 -0.40625,0.6875 -0.90625,1.09375 z m 0,0"
               id="path4466" />
          </symbol>
          <symbol
             style="overflow:visible"
             overflow="visible"
             id="textext-9478b378-23">
            <path
               inkscape:connector-curvature="0"
               style="stroke:none"
               d=""
               id="path4469" />
          </symbol>
          <symbol
             style="overflow:visible"
             overflow="visible"
             id="textext-9478b378-24">
            <path
               inkscape:connector-curvature="0"
               style="stroke:none"
               d="m 1.9375,-0.0625 c 0,-0.828125 -0.578125,-0.953125 -0.796875,-0.953125 -0.25,0 -0.578125,0.140625 -0.578125,0.578125 0,0.390625 0.359375,0.5 0.609375,0.5 0.078125,0 0.125,-0.015625 0.15625,-0.015625 0.03125,-0.015625 0.0625,-0.03125 0.09375,-0.03125 0.0625,0 0.140625,0.046875 0.140625,0.140625 0,0.1875 -0.171875,0.640625 -0.828125,1.0625 l 0.09375,0.1875 C 1.125,1.3125 1.9375,0.640625 1.9375,-0.0625 z m 0,0"
               id="path4472" />
          </symbol>
          <symbol
             style="overflow:visible"
             overflow="visible"
             id="textext-9478b378-25">
            <path
               inkscape:connector-curvature="0"
               style="stroke:none"
               d=""
               id="path4475" />
          </symbol>
          <symbol
             style="overflow:visible"
             overflow="visible"
             id="textext-9478b378-26">
            <path
               inkscape:connector-curvature="0"
               style="stroke:none"
               d="m 0.390625,-2.8125 0.15625,0 c 0,0 0.015625,0 0.03125,-0.015625 0.078125,-0.03125 0.265625,0.09375 0.265625,0.203125 0,0.0625 -0.25,1.046875 -0.5,1.96875 C 0.15625,0.046875 0,0.703125 -0.0625,0.90625 -0.125,1.21875 -0.21875,1.3125 -0.515625,1.3125 l 0,0.109375 1.421875,0 0,-0.09375 c -0.328125,0 -0.453125,-0.0625 -0.453125,-0.21875 0,-0.09375 0.125,-0.640625 0.265625,-1.15625 0.171875,0.09375 0.296875,0.125 0.453125,0.125 1.015625,0 2.09375,-1.171875 2.09375,-2.28125 0,-0.546875 -0.296875,-0.875 -0.796875,-0.875 -0.453125,0 -0.796875,0.234375 -1.1875,0.796875 L 1.484375,-2.984375 1.5,-3.046875 c 0,0 -0.015625,0 -0.015625,-0.015625 l -0.015625,-0.015625 -0.015625,0 -1.078125,0.15625 z m 1.8125,0.03125 c 0.3125,0.015625 0.4375,0.203125 0.4375,0.609375 0,0.453125 -0.203125,1.0625 -0.5,1.484375 -0.296875,0.421875 -0.625,0.625 -0.984375,0.625 -0.203125,0 -0.34375,-0.09375 -0.34375,-0.25 0,-0.234375 0.25,-1.15625 0.453125,-1.671875 0.1875,-0.46875 0.59375,-0.8125 0.9375,-0.796875 z m 0,0"
               id="path4478" />
          </symbol>
          <symbol
             style="overflow:visible"
             overflow="visible"
             id="textext-9478b378-27">
            <path
               inkscape:connector-curvature="0"
               style="stroke:none"
               d="m 2.890625,-0.765625 -0.109375,0.1875 c -0.125,0.21875 -0.203125,0.296875 -0.3125,0.296875 -0.140625,0 -0.296875,-0.234375 -0.5625,-0.90625 C 1.875,-1.28125 1.765625,-1.53125 1.640625,-1.796875 2.671875,-2.703125 2.890625,-2.84375 3.21875,-2.875 l 0,-0.109375 -1.28125,0 0,0.109375 0.109375,0 c 0.171875,0 0.28125,0.046875 0.28125,0.125 0,0.140625 -0.359375,0.484375 -1,0.984375 C 1.21875,-1.6875 1.140625,-1.625 1.03125,-1.546875 L 1.859375,-4.71875 1.828125,-4.765625 c -0.40625,0.09375 -0.671875,0.140625 -1.09375,0.1875 l 0,0.125 c 0.34375,-0.015625 0.46875,0.03125 0.484375,0.171875 -0.015625,0.109375 -0.0625,0.296875 -0.15625,0.625 C 1.03125,-3.5625 1.015625,-3.484375 1,-3.421875 L 0.984375,-3.359375 0.09375,0 0.625,0 0.953125,-1.25 1.25,-1.484375 C 1.359375,-1.171875 1.546875,-0.75 1.671875,-0.5 c 0.21875,0.4375 0.34375,0.578125 0.546875,0.578125 0.28125,0 0.453125,-0.171875 0.765625,-0.765625 z m 0,0"
               id="path4481" />
          </symbol>
          <symbol
             style="overflow:visible"
             overflow="visible"
             id="textext-9478b378-28">
            <path
               inkscape:connector-curvature="0"
               style="stroke:none"
               d=""
               id="path4484" />
          </symbol>
          <symbol
             style="overflow:visible"
             overflow="visible"
             id="textext-9478b378-29">
            <path
               inkscape:connector-curvature="0"
               style="stroke:none"
               d="m 2.640625,-4.71875 -0.359375,0 -1.84375,5.84375 0.359375,0 z m 0,0"
               id="path4487" />
          </symbol>
          <symbol
             style="overflow:visible"
             overflow="visible"
             id="textext-9478b378-30">
            <path
               inkscape:connector-curvature="0"
               style="stroke:none"
               d="m 4.0625,-2.859375 -0.46875,0.0625 c -0.1875,0.53125 -0.75,1.359375 -0.75,1.375 0,-0.015625 0.125,-0.3125 0.125,-0.6875 0,-0.453125 -0.171875,-0.96875 -0.90625,-0.96875 -1.171875,0 -1.890625,1.234375 -1.890625,2.078125 0,0.59375 0.3125,1.078125 1.03125,1.078125 0.546875,0 0.96875,-0.421875 0.96875,-0.4375 l 0.015625,0 c 0,0.0625 0,0.421875 0.515625,0.421875 0.5625,0 0.890625,-0.625 0.890625,-0.78125 0,-0.03125 -0.015625,-0.046875 -0.03125,-0.046875 -0.078125,0 -0.25,0.578125 -0.65625,0.578125 -0.15625,0 -0.203125,-0.171875 -0.203125,-0.359375 0,-0.15625 0.03125,-0.3125 0.0625,-0.375 0.09375,-0.140625 1.296875,-1.9375 1.296875,-1.9375 z M 2.453125,-2.0625 c 0,0.671875 -0.265625,1.421875 -0.265625,1.4375 0,0 -0.34375,0.53125 -0.875,0.53125 -0.15625,0 -0.53125,-0.046875 -0.53125,-0.9375 0,-0.359375 0.1875,-1.875 1.15625,-1.875 0.46875,0 0.515625,0.59375 0.515625,0.84375 z m 0,0"
               id="path4490" />
          </symbol>
        </g>
      </defs>
      <g
         id="textext-9478b378-31">
        <g
           style="fill:#000000;fill-opacity:1"
           id="g4493">
          <use
             height="212.59842"
             width="389.76376"
             xlink:href="#textext-9478b378-1"
             x="223.43201"
             y="135.56599"
             id="use4495" />
        </g>
        <g
           style="fill:#000000;fill-opacity:1"
           id="g4497">
          <use
             height="212.59842"
             width="389.76376"
             xlink:href="#textext-9478b378-5"
             x="231.181"
             y="135.56599"
             id="use4499" />
        </g>
        <g
           style="fill:#000000;fill-opacity:1"
           id="g4501">
          <use
             height="212.59842"
             width="389.76376"
             xlink:href="#textext-9478b378-2"
             x="243.552"
             y="135.56599"
             id="use4503" />
        </g>
        <g
           style="fill:#000000;fill-opacity:1"
           id="g4505">
          <use
             height="212.59842"
             width="389.76376"
             xlink:href="#textext-9478b378-9"
             x="247.119"
             y="135.56599"
             id="use4507" />
        </g>
        <g
           style="fill:#000000;fill-opacity:1"
           id="g4509">
          <use
             height="212.59842"
             width="389.76376"
             xlink:href="#textext-9478b378-15"
             x="254.75999"
             y="131.94901"
             id="use4511" />
        </g>
        <g
           style="fill:#000000;fill-opacity:1"
           id="g4513">
          <use
             height="212.59842"
             width="389.76376"
             xlink:href="#textext-9478b378-16"
             x="254.312"
             y="138.21899"
             id="use4515" />
          <use
             height="212.59842"
             width="389.76376"
             xlink:href="#textext-9478b378-17"
             x="257.40836"
             y="138.21899"
             id="use4517" />
        </g>
        <g
           style="fill:#000000;fill-opacity:1"
           id="g4519">
          <use
             height="212.59842"
             width="389.76376"
             xlink:href="#textext-9478b378-2"
             x="259.85199"
             y="135.56599"
             id="use4521" />
        </g>
        <g
           style="fill:#000000;fill-opacity:1"
           id="g4523">
          <use
             height="212.59842"
             width="389.76376"
             xlink:href="#textext-9478b378-10"
             x="262.92001"
             y="135.56599"
             id="use4525" />
        </g>
        <g
           style="fill:#000000;fill-opacity:1"
           id="g4527">
          <use
             height="212.59842"
             width="389.76376"
             xlink:href="#textext-9478b378-6"
             x="272.24799"
             y="135.56599"
             id="use4529" />
        </g>
        <path
           inkscape:connector-curvature="0"
           style="fill:none;stroke:#000000;stroke-width:0.55800003;stroke-linecap:butt;stroke-linejoin:miter;stroke-miterlimit:10;stroke-opacity:1"
           d="m -0.001125,0.00128125 4.59375,0"
           transform="matrix(1,0,0,-1,280.798,126.888)"
           id="path4531" />
        <g
           style="fill:#000000;fill-opacity:1"
           id="g4533">
          <use
             height="212.59842"
             width="389.76376"
             xlink:href="#textext-9478b378-11"
             x="280.798"
             y="135.56599"
             id="use4535" />
        </g>
        <g
           style="fill:#000000;fill-opacity:1"
           id="g4537">
          <use
             height="212.59842"
             width="389.76376"
             xlink:href="#textext-9478b378-24"
             x="285.39001"
             y="135.56599"
             id="use4539" />
        </g>
        <g
           style="fill:#000000;fill-opacity:1"
           id="g4541">
          <use
             height="212.59842"
             width="389.76376"
             xlink:href="#textext-9478b378-12"
             x="289.54199"
             y="135.56599"
             id="use4543" />
        </g>
        <g
           style="fill:#000000;fill-opacity:1"
           id="g4545">
          <use
             height="212.59842"
             width="389.76376"
             xlink:href="#textext-9478b378-26"
             x="295.604"
             y="137.06"
             id="use4547" />
        </g>
        <g
           style="fill:#000000;fill-opacity:1"
           id="g4549">
          <use
             height="212.59842"
             width="389.76376"
             xlink:href="#textext-9478b378-3"
             x="299.58899"
             y="135.56599"
             id="use4551" />
        </g>
        <g
           style="fill:#000000;fill-opacity:1"
           id="g4553">
          <use
             height="212.59842"
             width="389.76376"
             xlink:href="#textext-9478b378-6"
             x="305.12"
             y="135.56599"
             id="use4555" />
        </g>
        <g
           style="fill:#000000;fill-opacity:1"
           id="g4557">
          <use
             height="212.59842"
             width="389.76376"
             xlink:href="#textext-9478b378-13"
             x="313.67001"
             y="135.56599"
             id="use4559" />
        </g>
        <g
           style="fill:#000000;fill-opacity:1"
           id="g4561">
          <use
             height="212.59842"
             width="389.76376"
             xlink:href="#textext-9478b378-2"
             x="322.69699"
             y="135.56599"
             id="use4563" />
        </g>
        <path
           inkscape:connector-curvature="0"
           style="fill:none;stroke:#000000;stroke-width:0.55800003;stroke-linecap:butt;stroke-linejoin:miter;stroke-miterlimit:10;stroke-opacity:1"
           d="m 0.001625,0.00128125 4.589844,0"
           transform="matrix(1,0,0,-1,326.014,126.888)"
           id="path4565" />
        <g
           style="fill:#000000;fill-opacity:1"
           id="g4567">
          <use
             height="212.59842"
             width="389.76376"
             xlink:href="#textext-9478b378-11"
             x="326.01401"
             y="135.56599"
             id="use4569" />
        </g>
        <g
           style="fill:#000000;fill-opacity:1"
           id="g4571">
          <use
             height="212.59842"
             width="389.76376"
             xlink:href="#textext-9478b378-3"
             x="330.60699"
             y="135.56599"
             id="use4573" />
          <use
             height="212.59842"
             width="389.76376"
             xlink:href="#textext-9478b378-3"
             x="333.92456"
             y="135.56599"
             id="use4575" />
        </g>
        <g
           style="fill:#000000;fill-opacity:1"
           id="g4577">
          <use
             height="212.59842"
             width="389.76376"
             xlink:href="#textext-9478b378-18"
             x="337.242"
             y="131.94901"
             id="use4579" />
          <use
             height="212.59842"
             width="389.76376"
             xlink:href="#textext-9478b378-19"
             x="342.27707"
             y="131.94901"
             id="use4581" />
          <use
             height="212.59842"
             width="389.76376"
             xlink:href="#textext-9478b378-20"
             x="345.37344"
             y="131.94901"
             id="use4583" />
          <use
             height="212.59842"
             width="389.76376"
             xlink:href="#textext-9478b378-21"
             x="347.31216"
             y="131.94901"
             id="use4585" />
        </g>
        <path
           inkscape:connector-curvature="0"
           style="fill:none;stroke:#000000;stroke-width:0.391;stroke-linecap:butt;stroke-linejoin:miter;stroke-miterlimit:10;stroke-opacity:1"
           d="M 0.00171875,0 3.216563,0"
           transform="matrix(1,0,0,-1,349.635,125.875)"
           id="path4587" />
        <g
           style="fill:#000000;fill-opacity:1"
           id="g4589">
          <use
             height="212.59842"
             width="389.76376"
             xlink:href="#textext-9478b378-27"
             x="349.63501"
             y="131.94901"
             id="use4591" />
        </g>
        <g
           style="fill:#000000;fill-opacity:1"
           id="g4593">
          <use
             height="212.59842"
             width="389.76376"
             xlink:href="#textext-9478b378-29"
             x="352.849"
             y="131.94901"
             id="use4595" />
        </g>
        <g
           style="fill:#000000;fill-opacity:1"
           id="g4597">
          <use
             height="212.59842"
             width="389.76376"
             xlink:href="#textext-9478b378-27"
             x="355.92499"
             y="131.94901"
             id="use4599" />
        </g>
        <g
           style="fill:#000000;fill-opacity:1"
           id="g4601">
          <use
             height="212.59842"
             width="389.76376"
             xlink:href="#textext-9478b378-22"
             x="359.14001"
             y="131.94901"
             id="use4603" />
        </g>
        <g
           style="fill:#000000;fill-opacity:1"
           id="g4605">
          <use
             height="212.59842"
             width="389.76376"
             xlink:href="#textext-9478b378-30"
             x="366.858"
             y="128.881"
             id="use4607" />
        </g>
        <g
           style="fill:#000000;fill-opacity:1"
           id="g4609">
          <use
             height="212.59842"
             width="389.76376"
             xlink:href="#textext-9478b378-7"
             x="364.728"
             y="135.56599"
             id="use4611" />
        </g>
        <g
           style="fill:#000000;fill-opacity:1"
           id="g4613">
          <use
             height="212.59842"
             width="389.76376"
             xlink:href="#textext-9478b378-5"
             x="364.68814"
             y="135.56599"
             id="use4615" />
        </g>
      </g>
    </g>
    <g
       id="g5143"
       transform="matrix(1.2,0,0,1.2,-151.80274,799.73292)"
       ns0:preamble="/home/sriranga/Desktop/TIFR/Studies-in-Mathematics/SM_05/chap2/package.tex"
       ns0:text="$H^{1}_{\\text{cris}}(C\\otimes k/W(k))\\xrightarrow{\\beta}H^{1}{\\text{DR}}(\\widehat{C}_{x}/W(k))$,">
      <defs
         id="defs5145">
        <g
           id="g5147">
          <symbol
             id="textext-34ab26be-0"
             overflow="visible"
             style="overflow:visible">
            <path
               id="path5150"
               d=""
               style="stroke:none"
               inkscape:connector-curvature="0" />
          </symbol>
          <symbol
             id="textext-34ab26be-1"
             overflow="visible"
             style="overflow:visible">
            <path
               id="path5153"
               d="m 7.640625,-6.515625 -2.453125,0 0,0.171875 c 0.578125,0.0625 0.6875,0.140625 0.6875,0.421875 0,0.140625 -0.03125,0.375 -0.109375,0.625 l -0.453125,1.625 -2.84375,0 0.546875,-1.9375 c 0.140625,-0.515625 0.40625,-0.703125 1,-0.734375 l 0,-0.171875 -2.71875,0 0,0.171875 c 0.609375,0.046875 0.765625,0.140625 0.765625,0.421875 0,0.140625 -0.03125,0.375 -0.109375,0.625 l -1.21875,4.40625 c -0.1875,0.578125 -0.25,0.625 -0.8125,0.734375 l 0,0.15625 2.453125,0 0,-0.15625 C 1.78125,-0.234375 1.671875,-0.3125 1.671875,-0.59375 c 0,-0.078125 0,-0.15625 0.015625,-0.21875 L 2.359375,-3.25 5.1875,-3.25 4.546875,-0.890625 C 4.390625,-0.375 4.1875,-0.234375 3.53125,-0.15625 l 0,0.15625 2.734375,0 0,-0.15625 C 5.625,-0.21875 5.484375,-0.296875 5.484375,-0.578125 c 0,-0.09375 0.015625,-0.15625 0.03125,-0.234375 l 1.3125,-4.796875 C 7,-6.1875 7.078125,-6.25 7.640625,-6.34375 z m 0,0"
               style="stroke:none"
               inkscape:connector-curvature="0" />
          </symbol>
          <symbol
             id="textext-34ab26be-2"
             overflow="visible"
             style="overflow:visible">
            <path
               id="path5156"
               d="M 6.5,-4.640625 6.875,-6.625 l -0.21875,0 c -0.078125,0.171875 -0.171875,0.21875 -0.375,0.21875 -0.078125,0 -0.203125,-0.015625 -0.40625,-0.0625 -0.453125,-0.109375 -0.84375,-0.171875 -1.171875,-0.171875 -2.125,0 -4.046875,2 -4.046875,4.21875 0,1.53125 1.078125,2.59375 2.609375,2.59375 1.015625,0 1.8125,-0.4375 2.71875,-1.484375 L 5.8125,-1.453125 c -0.890625,0.890625 -1.46875,1.1875 -2.296875,1.1875 -1.109375,0 -1.734375,-0.765625 -1.734375,-2.046875 0,-1.1875 0.46875,-2.390625 1.25,-3.203125 C 3.515625,-6 4.140625,-6.28125 4.796875,-6.28125 c 0.921875,0 1.421875,0.546875 1.515625,1.609375 z m 0,0"
               style="stroke:none"
               inkscape:connector-curvature="0" />
          </symbol>
          <symbol
             id="textext-34ab26be-3"
             overflow="visible"
             style="overflow:visible">
            <path
               id="path5159"
               d="m 4.125,-1.09375 -0.140625,0.265625 c -0.1875,0.3125 -0.3125,0.421875 -0.453125,0.421875 -0.21875,0 -0.421875,-0.328125 -0.8125,-1.28125 C 2.671875,-1.828125 2.515625,-2.1875 2.359375,-2.578125 3.8125,-3.875 4.125,-4.078125 4.59375,-4.109375 l 0,-0.15625 -1.828125,0 0,0.15625 0.171875,0 c 0.25,0 0.375,0.078125 0.375,0.1875 0,0.1875 -0.484375,0.6875 -1.421875,1.390625 -0.140625,0.109375 -0.25,0.203125 -0.421875,0.328125 l 1.1875,-4.5625 L 2.609375,-6.8125 C 2.03125,-6.671875 1.640625,-6.609375 1.0625,-6.546875 l 0,0.171875 c 0.46875,-0.015625 0.65625,0.0625 0.671875,0.25 -0.015625,0.15625 -0.09375,0.4375 -0.21875,0.890625 -0.046875,0.140625 -0.0625,0.25 -0.09375,0.328125 L 1.40625,-4.8125 0.140625,0 l 0.75,0 0.46875,-1.796875 0.421875,-0.3125 c 0.15625,0.4375 0.421875,1.046875 0.59375,1.40625 0.328125,0.625 0.5,0.8125 0.796875,0.8125 0.390625,0 0.65625,-0.25 1.109375,-1.09375 z m 0,0"
               style="stroke:none"
               inkscape:connector-curvature="0" />
          </symbol>
          <symbol
             id="textext-34ab26be-4"
             overflow="visible"
             style="overflow:visible">
            <path
               id="path5162"
               d="m 9.03125,-6.515625 -1.84375,0 0,0.171875 c 0.53125,0.046875 0.640625,0.109375 0.640625,0.390625 0,0.15625 -0.078125,0.40625 -0.203125,0.671875 L 5.765625,-1.609375 5.359375,-5.625 l 0,-0.140625 c 0,-0.40625 0.140625,-0.53125 0.671875,-0.578125 l 0,-0.171875 -2.375,0 0,0.171875 c 0.578125,0.015625 0.6875,0.078125 0.75,0.578125 L 4.5,-5.078125 2.78125,-1.609375 2.34375,-5.65625 c -0.015625,-0.0625 -0.015625,-0.125 -0.015625,-0.140625 0,-0.390625 0.125,-0.484375 0.734375,-0.546875 l 0,-0.171875 -2.359375,0 0,0.171875 C 1.03125,-6.3125 1.125,-6.28125 1.21875,-6.1875 1.328125,-6.078125 1.375,-5.890625 1.5,-4.96875 l 0.609375,5.140625 0.1875,0 2.21875,-4.515625 0.046875,0 0.5,4.515625 0.203125,0 L 8.28125,-5.625 c 0.265625,-0.515625 0.375,-0.609375 0.75,-0.71875 z m 0,0"
               style="stroke:none"
               inkscape:connector-curvature="0" />
          </symbol>
          <symbol
             id="textext-34ab26be-5"
             overflow="visible"
             style="overflow:visible">
            <path
               id="path5165"
               d=""
               style="stroke:none"
               inkscape:connector-curvature="0" />
          </symbol>
          <symbol
             id="textext-34ab26be-6"
             overflow="visible"
             style="overflow:visible">
            <path
               id="path5168"
               d="m 2.03125,-4.703125 -1.25,0.625 0,0.09375 c 0.078125,-0.03125 0.15625,-0.0625 0.1875,-0.078125 0.125,-0.046875 0.234375,-0.0625 0.3125,-0.0625 0.140625,0 0.203125,0.09375 0.203125,0.3125 l 0,3.171875 c 0,0.21875 -0.0625,0.375 -0.171875,0.453125 -0.09375,0.0625 -0.203125,0.078125 -0.484375,0.078125 L 0.828125,0 2.75,0 l 0,-0.109375 c -0.5625,0 -0.671875,-0.078125 -0.671875,-0.40625 l 0,-4.1875 z m 0,0"
               style="stroke:none"
               inkscape:connector-curvature="0" />
          </symbol>
          <symbol
             id="textext-34ab26be-7"
             overflow="visible"
             style="overflow:visible">
            <path
               id="path5171"
               d="m 2.78125,-1.09375 c -0.34375,0.5 -0.59375,0.65625 -0.984375,0.65625 -0.640625,0 -1.09375,-0.546875 -1.09375,-1.359375 C 0.703125,-2.515625 1.09375,-3 1.65625,-3 1.90625,-3 2,-2.921875 2.0625,-2.671875 l 0.046875,0.15625 c 0.0625,0.1875 0.1875,0.328125 0.328125,0.328125 0.1875,0 0.34375,-0.140625 0.34375,-0.296875 0,-0.390625 -0.5,-0.71875 -1.078125,-0.71875 C 1.359375,-3.203125 1,-3.0625 0.71875,-2.8125 0.375,-2.515625 0.171875,-2.03125 0.171875,-1.484375 0.171875,-0.578125 0.71875,0.0625 1.5,0.0625 c 0.3125,0 0.59375,-0.109375 0.84375,-0.328125 0.1875,-0.15625 0.3125,-0.34375 0.53125,-0.765625 z m 0,0"
               style="stroke:none"
               inkscape:connector-curvature="0" />
          </symbol>
          <symbol
             id="textext-34ab26be-8"
             overflow="visible"
             style="overflow:visible">
            <path
               id="path5174"
               d="m 0.046875,-2.71875 c 0.09375,-0.015625 0.15625,-0.03125 0.25,-0.03125 0.171875,0 0.234375,0.109375 0.234375,0.421875 l 0,1.75 c 0,0.34375 -0.046875,0.390625 -0.5,0.46875 l 0,0.109375 1.671875,0 0,-0.109375 C 1.234375,-0.125 1.109375,-0.234375 1.109375,-0.625 l 0,-1.5625 c 0,-0.234375 0.3125,-0.578125 0.5,-0.578125 0.03125,0 0.09375,0.03125 0.171875,0.109375 0.109375,0.09375 0.1875,0.140625 0.28125,0.140625 0.171875,0 0.265625,-0.125 0.265625,-0.328125 0,-0.21875 -0.140625,-0.359375 -0.375,-0.359375 -0.296875,0 -0.5,0.15625 -0.84375,0.65625 l 0,-0.640625 -0.03125,-0.015625 c -0.375,0.15625 -0.625,0.234375 -1.03125,0.375 z m 0,0"
               style="stroke:none"
               inkscape:connector-curvature="0" />
          </symbol>
          <symbol
             id="textext-34ab26be-9"
             overflow="visible"
             style="overflow:visible">
            <path
               id="path5177"
               d="m 1.21875,-3.203125 -1.078125,0.375 0,0.109375 0.046875,0 C 0.28125,-2.734375 0.375,-2.75 0.4375,-2.75 c 0.15625,0 0.21875,0.109375 0.21875,0.421875 l 0,1.625 c 0,0.5 -0.0625,0.578125 -0.546875,0.59375 l 0,0.109375 1.65625,0 0,-0.109375 C 1.296875,-0.140625 1.25,-0.203125 1.25,-0.703125 l 0,-2.484375 z m -0.328125,-1.5625 c -0.1875,0 -0.34375,0.171875 -0.34375,0.359375 0,0.203125 0.15625,0.359375 0.34375,0.359375 0.203125,0 0.359375,-0.15625 0.359375,-0.359375 0,-0.1875 -0.15625,-0.359375 -0.359375,-0.359375 z m 0,0"
               style="stroke:none"
               inkscape:connector-curvature="0" />
          </symbol>
          <symbol
             id="textext-34ab26be-10"
             overflow="visible"
             style="overflow:visible">
            <path
               id="path5180"
               d="m 2.1875,-2.1875 -0.015625,-0.953125 -0.078125,0 L 2.078125,-3.125 C 2.015625,-3.078125 2,-3.0625 1.984375,-3.0625 c -0.046875,0 -0.109375,-0.015625 -0.1875,-0.046875 -0.15625,-0.0625 -0.3125,-0.09375 -0.5,-0.09375 -0.546875,0 -0.9375,0.359375 -0.9375,0.859375 0,0.390625 0.21875,0.671875 0.8125,1 l 0.40625,0.234375 c 0.234375,0.140625 0.359375,0.3125 0.359375,0.53125 0,0.296875 -0.21875,0.5 -0.578125,0.5 -0.234375,0 -0.453125,-0.09375 -0.578125,-0.25 C 0.625,-0.5 0.5625,-0.65625 0.46875,-1.0625 l -0.109375,0 0,1.09375 0.09375,0 C 0.5,-0.046875 0.53125,-0.0625 0.609375,-0.0625 c 0.0625,0 0.171875,0.015625 0.328125,0.0625 0.1875,0.046875 0.375,0.0625 0.5,0.0625 0.546875,0 0.984375,-0.390625 0.984375,-0.890625 0,-0.34375 -0.15625,-0.578125 -0.578125,-0.828125 l -0.75,-0.4375 c -0.203125,-0.109375 -0.3125,-0.296875 -0.3125,-0.484375 0,-0.265625 0.21875,-0.46875 0.546875,-0.46875 0.390625,0 0.609375,0.234375 0.765625,0.859375 z m 0,0"
               style="stroke:none"
               inkscape:connector-curvature="0" />
          </symbol>
          <symbol
             id="textext-34ab26be-11"
             overflow="visible"
             style="overflow:visible">
            <path
               id="path5183"
               d=""
               style="stroke:none"
               inkscape:connector-curvature="0" />
          </symbol>
          <symbol
             id="textext-34ab26be-12"
             overflow="visible"
             style="overflow:visible">
            <path
               id="path5186"
               d="M 2.9375,-6.734375 C 2.203125,-6.265625 1.90625,-6 1.53125,-5.546875 c -0.703125,0.875 -1.046875,1.875 -1.046875,3.03125 0,1.265625 0.359375,2.25 1.234375,3.265625 0.421875,0.46875 0.671875,0.703125 1.1875,1.015625 l 0.125,-0.15625 C 2.234375,0.984375 1.953125,0.625 1.6875,-0.125 1.453125,-0.78125 1.328125,-1.546875 1.328125,-2.546875 1.328125,-3.59375 1.46875,-4.40625 1.734375,-5.03125 2.015625,-5.640625 2.3125,-6 3.03125,-6.578125 z m 0,0"
               style="stroke:none"
               inkscape:connector-curvature="0" />
          </symbol>
          <symbol
             id="textext-34ab26be-13"
             overflow="visible"
             style="overflow:visible">
            <path
               id="path5189"
               d="M 0.375,1.765625 C 1.109375,1.28125 1.421875,1.03125 1.78125,0.5625 2.5,-0.296875 2.84375,-1.296875 2.84375,-2.46875 c 0,-1.265625 -0.375,-2.234375 -1.25,-3.25 C 1.1875,-6.203125 0.921875,-6.421875 0.40625,-6.734375 l -0.109375,0.15625 c 0.796875,0.625 1.0625,0.96875 1.34375,1.71875 0.234375,0.671875 0.34375,1.4375 0.34375,2.421875 0,1.046875 -0.125,1.875 -0.40625,2.484375 C 1.3125,0.671875 1,1.03125 0.296875,1.609375 z m 0,0"
               style="stroke:none"
               inkscape:connector-curvature="0" />
          </symbol>
          <symbol
             id="textext-34ab26be-14"
             overflow="visible"
             style="overflow:visible">
            <path
               id="path5192"
               d="m 1.03125,-1.09375 c 0,0.71875 -0.109375,0.859375 -0.875,0.90625 l 0,0.1875 2.828125,0 C 4.140625,0 5.1875,-0.328125 5.8125,-0.890625 6.453125,-1.46875 6.828125,-2.359375 6.828125,-3.328125 6.828125,-4.234375 6.53125,-5 5.984375,-5.546875 5.296875,-6.234375 4.21875,-6.59375 2.84375,-6.59375 l -2.6875,0 0,0.1875 c 0.796875,0.0625 0.875,0.15625 0.875,0.890625 z m 1.015625,-4.75 c 0,-0.3125 0.109375,-0.390625 0.53125,-0.390625 0.84375,0 1.5,0.15625 1.984375,0.5 0.765625,0.546875 1.171875,1.390625 1.171875,2.46875 0,1.1875 -0.40625,2.015625 -1.203125,2.484375 C 4.015625,-0.484375 3.4375,-0.375 2.578125,-0.375 c -0.40625,0 -0.53125,-0.078125 -0.53125,-0.40625 z m 0,0"
               style="stroke:none"
               inkscape:connector-curvature="0" />
          </symbol>
          <symbol
             id="textext-34ab26be-15"
             overflow="visible"
             style="overflow:visible">
            <path
               id="path5195"
               d="M 6.5625,-0.1875 C 6.1875,-0.21875 5.984375,-0.3125 5.703125,-0.65625 L 3.65625,-3.1875 c 0.65625,-0.125 0.953125,-0.234375 1.28125,-0.515625 0.328125,-0.25 0.515625,-0.671875 0.515625,-1.140625 0,-0.4375 -0.125,-0.796875 -0.390625,-1.09375 -0.375,-0.40625 -1.203125,-0.65625 -2.140625,-0.65625 l -2.75,0 0,0.1875 c 0.75,0.078125 0.84375,0.1875 0.84375,0.890625 l 0,4.3125 c 0,0.828125 -0.09375,0.953125 -0.84375,1.015625 l 0,0.1875 2.765625,0 0,-0.1875 C 2.15625,-0.234375 2.03125,-0.375 2.03125,-1.09375 l 0,-1.953125 0.5625,-0.03125 L 4.96875,0 6.5625,0 z M 2.03125,-5.875 c 0,-0.28125 0.109375,-0.359375 0.515625,-0.359375 1.234375,0 1.8125,0.4375 1.8125,1.375 0,0.5 -0.203125,0.90625 -0.5625,1.09375 C 3.34375,-3.5 2.984375,-3.4375 2.03125,-3.421875 z m 0,0"
               style="stroke:none"
               inkscape:connector-curvature="0" />
          </symbol>
          <symbol
             id="textext-34ab26be-16"
             overflow="visible"
             style="overflow:visible">
            <path
               id="path5198"
               d="M 0.828125,1.40625 C 1.5,1.078125 1.9375,0.46875 1.9375,-0.125 c 0,-0.5 -0.34375,-0.890625 -0.796875,-0.890625 -0.34375,0 -0.578125,0.234375 -0.578125,0.5625 0,0.328125 0.21875,0.515625 0.578125,0.515625 0.0625,0 0.140625,-0.015625 0.1875,-0.015625 0.078125,-0.03125 0.078125,-0.03125 0.09375,-0.03125 0.078125,0 0.140625,0.0625 0.140625,0.140625 0,0.328125 -0.28125,0.6875 -0.828125,1.0625 z m 0,0"
               style="stroke:none"
               inkscape:connector-curvature="0" />
          </symbol>
          <symbol
             id="textext-34ab26be-17"
             overflow="visible"
             style="overflow:visible">
            <path
               id="path5201"
               d=""
               style="stroke:none"
               inkscape:connector-curvature="0" />
          </symbol>
          <symbol
             id="textext-34ab26be-18"
             overflow="visible"
             style="overflow:visible">
            <path
               id="path5204"
               d="m 6.171875,-2.5625 c 0,-1.65625 -1.34375,-3 -3,-3 -1.65625,0 -3,1.34375 -3,3 0,1.65625 1.34375,3 3,3 1.65625,0 3,-1.34375 3,-3 z M 4.8125,-4.515625 3.171875,-2.875 1.53125,-4.515625 c 0.4375,-0.375 1.015625,-0.59375 1.640625,-0.59375 0.609375,0 1.1875,0.21875 1.640625,0.59375 z M 5.71875,-2.5625 c 0,0.625 -0.21875,1.203125 -0.59375,1.640625 L 3.484375,-2.5625 5.125,-4.203125 C 5.5,-3.765625 5.71875,-3.1875 5.71875,-2.5625 z m -2.875,0 -1.625,1.640625 C 0.84375,-1.359375 0.625,-1.9375 0.625,-2.5625 c 0,-0.625 0.21875,-1.203125 0.59375,-1.640625 z m 1.96875,1.953125 c -0.453125,0.375 -1.03125,0.59375 -1.640625,0.59375 -0.625,0 -1.203125,-0.21875 -1.640625,-0.59375 L 3.171875,-2.25 z m 0,0"
               style="stroke:none"
               inkscape:connector-curvature="0" />
          </symbol>
          <symbol
             id="textext-34ab26be-19"
             overflow="visible"
             style="overflow:visible">
            <path
               id="path5207"
               d="m 5.71875,-2.28125 0,-0.5625 -5.09375,0 0,0.5625 z m 0,0"
               style="stroke:none"
               inkscape:connector-curvature="0" />
          </symbol>
          <symbol
             id="textext-34ab26be-20"
             overflow="visible"
             style="overflow:visible">
            <path
               id="path5210"
               d="m 8.984375,-2.578125 -1.953125,-2.03125 -0.296875,0.328125 1.1875,1.4375 -7.296875,0 0,0.5625 7.296875,0 -1.1875,1.4375 0.296875,0.328125 z m 0,0"
               style="stroke:none"
               inkscape:connector-curvature="0" />
          </symbol>
          <symbol
             id="textext-34ab26be-21"
             overflow="visible"
             style="overflow:visible">
            <path
               id="path5213"
               d=""
               style="stroke:none"
               inkscape:connector-curvature="0" />
          </symbol>
          <symbol
             id="textext-34ab26be-22"
             overflow="visible"
             style="overflow:visible">
            <path
               id="path5216"
               d="m 3.78125,-6.765625 -0.515625,0 -2.640625,8.375 0.515625,0 z m 0,0"
               style="stroke:none"
               inkscape:connector-curvature="0" />
          </symbol>
          <symbol
             id="textext-34ab26be-23"
             overflow="visible"
             style="overflow:visible">
            <path
               id="path5219"
               d=""
               style="stroke:none"
               inkscape:connector-curvature="0" />
          </symbol>
          <symbol
             id="textext-34ab26be-24"
             overflow="visible"
             style="overflow:visible">
            <path
               id="path5222"
               d="M 3.515625,-3.765625 C 3.515625,-4.3125 3.078125,-4.5625 2.5,-4.5625 c -0.75,0 -1.46875,0.5 -1.65625,1.203125 l -1.0625,3.875 c -0.125,0.453125 -0.390625,0.84375 -0.453125,0.921875 l 0.609375,0 c 0.015625,0 0.125,-0.046875 0.359375,-0.921875 l 0.234375,-0.90625 c 0,0.015625 0.234375,0.515625 0.9375,0.515625 1.046875,0 1.75,-0.78125 1.75,-1.59375 0,-0.859375 -0.78125,-1 -0.796875,-1 l 0,-0.03125 c 0.015625,0 1.09375,-0.25 1.09375,-1.265625 z M 2.96875,-3.78125 c 0,0.328125 -0.1875,1.109375 -0.734375,1.109375 -0.15625,0 -0.265625,-0.03125 -0.375,-0.03125 -0.1875,0 -0.3125,0.171875 -0.3125,0.296875 0,0.078125 0.046875,0.140625 0.171875,0.140625 0.203125,0 0.25,-0.046875 0.40625,-0.046875 0.34375,0 0.5,0.375 0.5,0.765625 0,0.703125 -0.421875,1.34375 -1.15625,1.34375 -0.484375,0 -0.78125,-0.25 -0.78125,-0.640625 0,-0.09375 0.015625,-0.1875 0.03125,-0.28125 l 0.640625,-2.234375 c 0.125,-0.453125 0.4375,-1.015625 1.0625,-1.015625 0.40625,0 0.546875,0.28125 0.546875,0.59375 z m 0,0"
               style="stroke:none"
               inkscape:connector-curvature="0" />
          </symbol>
          <symbol
             id="textext-34ab26be-25"
             overflow="visible"
             style="overflow:visible">
            <path
               id="path5225"
               d=""
               style="stroke:none"
               inkscape:connector-curvature="0" />
          </symbol>
          <symbol
             id="textext-34ab26be-26"
             overflow="visible"
             style="overflow:visible">
            <path
               id="path5228"
               d="m 6.984375,-5.9375 0,-0.4375 -3.5,-1.046875 L 0,-6.375 l 0,0.4375 3.484375,-0.875 z m 0,0"
               style="stroke:none"
               inkscape:connector-curvature="0" />
          </symbol>
          <symbol
             id="textext-34ab26be-27"
             overflow="visible"
             style="overflow:visible">
            <path
               id="path5231"
               d=""
               style="stroke:none"
               inkscape:connector-curvature="0" />
          </symbol>
          <symbol
             id="textext-34ab26be-28"
             overflow="visible"
             style="overflow:visible">
            <path
               id="path5234"
               d="M 2.796875,-0.78125 C 2.75,-0.703125 2.703125,-0.671875 2.640625,-0.578125 2.484375,-0.375 2.40625,-0.3125 2.328125,-0.3125 2.21875,-0.3125 2.15625,-0.390625 2.109375,-0.59375 2.09375,-0.640625 2.09375,-0.6875 2.078125,-0.703125 c -0.171875,-0.71875 -0.25,-1.03125 -0.25,-1.140625 0.3125,-0.53125 0.5625,-0.84375 0.6875,-0.84375 0.046875,0 0.09375,0.03125 0.171875,0.0625 0.078125,0.046875 0.125,0.0625 0.1875,0.0625 0.140625,0 0.234375,-0.109375 0.234375,-0.25 0,-0.15625 -0.109375,-0.265625 -0.28125,-0.265625 -0.3125,0 -0.5625,0.25 -1.046875,1 l -0.078125,-0.375 c -0.09375,-0.484375 -0.171875,-0.625 -0.359375,-0.625 -0.15625,0 -0.390625,0.0625 -0.828125,0.203125 l -0.0625,0.03125 0.015625,0.109375 c 0.265625,-0.0625 0.328125,-0.078125 0.390625,-0.078125 0.171875,0 0.21875,0.0625 0.3125,0.484375 L 1.375,-1.484375 0.8125,-0.65625 c -0.140625,0.203125 -0.28125,0.328125 -0.359375,0.328125 -0.046875,0 -0.109375,-0.015625 -0.1875,-0.0625 -0.078125,-0.046875 -0.15625,-0.0625 -0.21875,-0.0625 -0.125,0 -0.234375,0.09375 -0.234375,0.234375 0,0.1875 0.140625,0.296875 0.34375,0.296875 0.21875,0 0.296875,-0.0625 0.65625,-0.484375 C 1,-0.640625 1.140625,-0.828125 1.4375,-1.21875 l 0.203125,0.828125 c 0.09375,0.359375 0.1875,0.46875 0.40625,0.46875 C 2.3125,0.078125 2.5,-0.09375 2.90625,-0.71875 z m 0,0"
               style="stroke:none"
               inkscape:connector-curvature="0" />
          </symbol>
        </g>
      </defs>
      <g
         id="textext-34ab26be-29">
        <g
           id="g5237"
           style="fill:#000000;fill-opacity:1">
          <use
             id="use5239"
             y="137.591"
             x="223.681"
             xlink:href="#textext-34ab26be-1"
             width="389.76376"
             height="212.59842" />
        </g>
        <g
           id="g5241"
           style="fill:#000000;fill-opacity:1">
          <use
             id="use5243"
             y="133.974"
             x="231.323"
             xlink:href="#textext-34ab26be-6"
             width="389.76376"
             height="212.59842" />
        </g>
        <g
           id="g5245"
           style="fill:#000000;fill-opacity:1">
          <use
             id="use5247"
             y="140.966"
             x="230.87399"
             xlink:href="#textext-34ab26be-7"
             width="389.76376"
             height="212.59842" />
          <use
             id="use5249"
             y="140.966"
             x="233.97037"
             xlink:href="#textext-34ab26be-8"
             width="389.76376"
             height="212.59842" />
          <use
             id="use5251"
             y="140.966"
             x="236.29265"
             xlink:href="#textext-34ab26be-9"
             width="389.76376"
             height="212.59842" />
          <use
             id="use5253"
             y="140.966"
             x="238.23135"
             xlink:href="#textext-34ab26be-10"
             width="389.76376"
             height="212.59842" />
        </g>
        <g
           id="g5255"
           style="fill:#000000;fill-opacity:1">
          <use
             id="use5257"
             y="137.591"
             x="241.44299"
             xlink:href="#textext-34ab26be-12"
             width="389.76376"
             height="212.59842" />
        </g>
        <g
           id="g5259"
           style="fill:#000000;fill-opacity:1">
          <use
             id="use5261"
             y="137.591"
             x="244.511"
             xlink:href="#textext-34ab26be-2"
             width="389.76376"
             height="212.59842" />
        </g>
        <g
           id="g5263"
           style="fill:#000000;fill-opacity:1">
          <use
             id="use5265"
             y="137.591"
             x="253.838"
             xlink:href="#textext-34ab26be-18"
             width="389.76376"
             height="212.59842" />
        </g>
        <g
           id="g5267"
           style="fill:#000000;fill-opacity:1">
          <use
             id="use5269"
             y="137.591"
             x="262.388"
             xlink:href="#textext-34ab26be-3"
             width="389.76376"
             height="212.59842" />
        </g>
        <g
           id="g5271"
           style="fill:#000000;fill-opacity:1">
          <use
             id="use5273"
             y="137.591"
             x="266.98099"
             xlink:href="#textext-34ab26be-22"
             width="389.76376"
             height="212.59842" />
        </g>
        <g
           id="g5275"
           style="fill:#000000;fill-opacity:1">
          <use
             id="use5277"
             y="137.591"
             x="271.375"
             xlink:href="#textext-34ab26be-4"
             width="389.76376"
             height="212.59842" />
        </g>
        <g
           id="g5279"
           style="fill:#000000;fill-opacity:1">
          <use
             id="use5281"
             y="137.591"
             x="280.401"
             xlink:href="#textext-34ab26be-12"
             width="389.76376"
             height="212.59842" />
        </g>
        <g
           id="g5283"
           style="fill:#000000;fill-opacity:1">
          <use
             id="use5285"
             y="137.591"
             x="283.71799"
             xlink:href="#textext-34ab26be-3"
             width="389.76376"
             height="212.59842" />
        </g>
        <g
           id="g5287"
           style="fill:#000000;fill-opacity:1">
          <use
             id="use5289"
             y="137.591"
             x="288.311"
             xlink:href="#textext-34ab26be-13"
             width="389.76376"
             height="212.59842" />
          <use
             id="use5291"
             y="137.591"
             x="291.62854"
             xlink:href="#textext-34ab26be-13"
             width="389.76376"
             height="212.59842" />
        </g>
        <g
           id="g5293"
           style="fill:#000000;fill-opacity:1">
          <use
             id="use5295"
             y="130.356"
             x="299.84399"
             xlink:href="#textext-34ab26be-24"
             width="389.76376"
             height="212.59842" />
        </g>
        <g
           id="g5297"
           style="fill:#000000;fill-opacity:1">
          <use
             id="use5299"
             y="137.591"
             x="297.71399"
             xlink:href="#textext-34ab26be-19"
             width="389.76376"
             height="212.59842" />
        </g>
        <g
           id="g5301"
           style="fill:#000000;fill-opacity:1">
          <use
             id="use5303"
             y="137.591"
             x="297.07639"
             xlink:href="#textext-34ab26be-20"
             width="389.76376"
             height="212.59842" />
        </g>
        <g
           id="g5305"
           style="fill:#000000;fill-opacity:1">
          <use
             id="use5307"
             y="137.591"
             x="309.69699"
             xlink:href="#textext-34ab26be-1"
             width="389.76376"
             height="212.59842" />
        </g>
        <g
           id="g5309"
           style="fill:#000000;fill-opacity:1">
          <use
             id="use5311"
             y="133.974"
             x="317.33801"
             xlink:href="#textext-34ab26be-6"
             width="389.76376"
             height="212.59842" />
        </g>
        <g
           id="g5313"
           style="fill:#000000;fill-opacity:1">
          <use
             id="use5315"
             y="137.591"
             x="321.323"
             xlink:href="#textext-34ab26be-14"
             width="389.76376"
             height="212.59842" />
          <use
             id="use5317"
             y="137.591"
             x="328.51599"
             xlink:href="#textext-34ab26be-15"
             width="389.76376"
             height="212.59842" />
          <use
             id="use5319"
             y="137.591"
             x="335.16104"
             xlink:href="#textext-34ab26be-12"
             width="389.76376"
             height="212.59842" />
        </g>
        <g
           id="g5321"
           style="fill:#000000;fill-opacity:1">
          <use
             id="use5323"
             y="135.474"
             x="339.53"
             xlink:href="#textext-34ab26be-26"
             width="389.76376"
             height="212.59842" />
        </g>
        <g
           id="g5325"
           style="fill:#000000;fill-opacity:1">
          <use
             id="use5327"
             y="137.591"
             x="338.23001"
             xlink:href="#textext-34ab26be-2"
             width="389.76376"
             height="212.59842" />
        </g>
        <g
           id="g5329"
           style="fill:#000000;fill-opacity:1">
          <use
             id="use5331"
             y="139.08501"
             x="345.47299"
             xlink:href="#textext-34ab26be-28"
             width="389.76376"
             height="212.59842" />
        </g>
        <g
           id="g5333"
           style="fill:#000000;fill-opacity:1">
          <use
             id="use5335"
             y="137.591"
             x="349.08801"
             xlink:href="#textext-34ab26be-22"
             width="389.76376"
             height="212.59842" />
        </g>
        <g
           id="g5337"
           style="fill:#000000;fill-opacity:1">
          <use
             id="use5339"
             y="137.591"
             x="353.48099"
             xlink:href="#textext-34ab26be-4"
             width="389.76376"
             height="212.59842" />
        </g>
        <g
           id="g5341"
           style="fill:#000000;fill-opacity:1">
          <use
             id="use5343"
             y="137.591"
             x="362.508"
             xlink:href="#textext-34ab26be-12"
             width="389.76376"
             height="212.59842" />
        </g>
        <g
           id="g5345"
           style="fill:#000000;fill-opacity:1">
          <use
             id="use5347"
             y="137.591"
             x="365.82501"
             xlink:href="#textext-34ab26be-3"
             width="389.76376"
             height="212.59842" />
        </g>
        <g
           id="g5349"
           style="fill:#000000;fill-opacity:1">
          <use
             id="use5351"
             y="137.591"
             x="370.418"
             xlink:href="#textext-34ab26be-13"
             width="389.76376"
             height="212.59842" />
          <use
             id="use5353"
             y="137.591"
             x="373.73553"
             xlink:href="#textext-34ab26be-13"
             width="389.76376"
             height="212.59842" />
          <use
             id="use5355"
             y="137.591"
             x="377.0531"
             xlink:href="#textext-34ab26be-16"
             width="389.76376"
             height="212.59842" />
        </g>
      </g>
    </g>
  </g>
</svg>
