<?xml version="1.0" encoding="UTF-8" standalone="no"?>
<!-- Created with Inkscape (http://www.inkscape.org/) -->

<svg
   xmlns:ns0="http://www.iki.fi/pav/software/textext/"
   xmlns:dc="http://purl.org/dc/elements/1.1/"
   xmlns:cc="http://creativecommons.org/ns#"
   xmlns:rdf="http://www.w3.org/1999/02/22-rdf-syntax-ns#"
   xmlns:svg="http://www.w3.org/2000/svg"
   xmlns="http://www.w3.org/2000/svg"
   xmlns:xlink="http://www.w3.org/1999/xlink"
   xmlns:sodipodi="http://sodipodi.sourceforge.net/DTD/sodipodi-0.dtd"
   xmlns:inkscape="http://www.inkscape.org/namespaces/inkscape"
   width="744.09448819"
   height="1052.3622047"
   id="svg2"
   version="1.1"
   inkscape:version="0.48.4 r9939"
   sodipodi:docname="New document 1">
  <sodipodi:namedview
     id="base"
     pagecolor="#ffffff"
     bordercolor="#666666"
     borderopacity="1.0"
     inkscape:pageopacity="0.0"
     inkscape:pageshadow="2"
     inkscape:zoom="1.979899"
     inkscape:cx="377.03072"
     inkscape:cy="773.19123"
     inkscape:document-units="px"
     inkscape:current-layer="layer1"
     showgrid="false"
     inkscape:window-width="1024"
     inkscape:window-height="744"
     inkscape:window-x="0"
     inkscape:window-y="24"
     inkscape:window-maximized="1" />
  <defs
     id="defs4">
    <marker
       inkscape:stockid="Arrow1Mend"
       orient="auto"
       refY="0.0"
       refX="0.0"
       id="Arrow1Mend"
       style="overflow:visible;">
      <path
         id="path4244"
         d="M 0.0,0.0 L 5.0,-5.0 L -12.5,0.0 L 5.0,5.0 L 0.0,0.0 z "
         style="fill-rule:evenodd;stroke:#000000;stroke-width:1.0pt;"
         transform="scale(0.4) rotate(180) translate(10,0)" />
    </marker>
  </defs>
  <metadata
     id="metadata7">
    <rdf:RDF>
      <cc:Work
         rdf:about="">
        <dc:format>image/svg+xml</dc:format>
        <dc:type
           rdf:resource="http://purl.org/dc/dcmitype/StillImage" />
        <dc:title></dc:title>
      </cc:Work>
    </rdf:RDF>
  </metadata>
  <g
     id="layer1"
     inkscape:groupmode="layer"
     inkscape:label="Layer 1">
    <g
       id="g2990"
       ns0:preamble="/home/sriranga/Desktop/TIFR/Studies-in-Mathematics/SM_05/chap2/package.tex"
       ns0:text="$H^{1}_{\\text{cris}}(C\\otimes k/W(k))\\xrightarrow{\\sim}H^{1}_{\\text{DR}}(C/W(k))\\xrightarrow{\\text{restr.}}H^{1}_{\\text{DR}}(\\widehat{C}_{x}/W(k))$."
       transform="matrix(1.2,0,0,1.2,-42.857143,75.714286)">
      <defs
         id="defs2992">
        <g
           id="g2994">
          <symbol
             id="textext-33832c1e-0"
             overflow="visible"
             style="overflow:visible">
            <path
               id="path2997"
               d=""
               style="stroke:none"
               inkscape:connector-curvature="0" />
          </symbol>
          <symbol
             id="textext-33832c1e-1"
             overflow="visible"
             style="overflow:visible">
            <path
               id="path3000"
               d="m 7.640625,-6.515625 -2.453125,0 0,0.171875 c 0.578125,0.0625 0.6875,0.140625 0.6875,0.421875 0,0.140625 -0.03125,0.375 -0.109375,0.625 l -0.453125,1.625 -2.84375,0 0.546875,-1.9375 c 0.140625,-0.515625 0.40625,-0.703125 1,-0.734375 l 0,-0.171875 -2.71875,0 0,0.171875 c 0.609375,0.046875 0.765625,0.140625 0.765625,0.421875 0,0.140625 -0.03125,0.375 -0.109375,0.625 l -1.21875,4.40625 c -0.1875,0.578125 -0.25,0.625 -0.8125,0.734375 l 0,0.15625 2.453125,0 0,-0.15625 C 1.78125,-0.234375 1.671875,-0.3125 1.671875,-0.59375 c 0,-0.078125 0,-0.15625 0.015625,-0.21875 L 2.359375,-3.25 5.1875,-3.25 4.546875,-0.890625 C 4.390625,-0.375 4.1875,-0.234375 3.53125,-0.15625 l 0,0.15625 2.734375,0 0,-0.15625 C 5.625,-0.21875 5.484375,-0.296875 5.484375,-0.578125 c 0,-0.09375 0.015625,-0.15625 0.03125,-0.234375 l 1.3125,-4.796875 C 7,-6.1875 7.078125,-6.25 7.640625,-6.34375 z m 0,0"
               style="stroke:none"
               inkscape:connector-curvature="0" />
          </symbol>
          <symbol
             id="textext-33832c1e-2"
             overflow="visible"
             style="overflow:visible">
            <path
               id="path3003"
               d="M 6.5,-4.640625 6.875,-6.625 l -0.21875,0 c -0.078125,0.171875 -0.171875,0.21875 -0.375,0.21875 -0.078125,0 -0.203125,-0.015625 -0.40625,-0.0625 -0.453125,-0.109375 -0.84375,-0.171875 -1.171875,-0.171875 -2.125,0 -4.046875,2 -4.046875,4.21875 0,1.53125 1.078125,2.59375 2.609375,2.59375 1.015625,0 1.8125,-0.4375 2.71875,-1.484375 L 5.8125,-1.453125 c -0.890625,0.890625 -1.46875,1.1875 -2.296875,1.1875 -1.109375,0 -1.734375,-0.765625 -1.734375,-2.046875 0,-1.1875 0.46875,-2.390625 1.25,-3.203125 C 3.515625,-6 4.140625,-6.28125 4.796875,-6.28125 c 0.921875,0 1.421875,0.546875 1.515625,1.609375 z m 0,0"
               style="stroke:none"
               inkscape:connector-curvature="0" />
          </symbol>
          <symbol
             id="textext-33832c1e-3"
             overflow="visible"
             style="overflow:visible">
            <path
               id="path3006"
               d="m 4.125,-1.09375 -0.140625,0.265625 c -0.1875,0.3125 -0.3125,0.421875 -0.453125,0.421875 -0.21875,0 -0.421875,-0.328125 -0.8125,-1.28125 C 2.671875,-1.828125 2.515625,-2.1875 2.359375,-2.578125 3.8125,-3.875 4.125,-4.078125 4.59375,-4.109375 l 0,-0.15625 -1.828125,0 0,0.15625 0.171875,0 c 0.25,0 0.375,0.078125 0.375,0.1875 0,0.1875 -0.484375,0.6875 -1.421875,1.390625 -0.140625,0.109375 -0.25,0.203125 -0.421875,0.328125 l 1.1875,-4.5625 L 2.609375,-6.8125 C 2.03125,-6.671875 1.640625,-6.609375 1.0625,-6.546875 l 0,0.171875 c 0.46875,-0.015625 0.65625,0.0625 0.671875,0.25 -0.015625,0.15625 -0.09375,0.4375 -0.21875,0.890625 -0.046875,0.140625 -0.0625,0.25 -0.09375,0.328125 L 1.40625,-4.8125 0.140625,0 l 0.75,0 0.46875,-1.796875 0.421875,-0.3125 c 0.15625,0.4375 0.421875,1.046875 0.59375,1.40625 0.328125,0.625 0.5,0.8125 0.796875,0.8125 0.390625,0 0.65625,-0.25 1.109375,-1.09375 z m 0,0"
               style="stroke:none"
               inkscape:connector-curvature="0" />
          </symbol>
          <symbol
             id="textext-33832c1e-4"
             overflow="visible"
             style="overflow:visible">
            <path
               id="path3009"
               d="m 9.03125,-6.515625 -1.84375,0 0,0.171875 c 0.53125,0.046875 0.640625,0.109375 0.640625,0.390625 0,0.15625 -0.078125,0.40625 -0.203125,0.671875 L 5.765625,-1.609375 5.359375,-5.625 l 0,-0.140625 c 0,-0.40625 0.140625,-0.53125 0.671875,-0.578125 l 0,-0.171875 -2.375,0 0,0.171875 c 0.578125,0.015625 0.6875,0.078125 0.75,0.578125 L 4.5,-5.078125 2.78125,-1.609375 2.34375,-5.65625 c -0.015625,-0.0625 -0.015625,-0.125 -0.015625,-0.140625 0,-0.390625 0.125,-0.484375 0.734375,-0.546875 l 0,-0.171875 -2.359375,0 0,0.171875 C 1.03125,-6.3125 1.125,-6.28125 1.21875,-6.1875 1.328125,-6.078125 1.375,-5.890625 1.5,-4.96875 l 0.609375,5.140625 0.1875,0 2.21875,-4.515625 0.046875,0 0.5,4.515625 0.203125,0 L 8.28125,-5.625 c 0.265625,-0.515625 0.375,-0.609375 0.75,-0.71875 z m 0,0"
               style="stroke:none"
               inkscape:connector-curvature="0" />
          </symbol>
          <symbol
             id="textext-33832c1e-5"
             overflow="visible"
             style="overflow:visible">
            <path
               id="path3012"
               d=""
               style="stroke:none"
               inkscape:connector-curvature="0" />
          </symbol>
          <symbol
             id="textext-33832c1e-6"
             overflow="visible"
             style="overflow:visible">
            <path
               id="path3015"
               d="m 2.03125,-4.703125 -1.25,0.625 0,0.09375 c 0.078125,-0.03125 0.15625,-0.0625 0.1875,-0.078125 0.125,-0.046875 0.234375,-0.0625 0.3125,-0.0625 0.140625,0 0.203125,0.09375 0.203125,0.3125 l 0,3.171875 c 0,0.21875 -0.0625,0.375 -0.171875,0.453125 -0.09375,0.0625 -0.203125,0.078125 -0.484375,0.078125 L 0.828125,0 2.75,0 l 0,-0.109375 c -0.5625,0 -0.671875,-0.078125 -0.671875,-0.40625 l 0,-4.1875 z m 0,0"
               style="stroke:none"
               inkscape:connector-curvature="0" />
          </symbol>
          <symbol
             id="textext-33832c1e-7"
             overflow="visible"
             style="overflow:visible">
            <path
               id="path3018"
               d="m 2.78125,-1.09375 c -0.34375,0.5 -0.59375,0.65625 -0.984375,0.65625 -0.640625,0 -1.09375,-0.546875 -1.09375,-1.359375 C 0.703125,-2.515625 1.09375,-3 1.65625,-3 1.90625,-3 2,-2.921875 2.0625,-2.671875 l 0.046875,0.15625 c 0.0625,0.1875 0.1875,0.328125 0.328125,0.328125 0.1875,0 0.34375,-0.140625 0.34375,-0.296875 0,-0.390625 -0.5,-0.71875 -1.078125,-0.71875 C 1.359375,-3.203125 1,-3.0625 0.71875,-2.8125 0.375,-2.515625 0.171875,-2.03125 0.171875,-1.484375 0.171875,-0.578125 0.71875,0.0625 1.5,0.0625 c 0.3125,0 0.59375,-0.109375 0.84375,-0.328125 0.1875,-0.15625 0.3125,-0.34375 0.53125,-0.765625 z m 0,0"
               style="stroke:none"
               inkscape:connector-curvature="0" />
          </symbol>
          <symbol
             id="textext-33832c1e-8"
             overflow="visible"
             style="overflow:visible">
            <path
               id="path3021"
               d="m 0.046875,-2.71875 c 0.09375,-0.015625 0.15625,-0.03125 0.25,-0.03125 0.171875,0 0.234375,0.109375 0.234375,0.421875 l 0,1.75 c 0,0.34375 -0.046875,0.390625 -0.5,0.46875 l 0,0.109375 1.671875,0 0,-0.109375 C 1.234375,-0.125 1.109375,-0.234375 1.109375,-0.625 l 0,-1.5625 c 0,-0.234375 0.3125,-0.578125 0.5,-0.578125 0.03125,0 0.09375,0.03125 0.171875,0.109375 0.109375,0.09375 0.1875,0.140625 0.28125,0.140625 0.171875,0 0.265625,-0.125 0.265625,-0.328125 0,-0.21875 -0.140625,-0.359375 -0.375,-0.359375 -0.296875,0 -0.5,0.15625 -0.84375,0.65625 l 0,-0.640625 -0.03125,-0.015625 c -0.375,0.15625 -0.625,0.234375 -1.03125,0.375 z m 0,0"
               style="stroke:none"
               inkscape:connector-curvature="0" />
          </symbol>
          <symbol
             id="textext-33832c1e-9"
             overflow="visible"
             style="overflow:visible">
            <path
               id="path3024"
               d="m 1.21875,-3.203125 -1.078125,0.375 0,0.109375 0.046875,0 C 0.28125,-2.734375 0.375,-2.75 0.4375,-2.75 c 0.15625,0 0.21875,0.109375 0.21875,0.421875 l 0,1.625 c 0,0.5 -0.0625,0.578125 -0.546875,0.59375 l 0,0.109375 1.65625,0 0,-0.109375 C 1.296875,-0.140625 1.25,-0.203125 1.25,-0.703125 l 0,-2.484375 z m -0.328125,-1.5625 c -0.1875,0 -0.34375,0.171875 -0.34375,0.359375 0,0.203125 0.15625,0.359375 0.34375,0.359375 0.203125,0 0.359375,-0.15625 0.359375,-0.359375 0,-0.1875 -0.15625,-0.359375 -0.359375,-0.359375 z m 0,0"
               style="stroke:none"
               inkscape:connector-curvature="0" />
          </symbol>
          <symbol
             id="textext-33832c1e-10"
             overflow="visible"
             style="overflow:visible">
            <path
               id="path3027"
               d="m 2.1875,-2.1875 -0.015625,-0.953125 -0.078125,0 L 2.078125,-3.125 C 2.015625,-3.078125 2,-3.0625 1.984375,-3.0625 c -0.046875,0 -0.109375,-0.015625 -0.1875,-0.046875 -0.15625,-0.0625 -0.3125,-0.09375 -0.5,-0.09375 -0.546875,0 -0.9375,0.359375 -0.9375,0.859375 0,0.390625 0.21875,0.671875 0.8125,1 l 0.40625,0.234375 c 0.234375,0.140625 0.359375,0.3125 0.359375,0.53125 0,0.296875 -0.21875,0.5 -0.578125,0.5 -0.234375,0 -0.453125,-0.09375 -0.578125,-0.25 C 0.625,-0.5 0.5625,-0.65625 0.46875,-1.0625 l -0.109375,0 0,1.09375 0.09375,0 C 0.5,-0.046875 0.53125,-0.0625 0.609375,-0.0625 c 0.0625,0 0.171875,0.015625 0.328125,0.0625 0.1875,0.046875 0.375,0.0625 0.5,0.0625 0.546875,0 0.984375,-0.390625 0.984375,-0.890625 0,-0.34375 -0.15625,-0.578125 -0.578125,-0.828125 l -0.75,-0.4375 c -0.203125,-0.109375 -0.3125,-0.296875 -0.3125,-0.484375 0,-0.265625 0.21875,-0.46875 0.546875,-0.46875 0.390625,0 0.609375,0.234375 0.765625,0.859375 z m 0,0"
               style="stroke:none"
               inkscape:connector-curvature="0" />
          </symbol>
          <symbol
             id="textext-33832c1e-11"
             overflow="visible"
             style="overflow:visible">
            <path
               id="path3030"
               d="m 0.71875,-0.765625 c 0,0.5 -0.078125,0.59375 -0.609375,0.640625 l 0,0.125 1.984375,0 C 2.90625,0 3.625,-0.234375 4.0625,-0.625 4.515625,-1.03125 4.78125,-1.65625 4.78125,-2.328125 4.78125,-2.953125 4.5625,-3.5 4.1875,-3.875 3.703125,-4.359375 2.953125,-4.609375 2,-4.609375 l -1.890625,0 0,0.125 C 0.65625,-4.4375 0.71875,-4.375 0.71875,-3.859375 z m 0.71875,-3.3125 c 0,-0.21875 0.078125,-0.28125 0.359375,-0.28125 0.59375,0 1.046875,0.109375 1.390625,0.359375 0.546875,0.375 0.828125,0.96875 0.828125,1.71875 0,0.828125 -0.28125,1.40625 -0.859375,1.734375 -0.34375,0.203125 -0.75,0.28125 -1.359375,0.28125 -0.28125,0 -0.359375,-0.0625 -0.359375,-0.28125 z m 0,0"
               style="stroke:none"
               inkscape:connector-curvature="0" />
          </symbol>
          <symbol
             id="textext-33832c1e-12"
             overflow="visible"
             style="overflow:visible">
            <path
               id="path3033"
               d="M 4.59375,-0.125 C 4.328125,-0.15625 4.1875,-0.21875 3.984375,-0.453125 l -1.4375,-1.765625 c 0.46875,-0.09375 0.671875,-0.171875 0.90625,-0.359375 0.21875,-0.1875 0.359375,-0.484375 0.359375,-0.8125 0,-0.296875 -0.09375,-0.546875 -0.265625,-0.75 -0.265625,-0.296875 -0.84375,-0.46875 -1.5,-0.46875 l -1.921875,0 0,0.125 c 0.515625,0.0625 0.578125,0.140625 0.578125,0.625 l 0,3.015625 c 0,0.578125 -0.0625,0.671875 -0.578125,0.71875 l 0,0.125 1.921875,0 0,-0.125 c -0.53125,-0.046875 -0.625,-0.140625 -0.625,-0.640625 l 0,-1.359375 L 1.8125,-2.140625 3.46875,0 4.59375,0 z M 1.421875,-4.109375 c 0,-0.1875 0.078125,-0.25 0.359375,-0.25 0.859375,0 1.265625,0.296875 1.265625,0.953125 0,0.359375 -0.140625,0.640625 -0.390625,0.78125 -0.328125,0.171875 -0.5625,0.21875 -1.234375,0.234375 z m 0,0"
               style="stroke:none"
               inkscape:connector-curvature="0" />
          </symbol>
          <symbol
             id="textext-33832c1e-13"
             overflow="visible"
             style="overflow:visible">
            <path
               id="path3036"
               d="m 2.84375,-1.140625 c -0.328125,0.53125 -0.640625,0.734375 -1.078125,0.734375 -0.40625,0 -0.703125,-0.203125 -0.90625,-0.609375 C 0.734375,-1.28125 0.6875,-1.5 0.671875,-1.9375 l 2.15625,0 c -0.0625,-0.453125 -0.125,-0.640625 -0.3125,-0.875 C 2.3125,-3.0625 2,-3.203125 1.625,-3.203125 c -0.34375,0 -0.671875,0.125 -0.9375,0.359375 -0.328125,0.28125 -0.515625,0.78125 -0.515625,1.359375 0,0.953125 0.5,1.546875 1.3125,1.546875 0.65625,0 1.171875,-0.40625 1.46875,-1.15625 z M 0.6875,-2.15625 C 0.765625,-2.703125 1,-2.953125 1.421875,-2.953125 c 0.4375,0 0.59375,0.1875 0.6875,0.796875 z m 0,0"
               style="stroke:none"
               inkscape:connector-curvature="0" />
          </symbol>
          <symbol
             id="textext-33832c1e-14"
             overflow="visible"
             style="overflow:visible">
            <path
               id="path3039"
               d="m 1.78125,-3.140625 -0.703125,0 0,-0.796875 c 0,-0.078125 -0.015625,-0.09375 -0.046875,-0.09375 -0.0625,0.0625 -0.09375,0.125 -0.140625,0.1875 -0.265625,0.390625 -0.5625,0.71875 -0.6875,0.75 C 0.125,-3.046875 0.09375,-3 0.09375,-2.96875 c 0,0.03125 0,0.046875 0.03125,0.0625 l 0.359375,0 0,2.09375 c 0,0.578125 0.21875,0.875 0.625,0.875 0.34375,0 0.609375,-0.15625 0.828125,-0.515625 L 1.859375,-0.53125 c -0.15625,0.171875 -0.265625,0.234375 -0.421875,0.234375 -0.265625,0 -0.359375,-0.1875 -0.359375,-0.625 l 0,-1.984375 0.703125,0 z m 0,0"
               style="stroke:none"
               inkscape:connector-curvature="0" />
          </symbol>
          <symbol
             id="textext-33832c1e-15"
             overflow="visible"
             style="overflow:visible">
            <path
               id="path3042"
               d="m 0.875,-0.703125 c -0.21875,0 -0.390625,0.1875 -0.390625,0.40625 0,0.203125 0.171875,0.375 0.375,0.375 0.21875,0 0.40625,-0.171875 0.40625,-0.375 0,-0.21875 -0.1875,-0.40625 -0.390625,-0.40625 z m 0,0"
               style="stroke:none"
               inkscape:connector-curvature="0" />
          </symbol>
          <symbol
             id="textext-33832c1e-16"
             overflow="visible"
             style="overflow:visible">
            <path
               id="path3045"
               d=""
               style="stroke:none"
               inkscape:connector-curvature="0" />
          </symbol>
          <symbol
             id="textext-33832c1e-17"
             overflow="visible"
             style="overflow:visible">
            <path
               id="path3048"
               d="M 2.9375,-6.734375 C 2.203125,-6.265625 1.90625,-6 1.53125,-5.546875 c -0.703125,0.875 -1.046875,1.875 -1.046875,3.03125 0,1.265625 0.359375,2.25 1.234375,3.265625 0.421875,0.46875 0.671875,0.703125 1.1875,1.015625 l 0.125,-0.15625 C 2.234375,0.984375 1.953125,0.625 1.6875,-0.125 1.453125,-0.78125 1.328125,-1.546875 1.328125,-2.546875 1.328125,-3.59375 1.46875,-4.40625 1.734375,-5.03125 2.015625,-5.640625 2.3125,-6 3.03125,-6.578125 z m 0,0"
               style="stroke:none"
               inkscape:connector-curvature="0" />
          </symbol>
          <symbol
             id="textext-33832c1e-18"
             overflow="visible"
             style="overflow:visible">
            <path
               id="path3051"
               d="M 0.375,1.765625 C 1.109375,1.28125 1.421875,1.03125 1.78125,0.5625 2.5,-0.296875 2.84375,-1.296875 2.84375,-2.46875 c 0,-1.265625 -0.375,-2.234375 -1.25,-3.25 C 1.1875,-6.203125 0.921875,-6.421875 0.40625,-6.734375 l -0.109375,0.15625 c 0.796875,0.625 1.0625,0.96875 1.34375,1.71875 0.234375,0.671875 0.34375,1.4375 0.34375,2.421875 0,1.046875 -0.125,1.875 -0.40625,2.484375 C 1.3125,0.671875 1,1.03125 0.296875,1.609375 z m 0,0"
               style="stroke:none"
               inkscape:connector-curvature="0" />
          </symbol>
          <symbol
             id="textext-33832c1e-19"
             overflow="visible"
             style="overflow:visible">
            <path
               id="path3054"
               d="m 1.25,-1 c -0.296875,0 -0.546875,0.265625 -0.546875,0.578125 0,0.28125 0.25,0.53125 0.53125,0.53125 0.3125,0 0.5625,-0.25 0.5625,-0.53125 C 1.796875,-0.734375 1.546875,-1 1.25,-1 z m 0,0"
               style="stroke:none"
               inkscape:connector-curvature="0" />
          </symbol>
          <symbol
             id="textext-33832c1e-20"
             overflow="visible"
             style="overflow:visible">
            <path
               id="path3057"
               d=""
               style="stroke:none"
               inkscape:connector-curvature="0" />
          </symbol>
          <symbol
             id="textext-33832c1e-21"
             overflow="visible"
             style="overflow:visible">
            <path
               id="path3060"
               d="m 6.171875,-2.5625 c 0,-1.65625 -1.34375,-3 -3,-3 -1.65625,0 -3,1.34375 -3,3 0,1.65625 1.34375,3 3,3 1.65625,0 3,-1.34375 3,-3 z M 4.8125,-4.515625 3.171875,-2.875 1.53125,-4.515625 c 0.4375,-0.375 1.015625,-0.59375 1.640625,-0.59375 0.609375,0 1.1875,0.21875 1.640625,0.59375 z M 5.71875,-2.5625 c 0,0.625 -0.21875,1.203125 -0.59375,1.640625 L 3.484375,-2.5625 5.125,-4.203125 C 5.5,-3.765625 5.71875,-3.1875 5.71875,-2.5625 z m -2.875,0 -1.625,1.640625 C 0.84375,-1.359375 0.625,-1.9375 0.625,-2.5625 c 0,-0.625 0.21875,-1.203125 0.59375,-1.640625 z m 1.96875,1.953125 c -0.453125,0.375 -1.03125,0.59375 -1.640625,0.59375 -0.625,0 -1.203125,-0.21875 -1.640625,-0.59375 L 3.171875,-2.25 z m 0,0"
               style="stroke:none"
               inkscape:connector-curvature="0" />
          </symbol>
          <symbol
             id="textext-33832c1e-22"
             overflow="visible"
             style="overflow:visible">
            <path
               id="path3063"
               d="m 5.71875,-2.28125 0,-0.5625 -5.09375,0 0,0.5625 z m 0,0"
               style="stroke:none"
               inkscape:connector-curvature="0" />
          </symbol>
          <symbol
             id="textext-33832c1e-23"
             overflow="visible"
             style="overflow:visible">
            <path
               id="path3066"
               d="m 8.984375,-2.578125 -1.953125,-2.03125 -0.296875,0.328125 1.1875,1.4375 -7.296875,0 0,0.5625 7.296875,0 -1.1875,1.4375 0.296875,0.328125 z m 0,0"
               style="stroke:none"
               inkscape:connector-curvature="0" />
          </symbol>
          <symbol
             id="textext-33832c1e-24"
             overflow="visible"
             style="overflow:visible">
            <path
               id="path3069"
               d=""
               style="stroke:none"
               inkscape:connector-curvature="0" />
          </symbol>
          <symbol
             id="textext-33832c1e-25"
             overflow="visible"
             style="overflow:visible">
            <path
               id="path3072"
               d="m 3.78125,-6.765625 -0.515625,0 -2.640625,8.375 0.515625,0 z m 0,0"
               style="stroke:none"
               inkscape:connector-curvature="0" />
          </symbol>
          <symbol
             id="textext-33832c1e-26"
             overflow="visible"
             style="overflow:visible">
            <path
               id="path3075"
               d=""
               style="stroke:none"
               inkscape:connector-curvature="0" />
          </symbol>
          <symbol
             id="textext-33832c1e-27"
             overflow="visible"
             style="overflow:visible">
            <path
               id="path3078"
               d="M 4.046875,-2.28125 3.90625,-2.34375 c -0.109375,0.40625 -0.328125,0.75 -0.796875,0.75 -0.53125,0 -1,-0.75 -1.625,-0.75 -0.609375,0 -0.9375,0.359375 -1.09375,0.921875 L 0.53125,-1.375 c 0.15625,-0.359375 0.40625,-0.609375 0.828125,-0.609375 0.53125,0 0.9375,0.75 1.609375,0.75 0.671875,0 0.984375,-0.421875 1.078125,-1.046875 z m 0,0"
               style="stroke:none"
               inkscape:connector-curvature="0" />
          </symbol>
          <symbol
             id="textext-33832c1e-28"
             overflow="visible"
             style="overflow:visible">
            <path
               id="path3081"
               d=""
               style="stroke:none"
               inkscape:connector-curvature="0" />
          </symbol>
          <symbol
             id="textext-33832c1e-29"
             overflow="visible"
             style="overflow:visible">
            <path
               id="path3084"
               d="m 6.984375,-5.9375 0,-0.4375 -3.5,-1.046875 L 0,-6.375 l 0,0.4375 3.484375,-0.875 z m 0,0"
               style="stroke:none"
               inkscape:connector-curvature="0" />
          </symbol>
          <symbol
             id="textext-33832c1e-30"
             overflow="visible"
             style="overflow:visible">
            <path
               id="path3087"
               d=""
               style="stroke:none"
               inkscape:connector-curvature="0" />
          </symbol>
          <symbol
             id="textext-33832c1e-31"
             overflow="visible"
             style="overflow:visible">
            <path
               id="path3090"
               d="M 2.796875,-0.78125 C 2.75,-0.703125 2.703125,-0.671875 2.640625,-0.578125 2.484375,-0.375 2.40625,-0.3125 2.328125,-0.3125 2.21875,-0.3125 2.15625,-0.390625 2.109375,-0.59375 2.09375,-0.640625 2.09375,-0.6875 2.078125,-0.703125 c -0.171875,-0.71875 -0.25,-1.03125 -0.25,-1.140625 0.3125,-0.53125 0.5625,-0.84375 0.6875,-0.84375 0.046875,0 0.09375,0.03125 0.171875,0.0625 0.078125,0.046875 0.125,0.0625 0.1875,0.0625 0.140625,0 0.234375,-0.109375 0.234375,-0.25 0,-0.15625 -0.109375,-0.265625 -0.28125,-0.265625 -0.3125,0 -0.5625,0.25 -1.046875,1 l -0.078125,-0.375 c -0.09375,-0.484375 -0.171875,-0.625 -0.359375,-0.625 -0.15625,0 -0.390625,0.0625 -0.828125,0.203125 l -0.0625,0.03125 0.015625,0.109375 c 0.265625,-0.0625 0.328125,-0.078125 0.390625,-0.078125 0.171875,0 0.21875,0.0625 0.3125,0.484375 L 1.375,-1.484375 0.8125,-0.65625 c -0.140625,0.203125 -0.28125,0.328125 -0.359375,0.328125 -0.046875,0 -0.109375,-0.015625 -0.1875,-0.0625 -0.078125,-0.046875 -0.15625,-0.0625 -0.21875,-0.0625 -0.125,0 -0.234375,0.09375 -0.234375,0.234375 0,0.1875 0.140625,0.296875 0.34375,0.296875 0.21875,0 0.296875,-0.0625 0.65625,-0.484375 C 1,-0.640625 1.140625,-0.828125 1.4375,-1.21875 l 0.203125,0.828125 c 0.09375,0.359375 0.1875,0.46875 0.40625,0.46875 C 2.3125,0.078125 2.5,-0.09375 2.90625,-0.71875 z m 0,0"
               style="stroke:none"
               inkscape:connector-curvature="0" />
          </symbol>
        </g>
      </defs>
      <g
         id="textext-33832c1e-32">
        <g
           id="g3093"
           style="fill:#000000;fill-opacity:1">
          <use
             id="use3095"
             y="136.521"
             x="223.681"
             xlink:href="#textext-33832c1e-1"
             width="744.09448"
             height="1052.3622" />
        </g>
        <g
           id="g3097"
           style="fill:#000000;fill-opacity:1">
          <use
             id="use3099"
             y="132.905"
             x="231.323"
             xlink:href="#textext-33832c1e-6"
             width="744.09448"
             height="1052.3622" />
        </g>
        <g
           id="g3101"
           style="fill:#000000;fill-opacity:1">
          <use
             id="use3103"
             y="139.896"
             x="230.87399"
             xlink:href="#textext-33832c1e-7"
             width="744.09448"
             height="1052.3622" />
          <use
             id="use3105"
             y="139.896"
             x="233.97037"
             xlink:href="#textext-33832c1e-8"
             width="744.09448"
             height="1052.3622" />
          <use
             id="use3107"
             y="139.896"
             x="236.29265"
             xlink:href="#textext-33832c1e-9"
             width="744.09448"
             height="1052.3622" />
          <use
             id="use3109"
             y="139.896"
             x="238.23135"
             xlink:href="#textext-33832c1e-10"
             width="744.09448"
             height="1052.3622" />
        </g>
        <g
           id="g3111"
           style="fill:#000000;fill-opacity:1">
          <use
             id="use3113"
             y="136.521"
             x="241.44299"
             xlink:href="#textext-33832c1e-17"
             width="744.09448"
             height="1052.3622" />
        </g>
        <g
           id="g3115"
           style="fill:#000000;fill-opacity:1">
          <use
             id="use3117"
             y="136.521"
             x="244.511"
             xlink:href="#textext-33832c1e-2"
             width="744.09448"
             height="1052.3622" />
        </g>
        <g
           id="g3119"
           style="fill:#000000;fill-opacity:1">
          <use
             id="use3121"
             y="136.521"
             x="253.838"
             xlink:href="#textext-33832c1e-21"
             width="744.09448"
             height="1052.3622" />
        </g>
        <g
           id="g3123"
           style="fill:#000000;fill-opacity:1">
          <use
             id="use3125"
             y="136.521"
             x="262.388"
             xlink:href="#textext-33832c1e-3"
             width="744.09448"
             height="1052.3622" />
        </g>
        <g
           id="g3127"
           style="fill:#000000;fill-opacity:1">
          <use
             id="use3129"
             y="136.521"
             x="266.98099"
             xlink:href="#textext-33832c1e-25"
             width="744.09448"
             height="1052.3622" />
        </g>
        <g
           id="g3131"
           style="fill:#000000;fill-opacity:1">
          <use
             id="use3133"
             y="136.521"
             x="271.375"
             xlink:href="#textext-33832c1e-4"
             width="744.09448"
             height="1052.3622" />
        </g>
        <g
           id="g3135"
           style="fill:#000000;fill-opacity:1">
          <use
             id="use3137"
             y="136.521"
             x="280.401"
             xlink:href="#textext-33832c1e-17"
             width="744.09448"
             height="1052.3622" />
        </g>
        <g
           id="g3139"
           style="fill:#000000;fill-opacity:1">
          <use
             id="use3141"
             y="136.521"
             x="283.71799"
             xlink:href="#textext-33832c1e-3"
             width="744.09448"
             height="1052.3622" />
        </g>
        <g
           id="g3143"
           style="fill:#000000;fill-opacity:1">
          <use
             id="use3145"
             y="136.521"
             x="288.311"
             xlink:href="#textext-33832c1e-18"
             width="744.09448"
             height="1052.3622" />
          <use
             id="use3147"
             y="136.521"
             x="291.62854"
             xlink:href="#textext-33832c1e-18"
             width="744.09448"
             height="1052.3622" />
        </g>
        <g
           id="g3149"
           style="fill:#000000;fill-opacity:1">
          <use
             id="use3151"
             y="129.836"
             x="299.84399"
             xlink:href="#textext-33832c1e-27"
             width="744.09448"
             height="1052.3622" />
        </g>
        <g
           id="g3153"
           style="fill:#000000;fill-opacity:1">
          <use
             id="use3155"
             y="136.521"
             x="297.71399"
             xlink:href="#textext-33832c1e-22"
             width="744.09448"
             height="1052.3622" />
        </g>
        <g
           id="g3157"
           style="fill:#000000;fill-opacity:1">
          <use
             id="use3159"
             y="136.521"
             x="297.97302"
             xlink:href="#textext-33832c1e-23"
             width="744.09448"
             height="1052.3622" />
        </g>
        <g
           id="g3161"
           style="fill:#000000;fill-opacity:1">
          <use
             id="use3163"
             y="136.521"
             x="310.58899"
             xlink:href="#textext-33832c1e-1"
             width="744.09448"
             height="1052.3622" />
        </g>
        <g
           id="g3165"
           style="fill:#000000;fill-opacity:1">
          <use
             id="use3167"
             y="132.905"
             x="318.23099"
             xlink:href="#textext-33832c1e-6"
             width="744.09448"
             height="1052.3622" />
        </g>
        <g
           id="g3169"
           style="fill:#000000;fill-opacity:1">
          <use
             id="use3171"
             y="139.802"
             x="317.78201"
             xlink:href="#textext-33832c1e-11"
             width="744.09448"
             height="1052.3622" />
          <use
             id="use3173"
             y="139.802"
             x="322.81708"
             xlink:href="#textext-33832c1e-12"
             width="744.09448"
             height="1052.3622" />
        </g>
        <g
           id="g3175"
           style="fill:#000000;fill-opacity:1">
          <use
             id="use3177"
             y="136.521"
             x="327.96701"
             xlink:href="#textext-33832c1e-17"
             width="744.09448"
             height="1052.3622" />
        </g>
        <g
           id="g3179"
           style="fill:#000000;fill-opacity:1">
          <use
             id="use3181"
             y="136.521"
             x="331.03601"
             xlink:href="#textext-33832c1e-2"
             width="744.09448"
             height="1052.3622" />
        </g>
        <g
           id="g3183"
           style="fill:#000000;fill-opacity:1">
          <use
             id="use3185"
             y="136.521"
             x="337.87"
             xlink:href="#textext-33832c1e-25"
             width="744.09448"
             height="1052.3622" />
        </g>
        <g
           id="g3187"
           style="fill:#000000;fill-opacity:1">
          <use
             id="use3189"
             y="136.521"
             x="342.26401"
             xlink:href="#textext-33832c1e-4"
             width="744.09448"
             height="1052.3622" />
        </g>
        <g
           id="g3191"
           style="fill:#000000;fill-opacity:1">
          <use
             id="use3193"
             y="136.521"
             x="351.29001"
             xlink:href="#textext-33832c1e-17"
             width="744.09448"
             height="1052.3622" />
        </g>
        <g
           id="g3195"
           style="fill:#000000;fill-opacity:1">
          <use
             id="use3197"
             y="136.521"
             x="354.60699"
             xlink:href="#textext-33832c1e-3"
             width="744.09448"
             height="1052.3622" />
        </g>
        <g
           id="g3199"
           style="fill:#000000;fill-opacity:1">
          <use
             id="use3201"
             y="136.521"
             x="359.20001"
             xlink:href="#textext-33832c1e-18"
             width="744.09448"
             height="1052.3622" />
          <use
             id="use3203"
             y="136.521"
             x="362.51755"
             xlink:href="#textext-33832c1e-18"
             width="744.09448"
             height="1052.3622" />
        </g>
        <g
           id="g3205"
           style="fill:#000000;fill-opacity:1">
          <use
             id="use3207"
             y="129.836"
             x="370.733"
             xlink:href="#textext-33832c1e-8"
             width="744.09448"
             height="1052.3622" />
          <use
             id="use3209"
             y="129.836"
             x="373.05527"
             xlink:href="#textext-33832c1e-13"
             width="744.09448"
             height="1052.3622" />
          <use
             id="use3211"
             y="129.836"
             x="376.15164"
             xlink:href="#textext-33832c1e-10"
             width="744.09448"
             height="1052.3622" />
          <use
             id="use3213"
             y="129.836"
             x="378.86444"
             xlink:href="#textext-33832c1e-14"
             width="744.09448"
             height="1052.3622" />
          <use
             id="use3215"
             y="129.836"
             x="380.80316"
             xlink:href="#textext-33832c1e-8"
             width="744.09448"
             height="1052.3622" />
        </g>
        <g
           id="g3217"
           style="fill:#000000;fill-opacity:1">
          <use
             id="use3219"
             y="129.836"
             x="382.74188"
             xlink:href="#textext-33832c1e-15"
             width="744.09448"
             height="1052.3622" />
        </g>
        <g
           id="g3221"
           style="fill:#000000;fill-opacity:1">
          <use
             id="use3223"
             y="136.521"
             x="368.60199"
             xlink:href="#textext-33832c1e-22"
             width="744.09448"
             height="1052.3622" />
        </g>
        <g
           id="g3225"
           style="fill:#000000;fill-opacity:1">
          <use
             id="use3227"
             y="136.521"
             x="371.33176"
             xlink:href="#textext-33832c1e-22"
             width="744.09448"
             height="1052.3622" />
        </g>
        <g
           id="g3229"
           style="fill:#000000;fill-opacity:1">
          <use
             id="use3231"
             y="136.521"
             x="375.44632"
             xlink:href="#textext-33832c1e-22"
             width="744.09448"
             height="1052.3622" />
        </g>
        <g
           id="g3233"
           style="fill:#000000;fill-opacity:1">
          <use
             id="use3235"
             y="136.521"
             x="378.17606"
             xlink:href="#textext-33832c1e-23"
             width="744.09448"
             height="1052.3622" />
        </g>
        <g
           id="g3237"
           style="fill:#000000;fill-opacity:1">
          <use
             id="use3239"
             y="136.521"
             x="390.79501"
             xlink:href="#textext-33832c1e-1"
             width="744.09448"
             height="1052.3622" />
        </g>
        <g
           id="g3241"
           style="fill:#000000;fill-opacity:1">
          <use
             id="use3243"
             y="132.905"
             x="398.43701"
             xlink:href="#textext-33832c1e-6"
             width="744.09448"
             height="1052.3622" />
        </g>
        <g
           id="g3245"
           style="fill:#000000;fill-opacity:1">
          <use
             id="use3247"
             y="139.802"
             x="397.98801"
             xlink:href="#textext-33832c1e-11"
             width="744.09448"
             height="1052.3622" />
          <use
             id="use3249"
             y="139.802"
             x="403.02307"
             xlink:href="#textext-33832c1e-12"
             width="744.09448"
             height="1052.3622" />
        </g>
        <g
           id="g3251"
           style="fill:#000000;fill-opacity:1">
          <use
             id="use3253"
             y="136.521"
             x="408.173"
             xlink:href="#textext-33832c1e-17"
             width="744.09448"
             height="1052.3622" />
        </g>
        <g
           id="g3255"
           style="fill:#000000;fill-opacity:1">
          <use
             id="use3257"
             y="134.40401"
             x="412.54199"
             xlink:href="#textext-33832c1e-29"
             width="744.09448"
             height="1052.3622" />
        </g>
        <g
           id="g3259"
           style="fill:#000000;fill-opacity:1">
          <use
             id="use3261"
             y="136.521"
             x="411.242"
             xlink:href="#textext-33832c1e-2"
             width="744.09448"
             height="1052.3622" />
        </g>
        <g
           id="g3263"
           style="fill:#000000;fill-opacity:1">
          <use
             id="use3265"
             y="138.01601"
             x="418.48401"
             xlink:href="#textext-33832c1e-31"
             width="744.09448"
             height="1052.3622" />
        </g>
        <g
           id="g3267"
           style="fill:#000000;fill-opacity:1">
          <use
             id="use3269"
             y="136.521"
             x="422.10001"
             xlink:href="#textext-33832c1e-25"
             width="744.09448"
             height="1052.3622" />
        </g>
        <g
           id="g3271"
           style="fill:#000000;fill-opacity:1">
          <use
             id="use3273"
             y="136.521"
             x="426.49301"
             xlink:href="#textext-33832c1e-4"
             width="744.09448"
             height="1052.3622" />
        </g>
        <g
           id="g3275"
           style="fill:#000000;fill-opacity:1">
          <use
             id="use3277"
             y="136.521"
             x="435.51999"
             xlink:href="#textext-33832c1e-17"
             width="744.09448"
             height="1052.3622" />
        </g>
        <g
           id="g3279"
           style="fill:#000000;fill-opacity:1">
          <use
             id="use3281"
             y="136.521"
             x="438.83701"
             xlink:href="#textext-33832c1e-3"
             width="744.09448"
             height="1052.3622" />
        </g>
        <g
           id="g3283"
           style="fill:#000000;fill-opacity:1">
          <use
             id="use3285"
             y="136.521"
             x="443.42999"
             xlink:href="#textext-33832c1e-18"
             width="744.09448"
             height="1052.3622" />
          <use
             id="use3287"
             y="136.521"
             x="446.74756"
             xlink:href="#textext-33832c1e-18"
             width="744.09448"
             height="1052.3622" />
          <use
             id="use3289"
             y="136.521"
             x="450.06509"
             xlink:href="#textext-33832c1e-19"
             width="744.09448"
             height="1052.3622" />
        </g>
      </g>
    </g>
    <path
       style="fill:none;stroke:#000000;stroke-width:1px;stroke-linecap:butt;stroke-linejoin:miter;stroke-opacity:1;marker-end:url(#Arrow1Mend)"
       d="m 270.35714,242.71932 0,18.92858 191.42858,0 0,-16.42858"
       id="path3461"
       inkscape:connector-curvature="0" />
  </g>
</svg>
