<?xml version="1.0" encoding="UTF-8" standalone="no"?>
<!-- Created with Inkscape (http://www.inkscape.org/) -->

<svg
   xmlns:ns0="http://www.iki.fi/pav/software/textext/"
   xmlns:dc="http://purl.org/dc/elements/1.1/"
   xmlns:cc="http://creativecommons.org/ns#"
   xmlns:rdf="http://www.w3.org/1999/02/22-rdf-syntax-ns#"
   xmlns:svg="http://www.w3.org/2000/svg"
   xmlns="http://www.w3.org/2000/svg"
   xmlns:xlink="http://www.w3.org/1999/xlink"
   xmlns:sodipodi="http://sodipodi.sourceforge.net/DTD/sodipodi-0.dtd"
   xmlns:inkscape="http://www.inkscape.org/namespaces/inkscape"
   width="354.33069"
   height="212.59842"
   id="svg2"
   version="1.1"
   inkscape:version="0.48.4 r9939"
   sodipodi:docname="fig3.svg">
  <sodipodi:namedview
     id="base"
     pagecolor="#ffffff"
     bordercolor="#666666"
     borderopacity="1.0"
     inkscape:pageopacity="0.0"
     inkscape:pageshadow="2"
     inkscape:zoom="2.8784537"
     inkscape:cx="136.48907"
     inkscape:cy="126.0357"
     inkscape:document-units="px"
     inkscape:current-layer="layer1"
     showgrid="false"
     units="cm"
     inkscape:window-width="1024"
     inkscape:window-height="744"
     inkscape:window-x="0"
     inkscape:window-y="24"
     inkscape:window-maximized="1" />
  <defs
     id="defs4">
    <marker
       style="overflow:visible;"
       id="Arrow1Mend"
       refX="0.0"
       refY="0.0"
       orient="auto"
       inkscape:stockid="Arrow1Mend">
      <path
         transform="scale(0.4) rotate(180) translate(10,0)"
         style="fill-rule:evenodd;stroke:#000000;stroke-width:1.0pt;"
         d="M 0.0,0.0 L 5.0,-5.0 L -12.5,0.0 L 5.0,5.0 L 0.0,0.0 z "
         id="path3768" />
    </marker>
  </defs>
  <metadata
     id="metadata7">
    <rdf:RDF>
      <cc:Work
         rdf:about="">
        <dc:format>image/svg+xml</dc:format>
        <dc:type
           rdf:resource="http://purl.org/dc/dcmitype/StillImage" />
        <dc:title></dc:title>
      </cc:Work>
    </rdf:RDF>
  </metadata>
  <g
     transform="translate(0,-839.76245)"
     id="layer1"
     inkscape:groupmode="layer"
     inkscape:label="Layer 1">
    <path
       inkscape:connector-curvature="0"
       id="path2985"
       d="m 50.002552,939.30056 0,31.22173 161.704708,0 0,-30.6213"
       style="fill:none;stroke:#000000;stroke-width:1.37500012;stroke-linecap:butt;stroke-linejoin:miter;stroke-miterlimit:4;stroke-opacity:1;stroke-dasharray:none;marker-end:url(#Arrow1Mend)" />
    <path
       sodipodi:nodetypes="cc"
       inkscape:connector-curvature="0"
       id="path4199"
       d="m 63.757643,932.30849 50.192947,0"
       style="fill:none;stroke:#000000;stroke-width:1.375;stroke-linecap:butt;stroke-linejoin:miter;stroke-miterlimit:4;stroke-opacity:1;stroke-dasharray:none;marker-end:url(#Arrow1Mend)" />
    <path
       style="fill:none;stroke:#000000;stroke-width:1.375;stroke-linecap:butt;stroke-linejoin:miter;stroke-miterlimit:4;stroke-opacity:1;stroke-dasharray:none;marker-end:url(#Arrow1Mend)"
       d="m 164.71934,923.53882 41.16031,0"
       id="path4565"
       inkscape:connector-curvature="0"
       sodipodi:nodetypes="cc" />
    <g
       id="g3191"
       transform="matrix(1.2,0,0,1.2,-198.95623,763.09567)"
       ns0:preamble="/home/sriranga/Desktop/Mangaluru-Project/src/chap1/package.tex"
       ns0:text="$f_{1}\\times f_{2}$">
      <defs
         id="defs3193">
        <g
           id="g3195">
          <symbol
             id="textext-bd7d5357-0"
             overflow="visible"
             style="overflow:visible">
            <path
               id="path3198"
               d=""
               style="stroke:none"
               inkscape:connector-curvature="0" />
          </symbol>
          <symbol
             id="textext-bd7d5357-1"
             overflow="visible"
             style="overflow:visible">
            <path
               id="path3201"
               d="m 0.34375,-3.953125 0.90625,0 -0.875,4.1875 c -0.21875,1.078125 -0.546875,1.625 -0.96875,1.625 -0.125,0 -0.203125,-0.078125 -0.203125,-0.171875 0,-0.015625 0.015625,-0.046875 0.046875,-0.109375 0.03125,-0.046875 0.046875,-0.09375 0.046875,-0.15625 0,-0.203125 -0.1875,-0.375 -0.390625,-0.375 -0.21875,0 -0.375,0.171875 -0.375,0.40625 0,0.34375 0.359375,0.609375 0.796875,0.609375 0.875,0 1.578125,-0.984375 1.984375,-2.8125 l 0.71875,-3.203125 1.09375,0 0.0625,-0.3125 -1.078125,0 c 0.28125,-1.5625 0.65625,-2.28125 1.203125,-2.28125 0.140625,0 0.21875,0.0625 0.21875,0.125 0,0.03125 0,0.046875 -0.03125,0.109375 -0.046875,0.078125 -0.0625,0.125 -0.0625,0.203125 0,0.234375 0.15625,0.390625 0.375,0.390625 0.21875,0 0.421875,-0.171875 0.421875,-0.390625 0,-0.375 -0.375,-0.65625 -0.859375,-0.65625 -0.5,0 -0.875,0.21875 -1.234375,0.6875 -0.3125,0.390625 -0.5,0.859375 -0.8125,1.8125 l -0.90625,0 z m 0,0"
               style="stroke:none"
               inkscape:connector-curvature="0" />
          </symbol>
          <symbol
             id="textext-bd7d5357-2"
             overflow="visible"
             style="overflow:visible">
            <path
               id="path3204"
               d=""
               style="stroke:none"
               inkscape:connector-curvature="0" />
          </symbol>
          <symbol
             id="textext-bd7d5357-3"
             overflow="visible"
             style="overflow:visible">
            <path
               id="path3207"
               d="m 2.03125,-4.703125 -1.25,0.625 0,0.09375 c 0.078125,-0.03125 0.15625,-0.0625 0.1875,-0.078125 0.125,-0.046875 0.234375,-0.0625 0.3125,-0.0625 0.140625,0 0.203125,0.09375 0.203125,0.3125 l 0,3.171875 c 0,0.21875 -0.0625,0.375 -0.171875,0.453125 -0.09375,0.0625 -0.203125,0.078125 -0.484375,0.078125 L 0.828125,0 2.75,0 l 0,-0.109375 c -0.5625,0 -0.671875,-0.078125 -0.671875,-0.40625 l 0,-4.1875 z m 0,0"
               style="stroke:none"
               inkscape:connector-curvature="0" />
          </symbol>
          <symbol
             id="textext-bd7d5357-4"
             overflow="visible"
             style="overflow:visible">
            <path
               id="path3210"
               d="M 3.3125,-0.953125 3.21875,-0.984375 C 2.96875,-0.59375 2.875,-0.53125 2.5625,-0.53125 l -1.671875,0 L 2.0625,-1.75 c 0.625,-0.65625 0.890625,-1.1875 0.890625,-1.734375 0,-0.6875 -0.5625,-1.21875 -1.28125,-1.21875 -0.390625,0 -0.75,0.140625 -1.015625,0.421875 -0.21875,0.234375 -0.328125,0.46875 -0.4375,0.953125 l 0.140625,0.03125 C 0.640625,-3.96875 0.890625,-4.1875 1.375,-4.1875 c 0.578125,0 0.984375,0.390625 0.984375,0.96875 0,0.546875 -0.328125,1.203125 -0.90625,1.8125 l -1.25,1.328125 0,0.078125 2.71875,0 z m 0,0"
               style="stroke:none"
               inkscape:connector-curvature="0" />
          </symbol>
          <symbol
             id="textext-bd7d5357-5"
             overflow="visible"
             style="overflow:visible">
            <path
               id="path3213"
               d=""
               style="stroke:none"
               inkscape:connector-curvature="0" />
          </symbol>
          <symbol
             id="textext-bd7d5357-6"
             overflow="visible"
             style="overflow:visible">
            <path
               id="path3216"
               d="M 5.78125,-0.34375 3.5625,-2.5625 5.78125,-4.78125 5.390625,-5.1875 3.171875,-2.953125 0.953125,-5.1875 0.5625,-4.78125 2.765625,-2.5625 0.5625,-0.34375 l 0.390625,0.390625 2.21875,-2.21875 2.21875,2.21875 z m 0,0"
               style="stroke:none"
               inkscape:connector-curvature="0" />
          </symbol>
        </g>
      </defs>
      <g
         id="textext-bd7d5357-7">
        <g
           id="g3219"
           style="fill:#000000;fill-opacity:1">
          <use
             id="use3221"
             y="134.765"
             x="224.92599"
             xlink:href="#textext-bd7d5357-1"
             width="354.33069"
             height="212.59842" />
        </g>
        <g
           id="g3223"
           style="fill:#000000;fill-opacity:1">
          <use
             id="use3225"
             y="136.259"
             x="227.696"
             xlink:href="#textext-bd7d5357-3"
             width="354.33069"
             height="212.59842" />
        </g>
        <g
           id="g3227"
           style="fill:#000000;fill-opacity:1">
          <use
             id="use3229"
             y="134.765"
             x="233.895"
             xlink:href="#textext-bd7d5357-6"
             width="354.33069"
             height="212.59842" />
        </g>
        <g
           id="g3231"
           style="fill:#000000;fill-opacity:1">
          <use
             id="use3233"
             y="134.765"
             x="243.939"
             xlink:href="#textext-bd7d5357-1"
             width="354.33069"
             height="212.59842" />
        </g>
        <g
           id="g3235"
           style="fill:#000000;fill-opacity:1">
          <use
             id="use3237"
             y="136.259"
             x="246.709"
             xlink:href="#textext-bd7d5357-4"
             width="354.33069"
             height="212.59842" />
        </g>
      </g>
    </g>
    <g
       ns0:text="$G\\times G$"
       ns0:preamble="/home/sriranga/Desktop/Mangaluru-Project/src/chap1/package.tex"
       transform="matrix(1.2,0,0,1.2,-146.01242,774.38838)"
       id="g3439">
      <defs
         id="defs3441">
        <g
           id="g3443">
          <symbol
             style="overflow:visible"
             overflow="visible"
             id="textext-42f875f0-0">
            <path
               inkscape:connector-curvature="0"
               style="stroke:none"
               d=""
               id="path3446" />
          </symbol>
          <symbol
             style="overflow:visible"
             overflow="visible"
             id="textext-42f875f0-1">
            <path
               inkscape:connector-curvature="0"
               style="stroke:none"
               d="M 7.0625,-6.59375 6.90625,-6.640625 c -0.171875,0.234375 -0.34375,0.34375 -0.59375,0.34375 -0.109375,0 -0.21875,-0.03125 -0.4375,-0.109375 -0.5,-0.15625 -0.9375,-0.234375 -1.34375,-0.234375 -2.09375,0 -4.015625,2 -4.015625,4.1875 0,0.671875 0.296875,1.375 0.765625,1.859375 0.5,0.5 1.234375,0.765625 2.09375,0.765625 0.875,0 1.59375,-0.1875 2.359375,-0.609375 l 0.5,-1.859375 c 0.15625,-0.5625 0.3125,-0.6875 0.96875,-0.71875 l 0,-0.171875 -2.65625,0 0,0.171875 c 0.125,0 0.25,0.03125 0.28125,0.03125 0.328125,0.03125 0.5,0.125 0.5,0.296875 0,0.21875 -0.0625,0.5 -0.28125,1.234375 -0.21875,0.71875 -0.25,0.8125 -0.375,0.921875 -0.21875,0.21875 -0.59375,0.34375 -1.046875,0.34375 -1.28125,0 -2.015625,-0.734375 -2.015625,-2.046875 0,-1.21875 0.5,-2.484375 1.28125,-3.328125 0.453125,-0.46875 1.0625,-0.734375 1.71875,-0.734375 0.65625,0 1.203125,0.265625 1.5,0.71875 0.15625,0.265625 0.234375,0.46875 0.28125,0.90625 l 0.171875,0.03125 z m 0,0"
               id="path3449" />
          </symbol>
          <symbol
             style="overflow:visible"
             overflow="visible"
             id="textext-42f875f0-2">
            <path
               inkscape:connector-curvature="0"
               style="stroke:none"
               d=""
               id="path3452" />
          </symbol>
          <symbol
             style="overflow:visible"
             overflow="visible"
             id="textext-42f875f0-3">
            <path
               inkscape:connector-curvature="0"
               style="stroke:none"
               d="M 5.78125,-0.34375 3.5625,-2.5625 5.78125,-4.78125 5.390625,-5.1875 3.171875,-2.953125 0.953125,-5.1875 0.5625,-4.78125 2.765625,-2.5625 0.5625,-0.34375 l 0.390625,0.390625 2.21875,-2.21875 2.21875,2.21875 z m 0,0"
               id="path3455" />
          </symbol>
        </g>
      </defs>
      <g
         id="textext-42f875f0-4">
        <g
           style="fill:#000000;fill-opacity:1"
           id="g3458">
          <use
             height="212.59842"
             width="354.33069"
             xlink:href="#textext-42f875f0-1"
             x="223.183"
             y="134.765"
             id="use3460" />
        </g>
        <g
           style="fill:#000000;fill-opacity:1"
           id="g3462">
          <use
             height="212.59842"
             width="354.33069"
             xlink:href="#textext-42f875f0-3"
             x="232.839"
             y="134.765"
             id="use3464" />
        </g>
        <g
           style="fill:#000000;fill-opacity:1"
           id="g3466">
          <use
             height="212.59842"
             width="354.33069"
             xlink:href="#textext-42f875f0-1"
             x="241.14"
             y="134.765"
             id="use3468" />
        </g>
      </g>
    </g>
    <g
       id="g3660"
       transform="matrix(1.2,0,0,1.2,-53.693807,772.37878)"
       ns0:preamble="/home/sriranga/Desktop/Mangaluru-Project/src/chap1/package.tex"
       ns0:text="$G$">
      <defs
         id="defs3662">
        <g
           id="g3664">
          <symbol
             id="textext-2c629a4a-0"
             overflow="visible"
             style="overflow:visible">
            <path
               id="path3667"
               d=""
               style="stroke:none"
               inkscape:connector-curvature="0" />
          </symbol>
          <symbol
             id="textext-2c629a4a-1"
             overflow="visible"
             style="overflow:visible">
            <path
               id="path3670"
               d="M 7.0625,-6.59375 6.90625,-6.640625 c -0.171875,0.234375 -0.34375,0.34375 -0.59375,0.34375 -0.109375,0 -0.21875,-0.03125 -0.4375,-0.109375 -0.5,-0.15625 -0.9375,-0.234375 -1.34375,-0.234375 -2.09375,0 -4.015625,2 -4.015625,4.1875 0,0.671875 0.296875,1.375 0.765625,1.859375 0.5,0.5 1.234375,0.765625 2.09375,0.765625 0.875,0 1.59375,-0.1875 2.359375,-0.609375 l 0.5,-1.859375 c 0.15625,-0.5625 0.3125,-0.6875 0.96875,-0.71875 l 0,-0.171875 -2.65625,0 0,0.171875 c 0.125,0 0.25,0.03125 0.28125,0.03125 0.328125,0.03125 0.5,0.125 0.5,0.296875 0,0.21875 -0.0625,0.5 -0.28125,1.234375 -0.21875,0.71875 -0.25,0.8125 -0.375,0.921875 -0.21875,0.21875 -0.59375,0.34375 -1.046875,0.34375 -1.28125,0 -2.015625,-0.734375 -2.015625,-2.046875 0,-1.21875 0.5,-2.484375 1.28125,-3.328125 0.453125,-0.46875 1.0625,-0.734375 1.71875,-0.734375 0.65625,0 1.203125,0.265625 1.5,0.71875 0.15625,0.265625 0.234375,0.46875 0.28125,0.90625 l 0.171875,0.03125 z m 0,0"
               style="stroke:none"
               inkscape:connector-curvature="0" />
          </symbol>
        </g>
      </defs>
      <g
         id="textext-2c629a4a-2">
        <g
           id="g3673"
           style="fill:#000000;fill-opacity:1">
          <use
             id="use3675"
             y="134.765"
             x="223.183"
             xlink:href="#textext-2c629a4a-1"
             width="354.33069"
             height="212.59842" />
        </g>
      </g>
    </g>
    <g
       id="g4060"
       transform="matrix(1.2,0,0,1.2,-221.10628,772.63621)"
       ns0:preamble="/home/sriranga/Desktop/Mangaluru-Project/src/chap1/package.tex"
       ns0:text="$G\'$">
      <defs
         id="defs4062">
        <g
           id="g4064">
          <symbol
             id="textext-39aad228-0"
             overflow="visible">
            <path
               id="path4067"
               d=""
               style="stroke:none;" />
          </symbol>
          <symbol
             id="textext-39aad228-1"
             overflow="visible">
            <path
               id="path4070"
               d="M 7.0625 -6.59375 L 6.90625 -6.640625 C 6.734375 -6.40625 6.5625 -6.296875 6.3125 -6.296875 C 6.203125 -6.296875 6.09375 -6.328125 5.875 -6.40625 C 5.375 -6.5625 4.9375 -6.640625 4.53125 -6.640625 C 2.4375 -6.640625 0.515625 -4.640625 0.515625 -2.453125 C 0.515625 -1.78125 0.8125 -1.078125 1.28125 -0.59375 C 1.78125 -0.09375 2.515625 0.171875 3.375 0.171875 C 4.25 0.171875 4.96875 -0.015625 5.734375 -0.4375 L 6.234375 -2.296875 C 6.390625 -2.859375 6.546875 -2.984375 7.203125 -3.015625 L 7.203125 -3.1875 L 4.546875 -3.1875 L 4.546875 -3.015625 C 4.671875 -3.015625 4.796875 -2.984375 4.828125 -2.984375 C 5.15625 -2.953125 5.328125 -2.859375 5.328125 -2.6875 C 5.328125 -2.46875 5.265625 -2.1875 5.046875 -1.453125 C 4.828125 -0.734375 4.796875 -0.640625 4.671875 -0.53125 C 4.453125 -0.3125 4.078125 -0.1875 3.625 -0.1875 C 2.34375 -0.1875 1.609375 -0.921875 1.609375 -2.234375 C 1.609375 -3.453125 2.109375 -4.71875 2.890625 -5.5625 C 3.34375 -6.03125 3.953125 -6.296875 4.609375 -6.296875 C 5.265625 -6.296875 5.8125 -6.03125 6.109375 -5.578125 C 6.265625 -5.3125 6.34375 -5.109375 6.390625 -4.671875 L 6.5625 -4.640625 Z M 7.0625 -6.59375 "
               style="stroke:none;" />
          </symbol>
          <symbol
             id="textext-39aad228-2"
             overflow="visible">
            <path
               id="path4073"
               d=""
               style="stroke:none;" />
          </symbol>
          <symbol
             id="textext-39aad228-3"
             overflow="visible">
            <path
               id="path4076"
               d="M 2.0625 -2.859375 C 2.0625 -3.109375 1.8125 -3.28125 1.59375 -3.28125 C 1.34375 -3.28125 1.21875 -3.03125 1.140625 -2.8125 L 0.421875 -0.703125 C 0.390625 -0.640625 0.34375 -0.515625 0.34375 -0.453125 C 0.34375 -0.390625 0.390625 -0.3125 0.453125 -0.3125 C 0.5625 -0.3125 0.6875 -0.453125 0.734375 -0.53125 L 1.875 -2.34375 C 1.96875 -2.484375 2.0625 -2.6875 2.0625 -2.859375 Z M 2.0625 -2.859375 "
               style="stroke:none;" />
          </symbol>
        </g>
      </defs>
      <g
         id="textext-39aad228-4">
        <g
           id="g4079"
           style="fill:rgb(0%,0%,0%);fill-opacity:1;">
          <use
             id="use4081"
             y="134.765"
             x="223.183"
             xlink:href="#textext-39aad228-1" />
        </g>
        <g
           id="g4083"
           style="fill:rgb(0%,0%,0%);fill-opacity:1;">
          <use
             id="use4085"
             y="131.148"
             x="230.625"
             xlink:href="#textext-39aad228-3" />
        </g>
      </g>
    </g>
    <path
       sodipodi:nodetypes="cc"
       inkscape:connector-curvature="0"
       id="path3077"
       d="m 164.71934,937.53882 41.16031,0"
       style="fill:none;stroke:#000000;stroke-width:1.375;stroke-linecap:butt;stroke-linejoin:miter;stroke-miterlimit:4;stroke-opacity:1;stroke-dasharray:none;marker-end:url(#Arrow1Mend)" />
    <g
       ns0:text="pr$_{1}$"
       ns0:preamble="/home/sriranga/Desktop/Mangaluru-Project/src/chap1/package.tex"
       transform="matrix(1.2,0,0,1.2,-92.248511,754.63408)"
       id="g3162">
      <defs
         id="defs3164">
        <g
           id="g3166">
          <symbol
             style="overflow:visible"
             overflow="visible"
             id="textext-c014ab57-0">
            <path
               inkscape:connector-curvature="0"
               style="stroke:none"
               d=""
               id="path3169" />
          </symbol>
          <symbol
             style="overflow:visible"
             overflow="visible"
             id="textext-c014ab57-1">
            <path
               inkscape:connector-curvature="0"
               style="stroke:none"
               d="m 0.09375,-3.921875 c 0.078125,0 0.15625,0 0.25,0 0.328125,0 0.40625,0.09375 0.40625,0.5625 l 0,4.671875 C 0.75,1.828125 0.640625,1.9375 0.046875,2 l 0,0.15625 2.421875,0 0,-0.171875 c -0.75,-0.015625 -0.890625,-0.125 -0.890625,-0.75 l 0,-1.5625 C 1.9375,0 2.171875,0.09375 2.59375,0.09375 c 1.171875,0 2.09375,-1.109375 2.09375,-2.5625 0,-1.234375 -0.703125,-2.109375 -1.671875,-2.109375 -0.546875,0 -0.984375,0.234375 -1.4375,0.78125 l 0,-0.765625 L 1.53125,-4.578125 C 0.984375,-4.375 0.640625,-4.25 0.09375,-4.078125 z m 1.484375,0.59375 c 0,-0.296875 0.5625,-0.65625 1.03125,-0.65625 0.734375,0 1.21875,0.75 1.21875,1.90625 0,1.109375 -0.484375,1.859375 -1.203125,1.859375 -0.46875,0 -1.046875,-0.359375 -1.046875,-0.65625 z m 0,0"
               id="path3172" />
          </symbol>
          <symbol
             style="overflow:visible"
             overflow="visible"
             id="textext-c014ab57-2">
            <path
               inkscape:connector-curvature="0"
               style="stroke:none"
               d="m 0.0625,-3.890625 c 0.140625,-0.03125 0.234375,-0.03125 0.359375,-0.03125 0.25,0 0.328125,0.15625 0.328125,0.59375 l 0,2.484375 c 0,0.5 -0.0625,0.578125 -0.703125,0.6875 l 0,0.15625 2.390625,0 0,-0.15625 C 1.765625,-0.171875 1.59375,-0.328125 1.59375,-0.890625 l 0,-2.25 c 0,-0.3125 0.4375,-0.8125 0.703125,-0.8125 0.0625,0 0.140625,0.046875 0.25,0.140625 0.171875,0.140625 0.28125,0.203125 0.40625,0.203125 0.234375,0 0.390625,-0.171875 0.390625,-0.453125 0,-0.328125 -0.21875,-0.515625 -0.546875,-0.515625 -0.421875,0 -0.71875,0.21875 -1.203125,0.921875 l 0,-0.90625 -0.046875,-0.015625 c -0.53125,0.21875 -0.890625,0.34375 -1.484375,0.53125 z m 0,0"
               id="path3175" />
          </symbol>
          <symbol
             style="overflow:visible"
             overflow="visible"
             id="textext-c014ab57-3">
            <path
               inkscape:connector-curvature="0"
               style="stroke:none"
               d=""
               id="path3178" />
          </symbol>
          <symbol
             style="overflow:visible"
             overflow="visible"
             id="textext-c014ab57-4">
            <path
               inkscape:connector-curvature="0"
               style="stroke:none"
               d="m 2.03125,-4.703125 -1.25,0.625 0,0.09375 c 0.078125,-0.03125 0.15625,-0.0625 0.1875,-0.078125 0.125,-0.046875 0.234375,-0.0625 0.3125,-0.0625 0.140625,0 0.203125,0.09375 0.203125,0.3125 l 0,3.171875 c 0,0.21875 -0.0625,0.375 -0.171875,0.453125 -0.09375,0.0625 -0.203125,0.078125 -0.484375,0.078125 L 0.828125,0 2.75,0 l 0,-0.109375 c -0.5625,0 -0.671875,-0.078125 -0.671875,-0.40625 l 0,-4.1875 z m 0,0"
               id="path3181" />
          </symbol>
        </g>
      </defs>
      <g
         id="textext-c014ab57-5">
        <g
           style="fill:#000000;fill-opacity:1"
           id="g3184">
          <use
             height="212.59842"
             width="354.33069"
             xlink:href="#textext-c014ab57-1"
             x="223.43201"
             y="134.765"
             id="use3186" />
          <use
             height="212.59842"
             width="354.33069"
             xlink:href="#textext-c014ab57-2"
             x="228.4133"
             y="134.765"
             id="use3188" />
        </g>
        <g
           style="fill:#000000;fill-opacity:1"
           id="g3190">
          <use
             height="212.59842"
             width="354.33069"
             xlink:href="#textext-c014ab57-4"
             x="231.731"
             y="136.259"
             id="use3192" />
        </g>
      </g>
    </g>
    <g
       id="g3434"
       transform="matrix(1.2,0,0,1.2,-92.248511,784.63408)"
       ns0:preamble="/home/sriranga/Desktop/Mangaluru-Project/src/chap1/package.tex"
       ns0:text="pr$_{2}$">
      <defs
         id="defs3436">
        <g
           id="g3438">
          <symbol
             id="textext-aa818f18-0"
             overflow="visible">
            <path
               id="path3441"
               d=""
               style="stroke:none;" />
          </symbol>
          <symbol
             id="textext-aa818f18-1"
             overflow="visible">
            <path
               id="path3444"
               d="M 0.09375 -3.921875 C 0.171875 -3.921875 0.25 -3.921875 0.34375 -3.921875 C 0.671875 -3.921875 0.75 -3.828125 0.75 -3.359375 L 0.75 1.3125 C 0.75 1.828125 0.640625 1.9375 0.046875 2 L 0.046875 2.15625 L 2.46875 2.15625 L 2.46875 1.984375 C 1.71875 1.96875 1.578125 1.859375 1.578125 1.234375 L 1.578125 -0.328125 C 1.9375 0 2.171875 0.09375 2.59375 0.09375 C 3.765625 0.09375 4.6875 -1.015625 4.6875 -2.46875 C 4.6875 -3.703125 3.984375 -4.578125 3.015625 -4.578125 C 2.46875 -4.578125 2.03125 -4.34375 1.578125 -3.796875 L 1.578125 -4.5625 L 1.53125 -4.578125 C 0.984375 -4.375 0.640625 -4.25 0.09375 -4.078125 Z M 1.578125 -3.328125 C 1.578125 -3.625 2.140625 -3.984375 2.609375 -3.984375 C 3.34375 -3.984375 3.828125 -3.234375 3.828125 -2.078125 C 3.828125 -0.96875 3.34375 -0.21875 2.625 -0.21875 C 2.15625 -0.21875 1.578125 -0.578125 1.578125 -0.875 Z M 1.578125 -3.328125 "
               style="stroke:none;" />
          </symbol>
          <symbol
             id="textext-aa818f18-2"
             overflow="visible">
            <path
               id="path3447"
               d="M 0.0625 -3.890625 C 0.203125 -3.921875 0.296875 -3.921875 0.421875 -3.921875 C 0.671875 -3.921875 0.75 -3.765625 0.75 -3.328125 L 0.75 -0.84375 C 0.75 -0.34375 0.6875 -0.265625 0.046875 -0.15625 L 0.046875 0 L 2.4375 0 L 2.4375 -0.15625 C 1.765625 -0.171875 1.59375 -0.328125 1.59375 -0.890625 L 1.59375 -3.140625 C 1.59375 -3.453125 2.03125 -3.953125 2.296875 -3.953125 C 2.359375 -3.953125 2.4375 -3.90625 2.546875 -3.8125 C 2.71875 -3.671875 2.828125 -3.609375 2.953125 -3.609375 C 3.1875 -3.609375 3.34375 -3.78125 3.34375 -4.0625 C 3.34375 -4.390625 3.125 -4.578125 2.796875 -4.578125 C 2.375 -4.578125 2.078125 -4.359375 1.59375 -3.65625 L 1.59375 -4.5625 L 1.546875 -4.578125 C 1.015625 -4.359375 0.65625 -4.234375 0.0625 -4.046875 Z M 0.0625 -3.890625 "
               style="stroke:none;" />
          </symbol>
          <symbol
             id="textext-aa818f18-3"
             overflow="visible">
            <path
               id="path3450"
               d=""
               style="stroke:none;" />
          </symbol>
          <symbol
             id="textext-aa818f18-4"
             overflow="visible">
            <path
               id="path3453"
               d="M 3.3125 -0.953125 L 3.21875 -0.984375 C 2.96875 -0.59375 2.875 -0.53125 2.5625 -0.53125 L 0.890625 -0.53125 L 2.0625 -1.75 C 2.6875 -2.40625 2.953125 -2.9375 2.953125 -3.484375 C 2.953125 -4.171875 2.390625 -4.703125 1.671875 -4.703125 C 1.28125 -4.703125 0.921875 -4.5625 0.65625 -4.28125 C 0.4375 -4.046875 0.328125 -3.8125 0.21875 -3.328125 L 0.359375 -3.296875 C 0.640625 -3.96875 0.890625 -4.1875 1.375 -4.1875 C 1.953125 -4.1875 2.359375 -3.796875 2.359375 -3.21875 C 2.359375 -2.671875 2.03125 -2.015625 1.453125 -1.40625 L 0.203125 -0.078125 L 0.203125 0 L 2.921875 0 Z M 3.3125 -0.953125 "
               style="stroke:none;" />
          </symbol>
        </g>
      </defs>
      <g
         id="textext-aa818f18-5">
        <g
           id="g3456"
           style="fill:rgb(0%,0%,0%);fill-opacity:1;">
          <use
             id="use3458"
             y="134.765"
             x="223.432"
             xlink:href="#textext-aa818f18-1" />
          <use
             id="use3461"
             y="134.765"
             x="228.4133"
             xlink:href="#textext-aa818f18-2" />
        </g>
        <g
           id="g3463"
           style="fill:rgb(0%,0%,0%);fill-opacity:1;">
          <use
             id="use3465"
             y="136.259"
             x="231.731"
             xlink:href="#textext-aa818f18-4" />
        </g>
      </g>
    </g>
    <path
       style="fill:none;stroke:#000000;stroke-width:1.37500012;stroke-linecap:butt;stroke-linejoin:miter;stroke-miterlimit:4;stroke-opacity:1;stroke-dasharray:none;marker-end:url(#Arrow1Mend)"
       d="m 50.002552,920.73063 0,-19.54339 161.704708,0 0,19.16755"
       id="path3586"
       inkscape:connector-curvature="0" />
    <g
       ns0:text="$f_{1}$"
       ns0:preamble="/home/sriranga/Desktop/Mangaluru-Project/src/chap1/package.tex"
       transform="matrix(1.2,0,0,1.2,-141.7322,731.69744)"
       id="g3748">
      <defs
         id="defs3750">
        <g
           id="g3752">
          <symbol
             style="overflow:visible"
             overflow="visible"
             id="textext-8ae077b1-0">
            <path
               inkscape:connector-curvature="0"
               style="stroke:none"
               d=""
               id="path3755" />
          </symbol>
          <symbol
             style="overflow:visible"
             overflow="visible"
             id="textext-8ae077b1-1">
            <path
               inkscape:connector-curvature="0"
               style="stroke:none"
               d="m 0.34375,-3.953125 0.90625,0 -0.875,4.1875 c -0.21875,1.078125 -0.546875,1.625 -0.96875,1.625 -0.125,0 -0.203125,-0.078125 -0.203125,-0.171875 0,-0.015625 0.015625,-0.046875 0.046875,-0.109375 0.03125,-0.046875 0.046875,-0.09375 0.046875,-0.15625 0,-0.203125 -0.1875,-0.375 -0.390625,-0.375 -0.21875,0 -0.375,0.171875 -0.375,0.40625 0,0.34375 0.359375,0.609375 0.796875,0.609375 0.875,0 1.578125,-0.984375 1.984375,-2.8125 l 0.71875,-3.203125 1.09375,0 0.0625,-0.3125 -1.078125,0 c 0.28125,-1.5625 0.65625,-2.28125 1.203125,-2.28125 0.140625,0 0.21875,0.0625 0.21875,0.125 0,0.03125 0,0.046875 -0.03125,0.109375 -0.046875,0.078125 -0.0625,0.125 -0.0625,0.203125 0,0.234375 0.15625,0.390625 0.375,0.390625 0.21875,0 0.421875,-0.171875 0.421875,-0.390625 0,-0.375 -0.375,-0.65625 -0.859375,-0.65625 -0.5,0 -0.875,0.21875 -1.234375,0.6875 -0.3125,0.390625 -0.5,0.859375 -0.8125,1.8125 l -0.90625,0 z m 0,0"
               id="path3758" />
          </symbol>
          <symbol
             style="overflow:visible"
             overflow="visible"
             id="textext-8ae077b1-2">
            <path
               inkscape:connector-curvature="0"
               style="stroke:none"
               d=""
               id="path3761" />
          </symbol>
          <symbol
             style="overflow:visible"
             overflow="visible"
             id="textext-8ae077b1-3">
            <path
               inkscape:connector-curvature="0"
               style="stroke:none"
               d="m 2.03125,-4.703125 -1.25,0.625 0,0.09375 c 0.078125,-0.03125 0.15625,-0.0625 0.1875,-0.078125 0.125,-0.046875 0.234375,-0.0625 0.3125,-0.0625 0.140625,0 0.203125,0.09375 0.203125,0.3125 l 0,3.171875 c 0,0.21875 -0.0625,0.375 -0.171875,0.453125 -0.09375,0.0625 -0.203125,0.078125 -0.484375,0.078125 L 0.828125,0 2.75,0 l 0,-0.109375 c -0.5625,0 -0.671875,-0.078125 -0.671875,-0.40625 l 0,-4.1875 z m 0,0"
               id="path3764" />
          </symbol>
        </g>
      </defs>
      <g
         id="textext-8ae077b1-4">
        <g
           style="fill:#000000;fill-opacity:1"
           id="g3767">
          <use
             height="212.59842"
             width="354.33069"
             xlink:href="#textext-8ae077b1-1"
             x="224.92599"
             y="134.765"
             id="use3769" />
        </g>
        <g
           style="fill:#000000;fill-opacity:1"
           id="g3771">
          <use
             height="212.59842"
             width="354.33069"
             xlink:href="#textext-8ae077b1-3"
             x="227.696"
             y="136.259"
             id="use3773" />
        </g>
      </g>
    </g>
    <g
       id="g4081"
       transform="matrix(1.2,0,0,1.2,-141.03738,820.30781)"
       ns0:preamble="/home/sriranga/Desktop/Mangaluru-Project/src/chap1/package.tex"
       ns0:text="$f_{2}$">
      <defs
         id="defs4083">
        <g
           id="g4085">
          <symbol
             id="textext-2b6bbcfa-0"
             overflow="visible"
             style="overflow:visible">
            <path
               id="path4088"
               d=""
               style="stroke:none"
               inkscape:connector-curvature="0" />
          </symbol>
          <symbol
             id="textext-2b6bbcfa-1"
             overflow="visible"
             style="overflow:visible">
            <path
               id="path4091"
               d="m 0.34375,-3.953125 0.90625,0 -0.875,4.1875 c -0.21875,1.078125 -0.546875,1.625 -0.96875,1.625 -0.125,0 -0.203125,-0.078125 -0.203125,-0.171875 0,-0.015625 0.015625,-0.046875 0.046875,-0.109375 0.03125,-0.046875 0.046875,-0.09375 0.046875,-0.15625 0,-0.203125 -0.1875,-0.375 -0.390625,-0.375 -0.21875,0 -0.375,0.171875 -0.375,0.40625 0,0.34375 0.359375,0.609375 0.796875,0.609375 0.875,0 1.578125,-0.984375 1.984375,-2.8125 l 0.71875,-3.203125 1.09375,0 0.0625,-0.3125 -1.078125,0 c 0.28125,-1.5625 0.65625,-2.28125 1.203125,-2.28125 0.140625,0 0.21875,0.0625 0.21875,0.125 0,0.03125 0,0.046875 -0.03125,0.109375 -0.046875,0.078125 -0.0625,0.125 -0.0625,0.203125 0,0.234375 0.15625,0.390625 0.375,0.390625 0.21875,0 0.421875,-0.171875 0.421875,-0.390625 0,-0.375 -0.375,-0.65625 -0.859375,-0.65625 -0.5,0 -0.875,0.21875 -1.234375,0.6875 -0.3125,0.390625 -0.5,0.859375 -0.8125,1.8125 l -0.90625,0 z m 0,0"
               style="stroke:none"
               inkscape:connector-curvature="0" />
          </symbol>
          <symbol
             id="textext-2b6bbcfa-2"
             overflow="visible"
             style="overflow:visible">
            <path
               id="path4094"
               d=""
               style="stroke:none"
               inkscape:connector-curvature="0" />
          </symbol>
          <symbol
             id="textext-2b6bbcfa-3"
             overflow="visible"
             style="overflow:visible">
            <path
               id="path4097"
               d="M 3.3125,-0.953125 3.21875,-0.984375 C 2.96875,-0.59375 2.875,-0.53125 2.5625,-0.53125 l -1.671875,0 L 2.0625,-1.75 c 0.625,-0.65625 0.890625,-1.1875 0.890625,-1.734375 0,-0.6875 -0.5625,-1.21875 -1.28125,-1.21875 -0.390625,0 -0.75,0.140625 -1.015625,0.421875 -0.21875,0.234375 -0.328125,0.46875 -0.4375,0.953125 l 0.140625,0.03125 C 0.640625,-3.96875 0.890625,-4.1875 1.375,-4.1875 c 0.578125,0 0.984375,0.390625 0.984375,0.96875 0,0.546875 -0.328125,1.203125 -0.90625,1.8125 l -1.25,1.328125 0,0.078125 2.71875,0 z m 0,0"
               style="stroke:none"
               inkscape:connector-curvature="0" />
          </symbol>
        </g>
      </defs>
      <g
         id="textext-2b6bbcfa-4">
        <g
           id="g4100"
           style="fill:#000000;fill-opacity:1">
          <use
             id="use4102"
             y="134.765"
             x="224.92599"
             xlink:href="#textext-2b6bbcfa-1"
             width="354.33069"
             height="212.59842" />
        </g>
        <g
           id="g4104"
           style="fill:#000000;fill-opacity:1">
          <use
             id="use4106"
             y="136.259"
             x="227.696"
             xlink:href="#textext-2b6bbcfa-3"
             width="354.33069"
             height="212.59842" />
        </g>
      </g>
    </g>
  </g>
</svg>
