<?xml version="1.0" encoding="UTF-8" standalone="no"?>
<!-- Created with Inkscape (http://www.inkscape.org/) -->

<svg
   xmlns:ns0="http://www.iki.fi/pav/software/textext/"
   xmlns:dc="http://purl.org/dc/elements/1.1/"
   xmlns:cc="http://creativecommons.org/ns#"
   xmlns:rdf="http://www.w3.org/1999/02/22-rdf-syntax-ns#"
   xmlns:svg="http://www.w3.org/2000/svg"
   xmlns="http://www.w3.org/2000/svg"
   xmlns:xlink="http://www.w3.org/1999/xlink"
   xmlns:sodipodi="http://sodipodi.sourceforge.net/DTD/sodipodi-0.dtd"
   xmlns:inkscape="http://www.inkscape.org/namespaces/inkscape"
   id="svg2"
   version="1.1"
   inkscape:version="0.47 r22583"
   width="354.33069"
   height="283.46457"
   xml:space="preserve"
   sodipodi:docname="1.svg"><sodipodi:namedview
     pagecolor="#ffffff"
     bordercolor="#666666"
     borderopacity="1"
     objecttolerance="10"
     gridtolerance="10"
     guidetolerance="10"
     inkscape:pageopacity="0"
     inkscape:pageshadow="2"
     inkscape:window-width="1024"
     inkscape:window-height="689"
     id="namedview4"
     showgrid="false"
     units="cm"
     inkscape:zoom="0.89691211"
     inkscape:cx="195.66871"
     inkscape:cy="44.632045"
     inkscape:window-x="0"
     inkscape:window-y="27"
     inkscape:window-maximized="1"
     inkscape:current-layer="g12" /><metadata
     id="metadata8"><rdf:RDF><cc:Work
         rdf:about=""><dc:format>image/svg+xml</dc:format><dc:type
           rdf:resource="http://purl.org/dc/dcmitype/StillImage" /><dc:title /></cc:Work></rdf:RDF></metadata><defs
     id="defs6"><inkscape:perspective
       sodipodi:type="inkscape:persp3d"
       inkscape:vp_x="0 : 0.5 : 1"
       inkscape:vp_y="0 : 1000 : 0"
       inkscape:vp_z="1 : 0.5 : 1"
       inkscape:persp3d-origin="0.5 : 0.33333333 : 1"
       id="perspective10" /></defs><g
     id="g12"
     inkscape:groupmode="layer"
     inkscape:label="ink_ext_XXXXXX"
     transform="matrix(1.25,0,0,-1.25,0,283.46586)"><path
       style="color:#000000;fill:none;stroke:#000000;stroke-width:1px;stroke-linecap:butt;stroke-linejoin:miter;stroke-miterlimit:4;stroke-opacity:1;stroke-dasharray:none;stroke-dashoffset:0;marker:none;visibility:visible;display:inline;overflow:visible;enable-background:accumulate"
       d="m 20.068856,248.90154 312.182204,0"
       id="path2824"
       transform="matrix(0.8,0,0,-0.8,0,226.77269)" /><path
       style="color:#000000;fill:none;stroke:#000000;stroke-width:1px;stroke-linecap:butt;stroke-linejoin:miter;stroke-miterlimit:4;stroke-opacity:1;stroke-dasharray:none;stroke-dashoffset:0;marker:none;visibility:visible;display:inline;overflow:visible;enable-background:accumulate"
       d="m 91.703522,248.76217 66.059988,-86.82567 65.08441,86.96504"
       id="path2826"
       transform="matrix(0.8,0,0,-0.8,0,226.77269)"
       sodipodi:nodetypes="ccc" /><g
       id="g2970"
       transform="matrix(1.2,0,0,-1.2,-155.78371,266.36778)"
       ns0:preamble="/home/sriranga/Desktop/TIFR/package.tex"
       ns0:text="$(x_{0},t_{0})$"><defs
   id="defs2972">
<g
   id="g2974">
<symbol
   id="textext-8886c5e9-0"
   overflow="visible">
<path
   id="path2977"
   d=""
   style="stroke:none;" />
</symbol>
<symbol
   id="textext-8886c5e9-1"
   overflow="visible">
<path
   id="path2980"
   d="M 2.9375 -6.734375 C 2.203125 -6.265625 1.90625 -6 1.53125 -5.546875 C 0.828125 -4.671875 0.484375 -3.671875 0.484375 -2.515625 C 0.484375 -1.25 0.84375 -0.265625 1.71875 0.75 C 2.140625 1.21875 2.390625 1.453125 2.90625 1.765625 L 3.03125 1.609375 C 2.234375 0.984375 1.953125 0.625 1.6875 -0.125 C 1.453125 -0.78125 1.328125 -1.546875 1.328125 -2.546875 C 1.328125 -3.59375 1.46875 -4.40625 1.734375 -5.03125 C 2.015625 -5.640625 2.3125 -6 3.03125 -6.578125 L 2.9375 -6.734375 Z M 2.9375 -6.734375 "
   style="stroke:none;" />
</symbol>
<symbol
   id="textext-8886c5e9-2"
   overflow="visible">
<path
   id="path2983"
   d="M 0.375 1.765625 C 1.109375 1.28125 1.421875 1.03125 1.78125 0.5625 C 2.5 -0.296875 2.84375 -1.296875 2.84375 -2.46875 C 2.84375 -3.734375 2.46875 -4.703125 1.59375 -5.71875 C 1.1875 -6.203125 0.921875 -6.421875 0.40625 -6.734375 L 0.296875 -6.578125 C 1.09375 -5.953125 1.359375 -5.609375 1.640625 -4.859375 C 1.875 -4.1875 1.984375 -3.421875 1.984375 -2.4375 C 1.984375 -1.390625 1.859375 -0.5625 1.578125 0.046875 C 1.3125 0.671875 1 1.03125 0.296875 1.609375 L 0.375 1.765625 Z M 0.375 1.765625 "
   style="stroke:none;" />
</symbol>
<symbol
   id="textext-8886c5e9-3"
   overflow="visible">
<path
   id="path2986"
   d=""
   style="stroke:none;" />
</symbol>
<symbol
   id="textext-8886c5e9-4"
   overflow="visible">
<path
   id="path2989"
   d="M 4 -1.109375 C 3.921875 -1.015625 3.875 -0.953125 3.78125 -0.84375 C 3.5625 -0.53125 3.4375 -0.4375 3.328125 -0.4375 C 3.1875 -0.4375 3.09375 -0.5625 3.015625 -0.84375 C 3 -0.921875 2.984375 -0.984375 2.984375 -1.015625 C 2.734375 -2.03125 2.625 -2.484375 2.625 -2.625 C 3.0625 -3.40625 3.421875 -3.84375 3.59375 -3.84375 C 3.65625 -3.84375 3.734375 -3.8125 3.84375 -3.765625 C 3.953125 -3.6875 4.03125 -3.671875 4.109375 -3.671875 C 4.3125 -3.671875 4.453125 -3.8125 4.453125 -4.03125 C 4.453125 -4.234375 4.28125 -4.390625 4.046875 -4.390625 C 3.609375 -4.390625 3.234375 -4.03125 2.546875 -2.96875 L 2.4375 -3.515625 C 2.296875 -4.203125 2.1875 -4.390625 1.90625 -4.390625 C 1.6875 -4.390625 1.359375 -4.3125 0.75 -4.109375 L 0.640625 -4.0625 L 0.671875 -3.921875 C 1.0625 -4 1.140625 -4.03125 1.234375 -4.03125 C 1.484375 -4.03125 1.546875 -3.9375 1.6875 -3.34375 L 1.96875 -2.109375 L 1.15625 -0.953125 C 0.953125 -0.640625 0.75 -0.46875 0.640625 -0.46875 C 0.59375 -0.46875 0.484375 -0.5 0.390625 -0.5625 C 0.265625 -0.625 0.15625 -0.65625 0.0625 -0.65625 C -0.125 -0.65625 -0.265625 -0.515625 -0.265625 -0.3125 C -0.265625 -0.046875 -0.0625 0.109375 0.234375 0.109375 C 0.53125 0.109375 0.65625 0.015625 1.15625 -0.59375 C 1.421875 -0.90625 1.640625 -1.171875 2.046875 -1.75 L 2.359375 -0.5625 C 2.484375 -0.046875 2.609375 0.109375 2.9375 0.109375 C 3.3125 0.109375 3.5625 -0.125 4.140625 -1.03125 L 4 -1.109375 Z M 4 -1.109375 "
   style="stroke:none;" />
</symbol>
<symbol
   id="textext-8886c5e9-5"
   overflow="visible">
<path
   id="path2992"
   d="M 2.953125 -4.265625 L 2.15625 -4.265625 L 2.4375 -5.296875 C 2.4375 -5.3125 2.4375 -5.328125 2.4375 -5.34375 C 2.4375 -5.40625 2.40625 -5.4375 2.359375 -5.4375 C 2.296875 -5.4375 2.265625 -5.4375 2.21875 -5.359375 C 1.828125 -4.84375 1.203125 -4.34375 0.890625 -4.25 C 0.640625 -4.171875 0.5625 -4.109375 0.5625 -4 C 0.5625 -4 0.5625 -3.984375 0.578125 -3.953125 L 1.3125 -3.953125 L 0.59375 -1.203125 C 0.578125 -1.109375 0.5625 -1.09375 0.53125 -1 C 0.453125 -0.703125 0.375 -0.34375 0.375 -0.265625 C 0.375 -0.046875 0.578125 0.109375 0.84375 0.109375 C 1.3125 0.109375 1.640625 -0.171875 2.265625 -1.09375 L 2.140625 -1.171875 C 1.640625 -0.53125 1.484375 -0.375 1.328125 -0.375 C 1.234375 -0.375 1.171875 -0.453125 1.171875 -0.578125 C 1.171875 -0.59375 1.171875 -0.59375 1.1875 -0.625 L 2.0625 -3.953125 L 2.90625 -3.953125 L 2.953125 -4.265625 Z M 2.953125 -4.265625 "
   style="stroke:none;" />
</symbol>
<symbol
   id="textext-8886c5e9-6"
   overflow="visible">
<path
   id="path2995"
   d=""
   style="stroke:none;" />
</symbol>
<symbol
   id="textext-8886c5e9-7"
   overflow="visible">
<path
   id="path2998"
   d="M 1.765625 -4.703125 C 1.390625 -4.703125 1.09375 -4.59375 0.84375 -4.34375 C 0.4375 -3.953125 0.171875 -3.15625 0.171875 -2.34375 C 0.171875 -1.578125 0.390625 -0.765625 0.71875 -0.375 C 0.984375 -0.0625 1.34375 0.09375 1.734375 0.09375 C 2.09375 0.09375 2.390625 -0.015625 2.640625 -0.265625 C 3.046875 -0.640625 3.3125 -1.453125 3.3125 -2.296875 C 3.3125 -3.734375 2.6875 -4.703125 1.765625 -4.703125 Z M 1.75 -4.53125 C 2.328125 -4.53125 2.640625 -3.75 2.640625 -2.28125 C 2.640625 -0.828125 2.34375 -0.078125 1.734375 -0.078125 C 1.140625 -0.078125 0.84375 -0.828125 0.84375 -2.28125 C 0.84375 -3.75 1.15625 -4.53125 1.75 -4.53125 Z M 1.75 -4.53125 "
   style="stroke:none;" />
</symbol>
<symbol
   id="textext-8886c5e9-8"
   overflow="visible">
<path
   id="path3001"
   d=""
   style="stroke:none;" />
</symbol>
<symbol
   id="textext-8886c5e9-9"
   overflow="visible">
<path
   id="path3004"
   d="M 1.9375 -0.0625 C 1.9375 -0.890625 1.359375 -1.015625 1.140625 -1.015625 C 0.890625 -1.015625 0.5625 -0.875 0.5625 -0.4375 C 0.5625 -0.046875 0.921875 0.0625 1.171875 0.0625 C 1.25 0.0625 1.296875 0.046875 1.328125 0.046875 C 1.359375 0.03125 1.390625 0.015625 1.421875 0.015625 C 1.484375 0.015625 1.5625 0.0625 1.5625 0.15625 C 1.5625 0.34375 1.390625 0.796875 0.734375 1.21875 L 0.828125 1.40625 C 1.125 1.3125 1.9375 0.640625 1.9375 -0.0625 Z M 1.9375 -0.0625 "
   style="stroke:none;" />
</symbol>
</g>
</defs>
<g
   id="textext-8886c5e9-10">
<g
   id="g3007"
   style="fill:rgb(0%,0%,0%);fill-opacity:1;">
  <use
   id="use3009"
   y="134.765"
   x="223.432"
   xlink:href="#textext-8886c5e9-1" />
</g>
<g
   id="g3011"
   style="fill:rgb(0%,0%,0%);fill-opacity:1;">
  <use
   id="use3013"
   y="134.765"
   x="227.248"
   xlink:href="#textext-8886c5e9-4" />
</g>
<g
   id="g3015"
   style="fill:rgb(0%,0%,0%);fill-opacity:1;">
  <use
   id="use3017"
   y="136.259"
   x="231.671"
   xlink:href="#textext-8886c5e9-7" />
</g>
<g
   id="g3019"
   style="fill:rgb(0%,0%,0%);fill-opacity:1;">
  <use
   id="use3021"
   y="134.765"
   x="235.656"
   xlink:href="#textext-8886c5e9-9" />
</g>
<g
   id="g3023"
   style="fill:rgb(0%,0%,0%);fill-opacity:1;">
  <use
   id="use3025"
   y="134.765"
   x="239.807"
   xlink:href="#textext-8886c5e9-5" />
</g>
<g
   id="g3027"
   style="fill:rgb(0%,0%,0%);fill-opacity:1;">
  <use
   id="use3029"
   y="136.259"
   x="242.577"
   xlink:href="#textext-8886c5e9-7" />
</g>
<g
   id="g3031"
   style="fill:rgb(0%,0%,0%);fill-opacity:1;">
  <use
   id="use3033"
   y="134.765"
   x="246.562"
   xlink:href="#textext-8886c5e9-2" />
</g>
</g>
</g><g
       ns0:text="$x_{0}-t_{0}$"
       ns0:preamble="/home/sriranga/Desktop/TIFR/package.tex"
       transform="matrix(1.2,0,0,-1.2,-211.78371,176.76778)"
       id="g3209"><defs
   id="defs3211">
<g
   id="g3213">
<symbol
   overflow="visible"
   id="textext-89a11a01-0">
<path
   style="stroke:none;"
   d=""
   id="path3216" />
</symbol>
<symbol
   overflow="visible"
   id="textext-89a11a01-1">
<path
   style="stroke:none;"
   d="M 4 -1.109375 C 3.921875 -1.015625 3.875 -0.953125 3.78125 -0.84375 C 3.5625 -0.53125 3.4375 -0.4375 3.328125 -0.4375 C 3.1875 -0.4375 3.09375 -0.5625 3.015625 -0.84375 C 3 -0.921875 2.984375 -0.984375 2.984375 -1.015625 C 2.734375 -2.03125 2.625 -2.484375 2.625 -2.625 C 3.0625 -3.40625 3.421875 -3.84375 3.59375 -3.84375 C 3.65625 -3.84375 3.734375 -3.8125 3.84375 -3.765625 C 3.953125 -3.6875 4.03125 -3.671875 4.109375 -3.671875 C 4.3125 -3.671875 4.453125 -3.8125 4.453125 -4.03125 C 4.453125 -4.234375 4.28125 -4.390625 4.046875 -4.390625 C 3.609375 -4.390625 3.234375 -4.03125 2.546875 -2.96875 L 2.4375 -3.515625 C 2.296875 -4.203125 2.1875 -4.390625 1.90625 -4.390625 C 1.6875 -4.390625 1.359375 -4.3125 0.75 -4.109375 L 0.640625 -4.0625 L 0.671875 -3.921875 C 1.0625 -4 1.140625 -4.03125 1.234375 -4.03125 C 1.484375 -4.03125 1.546875 -3.9375 1.6875 -3.34375 L 1.96875 -2.109375 L 1.15625 -0.953125 C 0.953125 -0.640625 0.75 -0.46875 0.640625 -0.46875 C 0.59375 -0.46875 0.484375 -0.5 0.390625 -0.5625 C 0.265625 -0.625 0.15625 -0.65625 0.0625 -0.65625 C -0.125 -0.65625 -0.265625 -0.515625 -0.265625 -0.3125 C -0.265625 -0.046875 -0.0625 0.109375 0.234375 0.109375 C 0.53125 0.109375 0.65625 0.015625 1.15625 -0.59375 C 1.421875 -0.90625 1.640625 -1.171875 2.046875 -1.75 L 2.359375 -0.5625 C 2.484375 -0.046875 2.609375 0.109375 2.9375 0.109375 C 3.3125 0.109375 3.5625 -0.125 4.140625 -1.03125 L 4 -1.109375 Z M 4 -1.109375 "
   id="path3219" />
</symbol>
<symbol
   overflow="visible"
   id="textext-89a11a01-2">
<path
   style="stroke:none;"
   d="M 2.953125 -4.265625 L 2.15625 -4.265625 L 2.4375 -5.296875 C 2.4375 -5.3125 2.4375 -5.328125 2.4375 -5.34375 C 2.4375 -5.40625 2.40625 -5.4375 2.359375 -5.4375 C 2.296875 -5.4375 2.265625 -5.4375 2.21875 -5.359375 C 1.828125 -4.84375 1.203125 -4.34375 0.890625 -4.25 C 0.640625 -4.171875 0.5625 -4.109375 0.5625 -4 C 0.5625 -4 0.5625 -3.984375 0.578125 -3.953125 L 1.3125 -3.953125 L 0.59375 -1.203125 C 0.578125 -1.109375 0.5625 -1.09375 0.53125 -1 C 0.453125 -0.703125 0.375 -0.34375 0.375 -0.265625 C 0.375 -0.046875 0.578125 0.109375 0.84375 0.109375 C 1.3125 0.109375 1.640625 -0.171875 2.265625 -1.09375 L 2.140625 -1.171875 C 1.640625 -0.53125 1.484375 -0.375 1.328125 -0.375 C 1.234375 -0.375 1.171875 -0.453125 1.171875 -0.578125 C 1.171875 -0.59375 1.171875 -0.59375 1.1875 -0.625 L 2.0625 -3.953125 L 2.90625 -3.953125 L 2.953125 -4.265625 Z M 2.953125 -4.265625 "
   id="path3222" />
</symbol>
<symbol
   overflow="visible"
   id="textext-89a11a01-3">
<path
   style="stroke:none;"
   d=""
   id="path3225" />
</symbol>
<symbol
   overflow="visible"
   id="textext-89a11a01-4">
<path
   style="stroke:none;"
   d="M 1.765625 -4.703125 C 1.390625 -4.703125 1.09375 -4.59375 0.84375 -4.34375 C 0.4375 -3.953125 0.171875 -3.15625 0.171875 -2.34375 C 0.171875 -1.578125 0.390625 -0.765625 0.71875 -0.375 C 0.984375 -0.0625 1.34375 0.09375 1.734375 0.09375 C 2.09375 0.09375 2.390625 -0.015625 2.640625 -0.265625 C 3.046875 -0.640625 3.3125 -1.453125 3.3125 -2.296875 C 3.3125 -3.734375 2.6875 -4.703125 1.765625 -4.703125 Z M 1.75 -4.53125 C 2.328125 -4.53125 2.640625 -3.75 2.640625 -2.28125 C 2.640625 -0.828125 2.34375 -0.078125 1.734375 -0.078125 C 1.140625 -0.078125 0.84375 -0.828125 0.84375 -2.28125 C 0.84375 -3.75 1.15625 -4.53125 1.75 -4.53125 Z M 1.75 -4.53125 "
   id="path3228" />
</symbol>
<symbol
   overflow="visible"
   id="textext-89a11a01-5">
<path
   style="stroke:none;"
   d=""
   id="path3231" />
</symbol>
<symbol
   overflow="visible"
   id="textext-89a11a01-6">
<path
   style="stroke:none;"
   d="M 5.71875 -2.28125 L 5.71875 -2.84375 L 0.625 -2.84375 L 0.625 -2.28125 L 5.71875 -2.28125 Z M 5.71875 -2.28125 "
   id="path3234" />
</symbol>
</g>
</defs>
<g
   id="textext-89a11a01-7">
<g
   style="fill:rgb(0%,0%,0%);fill-opacity:1;"
   id="g3237">
  <use
   xlink:href="#textext-89a11a01-1"
   x="223.93"
   y="134.765"
   id="use3239" />
</g>
<g
   style="fill:rgb(0%,0%,0%);fill-opacity:1;"
   id="g3241">
  <use
   xlink:href="#textext-89a11a01-4"
   x="228.354"
   y="136.259"
   id="use3243" />
</g>
<g
   style="fill:rgb(0%,0%,0%);fill-opacity:1;"
   id="g3245">
  <use
   xlink:href="#textext-89a11a01-6"
   x="234.553"
   y="134.765"
   id="use3247" />
</g>
<g
   style="fill:rgb(0%,0%,0%);fill-opacity:1;"
   id="g3249">
  <use
   xlink:href="#textext-89a11a01-2"
   x="243.103"
   y="134.765"
   id="use3251" />
</g>
<g
   style="fill:rgb(0%,0%,0%);fill-opacity:1;"
   id="g3253">
  <use
   xlink:href="#textext-89a11a01-4"
   x="245.872"
   y="136.259"
   id="use3255" />
</g>
</g>
</g><g
       id="g3431"
       transform="matrix(1.2,0,0,-1.2,-107.78371,176.76778)"
       ns0:preamble="/home/sriranga/Desktop/TIFR/package.tex"
       ns0:text="$x_{0}+t_{0}$"><defs
   id="defs3433">
<g
   id="g3435">
<symbol
   id="textext-45140092-0"
   overflow="visible">
<path
   id="path3438"
   d=""
   style="stroke:none;" />
</symbol>
<symbol
   id="textext-45140092-1"
   overflow="visible">
<path
   id="path3441"
   d="M 4 -1.109375 C 3.921875 -1.015625 3.875 -0.953125 3.78125 -0.84375 C 3.5625 -0.53125 3.4375 -0.4375 3.328125 -0.4375 C 3.1875 -0.4375 3.09375 -0.5625 3.015625 -0.84375 C 3 -0.921875 2.984375 -0.984375 2.984375 -1.015625 C 2.734375 -2.03125 2.625 -2.484375 2.625 -2.625 C 3.0625 -3.40625 3.421875 -3.84375 3.59375 -3.84375 C 3.65625 -3.84375 3.734375 -3.8125 3.84375 -3.765625 C 3.953125 -3.6875 4.03125 -3.671875 4.109375 -3.671875 C 4.3125 -3.671875 4.453125 -3.8125 4.453125 -4.03125 C 4.453125 -4.234375 4.28125 -4.390625 4.046875 -4.390625 C 3.609375 -4.390625 3.234375 -4.03125 2.546875 -2.96875 L 2.4375 -3.515625 C 2.296875 -4.203125 2.1875 -4.390625 1.90625 -4.390625 C 1.6875 -4.390625 1.359375 -4.3125 0.75 -4.109375 L 0.640625 -4.0625 L 0.671875 -3.921875 C 1.0625 -4 1.140625 -4.03125 1.234375 -4.03125 C 1.484375 -4.03125 1.546875 -3.9375 1.6875 -3.34375 L 1.96875 -2.109375 L 1.15625 -0.953125 C 0.953125 -0.640625 0.75 -0.46875 0.640625 -0.46875 C 0.59375 -0.46875 0.484375 -0.5 0.390625 -0.5625 C 0.265625 -0.625 0.15625 -0.65625 0.0625 -0.65625 C -0.125 -0.65625 -0.265625 -0.515625 -0.265625 -0.3125 C -0.265625 -0.046875 -0.0625 0.109375 0.234375 0.109375 C 0.53125 0.109375 0.65625 0.015625 1.15625 -0.59375 C 1.421875 -0.90625 1.640625 -1.171875 2.046875 -1.75 L 2.359375 -0.5625 C 2.484375 -0.046875 2.609375 0.109375 2.9375 0.109375 C 3.3125 0.109375 3.5625 -0.125 4.140625 -1.03125 L 4 -1.109375 Z M 4 -1.109375 "
   style="stroke:none;" />
</symbol>
<symbol
   id="textext-45140092-2"
   overflow="visible">
<path
   id="path3444"
   d="M 2.953125 -4.265625 L 2.15625 -4.265625 L 2.4375 -5.296875 C 2.4375 -5.3125 2.4375 -5.328125 2.4375 -5.34375 C 2.4375 -5.40625 2.40625 -5.4375 2.359375 -5.4375 C 2.296875 -5.4375 2.265625 -5.4375 2.21875 -5.359375 C 1.828125 -4.84375 1.203125 -4.34375 0.890625 -4.25 C 0.640625 -4.171875 0.5625 -4.109375 0.5625 -4 C 0.5625 -4 0.5625 -3.984375 0.578125 -3.953125 L 1.3125 -3.953125 L 0.59375 -1.203125 C 0.578125 -1.109375 0.5625 -1.09375 0.53125 -1 C 0.453125 -0.703125 0.375 -0.34375 0.375 -0.265625 C 0.375 -0.046875 0.578125 0.109375 0.84375 0.109375 C 1.3125 0.109375 1.640625 -0.171875 2.265625 -1.09375 L 2.140625 -1.171875 C 1.640625 -0.53125 1.484375 -0.375 1.328125 -0.375 C 1.234375 -0.375 1.171875 -0.453125 1.171875 -0.578125 C 1.171875 -0.59375 1.171875 -0.59375 1.1875 -0.625 L 2.0625 -3.953125 L 2.90625 -3.953125 L 2.953125 -4.265625 Z M 2.953125 -4.265625 "
   style="stroke:none;" />
</symbol>
<symbol
   id="textext-45140092-3"
   overflow="visible">
<path
   id="path3447"
   d=""
   style="stroke:none;" />
</symbol>
<symbol
   id="textext-45140092-4"
   overflow="visible">
<path
   id="path3450"
   d="M 1.765625 -4.703125 C 1.390625 -4.703125 1.09375 -4.59375 0.84375 -4.34375 C 0.4375 -3.953125 0.171875 -3.15625 0.171875 -2.34375 C 0.171875 -1.578125 0.390625 -0.765625 0.71875 -0.375 C 0.984375 -0.0625 1.34375 0.09375 1.734375 0.09375 C 2.09375 0.09375 2.390625 -0.015625 2.640625 -0.265625 C 3.046875 -0.640625 3.3125 -1.453125 3.3125 -2.296875 C 3.3125 -3.734375 2.6875 -4.703125 1.765625 -4.703125 Z M 1.75 -4.53125 C 2.328125 -4.53125 2.640625 -3.75 2.640625 -2.28125 C 2.640625 -0.828125 2.34375 -0.078125 1.734375 -0.078125 C 1.140625 -0.078125 0.84375 -0.828125 0.84375 -2.28125 C 0.84375 -3.75 1.15625 -4.53125 1.75 -4.53125 Z M 1.75 -4.53125 "
   style="stroke:none;" />
</symbol>
<symbol
   id="textext-45140092-5"
   overflow="visible">
<path
   id="path3453"
   d=""
   style="stroke:none;" />
</symbol>
<symbol
   id="textext-45140092-6"
   overflow="visible">
<path
   id="path3456"
   d="M 5.71875 -2.28125 L 5.71875 -2.84375 L 3.453125 -2.84375 L 3.453125 -5.09375 L 2.890625 -5.09375 L 2.890625 -2.84375 L 0.625 -2.84375 L 0.625 -2.28125 L 2.890625 -2.28125 L 2.890625 0 L 3.453125 0 L 3.453125 -2.28125 L 5.71875 -2.28125 Z M 5.71875 -2.28125 "
   style="stroke:none;" />
</symbol>
</g>
</defs>
<g
   id="textext-45140092-7">
<g
   id="g3459"
   style="fill:rgb(0%,0%,0%);fill-opacity:1;">
  <use
   id="use3461"
   y="134.765"
   x="223.93"
   xlink:href="#textext-45140092-1" />
</g>
<g
   id="g3463"
   style="fill:rgb(0%,0%,0%);fill-opacity:1;">
  <use
   id="use3465"
   y="136.259"
   x="228.354"
   xlink:href="#textext-45140092-4" />
</g>
<g
   id="g3467"
   style="fill:rgb(0%,0%,0%);fill-opacity:1;">
  <use
   id="use3469"
   y="134.765"
   x="234.553"
   xlink:href="#textext-45140092-6" />
</g>
<g
   id="g3471"
   style="fill:rgb(0%,0%,0%);fill-opacity:1;">
  <use
   id="use3473"
   y="134.765"
   x="243.103"
   xlink:href="#textext-45140092-2" />
</g>
<g
   id="g3475"
   style="fill:rgb(0%,0%,0%);fill-opacity:1;">
  <use
   id="use3477"
   y="136.259"
   x="245.872"
   xlink:href="#textext-45140092-4" />
</g>
</g>
</g></g></svg>