<?xml version="1.0" encoding="UTF-8" standalone="no"?>
<!-- Created with Inkscape (http://www.inkscape.org/) -->

<svg
   xmlns:ns0="http://www.iki.fi/pav/software/textext/"
   xmlns:dc="http://purl.org/dc/elements/1.1/"
   xmlns:cc="http://creativecommons.org/ns#"
   xmlns:rdf="http://www.w3.org/1999/02/22-rdf-syntax-ns#"
   xmlns:svg="http://www.w3.org/2000/svg"
   xmlns="http://www.w3.org/2000/svg"
   xmlns:xlink="http://www.w3.org/1999/xlink"
   xmlns:sodipodi="http://sodipodi.sourceforge.net/DTD/sodipodi-0.dtd"
   xmlns:inkscape="http://www.inkscape.org/namespaces/inkscape"
   id="svg2"
   version="1.1"
   inkscape:version="0.47 r22583"
   width="212.59842"
   height="141.73228"
   xml:space="preserve"
   sodipodi:docname="14.svg"><sodipodi:namedview
     pagecolor="#ffffff"
     bordercolor="#666666"
     borderopacity="1"
     objecttolerance="10"
     gridtolerance="10"
     guidetolerance="10"
     inkscape:pageopacity="0"
     inkscape:pageshadow="2"
     inkscape:window-width="1024"
     inkscape:window-height="689"
     id="namedview4"
     showgrid="false"
     units="cm"
     inkscape:zoom="1.7938242"
     inkscape:cx="120.83768"
     inkscape:cy="55.159349"
     inkscape:window-x="0"
     inkscape:window-y="27"
     inkscape:window-maximized="1"
     inkscape:current-layer="g12" /><metadata
     id="metadata8"><rdf:RDF><cc:Work
         rdf:about=""><dc:format>image/svg+xml</dc:format><dc:type
           rdf:resource="http://purl.org/dc/dcmitype/StillImage" /><dc:title /></cc:Work></rdf:RDF></metadata><defs
     id="defs6"><inkscape:perspective
       sodipodi:type="inkscape:persp3d"
       inkscape:vp_x="0 : 0.5 : 1"
       inkscape:vp_y="0 : 1000 : 0"
       inkscape:vp_z="1 : 0.5 : 1"
       inkscape:persp3d-origin="0.5 : 0.33333333 : 1"
       id="perspective10" /></defs><g
     id="g12"
     inkscape:groupmode="layer"
     inkscape:label="ink_ext_XXXXXX"
     transform="matrix(1.25,0,0,-1.25,0,141.73358)"><rect
       style="fill:none;stroke:#050505;stroke-width:1.25;stroke-linecap:round;stroke-linejoin:miter;stroke-miterlimit:4;stroke-opacity:1;stroke-dasharray:none;stroke-dashoffset:0"
       id="rect2824"
       width="131.5625"
       height="89.194916"
       x="37.907841"
       y="24.106489"
       transform="matrix(0.8,0,0,-0.8,0,113.38686)" /><path
       style="color:#000000;fill:none;stroke:#000000;stroke-width:1px;stroke-linecap:butt;stroke-linejoin:miter;stroke-miterlimit:4;stroke-opacity:1;stroke-dasharray:none;stroke-dashoffset:0;marker:none;visibility:visible;display:inline;overflow:visible;enable-background:accumulate"
       d="M 39.022775,24.663958 C 50.297923,45.79441 149.83605,115.38054 170.58528,112.74394"
       id="path2826"
       transform="matrix(0.8,0,0,-0.8,0,113.38686)"
       sodipodi:nodetypes="cc" /><g
       id="g2936"
       transform="matrix(1.1,0,0,-1.1,-230.56886,240.37802)"
       ns0:preamble="/home/sriranga/Desktop/TIFR/package.tex"
       ns0:text="$M$"><defs
   id="defs2938">
<g
   id="g2940">
<symbol
   id="textext-2c9b7b72-0"
   overflow="visible">
<path
   id="path2943"
   d=""
   style="stroke:none;" />
</symbol>
<symbol
   id="textext-2c9b7b72-1"
   overflow="visible">
<path
   id="path2946"
   d="M 8.703125 -6.515625 L 7.03125 -6.515625 L 3.6875 -1.59375 L 3.140625 -6.515625 L 1.328125 -6.515625 L 1.328125 -6.34375 C 1.828125 -6.3125 2.078125 -6.203125 2.078125 -5.984375 C 2.078125 -5.90625 2.03125 -5.75 1.96875 -5.578125 C 1.953125 -5.53125 1.921875 -5.421875 1.890625 -5.28125 C 1.875 -5.25 1.859375 -5.203125 1.859375 -5.15625 L 0.796875 -1.453125 C 0.484375 -0.421875 0.34375 -0.21875 -0.171875 -0.15625 L -0.171875 0 L 1.796875 0 L 1.796875 -0.15625 C 1.28125 -0.203125 1.09375 -0.3125 1.09375 -0.59375 C 1.09375 -0.703125 1.125 -0.953125 1.171875 -1.125 L 2.359375 -5.4375 L 2.953125 0 L 3.125 0 L 6.890625 -5.59375 L 5.609375 -0.90625 C 5.4375 -0.375 5.25 -0.234375 4.59375 -0.15625 L 4.59375 0 L 7.3125 0 L 7.3125 -0.15625 C 6.640625 -0.21875 6.546875 -0.28125 6.546875 -0.59375 C 6.546875 -0.75 6.5625 -0.890625 6.65625 -1.203125 L 7.890625 -5.609375 C 8.0625 -6.203125 8.109375 -6.265625 8.703125 -6.34375 L 8.703125 -6.515625 Z M 8.703125 -6.515625 "
   style="stroke:none;" />
</symbol>
</g>
</defs>
<g
   id="textext-2c9b7b72-2">
<g
   id="g2949"
   style="fill:rgb(0%,0%,0%);fill-opacity:1;">
  <use
   id="use2951"
   y="134.765"
   x="223.93"
   xlink:href="#textext-2c9b7b72-1" />
</g>
</g>
</g><g
       ns0:text="$-(x_{0},y_{0})$"
       ns0:preamble="/home/sriranga/Desktop/TIFR/package.tex"
       transform="matrix(1.1,0,0,-1.1,-155.82903,215.84941)"
       id="g3049"><defs
   id="defs3051">
<g
   id="g3053">
<symbol
   overflow="visible"
   id="textext-2c41a6fc-0">
<path
   style="stroke:none;"
   d=""
   id="path3056" />
</symbol>
<symbol
   overflow="visible"
   id="textext-2c41a6fc-1">
<path
   style="stroke:none;"
   d="M 5.71875 -2.28125 L 5.71875 -2.84375 L 0.625 -2.84375 L 0.625 -2.28125 L 5.71875 -2.28125 Z M 5.71875 -2.28125 "
   id="path3059" />
</symbol>
<symbol
   overflow="visible"
   id="textext-2c41a6fc-2">
<path
   style="stroke:none;"
   d=""
   id="path3062" />
</symbol>
<symbol
   overflow="visible"
   id="textext-2c41a6fc-3">
<path
   style="stroke:none;"
   d="M 2.9375 -6.734375 C 2.203125 -6.265625 1.90625 -6 1.53125 -5.546875 C 0.828125 -4.671875 0.484375 -3.671875 0.484375 -2.515625 C 0.484375 -1.25 0.84375 -0.265625 1.71875 0.75 C 2.140625 1.21875 2.390625 1.453125 2.90625 1.765625 L 3.03125 1.609375 C 2.234375 0.984375 1.953125 0.625 1.6875 -0.125 C 1.453125 -0.78125 1.328125 -1.546875 1.328125 -2.546875 C 1.328125 -3.59375 1.46875 -4.40625 1.734375 -5.03125 C 2.015625 -5.640625 2.3125 -6 3.03125 -6.578125 L 2.9375 -6.734375 Z M 2.9375 -6.734375 "
   id="path3065" />
</symbol>
<symbol
   overflow="visible"
   id="textext-2c41a6fc-4">
<path
   style="stroke:none;"
   d="M 0.375 1.765625 C 1.109375 1.28125 1.421875 1.03125 1.78125 0.5625 C 2.5 -0.296875 2.84375 -1.296875 2.84375 -2.46875 C 2.84375 -3.734375 2.46875 -4.703125 1.59375 -5.71875 C 1.1875 -6.203125 0.921875 -6.421875 0.40625 -6.734375 L 0.296875 -6.578125 C 1.09375 -5.953125 1.359375 -5.609375 1.640625 -4.859375 C 1.875 -4.1875 1.984375 -3.421875 1.984375 -2.4375 C 1.984375 -1.390625 1.859375 -0.5625 1.578125 0.046875 C 1.3125 0.671875 1 1.03125 0.296875 1.609375 L 0.375 1.765625 Z M 0.375 1.765625 "
   id="path3068" />
</symbol>
<symbol
   overflow="visible"
   id="textext-2c41a6fc-5">
<path
   style="stroke:none;"
   d=""
   id="path3071" />
</symbol>
<symbol
   overflow="visible"
   id="textext-2c41a6fc-6">
<path
   style="stroke:none;"
   d="M 4 -1.109375 C 3.921875 -1.015625 3.875 -0.953125 3.78125 -0.84375 C 3.5625 -0.53125 3.4375 -0.4375 3.328125 -0.4375 C 3.1875 -0.4375 3.09375 -0.5625 3.015625 -0.84375 C 3 -0.921875 2.984375 -0.984375 2.984375 -1.015625 C 2.734375 -2.03125 2.625 -2.484375 2.625 -2.625 C 3.0625 -3.40625 3.421875 -3.84375 3.59375 -3.84375 C 3.65625 -3.84375 3.734375 -3.8125 3.84375 -3.765625 C 3.953125 -3.6875 4.03125 -3.671875 4.109375 -3.671875 C 4.3125 -3.671875 4.453125 -3.8125 4.453125 -4.03125 C 4.453125 -4.234375 4.28125 -4.390625 4.046875 -4.390625 C 3.609375 -4.390625 3.234375 -4.03125 2.546875 -2.96875 L 2.4375 -3.515625 C 2.296875 -4.203125 2.1875 -4.390625 1.90625 -4.390625 C 1.6875 -4.390625 1.359375 -4.3125 0.75 -4.109375 L 0.640625 -4.0625 L 0.671875 -3.921875 C 1.0625 -4 1.140625 -4.03125 1.234375 -4.03125 C 1.484375 -4.03125 1.546875 -3.9375 1.6875 -3.34375 L 1.96875 -2.109375 L 1.15625 -0.953125 C 0.953125 -0.640625 0.75 -0.46875 0.640625 -0.46875 C 0.59375 -0.46875 0.484375 -0.5 0.390625 -0.5625 C 0.265625 -0.625 0.15625 -0.65625 0.0625 -0.65625 C -0.125 -0.65625 -0.265625 -0.515625 -0.265625 -0.3125 C -0.265625 -0.046875 -0.0625 0.109375 0.234375 0.109375 C 0.53125 0.109375 0.65625 0.015625 1.15625 -0.59375 C 1.421875 -0.90625 1.640625 -1.171875 2.046875 -1.75 L 2.359375 -0.5625 C 2.484375 -0.046875 2.609375 0.109375 2.9375 0.109375 C 3.3125 0.109375 3.5625 -0.125 4.140625 -1.03125 L 4 -1.109375 Z M 4 -1.109375 "
   id="path3074" />
</symbol>
<symbol
   overflow="visible"
   id="textext-2c41a6fc-7">
<path
   style="stroke:none;"
   d="M 0.15625 -3.984375 C 0.28125 -4.015625 0.34375 -4.03125 0.453125 -4.03125 C 1.03125 -4.03125 1.171875 -3.78125 1.640625 -2.0625 C 1.796875 -1.421875 2.046875 -0.25 2.046875 -0.078125 C 2.046875 0.078125 1.984375 0.234375 1.828125 0.421875 C 1.53125 0.828125 1.328125 1.09375 1.21875 1.203125 C 1 1.421875 0.890625 1.5 0.75 1.5 C 0.703125 1.5 0.625 1.46875 0.515625 1.390625 C 0.375 1.28125 0.265625 1.21875 0.15625 1.21875 C -0.0625 1.21875 -0.234375 1.390625 -0.234375 1.609375 C -0.234375 1.859375 -0.015625 2.046875 0.265625 2.046875 C 0.90625 2.046875 2.21875 0.5625 3.296875 -1.421875 C 3.96875 -2.640625 4.25 -3.359375 4.25 -3.84375 C 4.25 -4.140625 4 -4.390625 3.703125 -4.390625 C 3.46875 -4.390625 3.3125 -4.25 3.3125 -4.03125 C 3.3125 -3.875 3.390625 -3.765625 3.59375 -3.640625 C 3.78125 -3.53125 3.84375 -3.4375 3.84375 -3.296875 C 3.84375 -2.90625 3.484375 -2.125 2.625 -0.71875 L 2.4375 -1.875 C 2.28125 -2.75 1.71875 -4.390625 1.578125 -4.390625 L 1.53125 -4.390625 C 1.53125 -4.390625 1.484375 -4.390625 1.453125 -4.390625 C 1.359375 -4.375 1 -4.3125 0.46875 -4.21875 C 0.421875 -4.203125 0.296875 -4.171875 0.15625 -4.15625 L 0.15625 -3.984375 Z M 0.15625 -3.984375 "
   id="path3077" />
</symbol>
<symbol
   overflow="visible"
   id="textext-2c41a6fc-8">
<path
   style="stroke:none;"
   d=""
   id="path3080" />
</symbol>
<symbol
   overflow="visible"
   id="textext-2c41a6fc-9">
<path
   style="stroke:none;"
   d="M 1.765625 -4.703125 C 1.390625 -4.703125 1.09375 -4.59375 0.84375 -4.34375 C 0.4375 -3.953125 0.171875 -3.15625 0.171875 -2.34375 C 0.171875 -1.578125 0.390625 -0.765625 0.71875 -0.375 C 0.984375 -0.0625 1.34375 0.09375 1.734375 0.09375 C 2.09375 0.09375 2.390625 -0.015625 2.640625 -0.265625 C 3.046875 -0.640625 3.3125 -1.453125 3.3125 -2.296875 C 3.3125 -3.734375 2.6875 -4.703125 1.765625 -4.703125 Z M 1.75 -4.53125 C 2.328125 -4.53125 2.640625 -3.75 2.640625 -2.28125 C 2.640625 -0.828125 2.34375 -0.078125 1.734375 -0.078125 C 1.140625 -0.078125 0.84375 -0.828125 0.84375 -2.28125 C 0.84375 -3.75 1.15625 -4.53125 1.75 -4.53125 Z M 1.75 -4.53125 "
   id="path3083" />
</symbol>
<symbol
   overflow="visible"
   id="textext-2c41a6fc-10">
<path
   style="stroke:none;"
   d=""
   id="path3086" />
</symbol>
<symbol
   overflow="visible"
   id="textext-2c41a6fc-11">
<path
   style="stroke:none;"
   d="M 1.9375 -0.0625 C 1.9375 -0.890625 1.359375 -1.015625 1.140625 -1.015625 C 0.890625 -1.015625 0.5625 -0.875 0.5625 -0.4375 C 0.5625 -0.046875 0.921875 0.0625 1.171875 0.0625 C 1.25 0.0625 1.296875 0.046875 1.328125 0.046875 C 1.359375 0.03125 1.390625 0.015625 1.421875 0.015625 C 1.484375 0.015625 1.5625 0.0625 1.5625 0.15625 C 1.5625 0.34375 1.390625 0.796875 0.734375 1.21875 L 0.828125 1.40625 C 1.125 1.3125 1.9375 0.640625 1.9375 -0.0625 Z M 1.9375 -0.0625 "
   id="path3089" />
</symbol>
</g>
</defs>
<g
   id="textext-2c41a6fc-12">
<g
   style="fill:rgb(0%,0%,0%);fill-opacity:1;"
   id="g3092">
  <use
   xlink:href="#textext-2c41a6fc-1"
   x="223.432"
   y="134.765"
   id="use3094" />
</g>
<g
   style="fill:rgb(0%,0%,0%);fill-opacity:1;"
   id="g3096">
  <use
   xlink:href="#textext-2c41a6fc-3"
   x="229.768"
   y="134.765"
   id="use3098" />
</g>
<g
   style="fill:rgb(0%,0%,0%);fill-opacity:1;"
   id="g3100">
  <use
   xlink:href="#textext-2c41a6fc-6"
   x="233.584"
   y="134.765"
   id="use3102" />
</g>
<g
   style="fill:rgb(0%,0%,0%);fill-opacity:1;"
   id="g3104">
  <use
   xlink:href="#textext-2c41a6fc-9"
   x="238.007"
   y="136.259"
   id="use3106" />
</g>
<g
   style="fill:rgb(0%,0%,0%);fill-opacity:1;"
   id="g3108">
  <use
   xlink:href="#textext-2c41a6fc-11"
   x="241.992"
   y="134.765"
   id="use3110" />
</g>
<g
   style="fill:rgb(0%,0%,0%);fill-opacity:1;"
   id="g3112">
  <use
   xlink:href="#textext-2c41a6fc-7"
   x="246.144"
   y="134.765"
   id="use3114" />
</g>
<g
   style="fill:rgb(0%,0%,0%);fill-opacity:1;"
   id="g3116">
  <use
   xlink:href="#textext-2c41a6fc-9"
   x="250.567"
   y="136.259"
   id="use3118" />
</g>
<g
   style="fill:rgb(0%,0%,0%);fill-opacity:1;"
   id="g3120">
  <use
   xlink:href="#textext-2c41a6fc-4"
   x="254.552"
   y="134.765"
   id="use3122" />
</g>
</g>
</g><g
       id="g3256"
       transform="matrix(1.1,0,0,-1.1,-108.57437,161.88649)"
       ns0:preamble="/home/sriranga/Desktop/TIFR/package.tex"
       ns0:text="$N$"><defs
   id="defs3258">
<g
   id="g3260">
<symbol
   id="textext-94f8c12b-0"
   overflow="visible">
<path
   id="path3263"
   d=""
   style="stroke:none;" />
</symbol>
<symbol
   id="textext-94f8c12b-1"
   overflow="visible">
<path
   id="path3266"
   d="M 7.25 -6.515625 L 5.265625 -6.515625 L 5.265625 -6.34375 C 5.828125 -6.296875 5.96875 -6.203125 5.96875 -5.84375 C 5.96875 -5.71875 5.9375 -5.609375 5.875 -5.40625 C 5.859375 -5.375 5.859375 -5.328125 5.859375 -5.328125 L 4.828125 -1.53125 L 2.765625 -6.515625 L 1.15625 -6.515625 L 1.15625 -6.34375 C 1.625 -6.3125 1.828125 -6.1875 2.015625 -5.796875 L 0.828125 -1.640625 C 0.453125 -0.359375 0.375 -0.234375 -0.203125 -0.15625 L -0.203125 0 L 1.78125 0 L 1.78125 -0.15625 C 1.265625 -0.203125 1.078125 -0.3125 1.078125 -0.59375 C 1.078125 -0.71875 1.109375 -0.921875 1.171875 -1.125 L 2.296875 -5.328125 L 4.59375 0.15625 L 4.78125 0.15625 L 6.203125 -4.859375 C 6.578125 -6.15625 6.625 -6.203125 7.25 -6.34375 L 7.25 -6.515625 Z M 7.25 -6.515625 "
   style="stroke:none;" />
</symbol>
</g>
</defs>
<g
   id="textext-94f8c12b-2">
<g
   id="g3269"
   style="fill:rgb(0%,0%,0%);fill-opacity:1;">
  <use
   id="use3271"
   y="134.765"
   x="223.681"
   xlink:href="#textext-94f8c12b-1" />
</g>
</g>
</g></g></svg>