<?xml version="1.0" encoding="UTF-8" standalone="no"?>
<!-- Created with Inkscape (http://www.inkscape.org/) -->

<svg
   xmlns:ns0="http://www.iki.fi/pav/software/textext/"
   xmlns:dc="http://purl.org/dc/elements/1.1/"
   xmlns:cc="http://creativecommons.org/ns#"
   xmlns:rdf="http://www.w3.org/1999/02/22-rdf-syntax-ns#"
   xmlns:svg="http://www.w3.org/2000/svg"
   xmlns="http://www.w3.org/2000/svg"
   xmlns:xlink="http://www.w3.org/1999/xlink"
   xmlns:sodipodi="http://sodipodi.sourceforge.net/DTD/sodipodi-0.dtd"
   xmlns:inkscape="http://www.inkscape.org/namespaces/inkscape"
   sodipodi:docname="6.svg"
   xml:space="preserve"
   height="212.59842"
   width="283.46457"
   inkscape:version="0.47 r22583"
   version="1.1"
   id="svg2"><sodipodi:namedview
     pagecolor="#ffffff"
     bordercolor="#666666"
     borderopacity="1"
     objecttolerance="10"
     gridtolerance="10"
     guidetolerance="10"
     inkscape:pageopacity="0"
     inkscape:pageshadow="2"
     inkscape:window-width="1024"
     inkscape:window-height="689"
     id="namedview4"
     showgrid="false"
     units="cm"
     inkscape:zoom="1.7938242"
     inkscape:cx="81.040632"
     inkscape:cy="153.15516"
     inkscape:window-x="0"
     inkscape:window-y="27"
     inkscape:window-maximized="1"
     inkscape:current-layer="g12" /><metadata
     id="metadata8"><rdf:RDF><cc:Work
         rdf:about=""><dc:format>image/svg+xml</dc:format><dc:type
           rdf:resource="http://purl.org/dc/dcmitype/StillImage" /><dc:title /></cc:Work></rdf:RDF></metadata><defs
     id="defs6"><inkscape:perspective
       sodipodi:type="inkscape:persp3d"
       inkscape:vp_x="0 : 0.5 : 1"
       inkscape:vp_y="0 : 1000 : 0"
       inkscape:vp_z="1 : 0.5 : 1"
       inkscape:persp3d-origin="0.5 : 0.33333333 : 1"
       id="perspective10" /></defs><g
     id="g12"
     inkscape:groupmode="layer"
     inkscape:label="ink_ext_XXXXXX"
     transform="matrix(1.25,0,0,-1.25,0,212.59972)"><rect
       style="fill:none;stroke:#050505;stroke-width:1.25;stroke-linecap:round;stroke-linejoin:miter;stroke-miterlimit:4;stroke-opacity:1;stroke-dasharray:none;stroke-dashoffset:0"
       id="rect2824"
       width="223.54475"
       height="123.20048"
       x="27.315943"
       y="17.484541"
       transform="matrix(0.8,0,0,-0.8,0,170.07978)" /><path
       style="color:#000000;fill:none;stroke:#000000;stroke-width:1px;stroke-linecap:butt;stroke-linejoin:miter;stroke-miterlimit:4;stroke-opacity:1;stroke-dasharray:none;stroke-dashoffset:0;marker:none;visibility:visible;display:inline;overflow:visible;enable-background:accumulate"
       d="M 22.551852,141.27631 C 106.34088,130.39074 186.81474,95.826996 249.84141,18.205288"
       id="path2826"
       transform="matrix(0.8,0,0,-0.8,0,170.07978)"
       sodipodi:nodetypes="cc" /><g
       id="g3035"
       transform="matrix(1.1,0,0,-1.1,-235.70415,304.3101)"
       ns0:preamble="/home/sriranga/Desktop/TIFR/package.tex"
       ns0:text="$\\varphi$"><defs
   id="defs3037">
<g
   id="g3039">
<symbol
   id="textext-08be5941-0"
   overflow="visible"
   style="overflow:visible">
<path
   id="path3042"
   d=""
   style="stroke:none" />
</symbol>
<symbol
   id="textext-08be5941-1"
   overflow="visible"
   style="overflow:visible">
<path
   id="path3045"
   d="m 5.421875,-3.046875 c 0,-0.609375 -0.140625,-1.34375 -1.125,-1.34375 -1,0 -1.359375,0.765625 -2.15625,3.671875 -0.46875,0 -1.265625,-0.125 -1.265625,-1.109375 0,-1.625 0.875,-2.28125 0.875,-2.40625 0,-0.015625 -0.015625,-0.03125 -0.0625,-0.03125 -0.109375,0 -1.46875,1.015625 -1.46875,2.78125 0,1.0625 1.0625,1.578125 1.6875,1.578125 C 1.5625,1.421875 1.21875,1.9375 1.125,2.0625 l 0.796875,0 0.5,-1.953125 c 1.8125,0 3,-1.53125 3,-3.15625 z m -0.28125,0.25 c 0,0.71875 -0.5625,2.078125 -2.484375,2.078125 l 0.1875,-0.84375 c 0.46875,-2.09375 1.25,-2.203125 1.53125,-2.203125 0.5625,0 0.765625,0.34375 0.765625,0.96875 z m 0,0"
   style="stroke:none" />
</symbol>
</g>
</defs>
<g
   id="textext-08be5941-2">
<g
   id="g3048"
   style="fill:#000000;fill-opacity:1">
  <use
   id="use3050"
   y="134.765"
   x="223.43201"
   xlink:href="#textext-08be5941-1"
   width="283.46457"
   height="212.59842" />
</g>
</g>
</g><g
       ns0:text="$B$"
       ns0:preamble="/home/sriranga/Desktop/TIFR/package.tex"
       transform="matrix(1.1,0,0,-1.1,-41.01863,299.69264)"
       id="g3156"><defs
   id="defs3158">
<g
   id="g3160">
<symbol
   overflow="visible"
   id="textext-269f4cb1-0">
<path
   style="stroke:none;"
   d=""
   id="path3163" />
</symbol>
<symbol
   overflow="visible"
   id="textext-269f4cb1-1">
<path
   style="stroke:none;"
   d="M -0.078125 0 L 2.734375 0 C 4.296875 0 5.375 -0.8125 5.375 -2 C 5.375 -2.359375 5.25 -2.71875 5.03125 -2.9375 C 4.828125 -3.15625 4.640625 -3.28125 4.109375 -3.5 C 4.828125 -3.671875 5.109375 -3.78125 5.4375 -4.0625 C 5.71875 -4.3125 5.859375 -4.640625 5.859375 -5.046875 C 5.859375 -5.984375 5.15625 -6.515625 3.875 -6.515625 L 1.296875 -6.515625 L 1.296875 -6.34375 C 1.90625 -6.296875 2.0625 -6.21875 2.0625 -5.9375 C 2.0625 -5.796875 2.03125 -5.546875 1.953125 -5.296875 L 0.734375 -0.890625 C 0.546875 -0.3125 0.484375 -0.265625 -0.078125 -0.15625 L -0.078125 0 Z M 2.375 -3.296875 C 3.015625 -3.296875 3.4375 -3.265625 3.640625 -3.1875 C 4.046875 -3.015625 4.296875 -2.578125 4.296875 -2.03125 C 4.296875 -0.953125 3.5625 -0.296875 2.34375 -0.296875 C 1.921875 -0.296875 1.703125 -0.453125 1.703125 -0.71875 C 1.703125 -0.84375 1.828125 -1.3125 2.046875 -2.109375 C 2.1875 -2.5625 2.25 -2.796875 2.375 -3.296875 Z M 3.125 -5.9375 C 3.1875 -6.15625 3.296875 -6.203125 3.6875 -6.203125 C 4.484375 -6.203125 4.859375 -5.875 4.859375 -5.140625 C 4.859375 -4.5625 4.609375 -4.125 4.1875 -3.890625 C 3.84375 -3.6875 3.375 -3.625 2.46875 -3.625 L 3.125 -5.9375 Z M 3.125 -5.9375 "
   id="path3166" />
</symbol>
</g>
</defs>
<g
   id="textext-269f4cb1-2">
<g
   style="fill:rgb(0%,0%,0%);fill-opacity:1;"
   id="g3169">
  <use
   xlink:href="#textext-269f4cb1-1"
   x="223.781"
   y="134.765"
   id="use3171" />
</g>
</g>
</g><g
       id="g3277"
       transform="matrix(1.1,0,0,-1.1,-41.357222,197.29264)"
       ns0:preamble="/home/sriranga/Desktop/TIFR/package.tex"
       ns0:text="$Q$"><defs
   id="defs3279">
<g
   id="g3281">
<symbol
   id="textext-65ac3108-0"
   overflow="visible">
<path
   id="path3284"
   d=""
   style="stroke:none;" />
</symbol>
<symbol
   id="textext-65ac3108-1"
   overflow="visible">
<path
   id="path3287"
   d="M 2.78125 0.15625 C 3.546875 0.109375 3.921875 0.015625 4.484375 -0.296875 C 5.96875 -1.125 6.96875 -2.734375 6.96875 -4.3125 C 6.96875 -5.65625 6.015625 -6.640625 4.6875 -6.640625 C 3.890625 -6.640625 2.984375 -6.234375 2.1875 -5.515625 C 1.1875 -4.578125 0.59375 -3.375 0.59375 -2.203125 C 0.59375 -1.390625 0.890625 -0.703125 1.4375 -0.296875 C 1.6875 -0.078125 1.90625 0.015625 2.359375 0.125 C 1.453125 0.921875 1.359375 1 0.59375 1.53125 L 0.6875 1.6875 C 1.0625 1.46875 1.453125 1.375 1.828125 1.375 C 2.03125 1.375 2.328125 1.4375 2.765625 1.5625 C 3.375 1.71875 3.90625 1.828125 4.28125 1.828125 C 4.828125 1.828125 5.515625 1.5625 6.03125 1.171875 C 6.265625 0.984375 6.40625 0.84375 6.65625 0.484375 L 6.515625 0.375 C 5.953125 0.953125 5.546875 1.140625 4.828125 1.140625 C 4.5625 1.140625 4.359375 1.109375 3.59375 0.921875 C 3.078125 0.796875 2.609375 0.703125 2.546875 0.71875 C 2.515625 0.734375 2.5 0.734375 2.5 0.734375 L 2.25 0.734375 L 2.78125 0.15625 Z M 4.640625 -6.3125 C 5.4375 -6.3125 5.921875 -5.734375 5.921875 -4.78125 C 5.921875 -3.734375 5.453125 -2.265625 4.8125 -1.34375 C 4.265625 -0.5625 3.65625 -0.171875 2.921875 -0.171875 C 2.109375 -0.171875 1.640625 -0.78125 1.640625 -1.828125 C 1.640625 -2.765625 2.140625 -4.25 2.734375 -5.125 C 3.296875 -5.9375 3.90625 -6.3125 4.640625 -6.3125 Z M 4.640625 -6.3125 "
   style="stroke:none;" />
</symbol>
</g>
</defs>
<g
   id="textext-65ac3108-2">
<g
   id="g3290"
   style="fill:rgb(0%,0%,0%);fill-opacity:1;">
  <use
   id="use3292"
   y="134.765"
   x="223.681"
   xlink:href="#textext-65ac3108-1" />
</g>
</g>
</g><g
       ns0:text="$A$"
       ns0:preamble="/home/sriranga/Desktop/TIFR/package.tex"
       transform="matrix(1.1,0,0,-1.1,-236.66898,201.43704)"
       id="g3398"><defs
   id="defs3400">
<g
   id="g3402">
<symbol
   overflow="visible"
   id="textext-be6c6efc-0">
<path
   style="stroke:none;"
   d=""
   id="path3405" />
</symbol>
<symbol
   overflow="visible"
   id="textext-be6c6efc-1">
<path
   style="stroke:none;"
   d="M 5.625 -0.15625 C 5.046875 -0.203125 5 -0.296875 4.859375 -1.015625 L 3.921875 -6.65625 L 3.671875 -6.65625 L 0.78125 -1.671875 C -0.015625 -0.34375 -0.109375 -0.234375 -0.515625 -0.15625 L -0.515625 0 L 1.359375 0 L 1.359375 -0.15625 C 0.84375 -0.203125 0.765625 -0.265625 0.765625 -0.515625 C 0.765625 -0.703125 0.796875 -0.78125 0.96875 -1.125 L 1.53125 -2.25 L 3.734375 -2.25 L 3.921875 -0.953125 C 3.9375 -0.859375 3.953125 -0.765625 3.953125 -0.6875 C 3.953125 -0.3125 3.8125 -0.21875 3.171875 -0.15625 L 3.171875 0 L 5.625 0 L 5.625 -0.15625 Z M 1.75 -2.609375 L 3.234375 -5.203125 L 3.671875 -2.609375 L 1.75 -2.609375 Z M 1.75 -2.609375 "
   id="path3408" />
</symbol>
</g>
</defs>
<g
   id="textext-be6c6efc-2">
<g
   style="fill:rgb(0%,0%,0%);fill-opacity:1;"
   id="g3411">
  <use
   xlink:href="#textext-be6c6efc-1"
   x="223.681"
   y="134.765"
   id="use3413" />
</g>
</g>
</g><g
       id="g3519"
       transform="matrix(1.1,0,0,-1.1,-163.81807,253.19568)"
       ns0:preamble="/home/sriranga/Desktop/TIFR/package.tex"
       ns0:text="$\\Omega$"><defs
   id="defs3521">
<g
   id="g3523">
<symbol
   id="textext-665e5a42-0"
   overflow="visible">
<path
   id="path3526"
   d=""
   style="stroke:none;" />
</symbol>
<symbol
   id="textext-665e5a42-1"
   overflow="visible">
<path
   id="path3529"
   d="M 7.125 0 L 7.125 -1.53125 L 6.9375 -1.53125 C 6.921875 -1.015625 6.625 -0.90625 6.171875 -0.90625 L 4.8125 -0.90625 L 4.859375 -1.234375 C 6.125 -1.609375 6.890625 -2.59375 6.890625 -3.921875 C 6.890625 -5.71875 5.4375 -6.75 3.734375 -6.75 C 2.046875 -6.75 0.53125 -5.671875 0.53125 -3.875 C 0.53125 -2.65625 1.328125 -1.46875 2.578125 -1.234375 L 2.59375 -0.90625 L 1.265625 -0.90625 C 0.78125 -0.90625 0.515625 -1 0.46875 -1.53125 L 0.296875 -1.53125 L 0.296875 0 L 3.015625 0 L 2.921875 -1.46875 C 1.890625 -1.84375 1.671875 -2.875 1.671875 -3.859375 C 1.671875 -5.078125 2.328125 -6.40625 3.71875 -6.40625 C 5.15625 -6.40625 5.765625 -5.03125 5.765625 -3.78125 C 5.765625 -2.828125 5.546875 -1.796875 4.515625 -1.46875 L 4.390625 0 L 7.125 0 Z M 7.125 0 "
   style="stroke:none;" />
</symbol>
</g>
</defs>
<g
   id="textext-665e5a42-2">
<g
   id="g3532"
   style="fill:rgb(0%,0%,0%);fill-opacity:1;">
  <use
   id="use3534"
   y="134.765"
   x="223.432"
   xlink:href="#textext-665e5a42-1" />
</g>
</g>
</g></g></svg>