<?xml version="1.0" encoding="UTF-8" standalone="no"?>
<!-- Created with Inkscape (http://www.inkscape.org/) -->

<svg
   xmlns:ns0="http://www.iki.fi/pav/software/textext/"
   xmlns:dc="http://purl.org/dc/elements/1.1/"
   xmlns:cc="http://creativecommons.org/ns#"
   xmlns:rdf="http://www.w3.org/1999/02/22-rdf-syntax-ns#"
   xmlns:svg="http://www.w3.org/2000/svg"
   xmlns="http://www.w3.org/2000/svg"
   xmlns:xlink="http://www.w3.org/1999/xlink"
   xmlns:sodipodi="http://sodipodi.sourceforge.net/DTD/sodipodi-0.dtd"
   xmlns:inkscape="http://www.inkscape.org/namespaces/inkscape"
   id="svg2"
   version="1.1"
   inkscape:version="0.47 r22583"
   width="283.46457"
   height="212.59842"
   xml:space="preserve"
   sodipodi:docname="9.svg"><sodipodi:namedview
     pagecolor="#ffffff"
     bordercolor="#666666"
     borderopacity="1"
     objecttolerance="10"
     gridtolerance="10"
     guidetolerance="10"
     inkscape:pageopacity="0"
     inkscape:pageshadow="2"
     inkscape:window-width="1024"
     inkscape:window-height="689"
     id="namedview4"
     showgrid="false"
     units="cm"
     inkscape:zoom="1.7938242"
     inkscape:cx="172.0999"
     inkscape:cy="81.089343"
     inkscape:window-x="0"
     inkscape:window-y="27"
     inkscape:window-maximized="1"
     inkscape:current-layer="g12" /><metadata
     id="metadata8"><rdf:RDF><cc:Work
         rdf:about=""><dc:format>image/svg+xml</dc:format><dc:type
           rdf:resource="http://purl.org/dc/dcmitype/StillImage" /><dc:title /></cc:Work></rdf:RDF></metadata><defs
     id="defs6"><inkscape:perspective
       sodipodi:type="inkscape:persp3d"
       inkscape:vp_x="0 : 0.5 : 1"
       inkscape:vp_y="0 : 1000 : 0"
       inkscape:vp_z="1 : 0.5 : 1"
       inkscape:persp3d-origin="0.5 : 0.33333333 : 1"
       id="perspective10" /></defs><g
     id="g12"
     inkscape:groupmode="layer"
     inkscape:label="ink_ext_XXXXXX"
     transform="matrix(1.25,0,0,-1.25,0,212.59972)"><rect
       style="fill:none;stroke:#050505;stroke-width:1.25;stroke-linecap:round;stroke-linejoin:miter;stroke-miterlimit:4;stroke-opacity:1;stroke-dasharray:none;stroke-dashoffset:0"
       id="rect2824"
       width="202.36096"
       height="118.18327"
       x="45.712395"
       y="33.651119"
       transform="matrix(0.8,0,0,-0.8,0,170.07978)" /><rect
       transform="scale(1,-1)"
       y="-96.777527"
       x="36.569916"
       height="48.165264"
       width="61.098511"
       id="rect2826"
       style="fill:none;stroke:#050505;stroke-width:1;stroke-linecap:round;stroke-linejoin:miter;stroke-miterlimit:4;stroke-opacity:1;stroke-dasharray:none;stroke-dashoffset:0" /><g
       id="g3052"
       transform="matrix(1.1,0,0,-1.1,-223.53008,287.09216)"
       ns0:preamble="/home/sriranga/Desktop/TIFR/package.tex"
       ns0:text="$C$"><defs
   id="defs3054">
<g
   id="g3056">
<symbol
   id="textext-0c287746-0"
   overflow="visible">
<path
   id="path3059"
   d=""
   style="stroke:none;" />
</symbol>
<symbol
   id="textext-0c287746-1"
   overflow="visible">
<path
   id="path3062"
   d="M 6.5 -4.640625 L 6.875 -6.625 L 6.65625 -6.625 C 6.578125 -6.453125 6.484375 -6.40625 6.28125 -6.40625 C 6.203125 -6.40625 6.078125 -6.421875 5.875 -6.46875 C 5.421875 -6.578125 5.03125 -6.640625 4.703125 -6.640625 C 2.578125 -6.640625 0.65625 -4.640625 0.65625 -2.421875 C 0.65625 -0.890625 1.734375 0.171875 3.265625 0.171875 C 4.28125 0.171875 5.078125 -0.265625 5.984375 -1.3125 L 5.8125 -1.453125 C 4.921875 -0.5625 4.34375 -0.265625 3.515625 -0.265625 C 2.40625 -0.265625 1.78125 -1.03125 1.78125 -2.3125 C 1.78125 -3.5 2.25 -4.703125 3.03125 -5.515625 C 3.515625 -6 4.140625 -6.28125 4.796875 -6.28125 C 5.71875 -6.28125 6.21875 -5.734375 6.3125 -4.671875 L 6.5 -4.640625 Z M 6.5 -4.640625 "
   style="stroke:none;" />
</symbol>
</g>
</defs>
<g
   id="textext-0c287746-2">
<g
   id="g3065"
   style="fill:rgb(0%,0%,0%);fill-opacity:1;">
  <use
   id="use3067"
   y="134.765"
   x="223.183"
   xlink:href="#textext-0c287746-1" />
</g>
</g>
</g><g
       ns0:text="$(0,y)$"
       ns0:preamble="/home/sriranga/Desktop/TIFR/package.tex"
       transform="matrix(1.1,0,0,-1.1,-239.04237,241.94299)"
       id="g3296"><defs
   id="defs3298">
<g
   id="g3300">
<symbol
   overflow="visible"
   id="textext-dfef442a-0">
<path
   style="stroke:none;"
   d=""
   id="path3303" />
</symbol>
<symbol
   overflow="visible"
   id="textext-dfef442a-1">
<path
   style="stroke:none;"
   d="M 2.9375 -6.734375 C 2.203125 -6.265625 1.90625 -6 1.53125 -5.546875 C 0.828125 -4.671875 0.484375 -3.671875 0.484375 -2.515625 C 0.484375 -1.25 0.84375 -0.265625 1.71875 0.75 C 2.140625 1.21875 2.390625 1.453125 2.90625 1.765625 L 3.03125 1.609375 C 2.234375 0.984375 1.953125 0.625 1.6875 -0.125 C 1.453125 -0.78125 1.328125 -1.546875 1.328125 -2.546875 C 1.328125 -3.59375 1.46875 -4.40625 1.734375 -5.03125 C 2.015625 -5.640625 2.3125 -6 3.03125 -6.578125 L 2.9375 -6.734375 Z M 2.9375 -6.734375 "
   id="path3306" />
</symbol>
<symbol
   overflow="visible"
   id="textext-dfef442a-2">
<path
   style="stroke:none;"
   d="M 2.53125 -6.734375 C 1.984375 -6.734375 1.5625 -6.5625 1.203125 -6.21875 C 0.625 -5.65625 0.234375 -4.515625 0.234375 -3.34375 C 0.234375 -2.265625 0.5625 -1.09375 1.03125 -0.53125 C 1.40625 -0.09375 1.90625 0.140625 2.5 0.140625 C 3 0.140625 3.421875 -0.03125 3.78125 -0.375 C 4.359375 -0.921875 4.75 -2.078125 4.75 -3.296875 C 4.75 -5.328125 3.84375 -6.734375 2.53125 -6.734375 Z M 2.5 -6.484375 C 3.34375 -6.484375 3.78125 -5.359375 3.78125 -3.265625 C 3.78125 -1.1875 3.34375 -0.125 2.5 -0.125 C 1.640625 -0.125 1.203125 -1.1875 1.203125 -3.265625 C 1.203125 -5.375 1.640625 -6.484375 2.5 -6.484375 Z M 2.5 -6.484375 "
   id="path3309" />
</symbol>
<symbol
   overflow="visible"
   id="textext-dfef442a-3">
<path
   style="stroke:none;"
   d="M 0.375 1.765625 C 1.109375 1.28125 1.421875 1.03125 1.78125 0.5625 C 2.5 -0.296875 2.84375 -1.296875 2.84375 -2.46875 C 2.84375 -3.734375 2.46875 -4.703125 1.59375 -5.71875 C 1.1875 -6.203125 0.921875 -6.421875 0.40625 -6.734375 L 0.296875 -6.578125 C 1.09375 -5.953125 1.359375 -5.609375 1.640625 -4.859375 C 1.875 -4.1875 1.984375 -3.421875 1.984375 -2.4375 C 1.984375 -1.390625 1.859375 -0.5625 1.578125 0.046875 C 1.3125 0.671875 1 1.03125 0.296875 1.609375 L 0.375 1.765625 Z M 0.375 1.765625 "
   id="path3312" />
</symbol>
<symbol
   overflow="visible"
   id="textext-dfef442a-4">
<path
   style="stroke:none;"
   d=""
   id="path3315" />
</symbol>
<symbol
   overflow="visible"
   id="textext-dfef442a-5">
<path
   style="stroke:none;"
   d="M 1.9375 -0.0625 C 1.9375 -0.890625 1.359375 -1.015625 1.140625 -1.015625 C 0.890625 -1.015625 0.5625 -0.875 0.5625 -0.4375 C 0.5625 -0.046875 0.921875 0.0625 1.171875 0.0625 C 1.25 0.0625 1.296875 0.046875 1.328125 0.046875 C 1.359375 0.03125 1.390625 0.015625 1.421875 0.015625 C 1.484375 0.015625 1.5625 0.0625 1.5625 0.15625 C 1.5625 0.34375 1.390625 0.796875 0.734375 1.21875 L 0.828125 1.40625 C 1.125 1.3125 1.9375 0.640625 1.9375 -0.0625 Z M 1.9375 -0.0625 "
   id="path3318" />
</symbol>
<symbol
   overflow="visible"
   id="textext-dfef442a-6">
<path
   style="stroke:none;"
   d=""
   id="path3321" />
</symbol>
<symbol
   overflow="visible"
   id="textext-dfef442a-7">
<path
   style="stroke:none;"
   d="M 0.15625 -3.984375 C 0.28125 -4.015625 0.34375 -4.03125 0.453125 -4.03125 C 1.03125 -4.03125 1.171875 -3.78125 1.640625 -2.0625 C 1.796875 -1.421875 2.046875 -0.25 2.046875 -0.078125 C 2.046875 0.078125 1.984375 0.234375 1.828125 0.421875 C 1.53125 0.828125 1.328125 1.09375 1.21875 1.203125 C 1 1.421875 0.890625 1.5 0.75 1.5 C 0.703125 1.5 0.625 1.46875 0.515625 1.390625 C 0.375 1.28125 0.265625 1.21875 0.15625 1.21875 C -0.0625 1.21875 -0.234375 1.390625 -0.234375 1.609375 C -0.234375 1.859375 -0.015625 2.046875 0.265625 2.046875 C 0.90625 2.046875 2.21875 0.5625 3.296875 -1.421875 C 3.96875 -2.640625 4.25 -3.359375 4.25 -3.84375 C 4.25 -4.140625 4 -4.390625 3.703125 -4.390625 C 3.46875 -4.390625 3.3125 -4.25 3.3125 -4.03125 C 3.3125 -3.875 3.390625 -3.765625 3.59375 -3.640625 C 3.78125 -3.53125 3.84375 -3.4375 3.84375 -3.296875 C 3.84375 -2.90625 3.484375 -2.125 2.625 -0.71875 L 2.4375 -1.875 C 2.28125 -2.75 1.71875 -4.390625 1.578125 -4.390625 L 1.53125 -4.390625 C 1.53125 -4.390625 1.484375 -4.390625 1.453125 -4.390625 C 1.359375 -4.375 1 -4.3125 0.46875 -4.21875 C 0.421875 -4.203125 0.296875 -4.171875 0.15625 -4.15625 L 0.15625 -3.984375 Z M 0.15625 -3.984375 "
   id="path3324" />
</symbol>
</g>
</defs>
<g
   id="textext-dfef442a-8">
<g
   style="fill:rgb(0%,0%,0%);fill-opacity:1;"
   id="g3327">
  <use
   xlink:href="#textext-dfef442a-1"
   x="223.432"
   y="134.765"
   id="use3329" />
  <use
   xlink:href="#textext-dfef442a-2"
   x="226.749546"
   y="134.765"
   id="use3331" />
</g>
<g
   style="fill:rgb(0%,0%,0%);fill-opacity:1;"
   id="g3333">
  <use
   xlink:href="#textext-dfef442a-5"
   x="231.731"
   y="134.765"
   id="use3335" />
</g>
<g
   style="fill:rgb(0%,0%,0%);fill-opacity:1;"
   id="g3337">
  <use
   xlink:href="#textext-dfef442a-7"
   x="235.882"
   y="134.765"
   id="use3339" />
</g>
<g
   style="fill:rgb(0%,0%,0%);fill-opacity:1;"
   id="g3341">
  <use
   xlink:href="#textext-dfef442a-3"
   x="240.305"
   y="134.765"
   id="use3343" />
</g>
</g>
</g><g
       id="g3593"
       transform="matrix(1.1,0,0,-1.1,-220.85426,192.69216)"
       ns0:preamble="/home/sriranga/Desktop/TIFR/package.tex"
       ns0:text="$0$"><defs
   id="defs3595">
<g
   id="g3597">
<symbol
   id="textext-151fe981-0"
   overflow="visible">
<path
   id="path3600"
   d=""
   style="stroke:none;" />
</symbol>
<symbol
   id="textext-151fe981-1"
   overflow="visible">
<path
   id="path3603"
   d="M 2.53125 -6.734375 C 1.984375 -6.734375 1.5625 -6.5625 1.203125 -6.21875 C 0.625 -5.65625 0.234375 -4.515625 0.234375 -3.34375 C 0.234375 -2.265625 0.5625 -1.09375 1.03125 -0.53125 C 1.40625 -0.09375 1.90625 0.140625 2.5 0.140625 C 3 0.140625 3.421875 -0.03125 3.78125 -0.375 C 4.359375 -0.921875 4.75 -2.078125 4.75 -3.296875 C 4.75 -5.328125 3.84375 -6.734375 2.53125 -6.734375 Z M 2.5 -6.484375 C 3.34375 -6.484375 3.78125 -5.359375 3.78125 -3.265625 C 3.78125 -1.1875 3.34375 -0.125 2.5 -0.125 C 1.640625 -0.125 1.203125 -1.1875 1.203125 -3.265625 C 1.203125 -5.375 1.640625 -6.484375 2.5 -6.484375 Z M 2.5 -6.484375 "
   style="stroke:none;" />
</symbol>
</g>
</defs>
<g
   id="textext-151fe981-2">
<g
   id="g3606"
   style="fill:rgb(0%,0%,0%);fill-opacity:1;">
  <use
   id="use3608"
   y="134.765"
   x="223.432"
   xlink:href="#textext-151fe981-1" />
</g>
</g>
</g><g
       ns0:text="$(x,0)$"
       ns0:preamble="/home/sriranga/Desktop/TIFR/package.tex"
       transform="matrix(1.1,0,0,-1.1,-155.84237,184.78898)"
       id="g3842"><defs
   id="defs3844">
<g
   id="g3846">
<symbol
   overflow="visible"
   id="textext-94e2d528-0">
<path
   style="stroke:none;"
   d=""
   id="path3849" />
</symbol>
<symbol
   overflow="visible"
   id="textext-94e2d528-1">
<path
   style="stroke:none;"
   d="M 2.9375 -6.734375 C 2.203125 -6.265625 1.90625 -6 1.53125 -5.546875 C 0.828125 -4.671875 0.484375 -3.671875 0.484375 -2.515625 C 0.484375 -1.25 0.84375 -0.265625 1.71875 0.75 C 2.140625 1.21875 2.390625 1.453125 2.90625 1.765625 L 3.03125 1.609375 C 2.234375 0.984375 1.953125 0.625 1.6875 -0.125 C 1.453125 -0.78125 1.328125 -1.546875 1.328125 -2.546875 C 1.328125 -3.59375 1.46875 -4.40625 1.734375 -5.03125 C 2.015625 -5.640625 2.3125 -6 3.03125 -6.578125 L 2.9375 -6.734375 Z M 2.9375 -6.734375 "
   id="path3852" />
</symbol>
<symbol
   overflow="visible"
   id="textext-94e2d528-2">
<path
   style="stroke:none;"
   d="M 2.53125 -6.734375 C 1.984375 -6.734375 1.5625 -6.5625 1.203125 -6.21875 C 0.625 -5.65625 0.234375 -4.515625 0.234375 -3.34375 C 0.234375 -2.265625 0.5625 -1.09375 1.03125 -0.53125 C 1.40625 -0.09375 1.90625 0.140625 2.5 0.140625 C 3 0.140625 3.421875 -0.03125 3.78125 -0.375 C 4.359375 -0.921875 4.75 -2.078125 4.75 -3.296875 C 4.75 -5.328125 3.84375 -6.734375 2.53125 -6.734375 Z M 2.5 -6.484375 C 3.34375 -6.484375 3.78125 -5.359375 3.78125 -3.265625 C 3.78125 -1.1875 3.34375 -0.125 2.5 -0.125 C 1.640625 -0.125 1.203125 -1.1875 1.203125 -3.265625 C 1.203125 -5.375 1.640625 -6.484375 2.5 -6.484375 Z M 2.5 -6.484375 "
   id="path3855" />
</symbol>
<symbol
   overflow="visible"
   id="textext-94e2d528-3">
<path
   style="stroke:none;"
   d="M 0.375 1.765625 C 1.109375 1.28125 1.421875 1.03125 1.78125 0.5625 C 2.5 -0.296875 2.84375 -1.296875 2.84375 -2.46875 C 2.84375 -3.734375 2.46875 -4.703125 1.59375 -5.71875 C 1.1875 -6.203125 0.921875 -6.421875 0.40625 -6.734375 L 0.296875 -6.578125 C 1.09375 -5.953125 1.359375 -5.609375 1.640625 -4.859375 C 1.875 -4.1875 1.984375 -3.421875 1.984375 -2.4375 C 1.984375 -1.390625 1.859375 -0.5625 1.578125 0.046875 C 1.3125 0.671875 1 1.03125 0.296875 1.609375 L 0.375 1.765625 Z M 0.375 1.765625 "
   id="path3858" />
</symbol>
<symbol
   overflow="visible"
   id="textext-94e2d528-4">
<path
   style="stroke:none;"
   d=""
   id="path3861" />
</symbol>
<symbol
   overflow="visible"
   id="textext-94e2d528-5">
<path
   style="stroke:none;"
   d="M 4 -1.109375 C 3.921875 -1.015625 3.875 -0.953125 3.78125 -0.84375 C 3.5625 -0.53125 3.4375 -0.4375 3.328125 -0.4375 C 3.1875 -0.4375 3.09375 -0.5625 3.015625 -0.84375 C 3 -0.921875 2.984375 -0.984375 2.984375 -1.015625 C 2.734375 -2.03125 2.625 -2.484375 2.625 -2.625 C 3.0625 -3.40625 3.421875 -3.84375 3.59375 -3.84375 C 3.65625 -3.84375 3.734375 -3.8125 3.84375 -3.765625 C 3.953125 -3.6875 4.03125 -3.671875 4.109375 -3.671875 C 4.3125 -3.671875 4.453125 -3.8125 4.453125 -4.03125 C 4.453125 -4.234375 4.28125 -4.390625 4.046875 -4.390625 C 3.609375 -4.390625 3.234375 -4.03125 2.546875 -2.96875 L 2.4375 -3.515625 C 2.296875 -4.203125 2.1875 -4.390625 1.90625 -4.390625 C 1.6875 -4.390625 1.359375 -4.3125 0.75 -4.109375 L 0.640625 -4.0625 L 0.671875 -3.921875 C 1.0625 -4 1.140625 -4.03125 1.234375 -4.03125 C 1.484375 -4.03125 1.546875 -3.9375 1.6875 -3.34375 L 1.96875 -2.109375 L 1.15625 -0.953125 C 0.953125 -0.640625 0.75 -0.46875 0.640625 -0.46875 C 0.59375 -0.46875 0.484375 -0.5 0.390625 -0.5625 C 0.265625 -0.625 0.15625 -0.65625 0.0625 -0.65625 C -0.125 -0.65625 -0.265625 -0.515625 -0.265625 -0.3125 C -0.265625 -0.046875 -0.0625 0.109375 0.234375 0.109375 C 0.53125 0.109375 0.65625 0.015625 1.15625 -0.59375 C 1.421875 -0.90625 1.640625 -1.171875 2.046875 -1.75 L 2.359375 -0.5625 C 2.484375 -0.046875 2.609375 0.109375 2.9375 0.109375 C 3.3125 0.109375 3.5625 -0.125 4.140625 -1.03125 L 4 -1.109375 Z M 4 -1.109375 "
   id="path3864" />
</symbol>
<symbol
   overflow="visible"
   id="textext-94e2d528-6">
<path
   style="stroke:none;"
   d=""
   id="path3867" />
</symbol>
<symbol
   overflow="visible"
   id="textext-94e2d528-7">
<path
   style="stroke:none;"
   d="M 1.9375 -0.0625 C 1.9375 -0.890625 1.359375 -1.015625 1.140625 -1.015625 C 0.890625 -1.015625 0.5625 -0.875 0.5625 -0.4375 C 0.5625 -0.046875 0.921875 0.0625 1.171875 0.0625 C 1.25 0.0625 1.296875 0.046875 1.328125 0.046875 C 1.359375 0.03125 1.390625 0.015625 1.421875 0.015625 C 1.484375 0.015625 1.5625 0.0625 1.5625 0.15625 C 1.5625 0.34375 1.390625 0.796875 0.734375 1.21875 L 0.828125 1.40625 C 1.125 1.3125 1.9375 0.640625 1.9375 -0.0625 Z M 1.9375 -0.0625 "
   id="path3870" />
</symbol>
</g>
</defs>
<g
   id="textext-94e2d528-8">
<g
   style="fill:rgb(0%,0%,0%);fill-opacity:1;"
   id="g3873">
  <use
   xlink:href="#textext-94e2d528-1"
   x="223.432"
   y="134.765"
   id="use3875" />
</g>
<g
   style="fill:rgb(0%,0%,0%);fill-opacity:1;"
   id="g3877">
  <use
   xlink:href="#textext-94e2d528-5"
   x="227.248"
   y="134.765"
   id="use3879" />
</g>
<g
   style="fill:rgb(0%,0%,0%);fill-opacity:1;"
   id="g3881">
  <use
   xlink:href="#textext-94e2d528-7"
   x="231.701"
   y="134.765"
   id="use3883" />
</g>
<g
   style="fill:rgb(0%,0%,0%);fill-opacity:1;"
   id="g3885">
  <use
   xlink:href="#textext-94e2d528-2"
   x="235.852"
   y="134.765"
   id="use3887" />
  <use
   xlink:href="#textext-94e2d528-3"
   x="240.8333"
   y="134.765"
   id="use3889" />
</g>
</g>
</g><g
       id="g4128"
       transform="matrix(1.1,0,0,-1.1,-140.65614,244.22796)"
       ns0:preamble="/home/sriranga/Desktop/TIFR/package.tex"
       ns0:text="$(x,y)$"><defs
   id="defs4130">
<g
   id="g4132">
<symbol
   id="textext-308de9ae-0"
   overflow="visible">
<path
   id="path4135"
   d=""
   style="stroke:none;" />
</symbol>
<symbol
   id="textext-308de9ae-1"
   overflow="visible">
<path
   id="path4138"
   d="M 2.9375 -6.734375 C 2.203125 -6.265625 1.90625 -6 1.53125 -5.546875 C 0.828125 -4.671875 0.484375 -3.671875 0.484375 -2.515625 C 0.484375 -1.25 0.84375 -0.265625 1.71875 0.75 C 2.140625 1.21875 2.390625 1.453125 2.90625 1.765625 L 3.03125 1.609375 C 2.234375 0.984375 1.953125 0.625 1.6875 -0.125 C 1.453125 -0.78125 1.328125 -1.546875 1.328125 -2.546875 C 1.328125 -3.59375 1.46875 -4.40625 1.734375 -5.03125 C 2.015625 -5.640625 2.3125 -6 3.03125 -6.578125 L 2.9375 -6.734375 Z M 2.9375 -6.734375 "
   style="stroke:none;" />
</symbol>
<symbol
   id="textext-308de9ae-2"
   overflow="visible">
<path
   id="path4141"
   d="M 0.375 1.765625 C 1.109375 1.28125 1.421875 1.03125 1.78125 0.5625 C 2.5 -0.296875 2.84375 -1.296875 2.84375 -2.46875 C 2.84375 -3.734375 2.46875 -4.703125 1.59375 -5.71875 C 1.1875 -6.203125 0.921875 -6.421875 0.40625 -6.734375 L 0.296875 -6.578125 C 1.09375 -5.953125 1.359375 -5.609375 1.640625 -4.859375 C 1.875 -4.1875 1.984375 -3.421875 1.984375 -2.4375 C 1.984375 -1.390625 1.859375 -0.5625 1.578125 0.046875 C 1.3125 0.671875 1 1.03125 0.296875 1.609375 L 0.375 1.765625 Z M 0.375 1.765625 "
   style="stroke:none;" />
</symbol>
<symbol
   id="textext-308de9ae-3"
   overflow="visible">
<path
   id="path4144"
   d=""
   style="stroke:none;" />
</symbol>
<symbol
   id="textext-308de9ae-4"
   overflow="visible">
<path
   id="path4147"
   d="M 4 -1.109375 C 3.921875 -1.015625 3.875 -0.953125 3.78125 -0.84375 C 3.5625 -0.53125 3.4375 -0.4375 3.328125 -0.4375 C 3.1875 -0.4375 3.09375 -0.5625 3.015625 -0.84375 C 3 -0.921875 2.984375 -0.984375 2.984375 -1.015625 C 2.734375 -2.03125 2.625 -2.484375 2.625 -2.625 C 3.0625 -3.40625 3.421875 -3.84375 3.59375 -3.84375 C 3.65625 -3.84375 3.734375 -3.8125 3.84375 -3.765625 C 3.953125 -3.6875 4.03125 -3.671875 4.109375 -3.671875 C 4.3125 -3.671875 4.453125 -3.8125 4.453125 -4.03125 C 4.453125 -4.234375 4.28125 -4.390625 4.046875 -4.390625 C 3.609375 -4.390625 3.234375 -4.03125 2.546875 -2.96875 L 2.4375 -3.515625 C 2.296875 -4.203125 2.1875 -4.390625 1.90625 -4.390625 C 1.6875 -4.390625 1.359375 -4.3125 0.75 -4.109375 L 0.640625 -4.0625 L 0.671875 -3.921875 C 1.0625 -4 1.140625 -4.03125 1.234375 -4.03125 C 1.484375 -4.03125 1.546875 -3.9375 1.6875 -3.34375 L 1.96875 -2.109375 L 1.15625 -0.953125 C 0.953125 -0.640625 0.75 -0.46875 0.640625 -0.46875 C 0.59375 -0.46875 0.484375 -0.5 0.390625 -0.5625 C 0.265625 -0.625 0.15625 -0.65625 0.0625 -0.65625 C -0.125 -0.65625 -0.265625 -0.515625 -0.265625 -0.3125 C -0.265625 -0.046875 -0.0625 0.109375 0.234375 0.109375 C 0.53125 0.109375 0.65625 0.015625 1.15625 -0.59375 C 1.421875 -0.90625 1.640625 -1.171875 2.046875 -1.75 L 2.359375 -0.5625 C 2.484375 -0.046875 2.609375 0.109375 2.9375 0.109375 C 3.3125 0.109375 3.5625 -0.125 4.140625 -1.03125 L 4 -1.109375 Z M 4 -1.109375 "
   style="stroke:none;" />
</symbol>
<symbol
   id="textext-308de9ae-5"
   overflow="visible">
<path
   id="path4150"
   d="M 0.15625 -3.984375 C 0.28125 -4.015625 0.34375 -4.03125 0.453125 -4.03125 C 1.03125 -4.03125 1.171875 -3.78125 1.640625 -2.0625 C 1.796875 -1.421875 2.046875 -0.25 2.046875 -0.078125 C 2.046875 0.078125 1.984375 0.234375 1.828125 0.421875 C 1.53125 0.828125 1.328125 1.09375 1.21875 1.203125 C 1 1.421875 0.890625 1.5 0.75 1.5 C 0.703125 1.5 0.625 1.46875 0.515625 1.390625 C 0.375 1.28125 0.265625 1.21875 0.15625 1.21875 C -0.0625 1.21875 -0.234375 1.390625 -0.234375 1.609375 C -0.234375 1.859375 -0.015625 2.046875 0.265625 2.046875 C 0.90625 2.046875 2.21875 0.5625 3.296875 -1.421875 C 3.96875 -2.640625 4.25 -3.359375 4.25 -3.84375 C 4.25 -4.140625 4 -4.390625 3.703125 -4.390625 C 3.46875 -4.390625 3.3125 -4.25 3.3125 -4.03125 C 3.3125 -3.875 3.390625 -3.765625 3.59375 -3.640625 C 3.78125 -3.53125 3.84375 -3.4375 3.84375 -3.296875 C 3.84375 -2.90625 3.484375 -2.125 2.625 -0.71875 L 2.4375 -1.875 C 2.28125 -2.75 1.71875 -4.390625 1.578125 -4.390625 L 1.53125 -4.390625 C 1.53125 -4.390625 1.484375 -4.390625 1.453125 -4.390625 C 1.359375 -4.375 1 -4.3125 0.46875 -4.21875 C 0.421875 -4.203125 0.296875 -4.171875 0.15625 -4.15625 L 0.15625 -3.984375 Z M 0.15625 -3.984375 "
   style="stroke:none;" />
</symbol>
<symbol
   id="textext-308de9ae-6"
   overflow="visible">
<path
   id="path4153"
   d=""
   style="stroke:none;" />
</symbol>
<symbol
   id="textext-308de9ae-7"
   overflow="visible">
<path
   id="path4156"
   d="M 1.9375 -0.0625 C 1.9375 -0.890625 1.359375 -1.015625 1.140625 -1.015625 C 0.890625 -1.015625 0.5625 -0.875 0.5625 -0.4375 C 0.5625 -0.046875 0.921875 0.0625 1.171875 0.0625 C 1.25 0.0625 1.296875 0.046875 1.328125 0.046875 C 1.359375 0.03125 1.390625 0.015625 1.421875 0.015625 C 1.484375 0.015625 1.5625 0.0625 1.5625 0.15625 C 1.5625 0.34375 1.390625 0.796875 0.734375 1.21875 L 0.828125 1.40625 C 1.125 1.3125 1.9375 0.640625 1.9375 -0.0625 Z M 1.9375 -0.0625 "
   style="stroke:none;" />
</symbol>
</g>
</defs>
<g
   id="textext-308de9ae-8">
<g
   id="g4159"
   style="fill:rgb(0%,0%,0%);fill-opacity:1;">
  <use
   id="use4161"
   y="134.765"
   x="223.432"
   xlink:href="#textext-308de9ae-1" />
</g>
<g
   id="g4163"
   style="fill:rgb(0%,0%,0%);fill-opacity:1;">
  <use
   id="use4165"
   y="134.765"
   x="227.248"
   xlink:href="#textext-308de9ae-4" />
</g>
<g
   id="g4167"
   style="fill:rgb(0%,0%,0%);fill-opacity:1;">
  <use
   id="use4169"
   y="134.765"
   x="231.701"
   xlink:href="#textext-308de9ae-7" />
</g>
<g
   id="g4171"
   style="fill:rgb(0%,0%,0%);fill-opacity:1;">
  <use
   id="use4173"
   y="134.765"
   x="235.852"
   xlink:href="#textext-308de9ae-5" />
</g>
<g
   id="g4175"
   style="fill:rgb(0%,0%,0%);fill-opacity:1;">
  <use
   id="use4177"
   y="134.765"
   x="240.276"
   xlink:href="#textext-308de9ae-2" />
</g>
</g>
</g><g
       ns0:text="$A$"
       ns0:preamble="/home/sriranga/Desktop/TIFR/package.tex"
       transform="matrix(1.1,0,0,-1.1,-42.284107,196.38432)"
       id="g4439"><defs
   id="defs4441">
<g
   id="g4443">
<symbol
   overflow="visible"
   id="textext-be6c6efc-0">
<path
   style="stroke:none;"
   d=""
   id="path4446" />
</symbol>
<symbol
   overflow="visible"
   id="textext-be6c6efc-1">
<path
   style="stroke:none;"
   d="M 5.625 -0.15625 C 5.046875 -0.203125 5 -0.296875 4.859375 -1.015625 L 3.921875 -6.65625 L 3.671875 -6.65625 L 0.78125 -1.671875 C -0.015625 -0.34375 -0.109375 -0.234375 -0.515625 -0.15625 L -0.515625 0 L 1.359375 0 L 1.359375 -0.15625 C 0.84375 -0.203125 0.765625 -0.265625 0.765625 -0.515625 C 0.765625 -0.703125 0.796875 -0.78125 0.96875 -1.125 L 1.53125 -2.25 L 3.734375 -2.25 L 3.921875 -0.953125 C 3.9375 -0.859375 3.953125 -0.765625 3.953125 -0.6875 C 3.953125 -0.3125 3.8125 -0.21875 3.171875 -0.15625 L 3.171875 0 L 5.625 0 L 5.625 -0.15625 Z M 1.75 -2.609375 L 3.234375 -5.203125 L 3.671875 -2.609375 L 1.75 -2.609375 Z M 1.75 -2.609375 "
   id="path4449" />
</symbol>
</g>
</defs>
<g
   id="textext-be6c6efc-2">
<g
   style="fill:rgb(0%,0%,0%);fill-opacity:1;"
   id="g4452">
  <use
   xlink:href="#textext-be6c6efc-1"
   x="223.681"
   y="134.765"
   id="use4454" />
</g>
</g>
</g><g
       id="g4716"
       transform="matrix(1.1,0,0,-1.1,-42.730082,287.09216)"
       ns0:preamble="/home/sriranga/Desktop/TIFR/package.tex"
       ns0:text="$B$"><defs
   id="defs4718">
<g
   id="g4720">
<symbol
   id="textext-269f4cb1-0"
   overflow="visible">
<path
   id="path4723"
   d=""
   style="stroke:none;" />
</symbol>
<symbol
   id="textext-269f4cb1-1"
   overflow="visible">
<path
   id="path4726"
   d="M -0.078125 0 L 2.734375 0 C 4.296875 0 5.375 -0.8125 5.375 -2 C 5.375 -2.359375 5.25 -2.71875 5.03125 -2.9375 C 4.828125 -3.15625 4.640625 -3.28125 4.109375 -3.5 C 4.828125 -3.671875 5.109375 -3.78125 5.4375 -4.0625 C 5.71875 -4.3125 5.859375 -4.640625 5.859375 -5.046875 C 5.859375 -5.984375 5.15625 -6.515625 3.875 -6.515625 L 1.296875 -6.515625 L 1.296875 -6.34375 C 1.90625 -6.296875 2.0625 -6.21875 2.0625 -5.9375 C 2.0625 -5.796875 2.03125 -5.546875 1.953125 -5.296875 L 0.734375 -0.890625 C 0.546875 -0.3125 0.484375 -0.265625 -0.078125 -0.15625 L -0.078125 0 Z M 2.375 -3.296875 C 3.015625 -3.296875 3.4375 -3.265625 3.640625 -3.1875 C 4.046875 -3.015625 4.296875 -2.578125 4.296875 -2.03125 C 4.296875 -0.953125 3.5625 -0.296875 2.34375 -0.296875 C 1.921875 -0.296875 1.703125 -0.453125 1.703125 -0.71875 C 1.703125 -0.84375 1.828125 -1.3125 2.046875 -2.109375 C 2.1875 -2.5625 2.25 -2.796875 2.375 -3.296875 Z M 3.125 -5.9375 C 3.1875 -6.15625 3.296875 -6.203125 3.6875 -6.203125 C 4.484375 -6.203125 4.859375 -5.875 4.859375 -5.140625 C 4.859375 -4.5625 4.609375 -4.125 4.1875 -3.890625 C 3.84375 -3.6875 3.375 -3.625 2.46875 -3.625 L 3.125 -5.9375 Z M 3.125 -5.9375 "
   style="stroke:none;" />
</symbol>
</g>
</defs>
<g
   id="textext-269f4cb1-2">
<g
   id="g4729"
   style="fill:rgb(0%,0%,0%);fill-opacity:1;">
  <use
   id="use4731"
   y="134.765"
   x="223.781"
   xlink:href="#textext-269f4cb1-1" />
</g>
</g>
</g></g></svg>