<?xml version="1.0" encoding="UTF-8" standalone="no"?>
<!-- Created with Inkscape (http://www.inkscape.org/) -->

<svg
   xmlns:ns0="http://www.iki.fi/pav/software/textext/"
   xmlns:dc="http://purl.org/dc/elements/1.1/"
   xmlns:cc="http://creativecommons.org/ns#"
   xmlns:rdf="http://www.w3.org/1999/02/22-rdf-syntax-ns#"
   xmlns:svg="http://www.w3.org/2000/svg"
   xmlns="http://www.w3.org/2000/svg"
   xmlns:xlink="http://www.w3.org/1999/xlink"
   xmlns:sodipodi="http://sodipodi.sourceforge.net/DTD/sodipodi-0.dtd"
   xmlns:inkscape="http://www.inkscape.org/namespaces/inkscape"
   width="248.03149"
   height="141.73228"
   id="svg2"
   version="1.1"
   inkscape:version="0.47 r22583"
   sodipodi:docname="New document 1">
  <sodipodi:namedview
     id="base"
     pagecolor="#ffffff"
     bordercolor="#666666"
     borderopacity="1.0"
     inkscape:pageopacity="0.0"
     inkscape:pageshadow="2"
     inkscape:zoom="1.979899"
     inkscape:cx="173.06993"
     inkscape:cy="47.395176"
     inkscape:document-units="px"
     inkscape:current-layer="layer1"
     showgrid="false"
     units="cm"
     inkscape:window-width="1024"
     inkscape:window-height="689"
     inkscape:window-x="0"
     inkscape:window-y="27"
     inkscape:window-maximized="1" />
  <defs
     id="defs4">
    <marker
       inkscape:stockid="DotM"
       orient="auto"
       refY="0.0"
       refX="0.0"
       id="DotM"
       style="overflow:visible">
      <path
         id="path3660"
         d="M -2.5,-1.0 C -2.5,1.7600000 -4.7400000,4.0 -7.5,4.0 C -10.260000,4.0 -12.5,1.7600000 -12.5,-1.0 C -12.5,-3.7600000 -10.260000,-6.0 -7.5,-6.0 C -4.7400000,-6.0 -2.5,-3.7600000 -2.5,-1.0 z "
         style="fill-rule:evenodd;stroke:#000000;stroke-width:1.0pt;marker-start:none;marker-end:none"
         transform="scale(0.4) translate(7.4, 1)" />
    </marker>
    <marker
       inkscape:stockid="Arrow1Mend"
       orient="auto"
       refY="0.0"
       refX="0.0"
       id="Arrow1Mend"
       style="overflow:visible;">
      <path
         id="path3604"
         d="M 0.0,0.0 L 5.0,-5.0 L -12.5,0.0 L 5.0,5.0 L 0.0,0.0 z "
         style="fill-rule:evenodd;stroke:#000000;stroke-width:1.0pt;marker-start:none;"
         transform="scale(0.4) rotate(180) translate(10,0)" />
    </marker>
    <inkscape:perspective
       sodipodi:type="inkscape:persp3d"
       inkscape:vp_x="0 : 526.18109 : 1"
       inkscape:vp_y="0 : 1000 : 0"
       inkscape:vp_z="744.09448 : 526.18109 : 1"
       inkscape:persp3d-origin="372.04724 : 350.78739 : 1"
       id="perspective10" />
  </defs>
  <metadata
     id="metadata7">
    <rdf:RDF>
      <cc:Work
         rdf:about="">
        <dc:format>image/svg+xml</dc:format>
        <dc:type
           rdf:resource="http://purl.org/dc/dcmitype/StillImage" />
        <dc:title></dc:title>
      </cc:Work>
    </rdf:RDF>
  </metadata>
  <g
     inkscape:label="Layer 1"
     inkscape:groupmode="layer"
     id="layer1"
     transform="translate(0,-910.62859)">
    <path
       style="fill:none;stroke:#000000;stroke-width:1.375;stroke-linecap:butt;stroke-linejoin:miter;stroke-miterlimit:4;stroke-opacity:1;stroke-dasharray:none;marker-mid:url(#DotM)"
       d="m 7.152288,984.17558 177.786852,0 39.39595,0"
       id="path2816"
       sodipodi:nodetypes="ccc" />
    <path
       style="fill:none;stroke:#000000;stroke-width:1.5;stroke-linecap:butt;stroke-linejoin:miter;stroke-miterlimit:4;stroke-opacity:1;stroke-dasharray:none;marker-mid:url(#Arrow1Mend)"
       d="m 115.82492,1041.2492 0,-99.50003 0,-27.77919"
       id="path3590"
       sodipodi:nodetypes="ccc" />
    <g
       transform="matrix(1.3897235,0,0,1.3897235,-212.0588,756.51161)"
       ns0:text="$x_{4}$"
       ns0:preamble="/home/sriranga/Desktop/TIFR-VB-raghu/figures/package.tex"
       id="g4240">
      <defs
         id="defs4242">
        <g
           id="g4244">
          <symbol
             style="overflow:visible"
             overflow="visible"
             id="textext-5fb10c58-0">
            <path
               style="stroke:none"
               d=""
               id="path4247" />
          </symbol>
          <symbol
             style="overflow:visible"
             overflow="visible"
             id="textext-5fb10c58-1">
            <path
               style="stroke:none"
               d="M 4,-1.109375 C 3.921875,-1.015625 3.875,-0.953125 3.78125,-0.84375 3.5625,-0.53125 3.4375,-0.4375 3.328125,-0.4375 3.1875,-0.4375 3.09375,-0.5625 3.015625,-0.84375 3,-0.921875 2.984375,-0.984375 2.984375,-1.015625 2.734375,-2.03125 2.625,-2.484375 2.625,-2.625 c 0.4375,-0.78125 0.796875,-1.21875 0.96875,-1.21875 0.0625,0 0.140625,0.03125 0.25,0.078125 0.109375,0.078125 0.1875,0.09375 0.265625,0.09375 0.203125,0 0.34375,-0.140625 0.34375,-0.359375 0,-0.203125 -0.171875,-0.359375 -0.40625,-0.359375 -0.4375,0 -0.8125,0.359375 -1.5,1.421875 L 2.4375,-3.515625 c -0.140625,-0.6875 -0.25,-0.875 -0.53125,-0.875 -0.21875,0 -0.546875,0.078125 -1.15625,0.28125 L 0.640625,-4.0625 0.671875,-3.921875 C 1.0625,-4 1.140625,-4.03125 1.234375,-4.03125 c 0.25,0 0.3125,0.09375 0.453125,0.6875 l 0.28125,1.234375 -0.8125,1.15625 C 0.953125,-0.640625 0.75,-0.46875 0.640625,-0.46875 0.59375,-0.46875 0.484375,-0.5 0.390625,-0.5625 0.265625,-0.625 0.15625,-0.65625 0.0625,-0.65625 c -0.1875,0 -0.328125,0.140625 -0.328125,0.34375 0,0.265625 0.203125,0.421875 0.5,0.421875 0.296875,0 0.421875,-0.09375 0.921875,-0.703125 0.265625,-0.3125 0.484375,-0.578125 0.890625,-1.15625 l 0.3125,1.1875 c 0.125,0.515625 0.25,0.671875 0.578125,0.671875 0.375,0 0.625,-0.234375 1.203125,-1.140625 L 4,-1.109375 z m 0,0"
               id="path4250" />
          </symbol>
          <symbol
             style="overflow:visible"
             overflow="visible"
             id="textext-5fb10c58-2">
            <path
               style="stroke:none"
               d=""
               id="path4253" />
          </symbol>
          <symbol
             style="overflow:visible"
             overflow="visible"
             id="textext-5fb10c58-3">
            <path
               style="stroke:none"
               d="m 3.296875,-1.609375 -0.71875,0 0,-3.09375 -0.3125,0 -2.1875,3.09375 0,0.453125 1.96875,0 0,1.15625 0.53125,0 0,-1.15625 0.71875,0 0,-0.453125 z m -1.265625,0 -1.671875,0 L 2.03125,-4 l 0,2.390625 z m 0,0"
               id="path4256" />
          </symbol>
        </g>
      </defs>
      <g
         id="textext-5fb10c58-4">
        <g
           style="fill:#000000;fill-opacity:1"
           id="g4259">
          <use
             height="141.73228"
             width="248.03149"
             xlink:href="#textext-5fb10c58-1"
             x="223.92999"
             y="134.765"
             id="use4261" />
        </g>
        <g
           style="fill:#000000;fill-opacity:1"
           id="g4263">
          <use
             height="141.73228"
             width="248.03149"
             xlink:href="#textext-5fb10c58-3"
             x="228.354"
             y="136.259"
             id="use4265" />
        </g>
      </g>
    </g>
    <g
       ns0:text="$p$"
       ns0:preamble="/home/sriranga/Desktop/TIFR-VB-raghu/figures/package.tex"
       transform="matrix(1.3897235,0,0,1.3897235,-135.61209,788.33141)"
       id="g4439">
      <defs
         id="defs4441">
        <g
           id="g4443">
          <symbol
             style="overflow:visible"
             overflow="visible"
             id="textext-0066e8e5-0">
            <path
               style="stroke:none"
               d=""
               id="path4446" />
          </symbol>
          <symbol
             style="overflow:visible"
             overflow="visible"
             id="textext-0066e8e5-1">
            <path
               style="stroke:none"
               d="m 0.5625,-4.03125 0.21875,0 c 0,0 0.03125,0 0.03125,0 0.140625,-0.0625 0.390625,0.125 0.390625,0.265625 C 1.203125,-3.671875 0.84375,-2.25 0.5,-0.9375 0.234375,0.0625 -0.015625,1 -0.078125,1.296875 -0.1875,1.75 -0.3125,1.875 -0.75,1.890625 l 0,0.15625 2.046875,0 0,-0.15625 c -0.46875,0 -0.640625,-0.09375 -0.640625,-0.296875 0,-0.140625 0.171875,-0.921875 0.375,-1.65625 0.25,0.125 0.421875,0.171875 0.65625,0.171875 1.453125,0 2.984375,-1.671875 2.984375,-3.265625 0,-0.765625 -0.4375,-1.234375 -1.140625,-1.234375 -0.65625,0 -1.125,0.3125 -1.703125,1.125 l 0.28125,-1 0.03125,-0.09375 c 0,0 0,0 -0.015625,-0.03125 l -0.015625,0 C 2.109375,-4.40625 2.09375,-4.40625 2.09375,-4.40625 L 2.078125,-4.390625 0.53125,-4.171875 0.5625,-4.03125 z m 2.59375,0.0625 c 0.4375,0.015625 0.625,0.28125 0.625,0.859375 0,0.65625 -0.296875,1.515625 -0.71875,2.125 -0.421875,0.59375 -0.90625,0.90625 -1.421875,0.90625 -0.28125,0 -0.46875,-0.15625 -0.46875,-0.375 0,-0.328125 0.359375,-1.640625 0.640625,-2.375 C 2.078125,-3.515625 2.65625,-4 3.15625,-3.96875 z m 0,0"
               id="path4449" />
          </symbol>
        </g>
      </defs>
      <g
         id="textext-0066e8e5-2">
        <g
           style="fill:#000000;fill-opacity:1"
           id="g4452">
          <use
             height="141.73228"
             width="248.03149"
             xlink:href="#textext-0066e8e5-1"
             x="224.179"
             y="134.765"
             id="use4454" />
        </g>
      </g>
    </g>
    <g
       id="g4550"
       transform="matrix(1.3897235,0,0,1.3897235,-82.500412,799.94817)"
       ns0:preamble="/home/sriranga/Desktop/TIFR-VB-raghu/figures/package.tex"
       ns0:text="$x_{3}$">
      <defs
         id="defs4552">
        <g
           id="g4554">
          <symbol
             id="textext-fdf176a7-0"
             overflow="visible"
             style="overflow:visible">
            <path
               id="path4557"
               d=""
               style="stroke:none" />
          </symbol>
          <symbol
             id="textext-fdf176a7-1"
             overflow="visible"
             style="overflow:visible">
            <path
               id="path4560"
               d="M 4,-1.109375 C 3.921875,-1.015625 3.875,-0.953125 3.78125,-0.84375 3.5625,-0.53125 3.4375,-0.4375 3.328125,-0.4375 3.1875,-0.4375 3.09375,-0.5625 3.015625,-0.84375 3,-0.921875 2.984375,-0.984375 2.984375,-1.015625 2.734375,-2.03125 2.625,-2.484375 2.625,-2.625 c 0.4375,-0.78125 0.796875,-1.21875 0.96875,-1.21875 0.0625,0 0.140625,0.03125 0.25,0.078125 0.109375,0.078125 0.1875,0.09375 0.265625,0.09375 0.203125,0 0.34375,-0.140625 0.34375,-0.359375 0,-0.203125 -0.171875,-0.359375 -0.40625,-0.359375 -0.4375,0 -0.8125,0.359375 -1.5,1.421875 L 2.4375,-3.515625 c -0.140625,-0.6875 -0.25,-0.875 -0.53125,-0.875 -0.21875,0 -0.546875,0.078125 -1.15625,0.28125 L 0.640625,-4.0625 0.671875,-3.921875 C 1.0625,-4 1.140625,-4.03125 1.234375,-4.03125 c 0.25,0 0.3125,0.09375 0.453125,0.6875 l 0.28125,1.234375 -0.8125,1.15625 C 0.953125,-0.640625 0.75,-0.46875 0.640625,-0.46875 0.59375,-0.46875 0.484375,-0.5 0.390625,-0.5625 0.265625,-0.625 0.15625,-0.65625 0.0625,-0.65625 c -0.1875,0 -0.328125,0.140625 -0.328125,0.34375 0,0.265625 0.203125,0.421875 0.5,0.421875 0.296875,0 0.421875,-0.09375 0.921875,-0.703125 0.265625,-0.3125 0.484375,-0.578125 0.890625,-1.15625 l 0.3125,1.1875 c 0.125,0.515625 0.25,0.671875 0.578125,0.671875 0.375,0 0.625,-0.234375 1.203125,-1.140625 L 4,-1.109375 z m 0,0"
               style="stroke:none" />
          </symbol>
          <symbol
             id="textext-fdf176a7-2"
             overflow="visible"
             style="overflow:visible">
            <path
               id="path4563"
               d=""
               style="stroke:none" />
          </symbol>
          <symbol
             id="textext-fdf176a7-3"
             overflow="visible"
             style="overflow:visible">
            <path
               id="path4566"
               d="m 1.0625,-2.296875 c 0.421875,0 0.578125,0.015625 0.75,0.078125 0.421875,0.15625 0.703125,0.546875 0.703125,1.03125 0,0.578125 -0.40625,1.03125 -0.921875,1.03125 -0.1875,0 -0.328125,-0.046875 -0.578125,-0.21875 C 0.796875,-0.5 0.6875,-0.546875 0.5625,-0.546875 c -0.15625,0 -0.265625,0.09375 -0.265625,0.25 0,0.234375 0.296875,0.390625 0.796875,0.390625 0.53125,0 1.078125,-0.171875 1.40625,-0.46875 0.328125,-0.28125 0.515625,-0.6875 0.515625,-1.15625 0,-0.34375 -0.109375,-0.671875 -0.3125,-0.890625 C 2.5625,-2.578125 2.421875,-2.65625 2.125,-2.796875 2.59375,-3.125 2.78125,-3.375 2.78125,-3.75 c 0,-0.578125 -0.453125,-0.953125 -1.09375,-0.953125 -0.34375,0 -0.65625,0.109375 -0.90625,0.328125 C 0.578125,-4.1875 0.46875,-4 0.3125,-3.578125 l 0.109375,0.03125 c 0.28125,-0.515625 0.59375,-0.75 1.03125,-0.75 0.453125,0 0.765625,0.3125 0.765625,0.75 0,0.25 -0.09375,0.5 -0.28125,0.671875 -0.203125,0.21875 -0.390625,0.3125 -0.875,0.484375 l 0,0.09375 z m 0,0"
               style="stroke:none" />
          </symbol>
        </g>
      </defs>
      <g
         id="textext-fdf176a7-4">
        <g
           id="g4569"
           style="fill:#000000;fill-opacity:1">
          <use
             id="use4571"
             y="134.765"
             x="223.92999"
             xlink:href="#textext-fdf176a7-1"
             width="248.03149"
             height="141.73228" />
        </g>
        <g
           id="g4573"
           style="fill:#000000;fill-opacity:1">
          <use
             id="use4575"
             y="136.259"
             x="228.354"
             xlink:href="#textext-fdf176a7-3"
             width="248.03149"
             height="141.73228" />
        </g>
      </g>
    </g>
  </g>
</svg>
