<?xml version="1.0" encoding="UTF-8" standalone="no"?>
<!-- Created with Inkscape (http://www.inkscape.org/) -->

<svg
   xmlns:ns0="http://www.iki.fi/pav/software/textext/"
   xmlns:dc="http://purl.org/dc/elements/1.1/"
   xmlns:cc="http://creativecommons.org/ns#"
   xmlns:rdf="http://www.w3.org/1999/02/22-rdf-syntax-ns#"
   xmlns:svg="http://www.w3.org/2000/svg"
   xmlns="http://www.w3.org/2000/svg"
   xmlns:xlink="http://www.w3.org/1999/xlink"
   xmlns:sodipodi="http://sodipodi.sourceforge.net/DTD/sodipodi-0.dtd"
   xmlns:inkscape="http://www.inkscape.org/namespaces/inkscape"
   sodipodi:docname="fig52-1.2.eps"
   inkscape:version="0.47 r22583"
   version="1.1"
   id="svg2"
   height="141.73228"
   width="177.16534">
  <sodipodi:namedview
     id="base"
     pagecolor="#ffffff"
     bordercolor="#666666"
     borderopacity="1.0"
     inkscape:pageopacity="0.0"
     inkscape:pageshadow="2"
     inkscape:zoom="2.1559911"
     inkscape:cx="88.46501"
     inkscape:cy="55.741047"
     inkscape:document-units="cm"
     inkscape:current-layer="layer1"
     showgrid="false"
     units="cm"
     inkscape:window-width="615"
     inkscape:window-height="681"
     inkscape:window-x="6"
     inkscape:window-y="34"
     inkscape:window-maximized="0">
    <inkscape:grid
       type="xygrid"
       id="grid2985"
       empspacing="5"
       visible="true"
       enabled="true"
       snapvisiblegridlinesonly="true" />
  </sodipodi:namedview>
  <defs
     id="defs4">
    <inkscape:perspective
       sodipodi:type="inkscape:persp3d"
       inkscape:vp_x="0 : 70.866142 : 1"
       inkscape:vp_y="0 : 1000 : 0"
       inkscape:vp_z="177.16534 : 70.866142 : 1"
       inkscape:persp3d-origin="88.582672 : 47.244095 : 1"
       id="perspective3243" />
    <marker
       inkscape:stockid="Arrow1Mstart"
       orient="auto"
       refY="0.0"
       refX="0.0"
       id="Arrow1Mstart"
       style="overflow:visible">
      <path
         id="path3768"
         d="M 0.0,0.0 L 5.0,-5.0 L -12.5,0.0 L 5.0,5.0 L 0.0,0.0 z "
         style="fill-rule:evenodd;stroke:#000000;stroke-width:1.0pt;marker-start:none"
         transform="scale(0.4) translate(10,0)" />
    </marker>
  </defs>
  <metadata
     id="metadata7">
    <rdf:RDF>
      <cc:Work
         rdf:about="">
        <dc:format>image/svg+xml</dc:format>
        <dc:type
           rdf:resource="http://purl.org/dc/dcmitype/StillImage" />
        <dc:title></dc:title>
      </cc:Work>
    </rdf:RDF>
  </metadata>
  <g
     inkscape:label="Layer 1"
     inkscape:groupmode="layer"
     id="layer1"
     transform="translate(0,-910.62859)">
    <path
       style="fill:none;stroke:#000000;stroke-width:0.99212599;stroke-linecap:butt;stroke-linejoin:miter;stroke-miterlimit:4;stroke-opacity:1;stroke-dasharray:none;marker-start:url(#Arrow1Mstart)"
       d="m 15,927.36088 0,110.00002"
       id="path2987"
       inkscape:connector-curvature="0" />
    <path
       style="fill:none;stroke:#000000;stroke-width:0.99212599;stroke-linecap:butt;stroke-linejoin:miter;stroke-miterlimit:4;stroke-opacity:1;stroke-dasharray:none;marker-start:url(#Arrow1Mstart)"
       d="m 170,1027.3609 -165.0000045,0"
       id="path2989"
       inkscape:connector-curvature="0"
       sodipodi:nodetypes="cc" />
    <path
       style="fill:none;stroke:#000000;stroke-width:1;stroke-linecap:butt;stroke-linejoin:miter;stroke-miterlimit:4;stroke-opacity:1;stroke-dasharray:3, 3;stroke-dashoffset:0"
       d="m 15,982.36087 80,0 0,45.00003"
       id="path4389"
       inkscape:connector-curvature="0"
       sodipodi:nodetypes="ccc" />
    <path
       style="fill:none;stroke:#000000;stroke-width:1px;stroke-linecap:butt;stroke-linejoin:miter;stroke-opacity:1"
       d="M 130,947.36087 45,1032.3609"
       id="path4391"
       inkscape:connector-curvature="0"
       sodipodi:nodetypes="cc" />
    <path
       sodipodi:type="arc"
       id="path4395"
       style="fill:#000000;stroke:none"
       sodipodi:cx="115"
       sodipodi:cy="972.36084"
       sodipodi:rx="1.5"
       sodipodi:ry="1.5"
       d="m 116.5,972.36084 c 0,0.82843 -0.67157,1.5 -1.5,1.5 -0.82843,0 -1.5,-0.67157 -1.5,-1.5 0,-0.82843 0.67157,-1.5 1.5,-1.5 0.82843,0 1.5,0.67157 1.5,1.5 z"
       transform="translate(-20.432524,9.7138227)" />
    <path
       sodipodi:type="arc"
       id="path4397"
       style="fill:#000000;stroke:none"
       sodipodi:cx="60"
       sodipodi:cy="1027.3608"
       sodipodi:rx="1.5"
       sodipodi:ry="1.5"
       d="m 61.5,1027.3608 c 0,0.8285 -0.671573,1.5 -1.5,1.5 -0.828427,0 -1.5,-0.6715 -1.5,-1.5 0,-0.8284 0.671573,-1.5 1.5,-1.5 0.828427,0 1.5,0.6716 1.5,1.5 z"
       transform="translate(-9.9385181,0)" />
    <path
       inkscape:connector-curvature="0"
       id="path4935"
       d="m 115.91743,959.16565 -9.91777,-14.0986"
       style="fill:none;stroke:#000000;stroke-width:0.99212599;stroke-linecap:butt;stroke-linejoin:miter;stroke-miterlimit:4;stroke-opacity:1;stroke-dasharray:none;marker-start:url(#Arrow1Mstart)"
       sodipodi:nodetypes="cc" />
    <text
       xml:space="preserve"
       style="font-size:6px;font-style:normal;font-variant:normal;font-weight:normal;font-stretch:normal;text-align:center;line-height:125%;letter-spacing:0px;word-spacing:0px;text-anchor:middle;fill:#000000;fill-opacity:1;stroke:none;font-family:LMRoman10;-inkscape-font-specification:LMRoman10"
       x="96.136925"
       y="936.03943"
       id="text4958"
       sodipodi:linespacing="125%"><tspan
         sodipodi:role="line"
         id="tspan4960"
         x="96.136925"
         y="936.03943">CHARACTERISTIC</tspan><tspan
         sodipodi:role="line"
         x="96.136925"
         y="943.53943"
         id="tspan4962">CURVES</tspan></text>
    <text
       xml:space="preserve"
       style="font-size:12px;font-style:normal;font-variant:normal;font-weight:normal;font-stretch:normal;line-height:125%;letter-spacing:0px;word-spacing:0px;fill:#000000;fill-opacity:1;stroke:none;font-family:LMRoman12;-inkscape-font-specification:LMRoman12"
       x="135.12538"
       y="936.58038"
       id="text4964"
       sodipodi:linespacing="125%"><tspan
         sodipodi:role="line"
         id="tspan4966"
         x="135.12538"
         y="936.58038" /></text>
    <text
       xml:space="preserve"
       style="font-size:12px;font-style:normal;font-variant:normal;font-weight:normal;font-stretch:normal;text-align:center;line-height:125%;letter-spacing:0px;word-spacing:0px;text-anchor:middle;fill:#000000;fill-opacity:1;stroke:none;font-family:LMRoman12;-inkscape-font-specification:LMRoman12"
       x="8.5266743"
       y="1035.7812"
       id="text5390"
       sodipodi:linespacing="125%"><tspan
         sodipodi:role="line"
         id="tspan5392"
         x="8.5266743"
         y="1035.7812">o</tspan></text>
    <path
       inkscape:connector-curvature="0"
       id="path5762"
       d="m 65,952.36084 90,90.00006"
       style="fill:none;stroke:#000000;stroke-width:1px;stroke-linecap:butt;stroke-linejoin:miter;stroke-opacity:1" />
    <path
       sodipodi:nodetypes="cc"
       style="fill:none;stroke:#000000;stroke-width:0.99212599;stroke-linecap:butt;stroke-linejoin:miter;stroke-miterlimit:4;stroke-opacity:1;stroke-dasharray:none;marker-start:url(#Arrow1Mstart)"
       d="m 77.515952,960.50548 9.91777,-14.0986"
       id="path5764"
       inkscape:connector-curvature="0" />
    <path
       transform="translate(79.977508,-0.05921302)"
       d="m 61.5,1027.3608 c 0,0.8285 -0.671573,1.5 -1.5,1.5 -0.828427,0 -1.5,-0.6715 -1.5,-1.5 0,-0.8284 0.671573,-1.5 1.5,-1.5 0.828427,0 1.5,0.6716 1.5,1.5 z"
       sodipodi:ry="1.5"
       sodipodi:rx="1.5"
       sodipodi:cy="1027.3608"
       sodipodi:cx="60"
       style="fill:#000000;stroke:none"
       id="path5766"
       sodipodi:type="arc" />
    <g
       ns0:text="$(x-C_o t, o)$"
       ns0:preamble="/home/sriranga/Documents/TIFR/preamble.tex"
       transform="matrix(1.2,0,0,1.2,-250.95118,881.15074)"
       id="g4364">
      <defs
         id="defs4366">
        <g
           id="g4368">
          <symbol
             style="overflow:visible"
             overflow="visible"
             id="textext-19588a27-0">
            <path
               style="stroke:none"
               d=""
               id="path4371" />
          </symbol>
          <symbol
             style="overflow:visible"
             overflow="visible"
             id="textext-19588a27-1">
            <path
               style="stroke:none"
               d="M 2.9375,-6.734375 C 2.203125,-6.265625 1.90625,-6 1.53125,-5.546875 c -0.703125,0.875 -1.046875,1.875 -1.046875,3.03125 0,1.265625 0.359375,2.25 1.234375,3.265625 0.421875,0.46875 0.671875,0.703125 1.1875,1.015625 l 0.125,-0.15625 C 2.234375,0.984375 1.953125,0.625 1.6875,-0.125 1.453125,-0.78125 1.328125,-1.546875 1.328125,-2.546875 1.328125,-3.59375 1.46875,-4.40625 1.734375,-5.03125 2.015625,-5.640625 2.3125,-6 3.03125,-6.578125 L 2.9375,-6.734375 z m 0,0"
               id="path4374" />
          </symbol>
          <symbol
             style="overflow:visible"
             overflow="visible"
             id="textext-19588a27-2">
            <path
               style="stroke:none"
               d="M 0.375,1.765625 C 1.109375,1.28125 1.421875,1.03125 1.78125,0.5625 2.5,-0.296875 2.84375,-1.296875 2.84375,-2.46875 c 0,-1.265625 -0.375,-2.234375 -1.25,-3.25 C 1.1875,-6.203125 0.921875,-6.421875 0.40625,-6.734375 l -0.109375,0.15625 c 0.796875,0.625 1.0625,0.96875 1.34375,1.71875 0.234375,0.671875 0.34375,1.4375 0.34375,2.421875 0,1.046875 -0.125,1.875 -0.40625,2.484375 C 1.3125,0.671875 1,1.03125 0.296875,1.609375 L 0.375,1.765625 z m 0,0"
               id="path4377" />
          </symbol>
          <symbol
             style="overflow:visible"
             overflow="visible"
             id="textext-19588a27-3">
            <path
               style="stroke:none"
               d=""
               id="path4380" />
          </symbol>
          <symbol
             style="overflow:visible"
             overflow="visible"
             id="textext-19588a27-4">
            <path
               style="stroke:none"
               d="M 4,-1.109375 C 3.921875,-1.015625 3.875,-0.953125 3.78125,-0.84375 3.5625,-0.53125 3.4375,-0.4375 3.328125,-0.4375 3.1875,-0.4375 3.09375,-0.5625 3.015625,-0.84375 3,-0.921875 2.984375,-0.984375 2.984375,-1.015625 2.734375,-2.03125 2.625,-2.484375 2.625,-2.625 c 0.4375,-0.78125 0.796875,-1.21875 0.96875,-1.21875 0.0625,0 0.140625,0.03125 0.25,0.078125 0.109375,0.078125 0.1875,0.09375 0.265625,0.09375 0.203125,0 0.34375,-0.140625 0.34375,-0.359375 0,-0.203125 -0.171875,-0.359375 -0.40625,-0.359375 -0.4375,0 -0.8125,0.359375 -1.5,1.421875 L 2.4375,-3.515625 c -0.140625,-0.6875 -0.25,-0.875 -0.53125,-0.875 -0.21875,0 -0.546875,0.078125 -1.15625,0.28125 L 0.640625,-4.0625 0.671875,-3.921875 C 1.0625,-4 1.140625,-4.03125 1.234375,-4.03125 c 0.25,0 0.3125,0.09375 0.453125,0.6875 l 0.28125,1.234375 -0.8125,1.15625 C 0.953125,-0.640625 0.75,-0.46875 0.640625,-0.46875 0.59375,-0.46875 0.484375,-0.5 0.390625,-0.5625 0.265625,-0.625 0.15625,-0.65625 0.0625,-0.65625 c -0.1875,0 -0.328125,0.140625 -0.328125,0.34375 0,0.265625 0.203125,0.421875 0.5,0.421875 0.296875,0 0.421875,-0.09375 0.921875,-0.703125 0.265625,-0.3125 0.484375,-0.578125 0.890625,-1.15625 l 0.3125,1.1875 c 0.125,0.515625 0.25,0.671875 0.578125,0.671875 0.375,0 0.625,-0.234375 1.203125,-1.140625 L 4,-1.109375 z m 0,0"
               id="path4383" />
          </symbol>
          <symbol
             style="overflow:visible"
             overflow="visible"
             id="textext-19588a27-5">
            <path
               style="stroke:none"
               d="M 6.5,-4.640625 6.875,-6.625 l -0.21875,0 c -0.078125,0.171875 -0.171875,0.21875 -0.375,0.21875 -0.078125,0 -0.203125,-0.015625 -0.40625,-0.0625 -0.453125,-0.109375 -0.84375,-0.171875 -1.171875,-0.171875 -2.125,0 -4.046875,2 -4.046875,4.21875 0,1.53125 1.078125,2.59375 2.609375,2.59375 1.015625,0 1.8125,-0.4375 2.71875,-1.484375 L 5.8125,-1.453125 c -0.890625,0.890625 -1.46875,1.1875 -2.296875,1.1875 -1.109375,0 -1.734375,-0.765625 -1.734375,-2.046875 0,-1.1875 0.46875,-2.390625 1.25,-3.203125 C 3.515625,-6 4.140625,-6.28125 4.796875,-6.28125 c 0.921875,0 1.421875,0.546875 1.515625,1.609375 L 6.5,-4.640625 z m 0,0"
               id="path4386" />
          </symbol>
          <symbol
             style="overflow:visible"
             overflow="visible"
             id="textext-19588a27-6">
            <path
               style="stroke:none"
               d="m 2.953125,-4.265625 -0.796875,0 0.28125,-1.03125 c 0,-0.015625 0,-0.03125 0,-0.046875 0,-0.0625 -0.03125,-0.09375 -0.078125,-0.09375 -0.0625,0 -0.09375,0 -0.140625,0.078125 C 1.828125,-4.84375 1.203125,-4.34375 0.890625,-4.25 0.640625,-4.171875 0.5625,-4.109375 0.5625,-4 c 0,0 0,0.015625 0.015625,0.046875 l 0.734375,0 -0.71875,2.75 C 0.578125,-1.109375 0.5625,-1.09375 0.53125,-1 0.453125,-0.703125 0.375,-0.34375 0.375,-0.265625 c 0,0.21875 0.203125,0.375 0.46875,0.375 0.46875,0 0.796875,-0.28125 1.421875,-1.203125 l -0.125,-0.078125 c -0.5,0.640625 -0.65625,0.796875 -0.8125,0.796875 -0.09375,0 -0.15625,-0.078125 -0.15625,-0.203125 0,-0.015625 0,-0.015625 0.015625,-0.046875 l 0.875,-3.328125 0.84375,0 0.046875,-0.3125 z m 0,0"
               id="path4390" />
          </symbol>
          <symbol
             style="overflow:visible"
             overflow="visible"
             id="textext-19588a27-7">
            <path
               style="stroke:none"
               d="m 3.234375,-4.390625 c -1.484375,0 -2.96875,1.546875 -2.96875,3.109375 0,0.859375 0.5625,1.390625 1.46875,1.390625 0.65625,0 1.296875,-0.296875 1.875,-0.859375 0.65625,-0.65625 1.0625,-1.5 1.0625,-2.25 0,-0.828125 -0.578125,-1.390625 -1.4375,-1.390625 z M 3.125,-4.1875 c 0.421875,0 0.703125,0.375 0.703125,0.9375 0,0.734375 -0.328125,1.71875 -0.765625,2.375 -0.375,0.53125 -0.75,0.78125 -1.171875,0.78125 -0.46875,0 -0.78125,-0.359375 -0.78125,-0.90625 0,-0.75 0.28125,-1.625 0.78125,-2.328125 C 2.265625,-3.890625 2.6875,-4.1875 3.125,-4.1875 z m 0,0"
               id="path4393" />
          </symbol>
          <symbol
             style="overflow:visible"
             overflow="visible"
             id="textext-19588a27-8">
            <path
               style="stroke:none"
               d=""
               id="path4396" />
          </symbol>
          <symbol
             style="overflow:visible"
             overflow="visible"
             id="textext-19588a27-9">
            <path
               style="stroke:none"
               d="m 5.71875,-2.28125 0,-0.5625 -5.09375,0 0,0.5625 5.09375,0 z m 0,0"
               id="path4399" />
          </symbol>
          <symbol
             style="overflow:visible"
             overflow="visible"
             id="textext-19588a27-10">
            <path
               style="stroke:none"
               d=""
               id="path4402" />
          </symbol>
          <symbol
             style="overflow:visible"
             overflow="visible"
             id="textext-19588a27-11">
            <path
               style="stroke:none"
               d="M 2.265625,-3.078125 C 1.21875,-3.078125 0.1875,-2 0.1875,-0.90625 c 0,0.609375 0.390625,0.984375 1.03125,0.984375 0.453125,0 0.90625,-0.203125 1.296875,-0.609375 0.46875,-0.453125 0.75,-1.046875 0.75,-1.5625 0,-0.578125 -0.40625,-0.984375 -1,-0.984375 z M 2.1875,-2.921875 c 0.296875,0 0.484375,0.25 0.484375,0.65625 0,0.5 -0.21875,1.203125 -0.53125,1.65625 C 1.875,-0.25 1.609375,-0.0625 1.3125,-0.0625 c -0.328125,0 -0.53125,-0.265625 -0.53125,-0.640625 0,-0.515625 0.1875,-1.125 0.53125,-1.625 0.28125,-0.390625 0.5625,-0.59375 0.875,-0.59375 z m 0,0"
               id="path4405" />
          </symbol>
          <symbol
             style="overflow:visible"
             overflow="visible"
             id="textext-19588a27-12">
            <path
               style="stroke:none"
               d=""
               id="path4408" />
          </symbol>
          <symbol
             style="overflow:visible"
             overflow="visible"
             id="textext-19588a27-13">
            <path
               style="stroke:none"
               d="m 1.9375,-0.0625 c 0,-0.828125 -0.578125,-0.953125 -0.796875,-0.953125 -0.25,0 -0.578125,0.140625 -0.578125,0.578125 0,0.390625 0.359375,0.5 0.609375,0.5 0.078125,0 0.125,-0.015625 0.15625,-0.015625 0.03125,-0.015625 0.0625,-0.03125 0.09375,-0.03125 0.0625,0 0.140625,0.046875 0.140625,0.140625 0,0.1875 -0.171875,0.640625 -0.828125,1.0625 l 0.09375,0.1875 C 1.125,1.3125 1.9375,0.640625 1.9375,-0.0625 z m 0,0"
               id="path4411" />
          </symbol>
        </g>
      </defs>
      <g
         id="textext-19588a27-14">
        <g
           style="fill:#000000;fill-opacity:1"
           id="g4415">
          <use
             height="141.73228"
             width="177.16534"
             xlink:href="#textext-19588a27-1"
             x="223.43201"
             y="134.765"
             id="use4417" />
        </g>
        <g
           style="fill:#000000;fill-opacity:1"
           id="g4419">
          <use
             height="141.73228"
             width="177.16534"
             xlink:href="#textext-19588a27-4"
             x="227.248"
             y="134.765"
             id="use4421" />
        </g>
        <g
           style="fill:#000000;fill-opacity:1"
           id="g4423">
          <use
             height="141.73228"
             width="177.16534"
             xlink:href="#textext-19588a27-9"
             x="233.91499"
             y="134.765"
             id="use4425" />
        </g>
        <g
           style="fill:#000000;fill-opacity:1"
           id="g4427">
          <use
             height="141.73228"
             width="177.16534"
             xlink:href="#textext-19588a27-5"
             x="242.216"
             y="134.765"
             id="use4429" />
        </g>
        <g
           style="fill:#000000;fill-opacity:1"
           id="g4431">
          <use
             height="141.73228"
             width="177.16534"
             xlink:href="#textext-19588a27-11"
             x="249.11"
             y="136.259"
             id="use4433" />
        </g>
        <g
           style="fill:#000000;fill-opacity:1"
           id="g4435">
          <use
             height="141.73228"
             width="177.16534"
             xlink:href="#textext-19588a27-6"
             x="253.095"
             y="134.765"
             id="use4437" />
        </g>
        <g
           style="fill:#000000;fill-opacity:1"
           id="g4439">
          <use
             height="141.73228"
             width="177.16534"
             xlink:href="#textext-19588a27-13"
             x="256.04401"
             y="134.765"
             id="use4441" />
        </g>
        <g
           style="fill:#000000;fill-opacity:1"
           id="g4443">
          <use
             height="141.73228"
             width="177.16534"
             xlink:href="#textext-19588a27-7"
             x="260.19501"
             y="134.765"
             id="use4445" />
        </g>
        <g
           style="fill:#000000;fill-opacity:1"
           id="g4447">
          <use
             height="141.73228"
             width="177.16534"
             xlink:href="#textext-19588a27-2"
             x="265.17599"
             y="134.765"
             id="use4449" />
        </g>
      </g>
    </g>
    <g
       id="g4734"
       transform="matrix(1.2,0,0,1.2,-166.48203,823.96212)"
       ns0:preamble="/home/sriranga/Documents/TIFR/preamble.tex"
       ns0:text="$(x, t)$">
      <defs
         id="defs4736">
        <g
           id="g4738">
          <symbol
             id="textext-a19cea3a-0"
             overflow="visible">
            <path
               id="path4741"
               d=""
               style="stroke:none;" />
          </symbol>
          <symbol
             id="textext-a19cea3a-1"
             overflow="visible">
            <path
               id="path4744"
               d="M 2.9375 -6.734375 C 2.203125 -6.265625 1.90625 -6 1.53125 -5.546875 C 0.828125 -4.671875 0.484375 -3.671875 0.484375 -2.515625 C 0.484375 -1.25 0.84375 -0.265625 1.71875 0.75 C 2.140625 1.21875 2.390625 1.453125 2.90625 1.765625 L 3.03125 1.609375 C 2.234375 0.984375 1.953125 0.625 1.6875 -0.125 C 1.453125 -0.78125 1.328125 -1.546875 1.328125 -2.546875 C 1.328125 -3.59375 1.46875 -4.40625 1.734375 -5.03125 C 2.015625 -5.640625 2.3125 -6 3.03125 -6.578125 L 2.9375 -6.734375 Z M 2.9375 -6.734375 "
               style="stroke:none;" />
          </symbol>
          <symbol
             id="textext-a19cea3a-2"
             overflow="visible">
            <path
               id="path4747"
               d="M 0.375 1.765625 C 1.109375 1.28125 1.421875 1.03125 1.78125 0.5625 C 2.5 -0.296875 2.84375 -1.296875 2.84375 -2.46875 C 2.84375 -3.734375 2.46875 -4.703125 1.59375 -5.71875 C 1.1875 -6.203125 0.921875 -6.421875 0.40625 -6.734375 L 0.296875 -6.578125 C 1.09375 -5.953125 1.359375 -5.609375 1.640625 -4.859375 C 1.875 -4.1875 1.984375 -3.421875 1.984375 -2.4375 C 1.984375 -1.390625 1.859375 -0.5625 1.578125 0.046875 C 1.3125 0.671875 1 1.03125 0.296875 1.609375 L 0.375 1.765625 Z M 0.375 1.765625 "
               style="stroke:none;" />
          </symbol>
          <symbol
             id="textext-a19cea3a-3"
             overflow="visible">
            <path
               id="path4750"
               d=""
               style="stroke:none;" />
          </symbol>
          <symbol
             id="textext-a19cea3a-4"
             overflow="visible">
            <path
               id="path4753"
               d="M 4 -1.109375 C 3.921875 -1.015625 3.875 -0.953125 3.78125 -0.84375 C 3.5625 -0.53125 3.4375 -0.4375 3.328125 -0.4375 C 3.1875 -0.4375 3.09375 -0.5625 3.015625 -0.84375 C 3 -0.921875 2.984375 -0.984375 2.984375 -1.015625 C 2.734375 -2.03125 2.625 -2.484375 2.625 -2.625 C 3.0625 -3.40625 3.421875 -3.84375 3.59375 -3.84375 C 3.65625 -3.84375 3.734375 -3.8125 3.84375 -3.765625 C 3.953125 -3.6875 4.03125 -3.671875 4.109375 -3.671875 C 4.3125 -3.671875 4.453125 -3.8125 4.453125 -4.03125 C 4.453125 -4.234375 4.28125 -4.390625 4.046875 -4.390625 C 3.609375 -4.390625 3.234375 -4.03125 2.546875 -2.96875 L 2.4375 -3.515625 C 2.296875 -4.203125 2.1875 -4.390625 1.90625 -4.390625 C 1.6875 -4.390625 1.359375 -4.3125 0.75 -4.109375 L 0.640625 -4.0625 L 0.671875 -3.921875 C 1.0625 -4 1.140625 -4.03125 1.234375 -4.03125 C 1.484375 -4.03125 1.546875 -3.9375 1.6875 -3.34375 L 1.96875 -2.109375 L 1.15625 -0.953125 C 0.953125 -0.640625 0.75 -0.46875 0.640625 -0.46875 C 0.59375 -0.46875 0.484375 -0.5 0.390625 -0.5625 C 0.265625 -0.625 0.15625 -0.65625 0.0625 -0.65625 C -0.125 -0.65625 -0.265625 -0.515625 -0.265625 -0.3125 C -0.265625 -0.046875 -0.0625 0.109375 0.234375 0.109375 C 0.53125 0.109375 0.65625 0.015625 1.15625 -0.59375 C 1.421875 -0.90625 1.640625 -1.171875 2.046875 -1.75 L 2.359375 -0.5625 C 2.484375 -0.046875 2.609375 0.109375 2.9375 0.109375 C 3.3125 0.109375 3.5625 -0.125 4.140625 -1.03125 L 4 -1.109375 Z M 4 -1.109375 "
               style="stroke:none;" />
          </symbol>
          <symbol
             id="textext-a19cea3a-5"
             overflow="visible">
            <path
               id="path4756"
               d="M 2.953125 -4.265625 L 2.15625 -4.265625 L 2.4375 -5.296875 C 2.4375 -5.3125 2.4375 -5.328125 2.4375 -5.34375 C 2.4375 -5.40625 2.40625 -5.4375 2.359375 -5.4375 C 2.296875 -5.4375 2.265625 -5.4375 2.21875 -5.359375 C 1.828125 -4.84375 1.203125 -4.34375 0.890625 -4.25 C 0.640625 -4.171875 0.5625 -4.109375 0.5625 -4 C 0.5625 -4 0.5625 -3.984375 0.578125 -3.953125 L 1.3125 -3.953125 L 0.59375 -1.203125 C 0.578125 -1.109375 0.5625 -1.09375 0.53125 -1 C 0.453125 -0.703125 0.375 -0.34375 0.375 -0.265625 C 0.375 -0.046875 0.578125 0.109375 0.84375 0.109375 C 1.3125 0.109375 1.640625 -0.171875 2.265625 -1.09375 L 2.140625 -1.171875 C 1.640625 -0.53125 1.484375 -0.375 1.328125 -0.375 C 1.234375 -0.375 1.171875 -0.453125 1.171875 -0.578125 C 1.171875 -0.59375 1.171875 -0.59375 1.1875 -0.625 L 2.0625 -3.953125 L 2.90625 -3.953125 L 2.953125 -4.265625 Z M 2.953125 -4.265625 "
               style="stroke:none;" />
          </symbol>
          <symbol
             id="textext-a19cea3a-6"
             overflow="visible">
            <path
               id="path4759"
               d=""
               style="stroke:none;" />
          </symbol>
          <symbol
             id="textext-a19cea3a-7"
             overflow="visible">
            <path
               id="path4762"
               d="M 1.9375 -0.0625 C 1.9375 -0.890625 1.359375 -1.015625 1.140625 -1.015625 C 0.890625 -1.015625 0.5625 -0.875 0.5625 -0.4375 C 0.5625 -0.046875 0.921875 0.0625 1.171875 0.0625 C 1.25 0.0625 1.296875 0.046875 1.328125 0.046875 C 1.359375 0.03125 1.390625 0.015625 1.421875 0.015625 C 1.484375 0.015625 1.5625 0.0625 1.5625 0.15625 C 1.5625 0.34375 1.390625 0.796875 0.734375 1.21875 L 0.828125 1.40625 C 1.125 1.3125 1.9375 0.640625 1.9375 -0.0625 Z M 1.9375 -0.0625 "
               style="stroke:none;" />
          </symbol>
        </g>
      </defs>
      <g
         id="textext-a19cea3a-8">
        <g
           id="g4765"
           style="fill:rgb(0%,0%,0%);fill-opacity:1;">
          <use
             id="use4767"
             y="134.765"
             x="223.432"
             xlink:href="#textext-a19cea3a-1" />
        </g>
        <g
           id="g4769"
           style="fill:rgb(0%,0%,0%);fill-opacity:1;">
          <use
             id="use4771"
             y="134.765"
             x="227.248"
             xlink:href="#textext-a19cea3a-4" />
        </g>
        <g
           id="g4773"
           style="fill:rgb(0%,0%,0%);fill-opacity:1;">
          <use
             id="use4775"
             y="134.765"
             x="231.701"
             xlink:href="#textext-a19cea3a-7" />
        </g>
        <g
           id="g4777"
           style="fill:rgb(0%,0%,0%);fill-opacity:1;">
          <use
             id="use4779"
             y="134.765"
             x="235.852"
             xlink:href="#textext-a19cea3a-5" />
        </g>
        <g
           id="g4781"
           style="fill:rgb(0%,0%,0%);fill-opacity:1;">
          <use
             id="use4783"
             y="134.765"
             x="238.801"
             xlink:href="#textext-a19cea3a-2" />
        </g>
      </g>
    </g>
    <g
       id="g5443"
       transform="matrix(1.2,0,0,1.2,-178.80908,877.01322)"
       ns0:preamble="/home/sriranga/Documents/TIFR/preamble.tex"
       ns0:text="$(x+ C_o t, o)$">
      <defs
         id="defs5445">
        <g
           id="g5447">
          <symbol
             id="textext-740af6db-0"
             overflow="visible"
             style="overflow:visible">
            <path
               id="path5450"
               d=""
               style="stroke:none" />
          </symbol>
          <symbol
             id="textext-740af6db-1"
             overflow="visible"
             style="overflow:visible">
            <path
               id="path5453"
               d="M 2.9375,-6.734375 C 2.203125,-6.265625 1.90625,-6 1.53125,-5.546875 c -0.703125,0.875 -1.046875,1.875 -1.046875,3.03125 0,1.265625 0.359375,2.25 1.234375,3.265625 0.421875,0.46875 0.671875,0.703125 1.1875,1.015625 l 0.125,-0.15625 C 2.234375,0.984375 1.953125,0.625 1.6875,-0.125 1.453125,-0.78125 1.328125,-1.546875 1.328125,-2.546875 1.328125,-3.59375 1.46875,-4.40625 1.734375,-5.03125 2.015625,-5.640625 2.3125,-6 3.03125,-6.578125 L 2.9375,-6.734375 z m 0,0"
               style="stroke:none" />
          </symbol>
          <symbol
             id="textext-740af6db-2"
             overflow="visible"
             style="overflow:visible">
            <path
               id="path5456"
               d="M 0.375,1.765625 C 1.109375,1.28125 1.421875,1.03125 1.78125,0.5625 2.5,-0.296875 2.84375,-1.296875 2.84375,-2.46875 c 0,-1.265625 -0.375,-2.234375 -1.25,-3.25 C 1.1875,-6.203125 0.921875,-6.421875 0.40625,-6.734375 l -0.109375,0.15625 c 0.796875,0.625 1.0625,0.96875 1.34375,1.71875 0.234375,0.671875 0.34375,1.4375 0.34375,2.421875 0,1.046875 -0.125,1.875 -0.40625,2.484375 C 1.3125,0.671875 1,1.03125 0.296875,1.609375 L 0.375,1.765625 z m 0,0"
               style="stroke:none" />
          </symbol>
          <symbol
             id="textext-740af6db-3"
             overflow="visible"
             style="overflow:visible">
            <path
               id="path5459"
               d=""
               style="stroke:none" />
          </symbol>
          <symbol
             id="textext-740af6db-4"
             overflow="visible"
             style="overflow:visible">
            <path
               id="path5462"
               d="M 4,-1.109375 C 3.921875,-1.015625 3.875,-0.953125 3.78125,-0.84375 3.5625,-0.53125 3.4375,-0.4375 3.328125,-0.4375 3.1875,-0.4375 3.09375,-0.5625 3.015625,-0.84375 3,-0.921875 2.984375,-0.984375 2.984375,-1.015625 2.734375,-2.03125 2.625,-2.484375 2.625,-2.625 c 0.4375,-0.78125 0.796875,-1.21875 0.96875,-1.21875 0.0625,0 0.140625,0.03125 0.25,0.078125 0.109375,0.078125 0.1875,0.09375 0.265625,0.09375 0.203125,0 0.34375,-0.140625 0.34375,-0.359375 0,-0.203125 -0.171875,-0.359375 -0.40625,-0.359375 -0.4375,0 -0.8125,0.359375 -1.5,1.421875 L 2.4375,-3.515625 c -0.140625,-0.6875 -0.25,-0.875 -0.53125,-0.875 -0.21875,0 -0.546875,0.078125 -1.15625,0.28125 L 0.640625,-4.0625 0.671875,-3.921875 C 1.0625,-4 1.140625,-4.03125 1.234375,-4.03125 c 0.25,0 0.3125,0.09375 0.453125,0.6875 l 0.28125,1.234375 -0.8125,1.15625 C 0.953125,-0.640625 0.75,-0.46875 0.640625,-0.46875 0.59375,-0.46875 0.484375,-0.5 0.390625,-0.5625 0.265625,-0.625 0.15625,-0.65625 0.0625,-0.65625 c -0.1875,0 -0.328125,0.140625 -0.328125,0.34375 0,0.265625 0.203125,0.421875 0.5,0.421875 0.296875,0 0.421875,-0.09375 0.921875,-0.703125 0.265625,-0.3125 0.484375,-0.578125 0.890625,-1.15625 l 0.3125,1.1875 c 0.125,0.515625 0.25,0.671875 0.578125,0.671875 0.375,0 0.625,-0.234375 1.203125,-1.140625 L 4,-1.109375 z m 0,0"
               style="stroke:none" />
          </symbol>
          <symbol
             id="textext-740af6db-5"
             overflow="visible"
             style="overflow:visible">
            <path
               id="path5465"
               d="M 6.5,-4.640625 6.875,-6.625 l -0.21875,0 c -0.078125,0.171875 -0.171875,0.21875 -0.375,0.21875 -0.078125,0 -0.203125,-0.015625 -0.40625,-0.0625 -0.453125,-0.109375 -0.84375,-0.171875 -1.171875,-0.171875 -2.125,0 -4.046875,2 -4.046875,4.21875 0,1.53125 1.078125,2.59375 2.609375,2.59375 1.015625,0 1.8125,-0.4375 2.71875,-1.484375 L 5.8125,-1.453125 c -0.890625,0.890625 -1.46875,1.1875 -2.296875,1.1875 -1.109375,0 -1.734375,-0.765625 -1.734375,-2.046875 0,-1.1875 0.46875,-2.390625 1.25,-3.203125 C 3.515625,-6 4.140625,-6.28125 4.796875,-6.28125 c 0.921875,0 1.421875,0.546875 1.515625,1.609375 L 6.5,-4.640625 z m 0,0"
               style="stroke:none" />
          </symbol>
          <symbol
             id="textext-740af6db-6"
             overflow="visible"
             style="overflow:visible">
            <path
               id="path5468"
               d="m 2.953125,-4.265625 -0.796875,0 0.28125,-1.03125 c 0,-0.015625 0,-0.03125 0,-0.046875 0,-0.0625 -0.03125,-0.09375 -0.078125,-0.09375 -0.0625,0 -0.09375,0 -0.140625,0.078125 C 1.828125,-4.84375 1.203125,-4.34375 0.890625,-4.25 0.640625,-4.171875 0.5625,-4.109375 0.5625,-4 c 0,0 0,0.015625 0.015625,0.046875 l 0.734375,0 -0.71875,2.75 C 0.578125,-1.109375 0.5625,-1.09375 0.53125,-1 0.453125,-0.703125 0.375,-0.34375 0.375,-0.265625 c 0,0.21875 0.203125,0.375 0.46875,0.375 0.46875,0 0.796875,-0.28125 1.421875,-1.203125 l -0.125,-0.078125 c -0.5,0.640625 -0.65625,0.796875 -0.8125,0.796875 -0.09375,0 -0.15625,-0.078125 -0.15625,-0.203125 0,-0.015625 0,-0.015625 0.015625,-0.046875 l 0.875,-3.328125 0.84375,0 0.046875,-0.3125 z m 0,0"
               style="stroke:none" />
          </symbol>
          <symbol
             id="textext-740af6db-7"
             overflow="visible"
             style="overflow:visible">
            <path
               id="path5471"
               d="m 3.234375,-4.390625 c -1.484375,0 -2.96875,1.546875 -2.96875,3.109375 0,0.859375 0.5625,1.390625 1.46875,1.390625 0.65625,0 1.296875,-0.296875 1.875,-0.859375 0.65625,-0.65625 1.0625,-1.5 1.0625,-2.25 0,-0.828125 -0.578125,-1.390625 -1.4375,-1.390625 z M 3.125,-4.1875 c 0.421875,0 0.703125,0.375 0.703125,0.9375 0,0.734375 -0.328125,1.71875 -0.765625,2.375 -0.375,0.53125 -0.75,0.78125 -1.171875,0.78125 -0.46875,0 -0.78125,-0.359375 -0.78125,-0.90625 0,-0.75 0.28125,-1.625 0.78125,-2.328125 C 2.265625,-3.890625 2.6875,-4.1875 3.125,-4.1875 z m 0,0"
               style="stroke:none" />
          </symbol>
          <symbol
             id="textext-740af6db-8"
             overflow="visible"
             style="overflow:visible">
            <path
               id="path5474"
               d=""
               style="stroke:none" />
          </symbol>
          <symbol
             id="textext-740af6db-9"
             overflow="visible"
             style="overflow:visible">
            <path
               id="path5477"
               d="m 5.71875,-2.28125 0,-0.5625 -2.265625,0 0,-2.25 -0.5625,0 0,2.25 -2.265625,0 0,0.5625 2.265625,0 0,2.28125 0.5625,0 0,-2.28125 2.265625,0 z m 0,0"
               style="stroke:none" />
          </symbol>
          <symbol
             id="textext-740af6db-10"
             overflow="visible"
             style="overflow:visible">
            <path
               id="path5480"
               d=""
               style="stroke:none" />
          </symbol>
          <symbol
             id="textext-740af6db-11"
             overflow="visible"
             style="overflow:visible">
            <path
               id="path5483"
               d="M 2.265625,-3.078125 C 1.21875,-3.078125 0.1875,-2 0.1875,-0.90625 c 0,0.609375 0.390625,0.984375 1.03125,0.984375 0.453125,0 0.90625,-0.203125 1.296875,-0.609375 0.46875,-0.453125 0.75,-1.046875 0.75,-1.5625 0,-0.578125 -0.40625,-0.984375 -1,-0.984375 z M 2.1875,-2.921875 c 0.296875,0 0.484375,0.25 0.484375,0.65625 0,0.5 -0.21875,1.203125 -0.53125,1.65625 C 1.875,-0.25 1.609375,-0.0625 1.3125,-0.0625 c -0.328125,0 -0.53125,-0.265625 -0.53125,-0.640625 0,-0.515625 0.1875,-1.125 0.53125,-1.625 0.28125,-0.390625 0.5625,-0.59375 0.875,-0.59375 z m 0,0"
               style="stroke:none" />
          </symbol>
          <symbol
             id="textext-740af6db-12"
             overflow="visible"
             style="overflow:visible">
            <path
               id="path5486"
               d=""
               style="stroke:none" />
          </symbol>
          <symbol
             id="textext-740af6db-13"
             overflow="visible"
             style="overflow:visible">
            <path
               id="path5489"
               d="m 1.9375,-0.0625 c 0,-0.828125 -0.578125,-0.953125 -0.796875,-0.953125 -0.25,0 -0.578125,0.140625 -0.578125,0.578125 0,0.390625 0.359375,0.5 0.609375,0.5 0.078125,0 0.125,-0.015625 0.15625,-0.015625 0.03125,-0.015625 0.0625,-0.03125 0.09375,-0.03125 0.0625,0 0.140625,0.046875 0.140625,0.140625 0,0.1875 -0.171875,0.640625 -0.828125,1.0625 l 0.09375,0.1875 C 1.125,1.3125 1.9375,0.640625 1.9375,-0.0625 z m 0,0"
               style="stroke:none" />
          </symbol>
        </g>
      </defs>
      <g
         id="textext-740af6db-14">
        <g
           id="g5492"
           style="fill:#000000;fill-opacity:1">
          <use
             id="use5494"
             y="134.765"
             x="223.43201"
             xlink:href="#textext-740af6db-1"
             width="177.16534"
             height="141.73228" />
        </g>
        <g
           id="g5496"
           style="fill:#000000;fill-opacity:1">
          <use
             id="use5498"
             y="134.765"
             x="227.248"
             xlink:href="#textext-740af6db-4"
             width="177.16534"
             height="141.73228" />
        </g>
        <g
           id="g5500"
           style="fill:#000000;fill-opacity:1">
          <use
             id="use5502"
             y="134.765"
             x="233.91499"
             xlink:href="#textext-740af6db-9"
             width="177.16534"
             height="141.73228" />
        </g>
        <g
           id="g5504"
           style="fill:#000000;fill-opacity:1">
          <use
             id="use5506"
             y="134.765"
             x="242.216"
             xlink:href="#textext-740af6db-5"
             width="177.16534"
             height="141.73228" />
        </g>
        <g
           id="g5508"
           style="fill:#000000;fill-opacity:1">
          <use
             id="use5510"
             y="136.259"
             x="249.11"
             xlink:href="#textext-740af6db-11"
             width="177.16534"
             height="141.73228" />
        </g>
        <g
           id="g5512"
           style="fill:#000000;fill-opacity:1">
          <use
             id="use5514"
             y="134.765"
             x="253.095"
             xlink:href="#textext-740af6db-6"
             width="177.16534"
             height="141.73228" />
        </g>
        <g
           id="g5516"
           style="fill:#000000;fill-opacity:1">
          <use
             id="use5518"
             y="134.765"
             x="256.04401"
             xlink:href="#textext-740af6db-13"
             width="177.16534"
             height="141.73228" />
        </g>
        <g
           id="g5520"
           style="fill:#000000;fill-opacity:1">
          <use
             id="use5522"
             y="134.765"
             x="260.19501"
             xlink:href="#textext-740af6db-7"
             width="177.16534"
             height="141.73228" />
        </g>
        <g
           id="g5524"
           style="fill:#000000;fill-opacity:1">
          <use
             id="use5526"
             y="134.765"
             x="265.17599"
             xlink:href="#textext-740af6db-2"
             width="177.16534"
             height="141.73228" />
        </g>
      </g>
    </g>
    <g
       ns0:text="$x$"
       ns0:preamble="/home/sriranga/Documents/TIFR/preamble.tex"
       transform="matrix(1.2,0,0,1.2,-101.99232,875.89511)"
       id="g5862">
      <defs
         id="defs5864">
        <g
           id="g5866">
          <symbol
             overflow="visible"
             id="textext-9f257246-0">
            <path
               style="stroke:none;"
               d=""
               id="path5869" />
          </symbol>
          <symbol
             overflow="visible"
             id="textext-9f257246-1">
            <path
               style="stroke:none;"
               d="M 4 -1.109375 C 3.921875 -1.015625 3.875 -0.953125 3.78125 -0.84375 C 3.5625 -0.53125 3.4375 -0.4375 3.328125 -0.4375 C 3.1875 -0.4375 3.09375 -0.5625 3.015625 -0.84375 C 3 -0.921875 2.984375 -0.984375 2.984375 -1.015625 C 2.734375 -2.03125 2.625 -2.484375 2.625 -2.625 C 3.0625 -3.40625 3.421875 -3.84375 3.59375 -3.84375 C 3.65625 -3.84375 3.734375 -3.8125 3.84375 -3.765625 C 3.953125 -3.6875 4.03125 -3.671875 4.109375 -3.671875 C 4.3125 -3.671875 4.453125 -3.8125 4.453125 -4.03125 C 4.453125 -4.234375 4.28125 -4.390625 4.046875 -4.390625 C 3.609375 -4.390625 3.234375 -4.03125 2.546875 -2.96875 L 2.4375 -3.515625 C 2.296875 -4.203125 2.1875 -4.390625 1.90625 -4.390625 C 1.6875 -4.390625 1.359375 -4.3125 0.75 -4.109375 L 0.640625 -4.0625 L 0.671875 -3.921875 C 1.0625 -4 1.140625 -4.03125 1.234375 -4.03125 C 1.484375 -4.03125 1.546875 -3.9375 1.6875 -3.34375 L 1.96875 -2.109375 L 1.15625 -0.953125 C 0.953125 -0.640625 0.75 -0.46875 0.640625 -0.46875 C 0.59375 -0.46875 0.484375 -0.5 0.390625 -0.5625 C 0.265625 -0.625 0.15625 -0.65625 0.0625 -0.65625 C -0.125 -0.65625 -0.265625 -0.515625 -0.265625 -0.3125 C -0.265625 -0.046875 -0.0625 0.109375 0.234375 0.109375 C 0.53125 0.109375 0.65625 0.015625 1.15625 -0.59375 C 1.421875 -0.90625 1.640625 -1.171875 2.046875 -1.75 L 2.359375 -0.5625 C 2.484375 -0.046875 2.609375 0.109375 2.9375 0.109375 C 3.3125 0.109375 3.5625 -0.125 4.140625 -1.03125 L 4 -1.109375 Z M 4 -1.109375 "
               id="path5872" />
          </symbol>
        </g>
      </defs>
      <g
         id="textext-9f257246-2">
        <g
           style="fill:rgb(0%,0%,0%);fill-opacity:1;"
           id="g5875">
          <use
             xlink:href="#textext-9f257246-1"
             x="223.93"
             y="134.765"
             id="use5877" />
        </g>
      </g>
    </g>
    <g
       id="g6217"
       transform="matrix(1.2,0,0,1.2,-261.0465,767.77758)"
       ns0:preamble="/home/sriranga/Documents/TIFR/preamble.tex"
       ns0:text="$t$">
      <defs
         id="defs6219">
        <g
           id="g6221">
          <symbol
             id="textext-df247f91-0"
             overflow="visible">
            <path
               id="path6224"
               d=""
               style="stroke:none;" />
          </symbol>
          <symbol
             id="textext-df247f91-1"
             overflow="visible">
            <path
               id="path6227"
               d="M 2.953125 -4.265625 L 2.15625 -4.265625 L 2.4375 -5.296875 C 2.4375 -5.3125 2.4375 -5.328125 2.4375 -5.34375 C 2.4375 -5.40625 2.40625 -5.4375 2.359375 -5.4375 C 2.296875 -5.4375 2.265625 -5.4375 2.21875 -5.359375 C 1.828125 -4.84375 1.203125 -4.34375 0.890625 -4.25 C 0.640625 -4.171875 0.5625 -4.109375 0.5625 -4 C 0.5625 -4 0.5625 -3.984375 0.578125 -3.953125 L 1.3125 -3.953125 L 0.59375 -1.203125 C 0.578125 -1.109375 0.5625 -1.09375 0.53125 -1 C 0.453125 -0.703125 0.375 -0.34375 0.375 -0.265625 C 0.375 -0.046875 0.578125 0.109375 0.84375 0.109375 C 1.3125 0.109375 1.640625 -0.171875 2.265625 -1.09375 L 2.140625 -1.171875 C 1.640625 -0.53125 1.484375 -0.375 1.328125 -0.375 C 1.234375 -0.375 1.171875 -0.453125 1.171875 -0.578125 C 1.171875 -0.59375 1.171875 -0.59375 1.1875 -0.625 L 2.0625 -3.953125 L 2.90625 -3.953125 L 2.953125 -4.265625 Z M 2.953125 -4.265625 "
               style="stroke:none;" />
          </symbol>
        </g>
      </defs>
      <g
         id="textext-df247f91-2">
        <g
           id="g6230"
           style="fill:rgb(0%,0%,0%);fill-opacity:1;">
          <use
             id="use6232"
             y="134.765"
             x="223.432"
             xlink:href="#textext-df247f91-1" />
        </g>
      </g>
    </g>
  </g>
</svg>
