<?xml version="1.0" encoding="UTF-8" standalone="no"?>
<!-- Created with Inkscape (http://www.inkscape.org/) -->

<svg
   xmlns:ns0="http://www.iki.fi/pav/software/textext/"
   xmlns:dc="http://purl.org/dc/elements/1.1/"
   xmlns:cc="http://creativecommons.org/ns#"
   xmlns:rdf="http://www.w3.org/1999/02/22-rdf-syntax-ns#"
   xmlns:svg="http://www.w3.org/2000/svg"
   xmlns="http://www.w3.org/2000/svg"
   xmlns:xlink="http://www.w3.org/1999/xlink"
   xmlns:sodipodi="http://sodipodi.sourceforge.net/DTD/sodipodi-0.dtd"
   xmlns:inkscape="http://www.inkscape.org/namespaces/inkscape"
   width="212.59842"
   height="283.46457"
   id="svg2"
   version="1.1"
   inkscape:version="0.47 r22583"
   sodipodi:docname="fig52-3.3.eps">
  <sodipodi:namedview
     id="base"
     pagecolor="#ffffff"
     bordercolor="#666666"
     borderopacity="1.0"
     inkscape:pageopacity="0.0"
     inkscape:pageshadow="2"
     inkscape:zoom="1.4993055"
     inkscape:cx="106.29921"
     inkscape:cy="141.73228"
     inkscape:document-units="cm"
     inkscape:current-layer="layer1"
     showgrid="false"
     units="cm"
     inkscape:window-width="607"
     inkscape:window-height="680"
     inkscape:window-x="6"
     inkscape:window-y="35"
     inkscape:window-maximized="0">
    <inkscape:grid
       snapvisiblegridlinesonly="true"
       enabled="true"
       visible="true"
       empspacing="5"
       id="grid2985"
       type="xygrid" />
  </sodipodi:namedview>
  <defs
     id="defs4">
    <inkscape:perspective
       sodipodi:type="inkscape:persp3d"
       inkscape:vp_x="0 : 141.73228 : 1"
       inkscape:vp_y="0 : 1000 : 0"
       inkscape:vp_z="212.59842 : 141.73228 : 1"
       inkscape:persp3d-origin="106.29921 : 94.48819 : 1"
       id="perspective8068" />
    <marker
       style="overflow:visible"
       id="Arrow1Mstart"
       refX="0"
       refY="0"
       orient="auto"
       inkscape:stockid="Arrow1Mstart">
      <path
         inkscape:connector-curvature="0"
         transform="matrix(0.4,0,0,0.4,4,0)"
         style="fill-rule:evenodd;stroke:#000000;stroke-width:1pt;marker-start:none"
         d="M 0,0 5,-5 -12.5,0 5,5 0,0 z"
         id="path3768" />
    </marker>
  </defs>
  <metadata
     id="metadata7">
    <rdf:RDF>
      <cc:Work
         rdf:about="">
        <dc:format>image/svg+xml</dc:format>
        <dc:type
           rdf:resource="http://purl.org/dc/dcmitype/StillImage" />
        <dc:title></dc:title>
      </cc:Work>
    </rdf:RDF>
  </metadata>
  <g
     transform="translate(0,-768.89629)"
     id="layer1"
     inkscape:groupmode="layer"
     inkscape:label="Layer 1">
    <path
       sodipodi:nodetypes="cc"
       inkscape:connector-curvature="0"
       id="path2987"
       d="m 75,812.36086 0,95"
       style="fill:none;stroke:#000000;stroke-width:0.99212599;stroke-linecap:butt;stroke-linejoin:miter;stroke-miterlimit:4;stroke-opacity:1;stroke-dasharray:none;marker-start:url(#Arrow1Mstart)" />
    <path
       sodipodi:nodetypes="cc"
       inkscape:connector-curvature="0"
       id="path2989"
       d="m 189.5325,902.36086 -179.5325045,0"
       style="fill:none;stroke:#000000;stroke-width:0.99212599;stroke-linecap:butt;stroke-linejoin:miter;stroke-miterlimit:4;stroke-opacity:1;stroke-dasharray:none;marker-start:url(#Arrow1Mstart)" />
    <text
       sodipodi:linespacing="125%"
       id="text4964"
       y="936.58038"
       x="135.12538"
       style="font-size:12px;font-style:normal;font-variant:normal;font-weight:normal;font-stretch:normal;line-height:125%;letter-spacing:0px;word-spacing:0px;fill:#000000;fill-opacity:1;stroke:none;font-family:LMRoman12;-inkscape-font-specification:LMRoman12"
       xml:space="preserve"><tspan
         y="936.58038"
         x="135.12538"
         id="tspan4966"
         sodipodi:role="line" /></text>
    <text
       sodipodi:linespacing="125%"
       id="text5390"
       y="909.24567"
       x="69.244591"
       style="font-size:12px;font-style:normal;font-variant:normal;font-weight:normal;font-stretch:normal;text-align:center;line-height:125%;letter-spacing:0px;word-spacing:0px;text-anchor:middle;fill:#000000;fill-opacity:1;stroke:none;font-family:LMRoman12;-inkscape-font-specification:LMRoman12"
       xml:space="preserve"><tspan
         y="909.24567"
         x="69.244591"
         id="tspan5392"
         sodipodi:role="line">o</tspan></text>
    <path
       style="fill:none;stroke:#000000;stroke-width:0.99212599;stroke-linecap:butt;stroke-linejoin:miter;stroke-miterlimit:4;stroke-opacity:1;stroke-dasharray:none;marker-start:url(#Arrow1Mstart)"
       d="m 191.40766,967.36086 -181.4076645,0"
       id="path6596"
       inkscape:connector-curvature="0"
       sodipodi:nodetypes="cc" />
    <path
       style="fill:none;stroke:#000000;stroke-width:0.91637033;stroke-linecap:butt;stroke-linejoin:miter;stroke-miterlimit:4;stroke-opacity:1;stroke-dasharray:none;marker-start:url(#Arrow1Mstart)"
       d="m 75,917.70584 0,64.65502"
       id="path6598"
       inkscape:connector-curvature="0"
       sodipodi:nodetypes="cc" />
    <path
       style="fill:none;stroke:#000000;stroke-width:1px;stroke-linecap:butt;stroke-linejoin:miter;stroke-opacity:1"
       d="m 105,817.36086 -90,85"
       id="path6600"
       inkscape:connector-curvature="0"
       sodipodi:nodetypes="cc" />
    <g
       ns0:text="$x_3$"
       ns0:preamble=""
       transform="matrix(1.2,0,0,1.2,-111.45927,813.28824)"
       id="g7640">
      <defs
         id="defs7642">
        <g
           id="g7644">
          <symbol
             overflow="visible"
             id="symbol7646"
             style="overflow:visible">
            <path
               style="stroke:none"
               d="M 3.328125,-3.015625 C 3.390625,-3.265625 3.625,-4.1875 4.3125,-4.1875 c 0.046875,0 0.296875,0 0.5,0.125 C 4.53125,-4 4.34375,-3.765625 4.34375,-3.515625 c 0,0.15625 0.109375,0.34375 0.375,0.34375 0.21875,0 0.53125,-0.171875 0.53125,-0.578125 0,-0.515625 -0.578125,-0.65625 -0.921875,-0.65625 -0.578125,0 -0.921875,0.53125 -1.046875,0.75 -0.25,-0.65625 -0.78125,-0.75 -1.078125,-0.75 -1.03125,0 -1.609375,1.28125 -1.609375,1.53125 0,0.109375 0.109375,0.109375 0.125,0.109375 0.078125,0 0.109375,-0.03125 0.125,-0.109375 0.34375,-1.0625 1,-1.3125 1.34375,-1.3125 0.1875,0 0.53125,0.09375 0.53125,0.671875 0,0.3125 -0.171875,0.96875 -0.53125,2.375 -0.15625,0.609375 -0.515625,1.03125 -0.953125,1.03125 -0.0625,0 -0.28125,0 -0.5,-0.125 0.25,-0.0625 0.46875,-0.265625 0.46875,-0.546875 0,-0.265625 -0.21875,-0.34375 -0.359375,-0.34375 -0.3125,0 -0.546875,0.25 -0.546875,0.578125 0,0.453125 0.484375,0.65625 0.921875,0.65625 0.671875,0 1.03125,-0.703125 1.046875,-0.75 0.125,0.359375 0.484375,0.75 1.078125,0.75 1.03125,0 1.59375,-1.28125 1.59375,-1.53125 0,-0.109375 -0.078125,-0.109375 -0.109375,-0.109375 -0.09375,0 -0.109375,0.046875 -0.140625,0.109375 -0.328125,1.078125 -1,1.3125 -1.3125,1.3125 -0.390625,0 -0.546875,-0.3125 -0.546875,-0.65625 0,-0.21875 0.046875,-0.4375 0.15625,-0.875 z m 0,0"
               id="path7648"
               inkscape:connector-curvature="0" />
          </symbol>
          <symbol
             overflow="visible"
             id="symbol7650"
             style="overflow:visible">
            <path
               style="stroke:none"
               d="m 1.90625,-2.328125 c 0.546875,0 0.9375,0.375 0.9375,1.125 0,0.859375 -0.515625,1.125 -0.90625,1.125 -0.28125,0 -0.90625,-0.078125 -1.1875,-0.5 0.328125,0 0.40625,-0.234375 0.40625,-0.390625 0,-0.21875 -0.171875,-0.375 -0.390625,-0.375 -0.1875,0 -0.390625,0.125 -0.390625,0.40625 0,0.65625 0.71875,1.078125 1.5625,1.078125 0.96875,0 1.640625,-0.65625 1.640625,-1.34375 0,-0.546875 -0.4375,-1.09375 -1.203125,-1.25 0.71875,-0.265625 0.984375,-0.78125 0.984375,-1.21875 0,-0.546875 -0.625,-0.953125 -1.40625,-0.953125 -0.765625,0 -1.359375,0.375 -1.359375,0.9375 0,0.234375 0.15625,0.359375 0.359375,0.359375 0.21875,0 0.359375,-0.15625 0.359375,-0.34375 0,-0.203125 -0.140625,-0.359375 -0.359375,-0.375 0.25,-0.296875 0.71875,-0.375 0.984375,-0.375 0.3125,0 0.75,0.15625 0.75,0.75 0,0.296875 -0.09375,0.625 -0.28125,0.828125 -0.21875,0.265625 -0.421875,0.28125 -0.765625,0.3125 -0.171875,0.015625 -0.1875,0.015625 -0.21875,0.015625 -0.015625,0 -0.078125,0.015625 -0.078125,0.09375 0,0.09375 0.0625,0.09375 0.1875,0.09375 z m 0,0"
               id="path7652"
               inkscape:connector-curvature="0" />
          </symbol>
        </g>
      </defs>
      <g
         id="g7654">
        <g
           style="fill:#000000;fill-opacity:1"
           id="g7656">
          <use
             xlink:href="#textext-30ef5fd8-0"
             x="223.43201"
             y="134.765"
             id="use7658"
             width="212.59842"
             height="283.46457" />
        </g>
        <g
           style="fill:#000000;fill-opacity:1"
           id="g7660">
          <use
             xlink:href="#textext-30ef5fd8-1"
             x="229.12601"
             y="136.259"
             id="use7662"
             width="212.59842"
             height="283.46457" />
        </g>
      </g>
    </g>
    <path
       sodipodi:nodetypes="cc"
       inkscape:connector-curvature="0"
       id="path10466"
       d="m 130,822.36086 -85,80"
       style="fill:none;stroke:#000000;stroke-width:1px;stroke-linecap:butt;stroke-linejoin:miter;stroke-opacity:1" />
    <path
       style="fill:none;stroke:#000000;stroke-width:1px;stroke-linecap:butt;stroke-linejoin:miter;stroke-opacity:1"
       d="m 165,817.36086 -90,85"
       id="path10468"
       inkscape:connector-curvature="0"
       sodipodi:nodetypes="cc" />
    <path
       style="fill:none;stroke:#000000;stroke-width:1px;stroke-linecap:butt;stroke-linejoin:miter;stroke-opacity:1"
       d="m 95,817.36086 0,85"
       id="path10470"
       inkscape:connector-curvature="0" />
    <path
       inkscape:connector-curvature="0"
       id="path10472"
       d="m 115,817.36086 0,85"
       style="fill:none;stroke:#000000;stroke-width:1px;stroke-linecap:butt;stroke-linejoin:miter;stroke-opacity:1" />
    <path
       style="fill:none;stroke:#000000;stroke-width:1px;stroke-linecap:butt;stroke-linejoin:miter;stroke-opacity:1"
       d="m 135,817.36086 0,85"
       id="path10474"
       inkscape:connector-curvature="0" />
    <path
       transform="translate(0,768.89629)"
       inkscape:connector-curvature="0"
       id="path10816"
       d="m 74.336763,181.00038 -65.2958054,0"
       style="fill:none;stroke:#000000;stroke-width:1px;stroke-linecap:butt;stroke-linejoin:miter;stroke-opacity:1" />
    <path
       d="m 76.439255,949.71893 c 0,0.82843 -0.671573,1.5 -1.5,1.5 -0.828427,0 -1.5,-0.67157 -1.5,-1.5 0,-0.82842 0.671573,-1.5 1.5,-1.5 0.828427,0 1.5,0.67158 1.5,1.5 z"
       sodipodi:ry="1.5"
       sodipodi:rx="1.5"
       sodipodi:cy="949.71893"
       sodipodi:cx="74.939255"
       style="fill:#000000;stroke:none"
       id="path10818"
       sodipodi:type="arc" />
    <text
       xml:space="preserve"
       style="font-size:12px;font-style:normal;font-variant:normal;font-weight:normal;font-stretch:normal;text-align:center;line-height:125%;letter-spacing:0px;word-spacing:0px;text-anchor:middle;fill:#000000;fill-opacity:1;stroke:none;font-family:LMRoman12;-inkscape-font-specification:LMRoman12"
       x="69.244591"
       y="974.87268"
       id="text11196"
       sodipodi:linespacing="125%"><tspan
         sodipodi:role="line"
         id="tspan11198"
         x="69.244591"
         y="974.87268">o</tspan></text>
    <g
       ns0:text="$u(x, 0)$"
       ns0:preamble="/home/sriranga/Documents/TIFR/preamble.tex"
       transform="matrix(1.2,0,0,1.2,-186.62722,761.69804)"
       id="g8165">
      <defs
         id="defs8167">
        <g
           id="g8169">
          <symbol
             overflow="visible"
             id="textext-5c8aee74-0">
            <path
               style="stroke:none;"
               d=""
               id="path8172" />
          </symbol>
          <symbol
             overflow="visible"
             id="textext-5c8aee74-1">
            <path
               style="stroke:none;"
               d="M 4.59375 -1.171875 C 4.078125 -0.515625 3.921875 -0.375 3.765625 -0.375 C 3.703125 -0.375 3.65625 -0.4375 3.65625 -0.546875 C 3.65625 -0.609375 3.65625 -0.609375 3.84375 -1.328125 L 4.640625 -4.3125 L 3.890625 -4.3125 C 3.328125 -2.765625 3.265625 -2.609375 2.796875 -1.875 C 2.203125 -0.921875 1.71875 -0.421875 1.390625 -0.421875 C 1.28125 -0.421875 1.1875 -0.515625 1.1875 -0.671875 C 1.1875 -0.703125 1.1875 -0.734375 1.203125 -0.75 L 2.109375 -4.375 L 2.078125 -4.390625 C 1.5 -4.265625 1.140625 -4.203125 0.578125 -4.125 L 0.578125 -3.984375 C 0.953125 -3.984375 0.984375 -3.984375 1.0625 -3.921875 C 1.125 -3.90625 1.171875 -3.8125 1.171875 -3.75 C 1.171875 -3.671875 1.125 -3.421875 1.03125 -3.078125 L 0.671875 -1.671875 C 0.484375 -0.953125 0.421875 -0.625 0.421875 -0.4375 C 0.421875 -0.078125 0.59375 0.109375 0.953125 0.109375 C 1.65625 0.109375 2.1875 -0.421875 3.328125 -2.359375 C 3.046875 -1.28125 2.875 -0.59375 2.875 -0.390625 C 2.875 -0.09375 3.0625 0.09375 3.359375 0.09375 C 3.828125 0.09375 4.0625 -0.109375 4.734375 -1.078125 L 4.59375 -1.171875 Z M 4.59375 -1.171875 "
               id="path8175" />
          </symbol>
          <symbol
             overflow="visible"
             id="textext-5c8aee74-2">
            <path
               style="stroke:none;"
               d="M 4 -1.109375 C 3.921875 -1.015625 3.875 -0.953125 3.78125 -0.84375 C 3.5625 -0.53125 3.4375 -0.4375 3.328125 -0.4375 C 3.1875 -0.4375 3.09375 -0.5625 3.015625 -0.84375 C 3 -0.921875 2.984375 -0.984375 2.984375 -1.015625 C 2.734375 -2.03125 2.625 -2.484375 2.625 -2.625 C 3.0625 -3.40625 3.421875 -3.84375 3.59375 -3.84375 C 3.65625 -3.84375 3.734375 -3.8125 3.84375 -3.765625 C 3.953125 -3.6875 4.03125 -3.671875 4.109375 -3.671875 C 4.3125 -3.671875 4.453125 -3.8125 4.453125 -4.03125 C 4.453125 -4.234375 4.28125 -4.390625 4.046875 -4.390625 C 3.609375 -4.390625 3.234375 -4.03125 2.546875 -2.96875 L 2.4375 -3.515625 C 2.296875 -4.203125 2.1875 -4.390625 1.90625 -4.390625 C 1.6875 -4.390625 1.359375 -4.3125 0.75 -4.109375 L 0.640625 -4.0625 L 0.671875 -3.921875 C 1.0625 -4 1.140625 -4.03125 1.234375 -4.03125 C 1.484375 -4.03125 1.546875 -3.9375 1.6875 -3.34375 L 1.96875 -2.109375 L 1.15625 -0.953125 C 0.953125 -0.640625 0.75 -0.46875 0.640625 -0.46875 C 0.59375 -0.46875 0.484375 -0.5 0.390625 -0.5625 C 0.265625 -0.625 0.15625 -0.65625 0.0625 -0.65625 C -0.125 -0.65625 -0.265625 -0.515625 -0.265625 -0.3125 C -0.265625 -0.046875 -0.0625 0.109375 0.234375 0.109375 C 0.53125 0.109375 0.65625 0.015625 1.15625 -0.59375 C 1.421875 -0.90625 1.640625 -1.171875 2.046875 -1.75 L 2.359375 -0.5625 C 2.484375 -0.046875 2.609375 0.109375 2.9375 0.109375 C 3.3125 0.109375 3.5625 -0.125 4.140625 -1.03125 L 4 -1.109375 Z M 4 -1.109375 "
               id="path8178" />
          </symbol>
          <symbol
             overflow="visible"
             id="textext-5c8aee74-3">
            <path
               style="stroke:none;"
               d=""
               id="path8181" />
          </symbol>
          <symbol
             overflow="visible"
             id="textext-5c8aee74-4">
            <path
               style="stroke:none;"
               d="M 2.9375 -6.734375 C 2.203125 -6.265625 1.90625 -6 1.53125 -5.546875 C 0.828125 -4.671875 0.484375 -3.671875 0.484375 -2.515625 C 0.484375 -1.25 0.84375 -0.265625 1.71875 0.75 C 2.140625 1.21875 2.390625 1.453125 2.90625 1.765625 L 3.03125 1.609375 C 2.234375 0.984375 1.953125 0.625 1.6875 -0.125 C 1.453125 -0.78125 1.328125 -1.546875 1.328125 -2.546875 C 1.328125 -3.59375 1.46875 -4.40625 1.734375 -5.03125 C 2.015625 -5.640625 2.3125 -6 3.03125 -6.578125 L 2.9375 -6.734375 Z M 2.9375 -6.734375 "
               id="path8184" />
          </symbol>
          <symbol
             overflow="visible"
             id="textext-5c8aee74-5">
            <path
               style="stroke:none;"
               d="M 2.53125 -6.734375 C 1.984375 -6.734375 1.5625 -6.5625 1.203125 -6.21875 C 0.625 -5.65625 0.234375 -4.515625 0.234375 -3.34375 C 0.234375 -2.265625 0.5625 -1.09375 1.03125 -0.53125 C 1.40625 -0.09375 1.90625 0.140625 2.5 0.140625 C 3 0.140625 3.421875 -0.03125 3.78125 -0.375 C 4.359375 -0.921875 4.75 -2.078125 4.75 -3.296875 C 4.75 -5.328125 3.84375 -6.734375 2.53125 -6.734375 Z M 2.5 -6.484375 C 3.34375 -6.484375 3.78125 -5.359375 3.78125 -3.265625 C 3.78125 -1.1875 3.34375 -0.125 2.5 -0.125 C 1.640625 -0.125 1.203125 -1.1875 1.203125 -3.265625 C 1.203125 -5.375 1.640625 -6.484375 2.5 -6.484375 Z M 2.5 -6.484375 "
               id="path8187" />
          </symbol>
          <symbol
             overflow="visible"
             id="textext-5c8aee74-6">
            <path
               style="stroke:none;"
               d="M 0.375 1.765625 C 1.109375 1.28125 1.421875 1.03125 1.78125 0.5625 C 2.5 -0.296875 2.84375 -1.296875 2.84375 -2.46875 C 2.84375 -3.734375 2.46875 -4.703125 1.59375 -5.71875 C 1.1875 -6.203125 0.921875 -6.421875 0.40625 -6.734375 L 0.296875 -6.578125 C 1.09375 -5.953125 1.359375 -5.609375 1.640625 -4.859375 C 1.875 -4.1875 1.984375 -3.421875 1.984375 -2.4375 C 1.984375 -1.390625 1.859375 -0.5625 1.578125 0.046875 C 1.3125 0.671875 1 1.03125 0.296875 1.609375 L 0.375 1.765625 Z M 0.375 1.765625 "
               id="path8190" />
          </symbol>
          <symbol
             overflow="visible"
             id="textext-5c8aee74-7">
            <path
               style="stroke:none;"
               d=""
               id="path8193" />
          </symbol>
          <symbol
             overflow="visible"
             id="textext-5c8aee74-8">
            <path
               style="stroke:none;"
               d="M 1.9375 -0.0625 C 1.9375 -0.890625 1.359375 -1.015625 1.140625 -1.015625 C 0.890625 -1.015625 0.5625 -0.875 0.5625 -0.4375 C 0.5625 -0.046875 0.921875 0.0625 1.171875 0.0625 C 1.25 0.0625 1.296875 0.046875 1.328125 0.046875 C 1.359375 0.03125 1.390625 0.015625 1.421875 0.015625 C 1.484375 0.015625 1.5625 0.0625 1.5625 0.15625 C 1.5625 0.34375 1.390625 0.796875 0.734375 1.21875 L 0.828125 1.40625 C 1.125 1.3125 1.9375 0.640625 1.9375 -0.0625 Z M 1.9375 -0.0625 "
               id="path8196" />
          </symbol>
        </g>
      </defs>
      <g
         id="textext-5c8aee74-9">
        <g
           style="fill:rgb(0%,0%,0%);fill-opacity:1;"
           id="g8199">
          <use
             xlink:href="#textext-5c8aee74-1"
             x="223.432"
             y="134.765"
             id="use8201" />
        </g>
        <g
           style="fill:rgb(0%,0%,0%);fill-opacity:1;"
           id="g8203">
          <use
             xlink:href="#textext-5c8aee74-4"
             x="228.413"
             y="134.765"
             id="use8205" />
        </g>
        <g
           style="fill:rgb(0%,0%,0%);fill-opacity:1;"
           id="g8207">
          <use
             xlink:href="#textext-5c8aee74-2"
             x="232.229"
             y="134.765"
             id="use8209" />
        </g>
        <g
           style="fill:rgb(0%,0%,0%);fill-opacity:1;"
           id="g8211">
          <use
             xlink:href="#textext-5c8aee74-8"
             x="236.682"
             y="134.765"
             id="use8213" />
        </g>
        <g
           style="fill:rgb(0%,0%,0%);fill-opacity:1;"
           id="g8215">
          <use
             xlink:href="#textext-5c8aee74-5"
             x="240.833"
             y="134.765"
             id="use8217" />
          <use
             xlink:href="#textext-5c8aee74-6"
             x="245.8143"
             y="134.765"
             id="use8219" />
        </g>
      </g>
    </g>
    <g
       id="g8467"
       transform="matrix(1.2,0,0,1.2,-75.523156,743.1225)"
       ns0:preamble="/home/sriranga/Documents/TIFR/preamble.tex"
       ns0:text="$x$">
      <defs
         id="defs8469">
        <g
           id="g8471">
          <symbol
             id="textext-9f257246-0"
             overflow="visible">
            <path
               id="path8474"
               d=""
               style="stroke:none;" />
          </symbol>
          <symbol
             id="textext-9f257246-1"
             overflow="visible">
            <path
               id="path8477"
               d="M 4 -1.109375 C 3.921875 -1.015625 3.875 -0.953125 3.78125 -0.84375 C 3.5625 -0.53125 3.4375 -0.4375 3.328125 -0.4375 C 3.1875 -0.4375 3.09375 -0.5625 3.015625 -0.84375 C 3 -0.921875 2.984375 -0.984375 2.984375 -1.015625 C 2.734375 -2.03125 2.625 -2.484375 2.625 -2.625 C 3.0625 -3.40625 3.421875 -3.84375 3.59375 -3.84375 C 3.65625 -3.84375 3.734375 -3.8125 3.84375 -3.765625 C 3.953125 -3.6875 4.03125 -3.671875 4.109375 -3.671875 C 4.3125 -3.671875 4.453125 -3.8125 4.453125 -4.03125 C 4.453125 -4.234375 4.28125 -4.390625 4.046875 -4.390625 C 3.609375 -4.390625 3.234375 -4.03125 2.546875 -2.96875 L 2.4375 -3.515625 C 2.296875 -4.203125 2.1875 -4.390625 1.90625 -4.390625 C 1.6875 -4.390625 1.359375 -4.3125 0.75 -4.109375 L 0.640625 -4.0625 L 0.671875 -3.921875 C 1.0625 -4 1.140625 -4.03125 1.234375 -4.03125 C 1.484375 -4.03125 1.546875 -3.9375 1.6875 -3.34375 L 1.96875 -2.109375 L 1.15625 -0.953125 C 0.953125 -0.640625 0.75 -0.46875 0.640625 -0.46875 C 0.59375 -0.46875 0.484375 -0.5 0.390625 -0.5625 C 0.265625 -0.625 0.15625 -0.65625 0.0625 -0.65625 C -0.125 -0.65625 -0.265625 -0.515625 -0.265625 -0.3125 C -0.265625 -0.046875 -0.0625 0.109375 0.234375 0.109375 C 0.53125 0.109375 0.65625 0.015625 1.15625 -0.59375 C 1.421875 -0.90625 1.640625 -1.171875 2.046875 -1.75 L 2.359375 -0.5625 C 2.484375 -0.046875 2.609375 0.109375 2.9375 0.109375 C 3.3125 0.109375 3.5625 -0.125 4.140625 -1.03125 L 4 -1.109375 Z M 4 -1.109375 "
               style="stroke:none;" />
          </symbol>
        </g>
      </defs>
      <g
         id="textext-9f257246-2">
        <g
           id="g8480"
           style="fill:rgb(0%,0%,0%);fill-opacity:1;">
          <use
             id="use8482"
             y="134.765"
             x="223.93"
             xlink:href="#textext-9f257246-1" />
        </g>
      </g>
    </g>
    <g
       ns0:text="$x$"
       ns0:preamble="/home/sriranga/Documents/TIFR/preamble.tex"
       transform="matrix(1.2,0,0,1.2,-75.054366,808.13392)"
       id="g8734">
      <defs
         id="defs8736">
        <g
           id="g8738">
          <symbol
             overflow="visible"
             id="symbol8740">
            <path
               style="stroke:none;"
               d=""
               id="path8742" />
          </symbol>
          <symbol
             overflow="visible"
             id="symbol8744">
            <path
               style="stroke:none;"
               d="M 4 -1.109375 C 3.921875 -1.015625 3.875 -0.953125 3.78125 -0.84375 C 3.5625 -0.53125 3.4375 -0.4375 3.328125 -0.4375 C 3.1875 -0.4375 3.09375 -0.5625 3.015625 -0.84375 C 3 -0.921875 2.984375 -0.984375 2.984375 -1.015625 C 2.734375 -2.03125 2.625 -2.484375 2.625 -2.625 C 3.0625 -3.40625 3.421875 -3.84375 3.59375 -3.84375 C 3.65625 -3.84375 3.734375 -3.8125 3.84375 -3.765625 C 3.953125 -3.6875 4.03125 -3.671875 4.109375 -3.671875 C 4.3125 -3.671875 4.453125 -3.8125 4.453125 -4.03125 C 4.453125 -4.234375 4.28125 -4.390625 4.046875 -4.390625 C 3.609375 -4.390625 3.234375 -4.03125 2.546875 -2.96875 L 2.4375 -3.515625 C 2.296875 -4.203125 2.1875 -4.390625 1.90625 -4.390625 C 1.6875 -4.390625 1.359375 -4.3125 0.75 -4.109375 L 0.640625 -4.0625 L 0.671875 -3.921875 C 1.0625 -4 1.140625 -4.03125 1.234375 -4.03125 C 1.484375 -4.03125 1.546875 -3.9375 1.6875 -3.34375 L 1.96875 -2.109375 L 1.15625 -0.953125 C 0.953125 -0.640625 0.75 -0.46875 0.640625 -0.46875 C 0.59375 -0.46875 0.484375 -0.5 0.390625 -0.5625 C 0.265625 -0.625 0.15625 -0.65625 0.0625 -0.65625 C -0.125 -0.65625 -0.265625 -0.515625 -0.265625 -0.3125 C -0.265625 -0.046875 -0.0625 0.109375 0.234375 0.109375 C 0.53125 0.109375 0.65625 0.015625 1.15625 -0.59375 C 1.421875 -0.90625 1.640625 -1.171875 2.046875 -1.75 L 2.359375 -0.5625 C 2.484375 -0.046875 2.609375 0.109375 2.9375 0.109375 C 3.3125 0.109375 3.5625 -0.125 4.140625 -1.03125 L 4 -1.109375 Z M 4 -1.109375 "
               id="path8746" />
          </symbol>
        </g>
      </defs>
      <g
         id="g8748">
        <g
           style="fill:rgb(0%,0%,0%);fill-opacity:1;"
           id="g8750">
          <use
             xlink:href="#textext-9f257246-1"
             x="223.93"
             y="134.765"
             id="use8752" />
        </g>
      </g>
    </g>
    <g
       id="g9000"
       transform="matrix(1.2,0,0,1.2,-248.13867,783.94014)"
       ns0:preamble="/home/sriranga/Documents/TIFR/preamble.tex"
       ns0:text="$u=1$">
      <defs
         id="defs9002">
        <g
           id="g9004">
          <symbol
             id="textext-b83417b9-0"
             overflow="visible">
            <path
               id="path9007"
               d=""
               style="stroke:none;" />
          </symbol>
          <symbol
             id="textext-b83417b9-1"
             overflow="visible">
            <path
               id="path9010"
               d="M 4.59375 -1.171875 C 4.078125 -0.515625 3.921875 -0.375 3.765625 -0.375 C 3.703125 -0.375 3.65625 -0.4375 3.65625 -0.546875 C 3.65625 -0.609375 3.65625 -0.609375 3.84375 -1.328125 L 4.640625 -4.3125 L 3.890625 -4.3125 C 3.328125 -2.765625 3.265625 -2.609375 2.796875 -1.875 C 2.203125 -0.921875 1.71875 -0.421875 1.390625 -0.421875 C 1.28125 -0.421875 1.1875 -0.515625 1.1875 -0.671875 C 1.1875 -0.703125 1.1875 -0.734375 1.203125 -0.75 L 2.109375 -4.375 L 2.078125 -4.390625 C 1.5 -4.265625 1.140625 -4.203125 0.578125 -4.125 L 0.578125 -3.984375 C 0.953125 -3.984375 0.984375 -3.984375 1.0625 -3.921875 C 1.125 -3.90625 1.171875 -3.8125 1.171875 -3.75 C 1.171875 -3.671875 1.125 -3.421875 1.03125 -3.078125 L 0.671875 -1.671875 C 0.484375 -0.953125 0.421875 -0.625 0.421875 -0.4375 C 0.421875 -0.078125 0.59375 0.109375 0.953125 0.109375 C 1.65625 0.109375 2.1875 -0.421875 3.328125 -2.359375 C 3.046875 -1.28125 2.875 -0.59375 2.875 -0.390625 C 2.875 -0.09375 3.0625 0.09375 3.359375 0.09375 C 3.828125 0.09375 4.0625 -0.109375 4.734375 -1.078125 L 4.59375 -1.171875 Z M 4.59375 -1.171875 "
               style="stroke:none;" />
          </symbol>
          <symbol
             id="textext-b83417b9-2"
             overflow="visible">
            <path
               id="path9013"
               d=""
               style="stroke:none;" />
          </symbol>
          <symbol
             id="textext-b83417b9-3"
             overflow="visible">
            <path
               id="path9016"
               d="M 5.71875 -3.296875 L 5.71875 -3.84375 L 0.625 -3.84375 L 0.625 -3.296875 L 5.71875 -3.296875 Z M 5.71875 -1.265625 L 5.71875 -1.828125 L 0.625 -1.828125 L 0.625 -1.265625 L 5.71875 -1.265625 Z M 5.71875 -1.265625 "
               style="stroke:none;" />
          </symbol>
          <symbol
             id="textext-b83417b9-4"
             overflow="visible">
            <path
               id="path9019"
               d=""
               style="stroke:none;" />
          </symbol>
          <symbol
             id="textext-b83417b9-5"
             overflow="visible">
            <path
               id="path9022"
               d="M 2.90625 -6.734375 L 1.109375 -5.828125 L 1.109375 -5.6875 C 1.21875 -5.734375 1.328125 -5.78125 1.375 -5.796875 C 1.5625 -5.875 1.71875 -5.90625 1.828125 -5.90625 C 2.03125 -5.90625 2.125 -5.765625 2.125 -5.4375 L 2.125 -0.921875 C 2.125 -0.59375 2.046875 -0.375 1.890625 -0.28125 C 1.734375 -0.1875 1.59375 -0.15625 1.171875 -0.15625 L 1.171875 0 L 3.921875 0 L 3.921875 -0.15625 C 3.140625 -0.15625 2.984375 -0.265625 2.984375 -0.734375 L 2.984375 -6.71875 L 2.90625 -6.734375 Z M 2.90625 -6.734375 "
               style="stroke:none;" />
          </symbol>
        </g>
      </defs>
      <g
         id="textext-b83417b9-6">
        <g
           id="g9025"
           style="fill:rgb(0%,0%,0%);fill-opacity:1;">
          <use
             id="use9027"
             y="134.765"
             x="223.432"
             xlink:href="#textext-b83417b9-1" />
        </g>
        <g
           id="g9029"
           style="fill:rgb(0%,0%,0%);fill-opacity:1;">
          <use
             id="use9031"
             y="134.765"
             x="231.181"
             xlink:href="#textext-b83417b9-3" />
        </g>
        <g
           id="g9033"
           style="fill:rgb(0%,0%,0%);fill-opacity:1;">
          <use
             id="use9035"
             y="134.765"
             x="240.284"
             xlink:href="#textext-b83417b9-5" />
        </g>
      </g>
    </g>
    <g
       ns0:text="$t$"
       ns0:preamble="/home/sriranga/Documents/TIFR/preamble.tex"
       transform="matrix(1.2,0,0,1.2,-201.19737,651.77227)"
       id="g9303">
      <defs
         id="defs9305">
        <g
           id="g9307">
          <symbol
             overflow="visible"
             id="textext-df247f91-0">
            <path
               style="stroke:none;"
               d=""
               id="path9310" />
          </symbol>
          <symbol
             overflow="visible"
             id="textext-df247f91-1">
            <path
               style="stroke:none;"
               d="M 2.953125 -4.265625 L 2.15625 -4.265625 L 2.4375 -5.296875 C 2.4375 -5.3125 2.4375 -5.328125 2.4375 -5.34375 C 2.4375 -5.40625 2.40625 -5.4375 2.359375 -5.4375 C 2.296875 -5.4375 2.265625 -5.4375 2.21875 -5.359375 C 1.828125 -4.84375 1.203125 -4.34375 0.890625 -4.25 C 0.640625 -4.171875 0.5625 -4.109375 0.5625 -4 C 0.5625 -4 0.5625 -3.984375 0.578125 -3.953125 L 1.3125 -3.953125 L 0.59375 -1.203125 C 0.578125 -1.109375 0.5625 -1.09375 0.53125 -1 C 0.453125 -0.703125 0.375 -0.34375 0.375 -0.265625 C 0.375 -0.046875 0.578125 0.109375 0.84375 0.109375 C 1.3125 0.109375 1.640625 -0.171875 2.265625 -1.09375 L 2.140625 -1.171875 C 1.640625 -0.53125 1.484375 -0.375 1.328125 -0.375 C 1.234375 -0.375 1.171875 -0.453125 1.171875 -0.578125 C 1.171875 -0.59375 1.171875 -0.59375 1.1875 -0.625 L 2.0625 -3.953125 L 2.90625 -3.953125 L 2.953125 -4.265625 Z M 2.953125 -4.265625 "
               id="path9313" />
          </symbol>
        </g>
      </defs>
      <g
         id="textext-df247f91-2">
        <g
           style="fill:rgb(0%,0%,0%);fill-opacity:1;"
           id="g9316">
          <use
             xlink:href="#textext-df247f91-1"
             x="223.432"
             y="134.765"
             id="use9318" />
        </g>
      </g>
    </g>
    <g
       id="g9603"
       transform="matrix(1.2,0,0,1.2,-151.81321,799.85538)"
       ns0:preamble="/home/sriranga/Documents/TIFR/preamble.tex"
       ns0:text="$u=0$">
      <defs
         id="defs9605">
        <g
           id="g9607">
          <symbol
             id="textext-8a5d80ca-0"
             overflow="visible">
            <path
               id="path9610"
               d=""
               style="stroke:none;" />
          </symbol>
          <symbol
             id="textext-8a5d80ca-1"
             overflow="visible">
            <path
               id="path9613"
               d="M 4.59375 -1.171875 C 4.078125 -0.515625 3.921875 -0.375 3.765625 -0.375 C 3.703125 -0.375 3.65625 -0.4375 3.65625 -0.546875 C 3.65625 -0.609375 3.65625 -0.609375 3.84375 -1.328125 L 4.640625 -4.3125 L 3.890625 -4.3125 C 3.328125 -2.765625 3.265625 -2.609375 2.796875 -1.875 C 2.203125 -0.921875 1.71875 -0.421875 1.390625 -0.421875 C 1.28125 -0.421875 1.1875 -0.515625 1.1875 -0.671875 C 1.1875 -0.703125 1.1875 -0.734375 1.203125 -0.75 L 2.109375 -4.375 L 2.078125 -4.390625 C 1.5 -4.265625 1.140625 -4.203125 0.578125 -4.125 L 0.578125 -3.984375 C 0.953125 -3.984375 0.984375 -3.984375 1.0625 -3.921875 C 1.125 -3.90625 1.171875 -3.8125 1.171875 -3.75 C 1.171875 -3.671875 1.125 -3.421875 1.03125 -3.078125 L 0.671875 -1.671875 C 0.484375 -0.953125 0.421875 -0.625 0.421875 -0.4375 C 0.421875 -0.078125 0.59375 0.109375 0.953125 0.109375 C 1.65625 0.109375 2.1875 -0.421875 3.328125 -2.359375 C 3.046875 -1.28125 2.875 -0.59375 2.875 -0.390625 C 2.875 -0.09375 3.0625 0.09375 3.359375 0.09375 C 3.828125 0.09375 4.0625 -0.109375 4.734375 -1.078125 L 4.59375 -1.171875 Z M 4.59375 -1.171875 "
               style="stroke:none;" />
          </symbol>
          <symbol
             id="textext-8a5d80ca-2"
             overflow="visible">
            <path
               id="path9616"
               d=""
               style="stroke:none;" />
          </symbol>
          <symbol
             id="textext-8a5d80ca-3"
             overflow="visible">
            <path
               id="path9619"
               d="M 5.71875 -3.296875 L 5.71875 -3.84375 L 0.625 -3.84375 L 0.625 -3.296875 L 5.71875 -3.296875 Z M 5.71875 -1.265625 L 5.71875 -1.828125 L 0.625 -1.828125 L 0.625 -1.265625 L 5.71875 -1.265625 Z M 5.71875 -1.265625 "
               style="stroke:none;" />
          </symbol>
          <symbol
             id="textext-8a5d80ca-4"
             overflow="visible">
            <path
               id="path9622"
               d=""
               style="stroke:none;" />
          </symbol>
          <symbol
             id="textext-8a5d80ca-5"
             overflow="visible">
            <path
               id="path9625"
               d="M 2.53125 -6.734375 C 1.984375 -6.734375 1.5625 -6.5625 1.203125 -6.21875 C 0.625 -5.65625 0.234375 -4.515625 0.234375 -3.34375 C 0.234375 -2.265625 0.5625 -1.09375 1.03125 -0.53125 C 1.40625 -0.09375 1.90625 0.140625 2.5 0.140625 C 3 0.140625 3.421875 -0.03125 3.78125 -0.375 C 4.359375 -0.921875 4.75 -2.078125 4.75 -3.296875 C 4.75 -5.328125 3.84375 -6.734375 2.53125 -6.734375 Z M 2.5 -6.484375 C 3.34375 -6.484375 3.78125 -5.359375 3.78125 -3.265625 C 3.78125 -1.1875 3.34375 -0.125 2.5 -0.125 C 1.640625 -0.125 1.203125 -1.1875 1.203125 -3.265625 C 1.203125 -5.375 1.640625 -6.484375 2.5 -6.484375 Z M 2.5 -6.484375 "
               style="stroke:none;" />
          </symbol>
        </g>
      </defs>
      <g
         id="textext-8a5d80ca-6">
        <g
           id="g9628"
           style="fill:rgb(0%,0%,0%);fill-opacity:1;">
          <use
             id="use9630"
             y="134.765"
             x="223.432"
             xlink:href="#textext-8a5d80ca-1" />
        </g>
        <g
           id="g9632"
           style="fill:rgb(0%,0%,0%);fill-opacity:1;">
          <use
             id="use9634"
             y="134.765"
             x="231.181"
             xlink:href="#textext-8a5d80ca-3" />
        </g>
        <g
           id="g9636"
           style="fill:rgb(0%,0%,0%);fill-opacity:1;">
          <use
             id="use9638"
             y="134.765"
             x="240.284"
             xlink:href="#textext-8a5d80ca-5" />
        </g>
      </g>
    </g>
  </g>
</svg>
