<?xml version="1.0" encoding="UTF-8" standalone="no"?>
<!-- Created with Inkscape (http://www.inkscape.org/) -->

<svg
   xmlns:ns0="http://www.iki.fi/pav/software/textext/"
   xmlns:dc="http://purl.org/dc/elements/1.1/"
   xmlns:cc="http://creativecommons.org/ns#"
   xmlns:rdf="http://www.w3.org/1999/02/22-rdf-syntax-ns#"
   xmlns:svg="http://www.w3.org/2000/svg"
   xmlns="http://www.w3.org/2000/svg"
   xmlns:xlink="http://www.w3.org/1999/xlink"
   xmlns:sodipodi="http://sodipodi.sourceforge.net/DTD/sodipodi-0.dtd"
   xmlns:inkscape="http://www.inkscape.org/namespaces/inkscape"
   width="177.16534"
   height="141.73228"
   id="svg2"
   version="1.1"
   inkscape:version="0.47 r22583"
   sodipodi:docname="fig52-1.1.svg">
  <sodipodi:namedview
     id="base"
     pagecolor="#ffffff"
     bordercolor="#666666"
     borderopacity="1.0"
     inkscape:pageopacity="0.0"
     inkscape:pageshadow="2"
     inkscape:zoom="2.1110223"
     inkscape:cx="88.582672"
     inkscape:cy="70.866142"
     inkscape:document-units="cm"
     inkscape:current-layer="layer1"
     showgrid="false"
     units="cm"
     inkscape:window-width="607"
     inkscape:window-height="681"
     inkscape:window-x="6"
     inkscape:window-y="34"
     inkscape:window-maximized="0">
    <inkscape:grid
       type="xygrid"
       id="grid2985"
       empspacing="5"
       visible="true"
       enabled="true"
       snapvisiblegridlinesonly="true" />
  </sodipodi:namedview>
  <defs
     id="defs4">
    <inkscape:perspective
       sodipodi:type="inkscape:persp3d"
       inkscape:vp_x="0 : 70.866142 : 1"
       inkscape:vp_y="0 : 1000 : 0"
       inkscape:vp_z="177.16534 : 70.866142 : 1"
       inkscape:persp3d-origin="88.582672 : 47.244095 : 1"
       id="perspective6709" />
    <marker
       inkscape:stockid="Arrow1Mstart"
       orient="auto"
       refY="0.0"
       refX="0.0"
       id="Arrow1Mstart"
       style="overflow:visible">
      <path
         id="path3768"
         d="M 0.0,0.0 L 5.0,-5.0 L -12.5,0.0 L 5.0,5.0 L 0.0,0.0 z "
         style="fill-rule:evenodd;stroke:#000000;stroke-width:1.0pt;marker-start:none"
         transform="scale(0.4) translate(10,0)" />
    </marker>
  </defs>
  <metadata
     id="metadata7">
    <rdf:RDF>
      <cc:Work
         rdf:about="">
        <dc:format>image/svg+xml</dc:format>
        <dc:type
           rdf:resource="http://purl.org/dc/dcmitype/StillImage" />
        <dc:title></dc:title>
      </cc:Work>
    </rdf:RDF>
  </metadata>
  <g
     inkscape:label="Layer 1"
     inkscape:groupmode="layer"
     id="layer1"
     transform="translate(0,-910.62859)">
    <path
       style="fill:none;stroke:#000000;stroke-width:0.99212599;stroke-linecap:butt;stroke-linejoin:miter;stroke-miterlimit:4;stroke-opacity:1;stroke-dasharray:none;marker-start:url(#Arrow1Mstart)"
       d="m 15,927.36088 0,110.00002"
       id="path2987"
       inkscape:connector-curvature="0" />
    <path
       style="fill:none;stroke:#000000;stroke-width:0.99212599;stroke-linecap:butt;stroke-linejoin:miter;stroke-miterlimit:4;stroke-opacity:1;stroke-dasharray:none;marker-start:url(#Arrow1Mstart)"
       d="m 160,1027.3609 -155.0000045,0"
       id="path2989"
       inkscape:connector-curvature="0" />
    <path
       style="fill:none;stroke:#000000;stroke-width:1;stroke-linecap:butt;stroke-linejoin:miter;stroke-miterlimit:4;stroke-opacity:1;stroke-dasharray:3, 3;stroke-dashoffset:0"
       d="m 15,972.36088 100,0 0,55.00002"
       id="path4389"
       inkscape:connector-curvature="0" />
    <path
       style="fill:none;stroke:#000000;stroke-width:1px;stroke-linecap:butt;stroke-linejoin:miter;stroke-opacity:1"
       d="M 140,947.36088 50,1037.3609"
       id="path4391"
       inkscape:connector-curvature="0" />
    <path
       sodipodi:type="arc"
       id="path4393"
       style="fill:#000000;stroke:none"
       sodipodi:cx="115"
       sodipodi:cy="972.36084"
       sodipodi:rx="1.5"
       sodipodi:ry="1.5"
       d="m 116.5,972.36084 c 0,0.82843 -0.67157,1.5 -1.5,1.5 -0.82843,0 -1.5,-0.67157 -1.5,-1.5 0,-0.82843 0.67157,-1.5 1.5,-1.5 0.82843,0 1.5,0.67157 1.5,1.5 z" />
    <path
       sodipodi:type="arc"
       id="path4395"
       style="fill:#000000;stroke:none"
       sodipodi:cx="115"
       sodipodi:cy="972.36084"
       sodipodi:rx="1.5"
       sodipodi:ry="1.5"
       d="m 116.5,972.36084 c 0,0.82843 -0.67157,1.5 -1.5,1.5 -0.82843,0 -1.5,-0.67157 -1.5,-1.5 0,-0.82843 0.67157,-1.5 1.5,-1.5 0.82843,0 1.5,0.67157 1.5,1.5 z" />
    <path
       sodipodi:type="arc"
       id="path4397"
       style="fill:#000000;stroke:none"
       sodipodi:cx="60"
       sodipodi:cy="1027.3608"
       sodipodi:rx="1.5"
       sodipodi:ry="1.5"
       d="m 61.5,1027.3608 c 0,0.8285 -0.671573,1.5 -1.5,1.5 -0.828427,0 -1.5,-0.6715 -1.5,-1.5 0,-0.8284 0.671573,-1.5 1.5,-1.5 0.828427,0 1.5,0.6716 1.5,1.5 z" />
    <path
       inkscape:connector-curvature="0"
       id="path4935"
       d="m 131.99548,951.12662 -29.01045,-2.70998"
       style="fill:none;stroke:#000000;stroke-width:0.99212599;stroke-linecap:butt;stroke-linejoin:miter;stroke-miterlimit:4;stroke-opacity:1;stroke-dasharray:none;marker-start:url(#Arrow1Mstart)"
       sodipodi:nodetypes="cc" />
    <text
       xml:space="preserve"
       style="font-size:6px;font-style:normal;font-variant:normal;font-weight:normal;font-stretch:normal;text-align:center;line-height:125%;letter-spacing:0px;word-spacing:0px;text-anchor:middle;fill:#000000;fill-opacity:1;stroke:none;font-family:LMRoman10;-inkscape-font-specification:LMRoman10"
       x="79.723915"
       y="945.7533"
       id="text4958"
       sodipodi:linespacing="125%"><tspan
         sodipodi:role="line"
         id="tspan4960"
         x="79.723915"
         y="945.7533">CHARACTERISTIC</tspan><tspan
         sodipodi:role="line"
         x="79.723915"
         y="953.2533"
         id="tspan4962">CURVE</tspan></text>
    <text
       xml:space="preserve"
       style="font-size:12px;font-style:normal;font-variant:normal;font-weight:normal;font-stretch:normal;line-height:125%;letter-spacing:0px;word-spacing:0px;fill:#000000;fill-opacity:1;stroke:none;font-family:LMRoman12;-inkscape-font-specification:LMRoman12"
       x="135.12538"
       y="936.58038"
       id="text4964"
       sodipodi:linespacing="125%"><tspan
         sodipodi:role="line"
         id="tspan4966"
         x="135.12538"
         y="936.58038" /></text>
    <text
       xml:space="preserve"
       style="font-size:12px;font-style:normal;font-variant:normal;font-weight:normal;font-stretch:normal;text-align:center;line-height:125%;letter-spacing:0px;word-spacing:0px;text-anchor:middle;fill:#000000;fill-opacity:1;stroke:none;font-family:LMRoman12;-inkscape-font-specification:LMRoman12"
       x="8.5266743"
       y="1035.7812"
       id="text5390"
       sodipodi:linespacing="125%"><tspan
         sodipodi:role="line"
         id="tspan5392"
         x="8.5266743"
         y="1035.7812">o</tspan></text>
    <g
       ns0:text="$(x, t)$"
       ns0:preamble="/home/sriranga/Documents/TIFR/preamble.tex"
       transform="matrix(1.2,0,0,1.2,-149.98674,815.93738)"
       id="g6873">
      <defs
         id="defs6875">
        <g
           id="g6877">
          <symbol
             overflow="visible"
             id="textext-a19cea3a-0">
            <path
               style="stroke:none;"
               d=""
               id="path6880" />
          </symbol>
          <symbol
             overflow="visible"
             id="textext-a19cea3a-1">
            <path
               style="stroke:none;"
               d="M 2.9375 -6.734375 C 2.203125 -6.265625 1.90625 -6 1.53125 -5.546875 C 0.828125 -4.671875 0.484375 -3.671875 0.484375 -2.515625 C 0.484375 -1.25 0.84375 -0.265625 1.71875 0.75 C 2.140625 1.21875 2.390625 1.453125 2.90625 1.765625 L 3.03125 1.609375 C 2.234375 0.984375 1.953125 0.625 1.6875 -0.125 C 1.453125 -0.78125 1.328125 -1.546875 1.328125 -2.546875 C 1.328125 -3.59375 1.46875 -4.40625 1.734375 -5.03125 C 2.015625 -5.640625 2.3125 -6 3.03125 -6.578125 L 2.9375 -6.734375 Z M 2.9375 -6.734375 "
               id="path6883" />
          </symbol>
          <symbol
             overflow="visible"
             id="textext-a19cea3a-2">
            <path
               style="stroke:none;"
               d="M 0.375 1.765625 C 1.109375 1.28125 1.421875 1.03125 1.78125 0.5625 C 2.5 -0.296875 2.84375 -1.296875 2.84375 -2.46875 C 2.84375 -3.734375 2.46875 -4.703125 1.59375 -5.71875 C 1.1875 -6.203125 0.921875 -6.421875 0.40625 -6.734375 L 0.296875 -6.578125 C 1.09375 -5.953125 1.359375 -5.609375 1.640625 -4.859375 C 1.875 -4.1875 1.984375 -3.421875 1.984375 -2.4375 C 1.984375 -1.390625 1.859375 -0.5625 1.578125 0.046875 C 1.3125 0.671875 1 1.03125 0.296875 1.609375 L 0.375 1.765625 Z M 0.375 1.765625 "
               id="path6886" />
          </symbol>
          <symbol
             overflow="visible"
             id="textext-a19cea3a-3">
            <path
               style="stroke:none;"
               d=""
               id="path6889" />
          </symbol>
          <symbol
             overflow="visible"
             id="textext-a19cea3a-4">
            <path
               style="stroke:none;"
               d="M 4 -1.109375 C 3.921875 -1.015625 3.875 -0.953125 3.78125 -0.84375 C 3.5625 -0.53125 3.4375 -0.4375 3.328125 -0.4375 C 3.1875 -0.4375 3.09375 -0.5625 3.015625 -0.84375 C 3 -0.921875 2.984375 -0.984375 2.984375 -1.015625 C 2.734375 -2.03125 2.625 -2.484375 2.625 -2.625 C 3.0625 -3.40625 3.421875 -3.84375 3.59375 -3.84375 C 3.65625 -3.84375 3.734375 -3.8125 3.84375 -3.765625 C 3.953125 -3.6875 4.03125 -3.671875 4.109375 -3.671875 C 4.3125 -3.671875 4.453125 -3.8125 4.453125 -4.03125 C 4.453125 -4.234375 4.28125 -4.390625 4.046875 -4.390625 C 3.609375 -4.390625 3.234375 -4.03125 2.546875 -2.96875 L 2.4375 -3.515625 C 2.296875 -4.203125 2.1875 -4.390625 1.90625 -4.390625 C 1.6875 -4.390625 1.359375 -4.3125 0.75 -4.109375 L 0.640625 -4.0625 L 0.671875 -3.921875 C 1.0625 -4 1.140625 -4.03125 1.234375 -4.03125 C 1.484375 -4.03125 1.546875 -3.9375 1.6875 -3.34375 L 1.96875 -2.109375 L 1.15625 -0.953125 C 0.953125 -0.640625 0.75 -0.46875 0.640625 -0.46875 C 0.59375 -0.46875 0.484375 -0.5 0.390625 -0.5625 C 0.265625 -0.625 0.15625 -0.65625 0.0625 -0.65625 C -0.125 -0.65625 -0.265625 -0.515625 -0.265625 -0.3125 C -0.265625 -0.046875 -0.0625 0.109375 0.234375 0.109375 C 0.53125 0.109375 0.65625 0.015625 1.15625 -0.59375 C 1.421875 -0.90625 1.640625 -1.171875 2.046875 -1.75 L 2.359375 -0.5625 C 2.484375 -0.046875 2.609375 0.109375 2.9375 0.109375 C 3.3125 0.109375 3.5625 -0.125 4.140625 -1.03125 L 4 -1.109375 Z M 4 -1.109375 "
               id="path6892" />
          </symbol>
          <symbol
             overflow="visible"
             id="textext-a19cea3a-5">
            <path
               style="stroke:none;"
               d="M 2.953125 -4.265625 L 2.15625 -4.265625 L 2.4375 -5.296875 C 2.4375 -5.3125 2.4375 -5.328125 2.4375 -5.34375 C 2.4375 -5.40625 2.40625 -5.4375 2.359375 -5.4375 C 2.296875 -5.4375 2.265625 -5.4375 2.21875 -5.359375 C 1.828125 -4.84375 1.203125 -4.34375 0.890625 -4.25 C 0.640625 -4.171875 0.5625 -4.109375 0.5625 -4 C 0.5625 -4 0.5625 -3.984375 0.578125 -3.953125 L 1.3125 -3.953125 L 0.59375 -1.203125 C 0.578125 -1.109375 0.5625 -1.09375 0.53125 -1 C 0.453125 -0.703125 0.375 -0.34375 0.375 -0.265625 C 0.375 -0.046875 0.578125 0.109375 0.84375 0.109375 C 1.3125 0.109375 1.640625 -0.171875 2.265625 -1.09375 L 2.140625 -1.171875 C 1.640625 -0.53125 1.484375 -0.375 1.328125 -0.375 C 1.234375 -0.375 1.171875 -0.453125 1.171875 -0.578125 C 1.171875 -0.59375 1.171875 -0.59375 1.1875 -0.625 L 2.0625 -3.953125 L 2.90625 -3.953125 L 2.953125 -4.265625 Z M 2.953125 -4.265625 "
               id="path6895" />
          </symbol>
          <symbol
             overflow="visible"
             id="textext-a19cea3a-6">
            <path
               style="stroke:none;"
               d=""
               id="path6898" />
          </symbol>
          <symbol
             overflow="visible"
             id="textext-a19cea3a-7">
            <path
               style="stroke:none;"
               d="M 1.9375 -0.0625 C 1.9375 -0.890625 1.359375 -1.015625 1.140625 -1.015625 C 0.890625 -1.015625 0.5625 -0.875 0.5625 -0.4375 C 0.5625 -0.046875 0.921875 0.0625 1.171875 0.0625 C 1.25 0.0625 1.296875 0.046875 1.328125 0.046875 C 1.359375 0.03125 1.390625 0.015625 1.421875 0.015625 C 1.484375 0.015625 1.5625 0.0625 1.5625 0.15625 C 1.5625 0.34375 1.390625 0.796875 0.734375 1.21875 L 0.828125 1.40625 C 1.125 1.3125 1.9375 0.640625 1.9375 -0.0625 Z M 1.9375 -0.0625 "
               id="path6901" />
          </symbol>
        </g>
      </defs>
      <g
         id="textext-a19cea3a-8">
        <g
           style="fill:rgb(0%,0%,0%);fill-opacity:1;"
           id="g6904">
          <use
             xlink:href="#textext-a19cea3a-1"
             x="223.432"
             y="134.765"
             id="use6906" />
        </g>
        <g
           style="fill:rgb(0%,0%,0%);fill-opacity:1;"
           id="g6908">
          <use
             xlink:href="#textext-a19cea3a-4"
             x="227.248"
             y="134.765"
             id="use6910" />
        </g>
        <g
           style="fill:rgb(0%,0%,0%);fill-opacity:1;"
           id="g6912">
          <use
             xlink:href="#textext-a19cea3a-7"
             x="231.701"
             y="134.765"
             id="use6914" />
        </g>
        <g
           style="fill:rgb(0%,0%,0%);fill-opacity:1;"
           id="g6916">
          <use
             xlink:href="#textext-a19cea3a-5"
             x="235.852"
             y="134.765"
             id="use6918" />
        </g>
        <g
           style="fill:rgb(0%,0%,0%);fill-opacity:1;"
           id="g6920">
          <use
             xlink:href="#textext-a19cea3a-2"
             x="238.801"
             y="134.765"
             id="use6922" />
        </g>
      </g>
    </g>
    <g
       id="g7122"
       transform="matrix(1.2,0,0,1.2,-111.4664,875.89511)"
       ns0:preamble="/home/sriranga/Documents/TIFR/preamble.tex"
       ns0:text="$x$">
      <defs
         id="defs7124">
        <g
           id="g7126">
          <symbol
             id="textext-9f257246-0"
             overflow="visible">
            <path
               id="path7129"
               d=""
               style="stroke:none;" />
          </symbol>
          <symbol
             id="textext-9f257246-1"
             overflow="visible">
            <path
               id="path7132"
               d="M 4 -1.109375 C 3.921875 -1.015625 3.875 -0.953125 3.78125 -0.84375 C 3.5625 -0.53125 3.4375 -0.4375 3.328125 -0.4375 C 3.1875 -0.4375 3.09375 -0.5625 3.015625 -0.84375 C 3 -0.921875 2.984375 -0.984375 2.984375 -1.015625 C 2.734375 -2.03125 2.625 -2.484375 2.625 -2.625 C 3.0625 -3.40625 3.421875 -3.84375 3.59375 -3.84375 C 3.65625 -3.84375 3.734375 -3.8125 3.84375 -3.765625 C 3.953125 -3.6875 4.03125 -3.671875 4.109375 -3.671875 C 4.3125 -3.671875 4.453125 -3.8125 4.453125 -4.03125 C 4.453125 -4.234375 4.28125 -4.390625 4.046875 -4.390625 C 3.609375 -4.390625 3.234375 -4.03125 2.546875 -2.96875 L 2.4375 -3.515625 C 2.296875 -4.203125 2.1875 -4.390625 1.90625 -4.390625 C 1.6875 -4.390625 1.359375 -4.3125 0.75 -4.109375 L 0.640625 -4.0625 L 0.671875 -3.921875 C 1.0625 -4 1.140625 -4.03125 1.234375 -4.03125 C 1.484375 -4.03125 1.546875 -3.9375 1.6875 -3.34375 L 1.96875 -2.109375 L 1.15625 -0.953125 C 0.953125 -0.640625 0.75 -0.46875 0.640625 -0.46875 C 0.59375 -0.46875 0.484375 -0.5 0.390625 -0.5625 C 0.265625 -0.625 0.15625 -0.65625 0.0625 -0.65625 C -0.125 -0.65625 -0.265625 -0.515625 -0.265625 -0.3125 C -0.265625 -0.046875 -0.0625 0.109375 0.234375 0.109375 C 0.53125 0.109375 0.65625 0.015625 1.15625 -0.59375 C 1.421875 -0.90625 1.640625 -1.171875 2.046875 -1.75 L 2.359375 -0.5625 C 2.484375 -0.046875 2.609375 0.109375 2.9375 0.109375 C 3.3125 0.109375 3.5625 -0.125 4.140625 -1.03125 L 4 -1.109375 Z M 4 -1.109375 "
               style="stroke:none;" />
          </symbol>
        </g>
      </defs>
      <g
         id="textext-9f257246-2">
        <g
           id="g7135"
           style="fill:rgb(0%,0%,0%);fill-opacity:1;">
          <use
             id="use7137"
             y="134.765"
             x="223.93"
             xlink:href="#textext-9f257246-1" />
        </g>
      </g>
    </g>
    <g
       ns0:text="$(x- ut, o)$"
       ns0:preamble="/home/sriranga/Documents/TIFR/preamble.tex"
       transform="matrix(1.2,0,0,1.2,-210.81061,877.90486)"
       id="g7315">
      <defs
         id="defs7317">
        <g
           id="g7319">
          <symbol
             overflow="visible"
             id="textext-dc356c71-0">
            <path
               style="stroke:none;"
               d=""
               id="path7322" />
          </symbol>
          <symbol
             overflow="visible"
             id="textext-dc356c71-1">
            <path
               style="stroke:none;"
               d="M 2.9375 -6.734375 C 2.203125 -6.265625 1.90625 -6 1.53125 -5.546875 C 0.828125 -4.671875 0.484375 -3.671875 0.484375 -2.515625 C 0.484375 -1.25 0.84375 -0.265625 1.71875 0.75 C 2.140625 1.21875 2.390625 1.453125 2.90625 1.765625 L 3.03125 1.609375 C 2.234375 0.984375 1.953125 0.625 1.6875 -0.125 C 1.453125 -0.78125 1.328125 -1.546875 1.328125 -2.546875 C 1.328125 -3.59375 1.46875 -4.40625 1.734375 -5.03125 C 2.015625 -5.640625 2.3125 -6 3.03125 -6.578125 L 2.9375 -6.734375 Z M 2.9375 -6.734375 "
               id="path7325" />
          </symbol>
          <symbol
             overflow="visible"
             id="textext-dc356c71-2">
            <path
               style="stroke:none;"
               d="M 0.375 1.765625 C 1.109375 1.28125 1.421875 1.03125 1.78125 0.5625 C 2.5 -0.296875 2.84375 -1.296875 2.84375 -2.46875 C 2.84375 -3.734375 2.46875 -4.703125 1.59375 -5.71875 C 1.1875 -6.203125 0.921875 -6.421875 0.40625 -6.734375 L 0.296875 -6.578125 C 1.09375 -5.953125 1.359375 -5.609375 1.640625 -4.859375 C 1.875 -4.1875 1.984375 -3.421875 1.984375 -2.4375 C 1.984375 -1.390625 1.859375 -0.5625 1.578125 0.046875 C 1.3125 0.671875 1 1.03125 0.296875 1.609375 L 0.375 1.765625 Z M 0.375 1.765625 "
               id="path7328" />
          </symbol>
          <symbol
             overflow="visible"
             id="textext-dc356c71-3">
            <path
               style="stroke:none;"
               d=""
               id="path7331" />
          </symbol>
          <symbol
             overflow="visible"
             id="textext-dc356c71-4">
            <path
               style="stroke:none;"
               d="M 4 -1.109375 C 3.921875 -1.015625 3.875 -0.953125 3.78125 -0.84375 C 3.5625 -0.53125 3.4375 -0.4375 3.328125 -0.4375 C 3.1875 -0.4375 3.09375 -0.5625 3.015625 -0.84375 C 3 -0.921875 2.984375 -0.984375 2.984375 -1.015625 C 2.734375 -2.03125 2.625 -2.484375 2.625 -2.625 C 3.0625 -3.40625 3.421875 -3.84375 3.59375 -3.84375 C 3.65625 -3.84375 3.734375 -3.8125 3.84375 -3.765625 C 3.953125 -3.6875 4.03125 -3.671875 4.109375 -3.671875 C 4.3125 -3.671875 4.453125 -3.8125 4.453125 -4.03125 C 4.453125 -4.234375 4.28125 -4.390625 4.046875 -4.390625 C 3.609375 -4.390625 3.234375 -4.03125 2.546875 -2.96875 L 2.4375 -3.515625 C 2.296875 -4.203125 2.1875 -4.390625 1.90625 -4.390625 C 1.6875 -4.390625 1.359375 -4.3125 0.75 -4.109375 L 0.640625 -4.0625 L 0.671875 -3.921875 C 1.0625 -4 1.140625 -4.03125 1.234375 -4.03125 C 1.484375 -4.03125 1.546875 -3.9375 1.6875 -3.34375 L 1.96875 -2.109375 L 1.15625 -0.953125 C 0.953125 -0.640625 0.75 -0.46875 0.640625 -0.46875 C 0.59375 -0.46875 0.484375 -0.5 0.390625 -0.5625 C 0.265625 -0.625 0.15625 -0.65625 0.0625 -0.65625 C -0.125 -0.65625 -0.265625 -0.515625 -0.265625 -0.3125 C -0.265625 -0.046875 -0.0625 0.109375 0.234375 0.109375 C 0.53125 0.109375 0.65625 0.015625 1.15625 -0.59375 C 1.421875 -0.90625 1.640625 -1.171875 2.046875 -1.75 L 2.359375 -0.5625 C 2.484375 -0.046875 2.609375 0.109375 2.9375 0.109375 C 3.3125 0.109375 3.5625 -0.125 4.140625 -1.03125 L 4 -1.109375 Z M 4 -1.109375 "
               id="path7334" />
          </symbol>
          <symbol
             overflow="visible"
             id="textext-dc356c71-5">
            <path
               style="stroke:none;"
               d="M 4.59375 -1.171875 C 4.078125 -0.515625 3.921875 -0.375 3.765625 -0.375 C 3.703125 -0.375 3.65625 -0.4375 3.65625 -0.546875 C 3.65625 -0.609375 3.65625 -0.609375 3.84375 -1.328125 L 4.640625 -4.3125 L 3.890625 -4.3125 C 3.328125 -2.765625 3.265625 -2.609375 2.796875 -1.875 C 2.203125 -0.921875 1.71875 -0.421875 1.390625 -0.421875 C 1.28125 -0.421875 1.1875 -0.515625 1.1875 -0.671875 C 1.1875 -0.703125 1.1875 -0.734375 1.203125 -0.75 L 2.109375 -4.375 L 2.078125 -4.390625 C 1.5 -4.265625 1.140625 -4.203125 0.578125 -4.125 L 0.578125 -3.984375 C 0.953125 -3.984375 0.984375 -3.984375 1.0625 -3.921875 C 1.125 -3.90625 1.171875 -3.8125 1.171875 -3.75 C 1.171875 -3.671875 1.125 -3.421875 1.03125 -3.078125 L 0.671875 -1.671875 C 0.484375 -0.953125 0.421875 -0.625 0.421875 -0.4375 C 0.421875 -0.078125 0.59375 0.109375 0.953125 0.109375 C 1.65625 0.109375 2.1875 -0.421875 3.328125 -2.359375 C 3.046875 -1.28125 2.875 -0.59375 2.875 -0.390625 C 2.875 -0.09375 3.0625 0.09375 3.359375 0.09375 C 3.828125 0.09375 4.0625 -0.109375 4.734375 -1.078125 L 4.59375 -1.171875 Z M 4.59375 -1.171875 "
               id="path7337" />
          </symbol>
          <symbol
             overflow="visible"
             id="textext-dc356c71-6">
            <path
               style="stroke:none;"
               d="M 2.953125 -4.265625 L 2.15625 -4.265625 L 2.4375 -5.296875 C 2.4375 -5.3125 2.4375 -5.328125 2.4375 -5.34375 C 2.4375 -5.40625 2.40625 -5.4375 2.359375 -5.4375 C 2.296875 -5.4375 2.265625 -5.4375 2.21875 -5.359375 C 1.828125 -4.84375 1.203125 -4.34375 0.890625 -4.25 C 0.640625 -4.171875 0.5625 -4.109375 0.5625 -4 C 0.5625 -4 0.5625 -3.984375 0.578125 -3.953125 L 1.3125 -3.953125 L 0.59375 -1.203125 C 0.578125 -1.109375 0.5625 -1.09375 0.53125 -1 C 0.453125 -0.703125 0.375 -0.34375 0.375 -0.265625 C 0.375 -0.046875 0.578125 0.109375 0.84375 0.109375 C 1.3125 0.109375 1.640625 -0.171875 2.265625 -1.09375 L 2.140625 -1.171875 C 1.640625 -0.53125 1.484375 -0.375 1.328125 -0.375 C 1.234375 -0.375 1.171875 -0.453125 1.171875 -0.578125 C 1.171875 -0.59375 1.171875 -0.59375 1.1875 -0.625 L 2.0625 -3.953125 L 2.90625 -3.953125 L 2.953125 -4.265625 Z M 2.953125 -4.265625 "
               id="path7340" />
          </symbol>
          <symbol
             overflow="visible"
             id="textext-dc356c71-7">
            <path
               style="stroke:none;"
               d="M 3.234375 -4.390625 C 1.75 -4.390625 0.265625 -2.84375 0.265625 -1.28125 C 0.265625 -0.421875 0.828125 0.109375 1.734375 0.109375 C 2.390625 0.109375 3.03125 -0.1875 3.609375 -0.75 C 4.265625 -1.40625 4.671875 -2.25 4.671875 -3 C 4.671875 -3.828125 4.09375 -4.390625 3.234375 -4.390625 Z M 3.125 -4.1875 C 3.546875 -4.1875 3.828125 -3.8125 3.828125 -3.25 C 3.828125 -2.515625 3.5 -1.53125 3.0625 -0.875 C 2.6875 -0.34375 2.3125 -0.09375 1.890625 -0.09375 C 1.421875 -0.09375 1.109375 -0.453125 1.109375 -1 C 1.109375 -1.75 1.390625 -2.625 1.890625 -3.328125 C 2.265625 -3.890625 2.6875 -4.1875 3.125 -4.1875 Z M 3.125 -4.1875 "
               id="path7343" />
          </symbol>
          <symbol
             overflow="visible"
             id="textext-dc356c71-8">
            <path
               style="stroke:none;"
               d=""
               id="path7346" />
          </symbol>
          <symbol
             overflow="visible"
             id="textext-dc356c71-9">
            <path
               style="stroke:none;"
               d="M 5.71875 -2.28125 L 5.71875 -2.84375 L 0.625 -2.84375 L 0.625 -2.28125 L 5.71875 -2.28125 Z M 5.71875 -2.28125 "
               id="path7349" />
          </symbol>
          <symbol
             overflow="visible"
             id="textext-dc356c71-10">
            <path
               style="stroke:none;"
               d=""
               id="path7352" />
          </symbol>
          <symbol
             overflow="visible"
             id="textext-dc356c71-11">
            <path
               style="stroke:none;"
               d="M 1.9375 -0.0625 C 1.9375 -0.890625 1.359375 -1.015625 1.140625 -1.015625 C 0.890625 -1.015625 0.5625 -0.875 0.5625 -0.4375 C 0.5625 -0.046875 0.921875 0.0625 1.171875 0.0625 C 1.25 0.0625 1.296875 0.046875 1.328125 0.046875 C 1.359375 0.03125 1.390625 0.015625 1.421875 0.015625 C 1.484375 0.015625 1.5625 0.0625 1.5625 0.15625 C 1.5625 0.34375 1.390625 0.796875 0.734375 1.21875 L 0.828125 1.40625 C 1.125 1.3125 1.9375 0.640625 1.9375 -0.0625 Z M 1.9375 -0.0625 "
               id="path7355" />
          </symbol>
        </g>
      </defs>
      <g
         id="textext-dc356c71-12">
        <g
           style="fill:rgb(0%,0%,0%);fill-opacity:1;"
           id="g7358">
          <use
             xlink:href="#textext-dc356c71-1"
             x="223.432"
             y="134.765"
             id="use7360" />
        </g>
        <g
           style="fill:rgb(0%,0%,0%);fill-opacity:1;"
           id="g7362">
          <use
             xlink:href="#textext-dc356c71-4"
             x="227.248"
             y="134.765"
             id="use7364" />
        </g>
        <g
           style="fill:rgb(0%,0%,0%);fill-opacity:1;"
           id="g7366">
          <use
             xlink:href="#textext-dc356c71-9"
             x="233.915"
             y="134.765"
             id="use7368" />
        </g>
        <g
           style="fill:rgb(0%,0%,0%);fill-opacity:1;"
           id="g7370">
          <use
             xlink:href="#textext-dc356c71-5"
             x="242.465"
             y="134.765"
             id="use7372" />
          <use
             xlink:href="#textext-dc356c71-6"
             x="247.4463"
             y="134.765"
             id="use7374" />
        </g>
        <g
           style="fill:rgb(0%,0%,0%);fill-opacity:1;"
           id="g7376">
          <use
             xlink:href="#textext-dc356c71-11"
             x="250.395"
             y="134.765"
             id="use7378" />
        </g>
        <g
           style="fill:rgb(0%,0%,0%);fill-opacity:1;"
           id="g7380">
          <use
             xlink:href="#textext-dc356c71-7"
             x="254.546"
             y="134.765"
             id="use7382" />
        </g>
        <g
           style="fill:rgb(0%,0%,0%);fill-opacity:1;"
           id="g7384">
          <use
             xlink:href="#textext-dc356c71-2"
             x="259.528"
             y="134.765"
             id="use7386" />
        </g>
      </g>
    </g>
    <g
       id="g7608"
       transform="matrix(1.2,0,0,1.2,-261.0465,767.77758)"
       ns0:preamble="/home/sriranga/Documents/TIFR/preamble.tex"
       ns0:text="$t$">
      <defs
         id="defs7610">
        <g
           id="g7612">
          <symbol
             id="textext-df247f91-0"
             overflow="visible">
            <path
               id="path7615"
               d=""
               style="stroke:none;" />
          </symbol>
          <symbol
             id="textext-df247f91-1"
             overflow="visible">
            <path
               id="path7618"
               d="M 2.953125 -4.265625 L 2.15625 -4.265625 L 2.4375 -5.296875 C 2.4375 -5.3125 2.4375 -5.328125 2.4375 -5.34375 C 2.4375 -5.40625 2.40625 -5.4375 2.359375 -5.4375 C 2.296875 -5.4375 2.265625 -5.4375 2.21875 -5.359375 C 1.828125 -4.84375 1.203125 -4.34375 0.890625 -4.25 C 0.640625 -4.171875 0.5625 -4.109375 0.5625 -4 C 0.5625 -4 0.5625 -3.984375 0.578125 -3.953125 L 1.3125 -3.953125 L 0.59375 -1.203125 C 0.578125 -1.109375 0.5625 -1.09375 0.53125 -1 C 0.453125 -0.703125 0.375 -0.34375 0.375 -0.265625 C 0.375 -0.046875 0.578125 0.109375 0.84375 0.109375 C 1.3125 0.109375 1.640625 -0.171875 2.265625 -1.09375 L 2.140625 -1.171875 C 1.640625 -0.53125 1.484375 -0.375 1.328125 -0.375 C 1.234375 -0.375 1.171875 -0.453125 1.171875 -0.578125 C 1.171875 -0.59375 1.171875 -0.59375 1.1875 -0.625 L 2.0625 -3.953125 L 2.90625 -3.953125 L 2.953125 -4.265625 Z M 2.953125 -4.265625 "
               style="stroke:none;" />
          </symbol>
        </g>
      </defs>
      <g
         id="textext-df247f91-2">
        <g
           id="g7621"
           style="fill:rgb(0%,0%,0%);fill-opacity:1;">
          <use
             id="use7623"
             y="134.765"
             x="223.432"
             xlink:href="#textext-df247f91-1" />
        </g>
      </g>
    </g>
  </g>
</svg>
