<?xml version="1.0" encoding="UTF-8" standalone="no"?>
<!-- Created with Inkscape (http://www.inkscape.org/) -->

<svg
   xmlns:ns0="http://www.iki.fi/pav/software/textext/"
   xmlns:dc="http://purl.org/dc/elements/1.1/"
   xmlns:cc="http://creativecommons.org/ns#"
   xmlns:rdf="http://www.w3.org/1999/02/22-rdf-syntax-ns#"
   xmlns:svg="http://www.w3.org/2000/svg"
   xmlns="http://www.w3.org/2000/svg"
   xmlns:xlink="http://www.w3.org/1999/xlink"
   xmlns:sodipodi="http://sodipodi.sourceforge.net/DTD/sodipodi-0.dtd"
   xmlns:inkscape="http://www.inkscape.org/namespaces/inkscape"
   width="318.89764"
   height="212.59842"
   id="svg2"
   version="1.1"
   inkscape:version="0.47 r22583"
   sodipodi:docname="fig58-4.eps">
  <sodipodi:namedview
     id="base"
     pagecolor="#ffffff"
     bordercolor="#666666"
     borderopacity="1.0"
     inkscape:pageopacity="0.0"
     inkscape:pageshadow="2"
     inkscape:zoom="1.4769629"
     inkscape:cx="159.44882"
     inkscape:cy="106.29921"
     inkscape:document-units="cm"
     inkscape:current-layer="layer1"
     showgrid="false"
     units="cm"
     showborder="true"
     borderlayer="false"
     inkscape:window-width="549"
     inkscape:window-height="609"
     inkscape:window-x="467"
     inkscape:window-y="0"
     inkscape:window-maximized="0">
    <inkscape:grid
       snapvisiblegridlinesonly="true"
       enabled="true"
       visible="true"
       empspacing="5"
       id="grid2816"
       type="xygrid" />
  </sodipodi:namedview>
  <defs
     id="defs4">
    <inkscape:perspective
       id="perspective10"
       inkscape:persp3d-origin="372.04724 : 350.78739 : 1"
       inkscape:vp_z="744.09448 : 526.18109 : 1"
       inkscape:vp_y="0 : 1000 : 0"
       inkscape:vp_x="0 : 526.18109 : 1"
       sodipodi:type="inkscape:persp3d" />
    <inkscape:perspective
       sodipodi:type="inkscape:persp3d"
       inkscape:vp_x="0 : 0.5 : 1"
       inkscape:vp_y="0 : 1000 : 0"
       inkscape:vp_z="1 : 0.5 : 1"
       inkscape:persp3d-origin="0.5 : 0.33333333 : 1"
       id="perspective3646" />
    <inkscape:perspective
       id="perspective3801"
       inkscape:persp3d-origin="0.5 : 0.33333333 : 1"
       inkscape:vp_z="1 : 0.5 : 1"
       inkscape:vp_y="0 : 1000 : 0"
       inkscape:vp_x="0 : 0.5 : 1"
       sodipodi:type="inkscape:persp3d" />
    <inkscape:perspective
       id="perspective3801-8"
       inkscape:persp3d-origin="0.5 : 0.33333333 : 1"
       inkscape:vp_z="1 : 0.5 : 1"
       inkscape:vp_y="0 : 1000 : 0"
       inkscape:vp_x="0 : 0.5 : 1"
       sodipodi:type="inkscape:persp3d" />
    <inkscape:perspective
       id="perspective3801-6"
       inkscape:persp3d-origin="0.5 : 0.33333333 : 1"
       inkscape:vp_z="1 : 0.5 : 1"
       inkscape:vp_y="0 : 1000 : 0"
       inkscape:vp_x="0 : 0.5 : 1"
       sodipodi:type="inkscape:persp3d" />
    <inkscape:perspective
       sodipodi:type="inkscape:persp3d"
       inkscape:vp_x="0 : 0.5 : 1"
       inkscape:vp_y="0 : 1000 : 0"
       inkscape:vp_z="1 : 0.5 : 1"
       inkscape:persp3d-origin="0.5 : 0.33333333 : 1"
       id="perspective4183" />
    <inkscape:perspective
       id="perspective4183-1"
       inkscape:persp3d-origin="0.5 : 0.33333333 : 1"
       inkscape:vp_z="1 : 0.5 : 1"
       inkscape:vp_y="0 : 1000 : 0"
       inkscape:vp_x="0 : 0.5 : 1"
       sodipodi:type="inkscape:persp3d" />
    <inkscape:perspective
       sodipodi:type="inkscape:persp3d"
       inkscape:vp_x="0 : 0.5 : 1"
       inkscape:vp_y="0 : 1000 : 0"
       inkscape:vp_z="1 : 0.5 : 1"
       inkscape:persp3d-origin="0.5 : 0.33333333 : 1"
       id="perspective4865" />
    <inkscape:perspective
       id="perspective4865-7"
       inkscape:persp3d-origin="0.5 : 0.33333333 : 1"
       inkscape:vp_z="1 : 0.5 : 1"
       inkscape:vp_y="0 : 1000 : 0"
       inkscape:vp_x="0 : 0.5 : 1"
       sodipodi:type="inkscape:persp3d" />
    <inkscape:perspective
       sodipodi:type="inkscape:persp3d"
       inkscape:vp_x="0 : 0.5 : 1"
       inkscape:vp_y="0 : 1000 : 0"
       inkscape:vp_z="1 : 0.5 : 1"
       inkscape:persp3d-origin="0.5 : 0.33333333 : 1"
       id="perspective5729" />
    <inkscape:perspective
       id="perspective5729-4"
       inkscape:persp3d-origin="0.5 : 0.33333333 : 1"
       inkscape:vp_z="1 : 0.5 : 1"
       inkscape:vp_y="0 : 1000 : 0"
       inkscape:vp_x="0 : 0.5 : 1"
       sodipodi:type="inkscape:persp3d" />
    <inkscape:perspective
       sodipodi:type="inkscape:persp3d"
       inkscape:vp_x="0 : 0.5 : 1"
       inkscape:vp_y="0 : 1000 : 0"
       inkscape:vp_z="1 : 0.5 : 1"
       inkscape:persp3d-origin="0.5 : 0.33333333 : 1"
       id="perspective7286" />
    <inkscape:perspective
       id="perspective7518"
       inkscape:persp3d-origin="0.5 : 0.33333333 : 1"
       inkscape:vp_z="1 : 0.5 : 1"
       inkscape:vp_y="0 : 1000 : 0"
       inkscape:vp_x="0 : 0.5 : 1"
       sodipodi:type="inkscape:persp3d" />
    <inkscape:perspective
       id="perspective7540"
       inkscape:persp3d-origin="0.5 : 0.33333333 : 1"
       inkscape:vp_z="1 : 0.5 : 1"
       inkscape:vp_y="0 : 1000 : 0"
       inkscape:vp_x="0 : 0.5 : 1"
       sodipodi:type="inkscape:persp3d" />
    <inkscape:perspective
       sodipodi:type="inkscape:persp3d"
       inkscape:vp_x="0 : 0.5 : 1"
       inkscape:vp_y="0 : 1000 : 0"
       inkscape:vp_z="1 : 0.5 : 1"
       inkscape:persp3d-origin="0.5 : 0.33333333 : 1"
       id="perspective7794" />
    <inkscape:perspective
       sodipodi:type="inkscape:persp3d"
       inkscape:vp_x="0 : 0.5 : 1"
       inkscape:vp_y="0 : 1000 : 0"
       inkscape:vp_z="1 : 0.5 : 1"
       inkscape:persp3d-origin="0.5 : 0.33333333 : 1"
       id="perspective7816" />
    <inkscape:perspective
       id="perspective8124"
       inkscape:persp3d-origin="0.5 : 0.33333333 : 1"
       inkscape:vp_z="1 : 0.5 : 1"
       inkscape:vp_y="0 : 1000 : 0"
       inkscape:vp_x="0 : 0.5 : 1"
       sodipodi:type="inkscape:persp3d" />
    <inkscape:perspective
       id="perspective8191"
       inkscape:persp3d-origin="0.5 : 0.33333333 : 1"
       inkscape:vp_z="1 : 0.5 : 1"
       inkscape:vp_y="0 : 1000 : 0"
       inkscape:vp_x="0 : 0.5 : 1"
       sodipodi:type="inkscape:persp3d" />
    <inkscape:perspective
       sodipodi:type="inkscape:persp3d"
       inkscape:vp_x="0 : 0.5 : 1"
       inkscape:vp_y="0 : 1000 : 0"
       inkscape:vp_z="1 : 0.5 : 1"
       inkscape:persp3d-origin="0.5 : 0.33333333 : 1"
       id="perspective8743" />
    <inkscape:perspective
       sodipodi:type="inkscape:persp3d"
       inkscape:vp_x="0 : 0.5 : 1"
       inkscape:vp_y="0 : 1000 : 0"
       inkscape:vp_z="1 : 0.5 : 1"
       inkscape:persp3d-origin="0.5 : 0.33333333 : 1"
       id="perspective8942" />
    <inkscape:perspective
       id="perspective9105"
       inkscape:persp3d-origin="0.5 : 0.33333333 : 1"
       inkscape:vp_z="1 : 0.5 : 1"
       inkscape:vp_y="0 : 1000 : 0"
       inkscape:vp_x="0 : 0.5 : 1"
       sodipodi:type="inkscape:persp3d" />
    <inkscape:perspective
       sodipodi:type="inkscape:persp3d"
       inkscape:vp_x="0 : 0.5 : 1"
       inkscape:vp_y="0 : 1000 : 0"
       inkscape:vp_z="1 : 0.5 : 1"
       inkscape:persp3d-origin="0.5 : 0.33333333 : 1"
       id="perspective9105-0" />
    <inkscape:perspective
       id="perspective9636"
       inkscape:persp3d-origin="0.5 : 0.33333333 : 1"
       inkscape:vp_z="1 : 0.5 : 1"
       inkscape:vp_y="0 : 1000 : 0"
       inkscape:vp_x="0 : 0.5 : 1"
       sodipodi:type="inkscape:persp3d" />
    <inkscape:perspective
       sodipodi:type="inkscape:persp3d"
       inkscape:vp_x="0 : 0.5 : 1"
       inkscape:vp_y="0 : 1000 : 0"
       inkscape:vp_z="1 : 0.5 : 1"
       inkscape:persp3d-origin="0.5 : 0.33333333 : 1"
       id="perspective9636-9" />
  </defs>
  <metadata
     id="metadata7">
    <rdf:RDF>
      <cc:Work
         rdf:about="">
        <dc:format>image/svg+xml</dc:format>
        <dc:type
           rdf:resource="http://purl.org/dc/dcmitype/StillImage" />
        <dc:title></dc:title>
      </cc:Work>
    </rdf:RDF>
  </metadata>
  <g
     transform="translate(0,-839.76245)"
     id="layer1"
     inkscape:groupmode="layer"
     inkscape:label="Layer 1">
    <path
       sodipodi:nodetypes="cc"
       transform="translate(0,839.76245)"
       id="path8958"
       d="M 260,42.598419 170,132.59842"
       style="fill:none;stroke:#000000;stroke-width:1px;stroke-linecap:butt;stroke-linejoin:miter;stroke-opacity:1" />
    <path
       transform="translate(0,839.76245)"
       id="path8932"
       d="m 40,42.598419 0,90.000001 90,0"
       style="fill:none;stroke:#000000;stroke-width:1px;stroke-linecap:butt;stroke-linejoin:miter;stroke-opacity:1" />
    <path
       id="path8932-0"
       d="m 260,972.36087 0,-90 -90,0"
       style="fill:none;stroke:#000000;stroke-width:1px;stroke-linecap:butt;stroke-linejoin:miter;stroke-opacity:1" />
    <path
       transform="translate(-1,838.76245)"
       d="m 265,43.598419 c 0,2.209139 -1.79086,4 -4,4 -2.20914,0 -4,-1.790861 -4,-4 0,-2.209139 1.79086,-4 4,-4 2.20914,0 4,1.790861 4,4 z"
       sodipodi:ry="4"
       sodipodi:rx="4"
       sodipodi:cy="43.598419"
       sodipodi:cx="261"
       id="path8956"
       style="color:#000000;fill:#ffffff;fill-opacity:1;stroke:#000000;stroke-width:0.99212599;stroke-linecap:butt;stroke-linejoin:round;stroke-miterlimit:4;stroke-opacity:1;stroke-dasharray:none;stroke-dashoffset:0;marker:none;visibility:visible;display:inline;overflow:visible;enable-background:accumulate"
       sodipodi:type="arc" />
    <path
       transform="translate(0,839.76245)"
       id="path8964"
       d="M 240,42.598419 170,112.59842"
       style="fill:none;stroke:#000000;stroke-width:1px;stroke-linecap:butt;stroke-linejoin:miter;stroke-opacity:1" />
    <path
       transform="translate(0,839.76245)"
       id="path8966"
       d="m 220,42.598419 -50,50"
       style="fill:none;stroke:#000000;stroke-width:1px;stroke-linecap:butt;stroke-linejoin:miter;stroke-opacity:1" />
    <path
       transform="translate(0,839.76245)"
       id="path8968"
       d="m 200,42.598419 -30,30"
       style="fill:none;stroke:#000000;stroke-width:1px;stroke-linecap:butt;stroke-linejoin:miter;stroke-opacity:1" />
    <path
       id="path8970"
       d="M 179.42224,882.21923 170,892.83963"
       style="fill:none;stroke:#000000;stroke-width:1px;stroke-linecap:butt;stroke-linejoin:miter;stroke-opacity:1" />
    <path
       sodipodi:nodetypes="cc"
       transform="translate(0,839.76245)"
       id="path8972"
       d="M 260,62.598419 190,132.59842"
       style="fill:none;stroke:#000000;stroke-width:1px;stroke-linecap:butt;stroke-linejoin:miter;stroke-opacity:1" />
    <path
       sodipodi:nodetypes="cc"
       transform="translate(0,839.76245)"
       id="path8974"
       d="M 260,82.598419 210,132.59842"
       style="fill:none;stroke:#000000;stroke-width:1px;stroke-linecap:butt;stroke-linejoin:miter;stroke-opacity:1" />
    <path
       sodipodi:nodetypes="cc"
       transform="translate(0,839.76245)"
       id="path8976"
       d="m 260,102.59842 -30,30"
       style="fill:none;stroke:#000000;stroke-width:1px;stroke-linecap:butt;stroke-linejoin:miter;stroke-opacity:1" />
    <path
       transform="translate(0,839.76245)"
       id="path8978"
       d="m 260,122.59842 -10,10"
       style="fill:none;stroke:#000000;stroke-width:1px;stroke-linecap:butt;stroke-linejoin:miter;stroke-opacity:1" />
    <g
       id="g9018"
       ns0:preamble="/home/manju/Documents/ubm/preamble.tex"
       ns0:text="$n_2$"
       transform="matrix(1.2,0,0,1.2,-243.011,759.6693)">
      <defs
         id="defs9020">
        <g
           id="g9022">
          <symbol
             id="textext-c607b746-0"
             overflow="visible"
             style="overflow:visible">
            <path
               id="path9025"
               d=""
               style="stroke:none" />
          </symbol>
          <symbol
             id="textext-c607b746-1"
             overflow="visible"
             style="overflow:visible">
            <path
               id="path9028"
               d="m 0.875,-0.59375 c -0.03125,0.15625 -0.09375,0.390625 -0.09375,0.4375 0,0.171875 0.140625,0.265625 0.296875,0.265625 0.125,0 0.296875,-0.078125 0.375,-0.28125 0,-0.015625 0.125,-0.484375 0.1875,-0.734375 C 1.703125,-1.203125 1.78125,-1.5 1.859375,-1.796875 1.90625,-2.03125 1.96875,-2.25 2.03125,-2.46875 c 0.03125,-0.171875 0.109375,-0.46875 0.125,-0.5 0.140625,-0.3125 0.671875,-1.21875 1.625,-1.21875 0.453125,0 0.53125,0.375 0.53125,0.703125 0,0.609375 -0.484375,1.890625 -0.640625,2.3125 C 3.578125,-0.9375 3.5625,-0.8125 3.5625,-0.703125 c 0,0.46875 0.359375,0.8125 0.828125,0.8125 0.9375,0 1.296875,-1.453125 1.296875,-1.53125 0,-0.109375 -0.078125,-0.109375 -0.109375,-0.109375 -0.109375,0 -0.109375,0.03125 -0.15625,0.1875 -0.203125,0.671875 -0.53125,1.234375 -1.015625,1.234375 -0.171875,0 -0.234375,-0.09375 -0.234375,-0.328125 0,-0.25 0.078125,-0.484375 0.171875,-0.703125 0.1875,-0.53125 0.609375,-1.625 0.609375,-2.203125 0,-0.65625 -0.421875,-1.0625 -1.140625,-1.0625 -0.90625,0 -1.390625,0.640625 -1.5625,0.875 -0.046875,-0.5625 -0.453125,-0.875 -0.921875,-0.875 -0.453125,0 -0.640625,0.390625 -0.734375,0.5625 C 0.421875,-3.5 0.296875,-2.90625 0.296875,-2.875 c 0,0.109375 0.09375,0.109375 0.109375,0.109375 0.109375,0 0.109375,-0.015625 0.171875,-0.234375 0.171875,-0.703125 0.375,-1.1875 0.734375,-1.1875 0.1875,0 0.296875,0.125 0.296875,0.453125 0,0.21875 -0.03125,0.328125 -0.15625,0.84375 L 0.875,-0.59375 z m 0,0"
               style="stroke:none" />
          </symbol>
          <symbol
             id="textext-c607b746-2"
             overflow="visible"
             style="overflow:visible">
            <path
               id="path9031"
               d=""
               style="stroke:none" />
          </symbol>
          <symbol
             id="textext-c607b746-3"
             overflow="visible"
             style="overflow:visible">
            <path
               id="path9034"
               d="m 3.515625,-1.265625 -0.234375,0 c -0.015625,0.15625 -0.09375,0.5625 -0.1875,0.625 -0.046875,0.046875 -0.578125,0.046875 -0.6875,0.046875 l -1.28125,0 c 0.734375,-0.640625 0.984375,-0.84375 1.390625,-1.171875 0.515625,-0.40625 1,-0.84375 1,-1.5 0,-0.84375 -0.734375,-1.359375 -1.625,-1.359375 -0.859375,0 -1.453125,0.609375 -1.453125,1.25 0,0.34375 0.296875,0.390625 0.375,0.390625 0.15625,0 0.359375,-0.125 0.359375,-0.375 0,-0.125 -0.046875,-0.375 -0.40625,-0.375 C 0.984375,-4.21875 1.453125,-4.375 1.78125,-4.375 c 0.703125,0 1.0625,0.546875 1.0625,1.109375 0,0.609375 -0.4375,1.078125 -0.65625,1.328125 L 0.515625,-0.265625 C 0.4375,-0.203125 0.4375,-0.1875 0.4375,0 l 2.875,0 0.203125,-1.265625 z m 0,0"
               style="stroke:none" />
          </symbol>
        </g>
      </defs>
      <g
         id="textext-c607b746-4">
        <g
           id="g9037"
           style="fill:#000000;fill-opacity:1">
          <use
             id="use9039"
             y="134.76469"
             x="223.4321"
             xlink:href="#textext-c607b746-1"
             width="318.89764"
             height="212.59842" />
        </g>
        <g
           id="g9041"
           style="fill:#000000;fill-opacity:1">
          <use
             id="use9043"
             y="136.25909"
             x="229.41209"
             xlink:href="#textext-c607b746-3"
             width="318.89764"
             height="212.59842" />
        </g>
      </g>
    </g>
    <g
       ns0:text="$n_1$"
       ns0:preamble="/home/manju/Documents/ubm/preamble.tex"
       transform="matrix(1.2,0,0,1.2,-190.00392,820.73761)"
       id="g9219">
      <defs
         id="defs9221">
        <g
           id="g9223">
          <symbol
             style="overflow:visible"
             overflow="visible"
             id="textext-c50ca17d-0">
            <path
               style="stroke:none"
               d=""
               id="path9226" />
          </symbol>
          <symbol
             style="overflow:visible"
             overflow="visible"
             id="textext-c50ca17d-1">
            <path
               style="stroke:none"
               d="m 0.875,-0.59375 c -0.03125,0.15625 -0.09375,0.390625 -0.09375,0.4375 0,0.171875 0.140625,0.265625 0.296875,0.265625 0.125,0 0.296875,-0.078125 0.375,-0.28125 0,-0.015625 0.125,-0.484375 0.1875,-0.734375 C 1.703125,-1.203125 1.78125,-1.5 1.859375,-1.796875 1.90625,-2.03125 1.96875,-2.25 2.03125,-2.46875 c 0.03125,-0.171875 0.109375,-0.46875 0.125,-0.5 0.140625,-0.3125 0.671875,-1.21875 1.625,-1.21875 0.453125,0 0.53125,0.375 0.53125,0.703125 0,0.609375 -0.484375,1.890625 -0.640625,2.3125 C 3.578125,-0.9375 3.5625,-0.8125 3.5625,-0.703125 c 0,0.46875 0.359375,0.8125 0.828125,0.8125 0.9375,0 1.296875,-1.453125 1.296875,-1.53125 0,-0.109375 -0.078125,-0.109375 -0.109375,-0.109375 -0.109375,0 -0.109375,0.03125 -0.15625,0.1875 -0.203125,0.671875 -0.53125,1.234375 -1.015625,1.234375 -0.171875,0 -0.234375,-0.09375 -0.234375,-0.328125 0,-0.25 0.078125,-0.484375 0.171875,-0.703125 0.1875,-0.53125 0.609375,-1.625 0.609375,-2.203125 0,-0.65625 -0.421875,-1.0625 -1.140625,-1.0625 -0.90625,0 -1.390625,0.640625 -1.5625,0.875 -0.046875,-0.5625 -0.453125,-0.875 -0.921875,-0.875 -0.453125,0 -0.640625,0.390625 -0.734375,0.5625 C 0.421875,-3.5 0.296875,-2.90625 0.296875,-2.875 c 0,0.109375 0.09375,0.109375 0.109375,0.109375 0.109375,0 0.109375,-0.015625 0.171875,-0.234375 0.171875,-0.703125 0.375,-1.1875 0.734375,-1.1875 0.1875,0 0.296875,0.125 0.296875,0.453125 0,0.21875 -0.03125,0.328125 -0.15625,0.84375 L 0.875,-0.59375 z m 0,0"
               id="path9229" />
          </symbol>
          <symbol
             style="overflow:visible"
             overflow="visible"
             id="textext-c50ca17d-2">
            <path
               style="stroke:none"
               d=""
               id="path9232" />
          </symbol>
          <symbol
             style="overflow:visible"
             overflow="visible"
             id="textext-c50ca17d-3">
            <path
               style="stroke:none"
               d="m 2.328125,-4.4375 c 0,-0.1875 0,-0.1875 -0.203125,-0.1875 -0.453125,0.4375 -1.078125,0.4375 -1.359375,0.4375 l 0,0.25 c 0.15625,0 0.625,0 1,-0.1875 l 0,3.546875 c 0,0.234375 0,0.328125 -0.6875,0.328125 l -0.265625,0 0,0.25 c 0.125,0 0.984375,-0.03125 1.234375,-0.03125 0.21875,0 1.09375,0.03125 1.25,0.03125 l 0,-0.25 -0.265625,0 c -0.703125,0 -0.703125,-0.09375 -0.703125,-0.328125 l 0,-3.859375 z m 0,0"
               id="path9235" />
          </symbol>
        </g>
      </defs>
      <g
         id="textext-c50ca17d-4">
        <g
           style="fill:#000000;fill-opacity:1"
           id="g9238">
          <use
             height="212.59842"
             width="318.89764"
             xlink:href="#textext-c50ca17d-1"
             x="223.4321"
             y="134.76469"
             id="use9240" />
        </g>
        <g
           style="fill:#000000;fill-opacity:1"
           id="g9242">
          <use
             height="212.59842"
             width="318.89764"
             xlink:href="#textext-c50ca17d-3"
             x="229.41209"
             y="136.25909"
             id="use9244" />
        </g>
      </g>
    </g>
    <text
       id="text9315"
       y="984.60626"
       x="31.938223"
       style="font-size:12px;font-style:normal;font-weight:normal;text-align:start;writing-mode:lr-tb;text-anchor:start;fill:#000000;fill-opacity:1;stroke:none;font-family:LMRoman10;-inkscape-font-specification:LMRoman10"
       xml:space="preserve"><tspan
         y="984.60626"
         x="31.938223"
         id="tspan9317"
         sodipodi:role="line">0</tspan></text>
    <g
       id="g9432"
       transform="matrix(1.2,0,0,1.2,-80.09731,712.85636)"
       ns0:preamble="/home/manju/Documents/ubm/preamble.tex"
       ns0:text="orb$(R_\\circ n_2)$">
      <defs
         id="defs9434">
        <g
           id="g9436">
          <symbol
             id="textext-87cabea2-0"
             overflow="visible"
             style="overflow:visible">
            <path
               id="path9439"
               d=""
               style="stroke:none" />
          </symbol>
          <symbol
             id="textext-87cabea2-1"
             overflow="visible"
             style="overflow:visible">
            <path
               id="path9442"
               d="M 4.6875,-2.140625 C 4.6875,-3.40625 3.703125,-4.46875 2.5,-4.46875 c -1.25,0 -2.21875,1.09375 -2.21875,2.328125 0,1.296875 1.03125,2.25 2.203125,2.25 1.203125,0 2.203125,-0.984375 2.203125,-2.25 z m -2.1875,2 c -0.4375,0 -0.875,-0.203125 -1.140625,-0.671875 -0.25,-0.4375 -0.25,-1.046875 -0.25,-1.40625 0,-0.390625 0,-0.921875 0.234375,-1.359375 C 1.609375,-4.03125 2.078125,-4.25 2.484375,-4.25 c 0.4375,0 0.859375,0.21875 1.125,0.65625 0.265625,0.421875 0.265625,1 0.265625,1.375 0,0.359375 0,0.90625 -0.21875,1.34375 C 3.421875,-0.421875 2.984375,-0.140625 2.5,-0.140625 z m 0,0"
               style="stroke:none" />
          </symbol>
          <symbol
             id="textext-87cabea2-2"
             overflow="visible"
             style="overflow:visible">
            <path
               id="path9445"
               d="m 1.71875,-0.78125 0,-1.53125 c 0,-0.984375 0.421875,-1.875 1.171875,-1.875 0.0625,0 0.09375,0 0.109375,0.015625 -0.03125,0 -0.234375,0.125 -0.234375,0.390625 0,0.265625 0.21875,0.421875 0.4375,0.421875 0.171875,0 0.421875,-0.125 0.421875,-0.4375 0,-0.3125 -0.3125,-0.609375 -0.734375,-0.609375 -0.734375,0 -1.09375,0.671875 -1.21875,1.09375 l 0,-1.09375 -1.390625,0.109375 0,0.3125 c 0.703125,0 0.78125,0.0625 0.78125,0.5625 l 0,2.671875 c 0,0.4375 -0.109375,0.4375 -0.78125,0.4375 l 0,0.3125 c 0.390625,-0.015625 0.859375,-0.03125 1.140625,-0.03125 0.390625,0 0.859375,0 1.265625,0.03125 l 0,-0.3125 -0.21875,0 c -0.734375,0 -0.75,-0.109375 -0.75,-0.46875 z m 0,0"
               style="stroke:none" />
          </symbol>
          <symbol
             id="textext-87cabea2-3"
             overflow="visible"
             style="overflow:visible">
            <path
               id="path9448"
               d="m 1.71875,-3.765625 0,-3.15625 -1.4375,0.109375 0,0.3125 c 0.703125,0 0.78125,0.0625 0.78125,0.5625 l 0,5.9375 0.25,0 c 0,-0.015625 0.078125,-0.15625 0.359375,-0.625 0.140625,0.234375 0.5625,0.734375 1.296875,0.734375 1.1875,0 2.21875,-0.984375 2.21875,-2.265625 0,-1.265625 -0.96875,-2.25 -2.109375,-2.25 -0.78125,0 -1.203125,0.46875 -1.359375,0.640625 z m 0.03125,2.625 0,-2.046875 c 0,-0.1875 0,-0.203125 0.109375,-0.359375 C 2.25,-4.109375 2.796875,-4.1875 3.03125,-4.1875 c 0.453125,0 0.8125,0.265625 1.046875,0.640625 0.265625,0.40625 0.28125,0.96875 0.28125,1.390625 0,0.359375 -0.015625,0.953125 -0.296875,1.40625 -0.21875,0.3125 -0.59375,0.640625 -1.125,0.640625 -0.453125,0 -0.8125,-0.234375 -1.046875,-0.609375 C 1.75,-0.921875 1.75,-0.953125 1.75,-1.140625 z m 0,0"
               style="stroke:none" />
          </symbol>
          <symbol
             id="textext-87cabea2-4"
             overflow="visible"
             style="overflow:visible">
            <path
               id="path9451"
               d="m 3.296875,2.390625 c 0,-0.03125 0,-0.046875 -0.171875,-0.21875 C 1.890625,0.921875 1.5625,-0.96875 1.5625,-2.5 c 0,-1.734375 0.375,-3.46875 1.609375,-4.703125 0.125,-0.125 0.125,-0.140625 0.125,-0.171875 0,-0.078125 -0.03125,-0.109375 -0.09375,-0.109375 -0.109375,0 -1,0.6875 -1.59375,1.953125 -0.5,1.09375 -0.625,2.203125 -0.625,3.03125 0,0.78125 0.109375,1.984375 0.65625,3.125 C 2.25,1.84375 3.09375,2.5 3.203125,2.5 c 0.0625,0 0.09375,-0.03125 0.09375,-0.109375 z m 0,0"
               style="stroke:none" />
          </symbol>
          <symbol
             id="textext-87cabea2-5"
             overflow="visible"
             style="overflow:visible">
            <path
               id="path9454"
               d="m 2.875,-2.5 c 0,-0.765625 -0.109375,-1.96875 -0.65625,-3.109375 -0.59375,-1.21875 -1.453125,-1.875 -1.546875,-1.875 -0.0625,0 -0.109375,0.046875 -0.109375,0.109375 0,0.03125 0,0.046875 0.1875,0.234375 0.984375,0.984375 1.546875,2.5625 1.546875,4.640625 0,1.71875 -0.359375,3.46875 -1.59375,4.71875 C 0.5625,2.34375 0.5625,2.359375 0.5625,2.390625 0.5625,2.453125 0.609375,2.5 0.671875,2.5 0.765625,2.5 1.671875,1.8125 2.25,0.546875 2.765625,-0.546875 2.875,-1.65625 2.875,-2.5 z m 0,0"
               style="stroke:none" />
          </symbol>
          <symbol
             id="textext-87cabea2-6"
             overflow="visible"
             style="overflow:visible">
            <path
               id="path9457"
               d=""
               style="stroke:none" />
          </symbol>
          <symbol
             id="textext-87cabea2-7"
             overflow="visible"
             style="overflow:visible">
            <path
               id="path9460"
               d="m 3.734375,-6.125 c 0.0625,-0.234375 0.09375,-0.328125 0.28125,-0.359375 C 4.109375,-6.5 4.421875,-6.5 4.625,-6.5 c 0.703125,0 1.8125,0 1.8125,0.984375 0,0.34375 -0.15625,1.03125 -0.546875,1.421875 -0.265625,0.25 -0.78125,0.578125 -1.6875,0.578125 l -1.109375,0 L 3.734375,-6.125 z m 1.4375,2.734375 c 1.015625,-0.21875 2.1875,-0.921875 2.1875,-1.921875 0,-0.859375 -0.890625,-1.5 -2.203125,-1.5 l -2.828125,0 c -0.203125,0 -0.296875,0 -0.296875,0.203125 C 2.03125,-6.5 2.125,-6.5 2.3125,-6.5 c 0.015625,0 0.203125,0 0.375,0.015625 0.1875,0.03125 0.265625,0.03125 0.265625,0.171875 0,0.03125 0,0.0625 -0.03125,0.1875 l -1.34375,5.34375 C 1.484375,-0.390625 1.46875,-0.3125 0.671875,-0.3125 0.5,-0.3125 0.40625,-0.3125 0.40625,-0.109375 0.40625,0 0.53125,0 0.546875,0 c 0.28125,0 0.984375,-0.03125 1.25,-0.03125 0.28125,0 1,0.03125 1.28125,0.03125 0.078125,0 0.1875,0 0.1875,-0.203125 0,-0.109375 -0.078125,-0.109375 -0.28125,-0.109375 -0.359375,0 -0.640625,0 -0.640625,-0.171875 0,-0.0625 0.015625,-0.109375 0.03125,-0.171875 l 0.65625,-2.640625 1.1875,0 c 0.90625,0 1.078125,0.5625 1.078125,0.90625 0,0.140625 -0.078125,0.453125 -0.140625,0.6875 C 5.09375,-1.421875 5,-1.0625 5,-0.859375 5,0.21875 6.203125,0.21875 6.328125,0.21875 c 0.84375,0 1.203125,-1 1.203125,-1.140625 0,-0.125 -0.109375,-0.125 -0.125,-0.125 -0.09375,0 -0.109375,0.0625 -0.125,0.140625 C 7.03125,-0.171875 6.59375,0 6.375,0 6.046875,0 5.96875,-0.21875 5.96875,-0.609375 c 0,-0.3125 0.0625,-0.8125 0.109375,-1.140625 0.015625,-0.140625 0.03125,-0.328125 0.03125,-0.46875 0,-0.765625 -0.671875,-1.078125 -0.9375,-1.171875 z m 0,0"
               style="stroke:none" />
          </symbol>
          <symbol
             id="textext-87cabea2-8"
             overflow="visible"
             style="overflow:visible">
            <path
               id="path9463"
               d="m 0.875,-0.59375 c -0.03125,0.15625 -0.09375,0.390625 -0.09375,0.4375 0,0.171875 0.140625,0.265625 0.296875,0.265625 0.125,0 0.296875,-0.078125 0.375,-0.28125 0,-0.015625 0.125,-0.484375 0.1875,-0.734375 C 1.703125,-1.203125 1.78125,-1.5 1.859375,-1.796875 1.90625,-2.03125 1.96875,-2.25 2.03125,-2.46875 c 0.03125,-0.171875 0.109375,-0.46875 0.125,-0.5 0.140625,-0.3125 0.671875,-1.21875 1.625,-1.21875 0.453125,0 0.53125,0.375 0.53125,0.703125 0,0.609375 -0.484375,1.890625 -0.640625,2.3125 C 3.578125,-0.9375 3.5625,-0.8125 3.5625,-0.703125 c 0,0.46875 0.359375,0.8125 0.828125,0.8125 0.9375,0 1.296875,-1.453125 1.296875,-1.53125 0,-0.109375 -0.078125,-0.109375 -0.109375,-0.109375 -0.109375,0 -0.109375,0.03125 -0.15625,0.1875 -0.203125,0.671875 -0.53125,1.234375 -1.015625,1.234375 -0.171875,0 -0.234375,-0.09375 -0.234375,-0.328125 0,-0.25 0.078125,-0.484375 0.171875,-0.703125 0.1875,-0.53125 0.609375,-1.625 0.609375,-2.203125 0,-0.65625 -0.421875,-1.0625 -1.140625,-1.0625 -0.90625,0 -1.390625,0.640625 -1.5625,0.875 -0.046875,-0.5625 -0.453125,-0.875 -0.921875,-0.875 -0.453125,0 -0.640625,0.390625 -0.734375,0.5625 C 0.421875,-3.5 0.296875,-2.90625 0.296875,-2.875 c 0,0.109375 0.09375,0.109375 0.109375,0.109375 0.109375,0 0.109375,-0.015625 0.171875,-0.234375 0.171875,-0.703125 0.375,-1.1875 0.734375,-1.1875 0.1875,0 0.296875,0.125 0.296875,0.453125 0,0.21875 -0.03125,0.328125 -0.15625,0.84375 L 0.875,-0.59375 z m 0,0"
               style="stroke:none" />
          </symbol>
          <symbol
             id="textext-87cabea2-9"
             overflow="visible"
             style="overflow:visible">
            <path
               id="path9466"
               d=""
               style="stroke:none" />
          </symbol>
          <symbol
             id="textext-87cabea2-10"
             overflow="visible"
             style="overflow:visible">
            <path
               id="path9469"
               d="m 3.53125,-1.734375 c 0,-0.859375 -0.6875,-1.5 -1.5,-1.5 -0.828125,0 -1.484375,0.671875 -1.484375,1.484375 0,0.84375 0.671875,1.5 1.484375,1.5 0.828125,0 1.5,-0.671875 1.5,-1.484375 z m -1.5,1.140625 c -0.640625,0 -1.140625,-0.53125 -1.140625,-1.140625 0,-0.65625 0.515625,-1.171875 1.140625,-1.171875 0.65625,0 1.15625,0.53125 1.15625,1.15625 0,0.640625 -0.515625,1.15625 -1.15625,1.15625 z m 0,0"
               style="stroke:none" />
          </symbol>
          <symbol
             id="textext-87cabea2-11"
             overflow="visible"
             style="overflow:visible">
            <path
               id="path9472"
               d=""
               style="stroke:none" />
          </symbol>
          <symbol
             id="textext-87cabea2-12"
             overflow="visible"
             style="overflow:visible">
            <path
               id="path9475"
               d="m 3.515625,-1.265625 -0.234375,0 c -0.015625,0.15625 -0.09375,0.5625 -0.1875,0.625 -0.046875,0.046875 -0.578125,0.046875 -0.6875,0.046875 l -1.28125,0 c 0.734375,-0.640625 0.984375,-0.84375 1.390625,-1.171875 0.515625,-0.40625 1,-0.84375 1,-1.5 0,-0.84375 -0.734375,-1.359375 -1.625,-1.359375 -0.859375,0 -1.453125,0.609375 -1.453125,1.25 0,0.34375 0.296875,0.390625 0.375,0.390625 0.15625,0 0.359375,-0.125 0.359375,-0.375 0,-0.125 -0.046875,-0.375 -0.40625,-0.375 C 0.984375,-4.21875 1.453125,-4.375 1.78125,-4.375 c 0.703125,0 1.0625,0.546875 1.0625,1.109375 0,0.609375 -0.4375,1.078125 -0.65625,1.328125 L 0.515625,-0.265625 C 0.4375,-0.203125 0.4375,-0.1875 0.4375,0 l 2.875,0 0.203125,-1.265625 z m 0,0"
               style="stroke:none" />
          </symbol>
        </g>
      </defs>
      <g
         id="textext-87cabea2-13">
        <g
           id="g9478"
           style="fill:#000000;fill-opacity:1">
          <use
             id="use9480"
             y="134.76469"
             x="223.4321"
             xlink:href="#textext-87cabea2-1"
             width="318.89764"
             height="212.59842" />
          <use
             id="use9482"
             y="134.76469"
             x="228.41341"
             xlink:href="#textext-87cabea2-2"
             width="318.89764"
             height="212.59842" />
          <use
             id="use9484"
             y="134.76469"
             x="232.31874"
             xlink:href="#textext-87cabea2-3"
             width="318.89764"
             height="212.59842" />
        </g>
        <g
           id="g9486"
           style="fill:#000000;fill-opacity:1">
          <use
             id="use9488"
             y="134.76469"
             x="237.84798"
             xlink:href="#textext-87cabea2-4"
             width="318.89764"
             height="212.59842" />
        </g>
        <g
           id="g9490"
           style="fill:#000000;fill-opacity:1">
          <use
             id="use9492"
             y="134.76469"
             x="241.7247"
             xlink:href="#textext-87cabea2-7"
             width="318.89764"
             height="212.59842" />
        </g>
        <g
           id="g9494"
           style="fill:#000000;fill-opacity:1">
          <use
             id="use9496"
             y="136.25909"
             x="249.2892"
             xlink:href="#textext-87cabea2-10"
             width="318.89764"
             height="212.59842" />
        </g>
        <g
           id="g9498"
           style="fill:#000000;fill-opacity:1">
          <use
             id="use9500"
             y="134.76469"
             x="253.86929"
             xlink:href="#textext-87cabea2-8"
             width="318.89764"
             height="212.59842" />
        </g>
        <g
           id="g9502"
           style="fill:#000000;fill-opacity:1">
          <use
             id="use9504"
             y="136.25909"
             x="259.84921"
             xlink:href="#textext-87cabea2-12"
             width="318.89764"
             height="212.59842" />
        </g>
        <g
           id="g9506"
           style="fill:#000000;fill-opacity:1">
          <use
             id="use9508"
             y="134.76469"
             x="264.3186"
             xlink:href="#textext-87cabea2-5"
             width="318.89764"
             height="212.59842" />
        </g>
      </g>
    </g>
    <g
       ns0:text="orb$(R_\\circ n_1)$"
       ns0:preamble="/home/manju/Documents/ubm/preamble.tex"
       transform="matrix(1.2,0,0,1.2,-5.8535217,764.84815)"
       id="g9906">
      <defs
         id="defs9908">
        <g
           id="g9910">
          <symbol
             overflow="visible"
             id="textext-0e354457-0">
            <path
               style="stroke:none;"
               d=""
               id="path9913" />
          </symbol>
          <symbol
             overflow="visible"
             id="textext-0e354457-1">
            <path
               style="stroke:none;"
               d="M 4.6875 -2.140625 C 4.6875 -3.40625 3.703125 -4.46875 2.5 -4.46875 C 1.25 -4.46875 0.28125 -3.375 0.28125 -2.140625 C 0.28125 -0.84375 1.3125 0.109375 2.484375 0.109375 C 3.6875 0.109375 4.6875 -0.875 4.6875 -2.140625 Z M 2.5 -0.140625 C 2.0625 -0.140625 1.625 -0.34375 1.359375 -0.8125 C 1.109375 -1.25 1.109375 -1.859375 1.109375 -2.21875 C 1.109375 -2.609375 1.109375 -3.140625 1.34375 -3.578125 C 1.609375 -4.03125 2.078125 -4.25 2.484375 -4.25 C 2.921875 -4.25 3.34375 -4.03125 3.609375 -3.59375 C 3.875 -3.171875 3.875 -2.59375 3.875 -2.21875 C 3.875 -1.859375 3.875 -1.3125 3.65625 -0.875 C 3.421875 -0.421875 2.984375 -0.140625 2.5 -0.140625 Z M 2.5 -0.140625 "
               id="path9916" />
          </symbol>
          <symbol
             overflow="visible"
             id="textext-0e354457-2">
            <path
               style="stroke:none;"
               d="M 1.71875 -0.78125 L 1.71875 -2.3125 C 1.71875 -3.296875 2.140625 -4.1875 2.890625 -4.1875 C 2.953125 -4.1875 2.984375 -4.1875 3 -4.171875 C 2.96875 -4.171875 2.765625 -4.046875 2.765625 -3.78125 C 2.765625 -3.515625 2.984375 -3.359375 3.203125 -3.359375 C 3.375 -3.359375 3.625 -3.484375 3.625 -3.796875 C 3.625 -4.109375 3.3125 -4.40625 2.890625 -4.40625 C 2.15625 -4.40625 1.796875 -3.734375 1.671875 -3.3125 L 1.671875 -4.40625 L 0.28125 -4.296875 L 0.28125 -3.984375 C 0.984375 -3.984375 1.0625 -3.921875 1.0625 -3.421875 L 1.0625 -0.75 C 1.0625 -0.3125 0.953125 -0.3125 0.28125 -0.3125 L 0.28125 0 C 0.671875 -0.015625 1.140625 -0.03125 1.421875 -0.03125 C 1.8125 -0.03125 2.28125 -0.03125 2.6875 0 L 2.6875 -0.3125 L 2.46875 -0.3125 C 1.734375 -0.3125 1.71875 -0.421875 1.71875 -0.78125 Z M 1.71875 -0.78125 "
               id="path9919" />
          </symbol>
          <symbol
             overflow="visible"
             id="textext-0e354457-3">
            <path
               style="stroke:none;"
               d="M 1.71875 -3.765625 L 1.71875 -6.921875 L 0.28125 -6.8125 L 0.28125 -6.5 C 0.984375 -6.5 1.0625 -6.4375 1.0625 -5.9375 L 1.0625 0 L 1.3125 0 C 1.3125 -0.015625 1.390625 -0.15625 1.671875 -0.625 C 1.8125 -0.390625 2.234375 0.109375 2.96875 0.109375 C 4.15625 0.109375 5.1875 -0.875 5.1875 -2.15625 C 5.1875 -3.421875 4.21875 -4.40625 3.078125 -4.40625 C 2.296875 -4.40625 1.875 -3.9375 1.71875 -3.765625 Z M 1.75 -1.140625 L 1.75 -3.1875 C 1.75 -3.375 1.75 -3.390625 1.859375 -3.546875 C 2.25 -4.109375 2.796875 -4.1875 3.03125 -4.1875 C 3.484375 -4.1875 3.84375 -3.921875 4.078125 -3.546875 C 4.34375 -3.140625 4.359375 -2.578125 4.359375 -2.15625 C 4.359375 -1.796875 4.34375 -1.203125 4.0625 -0.75 C 3.84375 -0.4375 3.46875 -0.109375 2.9375 -0.109375 C 2.484375 -0.109375 2.125 -0.34375 1.890625 -0.71875 C 1.75 -0.921875 1.75 -0.953125 1.75 -1.140625 Z M 1.75 -1.140625 "
               id="path9922" />
          </symbol>
          <symbol
             overflow="visible"
             id="textext-0e354457-4">
            <path
               style="stroke:none;"
               d="M 3.296875 2.390625 C 3.296875 2.359375 3.296875 2.34375 3.125 2.171875 C 1.890625 0.921875 1.5625 -0.96875 1.5625 -2.5 C 1.5625 -4.234375 1.9375 -5.96875 3.171875 -7.203125 C 3.296875 -7.328125 3.296875 -7.34375 3.296875 -7.375 C 3.296875 -7.453125 3.265625 -7.484375 3.203125 -7.484375 C 3.09375 -7.484375 2.203125 -6.796875 1.609375 -5.53125 C 1.109375 -4.4375 0.984375 -3.328125 0.984375 -2.5 C 0.984375 -1.71875 1.09375 -0.515625 1.640625 0.625 C 2.25 1.84375 3.09375 2.5 3.203125 2.5 C 3.265625 2.5 3.296875 2.46875 3.296875 2.390625 Z M 3.296875 2.390625 "
               id="path9925" />
          </symbol>
          <symbol
             overflow="visible"
             id="textext-0e354457-5">
            <path
               style="stroke:none;"
               d="M 2.875 -2.5 C 2.875 -3.265625 2.765625 -4.46875 2.21875 -5.609375 C 1.625 -6.828125 0.765625 -7.484375 0.671875 -7.484375 C 0.609375 -7.484375 0.5625 -7.4375 0.5625 -7.375 C 0.5625 -7.34375 0.5625 -7.328125 0.75 -7.140625 C 1.734375 -6.15625 2.296875 -4.578125 2.296875 -2.5 C 2.296875 -0.78125 1.9375 0.96875 0.703125 2.21875 C 0.5625 2.34375 0.5625 2.359375 0.5625 2.390625 C 0.5625 2.453125 0.609375 2.5 0.671875 2.5 C 0.765625 2.5 1.671875 1.8125 2.25 0.546875 C 2.765625 -0.546875 2.875 -1.65625 2.875 -2.5 Z M 2.875 -2.5 "
               id="path9928" />
          </symbol>
          <symbol
             overflow="visible"
             id="textext-0e354457-6">
            <path
               style="stroke:none;"
               d=""
               id="path9931" />
          </symbol>
          <symbol
             overflow="visible"
             id="textext-0e354457-7">
            <path
               style="stroke:none;"
               d="M 3.734375 -6.125 C 3.796875 -6.359375 3.828125 -6.453125 4.015625 -6.484375 C 4.109375 -6.5 4.421875 -6.5 4.625 -6.5 C 5.328125 -6.5 6.4375 -6.5 6.4375 -5.515625 C 6.4375 -5.171875 6.28125 -4.484375 5.890625 -4.09375 C 5.625 -3.84375 5.109375 -3.515625 4.203125 -3.515625 L 3.09375 -3.515625 L 3.734375 -6.125 Z M 5.171875 -3.390625 C 6.1875 -3.609375 7.359375 -4.3125 7.359375 -5.3125 C 7.359375 -6.171875 6.46875 -6.8125 5.15625 -6.8125 L 2.328125 -6.8125 C 2.125 -6.8125 2.03125 -6.8125 2.03125 -6.609375 C 2.03125 -6.5 2.125 -6.5 2.3125 -6.5 C 2.328125 -6.5 2.515625 -6.5 2.6875 -6.484375 C 2.875 -6.453125 2.953125 -6.453125 2.953125 -6.3125 C 2.953125 -6.28125 2.953125 -6.25 2.921875 -6.125 L 1.578125 -0.78125 C 1.484375 -0.390625 1.46875 -0.3125 0.671875 -0.3125 C 0.5 -0.3125 0.40625 -0.3125 0.40625 -0.109375 C 0.40625 0 0.53125 0 0.546875 0 C 0.828125 0 1.53125 -0.03125 1.796875 -0.03125 C 2.078125 -0.03125 2.796875 0 3.078125 0 C 3.15625 0 3.265625 0 3.265625 -0.203125 C 3.265625 -0.3125 3.1875 -0.3125 2.984375 -0.3125 C 2.625 -0.3125 2.34375 -0.3125 2.34375 -0.484375 C 2.34375 -0.546875 2.359375 -0.59375 2.375 -0.65625 L 3.03125 -3.296875 L 4.21875 -3.296875 C 5.125 -3.296875 5.296875 -2.734375 5.296875 -2.390625 C 5.296875 -2.25 5.21875 -1.9375 5.15625 -1.703125 C 5.09375 -1.421875 5 -1.0625 5 -0.859375 C 5 0.21875 6.203125 0.21875 6.328125 0.21875 C 7.171875 0.21875 7.53125 -0.78125 7.53125 -0.921875 C 7.53125 -1.046875 7.421875 -1.046875 7.40625 -1.046875 C 7.3125 -1.046875 7.296875 -0.984375 7.28125 -0.90625 C 7.03125 -0.171875 6.59375 0 6.375 0 C 6.046875 0 5.96875 -0.21875 5.96875 -0.609375 C 5.96875 -0.921875 6.03125 -1.421875 6.078125 -1.75 C 6.09375 -1.890625 6.109375 -2.078125 6.109375 -2.21875 C 6.109375 -2.984375 5.4375 -3.296875 5.171875 -3.390625 Z M 5.171875 -3.390625 "
               id="path9934" />
          </symbol>
          <symbol
             overflow="visible"
             id="textext-0e354457-8">
            <path
               style="stroke:none;"
               d="M 0.875 -0.59375 C 0.84375 -0.4375 0.78125 -0.203125 0.78125 -0.15625 C 0.78125 0.015625 0.921875 0.109375 1.078125 0.109375 C 1.203125 0.109375 1.375 0.03125 1.453125 -0.171875 C 1.453125 -0.1875 1.578125 -0.65625 1.640625 -0.90625 C 1.703125 -1.203125 1.78125 -1.5 1.859375 -1.796875 C 1.90625 -2.03125 1.96875 -2.25 2.03125 -2.46875 C 2.0625 -2.640625 2.140625 -2.9375 2.15625 -2.96875 C 2.296875 -3.28125 2.828125 -4.1875 3.78125 -4.1875 C 4.234375 -4.1875 4.3125 -3.8125 4.3125 -3.484375 C 4.3125 -2.875 3.828125 -1.59375 3.671875 -1.171875 C 3.578125 -0.9375 3.5625 -0.8125 3.5625 -0.703125 C 3.5625 -0.234375 3.921875 0.109375 4.390625 0.109375 C 5.328125 0.109375 5.6875 -1.34375 5.6875 -1.421875 C 5.6875 -1.53125 5.609375 -1.53125 5.578125 -1.53125 C 5.46875 -1.53125 5.46875 -1.5 5.421875 -1.34375 C 5.21875 -0.671875 4.890625 -0.109375 4.40625 -0.109375 C 4.234375 -0.109375 4.171875 -0.203125 4.171875 -0.4375 C 4.171875 -0.6875 4.25 -0.921875 4.34375 -1.140625 C 4.53125 -1.671875 4.953125 -2.765625 4.953125 -3.34375 C 4.953125 -4 4.53125 -4.40625 3.8125 -4.40625 C 2.90625 -4.40625 2.421875 -3.765625 2.25 -3.53125 C 2.203125 -4.09375 1.796875 -4.40625 1.328125 -4.40625 C 0.875 -4.40625 0.6875 -4.015625 0.59375 -3.84375 C 0.421875 -3.5 0.296875 -2.90625 0.296875 -2.875 C 0.296875 -2.765625 0.390625 -2.765625 0.40625 -2.765625 C 0.515625 -2.765625 0.515625 -2.78125 0.578125 -3 C 0.75 -3.703125 0.953125 -4.1875 1.3125 -4.1875 C 1.5 -4.1875 1.609375 -4.0625 1.609375 -3.734375 C 1.609375 -3.515625 1.578125 -3.40625 1.453125 -2.890625 L 0.875 -0.59375 Z M 0.875 -0.59375 "
               id="path9937" />
          </symbol>
          <symbol
             overflow="visible"
             id="textext-0e354457-9">
            <path
               style="stroke:none;"
               d=""
               id="path9940" />
          </symbol>
          <symbol
             overflow="visible"
             id="textext-0e354457-10">
            <path
               style="stroke:none;"
               d="M 3.53125 -1.734375 C 3.53125 -2.59375 2.84375 -3.234375 2.03125 -3.234375 C 1.203125 -3.234375 0.546875 -2.5625 0.546875 -1.75 C 0.546875 -0.90625 1.21875 -0.25 2.03125 -0.25 C 2.859375 -0.25 3.53125 -0.921875 3.53125 -1.734375 Z M 2.03125 -0.59375 C 1.390625 -0.59375 0.890625 -1.125 0.890625 -1.734375 C 0.890625 -2.390625 1.40625 -2.90625 2.03125 -2.90625 C 2.6875 -2.90625 3.1875 -2.375 3.1875 -1.75 C 3.1875 -1.109375 2.671875 -0.59375 2.03125 -0.59375 Z M 2.03125 -0.59375 "
               id="path9943" />
          </symbol>
          <symbol
             overflow="visible"
             id="textext-0e354457-11">
            <path
               style="stroke:none;"
               d=""
               id="path9946" />
          </symbol>
          <symbol
             overflow="visible"
             id="textext-0e354457-12">
            <path
               style="stroke:none;"
               d="M 2.328125 -4.4375 C 2.328125 -4.625 2.328125 -4.625 2.125 -4.625 C 1.671875 -4.1875 1.046875 -4.1875 0.765625 -4.1875 L 0.765625 -3.9375 C 0.921875 -3.9375 1.390625 -3.9375 1.765625 -4.125 L 1.765625 -0.578125 C 1.765625 -0.34375 1.765625 -0.25 1.078125 -0.25 L 0.8125 -0.25 L 0.8125 0 C 0.9375 0 1.796875 -0.03125 2.046875 -0.03125 C 2.265625 -0.03125 3.140625 0 3.296875 0 L 3.296875 -0.25 L 3.03125 -0.25 C 2.328125 -0.25 2.328125 -0.34375 2.328125 -0.578125 L 2.328125 -4.4375 Z M 2.328125 -4.4375 "
               id="path9949" />
          </symbol>
        </g>
      </defs>
      <g
         id="textext-0e354457-13">
        <g
           style="fill:rgb(0%,0%,0%);fill-opacity:1;"
           id="g9952">
          <use
             xlink:href="#textext-0e354457-1"
             x="223.4321"
             y="134.7647"
             id="use9954" />
          <use
             xlink:href="#textext-0e354457-2"
             x="228.4134"
             y="134.7647"
             id="use9956" />
          <use
             xlink:href="#textext-0e354457-3"
             x="232.318739"
             y="134.7647"
             id="use9958" />
        </g>
        <g
           style="fill:rgb(0%,0%,0%);fill-opacity:1;"
           id="g9960">
          <use
             xlink:href="#textext-0e354457-4"
             x="237.847982"
             y="134.7647"
             id="use9962" />
        </g>
        <g
           style="fill:rgb(0%,0%,0%);fill-opacity:1;"
           id="g9964">
          <use
             xlink:href="#textext-0e354457-7"
             x="241.7247"
             y="134.7647"
             id="use9966" />
        </g>
        <g
           style="fill:rgb(0%,0%,0%);fill-opacity:1;"
           id="g9968">
          <use
             xlink:href="#textext-0e354457-10"
             x="249.2892"
             y="136.2591"
             id="use9970" />
        </g>
        <g
           style="fill:rgb(0%,0%,0%);fill-opacity:1;"
           id="g9972">
          <use
             xlink:href="#textext-0e354457-8"
             x="253.8693"
             y="134.7647"
             id="use9974" />
        </g>
        <g
           style="fill:rgb(0%,0%,0%);fill-opacity:1;"
           id="g9976">
          <use
             xlink:href="#textext-0e354457-12"
             x="259.8492"
             y="136.2591"
             id="use9978" />
        </g>
        <g
           style="fill:rgb(0%,0%,0%);fill-opacity:1;"
           id="g9980">
          <use
             xlink:href="#textext-0e354457-5"
             x="264.3186"
             y="134.7647"
             id="use9982" />
        </g>
      </g>
    </g>
    <g
       id="g10416"
       transform="matrix(1.2,0,0,1.2,-70.006998,766.28442)"
       ns0:preamble="/home/manju/Documents/ubm/preamble.tex"
       ns0:text="orb$(\\{ 0 \\})$">
      <defs
         id="defs10418">
        <g
           id="g10420">
          <symbol
             id="textext-96b47f49-0"
             overflow="visible"
             style="overflow:visible">
            <path
               id="path10423"
               d=""
               style="stroke:none" />
          </symbol>
          <symbol
             id="textext-96b47f49-1"
             overflow="visible"
             style="overflow:visible">
            <path
               id="path10426"
               d="M 4.6875,-2.140625 C 4.6875,-3.40625 3.703125,-4.46875 2.5,-4.46875 c -1.25,0 -2.21875,1.09375 -2.21875,2.328125 0,1.296875 1.03125,2.25 2.203125,2.25 1.203125,0 2.203125,-0.984375 2.203125,-2.25 z m -2.1875,2 c -0.4375,0 -0.875,-0.203125 -1.140625,-0.671875 -0.25,-0.4375 -0.25,-1.046875 -0.25,-1.40625 0,-0.390625 0,-0.921875 0.234375,-1.359375 C 1.609375,-4.03125 2.078125,-4.25 2.484375,-4.25 c 0.4375,0 0.859375,0.21875 1.125,0.65625 0.265625,0.421875 0.265625,1 0.265625,1.375 0,0.359375 0,0.90625 -0.21875,1.34375 C 3.421875,-0.421875 2.984375,-0.140625 2.5,-0.140625 z m 0,0"
               style="stroke:none" />
          </symbol>
          <symbol
             id="textext-96b47f49-2"
             overflow="visible"
             style="overflow:visible">
            <path
               id="path10429"
               d="m 1.71875,-0.78125 0,-1.53125 c 0,-0.984375 0.421875,-1.875 1.171875,-1.875 0.0625,0 0.09375,0 0.109375,0.015625 -0.03125,0 -0.234375,0.125 -0.234375,0.390625 0,0.265625 0.21875,0.421875 0.4375,0.421875 0.171875,0 0.421875,-0.125 0.421875,-0.4375 0,-0.3125 -0.3125,-0.609375 -0.734375,-0.609375 -0.734375,0 -1.09375,0.671875 -1.21875,1.09375 l 0,-1.09375 -1.390625,0.109375 0,0.3125 c 0.703125,0 0.78125,0.0625 0.78125,0.5625 l 0,2.671875 c 0,0.4375 -0.109375,0.4375 -0.78125,0.4375 l 0,0.3125 c 0.390625,-0.015625 0.859375,-0.03125 1.140625,-0.03125 0.390625,0 0.859375,0 1.265625,0.03125 l 0,-0.3125 -0.21875,0 c -0.734375,0 -0.75,-0.109375 -0.75,-0.46875 z m 0,0"
               style="stroke:none" />
          </symbol>
          <symbol
             id="textext-96b47f49-3"
             overflow="visible"
             style="overflow:visible">
            <path
               id="path10432"
               d="m 1.71875,-3.765625 0,-3.15625 -1.4375,0.109375 0,0.3125 c 0.703125,0 0.78125,0.0625 0.78125,0.5625 l 0,5.9375 0.25,0 c 0,-0.015625 0.078125,-0.15625 0.359375,-0.625 0.140625,0.234375 0.5625,0.734375 1.296875,0.734375 1.1875,0 2.21875,-0.984375 2.21875,-2.265625 0,-1.265625 -0.96875,-2.25 -2.109375,-2.25 -0.78125,0 -1.203125,0.46875 -1.359375,0.640625 z m 0.03125,2.625 0,-2.046875 c 0,-0.1875 0,-0.203125 0.109375,-0.359375 C 2.25,-4.109375 2.796875,-4.1875 3.03125,-4.1875 c 0.453125,0 0.8125,0.265625 1.046875,0.640625 0.265625,0.40625 0.28125,0.96875 0.28125,1.390625 0,0.359375 -0.015625,0.953125 -0.296875,1.40625 -0.21875,0.3125 -0.59375,0.640625 -1.125,0.640625 -0.453125,0 -0.8125,-0.234375 -1.046875,-0.609375 C 1.75,-0.921875 1.75,-0.953125 1.75,-1.140625 z m 0,0"
               style="stroke:none" />
          </symbol>
          <symbol
             id="textext-96b47f49-4"
             overflow="visible"
             style="overflow:visible">
            <path
               id="path10435"
               d="m 3.296875,2.390625 c 0,-0.03125 0,-0.046875 -0.171875,-0.21875 C 1.890625,0.921875 1.5625,-0.96875 1.5625,-2.5 c 0,-1.734375 0.375,-3.46875 1.609375,-4.703125 0.125,-0.125 0.125,-0.140625 0.125,-0.171875 0,-0.078125 -0.03125,-0.109375 -0.09375,-0.109375 -0.109375,0 -1,0.6875 -1.59375,1.953125 -0.5,1.09375 -0.625,2.203125 -0.625,3.03125 0,0.78125 0.109375,1.984375 0.65625,3.125 C 2.25,1.84375 3.09375,2.5 3.203125,2.5 c 0.0625,0 0.09375,-0.03125 0.09375,-0.109375 z m 0,0"
               style="stroke:none" />
          </symbol>
          <symbol
             id="textext-96b47f49-5"
             overflow="visible"
             style="overflow:visible">
            <path
               id="path10438"
               d="m 4.578125,-3.1875 c 0,-0.796875 -0.046875,-1.59375 -0.390625,-2.328125 -0.453125,-0.96875 -1.28125,-1.125 -1.6875,-1.125 -0.609375,0 -1.328125,0.265625 -1.75,1.1875 -0.3125,0.6875 -0.359375,1.46875 -0.359375,2.265625 0,0.75 0.03125,1.640625 0.453125,2.40625 0.421875,0.796875 1.15625,1 1.640625,1 0.53125,0 1.296875,-0.203125 1.734375,-1.15625 0.3125,-0.6875 0.359375,-1.46875 0.359375,-2.25 z M 2.484375,0 C 2.09375,0 1.5,-0.25 1.328125,-1.203125 1.21875,-1.796875 1.21875,-2.71875 1.21875,-3.3125 c 0,-0.640625 0,-1.296875 0.078125,-1.828125 0.1875,-1.1875 0.9375,-1.28125 1.1875,-1.28125 0.328125,0 0.984375,0.1875 1.171875,1.171875 0.109375,0.5625 0.109375,1.3125 0.109375,1.9375 0,0.75 0,1.421875 -0.109375,2.0625 C 3.5,-0.296875 2.9375,0 2.484375,0 z m 0,0"
               style="stroke:none" />
          </symbol>
          <symbol
             id="textext-96b47f49-6"
             overflow="visible"
             style="overflow:visible">
            <path
               id="path10441"
               d="m 2.875,-2.5 c 0,-0.765625 -0.109375,-1.96875 -0.65625,-3.109375 -0.59375,-1.21875 -1.453125,-1.875 -1.546875,-1.875 -0.0625,0 -0.109375,0.046875 -0.109375,0.109375 0,0.03125 0,0.046875 0.1875,0.234375 0.984375,0.984375 1.546875,2.5625 1.546875,4.640625 0,1.71875 -0.359375,3.46875 -1.59375,4.71875 C 0.5625,2.34375 0.5625,2.359375 0.5625,2.390625 0.5625,2.453125 0.609375,2.5 0.671875,2.5 0.765625,2.5 1.671875,1.8125 2.25,0.546875 2.765625,-0.546875 2.875,-1.65625 2.875,-2.5 z m 0,0"
               style="stroke:none" />
          </symbol>
          <symbol
             id="textext-96b47f49-7"
             overflow="visible"
             style="overflow:visible">
            <path
               id="path10444"
               d=""
               style="stroke:none" />
          </symbol>
          <symbol
             id="textext-96b47f49-8"
             overflow="visible"
             style="overflow:visible">
            <path
               id="path10447"
               d="m 2.828125,-5.609375 c 0,-0.71875 0,-0.9375 0.234375,-1.1875 C 3.234375,-6.984375 3.46875,-7.21875 4.171875,-7.25 4.21875,-7.265625 4.25,-7.3125 4.25,-7.359375 c 0,-0.125 -0.078125,-0.125 -0.1875,-0.125 -1,0 -1.890625,0.515625 -1.90625,1.234375 l 0,1.828125 c 0,0.9375 0,1.09375 -0.265625,1.375 -0.140625,0.140625 -0.40625,0.40625 -1.03125,0.4375 -0.078125,0 -0.140625,0.015625 -0.140625,0.109375 0,0.109375 0.0625,0.109375 0.15625,0.125 0.4375,0.015625 1.28125,0.234375 1.28125,1.234375 l 0,1.96875 c 0,0.578125 0,0.921875 0.515625,1.28125 C 3.09375,2.40625 3.75,2.5 4.0625,2.5 4.171875,2.5 4.25,2.5 4.25,2.375 4.25,2.28125 4.203125,2.28125 4.09375,2.265625 3.3125,2.21875 2.9375,1.78125 2.84375,1.421875 2.828125,1.3125 2.828125,1.28125 2.828125,0.9375 l 0,-1.5 c 0,-0.296875 0,-0.796875 -0.03125,-0.90625 C 2.671875,-2.125 2.03125,-2.375 1.640625,-2.5 c 1.1875,-0.328125 1.1875,-1.03125 1.1875,-1.3125 l 0,-1.796875 z m 0,0"
               style="stroke:none" />
          </symbol>
          <symbol
             id="textext-96b47f49-9"
             overflow="visible"
             style="overflow:visible">
            <path
               id="path10450"
               d="m 2.828125,-5.8125 c 0,-0.578125 0,-0.921875 -0.53125,-1.28125 -0.421875,-0.296875 -1.0625,-0.390625 -1.375,-0.390625 -0.109375,0 -0.203125,0 -0.203125,0.125 0,0.09375 0.0625,0.09375 0.15625,0.109375 0.796875,0.046875 1.15625,0.484375 1.25,0.84375 0.03125,0.109375 0.03125,0.140625 0.03125,0.484375 l 0,1.5 c 0,0.296875 0,0.796875 0.015625,0.90625 0.125,0.65625 0.765625,0.90625 1.15625,1.015625 C 2.15625,-2.15625 2.15625,-1.453125 2.15625,-1.171875 l 0,1.796875 c 0,0.71875 0,0.9375 -0.25,1.1875 C 1.734375,2 1.5,2.234375 0.8125,2.265625 0.75,2.28125 0.71875,2.328125 0.71875,2.375 0.71875,2.5 0.8125,2.5 0.921875,2.5 c 0.984375,0 1.875,-0.515625 1.90625,-1.234375 l 0,-1.828125 c 0,-0.9375 0,-1.09375 0.25,-1.375 C 3.21875,-2.078125 3.484375,-2.34375 4.109375,-2.375 4.1875,-2.375 4.25,-2.390625 4.25,-2.5 4.25,-2.59375 4.203125,-2.59375 4.09375,-2.609375 3.671875,-2.625 2.828125,-2.84375 2.828125,-3.84375 l 0,-1.96875 z m 0,0"
               style="stroke:none" />
          </symbol>
        </g>
      </defs>
      <g
         id="textext-96b47f49-10">
        <g
           id="g10453"
           style="fill:#000000;fill-opacity:1">
          <use
             id="use10455"
             y="134.76469"
             x="223.4321"
             xlink:href="#textext-96b47f49-1"
             width="318.89764"
             height="212.59842" />
          <use
             id="use10457"
             y="134.76469"
             x="228.41341"
             xlink:href="#textext-96b47f49-2"
             width="318.89764"
             height="212.59842" />
          <use
             id="use10459"
             y="134.76469"
             x="232.31874"
             xlink:href="#textext-96b47f49-3"
             width="318.89764"
             height="212.59842" />
        </g>
        <g
           id="g10461"
           style="fill:#000000;fill-opacity:1">
          <use
             id="use10463"
             y="134.76469"
             x="237.84798"
             xlink:href="#textext-96b47f49-4"
             width="318.89764"
             height="212.59842" />
        </g>
        <g
           id="g10465"
           style="fill:#000000;fill-opacity:1">
          <use
             id="use10467"
             y="134.76469"
             x="241.7247"
             xlink:href="#textext-96b47f49-8"
             width="318.89764"
             height="212.59842" />
        </g>
        <g
           id="g10469"
           style="fill:#000000;fill-opacity:1">
          <use
             id="use10471"
             y="134.76469"
             x="246.70599"
             xlink:href="#textext-96b47f49-5"
             width="318.89764"
             height="212.59842" />
        </g>
        <g
           id="g10473"
           style="fill:#000000;fill-opacity:1">
          <use
             id="use10475"
             y="134.76469"
             x="251.68739"
             xlink:href="#textext-96b47f49-9"
             width="318.89764"
             height="212.59842" />
        </g>
        <g
           id="g10477"
           style="fill:#000000;fill-opacity:1">
          <use
             id="use10479"
             y="134.76469"
             x="256.6687"
             xlink:href="#textext-96b47f49-6"
             width="318.89764"
             height="212.59842" />
        </g>
      </g>
    </g>
  </g>
</svg>
