<?xml version="1.0" encoding="UTF-8" standalone="no"?>
<!-- Created with Inkscape (http://www.inkscape.org/) -->

<svg
   xmlns:ns0="http://www.iki.fi/pav/software/textext/"
   xmlns:dc="http://purl.org/dc/elements/1.1/"
   xmlns:cc="http://creativecommons.org/ns#"
   xmlns:rdf="http://www.w3.org/1999/02/22-rdf-syntax-ns#"
   xmlns:svg="http://www.w3.org/2000/svg"
   xmlns="http://www.w3.org/2000/svg"
   xmlns:xlink="http://www.w3.org/1999/xlink"
   xmlns:sodipodi="http://sodipodi.sourceforge.net/DTD/sodipodi-0.dtd"
   xmlns:inkscape="http://www.inkscape.org/namespaces/inkscape"
   width="318.89764"
   height="212.59842"
   id="svg2"
   version="1.1"
   inkscape:version="0.47 r22583"
   sodipodi:docname="fig58-3.svg">
  <sodipodi:namedview
     id="base"
     pagecolor="#ffffff"
     bordercolor="#666666"
     borderopacity="1.0"
     inkscape:pageopacity="0.0"
     inkscape:pageshadow="2"
     inkscape:zoom="1.4769629"
     inkscape:cx="159.44882"
     inkscape:cy="106.29921"
     inkscape:document-units="cm"
     inkscape:current-layer="layer1"
     showgrid="false"
     units="cm"
     showborder="true"
     borderlayer="false"
     inkscape:window-width="549"
     inkscape:window-height="609"
     inkscape:window-x="467"
     inkscape:window-y="0"
     inkscape:window-maximized="0">
    <inkscape:grid
       snapvisiblegridlinesonly="true"
       enabled="true"
       visible="true"
       empspacing="5"
       id="grid2816"
       type="xygrid" />
  </sodipodi:namedview>
  <defs
     id="defs4">
    <inkscape:perspective
       id="perspective10"
       inkscape:persp3d-origin="372.04724 : 350.78739 : 1"
       inkscape:vp_z="744.09448 : 526.18109 : 1"
       inkscape:vp_y="0 : 1000 : 0"
       inkscape:vp_x="0 : 526.18109 : 1"
       sodipodi:type="inkscape:persp3d" />
    <inkscape:perspective
       sodipodi:type="inkscape:persp3d"
       inkscape:vp_x="0 : 0.5 : 1"
       inkscape:vp_y="0 : 1000 : 0"
       inkscape:vp_z="1 : 0.5 : 1"
       inkscape:persp3d-origin="0.5 : 0.33333333 : 1"
       id="perspective3646" />
    <inkscape:perspective
       id="perspective3801"
       inkscape:persp3d-origin="0.5 : 0.33333333 : 1"
       inkscape:vp_z="1 : 0.5 : 1"
       inkscape:vp_y="0 : 1000 : 0"
       inkscape:vp_x="0 : 0.5 : 1"
       sodipodi:type="inkscape:persp3d" />
    <inkscape:perspective
       id="perspective3801-8"
       inkscape:persp3d-origin="0.5 : 0.33333333 : 1"
       inkscape:vp_z="1 : 0.5 : 1"
       inkscape:vp_y="0 : 1000 : 0"
       inkscape:vp_x="0 : 0.5 : 1"
       sodipodi:type="inkscape:persp3d" />
    <inkscape:perspective
       id="perspective3801-6"
       inkscape:persp3d-origin="0.5 : 0.33333333 : 1"
       inkscape:vp_z="1 : 0.5 : 1"
       inkscape:vp_y="0 : 1000 : 0"
       inkscape:vp_x="0 : 0.5 : 1"
       sodipodi:type="inkscape:persp3d" />
    <inkscape:perspective
       sodipodi:type="inkscape:persp3d"
       inkscape:vp_x="0 : 0.5 : 1"
       inkscape:vp_y="0 : 1000 : 0"
       inkscape:vp_z="1 : 0.5 : 1"
       inkscape:persp3d-origin="0.5 : 0.33333333 : 1"
       id="perspective4183" />
    <inkscape:perspective
       id="perspective4183-1"
       inkscape:persp3d-origin="0.5 : 0.33333333 : 1"
       inkscape:vp_z="1 : 0.5 : 1"
       inkscape:vp_y="0 : 1000 : 0"
       inkscape:vp_x="0 : 0.5 : 1"
       sodipodi:type="inkscape:persp3d" />
    <inkscape:perspective
       sodipodi:type="inkscape:persp3d"
       inkscape:vp_x="0 : 0.5 : 1"
       inkscape:vp_y="0 : 1000 : 0"
       inkscape:vp_z="1 : 0.5 : 1"
       inkscape:persp3d-origin="0.5 : 0.33333333 : 1"
       id="perspective4865" />
    <inkscape:perspective
       id="perspective4865-7"
       inkscape:persp3d-origin="0.5 : 0.33333333 : 1"
       inkscape:vp_z="1 : 0.5 : 1"
       inkscape:vp_y="0 : 1000 : 0"
       inkscape:vp_x="0 : 0.5 : 1"
       sodipodi:type="inkscape:persp3d" />
    <inkscape:perspective
       sodipodi:type="inkscape:persp3d"
       inkscape:vp_x="0 : 0.5 : 1"
       inkscape:vp_y="0 : 1000 : 0"
       inkscape:vp_z="1 : 0.5 : 1"
       inkscape:persp3d-origin="0.5 : 0.33333333 : 1"
       id="perspective5729" />
    <inkscape:perspective
       id="perspective5729-4"
       inkscape:persp3d-origin="0.5 : 0.33333333 : 1"
       inkscape:vp_z="1 : 0.5 : 1"
       inkscape:vp_y="0 : 1000 : 0"
       inkscape:vp_x="0 : 0.5 : 1"
       sodipodi:type="inkscape:persp3d" />
    <inkscape:perspective
       sodipodi:type="inkscape:persp3d"
       inkscape:vp_x="0 : 0.5 : 1"
       inkscape:vp_y="0 : 1000 : 0"
       inkscape:vp_z="1 : 0.5 : 1"
       inkscape:persp3d-origin="0.5 : 0.33333333 : 1"
       id="perspective7286" />
    <inkscape:perspective
       id="perspective7518"
       inkscape:persp3d-origin="0.5 : 0.33333333 : 1"
       inkscape:vp_z="1 : 0.5 : 1"
       inkscape:vp_y="0 : 1000 : 0"
       inkscape:vp_x="0 : 0.5 : 1"
       sodipodi:type="inkscape:persp3d" />
    <inkscape:perspective
       id="perspective7540"
       inkscape:persp3d-origin="0.5 : 0.33333333 : 1"
       inkscape:vp_z="1 : 0.5 : 1"
       inkscape:vp_y="0 : 1000 : 0"
       inkscape:vp_x="0 : 0.5 : 1"
       sodipodi:type="inkscape:persp3d" />
    <inkscape:perspective
       sodipodi:type="inkscape:persp3d"
       inkscape:vp_x="0 : 0.5 : 1"
       inkscape:vp_y="0 : 1000 : 0"
       inkscape:vp_z="1 : 0.5 : 1"
       inkscape:persp3d-origin="0.5 : 0.33333333 : 1"
       id="perspective7794" />
    <inkscape:perspective
       sodipodi:type="inkscape:persp3d"
       inkscape:vp_x="0 : 0.5 : 1"
       inkscape:vp_y="0 : 1000 : 0"
       inkscape:vp_z="1 : 0.5 : 1"
       inkscape:persp3d-origin="0.5 : 0.33333333 : 1"
       id="perspective7816" />
    <inkscape:perspective
       id="perspective8124"
       inkscape:persp3d-origin="0.5 : 0.33333333 : 1"
       inkscape:vp_z="1 : 0.5 : 1"
       inkscape:vp_y="0 : 1000 : 0"
       inkscape:vp_x="0 : 0.5 : 1"
       sodipodi:type="inkscape:persp3d" />
    <inkscape:perspective
       id="perspective8191"
       inkscape:persp3d-origin="0.5 : 0.33333333 : 1"
       inkscape:vp_z="1 : 0.5 : 1"
       inkscape:vp_y="0 : 1000 : 0"
       inkscape:vp_x="0 : 0.5 : 1"
       sodipodi:type="inkscape:persp3d" />
    <inkscape:perspective
       sodipodi:type="inkscape:persp3d"
       inkscape:vp_x="0 : 0.5 : 1"
       inkscape:vp_y="0 : 1000 : 0"
       inkscape:vp_z="1 : 0.5 : 1"
       inkscape:persp3d-origin="0.5 : 0.33333333 : 1"
       id="perspective8743" />
    <inkscape:perspective
       sodipodi:type="inkscape:persp3d"
       inkscape:vp_x="0 : 0.5 : 1"
       inkscape:vp_y="0 : 1000 : 0"
       inkscape:vp_z="1 : 0.5 : 1"
       inkscape:persp3d-origin="0.5 : 0.33333333 : 1"
       id="perspective20491" />
    <inkscape:perspective
       sodipodi:type="inkscape:persp3d"
       inkscape:vp_x="0 : 0.5 : 1"
       inkscape:vp_y="0 : 1000 : 0"
       inkscape:vp_z="1 : 0.5 : 1"
       inkscape:persp3d-origin="0.5 : 0.33333333 : 1"
       id="perspective20491-1" />
    <inkscape:perspective
       sodipodi:type="inkscape:persp3d"
       inkscape:vp_x="0 : 0.5 : 1"
       inkscape:vp_y="0 : 1000 : 0"
       inkscape:vp_z="1 : 0.5 : 1"
       inkscape:persp3d-origin="0.5 : 0.33333333 : 1"
       id="perspective20491-0" />
    <inkscape:perspective
       sodipodi:type="inkscape:persp3d"
       inkscape:vp_x="0 : 0.5 : 1"
       inkscape:vp_y="0 : 1000 : 0"
       inkscape:vp_z="1 : 0.5 : 1"
       inkscape:persp3d-origin="0.5 : 0.33333333 : 1"
       id="perspective20491-03" />
    <inkscape:perspective
       sodipodi:type="inkscape:persp3d"
       inkscape:vp_x="0 : 0.5 : 1"
       inkscape:vp_y="0 : 1000 : 0"
       inkscape:vp_z="1 : 0.5 : 1"
       inkscape:persp3d-origin="0.5 : 0.33333333 : 1"
       id="perspective20491-19" />
    <inkscape:perspective
       sodipodi:type="inkscape:persp3d"
       inkscape:vp_x="0 : 0.5 : 1"
       inkscape:vp_y="0 : 1000 : 0"
       inkscape:vp_z="1 : 0.5 : 1"
       inkscape:persp3d-origin="0.5 : 0.33333333 : 1"
       id="perspective20491-9" />
    <inkscape:perspective
       sodipodi:type="inkscape:persp3d"
       inkscape:vp_x="0 : 0.5 : 1"
       inkscape:vp_y="0 : 1000 : 0"
       inkscape:vp_z="1 : 0.5 : 1"
       inkscape:persp3d-origin="0.5 : 0.33333333 : 1"
       id="perspective20491-8" />
    <inkscape:perspective
       sodipodi:type="inkscape:persp3d"
       inkscape:vp_x="0 : 0.5 : 1"
       inkscape:vp_y="0 : 1000 : 0"
       inkscape:vp_z="1 : 0.5 : 1"
       inkscape:persp3d-origin="0.5 : 0.33333333 : 1"
       id="perspective20491-5" />
    <inkscape:perspective
       sodipodi:type="inkscape:persp3d"
       inkscape:vp_x="0 : 0.5 : 1"
       inkscape:vp_y="0 : 1000 : 0"
       inkscape:vp_z="1 : 0.5 : 1"
       inkscape:persp3d-origin="0.5 : 0.33333333 : 1"
       id="perspective20491-4" />
    <inkscape:perspective
       sodipodi:type="inkscape:persp3d"
       inkscape:vp_x="0 : 0.5 : 1"
       inkscape:vp_y="0 : 1000 : 0"
       inkscape:vp_z="1 : 0.5 : 1"
       inkscape:persp3d-origin="0.5 : 0.33333333 : 1"
       id="perspective21129" />
    <inkscape:perspective
       id="perspective21457"
       inkscape:persp3d-origin="0.5 : 0.33333333 : 1"
       inkscape:vp_z="1 : 0.5 : 1"
       inkscape:vp_y="0 : 1000 : 0"
       inkscape:vp_x="0 : 0.5 : 1"
       sodipodi:type="inkscape:persp3d" />
    <inkscape:perspective
       sodipodi:type="inkscape:persp3d"
       inkscape:vp_x="0 : 0.5 : 1"
       inkscape:vp_y="0 : 1000 : 0"
       inkscape:vp_z="1 : 0.5 : 1"
       inkscape:persp3d-origin="0.5 : 0.33333333 : 1"
       id="perspective21842" />
  </defs>
  <metadata
     id="metadata7">
    <rdf:RDF>
      <cc:Work
         rdf:about="">
        <dc:format>image/svg+xml</dc:format>
        <dc:type
           rdf:resource="http://purl.org/dc/dcmitype/StillImage" />
        <dc:title></dc:title>
      </cc:Work>
    </rdf:RDF>
  </metadata>
  <g
     transform="translate(0,-839.76245)"
     id="layer1"
     inkscape:groupmode="layer"
     inkscape:label="Layer 1">
    <path
       sodipodi:nodetypes="ccc"
       id="path8840"
       d="M 111.76918,981.44562 79.371561,940.55837 76.096519,885.67448"
       style="fill:none;stroke:#000000;stroke-width:1px;stroke-linecap:butt;stroke-linejoin:miter;stroke-opacity:1" />
    <path
       sodipodi:nodetypes="ccc"
       id="path8844"
       d="M 40.645061,984.20766 79.371561,940.55837 108.879,880.9412"
       style="fill:none;stroke:#000000;stroke-width:1px;stroke-linecap:butt;stroke-linejoin:miter;stroke-opacity:1" />
    <path
       sodipodi:nodetypes="ccc"
       id="path8846"
       d="m 19.133901,946.94924 60.23766,-6.39087 60.532019,-31.82721"
       style="fill:none;stroke:#000000;stroke-width:1px;stroke-linecap:butt;stroke-linejoin:miter;stroke-opacity:1" />
    <path
       sodipodi:nodetypes="ccc"
       id="path8848"
       d="m 79.265708,934.35658 3.586044,-0.86915 4.07882,3.27498"
       style="fill:none;stroke:#000000;stroke-width:1px;stroke-linecap:butt;stroke-linejoin:miter;stroke-opacity:1" />
    <path
       sodipodi:nodetypes="ccc"
       id="path8850"
       d="m 78.759601,930.56452 5.729305,-0.90531 6.080257,5.20951"
       style="fill:none;stroke:#000000;stroke-width:1px;stroke-linecap:butt;stroke-linejoin:miter;stroke-opacity:1" />
    <path
       sodipodi:nodetypes="ccc"
       id="path8852"
       d="m 78.482413,925.91952 8.129249,-1.32991 8.150809,7.55196"
       style="fill:none;stroke:#000000;stroke-width:1px;stroke-linecap:butt;stroke-linejoin:miter;stroke-opacity:1" />
    <path
       sodipodi:nodetypes="ccc"
       id="path8854"
       d="m 78.177517,920.81002 12.284052,-2.04691 9.267433,10.98456"
       style="fill:none;stroke:#000000;stroke-width:1px;stroke-linecap:butt;stroke-linejoin:miter;stroke-opacity:1" />
    <path
       sodipodi:nodetypes="ccc"
       id="path8856"
       d="m 77.636848,914.87566 15.356751,-2.1392 12.118411,13.73277"
       style="fill:none;stroke:#000000;stroke-width:1px;stroke-linecap:butt;stroke-linejoin:miter;stroke-opacity:1" />
    <path
       sodipodi:nodetypes="ccc"
       id="path8858"
       d="m 77.512294,909.66205 17.964752,-2.20342 14.702274,16.25586"
       style="fill:none;stroke:#000000;stroke-width:1px;stroke-linecap:butt;stroke-linejoin:miter;stroke-opacity:1" />
    <path
       sodipodi:nodetypes="ccc"
       id="path8860"
       d="m 77.360031,903.98392 20.829405,-2.65607 18.091034,19.58696"
       style="fill:none;stroke:#000000;stroke-width:1px;stroke-linecap:butt;stroke-linejoin:miter;stroke-opacity:1" />
    <path
       sodipodi:nodetypes="ccc"
       id="path8862"
       d="m 76.84707,898.51404 24.44318,-3.06071 20.22385,22.81394"
       style="fill:none;stroke:#000000;stroke-width:1px;stroke-linecap:butt;stroke-linejoin:miter;stroke-opacity:1" />
    <path
       sodipodi:nodetypes="ccc"
       id="path8864"
       d="m 76.410431,892.75986 28.389899,-4.1381 22.34166,26.74051"
       style="fill:none;stroke:#000000;stroke-width:1px;stroke-linecap:butt;stroke-linejoin:miter;stroke-opacity:1" />
    <path
       id="path8868"
       d="m 70.013661,941.43033 3.36467,5.82778"
       style="fill:none;stroke:#000000;stroke-width:1px;stroke-linecap:butt;stroke-linejoin:miter;stroke-opacity:1" />
    <path
       id="path8870"
       d="m 63.582726,942.26532 5.607775,9.71295"
       style="fill:none;stroke:#000000;stroke-width:1px;stroke-linecap:butt;stroke-linejoin:miter;stroke-opacity:1" />
    <path
       id="path8872"
       d="m 56.59509,943.13392 8.100125,14.02983"
       style="fill:none;stroke:#000000;stroke-width:1px;stroke-linecap:butt;stroke-linejoin:miter;stroke-opacity:1" />
    <path
       sodipodi:nodetypes="cc"
       id="path8874"
       d="m 50.164148,943.96893 10.21862,17.69917"
       style="fill:none;stroke:#000000;stroke-width:1px;stroke-linecap:butt;stroke-linejoin:miter;stroke-opacity:1" />
    <path
       id="path8876"
       d="M 42.586637,944.31473 55.671452,966.9783"
       style="fill:none;stroke:#000000;stroke-width:1px;stroke-linecap:butt;stroke-linejoin:miter;stroke-opacity:1" />
    <path
       id="path8878"
       d="m 35.723628,945.39917 15.452544,26.76459"
       style="fill:none;stroke:#000000;stroke-width:1px;stroke-linecap:butt;stroke-linejoin:miter;stroke-opacity:1" />
    <path
       id="path8880"
       d="m 28.486767,945.83609 18.069504,31.29729"
       style="fill:none;stroke:#000000;stroke-width:1px;stroke-linecap:butt;stroke-linejoin:miter;stroke-opacity:1" />
    <path
       transform="matrix(0.53272857,-0.30757098,0.30730232,0.53226323,-284.80012,482.03427)"
       d="m 141.90247,941.99927 c 0,0.9665 -0.78351,1.75 -1.75,1.75 -0.9665,0 -1.75,-0.7835 -1.75,-1.75 0,-0.9665 0.7835,-1.75 1.75,-1.75 0.96649,0 1.75,0.7835 1.75,1.75 z"
       sodipodi:ry="1.75"
       sodipodi:rx="1.75"
       sodipodi:cy="941.99927"
       sodipodi:cx="140.15247"
       style="fill:#000000;stroke:none"
       id="path8884"
       sodipodi:type="arc" />
    <text
       id="text8886"
       y="936.65088"
       x="64.503296"
       style="font-size:12px;font-style:normal;font-weight:normal;text-align:start;writing-mode:lr-tb;text-anchor:start;fill:#000000;fill-opacity:1;stroke:none;font-family:LMRoman10;-inkscape-font-specification:LMRoman10"
       xml:space="preserve"><tspan
         y="936.65088"
         x="64.503296"
         id="tspan8888"
         sodipodi:role="line">0</tspan></text>
    <path
       transform="translate(0,839.76245)"
       id="path20475"
       d="m 180,62.598419 0,50.000001 30,30"
       style="fill:none;stroke:#000000;stroke-width:1px;stroke-linecap:butt;stroke-linejoin:miter;stroke-opacity:1" />
    <path
       sodipodi:nodetypes="cc"
       id="path20477"
       d="m 250,992.36087 40,-20"
       style="fill:none;stroke:#000000;stroke-width:1px;stroke-linecap:butt;stroke-linejoin:miter;stroke-opacity:1" />
    <path
       transform="translate(0,839.76245)"
       id="path20479"
       d="m 300,102.59842 -10,-40.000001 -30,-30 -40,0"
       style="fill:none;stroke:#000000;stroke-width:1px;stroke-linecap:butt;stroke-linejoin:miter;stroke-opacity:1" />
    <path
       transform="translate(0,839.76245)"
       d="m 293,132.59842 c 0,1.65685 -1.34315,3 -3,3 -1.65685,0 -3,-1.34315 -3,-3 0,-1.65686 1.34315,-3 3,-3 1.65685,0 3,1.34314 3,3 z"
       sodipodi:ry="3"
       sodipodi:rx="3"
       sodipodi:cy="132.59842"
       sodipodi:cx="290"
       id="path20481"
       style="color:#000000;fill:#ffffff;stroke:#000000;stroke-width:0.99212599000000001;stroke-linecap:butt;stroke-linejoin:round;stroke-miterlimit:4;stroke-opacity:1;stroke-dasharray:none;stroke-dashoffset:0;marker:none;visibility:visible;display:inline;overflow:visible;enable-background:accumulate"
       sodipodi:type="arc" />
    <path
       d="m 293,132.59842 c 0,1.65685 -1.34315,3 -3,3 -1.65685,0 -3,-1.34315 -3,-3 0,-1.65686 1.34315,-3 3,-3 1.65685,0 3,1.34314 3,3 z"
       sodipodi:ry="3"
       sodipodi:rx="3"
       sodipodi:cy="132.59842"
       sodipodi:cx="290"
       id="path20481-3"
       style="color:#000000;fill:#ffffff;stroke:#000000;stroke-width:0.99212599;stroke-linecap:butt;stroke-linejoin:round;stroke-miterlimit:4;stroke-opacity:1;stroke-dasharray:none;stroke-dashoffset:0;marker:none;visibility:visible;display:inline;overflow:visible;enable-background:accumulate"
       sodipodi:type="arc"
       transform="translate(-39.999997,859.76245)" />
    <path
       d="m 293,132.59842 c 0,1.65685 -1.34315,3 -3,3 -1.65685,0 -3,-1.34315 -3,-3 0,-1.65686 1.34315,-3 3,-3 1.65685,0 3,1.34314 3,3 z"
       sodipodi:ry="3"
       sodipodi:rx="3"
       sodipodi:cy="132.59842"
       sodipodi:cx="290"
       id="path20481-1"
       style="color:#000000;fill:#ffffff;stroke:#000000;stroke-width:0.99212599;stroke-linecap:butt;stroke-linejoin:round;stroke-miterlimit:4;stroke-opacity:1;stroke-dasharray:none;stroke-dashoffset:0;marker:none;visibility:visible;display:inline;overflow:visible;enable-background:accumulate"
       sodipodi:type="arc"
       transform="translate(10.000003,809.76245)" />
    <path
       d="m 293,132.59842 c 0,1.65685 -1.34315,3 -3,3 -1.65685,0 -3,-1.34315 -3,-3 0,-1.65686 1.34315,-3 3,-3 1.65685,0 3,1.34314 3,3 z"
       sodipodi:ry="3"
       sodipodi:rx="3"
       sodipodi:cy="132.59842"
       sodipodi:cx="290"
       id="path20481-34"
       style="color:#000000;fill:#ffffff;stroke:#000000;stroke-width:0.99212599;stroke-linecap:butt;stroke-linejoin:round;stroke-miterlimit:4;stroke-opacity:1;stroke-dasharray:none;stroke-dashoffset:0;marker:none;visibility:visible;display:inline;overflow:visible;enable-background:accumulate"
       sodipodi:type="arc"
       transform="translate(-69.999997,739.76245)" />
    <path
       d="m 293,132.59842 c 0,1.65685 -1.34315,3 -3,3 -1.65685,0 -3,-1.34315 -3,-3 0,-1.65686 1.34315,-3 3,-3 1.65685,0 3,1.34314 3,3 z"
       sodipodi:ry="3"
       sodipodi:rx="3"
       sodipodi:cy="132.59842"
       sodipodi:cx="290"
       id="path20481-9"
       style="color:#000000;fill:#ffffff;stroke:#000000;stroke-width:0.99212599;stroke-linecap:butt;stroke-linejoin:round;stroke-miterlimit:4;stroke-opacity:1;stroke-dasharray:none;stroke-dashoffset:0;marker:none;visibility:visible;display:inline;overflow:visible;enable-background:accumulate"
       sodipodi:type="arc"
       transform="translate(-110,769.76245)" />
    <path
       d="m 293,132.59842 c 0,1.65685 -1.34315,3 -3,3 -1.65685,0 -3,-1.34315 -3,-3 0,-1.65686 1.34315,-3 3,-3 1.65685,0 3,1.34314 3,3 z"
       sodipodi:ry="3"
       sodipodi:rx="3"
       sodipodi:cy="132.59842"
       sodipodi:cx="290"
       id="path20481-6"
       style="color:#000000;fill:#ffffff;stroke:#000000;stroke-width:0.99212599;stroke-linecap:butt;stroke-linejoin:round;stroke-miterlimit:4;stroke-opacity:1;stroke-dasharray:none;stroke-dashoffset:0;marker:none;visibility:visible;display:inline;overflow:visible;enable-background:accumulate"
       sodipodi:type="arc"
       transform="translate(-79.999997,849.76245)" />
    <path
       d="m 293,132.59842 c 0,1.65685 -1.34315,3 -3,3 -1.65685,0 -3,-1.34315 -3,-3 0,-1.65686 1.34315,-3 3,-3 1.65685,0 3,1.34314 3,3 z"
       sodipodi:ry="3"
       sodipodi:rx="3"
       sodipodi:cy="132.59842"
       sodipodi:cx="290"
       id="path20481-33"
       style="color:#000000;fill:#000000;stroke:#000000;stroke-width:0.99212599000000001;stroke-linecap:butt;stroke-linejoin:round;stroke-miterlimit:4;stroke-opacity:1;stroke-dasharray:none;stroke-dashoffset:0;marker:none;visibility:visible;display:inline;overflow:visible;enable-background:accumulate"
       sodipodi:type="arc"
       transform="translate(-110,819.76245)" />
    <path
       d="m 293,132.59842 c 0,1.65685 -1.34315,3 -3,3 -1.65685,0 -3,-1.34315 -3,-3 0,-1.65686 1.34315,-3 3,-3 1.65685,0 3,1.34314 3,3 z"
       sodipodi:ry="3"
       sodipodi:rx="3"
       sodipodi:cy="132.59842"
       sodipodi:cx="290"
       id="path20481-0"
       style="color:#000000;fill:#000000;stroke:#000000;stroke-width:0.99212599000000001;stroke-linecap:butt;stroke-linejoin:round;stroke-miterlimit:4;stroke-opacity:1;stroke-dasharray:none;stroke-dashoffset:0;marker:none;visibility:visible;display:inline;overflow:visible;enable-background:accumulate"
       sodipodi:type="arc"
       transform="translate(2.9940033e-6,769.76245)" />
    <path
       d="m 293,132.59842 c 0,1.65685 -1.34315,3 -3,3 -1.65685,0 -3,-1.34315 -3,-3 0,-1.65686 1.34315,-3 3,-3 1.65685,0 3,1.34314 3,3 z"
       sodipodi:ry="3"
       sodipodi:rx="3"
       sodipodi:cy="132.59842"
       sodipodi:cx="290"
       id="path20481-66"
       style="color:#000000;fill:#000000;stroke:#000000;stroke-width:0.99212599000000001;stroke-linecap:butt;stroke-linejoin:round;stroke-miterlimit:4;stroke-opacity:1;stroke-dasharray:none;stroke-dashoffset:0;marker:none;visibility:visible;display:inline;overflow:visible;enable-background:accumulate"
       sodipodi:type="arc"
       transform="translate(-29.999997,739.76245)" />
    <path
       d="m 293,132.59842 c 0,1.65685 -1.34315,3 -3,3 -1.65685,0 -3,-1.34315 -3,-3 0,-1.65686 1.34315,-3 3,-3 1.65685,0 3,1.34314 3,3 z"
       sodipodi:ry="3"
       sodipodi:rx="3"
       sodipodi:cy="132.59842"
       sodipodi:cx="290"
       id="path20481-00"
       style="color:#000000;fill:#000000;stroke:#000000;stroke-width:0.99212599000000001;stroke-linecap:butt;stroke-linejoin:round;stroke-miterlimit:4;stroke-opacity:1;stroke-dasharray:none;stroke-dashoffset:0;marker:none;visibility:visible;display:inline;overflow:visible;enable-background:accumulate"
       sodipodi:type="arc"
       transform="translate(-210.70646,807.70422)" />
    <path
       transform="translate(0,839.76245)"
       id="path20577"
       d="m 180,97.598419 25,35.000001"
       style="fill:none;stroke:#000000;stroke-width:1px;stroke-linecap:butt;stroke-linejoin:miter;stroke-opacity:1" />
    <path
       transform="translate(0,839.76245)"
       id="path20579"
       d="M 180.04496,83.017369 220,142.59842"
       style="fill:none;stroke:#000000;stroke-width:1px;stroke-linecap:butt;stroke-linejoin:miter;stroke-opacity:1" />
    <path
       transform="translate(0,839.76245)"
       id="path20581"
       d="m 180,72.598419 50,70.000001"
       style="fill:none;stroke:#000000;stroke-width:1px;stroke-linecap:butt;stroke-linejoin:miter;stroke-opacity:1" />
    <path
       transform="translate(0,839.76245)"
       id="path20583"
       d="m 185,62.598419 55,80.000001"
       style="fill:none;stroke:#000000;stroke-width:1px;stroke-linecap:butt;stroke-linejoin:miter;stroke-opacity:1" />
    <path
       transform="translate(0,839.76245)"
       id="path20585"
       d="m 190,57.598419 60,85.000001"
       style="fill:none;stroke:#000000;stroke-width:1px;stroke-linecap:butt;stroke-linejoin:miter;stroke-opacity:1" />
    <path
       transform="translate(0,839.76245)"
       id="path20587"
       d="m 195,52.598419 65,90.000001"
       style="fill:none;stroke:#000000;stroke-width:1px;stroke-linecap:butt;stroke-linejoin:miter;stroke-opacity:1" />
    <path
       transform="translate(0,839.76245)"
       id="path20589"
       d="m 200,47.598419 65,90.000001"
       style="fill:none;stroke:#000000;stroke-width:1px;stroke-linecap:butt;stroke-linejoin:miter;stroke-opacity:1" />
    <path
       transform="translate(0,839.76245)"
       id="path20591"
       d="m 205,42.598419 65,90.000001"
       style="fill:none;stroke:#000000;stroke-width:1px;stroke-linecap:butt;stroke-linejoin:miter;stroke-opacity:1" />
    <path
       transform="translate(0,839.76245)"
       id="path20593"
       d="m 210,37.598419 70,95.000001"
       style="fill:none;stroke:#000000;stroke-width:1px;stroke-linecap:butt;stroke-linejoin:miter;stroke-opacity:1" />
    <path
       transform="translate(0,839.76245)"
       id="path20595"
       d="m 220,37.598419 65,90.000001"
       style="fill:none;stroke:#000000;stroke-width:1px;stroke-linecap:butt;stroke-linejoin:miter;stroke-opacity:1" />
    <path
       transform="translate(0,839.76245)"
       id="path20597"
       d="m 230,37.598419 60,85.000001"
       style="fill:none;stroke:#000000;stroke-width:1px;stroke-linecap:butt;stroke-linejoin:miter;stroke-opacity:1" />
    <path
       transform="translate(0,839.76245)"
       id="path20599"
       d="m 240,37.598419 50,75.000001"
       style="fill:none;stroke:#000000;stroke-width:1px;stroke-linecap:butt;stroke-linejoin:miter;stroke-opacity:1" />
    <path
       transform="translate(0,839.76245)"
       id="path20601"
       d="m 250,37.598419 40,65.000001"
       style="fill:none;stroke:#000000;stroke-width:1px;stroke-linecap:butt;stroke-linejoin:miter;stroke-opacity:1" />
    <path
       transform="translate(0,839.76245)"
       id="path20603"
       d="m 260,42.598419 30,50"
       style="fill:none;stroke:#000000;stroke-width:1px;stroke-linecap:butt;stroke-linejoin:miter;stroke-opacity:1" />
    <path
       transform="translate(0,839.76245)"
       id="path20605"
       d="m 265,42.598419 30,50"
       style="fill:none;stroke:#000000;stroke-width:1px;stroke-linecap:butt;stroke-linejoin:miter;stroke-opacity:1" />
    <path
       transform="translate(0,839.76245)"
       id="path20607"
       d="m 275,47.598419 20,35"
       style="fill:none;stroke:#000000;stroke-width:1px;stroke-linecap:butt;stroke-linejoin:miter;stroke-opacity:1" />
    <path
       transform="translate(0,839.76245)"
       d="m 275,90.098419 c 0,15.187831 -15.67003,27.500001 -35,27.500001 -19.32997,0 -35,-12.31217 -35,-27.500001 0,-15.18783 15.67003,-27.5 35,-27.5 19.32997,0 35,12.31217 35,27.5 z"
       sodipodi:ry="27.5"
       sodipodi:rx="35"
       sodipodi:cy="90.098419"
       sodipodi:cx="240"
       id="path20609"
       style="color:#000000;fill:#ffffff;stroke:none;stroke-width:0.99212599000000001;stroke-linecap:butt;stroke-linejoin:round;stroke-miterlimit:4;stroke-opacity:1;stroke-dasharray:none;stroke-dashoffset:0;marker:none;visibility:visible;display:inline;overflow:visible;enable-background:accumulate"
       sodipodi:type="arc" />
    <g
       id="g21275"
       transform="matrix(1.2,0,0,1.2,-41.587133,771.48453)"
       ns0:preamble="/home/manju/Documents/ubm/preamble.tex"
       ns0:text="$(\\underline{k}^{*})^2$">
      <defs
         id="defs21277">
        <g
           id="g21279">
          <symbol
             id="textext-689ce114-0"
             overflow="visible"
             style="overflow:visible">
            <path
               id="path21282"
               d=""
               style="stroke:none" />
          </symbol>
          <symbol
             id="textext-689ce114-1"
             overflow="visible"
             style="overflow:visible">
            <path
               id="path21285"
               d="m 3.296875,2.390625 c 0,-0.03125 0,-0.046875 -0.171875,-0.21875 C 1.890625,0.921875 1.5625,-0.96875 1.5625,-2.5 c 0,-1.734375 0.375,-3.46875 1.609375,-4.703125 0.125,-0.125 0.125,-0.140625 0.125,-0.171875 0,-0.078125 -0.03125,-0.109375 -0.09375,-0.109375 -0.109375,0 -1,0.6875 -1.59375,1.953125 -0.5,1.09375 -0.625,2.203125 -0.625,3.03125 0,0.78125 0.109375,1.984375 0.65625,3.125 C 2.25,1.84375 3.09375,2.5 3.203125,2.5 c 0.0625,0 0.09375,-0.03125 0.09375,-0.109375 z m 0,0"
               style="stroke:none" />
          </symbol>
          <symbol
             id="textext-689ce114-2"
             overflow="visible"
             style="overflow:visible">
            <path
               id="path21288"
               d="m 2.875,-2.5 c 0,-0.765625 -0.109375,-1.96875 -0.65625,-3.109375 -0.59375,-1.21875 -1.453125,-1.875 -1.546875,-1.875 -0.0625,0 -0.109375,0.046875 -0.109375,0.109375 0,0.03125 0,0.046875 0.1875,0.234375 0.984375,0.984375 1.546875,2.5625 1.546875,4.640625 0,1.71875 -0.359375,3.46875 -1.59375,4.71875 C 0.5625,2.34375 0.5625,2.359375 0.5625,2.390625 0.5625,2.453125 0.609375,2.5 0.671875,2.5 0.765625,2.5 1.671875,1.8125 2.25,0.546875 2.765625,-0.546875 2.875,-1.65625 2.875,-2.5 z m 0,0"
               style="stroke:none" />
          </symbol>
          <symbol
             id="textext-689ce114-3"
             overflow="visible"
             style="overflow:visible">
            <path
               id="path21291"
               d=""
               style="stroke:none" />
          </symbol>
          <symbol
             id="textext-689ce114-4"
             overflow="visible"
             style="overflow:visible">
            <path
               id="path21294"
               d="m 2.859375,-6.8125 c 0,0 0,-0.109375 -0.125,-0.109375 -0.234375,0 -0.953125,0.078125 -1.21875,0.109375 -0.078125,0 -0.1875,0.015625 -0.1875,0.1875 0,0.125 0.09375,0.125 0.234375,0.125 0.484375,0 0.5,0.0625 0.5,0.171875 L 2.03125,-6.125 0.59375,-0.390625 c -0.046875,0.140625 -0.046875,0.15625 -0.046875,0.21875 0,0.234375 0.203125,0.28125 0.296875,0.28125 0.125,0 0.265625,-0.09375 0.328125,-0.203125 0.046875,-0.09375 0.5,-1.9375 0.5625,-2.1875 0.34375,0.03125 1.15625,0.1875 1.15625,0.84375 0,0.078125 0,0.109375 -0.03125,0.21875 -0.015625,0.109375 -0.03125,0.234375 -0.03125,0.34375 0,0.578125 0.390625,0.984375 0.90625,0.984375 0.296875,0 0.578125,-0.15625 0.796875,-0.53125 0.25,-0.4375 0.359375,-0.984375 0.359375,-1 0,-0.109375 -0.09375,-0.109375 -0.125,-0.109375 -0.09375,0 -0.109375,0.046875 -0.140625,0.1875 -0.203125,0.71875 -0.421875,1.234375 -0.859375,1.234375 -0.203125,0 -0.328125,-0.109375 -0.328125,-0.46875 0,-0.171875 0.046875,-0.40625 0.078125,-0.5625 C 3.5625,-1.3125 3.5625,-1.34375 3.5625,-1.453125 3.5625,-2.09375 2.9375,-2.375 2.078125,-2.5 2.390625,-2.671875 2.71875,-2.984375 2.9375,-3.234375 3.421875,-3.765625 3.875,-4.1875 4.359375,-4.1875 c 0.0625,0 0.078125,0 0.09375,0.015625 0.125,0.015625 0.125,0.015625 0.21875,0.078125 0.015625,0 0.015625,0.015625 0.03125,0.03125 -0.46875,0.03125 -0.5625,0.421875 -0.5625,0.546875 0,0.15625 0.109375,0.34375 0.375,0.34375 0.265625,0 0.546875,-0.21875 0.546875,-0.609375 0,-0.296875 -0.234375,-0.625 -0.671875,-0.625 -0.28125,0 -0.734375,0.078125 -1.453125,0.875 -0.34375,0.375 -0.734375,0.78125 -1.109375,0.921875 L 2.859375,-6.8125 z m 0,0"
               style="stroke:none" />
          </symbol>
          <symbol
             id="textext-689ce114-5"
             overflow="visible"
             style="overflow:visible">
            <path
               id="path21297"
               d=""
               style="stroke:none" />
          </symbol>
          <symbol
             id="textext-689ce114-6"
             overflow="visible"
             style="overflow:visible">
            <path
               id="path21300"
               d="m 3.28125,-2.1875 c 0.09375,-0.03125 0.171875,-0.078125 0.171875,-0.203125 0,-0.09375 -0.078125,-0.21875 -0.21875,-0.21875 -0.046875,0 -0.078125,0.015625 -0.140625,0.0625 L 2.125,-1.90625 2.234375,-2.953125 2.25,-3.046875 c 0,-0.078125 -0.078125,-0.1875 -0.21875,-0.1875 -0.140625,0 -0.21875,0.09375 -0.21875,0.1875 l 0.125,1.140625 -0.953125,-0.640625 c -0.09375,-0.046875 -0.125,-0.0625 -0.15625,-0.0625 -0.125,0 -0.21875,0.125 -0.21875,0.21875 0,0.125 0.078125,0.171875 0.171875,0.203125 l 1.03125,0.453125 -1.03125,0.4375 C 0.6875,-1.25 0.609375,-1.21875 0.609375,-1.09375 c 0,0.09375 0.09375,0.21875 0.21875,0.21875 0.0625,0 0.078125,-0.015625 0.140625,-0.0625 l 0.96875,-0.625 -0.125,1.125 c 0,0.09375 0.078125,0.203125 0.21875,0.203125 0.140625,0 0.21875,-0.109375 0.21875,-0.203125 0,-0.03125 -0.125,-1.109375 -0.125,-1.125 0.21875,0.125 0.515625,0.328125 0.859375,0.5625 0.1875,0.125 0.203125,0.125 0.25,0.125 0.140625,0 0.21875,-0.125 0.21875,-0.21875 0,-0.125 -0.09375,-0.171875 -0.140625,-0.203125 C 2.96875,-1.4375 2.609375,-1.59375 2.25,-1.734375 L 3.28125,-2.1875 z m 0,0"
               style="stroke:none" />
          </symbol>
          <symbol
             id="textext-689ce114-7"
             overflow="visible"
             style="overflow:visible">
            <path
               id="path21303"
               d=""
               style="stroke:none" />
          </symbol>
          <symbol
             id="textext-689ce114-8"
             overflow="visible"
             style="overflow:visible">
            <path
               id="path21306"
               d="m 3.515625,-1.265625 -0.234375,0 c -0.015625,0.15625 -0.09375,0.5625 -0.1875,0.625 -0.046875,0.046875 -0.578125,0.046875 -0.6875,0.046875 l -1.28125,0 c 0.734375,-0.640625 0.984375,-0.84375 1.390625,-1.171875 0.515625,-0.40625 1,-0.84375 1,-1.5 0,-0.84375 -0.734375,-1.359375 -1.625,-1.359375 -0.859375,0 -1.453125,0.609375 -1.453125,1.25 0,0.34375 0.296875,0.390625 0.375,0.390625 0.15625,0 0.359375,-0.125 0.359375,-0.375 0,-0.125 -0.046875,-0.375 -0.40625,-0.375 C 0.984375,-4.21875 1.453125,-4.375 1.78125,-4.375 c 0.703125,0 1.0625,0.546875 1.0625,1.109375 0,0.609375 -0.4375,1.078125 -0.65625,1.328125 L 0.515625,-0.265625 C 0.4375,-0.203125 0.4375,-0.1875 0.4375,0 l 2.875,0 0.203125,-1.265625 z m 0,0"
               style="stroke:none" />
          </symbol>
        </g>
      </defs>
      <g
         id="textext-689ce114-9">
        <g
           id="g21309"
           style="fill:#000000;fill-opacity:1">
          <use
             id="use21311"
             y="134.76469"
             x="223.4321"
             xlink:href="#textext-689ce114-1"
             width="318.89764"
             height="212.59842" />
        </g>
        <g
           id="g21313"
           style="fill:#000000;fill-opacity:1">
          <use
             id="use21315"
             y="134.76469"
             x="227.3065"
             xlink:href="#textext-689ce114-4"
             width="318.89764"
             height="212.59842" />
        </g>
        <path
           id="path21317"
           transform="matrix(1,0,0,-1,227.3065,136.3586)"
           d="m -0.0018125,0.198444 5.5039065,0"
           style="fill:none;stroke:#000000;stroke-width:0.3985;stroke-linecap:butt;stroke-linejoin:miter;stroke-miterlimit:10;stroke-opacity:1" />
        <g
           id="g21319"
           style="fill:#000000;fill-opacity:1">
          <use
             id="use21321"
             y="130.3091"
             x="232.8067"
             xlink:href="#textext-689ce114-6"
             width="318.89764"
             height="212.59842" />
        </g>
        <g
           id="g21323"
           style="fill:#000000;fill-opacity:1">
          <use
             id="use21325"
             y="134.76469"
             x="237.3868"
             xlink:href="#textext-689ce114-2"
             width="318.89764"
             height="212.59842" />
        </g>
        <g
           id="g21327"
           style="fill:#000000;fill-opacity:1">
          <use
             id="use21329"
             y="131.14931"
             x="241.26109"
             xlink:href="#textext-689ce114-8"
             width="318.89764"
             height="212.59842" />
        </g>
      </g>
    </g>
    <g
       ns0:text="$\\triangle$"
       ns0:preamble="/home/manju/Documents/ubm/preamble.tex"
       transform="matrix(1.2,0,0,1.2,-192.82039,853.46357)"
       id="g21688">
      <defs
         id="defs21690">
        <g
           id="g21692">
          <symbol
             style="overflow:visible"
             overflow="visible"
             id="textext-2d4f1cd0-0">
            <path
               style="stroke:none"
               d=""
               id="path21695" />
          </symbol>
          <symbol
             style="overflow:visible"
             overflow="visible"
             id="textext-2d4f1cd0-1">
            <path
               style="stroke:none"
               d="M 4.640625,-6.953125 C 4.5625,-7.09375 4.53125,-7.140625 4.421875,-7.140625 4.3125,-7.140625 4.25,-7.0625 4.203125,-6.953125 L 0.65625,-0.375 c -0.0625,0.109375 -0.0625,0.15625 -0.0625,0.171875 C 0.59375,0 0.78125,0 0.921875,0 L 7.9375,0 c 0.140625,0 0.328125,0 0.328125,-0.203125 0,-0.015625 0,-0.0625 -0.0625,-0.171875 l -3.5625,-6.578125 z m -0.21875,0.4375 3.3125,6.109375 -6.625,0 3.3125,-6.109375 z m 0,0"
               id="path21698" />
          </symbol>
        </g>
      </defs>
      <g
         id="textext-2d4f1cd0-2">
        <g
           style="fill:#000000;fill-opacity:1"
           id="g21701">
          <use
             height="212.59842"
             width="318.89764"
             xlink:href="#textext-2d4f1cd0-1"
             x="223.4321"
             y="134.76469"
             id="use21703" />
        </g>
      </g>
    </g>
    <g
       id="g22015"
       transform="matrix(1.2,0,0,1.2,-62.189844,852.27251)"
       ns0:preamble="/home/manju/Documents/ubm/preamble.tex"
       ns0:text="Temb $(\\triangle)$">
      <defs
         id="defs22017">
        <g
           id="g22019">
          <symbol
             id="textext-9e05c795-0"
             overflow="visible"
             style="overflow:visible">
            <path
               id="path22022"
               d=""
               style="stroke:none" />
          </symbol>
          <symbol
             id="textext-9e05c795-1"
             overflow="visible"
             style="overflow:visible">
            <path
               id="path22025"
               d="m 6.640625,-6.75 -6.09375,0 -0.1875,2.25 0.25,0 C 0.75,-6.109375 0.890625,-6.4375 2.40625,-6.4375 c 0.171875,0 0.4375,0 0.53125,0.015625 0.21875,0.046875 0.21875,0.15625 0.21875,0.375 l 0,5.265625 c 0,0.328125 0,0.46875 -1.046875,0.46875 l -0.40625,0 0,0.3125 C 2.109375,-0.03125 3.125,-0.03125 3.59375,-0.03125 c 0.453125,0 1.484375,0 1.890625,0.03125 l 0,-0.3125 -0.40625,0 c -1.046875,0 -1.046875,-0.140625 -1.046875,-0.46875 l 0,-5.265625 c 0,-0.1875 0,-0.328125 0.1875,-0.375 0.109375,-0.015625 0.375,-0.015625 0.5625,-0.015625 1.515625,0 1.65625,0.328125 1.796875,1.9375 l 0.25,0 -0.1875,-2.25 z m 0,0"
               style="stroke:none" />
          </symbol>
          <symbol
             id="textext-9e05c795-2"
             overflow="visible"
             style="overflow:visible">
            <path
               id="path22028"
               d="m 3.890625,-2.296875 c 0.21875,0 0.25,0 0.25,-0.21875 0,-0.984375 -0.546875,-1.953125 -1.78125,-1.953125 -1.15625,0 -2.078125,1.03125 -2.078125,2.28125 0,1.328125 1.046875,2.296875 2.1875,2.296875 C 3.6875,0.109375 4.140625,-1 4.140625,-1.1875 4.140625,-1.28125 4.0625,-1.3125 4,-1.3125 c -0.078125,0 -0.109375,0.0625 -0.125,0.140625 -0.34375,1.03125 -1.25,1.03125 -1.34375,1.03125 -0.5,0 -0.890625,-0.296875 -1.125,-0.671875 -0.296875,-0.46875 -0.296875,-1.125 -0.296875,-1.484375 l 2.78125,0 z m -2.78125,-0.21875 C 1.171875,-4 2.015625,-4.25 2.359375,-4.25 c 1.015625,0 1.125,1.34375 1.125,1.734375 l -2.375,0 z m 0,0"
               style="stroke:none" />
          </symbol>
          <symbol
             id="textext-9e05c795-3"
             overflow="visible"
             style="overflow:visible">
            <path
               id="path22031"
               d="m 1.09375,-3.421875 0,2.671875 c 0,0.4375 -0.109375,0.4375 -0.78125,0.4375 l 0,0.3125 c 0.359375,-0.015625 0.859375,-0.03125 1.140625,-0.03125 0.25,0 0.765625,0.015625 1.109375,0.03125 l 0,-0.3125 c -0.671875,0 -0.78125,0 -0.78125,-0.4375 l 0,-1.84375 C 1.78125,-3.625 2.5,-4.1875 3.125,-4.1875 c 0.640625,0 0.75,0.53125 0.75,1.109375 l 0,2.328125 c 0,0.4375 -0.109375,0.4375 -0.78125,0.4375 l 0,0.3125 c 0.34375,-0.015625 0.859375,-0.03125 1.125,-0.03125 0.25,0 0.78125,0.015625 1.109375,0.03125 l 0,-0.3125 c -0.65625,0 -0.765625,0 -0.765625,-0.4375 l 0,-1.84375 c 0,-1.03125 0.703125,-1.59375 1.34375,-1.59375 0.625,0 0.734375,0.53125 0.734375,1.109375 l 0,2.328125 c 0,0.4375 -0.109375,0.4375 -0.78125,0.4375 l 0,0.3125 c 0.34375,-0.015625 0.859375,-0.03125 1.125,-0.03125 0.265625,0 0.78125,0.015625 1.125,0.03125 l 0,-0.3125 c -0.515625,0 -0.765625,0 -0.78125,-0.296875 l 0,-1.90625 c 0,-0.859375 0,-1.15625 -0.3125,-1.515625 -0.140625,-0.171875 -0.46875,-0.375 -1.046875,-0.375 -0.828125,0 -1.28125,0.59375 -1.4375,0.984375 C 4.390625,-4.296875 3.65625,-4.40625 3.203125,-4.40625 2.46875,-4.40625 2,-3.984375 1.71875,-3.359375 l 0,-1.046875 -1.40625,0.109375 0,0.3125 c 0.703125,0 0.78125,0.0625 0.78125,0.5625 z m 0,0"
               style="stroke:none" />
          </symbol>
          <symbol
             id="textext-9e05c795-4"
             overflow="visible"
             style="overflow:visible">
            <path
               id="path22034"
               d="m 1.71875,-3.765625 0,-3.15625 -1.4375,0.109375 0,0.3125 c 0.703125,0 0.78125,0.0625 0.78125,0.5625 l 0,5.9375 0.25,0 c 0,-0.015625 0.078125,-0.15625 0.359375,-0.625 0.140625,0.234375 0.5625,0.734375 1.296875,0.734375 1.1875,0 2.21875,-0.984375 2.21875,-2.265625 0,-1.265625 -0.96875,-2.25 -2.109375,-2.25 -0.78125,0 -1.203125,0.46875 -1.359375,0.640625 z m 0.03125,2.625 0,-2.046875 c 0,-0.1875 0,-0.203125 0.109375,-0.359375 C 2.25,-4.109375 2.796875,-4.1875 3.03125,-4.1875 c 0.453125,0 0.8125,0.265625 1.046875,0.640625 0.265625,0.40625 0.28125,0.96875 0.28125,1.390625 0,0.359375 -0.015625,0.953125 -0.296875,1.40625 -0.21875,0.3125 -0.59375,0.640625 -1.125,0.640625 -0.453125,0 -0.8125,-0.234375 -1.046875,-0.609375 C 1.75,-0.921875 1.75,-0.953125 1.75,-1.140625 z m 0,0"
               style="stroke:none" />
          </symbol>
          <symbol
             id="textext-9e05c795-5"
             overflow="visible"
             style="overflow:visible">
            <path
               id="path22037"
               d="m 3.296875,2.390625 c 0,-0.03125 0,-0.046875 -0.171875,-0.21875 C 1.890625,0.921875 1.5625,-0.96875 1.5625,-2.5 c 0,-1.734375 0.375,-3.46875 1.609375,-4.703125 0.125,-0.125 0.125,-0.140625 0.125,-0.171875 0,-0.078125 -0.03125,-0.109375 -0.09375,-0.109375 -0.109375,0 -1,0.6875 -1.59375,1.953125 -0.5,1.09375 -0.625,2.203125 -0.625,3.03125 0,0.78125 0.109375,1.984375 0.65625,3.125 C 2.25,1.84375 3.09375,2.5 3.203125,2.5 c 0.0625,0 0.09375,-0.03125 0.09375,-0.109375 z m 0,0"
               style="stroke:none" />
          </symbol>
          <symbol
             id="textext-9e05c795-6"
             overflow="visible"
             style="overflow:visible">
            <path
               id="path22040"
               d="m 2.875,-2.5 c 0,-0.765625 -0.109375,-1.96875 -0.65625,-3.109375 -0.59375,-1.21875 -1.453125,-1.875 -1.546875,-1.875 -0.0625,0 -0.109375,0.046875 -0.109375,0.109375 0,0.03125 0,0.046875 0.1875,0.234375 0.984375,0.984375 1.546875,2.5625 1.546875,4.640625 0,1.71875 -0.359375,3.46875 -1.59375,4.71875 C 0.5625,2.34375 0.5625,2.359375 0.5625,2.390625 0.5625,2.453125 0.609375,2.5 0.671875,2.5 0.765625,2.5 1.671875,1.8125 2.25,0.546875 2.765625,-0.546875 2.875,-1.65625 2.875,-2.5 z m 0,0"
               style="stroke:none" />
          </symbol>
          <symbol
             id="textext-9e05c795-7"
             overflow="visible"
             style="overflow:visible">
            <path
               id="path22043"
               d=""
               style="stroke:none" />
          </symbol>
          <symbol
             id="textext-9e05c795-8"
             overflow="visible"
             style="overflow:visible">
            <path
               id="path22046"
               d="M 4.640625,-6.953125 C 4.5625,-7.09375 4.53125,-7.140625 4.421875,-7.140625 4.3125,-7.140625 4.25,-7.0625 4.203125,-6.953125 L 0.65625,-0.375 c -0.0625,0.109375 -0.0625,0.15625 -0.0625,0.171875 C 0.59375,0 0.78125,0 0.921875,0 L 7.9375,0 c 0.140625,0 0.328125,0 0.328125,-0.203125 0,-0.015625 0,-0.0625 -0.0625,-0.171875 l -3.5625,-6.578125 z m -0.21875,0.4375 3.3125,6.109375 -6.625,0 3.3125,-6.109375 z m 0,0"
               style="stroke:none" />
          </symbol>
        </g>
      </defs>
      <g
         id="textext-9e05c795-9">
        <g
           id="g22049"
           style="fill:#000000;fill-opacity:1">
          <use
             id="use22051"
             y="134.76469"
             x="223.4321"
             xlink:href="#textext-9e05c795-1"
             width="318.89764"
             height="212.59842" />
        </g>
        <g
           id="g22053"
           style="fill:#000000;fill-opacity:1">
          <use
             id="use22055"
             y="134.76469"
             x="229.7982"
             xlink:href="#textext-9e05c795-2"
             width="318.89764"
             height="212.59842" />
          <use
             id="use22057"
             y="134.76469"
             x="234.2216"
             xlink:href="#textext-9e05c795-3"
             width="318.89764"
             height="212.59842" />
        </g>
        <g
           id="g22059"
           style="fill:#000000;fill-opacity:1">
          <use
             id="use22061"
             y="134.76469"
             x="242.25145"
             xlink:href="#textext-9e05c795-4"
             width="318.89764"
             height="212.59842" />
        </g>
        <g
           id="g22063"
           style="fill:#000000;fill-opacity:1">
          <use
             id="use22065"
             y="134.76469"
             x="251.1082"
             xlink:href="#textext-9e05c795-5"
             width="318.89764"
             height="212.59842" />
        </g>
        <g
           id="g22067"
           style="fill:#000000;fill-opacity:1">
          <use
             id="use22069"
             y="134.76469"
             x="254.9805"
             xlink:href="#textext-9e05c795-8"
             width="318.89764"
             height="212.59842" />
        </g>
        <g
           id="g22071"
           style="fill:#000000;fill-opacity:1">
          <use
             id="use22073"
             y="134.76469"
             x="263.83621"
             xlink:href="#textext-9e05c795-6"
             width="318.89764"
             height="212.59842" />
        </g>
      </g>
    </g>
  </g>
</svg>
