<?xml version="1.0" encoding="UTF-8" standalone="no"?>
<!-- Created with Inkscape (http://www.inkscape.org/) -->
<svg
   xmlns:ns0="http://www.iki.fi/pav/software/textext/"
   xmlns:dc="http://purl.org/dc/elements/1.1/"
   xmlns:cc="http://creativecommons.org/ns#"
   xmlns:rdf="http://www.w3.org/1999/02/22-rdf-syntax-ns#"
   xmlns:svg="http://www.w3.org/2000/svg"
   xmlns="http://www.w3.org/2000/svg"
   xmlns:xlink="http://www.w3.org/1999/xlink"
   xmlns:sodipodi="http://sodipodi.sourceforge.net/DTD/sodipodi-0.dtd"
   xmlns:inkscape="http://www.inkscape.org/namespaces/inkscape"
   width="283.46457"
   height="212.59842"
   id="svg2"
   sodipodi:version="0.32"
   inkscape:version="0.46"
   version="1.0"
   sodipodi:docname="fig1.svg"
   inkscape:output_extension="org.inkscape.output.svg.inkscape">
  <sodipodi:namedview
     id="base"
     pagecolor="#ffffff"
     bordercolor="#666666"
     borderopacity="1.0"
     gridtolerance="10000"
     guidetolerance="10"
     objecttolerance="10"
     inkscape:pageopacity="0.0"
     inkscape:pageshadow="2"
     inkscape:zoom="0.49497475"
     inkscape:cx="-26.886899"
     inkscape:cy="-170.82287"
     inkscape:document-units="px"
     inkscape:current-layer="layer1"
     showgrid="false"
     units="cm"
     inkscape:window-width="1014"
     inkscape:window-height="726"
     inkscape:window-x="0"
     inkscape:window-y="27" />
  <defs
     id="defs4">
    <marker
       inkscape:stockid="Arrow1Lend"
       orient="auto"
       refY="0.0"
       refX="0.0"
       id="Arrow1Lend"
       style="overflow:visible;">
      <path
         id="path3287"
         d="M 0.0,0.0 L 5.0,-5.0 L -12.5,0.0 L 5.0,5.0 L 0.0,0.0 z "
         style="fill-rule:evenodd;stroke:#000000;stroke-width:1.0pt;marker-start:none;"
         transform="scale(0.8) rotate(180) translate(12.5,0)" />
    </marker>
    <inkscape:perspective
       sodipodi:type="inkscape:persp3d"
       inkscape:vp_x="0 : 526.18109 : 1"
       inkscape:vp_y="0 : 1000 : 0"
       inkscape:vp_z="744.09448 : 526.18109 : 1"
       inkscape:persp3d-origin="372.04724 : 350.78739 : 1"
       id="perspective10" />
  </defs>
  <metadata
     id="metadata7">
    <rdf:RDF>
      <cc:Work
         rdf:about="">
        <dc:format>image/svg+xml</dc:format>
        <dc:type
           rdf:resource="http://purl.org/dc/dcmitype/StillImage" />
      </cc:Work>
    </rdf:RDF>
  </metadata>
  <g
     inkscape:label="Layer 1"
     inkscape:groupmode="layer"
     id="layer1">
    <path
       style="fill:none;fill-rule:evenodd;stroke:#000000;stroke-width:1.20000005;stroke-linecap:butt;stroke-linejoin:miter;stroke-miterlimit:4;stroke-dasharray:none;stroke-opacity:1"
       d="M 13.953592,184.81922 L 257.84415,184.81922"
       id="path3265"
       sodipodi:nodetypes="cc" />
    <path
       sodipodi:type="arc"
       style="opacity:1;fill:none;fill-opacity:1;fill-rule:evenodd;stroke:#000000;stroke-width:1.15085983;stroke-linecap:butt;stroke-linejoin:miter;marker:none;marker-start:none;marker-mid:none;marker-end:none;stroke-miterlimit:4;stroke-dasharray:none;stroke-dashoffset:0;stroke-opacity:1;visibility:visible;display:inline;overflow:visible;enable-background:accumulate"
       id="path3267"
       sodipodi:cx="130.05714"
       sodipodi:cy="173.96008"
       sodipodi:rx="111.8744"
       sodipodi:ry="111.8744"
       d="M 128.41602,285.82244 A 111.8744,111.8744 0 0 1 18.184728,173.29434"
       transform="matrix(1.0782389,0,0,-1.0782389,-5.4214069,371.63013)"
       sodipodi:start="1.5854662"
       sodipodi:end="3.1475435"
       sodipodi:open="true" />
    <path
       sodipodi:open="true"
       sodipodi:end="3.1475435"
       sodipodi:start="1.5989891"
       transform="matrix(-1.0782389,0,0,-1.0782389,277.15662,371.63013)"
       d="M 126.90351,285.79002 A 111.8744,111.8744 0 0 1 18.184728,173.29434"
       sodipodi:ry="111.8744"
       sodipodi:rx="111.8744"
       sodipodi:cy="173.96008"
       sodipodi:cx="130.05714"
       id="path3269"
       style="opacity:1;fill:none;fill-opacity:1;fill-rule:evenodd;stroke:#000000;stroke-width:1.15085983;stroke-linecap:butt;stroke-linejoin:miter;marker:none;marker-start:none;marker-mid:none;marker-end:none;stroke-miterlimit:4;stroke-dasharray:none;stroke-dashoffset:0;stroke-opacity:1;visibility:visible;display:inline;overflow:visible;enable-background:accumulate"
       sodipodi:type="arc" />
    <path
       style="fill:none;fill-rule:evenodd;stroke:#000000;stroke-width:1.20000005;stroke-linecap:butt;stroke-linejoin:miter;stroke-miterlimit:4;stroke-dasharray:none;stroke-opacity:1"
       d="M 132.64286,63.312705 L 132.64286,122.10077"
       id="path3271"
       sodipodi:nodetypes="cc" />
    <path
       id="path3273"
       d="M 140.64286,63.312705 L 140.64286,122.35331"
       style="fill:none;fill-rule:evenodd;stroke:#000000;stroke-width:1.20000005;stroke-linecap:butt;stroke-linejoin:miter;stroke-miterlimit:4;stroke-dasharray:none;stroke-opacity:1"
       sodipodi:nodetypes="cc" />
    <path
       sodipodi:type="arc"
       style="opacity:1;fill:none;fill-opacity:1;fill-rule:evenodd;stroke:#000000;stroke-width:1.20000005;stroke-linecap:butt;stroke-linejoin:miter;marker:none;marker-start:none;marker-mid:none;marker-end:none;stroke-miterlimit:4;stroke-dasharray:none;stroke-dashoffset:0;stroke-opacity:1;visibility:visible;display:inline;overflow:visible;enable-background:accumulate"
       id="path3277"
       sodipodi:cx="142.67857"
       sodipodi:cy="153.49127"
       sodipodi:rx="21.25"
       sodipodi:ry="21.25"
       d="M 163.91319,152.6829 A 21.25,21.25 0 1 1 162.25656,145.229"
       transform="matrix(-0.1993456,-0.9799292,-0.9799292,0.1993456,315.10294,251.71988)"
       sodipodi:start="6.245135"
       sodipodi:end="12.167028"
       sodipodi:open="true" />
    <path
       style="fill:none;fill-rule:evenodd;stroke:#000000;stroke-width:0.60000002;stroke-linecap:butt;stroke-linejoin:miter;marker-end:url(#Arrow1Lend);stroke-miterlimit:4;stroke-dasharray:none;stroke-opacity:1"
       d="M 47.404611,100.90214 L 54.630987,93.843782"
       id="path3279" />
    <path
       id="path4059"
       d="M 132.47717,96.93304 L 132.47717,107.03457"
       style="fill:none;fill-rule:evenodd;stroke:#000000;stroke-width:0.60000002;stroke-linecap:butt;stroke-linejoin:miter;marker-end:url(#Arrow1Lend);stroke-miterlimit:4;stroke-dasharray:none;stroke-opacity:1" />
    <path
       style="fill:none;fill-rule:evenodd;stroke:#000000;stroke-width:0.60000002;stroke-linecap:butt;stroke-linejoin:miter;marker-end:url(#Arrow1Lend);stroke-miterlimit:4;stroke-dasharray:none;stroke-opacity:1"
       d="M 140.5689,93.325357 L 140.5689,83.223831"
       id="path4061" />
    <path
       id="path4063"
       d="M 216.80012,93.724572 L 224.17345,100.62927"
       style="fill:none;fill-rule:evenodd;stroke:#000000;stroke-width:0.60000002;stroke-linecap:butt;stroke-linejoin:miter;marker-end:url(#Arrow1Lend);stroke-miterlimit:4;stroke-dasharray:none;stroke-opacity:1" />
    <path
       style="fill:none;fill-rule:evenodd;stroke:#000000;stroke-width:0.60000002;stroke-linecap:butt;stroke-linejoin:miter;marker-end:url(#Arrow1Lend);stroke-miterlimit:4;stroke-dasharray:none;stroke-opacity:1"
       d="M 140.67079,184.62667 L 130.56926,184.62667"
       id="path4065" />
    <g
       transform="matrix(1.2,0,0,1.2,-144.95689,-102.02541)"
       ns0:text="$B$"
       ns0:preamble="/home/raghu/TIFR/Curves-on-rational-and-unirational-surfaces/figures/preample.tex"
       id="g4088">
      <defs
         id="defs4090">
        <g
           id="g4092">
          <symbol
             style="overflow:visible"
             overflow="visible"
             id="textext-7be4f6b2-0">
            <path
               style="stroke:none"
               d=""
               id="path4095" />
          </symbol>
          <symbol
             style="overflow:visible"
             overflow="visible"
             id="textext-7be4f6b2-1">
            <path
               style="stroke:none"
               d="M 1.59375,-0.78125 C 1.5,-0.390625 1.46875,-0.3125 0.6875,-0.3125 C 0.515625,-0.3125 0.421875,-0.3125 0.421875,-0.109375 C 0.421875,0 0.515625,0 0.6875,0 L 4.25,0 C 5.828125,0 7,-1.171875 7,-2.15625 C 7,-2.875 6.421875,-3.453125 5.453125,-3.5625 C 6.484375,-3.75 7.53125,-4.484375 7.53125,-5.4375 C 7.53125,-6.171875 6.875,-6.8125 5.6875,-6.8125 L 2.328125,-6.8125 C 2.140625,-6.8125 2.046875,-6.8125 2.046875,-6.609375 C 2.046875,-6.5 2.140625,-6.5 2.328125,-6.5 C 2.34375,-6.5 2.53125,-6.5 2.703125,-6.484375 C 2.875,-6.453125 2.96875,-6.453125 2.96875,-6.3125 C 2.96875,-6.28125 2.953125,-6.25 2.9375,-6.125 L 1.59375,-0.78125 z M 3.09375,-3.65625 L 3.71875,-6.125 C 3.8125,-6.46875 3.828125,-6.5 4.25,-6.5 L 5.546875,-6.5 C 6.421875,-6.5 6.625,-5.90625 6.625,-5.46875 C 6.625,-4.59375 5.765625,-3.65625 4.5625,-3.65625 L 3.09375,-3.65625 z M 2.65625,-0.3125 C 2.515625,-0.3125 2.5,-0.3125 2.4375,-0.3125 C 2.328125,-0.328125 2.296875,-0.34375 2.296875,-0.421875 C 2.296875,-0.453125 2.296875,-0.46875 2.359375,-0.640625 L 3.046875,-3.421875 L 4.921875,-3.421875 C 5.875,-3.421875 6.078125,-2.6875 6.078125,-2.265625 C 6.078125,-1.28125 5.1875,-0.3125 4,-0.3125 L 2.65625,-0.3125 z"
               id="path4098" />
          </symbol>
        </g>
      </defs>
      <g
         id="textext-7be4f6b2-2">
        <g
           style="fill:#000000;fill-opacity:1"
           id="g4101">
          <use
             height="212.59842"
             width="283.46457"
             xlink:href="#textext-7be4f6b2-1"
             x="223.43201"
             y="134.765"
             id="use4103" />
        </g>
      </g>
    </g>
    <g
       id="g4185"
       transform="matrix(1.2,0,0,1.2,-126.47213,-102.02541)"
       ns0:preamble="/home/raghu/TIFR/Curves-on-rational-and-unirational-surfaces/figures/preample.tex"
       ns0:text="$F$">
      <defs
         id="defs4187">
        <g
           id="g4189">
          <symbol
             id="textext-4db8df73-0"
             overflow="visible"
             style="overflow:visible">
            <path
               id="path4192"
               d=""
               style="stroke:none" />
          </symbol>
          <symbol
             id="textext-4db8df73-1"
             overflow="visible"
             style="overflow:visible">
            <path
               id="path4195"
               d="M 3.015625,-3.234375 L 3.984375,-3.234375 C 4.734375,-3.234375 4.8125,-3.078125 4.8125,-2.796875 C 4.8125,-2.71875 4.8125,-2.609375 4.75,-2.296875 C 4.71875,-2.25 4.71875,-2.21875 4.71875,-2.1875 C 4.71875,-2.109375 4.78125,-2.078125 4.828125,-2.078125 C 4.9375,-2.078125 4.9375,-2.109375 4.984375,-2.28125 L 5.53125,-4.453125 C 5.5625,-4.5625 5.5625,-4.578125 5.5625,-4.609375 C 5.5625,-4.625 5.546875,-4.71875 5.4375,-4.71875 C 5.34375,-4.71875 5.328125,-4.671875 5.296875,-4.5 C 5.078125,-3.734375 4.859375,-3.546875 4,-3.546875 L 3.09375,-3.546875 L 3.734375,-6.078125 C 3.828125,-6.4375 3.84375,-6.46875 4.28125,-6.46875 L 5.59375,-6.46875 C 6.8125,-6.46875 7.046875,-6.140625 7.046875,-5.375 C 7.046875,-5.140625 7.046875,-5.109375 7.015625,-4.828125 C 7,-4.703125 7,-4.6875 7,-4.65625 C 7,-4.609375 7.03125,-4.53125 7.125,-4.53125 C 7.234375,-4.53125 7.234375,-4.59375 7.25,-4.78125 L 7.453125,-6.515625 C 7.484375,-6.78125 7.4375,-6.78125 7.1875,-6.78125 L 2.296875,-6.78125 C 2.109375,-6.78125 2,-6.78125 2,-6.578125 C 2,-6.46875 2.09375,-6.46875 2.28125,-6.46875 C 2.65625,-6.46875 2.9375,-6.46875 2.9375,-6.296875 C 2.9375,-6.25 2.9375,-6.234375 2.875,-6.046875 L 1.5625,-0.78125 C 1.46875,-0.390625 1.453125,-0.3125 0.65625,-0.3125 C 0.484375,-0.3125 0.375,-0.3125 0.375,-0.125 C 0.375,0 0.5,0 0.53125,0 C 0.8125,0 1.5625,-0.03125 1.84375,-0.03125 C 2.171875,-0.03125 3,0 3.328125,0 C 3.421875,0 3.53125,0 3.53125,-0.1875 C 3.53125,-0.265625 3.484375,-0.296875 3.484375,-0.296875 C 3.453125,-0.3125 3.421875,-0.3125 3.203125,-0.3125 C 2.984375,-0.3125 2.9375,-0.3125 2.6875,-0.328125 C 2.390625,-0.359375 2.359375,-0.40625 2.359375,-0.53125 C 2.359375,-0.546875 2.359375,-0.609375 2.40625,-0.75 L 3.015625,-3.234375 z"
               style="stroke:none" />
          </symbol>
        </g>
      </defs>
      <g
         id="textext-4db8df73-2">
        <g
           id="g4198"
           style="fill:#000000;fill-opacity:1">
          <use
             id="use4200"
             y="134.765"
             x="223.43201"
             xlink:href="#textext-4db8df73-1"
             width="283.46457"
             height="212.59842" />
        </g>
      </g>
    </g>
    <g
       ns0:text="$C$"
       ns0:preamble="/home/raghu/TIFR/Curves-on-rational-and-unirational-surfaces/figures/preample.tex"
       transform="matrix(1.2,0,0,1.2,-148.30968,-43.317283)"
       id="g4302">
      <defs
         id="defs4304">
        <g
           id="g4306">
          <symbol
             style="overflow:visible"
             overflow="visible"
             id="textext-30044df5-0">
            <path
               style="stroke:none"
               d=""
               id="path4309" />
          </symbol>
          <symbol
             style="overflow:visible"
             overflow="visible"
             id="textext-30044df5-1">
            <path
               style="stroke:none"
               d="M 7.578125,-6.921875 C 7.578125,-6.953125 7.5625,-7.03125 7.46875,-7.03125 C 7.4375,-7.03125 7.421875,-7.015625 7.3125,-6.90625 L 6.625,-6.140625 C 6.53125,-6.28125 6.078125,-7.03125 4.96875,-7.03125 C 2.734375,-7.03125 0.5,-4.828125 0.5,-2.515625 C 0.5,-0.875 1.671875,0.21875 3.203125,0.21875 C 4.0625,0.21875 4.828125,-0.171875 5.359375,-0.640625 C 6.28125,-1.453125 6.453125,-2.359375 6.453125,-2.390625 C 6.453125,-2.5 6.34375,-2.5 6.328125,-2.5 C 6.265625,-2.5 6.21875,-2.46875 6.203125,-2.390625 C 6.109375,-2.109375 5.875,-1.390625 5.1875,-0.8125 C 4.5,-0.265625 3.875,-0.09375 3.359375,-0.09375 C 2.46875,-0.09375 1.40625,-0.609375 1.40625,-2.15625 C 1.40625,-2.734375 1.609375,-4.34375 2.609375,-5.515625 C 3.21875,-6.21875 4.15625,-6.71875 5.046875,-6.71875 C 6.0625,-6.71875 6.65625,-5.953125 6.65625,-4.796875 C 6.65625,-4.390625 6.625,-4.390625 6.625,-4.28125 C 6.625,-4.1875 6.734375,-4.1875 6.765625,-4.1875 C 6.890625,-4.1875 6.890625,-4.203125 6.953125,-4.390625 L 7.578125,-6.921875 z"
               id="path4312" />
          </symbol>
        </g>
      </defs>
      <g
         id="textext-30044df5-2">
        <g
           style="fill:#000000;fill-opacity:1"
           id="g4315">
          <use
             height="212.59842"
             width="283.46457"
             xlink:href="#textext-30044df5-1"
             x="223.43201"
             y="134.765"
             id="use4317" />
        </g>
      </g>
    </g>
    <g
       id="g4439"
       transform="matrix(1.2,0,0,1.2,-124.83507,-43.822359)"
       ns0:preamble="/home/raghu/TIFR/Curves-on-rational-and-unirational-surfaces/figures/preample.tex"
       ns0:text="$E$">
      <defs
         id="defs4441">
        <g
           id="g4443">
          <symbol
             id="textext-13340aa4-0"
             overflow="visible"
             style="overflow:visible">
            <path
               id="path4446"
               d=""
               style="stroke:none" />
          </symbol>
          <symbol
             id="textext-13340aa4-1"
             overflow="visible"
             style="overflow:visible">
            <path
               id="path4449"
               d="M 7.0625,-2.328125 C 7.078125,-2.375 7.109375,-2.4375 7.109375,-2.46875 C 7.109375,-2.46875 7.109375,-2.578125 6.984375,-2.578125 C 6.890625,-2.578125 6.875,-2.515625 6.859375,-2.453125 C 6.203125,-0.984375 5.84375,-0.3125 4.140625,-0.3125 L 2.6875,-0.3125 C 2.546875,-0.3125 2.515625,-0.3125 2.46875,-0.3125 C 2.359375,-0.328125 2.328125,-0.34375 2.328125,-0.421875 C 2.328125,-0.453125 2.328125,-0.46875 2.375,-0.640625 L 3.0625,-3.375 L 4.046875,-3.375 C 4.890625,-3.375 4.890625,-3.15625 4.890625,-2.90625 C 4.890625,-2.84375 4.890625,-2.71875 4.828125,-2.421875 C 4.8125,-2.375 4.796875,-2.34375 4.796875,-2.3125 C 4.796875,-2.265625 4.828125,-2.203125 4.921875,-2.203125 C 5,-2.203125 5.03125,-2.25 5.078125,-2.40625 L 5.640625,-4.734375 C 5.640625,-4.796875 5.59375,-4.84375 5.515625,-4.84375 C 5.4375,-4.84375 5.40625,-4.78125 5.390625,-4.671875 C 5.171875,-3.90625 5,-3.671875 4.078125,-3.671875 L 3.140625,-3.671875 L 3.734375,-6.078125 C 3.828125,-6.4375 3.84375,-6.46875 4.28125,-6.46875 L 5.6875,-6.46875 C 6.890625,-6.46875 7.203125,-6.1875 7.203125,-5.359375 C 7.203125,-5.125 7.203125,-5.109375 7.15625,-4.828125 C 7.15625,-4.78125 7.140625,-4.703125 7.140625,-4.65625 C 7.140625,-4.609375 7.171875,-4.53125 7.265625,-4.53125 C 7.375,-4.53125 7.390625,-4.59375 7.40625,-4.78125 L 7.609375,-6.515625 C 7.640625,-6.78125 7.59375,-6.78125 7.34375,-6.78125 L 2.296875,-6.78125 C 2.109375,-6.78125 2,-6.78125 2,-6.578125 C 2,-6.46875 2.09375,-6.46875 2.28125,-6.46875 C 2.65625,-6.46875 2.9375,-6.46875 2.9375,-6.296875 C 2.9375,-6.25 2.9375,-6.234375 2.875,-6.046875 L 1.5625,-0.78125 C 1.46875,-0.390625 1.453125,-0.3125 0.65625,-0.3125 C 0.484375,-0.3125 0.375,-0.3125 0.375,-0.125 C 0.375,0 0.46875,0 0.65625,0 L 5.828125,0 C 6.0625,0 6.078125,-0.015625 6.140625,-0.171875 L 7.0625,-2.328125 z"
               style="stroke:none" />
          </symbol>
        </g>
      </defs>
      <g
         id="textext-13340aa4-2">
        <g
           id="g4452"
           style="fill:#000000;fill-opacity:1">
          <use
             id="use4454"
             y="134.765"
             x="223.43201"
             xlink:href="#textext-13340aa4-1"
             width="283.46457"
             height="212.59842" />
        </g>
      </g>
    </g>
    <path
       id="path4515"
       d="M 131.07434,163.63683 L 141.17587,163.63683"
       style="fill:none;fill-rule:evenodd;stroke:#000000;stroke-width:0.60000002;stroke-linecap:butt;stroke-linejoin:miter;marker-end:url(#Arrow1Lend);stroke-miterlimit:4;stroke-dasharray:none;stroke-opacity:1" />
    <g
       ns0:text="$D$"
       ns0:preamble="/home/raghu/TIFR/Curves-on-rational-and-unirational-surfaces/figures/preample.tex"
       transform="matrix(1.2,0,0,1.2,-120.49244,9.7157259)"
       id="g4599">
      <defs
         id="defs4601">
        <g
           id="g4603">
          <symbol
             style="overflow:visible"
             overflow="visible"
             id="textext-cac993e9-0">
            <path
               style="stroke:none"
               d=""
               id="path4606" />
          </symbol>
          <symbol
             style="overflow:visible"
             overflow="visible"
             id="textext-cac993e9-1">
            <path
               style="stroke:none"
               d="M 1.578125,-0.78125 C 1.484375,-0.390625 1.46875,-0.3125 0.671875,-0.3125 C 0.515625,-0.3125 0.40625,-0.3125 0.40625,-0.125 C 0.40625,0 0.484375,0 0.671875,0 L 3.984375,0 C 6.046875,0 8.015625,-2.109375 8.015625,-4.28125 C 8.015625,-5.6875 7.171875,-6.8125 5.671875,-6.8125 L 2.328125,-6.8125 C 2.140625,-6.8125 2.03125,-6.8125 2.03125,-6.625 C 2.03125,-6.5 2.109375,-6.5 2.3125,-6.5 C 2.4375,-6.5 2.625,-6.484375 2.734375,-6.484375 C 2.90625,-6.453125 2.953125,-6.4375 2.953125,-6.3125 C 2.953125,-6.28125 2.953125,-6.25 2.921875,-6.125 L 1.578125,-0.78125 z M 3.734375,-6.125 C 3.828125,-6.46875 3.84375,-6.5 4.28125,-6.5 L 5.34375,-6.5 C 6.3125,-6.5 7.140625,-5.96875 7.140625,-4.65625 C 7.140625,-4.171875 6.953125,-2.53125 6.09375,-1.4375 C 5.8125,-1.0625 5.03125,-0.3125 3.796875,-0.3125 L 2.671875,-0.3125 C 2.53125,-0.3125 2.515625,-0.3125 2.453125,-0.3125 C 2.359375,-0.328125 2.328125,-0.34375 2.328125,-0.421875 C 2.328125,-0.453125 2.328125,-0.46875 2.375,-0.640625 L 3.734375,-6.125 z"
               id="path4609" />
          </symbol>
        </g>
      </defs>
      <g
         id="textext-cac993e9-2">
        <g
           style="fill:#000000;fill-opacity:1"
           id="g4612">
          <use
             height="212.59842"
             width="283.46457"
             xlink:href="#textext-cac993e9-1"
             x="223.43201"
             y="134.765"
             id="use4614" />
        </g>
      </g>
    </g>
    <g
       id="g4778"
       transform="matrix(1.2,0,0,1.2,-259.63208,35.979692)"
       ns0:preamble="/home/raghu/TIFR/Curves-on-rational-and-unirational-surfaces/figures/preample.tex"
       ns0:text="$A$">
      <defs
         id="defs4780">
        <g
           id="g4782">
          <symbol
             id="textext-12f8d909-0"
             overflow="visible"
             style="overflow:visible">
            <path
               id="path4785"
               d=""
               style="stroke:none" />
          </symbol>
          <symbol
             id="textext-12f8d909-1"
             overflow="visible"
             style="overflow:visible">
            <path
               id="path4788"
               d="M 1.78125,-1.140625 C 1.390625,-0.484375 1,-0.34375 0.5625,-0.3125 C 0.4375,-0.296875 0.34375,-0.296875 0.34375,-0.109375 C 0.34375,-0.046875 0.40625,0 0.484375,0 C 0.75,0 1.0625,-0.03125 1.328125,-0.03125 C 1.671875,-0.03125 2.015625,0 2.328125,0 C 2.390625,0 2.515625,0 2.515625,-0.1875 C 2.515625,-0.296875 2.4375,-0.3125 2.359375,-0.3125 C 2.140625,-0.328125 1.890625,-0.40625 1.890625,-0.65625 C 1.890625,-0.78125 1.953125,-0.890625 2.03125,-1.03125 C 2.109375,-1.140625 2.109375,-1.140625 2.796875,-2.296875 L 5.296875,-2.296875 C 5.3125,-2.09375 5.453125,-0.734375 5.453125,-0.640625 C 5.453125,-0.34375 4.9375,-0.3125 4.734375,-0.3125 C 4.59375,-0.3125 4.5,-0.3125 4.5,-0.109375 C 4.5,0 4.609375,0 4.640625,0 C 5.046875,0 5.46875,-0.03125 5.875,-0.03125 C 6.125,-0.03125 6.765625,0 7.015625,0 C 7.0625,0 7.1875,0 7.1875,-0.203125 C 7.1875,-0.3125 7.09375,-0.3125 6.953125,-0.3125 C 6.34375,-0.3125 6.34375,-0.375 6.3125,-0.671875 L 5.703125,-6.890625 C 5.6875,-7.09375 5.6875,-7.140625 5.515625,-7.140625 C 5.359375,-7.140625 5.3125,-7.0625 5.25,-6.96875 L 1.78125,-1.140625 z M 2.984375,-2.609375 L 4.9375,-5.90625 L 5.265625,-2.609375 L 2.984375,-2.609375 z"
               style="stroke:none" />
          </symbol>
        </g>
      </defs>
      <g
         id="textext-12f8d909-2">
        <g
           id="g4791"
           style="fill:#000000;fill-opacity:1">
          <use
             id="use4793"
             y="134.765"
             x="223.43201"
             xlink:href="#textext-12f8d909-1"
             width="283.46457"
             height="212.59842" />
        </g>
      </g>
    </g>
    <g
       ns0:text="$G$"
       ns0:preamble="/home/raghu/TIFR/Curves-on-rational-and-unirational-surfaces/figures/preample.tex"
       transform="matrix(1.2,0,0,1.2,-16.601622,35.474616)"
       id="g4977">
      <defs
         id="defs4979">
        <g
           id="g4981">
          <symbol
             style="overflow:visible"
             overflow="visible"
             id="textext-6d27e3ff-0">
            <path
               style="stroke:none"
               d=""
               id="path4984" />
          </symbol>
          <symbol
             style="overflow:visible"
             overflow="visible"
             id="textext-6d27e3ff-1">
            <path
               style="stroke:none"
               d="M 7.578125,-6.921875 C 7.578125,-6.953125 7.5625,-7.03125 7.46875,-7.03125 C 7.4375,-7.03125 7.421875,-7.015625 7.3125,-6.90625 L 6.625,-6.140625 C 6.53125,-6.28125 6.078125,-7.03125 4.96875,-7.03125 C 2.734375,-7.03125 0.5,-4.828125 0.5,-2.515625 C 0.5,-0.921875 1.609375,0.21875 3.21875,0.21875 C 3.65625,0.21875 4.109375,0.125 4.46875,-0.015625 C 4.96875,-0.21875 5.15625,-0.421875 5.328125,-0.625 C 5.421875,-0.375 5.6875,-0.015625 5.78125,-0.015625 C 5.828125,-0.015625 5.859375,-0.046875 5.859375,-0.046875 C 5.875,-0.0625 5.96875,-0.453125 6.015625,-0.65625 L 6.203125,-1.421875 C 6.25,-1.59375 6.296875,-1.765625 6.34375,-1.9375 C 6.453125,-2.375 6.453125,-2.40625 7.03125,-2.40625 C 7.078125,-2.40625 7.1875,-2.421875 7.1875,-2.609375 C 7.1875,-2.6875 7.140625,-2.71875 7.0625,-2.71875 C 6.828125,-2.71875 6.234375,-2.6875 6.015625,-2.6875 C 5.703125,-2.6875 4.921875,-2.71875 4.609375,-2.71875 C 4.53125,-2.71875 4.40625,-2.71875 4.40625,-2.515625 C 4.40625,-2.40625 4.484375,-2.40625 4.703125,-2.40625 C 4.71875,-2.40625 5,-2.40625 5.234375,-2.390625 C 5.5,-2.359375 5.546875,-2.328125 5.546875,-2.203125 C 5.546875,-2.109375 5.4375,-1.671875 5.328125,-1.296875 C 5.046875,-0.203125 3.765625,-0.09375 3.40625,-0.09375 C 2.453125,-0.09375 1.40625,-0.65625 1.40625,-2.1875 C 1.40625,-2.5 1.5,-4.140625 2.546875,-5.4375 C 3.09375,-6.109375 4.0625,-6.71875 5.046875,-6.71875 C 6.0625,-6.71875 6.65625,-5.953125 6.65625,-4.796875 C 6.65625,-4.390625 6.625,-4.390625 6.625,-4.28125 C 6.625,-4.1875 6.734375,-4.1875 6.765625,-4.1875 C 6.890625,-4.1875 6.890625,-4.203125 6.953125,-4.390625 L 7.578125,-6.921875 z"
               id="path4987" />
          </symbol>
        </g>
      </defs>
      <g
         id="textext-6d27e3ff-2">
        <g
           style="fill:#000000;fill-opacity:1"
           id="g4990">
          <use
             height="212.59842"
             width="283.46457"
             xlink:href="#textext-6d27e3ff-1"
             x="223.43201"
             y="134.765"
             id="use4992" />
        </g>
      </g>
    </g>
    <g
       id="g5176"
       ns0:preamble="/home/raghu/TIFR/Curves-on-rational-and-unirational-surfaces/figures/preample.tex"
       ns0:text="$\\zeta_{x}=i$"
       transform="matrix(1.2,0,0,1.2,-146.9772,-14.142136)">
      <defs
         id="defs5178">
        <g
           id="g5180">
          <symbol
             id="textext-e4ab839f-0"
             overflow="visible"
             style="overflow:visible">
            <path
               id="path5183"
               d=""
               style="stroke:none" />
          </symbol>
          <symbol
             id="textext-e4ab839f-1"
             overflow="visible"
             style="overflow:visible">
            <path
               id="path5186"
               d="M 3.234375,-5.765625 C 3.40625,-5.59375 3.640625,-5.59375 3.84375,-5.59375 C 4.09375,-5.59375 4.71875,-5.59375 4.71875,-5.90625 C 4.71875,-6.15625 4.328125,-6.171875 3.921875,-6.171875 C 3.8125,-6.171875 3.546875,-6.171875 3.296875,-6.078125 C 3.234375,-6.1875 3.21875,-6.234375 3.21875,-6.453125 C 3.21875,-6.59375 3.265625,-6.796875 3.265625,-6.8125 C 3.265625,-6.890625 3.21875,-6.953125 3.15625,-6.953125 C 2.96875,-6.953125 2.96875,-6.484375 2.96875,-6.453125 C 2.96875,-6.296875 3,-6.109375 3.078125,-5.96875 C 2.03125,-5.4375 0.453125,-3.59375 0.453125,-1.671875 C 0.453125,-0.265625 1.359375,0.046875 2.078125,0.28125 C 2.375,0.390625 2.40625,0.390625 2.6875,0.484375 C 2.90625,0.5625 3.3125,0.703125 3.3125,1.171875 C 3.3125,1.4375 3.125,1.828125 2.75,1.828125 C 2.5,1.828125 2.21875,1.703125 2.015625,1.53125 C 1.9375,1.46875 1.9375,1.453125 1.890625,1.453125 C 1.84375,1.453125 1.796875,1.5 1.796875,1.5625 C 1.796875,1.671875 2.21875,2.046875 2.75,2.046875 C 3.375,2.046875 3.84375,1.40625 3.84375,0.84375 C 3.84375,0.453125 3.65625,0.25 3.5625,0.171875 C 3.40625,-0.015625 3.203125,-0.078125 2.625,-0.28125 C 1.828125,-0.546875 1.671875,-0.59375 1.421875,-0.8125 C 1,-1.1875 1,-1.75 1,-1.9375 C 1,-3.484375 2.21875,-5.234375 3.234375,-5.765625 z M 3.453125,-5.875 C 3.609375,-5.953125 3.78125,-5.953125 3.921875,-5.953125 C 4.25,-5.953125 4.28125,-5.9375 4.46875,-5.890625 C 4.390625,-5.859375 4.28125,-5.8125 3.84375,-5.8125 C 3.640625,-5.8125 3.5625,-5.8125 3.453125,-5.875 z"
               style="stroke:none" />
          </symbol>
          <symbol
             id="textext-e4ab839f-2"
             overflow="visible"
             style="overflow:visible">
            <path
               id="path5189"
               d="M 2.828125,-6.234375 C 2.828125,-6.4375 2.6875,-6.59375 2.46875,-6.59375 C 2.1875,-6.59375 1.921875,-6.328125 1.921875,-6.0625 C 1.921875,-5.875 2.0625,-5.703125 2.296875,-5.703125 C 2.53125,-5.703125 2.828125,-5.9375 2.828125,-6.234375 z M 2.078125,-2.484375 C 2.1875,-2.765625 2.1875,-2.796875 2.296875,-3.0625 C 2.375,-3.265625 2.421875,-3.40625 2.421875,-3.59375 C 2.421875,-4.03125 2.109375,-4.40625 1.609375,-4.40625 C 0.671875,-4.40625 0.296875,-2.953125 0.296875,-2.875 C 0.296875,-2.765625 0.390625,-2.765625 0.40625,-2.765625 C 0.515625,-2.765625 0.515625,-2.796875 0.5625,-2.953125 C 0.84375,-3.890625 1.234375,-4.1875 1.578125,-4.1875 C 1.65625,-4.1875 1.828125,-4.1875 1.828125,-3.875 C 1.828125,-3.65625 1.75,-3.453125 1.71875,-3.34375 C 1.640625,-3.09375 1.1875,-1.9375 1.03125,-1.5 C 0.921875,-1.25 0.796875,-0.921875 0.796875,-0.703125 C 0.796875,-0.234375 1.140625,0.109375 1.609375,0.109375 C 2.546875,0.109375 2.921875,-1.328125 2.921875,-1.421875 C 2.921875,-1.53125 2.828125,-1.53125 2.796875,-1.53125 C 2.703125,-1.53125 2.703125,-1.5 2.65625,-1.34375 C 2.46875,-0.71875 2.140625,-0.109375 1.640625,-0.109375 C 1.46875,-0.109375 1.390625,-0.203125 1.390625,-0.4375 C 1.390625,-0.6875 1.453125,-0.828125 1.6875,-1.4375 L 2.078125,-2.484375 z"
               style="stroke:none" />
          </symbol>
          <symbol
             id="textext-e4ab839f-3"
             overflow="visible"
             style="overflow:visible">
            <path
               id="path5192"
               d=""
               style="stroke:none" />
          </symbol>
          <symbol
             id="textext-e4ab839f-4"
             overflow="visible"
             style="overflow:visible">
            <path
               id="path5195"
               d="M 1.734375,-0.734375 C 1.671875,-0.5 1.4375,-0.125 1.078125,-0.125 C 1.0625,-0.125 0.84375,-0.125 0.703125,-0.21875 C 0.984375,-0.3125 1.015625,-0.5625 1.015625,-0.609375 C 1.015625,-0.765625 0.890625,-0.859375 0.734375,-0.859375 C 0.53125,-0.859375 0.328125,-0.703125 0.328125,-0.4375 C 0.328125,-0.09375 0.71875,0.0625 1.0625,0.0625 C 1.390625,0.0625 1.671875,-0.125 1.84375,-0.421875 C 2.015625,-0.0625 2.390625,0.0625 2.671875,0.0625 C 3.484375,0.0625 3.90625,-0.796875 3.90625,-1 C 3.90625,-1.09375 3.8125,-1.09375 3.796875,-1.09375 C 3.6875,-1.09375 3.6875,-1.046875 3.65625,-0.96875 C 3.515625,-0.484375 3.09375,-0.125 2.703125,-0.125 C 2.421875,-0.125 2.28125,-0.3125 2.28125,-0.578125 C 2.28125,-0.765625 2.453125,-1.390625 2.640625,-2.171875 C 2.78125,-2.703125 3.09375,-2.875 3.328125,-2.875 C 3.34375,-2.875 3.546875,-2.875 3.703125,-2.78125 C 3.484375,-2.71875 3.390625,-2.515625 3.390625,-2.390625 C 3.390625,-2.25 3.515625,-2.140625 3.671875,-2.140625 C 3.828125,-2.140625 4.0625,-2.265625 4.0625,-2.5625 C 4.0625,-2.953125 3.609375,-3.078125 3.34375,-3.078125 C 2.984375,-3.078125 2.703125,-2.84375 2.5625,-2.578125 C 2.4375,-2.859375 2.109375,-3.078125 1.71875,-3.078125 C 0.9375,-3.078125 0.5,-2.21875 0.5,-2 C 0.5,-1.921875 0.59375,-1.921875 0.609375,-1.921875 C 0.703125,-1.921875 0.703125,-1.9375 0.75,-2.03125 C 0.921875,-2.578125 1.359375,-2.875 1.703125,-2.875 C 1.9375,-2.875 2.125,-2.75 2.125,-2.421875 C 2.125,-2.28125 2.03125,-1.9375 1.96875,-1.6875 L 1.734375,-0.734375 z"
               style="stroke:none" />
          </symbol>
          <symbol
             id="textext-e4ab839f-5"
             overflow="visible"
             style="overflow:visible">
            <path
               id="path5198"
               d=""
               style="stroke:none" />
          </symbol>
          <symbol
             id="textext-e4ab839f-6"
             overflow="visible"
             style="overflow:visible">
            <path
               id="path5201"
               d="M 6.84375,-3.265625 C 7,-3.265625 7.1875,-3.265625 7.1875,-3.453125 C 7.1875,-3.65625 7,-3.65625 6.859375,-3.65625 L 0.890625,-3.65625 C 0.75,-3.65625 0.5625,-3.65625 0.5625,-3.453125 C 0.5625,-3.265625 0.75,-3.265625 0.890625,-3.265625 L 6.84375,-3.265625 z M 6.859375,-1.328125 C 7,-1.328125 7.1875,-1.328125 7.1875,-1.53125 C 7.1875,-1.71875 7,-1.71875 6.84375,-1.71875 L 0.890625,-1.71875 C 0.75,-1.71875 0.5625,-1.71875 0.5625,-1.53125 C 0.5625,-1.328125 0.75,-1.328125 0.890625,-1.328125 L 6.859375,-1.328125 z"
               style="stroke:none" />
          </symbol>
        </g>
      </defs>
      <g
         id="textext-e4ab839f-7">
        <g
           id="g5204"
           style="fill:#000000;fill-opacity:1">
          <use
             id="use5206"
             y="134.765"
             x="223.43201"
             xlink:href="#textext-e4ab839f-1"
             width="283.46457"
             height="212.59842" />
        </g>
        <g
           id="g5208"
           style="fill:#000000;fill-opacity:1">
          <use
             id="use5210"
             y="136.259"
             x="227.791"
             xlink:href="#textext-e4ab839f-4"
             width="283.46457"
             height="212.59842" />
        </g>
        <g
           id="g5212"
           style="fill:#000000;fill-opacity:1">
          <use
             id="use5214"
             y="134.765"
             x="235.57401"
             xlink:href="#textext-e4ab839f-6"
             width="283.46457"
             height="212.59842" />
        </g>
        <g
           id="g5216"
           style="fill:#000000;fill-opacity:1">
          <use
             id="use5218"
             y="134.765"
             x="246.09"
             xlink:href="#textext-e4ab839f-2"
             width="283.46457"
             height="212.59842" />
        </g>
      </g>
    </g>
  </g>
</svg>
