<?xml version="1.0" encoding="UTF-8" standalone="no"?>
<!-- Created with Inkscape (http://www.inkscape.org/) -->

<svg
   xmlns:ns0="http://www.iki.fi/pav/software/textext/"
   xmlns:dc="http://purl.org/dc/elements/1.1/"
   xmlns:cc="http://creativecommons.org/ns#"
   xmlns:rdf="http://www.w3.org/1999/02/22-rdf-syntax-ns#"
   xmlns:svg="http://www.w3.org/2000/svg"
   xmlns="http://www.w3.org/2000/svg"
   xmlns:xlink="http://www.w3.org/1999/xlink"
   xmlns:sodipodi="http://sodipodi.sourceforge.net/DTD/sodipodi-0.dtd"
   xmlns:inkscape="http://www.inkscape.org/namespaces/inkscape"
   width="212.59842"
   height="177.16534"
   id="svg2"
   version="1.1"
   inkscape:version="0.47 r22583"
   sodipodi:docname="fig29-5.svg">
  <sodipodi:namedview
     id="base"
     pagecolor="#ffffff"
     bordercolor="#666666"
     borderopacity="1.0"
     inkscape:pageopacity="0.0"
     inkscape:pageshadow="2"
     inkscape:zoom="2.1474245"
     inkscape:cx="106.00276"
     inkscape:cy="78.828966"
     inkscape:document-units="cm"
     inkscape:current-layer="layer1"
     showgrid="false"
     units="cm"
     inkscape:window-width="649"
     inkscape:window-height="630"
     inkscape:window-x="367"
     inkscape:window-y="67"
     inkscape:window-maximized="0"
     showguides="true"
     inkscape:guide-bbox="true">
    <inkscape:grid
       type="xygrid"
       id="grid2816"
       empspacing="5"
       visible="true"
       enabled="true"
       snapvisiblegridlinesonly="true" />
  </sodipodi:namedview>
  <defs
     id="defs4">
    <marker
       inkscape:stockid="Arrow1Mend"
       orient="auto"
       refY="0.0"
       refX="0.0"
       id="Arrow1Mend"
       style="overflow:visible;">
      <path
         id="path3604"
         d="M 0.0,0.0 L 5.0,-5.0 L -12.5,0.0 L 5.0,5.0 L 0.0,0.0 z "
         style="fill-rule:evenodd;stroke:#000000;stroke-width:1.0pt;marker-start:none;"
         transform="scale(0.4) rotate(180) translate(10,0)" />
    </marker>
    <inkscape:perspective
       sodipodi:type="inkscape:persp3d"
       inkscape:vp_x="0 : 526.18109 : 1"
       inkscape:vp_y="0 : 1000 : 0"
       inkscape:vp_z="744.09448 : 526.18109 : 1"
       inkscape:persp3d-origin="372.04724 : 350.78739 : 1"
       id="perspective10" />
    <inkscape:perspective
       sodipodi:type="inkscape:persp3d"
       inkscape:vp_x="0 : 0.5 : 1"
       inkscape:vp_y="0 : 1000 : 0"
       inkscape:vp_z="1 : 0.5 : 1"
       inkscape:persp3d-origin="0.5 : 0.33333333 : 1"
       id="perspective4117" />
    <inkscape:perspective
       id="perspective4117-2"
       inkscape:persp3d-origin="0.5 : 0.33333333 : 1"
       inkscape:vp_z="1 : 0.5 : 1"
       inkscape:vp_y="0 : 1000 : 0"
       inkscape:vp_x="0 : 0.5 : 1"
       sodipodi:type="inkscape:persp3d" />
    <inkscape:perspective
       sodipodi:type="inkscape:persp3d"
       inkscape:vp_x="0 : 0.5 : 1"
       inkscape:vp_y="0 : 1000 : 0"
       inkscape:vp_z="1 : 0.5 : 1"
       inkscape:persp3d-origin="0.5 : 0.33333333 : 1"
       id="perspective4463" />
    <inkscape:perspective
       id="perspective4955"
       inkscape:persp3d-origin="0.5 : 0.33333333 : 1"
       inkscape:vp_z="1 : 0.5 : 1"
       inkscape:vp_y="0 : 1000 : 0"
       inkscape:vp_x="0 : 0.5 : 1"
       sodipodi:type="inkscape:persp3d" />
    <inkscape:perspective
       sodipodi:type="inkscape:persp3d"
       inkscape:vp_x="0 : 0.5 : 1"
       inkscape:vp_y="0 : 1000 : 0"
       inkscape:vp_z="1 : 0.5 : 1"
       inkscape:persp3d-origin="0.5 : 0.33333333 : 1"
       id="perspective5048" />
    <inkscape:perspective
       id="perspective5048-4"
       inkscape:persp3d-origin="0.5 : 0.33333333 : 1"
       inkscape:vp_z="1 : 0.5 : 1"
       inkscape:vp_y="0 : 1000 : 0"
       inkscape:vp_x="0 : 0.5 : 1"
       sodipodi:type="inkscape:persp3d" />
    <inkscape:perspective
       sodipodi:type="inkscape:persp3d"
       inkscape:vp_x="0 : 0.5 : 1"
       inkscape:vp_y="0 : 1000 : 0"
       inkscape:vp_z="1 : 0.5 : 1"
       inkscape:persp3d-origin="0.5 : 0.33333333 : 1"
       id="perspective5048-1" />
    <inkscape:perspective
       id="perspective5478"
       inkscape:persp3d-origin="0.5 : 0.33333333 : 1"
       inkscape:vp_z="1 : 0.5 : 1"
       inkscape:vp_y="0 : 1000 : 0"
       inkscape:vp_x="0 : 0.5 : 1"
       sodipodi:type="inkscape:persp3d" />
    <inkscape:perspective
       sodipodi:type="inkscape:persp3d"
       inkscape:vp_x="0 : 0.5 : 1"
       inkscape:vp_y="0 : 1000 : 0"
       inkscape:vp_z="1 : 0.5 : 1"
       inkscape:persp3d-origin="0.5 : 0.33333333 : 1"
       id="perspective5478-7" />
    <inkscape:perspective
       id="perspective6108"
       inkscape:persp3d-origin="0.5 : 0.33333333 : 1"
       inkscape:vp_z="1 : 0.5 : 1"
       inkscape:vp_y="0 : 1000 : 0"
       inkscape:vp_x="0 : 0.5 : 1"
       sodipodi:type="inkscape:persp3d" />
    <marker
       inkscape:stockid="Arrow1Mend"
       orient="auto"
       refY="0"
       refX="0"
       id="Arrow1Mend-9"
       style="overflow:visible">
      <path
         id="path3604-0"
         d="M 0,0 5,-5 -12.5,0 5,5 0,0 z"
         style="fill-rule:evenodd;stroke:#000000;stroke-width:1pt;marker-start:none"
         transform="matrix(-0.4,0,0,-0.4,-4,0)" />
    </marker>
    <inkscape:perspective
       id="perspective6138"
       inkscape:persp3d-origin="0.5 : 0.33333333 : 1"
       inkscape:vp_z="1 : 0.5 : 1"
       inkscape:vp_y="0 : 1000 : 0"
       inkscape:vp_x="0 : 0.5 : 1"
       sodipodi:type="inkscape:persp3d" />
    <inkscape:perspective
       sodipodi:type="inkscape:persp3d"
       inkscape:vp_x="0 : 0.5 : 1"
       inkscape:vp_y="0 : 1000 : 0"
       inkscape:vp_z="1 : 0.5 : 1"
       inkscape:persp3d-origin="0.5 : 0.33333333 : 1"
       id="perspective6349" />
    <inkscape:perspective
       id="perspective6349-3"
       inkscape:persp3d-origin="0.5 : 0.33333333 : 1"
       inkscape:vp_z="1 : 0.5 : 1"
       inkscape:vp_y="0 : 1000 : 0"
       inkscape:vp_x="0 : 0.5 : 1"
       sodipodi:type="inkscape:persp3d" />
    <inkscape:perspective
       sodipodi:type="inkscape:persp3d"
       inkscape:vp_x="0 : 0.5 : 1"
       inkscape:vp_y="0 : 1000 : 0"
       inkscape:vp_z="1 : 0.5 : 1"
       inkscape:persp3d-origin="0.5 : 0.33333333 : 1"
       id="perspective6349-39" />
    <inkscape:perspective
       id="perspective6349-6"
       inkscape:persp3d-origin="0.5 : 0.33333333 : 1"
       inkscape:vp_z="1 : 0.5 : 1"
       inkscape:vp_y="0 : 1000 : 0"
       inkscape:vp_x="0 : 0.5 : 1"
       sodipodi:type="inkscape:persp3d" />
    <inkscape:perspective
       sodipodi:type="inkscape:persp3d"
       inkscape:vp_x="0 : 0.5 : 1"
       inkscape:vp_y="0 : 1000 : 0"
       inkscape:vp_z="1 : 0.5 : 1"
       inkscape:persp3d-origin="0.5 : 0.33333333 : 1"
       id="perspective6349-0" />
    <inkscape:perspective
       id="perspective6349-9"
       inkscape:persp3d-origin="0.5 : 0.33333333 : 1"
       inkscape:vp_z="1 : 0.5 : 1"
       inkscape:vp_y="0 : 1000 : 0"
       inkscape:vp_x="0 : 0.5 : 1"
       sodipodi:type="inkscape:persp3d" />
    <inkscape:perspective
       sodipodi:type="inkscape:persp3d"
       inkscape:vp_x="0 : 0.5 : 1"
       inkscape:vp_y="0 : 1000 : 0"
       inkscape:vp_z="1 : 0.5 : 1"
       inkscape:persp3d-origin="0.5 : 0.33333333 : 1"
       id="perspective8105" />
    <inkscape:perspective
       sodipodi:type="inkscape:persp3d"
       inkscape:vp_x="0 : 0.5 : 1"
       inkscape:vp_y="0 : 1000 : 0"
       inkscape:vp_z="1 : 0.5 : 1"
       inkscape:persp3d-origin="0.5 : 0.33333333 : 1"
       id="perspective8234" />
    <inkscape:perspective
       sodipodi:type="inkscape:persp3d"
       inkscape:vp_x="0 : 0.5 : 1"
       inkscape:vp_y="0 : 1000 : 0"
       inkscape:vp_z="1 : 0.5 : 1"
       inkscape:persp3d-origin="0.5 : 0.33333333 : 1"
       id="perspective8650" />
    <inkscape:perspective
       id="perspective8650-3"
       inkscape:persp3d-origin="0.5 : 0.33333333 : 1"
       inkscape:vp_z="1 : 0.5 : 1"
       inkscape:vp_y="0 : 1000 : 0"
       inkscape:vp_x="0 : 0.5 : 1"
       sodipodi:type="inkscape:persp3d" />
    <inkscape:perspective
       sodipodi:type="inkscape:persp3d"
       inkscape:vp_x="0 : 0.5 : 1"
       inkscape:vp_y="0 : 1000 : 0"
       inkscape:vp_z="1 : 0.5 : 1"
       inkscape:persp3d-origin="0.5 : 0.33333333 : 1"
       id="perspective9287" />
    <inkscape:perspective
       id="perspective9736"
       inkscape:persp3d-origin="0.5 : 0.33333333 : 1"
       inkscape:vp_z="1 : 0.5 : 1"
       inkscape:vp_y="0 : 1000 : 0"
       inkscape:vp_x="0 : 0.5 : 1"
       sodipodi:type="inkscape:persp3d" />
    <inkscape:perspective
       id="perspective10641"
       inkscape:persp3d-origin="0.5 : 0.33333333 : 1"
       inkscape:vp_z="1 : 0.5 : 1"
       inkscape:vp_y="0 : 1000 : 0"
       inkscape:vp_x="0 : 0.5 : 1"
       sodipodi:type="inkscape:persp3d" />
    <inkscape:perspective
       sodipodi:type="inkscape:persp3d"
       inkscape:vp_x="0 : 0.5 : 1"
       inkscape:vp_y="0 : 1000 : 0"
       inkscape:vp_z="1 : 0.5 : 1"
       inkscape:persp3d-origin="0.5 : 0.33333333 : 1"
       id="perspective10641-1" />
    <inkscape:perspective
       id="perspective10641-2"
       inkscape:persp3d-origin="0.5 : 0.33333333 : 1"
       inkscape:vp_z="1 : 0.5 : 1"
       inkscape:vp_y="0 : 1000 : 0"
       inkscape:vp_x="0 : 0.5 : 1"
       sodipodi:type="inkscape:persp3d" />
    <inkscape:perspective
       id="perspective10641-8"
       inkscape:persp3d-origin="0.5 : 0.33333333 : 1"
       inkscape:vp_z="1 : 0.5 : 1"
       inkscape:vp_y="0 : 1000 : 0"
       inkscape:vp_x="0 : 0.5 : 1"
       sodipodi:type="inkscape:persp3d" />
    <inkscape:perspective
       sodipodi:type="inkscape:persp3d"
       inkscape:vp_x="0 : 0.5 : 1"
       inkscape:vp_y="0 : 1000 : 0"
       inkscape:vp_z="1 : 0.5 : 1"
       inkscape:persp3d-origin="0.5 : 0.33333333 : 1"
       id="perspective13273" />
    <inkscape:perspective
       id="perspective13273-0"
       inkscape:persp3d-origin="0.5 : 0.33333333 : 1"
       inkscape:vp_z="1 : 0.5 : 1"
       inkscape:vp_y="0 : 1000 : 0"
       inkscape:vp_x="0 : 0.5 : 1"
       sodipodi:type="inkscape:persp3d" />
    <inkscape:perspective
       sodipodi:type="inkscape:persp3d"
       inkscape:vp_x="0 : 0.5 : 1"
       inkscape:vp_y="0 : 1000 : 0"
       inkscape:vp_z="1 : 0.5 : 1"
       inkscape:persp3d-origin="0.5 : 0.33333333 : 1"
       id="perspective13273-9" />
    <inkscape:perspective
       id="perspective13273-6"
       inkscape:persp3d-origin="0.5 : 0.33333333 : 1"
       inkscape:vp_z="1 : 0.5 : 1"
       inkscape:vp_y="0 : 1000 : 0"
       inkscape:vp_x="0 : 0.5 : 1"
       sodipodi:type="inkscape:persp3d" />
    <inkscape:perspective
       sodipodi:type="inkscape:persp3d"
       inkscape:vp_x="0 : 0.5 : 1"
       inkscape:vp_y="0 : 1000 : 0"
       inkscape:vp_z="1 : 0.5 : 1"
       inkscape:persp3d-origin="0.5 : 0.33333333 : 1"
       id="perspective15109" />
  </defs>
  <metadata
     id="metadata7">
    <rdf:RDF>
      <cc:Work
         rdf:about="">
        <dc:format>image/svg+xml</dc:format>
        <dc:type
           rdf:resource="http://purl.org/dc/dcmitype/StillImage" />
        <dc:title></dc:title>
      </cc:Work>
    </rdf:RDF>
  </metadata>
  <g
     inkscape:label="Layer 1"
     inkscape:groupmode="layer"
     id="layer1"
     transform="translate(0,-875.19552)">
    <g
       id="g10045"
       transform="matrix(1.2,0,0,1.2,-142.80722,826.02313)"
       ns0:preamble="/home/manju/Documents/ubm/preamble.tex"
       ns0:text="$\\alpha_k$">
      <defs
         id="defs10047">
        <g
           id="g10049">
          <symbol
             id="textext-c01833cc-0"
             overflow="visible"
             style="overflow:visible">
            <path
               id="path10052"
               d=""
               style="stroke:none" />
          </symbol>
          <symbol
             id="textext-c01833cc-1"
             overflow="visible"
             style="overflow:visible">
            <path
               id="path10055"
               d="m 4.75,-2.359375 c 0,-1.5625 -0.921875,-2.046875 -1.65625,-2.046875 -1.375,0 -2.6875,1.421875 -2.6875,2.828125 0,0.9375 0.59375,1.6875 1.625,1.6875 0.625,0 1.34375,-0.234375 2.09375,-0.84375 0.125,0.53125 0.453125,0.84375 0.90625,0.84375 0.53125,0 0.84375,-0.546875 0.84375,-0.703125 0,-0.078125 -0.0625,-0.109375 -0.125,-0.109375 -0.0625,0 -0.09375,0.03125 -0.125,0.109375 -0.1875,0.484375 -0.546875,0.484375 -0.5625,0.484375 -0.3125,0 -0.3125,-0.78125 -0.3125,-1.015625 0,-0.203125 0,-0.234375 0.109375,-0.34375 C 5.796875,-2.65625 6,-3.8125 6,-3.8125 6,-3.84375 5.984375,-3.921875 5.875,-3.921875 c -0.09375,0 -0.09375,0.03125 -0.140625,0.21875 -0.1875,0.625 -0.515625,1.375 -0.984375,1.96875 l 0,-0.625 z m -0.65625,1.375 c -0.890625,0.765625 -1.65625,0.875 -2.046875,0.875 -0.59375,0 -0.90625,-0.453125 -0.90625,-1.09375 0,-0.484375 0.265625,-1.5625 0.578125,-2.0625 C 2.1875,-4 2.734375,-4.1875 3.078125,-4.1875 c 0.984375,0 0.984375,1.3125 0.984375,2.078125 0,0.375 0,0.953125 0.03125,1.125 z m 0,0"
               style="stroke:none" />
          </symbol>
          <symbol
             id="textext-c01833cc-2"
             overflow="visible"
             style="overflow:visible">
            <path
               id="path10058"
               d=""
               style="stroke:none" />
          </symbol>
          <symbol
             id="textext-c01833cc-3"
             overflow="visible"
             style="overflow:visible">
            <path
               id="path10061"
               d="m 2.1875,-4.625 c 0,-0.015625 0.015625,-0.109375 0.015625,-0.109375 0,-0.046875 -0.015625,-0.109375 -0.109375,-0.109375 -0.140625,0 -0.71875,0.0625 -0.890625,0.078125 -0.046875,0 -0.15625,0.015625 -0.15625,0.15625 0,0.09375 0.109375,0.09375 0.1875,0.09375 0.328125,0 0.328125,0.0625 0.328125,0.109375 0,0.046875 -0.015625,0.09375 -0.015625,0.15625 L 0.5625,-0.3125 c -0.046875,0.125 -0.046875,0.140625 -0.046875,0.15625 0,0.109375 0.09375,0.21875 0.25,0.21875 0.1875,0 0.265625,-0.125 0.3125,-0.28125 0.015625,-0.03125 0.3125,-1.265625 0.34375,-1.359375 0.5,0.046875 0.890625,0.21875 0.890625,0.578125 0,0.03125 0,0.0625 -0.015625,0.140625 -0.03125,0.09375 -0.03125,0.140625 -0.03125,0.21875 0,0.484375 0.40625,0.703125 0.75,0.703125 0.671875,0 0.875,-1.046875 0.875,-1.0625 0,-0.09375 -0.078125,-0.09375 -0.109375,-0.09375 -0.09375,0 -0.109375,0.046875 -0.140625,0.171875 C 3.5625,-0.625 3.375,-0.125 3.03125,-0.125 c -0.1875,0 -0.25,-0.171875 -0.25,-0.359375 0,-0.125 0,-0.140625 0.046875,-0.3125 0.015625,-0.03125 0.03125,-0.140625 0.03125,-0.21875 0,-0.625 -0.828125,-0.71875 -1.125,-0.734375 C 1.9375,-1.875 2.1875,-2.109375 2.3125,-2.21875 2.671875,-2.546875 3.015625,-2.875 3.40625,-2.875 c 0.078125,0 0.171875,0.015625 0.234375,0.09375 C 3.34375,-2.734375 3.28125,-2.5 3.28125,-2.390625 c 0,0.140625 0.109375,0.25 0.265625,0.25 0.203125,0 0.40625,-0.15625 0.40625,-0.4375 0,-0.234375 -0.171875,-0.5 -0.53125,-0.5 -0.40625,0 -0.765625,0.296875 -1.125,0.625 C 2,-2.1875 1.78125,-1.96875 1.484375,-1.84375 L 2.1875,-4.625 z m 0,0"
               style="stroke:none" />
          </symbol>
        </g>
      </defs>
      <g
         id="textext-c01833cc-4">
        <g
           id="g10064"
           style="fill:#000000;fill-opacity:1">
          <use
             id="use10066"
             y="134.76469"
             x="223.4321"
             xlink:href="#textext-c01833cc-1"
             width="212.59842"
             height="177.16534" />
        </g>
        <g
           id="g10068"
           style="fill:#000000;fill-opacity:1">
          <use
             id="use10070"
             y="136.25909"
             x="229.80521"
             xlink:href="#textext-c01833cc-3"
             width="212.59842"
             height="177.16534" />
        </g>
      </g>
    </g>
    <g
       ns0:text="$\\beta_k$"
       ns0:preamble="/home/manju/Documents/ubm/preamble.tex"
       transform="matrix(1.2,0,0,1.2,-117.73711,790.7256)"
       id="g10254">
      <defs
         id="defs10256">
        <g
           id="g10258">
          <symbol
             style="overflow:visible"
             overflow="visible"
             id="textext-6bcb85e3-0">
            <path
               style="stroke:none"
               d=""
               id="path10261" />
          </symbol>
          <symbol
             style="overflow:visible"
             overflow="visible"
             id="textext-6bcb85e3-1">
            <path
               style="stroke:none"
               d="M 0.28125,1.6875 C 0.265625,1.71875 0.25,1.78125 0.25,1.828125 0.25,1.9375 0.34375,1.9375 0.375,1.9375 0.421875,1.9375 0.4375,1.921875 0.46875,1.890625 0.515625,1.84375 0.796875,0.5625 1.21875,-1.046875 1.375,-0.46875 1.890625,0.125 2.828125,0.125 c 1.3125,0 2.640625,-1.34375 2.640625,-2.75 0,-0.71875 -0.3125,-1.15625 -0.65625,-1.390625 C 5.5,-4.4375 5.875,-5.140625 5.875,-5.75 c 0,-0.65625 -0.453125,-1.28125 -1.328125,-1.28125 -1.296875,0 -2.421875,1.375 -2.75,2.671875 L 0.28125,1.6875 z M 3.265625,-4 C 3.375,-4.046875 3.4375,-4.078125 3.78125,-4.078125 c 0.140625,0 0.265625,0 0.390625,0.0625 C 4,-3.9375 3.78125,-3.9375 3.703125,-3.9375 c -0.25,0 -0.265625,0 -0.4375,-0.0625 z m 1.21875,-0.203125 c -0.28125,-0.09375 -0.59375,-0.09375 -0.6875,-0.09375 -0.234375,0 -0.78125,0 -0.78125,0.3125 0,0.265625 0.4375,0.265625 0.6875,0.265625 0.140625,0 0.421875,0 0.75,-0.125 C 4.671875,-3.625 4.75,-3.328125 4.75,-3.015625 c 0,0.40625 -0.203125,1.34375 -0.5,1.890625 -0.21875,0.421875 -0.734375,1.03125 -1.453125,1.03125 -0.890625,0 -1.390625,-0.65625 -1.390625,-1.46875 0,-0.234375 0.046875,-0.375 0.125,-0.734375 C 1.625,-2.671875 1.9375,-3.921875 2,-4.140625 2.46875,-5.984375 3.65625,-6.8125 4.53125,-6.8125 4.828125,-6.8125 5.25,-6.65625 5.25,-6 c 0,0.234375 -0.109375,1.3125 -0.765625,1.796875 z m 0,0"
               id="path10264" />
          </symbol>
          <symbol
             style="overflow:visible"
             overflow="visible"
             id="textext-6bcb85e3-2">
            <path
               style="stroke:none"
               d=""
               id="path10267" />
          </symbol>
          <symbol
             style="overflow:visible"
             overflow="visible"
             id="textext-6bcb85e3-3">
            <path
               style="stroke:none"
               d="m 2.1875,-4.625 c 0,-0.015625 0.015625,-0.109375 0.015625,-0.109375 0,-0.046875 -0.015625,-0.109375 -0.109375,-0.109375 -0.140625,0 -0.71875,0.0625 -0.890625,0.078125 -0.046875,0 -0.15625,0.015625 -0.15625,0.15625 0,0.09375 0.109375,0.09375 0.1875,0.09375 0.328125,0 0.328125,0.0625 0.328125,0.109375 0,0.046875 -0.015625,0.09375 -0.015625,0.15625 L 0.5625,-0.3125 c -0.046875,0.125 -0.046875,0.140625 -0.046875,0.15625 0,0.109375 0.09375,0.21875 0.25,0.21875 0.1875,0 0.265625,-0.125 0.3125,-0.28125 0.015625,-0.03125 0.3125,-1.265625 0.34375,-1.359375 0.5,0.046875 0.890625,0.21875 0.890625,0.578125 0,0.03125 0,0.0625 -0.015625,0.140625 -0.03125,0.09375 -0.03125,0.140625 -0.03125,0.21875 0,0.484375 0.40625,0.703125 0.75,0.703125 0.671875,0 0.875,-1.046875 0.875,-1.0625 0,-0.09375 -0.078125,-0.09375 -0.109375,-0.09375 -0.09375,0 -0.109375,0.046875 -0.140625,0.171875 C 3.5625,-0.625 3.375,-0.125 3.03125,-0.125 c -0.1875,0 -0.25,-0.171875 -0.25,-0.359375 0,-0.125 0,-0.140625 0.046875,-0.3125 0.015625,-0.03125 0.03125,-0.140625 0.03125,-0.21875 0,-0.625 -0.828125,-0.71875 -1.125,-0.734375 C 1.9375,-1.875 2.1875,-2.109375 2.3125,-2.21875 2.671875,-2.546875 3.015625,-2.875 3.40625,-2.875 c 0.078125,0 0.171875,0.015625 0.234375,0.09375 C 3.34375,-2.734375 3.28125,-2.5 3.28125,-2.390625 c 0,0.140625 0.109375,0.25 0.265625,0.25 0.203125,0 0.40625,-0.15625 0.40625,-0.4375 0,-0.234375 -0.171875,-0.5 -0.53125,-0.5 -0.40625,0 -0.765625,0.296875 -1.125,0.625 C 2,-2.1875 1.78125,-1.96875 1.484375,-1.84375 L 2.1875,-4.625 z m 0,0"
               id="path10270" />
          </symbol>
        </g>
      </defs>
      <g
         id="textext-6bcb85e3-4">
        <g
           style="fill:#000000;fill-opacity:1"
           id="g10273">
          <use
             height="177.16534"
             width="212.59842"
             xlink:href="#textext-6bcb85e3-1"
             x="223.4321"
             y="134.76469"
             id="use10275" />
        </g>
        <g
           style="fill:#000000;fill-opacity:1"
           id="g10277">
          <use
             height="177.16534"
             width="212.59842"
             xlink:href="#textext-6bcb85e3-3"
             x="229.0672"
             y="136.25909"
             id="use10279" />
        </g>
      </g>
    </g>
    <g
       ns0:text="$\\zeta$"
       ns0:preamble="/home/manju/Documents/ubm/preamble.tex"
       transform="matrix(1.2,0,0,1.2,-256.66933,809.72657)"
       id="g11654">
      <defs
         id="defs11656">
        <g
           id="g11658">
          <symbol
             style="overflow:visible"
             overflow="visible"
             id="textext-a9254856-0">
            <path
               style="stroke:none"
               d=""
               id="path11661" />
          </symbol>
          <symbol
             style="overflow:visible"
             overflow="visible"
             id="textext-a9254856-1">
            <path
               style="stroke:none"
               d="m 3.234375,-5.765625 c 0.171875,0.171875 0.40625,0.171875 0.609375,0.171875 0.25,0 0.875,0 0.875,-0.3125 0,-0.25 -0.390625,-0.265625 -0.796875,-0.265625 -0.109375,0 -0.375,0 -0.625,0.09375 -0.0625,-0.109375 -0.078125,-0.15625 -0.078125,-0.375 0,-0.140625 0.046875,-0.34375 0.046875,-0.359375 0,-0.078125 -0.046875,-0.140625 -0.109375,-0.140625 -0.1875,0 -0.1875,0.46875 -0.1875,0.5 0,0.15625 0.03125,0.34375 0.109375,0.484375 -1.046875,0.53125 -2.625,2.375 -2.625,4.296875 0,1.40625 0.90625,1.71875 1.625,1.953125 C 2.375,0.390625 2.40625,0.390625 2.6875,0.484375 c 0.21875,0.078125 0.625,0.21875 0.625,0.6875 0,0.265625 -0.1875,0.65625 -0.5625,0.65625 -0.25,0 -0.53125,-0.125 -0.734375,-0.296875 C 1.9375,1.46875 1.9375,1.453125 1.890625,1.453125 1.84375,1.453125 1.796875,1.5 1.796875,1.5625 c 0,0.109375 0.421875,0.484375 0.953125,0.484375 0.625,0 1.09375,-0.640625 1.09375,-1.203125 C 3.84375,0.453125 3.65625,0.25 3.5625,0.171875 3.40625,-0.015625 3.203125,-0.078125 2.625,-0.28125 1.828125,-0.546875 1.671875,-0.59375 1.421875,-0.8125 1,-1.1875 1,-1.75 1,-1.9375 1,-3.484375 2.21875,-5.234375 3.234375,-5.765625 z M 3.453125,-5.875 c 0.15625,-0.078125 0.328125,-0.078125 0.46875,-0.078125 0.328125,0 0.359375,0.015625 0.546875,0.0625 -0.078125,0.03125 -0.1875,0.078125 -0.625,0.078125 -0.203125,0 -0.28125,0 -0.390625,-0.0625 z m 0,0"
               id="path11664" />
          </symbol>
        </g>
      </defs>
      <g
         id="textext-a9254856-2">
        <g
           style="fill:#000000;fill-opacity:1"
           id="g11667">
          <use
             height="177.16534"
             width="212.59842"
             xlink:href="#textext-a9254856-1"
             x="223.4321"
             y="134.76469"
             id="use11669" />
        </g>
      </g>
    </g>
    <path
       sodipodi:nodetypes="cccc"
       transform="translate(0,875.19552)"
       id="path11904"
       d="m 20,92.165344 c 46.020149,1.224812 92.12774,9.840336 115,39.999996 2.35687,-31.14901 14.52707,-46.188029 40,-59.999996 -53.31144,-17.480681 -109.211421,-14.272195 -155,20"
       style="fill:none;stroke:#000000;stroke-width:1px;stroke-linecap:butt;stroke-linejoin:miter;stroke-opacity:1" />
    <path
       sodipodi:nodetypes="ccc"
       transform="translate(0,875.19552)"
       id="path11906"
       d="m 135,132.16534 c -13.20066,-21.37313 -18.33557,-45.165992 -20,-69.999996 8.96616,12.011279 17.67067,24.109776 30,35"
       style="fill:none;stroke:#000000;stroke-width:1px;stroke-linecap:butt;stroke-linejoin:round;stroke-opacity:1" />
    <path
       sodipodi:nodetypes="cc"
       transform="translate(0,875.19552)"
       id="path11908"
       d="m 122.70719,119.53109 c 3,-3 10.11601,-3.65856 14.11601,-1.65856"
       style="fill:none;stroke:#000000;stroke-width:1px;stroke-linecap:butt;stroke-linejoin:miter;stroke-opacity:1" />
    <path
       sodipodi:nodetypes="cc"
       id="path11910"
       d="m 115.23093,989.48289 c 1.60391,-3.75929 5.85799,-5.75129 8.27219,-5.86426"
       style="fill:none;stroke:#000000;stroke-width:1px;stroke-linecap:butt;stroke-linejoin:miter;stroke-opacity:1" />
    <path
       sodipodi:nodetypes="cc"
       id="path11912"
       d="m 163.7514,944.23616 c -1.5114,2.80664 -0.0994,6.83404 2.07361,8.41254"
       style="fill:none;stroke:#000000;stroke-width:1px;stroke-linecap:butt;stroke-linejoin:miter;stroke-opacity:1" />
    <path
       sodipodi:nodetypes="cc"
       id="path11914"
       d="m 32.706455,958.75192 c 1.719483,1.64371 3.592449,6.27239 1.273007,9.12778"
       style="fill:none;stroke:#000000;stroke-width:1px;stroke-linecap:butt;stroke-linejoin:miter;stroke-opacity:1" />
    <g
       id="g12042"
       transform="matrix(1.1694692,-0.26896423,0.26896423,1.1694692,-238.62958,842.0754)"
       ns0:preamble="/home/manju/Documents/ubm/preamble.tex"
       ns0:text="$r_{k+1}$">
      <defs
         id="defs12044">
        <g
           id="g12046">
          <symbol
             id="textext-e292bc22-0"
             overflow="visible"
             style="overflow:visible">
            <path
               id="path12049"
               d=""
               style="stroke:none" />
          </symbol>
          <symbol
             id="textext-e292bc22-1"
             overflow="visible"
             style="overflow:visible">
            <path
               id="path12052"
               d="m 0.875,-0.59375 c -0.03125,0.15625 -0.09375,0.390625 -0.09375,0.4375 0,0.171875 0.140625,0.265625 0.296875,0.265625 0.125,0 0.296875,-0.078125 0.375,-0.28125 C 1.46875,-0.203125 1.796875,-1.5625 1.84375,-1.75 c 0.078125,-0.328125 0.265625,-1.015625 0.3125,-1.296875 0.046875,-0.125 0.328125,-0.59375 0.5625,-0.8125 0.078125,-0.0625 0.375,-0.328125 0.796875,-0.328125 0.265625,0 0.40625,0.125 0.421875,0.125 -0.296875,0.046875 -0.515625,0.28125 -0.515625,0.546875 0,0.15625 0.109375,0.34375 0.375,0.34375 0.265625,0 0.546875,-0.234375 0.546875,-0.59375 0,-0.34375 -0.3125,-0.640625 -0.828125,-0.640625 C 2.875,-4.40625 2.4375,-3.921875 2.25,-3.640625 2.15625,-4.09375 1.796875,-4.40625 1.328125,-4.40625 0.875,-4.40625 0.6875,-4.015625 0.59375,-3.84375 0.421875,-3.5 0.296875,-2.90625 0.296875,-2.875 c 0,0.109375 0.09375,0.109375 0.109375,0.109375 0.109375,0 0.109375,-0.015625 0.171875,-0.234375 0.171875,-0.703125 0.375,-1.1875 0.734375,-1.1875 0.15625,0 0.296875,0.078125 0.296875,0.453125 0,0.21875 -0.03125,0.328125 -0.15625,0.84375 L 0.875,-0.59375 z m 0,0"
               style="stroke:none" />
          </symbol>
          <symbol
             id="textext-e292bc22-2"
             overflow="visible"
             style="overflow:visible">
            <path
               id="path12055"
               d=""
               style="stroke:none" />
          </symbol>
          <symbol
             id="textext-e292bc22-3"
             overflow="visible"
             style="overflow:visible">
            <path
               id="path12058"
               d="m 2.1875,-4.625 c 0,-0.015625 0.015625,-0.109375 0.015625,-0.109375 0,-0.046875 -0.015625,-0.109375 -0.109375,-0.109375 -0.140625,0 -0.71875,0.0625 -0.890625,0.078125 -0.046875,0 -0.15625,0.015625 -0.15625,0.15625 0,0.09375 0.109375,0.09375 0.1875,0.09375 0.328125,0 0.328125,0.0625 0.328125,0.109375 0,0.046875 -0.015625,0.09375 -0.015625,0.15625 L 0.5625,-0.3125 c -0.046875,0.125 -0.046875,0.140625 -0.046875,0.15625 0,0.109375 0.09375,0.21875 0.25,0.21875 0.1875,0 0.265625,-0.125 0.3125,-0.28125 0.015625,-0.03125 0.3125,-1.265625 0.34375,-1.359375 0.5,0.046875 0.890625,0.21875 0.890625,0.578125 0,0.03125 0,0.0625 -0.015625,0.140625 -0.03125,0.09375 -0.03125,0.140625 -0.03125,0.21875 0,0.484375 0.40625,0.703125 0.75,0.703125 0.671875,0 0.875,-1.046875 0.875,-1.0625 0,-0.09375 -0.078125,-0.09375 -0.109375,-0.09375 -0.09375,0 -0.109375,0.046875 -0.140625,0.171875 C 3.5625,-0.625 3.375,-0.125 3.03125,-0.125 c -0.1875,0 -0.25,-0.171875 -0.25,-0.359375 0,-0.125 0,-0.140625 0.046875,-0.3125 0.015625,-0.03125 0.03125,-0.140625 0.03125,-0.21875 0,-0.625 -0.828125,-0.71875 -1.125,-0.734375 C 1.9375,-1.875 2.1875,-2.109375 2.3125,-2.21875 2.671875,-2.546875 3.015625,-2.875 3.40625,-2.875 c 0.078125,0 0.171875,0.015625 0.234375,0.09375 C 3.34375,-2.734375 3.28125,-2.5 3.28125,-2.390625 c 0,0.140625 0.109375,0.25 0.265625,0.25 0.203125,0 0.40625,-0.15625 0.40625,-0.4375 0,-0.234375 -0.171875,-0.5 -0.53125,-0.5 -0.40625,0 -0.765625,0.296875 -1.125,0.625 C 2,-2.1875 1.78125,-1.96875 1.484375,-1.84375 L 2.1875,-4.625 z m 0,0"
               style="stroke:none" />
          </symbol>
          <symbol
             id="textext-e292bc22-4"
             overflow="visible"
             style="overflow:visible">
            <path
               id="path12061"
               d=""
               style="stroke:none" />
          </symbol>
          <symbol
             id="textext-e292bc22-5"
             overflow="visible"
             style="overflow:visible">
            <path
               id="path12064"
               d="m 3.21875,-1.578125 2.140625,0 c 0.09375,0 0.25,0 0.25,-0.15625 0,-0.1875 -0.15625,-0.1875 -0.25,-0.1875 l -2.140625,0 0,-2.140625 c 0,-0.078125 0,-0.25 -0.15625,-0.25 -0.171875,0 -0.171875,0.15625 -0.171875,0.25 l 0,2.140625 -2.140625,0 c -0.09375,0 -0.265625,0 -0.265625,0.171875 0,0.171875 0.15625,0.171875 0.265625,0.171875 l 2.140625,0 0,2.140625 c 0,0.09375 0,0.265625 0.15625,0.265625 0.171875,0 0.171875,-0.171875 0.171875,-0.265625 l 0,-2.140625 z m 0,0"
               style="stroke:none" />
          </symbol>
          <symbol
             id="textext-e292bc22-6"
             overflow="visible"
             style="overflow:visible">
            <path
               id="path12067"
               d="m 2.328125,-4.4375 c 0,-0.1875 0,-0.1875 -0.203125,-0.1875 -0.453125,0.4375 -1.078125,0.4375 -1.359375,0.4375 l 0,0.25 c 0.15625,0 0.625,0 1,-0.1875 l 0,3.546875 c 0,0.234375 0,0.328125 -0.6875,0.328125 l -0.265625,0 0,0.25 c 0.125,0 0.984375,-0.03125 1.234375,-0.03125 0.21875,0 1.09375,0.03125 1.25,0.03125 l 0,-0.25 -0.265625,0 c -0.703125,0 -0.703125,-0.09375 -0.703125,-0.328125 l 0,-3.859375 z m 0,0"
               style="stroke:none" />
          </symbol>
        </g>
      </defs>
      <g
         id="textext-e292bc22-7">
        <g
           id="g12070"
           style="fill:#000000;fill-opacity:1">
          <use
             id="use12072"
             y="134.76469"
             x="223.4321"
             xlink:href="#textext-e292bc22-1"
             width="212.59842"
             height="177.16534" />
        </g>
        <g
           id="g12074"
           style="fill:#000000;fill-opacity:1">
          <use
             id="use12076"
             y="136.25909"
             x="227.9269"
             xlink:href="#textext-e292bc22-3"
             width="212.59842"
             height="177.16534" />
        </g>
        <g
           id="g12078"
           style="fill:#000000;fill-opacity:1">
          <use
             id="use12080"
             y="136.25909"
             x="232.33051"
             xlink:href="#textext-e292bc22-5"
             width="212.59842"
             height="177.16534" />
          <use
             id="use12082"
             y="136.25909"
             x="238.44652"
             xlink:href="#textext-e292bc22-6"
             width="212.59842"
             height="177.16534" />
        </g>
      </g>
    </g>
    <g
       ns0:text="$z_{k}$"
       ns0:preamble="/home/manju/Documents/ubm/preamble.tex"
       transform="matrix(1.2,0,0,1.2,-134.62908,853.30851)"
       id="g12368">
      <defs
         id="defs12370">
        <g
           id="g12372">
          <symbol
             overflow="visible"
             id="textext-01af6927-0"
             style="overflow:visible">
            <path
               style="stroke:none"
               d=""
               id="path12375" />
          </symbol>
          <symbol
             overflow="visible"
             id="textext-01af6927-1"
             style="overflow:visible">
            <path
               style="stroke:none"
               d="m 1.328125,-0.828125 c 0.53125,-0.578125 0.828125,-0.828125 1.1875,-1.140625 0,0 0.609375,-0.53125 0.96875,-0.890625 C 4.4375,-3.78125 4.65625,-4.265625 4.65625,-4.3125 c 0,-0.09375 -0.09375,-0.09375 -0.109375,-0.09375 -0.078125,0 -0.09375,0.015625 -0.15625,0.109375 -0.296875,0.484375 -0.5,0.640625 -0.734375,0.640625 -0.25,0 -0.359375,-0.15625 -0.515625,-0.328125 -0.1875,-0.21875 -0.359375,-0.421875 -0.6875,-0.421875 -0.75,0 -1.203125,0.921875 -1.203125,1.140625 0,0.046875 0.03125,0.109375 0.109375,0.109375 0.09375,0 0.109375,-0.046875 0.140625,-0.109375 0.1875,-0.46875 0.765625,-0.46875 0.84375,-0.46875 0.203125,0 0.390625,0.0625 0.625,0.140625 0.40625,0.15625 0.515625,0.15625 0.765625,0.15625 -0.359375,0.421875 -1.1875,1.140625 -1.375,1.296875 -0.5,0.453125 -0.515625,0.46875 -0.90625,0.84375 -0.671875,0.671875 -1.03125,1.234375 -1.03125,1.3125 0,0.09375 0.109375,0.09375 0.125,0.09375 0.078125,0 0.09375,-0.015625 0.15625,-0.125 0.234375,-0.359375 0.53125,-0.625 0.859375,-0.625 0.21875,0 0.328125,0.09375 0.578125,0.375 0.15625,0.21875 0.34375,0.375 0.625,0.375 1,0 1.578125,-1.265625 1.578125,-1.53125 0,-0.046875 -0.046875,-0.109375 -0.125,-0.109375 -0.09375,0 -0.109375,0.0625 -0.140625,0.140625 C 3.84375,-0.75 3.203125,-0.5625 2.875,-0.5625 c -0.1875,0 -0.375,-0.0625 -0.578125,-0.125 -0.34375,-0.125 -0.5,-0.171875 -0.703125,-0.171875 -0.015625,0 -0.171875,0 -0.265625,0.03125 z m 0,0"
               id="path12378" />
          </symbol>
          <symbol
             overflow="visible"
             id="textext-01af6927-2"
             style="overflow:visible">
            <path
               style="stroke:none"
               d=""
               id="path12381" />
          </symbol>
          <symbol
             overflow="visible"
             id="textext-01af6927-3"
             style="overflow:visible">
            <path
               style="stroke:none"
               d="m 2.1875,-4.625 c 0,-0.015625 0.015625,-0.109375 0.015625,-0.109375 0,-0.046875 -0.015625,-0.109375 -0.109375,-0.109375 -0.140625,0 -0.71875,0.0625 -0.890625,0.078125 -0.046875,0 -0.15625,0.015625 -0.15625,0.15625 0,0.09375 0.109375,0.09375 0.1875,0.09375 0.328125,0 0.328125,0.0625 0.328125,0.109375 0,0.046875 -0.015625,0.09375 -0.015625,0.15625 L 0.5625,-0.3125 c -0.046875,0.125 -0.046875,0.140625 -0.046875,0.15625 0,0.109375 0.09375,0.21875 0.25,0.21875 0.1875,0 0.265625,-0.125 0.3125,-0.28125 0.015625,-0.03125 0.3125,-1.265625 0.34375,-1.359375 0.5,0.046875 0.890625,0.21875 0.890625,0.578125 0,0.03125 0,0.0625 -0.015625,0.140625 -0.03125,0.09375 -0.03125,0.140625 -0.03125,0.21875 0,0.484375 0.40625,0.703125 0.75,0.703125 0.671875,0 0.875,-1.046875 0.875,-1.0625 0,-0.09375 -0.078125,-0.09375 -0.109375,-0.09375 -0.09375,0 -0.109375,0.046875 -0.140625,0.171875 C 3.5625,-0.625 3.375,-0.125 3.03125,-0.125 c -0.1875,0 -0.25,-0.171875 -0.25,-0.359375 0,-0.125 0,-0.140625 0.046875,-0.3125 0.015625,-0.03125 0.03125,-0.140625 0.03125,-0.21875 0,-0.625 -0.828125,-0.71875 -1.125,-0.734375 C 1.9375,-1.875 2.1875,-2.109375 2.3125,-2.21875 2.671875,-2.546875 3.015625,-2.875 3.40625,-2.875 c 0.078125,0 0.171875,0.015625 0.234375,0.09375 C 3.34375,-2.734375 3.28125,-2.5 3.28125,-2.390625 c 0,0.140625 0.109375,0.25 0.265625,0.25 0.203125,0 0.40625,-0.15625 0.40625,-0.4375 0,-0.234375 -0.171875,-0.5 -0.53125,-0.5 -0.40625,0 -0.765625,0.296875 -1.125,0.625 C 2,-2.1875 1.78125,-1.96875 1.484375,-1.84375 L 2.1875,-4.625 z m 0,0"
               id="path12384" />
          </symbol>
        </g>
      </defs>
      <g
         id="textext-01af6927-4">
        <g
           style="fill:#000000;fill-opacity:1"
           id="g12387">
          <use
             xlink:href="#textext-01af6927-1"
             x="223.4321"
             y="134.76469"
             id="use12389"
             width="212.59842"
             height="177.16534" />
        </g>
        <g
           style="fill:#000000;fill-opacity:1"
           id="g12391">
          <use
             xlink:href="#textext-01af6927-3"
             x="228.06531"
             y="136.25909"
             id="use12393"
             width="212.59842"
             height="177.16534" />
        </g>
      </g>
    </g>
    <g
       id="g12670"
       transform="matrix(1.2,0,0,1.2,-90.24559,787.99892)"
       ns0:preamble="/home/manju/Documents/ubm/preamble.tex"
       ns0:text="$z_{k+1}$">
      <defs
         id="defs12672">
        <g
           id="g12674">
          <symbol
             id="textext-7e9f73e6-0"
             overflow="visible"
             style="overflow:visible">
            <path
               id="path12677"
               d=""
               style="stroke:none" />
          </symbol>
          <symbol
             id="textext-7e9f73e6-1"
             overflow="visible"
             style="overflow:visible">
            <path
               id="path12680"
               d="m 1.328125,-0.828125 c 0.53125,-0.578125 0.828125,-0.828125 1.1875,-1.140625 0,0 0.609375,-0.53125 0.96875,-0.890625 C 4.4375,-3.78125 4.65625,-4.265625 4.65625,-4.3125 c 0,-0.09375 -0.09375,-0.09375 -0.109375,-0.09375 -0.078125,0 -0.09375,0.015625 -0.15625,0.109375 -0.296875,0.484375 -0.5,0.640625 -0.734375,0.640625 -0.25,0 -0.359375,-0.15625 -0.515625,-0.328125 -0.1875,-0.21875 -0.359375,-0.421875 -0.6875,-0.421875 -0.75,0 -1.203125,0.921875 -1.203125,1.140625 0,0.046875 0.03125,0.109375 0.109375,0.109375 0.09375,0 0.109375,-0.046875 0.140625,-0.109375 0.1875,-0.46875 0.765625,-0.46875 0.84375,-0.46875 0.203125,0 0.390625,0.0625 0.625,0.140625 0.40625,0.15625 0.515625,0.15625 0.765625,0.15625 -0.359375,0.421875 -1.1875,1.140625 -1.375,1.296875 -0.5,0.453125 -0.515625,0.46875 -0.90625,0.84375 -0.671875,0.671875 -1.03125,1.234375 -1.03125,1.3125 0,0.09375 0.109375,0.09375 0.125,0.09375 0.078125,0 0.09375,-0.015625 0.15625,-0.125 0.234375,-0.359375 0.53125,-0.625 0.859375,-0.625 0.21875,0 0.328125,0.09375 0.578125,0.375 0.15625,0.21875 0.34375,0.375 0.625,0.375 1,0 1.578125,-1.265625 1.578125,-1.53125 0,-0.046875 -0.046875,-0.109375 -0.125,-0.109375 -0.09375,0 -0.109375,0.0625 -0.140625,0.140625 C 3.84375,-0.75 3.203125,-0.5625 2.875,-0.5625 c -0.1875,0 -0.375,-0.0625 -0.578125,-0.125 -0.34375,-0.125 -0.5,-0.171875 -0.703125,-0.171875 -0.015625,0 -0.171875,0 -0.265625,0.03125 z m 0,0"
               style="stroke:none" />
          </symbol>
          <symbol
             id="textext-7e9f73e6-2"
             overflow="visible"
             style="overflow:visible">
            <path
               id="path12683"
               d=""
               style="stroke:none" />
          </symbol>
          <symbol
             id="textext-7e9f73e6-3"
             overflow="visible"
             style="overflow:visible">
            <path
               id="path12686"
               d="m 2.1875,-4.625 c 0,-0.015625 0.015625,-0.109375 0.015625,-0.109375 0,-0.046875 -0.015625,-0.109375 -0.109375,-0.109375 -0.140625,0 -0.71875,0.0625 -0.890625,0.078125 -0.046875,0 -0.15625,0.015625 -0.15625,0.15625 0,0.09375 0.109375,0.09375 0.1875,0.09375 0.328125,0 0.328125,0.0625 0.328125,0.109375 0,0.046875 -0.015625,0.09375 -0.015625,0.15625 L 0.5625,-0.3125 c -0.046875,0.125 -0.046875,0.140625 -0.046875,0.15625 0,0.109375 0.09375,0.21875 0.25,0.21875 0.1875,0 0.265625,-0.125 0.3125,-0.28125 0.015625,-0.03125 0.3125,-1.265625 0.34375,-1.359375 0.5,0.046875 0.890625,0.21875 0.890625,0.578125 0,0.03125 0,0.0625 -0.015625,0.140625 -0.03125,0.09375 -0.03125,0.140625 -0.03125,0.21875 0,0.484375 0.40625,0.703125 0.75,0.703125 0.671875,0 0.875,-1.046875 0.875,-1.0625 0,-0.09375 -0.078125,-0.09375 -0.109375,-0.09375 -0.09375,0 -0.109375,0.046875 -0.140625,0.171875 C 3.5625,-0.625 3.375,-0.125 3.03125,-0.125 c -0.1875,0 -0.25,-0.171875 -0.25,-0.359375 0,-0.125 0,-0.140625 0.046875,-0.3125 0.015625,-0.03125 0.03125,-0.140625 0.03125,-0.21875 0,-0.625 -0.828125,-0.71875 -1.125,-0.734375 C 1.9375,-1.875 2.1875,-2.109375 2.3125,-2.21875 2.671875,-2.546875 3.015625,-2.875 3.40625,-2.875 c 0.078125,0 0.171875,0.015625 0.234375,0.09375 C 3.34375,-2.734375 3.28125,-2.5 3.28125,-2.390625 c 0,0.140625 0.109375,0.25 0.265625,0.25 0.203125,0 0.40625,-0.15625 0.40625,-0.4375 0,-0.234375 -0.171875,-0.5 -0.53125,-0.5 -0.40625,0 -0.765625,0.296875 -1.125,0.625 C 2,-2.1875 1.78125,-1.96875 1.484375,-1.84375 L 2.1875,-4.625 z m 0,0"
               style="stroke:none" />
          </symbol>
          <symbol
             id="textext-7e9f73e6-4"
             overflow="visible"
             style="overflow:visible">
            <path
               id="path12689"
               d=""
               style="stroke:none" />
          </symbol>
          <symbol
             id="textext-7e9f73e6-5"
             overflow="visible"
             style="overflow:visible">
            <path
               id="path12692"
               d="m 3.21875,-1.578125 2.140625,0 c 0.09375,0 0.25,0 0.25,-0.15625 0,-0.1875 -0.15625,-0.1875 -0.25,-0.1875 l -2.140625,0 0,-2.140625 c 0,-0.078125 0,-0.25 -0.15625,-0.25 -0.171875,0 -0.171875,0.15625 -0.171875,0.25 l 0,2.140625 -2.140625,0 c -0.09375,0 -0.265625,0 -0.265625,0.171875 0,0.171875 0.15625,0.171875 0.265625,0.171875 l 2.140625,0 0,2.140625 c 0,0.09375 0,0.265625 0.15625,0.265625 0.171875,0 0.171875,-0.171875 0.171875,-0.265625 l 0,-2.140625 z m 0,0"
               style="stroke:none" />
          </symbol>
          <symbol
             id="textext-7e9f73e6-6"
             overflow="visible"
             style="overflow:visible">
            <path
               id="path12695"
               d="m 2.328125,-4.4375 c 0,-0.1875 0,-0.1875 -0.203125,-0.1875 -0.453125,0.4375 -1.078125,0.4375 -1.359375,0.4375 l 0,0.25 c 0.15625,0 0.625,0 1,-0.1875 l 0,3.546875 c 0,0.234375 0,0.328125 -0.6875,0.328125 l -0.265625,0 0,0.25 c 0.125,0 0.984375,-0.03125 1.234375,-0.03125 0.21875,0 1.09375,0.03125 1.25,0.03125 l 0,-0.25 -0.265625,0 c -0.703125,0 -0.703125,-0.09375 -0.703125,-0.328125 l 0,-3.859375 z m 0,0"
               style="stroke:none" />
          </symbol>
        </g>
      </defs>
      <g
         id="textext-7e9f73e6-7">
        <g
           id="g12698"
           style="fill:#000000;fill-opacity:1">
          <use
             id="use12700"
             y="134.76469"
             x="223.4321"
             xlink:href="#textext-7e9f73e6-1"
             width="212.59842"
             height="177.16534" />
        </g>
        <g
           id="g12702"
           style="fill:#000000;fill-opacity:1">
          <use
             id="use12704"
             y="136.25909"
             x="228.06531"
             xlink:href="#textext-7e9f73e6-3"
             width="212.59842"
             height="177.16534" />
        </g>
        <g
           id="g12706"
           style="fill:#000000;fill-opacity:1">
          <use
             id="use12708"
             y="136.25909"
             x="232.4689"
             xlink:href="#textext-7e9f73e6-5"
             width="212.59842"
             height="177.16534" />
          <use
             id="use12710"
             y="136.25909"
             x="238.58493"
             xlink:href="#textext-7e9f73e6-6"
             width="212.59842"
             height="177.16534" />
        </g>
      </g>
    </g>
    <g
       ns0:text="$\\gamma_k$"
       ns0:preamble="/home/manju/Documents/ubm/preamble.tex"
       transform="matrix(1.2,0,0,1.2,-232.33973,802.67049)"
       id="g13070">
      <defs
         id="defs13072">
        <g
           id="g13074">
          <symbol
             overflow="visible"
             id="textext-e300404e-0">
            <path
               style="stroke:none;"
               d=""
               id="path13077" />
          </symbol>
          <symbol
             overflow="visible"
             id="textext-e300404e-1">
            <path
               style="stroke:none;"
               d="M 0.40625 -2.53125 C 0.796875 -3.671875 1.890625 -3.6875 2 -3.6875 C 3.5 -3.6875 3.609375 -1.9375 3.609375 -1.15625 C 3.609375 -0.546875 3.5625 -0.375 3.484375 -0.171875 C 3.265625 0.546875 2.96875 1.703125 2.96875 1.96875 C 2.96875 2.078125 3.015625 2.140625 3.09375 2.140625 C 3.234375 2.140625 3.3125 1.921875 3.421875 1.546875 C 3.65625 0.703125 3.75 0.140625 3.78125 -0.171875 C 3.8125 -0.296875 3.828125 -0.421875 3.875 -0.5625 C 4.1875 -1.546875 4.828125 -3.03125 5.21875 -3.8125 C 5.296875 -3.9375 5.40625 -4.15625 5.40625 -4.203125 C 5.40625 -4.296875 5.3125 -4.296875 5.296875 -4.296875 C 5.265625 -4.296875 5.203125 -4.296875 5.171875 -4.234375 C 4.65625 -3.28125 4.25 -2.28125 3.859375 -1.28125 C 3.84375 -1.578125 3.84375 -2.34375 3.453125 -3.3125 C 3.203125 -3.921875 2.8125 -4.40625 2.125 -4.40625 C 0.875 -4.40625 0.171875 -2.890625 0.171875 -2.578125 C 0.171875 -2.484375 0.265625 -2.484375 0.375 -2.484375 L 0.40625 -2.53125 Z M 0.40625 -2.53125 "
               id="path13080" />
          </symbol>
          <symbol
             overflow="visible"
             id="textext-e300404e-2">
            <path
               style="stroke:none;"
               d=""
               id="path13083" />
          </symbol>
          <symbol
             overflow="visible"
             id="textext-e300404e-3">
            <path
               style="stroke:none;"
               d="M 2.1875 -4.625 C 2.1875 -4.640625 2.203125 -4.734375 2.203125 -4.734375 C 2.203125 -4.78125 2.1875 -4.84375 2.09375 -4.84375 C 1.953125 -4.84375 1.375 -4.78125 1.203125 -4.765625 C 1.15625 -4.765625 1.046875 -4.75 1.046875 -4.609375 C 1.046875 -4.515625 1.15625 -4.515625 1.234375 -4.515625 C 1.5625 -4.515625 1.5625 -4.453125 1.5625 -4.40625 C 1.5625 -4.359375 1.546875 -4.3125 1.546875 -4.25 L 0.5625 -0.3125 C 0.515625 -0.1875 0.515625 -0.171875 0.515625 -0.15625 C 0.515625 -0.046875 0.609375 0.0625 0.765625 0.0625 C 0.953125 0.0625 1.03125 -0.0625 1.078125 -0.21875 C 1.09375 -0.25 1.390625 -1.484375 1.421875 -1.578125 C 1.921875 -1.53125 2.3125 -1.359375 2.3125 -1 C 2.3125 -0.96875 2.3125 -0.9375 2.296875 -0.859375 C 2.265625 -0.765625 2.265625 -0.71875 2.265625 -0.640625 C 2.265625 -0.15625 2.671875 0.0625 3.015625 0.0625 C 3.6875 0.0625 3.890625 -0.984375 3.890625 -1 C 3.890625 -1.09375 3.8125 -1.09375 3.78125 -1.09375 C 3.6875 -1.09375 3.671875 -1.046875 3.640625 -0.921875 C 3.5625 -0.625 3.375 -0.125 3.03125 -0.125 C 2.84375 -0.125 2.78125 -0.296875 2.78125 -0.484375 C 2.78125 -0.609375 2.78125 -0.625 2.828125 -0.796875 C 2.84375 -0.828125 2.859375 -0.9375 2.859375 -1.015625 C 2.859375 -1.640625 2.03125 -1.734375 1.734375 -1.75 C 1.9375 -1.875 2.1875 -2.109375 2.3125 -2.21875 C 2.671875 -2.546875 3.015625 -2.875 3.40625 -2.875 C 3.484375 -2.875 3.578125 -2.859375 3.640625 -2.78125 C 3.34375 -2.734375 3.28125 -2.5 3.28125 -2.390625 C 3.28125 -2.25 3.390625 -2.140625 3.546875 -2.140625 C 3.75 -2.140625 3.953125 -2.296875 3.953125 -2.578125 C 3.953125 -2.8125 3.78125 -3.078125 3.421875 -3.078125 C 3.015625 -3.078125 2.65625 -2.78125 2.296875 -2.453125 C 2 -2.1875 1.78125 -1.96875 1.484375 -1.84375 L 2.1875 -4.625 Z M 2.1875 -4.625 "
               id="path13086" />
          </symbol>
        </g>
      </defs>
      <g
         id="textext-e300404e-4">
        <g
           style="fill:rgb(0%,0%,0%);fill-opacity:1;"
           id="g13089">
          <use
             xlink:href="#textext-e300404e-1"
             x="223.4321"
             y="134.7647"
             id="use13091" />
        </g>
        <g
           style="fill:rgb(0%,0%,0%);fill-opacity:1;"
           id="g13093">
          <use
             xlink:href="#textext-e300404e-3"
             x="228.5901"
             y="136.2591"
             id="use13095" />
        </g>
      </g>
    </g>
    <g
       id="g13501"
       transform="matrix(1.2,0,0,1.2,-158.27497,821.22808)"
       ns0:preamble="/home/manju/Documents/ubm/preamble.tex"
       ns0:text="$\\in$">
      <defs
         id="defs13503">
        <g
           id="g13505">
          <symbol
             id="textext-4166614a-0"
             overflow="visible"
             style="overflow:visible">
            <path
               id="path13508"
               d=""
               style="stroke:none" />
          </symbol>
          <symbol
             id="textext-4166614a-1"
             overflow="visible"
             style="overflow:visible">
            <path
               id="path13511"
               d="m 5.484375,-2.296875 c 0.140625,0 0.328125,0 0.328125,-0.203125 0,-0.1875 -0.1875,-0.1875 -0.328125,-0.1875 l -4.25,0 c 0.125,-1.359375 1.296875,-2.296875 2.65625,-2.296875 l 1.59375,0 c 0.140625,0 0.328125,0 0.328125,-0.203125 0,-0.203125 -0.1875,-0.203125 -0.328125,-0.203125 l -1.625,0 c -1.59375,0 -3.03125,1.21875 -3.03125,2.890625 0,1.65625 1.421875,2.90625 3.046875,2.90625 l 1.609375,0 c 0.140625,0 0.328125,0 0.328125,-0.203125 C 5.8125,0 5.625,0 5.484375,0 L 3.890625,0 C 2.5,0 1.359375,-0.953125 1.234375,-2.296875 l 4.25,0 z m 0,0"
               style="stroke:none" />
          </symbol>
        </g>
      </defs>
      <g
         id="textext-4166614a-2">
        <g
           id="g13514"
           style="fill:#000000;fill-opacity:1">
          <use
             id="use13516"
             y="134.76469"
             x="223.4321"
             xlink:href="#textext-4166614a-1"
             width="212.59842"
             height="177.16534" />
        </g>
      </g>
    </g>
    <g
       ns0:text="$r_{k}$"
       ns0:preamble="/home/manju/Documents/ubm/preamble.tex"
       transform="matrix(1.2,0,0,1.2,-192.52024,821.55735)"
       id="g13914">
      <defs
         id="defs13916">
        <g
           id="g13918">
          <symbol
             style="overflow:visible"
             overflow="visible"
             id="textext-930c359f-0">
            <path
               style="stroke:none"
               d=""
               id="path13921" />
          </symbol>
          <symbol
             style="overflow:visible"
             overflow="visible"
             id="textext-930c359f-1">
            <path
               style="stroke:none"
               d="m 0.875,-0.59375 c -0.03125,0.15625 -0.09375,0.390625 -0.09375,0.4375 0,0.171875 0.140625,0.265625 0.296875,0.265625 0.125,0 0.296875,-0.078125 0.375,-0.28125 C 1.46875,-0.203125 1.796875,-1.5625 1.84375,-1.75 c 0.078125,-0.328125 0.265625,-1.015625 0.3125,-1.296875 0.046875,-0.125 0.328125,-0.59375 0.5625,-0.8125 0.078125,-0.0625 0.375,-0.328125 0.796875,-0.328125 0.265625,0 0.40625,0.125 0.421875,0.125 -0.296875,0.046875 -0.515625,0.28125 -0.515625,0.546875 0,0.15625 0.109375,0.34375 0.375,0.34375 0.265625,0 0.546875,-0.234375 0.546875,-0.59375 0,-0.34375 -0.3125,-0.640625 -0.828125,-0.640625 C 2.875,-4.40625 2.4375,-3.921875 2.25,-3.640625 2.15625,-4.09375 1.796875,-4.40625 1.328125,-4.40625 0.875,-4.40625 0.6875,-4.015625 0.59375,-3.84375 0.421875,-3.5 0.296875,-2.90625 0.296875,-2.875 c 0,0.109375 0.09375,0.109375 0.109375,0.109375 0.109375,0 0.109375,-0.015625 0.171875,-0.234375 0.171875,-0.703125 0.375,-1.1875 0.734375,-1.1875 0.15625,0 0.296875,0.078125 0.296875,0.453125 0,0.21875 -0.03125,0.328125 -0.15625,0.84375 L 0.875,-0.59375 z m 0,0"
               id="path13924" />
          </symbol>
          <symbol
             style="overflow:visible"
             overflow="visible"
             id="textext-930c359f-2">
            <path
               style="stroke:none"
               d=""
               id="path13927" />
          </symbol>
          <symbol
             style="overflow:visible"
             overflow="visible"
             id="textext-930c359f-3">
            <path
               style="stroke:none"
               d="m 2.1875,-4.625 c 0,-0.015625 0.015625,-0.109375 0.015625,-0.109375 0,-0.046875 -0.015625,-0.109375 -0.109375,-0.109375 -0.140625,0 -0.71875,0.0625 -0.890625,0.078125 -0.046875,0 -0.15625,0.015625 -0.15625,0.15625 0,0.09375 0.109375,0.09375 0.1875,0.09375 0.328125,0 0.328125,0.0625 0.328125,0.109375 0,0.046875 -0.015625,0.09375 -0.015625,0.15625 L 0.5625,-0.3125 c -0.046875,0.125 -0.046875,0.140625 -0.046875,0.15625 0,0.109375 0.09375,0.21875 0.25,0.21875 0.1875,0 0.265625,-0.125 0.3125,-0.28125 0.015625,-0.03125 0.3125,-1.265625 0.34375,-1.359375 0.5,0.046875 0.890625,0.21875 0.890625,0.578125 0,0.03125 0,0.0625 -0.015625,0.140625 -0.03125,0.09375 -0.03125,0.140625 -0.03125,0.21875 0,0.484375 0.40625,0.703125 0.75,0.703125 0.671875,0 0.875,-1.046875 0.875,-1.0625 0,-0.09375 -0.078125,-0.09375 -0.109375,-0.09375 -0.09375,0 -0.109375,0.046875 -0.140625,0.171875 C 3.5625,-0.625 3.375,-0.125 3.03125,-0.125 c -0.1875,0 -0.25,-0.171875 -0.25,-0.359375 0,-0.125 0,-0.140625 0.046875,-0.3125 0.015625,-0.03125 0.03125,-0.140625 0.03125,-0.21875 0,-0.625 -0.828125,-0.71875 -1.125,-0.734375 C 1.9375,-1.875 2.1875,-2.109375 2.3125,-2.21875 2.671875,-2.546875 3.015625,-2.875 3.40625,-2.875 c 0.078125,0 0.171875,0.015625 0.234375,0.09375 C 3.34375,-2.734375 3.28125,-2.5 3.28125,-2.390625 c 0,0.140625 0.109375,0.25 0.265625,0.25 0.203125,0 0.40625,-0.15625 0.40625,-0.4375 0,-0.234375 -0.171875,-0.5 -0.53125,-0.5 -0.40625,0 -0.765625,0.296875 -1.125,0.625 C 2,-2.1875 1.78125,-1.96875 1.484375,-1.84375 L 2.1875,-4.625 z m 0,0"
               id="path13930" />
          </symbol>
        </g>
      </defs>
      <g
         id="textext-930c359f-4">
        <g
           style="fill:#000000;fill-opacity:1"
           id="g13933">
          <use
             height="177.16534"
             width="212.59842"
             xlink:href="#textext-930c359f-1"
             x="223.4321"
             y="134.76469"
             id="use13935" />
        </g>
        <g
           style="fill:#000000;fill-opacity:1"
           id="g13937">
          <use
             height="177.16534"
             width="212.59842"
             xlink:href="#textext-930c359f-3"
             x="227.9269"
             y="136.25909"
             id="use13939" />
        </g>
      </g>
    </g>
    <g
       id="g14371"
       transform="matrix(1.2,0,0,1.2,-164.8606,782.37287)"
       ns0:preamble="/home/manju/Documents/ubm/preamble.tex"
       ns0:text="$\\eta_1$">
      <defs
         id="defs14373">
        <g
           id="g14375">
          <symbol
             id="textext-d961c0e2-0"
             overflow="visible"
             style="overflow:visible">
            <path
               id="path14378"
               d=""
               style="stroke:none" />
          </symbol>
          <symbol
             id="textext-d961c0e2-1"
             overflow="visible"
             style="overflow:visible">
            <path
               id="path14381"
               d="M 4.859375,-2.765625 C 4.921875,-2.9375 4.9375,-3.078125 4.9375,-3.34375 c 0,-0.640625 -0.390625,-1.0625 -1.140625,-1.0625 -0.78125,0 -1.296875,0.515625 -1.546875,0.875 -0.046875,-0.578125 -0.46875,-0.875 -0.921875,-0.875 -0.453125,0 -0.640625,0.390625 -0.734375,0.5625 C 0.421875,-3.5 0.296875,-2.90625 0.296875,-2.875 c 0,0.109375 0.09375,0.109375 0.109375,0.109375 0.109375,0 0.109375,-0.015625 0.171875,-0.234375 0.171875,-0.703125 0.375,-1.1875 0.734375,-1.1875 0.15625,0 0.296875,0.078125 0.296875,0.453125 0,0.21875 -0.03125,0.328125 -0.15625,0.84375 L 0.875,-0.59375 c -0.03125,0.15625 -0.09375,0.390625 -0.09375,0.4375 0,0.171875 0.140625,0.265625 0.296875,0.265625 0.125,0 0.296875,-0.078125 0.375,-0.28125 0,-0.015625 0.125,-0.484375 0.1875,-0.734375 C 1.703125,-1.203125 1.78125,-1.5 1.859375,-1.796875 1.90625,-2.03125 1.96875,-2.25 2.03125,-2.46875 2.046875,-2.53125 2.125,-2.859375 2.140625,-2.921875 2.15625,-3.015625 2.46875,-3.5625 2.8125,-3.84375 3.03125,-4 3.34375,-4.1875 3.765625,-4.1875 c 0.4375,0 0.546875,0.34375 0.546875,0.703125 0,0.046875 0,0.21875 -0.109375,0.625 l -1.125,4.578125 c -0.03125,0.125 -0.03125,0.140625 -0.03125,0.171875 0,0.140625 0.109375,0.265625 0.265625,0.265625 0.3125,0 0.390625,-0.296875 0.421875,-0.40625 l 1.125,-4.515625 z m 0,0"
               style="stroke:none" />
          </symbol>
          <symbol
             id="textext-d961c0e2-2"
             overflow="visible"
             style="overflow:visible">
            <path
               id="path14384"
               d=""
               style="stroke:none" />
          </symbol>
          <symbol
             id="textext-d961c0e2-3"
             overflow="visible"
             style="overflow:visible">
            <path
               id="path14387"
               d="m 2.328125,-4.4375 c 0,-0.1875 0,-0.1875 -0.203125,-0.1875 -0.453125,0.4375 -1.078125,0.4375 -1.359375,0.4375 l 0,0.25 c 0.15625,0 0.625,0 1,-0.1875 l 0,3.546875 c 0,0.234375 0,0.328125 -0.6875,0.328125 l -0.265625,0 0,0.25 c 0.125,0 0.984375,-0.03125 1.234375,-0.03125 0.21875,0 1.09375,0.03125 1.25,0.03125 l 0,-0.25 -0.265625,0 c -0.703125,0 -0.703125,-0.09375 -0.703125,-0.328125 l 0,-3.859375 z m 0,0"
               style="stroke:none" />
          </symbol>
        </g>
      </defs>
      <g
         id="textext-d961c0e2-4">
        <g
           id="g14390"
           style="fill:#000000;fill-opacity:1">
          <use
             id="use14392"
             y="134.76469"
             x="223.4321"
             xlink:href="#textext-d961c0e2-1"
             width="212.59842"
             height="177.16534" />
        </g>
        <g
           id="g14394"
           style="fill:#000000;fill-opacity:1">
          <use
             id="use14396"
             y="136.25909"
             x="228.37891"
             xlink:href="#textext-d961c0e2-3"
             width="212.59842"
             height="177.16534" />
        </g>
      </g>
    </g>
    <g
       ns0:text="$g$"
       ns0:preamble="/home/manju/Documents/ubm/preamble.tex"
       transform="matrix(1.2,0,0,1.2,-143.7866,802.12976)"
       id="g14862">
      <defs
         id="defs14864">
        <g
           id="g14866">
          <symbol
             style="overflow:visible"
             overflow="visible"
             id="textext-2a42bc9b-0">
            <path
               style="stroke:none"
               d=""
               id="path14869" />
          </symbol>
          <symbol
             style="overflow:visible"
             overflow="visible"
             id="textext-2a42bc9b-1">
            <path
               style="stroke:none"
               d="M 4.6875,-3.765625 C 4.703125,-3.8125 4.71875,-3.875 4.71875,-3.9375 c 0,-0.171875 -0.109375,-0.265625 -0.28125,-0.265625 -0.09375,0 -0.375,0.0625 -0.40625,0.421875 -0.1875,-0.359375 -0.53125,-0.625 -0.9375,-0.625 -1.125,0 -2.359375,1.390625 -2.359375,2.828125 0,0.984375 0.59375,1.578125 1.3125,1.578125 0.59375,0 1.0625,-0.46875 1.15625,-0.578125 L 3.21875,-0.5625 C 3.015625,0.3125 2.890625,0.734375 2.890625,0.75 2.84375,0.84375 2.515625,1.828125 1.453125,1.828125 1.265625,1.828125 0.9375,1.8125 0.65625,1.71875 0.953125,1.640625 1.0625,1.375 1.0625,1.203125 c 0,-0.15625 -0.109375,-0.34375 -0.375,-0.34375 -0.21875,0 -0.53125,0.171875 -0.53125,0.578125 0,0.40625 0.359375,0.609375 1.3125,0.609375 1.25,0 1.96875,-0.78125 2.125,-1.375 l 1.09375,-4.4375 z M 3.40625,-1.28125 C 3.34375,-1.015625 3.109375,-0.765625 2.890625,-0.578125 2.6875,-0.40625 2.375,-0.21875 2.078125,-0.21875 c -0.5,0 -0.640625,-0.515625 -0.640625,-0.921875 0,-0.46875 0.28125,-1.65625 0.5625,-2.15625 C 2.265625,-3.78125 2.6875,-4.1875 3.109375,-4.1875 c 0.65625,0 0.796875,0.8125 0.796875,0.859375 0,0.046875 -0.015625,0.109375 -0.03125,0.140625 l -0.46875,1.90625 z m 0,0"
               id="path14872" />
          </symbol>
        </g>
      </defs>
      <g
         id="textext-2a42bc9b-2">
        <g
           style="fill:#000000;fill-opacity:1"
           id="g14875">
          <use
             height="177.16534"
             width="212.59842"
             xlink:href="#textext-2a42bc9b-1"
             x="223.4321"
             y="134.76469"
             id="use14877" />
        </g>
      </g>
    </g>
    <g
       id="g15393"
       transform="matrix(1.2,0,0,1.2,-121.44416,816.25853)"
       ns0:preamble="/home/manju/Documents/ubm/preamble.tex"
       ns0:text="$\\eta_2$">
      <defs
         id="defs15395">
        <g
           id="g15397">
          <symbol
             id="textext-9dc4259e-0"
             overflow="visible">
            <path
               id="path15400"
               d=""
               style="stroke:none;" />
          </symbol>
          <symbol
             id="textext-9dc4259e-1"
             overflow="visible">
            <path
               id="path15403"
               d="M 4.859375 -2.765625 C 4.921875 -2.9375 4.9375 -3.078125 4.9375 -3.34375 C 4.9375 -3.984375 4.546875 -4.40625 3.796875 -4.40625 C 3.015625 -4.40625 2.5 -3.890625 2.25 -3.53125 C 2.203125 -4.109375 1.78125 -4.40625 1.328125 -4.40625 C 0.875 -4.40625 0.6875 -4.015625 0.59375 -3.84375 C 0.421875 -3.5 0.296875 -2.90625 0.296875 -2.875 C 0.296875 -2.765625 0.390625 -2.765625 0.40625 -2.765625 C 0.515625 -2.765625 0.515625 -2.78125 0.578125 -3 C 0.75 -3.703125 0.953125 -4.1875 1.3125 -4.1875 C 1.46875 -4.1875 1.609375 -4.109375 1.609375 -3.734375 C 1.609375 -3.515625 1.578125 -3.40625 1.453125 -2.890625 L 0.875 -0.59375 C 0.84375 -0.4375 0.78125 -0.203125 0.78125 -0.15625 C 0.78125 0.015625 0.921875 0.109375 1.078125 0.109375 C 1.203125 0.109375 1.375 0.03125 1.453125 -0.171875 C 1.453125 -0.1875 1.578125 -0.65625 1.640625 -0.90625 C 1.703125 -1.203125 1.78125 -1.5 1.859375 -1.796875 C 1.90625 -2.03125 1.96875 -2.25 2.03125 -2.46875 C 2.046875 -2.53125 2.125 -2.859375 2.140625 -2.921875 C 2.15625 -3.015625 2.46875 -3.5625 2.8125 -3.84375 C 3.03125 -4 3.34375 -4.1875 3.765625 -4.1875 C 4.203125 -4.1875 4.3125 -3.84375 4.3125 -3.484375 C 4.3125 -3.4375 4.3125 -3.265625 4.203125 -2.859375 L 3.078125 1.71875 C 3.046875 1.84375 3.046875 1.859375 3.046875 1.890625 C 3.046875 2.03125 3.15625 2.15625 3.3125 2.15625 C 3.625 2.15625 3.703125 1.859375 3.734375 1.75 L 4.859375 -2.765625 Z M 4.859375 -2.765625 "
               style="stroke:none;" />
          </symbol>
          <symbol
             id="textext-9dc4259e-2"
             overflow="visible">
            <path
               id="path15406"
               d=""
               style="stroke:none;" />
          </symbol>
          <symbol
             id="textext-9dc4259e-3"
             overflow="visible">
            <path
               id="path15409"
               d="M 3.515625 -1.265625 L 3.28125 -1.265625 C 3.265625 -1.109375 3.1875 -0.703125 3.09375 -0.640625 C 3.046875 -0.59375 2.515625 -0.59375 2.40625 -0.59375 L 1.125 -0.59375 C 1.859375 -1.234375 2.109375 -1.4375 2.515625 -1.765625 C 3.03125 -2.171875 3.515625 -2.609375 3.515625 -3.265625 C 3.515625 -4.109375 2.78125 -4.625 1.890625 -4.625 C 1.03125 -4.625 0.4375 -4.015625 0.4375 -3.375 C 0.4375 -3.03125 0.734375 -2.984375 0.8125 -2.984375 C 0.96875 -2.984375 1.171875 -3.109375 1.171875 -3.359375 C 1.171875 -3.484375 1.125 -3.734375 0.765625 -3.734375 C 0.984375 -4.21875 1.453125 -4.375 1.78125 -4.375 C 2.484375 -4.375 2.84375 -3.828125 2.84375 -3.265625 C 2.84375 -2.65625 2.40625 -2.1875 2.1875 -1.9375 L 0.515625 -0.265625 C 0.4375 -0.203125 0.4375 -0.1875 0.4375 0 L 3.3125 0 L 3.515625 -1.265625 Z M 3.515625 -1.265625 "
               style="stroke:none;" />
          </symbol>
        </g>
      </defs>
      <g
         id="textext-9dc4259e-4">
        <g
           id="g15412"
           style="fill:rgb(0%,0%,0%);fill-opacity:1;">
          <use
             id="use15414"
             y="134.7647"
             x="223.4321"
             xlink:href="#textext-9dc4259e-1" />
        </g>
        <g
           id="g15416"
           style="fill:rgb(0%,0%,0%);fill-opacity:1;">
          <use
             id="use15418"
             y="136.2591"
             x="228.3789"
             xlink:href="#textext-9dc4259e-3" />
        </g>
      </g>
    </g>
  </g>
</svg>
