<?xml version="1.0" encoding="UTF-8" standalone="no"?>
<!-- Created with Inkscape (http://www.inkscape.org/) -->

<svg
   xmlns:dc="http://purl.org/dc/elements/1.1/"
   xmlns:cc="http://creativecommons.org/ns#"
   xmlns:rdf="http://www.w3.org/1999/02/22-rdf-syntax-ns#"
   xmlns:svg="http://www.w3.org/2000/svg"
   xmlns="http://www.w3.org/2000/svg"
   xmlns:sodipodi="http://sodipodi.sourceforge.net/DTD/sodipodi-0.dtd"
   xmlns:inkscape="http://www.inkscape.org/namespaces/inkscape"
   inkscape:version="0.92.4 (unknown)"
   width="12cm"
   height="8cm"
   viewBox="0 0 120 79.999998"
   version="1.1"
   id="svg8"
   sodipodi:docname="fig3.svg">
  <defs
     id="defs2">
    <marker
       inkscape:stockid="Arrow1Mend"
       orient="auto"
       refY="0"
       refX="0"
       id="marker1531"
       style="overflow:visible"
       inkscape:isstock="true">
      <path
         inkscape:connector-curvature="0"
         id="path1529"
         d="M 0,0 5,-5 -12.5,0 5,5 Z"
         style="fill:#000000;fill-opacity:1;fill-rule:evenodd;stroke:#000000;stroke-width:1.00000003pt;stroke-opacity:1"
         transform="matrix(-0.4,0,0,-0.4,-4,0)" />
    </marker>
    <marker
       inkscape:isstock="true"
       style="overflow:visible"
       id="marker24175"
       refX="0"
       refY="0"
       orient="auto"
       inkscape:stockid="Arrow1Mend"
       inkscape:collect="always">
      <path
         transform="matrix(-0.4,0,0,-0.4,-4,0)"
         style="fill:#000000;fill-opacity:1;fill-rule:evenodd;stroke:#000000;stroke-width:1.00000003pt;stroke-opacity:1"
         d="M 0,0 5,-5 -12.5,0 5,5 Z"
         id="path24173"
         inkscape:connector-curvature="0" />
    </marker>
    <marker
       inkscape:stockid="Arrow1Mend"
       orient="auto"
       refY="0"
       refX="0"
       id="marker20105"
       style="overflow:visible"
       inkscape:isstock="true">
      <path
         inkscape:connector-curvature="0"
         id="path20103"
         d="M 0,0 5,-5 -12.5,0 5,5 Z"
         style="fill:#000000;fill-opacity:1;fill-rule:evenodd;stroke:#000000;stroke-width:1.00000003pt;stroke-opacity:1"
         transform="matrix(-0.4,0,0,-0.4,-4,0)" />
    </marker>
    <marker
       inkscape:stockid="Arrow1Mend"
       orient="auto"
       refY="0"
       refX="0"
       id="marker18239"
       style="overflow:visible"
       inkscape:isstock="true">
      <path
         inkscape:connector-curvature="0"
         id="path18237"
         d="M 0,0 5,-5 -12.5,0 5,5 Z"
         style="fill:#000000;fill-opacity:1;fill-rule:evenodd;stroke:#000000;stroke-width:1.00000003pt;stroke-opacity:1"
         transform="matrix(-0.4,0,0,-0.4,-4,0)" />
    </marker>
    <marker
       inkscape:stockid="Arrow1Mend"
       orient="auto"
       refY="0"
       refX="0"
       id="marker13424"
       style="overflow:visible"
       inkscape:isstock="true">
      <path
         inkscape:connector-curvature="0"
         id="path13422"
         d="M 0,0 5,-5 -12.5,0 5,5 Z"
         style="fill:#000000;fill-opacity:1;fill-rule:evenodd;stroke:#000000;stroke-width:1.00000003pt;stroke-opacity:1"
         transform="matrix(-0.4,0,0,-0.4,-4,0)" />
    </marker>
    <marker
       inkscape:isstock="true"
       style="overflow:visible"
       id="marker13078"
       refX="0"
       refY="0"
       orient="auto"
       inkscape:stockid="Arrow1Mstart">
      <path
         inkscape:connector-curvature="0"
         transform="matrix(0.4,0,0,0.4,4,0)"
         style="fill:#000000;fill-opacity:1;fill-rule:evenodd;stroke:#000000;stroke-width:1.00000003pt;stroke-opacity:1"
         d="M 0,0 5,-5 -12.5,0 5,5 Z"
         id="path13076" />
    </marker>
    <marker
       inkscape:stockid="Arrow1Mend"
       orient="auto"
       refY="0"
       refX="0"
       id="marker11134"
       style="overflow:visible"
       inkscape:isstock="true">
      <path
         inkscape:connector-curvature="0"
         id="path11132"
         d="M 0,0 5,-5 -12.5,0 5,5 Z"
         style="fill:#000000;fill-opacity:1;fill-rule:evenodd;stroke:#000000;stroke-width:1.00000003pt;stroke-opacity:1"
         transform="matrix(-0.4,0,0,-0.4,-4,0)" />
    </marker>
    <marker
       inkscape:stockid="Arrow1Mend"
       orient="auto"
       refY="0"
       refX="0"
       id="marker6574"
       style="overflow:visible"
       inkscape:isstock="true">
      <path
         id="path6572"
         d="M 0,0 5,-5 -12.5,0 5,5 Z"
         style="fill:#000000;fill-opacity:1;fill-rule:evenodd;stroke:#000000;stroke-width:1.00000003pt;stroke-opacity:1"
         transform="matrix(-0.4,0,0,-0.4,-4,0)"
         inkscape:connector-curvature="0" />
    </marker>
    <marker
       inkscape:stockid="Arrow1Mend"
       orient="auto"
       refY="0"
       refX="0"
       id="marker4516"
       style="overflow:visible"
       inkscape:isstock="true">
      <path
         id="path4514"
         d="M 0,0 5,-5 -12.5,0 5,5 Z"
         style="fill:#000000;fill-opacity:1;fill-rule:evenodd;stroke:#000000;stroke-width:1.00000003pt;stroke-opacity:1"
         transform="matrix(-0.4,0,0,-0.4,-4,0)"
         inkscape:connector-curvature="0" />
    </marker>
    <marker
       inkscape:stockid="Arrow1Mend"
       orient="auto"
       refY="0"
       refX="0"
       id="marker31034"
       style="overflow:visible"
       inkscape:isstock="true">
      <path
         id="path31032"
         d="M 0,0 5,-5 -12.5,0 5,5 Z"
         style="fill:#000000;fill-opacity:1;fill-rule:evenodd;stroke:#000000;stroke-width:1.00000003pt;stroke-opacity:1"
         transform="matrix(-0.4,0,0,-0.4,-4,0)"
         inkscape:connector-curvature="0" />
    </marker>
    <marker
       inkscape:stockid="Arrow1Mend"
       orient="auto"
       refY="0"
       refX="0"
       id="marker28938"
       style="overflow:visible"
       inkscape:isstock="true">
      <path
         id="path28936"
         d="M 0,0 5,-5 -12.5,0 5,5 Z"
         style="fill:#000000;fill-opacity:1;fill-rule:evenodd;stroke:#000000;stroke-width:1.00000003pt;stroke-opacity:1"
         transform="matrix(-0.4,0,0,-0.4,-4,0)"
         inkscape:connector-curvature="0" />
    </marker>
    <marker
       inkscape:isstock="true"
       style="overflow:visible"
       id="marker26920"
       refX="0"
       refY="0"
       orient="auto"
       inkscape:stockid="Arrow1Mend">
      <path
         transform="matrix(-0.4,0,0,-0.4,-4,0)"
         style="fill:#000000;fill-opacity:1;fill-rule:evenodd;stroke:#000000;stroke-width:1.00000003pt;stroke-opacity:1"
         d="M 0,0 5,-5 -12.5,0 5,5 Z"
         id="path26918"
         inkscape:connector-curvature="0" />
    </marker>
    <marker
       inkscape:stockid="Arrow1Mend"
       orient="auto"
       refY="0"
       refX="0"
       id="marker26310"
       style="overflow:visible"
       inkscape:isstock="true">
      <path
         id="path26308"
         d="M 0,0 5,-5 -12.5,0 5,5 Z"
         style="fill:#000000;fill-opacity:1;fill-rule:evenodd;stroke:#000000;stroke-width:1.00000003pt;stroke-opacity:1"
         transform="matrix(-0.4,0,0,-0.4,-4,0)"
         inkscape:connector-curvature="0" />
    </marker>
    <marker
       inkscape:stockid="Arrow1Mend"
       orient="auto"
       refY="0"
       refX="0"
       id="marker24389"
       style="overflow:visible"
       inkscape:isstock="true">
      <path
         id="path24387"
         d="M 0,0 5,-5 -12.5,0 5,5 Z"
         style="fill:#000000;fill-opacity:1;fill-rule:evenodd;stroke:#000000;stroke-width:1.00000003pt;stroke-opacity:1"
         transform="matrix(-0.4,0,0,-0.4,-4,0)"
         inkscape:connector-curvature="0" />
    </marker>
    <marker
       inkscape:isstock="true"
       style="overflow:visible"
       id="marker21198"
       refX="0"
       refY="0"
       orient="auto"
       inkscape:stockid="Arrow1Mend">
      <path
         transform="matrix(-0.4,0,0,-0.4,-4,0)"
         style="fill:#000000;fill-opacity:1;fill-rule:evenodd;stroke:#000000;stroke-width:1.00000003pt;stroke-opacity:1"
         d="M 0,0 5,-5 -12.5,0 5,5 Z"
         id="path21196"
         inkscape:connector-curvature="0" />
    </marker>
    <marker
       inkscape:stockid="Arrow1Mend"
       orient="auto"
       refY="0"
       refX="0"
       id="marker19578"
       style="overflow:visible"
       inkscape:isstock="true">
      <path
         id="path19576"
         d="M 0,0 5,-5 -12.5,0 5,5 Z"
         style="fill:#000000;fill-opacity:1;fill-rule:evenodd;stroke:#000000;stroke-width:1.00000003pt;stroke-opacity:1"
         transform="matrix(-0.4,0,0,-0.4,-4,0)"
         inkscape:connector-curvature="0" />
    </marker>
    <marker
       inkscape:isstock="true"
       style="overflow:visible"
       id="marker16378"
       refX="0"
       refY="0"
       orient="auto"
       inkscape:stockid="Arrow1Mend">
      <path
         transform="matrix(-0.4,0,0,-0.4,-4,0)"
         style="fill:#000000;fill-opacity:1;fill-rule:evenodd;stroke:#000000;stroke-width:1.00000003pt;stroke-opacity:1"
         d="M 0,0 5,-5 -12.5,0 5,5 Z"
         id="path16376"
         inkscape:connector-curvature="0" />
    </marker>
    <marker
       inkscape:stockid="Arrow1Mend"
       orient="auto"
       refY="0"
       refX="0"
       id="marker11008"
       style="overflow:visible"
       inkscape:isstock="true">
      <path
         id="path11006"
         d="M 0,0 5,-5 -12.5,0 5,5 Z"
         style="fill:#000000;fill-opacity:1;fill-rule:evenodd;stroke:#000000;stroke-width:1.00000003pt;stroke-opacity:1"
         transform="matrix(-0.4,0,0,-0.4,-4,0)"
         inkscape:connector-curvature="0" />
    </marker>
    <marker
       inkscape:stockid="Arrow1Mend"
       orient="auto"
       refY="0"
       refX="0"
       id="marker7592"
       style="overflow:visible"
       inkscape:isstock="true">
      <path
         id="path7590"
         d="M 0,0 5,-5 -12.5,0 5,5 Z"
         style="fill:#000000;fill-opacity:1;fill-rule:evenodd;stroke:#000000;stroke-width:1.00000003pt;stroke-opacity:1"
         transform="matrix(-0.4,0,0,-0.4,-4,0)"
         inkscape:connector-curvature="0" />
    </marker>
    <marker
       inkscape:isstock="true"
       style="overflow:visible"
       id="marker5549"
       refX="0"
       refY="0"
       orient="auto"
       inkscape:stockid="Arrow1Mend">
      <path
         transform="matrix(-0.4,0,0,-0.4,-4,0)"
         style="fill:#000000;fill-opacity:1;fill-rule:evenodd;stroke:#000000;stroke-width:1.00000003pt;stroke-opacity:1"
         d="M 0,0 5,-5 -12.5,0 5,5 Z"
         id="path5547"
         inkscape:connector-curvature="0" />
    </marker>
    <marker
       inkscape:stockid="Arrow1Mend"
       orient="auto"
       refY="0"
       refX="0"
       id="marker30659"
       style="overflow:visible"
       inkscape:isstock="true">
      <path
         id="path30657"
         d="M 0,0 5,-5 -12.5,0 5,5 Z"
         style="fill:#000000;fill-opacity:1;fill-rule:evenodd;stroke:#000000;stroke-width:1.00000003pt;stroke-opacity:1"
         transform="matrix(-0.4,0,0,-0.4,-4,0)"
         inkscape:connector-curvature="0" />
    </marker>
    <marker
       inkscape:isstock="true"
       style="overflow:visible"
       id="marker28008"
       refX="0"
       refY="0"
       orient="auto"
       inkscape:stockid="Arrow1Mend">
      <path
         transform="matrix(-0.4,0,0,-0.4,-4,0)"
         style="fill:#000000;fill-opacity:1;fill-rule:evenodd;stroke:#000000;stroke-width:1.00000003pt;stroke-opacity:1"
         d="M 0,0 5,-5 -12.5,0 5,5 Z"
         id="path28006"
         inkscape:connector-curvature="0" />
    </marker>
    <marker
       inkscape:isstock="true"
       style="overflow:visible"
       id="marker23070"
       refX="0"
       refY="0"
       orient="auto"
       inkscape:stockid="Arrow1Mend">
      <path
         transform="matrix(-0.4,0,0,-0.4,-4,0)"
         style="fill:#000000;fill-opacity:1;fill-rule:evenodd;stroke:#000000;stroke-width:1.00000003pt;stroke-opacity:1"
         d="M 0,0 5,-5 -12.5,0 5,5 Z"
         id="path23068"
         inkscape:connector-curvature="0" />
    </marker>
    <marker
       inkscape:stockid="Arrow1Mend"
       orient="auto"
       refY="0"
       refX="0"
       id="marker20372"
       style="overflow:visible"
       inkscape:isstock="true">
      <path
         id="path20370"
         d="M 0,0 5,-5 -12.5,0 5,5 Z"
         style="fill:#000000;fill-opacity:1;fill-rule:evenodd;stroke:#000000;stroke-width:1.00000003pt;stroke-opacity:1"
         transform="matrix(-0.4,0,0,-0.4,-4,0)"
         inkscape:connector-curvature="0" />
    </marker>
    <marker
       inkscape:isstock="true"
       style="overflow:visible"
       id="marker15161"
       refX="0"
       refY="0"
       orient="auto"
       inkscape:stockid="Arrow1Mend">
      <path
         transform="matrix(-0.4,0,0,-0.4,-4,0)"
         style="fill:#000000;fill-opacity:1;fill-rule:evenodd;stroke:#000000;stroke-width:1.00000003pt;stroke-opacity:1"
         d="M 0,0 5,-5 -12.5,0 5,5 Z"
         id="path15159"
         inkscape:connector-curvature="0" />
    </marker>
    <marker
       inkscape:isstock="true"
       style="overflow:visible"
       id="marker13439"
       refX="0"
       refY="0"
       orient="auto"
       inkscape:stockid="Arrow1Mend">
      <path
         transform="matrix(-0.4,0,0,-0.4,-4,0)"
         style="fill:#000000;fill-opacity:1;fill-rule:evenodd;stroke:#000000;stroke-width:1.00000003pt;stroke-opacity:1"
         d="M 0,0 5,-5 -12.5,0 5,5 Z"
         id="path13437"
         inkscape:connector-curvature="0" />
    </marker>
    <marker
       inkscape:stockid="Arrow1Mend"
       orient="auto"
       refY="0"
       refX="0"
       id="marker9304"
       style="overflow:visible"
       inkscape:isstock="true">
      <path
         id="path9302"
         d="M 0,0 5,-5 -12.5,0 5,5 Z"
         style="fill:#808080;fill-opacity:1;fill-rule:evenodd;stroke:#808080;stroke-width:1.00000003pt;stroke-opacity:1"
         transform="matrix(-0.4,0,0,-0.4,-4,0)"
         inkscape:connector-curvature="0" />
    </marker>
    <marker
       inkscape:isstock="true"
       style="overflow:visible"
       id="marker7474"
       refX="0"
       refY="0"
       orient="auto"
       inkscape:stockid="Arrow1Mend">
      <path
         transform="matrix(-0.4,0,0,-0.4,-4,0)"
         style="fill:#000000;fill-opacity:1;fill-rule:evenodd;stroke:#000000;stroke-width:1.00000003pt;stroke-opacity:1"
         d="M 0,0 5,-5 -12.5,0 5,5 Z"
         id="path7472"
         inkscape:connector-curvature="0" />
    </marker>
    <marker
       inkscape:stockid="Arrow1Mend"
       orient="auto"
       refY="0"
       refX="0"
       id="marker6618"
       style="overflow:visible"
       inkscape:isstock="true">
      <path
         id="path6616"
         d="M 0,0 5,-5 -12.5,0 5,5 Z"
         style="fill:#000000;fill-opacity:1;fill-rule:evenodd;stroke:#000000;stroke-width:1.00000003pt;stroke-opacity:1"
         transform="matrix(-0.4,0,0,-0.4,-4,0)"
         inkscape:connector-curvature="0" />
    </marker>
    <marker
       inkscape:isstock="true"
       style="overflow:visible"
       id="marker1797"
       refX="0"
       refY="0"
       orient="auto"
       inkscape:stockid="Arrow1Mend">
      <path
         transform="matrix(-0.4,0,0,-0.4,-4,0)"
         style="fill:#000000;fill-opacity:1;fill-rule:evenodd;stroke:#000000;stroke-width:1.00000003pt;stroke-opacity:1"
         d="M 0,0 5,-5 -12.5,0 5,5 Z"
         id="path1795"
         inkscape:connector-curvature="0" />
    </marker>
    <marker
       inkscape:isstock="true"
       style="overflow:visible"
       id="marker22132"
       refX="0"
       refY="0"
       orient="auto"
       inkscape:stockid="Arrow1Mend">
      <path
         transform="matrix(-0.4,0,0,-0.4,-4,0)"
         style="fill:#000000;fill-opacity:1;fill-rule:evenodd;stroke:#000000;stroke-width:1.00000003pt;stroke-opacity:1"
         d="M 0,0 5,-5 -12.5,0 5,5 Z"
         id="path22130"
         inkscape:connector-curvature="0" />
    </marker>
    <marker
       inkscape:isstock="true"
       style="overflow:visible"
       id="marker21640"
       refX="0"
       refY="0"
       orient="auto"
       inkscape:stockid="Arrow1Mend">
      <path
         transform="matrix(-0.4,0,0,-0.4,-4,0)"
         style="fill:#000000;fill-opacity:1;fill-rule:evenodd;stroke:#000000;stroke-width:1.00000003pt;stroke-opacity:1"
         d="M 0,0 5,-5 -12.5,0 5,5 Z"
         id="path21638"
         inkscape:connector-curvature="0" />
    </marker>
    <marker
       inkscape:stockid="Arrow1Mend"
       orient="auto"
       refY="0"
       refX="0"
       id="marker19078"
       style="overflow:visible"
       inkscape:isstock="true">
      <path
         id="path19076"
         d="M 0,0 5,-5 -12.5,0 5,5 Z"
         style="fill:#000000;fill-opacity:1;fill-rule:evenodd;stroke:#000000;stroke-width:1.00000003pt;stroke-opacity:1"
         transform="matrix(-0.4,0,0,-0.4,-4,0)"
         inkscape:connector-curvature="0" />
    </marker>
    <marker
       inkscape:isstock="true"
       style="overflow:visible"
       id="marker17873"
       refX="0"
       refY="0"
       orient="auto"
       inkscape:stockid="Arrow1Mend">
      <path
         transform="matrix(-0.4,0,0,-0.4,-4,0)"
         style="fill:#000000;fill-opacity:1;fill-rule:evenodd;stroke:#000000;stroke-width:1.00000003pt;stroke-opacity:1"
         d="M 0,0 5,-5 -12.5,0 5,5 Z"
         id="path17871"
         inkscape:connector-curvature="0" />
    </marker>
    <marker
       inkscape:isstock="true"
       style="overflow:visible"
       id="marker12720"
       refX="0"
       refY="0"
       orient="auto"
       inkscape:stockid="Arrow1Mend">
      <path
         transform="matrix(-0.4,0,0,-0.4,-4,0)"
         style="fill:#000000;fill-opacity:1;fill-rule:evenodd;stroke:#000000;stroke-width:1.00000003pt;stroke-opacity:1"
         d="M 0,0 5,-5 -12.5,0 5,5 Z"
         id="path12718"
         inkscape:connector-curvature="0" />
    </marker>
    <marker
       inkscape:isstock="true"
       style="overflow:visible"
       id="marker9948"
       refX="0"
       refY="0"
       orient="auto"
       inkscape:stockid="Arrow1Mend">
      <path
         transform="matrix(-0.4,0,0,-0.4,-4,0)"
         style="fill:#000000;fill-opacity:1;fill-rule:evenodd;stroke:#000000;stroke-width:1.00000003pt;stroke-opacity:1"
         d="M 0,0 5,-5 -12.5,0 5,5 Z"
         id="path9946"
         inkscape:connector-curvature="0" />
    </marker>
    <marker
       inkscape:isstock="true"
       style="overflow:visible"
       id="marker9778"
       refX="0"
       refY="0"
       orient="auto"
       inkscape:stockid="Arrow1Mend">
      <path
         transform="matrix(-0.4,0,0,-0.4,-4,0)"
         style="fill:#000000;fill-opacity:1;fill-rule:evenodd;stroke:#000000;stroke-width:1.00000003pt;stroke-opacity:1"
         d="M 0,0 5,-5 -12.5,0 5,5 Z"
         id="path9776"
         inkscape:connector-curvature="0" />
    </marker>
    <marker
       inkscape:stockid="Arrow1Mend"
       orient="auto"
       refY="0"
       refX="0"
       id="marker9624"
       style="overflow:visible"
       inkscape:isstock="true">
      <path
         id="path9622"
         d="M 0,0 5,-5 -12.5,0 5,5 Z"
         style="fill:#000000;fill-opacity:1;fill-rule:evenodd;stroke:#000000;stroke-width:1.00000003pt;stroke-opacity:1"
         transform="matrix(-0.4,0,0,-0.4,-4,0)"
         inkscape:connector-curvature="0" />
    </marker>
    <marker
       inkscape:isstock="true"
       style="overflow:visible"
       id="marker7255"
       refX="0"
       refY="0"
       orient="auto"
       inkscape:stockid="Arrow1Mend">
      <path
         transform="matrix(-0.4,0,0,-0.4,-4,0)"
         style="fill:#000000;fill-opacity:1;fill-rule:evenodd;stroke:#000000;stroke-width:1.00000003pt;stroke-opacity:1"
         d="M 0,0 5,-5 -12.5,0 5,5 Z"
         id="path7253"
         inkscape:connector-curvature="0" />
    </marker>
    <marker
       inkscape:stockid="Arrow1Mend"
       orient="auto"
       refY="0"
       refX="0"
       id="marker6565"
       style="overflow:visible"
       inkscape:isstock="true">
      <path
         id="path6563"
         d="M 0,0 5,-5 -12.5,0 5,5 Z"
         style="fill:#000000;fill-opacity:1;fill-rule:evenodd;stroke:#000000;stroke-width:1.00000003pt;stroke-opacity:1"
         transform="matrix(-0.4,0,0,-0.4,-4,0)"
         inkscape:connector-curvature="0" />
    </marker>
    <marker
       inkscape:stockid="Arrow1Mend"
       orient="auto"
       refY="0"
       refX="0"
       id="marker1770"
       style="overflow:visible"
       inkscape:isstock="true">
      <path
         id="path1768"
         d="M 0,0 5,-5 -12.5,0 5,5 Z"
         style="fill:#000000;fill-opacity:1;fill-rule:evenodd;stroke:#000000;stroke-width:1.00000003pt;stroke-opacity:1"
         transform="matrix(-0.4,0,0,-0.4,-4,0)"
         inkscape:connector-curvature="0" />
    </marker>
    <marker
       inkscape:stockid="Arrow1Mstart"
       orient="auto"
       refY="0"
       refX="0"
       id="marker17534"
       style="overflow:visible"
       inkscape:isstock="true">
      <path
         id="path17532"
         d="M 0,0 5,-5 -12.5,0 5,5 Z"
         style="fill:#000000;fill-opacity:1;fill-rule:evenodd;stroke:#000000;stroke-width:1.00000003pt;stroke-opacity:1"
         transform="matrix(0.4,0,0,0.4,4,0)"
         inkscape:connector-curvature="0" />
    </marker>
    <marker
       inkscape:stockid="Arrow1Mstart"
       orient="auto"
       refY="0"
       refX="0"
       id="marker16399"
       style="overflow:visible"
       inkscape:isstock="true">
      <path
         id="path16397"
         d="M 0,0 5,-5 -12.5,0 5,5 Z"
         style="fill:#666666;fill-opacity:1;fill-rule:evenodd;stroke:#666666;stroke-width:1.00000003pt;stroke-opacity:1"
         transform="matrix(0.4,0,0,0.4,4,0)"
         inkscape:connector-curvature="0" />
    </marker>
    <marker
       inkscape:stockid="Arrow1Mstart"
       orient="auto"
       refY="0"
       refX="0"
       id="marker13571"
       style="overflow:visible"
       inkscape:isstock="true">
      <path
         id="path13569"
         d="M 0,0 5,-5 -12.5,0 5,5 Z"
         style="fill:#000000;fill-opacity:1;fill-rule:evenodd;stroke:#000000;stroke-width:1.00000003pt;stroke-opacity:1"
         transform="matrix(0.4,0,0,0.4,4,0)"
         inkscape:connector-curvature="0" />
    </marker>
    <marker
       inkscape:isstock="true"
       style="overflow:visible"
       id="marker12137"
       refX="0"
       refY="0"
       orient="auto"
       inkscape:stockid="Arrow1Mstart">
      <path
         transform="matrix(0.4,0,0,0.4,4,0)"
         style="fill:#808080;fill-opacity:1;fill-rule:evenodd;stroke:#808080;stroke-width:1.00000003pt;stroke-opacity:1"
         d="M 0,0 5,-5 -12.5,0 5,5 Z"
         id="path12135"
         inkscape:connector-curvature="0" />
    </marker>
    <marker
       inkscape:stockid="Arrow1Mend"
       orient="auto"
       refY="0"
       refX="0"
       id="marker6990"
       style="overflow:visible"
       inkscape:isstock="true">
      <path
         id="path6988"
         d="M 0,0 5,-5 -12.5,0 5,5 Z"
         style="fill:#000000;fill-opacity:1;fill-rule:evenodd;stroke:#000000;stroke-width:1.00000003pt;stroke-opacity:1"
         transform="matrix(-0.4,0,0,-0.4,-4,0)"
         inkscape:connector-curvature="0" />
    </marker>
    <marker
       inkscape:stockid="Arrow1Mend"
       orient="auto"
       refY="0"
       refX="0"
       id="marker2742"
       style="overflow:visible"
       inkscape:isstock="true">
      <path
         id="path2740"
         d="M 0,0 5,-5 -12.5,0 5,5 Z"
         style="fill:#000000;fill-opacity:1;fill-rule:evenodd;stroke:#000000;stroke-width:1.00000003pt;stroke-opacity:1"
         transform="matrix(-0.4,0,0,-0.4,-4,0)"
         inkscape:connector-curvature="0" />
    </marker>
    <marker
       inkscape:stockid="Arrow1Mend"
       orient="auto"
       refY="0"
       refX="0"
       id="marker2118"
       style="overflow:visible"
       inkscape:isstock="true">
      <path
         id="path2116"
         d="M 0,0 5,-5 -12.5,0 5,5 Z"
         style="fill:#000000;fill-opacity:1;fill-rule:evenodd;stroke:#000000;stroke-width:1.00000003pt;stroke-opacity:1"
         transform="matrix(-0.4,0,0,-0.4,-4,0)"
         inkscape:connector-curvature="0" />
    </marker>
    <marker
       inkscape:isstock="true"
       style="overflow:visible"
       id="marker18120"
       refX="0"
       refY="0"
       orient="auto"
       inkscape:stockid="Arrow1Mend">
      <path
         transform="matrix(-0.4,0,0,-0.4,-4,0)"
         style="fill:#000000;fill-opacity:1;fill-rule:evenodd;stroke:#000000;stroke-width:1.00000003pt;stroke-opacity:1"
         d="M 0,0 5,-5 -12.5,0 5,5 Z"
         id="path18118"
         inkscape:connector-curvature="0" />
    </marker>
    <marker
       inkscape:stockid="Arrow1Mend"
       orient="auto"
       refY="0"
       refX="0"
       id="marker17533"
       style="overflow:visible"
       inkscape:isstock="true">
      <path
         id="path17531"
         d="M 0,0 5,-5 -12.5,0 5,5 Z"
         style="fill:#000000;fill-opacity:1;fill-rule:evenodd;stroke:#000000;stroke-width:1.00000003pt;stroke-opacity:1"
         transform="matrix(-0.4,0,0,-0.4,-4,0)"
         inkscape:connector-curvature="0" />
    </marker>
    <marker
       inkscape:isstock="true"
       style="overflow:visible"
       id="marker10832"
       refX="0"
       refY="0"
       orient="auto"
       inkscape:stockid="Arrow1Mend">
      <path
         transform="matrix(-0.4,0,0,-0.4,-4,0)"
         style="fill:#000000;fill-opacity:1;fill-rule:evenodd;stroke:#000000;stroke-width:1.00000003pt;stroke-opacity:1"
         d="M 0,0 5,-5 -12.5,0 5,5 Z"
         id="path10830"
         inkscape:connector-curvature="0" />
    </marker>
    <marker
       inkscape:isstock="true"
       style="overflow:visible"
       id="marker8615"
       refX="0"
       refY="0"
       orient="auto"
       inkscape:stockid="Arrow1Mend">
      <path
         transform="matrix(-0.4,0,0,-0.4,-4,0)"
         style="fill:#000000;fill-opacity:1;fill-rule:evenodd;stroke:#000000;stroke-width:1.00000003pt;stroke-opacity:1"
         d="M 0,0 5,-5 -12.5,0 5,5 Z"
         id="path8613"
         inkscape:connector-curvature="0" />
    </marker>
    <marker
       inkscape:isstock="true"
       style="overflow:visible"
       id="marker1866"
       refX="0"
       refY="0"
       orient="auto"
       inkscape:stockid="Arrow1Mend">
      <path
         transform="matrix(-0.4,0,0,-0.4,-4,0)"
         style="fill:#000000;fill-opacity:1;fill-rule:evenodd;stroke:#000000;stroke-width:1.00000003pt;stroke-opacity:1"
         d="M 0,0 5,-5 -12.5,0 5,5 Z"
         id="path1864"
         inkscape:connector-curvature="0" />
    </marker>
    <marker
       inkscape:isstock="true"
       style="overflow:visible"
       id="marker4824"
       refX="0"
       refY="0"
       orient="auto"
       inkscape:stockid="Arrow1Mend">
      <path
         transform="matrix(-0.4,0,0,-0.4,-4,0)"
         style="fill:#000000;fill-opacity:1;fill-rule:evenodd;stroke:#000000;stroke-width:1.00000003pt;stroke-opacity:1"
         d="M 0,0 5,-5 -12.5,0 5,5 Z"
         id="path4822"
         inkscape:connector-curvature="0" />
    </marker>
  </defs>
  <sodipodi:namedview
     id="base"
     pagecolor="#ffffff"
     bordercolor="#666666"
     borderopacity="1.0"
     inkscape:pageopacity="0.0"
     inkscape:pageshadow="2"
     inkscape:zoom="1.2501562"
     inkscape:cx="226.77165"
     inkscape:cy="151.1811"
     inkscape:document-units="cm"
     inkscape:current-layer="layer1"
     showgrid="false"
     units="cm"
     inkscape:window-width="773"
     inkscape:window-height="716"
     inkscape:window-x="10"
     inkscape:window-y="24"
     inkscape:window-maximized="0"
     inkscape:object-paths="false"
     inkscape:snap-intersection-paths="false"
     inkscape:snap-object-midpoints="false"
     inkscape:snap-center="false"
     inkscape:snap-midpoints="false"
     inkscape:snap-others="false"
     inkscape:object-nodes="true">
    <inkscape:grid
       type="xygrid"
       id="grid4518"
       dotted="false"
       empspacing="4" />
  </sodipodi:namedview>
  <metadata
     id="metadata5">
    <rdf:RDF>
      <cc:Work
         rdf:about="">
        <dc:format>image/svg+xml</dc:format>
        <dc:type
           rdf:resource="http://purl.org/dc/dcmitype/StillImage" />
        <dc:title></dc:title>
      </cc:Work>
    </rdf:RDF>
  </metadata>
  <g
     inkscape:label="Layer 1"
     inkscape:groupmode="layer"
     id="layer1"
     transform="translate(0,-217.00001)">
    <path
       style="color:#000000;clip-rule:nonzero;display:inline;overflow:visible;visibility:visible;opacity:1;isolation:auto;mix-blend-mode:normal;color-interpolation:sRGB;color-interpolation-filters:linearRGB;solid-color:#000000;solid-opacity:1;fill:none;fill-opacity:1;fill-rule:nonzero;stroke:#000000;stroke-width:0.26458332;stroke-linecap:round;stroke-linejoin:round;stroke-miterlimit:4;stroke-dasharray:none;stroke-dashoffset:0;stroke-opacity:1;marker-start:url(#marker13078);marker-end:url(#marker24175);color-rendering:auto;image-rendering:auto;shape-rendering:auto;text-rendering:auto;enable-background:accumulate"
       d="m 19.05,235.45945 0,38.25722 h 57.149999"
       id="path1465"
       inkscape:connector-curvature="0"
       sodipodi:nodetypes="ccc" />
    <path
       style="color:#000000;clip-rule:nonzero;display:inline;overflow:visible;visibility:visible;opacity:1;isolation:auto;mix-blend-mode:normal;color-interpolation:sRGB;color-interpolation-filters:linearRGB;solid-color:#000000;solid-opacity:1;fill:none;fill-opacity:1;fill-rule:nonzero;stroke:#000000;stroke-width:0.26458332;stroke-linecap:round;stroke-linejoin:round;stroke-miterlimit:4;stroke-dasharray:none;stroke-dashoffset:0;stroke-opacity:1;marker-end:url(#marker1531);color-rendering:auto;image-rendering:auto;shape-rendering:auto;text-rendering:auto;enable-background:accumulate"
       d="m 19.05,273.71667 7.332959,-7.33295"
       id="path1521"
       inkscape:connector-curvature="0" />
    <text
       xml:space="preserve"
       style="font-style:normal;font-variant:normal;font-weight:normal;font-stretch:normal;font-size:4.23333311px;line-height:125%;font-family:LMRoman12;-inkscape-font-specification:'LMRoman12, Normal';font-variant-ligatures:normal;font-variant-caps:normal;font-variant-numeric:normal;font-feature-settings:normal;text-align:start;letter-spacing:0px;word-spacing:0px;writing-mode:lr-tb;text-anchor:start;fill:#000000;fill-opacity:1;stroke:none;stroke-width:0.26458332px;stroke-linecap:butt;stroke-linejoin:miter;stroke-opacity:1"
       x="44.410458"
       y="264.78586"
       id="text2138"><tspan
         sodipodi:role="line"
         id="tspan2136"
         x="44.410458"
         y="268.7059"
         style="stroke-width:0.26458332px" /></text>
    <path
       style="opacity:1;vector-effect:none;fill:none;fill-opacity:1;fill-rule:evenodd;stroke:#000000;stroke-width:0.26458332;stroke-linecap:butt;stroke-linejoin:miter;stroke-miterlimit:4;stroke-dasharray:none;stroke-dashoffset:0;stroke-opacity:1"
       d="m 23.915344,255.51853 c -0.466121,3.33291 1.046687,6.28718 2.543764,9.14265 2.211814,2.72866 5.125916,5.57072 8.839949,5.79228 2.827943,0.67042 5.846091,0.16185 8.663368,-0.34368 2.858214,0.50412 4.918534,-2.00605 7.762237,-1.97839 3.096994,-0.63157 6.356684,-2.04487 7.41112,-5.27319 1.451169,-2.40444 3.506515,-4.24603 5.502967,-6.1612 3.987755,-3.15661 2.96789,-7.34585 -2.415258,-7.42623 -3.034466,-0.53025 -5.698577,-2.16205 -8.100387,-3.95939 -1.960987,-2.41121 -4.764642,-2.93641 -6.71513,-5.32716 -3.10647,-1.62721 -7.14378,-0.55907 -10.422048,-2.03073 -2.42305,-0.2467 -4.728245,-1.01599 -7.101565,-1.49983 -2.898981,-0.86041 -6.705058,0.97945 -5.968701,4.54265 0.339014,2.74967 0.956224,5.28874 0.209941,8.17057 -0.372851,2.13987 -0.594304,4.09417 -0.210257,6.35165 z"
       id="path1528"
       inkscape:connector-curvature="0"
       sodipodi:nodetypes="ccccccccccccccc" />
    <path
       inkscape:connector-curvature="0"
       style="fill:#000000;fill-opacity:1;stroke:none;stroke-width:0"
       d="m 15.339811,233.4259 c 0,0 0,-0.0463 -0.05292,-0.0463 -0.09922,0 -0.403489,0.0331 -0.515937,0.0463 -0.03307,0 -0.07937,0.007 -0.07937,0.0794 0,0.0529 0.03969,0.0529 0.09922,0.0529 0.205052,0 0.211666,0.0265 0.211666,0.0728 l -0.01323,0.086 -0.608541,2.42755 c -0.01984,0.0595 -0.01984,0.0661 -0.01984,0.0926 0,0.0992 0.08599,0.11906 0.125677,0.11906 0.05292,0 0.112448,-0.0397 0.138906,-0.086 0.01984,-0.0397 0.211667,-0.82021 0.238125,-0.92604 0.145521,0.0132 0.489479,0.0794 0.489479,0.35719 0,0.0331 0,0.0463 -0.01323,0.0926 -0.0066,0.0463 -0.01323,0.0992 -0.01323,0.14552 0,0.24474 0.165364,0.41672 0.383645,0.41672 0.125677,0 0.24474,-0.0661 0.337344,-0.22489 0.105833,-0.18521 0.152135,-0.41672 0.152135,-0.42334 0,-0.0463 -0.03969,-0.0463 -0.05292,-0.0463 -0.03969,0 -0.0463,0.0199 -0.05953,0.0794 -0.08599,0.30427 -0.178593,0.52255 -0.363802,0.52255 -0.08599,0 -0.138906,-0.0463 -0.138906,-0.19844 0,-0.0728 0.01984,-0.17198 0.03307,-0.23812 0.01984,-0.0728 0.01984,-0.086 0.01984,-0.1323 0,-0.27119 -0.264583,-0.39026 -0.628385,-0.44317 0.132291,-0.0728 0.271198,-0.20505 0.363802,-0.31089 0.205052,-0.22489 0.396874,-0.40349 0.601926,-0.40349 0.02646,0 0.03307,0 0.03969,0.007 0.05292,0.007 0.05292,0.007 0.0926,0.0331 0.0066,0 0.0066,0.007 0.01323,0.0132 -0.198437,0.0132 -0.238125,0.17859 -0.238125,0.23151 0,0.0661 0.0463,0.14552 0.15875,0.14552 0.112448,0 0.23151,-0.0926 0.23151,-0.25797 0,-0.12567 -0.09922,-0.26458 -0.284427,-0.26458 -0.119062,0 -0.310885,0.0331 -0.615155,0.37042 -0.145521,0.15875 -0.310885,0.33072 -0.469635,0.39026 z m 0,0"
       id="path1649" />
    <path
       inkscape:connector-curvature="0"
       style="fill:#000000;fill-opacity:1;stroke:none;stroke-width:0"
       d="m 16.821264,236.68435 c 0.07937,-0.0794 0.132292,-0.13229 0.377031,-0.33734 0.06615,-0.0463 0.284427,-0.2249 0.370417,-0.30427 0.178593,-0.1786 0.291041,-0.33073 0.291041,-0.3638 0,-0.0397 -0.03307,-0.0397 -0.0463,-0.0397 -0.02646,0 -0.03969,0.007 -0.05292,0.0331 -0.0926,0.13229 -0.152135,0.17859 -0.224895,0.17859 -0.03307,0 -0.07938,0 -0.165365,-0.086 -0.09922,-0.10584 -0.165364,-0.12568 -0.23151,-0.12568 -0.238125,0 -0.396875,0.25797 -0.396875,0.34396 0,0.0331 0.02646,0.0397 0.0463,0.0397 0.03969,0 0.0463,-0.007 0.05292,-0.0397 0.0463,-0.10584 0.211667,-0.11245 0.257969,-0.11245 0.07276,0 0.14552,0.0198 0.185208,0.0265 0.165364,0.0331 0.185208,0.0331 0.257968,0.0331 -0.07276,0.086 -0.125677,0.13891 -0.410103,0.35719 -0.231511,0.1852 -0.310886,0.25797 -0.363802,0.3175 -0.178594,0.17198 -0.264583,0.30427 -0.264583,0.33073 0,0.0331 0.03969,0.0331 0.05292,0.0331 0.02646,0 0.03307,0 0.0463,-0.0265 0.07937,-0.11245 0.171979,-0.17859 0.271198,-0.17859 0.03969,0 0.07937,0 0.15875,0.0728 0.0926,0.0926 0.152135,0.13229 0.251354,0.13229 0.310885,0 0.509322,-0.35719 0.509322,-0.45641 0,-0.0331 -0.03307,-0.0331 -0.0463,-0.0331 -0.03969,0 -0.0463,0.0132 -0.05953,0.0463 -0.05292,0.14552 -0.224896,0.21828 -0.370416,0.21828 -0.06615,0 -0.145521,-0.0198 -0.218281,-0.0331 -0.132292,-0.0331 -0.15875,-0.0331 -0.211667,-0.0331 -0.0066,0 -0.0463,0 -0.06615,0.007 z m 0,0"
       id="path1653" />
    <path
       inkscape:connector-curvature="0"
       style="fill:#000000;fill-opacity:1;stroke:none;stroke-width:0"
       d="m 27.130848,267.54679 c 0,0 0,-0.0463 -0.05292,-0.0463 -0.09922,0 -0.403489,0.0331 -0.515937,0.0463 -0.03307,0 -0.07937,0.007 -0.07937,0.0794 0,0.0529 0.03969,0.0529 0.09922,0.0529 0.205052,0 0.211666,0.0265 0.211666,0.0728 l -0.01323,0.086 -0.608541,2.42755 c -0.01984,0.0595 -0.01984,0.0661 -0.01984,0.0926 0,0.0992 0.08599,0.11906 0.125677,0.11906 0.05292,0 0.112448,-0.0397 0.138906,-0.086 0.01984,-0.0397 0.211667,-0.82021 0.238125,-0.92604 0.145521,0.0132 0.489479,0.0794 0.489479,0.35719 0,0.0331 0,0.0463 -0.01323,0.0926 -0.0066,0.0463 -0.01323,0.0992 -0.01323,0.14552 0,0.24474 0.165364,0.41672 0.383645,0.41672 0.125677,0 0.24474,-0.0661 0.337344,-0.22489 0.105833,-0.18521 0.152135,-0.41672 0.152135,-0.42334 0,-0.0463 -0.03969,-0.0463 -0.05292,-0.0463 -0.03969,0 -0.0463,0.0199 -0.05953,0.0794 -0.08599,0.30427 -0.178593,0.52255 -0.363802,0.52255 -0.08599,0 -0.138906,-0.0463 -0.138906,-0.19844 0,-0.0728 0.01984,-0.17198 0.03307,-0.23812 0.01984,-0.0728 0.01984,-0.086 0.01984,-0.1323 0,-0.27119 -0.264583,-0.39026 -0.628385,-0.44317 0.132291,-0.0728 0.271198,-0.20505 0.363802,-0.31089 0.205052,-0.22489 0.396874,-0.40349 0.601926,-0.40349 0.02646,0 0.03307,0 0.03969,0.007 0.05292,0.007 0.05292,0.007 0.0926,0.0331 0.0066,0 0.0066,0.007 0.01323,0.0132 -0.198437,0.0132 -0.238125,0.17859 -0.238125,0.23151 0,0.0661 0.0463,0.14552 0.15875,0.14552 0.112448,0 0.23151,-0.0926 0.23151,-0.25797 0,-0.12567 -0.09922,-0.26458 -0.284427,-0.26458 -0.119062,0 -0.310885,0.0331 -0.615155,0.37042 -0.145521,0.15875 -0.310885,0.33072 -0.469635,0.39026 z m 0,0"
       id="path1657" />
    <path
       inkscape:connector-curvature="0"
       style="fill:#000000;fill-opacity:1;stroke:none;stroke-width:0"
       d="m 29.756623,269.95196 c 0.01323,-0.0397 0.01323,-0.0463 0.01323,-0.0661 0,-0.0595 -0.0463,-0.0926 -0.09922,-0.0926 -0.03307,0 -0.08599,0.0132 -0.119063,0.0661 -0.01323,0.0198 -0.03307,0.11244 -0.0463,0.17198 l -0.06614,0.24474 c -0.01323,0.0728 -0.105834,0.44317 -0.119063,0.47624 0,0 -0.132291,0.25797 -0.357187,0.25797 -0.205052,0 -0.205052,-0.19182 -0.205052,-0.24474 0,-0.15875 0.06615,-0.34395 0.15875,-0.57546 0.03307,-0.0926 0.0463,-0.12568 0.0463,-0.1786 0,-0.1389 -0.119062,-0.25135 -0.277812,-0.25135 -0.297656,0 -0.429948,0.40349 -0.429948,0.4564 0,0.0331 0.03969,0.0331 0.05292,0.0331 0.03969,0 0.03969,-0.0132 0.05292,-0.0463 0.07276,-0.24473 0.198438,-0.35718 0.3175,-0.35718 0.0463,0 0.07276,0.0331 0.07276,0.0992 0,0.0728 -0.02646,0.13229 -0.03969,0.17198 -0.145521,0.3638 -0.171979,0.46963 -0.171979,0.60192 0,0.0463 0,0.18521 0.112448,0.28443 0.0926,0.0728 0.218281,0.086 0.297656,0.086 0.119062,0 0.224895,-0.0397 0.3175,-0.13229 -0.03307,0.16536 -0.06615,0.29104 -0.191823,0.43656 -0.07937,0.0926 -0.198438,0.18521 -0.357187,0.18521 -0.01984,0 -0.15875,0 -0.218281,-0.0926 0.158749,-0.0198 0.158749,-0.15875 0.158749,-0.16536 0,-0.0926 -0.08599,-0.11245 -0.112447,-0.11245 -0.07276,0 -0.171979,0.0595 -0.171979,0.19844 0,0.14552 0.138906,0.25797 0.350572,0.25797 0.297656,0 0.661458,-0.23151 0.754062,-0.60193 z m 0,0"
       id="path1661" />
    <path
       inkscape:connector-curvature="0"
       style="fill:#000000;fill-opacity:1;stroke:none;stroke-width:0"
       d="m 78.019346,272.06278 c 0,0 0,-0.0463 -0.05292,-0.0463 -0.09922,0 -0.403489,0.0331 -0.515937,0.0463 -0.03307,0 -0.07937,0.007 -0.07937,0.0794 0,0.0529 0.03969,0.0529 0.09922,0.0529 0.205052,0 0.211666,0.0265 0.211666,0.0728 l -0.01323,0.086 -0.608541,2.42755 c -0.01984,0.0595 -0.01984,0.0661 -0.01984,0.0926 0,0.0992 0.08599,0.11906 0.125677,0.11906 0.05292,0 0.112448,-0.0397 0.138906,-0.086 0.01984,-0.0397 0.211667,-0.82021 0.238125,-0.92604 0.145521,0.0132 0.489479,0.0794 0.489479,0.35719 0,0.0331 0,0.0463 -0.01323,0.0926 -0.0066,0.0463 -0.01323,0.0992 -0.01323,0.14552 0,0.24474 0.165364,0.41672 0.383645,0.41672 0.125677,0 0.24474,-0.0661 0.337344,-0.22489 0.105833,-0.18521 0.152135,-0.41672 0.152135,-0.42334 0,-0.0463 -0.03969,-0.0463 -0.05292,-0.0463 -0.03969,0 -0.0463,0.0199 -0.05953,0.0794 -0.08599,0.30427 -0.178593,0.52255 -0.363802,0.52255 -0.08599,0 -0.138906,-0.0463 -0.138906,-0.19844 0,-0.0728 0.01984,-0.17198 0.03307,-0.23812 0.01984,-0.0728 0.01984,-0.086 0.01984,-0.1323 0,-0.27119 -0.264583,-0.39026 -0.628385,-0.44317 0.132291,-0.0728 0.271198,-0.20505 0.363802,-0.31089 0.205052,-0.22489 0.396874,-0.40349 0.601926,-0.40349 0.02646,0 0.03307,0 0.03969,0.007 0.05292,0.007 0.05292,0.007 0.0926,0.0331 0.0066,0 0.0066,0.007 0.01323,0.0132 -0.198437,0.0132 -0.238125,0.17859 -0.238125,0.23151 0,0.0661 0.0463,0.14552 0.15875,0.14552 0.112448,0 0.23151,-0.0926 0.23151,-0.25797 0,-0.12567 -0.09922,-0.26458 -0.284427,-0.26458 -0.119062,0 -0.310885,0.0331 -0.615155,0.37042 -0.145521,0.15875 -0.310885,0.33072 -0.469635,0.39026 z m 0,0"
       id="path1665" />
    <path
       inkscape:connector-curvature="0"
       style="fill:#000000;fill-opacity:1;stroke:none;stroke-width:0"
       d="m 79.738501,275.26831 c -0.02646,0.0992 -0.125677,0.25797 -0.277812,0.25797 -0.0066,0 -0.09922,0 -0.15875,-0.0397 0.119062,-0.0397 0.132292,-0.14552 0.132292,-0.16537 0,-0.0661 -0.05292,-0.10583 -0.119063,-0.10583 -0.08599,0 -0.171979,0.0661 -0.171979,0.17859 0,0.14552 0.165365,0.21167 0.310885,0.21167 0.138906,0 0.257969,-0.0794 0.330729,-0.20505 0.07276,0.15213 0.23151,0.20505 0.350573,0.20505 0.343958,0 0.522552,-0.3638 0.522552,-0.44979 0,-0.0397 -0.03969,-0.0397 -0.0463,-0.0397 -0.0463,0 -0.0463,0.0198 -0.05953,0.0529 -0.05953,0.20505 -0.238125,0.35718 -0.403489,0.35718 -0.119062,0 -0.178594,-0.0794 -0.178594,-0.19182 0,-0.0794 0.07276,-0.34396 0.152136,-0.67469 0.05953,-0.22489 0.191822,-0.29765 0.291041,-0.29765 0.0066,0 0.0926,0 0.15875,0.0397 -0.0926,0.0264 -0.132292,0.11244 -0.132292,0.16536 0,0.0595 0.05292,0.10583 0.119063,0.10583 0.06615,0 0.165364,-0.0529 0.165364,-0.17859 0,-0.16537 -0.191822,-0.21828 -0.30427,-0.21828 -0.152136,0 -0.271198,0.0992 -0.330729,0.21166 -0.05292,-0.11906 -0.191823,-0.21166 -0.357187,-0.21166 -0.330729,0 -0.515938,0.3638 -0.515938,0.4564 0,0.0331 0.03969,0.0331 0.0463,0.0331 0.03969,0 0.03969,-0.007 0.05953,-0.0463 0.07276,-0.23151 0.257968,-0.35718 0.403489,-0.35718 0.09922,0 0.178594,0.0529 0.178594,0.19182 0,0.0595 -0.03969,0.20505 -0.06615,0.31089 z m 0,0"
       id="path1669" />
  </g>
</svg>
