<?xml version="1.0" encoding="UTF-8" standalone="no"?>
<!-- Created with Inkscape (http://www.inkscape.org/) -->
<svg
   xmlns:ns0="http://www.iki.fi/pav/software/textext/"
   xmlns:dc="http://purl.org/dc/elements/1.1/"
   xmlns:cc="http://creativecommons.org/ns#"
   xmlns:rdf="http://www.w3.org/1999/02/22-rdf-syntax-ns#"
   xmlns:svg="http://www.w3.org/2000/svg"
   xmlns="http://www.w3.org/2000/svg"
   xmlns:xlink="http://www.w3.org/1999/xlink"
   xmlns:sodipodi="http://sodipodi.sourceforge.net/DTD/sodipodi-0.dtd"
   xmlns:inkscape="http://www.inkscape.org/namespaces/inkscape"
   width="212.59842"
   height="177.16534"
   id="svg2"
   sodipodi:version="0.32"
   inkscape:version="0.46"
   version="1.0"
   sodipodi:docname="fig3.svg"
   inkscape:output_extension="org.inkscape.output.svg.inkscape">
  <sodipodi:namedview
     id="base"
     pagecolor="#ffffff"
     bordercolor="#666666"
     borderopacity="1.0"
     gridtolerance="10000"
     guidetolerance="10"
     objecttolerance="10"
     inkscape:pageopacity="0.0"
     inkscape:pageshadow="2"
     inkscape:zoom="1.979899"
     inkscape:cx="143.53183"
     inkscape:cy="84.039882"
     inkscape:document-units="px"
     inkscape:current-layer="layer1"
     showgrid="false"
     units="cm"
     inkscape:window-width="964"
     inkscape:window-height="726"
     inkscape:window-x="50"
     inkscape:window-y="27"
     showguides="true"
     inkscape:guide-bbox="true">
    <inkscape:grid
       enabled="true"
       visible="true"
       id="grid3157"
       type="xygrid" />
  </sodipodi:namedview>
  <defs
     id="defs4">
    <inkscape:perspective
       id="perspective10"
       inkscape:persp3d-origin="372.04724 : 350.78739 : 1"
       inkscape:vp_z="744.09448 : 526.18109 : 1"
       inkscape:vp_y="0 : 1000 : 0"
       inkscape:vp_x="0 : 526.18109 : 1"
       sodipodi:type="inkscape:persp3d" />
  </defs>
  <metadata
     id="metadata7">
    <rdf:RDF>
      <cc:Work
         rdf:about="">
        <dc:format>image/svg+xml</dc:format>
        <dc:type
           rdf:resource="http://purl.org/dc/dcmitype/StillImage" />
      </cc:Work>
    </rdf:RDF>
  </metadata>
  <g
     id="layer1"
     inkscape:groupmode="layer"
     inkscape:label="Layer 1">
    <path
       id="path2383"
       d="M 31.109307,143.39837 L 182.69316,143.39837"
       style="fill:none;fill-rule:evenodd;stroke:#000000;stroke-width:1.2;stroke-linecap:butt;stroke-linejoin:miter;stroke-miterlimit:4;stroke-dasharray:none;stroke-opacity:1" />
    <path
       sodipodi:open="true"
       sodipodi:end="3.1504673"
       sodipodi:start="0"
       transform="matrix(0.9508588,0,0,-0.9508588,-13.692183,249.44108)"
       d="M 194.64285,111.8082 A 66.785713,66.785713 0 1 1 61.074056,111.21551"
       sodipodi:ry="66.785713"
       sodipodi:rx="66.785713"
       sodipodi:cy="111.8082"
       sodipodi:cx="127.85714"
       id="path3155"
       style="opacity:1;fill:none;fill-opacity:1;fill-rule:evenodd;stroke:#000000;stroke-width:1.26201703;stroke-linecap:butt;stroke-linejoin:miter;marker:none;marker-start:none;marker-mid:none;marker-end:none;stroke-miterlimit:4;stroke-dasharray:none;stroke-dashoffset:0;stroke-opacity:1;visibility:visible;display:inline;overflow:visible;enable-background:accumulate"
       sodipodi:type="arc" />
    <path
       id="path4513"
       d="M 151.0178,89.78715 L 148.23082,100.18831"
       style="fill:none;fill-rule:evenodd;stroke:#000000;stroke-width:1.20000005;stroke-linecap:butt;stroke-linejoin:miter;stroke-miterlimit:4;stroke-dasharray:none;stroke-opacity:1" />
    <g
       id="g4525"
       ns0:preamble="/home/raghu/TIFR/Curves-on-rational-and-unirational-surfaces/figures/preample.tex"
       ns0:text="$z_{2}$"
       transform="matrix(1.2,0,0,1.2,-216.17264,-73.236058)">
      <defs
         id="defs4527">
        <g
           id="g4529">
          <symbol
             id="textext-1e0c6718-0"
             overflow="visible"
             style="overflow:visible">
            <path
               id="path4532"
               d=""
               style="stroke:none" />
          </symbol>
          <symbol
             id="textext-1e0c6718-1"
             overflow="visible"
             style="overflow:visible">
            <path
               id="path4535"
               d="M 1.328125,-0.828125 C 1.859375,-1.40625 2.15625,-1.65625 2.515625,-1.96875 C 2.515625,-1.96875 3.125,-2.5 3.484375,-2.859375 C 4.4375,-3.78125 4.65625,-4.265625 4.65625,-4.3125 C 4.65625,-4.40625 4.5625,-4.40625 4.546875,-4.40625 C 4.46875,-4.40625 4.453125,-4.390625 4.390625,-4.296875 C 4.09375,-3.8125 3.890625,-3.65625 3.65625,-3.65625 C 3.40625,-3.65625 3.296875,-3.8125 3.140625,-3.984375 C 2.953125,-4.203125 2.78125,-4.40625 2.453125,-4.40625 C 1.703125,-4.40625 1.25,-3.484375 1.25,-3.265625 C 1.25,-3.21875 1.28125,-3.15625 1.359375,-3.15625 C 1.453125,-3.15625 1.46875,-3.203125 1.5,-3.265625 C 1.6875,-3.734375 2.265625,-3.734375 2.34375,-3.734375 C 2.546875,-3.734375 2.734375,-3.671875 2.96875,-3.59375 C 3.375,-3.4375 3.484375,-3.4375 3.734375,-3.4375 C 3.375,-3.015625 2.546875,-2.296875 2.359375,-2.140625 C 1.859375,-1.6875 1.84375,-1.671875 1.453125,-1.296875 C 0.78125,-0.625 0.421875,-0.0625 0.421875,0.015625 C 0.421875,0.109375 0.53125,0.109375 0.546875,0.109375 C 0.625,0.109375 0.640625,0.09375 0.703125,-0.015625 C 0.9375,-0.375 1.234375,-0.640625 1.5625,-0.640625 C 1.78125,-0.640625 1.890625,-0.546875 2.140625,-0.265625 C 2.296875,-0.046875 2.484375,0.109375 2.765625,0.109375 C 3.765625,0.109375 4.34375,-1.15625 4.34375,-1.421875 C 4.34375,-1.46875 4.296875,-1.53125 4.21875,-1.53125 C 4.125,-1.53125 4.109375,-1.46875 4.078125,-1.390625 C 3.84375,-0.75 3.203125,-0.5625 2.875,-0.5625 C 2.6875,-0.5625 2.5,-0.625 2.296875,-0.6875 C 1.953125,-0.8125 1.796875,-0.859375 1.59375,-0.859375 C 1.578125,-0.859375 1.421875,-0.859375 1.328125,-0.828125 z"
               style="stroke:none" />
          </symbol>
          <symbol
             id="textext-1e0c6718-2"
             overflow="visible"
             style="overflow:visible">
            <path
               id="path4538"
               d=""
               style="stroke:none" />
          </symbol>
          <symbol
             id="textext-1e0c6718-3"
             overflow="visible"
             style="overflow:visible">
            <path
               id="path4541"
               d="M 3.515625,-1.265625 L 3.28125,-1.265625 C 3.265625,-1.109375 3.1875,-0.703125 3.09375,-0.640625 C 3.046875,-0.59375 2.515625,-0.59375 2.40625,-0.59375 L 1.125,-0.59375 C 1.859375,-1.234375 2.109375,-1.4375 2.515625,-1.765625 C 3.03125,-2.171875 3.515625,-2.609375 3.515625,-3.265625 C 3.515625,-4.109375 2.78125,-4.625 1.890625,-4.625 C 1.03125,-4.625 0.4375,-4.015625 0.4375,-3.375 C 0.4375,-3.03125 0.734375,-2.984375 0.8125,-2.984375 C 0.96875,-2.984375 1.171875,-3.109375 1.171875,-3.359375 C 1.171875,-3.484375 1.125,-3.734375 0.765625,-3.734375 C 0.984375,-4.21875 1.453125,-4.375 1.78125,-4.375 C 2.484375,-4.375 2.84375,-3.828125 2.84375,-3.265625 C 2.84375,-2.65625 2.40625,-2.1875 2.1875,-1.9375 L 0.515625,-0.265625 C 0.4375,-0.203125 0.4375,-0.1875 0.4375,0 L 3.3125,0 L 3.515625,-1.265625 z"
               style="stroke:none" />
          </symbol>
        </g>
      </defs>
      <g
         id="textext-1e0c6718-4">
        <g
           id="g4544"
           style="fill:#000000;fill-opacity:1">
          <use
             id="use4546"
             y="134.765"
             x="223.43201"
             xlink:href="#textext-1e0c6718-1"
             width="212.59842"
             height="177.16534" />
        </g>
        <g
           id="g4548"
           style="fill:#000000;fill-opacity:1">
          <use
             id="use4550"
             y="136.259"
             x="228.065"
             xlink:href="#textext-1e0c6718-3"
             width="212.59842"
             height="177.16534" />
        </g>
      </g>
    </g>
    <g
       ns0:text="$z_{1}$"
       ns0:preamble="/home/raghu/TIFR/Curves-on-rational-and-unirational-surfaces/figures/preample.tex"
       transform="matrix(1.2,0,0,1.2,-115.70819,-72.730982)"
       id="g4634">
      <defs
         id="defs4636">
        <g
           id="g4638">
          <symbol
             overflow="visible"
             id="textext-9726ce1e-0">
            <path
               style="stroke:none;"
               d=""
               id="path4641" />
          </symbol>
          <symbol
             overflow="visible"
             id="textext-9726ce1e-1">
            <path
               style="stroke:none;"
               d="M 1.328125 -0.828125 C 1.859375 -1.40625 2.15625 -1.65625 2.515625 -1.96875 C 2.515625 -1.96875 3.125 -2.5 3.484375 -2.859375 C 4.4375 -3.78125 4.65625 -4.265625 4.65625 -4.3125 C 4.65625 -4.40625 4.5625 -4.40625 4.546875 -4.40625 C 4.46875 -4.40625 4.453125 -4.390625 4.390625 -4.296875 C 4.09375 -3.8125 3.890625 -3.65625 3.65625 -3.65625 C 3.40625 -3.65625 3.296875 -3.8125 3.140625 -3.984375 C 2.953125 -4.203125 2.78125 -4.40625 2.453125 -4.40625 C 1.703125 -4.40625 1.25 -3.484375 1.25 -3.265625 C 1.25 -3.21875 1.28125 -3.15625 1.359375 -3.15625 C 1.453125 -3.15625 1.46875 -3.203125 1.5 -3.265625 C 1.6875 -3.734375 2.265625 -3.734375 2.34375 -3.734375 C 2.546875 -3.734375 2.734375 -3.671875 2.96875 -3.59375 C 3.375 -3.4375 3.484375 -3.4375 3.734375 -3.4375 C 3.375 -3.015625 2.546875 -2.296875 2.359375 -2.140625 C 1.859375 -1.6875 1.84375 -1.671875 1.453125 -1.296875 C 0.78125 -0.625 0.421875 -0.0625 0.421875 0.015625 C 0.421875 0.109375 0.53125 0.109375 0.546875 0.109375 C 0.625 0.109375 0.640625 0.09375 0.703125 -0.015625 C 0.9375 -0.375 1.234375 -0.640625 1.5625 -0.640625 C 1.78125 -0.640625 1.890625 -0.546875 2.140625 -0.265625 C 2.296875 -0.046875 2.484375 0.109375 2.765625 0.109375 C 3.765625 0.109375 4.34375 -1.15625 4.34375 -1.421875 C 4.34375 -1.46875 4.296875 -1.53125 4.21875 -1.53125 C 4.125 -1.53125 4.109375 -1.46875 4.078125 -1.390625 C 3.84375 -0.75 3.203125 -0.5625 2.875 -0.5625 C 2.6875 -0.5625 2.5 -0.625 2.296875 -0.6875 C 1.953125 -0.8125 1.796875 -0.859375 1.59375 -0.859375 C 1.578125 -0.859375 1.421875 -0.859375 1.328125 -0.828125 Z M 1.328125 -0.828125 "
               id="path4644" />
          </symbol>
          <symbol
             overflow="visible"
             id="textext-9726ce1e-2">
            <path
               style="stroke:none;"
               d=""
               id="path4647" />
          </symbol>
          <symbol
             overflow="visible"
             id="textext-9726ce1e-3">
            <path
               style="stroke:none;"
               d="M 2.328125 -4.4375 C 2.328125 -4.625 2.328125 -4.625 2.125 -4.625 C 1.671875 -4.1875 1.046875 -4.1875 0.765625 -4.1875 L 0.765625 -3.9375 C 0.921875 -3.9375 1.390625 -3.9375 1.765625 -4.125 L 1.765625 -0.578125 C 1.765625 -0.34375 1.765625 -0.25 1.078125 -0.25 L 0.8125 -0.25 L 0.8125 0 C 0.9375 0 1.796875 -0.03125 2.046875 -0.03125 C 2.265625 -0.03125 3.140625 0 3.296875 0 L 3.296875 -0.25 L 3.03125 -0.25 C 2.328125 -0.25 2.328125 -0.34375 2.328125 -0.578125 L 2.328125 -4.4375 Z M 2.328125 -4.4375 "
               id="path4650" />
          </symbol>
        </g>
      </defs>
      <g
         id="textext-9726ce1e-4">
        <g
           style="fill:rgb(0%,0%,0%);fill-opacity:1;"
           id="g4653">
          <use
             xlink:href="#textext-9726ce1e-1"
             x="223.432"
             y="134.765"
             id="use4655" />
        </g>
        <g
           style="fill:rgb(0%,0%,0%);fill-opacity:1;"
           id="g4657">
          <use
             xlink:href="#textext-9726ce1e-3"
             x="228.065"
             y="136.259"
             id="use4659" />
        </g>
      </g>
    </g>
    <path
       style="fill:none;fill-rule:evenodd;stroke:#000000;stroke-width:1.20000005;stroke-linecap:butt;stroke-linejoin:miter;stroke-miterlimit:4;stroke-dasharray:none;stroke-opacity:1"
       d="M 67.0178,100.69339 L 64.23082,90.292226"
       id="path5284" />
    <g
       ns0:text="$-1$"
       ns0:preamble="/home/raghu/TIFR/Curves-on-rational-and-unirational-surfaces/figures/preample.tex"
       transform="matrix(1.2,0,0,1.2,-233.74878,-5.1954484)"
       id="g5345">
      <defs
         id="defs5347">
        <g
           id="g5349">
          <symbol
             style="overflow:visible"
             overflow="visible"
             id="textext-26a98741-0">
            <path
               style="stroke:none"
               d=""
               id="path5352" />
          </symbol>
          <symbol
             style="overflow:visible"
             overflow="visible"
             id="textext-26a98741-1">
            <path
               style="stroke:none"
               d="M 6.59375,-2.296875 C 6.734375,-2.296875 6.921875,-2.296875 6.921875,-2.5 C 6.921875,-2.6875 6.734375,-2.6875 6.59375,-2.6875 L 1.15625,-2.6875 C 1.015625,-2.6875 0.828125,-2.6875 0.828125,-2.5 C 0.828125,-2.296875 1.015625,-2.296875 1.15625,-2.296875 L 6.59375,-2.296875 z"
               id="path5355" />
          </symbol>
          <symbol
             style="overflow:visible"
             overflow="visible"
             id="textext-26a98741-2">
            <path
               style="stroke:none"
               d=""
               id="path5358" />
          </symbol>
          <symbol
             style="overflow:visible"
             overflow="visible"
             id="textext-26a98741-3">
            <path
               style="stroke:none"
               d="M 2.9375,-6.375 C 2.9375,-6.625 2.9375,-6.640625 2.703125,-6.640625 C 2.078125,-6 1.203125,-6 0.890625,-6 L 0.890625,-5.6875 C 1.09375,-5.6875 1.671875,-5.6875 2.1875,-5.953125 L 2.1875,-0.78125 C 2.1875,-0.421875 2.15625,-0.3125 1.265625,-0.3125 L 0.953125,-0.3125 L 0.953125,0 C 1.296875,-0.03125 2.15625,-0.03125 2.5625,-0.03125 C 2.953125,-0.03125 3.828125,-0.03125 4.171875,0 L 4.171875,-0.3125 L 3.859375,-0.3125 C 2.953125,-0.3125 2.9375,-0.421875 2.9375,-0.78125 L 2.9375,-6.375 z"
               id="path5361" />
          </symbol>
        </g>
      </defs>
      <g
         id="textext-26a98741-4">
        <g
           style="fill:#000000;fill-opacity:1"
           id="g5364">
          <use
             height="177.16534"
             width="212.59842"
             xlink:href="#textext-26a98741-1"
             x="223.43201"
             y="134.765"
             id="use5366" />
        </g>
        <g
           style="fill:#000000;fill-opacity:1"
           id="g5368">
          <use
             height="177.16534"
             width="212.59842"
             xlink:href="#textext-26a98741-3"
             x="231.181"
             y="134.765"
             id="use5370" />
        </g>
      </g>
    </g>
    <g
       id="g5504"
       transform="matrix(1.2,0,0,1.2,-99.647254,-5.7005247)"
       ns0:preamble="/home/raghu/TIFR/Curves-on-rational-and-unirational-surfaces/figures/preample.tex"
       ns0:text="$1$">
      <defs
         id="defs5506">
        <g
           id="g5508">
          <symbol
             id="textext-38f75e9e-0"
             overflow="visible"
             style="overflow:visible">
            <path
               id="path5511"
               d=""
               style="stroke:none" />
          </symbol>
          <symbol
             id="textext-38f75e9e-1"
             overflow="visible"
             style="overflow:visible">
            <path
               id="path5514"
               d="M 2.9375,-6.375 C 2.9375,-6.625 2.9375,-6.640625 2.703125,-6.640625 C 2.078125,-6 1.203125,-6 0.890625,-6 L 0.890625,-5.6875 C 1.09375,-5.6875 1.671875,-5.6875 2.1875,-5.953125 L 2.1875,-0.78125 C 2.1875,-0.421875 2.15625,-0.3125 1.265625,-0.3125 L 0.953125,-0.3125 L 0.953125,0 C 1.296875,-0.03125 2.15625,-0.03125 2.5625,-0.03125 C 2.953125,-0.03125 3.828125,-0.03125 4.171875,0 L 4.171875,-0.3125 L 3.859375,-0.3125 C 2.953125,-0.3125 2.9375,-0.421875 2.9375,-0.78125 L 2.9375,-6.375 z"
               style="stroke:none" />
          </symbol>
        </g>
      </defs>
      <g
         id="textext-38f75e9e-2">
        <g
           id="g5517"
           style="fill:#000000;fill-opacity:1">
          <use
             id="use5519"
             y="134.765"
             x="223.43201"
             xlink:href="#textext-38f75e9e-1"
             width="212.59842"
             height="177.16534" />
        </g>
      </g>
    </g>
  </g>
</svg>
